999
dxflib 2.0.4.0
  0
SECTION
  2
HEADER
  9
$ACADVER
  1
AC1015
  9
$HANDSEED
  5
FFFF
  9
$DIMASZ
 40
0.25
  9
$DIMGAP
 40
0.0625
  9
$DIMEXO
 40
0.0625
  9
$INSUNITS
 70
5
  9
$DIMTXT
 40
0.25
  9
$PLIMMAX
 10
21.0
 20
29.6999999999999993
  9
$PLIMMIN
 10
0.0
 20
0.0
  9
$DIMEXE
 40
0.125
  0
ENDSEC
  0
SECTION
  2
TABLES
  0
TABLE
  2
VPORT
  5
8
100
AcDbSymbolTable
 70
1
  0
VPORT
  5
30
100
AcDbSymbolTableRecord
100
AcDbViewportTableRecord
  2
*Active
 70
0
 10
0.0
 20
0.0
 11
1.0
 21
1.0
 12
286.3055555555554861
 22
148.5
 13
0.0
 23
0.0
 14
10.0
 24
10.0
 15
10.0
 25
10.0
 16
0.0
 26
0.0
 36
1.0
 17
0.0
 27
0.0
 37
0.0
 40
297.0
 41
1.92798353909465
 42
50.0
 43
0.0
 44
0.0
 50
0.0
 51
0.0
 71
0
 72
100
 73
1
 74
3
 75
1
 76
1
 77
0
 78
0
281
0
 65
1
110
0.0
120
0.0
130
0.0
111
1.0
121
0.0
131
0.0
112
0.0
122
1.0
132
0.0
 79
0
146
0.0
  0
ENDTAB
  0
TABLE
  2
LTYPE
  5
5
100
AcDbSymbolTable
 70
21
  0
LTYPE
  5
14
100
AcDbSymbolTableRecord
100
AcDbLinetypeTableRecord
  2
ByBlock
 70
0
  3

 72
65
 73
0
 40
0.0
  0
LTYPE
  5
15
100
AcDbSymbolTableRecord
100
AcDbLinetypeTableRecord
  2
ByLayer
 70
0
  3

 72
65
 73
0
 40
0.0
  0
LTYPE
  5
16
100
AcDbSymbolTableRecord
100
AcDbLinetypeTableRecord
  2
CONTINUOUS
 70
0
  3
Solid line
 72
65
 73
0
 40
0.0
  0
LTYPE
  5
31
100
AcDbSymbolTableRecord
100
AcDbLinetypeTableRecord
  2
DOT
 70
0
  3
Dot . . . . . . . . . . . . . . . . . . . . . .
 72
65
 73
2
 40
6.3499999999999996
 49
0.0
 74
0
 49
-6.3499999999999996
 74
0
  0
LTYPE
  5
32
100
AcDbSymbolTableRecord
100
AcDbLinetypeTableRecord
  2
DOT2
 70
0
  3
Dot (.5x) .....................................
 72
65
 73
2
 40
3.1749999999999998
 49
0.0
 74
0
 49
-3.1749999999999998
 74
0
  0
LTYPE
  5
33
100
AcDbSymbolTableRecord
100
AcDbLinetypeTableRecord
  2
DOTX2
 70
0
  3
Dot (2x) .  .  .  .  .  .  .  .  .  .  .  .  .
 72
65
 73
2
 40
12.6999999999999993
 49
0.0
 74
0
 49
-12.6999999999999993
 74
0
  0
LTYPE
  5
34
100
AcDbSymbolTableRecord
100
AcDbLinetypeTableRecord
  2
DASHED
 70
0
  3
Dashed __ __ __ __ __ __ __ __ __ __ __ __ __ _
 72
65
 73
2
 40
19.0500000000000007
 49
12.6999999999999993
 74
0
 49
-6.3499999999999996
 74
0
  0
LTYPE
  5
35
100
AcDbSymbolTableRecord
100
AcDbLinetypeTableRecord
  2
DASHED2
 70
0
  3
Dashed (.5x) _ _ _ _ _ _ _ _ _ _ _ _ _ _ _ _ _
 72
65
 73
2
 40
9.5250000000000004
 49
6.3499999999999996
 74
0
 49
-3.1749999999999998
 74
0
  0
LTYPE
  5
36
100
AcDbSymbolTableRecord
100
AcDbLinetypeTableRecord
  2
DASHEDX2
 70
0
  3
Dashed (2x) ____  ____  ____  ____  ____  ___
 72
65
 73
2
 40
38.1000000000000014
 49
25.3999999999999986
 74
0
 49
-12.6999999999999993
 74
0
  0
LTYPE
  5
37
100
AcDbSymbolTableRecord
100
AcDbLinetypeTableRecord
  2
DASHDOT
 70
0
  3
Dash dot __ . __ . __ . __ . __ . __ . __ . __
 72
65
 73
4
 40
25.3999999999999986
 49
12.6999999999999993
 74
0
 49
-6.3499999999999996
 74
0
 49
0.0
 74
0
 49
-6.3499999999999996
 74
0
  0
LTYPE
  5
38
100
AcDbSymbolTableRecord
100
AcDbLinetypeTableRecord
  2
DASHDOT2
 70
0
  3
Dash dot (.5x) _._._._._._._._._._._._._._._.
 72
65
 73
4
 40
12.6999999999999993
 49
6.3499999999999996
 74
0
 49
-3.1749999999999998
 74
0
 49
0.0
 74
0
 49
-3.1749999999999998
 74
0
  0
LTYPE
  5
39
100
AcDbSymbolTableRecord
100
AcDbLinetypeTableRecord
  2
DASHDOTX2
 70
0
  3
Dash dot (2x) ____  .  ____  .  ____  .  ___
 72
65
 73
4
 40
50.7999999999999972
 49
25.3999999999999986
 74
0
 49
-12.6999999999999993
 74
0
 49
0.0
 74
0
 49
-12.6999999999999993
 74
0
  0
LTYPE
  5
3A
100
AcDbSymbolTableRecord
100
AcDbLinetypeTableRecord
  2
DIVIDE
 70
0
  3
Divide ____ . . ____ . . ____ . . ____ . . ____
 72
65
 73
6
 40
31.75
 49
12.6999999999999993
 74
0
 49
-6.3499999999999996
 74
0
 49
0.0
 74
0
 49
-6.3499999999999996
 74
0
 49
0.0
 74
0
 49
-6.3499999999999996
 74
0
  0
LTYPE
  5
3B
100
AcDbSymbolTableRecord
100
AcDbLinetypeTableRecord
  2
DIVIDE2
 70
0
  3
Divide (.5x) __..__..__..__..__..__..__..__.._
 72
65
 73
6
 40
15.875
 49
6.3499999999999996
 74
0
 49
-3.1749999999999998
 74
0
 49
0.0
 74
0
 49
-3.1749999999999998
 74
0
 49
0.0
 74
0
 49
-3.1749999999999998
 74
0
  0
LTYPE
  5
3C
100
AcDbSymbolTableRecord
100
AcDbLinetypeTableRecord
  2
DIVIDEX2
 70
0
  3
Divide (2x) ________  .  .  ________  .  .  _
 72
65
 73
6
 40
63.5
 49
25.3999999999999986
 74
0
 49
-12.6999999999999993
 74
0
 49
0.0
 74
0
 49
-12.6999999999999993
 74
0
 49
0.0
 74
0
 49
-12.6999999999999993
 74
0
  0
LTYPE
  5
3D
100
AcDbSymbolTableRecord
100
AcDbLinetypeTableRecord
  2
CENTER
 70
0
  3
Center ____ _ ____ _ ____ _ ____ _ ____ _ ____
 72
65
 73
4
 40
50.7999999999999972
 49
31.75
 74
0
 49
-6.3499999999999996
 74
0
 49
6.3499999999999996
 74
0
 49
-6.3499999999999996
 74
0
  0
LTYPE
  5
3E
100
AcDbSymbolTableRecord
100
AcDbLinetypeTableRecord
  2
CENTER2
 70
0
  3
Center (.5x) ___ _ ___ _ ___ _ ___ _ ___ _ ___
 72
65
 73
4
 40
28.5749999999999993
 49
19.0500000000000007
 74
0
 49
-3.1749999999999998
 74
0
 49
3.1749999999999998
 74
0
 49
-3.1749999999999998
 74
0
  0
LTYPE
  5
3F
100
AcDbSymbolTableRecord
100
AcDbLinetypeTableRecord
  2
CENTERX2
 70
0
  3
Center (2x) ________  __  ________  __  _____
 72
65
 73
4
 40
101.5999999999999943
 49
63.5
 74
0
 49
-12.6999999999999993
 74
0
 49
12.6999999999999993
 74
0
 49
-12.6999999999999993
 74
0
  0
LTYPE
  5
40
100
AcDbSymbolTableRecord
100
AcDbLinetypeTableRecord
  2
BORDER
 70
0
  3
Border __ __ . __ __ . __ __ . __ __ . __ __ .
 72
65
 73
6
 40
44.4500000000000028
 49
12.6999999999999993
 74
0
 49
-6.3499999999999996
 74
0
 49
12.6999999999999993
 74
0
 49
-6.3499999999999996
 74
0
 49
0.0
 74
0
 49
-6.3499999999999996
 74
0
  0
LTYPE
  5
41
100
AcDbSymbolTableRecord
100
AcDbLinetypeTableRecord
  2
BORDER2
 70
0
  3
Border (.5x) __.__.__.__.__.__.__.__.__.__.__.
 72
65
 73
6
 40
22.2250000000000014
 49
6.3499999999999996
 74
0
 49
-3.1749999999999998
 74
0
 49
6.3499999999999996
 74
0
 49
-3.1749999999999998
 74
0
 49
0.0
 74
0
 49
-3.1749999999999998
 74
0
  0
LTYPE
  5
42
100
AcDbSymbolTableRecord
100
AcDbLinetypeTableRecord
  2
BORDERX2
 70
0
  3
Border (2x) ____  ____  .  ____  ____  .  ___
 72
65
 73
6
 40
88.9000000000000057
 49
25.3999999999999986
 74
0
 49
-12.6999999999999993
 74
0
 49
25.3999999999999986
 74
0
 49
-12.6999999999999993
 74
0
 49
0.0
 74
0
 49
-12.6999999999999993
 74
0
  0
ENDTAB
  0
TABLE
  2
LAYER
  5
2
100
AcDbSymbolTable
 70
4
  0
LAYER
  5
10
100
AcDbSymbolTableRecord
100
AcDbLayerTableRecord
  2
0
 70
0
 62
7
  6
CONTINUOUS
370
0
390
F
  0
LAYER
  5
43
100
AcDbSymbolTableRecord
100
AcDbLayerTableRecord
  2
guidelines
 70
1
 62
5
  6
CONTINUOUS
370
0
390
F
  0
LAYER
  5
44
100
AcDbSymbolTableRecord
100
AcDbLayerTableRecord
  2
numbers
 70
0
 62
7
  6
CONTINUOUS
370
0
390
F
  0
LAYER
  5
45
100
AcDbSymbolTableRecord
100
AcDbLayerTableRecord
  2
title
 70
0
 62
7
  6
CONTINUOUS
370
0
390
F
  0
ENDTAB
  0
TABLE
  2
STYLE
  5
3
100
AcDbSymbolTable
 70
1
  0
STYLE
  5
11
100
AcDbSymbolTableRecord
100
AcDbTextStyleTableRecord
  2
Standard
 70
0
 40
0.0
 41
1.0
 50
0.0
 71
0
 42
2.5
  3
txt
  4

  0
ENDTAB
  0
TABLE
  2
VIEW
  5
6
100
AcDbSymbolTable
 70
0
  0
ENDTAB
  0
TABLE
  2
UCS
  5
7
100
AcDbSymbolTable
 70
0
  0
ENDTAB
  0
TABLE
  2
APPID
  5
9
100
AcDbSymbolTable
 70
1
  0
APPID
  5
12
100
AcDbSymbolTableRecord
100
AcDbRegAppTableRecord
  2
ACAD
 70
0
  0
ENDTAB
  0
TABLE
  2
DIMSTYLE
  5
A
100
AcDbSymbolTable
 70
1
100
AcDbDimStyleTable
 71
0
  0
DIMSTYLE
105
27
100
AcDbSymbolTableRecord
100
AcDbDimStyleTableRecord
  2
Standard
 41
2.5
 42
0.625
 43
3.75
 44
1.25
 70
0
 73
0
 74
0
 77
1
 78
8
140
2.5
141
2.5
143
0.03937007874016
147
0.625
171
3
172
1
271
2
272
2
274
3
278
44
283
0
284
8
340
11
  0
ENDTAB
  0
TABLE
  2
BLOCK_RECORD
  5
1
100
AcDbSymbolTable
 70
1
  0
BLOCK_RECORD
  5
1F
100
AcDbSymbolTableRecord
100
AcDbBlockTableRecord
  2
*Model_Space
340
22
  0
BLOCK_RECORD
  5
1B
100
AcDbSymbolTableRecord
100
AcDbBlockTableRecord
  2
*Paper_Space
340
1E
  0
BLOCK_RECORD
  5
23
100
AcDbSymbolTableRecord
100
AcDbBlockTableRecord
  2
*Paper_Space0
340
26
  0
ENDTAB
  0
ENDSEC
  0
SECTION
  2
BLOCKS
  0
BLOCK
  5
20
100
AcDbEntity
  8
0
100
AcDbBlockBegin
  2
*Model_Space
 70
0
 10
0.0
 20
0.0
 30
0.0
  3
*Model_Space
  1

  0
ENDBLK
  5
21
100
AcDbEntity
  8
0
100
AcDbBlockEnd
  0
BLOCK
  5
1C
100
AcDbEntity
 67
1
  8
0
100
AcDbBlockBegin
  2
*Paper_Space
 70
0
 10
0.0
 20
0.0
 30
0.0
  3
*Paper_Space
  1

  0
ENDBLK
  5
1D
100
AcDbEntity
 67
1
  8
0
100
AcDbBlockEnd
  0
BLOCK
  5
24
100
AcDbEntity
  8
0
100
AcDbBlockBegin
  2
*Paper_Space0
 70
0
 10
0.0
 20
0.0
 30
0.0
  3
*Paper_Space0
  1

  0
ENDBLK
  5
25
100
AcDbEntity
  8
0
100
AcDbBlockEnd
  0
ENDSEC
  0
SECTION
  2
ENTITIES
  0
CIRCLE
  5
46
100
AcDbEntity
100
AcDbCircle
  8
guidelines
 62
256
370
-1
  6
ByLayer
 10
10.0
 20
10.0
 30
0.0
 40
6.4800000000000004
  0
CIRCLE
  5
47
100
AcDbEntity
100
AcDbCircle
  8
guidelines
 62
256
370
-1
  6
ByLayer
 10
10.0
 20
10.0
 30
0.0
 40
6.7999999999999998
  0
CIRCLE
  5
48
100
AcDbEntity
100
AcDbCircle
  8
guidelines
 62
256
370
-1
  6
ByLayer
 10
10.0
 20
10.0
 30
0.0
 40
6.2400000000000002
  0
CIRCLE
  5
49
100
AcDbEntity
100
AcDbCircle
  8
guidelines
 62
256
370
-1
  6
ByLayer
 10
10.0
 20
10.0
 30
0.0
 40
6.3600000000000003
  0
LINE
  5
4A
100
AcDbEntity
100
AcDbLine
  8
guidelines
 62
256
370
-1
  6
ByLayer
 10
18.0
 20
10.0
 30
0.0
 11
16.0
 21
10.0
 31
0.0
  0
ARC
  5
4B
100
AcDbEntity
  8
0
 62
256
370
-1
  6
ByLayer
100
AcDbCircle
 10
10.0
 20
10.0
 30
0.0
 40
8.0
100
AcDbArc
 50
353.5405502226449244
 51
186.4594497773550472
  0
LINE
  5
4C
100
AcDbEntity
100
AcDbLine
  8
0
 62
256
370
-1
  6
ByLayer
 10
2.05078620239712
 20
9.0999999999999943
 30
0.0
 11
17.94921379760288
 21
9.0999999999999943
 31
0.0
  0
ARC
  5
4D
100
AcDbEntity
  8
0
 62
256
370
-1
  6
ByLayer
100
AcDbCircle
 10
10.0
 20
10.0
 30
0.0
 40
6.2000000000000002
100
AcDbArc
 50
8.3466192632206084
 51
171.6533807367794111
  0
CIRCLE
  5
4E
100
AcDbEntity
100
AcDbCircle
  8
guidelines
 62
256
370
-1
  6
ByLayer
 10
10.0
 20
10.0
 30
0.0
 40
7.1600000000000046
  0
CIRCLE
  5
4F
100
AcDbEntity
100
AcDbCircle
  8
guidelines
 62
256
370
-1
  6
ByLayer
 10
10.0
 20
10.0
 30
0.0
 40
7.2800000000000038
  0
CIRCLE
  5
50
100
AcDbEntity
100
AcDbCircle
  8
guidelines
 62
256
370
-1
  6
ByLayer
 10
10.0
 20
10.0
 30
0.0
 40
0.16
  0
CIRCLE
  5
51
100
AcDbEntity
100
AcDbCircle
  8
guidelines
 62
256
370
-1
  6
ByLayer
 10
10.0
 20
10.0
 30
0.0
 40
0.9
  0
LINE
  5
52
100
AcDbEntity
100
AcDbLine
  8
0
 62
256
370
-1
  6
ByLayer
 10
10.0
 20
10.1599999999999966
 30
0.0
 11
10.0
 21
10.9000000000000057
 31
0.0
  0
LINE
  5
53
100
AcDbEntity
100
AcDbLine
  8
0
 62
256
370
-1
  6
ByLayer
 10
10.0
 20
9.0999999999999943
 30
0.0
 11
10.0
 21
9.8400000000000034
 31
0.0
  0
LINE
  5
54
100
AcDbEntity
100
AcDbLine
  8
0
 62
256
370
-1
  6
ByLayer
 10
9.0999999999999943
 20
10.0
 30
0.0
 11
9.8400000000000034
 21
10.0
 31
0.0
  0
LINE
  5
55
100
AcDbEntity
100
AcDbLine
  8
0
 62
256
370
-1
  6
ByLayer
 10
10.1599999999999966
 20
10.0
 30
0.0
 11
10.9000000000000057
 21
10.0
 31
0.0
  0
LINE
  5
56
100
AcDbEntity
100
AcDbLine
  8
0
 62
256
370
-1
  6
ByLayer
 10
11.5999999999999943
 20
10.0
 30
0.0
 11
15.5999999999999943
 21
10.0
 31
0.0
  0
LINE
  5
57
100
AcDbEntity
100
AcDbLine
  8
0
 62
256
370
-1
  6
ByLayer
 10
8.4000000000000057
 20
10.0
 30
0.0
 11
4.4000000000000057
 21
10.0
 31
0.0
  0
CIRCLE
  5
58
100
AcDbEntity
100
AcDbCircle
  8
0
 62
256
370
-1
  6
ByLayer
 10
10.0
 20
10.0
 30
0.0
 40
0.5
  0
CIRCLE
  5
59
100
AcDbEntity
100
AcDbCircle
  8
guidelines
 62
256
370
-1
  6
ByLayer
 10
10.0
 20
10.0
 30
0.0
 40
7.5
  0
LINE
  5
5A
100
AcDbEntity
100
AcDbLine
  8
0
 62
256
370
-1
  6
ByLayer
 10
17.9221445499325682
 20
11.113384807680518
 30
0.0
 11
17.4270105155617756
 21
11.0437982572004927
 31
0.0
  0
LINE
  5
5B
100
AcDbEntity
100
AcDbLine
  8
0
 62
256
370
-1
  6
ByLayer
 10
17.9403692131305803
 20
10.9749547472411848
 30
0.0
 11
17.4440961373099128
 21
10.9140200755386019
 31
0.0
  0
LINE
  5
5C
100
AcDbEntity
100
AcDbLine
  8
0
 62
256
370
-1
  6
ByLayer
 10
17.956175162946181
 20
10.83622770614123
 30
0.0
 11
17.4589142152620411
 21
10.7839634745074022
 31
0.0
  0
LINE
  5
5D
100
AcDbEntity
100
AcDbLine
  8
0
 62
256
370
-1
  6
ByLayer
 10
17.9805124020786025
 20
10.558051789952998
 30
0.0
 11
17.4817303769486756
 21
10.5231735530809374
 31
0.0
  0
LINE
  5
5E
100
AcDbEntity
100
AcDbLine
  8
0
 62
256
370
-1
  6
ByLayer
 10
17.9890362780365933
 20
10.4186876499435499
 30
0.0
 11
17.489721510659308
 21
10.3925196718220718
 31
0.0
  0
LINE
  5
5F
100
AcDbEntity
100
AcDbLine
  8
0
 62
256
370
-1
  6
ByLayer
 10
17.9951266161527599
 20
10.2791959736200056
 30
0.0
 11
17.4954312026432177
 21
10.2617462252687517
 31
0.0
  0
LINE
  5
60
100
AcDbEntity
100
AcDbLine
  8
0
 62
256
370
-1
  6
ByLayer
 10
17.9987815612511213
 20
10.1396192514982602
 30
0.0
 11
17.4988577136729333
 21
10.1308930482796313
 31
0.0
  0
LINE
  5
61
100
AcDbEntity
100
AcDbLine
  8
0
 62
256
370
-1
  6
ByLayer
 10
18.0
 20
10.0
 30
0.0
 11
17.1599999999999966
 21
10.0
 31
0.0
  0
LINE
  5
62
100
AcDbEntity
100
AcDbLine
  8
0
 62
256
370
-1
  6
ByLayer
 10
17.9015067247611057
 20
11.2514757203218494
 30
0.0
 11
17.4076625544635419
 21
11.173258487801732
 31
0.0
  0
LINE
  5
63
100
AcDbEntity
100
AcDbLine
  8
0
 62
256
370
-1
  6
ByLayer
 10
17.8784620240976722
 20
11.3891854213354407
 30
0.0
 11
17.0512235115674144
 21
11.2433209520952175
 31
0.0
  0
LINE
  5
64
100
AcDbEntity
100
AcDbLine
  8
0
 62
256
370
-1
  6
ByLayer
 10
17.6084521303612291
 20
12.4721359549995725
 30
0.0
 11
17.1329238722136523
 21
12.3176274578121081
 31
0.0
  0
LINE
  5
65
100
AcDbEntity
100
AcDbLine
  8
0
 62
256
370
-1
  6
ByLayer
 10
17.6504380477042844
 20
12.3389736377818906
 30
0.0
 11
17.1722856697227684
 21
12.1927877854205349
 31
0.0
  0
LINE
  5
66
100
AcDbEntity
100
AcDbLine
  8
0
 62
256
370
-1
  6
ByLayer
 10
17.6900935675065512
 20
12.2050988465360035
 30
0.0
 11
17.2094627195373846
 21
12.0672801686274909
 31
0.0
  0
LINE
  5
67
100
AcDbEntity
100
AcDbLine
  8
0
 62
256
370
-1
  6
ByLayer
 10
17.7623658102079673
 20
11.9353751647973496
 30
0.0
 11
17.2772179470699712
 21
11.8144142169975055
 31
0.0
  0
LINE
  5
68
100
AcDbEntity
100
AcDbLine
  8
0
 62
256
370
-1
  6
ByLayer
 10
17.7949605182818829
 20
11.7996084347509083
 30
0.0
 11
17.3077754858892661
 21
11.6871329075789987
 31
0.0
  0
LINE
  5
69
100
AcDbEntity
100
AcDbLine
  8
0
 62
256
370
-1
  6
ByLayer
 10
17.8251808058704455
 20
11.6632935265420485
 30
0.0
 11
17.3361070055035498
 21
11.5593376811332149
 31
0.0
  0
LINE
  5
6A
100
AcDbEntity
100
AcDbLine
  8
0
 62
256
370
-1
  6
ByLayer
 10
17.85301746758131
 20
11.5264719630123409
 30
0.0
 11
17.3622038758574888
 21
11.4310674653240767
 31
0.0
  0
LINE
  5
6B
100
AcDbEntity
100
AcDbLine
  8
0
 62
256
370
-1
  6
ByLayer
 10
17.564148604794525
 20
12.6045452356572554
 30
0.0
 11
17.0913893169948778
 21
12.441761158428676
 31
0.0
  0
LINE
  5
6C
100
AcDbEntity
100
AcDbLine
  8
0
 62
256
370
-1
  6
ByLayer
 10
17.517540966287271
 20
12.7361611466053546
 30
0.0
 11
16.7281991648271173
 21
12.4488642262117821
 31
0.0
  0
LINE
  5
6D
100
AcDbEntity
100
AcDbLine
  8
0
 62
256
370
-1
  6
ByLayer
 10
17.0635807428714088
 20
13.7557725022871296
 30
0.0
 11
16.62210694644196
 21
13.5210367208941875
 31
0.0
  0
LINE
  5
6E
100
AcDbEntity
100
AcDbLine
  8
0
 62
256
370
-1
  6
ByLayer
 10
17.1280521935069459
 20
13.631923997916374
 30
0.0
 11
16.6825489314127537
 21
13.4049287480466006
 31
0.0
  0
LINE
  5
6F
100
AcDbEntity
100
AcDbLine
  8
0
 62
256
370
-1
  6
ByLayer
 10
17.1903523703933274
 20
13.5069691743126157
 30
0.0
 11
16.7409553472437551
 21
13.2877836009180896
 31
0.0
  0
LINE
  5
70
100
AcDbEntity
100
AcDbLine
  8
0
 62
256
370
-1
  6
ByLayer
 10
17.3083636611408025
 20
13.2538931446064083
 30
0.0
 11
16.8515909323195103
 21
13.0505248230684998
 31
0.0
  0
LINE
  5
71
100
AcDbEntity
100
AcDbLine
  8
0
 62
256
370
-1
  6
ByLayer
 10
17.3640388276195239
 20
13.1258490279141853
 30
0.0
 11
16.9037864008932956
 21
12.9304834636695603
 31
0.0
  0
LINE
  5
72
100
AcDbEntity
100
AcDbLine
  8
0
 62
256
370
-1
  6
ByLayer
 10
17.4174708365343065
 20
12.9968527473272673
 30
0.0
 11
16.9538789092509035
 21
12.8095494506193575
 31
0.0
  0
LINE
  5
73
100
AcDbEntity
100
AcDbLine
  8
0
 62
256
370
-1
  6
ByLayer
 10
17.4686434119776095
 20
12.8669435963623897
 30
0.0
 11
17.0018531987290089
 21
12.6877596215897341
 31
0.0
  0
LINE
  5
74
100
AcDbEntity
100
AcDbLine
  8
0
 62
256
370
-1
  6
ByLayer
 10
16.9969576571151606
 20
13.8784769619706907
 30
0.0
 11
16.5596478035454737
 21
13.6360721518475287
 31
0.0
  0
LINE
  5
75
100
AcDbEntity
100
AcDbLine
  8
0
 62
256
370
-1
  6
ByLayer
 10
16.9282032302755141
 20
14.0
 30
0.0
 11
16.2007418910965839
 21
13.5799999999999983
 31
0.0
  0
LINE
  5
76
100
AcDbEntity
100
AcDbLine
  8
0
 62
256
370
-1
  6
ByLayer
 10
16.3040860288537743
 20
14.9252918026052583
 30
0.0
 11
15.910080652050425
 21
14.6174610649424324
 31
0.0
  0
LINE
  5
77
100
AcDbEntity
100
AcDbLine
  8
0
 62
256
370
-1
  6
ByLayer
 10
16.3890840803783533
 20
14.8145201852163808
 30
0.0
 11
15.9897663253546938
 21
14.5136126736403668
 31
0.0
  0
LINE
  5
78
100
AcDbEntity
100
AcDbLine
  8
0
 62
256
370
-1
  6
ByLayer
 10
16.4721359549995725
 20
14.7022820183397869
 30
0.0
 11
16.0676274578121081
 21
14.4083893921935555
 31
0.0
  0
LINE
  5
79
100
AcDbEntity
100
AcDbLine
  8
0
 62
256
370
-1
  6
ByLayer
 10
16.6323005804403294
 20
14.4735432277659868
 30
0.0
 11
16.2177817941628035
 21
14.1939467760306002
 31
0.0
  0
LINE
  5
7A
100
AcDbEntity
100
AcDbLine
  8
0
 62
256
370
-1
  6
ByLayer
 10
16.709364543563396
 20
14.3571122801202051
 30
0.0
 11
16.2900292595906819
 21
14.0847927626127074
 31
0.0
  0
LINE
  5
7B
100
AcDbEntity
100
AcDbLine
  8
0
 62
256
370
-1
  6
ByLayer
 10
16.7843847692514316
 20
14.2393541138656161
 30
0.0
 11
16.3603607211731799
 21
13.9743944817490444
 31
0.0
  0
LINE
  5
7C
100
AcDbEntity
100
AcDbLine
  8
0
 62
256
370
-1
  6
ByLayer
 10
16.8573384056169004
 20
14.1203045992804164
 30
0.0
 11
16.4287547552658566
 21
13.8627855618253903
 31
0.0
  0
LINE
  5
7D
100
AcDbEntity
100
AcDbLine
  8
0
 62
256
370
-1
  6
ByLayer
 10
16.2171676916557601
 20
15.0345631283987018
 30
0.0
 11
15.8285947109272911
 21
14.7199029328737794
 31
0.0
  0
LINE
  5
7E
100
AcDbEntity
100
AcDbLine
  8
0
 62
256
370
-1
  6
ByLayer
 10
16.1283555449518303
 20
15.1423008774923176
 30
0.0
 11
15.4848782127318856
 21
14.6023592853556181
 31
0.0
  0
LINE
  5
7F
100
AcDbEntity
100
AcDbLine
  8
0
 62
256
370
-1
  6
ByLayer
 10
15.353044850870873
 20
15.9451586038191522
 30
0.0
 11
15.0184795476914417
 21
15.5735861910804516
 31
0.0
  0
LINE
  5
80
100
AcDbEntity
100
AcDbLine
  8
0
 62
256
370
-1
  6
ByLayer
 10
15.4559868804999923
 20
15.8508296129533619
 30
0.0
 11
15.1149877004687312
 21
15.4851527621437839
 31
0.0
  0
LINE
  5
81
100
AcDbEntity
100
AcDbLine
  8
0
 62
256
370
-1
  6
ByLayer
 10
15.557266963671978
 20
15.7547184027092158
 30
0.0
 11
15.2099377784424803
 21
15.3950485025398791
 31
0.0
  0
LINE
  5
82
100
AcDbEntity
100
AcDbLine
  8
0
 62
256
370
-1
  6
ByLayer
 10
15.7547184027092015
 20
15.5572669636719922
 30
0.0
 11
15.3950485025398791
 21
15.2099377784424803
 31
0.0
  0
LINE
  5
83
100
AcDbEntity
100
AcDbLine
  8
0
 62
256
370
-1
  6
ByLayer
 10
15.8508296129533619
 20
15.455986880499978
 30
0.0
 11
15.4851527621437697
 21
15.1149877004687454
 31
0.0
  0
LINE
  5
84
100
AcDbEntity
100
AcDbLine
  8
0
 62
256
370
-1
  6
ByLayer
 10
15.9451586038191806
 20
15.3530448508708446
 30
0.0
 11
15.5735861910804516
 21
15.0184795476914559
 31
0.0
  0
LINE
  5
85
100
AcDbEntity
100
AcDbLine
  8
0
 62
256
370
-1
  6
ByLayer
 10
16.0376766417821841
 20
15.2484722319240404
 30
0.0
 11
15.6603218516708012
 21
14.9204427174287986
 31
0.0
  0
LINE
  5
86
100
AcDbEntity
100
AcDbLine
  8
0
 62
256
370
-1
  6
ByLayer
 10
15.2484722319240547
 20
16.0376766417821699
 30
0.0
 11
14.9204427174288128
 21
15.6603218516707869
 31
0.0
  0
LINE
  5
87
100
AcDbEntity
100
AcDbLine
  8
0
 62
256
370
-1
  6
ByLayer
 10
15.1423008774923176
 20
16.1283555449518303
 30
0.0
 11
14.6023592853556181
 21
15.4848782127318856
 31
0.0
  0
LINE
  5
88
100
AcDbEntity
100
AcDbLine
  8
0
 62
256
370
-1
  6
ByLayer
 10
14.2393541138656445
 20
16.7843847692514032
 30
0.0
 11
13.9743944817490444
 21
16.3603607211731941
 31
0.0
  0
LINE
  5
89
100
AcDbEntity
100
AcDbLine
  8
0
 62
256
370
-1
  6
ByLayer
 10
14.3571122801202193
 20
16.709364543563396
 30
0.0
 11
14.0847927626126932
 21
16.2900292595906819
 31
0.0
  0
LINE
  5
8A
100
AcDbEntity
100
AcDbLine
  8
0
 62
256
370
-1
  6
ByLayer
 10
14.4735432277659726
 20
16.6323005804403294
 30
0.0
 11
14.1939467760306002
 21
16.2177817941628177
 31
0.0
  0
LINE
  5
8B
100
AcDbEntity
100
AcDbLine
  8
0
 62
256
370
-1
  6
ByLayer
 10
14.7022820183397869
 20
16.4721359549995867
 30
0.0
 11
14.4083893921935413
 21
16.0676274578121081
 31
0.0
  0
LINE
  5
8C
100
AcDbEntity
100
AcDbLine
  8
0
 62
256
370
-1
  6
ByLayer
 10
14.814520185216395
 20
16.3890840803783391
 30
0.0
 11
14.5136126736403526
 21
15.989766325354708
 31
0.0
  0
LINE
  5
8D
100
AcDbEntity
100
AcDbLine
  8
0
 62
256
370
-1
  6
ByLayer
 10
14.925291802605301
 20
16.3040860288537601
 30
0.0
 11
14.6174610649424324
 21
15.910080652050425
 31
0.0
  0
LINE
  5
8E
100
AcDbEntity
100
AcDbLine
  8
0
 62
256
370
-1
  6
ByLayer
 10
15.0345631283987018
 20
16.2171676916557601
 30
0.0
 11
14.7199029328737936
 21
15.8285947109272769
 31
0.0
  0
LINE
  5
8F
100
AcDbEntity
100
AcDbLine
  8
0
 62
256
370
-1
  6
ByLayer
 10
14.1203045992804306
 20
16.8573384056169004
 30
0.0
 11
13.8627855618254046
 21
16.4287547552658424
 31
0.0
  0
LINE
  5
90
100
AcDbEntity
100
AcDbLine
  8
0
 62
256
370
-1
  6
ByLayer
 10
14.0
 20
16.9282032302754999
 30
0.0
 11
13.5800000000000125
 21
16.2007418910965839
 31
0.0
  0
LINE
  5
91
100
AcDbEntity
100
AcDbLine
  8
0
 62
256
370
-1
  6
ByLayer
 10
12.9968527473272957
 20
17.4174708365342923
 30
0.0
 11
12.8095494506193432
 21
16.9538789092509035
 31
0.0
  0
LINE
  5
92
100
AcDbEntity
100
AcDbLine
  8
0
 62
256
370
-1
  6
ByLayer
 10
13.1258490279141995
 20
17.3640388276195239
 30
0.0
 11
12.930483463669546
 21
16.9037864008932956
 31
0.0
  0
LINE
  5
93
100
AcDbEntity
100
AcDbLine
  8
0
 62
256
370
-1
  6
ByLayer
 10
13.2538931446063941
 20
17.3083636611408167
 30
0.0
 11
13.0505248230684998
 21
16.8515909323195103
 31
0.0
  0
LINE
  5
94
100
AcDbEntity
100
AcDbLine
  8
0
 62
256
370
-1
  6
ByLayer
 10
13.5069691743126157
 20
17.1903523703933416
 30
0.0
 11
13.2877836009180754
 21
16.7409553472437551
 31
0.0
  0
LINE
  5
95
100
AcDbEntity
100
AcDbLine
  8
0
 62
256
370
-1
  6
ByLayer
 10
13.6319239979163882
 20
17.1280521935069316
 30
0.0
 11
13.4049287480466006
 21
16.6825489314127537
 31
0.0
  0
LINE
  5
96
100
AcDbEntity
100
AcDbLine
  8
0
 62
256
370
-1
  6
ByLayer
 10
13.755772502287158
 20
17.0635807428713946
 30
0.0
 11
13.5210367208941733
 21
16.62210694644196
 31
0.0
  0
LINE
  5
97
100
AcDbEntity
100
AcDbLine
  8
0
 62
256
370
-1
  6
ByLayer
 10
13.8784769619707049
 20
16.9969576571151606
 30
0.0
 11
13.636072151847543
 21
16.5596478035454595
 31
0.0
  0
LINE
  5
98
100
AcDbEntity
100
AcDbLine
  8
0
 62
256
370
-1
  6
ByLayer
 10
12.8669435963624039
 20
17.4686434119776095
 30
0.0
 11
12.6877596215897483
 21
17.0018531987290089
 31
0.0
  0
LINE
  5
99
100
AcDbEntity
100
AcDbLine
  8
0
 62
256
370
-1
  6
ByLayer
 10
12.7361611466053546
 20
17.517540966287271
 30
0.0
 11
12.4488642262117963
 21
16.7281991648271031
 31
0.0
  0
LINE
  5
9A
100
AcDbEntity
100
AcDbLine
  8
0
 62
256
370
-1
  6
ByLayer
 10
11.663293526542077
 20
17.8251808058704455
 30
0.0
 11
11.5593376811332007
 21
17.3361070055035498
 31
0.0
  0
LINE
  5
9B
100
AcDbEntity
100
AcDbLine
  8
0
 62
256
370
-1
  6
ByLayer
 10
11.7996084347509225
 20
17.7949605182818829
 30
0.0
 11
11.6871329075789845
 21
17.3077754858892661
 31
0.0
  0
LINE
  5
9C
100
AcDbEntity
100
AcDbLine
  8
0
 62
256
370
-1
  6
ByLayer
 10
11.9353751647973354
 20
17.7623658102079673
 30
0.0
 11
11.8144142169975055
 21
17.2772179470699712
 31
0.0
  0
LINE
  5
9D
100
AcDbEntity
100
AcDbLine
  8
0
 62
256
370
-1
  6
ByLayer
 10
12.2050988465359893
 20
17.6900935675065512
 30
0.0
 11
12.0672801686274909
 21
17.2094627195373846
 31
0.0
  0
LINE
  5
9E
100
AcDbEntity
100
AcDbLine
  8
0
 62
256
370
-1
  6
ByLayer
 10
12.3389736377819048
 20
17.6504380477042844
 30
0.0
 11
12.1927877854205207
 21
17.1722856697227684
 31
0.0
  0
LINE
  5
9F
100
AcDbEntity
100
AcDbLine
  8
0
 62
256
370
-1
  6
ByLayer
 10
12.4721359549996151
 20
17.6084521303612149
 30
0.0
 11
12.3176274578120939
 21
17.1329238722136665
 31
0.0
  0
LINE
  5
A0
100
AcDbEntity
100
AcDbLine
  8
0
 62
256
370
-1
  6
ByLayer
 10
12.6045452356572696
 20
17.564148604794525
 30
0.0
 11
12.4417611584286902
 21
17.0913893169948778
 31
0.0
  0
LINE
  5
A1
100
AcDbEntity
100
AcDbLine
  8
0
 62
256
370
-1
  6
ByLayer
 10
11.5264719630123551
 20
17.85301746758131
 30
0.0
 11
11.4310674653240909
 21
17.3622038758574888
 31
0.0
  0
LINE
  5
A2
100
AcDbEntity
100
AcDbLine
  8
0
 62
256
370
-1
  6
ByLayer
 10
11.3891854213354407
 20
17.8784620240976722
 30
0.0
 11
11.2433209520952317
 21
17.0512235115674144
 31
0.0
  0
LINE
  5
A3
100
AcDbEntity
100
AcDbLine
  8
0
 62
256
370
-1
  6
ByLayer
 10
10.2791959736200056
 20
17.9951266161527599
 30
0.0
 11
10.2617462252687659
 21
17.4954312026432177
 31
0.0
  0
LINE
  5
A4
100
AcDbEntity
100
AcDbLine
  8
0
 62
256
370
-1
  6
ByLayer
 10
10.4186876499435499
 20
17.9890362780365933
 30
0.0
 11
10.3925196718220718
 21
17.489721510659308
 31
0.0
  0
LINE
  5
A5
100
AcDbEntity
100
AcDbLine
  8
0
 62
256
370
-1
  6
ByLayer
 10
10.558051789952998
 20
17.9805124020786025
 30
0.0
 11
10.5231735530809374
 21
17.4817303769486756
 31
0.0
  0
LINE
  5
A6
100
AcDbEntity
100
AcDbLine
  8
0
 62
256
370
-1
  6
ByLayer
 10
10.8362277061412158
 20
17.956175162946181
 30
0.0
 11
10.7839634745074022
 21
17.4589142152620411
 31
0.0
  0
LINE
  5
A7
100
AcDbEntity
100
AcDbLine
  8
0
 62
256
370
-1
  6
ByLayer
 10
10.9749547472411848
 20
17.9403692131305661
 30
0.0
 11
10.9140200755386019
 21
17.4440961373099128
 31
0.0
  0
LINE
  5
A8
100
AcDbEntity
100
AcDbLine
  8
0
 62
256
370
-1
  6
ByLayer
 10
11.1133848076805606
 20
17.922144549932554
 30
0.0
 11
11.0437982572004785
 21
17.4270105155617898
 31
0.0
  0
LINE
  5
A9
100
AcDbEntity
100
AcDbLine
  8
0
 62
256
370
-1
  6
ByLayer
 10
11.2514757203218636
 20
17.9015067247611057
 30
0.0
 11
11.1732584878017462
 21
17.4076625544635277
 31
0.0
  0
LINE
  5
AA
100
AcDbEntity
100
AcDbLine
  8
0
 62
256
370
-1
  6
ByLayer
 10
10.1396192514982744
 20
17.9987815612511213
 30
0.0
 11
10.1308930482796313
 21
17.4988577136729333
 31
0.0
  0
LINE
  5
AB
100
AcDbEntity
100
AcDbLine
  8
0
 62
256
370
-1
  6
ByLayer
 10
10.0
 20
18.0
 30
0.0
 11
10.0
 21
17.1599999999999966
 31
0.0
  0
LINE
  5
AC
100
AcDbEntity
100
AcDbLine
  8
0
 62
256
370
-1
  6
ByLayer
 10
8.886615192319482
 20
17.9221445499325682
 30
0.0
 11
8.9562017427995073
 21
17.4270105155617756
 31
0.0
  0
LINE
  5
AD
100
AcDbEntity
100
AcDbLine
  8
0
 62
256
370
-1
  6
ByLayer
 10
9.0250452527588294
 20
17.9403692131305803
 30
0.0
 11
9.0859799244613839
 21
17.4440961373099128
 31
0.0
  0
LINE
  5
AE
100
AcDbEntity
100
AcDbLine
  8
0
 62
256
370
-1
  6
ByLayer
 10
9.16377229385877
 20
17.956175162946181
 30
0.0
 11
9.2160365254925978
 21
17.4589142152620411
 31
0.0
  0
LINE
  5
AF
100
AcDbEntity
100
AcDbLine
  8
0
 62
256
370
-1
  6
ByLayer
 10
9.4419482100469878
 20
17.9805124020786025
 30
0.0
 11
9.4768264469190626
 21
17.4817303769486756
 31
0.0
  0
LINE
  5
B0
100
AcDbEntity
100
AcDbLine
  8
0
 62
256
370
-1
  6
ByLayer
 10
9.5813123500564643
 20
17.9890362780365933
 30
0.0
 11
9.607480328177914
 21
17.489721510659308
 31
0.0
  0
LINE
  5
B1
100
AcDbEntity
100
AcDbLine
  8
0
 62
256
370
-1
  6
ByLayer
 10
9.7208040263800228
 20
17.9951266161527599
 30
0.0
 11
9.7382537747312199
 21
17.4954312026432177
 31
0.0
  0
LINE
  5
B2
100
AcDbEntity
100
AcDbLine
  8
0
 62
256
370
-1
  6
ByLayer
 10
9.8603807485017398
 20
17.9987815612511213
 30
0.0
 11
9.8691069517203829
 21
17.4988577136729333
 31
0.0
  0
LINE
  5
B3
100
AcDbEntity
100
AcDbLine
  8
0
 62
256
370
-1
  6
ByLayer
 10
8.7485242796781506
 20
17.9015067247611057
 30
0.0
 11
8.826741512198268
 21
17.4076625544635419
 31
0.0
  0
LINE
  5
B4
100
AcDbEntity
100
AcDbLine
  8
0
 62
256
370
-1
  6
ByLayer
 10
8.6108145786645593
 20
17.8784620240976722
 30
0.0
 11
8.7566790479047825
 21
17.0512235115674144
 31
0.0
  0
LINE
  5
B5
100
AcDbEntity
100
AcDbLine
  8
0
 62
256
370
-1
  6
ByLayer
 10
7.5278640450004275
 20
17.6084521303612291
 30
0.0
 11
7.6823725421878919
 21
17.1329238722136523
 31
0.0
  0
LINE
  5
B6
100
AcDbEntity
100
AcDbLine
  8
0
 62
256
370
-1
  6
ByLayer
 10
7.6610263622181094
 20
17.6504380477042844
 30
0.0
 11
7.8072122145794651
 21
17.1722856697227684
 31
0.0
  0
LINE
  5
B7
100
AcDbEntity
100
AcDbLine
  8
0
 62
256
370
-1
  6
ByLayer
 10
7.7949011534639965
 20
17.6900935675065512
 30
0.0
 11
7.9327198313725091
 21
17.2094627195373846
 31
0.0
  0
LINE
  5
B8
100
AcDbEntity
100
AcDbLine
  8
0
 62
256
370
-1
  6
ByLayer
 10
8.0646248352026504
 20
17.7623658102079673
 30
0.0
 11
8.1855857830024945
 21
17.2772179470699712
 31
0.0
  0
LINE
  5
B9
100
AcDbEntity
100
AcDbLine
  8
0
 62
256
370
-1
  6
ByLayer
 10
8.2003915652490917
 20
17.7949605182818829
 30
0.0
 11
8.3128670924210013
 21
17.3077754858892661
 31
0.0
  0
LINE
  5
BA
100
AcDbEntity
100
AcDbLine
  8
0
 62
256
370
-1
  6
ByLayer
 10
8.3367064734579515
 20
17.8251808058704455
 30
0.0
 11
8.4406623188667851
 21
17.3361070055035498
 31
0.0
  0
LINE
  5
BB
100
AcDbEntity
100
AcDbLine
  8
0
 62
256
370
-1
  6
ByLayer
 10
8.4735280369876591
 20
17.85301746758131
 30
0.0
 11
8.5689325346759233
 21
17.3622038758574888
 31
0.0
  0
LINE
  5
BC
100
AcDbEntity
100
AcDbLine
  8
0
 62
256
370
-1
  6
ByLayer
 10
7.3954547643427446
 20
17.564148604794525
 30
0.0
 11
7.558238841571324
 21
17.0913893169948778
 31
0.0
  0
LINE
  5
BD
100
AcDbEntity
100
AcDbLine
  8
0
 62
256
370
-1
  6
ByLayer
 10
7.2638388533946596
 20
17.517540966287271
 30
0.0
 11
7.5511357737882179
 21
16.7281991648271173
 31
0.0
  0
LINE
  5
BE
100
AcDbEntity
100
AcDbLine
  8
0
 62
256
370
-1
  6
ByLayer
 10
6.2442274977128704
 20
17.0635807428714088
 30
0.0
 11
6.4789632791058125
 21
16.62210694644196
 31
0.0
  0
LINE
  5
BF
100
AcDbEntity
100
AcDbLine
  8
0
 62
256
370
-1
  6
ByLayer
 10
6.368076002083626
 20
17.1280521935069459
 30
0.0
 11
6.5950712519533994
 21
16.6825489314127537
 31
0.0
  0
LINE
  5
C0
100
AcDbEntity
100
AcDbLine
  8
0
 62
256
370
-1
  6
ByLayer
 10
6.4930308256873701
 20
17.1903523703933274
 30
0.0
 11
6.7122163990819104
 21
16.7409553472437551
 31
0.0
  0
LINE
  5
C1
100
AcDbEntity
100
AcDbLine
  8
0
 62
256
370
-1
  6
ByLayer
 10
6.7461068553935917
 20
17.3083636611408025
 30
0.0
 11
6.9494751769315002
 21
16.8515909323195103
 31
0.0
  0
LINE
  5
C2
100
AcDbEntity
100
AcDbLine
  8
0
 62
256
370
-1
  6
ByLayer
 10
6.8741509720858147
 20
17.3640388276195239
 30
0.0
 11
7.0695165363304397
 21
16.9037864008932956
 31
0.0
  0
LINE
  5
C3
100
AcDbEntity
100
AcDbLine
  8
0
 62
256
370
-1
  6
ByLayer
 10
7.0031472526727327
 20
17.4174708365343065
 30
0.0
 11
7.1904505493806425
 21
16.9538789092509035
 31
0.0
  0
LINE
  5
C4
100
AcDbEntity
100
AcDbLine
  8
0
 62
256
370
-1
  6
ByLayer
 10
7.1330564036376103
 20
17.4686434119776095
 30
0.0
 11
7.3122403784102659
 21
17.0018531987290089
 31
0.0
  0
LINE
  5
C5
100
AcDbEntity
100
AcDbLine
  8
0
 62
256
370
-1
  6
ByLayer
 10
6.1215230380293093
 20
16.9969576571151606
 30
0.0
 11
6.3639278481524713
 21
16.5596478035454737
 31
0.0
  0
LINE
  5
C6
100
AcDbEntity
100
AcDbLine
  8
0
 62
256
370
-1
  6
ByLayer
 10
6.0
 20
16.9282032302755141
 30
0.0
 11
6.4200000000000017
 21
16.2007418910965839
 31
0.0
  0
LINE
  5
C7
100
AcDbEntity
100
AcDbLine
  8
0
 62
256
370
-1
  6
ByLayer
 10
5.0747081973947417
 20
16.3040860288537743
 30
0.0
 11
5.3825389350575676
 21
15.910080652050425
 31
0.0
  0
LINE
  5
C8
100
AcDbEntity
100
AcDbLine
  8
0
 62
256
370
-1
  6
ByLayer
 10
5.1854798147836192
 20
16.3890840803783533
 30
0.0
 11
5.4863873263596332
 21
15.9897663253546938
 31
0.0
  0
LINE
  5
C9
100
AcDbEntity
100
AcDbLine
  8
0
 62
256
370
-1
  6
ByLayer
 10
5.2977179816602131
 20
16.4721359549995725
 30
0.0
 11
5.5916106078064445
 21
16.0676274578121081
 31
0.0
  0
LINE
  5
CA
100
AcDbEntity
100
AcDbLine
  8
0
 62
256
370
-1
  6
ByLayer
 10
5.5264567722340274
 20
16.6323005804403294
 30
0.0
 11
5.8060532239693998
 21
16.2177817941628177
 31
0.0
  0
LINE
  5
CB
100
AcDbEntity
100
AcDbLine
  8
0
 62
256
370
-1
  6
ByLayer
 10
5.6428877198797949
 20
16.709364543563396
 30
0.0
 11
5.9152072373872926
 21
16.2900292595906819
 31
0.0
  0
LINE
  5
CC
100
AcDbEntity
100
AcDbLine
  8
0
 62
256
370
-1
  6
ByLayer
 10
5.7606458861343839
 20
16.7843847692514316
 30
0.0
 11
6.0256055182509556
 21
16.3603607211731941
 31
0.0
  0
LINE
  5
CD
100
AcDbEntity
100
AcDbLine
  8
0
 62
256
370
-1
  6
ByLayer
 10
5.8796954007195836
 20
16.8573384056169004
 30
0.0
 11
6.1372144381746097
 21
16.4287547552658566
 31
0.0
  0
LINE
  5
CE
100
AcDbEntity
100
AcDbLine
  8
0
 62
256
370
-1
  6
ByLayer
 10
4.9654368716013124
 20
16.2171676916557601
 30
0.0
 11
5.2800970671262206
 21
15.8285947109272911
 31
0.0
  0
LINE
  5
CF
100
AcDbEntity
100
AcDbLine
  8
0
 62
256
370
-1
  6
ByLayer
 10
4.8576991225076966
 20
16.1283555449518303
 30
0.0
 11
5.3976407146443819
 21
15.4848782127318856
 31
0.0
  0
LINE
  5
D0
100
AcDbEntity
100
AcDbLine
  8
0
 62
256
370
-1
  6
ByLayer
 10
4.0548413961808478
 20
15.353044850870873
 30
0.0
 11
4.4264138089195484
 21
15.0184795476914417
 31
0.0
  0
LINE
  5
D1
100
AcDbEntity
100
AcDbLine
  8
0
 62
256
370
-1
  6
ByLayer
 10
4.1491703870466381
 20
15.4559868804999923
 30
0.0
 11
4.5148472378562161
 21
15.1149877004687312
 31
0.0
  0
LINE
  5
D2
100
AcDbEntity
100
AcDbLine
  8
0
 62
256
370
-1
  6
ByLayer
 10
4.2452815972907842
 20
15.557266963671978
 30
0.0
 11
4.6049514974601209
 21
15.2099377784424803
 31
0.0
  0
LINE
  5
D3
100
AcDbEntity
100
AcDbLine
  8
0
 62
256
370
-1
  6
ByLayer
 10
4.442733036328022
 20
15.7547184027092158
 30
0.0
 11
4.7900622215575197
 21
15.3950485025398791
 31
0.0
  0
LINE
  5
D4
100
AcDbEntity
100
AcDbLine
  8
0
 62
256
370
-1
  6
ByLayer
 10
4.544013119500022
 20
15.8508296129533619
 30
0.0
 11
4.8850122995312546
 21
15.4851527621437697
 31
0.0
  0
LINE
  5
D5
100
AcDbEntity
100
AcDbLine
  8
0
 62
256
370
-1
  6
ByLayer
 10
4.6469551491291554
 20
15.9451586038191806
 30
0.0
 11
4.9815204523085441
 21
15.5735861910804516
 31
0.0
  0
LINE
  5
D6
100
AcDbEntity
100
AcDbLine
  8
0
 62
256
370
-1
  6
ByLayer
 10
4.7515277680759596
 20
16.0376766417821841
 30
0.0
 11
5.0795572825712014
 21
15.6603218516708012
 31
0.0
  0
LINE
  5
D7
100
AcDbEntity
100
AcDbLine
  8
0
 62
256
370
-1
  6
ByLayer
 10
3.9623233582178301
 20
15.2484722319240547
 30
0.0
 11
4.3396781483292131
 21
14.9204427174288128
 31
0.0
  0
LINE
  5
D8
100
AcDbEntity
100
AcDbLine
  8
0
 62
256
370
-1
  6
ByLayer
 10
3.8716444550481697
 20
15.1423008774923176
 30
0.0
 11
4.5151217872681144
 21
14.6023592853556181
 31
0.0
  0
LINE
  5
D9
100
AcDbEntity
100
AcDbLine
  8
0
 62
256
370
-1
  6
ByLayer
 10
3.2156152307485968
 20
14.2393541138656445
 30
0.0
 11
3.6396392788268059
 21
13.9743944817490444
 31
0.0
  0
LINE
  5
DA
100
AcDbEntity
100
AcDbLine
  8
0
 62
256
370
-1
  6
ByLayer
 10
3.290635456436604
 20
14.3571122801202193
 30
0.0
 11
3.7099707404093181
 21
14.0847927626127074
 31
0.0
  0
LINE
  5
DB
100
AcDbEntity
100
AcDbLine
  8
0
 62
256
370
-1
  6
ByLayer
 10
3.3676994195596706
 20
14.4735432277659726
 30
0.0
 11
3.7822182058371823
 21
14.1939467760306002
 31
0.0
  0
LINE
  5
DC
100
AcDbEntity
100
AcDbLine
  8
0
 62
256
370
-1
  6
ByLayer
 10
3.5278640450004133
 20
14.7022820183397869
 30
0.0
 11
3.9323725421878919
 21
14.4083893921935413
 31
0.0
  0
LINE
  5
DD
100
AcDbEntity
100
AcDbLine
  8
0
 62
256
370
-1
  6
ByLayer
 10
3.6109159196216609
 20
14.814520185216395
 30
0.0
 11
4.0102336746453062
 21
14.5136126736403526
 31
0.0
  0
LINE
  5
DE
100
AcDbEntity
100
AcDbLine
  8
0
 62
256
370
-1
  6
ByLayer
 10
3.6959139711462399
 20
14.925291802605301
 30
0.0
 11
4.089919347949575
 21
14.6174610649424324
 31
0.0
  0
LINE
  5
DF
100
AcDbEntity
100
AcDbLine
  8
0
 62
256
370
-1
  6
ByLayer
 10
3.7828323083442399
 20
15.0345631283987018
 30
0.0
 11
4.1714052890727231
 21
14.7199029328737936
 31
0.0
  0
LINE
  5
E0
100
AcDbEntity
100
AcDbLine
  8
0
 62
256
370
-1
  6
ByLayer
 10
3.1426615943831138
 20
14.1203045992804448
 30
0.0
 11
3.5712452447341576
 21
13.8627855618254046
 31
0.0
  0
LINE
  5
E1
100
AcDbEntity
100
AcDbLine
  8
0
 62
256
370
-1
  6
ByLayer
 10
3.0717967697244859
 20
14.0
 30
0.0
 11
3.7992581089034161
 21
13.5800000000000125
 31
0.0
  0
LINE
  5
E2
100
AcDbEntity
100
AcDbLine
  8
0
 62
256
370
-1
  6
ByLayer
 10
2.5825291634657077
 20
12.9968527473272957
 30
0.0
 11
3.0461210907490965
 21
12.8095494506193432
 31
0.0
  0
LINE
  5
E3
100
AcDbEntity
100
AcDbLine
  8
0
 62
256
370
-1
  6
ByLayer
 10
2.6359611723804761
 20
13.1258490279141995
 30
0.0
 11
3.0962135991066901
 21
12.930483463669546
 31
0.0
  0
LINE
  5
E4
100
AcDbEntity
100
AcDbLine
  8
0
 62
256
370
-1
  6
ByLayer
 10
2.6916363388591833
 20
13.2538931446063941
 30
0.0
 11
3.1484090676804897
 21
13.0505248230684998
 31
0.0
  0
LINE
  5
E5
100
AcDbEntity
100
AcDbLine
  8
0
 62
256
370
-1
  6
ByLayer
 10
2.8096476296066584
 20
13.5069691743126157
 30
0.0
 11
3.2590446527562449
 21
13.2877836009180754
 31
0.0
  0
LINE
  5
E6
100
AcDbEntity
100
AcDbLine
  8
0
 62
256
370
-1
  6
ByLayer
 10
2.8719478064930684
 20
13.6319239979163882
 30
0.0
 11
3.317451068587232
 21
13.4049287480466006
 31
0.0
  0
LINE
  5
E7
100
AcDbEntity
100
AcDbLine
  8
0
 62
256
370
-1
  6
ByLayer
 10
2.9364192571286054
 20
13.755772502287158
 30
0.0
 11
3.37789305355804
 21
13.5210367208941591
 31
0.0
  0
LINE
  5
E8
100
AcDbEntity
100
AcDbLine
  8
0
 62
256
370
-1
  6
ByLayer
 10
3.0030423428848394
 20
13.8784769619707049
 30
0.0
 11
3.4403521964545405
 21
13.636072151847543
 31
0.0
  0
LINE
  5
E9
100
AcDbEntity
100
AcDbLine
  8
0
 62
256
370
-1
  6
ByLayer
 10
2.5313565880223905
 20
12.8669435963624039
 30
0.0
 11
2.9981468012709911
 21
12.6877596215897483
 31
0.0
  0
LINE
  5
EA
100
AcDbEntity
100
AcDbLine
  8
0
 62
256
370
-1
  6
ByLayer
 10
2.482459033712729
 20
12.7361611466053546
 30
0.0
 11
3.2718008351728969
 21
12.4488642262117963
 31
0.0
  0
LINE
  5
EB
100
AcDbEntity
100
AcDbLine
  8
0
 62
256
370
-1
  6
ByLayer
 10
2.1748191941295545
 20
11.663293526542077
 30
0.0
 11
2.6638929944964502
 21
11.5593376811332007
 31
0.0
  0
LINE
  5
EC
100
AcDbEntity
100
AcDbLine
  8
0
 62
256
370
-1
  6
ByLayer
 10
2.2050394817181171
 20
11.7996084347509225
 30
0.0
 11
2.6922245141107339
 21
11.6871329075789845
 31
0.0
  0
LINE
  5
ED
100
AcDbEntity
100
AcDbLine
  8
0
 62
256
370
-1
  6
ByLayer
 10
2.2376341897920327
 20
11.9353751647973354
 30
0.0
 11
2.7227820529300288
 21
11.8144142169975055
 31
0.0
  0
LINE
  5
EE
100
AcDbEntity
100
AcDbLine
  8
0
 62
256
370
-1
  6
ByLayer
 10
2.3099064324934488
 20
12.2050988465359893
 30
0.0
 11
2.7905372804626154
 21
12.0672801686274909
 31
0.0
  0
LINE
  5
EF
100
AcDbEntity
100
AcDbLine
  8
0
 62
256
370
-1
  6
ByLayer
 10
2.3495619522957156
 20
12.3389736377819048
 30
0.0
 11
2.8277143302772316
 21
12.1927877854205207
 31
0.0
  0
LINE
  5
F0
100
AcDbEntity
100
AcDbLine
  8
0
 62
256
370
-1
  6
ByLayer
 10
2.3915478696387851
 20
12.4721359549996151
 30
0.0
 11
2.8670761277863335
 21
12.3176274578120939
 31
0.0
  0
LINE
  5
F1
100
AcDbEntity
100
AcDbLine
  8
0
 62
256
370
-1
  6
ByLayer
 10
2.435851395205475
 20
12.6045452356572696
 30
0.0
 11
2.9086106830051222
 21
12.4417611584286902
 31
0.0
  0
LINE
  5
F2
100
AcDbEntity
100
AcDbLine
  8
0
 62
256
370
-1
  6
ByLayer
 10
2.14698253241869
 20
11.5264719630123693
 30
0.0
 11
2.6377961241425254
 21
11.4310674653240909
 31
0.0
  0
LINE
  5
F3
100
AcDbEntity
100
AcDbLine
  8
0
 62
256
370
-1
  6
ByLayer
 10
2.1215379759023421
 20
11.3891854213354549
 30
0.0
 11
2.9487764884325856
 21
11.2433209520952317
 31
0.0
  0
LINE
  5
F4
100
AcDbEntity
100
AcDbLine
  8
0
 62
256
370
-1
  6
ByLayer
 10
2.0048733838472401
 20
10.2791959736200056
 30
0.0
 11
2.5045687973567823
 21
10.2617462252687659
 31
0.0
  0
LINE
  5
F5
100
AcDbEntity
100
AcDbLine
  8
0
 62
256
370
-1
  6
ByLayer
 10
2.0109637219634067
 20
10.4186876499435641
 30
0.0
 11
2.510278489340692
 21
10.3925196718220718
 31
0.0
  0
LINE
  5
F6
100
AcDbEntity
100
AcDbLine
  8
0
 62
256
370
-1
  6
ByLayer
 10
2.0194875979213975
 20
10.558051789952998
 30
0.0
 11
2.5182696230513244
 21
10.5231735530809374
 31
0.0
  0
LINE
  5
F7
100
AcDbEntity
100
AcDbLine
  8
0
 62
256
370
-1
  6
ByLayer
 10
2.0438248370538048
 20
10.83622770614123
 30
0.0
 11
2.5410857847379589
 21
10.7839634745074022
 31
0.0
  0
LINE
  5
F8
100
AcDbEntity
100
AcDbLine
  8
0
 62
256
370
-1
  6
ByLayer
 10
2.0596307868694339
 20
10.974954747241199
 30
0.0
 11
2.5559038626900872
 21
10.9140200755386019
 31
0.0
  0
LINE
  5
F9
100
AcDbEntity
100
AcDbLine
  8
0
 62
256
370
-1
  6
ByLayer
 10
2.077855450067446
 20
11.1133848076805606
 30
0.0
 11
2.5729894844382102
 21
11.0437982572004785
 31
0.0
  0
LINE
  5
FA
100
AcDbEntity
100
AcDbLine
  8
0
 62
256
370
-1
  6
ByLayer
 10
2.0984932752389085
 20
11.2514757203218636
 30
0.0
 11
2.5923374455364723
 21
11.1732584878017462
 31
0.0
  0
LINE
  5
FB
100
AcDbEntity
100
AcDbLine
  8
0
 62
256
370
-1
  6
ByLayer
 10
2.0012184387488787
 20
10.1396192514982744
 30
0.0
 11
2.5011422863270667
 21
10.1308930482796313
 31
0.0
  0
LINE
  5
FC
100
AcDbEntity
100
AcDbLine
  8
0
 62
256
370
-1
  6
ByLayer
 10
2.0
 20
10.0000000000000142
 30
0.0
 11
2.8399999999999892
 21
10.0
 31
0.0
  0
MTEXT
  5
FD
100
AcDbEntity
100
AcDbMText
  8
0
 62
256
370
-1
  6
ByLayer
 10
16.7999999999999972
 20
10.0
 30
0.0
 40
0.25
 41
12.5
 71
5
 72
0
  1
0
  7
normal
 50
0.0
 73
1
 44
1.0
  0
LINE
  5
FE
100
AcDbEntity
100
AcDbLine
  8
guidelines
 62
256
370
-1
  6
ByLayer
 10
17.8784620240976722
 20
11.3891854213354407
 30
0.0
 11
15.908846518073247
 21
11.0418890660015876
 31
0.0
  0
LINE
  5
FF
100
AcDbEntity
100
AcDbLine
  8
guidelines
 62
256
370
-1
  6
ByLayer
 10
17.517540966287271
 20
12.7361611466053546
 30
0.0
 11
15.6381557247154461
 21
12.0521208599540159
 31
0.0
  0
LINE
  5
100
100
AcDbEntity
100
AcDbLine
  8
guidelines
 62
256
370
-1
  6
ByLayer
 10
16.9282032302755141
 20
14.0
 30
0.0
 11
15.196152422706632
 21
13.0
 31
0.0
  0
LINE
  5
101
100
AcDbEntity
100
AcDbLine
  8
guidelines
 62
256
370
-1
  6
ByLayer
 10
16.1283555449518303
 20
15.1423008774923176
 30
0.0
 11
14.5962666587138727
 21
13.8567256581192311
 31
0.0
  0
LINE
  5
102
100
AcDbEntity
100
AcDbLine
  8
guidelines
 62
256
370
-1
  6
ByLayer
 10
15.1423008774923176
 20
16.1283555449518303
 30
0.0
 11
13.8567256581192311
 21
14.5962666587138727
 31
0.0
  0
LINE
  5
103
100
AcDbEntity
100
AcDbLine
  8
guidelines
 62
256
370
-1
  6
ByLayer
 10
14.0
 20
16.9282032302754999
 30
0.0
 11
13.0
 21
15.196152422706632
 31
0.0
  0
LINE
  5
104
100
AcDbEntity
100
AcDbLine
  8
guidelines
 62
256
370
-1
  6
ByLayer
 10
12.7361611466053546
 20
17.517540966287271
 30
0.0
 11
12.0521208599540159
 21
15.6381557247154461
 31
0.0
  0
LINE
  5
105
100
AcDbEntity
100
AcDbLine
  8
guidelines
 62
256
370
-1
  6
ByLayer
 10
11.3891854213354407
 20
17.8784620240976722
 30
0.0
 11
11.0418890660015876
 21
15.908846518073247
 31
0.0
  0
LINE
  5
106
100
AcDbEntity
100
AcDbLine
  8
guidelines
 62
256
370
-1
  6
ByLayer
 10
10.0
 20
18.0
 30
0.0
 11
10.0
 21
16.0
 31
0.0
  0
LINE
  5
107
100
AcDbEntity
100
AcDbLine
  8
guidelines
 62
256
370
-1
  6
ByLayer
 10
8.6108145786645593
 20
17.8784620240976722
 30
0.0
 11
8.9581109339984124
 21
15.908846518073247
 31
0.0
  0
LINE
  5
108
100
AcDbEntity
100
AcDbLine
  8
guidelines
 62
256
370
-1
  6
ByLayer
 10
7.2638388533946454
 20
17.517540966287271
 30
0.0
 11
7.9478791400459841
 21
15.6381557247154461
 31
0.0
  0
LINE
  5
109
100
AcDbEntity
100
AcDbLine
  8
guidelines
 62
256
370
-1
  6
ByLayer
 10
6.0
 20
16.9282032302755141
 30
0.0
 11
7.0
 21
15.196152422706632
 31
0.0
  0
LINE
  5
10A
100
AcDbEntity
100
AcDbLine
  8
guidelines
 62
256
370
-1
  6
ByLayer
 10
4.8576991225076824
 20
16.1283555449518303
 30
0.0
 11
6.1432743418807689
 21
14.5962666587138727
 31
0.0
  0
LINE
  5
10B
100
AcDbEntity
100
AcDbLine
  8
guidelines
 62
256
370
-1
  6
ByLayer
 10
3.8716444550481697
 20
15.1423008774923176
 30
0.0
 11
5.4037333412861273
 21
13.8567256581192453
 31
0.0
  0
LINE
  5
10C
100
AcDbEntity
100
AcDbLine
  8
guidelines
 62
256
370
-1
  6
ByLayer
 10
3.0717967697244859
 20
14.0
 30
0.0
 11
4.803847577293368
 21
13.0
 31
0.0
  0
LINE
  5
10D
100
AcDbEntity
100
AcDbLine
  8
guidelines
 62
256
370
-1
  6
ByLayer
 10
2.482459033712729
 20
12.7361611466053546
 30
0.0
 11
4.3618442752845539
 21
12.0521208599540159
 31
0.0
  0
LINE
  5
10E
100
AcDbEntity
100
AcDbLine
  8
guidelines
 62
256
370
-1
  6
ByLayer
 10
2.1215379759023421
 20
11.3891854213354407
 30
0.0
 11
4.091153481926753
 21
11.0418890660015876
 31
0.0
  0
LINE
  5
10F
100
AcDbEntity
100
AcDbLine
  8
guidelines
 62
256
370
-1
  6
ByLayer
 10
2.0
 20
10.0
 30
0.0
 11
4.0
 21
10.0
 31
0.0
  0
LINE
  5
110
100
AcDbEntity
100
AcDbLine
  8
0
 62
256
370
-1
  6
ByLayer
 10
3.8656703707739979
 20
10.9000000000000057
 30
0.0
 11
16.1343296292260021
 21
10.9000000000000057
 31
0.0
  0
MTEXT
  5
111
100
AcDbEntity
100
AcDbMText
  8
0
 62
256
370
-1
  6
ByLayer
 10
16.6966927204830142
 20
11.180807608135126
 30
0.0
 40
0.25
 41
12.5
 71
5
 72
0
  1
10
  7
normal
 50
10.0
 73
1
 44
1.0
  0
MTEXT
  5
112
100
AcDbEntity
100
AcDbMText
  8
0
 62
256
370
-1
  6
ByLayer
 10
16.3899098213441761
 20
12.3257369746145429
 30
0.0
 40
0.25
 41
12.5
 71
5
 72
0
  1
20
  7
normal
 50
20.0
 73
1
 44
1.0
  0
MTEXT
  5
113
100
AcDbEntity
100
AcDbMText
  8
0
 62
256
370
-1
  6
ByLayer
 10
15.8889727457341792
 20
13.4000000000000057
 30
0.0
 40
0.25
 41
12.5
 71
5
 72
0
  1
30
  7
normal
 50
29.9999999999999964
 73
1
 44
1.0
  0
MTEXT
  5
114
100
AcDbEntity
100
AcDbMText
  8
0
 62
256
370
-1
  6
ByLayer
 10
15.2091022132090501
 20
14.3709557458684714
 30
0.0
 40
0.25
 41
12.5
 71
5
 72
0
  1
40
  7
normal
 50
40.0
 73
1
 44
1.0
  0
MTEXT
  5
115
100
AcDbEntity
100
AcDbMText
  8
0
 62
256
370
-1
  6
ByLayer
 10
14.3709557458684714
 20
15.2091022132090501
 30
0.0
 40
0.25
 41
12.5
 71
5
 72
0
  1
50
  7
normal
 50
50.0
 73
1
 44
1.0
  0
MTEXT
  5
116
100
AcDbEntity
100
AcDbMText
  8
0
 62
256
370
-1
  6
ByLayer
 10
13.4000000000000057
 20
15.8889727457341792
 30
0.0
 40
0.25
 41
12.5
 71
5
 72
0
  1
60
  7
normal
 50
59.9999999999999929
 73
1
 44
1.0
  0
MTEXT
  5
117
100
AcDbEntity
100
AcDbMText
  8
0
 62
256
370
-1
  6
ByLayer
 10
12.3257369746145429
 20
16.3899098213441761
 30
0.0
 40
0.25
 41
12.5
 71
5
 72
0
  1
70
  7
normal
 50
70.0
 73
1
 44
1.0
  0
MTEXT
  5
118
100
AcDbEntity
100
AcDbMText
  8
0
 62
256
370
-1
  6
ByLayer
 10
11.180807608135126
 20
16.6966927204830142
 30
0.0
 40
0.25
 41
12.5
 71
5
 72
0
  1
80
  7
normal
 50
80.0
 73
1
 44
1.0
  0
MTEXT
  5
119
100
AcDbEntity
100
AcDbMText
  8
0
 62
256
370
-1
  6
ByLayer
 10
10.0
 20
16.7999999999999972
 30
0.0
 40
0.25
 41
12.5
 71
5
 72
0
  1
90
  7
normal
 50
90.0
 73
1
 44
1.0
  0
MTEXT
  5
11A
100
AcDbEntity
100
AcDbMText
  8
0
 62
256
370
-1
  6
ByLayer
 10
8.819192391864874
 20
16.6966927204830142
 30
0.0
 40
0.25
 41
12.5
 71
5
 72
0
  1
100
  7
normal
 50
-80.0
 73
1
 44
1.0
  0
MTEXT
  5
11B
100
AcDbEntity
100
AcDbMText
  8
0
 62
256
370
-1
  6
ByLayer
 10
7.6742630253854571
 20
16.3899098213441761
 30
0.0
 40
0.25
 41
12.5
 71
5
 72
0
  1
110
  7
normal
 50
-70.0
 73
1
 44
1.0
  0
MTEXT
  5
11C
100
AcDbEntity
100
AcDbMText
  8
0
 62
256
370
-1
  6
ByLayer
 10
6.5999999999999943
 20
15.8889727457341792
 30
0.0
 40
0.25
 41
12.5
 71
5
 72
0
  1
120
  7
normal
 50
-59.9999999999999929
 73
1
 44
1.0
  0
MTEXT
  5
11D
100
AcDbEntity
100
AcDbMText
  8
0
 62
256
370
-1
  6
ByLayer
 10
5.6290442541315286
 20
15.2091022132090501
 30
0.0
 40
0.25
 41
12.5
 71
5
 72
0
  1
130
  7
normal
 50
-50.0
 73
1
 44
1.0
  0
MTEXT
  5
11E
100
AcDbEntity
100
AcDbMText
  8
0
 62
256
370
-1
  6
ByLayer
 10
4.7908977867909499
 20
14.3709557458684714
 30
0.0
 40
0.25
 41
12.5
 71
5
 72
0
  1
140
  7
normal
 50
-40.0
 73
1
 44
1.0
  0
MTEXT
  5
11F
100
AcDbEntity
100
AcDbMText
  8
0
 62
256
370
-1
  6
ByLayer
 10
4.1110272542658208
 20
13.4000000000000057
 30
0.0
 40
0.25
 41
12.5
 71
5
 72
0
  1
150
  7
normal
 50
-29.9999999999999964
 73
1
 44
1.0
  0
MTEXT
  5
120
100
AcDbEntity
100
AcDbMText
  8
0
 62
256
370
-1
  6
ByLayer
 10
3.6100901786558239
 20
12.3257369746145429
 30
0.0
 40
0.25
 41
12.5
 71
5
 72
0
  1
160
  7
normal
 50
-20.0
 73
1
 44
1.0
  0
MTEXT
  5
121
100
AcDbEntity
100
AcDbMText
  8
0
 62
256
370
-1
  6
ByLayer
 10
3.3033072795169858
 20
11.180807608135126
 30
0.0
 40
0.25
 41
12.5
 71
5
 72
0
  1
170
  7
normal
 50
-10.0
 73
1
 44
1.0
  0
MTEXT
  5
122
100
AcDbEntity
100
AcDbMText
  8
0
 62
256
370
-1
  6
ByLayer
 10
3.2000000000000028
 20
10.0
 30
0.0
 40
0.25
 41
12.5
 71
5
 72
0
  1
180
  7
normal
 50
0.0
 73
1
 44
1.0
  0
LINE
  5
123
100
AcDbEntity
100
AcDbLine
  8
0
 62
256
370
-1
  6
ByLayer
 10
17.9695575847339626
 20
10.6972459419812651
 30
0.0
 11
17.2522974021079101
 21
10.6344938072029542
 31
0.0
  0
LINE
  5
124
100
AcDbEntity
100
AcDbLine
  8
0
 62
256
370
-1
  6
ByLayer
 10
17.7274066103125421
 20
12.0705523608201588
 30
0.0
 11
17.0319400153844143
 21
11.8842026483463705
 31
0.0
  0
LINE
  5
125
100
AcDbEntity
100
AcDbLine
  8
0
 62
256
370
-1
  6
ByLayer
 10
17.2504622962931933
 20
13.3809460939255871
 30
0.0
 11
16.597920689626811
 21
13.0766609454723053
 31
0.0
  0
LINE
  5
126
100
AcDbEntity
100
AcDbLine
  8
0
 62
256
370
-1
  6
ByLayer
 10
16.5532163543119282
 20
14.5886114908083755
 30
0.0
 11
15.9634268824238639
 21
14.1756364566356154
 31
0.0
  0
LINE
  5
127
100
AcDbEntity
100
AcDbLine
  8
0
 62
256
370
-1
  6
ByLayer
 10
15.6568542494923832
 20
15.656854249492369
 30
0.0
 11
15.1477373670380437
 21
15.1477373670380917
 31
0.0
  0
LINE
  5
128
100
AcDbEntity
100
AcDbLine
  8
0
 62
256
370
-1
  6
ByLayer
 10
14.5886114908083755
 20
16.5532163543119282
 30
0.0
 11
14.1756364566356048
 21
15.963426882423871
 31
0.0
  0
LINE
  5
129
100
AcDbEntity
100
AcDbLine
  8
0
 62
256
370
-1
  6
ByLayer
 10
13.3809460939256013
 20
17.2504622962931933
 30
0.0
 11
13.076660945472284
 21
16.5979206896268181
 31
0.0
  0
LINE
  5
12A
100
AcDbEntity
100
AcDbLine
  8
0
 62
256
370
-1
  6
ByLayer
 10
12.070552360820173
 20
17.7274066103125421
 30
0.0
 11
11.8842026483463457
 21
17.0319400153844214
 31
0.0
  0
LINE
  5
12B
100
AcDbEntity
100
AcDbLine
  8
0
 62
256
370
-1
  6
ByLayer
 10
10.6972459419812651
 20
17.9695575847339626
 30
0.0
 11
10.6344938072029347
 21
17.2522974021079136
 31
0.0
  0
LINE
  5
12C
100
AcDbEntity
100
AcDbLine
  8
0
 62
256
370
-1
  6
ByLayer
 10
9.3027540580187349
 20
17.9695575847339626
 30
0.0
 11
9.3655061927970458
 21
17.2522974021079101
 31
0.0
  0
LINE
  5
12D
100
AcDbEntity
100
AcDbLine
  8
0
 62
256
370
-1
  6
ByLayer
 10
7.9294476391798412
 20
17.7274066103125421
 30
0.0
 11
8.1157973516536295
 21
17.0319400153844143
 31
0.0
  0
LINE
  5
12E
100
AcDbEntity
100
AcDbLine
  8
0
 62
256
370
-1
  6
ByLayer
 10
6.6190539060744129
 20
17.2504622962931933
 30
0.0
 11
6.9233390545276947
 21
16.597920689626811
 31
0.0
  0
LINE
  5
12F
100
AcDbEntity
100
AcDbLine
  8
0
 62
256
370
-1
  6
ByLayer
 10
5.4113885091916387
 20
16.5532163543119282
 30
0.0
 11
5.824363543364381
 21
15.9634268824238621
 31
0.0
  0
LINE
  5
130
100
AcDbEntity
100
AcDbLine
  8
0
 62
256
370
-1
  6
ByLayer
 10
4.3431457505076168
 20
15.6568542494923832
 30
0.0
 11
4.852262632961911
 21
15.1477373670380491
 31
0.0
  0
LINE
  5
131
100
AcDbEntity
100
AcDbLine
  8
0
 62
256
370
-1
  6
ByLayer
 10
3.4467836456880718
 20
14.5886114908083755
 30
0.0
 11
4.0365731175761281
 21
14.1756364566356048
 31
0.0
  0
LINE
  5
132
100
AcDbEntity
100
AcDbLine
  8
0
 62
256
370
-1
  6
ByLayer
 10
2.7495377037068067
 20
13.3809460939255871
 30
0.0
 11
3.4020793103731828
 21
13.0766609454722875
 31
0.0
  0
LINE
  5
133
100
AcDbEntity
100
AcDbLine
  8
0
 62
256
370
-1
  6
ByLayer
 10
2.2725933896874579
 20
12.070552360820173
 30
0.0
 11
2.9680599846155782
 21
11.8842026483463457
 31
0.0
  0
LINE
  5
134
100
AcDbEntity
100
AcDbLine
  8
0
 62
256
370
-1
  6
ByLayer
 10
2.0304424152660374
 20
10.6972459419812651
 30
0.0
 11
2.7477025978920895
 21
10.6344938072029525
 31
0.0
  0
MTEXT
  5
135
100
AcDbEntity
100
AcDbMText
  8
title
 62
256
370
-1
  6
ByLayer
 10
6.8645073657929219
 20
10.4726691635458167
 30
0.0
 40
0.1
 41
100.0
 71
5
 72
0
  1
conventional\~protractor\~v1.0\Pcopyright\~2005\~Michael\~Ossmann\Phttp://www.ossmann.com/protractor/
  7
romans
 50
0.0
 73
1
 44
1.0
  0
ENDSEC
  0
SECTION
  2
OBJECTS
  0
DICTIONARY
  5
C
100
AcDbDictionary
280
0
281
1
  3
ACAD_GROUP
350
D
  3
ACAD_LAYOUT
350
1A
  3
ACAD_MLINESTYLE
350
17
  3
ACAD_PLOTSETTINGS
350
19
  3
ACAD_PLOTSTYLENAME
350
E
  3
AcDbVariableDictionary
350
136
  0
DICTIONARY
  5
D
100
AcDbDictionary
280
0
281
1
  0
ACDBDICTIONARYWDFLT
  5
E
100
AcDbDictionary
281
1
  3
Normal
350
F
100
AcDbDictionaryWithDefault
340
F
  0
ACDBPLACEHOLDER
  5
F
  0
DICTIONARY
  5
17
100
AcDbDictionary
280
0
281
1
  3
Standard
350
18
  0
MLINESTYLE
  5
18
100
AcDbMlineStyle
  2
STANDARD
 70
0
  3

 62
256
 51
90.0
 52
90.0
 71
2
 49
0.5
 62
256
  6
BYLAYER
 49
-0.5
 62
256
  6
BYLAYER
  0
DICTIONARY
  5
19
100
AcDbDictionary
280
0
281
1
  0
DICTIONARY
  5
1A
100
AcDbDictionary
281
1
  3
Layout1
350
1E
  3
Layout2
350
26
  3
Model
350
22
  0
LAYOUT
  5
1E
100
AcDbPlotSettings
  1

  2
C:\Program Files\AutoCAD 2002\plotters\DWF ePlot (optimized for plotting).pc3
  4

  6

 40
0.0
 41
0.0
 42
0.0
 43
0.0
 44
0.0
 45
0.0
 46
0.0
 47
0.0
 48
0.0
 49
0.0
140
0.0
141
0.0
142
1.0
143
1.0
 70
688
 72
0
 73
0
 74
5
  7

 75
16
147
1.0
148
0.0
149
0.0
100
AcDbLayout
  1
Layout1
 70
1
 71
1
 10
0.0
 20
0.0
 11
420.0
 21
297.0
 12
0.0
 22
0.0
 32
0.0
 14
100000000000000000000.0
 24
100000000000000000000.0
 34
100000000000000000000.0
 15
-100000000000000000000.0
 25
-100000000000000000000.0
 35
-100000000000000000000.0
146
0.0
 13
0.0
 23
0.0
 33
0.0
 16
1.0
 26
0.0
 36
0.0
 17
0.0
 27
1.0
 37
0.0
 76
0
330
1B
  0
LAYOUT
  5
22
100
AcDbPlotSettings
  1

  2
C:\Program Files\AutoCAD 2002\plotters\DWF ePlot (optimized for plotting).pc3
  4

  6

 40
0.0
 41
0.0
 42
0.0
 43
0.0
 44
0.0
 45
0.0
 46
0.0
 47
0.0
 48
0.0
 49
0.0
140
0.0
141
0.0
142
1.0
143
1.0
 70
1712
 72
0
 73
0
 74
0
  7

 75
0
147
1.0
148
0.0
149
0.0
100
AcDbLayout
  1
Model
 70
1
 71
0
 10
0.0
 20
0.0
 11
12.0
 21
9.0
 12
0.0
 22
0.0
 32
0.0
 14
0.0
 24
0.0
 34
0.0
 15
0.0
 25
0.0
 35
0.0
146
0.0
 13
0.0
 23
0.0
 33
0.0
 16
1.0
 26
0.0
 36
0.0
 17
0.0
 27
1.0
 37
0.0
 76
0
330
1F
  0
LAYOUT
  5
26
100
AcDbPlotSettings
  1

  2
C:\Program Files\AutoCAD 2002\plotters\DWF ePlot (optimized for plotting).pc3
  4

  6

 40
0.0
 41
0.0
 42
0.0
 43
0.0
 44
0.0
 45
0.0
 46
0.0
 47
0.0
 48
0.0
 49
0.0
140
0.0
141
0.0
142
1.0
143
1.0
 70
688
 72
0
 73
0
 74
5
  7

 75
16
147
1.0
148
0.0
149
0.0
100
AcDbLayout
  1
Layout2
 70
1
 71
2
 10
0.0
 20
0.0
 11
12.0
 21
9.0
 12
0.0
 22
0.0
 32
0.0
 14
0.0
 24
0.0
 34
0.0
 15
0.0
 25
0.0
 35
0.0
146
0.0
 13
0.0
 23
0.0
 33
0.0
 16
1.0
 26
0.0
 36
0.0
 17
0.0
 27
1.0
 37
0.0
 76
0
330
23
  0
DICTIONARY
  5
136
100
AcDbDictionary
281
1
  3
DIMASSOC
350
138
  3
HIDETEXT
350
137
  0
DICTIONARYVAR
  5
137
100
DictionaryVariables
280
0
  1
2
  0
DICTIONARYVAR
  5
138
100
DictionaryVariables
280
0
  1
1
  0
ENDSEC
  0
EOF
