0
SECTION
2
HEADER
9
$INSUNITS
70
4
9
$ACADVER
1
AC1014
9
$HANDSEED
5
FFFF
0
ENDSEC
0
SECTION
2
TABLES
0
TABLE
2
VPORT
5
8
100
AcDbSymbolTable
0
ENDTAB
0
TABLE
2
LTYPE
5
5
100
AcDbSymbolTable
0
LTYPE
5
14
100
AcDbSymbolTableRecord
100
AcDbLinetypeTableRecord
2
BYBLOCK
70
0
0
LTYPE
5
15
100
AcDbSymbolTableRecord
100
AcDbLinetypeTableRecord
2
BYLAYER
70
0
0
ENDTAB
0
TABLE
2
LAYER
5
2
100
AcDbSymbolTable
70
2
0
LAYER
5
50
100
AcDbSymbolTableRecord
100
AcDbLayerTableRecord
2
0
70
0
6
CONTINUOUS
0
ENDTAB
0
TABLE
2
STYLE
5
3
100
AcDbSymbolTable
70
1
0
STYLE
5
11
100
AcDbSymbolTableRecord
100
AcDbTextStyleTableRecord
2
STANDARD
70
0
0
ENDTAB
0
TABLE
2
VIEW
5
6
100
AcDbSymbolTable
70
0
0
ENDTAB
0
TABLE
2
UCS
5
7
100
AcDbSymbolTable
70
0
0
ENDTAB
0
TABLE
2
APPID
5
9
100
AcDbSymbolTable
70
2
0
APPID
5
12
100
AcDbSymbolTableRecord
100
AcDbRegAppTableRecord
2
ACAD
70
0
0
ENDTAB
0
TABLE
2
DIMSTYLE
5
A
100
AcDbSymbolTable
70
1
0
ENDTAB
0
TABLE
2
BLOCK_RECORD
5
1
100
AcDbSymbolTable
70
1
0
BLOCK_RECORD
5
1F
100
AcDbSymbolTableRecord
100
AcDbBlockTableRecord
2
*MODEL_SPACE
0
BLOCK_RECORD
5
1B
100
AcDbSymbolTableRecord
100
AcDbBlockTableRecord
2
*PAPER_SPACE
0
ENDTAB
0
ENDSEC
0
SECTION
2
BLOCKS
0
BLOCK
5
20
100
AcDbEntity
100
AcDbBlockBegin
2
*MODEL_SPACE
0
ENDBLK
5
21
100
AcDbEntity
100
AcDbBlockEnd
0
BLOCK
5
1C
100
AcDbEntity
100
AcDbBlockBegin
2
*PAPER_SPACE
0
ENDBLK
5
1D
100
AcDbEntity
100
AcDbBlockEnd
0
ENDSEC
0
SECTION
2
ENTITIES
0
CIRCLE
5
100
100
AcDbEntity
8
0
100
AcDbCircle
10
-32.49999999999978
20
-19.999930999999286
30
0
40
4.5
0
CIRCLE
5
101
100
AcDbEntity
8
0
100
AcDbCircle
10
-32.49999999999978
20
-19.999930999999286
30
0
40
46.25
0
CIRCLE
5
102
100
AcDbEntity
8
0
100
AcDbCircle
10
-71.999999999999901
20
-33.249896499997348
30
0
40
2.5
0
CIRCLE
5
103
100
AcDbEntity
8
0
100
AcDbCircle
10
-71.999999999999972
20
-6.7499655000027925
30
0
40
2.5
0
ARC
5
104
100
AcDbEntity
8
0
100
AcDbCircle
10
-45.102786109223494
20
-6.9496784944607093
30
4.4408920985006262e-15
40
21.499999999999922
100
AcDbArc
50
217.37206826482355
51
270.55558891730698
0
ARC
5
105
100
AcDbEntity
8
0
100
AcDbCircle
10
-32.499999863091809
20
-19.999931026161239
30
7.7071415537864939e-44
40
14.999999999999957
100
AcDbArc
50
-145.71920541918644
51
145.719205419128
0
ARC
5
106
100
AcDbEntity
8
0
100
AcDbCircle
10
-45.102786109226898
20
-33.050183557848968
30
4.4408920985006262e-15
40
21.499999999999929
100
AcDbArc
50
89.44441108266092
51
142.62793173516138
0
CIRCLE
5
107
100
AcDbEntity
8
0
100
AcDbCircle
10
-72.000000000000114
20
-6.7499655000018386
30
0
40
4.9149999999999894
0
CIRCLE
5
108
100
AcDbEntity
8
0
100
AcDbCircle
10
-71.999999999999915
20
-33.249896499997341
30
0
40
4.914999999999992
0
CIRCLE
5
109
100
AcDbEntity
8
0
100
AcDbCircle
10
-71.999999999999915
20
-33.249896499997341
30
0
40
4.914999999999992
0
CIRCLE
5
110
100
AcDbEntity
8
0
100
AcDbCircle
10
-72.000000000000114
20
-6.7499655000018386
30
0
40
4.9149999999999894
0
CIRCLE
5
111
100
AcDbEntity
8
0
100
AcDbCircle
10
-32.49999999999978
20
-19.999930999999282
30
0
40
46.249999999999993
0
ARC
5
112
100
AcDbEntity
8
0
100
AcDbCircle
10
-32.49999999999838
20
-19.999930999996423
30
0
40
14.999999999999972
100
AcDbArc
50
150.24023708327849
51
209.75976314964271
0
SPLINE
5
113
100
AcDbEntity
8
0
100
AcDbSpline
70
1064
71
3
72
8
73
4
74
0
42
0.000000001
43
0.0000000001
44
0.0000000001
40
7.4462572948372987
40
7.4462572948372987
40
7.4462572948372987
40
7.4462572948372987
40
7.5964481658287832
40
7.5964481658287832
40
7.5964481658287832
40
7.5964481658287832
10
-44.894307071134136
20
-28.448667723695937
30
0
10
-45.117271439919307
20
-28.121229824507683
30
0
10
-45.326430319720608
20
-27.786375530217118
30
0
10
-45.521713705541558
20
-27.445397551587885
30
0
0
ARC
5
114
100
AcDbEntity
8
0
100
AcDbCircle
10
-32.499999863092015
20
-19.999931026161253
30
0
40
15.000000098386474
100
AcDbArc
50
-145.71920552180322
51
145.71920541913039
0
SPLINE
5
115
100
AcDbEntity
8
0
100
AcDbSpline
70
1064
71
3
72
8
73
4
74
0
42
0.000000001
43
0.0000000001
44
0.0000000001
40
1.676674577718646
40
1.676674577718646
40
1.676674577718646
40
1.676674577718646
40
1.8268654499827484
40
1.8268654499827484
40
1.8268654499827484
40
1.8268654499827484
10
-45.52171373580849
20
-12.55446450134011
30
4.4408920985006262e-15
10
-45.326517450836945
20
-12.213471596670171
30
0
10
-45.117191775105795
20
-11.878664909738319
30
4.4408920985006262e-15
10
-44.894307100012831
20
-11.551194318661402
30
0
0
CIRCLE
5
116
100
AcDbEntity
8
0
100
AcDbCircle
10
-32.499999999997804
20
-19.999931000003048
30
0
40
14.999999999999957
0
SPLINE
5
117
100
AcDbEntity
8
0
100
AcDbSpline
70
1064
71
3
72
22
73
18
74
0
42
0.000000001
43
0.0000000001
44
0.0000000001
40
0
40
0
40
0
40
0
40
0.20938225815727285
40
0.20938225815727285
40
0.4187645163145457
40
0.4187645163145457
40
0.62800115578756566
40
0.62800115578756566
40
0.83723779526058562
40
0.83723779526058562
40
1.0464744347336068
40
1.0464744347336068
40
1.2557110742066282
40
1.2557110742066282
40
1.4650933323639022
40
1.4650933323639022
40
1.6744755905211495
40
1.6744755905211495
40
1.6744755905211495
40
1.6744755905211495
10
-37.999999999999275
20
-33.955216736953702
30
0
10
-37.943670714912379
20
-33.978368232365135
30
0
10
-37.859176787282053
20
-34.013095475482018
30
-4.4408920985006262e-15
10
-37.296005742372174
20
-34.215692607343264
30
0
10
-36.873947744351646
20
-34.35683222974491
30
0
10
-35.904564053680232
20
-34.617065635663842
30
0
10
-35.290394221778143
20
-34.753942009603577
30
4.4408920985006262e-15
10
-33.937080285939793
20
-34.946567446081303
30
0
10
-33.197455464909353
20
-34.999931000002761
30
0
10
-31.802544535089222
20
-34.999931000002903
30
0
10
-31.062919714058769
20
-34.946567446081573
30
4.4408920985006262e-15
10
-29.7096057782204
20
-34.753942009604124
30
4.4408920985006262e-15
10
-29.095435946318293
20
-34.617065635664531
30
0
10
-28.126052255646865
20
-34.356832229745763
30
0
10
-27.703994257626327
20
-34.215692607344209
30
0
10
-27.140823212716487
20
-34.013095475483077
30
4.4408920985003461e-15
10
-27.056329285086171
20
-33.978368232366208
30
4.4408920985006262e-15
10
-27.028164642542748
20
-33.966792484660395
30
2.2204460492510972e-15
0
CIRCLE
5
118
100
AcDbEntity
8
0
100
AcDbCircle
10
-32.49999999999978
20
-19.999930999999282
30
0
40
4.4999999999999991
0
CIRCLE
5
119
100
AcDbEntity
8
0
100
AcDbCircle
10
-32.49999999999978
20
-19.999930999999282
30
0
40
4.4999999999999991
0
ENDSEC
0
SECTION
2
OBJECTS
0
DICTIONARY
5
C
100
AcDbDictionary
3
ACAD_GROUP
350
D
3
ACAD_MLINESTYLE
350
17
0
DICTIONARY
5
D
100
AcDbDictionary
0
DICTIONARY
5
1A
330
C
100
AcDbDictionary
0
DICTIONARY
5
17
100
AcDbDictionary
0
ENDSEC
0
EOF
