G04*
G04 #@! TF.GenerationSoftware,Altium Limited,Altium Designer,19.1.5 (86)*
G04*
G04 Layer_Physical_Order=2*
G04 Layer_Color=16711680*
%FSLAX25Y25*%
%MOIN*%
G70*
G01*
G75*
G36*
X10895Y488081D02*
X24571Y487584D01*
X38228Y486704D01*
X51854Y485441D01*
X65440Y483797D01*
X78975Y481773D01*
X92447Y479370D01*
X105847Y476591D01*
X119163Y473437D01*
X132386Y469911D01*
X145505Y466015D01*
X158509Y461754D01*
X171390Y457130D01*
X184135Y452147D01*
X196736Y446808D01*
X209181Y441118D01*
X221463Y435082D01*
X233571Y428703D01*
X245495Y421989D01*
X257226Y414942D01*
X268756Y407569D01*
X280074Y399876D01*
X291171Y391869D01*
X302040Y383554D01*
X312672Y374938D01*
X323059Y366026D01*
X333191Y356828D01*
X343061Y347349D01*
X352662Y337597D01*
X361986Y327580D01*
X371025Y317305D01*
X379773Y306781D01*
X388223Y296016D01*
X396367Y285018D01*
X404200Y273797D01*
X411715Y262360D01*
X418907Y250718D01*
X425769Y238878D01*
X432298Y226850D01*
X438486Y214644D01*
X444330Y202270D01*
X449825Y189736D01*
X454966Y177054D01*
X459750Y164232D01*
X464172Y151282D01*
X468230Y138213D01*
X471920Y125034D01*
X475239Y111758D01*
X478185Y98393D01*
X480755Y84952D01*
X482947Y71444D01*
X484760Y57879D01*
X486192Y44270D01*
X487242Y30625D01*
X487908Y16957D01*
X488192Y3274D01*
X488092Y-10410D01*
X487608Y-24086D01*
X486742Y-37744D01*
X485493Y-51372D01*
X483862Y-64959D01*
X481851Y-78496D01*
X479462Y-91970D01*
X476696Y-105373D01*
X473555Y-118693D01*
X470042Y-131919D01*
X466160Y-145042D01*
X461911Y-158051D01*
X457300Y-170935D01*
X452329Y-183685D01*
X447003Y-196291D01*
X441326Y-208743D01*
X435302Y-221031D01*
X428935Y-233145D01*
X422232Y-245076D01*
X415197Y-256814D01*
X407836Y-268350D01*
X400154Y-279676D01*
X392158Y-290782D01*
X383854Y-301659D01*
X375248Y-312299D01*
X366347Y-322694D01*
X357159Y-332836D01*
X347690Y-342716D01*
X337947Y-352326D01*
X327939Y-361660D01*
X317673Y-370710D01*
X307158Y-379468D01*
X296402Y-387928D01*
X285412Y-396083D01*
X274199Y-403927D01*
X262769Y-411454D01*
X251134Y-418657D01*
X239301Y-425532D01*
X227279Y-432072D01*
X215080Y-438272D01*
X202711Y-444129D01*
X190183Y-449636D01*
X177506Y-454790D01*
X164689Y-459586D01*
X151743Y-464022D01*
X138678Y-468093D01*
X125503Y-471796D01*
X112230Y-475128D01*
X98869Y-478087D01*
X85430Y-480670D01*
X80833Y-481421D01*
X80740Y-480954D01*
X80257Y-480232D01*
X79535Y-479749D01*
X78716Y-479586D01*
Y-464916D01*
X78581Y-463888D01*
X78184Y-462931D01*
X77553Y-462108D01*
X76731Y-461477D01*
X75773Y-461081D01*
X74745Y-460945D01*
X-82735Y-460945D01*
X-83763Y-461081D01*
X-84720Y-461477D01*
X-85543Y-462108D01*
X-86174Y-462931D01*
X-86571Y-463888D01*
X-86706Y-464916D01*
X-86706Y-478213D01*
X-87524Y-478376D01*
X-88247Y-478859D01*
X-88729Y-479581D01*
X-88815Y-480013D01*
X-93400Y-479185D01*
X-106794Y-476379D01*
X-120104Y-473199D01*
X-133320Y-469647D01*
X-146431Y-465725D01*
X-159427Y-461438D01*
X-172298Y-456788D01*
X-185033Y-451780D01*
X-197623Y-446416D01*
X-210058Y-440702D01*
X-222328Y-434641D01*
X-234423Y-428238D01*
X-246333Y-421500D01*
X-258051Y-414430D01*
X-269565Y-407034D01*
X-280868Y-399319D01*
X-291950Y-391289D01*
X-302802Y-382953D01*
X-313417Y-374315D01*
X-323785Y-365384D01*
X-333899Y-356165D01*
X-343751Y-346666D01*
X-353332Y-336895D01*
X-362636Y-326859D01*
X-371655Y-316567D01*
X-380382Y-306025D01*
X-388810Y-295244D01*
X-396933Y-284230D01*
X-404743Y-272993D01*
X-412236Y-261541D01*
X-419405Y-249884D01*
X-426243Y-238031D01*
X-432748Y-225990D01*
X-438912Y-213772D01*
X-444731Y-201386D01*
X-450201Y-188842D01*
X-455317Y-176149D01*
X-460076Y-163318D01*
X-464472Y-150359D01*
X-468504Y-137281D01*
X-472168Y-124096D01*
X-475460Y-110813D01*
X-478380Y-97443D01*
X-480923Y-83996D01*
X-483088Y-70484D01*
X-484874Y-56916D01*
X-486279Y-43303D01*
X-487301Y-29656D01*
X-487941Y-15986D01*
X-488198Y-2304D01*
X-488070Y11381D01*
X-487560Y25056D01*
X-486666Y38712D01*
X-485390Y52337D01*
X-483732Y65921D01*
X-481694Y79453D01*
X-479278Y92923D01*
X-476485Y106320D01*
X-473318Y119634D01*
X-469779Y132853D01*
X-465871Y145968D01*
X-461596Y158969D01*
X-456959Y171844D01*
X-451963Y184584D01*
X-446612Y197180D01*
X-440910Y209620D01*
X-434862Y221896D01*
X-428471Y233997D01*
X-421744Y245914D01*
X-414686Y257639D01*
X-407302Y269160D01*
X-399598Y280471D01*
X-391579Y291561D01*
X-383254Y302422D01*
X-374627Y313045D01*
X-365705Y323422D01*
X-356497Y333545D01*
X-347008Y343406D01*
X-337246Y352997D01*
X-327220Y362311D01*
X-316936Y371340D01*
X-306403Y380078D01*
X-295630Y388516D01*
X-284625Y396650D01*
X-273395Y404472D01*
X-261951Y411975D01*
X-250301Y419156D01*
X-238454Y426007D01*
X-226420Y432523D01*
X-214208Y438699D01*
X-201828Y444531D01*
X-189289Y450013D01*
X-176602Y455142D01*
X-163776Y459913D01*
X-150820Y464323D01*
X-137747Y468367D01*
X-124565Y472044D01*
X-111285Y475350D01*
X-97918Y478282D01*
X-84474Y480839D01*
X-70964Y483018D01*
X-57398Y484817D01*
X-43786Y486235D01*
X-30141Y487272D01*
X-16472Y487925D01*
X-2789Y488195D01*
X10895Y488081D01*
D02*
G37*
%LPC*%
G36*
X179314Y344488D02*
X175017D01*
X170736Y344114D01*
X166504Y343367D01*
X162353Y342255D01*
X158315Y340785D01*
X154420Y338969D01*
X150698Y336821D01*
X147178Y334356D01*
X143886Y331593D01*
X140848Y328555D01*
X138085Y325263D01*
X135620Y321743D01*
X133472Y318021D01*
X131656Y314126D01*
X130186Y310088D01*
X129074Y305937D01*
X128327Y301705D01*
X127953Y297424D01*
Y295276D01*
X127953Y-295276D01*
Y-297424D01*
X128327Y-301705D01*
X129074Y-305937D01*
X130186Y-310088D01*
X131656Y-314126D01*
X133472Y-318021D01*
X135620Y-321743D01*
X138085Y-325263D01*
X140847Y-328555D01*
X143886Y-331593D01*
X147178Y-334356D01*
X150698Y-336821D01*
X154420Y-338969D01*
X158315Y-340785D01*
X162353Y-342255D01*
X166504Y-343367D01*
X170736Y-344114D01*
X175017Y-344488D01*
X179314D01*
X183595Y-344114D01*
X187827Y-343367D01*
X191978Y-342255D01*
X196016Y-340785D01*
X199911Y-338969D01*
X203632Y-336821D01*
X207153Y-334356D01*
X210445Y-331593D01*
X213483Y-328555D01*
X216246Y-325263D01*
X218710Y-321743D01*
X220859Y-318021D01*
X222675Y-314126D01*
X224145Y-310088D01*
X225257Y-305937D01*
X226003Y-301705D01*
X226378Y-297424D01*
Y-295276D01*
Y295276D01*
X226378Y297424D01*
X226003Y301705D01*
X225257Y305937D01*
X224145Y310088D01*
X222675Y314126D01*
X220859Y318021D01*
X218710Y321743D01*
X216246Y325263D01*
X213483Y328555D01*
X210445Y331593D01*
X207153Y334356D01*
X203632Y336821D01*
X199911Y338969D01*
X196016Y340785D01*
X191978Y342255D01*
X187827Y343367D01*
X183595Y344114D01*
X179314Y344488D01*
D02*
G37*
G36*
X-175017D02*
X-179314D01*
X-183595Y344114D01*
X-187827Y343367D01*
X-191978Y342255D01*
X-196016Y340785D01*
X-199911Y338969D01*
X-203632Y336821D01*
X-207153Y334356D01*
X-210445Y331593D01*
X-213483Y328555D01*
X-216246Y325263D01*
X-218710Y321743D01*
X-220859Y318021D01*
X-222675Y314126D01*
X-224145Y310088D01*
X-225257Y305937D01*
X-226003Y301705D01*
X-226378Y297424D01*
Y295276D01*
X-226378D01*
Y-295276D01*
Y-297424D01*
X-226003Y-301705D01*
X-225257Y-305937D01*
X-224145Y-310088D01*
X-222675Y-314126D01*
X-220859Y-318021D01*
X-218710Y-321743D01*
X-216246Y-325263D01*
X-213483Y-328555D01*
X-210445Y-331593D01*
X-207153Y-334356D01*
X-203632Y-336821D01*
X-199911Y-338969D01*
X-196016Y-340785D01*
X-191978Y-342255D01*
X-187827Y-343367D01*
X-183595Y-344114D01*
X-179314Y-344488D01*
X-175017D01*
X-170736Y-344114D01*
X-166504Y-343367D01*
X-162353Y-342255D01*
X-158315Y-340785D01*
X-154420Y-338969D01*
X-150698Y-336821D01*
X-147178Y-334356D01*
X-143886Y-331593D01*
X-140848Y-328555D01*
X-138085Y-325263D01*
X-135620Y-321743D01*
X-133472Y-318021D01*
X-131656Y-314126D01*
X-130186Y-310088D01*
X-129074Y-305937D01*
X-128327Y-301705D01*
X-127953Y-297424D01*
Y-295276D01*
X-127953D01*
Y295276D01*
Y297424D01*
X-128327Y301705D01*
X-129074Y305937D01*
X-130186Y310088D01*
X-131656Y314126D01*
X-133472Y318021D01*
X-135620Y321743D01*
X-138085Y325263D01*
X-140848Y328555D01*
X-143886Y331593D01*
X-147178Y334356D01*
X-150698Y336821D01*
X-154420Y338969D01*
X-158315Y340785D01*
X-162353Y342255D01*
X-166504Y343367D01*
X-170736Y344114D01*
X-175017Y344488D01*
D02*
G37*
%LPD*%
M02*
