G04*
G04 #@! TF.GenerationSoftware,Altium Limited,Altium Designer,19.1.6 (110)*
G04*
G04 Layer_Color=65535*
%FSLAX25Y25*%
%MOIN*%
G70*
G01*
G75*
%ADD10C,0.00787*%
G36*
X54237Y66098D02*
X54542Y66071D01*
X54847Y66043D01*
X55208Y66015D01*
X55986Y65904D01*
X56847Y65737D01*
X57708Y65487D01*
X58541Y65182D01*
X58569D01*
X58624Y65126D01*
X58763Y65099D01*
X58902Y65015D01*
X59069Y64904D01*
X59291Y64793D01*
X59763Y64515D01*
X60318Y64127D01*
X60874Y63655D01*
X61401Y63127D01*
X61873Y62488D01*
X61901Y62461D01*
X61929Y62405D01*
X61984Y62322D01*
X62068Y62183D01*
X62151Y62016D01*
X62262Y61822D01*
X62345Y61572D01*
X62484Y61322D01*
X62706Y60739D01*
X62901Y60044D01*
X63067Y59295D01*
X63151Y58462D01*
X59902Y58212D01*
Y58239D01*
X59874Y58323D01*
Y58434D01*
X59846Y58600D01*
X59790Y58823D01*
X59735Y59045D01*
X59568Y59572D01*
X59346Y60155D01*
X59013Y60767D01*
X58624Y61350D01*
X58374Y61600D01*
X58096Y61849D01*
X58069Y61877D01*
X58041Y61905D01*
X57930Y61961D01*
X57819Y62044D01*
X57652Y62127D01*
X57458Y62238D01*
X57236Y62349D01*
X56986Y62488D01*
X56680Y62599D01*
X56347Y62710D01*
X55986Y62822D01*
X55597Y62905D01*
X55153Y62988D01*
X54681Y63044D01*
X54181Y63099D01*
X53376D01*
X53154Y63071D01*
X52903D01*
X52626Y63044D01*
X52293Y63016D01*
X51959Y62960D01*
X51210Y62822D01*
X50488Y62627D01*
X49793Y62349D01*
X49460Y62155D01*
X49182Y61961D01*
X49155D01*
X49127Y61905D01*
X48960Y61766D01*
X48738Y61516D01*
X48488Y61183D01*
X48238Y60794D01*
X48016Y60322D01*
X47849Y59822D01*
X47822Y59545D01*
X47794Y59239D01*
Y59211D01*
Y59184D01*
X47822Y59017D01*
X47849Y58767D01*
X47905Y58462D01*
X48044Y58101D01*
X48210Y57712D01*
X48433Y57351D01*
X48766Y56990D01*
X48821Y56962D01*
X48877Y56906D01*
X48988Y56823D01*
X49127Y56740D01*
X49293Y56656D01*
X49516Y56545D01*
X49766Y56407D01*
X50071Y56268D01*
X50432Y56129D01*
X50849Y55990D01*
X51321Y55823D01*
X51876Y55657D01*
X52459Y55490D01*
X53126Y55296D01*
X53875Y55129D01*
X53931D01*
X54070Y55101D01*
X54264Y55046D01*
X54542Y54962D01*
X54875Y54907D01*
X55264Y54796D01*
X55681Y54713D01*
X56125Y54574D01*
X57069Y54324D01*
X58013Y54074D01*
X58457Y53935D01*
X58846Y53796D01*
X59235Y53657D01*
X59541Y53518D01*
X59568D01*
X59652Y53463D01*
X59763Y53407D01*
X59902Y53324D01*
X60096Y53241D01*
X60318Y53102D01*
X60790Y52797D01*
X61346Y52435D01*
X61873Y51991D01*
X62401Y51464D01*
X62623Y51186D01*
X62845Y50908D01*
Y50880D01*
X62901Y50825D01*
X62956Y50741D01*
X63012Y50630D01*
X63095Y50492D01*
X63178Y50297D01*
X63401Y49853D01*
X63595Y49325D01*
X63762Y48714D01*
X63873Y48020D01*
X63928Y47270D01*
Y47243D01*
Y47187D01*
Y47076D01*
X63901Y46937D01*
Y46743D01*
X63873Y46548D01*
X63789Y46021D01*
X63651Y45437D01*
X63428Y44799D01*
X63123Y44132D01*
X62956Y43771D01*
X62734Y43438D01*
Y43410D01*
X62679Y43355D01*
X62623Y43271D01*
X62512Y43132D01*
X62262Y42827D01*
X61873Y42410D01*
X61401Y41966D01*
X60818Y41494D01*
X60151Y41050D01*
X59374Y40633D01*
X59346D01*
X59263Y40578D01*
X59152Y40550D01*
X58985Y40467D01*
X58791Y40411D01*
X58541Y40328D01*
X58263Y40217D01*
X57930Y40133D01*
X57597Y40050D01*
X57208Y39939D01*
X56375Y39800D01*
X55458Y39689D01*
X54459Y39634D01*
X54125D01*
X53875Y39661D01*
X53570D01*
X53237Y39689D01*
X52848Y39717D01*
X52404Y39772D01*
X51487Y39883D01*
X50515Y40050D01*
X49543Y40300D01*
X48599Y40633D01*
X48571D01*
X48488Y40689D01*
X48377Y40744D01*
X48210Y40828D01*
X48016Y40939D01*
X47794Y41050D01*
X47266Y41383D01*
X46683Y41800D01*
X46072Y42327D01*
X45461Y42938D01*
X44934Y43660D01*
X44906Y43688D01*
X44878Y43744D01*
X44822Y43855D01*
X44739Y44021D01*
X44628Y44216D01*
X44517Y44438D01*
X44378Y44715D01*
X44267Y45021D01*
X44128Y45326D01*
X44017Y45687D01*
X43795Y46493D01*
X43628Y47354D01*
X43573Y47826D01*
X43545Y48298D01*
X46739Y48575D01*
Y48548D01*
Y48492D01*
X46766Y48381D01*
X46794Y48242D01*
X46822Y48076D01*
X46850Y47909D01*
X46961Y47437D01*
X47100Y46937D01*
X47266Y46409D01*
X47488Y45882D01*
X47766Y45382D01*
X47794Y45326D01*
X47933Y45188D01*
X48127Y44965D01*
X48405Y44688D01*
X48766Y44354D01*
X49210Y44049D01*
X49738Y43716D01*
X50349Y43410D01*
X50376D01*
X50432Y43382D01*
X50515Y43355D01*
X50654Y43299D01*
X50821Y43244D01*
X51015Y43160D01*
X51237Y43105D01*
X51487Y43049D01*
X52070Y42910D01*
X52765Y42772D01*
X53487Y42688D01*
X54292Y42660D01*
X54625D01*
X54792Y42688D01*
X54986D01*
X55431Y42744D01*
X55958Y42799D01*
X56541Y42883D01*
X57125Y43021D01*
X57680Y43216D01*
X57708D01*
X57736Y43244D01*
X57819Y43271D01*
X57930Y43327D01*
X58180Y43466D01*
X58513Y43632D01*
X58874Y43855D01*
X59263Y44132D01*
X59596Y44438D01*
X59902Y44799D01*
X59929Y44854D01*
X60013Y44965D01*
X60151Y45188D01*
X60290Y45465D01*
X60401Y45799D01*
X60540Y46159D01*
X60624Y46576D01*
X60651Y46993D01*
Y47020D01*
Y47048D01*
Y47187D01*
X60624Y47437D01*
X60568Y47715D01*
X60485Y48048D01*
X60346Y48409D01*
X60179Y48770D01*
X59929Y49103D01*
X59902Y49131D01*
X59790Y49242D01*
X59624Y49409D01*
X59374Y49631D01*
X59069Y49853D01*
X58652Y50103D01*
X58180Y50353D01*
X57624Y50603D01*
X57569Y50630D01*
X57513Y50658D01*
X57402Y50686D01*
X57291Y50714D01*
X57125Y50769D01*
X56902Y50853D01*
X56680Y50908D01*
X56375Y50991D01*
X56069Y51103D01*
X55681Y51186D01*
X55264Y51297D01*
X54792Y51436D01*
X54292Y51547D01*
X53709Y51714D01*
X53070Y51852D01*
X53042D01*
X52931Y51880D01*
X52737Y51936D01*
X52515Y51991D01*
X52209Y52074D01*
X51876Y52158D01*
X51543Y52269D01*
X51154Y52380D01*
X50321Y52630D01*
X49516Y52908D01*
X49127Y53046D01*
X48766Y53185D01*
X48433Y53324D01*
X48155Y53463D01*
X48127D01*
X48072Y53518D01*
X47988Y53574D01*
X47849Y53630D01*
X47516Y53824D01*
X47127Y54102D01*
X46655Y54463D01*
X46211Y54852D01*
X45767Y55324D01*
X45406Y55823D01*
Y55851D01*
X45378Y55879D01*
X45322Y55962D01*
X45267Y56073D01*
X45128Y56379D01*
X44961Y56768D01*
X44795Y57240D01*
X44656Y57795D01*
X44545Y58406D01*
X44517Y59045D01*
Y59073D01*
Y59128D01*
Y59239D01*
X44545Y59378D01*
Y59545D01*
X44572Y59739D01*
X44656Y60239D01*
X44795Y60794D01*
X44961Y61377D01*
X45239Y62016D01*
X45600Y62655D01*
Y62683D01*
X45656Y62738D01*
X45711Y62822D01*
X45794Y62932D01*
X46072Y63238D01*
X46433Y63627D01*
X46877Y64043D01*
X47433Y64460D01*
X48072Y64876D01*
X48821Y65237D01*
X48849D01*
X48905Y65265D01*
X49044Y65321D01*
X49182Y65376D01*
X49377Y65432D01*
X49627Y65515D01*
X49904Y65598D01*
X50210Y65682D01*
X50543Y65765D01*
X50904Y65848D01*
X51682Y65987D01*
X52570Y66098D01*
X53514Y66126D01*
X53987D01*
X54237Y66098D01*
D02*
G37*
G36*
X-38599Y50880D02*
Y50825D01*
Y50714D01*
Y50519D01*
Y50242D01*
X-38626Y49908D01*
X-38654Y49547D01*
X-38682Y49131D01*
X-38710Y48659D01*
X-38821Y47687D01*
X-38960Y46659D01*
X-39182Y45660D01*
X-39321Y45188D01*
X-39487Y44743D01*
Y44715D01*
X-39515Y44632D01*
X-39571Y44521D01*
X-39654Y44354D01*
X-39765Y44160D01*
X-39876Y43938D01*
X-40209Y43438D01*
X-40404Y43132D01*
X-40626Y42855D01*
X-40903Y42522D01*
X-41181Y42216D01*
X-41515Y41911D01*
X-41848Y41605D01*
X-42237Y41328D01*
X-42653Y41050D01*
X-42681Y41022D01*
X-42764Y40994D01*
X-42875Y40911D01*
X-43070Y40828D01*
X-43292Y40716D01*
X-43569Y40606D01*
X-43875Y40467D01*
X-44264Y40356D01*
X-44653Y40217D01*
X-45097Y40078D01*
X-45597Y39967D01*
X-46124Y39856D01*
X-46707Y39772D01*
X-47318Y39689D01*
X-47957Y39661D01*
X-48624Y39634D01*
X-48985D01*
X-49235Y39661D01*
X-49540D01*
X-49873Y39689D01*
X-50290Y39745D01*
X-50706Y39800D01*
X-51651Y39939D01*
X-52650Y40161D01*
X-53622Y40467D01*
X-54094Y40633D01*
X-54539Y40855D01*
X-54566Y40883D01*
X-54650Y40911D01*
X-54761Y40994D01*
X-54900Y41078D01*
X-55094Y41216D01*
X-55316Y41383D01*
X-55538Y41550D01*
X-55788Y41772D01*
X-56344Y42272D01*
X-56871Y42883D01*
X-57371Y43605D01*
X-57593Y44021D01*
X-57788Y44438D01*
Y44466D01*
X-57815Y44549D01*
X-57871Y44688D01*
X-57926Y44882D01*
X-58010Y45104D01*
X-58093Y45410D01*
X-58176Y45743D01*
X-58260Y46132D01*
X-58371Y46576D01*
X-58454Y47048D01*
X-58538Y47576D01*
X-58593Y48159D01*
X-58676Y48770D01*
X-58704Y49436D01*
X-58760Y50131D01*
Y50880D01*
Y65682D01*
X-55372D01*
Y50880D01*
Y50853D01*
Y50741D01*
Y50575D01*
Y50325D01*
X-55344Y50047D01*
Y49742D01*
X-55316Y49381D01*
X-55288Y49020D01*
X-55233Y48214D01*
X-55122Y47409D01*
X-54955Y46632D01*
X-54872Y46270D01*
X-54761Y45965D01*
Y45937D01*
X-54733Y45910D01*
X-54705Y45826D01*
X-54650Y45715D01*
X-54483Y45410D01*
X-54261Y45076D01*
X-53983Y44660D01*
X-53622Y44271D01*
X-53178Y43882D01*
X-52650Y43521D01*
X-52622D01*
X-52567Y43494D01*
X-52484Y43438D01*
X-52372Y43382D01*
X-52234Y43327D01*
X-52039Y43271D01*
X-51845Y43188D01*
X-51623Y43105D01*
X-51067Y42966D01*
X-50429Y42827D01*
X-49707Y42716D01*
X-48929Y42688D01*
X-48568D01*
X-48318Y42716D01*
X-48013Y42744D01*
X-47652Y42772D01*
X-47263Y42827D01*
X-46846Y42910D01*
X-45985Y43105D01*
X-45541Y43244D01*
X-45097Y43410D01*
X-44680Y43605D01*
X-44291Y43827D01*
X-43931Y44077D01*
X-43597Y44382D01*
X-43569Y44410D01*
X-43514Y44466D01*
X-43458Y44577D01*
X-43347Y44715D01*
X-43236Y44910D01*
X-43097Y45160D01*
X-42931Y45465D01*
X-42792Y45826D01*
X-42653Y46243D01*
X-42486Y46715D01*
X-42348Y47243D01*
X-42237Y47826D01*
X-42125Y48492D01*
X-42042Y49214D01*
X-42014Y50020D01*
X-41987Y50880D01*
Y65682D01*
X-38599D01*
Y50880D01*
D02*
G37*
G36*
X116747Y62655D02*
X108305D01*
Y40050D01*
X104917D01*
Y62655D01*
X96475D01*
Y65682D01*
X116747D01*
Y62655D01*
D02*
G37*
G36*
X92420Y40050D02*
X89032D01*
Y65682D01*
X92420D01*
Y40050D01*
D02*
G37*
G36*
X71787Y43077D02*
X84422D01*
Y40050D01*
X68399D01*
Y65682D01*
X71787D01*
Y43077D01*
D02*
G37*
G36*
X29466Y62655D02*
X14303D01*
Y54824D01*
X28494D01*
Y51797D01*
X14303D01*
Y43077D01*
X30049D01*
Y40050D01*
X10915D01*
Y65682D01*
X29466D01*
Y62655D01*
D02*
G37*
G36*
X-5830Y43077D02*
X6805D01*
Y40050D01*
X-9218D01*
Y65682D01*
X-5830D01*
Y43077D01*
D02*
G37*
G36*
X-22770Y65654D02*
X-22464D01*
X-22159Y65626D01*
X-21798Y65571D01*
X-21076Y65487D01*
X-20270Y65349D01*
X-19521Y65154D01*
X-18799Y64876D01*
X-18771D01*
X-18715Y64849D01*
X-18632Y64793D01*
X-18493Y64738D01*
X-18188Y64543D01*
X-17771Y64293D01*
X-17327Y63960D01*
X-16883Y63543D01*
X-16438Y63044D01*
X-16022Y62488D01*
Y62461D01*
X-15966Y62405D01*
X-15938Y62322D01*
X-15855Y62211D01*
X-15772Y62072D01*
X-15688Y61877D01*
X-15494Y61461D01*
X-15327Y60961D01*
X-15161Y60378D01*
X-15050Y59767D01*
X-14994Y59100D01*
Y59073D01*
Y59017D01*
Y58934D01*
Y58823D01*
X-15050Y58517D01*
X-15105Y58101D01*
X-15216Y57629D01*
X-15383Y57101D01*
X-15605Y56573D01*
X-15911Y56018D01*
Y55990D01*
X-15938Y55962D01*
X-15994Y55879D01*
X-16077Y55768D01*
X-16272Y55518D01*
X-16577Y55185D01*
X-16938Y54824D01*
X-17410Y54435D01*
X-17938Y54046D01*
X-18576Y53685D01*
X-18549D01*
X-18465Y53657D01*
X-18354Y53602D01*
X-18188Y53546D01*
X-17993Y53463D01*
X-17771Y53380D01*
X-17271Y53130D01*
X-16688Y52824D01*
X-16105Y52408D01*
X-15522Y51936D01*
X-15022Y51352D01*
X-14994Y51325D01*
X-14966Y51269D01*
X-14911Y51186D01*
X-14828Y51075D01*
X-14716Y50908D01*
X-14605Y50714D01*
X-14494Y50492D01*
X-14383Y50242D01*
X-14161Y49686D01*
X-13939Y49020D01*
X-13800Y48270D01*
X-13745Y47881D01*
Y47465D01*
Y47437D01*
Y47381D01*
Y47298D01*
Y47159D01*
X-13772Y46993D01*
Y46826D01*
X-13828Y46382D01*
X-13939Y45854D01*
X-14078Y45299D01*
X-14272Y44688D01*
X-14522Y44104D01*
Y44077D01*
X-14550Y44049D01*
X-14605Y43966D01*
X-14661Y43855D01*
X-14828Y43577D01*
X-15050Y43244D01*
X-15300Y42855D01*
X-15633Y42466D01*
X-15994Y42077D01*
X-16410Y41716D01*
X-16466Y41688D01*
X-16605Y41577D01*
X-16855Y41439D01*
X-17188Y41244D01*
X-17577Y41050D01*
X-18049Y40828D01*
X-18604Y40633D01*
X-19215Y40467D01*
X-19243D01*
X-19298Y40439D01*
X-19382D01*
X-19521Y40411D01*
X-19687Y40383D01*
X-19882Y40328D01*
X-20104Y40300D01*
X-20354Y40272D01*
X-20631Y40217D01*
X-20965Y40189D01*
X-21659Y40106D01*
X-22464Y40078D01*
X-23353Y40050D01*
X-33100D01*
Y65682D01*
X-23020D01*
X-22770Y65654D01*
D02*
G37*
G36*
X-102692D02*
X-102358D01*
X-102025Y65626D01*
X-101276Y65598D01*
X-100526Y65515D01*
X-99776Y65432D01*
X-99443Y65349D01*
X-99137Y65293D01*
X-99110D01*
X-99026Y65265D01*
X-98915Y65237D01*
X-98776Y65182D01*
X-98582Y65126D01*
X-98360Y65071D01*
X-97832Y64876D01*
X-97249Y64626D01*
X-96638Y64321D01*
X-95999Y63932D01*
X-95388Y63460D01*
X-95360Y63432D01*
X-95305Y63377D01*
X-95194Y63294D01*
X-95055Y63155D01*
X-94888Y62988D01*
X-94694Y62766D01*
X-94472Y62544D01*
X-94250Y62266D01*
X-94000Y61961D01*
X-93750Y61627D01*
X-93500Y61266D01*
X-93250Y60878D01*
X-92778Y60017D01*
X-92361Y59073D01*
Y59045D01*
X-92306Y58961D01*
X-92278Y58795D01*
X-92195Y58600D01*
X-92111Y58350D01*
X-92028Y58045D01*
X-91945Y57712D01*
X-91834Y57323D01*
X-91750Y56879D01*
X-91667Y56407D01*
X-91584Y55907D01*
X-91501Y55379D01*
X-91417Y54824D01*
X-91389Y54241D01*
X-91334Y52991D01*
Y52963D01*
Y52852D01*
Y52713D01*
Y52491D01*
X-91362Y52241D01*
Y51936D01*
X-91389Y51602D01*
X-91417Y51241D01*
X-91501Y50436D01*
X-91639Y49575D01*
X-91806Y48687D01*
X-92028Y47798D01*
Y47770D01*
X-92056Y47687D01*
X-92111Y47576D01*
X-92139Y47437D01*
X-92222Y47243D01*
X-92306Y47020D01*
X-92500Y46493D01*
X-92750Y45910D01*
X-93056Y45271D01*
X-93389Y44660D01*
X-93778Y44077D01*
Y44049D01*
X-93833Y44021D01*
X-93889Y43938D01*
X-93972Y43827D01*
X-94166Y43577D01*
X-94472Y43244D01*
X-94805Y42855D01*
X-95194Y42466D01*
X-95638Y42105D01*
X-96110Y41744D01*
X-96138D01*
X-96166Y41716D01*
X-96332Y41605D01*
X-96610Y41466D01*
X-96971Y41272D01*
X-97416Y41078D01*
X-97943Y40855D01*
X-98554Y40661D01*
X-99193Y40467D01*
X-99221D01*
X-99276Y40439D01*
X-99359D01*
X-99498Y40411D01*
X-99665Y40383D01*
X-99887Y40328D01*
X-100109Y40300D01*
X-100359Y40272D01*
X-100970Y40189D01*
X-101664Y40106D01*
X-102442Y40078D01*
X-103275Y40050D01*
X-112522D01*
Y65682D01*
X-102970D01*
X-102692Y65654D01*
D02*
G37*
G36*
X-74839Y66098D02*
X-74505Y66071D01*
X-74144Y66043D01*
X-73755Y65987D01*
X-73311Y65904D01*
X-72811Y65821D01*
X-72311Y65710D01*
X-71784Y65571D01*
X-71228Y65404D01*
X-70673Y65210D01*
X-70118Y64987D01*
X-69590Y64738D01*
X-69034Y64432D01*
X-69007Y64404D01*
X-68896Y64349D01*
X-68757Y64266D01*
X-68563Y64127D01*
X-68313Y63960D01*
X-68063Y63738D01*
X-67757Y63488D01*
X-67424Y63210D01*
X-67063Y62877D01*
X-66702Y62516D01*
X-66341Y62127D01*
X-65980Y61711D01*
X-65647Y61266D01*
X-65286Y60767D01*
X-64980Y60239D01*
X-64675Y59684D01*
X-64647Y59656D01*
X-64619Y59545D01*
X-64536Y59378D01*
X-64452Y59156D01*
X-64314Y58878D01*
X-64203Y58517D01*
X-64064Y58128D01*
X-63925Y57684D01*
X-63786Y57212D01*
X-63647Y56684D01*
X-63508Y56101D01*
X-63397Y55518D01*
X-63314Y54879D01*
X-63231Y54213D01*
X-63203Y53546D01*
X-63175Y52824D01*
Y52769D01*
Y52658D01*
Y52435D01*
X-63203Y52158D01*
X-63231Y51824D01*
X-63258Y51436D01*
X-63314Y50991D01*
X-63370Y50492D01*
X-63453Y49964D01*
X-63564Y49409D01*
X-63675Y48825D01*
X-63841Y48242D01*
X-64036Y47631D01*
X-64230Y47048D01*
X-64480Y46437D01*
X-64758Y45854D01*
X-64786Y45826D01*
X-64841Y45715D01*
X-64925Y45548D01*
X-65036Y45354D01*
X-65202Y45104D01*
X-65397Y44799D01*
X-65647Y44466D01*
X-65896Y44104D01*
X-66202Y43744D01*
X-66535Y43355D01*
X-66924Y42966D01*
X-67313Y42577D01*
X-67729Y42216D01*
X-68201Y41855D01*
X-68701Y41494D01*
X-69229Y41189D01*
X-69257Y41161D01*
X-69368Y41133D01*
X-69507Y41050D01*
X-69729Y40939D01*
X-70007Y40828D01*
X-70312Y40689D01*
X-70673Y40550D01*
X-71090Y40411D01*
X-71534Y40272D01*
X-72006Y40133D01*
X-72534Y39994D01*
X-73061Y39883D01*
X-74227Y39689D01*
X-74839Y39661D01*
X-75449Y39634D01*
X-75810D01*
X-76060Y39661D01*
X-76366Y39689D01*
X-76755Y39717D01*
X-77143Y39772D01*
X-77615Y39856D01*
X-78088Y39939D01*
X-78615Y40050D01*
X-79143Y40189D01*
X-79698Y40356D01*
X-80254Y40550D01*
X-80809Y40800D01*
X-81364Y41050D01*
X-81920Y41355D01*
X-81948Y41383D01*
X-82031Y41439D01*
X-82197Y41550D01*
X-82392Y41688D01*
X-82614Y41855D01*
X-82892Y42077D01*
X-83197Y42327D01*
X-83530Y42605D01*
X-83891Y42938D01*
X-84225Y43299D01*
X-84586Y43688D01*
X-84947Y44104D01*
X-85308Y44577D01*
X-85641Y45049D01*
X-85947Y45576D01*
X-86252Y46132D01*
X-86280Y46159D01*
X-86308Y46270D01*
X-86391Y46437D01*
X-86474Y46659D01*
X-86585Y46937D01*
X-86696Y47270D01*
X-86835Y47631D01*
X-86974Y48076D01*
X-87113Y48520D01*
X-87252Y49020D01*
X-87363Y49547D01*
X-87474Y50103D01*
X-87640Y51269D01*
X-87668Y51908D01*
X-87696Y52519D01*
Y52547D01*
Y52602D01*
Y52685D01*
Y52797D01*
X-87668Y52963D01*
Y53130D01*
X-87640Y53574D01*
X-87585Y54102D01*
X-87502Y54740D01*
X-87418Y55407D01*
X-87279Y56157D01*
X-87085Y56962D01*
X-86863Y57767D01*
X-86585Y58600D01*
X-86252Y59434D01*
X-85863Y60267D01*
X-85419Y61044D01*
X-84891Y61822D01*
X-84280Y62516D01*
X-84253Y62544D01*
X-84114Y62683D01*
X-83919Y62849D01*
X-83669Y63071D01*
X-83308Y63349D01*
X-82920Y63655D01*
X-82447Y63988D01*
X-81892Y64321D01*
X-81281Y64654D01*
X-80615Y64987D01*
X-79893Y65293D01*
X-79087Y65571D01*
X-78254Y65793D01*
X-77365Y65960D01*
X-76421Y66098D01*
X-75422Y66126D01*
X-75088D01*
X-74839Y66098D01*
D02*
G37*
G36*
X-91084Y84D02*
X-94222D01*
Y3666D01*
X-91084D01*
Y84D01*
D02*
G37*
G36*
X-29379Y-2999D02*
X-29212D01*
X-28796Y-3054D01*
X-28324Y-3110D01*
X-27796Y-3221D01*
X-27268Y-3388D01*
X-26741Y-3582D01*
X-26713D01*
X-26685Y-3610D01*
X-26519Y-3693D01*
X-26269Y-3832D01*
X-25936Y-3999D01*
X-25602Y-4249D01*
X-25241Y-4499D01*
X-24908Y-4804D01*
X-24630Y-5165D01*
X-24602Y-5221D01*
X-24519Y-5332D01*
X-24408Y-5554D01*
X-24241Y-5832D01*
X-24075Y-6165D01*
X-23936Y-6554D01*
X-23769Y-6998D01*
X-23658Y-7498D01*
Y-7525D01*
X-23631Y-7664D01*
X-23603Y-7886D01*
X-23547Y-8192D01*
X-23519Y-8608D01*
Y-8858D01*
X-23492Y-9136D01*
Y-9442D01*
X-23464Y-9803D01*
Y-10164D01*
Y-10552D01*
Y-21966D01*
X-26602D01*
Y-10663D01*
Y-10636D01*
Y-10580D01*
Y-10469D01*
Y-10358D01*
Y-10191D01*
X-26630Y-9997D01*
X-26658Y-9580D01*
X-26685Y-9108D01*
X-26769Y-8636D01*
X-26852Y-8192D01*
X-26991Y-7803D01*
X-27018Y-7748D01*
X-27074Y-7637D01*
X-27157Y-7470D01*
X-27296Y-7248D01*
X-27463Y-6998D01*
X-27685Y-6748D01*
X-27963Y-6498D01*
X-28296Y-6276D01*
X-28324Y-6248D01*
X-28463Y-6193D01*
X-28657Y-6081D01*
X-28907Y-5970D01*
X-29240Y-5887D01*
X-29601Y-5776D01*
X-30018Y-5720D01*
X-30490Y-5693D01*
X-30684D01*
X-30823Y-5720D01*
X-30990D01*
X-31212Y-5748D01*
X-31684Y-5859D01*
X-32212Y-5998D01*
X-32795Y-6220D01*
X-33378Y-6554D01*
X-33683Y-6748D01*
X-33961Y-6970D01*
X-33989Y-6998D01*
X-34017Y-7026D01*
X-34100Y-7109D01*
X-34183Y-7220D01*
X-34294Y-7387D01*
X-34405Y-7553D01*
X-34544Y-7775D01*
X-34683Y-8053D01*
X-34822Y-8359D01*
X-34961Y-8720D01*
X-35072Y-9108D01*
X-35183Y-9553D01*
X-35266Y-10053D01*
X-35350Y-10580D01*
X-35377Y-11191D01*
X-35405Y-11830D01*
Y-21966D01*
X-38543D01*
Y-3388D01*
X-35710D01*
Y-6054D01*
X-35683Y-6026D01*
X-35627Y-5915D01*
X-35488Y-5776D01*
X-35322Y-5582D01*
X-35127Y-5332D01*
X-34877Y-5082D01*
X-34572Y-4804D01*
X-34211Y-4499D01*
X-33822Y-4221D01*
X-33378Y-3943D01*
X-32906Y-3693D01*
X-32378Y-3443D01*
X-31795Y-3249D01*
X-31184Y-3110D01*
X-30518Y-2999D01*
X-29823Y-2971D01*
X-29546D01*
X-29379Y-2999D01*
D02*
G37*
G36*
X118635D02*
X118885Y-3027D01*
X119135Y-3054D01*
X119440Y-3110D01*
X119774Y-3166D01*
X120440Y-3360D01*
X121162Y-3638D01*
X121495Y-3804D01*
X121829Y-3999D01*
X122162Y-4249D01*
X122440Y-4526D01*
X122467Y-4554D01*
X122495Y-4610D01*
X122579Y-4693D01*
X122662Y-4804D01*
X122801Y-4971D01*
X122912Y-5165D01*
X123050Y-5415D01*
X123189Y-5693D01*
X123328Y-5998D01*
X123467Y-6331D01*
X123606Y-6720D01*
X123717Y-7137D01*
X123800Y-7609D01*
X123884Y-8109D01*
X123911Y-8636D01*
X123939Y-9219D01*
Y-21966D01*
X120801D01*
Y-10275D01*
Y-10247D01*
Y-10191D01*
Y-10080D01*
Y-9969D01*
X120773Y-9636D01*
Y-9219D01*
X120718Y-8775D01*
X120662Y-8331D01*
X120607Y-7914D01*
X120496Y-7553D01*
Y-7525D01*
X120440Y-7414D01*
X120357Y-7276D01*
X120246Y-7081D01*
X120079Y-6859D01*
X119913Y-6637D01*
X119663Y-6415D01*
X119385Y-6220D01*
X119357Y-6193D01*
X119246Y-6137D01*
X119079Y-6054D01*
X118857Y-5943D01*
X118580Y-5859D01*
X118246Y-5776D01*
X117885Y-5720D01*
X117497Y-5693D01*
X117302D01*
X117163Y-5720D01*
X116997D01*
X116802Y-5748D01*
X116358Y-5859D01*
X115830Y-5998D01*
X115275Y-6248D01*
X114747Y-6554D01*
X114470Y-6776D01*
X114220Y-6998D01*
Y-7026D01*
X114164Y-7053D01*
X114109Y-7137D01*
X114025Y-7248D01*
X113914Y-7387D01*
X113803Y-7553D01*
X113692Y-7775D01*
X113581Y-7998D01*
X113442Y-8275D01*
X113331Y-8581D01*
X113220Y-8942D01*
X113109Y-9303D01*
X113026Y-9719D01*
X112970Y-10191D01*
X112942Y-10663D01*
X112915Y-11191D01*
Y-21966D01*
X109776D01*
Y-9914D01*
Y-9886D01*
Y-9830D01*
Y-9719D01*
Y-9553D01*
X109749Y-9386D01*
Y-9192D01*
X109693Y-8720D01*
X109582Y-8220D01*
X109443Y-7692D01*
X109249Y-7192D01*
X108999Y-6748D01*
X108971Y-6692D01*
X108860Y-6581D01*
X108666Y-6415D01*
X108416Y-6220D01*
X108055Y-6026D01*
X107638Y-5859D01*
X107111Y-5748D01*
X106500Y-5693D01*
X106278D01*
X106027Y-5720D01*
X105694Y-5776D01*
X105306Y-5859D01*
X104889Y-5998D01*
X104472Y-6165D01*
X104028Y-6415D01*
X103973Y-6442D01*
X103834Y-6554D01*
X103639Y-6692D01*
X103417Y-6942D01*
X103139Y-7220D01*
X102862Y-7581D01*
X102612Y-7998D01*
X102390Y-8470D01*
Y-8497D01*
X102362Y-8525D01*
X102334Y-8608D01*
X102306Y-8720D01*
X102279Y-8858D01*
X102223Y-9025D01*
X102195Y-9219D01*
X102140Y-9442D01*
X102084Y-9719D01*
X102056Y-9997D01*
X102001Y-10302D01*
X101973Y-10663D01*
X101945Y-11024D01*
X101918Y-11441D01*
X101890Y-11858D01*
Y-12330D01*
Y-21966D01*
X98752D01*
Y-3388D01*
X101557D01*
Y-5970D01*
X101612Y-5943D01*
X101723Y-5776D01*
X101918Y-5526D01*
X102195Y-5221D01*
X102529Y-4860D01*
X102917Y-4499D01*
X103362Y-4138D01*
X103889Y-3804D01*
X103917D01*
X103945Y-3777D01*
X104028Y-3721D01*
X104139Y-3666D01*
X104278Y-3610D01*
X104445Y-3527D01*
X104833Y-3388D01*
X105333Y-3221D01*
X105889Y-3110D01*
X106527Y-2999D01*
X107194Y-2971D01*
X107527D01*
X107721Y-2999D01*
X107916Y-3027D01*
X108388Y-3082D01*
X108916Y-3193D01*
X109471Y-3332D01*
X110026Y-3554D01*
X110554Y-3832D01*
X110582D01*
X110610Y-3860D01*
X110776Y-3999D01*
X110998Y-4193D01*
X111304Y-4443D01*
X111609Y-4804D01*
X111915Y-5193D01*
X112192Y-5665D01*
X112442Y-6220D01*
X112470Y-6193D01*
X112554Y-6081D01*
X112665Y-5915D01*
X112859Y-5720D01*
X113053Y-5471D01*
X113331Y-5193D01*
X113637Y-4887D01*
X113997Y-4582D01*
X114386Y-4304D01*
X114831Y-3999D01*
X115303Y-3721D01*
X115803Y-3471D01*
X116358Y-3277D01*
X116941Y-3110D01*
X117552Y-2999D01*
X118191Y-2971D01*
X118468D01*
X118635Y-2999D01*
D02*
G37*
G36*
X88810D02*
X89060Y-3027D01*
X89310Y-3054D01*
X89615Y-3110D01*
X89949Y-3166D01*
X90615Y-3360D01*
X91337Y-3638D01*
X91671Y-3804D01*
X92004Y-3999D01*
X92337Y-4249D01*
X92615Y-4526D01*
X92642Y-4554D01*
X92670Y-4610D01*
X92753Y-4693D01*
X92837Y-4804D01*
X92976Y-4971D01*
X93087Y-5165D01*
X93226Y-5415D01*
X93364Y-5693D01*
X93503Y-5998D01*
X93642Y-6331D01*
X93781Y-6720D01*
X93892Y-7137D01*
X93975Y-7609D01*
X94059Y-8109D01*
X94086Y-8636D01*
X94114Y-9219D01*
Y-21966D01*
X90976D01*
Y-10275D01*
Y-10247D01*
Y-10191D01*
Y-10080D01*
Y-9969D01*
X90948Y-9636D01*
Y-9219D01*
X90893Y-8775D01*
X90837Y-8331D01*
X90782Y-7914D01*
X90671Y-7553D01*
Y-7525D01*
X90615Y-7414D01*
X90532Y-7276D01*
X90421Y-7081D01*
X90254Y-6859D01*
X90088Y-6637D01*
X89838Y-6415D01*
X89560Y-6220D01*
X89532Y-6193D01*
X89421Y-6137D01*
X89254Y-6054D01*
X89032Y-5943D01*
X88755Y-5859D01*
X88421Y-5776D01*
X88060Y-5720D01*
X87672Y-5693D01*
X87477D01*
X87338Y-5720D01*
X87172D01*
X86977Y-5748D01*
X86533Y-5859D01*
X86005Y-5998D01*
X85450Y-6248D01*
X84922Y-6554D01*
X84645Y-6776D01*
X84395Y-6998D01*
Y-7026D01*
X84339Y-7053D01*
X84284Y-7137D01*
X84200Y-7248D01*
X84089Y-7387D01*
X83978Y-7553D01*
X83867Y-7775D01*
X83756Y-7998D01*
X83617Y-8275D01*
X83506Y-8581D01*
X83395Y-8942D01*
X83284Y-9303D01*
X83201Y-9719D01*
X83145Y-10191D01*
X83117Y-10663D01*
X83090Y-11191D01*
Y-21966D01*
X79952D01*
Y-9914D01*
Y-9886D01*
Y-9830D01*
Y-9719D01*
Y-9553D01*
X79924Y-9386D01*
Y-9192D01*
X79868Y-8720D01*
X79757Y-8220D01*
X79618Y-7692D01*
X79424Y-7192D01*
X79174Y-6748D01*
X79146Y-6692D01*
X79035Y-6581D01*
X78841Y-6415D01*
X78591Y-6220D01*
X78230Y-6026D01*
X77813Y-5859D01*
X77286Y-5748D01*
X76675Y-5693D01*
X76452D01*
X76203Y-5720D01*
X75869Y-5776D01*
X75481Y-5859D01*
X75064Y-5998D01*
X74647Y-6165D01*
X74203Y-6415D01*
X74148Y-6442D01*
X74009Y-6554D01*
X73814Y-6692D01*
X73592Y-6942D01*
X73314Y-7220D01*
X73037Y-7581D01*
X72787Y-7998D01*
X72565Y-8470D01*
Y-8497D01*
X72537Y-8525D01*
X72509Y-8608D01*
X72481Y-8720D01*
X72454Y-8858D01*
X72398Y-9025D01*
X72370Y-9219D01*
X72315Y-9442D01*
X72259Y-9719D01*
X72231Y-9997D01*
X72176Y-10302D01*
X72148Y-10663D01*
X72120Y-11024D01*
X72093Y-11441D01*
X72065Y-11858D01*
Y-12330D01*
Y-21966D01*
X68927D01*
Y-3388D01*
X71732D01*
Y-5970D01*
X71787Y-5943D01*
X71898Y-5776D01*
X72093Y-5526D01*
X72370Y-5221D01*
X72703Y-4860D01*
X73092Y-4499D01*
X73537Y-4138D01*
X74064Y-3804D01*
X74092D01*
X74120Y-3777D01*
X74203Y-3721D01*
X74314Y-3666D01*
X74453Y-3610D01*
X74620Y-3527D01*
X75008Y-3388D01*
X75508Y-3221D01*
X76064Y-3110D01*
X76702Y-2999D01*
X77369Y-2971D01*
X77702D01*
X77896Y-2999D01*
X78091Y-3027D01*
X78563Y-3082D01*
X79091Y-3193D01*
X79646Y-3332D01*
X80201Y-3554D01*
X80729Y-3832D01*
X80757D01*
X80785Y-3860D01*
X80951Y-3999D01*
X81173Y-4193D01*
X81479Y-4443D01*
X81784Y-4804D01*
X82090Y-5193D01*
X82367Y-5665D01*
X82617Y-6220D01*
X82645Y-6193D01*
X82728Y-6081D01*
X82840Y-5915D01*
X83034Y-5720D01*
X83228Y-5471D01*
X83506Y-5193D01*
X83811Y-4887D01*
X84173Y-4582D01*
X84561Y-4304D01*
X85006Y-3999D01*
X85478Y-3721D01*
X85978Y-3471D01*
X86533Y-3277D01*
X87116Y-3110D01*
X87727Y-2999D01*
X88366Y-2971D01*
X88643D01*
X88810Y-2999D01*
D02*
G37*
G36*
X-79643D02*
X-79421D01*
X-78893Y-3054D01*
X-78310Y-3138D01*
X-77643Y-3249D01*
X-77004Y-3388D01*
X-76366Y-3610D01*
X-76338D01*
X-76283Y-3638D01*
X-76199Y-3666D01*
X-76088Y-3721D01*
X-75810Y-3860D01*
X-75422Y-4054D01*
X-75033Y-4304D01*
X-74644Y-4610D01*
X-74255Y-4943D01*
X-73922Y-5332D01*
X-73894Y-5387D01*
X-73783Y-5526D01*
X-73644Y-5776D01*
X-73478Y-6081D01*
X-73283Y-6498D01*
X-73117Y-6998D01*
X-72950Y-7553D01*
X-72811Y-8192D01*
X-75894Y-8608D01*
Y-8581D01*
Y-8553D01*
X-75949Y-8386D01*
X-76005Y-8109D01*
X-76116Y-7803D01*
X-76283Y-7442D01*
X-76505Y-7081D01*
X-76782Y-6720D01*
X-77116Y-6387D01*
X-77171Y-6359D01*
X-77310Y-6248D01*
X-77532Y-6109D01*
X-77838Y-5970D01*
X-78254Y-5804D01*
X-78754Y-5693D01*
X-79309Y-5582D01*
X-79976Y-5554D01*
X-80337D01*
X-80503Y-5582D01*
X-80698D01*
X-81170Y-5637D01*
X-81670Y-5720D01*
X-82197Y-5859D01*
X-82670Y-6026D01*
X-82864Y-6137D01*
X-83058Y-6276D01*
X-83086Y-6304D01*
X-83197Y-6415D01*
X-83336Y-6554D01*
X-83503Y-6748D01*
X-83697Y-6998D01*
X-83836Y-7303D01*
X-83947Y-7609D01*
X-83975Y-7970D01*
Y-7998D01*
Y-8081D01*
X-83947Y-8192D01*
X-83919Y-8331D01*
X-83808Y-8692D01*
X-83725Y-8886D01*
X-83614Y-9081D01*
X-83586Y-9108D01*
X-83530Y-9164D01*
X-83447Y-9247D01*
X-83308Y-9358D01*
X-83142Y-9497D01*
X-82920Y-9636D01*
X-82670Y-9775D01*
X-82392Y-9914D01*
X-82364D01*
X-82281Y-9941D01*
X-82114Y-9997D01*
X-81864Y-10080D01*
X-81698Y-10136D01*
X-81503Y-10191D01*
X-81281Y-10247D01*
X-81031Y-10330D01*
X-80726Y-10414D01*
X-80392Y-10497D01*
X-80032Y-10608D01*
X-79615Y-10719D01*
X-79587D01*
X-79476Y-10747D01*
X-79309Y-10802D01*
X-79059Y-10858D01*
X-78810Y-10941D01*
X-78504Y-11024D01*
X-78143Y-11136D01*
X-77782Y-11247D01*
X-77004Y-11469D01*
X-76255Y-11719D01*
X-75894Y-11830D01*
X-75560Y-11969D01*
X-75255Y-12080D01*
X-74977Y-12191D01*
X-74950D01*
X-74922Y-12219D01*
X-74755Y-12302D01*
X-74505Y-12413D01*
X-74227Y-12607D01*
X-73894Y-12830D01*
X-73533Y-13107D01*
X-73200Y-13441D01*
X-72895Y-13829D01*
X-72867Y-13885D01*
X-72783Y-14024D01*
X-72645Y-14246D01*
X-72506Y-14579D01*
X-72367Y-14968D01*
X-72228Y-15412D01*
X-72145Y-15940D01*
X-72117Y-16523D01*
Y-16551D01*
Y-16606D01*
Y-16690D01*
Y-16801D01*
X-72173Y-17106D01*
X-72228Y-17495D01*
X-72339Y-17939D01*
X-72506Y-18439D01*
X-72756Y-18967D01*
X-73061Y-19494D01*
Y-19522D01*
X-73117Y-19550D01*
X-73228Y-19716D01*
X-73450Y-19966D01*
X-73728Y-20272D01*
X-74116Y-20633D01*
X-74561Y-20994D01*
X-75088Y-21327D01*
X-75699Y-21633D01*
X-75727D01*
X-75783Y-21660D01*
X-75866Y-21688D01*
X-76005Y-21744D01*
X-76171Y-21799D01*
X-76366Y-21883D01*
X-76588Y-21938D01*
X-76838Y-21994D01*
X-77421Y-22132D01*
X-78088Y-22271D01*
X-78810Y-22355D01*
X-79615Y-22382D01*
X-79976D01*
X-80226Y-22355D01*
X-80503Y-22327D01*
X-80865Y-22299D01*
X-81253Y-22271D01*
X-81670Y-22188D01*
X-82559Y-22021D01*
X-83503Y-21771D01*
X-83947Y-21605D01*
X-84391Y-21383D01*
X-84780Y-21161D01*
X-85169Y-20911D01*
X-85197Y-20883D01*
X-85252Y-20827D01*
X-85335Y-20744D01*
X-85474Y-20633D01*
X-85613Y-20466D01*
X-85780Y-20272D01*
X-85974Y-20050D01*
X-86169Y-19800D01*
X-86391Y-19494D01*
X-86585Y-19161D01*
X-86780Y-18800D01*
X-86974Y-18384D01*
X-87141Y-17967D01*
X-87307Y-17495D01*
X-87446Y-16967D01*
X-87557Y-16440D01*
X-84447Y-15940D01*
Y-15968D01*
X-84419Y-16023D01*
Y-16106D01*
X-84391Y-16245D01*
X-84364Y-16412D01*
X-84308Y-16578D01*
X-84169Y-16995D01*
X-83975Y-17467D01*
X-83725Y-17967D01*
X-83419Y-18411D01*
X-83003Y-18828D01*
X-82975D01*
X-82947Y-18856D01*
X-82781Y-18967D01*
X-82503Y-19133D01*
X-82114Y-19300D01*
X-81642Y-19494D01*
X-81059Y-19633D01*
X-80392Y-19744D01*
X-79643Y-19800D01*
X-79421D01*
X-79282Y-19772D01*
X-79087D01*
X-78893Y-19744D01*
X-78421Y-19689D01*
X-77893Y-19578D01*
X-77338Y-19439D01*
X-76838Y-19217D01*
X-76394Y-18939D01*
X-76338Y-18911D01*
X-76227Y-18772D01*
X-76060Y-18606D01*
X-75866Y-18356D01*
X-75672Y-18050D01*
X-75505Y-17689D01*
X-75394Y-17300D01*
X-75338Y-16856D01*
Y-16801D01*
Y-16690D01*
X-75394Y-16467D01*
X-75449Y-16245D01*
X-75560Y-15968D01*
X-75727Y-15690D01*
X-75977Y-15412D01*
X-76283Y-15162D01*
X-76310Y-15134D01*
X-76421Y-15079D01*
X-76616Y-14996D01*
X-76755Y-14940D01*
X-76921Y-14885D01*
X-77143Y-14801D01*
X-77365Y-14718D01*
X-77615Y-14635D01*
X-77921Y-14551D01*
X-78254Y-14440D01*
X-78643Y-14329D01*
X-79059Y-14218D01*
X-79504Y-14107D01*
X-79532D01*
X-79643Y-14079D01*
X-79837Y-14024D01*
X-80059Y-13968D01*
X-80337Y-13885D01*
X-80670Y-13802D01*
X-81031Y-13690D01*
X-81420Y-13579D01*
X-82197Y-13329D01*
X-83003Y-13080D01*
X-83392Y-12968D01*
X-83725Y-12830D01*
X-84058Y-12691D01*
X-84336Y-12580D01*
X-84364D01*
X-84391Y-12552D01*
X-84558Y-12469D01*
X-84780Y-12330D01*
X-85086Y-12108D01*
X-85419Y-11858D01*
X-85752Y-11580D01*
X-86085Y-11219D01*
X-86363Y-10830D01*
X-86391Y-10775D01*
X-86474Y-10636D01*
X-86585Y-10386D01*
X-86696Y-10080D01*
X-86807Y-9719D01*
X-86918Y-9303D01*
X-87002Y-8831D01*
X-87029Y-8331D01*
Y-8303D01*
Y-8275D01*
Y-8109D01*
X-87002Y-7886D01*
X-86946Y-7581D01*
X-86891Y-7220D01*
X-86807Y-6831D01*
X-86668Y-6415D01*
X-86474Y-6026D01*
X-86446Y-5970D01*
X-86363Y-5859D01*
X-86252Y-5665D01*
X-86058Y-5415D01*
X-85863Y-5137D01*
X-85585Y-4832D01*
X-85280Y-4554D01*
X-84919Y-4276D01*
X-84891Y-4249D01*
X-84780Y-4193D01*
X-84614Y-4082D01*
X-84391Y-3971D01*
X-84114Y-3832D01*
X-83780Y-3666D01*
X-83364Y-3499D01*
X-82920Y-3360D01*
X-82892D01*
X-82864Y-3332D01*
X-82697Y-3305D01*
X-82447Y-3249D01*
X-82086Y-3166D01*
X-81698Y-3082D01*
X-81226Y-3027D01*
X-80726Y-2999D01*
X-80198Y-2971D01*
X-79837D01*
X-79643Y-2999D01*
D02*
G37*
G36*
X-10634D02*
X-10384Y-3027D01*
X-10079Y-3054D01*
X-9746Y-3110D01*
X-9385Y-3166D01*
X-8607Y-3360D01*
X-7774Y-3638D01*
X-7357Y-3804D01*
X-6941Y-3999D01*
X-6552Y-4249D01*
X-6191Y-4526D01*
X-6163Y-4554D01*
X-6108Y-4610D01*
X-5997Y-4693D01*
X-5886Y-4804D01*
X-5719Y-4971D01*
X-5552Y-5165D01*
X-5358Y-5387D01*
X-5164Y-5637D01*
X-4941Y-5943D01*
X-4747Y-6248D01*
X-4525Y-6609D01*
X-4330Y-6998D01*
X-4164Y-7414D01*
X-3997Y-7859D01*
X-3831Y-8359D01*
X-3720Y-8858D01*
X-6774Y-9330D01*
Y-9303D01*
X-6802Y-9247D01*
X-6830Y-9164D01*
X-6858Y-9025D01*
X-6969Y-8692D01*
X-7135Y-8275D01*
X-7357Y-7831D01*
X-7607Y-7359D01*
X-7941Y-6915D01*
X-8329Y-6526D01*
X-8385Y-6470D01*
X-8524Y-6359D01*
X-8774Y-6220D01*
X-9079Y-6026D01*
X-9468Y-5859D01*
X-9912Y-5693D01*
X-10440Y-5582D01*
X-10995Y-5554D01*
X-11217D01*
X-11384Y-5582D01*
X-11606Y-5609D01*
X-11828Y-5637D01*
X-12384Y-5776D01*
X-12995Y-5970D01*
X-13300Y-6109D01*
X-13633Y-6276D01*
X-13939Y-6470D01*
X-14272Y-6720D01*
X-14578Y-6970D01*
X-14855Y-7276D01*
X-14883Y-7303D01*
X-14911Y-7359D01*
X-14994Y-7442D01*
X-15077Y-7609D01*
X-15189Y-7775D01*
X-15327Y-7998D01*
X-15466Y-8275D01*
X-15577Y-8581D01*
X-15716Y-8942D01*
X-15855Y-9330D01*
X-15994Y-9775D01*
X-16105Y-10275D01*
X-16188Y-10802D01*
X-16272Y-11358D01*
X-16299Y-11997D01*
X-16327Y-12663D01*
Y-12691D01*
Y-12830D01*
Y-13024D01*
X-16299Y-13274D01*
X-16272Y-13579D01*
X-16244Y-13940D01*
X-16216Y-14329D01*
X-16161Y-14746D01*
X-15994Y-15634D01*
X-15716Y-16551D01*
X-15577Y-16967D01*
X-15383Y-17384D01*
X-15161Y-17773D01*
X-14911Y-18106D01*
X-14883Y-18134D01*
X-14855Y-18189D01*
X-14772Y-18272D01*
X-14661Y-18356D01*
X-14494Y-18495D01*
X-14328Y-18633D01*
X-14133Y-18800D01*
X-13911Y-18939D01*
X-13356Y-19272D01*
X-12717Y-19522D01*
X-12356Y-19633D01*
X-11995Y-19716D01*
X-11578Y-19772D01*
X-11162Y-19800D01*
X-10995D01*
X-10856Y-19772D01*
X-10690D01*
X-10523Y-19744D01*
X-10079Y-19661D01*
X-9607Y-19522D01*
X-9079Y-19328D01*
X-8579Y-19050D01*
X-8079Y-18689D01*
X-8052Y-18661D01*
X-8024Y-18633D01*
X-7885Y-18467D01*
X-7663Y-18189D01*
X-7552Y-18023D01*
X-7413Y-17828D01*
X-7274Y-17578D01*
X-7135Y-17328D01*
X-7024Y-17051D01*
X-6885Y-16717D01*
X-6774Y-16384D01*
X-6663Y-15995D01*
X-6580Y-15607D01*
X-6497Y-15162D01*
X-3414Y-15579D01*
Y-15607D01*
X-3442Y-15718D01*
X-3470Y-15884D01*
X-3525Y-16106D01*
X-3608Y-16384D01*
X-3692Y-16690D01*
X-3803Y-17023D01*
X-3942Y-17412D01*
X-4275Y-18189D01*
X-4497Y-18606D01*
X-4747Y-19022D01*
X-4997Y-19439D01*
X-5302Y-19855D01*
X-5663Y-20216D01*
X-6024Y-20577D01*
X-6052Y-20605D01*
X-6108Y-20661D01*
X-6247Y-20744D01*
X-6385Y-20855D01*
X-6608Y-20994D01*
X-6830Y-21161D01*
X-7135Y-21299D01*
X-7441Y-21466D01*
X-7802Y-21660D01*
X-8190Y-21799D01*
X-8607Y-21966D01*
X-9051Y-22105D01*
X-9551Y-22216D01*
X-10051Y-22299D01*
X-10579Y-22355D01*
X-11134Y-22382D01*
X-11301D01*
X-11495Y-22355D01*
X-11773D01*
X-12078Y-22299D01*
X-12467Y-22244D01*
X-12884Y-22188D01*
X-13328Y-22077D01*
X-13800Y-21938D01*
X-14300Y-21771D01*
X-14800Y-21577D01*
X-15327Y-21327D01*
X-15827Y-21049D01*
X-16327Y-20716D01*
X-16799Y-20355D01*
X-17244Y-19911D01*
X-17271Y-19883D01*
X-17355Y-19800D01*
X-17466Y-19661D01*
X-17605Y-19439D01*
X-17771Y-19189D01*
X-17966Y-18883D01*
X-18188Y-18495D01*
X-18382Y-18078D01*
X-18604Y-17606D01*
X-18826Y-17078D01*
X-19021Y-16495D01*
X-19187Y-15856D01*
X-19326Y-15162D01*
X-19437Y-14412D01*
X-19521Y-13607D01*
X-19548Y-12774D01*
Y-12746D01*
Y-12635D01*
Y-12469D01*
X-19521Y-12274D01*
Y-11997D01*
X-19493Y-11691D01*
X-19465Y-11358D01*
X-19437Y-10969D01*
X-19298Y-10164D01*
X-19132Y-9275D01*
X-18910Y-8359D01*
X-18576Y-7498D01*
Y-7470D01*
X-18521Y-7387D01*
X-18465Y-7276D01*
X-18382Y-7137D01*
X-18271Y-6942D01*
X-18160Y-6720D01*
X-17827Y-6220D01*
X-17410Y-5693D01*
X-16883Y-5110D01*
X-16272Y-4582D01*
X-15550Y-4110D01*
X-15522D01*
X-15466Y-4054D01*
X-15355Y-3999D01*
X-15189Y-3943D01*
X-14994Y-3832D01*
X-14772Y-3749D01*
X-14522Y-3638D01*
X-14244Y-3527D01*
X-13911Y-3443D01*
X-13578Y-3332D01*
X-12828Y-3138D01*
X-11995Y-3027D01*
X-11134Y-2971D01*
X-10829D01*
X-10634Y-2999D01*
D02*
G37*
G36*
X36714Y3721D02*
X36936D01*
X37186Y3666D01*
X37491Y3638D01*
X37797Y3582D01*
X38519Y3416D01*
X39268Y3166D01*
X39657Y3027D01*
X40074Y2833D01*
X40463Y2638D01*
X40851Y2388D01*
X40879Y2361D01*
X40935Y2333D01*
X41046Y2249D01*
X41185Y2138D01*
X41379Y2000D01*
X41573Y1833D01*
X41796Y1639D01*
X42018Y1416D01*
X42268Y1166D01*
X42545Y861D01*
X42795Y556D01*
X43073Y222D01*
X43323Y-166D01*
X43573Y-555D01*
X43795Y-1000D01*
X44017Y-1444D01*
Y-1472D01*
X44073Y-1555D01*
X44128Y-1694D01*
X44184Y-1916D01*
X44267Y-2166D01*
X44350Y-2471D01*
X44462Y-2832D01*
X44572Y-3277D01*
X44656Y-3749D01*
X44767Y-4276D01*
X44850Y-4887D01*
X44934Y-5526D01*
X44989Y-6220D01*
X45045Y-6970D01*
X45100Y-7775D01*
Y-8636D01*
Y-8692D01*
Y-8858D01*
Y-9108D01*
X45072Y-9442D01*
Y-9858D01*
X45045Y-10358D01*
X45017Y-10886D01*
X44961Y-11469D01*
X44906Y-12080D01*
X44850Y-12719D01*
X44656Y-14024D01*
X44378Y-15301D01*
X44212Y-15884D01*
X44017Y-16467D01*
Y-16495D01*
X43962Y-16606D01*
X43906Y-16745D01*
X43823Y-16939D01*
X43712Y-17189D01*
X43573Y-17467D01*
X43406Y-17773D01*
X43240Y-18106D01*
X42795Y-18800D01*
X42240Y-19550D01*
X41601Y-20244D01*
X41240Y-20577D01*
X40851Y-20883D01*
X40824Y-20911D01*
X40768Y-20938D01*
X40629Y-21022D01*
X40490Y-21105D01*
X40268Y-21216D01*
X40046Y-21355D01*
X39768Y-21494D01*
X39435Y-21633D01*
X39102Y-21771D01*
X38713Y-21910D01*
X38324Y-22021D01*
X37880Y-22160D01*
X36936Y-22327D01*
X36436Y-22355D01*
X35908Y-22382D01*
X35631D01*
X35408Y-22355D01*
X35159Y-22327D01*
X34853Y-22299D01*
X34520Y-22244D01*
X34159Y-22160D01*
X33381Y-21966D01*
X32992Y-21827D01*
X32576Y-21688D01*
X32159Y-21494D01*
X31743Y-21272D01*
X31354Y-21022D01*
X30993Y-20716D01*
X30965Y-20688D01*
X30910Y-20633D01*
X30826Y-20550D01*
X30687Y-20411D01*
X30549Y-20244D01*
X30382Y-20022D01*
X30188Y-19772D01*
X29993Y-19494D01*
X29799Y-19189D01*
X29605Y-18828D01*
X29438Y-18439D01*
X29243Y-18023D01*
X29077Y-17578D01*
X28938Y-17106D01*
X28827Y-16578D01*
X28744Y-16023D01*
X31771Y-15773D01*
Y-15801D01*
X31798Y-15856D01*
Y-15968D01*
X31854Y-16134D01*
X31882Y-16301D01*
X31937Y-16495D01*
X32076Y-16967D01*
X32270Y-17467D01*
X32520Y-17967D01*
X32854Y-18439D01*
X33020Y-18661D01*
X33215Y-18856D01*
X33270Y-18883D01*
X33409Y-18994D01*
X33659Y-19161D01*
X33964Y-19328D01*
X34381Y-19494D01*
X34853Y-19661D01*
X35381Y-19772D01*
X35992Y-19800D01*
X36241D01*
X36519Y-19772D01*
X36852Y-19716D01*
X37241Y-19633D01*
X37658Y-19522D01*
X38102Y-19383D01*
X38519Y-19161D01*
X38574Y-19133D01*
X38713Y-19050D01*
X38908Y-18883D01*
X39157Y-18689D01*
X39435Y-18439D01*
X39741Y-18134D01*
X40046Y-17773D01*
X40324Y-17384D01*
X40352Y-17328D01*
X40435Y-17189D01*
X40574Y-16939D01*
X40740Y-16578D01*
X40907Y-16162D01*
X41101Y-15662D01*
X41296Y-15051D01*
X41490Y-14385D01*
Y-14357D01*
X41518Y-14301D01*
X41546Y-14190D01*
X41573Y-14051D01*
X41601Y-13885D01*
X41629Y-13690D01*
X41684Y-13441D01*
X41740Y-13191D01*
X41823Y-12607D01*
X41879Y-11969D01*
X41934Y-11275D01*
X41962Y-10552D01*
Y-10497D01*
Y-10386D01*
Y-10191D01*
Y-9941D01*
X41907Y-9969D01*
X41879Y-10053D01*
X41796Y-10164D01*
X41573Y-10441D01*
X41296Y-10775D01*
X40907Y-11163D01*
X40463Y-11580D01*
X39963Y-11969D01*
X39380Y-12358D01*
X39352D01*
X39296Y-12385D01*
X39213Y-12441D01*
X39102Y-12496D01*
X38935Y-12580D01*
X38769Y-12635D01*
X38324Y-12802D01*
X37797Y-12996D01*
X37186Y-13135D01*
X36519Y-13246D01*
X35825Y-13274D01*
X35686D01*
X35519Y-13246D01*
X35297D01*
X35020Y-13191D01*
X34714Y-13163D01*
X34353Y-13080D01*
X33964Y-12996D01*
X33548Y-12857D01*
X33131Y-12719D01*
X32687Y-12524D01*
X32243Y-12302D01*
X31771Y-12052D01*
X31326Y-11746D01*
X30882Y-11385D01*
X30465Y-10997D01*
X30438Y-10969D01*
X30382Y-10886D01*
X30271Y-10747D01*
X30132Y-10580D01*
X29965Y-10358D01*
X29771Y-10080D01*
X29577Y-9747D01*
X29382Y-9358D01*
X29160Y-8969D01*
X28966Y-8497D01*
X28771Y-7998D01*
X28605Y-7470D01*
X28466Y-6887D01*
X28355Y-6248D01*
X28299Y-5609D01*
X28271Y-4915D01*
Y-4860D01*
Y-4749D01*
X28299Y-4526D01*
Y-4276D01*
X28355Y-3943D01*
X28383Y-3554D01*
X28466Y-3138D01*
X28549Y-2666D01*
X28688Y-2194D01*
X28827Y-1666D01*
X29021Y-1138D01*
X29243Y-638D01*
X29493Y-111D01*
X29799Y417D01*
X30160Y889D01*
X30549Y1361D01*
X30576Y1389D01*
X30660Y1472D01*
X30799Y1583D01*
X30965Y1722D01*
X31187Y1916D01*
X31465Y2111D01*
X31771Y2333D01*
X32132Y2555D01*
X32520Y2777D01*
X32965Y2999D01*
X33437Y3194D01*
X33937Y3388D01*
X34492Y3527D01*
X35075Y3638D01*
X35658Y3721D01*
X36297Y3749D01*
X36547D01*
X36714Y3721D01*
D02*
G37*
G36*
X-50012Y-2999D02*
X-49762D01*
X-49235Y-3054D01*
X-48624Y-3110D01*
X-47985Y-3221D01*
X-47346Y-3360D01*
X-46763Y-3554D01*
X-46735D01*
X-46707Y-3582D01*
X-46624Y-3610D01*
X-46513Y-3666D01*
X-46263Y-3777D01*
X-45930Y-3943D01*
X-45569Y-4138D01*
X-45208Y-4388D01*
X-44875Y-4665D01*
X-44569Y-4971D01*
X-44541Y-4998D01*
X-44458Y-5110D01*
X-44319Y-5304D01*
X-44180Y-5554D01*
X-44014Y-5859D01*
X-43847Y-6220D01*
X-43681Y-6637D01*
X-43569Y-7109D01*
Y-7137D01*
X-43542Y-7276D01*
X-43514Y-7470D01*
X-43486Y-7775D01*
X-43458Y-8164D01*
X-43431Y-8664D01*
Y-8969D01*
X-43403Y-9275D01*
Y-9608D01*
Y-9997D01*
Y-14190D01*
Y-14246D01*
Y-14385D01*
Y-14607D01*
Y-14885D01*
Y-15246D01*
Y-15634D01*
X-43375Y-16079D01*
Y-16523D01*
X-43347Y-17467D01*
Y-17939D01*
X-43319Y-18384D01*
X-43292Y-18800D01*
X-43264Y-19161D01*
X-43236Y-19494D01*
X-43208Y-19744D01*
Y-19800D01*
X-43181Y-19939D01*
X-43125Y-20161D01*
X-43042Y-20466D01*
X-42931Y-20800D01*
X-42792Y-21161D01*
X-42625Y-21577D01*
X-42431Y-21966D01*
X-45708D01*
X-45735Y-21910D01*
X-45791Y-21799D01*
X-45874Y-21577D01*
X-45958Y-21299D01*
X-46069Y-20966D01*
X-46180Y-20577D01*
X-46263Y-20133D01*
X-46319Y-19633D01*
X-46346Y-19661D01*
X-46402Y-19689D01*
X-46485Y-19772D01*
X-46624Y-19883D01*
X-46791Y-19994D01*
X-46957Y-20161D01*
X-47402Y-20466D01*
X-47929Y-20827D01*
X-48485Y-21188D01*
X-49096Y-21494D01*
X-49707Y-21771D01*
X-49734D01*
X-49790Y-21799D01*
X-49873Y-21827D01*
X-49984Y-21855D01*
X-50123Y-21910D01*
X-50318Y-21966D01*
X-50734Y-22077D01*
X-51262Y-22188D01*
X-51845Y-22299D01*
X-52484Y-22355D01*
X-53178Y-22382D01*
X-53483D01*
X-53678Y-22355D01*
X-53928Y-22327D01*
X-54233Y-22299D01*
X-54566Y-22271D01*
X-54900Y-22188D01*
X-55677Y-22021D01*
X-56455Y-21771D01*
X-56816Y-21605D01*
X-57205Y-21383D01*
X-57538Y-21161D01*
X-57871Y-20911D01*
X-57899Y-20883D01*
X-57954Y-20827D01*
X-58010Y-20744D01*
X-58121Y-20633D01*
X-58260Y-20494D01*
X-58399Y-20300D01*
X-58538Y-20105D01*
X-58676Y-19855D01*
X-58982Y-19328D01*
X-59259Y-18661D01*
X-59371Y-18300D01*
X-59426Y-17911D01*
X-59482Y-17495D01*
X-59509Y-17078D01*
Y-17051D01*
Y-17023D01*
Y-16856D01*
X-59482Y-16578D01*
X-59426Y-16245D01*
X-59371Y-15856D01*
X-59259Y-15440D01*
X-59093Y-15023D01*
X-58899Y-14579D01*
X-58871Y-14524D01*
X-58787Y-14385D01*
X-58649Y-14190D01*
X-58454Y-13913D01*
X-58232Y-13635D01*
X-57954Y-13329D01*
X-57649Y-13052D01*
X-57288Y-12774D01*
X-57232Y-12746D01*
X-57093Y-12663D01*
X-56899Y-12524D01*
X-56621Y-12385D01*
X-56288Y-12219D01*
X-55899Y-12052D01*
X-55455Y-11885D01*
X-55011Y-11746D01*
X-54955D01*
X-54844Y-11691D01*
X-54622Y-11663D01*
X-54316Y-11580D01*
X-53928Y-11524D01*
X-53428Y-11441D01*
X-52872Y-11358D01*
X-52206Y-11275D01*
X-52150D01*
X-52039Y-11247D01*
X-51845Y-11219D01*
X-51595Y-11191D01*
X-51262Y-11136D01*
X-50901Y-11080D01*
X-50512Y-11024D01*
X-50068Y-10969D01*
X-49151Y-10802D01*
X-48235Y-10608D01*
X-47791Y-10497D01*
X-47346Y-10386D01*
X-46957Y-10275D01*
X-46596Y-10164D01*
Y-10136D01*
Y-10053D01*
Y-9941D01*
X-46569Y-9830D01*
Y-9553D01*
Y-9442D01*
Y-9358D01*
Y-9330D01*
Y-9275D01*
Y-9164D01*
Y-9053D01*
X-46624Y-8720D01*
X-46680Y-8303D01*
X-46791Y-7859D01*
X-46957Y-7414D01*
X-47180Y-6998D01*
X-47485Y-6665D01*
X-47541Y-6609D01*
X-47596Y-6554D01*
X-47707Y-6498D01*
X-47846Y-6415D01*
X-47985Y-6331D01*
X-48374Y-6109D01*
X-48873Y-5915D01*
X-49485Y-5748D01*
X-50207Y-5637D01*
X-51040Y-5582D01*
X-51401D01*
X-51595Y-5609D01*
X-51789D01*
X-52289Y-5665D01*
X-52817Y-5776D01*
X-53345Y-5915D01*
X-53872Y-6109D01*
X-54316Y-6359D01*
X-54372Y-6387D01*
X-54483Y-6498D01*
X-54677Y-6720D01*
X-54900Y-6998D01*
X-55150Y-7359D01*
X-55427Y-7859D01*
X-55649Y-8414D01*
X-55761Y-8747D01*
X-55872Y-9108D01*
X-58954Y-8692D01*
Y-8664D01*
X-58926Y-8608D01*
X-58899Y-8497D01*
X-58871Y-8359D01*
X-58815Y-8192D01*
X-58760Y-7998D01*
X-58621Y-7553D01*
X-58426Y-7053D01*
X-58204Y-6526D01*
X-57926Y-5998D01*
X-57593Y-5526D01*
Y-5498D01*
X-57538Y-5471D01*
X-57399Y-5332D01*
X-57177Y-5110D01*
X-56871Y-4832D01*
X-56482Y-4526D01*
X-56010Y-4221D01*
X-55455Y-3915D01*
X-54816Y-3638D01*
X-54789D01*
X-54733Y-3610D01*
X-54622Y-3582D01*
X-54483Y-3527D01*
X-54316Y-3471D01*
X-54122Y-3416D01*
X-53872Y-3360D01*
X-53594Y-3305D01*
X-53317Y-3249D01*
X-52983Y-3193D01*
X-52262Y-3082D01*
X-51456Y-2999D01*
X-50595Y-2971D01*
X-50207D01*
X-50012Y-2999D01*
D02*
G37*
G36*
X-91084Y-21966D02*
X-94222D01*
Y-3388D01*
X-91084D01*
Y-21966D01*
D02*
G37*
G36*
X-109884Y3638D02*
X-109551D01*
X-109218Y3610D01*
X-108468Y3582D01*
X-107718Y3499D01*
X-106968Y3416D01*
X-106635Y3333D01*
X-106330Y3277D01*
X-106302D01*
X-106219Y3249D01*
X-106107Y3221D01*
X-105969Y3166D01*
X-105774Y3110D01*
X-105552Y3055D01*
X-105025Y2860D01*
X-104441Y2610D01*
X-103830Y2305D01*
X-103192Y1916D01*
X-102581Y1444D01*
X-102553Y1416D01*
X-102497Y1361D01*
X-102386Y1278D01*
X-102248Y1139D01*
X-102081Y972D01*
X-101886Y750D01*
X-101664Y528D01*
X-101442Y250D01*
X-101192Y-55D01*
X-100942Y-389D01*
X-100692Y-750D01*
X-100442Y-1138D01*
X-99970Y-1999D01*
X-99554Y-2943D01*
Y-2971D01*
X-99498Y-3054D01*
X-99471Y-3221D01*
X-99387Y-3416D01*
X-99304Y-3666D01*
X-99221Y-3971D01*
X-99137Y-4304D01*
X-99026Y-4693D01*
X-98943Y-5137D01*
X-98860Y-5609D01*
X-98776Y-6109D01*
X-98693Y-6637D01*
X-98610Y-7192D01*
X-98582Y-7775D01*
X-98526Y-9025D01*
Y-9053D01*
Y-9164D01*
Y-9303D01*
Y-9525D01*
X-98554Y-9775D01*
Y-10080D01*
X-98582Y-10414D01*
X-98610Y-10775D01*
X-98693Y-11580D01*
X-98832Y-12441D01*
X-98998Y-13329D01*
X-99221Y-14218D01*
Y-14246D01*
X-99248Y-14329D01*
X-99304Y-14440D01*
X-99332Y-14579D01*
X-99415Y-14773D01*
X-99498Y-14996D01*
X-99693Y-15523D01*
X-99943Y-16106D01*
X-100248Y-16745D01*
X-100581Y-17356D01*
X-100970Y-17939D01*
Y-17967D01*
X-101026Y-17995D01*
X-101081Y-18078D01*
X-101164Y-18189D01*
X-101359Y-18439D01*
X-101664Y-18772D01*
X-101997Y-19161D01*
X-102386Y-19550D01*
X-102831Y-19911D01*
X-103303Y-20272D01*
X-103331D01*
X-103358Y-20300D01*
X-103525Y-20411D01*
X-103803Y-20550D01*
X-104164Y-20744D01*
X-104608Y-20938D01*
X-105136Y-21161D01*
X-105746Y-21355D01*
X-106385Y-21549D01*
X-106413D01*
X-106468Y-21577D01*
X-106552D01*
X-106691Y-21605D01*
X-106857Y-21633D01*
X-107079Y-21688D01*
X-107302Y-21716D01*
X-107552Y-21744D01*
X-108162Y-21827D01*
X-108857Y-21910D01*
X-109634Y-21938D01*
X-110467Y-21966D01*
X-119715D01*
Y3666D01*
X-110162D01*
X-109884Y3638D01*
D02*
G37*
G36*
X-64730Y-3388D02*
X-61537D01*
Y-5832D01*
X-64730D01*
Y-16717D01*
Y-16745D01*
Y-16773D01*
Y-16939D01*
Y-17162D01*
X-64702Y-17439D01*
Y-17717D01*
X-64647Y-17995D01*
X-64619Y-18245D01*
X-64564Y-18439D01*
Y-18467D01*
X-64536Y-18495D01*
X-64425Y-18661D01*
X-64258Y-18856D01*
X-64036Y-19050D01*
X-64008D01*
X-63953Y-19078D01*
X-63869Y-19106D01*
X-63758Y-19161D01*
X-63592Y-19189D01*
X-63425Y-19244D01*
X-63203Y-19272D01*
X-62731D01*
X-62564Y-19244D01*
X-62370D01*
X-62120Y-19217D01*
X-61842Y-19189D01*
X-61537Y-19161D01*
X-61120Y-21938D01*
X-61176D01*
X-61342Y-21994D01*
X-61592Y-22021D01*
X-61925Y-22077D01*
X-62286Y-22132D01*
X-62675Y-22160D01*
X-63508Y-22216D01*
X-63786D01*
X-64091Y-22188D01*
X-64480Y-22160D01*
X-64925Y-22077D01*
X-65369Y-21994D01*
X-65785Y-21855D01*
X-66174Y-21688D01*
X-66202Y-21660D01*
X-66313Y-21577D01*
X-66480Y-21466D01*
X-66702Y-21299D01*
X-66924Y-21105D01*
X-67146Y-20855D01*
X-67341Y-20577D01*
X-67507Y-20272D01*
X-67535Y-20216D01*
X-67563Y-20077D01*
X-67590Y-19966D01*
X-67618Y-19828D01*
X-67646Y-19661D01*
X-67674Y-19467D01*
X-67729Y-19244D01*
X-67757Y-18967D01*
X-67785Y-18661D01*
X-67813Y-18328D01*
X-67840Y-17939D01*
Y-17523D01*
X-67868Y-17051D01*
Y-16551D01*
Y-5832D01*
X-70201D01*
Y-3388D01*
X-67868D01*
Y1194D01*
X-64730Y3083D01*
Y-3388D01*
D02*
G37*
G36*
X57041Y3721D02*
X57236Y3694D01*
X57736Y3638D01*
X58291Y3555D01*
X58902Y3388D01*
X59513Y3194D01*
X60124Y2916D01*
X60151D01*
X60207Y2888D01*
X60290Y2833D01*
X60401Y2749D01*
X60679Y2583D01*
X61040Y2305D01*
X61457Y1972D01*
X61873Y1555D01*
X62318Y1055D01*
X62706Y500D01*
Y472D01*
X62762Y417D01*
X62790Y333D01*
X62873Y222D01*
X62956Y84D01*
X63067Y-111D01*
X63151Y-333D01*
X63289Y-555D01*
X63539Y-1111D01*
X63789Y-1749D01*
X64067Y-2499D01*
X64289Y-3305D01*
Y-3332D01*
X64317Y-3416D01*
X64345Y-3527D01*
X64372Y-3721D01*
X64428Y-3943D01*
X64484Y-4221D01*
X64539Y-4526D01*
X64595Y-4887D01*
X64622Y-5304D01*
X64678Y-5748D01*
X64734Y-6248D01*
X64789Y-6776D01*
X64817Y-7359D01*
X64845Y-7970D01*
X64872Y-8636D01*
Y-9330D01*
Y-9386D01*
Y-9525D01*
Y-9775D01*
Y-10080D01*
X64845Y-10469D01*
X64817Y-10886D01*
X64789Y-11385D01*
X64761Y-11913D01*
X64706Y-12496D01*
X64650Y-13080D01*
X64484Y-14301D01*
X64234Y-15495D01*
X64095Y-16079D01*
X63928Y-16606D01*
Y-16634D01*
X63873Y-16717D01*
X63845Y-16884D01*
X63762Y-17051D01*
X63651Y-17300D01*
X63539Y-17550D01*
X63401Y-17856D01*
X63234Y-18189D01*
X62845Y-18883D01*
X62373Y-19578D01*
X61818Y-20272D01*
X61484Y-20577D01*
X61151Y-20883D01*
X61124Y-20911D01*
X61068Y-20938D01*
X60957Y-21022D01*
X60818Y-21105D01*
X60651Y-21216D01*
X60429Y-21355D01*
X60179Y-21494D01*
X59874Y-21633D01*
X59568Y-21771D01*
X59207Y-21910D01*
X58846Y-22021D01*
X58430Y-22160D01*
X57985Y-22244D01*
X57513Y-22327D01*
X57041Y-22355D01*
X56514Y-22382D01*
X56347D01*
X56153Y-22355D01*
X55903Y-22327D01*
X55597Y-22299D01*
X55236Y-22244D01*
X54847Y-22160D01*
X54403Y-22049D01*
X53959Y-21910D01*
X53487Y-21744D01*
X52987Y-21522D01*
X52515Y-21272D01*
X52043Y-20966D01*
X51571Y-20605D01*
X51126Y-20216D01*
X50710Y-19744D01*
X50682Y-19716D01*
X50599Y-19605D01*
X50488Y-19411D01*
X50321Y-19133D01*
X50126Y-18772D01*
X49904Y-18356D01*
X49682Y-17828D01*
X49460Y-17245D01*
X49210Y-16551D01*
X48988Y-15801D01*
X48766Y-14940D01*
X48571Y-13996D01*
X48405Y-12968D01*
X48294Y-11858D01*
X48210Y-10636D01*
X48183Y-9330D01*
Y-9275D01*
Y-9136D01*
Y-8886D01*
X48210Y-8581D01*
Y-8192D01*
X48238Y-7748D01*
X48266Y-7248D01*
X48294Y-6720D01*
X48349Y-6137D01*
X48405Y-5554D01*
X48571Y-4332D01*
X48794Y-3138D01*
X48932Y-2555D01*
X49099Y-2027D01*
Y-1999D01*
X49155Y-1916D01*
X49210Y-1749D01*
X49266Y-1555D01*
X49377Y-1333D01*
X49488Y-1055D01*
X49627Y-777D01*
X49793Y-444D01*
X50182Y250D01*
X50682Y944D01*
X51237Y1639D01*
X51543Y1944D01*
X51876Y2249D01*
X51904Y2277D01*
X51959Y2305D01*
X52070Y2388D01*
X52209Y2472D01*
X52376Y2610D01*
X52598Y2722D01*
X52848Y2860D01*
X53154Y2999D01*
X53459Y3138D01*
X53820Y3277D01*
X54209Y3416D01*
X54598Y3527D01*
X55042Y3610D01*
X55514Y3694D01*
X56014Y3721D01*
X56514Y3749D01*
X56847D01*
X57041Y3721D01*
D02*
G37*
G36*
X7250Y-2999D02*
X7500D01*
X7833Y-3054D01*
X8194Y-3110D01*
X8610Y-3193D01*
X9055Y-3277D01*
X9527Y-3416D01*
X9999Y-3582D01*
X10526Y-3804D01*
X11026Y-4054D01*
X11526Y-4332D01*
X12026Y-4693D01*
X12526Y-5082D01*
X12970Y-5526D01*
X12998Y-5554D01*
X13081Y-5637D01*
X13192Y-5776D01*
X13331Y-5998D01*
X13526Y-6248D01*
X13720Y-6554D01*
X13942Y-6942D01*
X14164Y-7359D01*
X14359Y-7831D01*
X14581Y-8359D01*
X14775Y-8942D01*
X14970Y-9580D01*
X15109Y-10275D01*
X15220Y-11024D01*
X15303Y-11802D01*
X15331Y-12635D01*
Y-12691D01*
Y-12830D01*
Y-13107D01*
X15303Y-13468D01*
X1446D01*
Y-13496D01*
Y-13607D01*
X1474Y-13774D01*
X1501Y-13968D01*
X1529Y-14246D01*
X1585Y-14524D01*
X1640Y-14857D01*
X1723Y-15218D01*
X1946Y-15968D01*
X2251Y-16773D01*
X2445Y-17134D01*
X2640Y-17523D01*
X2890Y-17856D01*
X3167Y-18189D01*
X3195Y-18217D01*
X3251Y-18245D01*
X3334Y-18328D01*
X3445Y-18439D01*
X3612Y-18550D01*
X3778Y-18689D01*
X4001Y-18856D01*
X4250Y-18994D01*
X4806Y-19300D01*
X5472Y-19550D01*
X5833Y-19661D01*
X6222Y-19716D01*
X6639Y-19772D01*
X7055Y-19800D01*
X7222D01*
X7333Y-19772D01*
X7666Y-19744D01*
X8083Y-19689D01*
X8527Y-19578D01*
X9027Y-19411D01*
X9527Y-19217D01*
X9999Y-18911D01*
X10027D01*
X10054Y-18856D01*
X10193Y-18745D01*
X10415Y-18522D01*
X10693Y-18189D01*
X10999Y-17800D01*
X11332Y-17273D01*
X11665Y-16662D01*
X11943Y-15968D01*
X15220Y-16384D01*
Y-16412D01*
X15192Y-16523D01*
X15136Y-16662D01*
X15053Y-16856D01*
X14970Y-17106D01*
X14859Y-17384D01*
X14720Y-17689D01*
X14581Y-18023D01*
X14192Y-18717D01*
X13692Y-19467D01*
X13387Y-19828D01*
X13081Y-20189D01*
X12748Y-20522D01*
X12359Y-20827D01*
X12332Y-20855D01*
X12276Y-20883D01*
X12137Y-20966D01*
X11998Y-21077D01*
X11776Y-21188D01*
X11526Y-21327D01*
X11248Y-21466D01*
X10915Y-21605D01*
X10554Y-21744D01*
X10138Y-21883D01*
X9721Y-22021D01*
X9249Y-22132D01*
X8749Y-22244D01*
X8222Y-22327D01*
X7638Y-22355D01*
X7055Y-22382D01*
X6889D01*
X6667Y-22355D01*
X6389D01*
X6028Y-22299D01*
X5639Y-22244D01*
X5195Y-22160D01*
X4723Y-22077D01*
X4223Y-21938D01*
X3695Y-21771D01*
X3140Y-21577D01*
X2612Y-21327D01*
X2057Y-21049D01*
X1557Y-20716D01*
X1057Y-20327D01*
X585Y-19883D01*
X557Y-19855D01*
X474Y-19772D01*
X363Y-19633D01*
X224Y-19411D01*
X29Y-19161D01*
X-165Y-18856D01*
X-387Y-18495D01*
X-581Y-18078D01*
X-804Y-17606D01*
X-1026Y-17078D01*
X-1220Y-16495D01*
X-1415Y-15856D01*
X-1553Y-15190D01*
X-1664Y-14468D01*
X-1748Y-13690D01*
X-1776Y-12857D01*
Y-12802D01*
Y-12663D01*
X-1748Y-12413D01*
Y-12080D01*
X-1692Y-11691D01*
X-1637Y-11247D01*
X-1581Y-10719D01*
X-1470Y-10191D01*
X-1359Y-9608D01*
X-1192Y-9025D01*
X-998Y-8414D01*
X-776Y-7803D01*
X-498Y-7220D01*
X-165Y-6637D01*
X196Y-6081D01*
X613Y-5582D01*
X640Y-5554D01*
X724Y-5471D01*
X863Y-5332D01*
X1057Y-5165D01*
X1279Y-4971D01*
X1585Y-4749D01*
X1918Y-4526D01*
X2307Y-4276D01*
X2723Y-4027D01*
X3195Y-3804D01*
X3723Y-3582D01*
X4278Y-3388D01*
X4889Y-3221D01*
X5500Y-3082D01*
X6194Y-2999D01*
X6889Y-2971D01*
X7055D01*
X7250Y-2999D01*
D02*
G37*
G36*
X-68049Y-31174D02*
X-71187D01*
Y-27592D01*
X-68049D01*
Y-31174D01*
D02*
G37*
G36*
X-48332Y-53224D02*
X-51248D01*
Y-50891D01*
X-51276Y-50919D01*
X-51331Y-51002D01*
X-51442Y-51141D01*
X-51581Y-51308D01*
X-51775Y-51530D01*
X-51998Y-51752D01*
X-52248Y-52002D01*
X-52553Y-52252D01*
X-52914Y-52530D01*
X-53303Y-52780D01*
X-53719Y-53002D01*
X-54191Y-53196D01*
X-54719Y-53390D01*
X-55247Y-53529D01*
X-55830Y-53613D01*
X-56469Y-53640D01*
X-56691D01*
X-56857Y-53613D01*
X-57052D01*
X-57274Y-53585D01*
X-57524Y-53529D01*
X-57802Y-53474D01*
X-58440Y-53335D01*
X-59135Y-53113D01*
X-59829Y-52807D01*
X-60190Y-52641D01*
X-60551Y-52419D01*
X-60579Y-52391D01*
X-60634Y-52363D01*
X-60717Y-52280D01*
X-60856Y-52196D01*
X-61023Y-52057D01*
X-61190Y-51919D01*
X-61606Y-51530D01*
X-62078Y-51058D01*
X-62550Y-50475D01*
X-63022Y-49780D01*
X-63439Y-49003D01*
Y-48975D01*
X-63494Y-48892D01*
X-63522Y-48781D01*
X-63605Y-48614D01*
X-63661Y-48420D01*
X-63744Y-48170D01*
X-63855Y-47864D01*
X-63939Y-47559D01*
X-64022Y-47198D01*
X-64133Y-46809D01*
X-64216Y-46392D01*
X-64272Y-45948D01*
X-64383Y-45004D01*
X-64439Y-43976D01*
Y-43949D01*
Y-43837D01*
Y-43699D01*
X-64411Y-43504D01*
Y-43254D01*
X-64383Y-42977D01*
X-64355Y-42643D01*
X-64328Y-42282D01*
X-64216Y-41505D01*
X-64050Y-40672D01*
X-63828Y-39783D01*
X-63522Y-38922D01*
Y-38895D01*
X-63467Y-38811D01*
X-63411Y-38700D01*
X-63356Y-38533D01*
X-63244Y-38367D01*
X-63133Y-38145D01*
X-62828Y-37645D01*
X-62439Y-37062D01*
X-61967Y-36506D01*
X-61412Y-35951D01*
X-60745Y-35451D01*
X-60717Y-35423D01*
X-60662Y-35396D01*
X-60551Y-35340D01*
X-60412Y-35257D01*
X-60245Y-35173D01*
X-60023Y-35062D01*
X-59801Y-34951D01*
X-59523Y-34840D01*
X-58912Y-34618D01*
X-58218Y-34424D01*
X-57441Y-34285D01*
X-57024Y-34229D01*
X-56330D01*
X-55997Y-34257D01*
X-55608Y-34312D01*
X-55136Y-34396D01*
X-54636Y-34535D01*
X-54108Y-34701D01*
X-53608Y-34951D01*
X-53580D01*
X-53553Y-34979D01*
X-53386Y-35090D01*
X-53164Y-35229D01*
X-52859Y-35451D01*
X-52525Y-35729D01*
X-52164Y-36034D01*
X-51803Y-36395D01*
X-51470Y-36812D01*
Y-27592D01*
X-48332D01*
Y-53224D01*
D02*
G37*
G36*
X105847Y-34257D02*
X106097Y-34285D01*
X106347Y-34312D01*
X106652Y-34368D01*
X106986Y-34424D01*
X107652Y-34618D01*
X108374Y-34896D01*
X108707Y-35062D01*
X109041Y-35257D01*
X109374Y-35506D01*
X109652Y-35784D01*
X109679Y-35812D01*
X109707Y-35868D01*
X109790Y-35951D01*
X109874Y-36062D01*
X110012Y-36229D01*
X110124Y-36423D01*
X110263Y-36673D01*
X110401Y-36951D01*
X110540Y-37256D01*
X110679Y-37589D01*
X110818Y-37978D01*
X110929Y-38395D01*
X111012Y-38867D01*
X111096Y-39367D01*
X111123Y-39894D01*
X111151Y-40477D01*
Y-53224D01*
X108013D01*
Y-41533D01*
Y-41505D01*
Y-41449D01*
Y-41338D01*
Y-41227D01*
X107985Y-40894D01*
Y-40477D01*
X107930Y-40033D01*
X107874Y-39589D01*
X107819Y-39172D01*
X107708Y-38811D01*
Y-38783D01*
X107652Y-38672D01*
X107569Y-38533D01*
X107458Y-38339D01*
X107291Y-38117D01*
X107124Y-37895D01*
X106875Y-37673D01*
X106597Y-37478D01*
X106569Y-37451D01*
X106458Y-37395D01*
X106291Y-37312D01*
X106069Y-37200D01*
X105791Y-37117D01*
X105458Y-37034D01*
X105097Y-36978D01*
X104709Y-36951D01*
X104514D01*
X104375Y-36978D01*
X104209D01*
X104014Y-37006D01*
X103570Y-37117D01*
X103042Y-37256D01*
X102487Y-37506D01*
X101959Y-37811D01*
X101681Y-38034D01*
X101432Y-38256D01*
Y-38284D01*
X101376Y-38311D01*
X101321Y-38395D01*
X101237Y-38506D01*
X101126Y-38645D01*
X101015Y-38811D01*
X100904Y-39033D01*
X100793Y-39255D01*
X100654Y-39533D01*
X100543Y-39839D01*
X100432Y-40200D01*
X100321Y-40561D01*
X100238Y-40977D01*
X100182Y-41449D01*
X100154Y-41921D01*
X100126Y-42449D01*
Y-53224D01*
X96988D01*
Y-41172D01*
Y-41144D01*
Y-41088D01*
Y-40977D01*
Y-40811D01*
X96961Y-40644D01*
Y-40450D01*
X96905Y-39977D01*
X96794Y-39478D01*
X96655Y-38950D01*
X96461Y-38450D01*
X96211Y-38006D01*
X96183Y-37950D01*
X96072Y-37839D01*
X95878Y-37673D01*
X95628Y-37478D01*
X95267Y-37284D01*
X94850Y-37117D01*
X94323Y-37006D01*
X93712Y-36951D01*
X93489D01*
X93239Y-36978D01*
X92906Y-37034D01*
X92517Y-37117D01*
X92101Y-37256D01*
X91684Y-37423D01*
X91240Y-37673D01*
X91185Y-37700D01*
X91046Y-37811D01*
X90851Y-37950D01*
X90629Y-38200D01*
X90351Y-38478D01*
X90074Y-38839D01*
X89824Y-39255D01*
X89602Y-39728D01*
Y-39755D01*
X89574Y-39783D01*
X89546Y-39866D01*
X89518Y-39977D01*
X89490Y-40116D01*
X89435Y-40283D01*
X89407Y-40477D01*
X89352Y-40699D01*
X89296Y-40977D01*
X89268Y-41255D01*
X89213Y-41560D01*
X89185Y-41921D01*
X89157Y-42282D01*
X89130Y-42699D01*
X89102Y-43115D01*
Y-43588D01*
Y-53224D01*
X85964D01*
Y-34646D01*
X88769D01*
Y-37228D01*
X88824Y-37200D01*
X88935Y-37034D01*
X89130Y-36784D01*
X89407Y-36478D01*
X89740Y-36118D01*
X90129Y-35756D01*
X90574Y-35396D01*
X91101Y-35062D01*
X91129D01*
X91157Y-35034D01*
X91240Y-34979D01*
X91351Y-34923D01*
X91490Y-34868D01*
X91657Y-34784D01*
X92045Y-34646D01*
X92545Y-34479D01*
X93101Y-34368D01*
X93739Y-34257D01*
X94406Y-34229D01*
X94739D01*
X94933Y-34257D01*
X95128Y-34285D01*
X95600Y-34340D01*
X96127Y-34451D01*
X96683Y-34590D01*
X97238Y-34812D01*
X97766Y-35090D01*
X97794D01*
X97821Y-35118D01*
X97988Y-35257D01*
X98210Y-35451D01*
X98516Y-35701D01*
X98821Y-36062D01*
X99127Y-36451D01*
X99404Y-36923D01*
X99654Y-37478D01*
X99682Y-37451D01*
X99765Y-37339D01*
X99876Y-37173D01*
X100071Y-36978D01*
X100265Y-36728D01*
X100543Y-36451D01*
X100848Y-36145D01*
X101209Y-35840D01*
X101598Y-35562D01*
X102043Y-35257D01*
X102515Y-34979D01*
X103015Y-34729D01*
X103570Y-34535D01*
X104153Y-34368D01*
X104764Y-34257D01*
X105403Y-34229D01*
X105680D01*
X105847Y-34257D01*
D02*
G37*
G36*
X76022D02*
X76272Y-34285D01*
X76522Y-34312D01*
X76827Y-34368D01*
X77161Y-34424D01*
X77827Y-34618D01*
X78549Y-34896D01*
X78882Y-35062D01*
X79216Y-35257D01*
X79549Y-35506D01*
X79826Y-35784D01*
X79854Y-35812D01*
X79882Y-35868D01*
X79965Y-35951D01*
X80049Y-36062D01*
X80188Y-36229D01*
X80299Y-36423D01*
X80437Y-36673D01*
X80576Y-36951D01*
X80715Y-37256D01*
X80854Y-37589D01*
X80993Y-37978D01*
X81104Y-38395D01*
X81187Y-38867D01*
X81271Y-39367D01*
X81298Y-39894D01*
X81326Y-40477D01*
Y-53224D01*
X78188D01*
Y-41533D01*
Y-41505D01*
Y-41449D01*
Y-41338D01*
Y-41227D01*
X78160Y-40894D01*
Y-40477D01*
X78105Y-40033D01*
X78049Y-39589D01*
X77994Y-39172D01*
X77883Y-38811D01*
Y-38783D01*
X77827Y-38672D01*
X77744Y-38533D01*
X77633Y-38339D01*
X77466Y-38117D01*
X77299Y-37895D01*
X77049Y-37673D01*
X76772Y-37478D01*
X76744Y-37451D01*
X76633Y-37395D01*
X76466Y-37312D01*
X76244Y-37200D01*
X75967Y-37117D01*
X75633Y-37034D01*
X75272Y-36978D01*
X74884Y-36951D01*
X74689D01*
X74550Y-36978D01*
X74384D01*
X74189Y-37006D01*
X73745Y-37117D01*
X73217Y-37256D01*
X72662Y-37506D01*
X72134Y-37811D01*
X71857Y-38034D01*
X71607Y-38256D01*
Y-38284D01*
X71551Y-38311D01*
X71496Y-38395D01*
X71412Y-38506D01*
X71301Y-38645D01*
X71190Y-38811D01*
X71079Y-39033D01*
X70968Y-39255D01*
X70829Y-39533D01*
X70718Y-39839D01*
X70607Y-40200D01*
X70496Y-40561D01*
X70412Y-40977D01*
X70357Y-41449D01*
X70329Y-41921D01*
X70301Y-42449D01*
Y-53224D01*
X67163D01*
Y-41172D01*
Y-41144D01*
Y-41088D01*
Y-40977D01*
Y-40811D01*
X67136Y-40644D01*
Y-40450D01*
X67080Y-39977D01*
X66969Y-39478D01*
X66830Y-38950D01*
X66636Y-38450D01*
X66386Y-38006D01*
X66358Y-37950D01*
X66247Y-37839D01*
X66053Y-37673D01*
X65803Y-37478D01*
X65442Y-37284D01*
X65025Y-37117D01*
X64498Y-37006D01*
X63887Y-36951D01*
X63664D01*
X63415Y-36978D01*
X63081Y-37034D01*
X62692Y-37117D01*
X62276Y-37256D01*
X61859Y-37423D01*
X61415Y-37673D01*
X61360Y-37700D01*
X61221Y-37811D01*
X61026Y-37950D01*
X60804Y-38200D01*
X60526Y-38478D01*
X60249Y-38839D01*
X59999Y-39255D01*
X59777Y-39728D01*
Y-39755D01*
X59749Y-39783D01*
X59721Y-39866D01*
X59693Y-39977D01*
X59666Y-40116D01*
X59610Y-40283D01*
X59582Y-40477D01*
X59527Y-40699D01*
X59471Y-40977D01*
X59443Y-41255D01*
X59388Y-41560D01*
X59360Y-41921D01*
X59332Y-42282D01*
X59304Y-42699D01*
X59277Y-43115D01*
Y-43588D01*
Y-53224D01*
X56139D01*
Y-34646D01*
X58943D01*
Y-37228D01*
X58999Y-37200D01*
X59110Y-37034D01*
X59304Y-36784D01*
X59582Y-36478D01*
X59916Y-36118D01*
X60304Y-35756D01*
X60749Y-35396D01*
X61276Y-35062D01*
X61304D01*
X61332Y-35034D01*
X61415Y-34979D01*
X61526Y-34923D01*
X61665Y-34868D01*
X61832Y-34784D01*
X62220Y-34646D01*
X62720Y-34479D01*
X63276Y-34368D01*
X63914Y-34257D01*
X64581Y-34229D01*
X64914D01*
X65109Y-34257D01*
X65303Y-34285D01*
X65775Y-34340D01*
X66303Y-34451D01*
X66858Y-34590D01*
X67413Y-34812D01*
X67941Y-35090D01*
X67969D01*
X67997Y-35118D01*
X68163Y-35257D01*
X68385Y-35451D01*
X68691Y-35701D01*
X68996Y-36062D01*
X69302Y-36451D01*
X69579Y-36923D01*
X69829Y-37478D01*
X69857Y-37451D01*
X69940Y-37339D01*
X70051Y-37173D01*
X70246Y-36978D01*
X70440Y-36728D01*
X70718Y-36451D01*
X71023Y-36145D01*
X71385Y-35840D01*
X71773Y-35562D01*
X72218Y-35257D01*
X72690Y-34979D01*
X73190Y-34729D01*
X73745Y-34535D01*
X74328Y-34368D01*
X74939Y-34257D01*
X75578Y-34229D01*
X75855D01*
X76022Y-34257D01*
D02*
G37*
G36*
X-80989Y-53224D02*
X-84294D01*
X-89654Y-33702D01*
Y-33674D01*
X-89682Y-33590D01*
X-89709Y-33479D01*
X-89765Y-33313D01*
X-89820Y-33118D01*
X-89876Y-32896D01*
X-90015Y-32396D01*
X-90154Y-31896D01*
X-90293Y-31397D01*
X-90348Y-31174D01*
X-90403Y-30980D01*
X-90459Y-30813D01*
X-90487Y-30702D01*
Y-30730D01*
X-90515Y-30786D01*
Y-30869D01*
X-90570Y-31008D01*
X-90598Y-31147D01*
X-90626Y-31341D01*
X-90737Y-31730D01*
X-90848Y-32202D01*
X-90987Y-32730D01*
X-91126Y-33229D01*
X-91264Y-33702D01*
X-96652Y-53224D01*
X-100179D01*
X-106927Y-27592D01*
X-103428D01*
X-99568Y-44421D01*
Y-44449D01*
X-99540Y-44532D01*
X-99512Y-44671D01*
X-99457Y-44865D01*
X-99401Y-45115D01*
X-99345Y-45393D01*
X-99262Y-45698D01*
X-99179Y-46059D01*
X-99096Y-46448D01*
X-99012Y-46865D01*
X-98846Y-47725D01*
X-98651Y-48669D01*
X-98485Y-49641D01*
Y-49586D01*
X-98429Y-49475D01*
X-98401Y-49253D01*
X-98318Y-49003D01*
X-98263Y-48669D01*
X-98179Y-48309D01*
X-98068Y-47920D01*
X-97985Y-47531D01*
X-97763Y-46698D01*
X-97679Y-46309D01*
X-97568Y-45920D01*
X-97485Y-45587D01*
X-97429Y-45309D01*
X-97374Y-45087D01*
X-97318Y-44921D01*
X-92431Y-27592D01*
X-88349D01*
X-84711Y-40589D01*
X-84683Y-40644D01*
X-84655Y-40811D01*
X-84572Y-41061D01*
X-84488Y-41422D01*
X-84377Y-41838D01*
X-84239Y-42338D01*
X-84100Y-42893D01*
X-83933Y-43532D01*
X-83767Y-44199D01*
X-83600Y-44921D01*
X-83433Y-45670D01*
X-83267Y-46448D01*
X-82961Y-48031D01*
X-82683Y-49641D01*
Y-49614D01*
X-82656Y-49530D01*
X-82628Y-49392D01*
X-82600Y-49225D01*
X-82545Y-48975D01*
X-82489Y-48697D01*
X-82406Y-48392D01*
X-82323Y-48031D01*
X-82239Y-47642D01*
X-82156Y-47225D01*
X-82045Y-46753D01*
X-81934Y-46281D01*
X-81684Y-45226D01*
X-81406Y-44087D01*
X-77379Y-27592D01*
X-73964D01*
X-80989Y-53224D01*
D02*
G37*
G36*
X31257Y-30924D02*
X21010D01*
X19649Y-37811D01*
X19677Y-37784D01*
X19760Y-37728D01*
X19871Y-37673D01*
X20038Y-37562D01*
X20260Y-37451D01*
X20510Y-37312D01*
X20787Y-37145D01*
X21121Y-37006D01*
X21454Y-36867D01*
X21843Y-36701D01*
X22648Y-36451D01*
X23092Y-36340D01*
X23537Y-36256D01*
X24009Y-36229D01*
X24481Y-36201D01*
X24620D01*
X24814Y-36229D01*
X25036D01*
X25314Y-36284D01*
X25647Y-36312D01*
X26036Y-36395D01*
X26425Y-36478D01*
X26869Y-36617D01*
X27314Y-36756D01*
X27786Y-36951D01*
X28258Y-37173D01*
X28730Y-37451D01*
X29202Y-37756D01*
X29674Y-38117D01*
X30118Y-38533D01*
X30146Y-38561D01*
X30229Y-38645D01*
X30340Y-38783D01*
X30479Y-38950D01*
X30674Y-39172D01*
X30868Y-39478D01*
X31062Y-39783D01*
X31285Y-40144D01*
X31507Y-40561D01*
X31701Y-41033D01*
X31923Y-41505D01*
X32090Y-42060D01*
X32229Y-42616D01*
X32340Y-43227D01*
X32423Y-43865D01*
X32451Y-44532D01*
Y-44560D01*
Y-44698D01*
Y-44865D01*
X32423Y-45115D01*
X32395Y-45420D01*
X32340Y-45754D01*
X32284Y-46143D01*
X32201Y-46587D01*
X32090Y-47031D01*
X31951Y-47531D01*
X31784Y-48031D01*
X31590Y-48531D01*
X31368Y-49031D01*
X31090Y-49558D01*
X30785Y-50058D01*
X30424Y-50530D01*
X30396Y-50558D01*
X30313Y-50669D01*
X30174Y-50808D01*
X29979Y-51002D01*
X29730Y-51252D01*
X29424Y-51502D01*
X29063Y-51807D01*
X28646Y-52085D01*
X28202Y-52363D01*
X27702Y-52668D01*
X27147Y-52918D01*
X26536Y-53140D01*
X25897Y-53363D01*
X25203Y-53501D01*
X24481Y-53613D01*
X23703Y-53640D01*
X23370D01*
X23120Y-53613D01*
X22815Y-53585D01*
X22481Y-53529D01*
X22093Y-53474D01*
X21676Y-53390D01*
X21232Y-53307D01*
X20760Y-53168D01*
X20288Y-53002D01*
X19816Y-52807D01*
X19343Y-52585D01*
X18871Y-52335D01*
X18427Y-52030D01*
X17983Y-51696D01*
X17955Y-51669D01*
X17899Y-51613D01*
X17788Y-51502D01*
X17650Y-51336D01*
X17455Y-51141D01*
X17261Y-50919D01*
X17066Y-50641D01*
X16844Y-50308D01*
X16622Y-49975D01*
X16400Y-49586D01*
X16206Y-49142D01*
X16011Y-48697D01*
X15817Y-48197D01*
X15678Y-47670D01*
X15567Y-47087D01*
X15484Y-46503D01*
X18788Y-46253D01*
Y-46281D01*
X18816Y-46365D01*
X18844Y-46476D01*
X18871Y-46642D01*
X18899Y-46837D01*
X18982Y-47087D01*
X19121Y-47614D01*
X19343Y-48197D01*
X19649Y-48808D01*
X20010Y-49364D01*
X20232Y-49614D01*
X20454Y-49864D01*
X20482D01*
X20510Y-49919D01*
X20593Y-49975D01*
X20704Y-50058D01*
X20982Y-50252D01*
X21371Y-50447D01*
X21843Y-50669D01*
X22398Y-50863D01*
X23009Y-51002D01*
X23342Y-51030D01*
X23703Y-51058D01*
X23925D01*
X24092Y-51030D01*
X24286Y-51002D01*
X24509Y-50974D01*
X25036Y-50836D01*
X25647Y-50641D01*
X25953Y-50502D01*
X26286Y-50336D01*
X26619Y-50141D01*
X26925Y-49919D01*
X27230Y-49669D01*
X27536Y-49364D01*
X27563Y-49336D01*
X27591Y-49281D01*
X27674Y-49197D01*
X27786Y-49058D01*
X27897Y-48864D01*
X28036Y-48669D01*
X28174Y-48420D01*
X28341Y-48142D01*
X28480Y-47836D01*
X28619Y-47503D01*
X28758Y-47114D01*
X28869Y-46726D01*
X28980Y-46281D01*
X29063Y-45809D01*
X29091Y-45337D01*
X29118Y-44809D01*
Y-44782D01*
Y-44698D01*
Y-44560D01*
X29091Y-44365D01*
X29063Y-44143D01*
X29035Y-43865D01*
X28980Y-43588D01*
X28924Y-43254D01*
X28758Y-42588D01*
X28480Y-41866D01*
X28313Y-41533D01*
X28091Y-41199D01*
X27869Y-40866D01*
X27591Y-40561D01*
X27563Y-40533D01*
X27536Y-40505D01*
X27425Y-40422D01*
X27314Y-40311D01*
X27175Y-40200D01*
X26980Y-40061D01*
X26786Y-39922D01*
X26536Y-39755D01*
X26258Y-39617D01*
X25980Y-39478D01*
X25286Y-39228D01*
X24925Y-39117D01*
X24509Y-39033D01*
X24092Y-39006D01*
X23648Y-38978D01*
X23398D01*
X23092Y-39006D01*
X22731Y-39061D01*
X22287Y-39144D01*
X21815Y-39283D01*
X21343Y-39450D01*
X20871Y-39700D01*
X20815Y-39728D01*
X20676Y-39811D01*
X20454Y-39977D01*
X20177Y-40172D01*
X19899Y-40450D01*
X19566Y-40755D01*
X19260Y-41116D01*
X18982Y-41505D01*
X16039Y-41088D01*
X18510Y-27925D01*
X31257D01*
Y-30924D01*
D02*
G37*
G36*
X4653Y-27537D02*
X4959Y-27564D01*
X5320Y-27620D01*
X5736Y-27675D01*
X6153Y-27759D01*
X6625Y-27870D01*
X7097Y-28009D01*
X7597Y-28175D01*
X8069Y-28370D01*
X8569Y-28620D01*
X9041Y-28897D01*
X9485Y-29203D01*
X9902Y-29564D01*
X9929Y-29592D01*
X9985Y-29647D01*
X10096Y-29786D01*
X10235Y-29925D01*
X10402Y-30119D01*
X10596Y-30369D01*
X10790Y-30647D01*
X10985Y-30980D01*
X11179Y-31313D01*
X11373Y-31702D01*
X11568Y-32119D01*
X11734Y-32563D01*
X11873Y-33063D01*
X11984Y-33563D01*
X12040Y-34090D01*
X12068Y-34646D01*
Y-34674D01*
Y-34701D01*
Y-34784D01*
Y-34896D01*
X12040Y-35201D01*
X11984Y-35590D01*
X11901Y-36062D01*
X11790Y-36562D01*
X11651Y-37117D01*
X11429Y-37673D01*
Y-37700D01*
X11401Y-37728D01*
X11373Y-37811D01*
X11318Y-37922D01*
X11151Y-38228D01*
X10929Y-38617D01*
X10624Y-39089D01*
X10263Y-39617D01*
X9846Y-40172D01*
X9319Y-40783D01*
X9291Y-40811D01*
X9263Y-40866D01*
X9152Y-40949D01*
X9041Y-41088D01*
X8874Y-41255D01*
X8680Y-41449D01*
X8458Y-41699D01*
X8180Y-41949D01*
X7847Y-42255D01*
X7486Y-42588D01*
X7097Y-42977D01*
X6653Y-43365D01*
X6180Y-43810D01*
X5653Y-44254D01*
X5070Y-44754D01*
X4459Y-45282D01*
X4431Y-45309D01*
X4348Y-45393D01*
X4181Y-45504D01*
X4014Y-45670D01*
X3765Y-45865D01*
X3515Y-46087D01*
X2931Y-46587D01*
X2321Y-47114D01*
X1737Y-47670D01*
X1460Y-47920D01*
X1210Y-48142D01*
X988Y-48364D01*
X821Y-48531D01*
X793Y-48558D01*
X682Y-48669D01*
X543Y-48836D01*
X349Y-49058D01*
X127Y-49308D01*
X-95Y-49586D01*
X-540Y-50197D01*
X12095D01*
Y-53224D01*
X-4872D01*
Y-53168D01*
Y-53029D01*
Y-52807D01*
X-4844Y-52530D01*
X-4816Y-52196D01*
X-4733Y-51835D01*
X-4650Y-51446D01*
X-4511Y-51058D01*
Y-51030D01*
X-4483Y-50974D01*
X-4455Y-50891D01*
X-4400Y-50752D01*
X-4317Y-50613D01*
X-4233Y-50419D01*
X-4011Y-49975D01*
X-3733Y-49447D01*
X-3372Y-48864D01*
X-2956Y-48253D01*
X-2456Y-47642D01*
X-2428Y-47614D01*
X-2400Y-47559D01*
X-2317Y-47475D01*
X-2178Y-47337D01*
X-2039Y-47198D01*
X-1845Y-47003D01*
X-1651Y-46781D01*
X-1401Y-46531D01*
X-1123Y-46253D01*
X-817Y-45976D01*
X-484Y-45643D01*
X-95Y-45309D01*
X293Y-44948D01*
X738Y-44587D01*
X1182Y-44199D01*
X1682Y-43782D01*
X1737Y-43754D01*
X1876Y-43615D01*
X2071Y-43449D01*
X2348Y-43199D01*
X2682Y-42921D01*
X3070Y-42588D01*
X3515Y-42227D01*
X3959Y-41810D01*
X4903Y-40949D01*
X5819Y-40033D01*
X6264Y-39589D01*
X6680Y-39144D01*
X7041Y-38728D01*
X7347Y-38339D01*
X7375Y-38311D01*
X7402Y-38256D01*
X7486Y-38145D01*
X7569Y-38006D01*
X7708Y-37811D01*
X7819Y-37617D01*
X8097Y-37117D01*
X8374Y-36534D01*
X8624Y-35895D01*
X8791Y-35229D01*
X8819Y-34896D01*
X8846Y-34562D01*
Y-34535D01*
Y-34479D01*
Y-34368D01*
X8819Y-34257D01*
Y-34090D01*
X8763Y-33896D01*
X8680Y-33479D01*
X8513Y-32980D01*
X8263Y-32452D01*
X8124Y-32174D01*
X7930Y-31924D01*
X7736Y-31674D01*
X7486Y-31424D01*
X7458Y-31397D01*
X7430Y-31369D01*
X7347Y-31313D01*
X7236Y-31230D01*
X7097Y-31119D01*
X6930Y-31008D01*
X6542Y-30758D01*
X6014Y-30536D01*
X5431Y-30314D01*
X4736Y-30175D01*
X4348Y-30119D01*
X3737D01*
X3570Y-30147D01*
X3376D01*
X3154Y-30202D01*
X2654Y-30286D01*
X2071Y-30452D01*
X1460Y-30702D01*
X1154Y-30869D01*
X849Y-31036D01*
X571Y-31258D01*
X293Y-31508D01*
X265Y-31535D01*
X238Y-31563D01*
X182Y-31646D01*
X71Y-31758D01*
X-12Y-31896D01*
X-123Y-32063D01*
X-262Y-32258D01*
X-373Y-32480D01*
X-512Y-32730D01*
X-623Y-33007D01*
X-845Y-33674D01*
X-1012Y-34396D01*
X-1040Y-34812D01*
X-1068Y-35257D01*
X-4289Y-34923D01*
Y-34868D01*
X-4261Y-34757D01*
X-4233Y-34590D01*
X-4205Y-34340D01*
X-4150Y-34035D01*
X-4067Y-33674D01*
X-3983Y-33285D01*
X-3844Y-32868D01*
X-3706Y-32452D01*
X-3539Y-31980D01*
X-3317Y-31535D01*
X-3095Y-31091D01*
X-2817Y-30619D01*
X-2512Y-30202D01*
X-2178Y-29786D01*
X-1790Y-29425D01*
X-1762Y-29397D01*
X-1678Y-29342D01*
X-1567Y-29258D01*
X-1401Y-29120D01*
X-1178Y-28981D01*
X-901Y-28814D01*
X-595Y-28647D01*
X-234Y-28453D01*
X154Y-28286D01*
X599Y-28120D01*
X1071Y-27953D01*
X1599Y-27814D01*
X2154Y-27675D01*
X2737Y-27592D01*
X3376Y-27537D01*
X4042Y-27509D01*
X4403D01*
X4653Y-27537D01*
D02*
G37*
G36*
X-30281Y-36812D02*
X-30254Y-36784D01*
X-30170Y-36701D01*
X-30059Y-36562D01*
X-29893Y-36395D01*
X-29671Y-36201D01*
X-29421Y-36006D01*
X-29115Y-35756D01*
X-28754Y-35506D01*
X-28393Y-35284D01*
X-27977Y-35034D01*
X-27505Y-34840D01*
X-27032Y-34618D01*
X-26505Y-34479D01*
X-25949Y-34340D01*
X-25366Y-34257D01*
X-24755Y-34229D01*
X-24422D01*
X-24228Y-34257D01*
X-24033Y-34285D01*
X-23533Y-34340D01*
X-22978Y-34424D01*
X-22395Y-34590D01*
X-21784Y-34784D01*
X-21201Y-35062D01*
X-21173D01*
X-21145Y-35090D01*
X-21062Y-35146D01*
X-20951Y-35201D01*
X-20673Y-35396D01*
X-20340Y-35645D01*
X-20007Y-35951D01*
X-19618Y-36340D01*
X-19285Y-36812D01*
X-19007Y-37312D01*
Y-37339D01*
X-18979Y-37367D01*
X-18951Y-37451D01*
X-18896Y-37562D01*
X-18840Y-37728D01*
X-18785Y-37895D01*
X-18729Y-38117D01*
X-18674Y-38367D01*
X-18618Y-38645D01*
X-18563Y-38950D01*
X-18507Y-39283D01*
X-18451Y-39672D01*
X-18396Y-40061D01*
X-18368Y-40505D01*
X-18340Y-40977D01*
Y-41477D01*
Y-53224D01*
X-21478D01*
Y-41477D01*
Y-41449D01*
Y-41366D01*
Y-41255D01*
X-21506Y-41088D01*
Y-40894D01*
X-21534Y-40672D01*
X-21617Y-40172D01*
X-21728Y-39589D01*
X-21923Y-39033D01*
X-22173Y-38478D01*
X-22311Y-38256D01*
X-22506Y-38034D01*
X-22561Y-37978D01*
X-22700Y-37867D01*
X-22922Y-37700D01*
X-23256Y-37478D01*
X-23672Y-37284D01*
X-24144Y-37117D01*
X-24727Y-37006D01*
X-25394Y-36951D01*
X-25616D01*
X-25894Y-36978D01*
X-26255Y-37034D01*
X-26644Y-37145D01*
X-27088Y-37256D01*
X-27560Y-37451D01*
X-28032Y-37700D01*
X-28088Y-37728D01*
X-28227Y-37839D01*
X-28449Y-38006D01*
X-28699Y-38228D01*
X-29004Y-38506D01*
X-29282Y-38839D01*
X-29559Y-39228D01*
X-29782Y-39672D01*
X-29809Y-39728D01*
X-29837Y-39811D01*
X-29865Y-39894D01*
X-29948Y-40172D01*
X-30032Y-40561D01*
X-30115Y-41033D01*
X-30198Y-41616D01*
X-30254Y-42310D01*
X-30281Y-43088D01*
Y-53224D01*
X-33419D01*
Y-27592D01*
X-30281D01*
Y-36812D01*
D02*
G37*
G36*
X-68049Y-53224D02*
X-71187D01*
Y-34646D01*
X-68049D01*
Y-53224D01*
D02*
G37*
G36*
X-39696Y-34646D02*
X-36502D01*
Y-37089D01*
X-39696D01*
Y-47975D01*
Y-48003D01*
Y-48031D01*
Y-48197D01*
Y-48420D01*
X-39668Y-48697D01*
Y-48975D01*
X-39612Y-49253D01*
X-39584Y-49503D01*
X-39529Y-49697D01*
Y-49725D01*
X-39501Y-49753D01*
X-39390Y-49919D01*
X-39223Y-50114D01*
X-39001Y-50308D01*
X-38974D01*
X-38918Y-50336D01*
X-38835Y-50363D01*
X-38724Y-50419D01*
X-38557Y-50447D01*
X-38390Y-50502D01*
X-38168Y-50530D01*
X-37696D01*
X-37530Y-50502D01*
X-37335D01*
X-37085Y-50475D01*
X-36808Y-50447D01*
X-36502Y-50419D01*
X-36085Y-53196D01*
X-36141D01*
X-36308Y-53252D01*
X-36557Y-53279D01*
X-36891Y-53335D01*
X-37252Y-53390D01*
X-37641Y-53418D01*
X-38474Y-53474D01*
X-38751D01*
X-39057Y-53446D01*
X-39446Y-53418D01*
X-39890Y-53335D01*
X-40334Y-53252D01*
X-40751Y-53113D01*
X-41140Y-52946D01*
X-41167Y-52918D01*
X-41278Y-52835D01*
X-41445Y-52724D01*
X-41667Y-52557D01*
X-41889Y-52363D01*
X-42112Y-52113D01*
X-42306Y-51835D01*
X-42472Y-51530D01*
X-42500Y-51474D01*
X-42528Y-51336D01*
X-42556Y-51224D01*
X-42584Y-51086D01*
X-42611Y-50919D01*
X-42639Y-50725D01*
X-42695Y-50502D01*
X-42722Y-50225D01*
X-42750Y-49919D01*
X-42778Y-49586D01*
X-42806Y-49197D01*
Y-48781D01*
X-42834Y-48309D01*
Y-47809D01*
Y-37089D01*
X-45166D01*
Y-34646D01*
X-42834D01*
Y-30064D01*
X-39696Y-28175D01*
Y-34646D01*
D02*
G37*
G36*
X44253Y-27537D02*
X44448Y-27564D01*
X44947Y-27620D01*
X45503Y-27703D01*
X46114Y-27870D01*
X46725Y-28064D01*
X47336Y-28342D01*
X47363D01*
X47419Y-28370D01*
X47502Y-28425D01*
X47613Y-28508D01*
X47891Y-28675D01*
X48252Y-28953D01*
X48669Y-29286D01*
X49085Y-29703D01*
X49529Y-30202D01*
X49918Y-30758D01*
Y-30786D01*
X49974Y-30841D01*
X50002Y-30924D01*
X50085Y-31036D01*
X50168Y-31174D01*
X50279Y-31369D01*
X50363Y-31591D01*
X50501Y-31813D01*
X50751Y-32368D01*
X51001Y-33007D01*
X51279Y-33757D01*
X51501Y-34562D01*
Y-34590D01*
X51529Y-34674D01*
X51557Y-34784D01*
X51585Y-34979D01*
X51640Y-35201D01*
X51696Y-35479D01*
X51751Y-35784D01*
X51807Y-36145D01*
X51834Y-36562D01*
X51890Y-37006D01*
X51946Y-37506D01*
X52001Y-38034D01*
X52029Y-38617D01*
X52057Y-39228D01*
X52084Y-39894D01*
Y-40589D01*
Y-40644D01*
Y-40783D01*
Y-41033D01*
Y-41338D01*
X52057Y-41727D01*
X52029Y-42144D01*
X52001Y-42643D01*
X51973Y-43171D01*
X51918Y-43754D01*
X51862Y-44337D01*
X51696Y-45559D01*
X51446Y-46753D01*
X51307Y-47337D01*
X51140Y-47864D01*
Y-47892D01*
X51085Y-47975D01*
X51057Y-48142D01*
X50973Y-48309D01*
X50862Y-48558D01*
X50751Y-48808D01*
X50612Y-49114D01*
X50446Y-49447D01*
X50057Y-50141D01*
X49585Y-50836D01*
X49030Y-51530D01*
X48696Y-51835D01*
X48363Y-52141D01*
X48335Y-52169D01*
X48280Y-52196D01*
X48169Y-52280D01*
X48030Y-52363D01*
X47863Y-52474D01*
X47641Y-52613D01*
X47391Y-52752D01*
X47086Y-52891D01*
X46780Y-53029D01*
X46419Y-53168D01*
X46058Y-53279D01*
X45642Y-53418D01*
X45197Y-53501D01*
X44725Y-53585D01*
X44253Y-53613D01*
X43725Y-53640D01*
X43559D01*
X43365Y-53613D01*
X43115Y-53585D01*
X42809Y-53557D01*
X42448Y-53501D01*
X42059Y-53418D01*
X41615Y-53307D01*
X41171Y-53168D01*
X40699Y-53002D01*
X40199Y-52780D01*
X39727Y-52530D01*
X39255Y-52224D01*
X38783Y-51863D01*
X38338Y-51474D01*
X37922Y-51002D01*
X37894Y-50974D01*
X37811Y-50863D01*
X37699Y-50669D01*
X37533Y-50391D01*
X37339Y-50030D01*
X37116Y-49614D01*
X36894Y-49086D01*
X36672Y-48503D01*
X36422Y-47809D01*
X36200Y-47059D01*
X35978Y-46198D01*
X35783Y-45254D01*
X35617Y-44226D01*
X35506Y-43115D01*
X35422Y-41894D01*
X35394Y-40589D01*
Y-40533D01*
Y-40394D01*
Y-40144D01*
X35422Y-39839D01*
Y-39450D01*
X35450Y-39006D01*
X35478Y-38506D01*
X35506Y-37978D01*
X35561Y-37395D01*
X35617Y-36812D01*
X35783Y-35590D01*
X36005Y-34396D01*
X36144Y-33813D01*
X36311Y-33285D01*
Y-33257D01*
X36367Y-33174D01*
X36422Y-33007D01*
X36478Y-32813D01*
X36589Y-32591D01*
X36700Y-32313D01*
X36839Y-32035D01*
X37005Y-31702D01*
X37394Y-31008D01*
X37894Y-30314D01*
X38449Y-29619D01*
X38755Y-29314D01*
X39088Y-29008D01*
X39116Y-28981D01*
X39171Y-28953D01*
X39282Y-28870D01*
X39421Y-28786D01*
X39588Y-28647D01*
X39810Y-28536D01*
X40060Y-28397D01*
X40365Y-28259D01*
X40671Y-28120D01*
X41032Y-27981D01*
X41421Y-27842D01*
X41809Y-27731D01*
X42254Y-27648D01*
X42726Y-27564D01*
X43226Y-27537D01*
X43725Y-27509D01*
X44059D01*
X44253Y-27537D01*
D02*
G37*
G36*
X-63286Y-62432D02*
X-66424D01*
Y-58850D01*
X-63286D01*
Y-62432D01*
D02*
G37*
G36*
X110610Y-65515D02*
X110860Y-65543D01*
X111109Y-65570D01*
X111415Y-65626D01*
X111748Y-65681D01*
X112415Y-65876D01*
X113137Y-66154D01*
X113470Y-66320D01*
X113803Y-66514D01*
X114136Y-66764D01*
X114414Y-67042D01*
X114442Y-67070D01*
X114470Y-67125D01*
X114553Y-67209D01*
X114636Y-67320D01*
X114775Y-67487D01*
X114886Y-67681D01*
X115025Y-67931D01*
X115164Y-68208D01*
X115303Y-68514D01*
X115442Y-68847D01*
X115580Y-69236D01*
X115691Y-69652D01*
X115775Y-70125D01*
X115858Y-70625D01*
X115886Y-71152D01*
X115914Y-71735D01*
Y-84482D01*
X112776D01*
Y-72790D01*
Y-72763D01*
Y-72707D01*
Y-72596D01*
Y-72485D01*
X112748Y-72152D01*
Y-71735D01*
X112692Y-71291D01*
X112637Y-70847D01*
X112581Y-70430D01*
X112470Y-70069D01*
Y-70041D01*
X112415Y-69930D01*
X112331Y-69791D01*
X112220Y-69597D01*
X112054Y-69375D01*
X111887Y-69153D01*
X111637Y-68931D01*
X111359Y-68736D01*
X111332Y-68708D01*
X111221Y-68653D01*
X111054Y-68569D01*
X110832Y-68458D01*
X110554Y-68375D01*
X110221Y-68292D01*
X109860Y-68236D01*
X109471Y-68208D01*
X109277D01*
X109138Y-68236D01*
X108971D01*
X108777Y-68264D01*
X108332Y-68375D01*
X107805Y-68514D01*
X107249Y-68764D01*
X106722Y-69069D01*
X106444Y-69292D01*
X106194Y-69514D01*
Y-69542D01*
X106139Y-69569D01*
X106083Y-69652D01*
X106000Y-69764D01*
X105889Y-69902D01*
X105778Y-70069D01*
X105666Y-70291D01*
X105555Y-70513D01*
X105417Y-70791D01*
X105306Y-71097D01*
X105194Y-71458D01*
X105083Y-71819D01*
X105000Y-72235D01*
X104945Y-72707D01*
X104917Y-73179D01*
X104889Y-73707D01*
Y-84482D01*
X101751D01*
Y-72430D01*
Y-72402D01*
Y-72346D01*
Y-72235D01*
Y-72069D01*
X101723Y-71902D01*
Y-71707D01*
X101668Y-71235D01*
X101557Y-70736D01*
X101418Y-70208D01*
X101223Y-69708D01*
X100973Y-69264D01*
X100946Y-69208D01*
X100835Y-69097D01*
X100640Y-68931D01*
X100390Y-68736D01*
X100029Y-68542D01*
X99613Y-68375D01*
X99085Y-68264D01*
X98474Y-68208D01*
X98252D01*
X98002Y-68236D01*
X97669Y-68292D01*
X97280Y-68375D01*
X96863Y-68514D01*
X96447Y-68681D01*
X96003Y-68931D01*
X95947Y-68958D01*
X95808Y-69069D01*
X95614Y-69208D01*
X95392Y-69458D01*
X95114Y-69736D01*
X94836Y-70097D01*
X94586Y-70513D01*
X94364Y-70986D01*
Y-71013D01*
X94336Y-71041D01*
X94309Y-71124D01*
X94281Y-71235D01*
X94253Y-71374D01*
X94197Y-71541D01*
X94170Y-71735D01*
X94114Y-71957D01*
X94059Y-72235D01*
X94031Y-72513D01*
X93975Y-72818D01*
X93948Y-73179D01*
X93920Y-73540D01*
X93892Y-73957D01*
X93864Y-74373D01*
Y-74845D01*
Y-84482D01*
X90726D01*
Y-65904D01*
X93531D01*
Y-68486D01*
X93587Y-68458D01*
X93698Y-68292D01*
X93892Y-68042D01*
X94170Y-67736D01*
X94503Y-67375D01*
X94892Y-67014D01*
X95336Y-66653D01*
X95864Y-66320D01*
X95891D01*
X95919Y-66292D01*
X96003Y-66237D01*
X96114Y-66181D01*
X96253Y-66126D01*
X96419Y-66042D01*
X96808Y-65904D01*
X97308Y-65737D01*
X97863Y-65626D01*
X98502Y-65515D01*
X99168Y-65487D01*
X99502D01*
X99696Y-65515D01*
X99890Y-65543D01*
X100363Y-65598D01*
X100890Y-65709D01*
X101445Y-65848D01*
X102001Y-66070D01*
X102529Y-66348D01*
X102556D01*
X102584Y-66376D01*
X102751Y-66514D01*
X102973Y-66709D01*
X103278Y-66959D01*
X103584Y-67320D01*
X103889Y-67709D01*
X104167Y-68181D01*
X104417Y-68736D01*
X104445Y-68708D01*
X104528Y-68597D01*
X104639Y-68431D01*
X104833Y-68236D01*
X105028Y-67986D01*
X105306Y-67709D01*
X105611Y-67403D01*
X105972Y-67098D01*
X106361Y-66820D01*
X106805Y-66514D01*
X107277Y-66237D01*
X107777Y-65987D01*
X108332Y-65793D01*
X108916Y-65626D01*
X109527Y-65515D01*
X110165Y-65487D01*
X110443D01*
X110610Y-65515D01*
D02*
G37*
G36*
X80785D02*
X81034Y-65543D01*
X81284Y-65570D01*
X81590Y-65626D01*
X81923Y-65681D01*
X82590Y-65876D01*
X83312Y-66154D01*
X83645Y-66320D01*
X83978Y-66514D01*
X84311Y-66764D01*
X84589Y-67042D01*
X84617Y-67070D01*
X84645Y-67125D01*
X84728Y-67209D01*
X84811Y-67320D01*
X84950Y-67487D01*
X85061Y-67681D01*
X85200Y-67931D01*
X85339Y-68208D01*
X85478Y-68514D01*
X85617Y-68847D01*
X85755Y-69236D01*
X85866Y-69652D01*
X85950Y-70125D01*
X86033Y-70625D01*
X86061Y-71152D01*
X86089Y-71735D01*
Y-84482D01*
X82951D01*
Y-72790D01*
Y-72763D01*
Y-72707D01*
Y-72596D01*
Y-72485D01*
X82923Y-72152D01*
Y-71735D01*
X82867Y-71291D01*
X82812Y-70847D01*
X82756Y-70430D01*
X82645Y-70069D01*
Y-70041D01*
X82590Y-69930D01*
X82506Y-69791D01*
X82395Y-69597D01*
X82229Y-69375D01*
X82062Y-69153D01*
X81812Y-68931D01*
X81534Y-68736D01*
X81507Y-68708D01*
X81396Y-68653D01*
X81229Y-68569D01*
X81007Y-68458D01*
X80729Y-68375D01*
X80396Y-68292D01*
X80035Y-68236D01*
X79646Y-68208D01*
X79452D01*
X79313Y-68236D01*
X79146D01*
X78952Y-68264D01*
X78508Y-68375D01*
X77980Y-68514D01*
X77424Y-68764D01*
X76897Y-69069D01*
X76619Y-69292D01*
X76369Y-69514D01*
Y-69542D01*
X76314Y-69569D01*
X76258Y-69652D01*
X76175Y-69764D01*
X76064Y-69902D01*
X75953Y-70069D01*
X75841Y-70291D01*
X75731Y-70513D01*
X75592Y-70791D01*
X75481Y-71097D01*
X75370Y-71458D01*
X75258Y-71819D01*
X75175Y-72235D01*
X75120Y-72707D01*
X75092Y-73179D01*
X75064Y-73707D01*
Y-84482D01*
X71926D01*
Y-72430D01*
Y-72402D01*
Y-72346D01*
Y-72235D01*
Y-72069D01*
X71898Y-71902D01*
Y-71707D01*
X71843Y-71235D01*
X71732Y-70736D01*
X71593Y-70208D01*
X71398Y-69708D01*
X71148Y-69264D01*
X71121Y-69208D01*
X71010Y-69097D01*
X70815Y-68931D01*
X70565Y-68736D01*
X70204Y-68542D01*
X69788Y-68375D01*
X69260Y-68264D01*
X68649Y-68208D01*
X68427D01*
X68177Y-68236D01*
X67844Y-68292D01*
X67455Y-68375D01*
X67039Y-68514D01*
X66622Y-68681D01*
X66178Y-68931D01*
X66122Y-68958D01*
X65983Y-69069D01*
X65789Y-69208D01*
X65567Y-69458D01*
X65289Y-69736D01*
X65011Y-70097D01*
X64761Y-70513D01*
X64539Y-70986D01*
Y-71013D01*
X64511Y-71041D01*
X64484Y-71124D01*
X64456Y-71235D01*
X64428Y-71374D01*
X64372Y-71541D01*
X64345Y-71735D01*
X64289Y-71957D01*
X64234Y-72235D01*
X64206Y-72513D01*
X64150Y-72818D01*
X64123Y-73179D01*
X64095Y-73540D01*
X64067Y-73957D01*
X64039Y-74373D01*
Y-74845D01*
Y-84482D01*
X60901D01*
Y-65904D01*
X63706D01*
Y-68486D01*
X63762Y-68458D01*
X63873Y-68292D01*
X64067Y-68042D01*
X64345Y-67736D01*
X64678Y-67375D01*
X65067Y-67014D01*
X65511Y-66653D01*
X66039Y-66320D01*
X66066D01*
X66094Y-66292D01*
X66178Y-66237D01*
X66289Y-66181D01*
X66427Y-66126D01*
X66594Y-66042D01*
X66983Y-65904D01*
X67483Y-65737D01*
X68038Y-65626D01*
X68677Y-65515D01*
X69343Y-65487D01*
X69677D01*
X69871Y-65515D01*
X70065Y-65543D01*
X70538Y-65598D01*
X71065Y-65709D01*
X71621Y-65848D01*
X72176Y-66070D01*
X72703Y-66348D01*
X72731D01*
X72759Y-66376D01*
X72926Y-66514D01*
X73148Y-66709D01*
X73453Y-66959D01*
X73759Y-67320D01*
X74064Y-67709D01*
X74342Y-68181D01*
X74592Y-68736D01*
X74620Y-68708D01*
X74703Y-68597D01*
X74814Y-68431D01*
X75008Y-68236D01*
X75203Y-67986D01*
X75481Y-67709D01*
X75786Y-67403D01*
X76147Y-67098D01*
X76536Y-66820D01*
X76980Y-66514D01*
X77452Y-66237D01*
X77952Y-65987D01*
X78508Y-65793D01*
X79091Y-65626D01*
X79702Y-65515D01*
X80340Y-65487D01*
X80618D01*
X80785Y-65515D01*
D02*
G37*
G36*
X-91611Y-84482D02*
X-94999D01*
Y-72402D01*
X-108301D01*
Y-84482D01*
X-111689D01*
Y-58850D01*
X-108301D01*
Y-69375D01*
X-94999D01*
Y-58850D01*
X-91611D01*
Y-84482D01*
D02*
G37*
G36*
X55931Y-62182D02*
X45683D01*
X44323Y-69069D01*
X44350Y-69042D01*
X44434Y-68986D01*
X44545Y-68931D01*
X44711Y-68819D01*
X44934Y-68708D01*
X45184Y-68569D01*
X45461Y-68403D01*
X45794Y-68264D01*
X46128Y-68125D01*
X46516Y-67959D01*
X47322Y-67709D01*
X47766Y-67598D01*
X48210Y-67514D01*
X48682Y-67487D01*
X49155Y-67459D01*
X49293D01*
X49488Y-67487D01*
X49710D01*
X49988Y-67542D01*
X50321Y-67570D01*
X50710Y-67653D01*
X51099Y-67736D01*
X51543Y-67875D01*
X51987Y-68014D01*
X52459Y-68208D01*
X52931Y-68431D01*
X53403Y-68708D01*
X53875Y-69014D01*
X54348Y-69375D01*
X54792Y-69791D01*
X54820Y-69819D01*
X54903Y-69902D01*
X55014Y-70041D01*
X55153Y-70208D01*
X55347Y-70430D01*
X55542Y-70736D01*
X55736Y-71041D01*
X55958Y-71402D01*
X56180Y-71819D01*
X56375Y-72291D01*
X56597Y-72763D01*
X56764Y-73318D01*
X56902Y-73874D01*
X57013Y-74484D01*
X57097Y-75123D01*
X57125Y-75790D01*
Y-75818D01*
Y-75956D01*
Y-76123D01*
X57097Y-76373D01*
X57069Y-76678D01*
X57013Y-77012D01*
X56958Y-77400D01*
X56875Y-77845D01*
X56764Y-78289D01*
X56625Y-78789D01*
X56458Y-79289D01*
X56264Y-79789D01*
X56042Y-80288D01*
X55764Y-80816D01*
X55458Y-81316D01*
X55097Y-81788D01*
X55070Y-81816D01*
X54986Y-81927D01*
X54847Y-82066D01*
X54653Y-82260D01*
X54403Y-82510D01*
X54098Y-82760D01*
X53737Y-83065D01*
X53320Y-83343D01*
X52876Y-83621D01*
X52376Y-83926D01*
X51820Y-84176D01*
X51210Y-84398D01*
X50571Y-84621D01*
X49877Y-84759D01*
X49155Y-84870D01*
X48377Y-84898D01*
X48044D01*
X47794Y-84870D01*
X47488Y-84843D01*
X47155Y-84787D01*
X46766Y-84732D01*
X46350Y-84648D01*
X45906Y-84565D01*
X45433Y-84426D01*
X44961Y-84260D01*
X44489Y-84065D01*
X44017Y-83843D01*
X43545Y-83593D01*
X43101Y-83288D01*
X42656Y-82954D01*
X42629Y-82927D01*
X42573Y-82871D01*
X42462Y-82760D01*
X42323Y-82593D01*
X42129Y-82399D01*
X41934Y-82177D01*
X41740Y-81899D01*
X41518Y-81566D01*
X41296Y-81233D01*
X41074Y-80844D01*
X40879Y-80400D01*
X40685Y-79955D01*
X40490Y-79455D01*
X40352Y-78928D01*
X40240Y-78345D01*
X40157Y-77761D01*
X43462Y-77512D01*
Y-77539D01*
X43490Y-77622D01*
X43517Y-77734D01*
X43545Y-77900D01*
X43573Y-78095D01*
X43656Y-78345D01*
X43795Y-78872D01*
X44017Y-79455D01*
X44323Y-80066D01*
X44684Y-80622D01*
X44906Y-80872D01*
X45128Y-81122D01*
X45156D01*
X45184Y-81177D01*
X45267Y-81233D01*
X45378Y-81316D01*
X45656Y-81510D01*
X46044Y-81705D01*
X46516Y-81927D01*
X47072Y-82121D01*
X47683Y-82260D01*
X48016Y-82288D01*
X48377Y-82316D01*
X48599D01*
X48766Y-82288D01*
X48960Y-82260D01*
X49182Y-82232D01*
X49710Y-82094D01*
X50321Y-81899D01*
X50626Y-81760D01*
X50960Y-81594D01*
X51293Y-81399D01*
X51598Y-81177D01*
X51904Y-80927D01*
X52209Y-80622D01*
X52237Y-80594D01*
X52265Y-80538D01*
X52348Y-80455D01*
X52459Y-80316D01*
X52570Y-80122D01*
X52709Y-79927D01*
X52848Y-79677D01*
X53015Y-79400D01*
X53154Y-79094D01*
X53292Y-78761D01*
X53431Y-78372D01*
X53542Y-77983D01*
X53653Y-77539D01*
X53737Y-77067D01*
X53764Y-76595D01*
X53792Y-76067D01*
Y-76040D01*
Y-75956D01*
Y-75818D01*
X53764Y-75623D01*
X53737Y-75401D01*
X53709Y-75123D01*
X53653Y-74845D01*
X53598Y-74512D01*
X53431Y-73846D01*
X53154Y-73124D01*
X52987Y-72790D01*
X52765Y-72457D01*
X52543Y-72124D01*
X52265Y-71819D01*
X52237Y-71791D01*
X52209Y-71763D01*
X52098Y-71680D01*
X51987Y-71569D01*
X51848Y-71458D01*
X51654Y-71319D01*
X51459Y-71180D01*
X51210Y-71013D01*
X50932Y-70874D01*
X50654Y-70736D01*
X49960Y-70486D01*
X49599Y-70375D01*
X49182Y-70291D01*
X48766Y-70263D01*
X48322Y-70236D01*
X48072D01*
X47766Y-70263D01*
X47405Y-70319D01*
X46961Y-70402D01*
X46489Y-70541D01*
X46017Y-70708D01*
X45544Y-70958D01*
X45489Y-70986D01*
X45350Y-71069D01*
X45128Y-71235D01*
X44850Y-71430D01*
X44572Y-71707D01*
X44239Y-72013D01*
X43934Y-72374D01*
X43656Y-72763D01*
X40712Y-72346D01*
X43184Y-59183D01*
X55931D01*
Y-62182D01*
D02*
G37*
G36*
X37019Y-61655D02*
X36991Y-61683D01*
X36908Y-61766D01*
X36769Y-61932D01*
X36603Y-62127D01*
X36380Y-62405D01*
X36103Y-62710D01*
X35825Y-63071D01*
X35492Y-63488D01*
X35131Y-63960D01*
X34742Y-64487D01*
X34325Y-65070D01*
X33909Y-65681D01*
X33492Y-66320D01*
X33048Y-67042D01*
X32576Y-67792D01*
X32132Y-68569D01*
X32104Y-68625D01*
X32021Y-68764D01*
X31909Y-68986D01*
X31743Y-69319D01*
X31548Y-69708D01*
X31299Y-70180D01*
X31049Y-70708D01*
X30771Y-71291D01*
X30493Y-71930D01*
X30188Y-72624D01*
X29882Y-73374D01*
X29577Y-74124D01*
X29271Y-74929D01*
X28966Y-75762D01*
X28438Y-77456D01*
Y-77484D01*
X28410Y-77595D01*
X28355Y-77789D01*
X28299Y-78011D01*
X28216Y-78317D01*
X28133Y-78678D01*
X28022Y-79094D01*
X27938Y-79539D01*
X27827Y-80038D01*
X27744Y-80594D01*
X27633Y-81177D01*
X27549Y-81788D01*
X27438Y-82427D01*
X27355Y-83093D01*
X27244Y-84482D01*
X24023D01*
Y-84454D01*
Y-84343D01*
Y-84176D01*
X24050Y-83954D01*
X24078Y-83649D01*
X24106Y-83315D01*
X24134Y-82899D01*
X24189Y-82455D01*
X24245Y-81927D01*
X24328Y-81399D01*
X24411Y-80788D01*
X24523Y-80150D01*
X24661Y-79455D01*
X24800Y-78733D01*
X24995Y-77983D01*
X25189Y-77206D01*
X25217Y-77150D01*
X25245Y-77012D01*
X25300Y-76789D01*
X25411Y-76484D01*
X25522Y-76095D01*
X25661Y-75623D01*
X25828Y-75123D01*
X26022Y-74568D01*
X26244Y-73957D01*
X26494Y-73290D01*
X26744Y-72596D01*
X27050Y-71902D01*
X27688Y-70430D01*
X28438Y-68931D01*
X28466Y-68875D01*
X28549Y-68764D01*
X28660Y-68542D01*
X28799Y-68264D01*
X29021Y-67931D01*
X29243Y-67542D01*
X29521Y-67098D01*
X29799Y-66598D01*
X30132Y-66098D01*
X30493Y-65543D01*
X31271Y-64432D01*
X32104Y-63293D01*
X32548Y-62738D01*
X32992Y-62210D01*
X20440D01*
Y-59183D01*
X37019D01*
Y-61655D01*
D02*
G37*
G36*
X12165Y-84482D02*
X9027D01*
Y-64460D01*
X8971Y-64515D01*
X8833Y-64654D01*
X8583Y-64848D01*
X8222Y-65126D01*
X7805Y-65459D01*
X7277Y-65820D01*
X6694Y-66209D01*
X6028Y-66626D01*
X6000D01*
X5945Y-66681D01*
X5861Y-66737D01*
X5722Y-66792D01*
X5556Y-66903D01*
X5361Y-66987D01*
X4917Y-67237D01*
X4417Y-67487D01*
X3862Y-67764D01*
X3278Y-68014D01*
X2723Y-68236D01*
Y-65209D01*
X2751Y-65182D01*
X2834Y-65154D01*
X2973Y-65070D01*
X3167Y-64987D01*
X3390Y-64876D01*
X3667Y-64710D01*
X3973Y-64543D01*
X4278Y-64376D01*
X5000Y-63932D01*
X5778Y-63404D01*
X6583Y-62849D01*
X7333Y-62210D01*
X7361Y-62182D01*
X7416Y-62127D01*
X7527Y-62044D01*
X7666Y-61905D01*
X7805Y-61738D01*
X7999Y-61572D01*
X8416Y-61099D01*
X8888Y-60599D01*
X9360Y-60016D01*
X9777Y-59405D01*
X10138Y-58767D01*
X12165D01*
Y-84482D01*
D02*
G37*
G36*
X-35461Y-68070D02*
X-35433Y-68042D01*
X-35350Y-67959D01*
X-35239Y-67820D01*
X-35072Y-67653D01*
X-34850Y-67459D01*
X-34600Y-67264D01*
X-34294Y-67014D01*
X-33933Y-66764D01*
X-33572Y-66542D01*
X-33156Y-66292D01*
X-32684Y-66098D01*
X-32212Y-65876D01*
X-31684Y-65737D01*
X-31128Y-65598D01*
X-30545Y-65515D01*
X-29934Y-65487D01*
X-29601D01*
X-29407Y-65515D01*
X-29212Y-65543D01*
X-28712Y-65598D01*
X-28157Y-65681D01*
X-27574Y-65848D01*
X-26963Y-66042D01*
X-26380Y-66320D01*
X-26352D01*
X-26324Y-66348D01*
X-26241Y-66403D01*
X-26130Y-66459D01*
X-25852Y-66653D01*
X-25519Y-66903D01*
X-25186Y-67209D01*
X-24797Y-67598D01*
X-24464Y-68070D01*
X-24186Y-68569D01*
Y-68597D01*
X-24158Y-68625D01*
X-24130Y-68708D01*
X-24075Y-68819D01*
X-24019Y-68986D01*
X-23964Y-69153D01*
X-23908Y-69375D01*
X-23853Y-69625D01*
X-23797Y-69902D01*
X-23742Y-70208D01*
X-23686Y-70541D01*
X-23631Y-70930D01*
X-23575Y-71319D01*
X-23547Y-71763D01*
X-23519Y-72235D01*
Y-72735D01*
Y-84482D01*
X-26658D01*
Y-72735D01*
Y-72707D01*
Y-72624D01*
Y-72513D01*
X-26685Y-72346D01*
Y-72152D01*
X-26713Y-71930D01*
X-26796Y-71430D01*
X-26908Y-70847D01*
X-27102Y-70291D01*
X-27352Y-69736D01*
X-27491Y-69514D01*
X-27685Y-69292D01*
X-27741Y-69236D01*
X-27879Y-69125D01*
X-28102Y-68958D01*
X-28435Y-68736D01*
X-28851Y-68542D01*
X-29323Y-68375D01*
X-29907Y-68264D01*
X-30573Y-68208D01*
X-30795D01*
X-31073Y-68236D01*
X-31434Y-68292D01*
X-31823Y-68403D01*
X-32267Y-68514D01*
X-32739Y-68708D01*
X-33211Y-68958D01*
X-33267Y-68986D01*
X-33406Y-69097D01*
X-33628Y-69264D01*
X-33878Y-69486D01*
X-34183Y-69764D01*
X-34461Y-70097D01*
X-34739Y-70486D01*
X-34961Y-70930D01*
X-34988Y-70986D01*
X-35016Y-71069D01*
X-35044Y-71152D01*
X-35127Y-71430D01*
X-35211Y-71819D01*
X-35294Y-72291D01*
X-35377Y-72874D01*
X-35433Y-73568D01*
X-35461Y-74346D01*
Y-84482D01*
X-38599D01*
Y-58850D01*
X-35461D01*
Y-68070D01*
D02*
G37*
G36*
X-63286Y-84482D02*
X-66424D01*
Y-65904D01*
X-63286D01*
Y-84482D01*
D02*
G37*
G36*
X-15022Y-65904D02*
X-11828D01*
Y-68347D01*
X-15022D01*
Y-79233D01*
Y-79261D01*
Y-79289D01*
Y-79455D01*
Y-79677D01*
X-14994Y-79955D01*
Y-80233D01*
X-14939Y-80511D01*
X-14911Y-80761D01*
X-14855Y-80955D01*
Y-80983D01*
X-14828Y-81011D01*
X-14716Y-81177D01*
X-14550Y-81371D01*
X-14328Y-81566D01*
X-14300D01*
X-14244Y-81594D01*
X-14161Y-81621D01*
X-14050Y-81677D01*
X-13883Y-81705D01*
X-13717Y-81760D01*
X-13495Y-81788D01*
X-13023D01*
X-12856Y-81760D01*
X-12661D01*
X-12411Y-81732D01*
X-12134Y-81705D01*
X-11828Y-81677D01*
X-11412Y-84454D01*
X-11467D01*
X-11634Y-84509D01*
X-11884Y-84537D01*
X-12217Y-84593D01*
X-12578Y-84648D01*
X-12967Y-84676D01*
X-13800Y-84732D01*
X-14078D01*
X-14383Y-84704D01*
X-14772Y-84676D01*
X-15216Y-84593D01*
X-15661Y-84509D01*
X-16077Y-84371D01*
X-16466Y-84204D01*
X-16494Y-84176D01*
X-16605Y-84093D01*
X-16771Y-83982D01*
X-16994Y-83815D01*
X-17216Y-83621D01*
X-17438Y-83371D01*
X-17632Y-83093D01*
X-17799Y-82788D01*
X-17827Y-82732D01*
X-17854Y-82593D01*
X-17882Y-82482D01*
X-17910Y-82343D01*
X-17938Y-82177D01*
X-17966Y-81982D01*
X-18021Y-81760D01*
X-18049Y-81483D01*
X-18077Y-81177D01*
X-18104Y-80844D01*
X-18132Y-80455D01*
Y-80038D01*
X-18160Y-79566D01*
Y-79067D01*
Y-68347D01*
X-20493D01*
Y-65904D01*
X-18160D01*
Y-61322D01*
X-15022Y-59433D01*
Y-65904D01*
D02*
G37*
G36*
X-78393Y-65515D02*
X-78143D01*
X-77810Y-65570D01*
X-77449Y-65626D01*
X-77032Y-65709D01*
X-76588Y-65793D01*
X-76116Y-65931D01*
X-75644Y-66098D01*
X-75116Y-66320D01*
X-74616Y-66570D01*
X-74116Y-66848D01*
X-73617Y-67209D01*
X-73117Y-67598D01*
X-72672Y-68042D01*
X-72645Y-68070D01*
X-72561Y-68153D01*
X-72450Y-68292D01*
X-72311Y-68514D01*
X-72117Y-68764D01*
X-71923Y-69069D01*
X-71701Y-69458D01*
X-71478Y-69875D01*
X-71284Y-70347D01*
X-71062Y-70874D01*
X-70867Y-71458D01*
X-70673Y-72096D01*
X-70534Y-72790D01*
X-70423Y-73540D01*
X-70340Y-74318D01*
X-70312Y-75151D01*
Y-75207D01*
Y-75345D01*
Y-75623D01*
X-70340Y-75984D01*
X-84197D01*
Y-76012D01*
Y-76123D01*
X-84169Y-76290D01*
X-84141Y-76484D01*
X-84114Y-76762D01*
X-84058Y-77039D01*
X-84003Y-77373D01*
X-83919Y-77734D01*
X-83697Y-78483D01*
X-83392Y-79289D01*
X-83197Y-79650D01*
X-83003Y-80038D01*
X-82753Y-80372D01*
X-82475Y-80705D01*
X-82447Y-80733D01*
X-82392Y-80761D01*
X-82309Y-80844D01*
X-82197Y-80955D01*
X-82031Y-81066D01*
X-81864Y-81205D01*
X-81642Y-81371D01*
X-81392Y-81510D01*
X-80837Y-81816D01*
X-80170Y-82066D01*
X-79809Y-82177D01*
X-79421Y-82232D01*
X-79004Y-82288D01*
X-78587Y-82316D01*
X-78421D01*
X-78310Y-82288D01*
X-77977Y-82260D01*
X-77560Y-82205D01*
X-77116Y-82094D01*
X-76616Y-81927D01*
X-76116Y-81732D01*
X-75644Y-81427D01*
X-75616D01*
X-75588Y-81371D01*
X-75449Y-81260D01*
X-75227Y-81038D01*
X-74950Y-80705D01*
X-74644Y-80316D01*
X-74311Y-79789D01*
X-73978Y-79178D01*
X-73700Y-78483D01*
X-70423Y-78900D01*
Y-78928D01*
X-70451Y-79039D01*
X-70506Y-79178D01*
X-70590Y-79372D01*
X-70673Y-79622D01*
X-70784Y-79900D01*
X-70923Y-80205D01*
X-71062Y-80538D01*
X-71451Y-81233D01*
X-71950Y-81982D01*
X-72256Y-82343D01*
X-72561Y-82704D01*
X-72895Y-83038D01*
X-73283Y-83343D01*
X-73311Y-83371D01*
X-73367Y-83399D01*
X-73506Y-83482D01*
X-73644Y-83593D01*
X-73866Y-83704D01*
X-74116Y-83843D01*
X-74394Y-83982D01*
X-74727Y-84121D01*
X-75088Y-84260D01*
X-75505Y-84398D01*
X-75921Y-84537D01*
X-76394Y-84648D01*
X-76893Y-84759D01*
X-77421Y-84843D01*
X-78004Y-84870D01*
X-78587Y-84898D01*
X-78754D01*
X-78976Y-84870D01*
X-79254D01*
X-79615Y-84815D01*
X-80004Y-84759D01*
X-80448Y-84676D01*
X-80920Y-84593D01*
X-81420Y-84454D01*
X-81948Y-84287D01*
X-82503Y-84093D01*
X-83031Y-83843D01*
X-83586Y-83565D01*
X-84086Y-83232D01*
X-84586Y-82843D01*
X-85058Y-82399D01*
X-85086Y-82371D01*
X-85169Y-82288D01*
X-85280Y-82149D01*
X-85419Y-81927D01*
X-85613Y-81677D01*
X-85808Y-81371D01*
X-86030Y-81011D01*
X-86224Y-80594D01*
X-86446Y-80122D01*
X-86668Y-79594D01*
X-86863Y-79011D01*
X-87057Y-78372D01*
X-87196Y-77706D01*
X-87307Y-76984D01*
X-87391Y-76206D01*
X-87418Y-75373D01*
Y-75318D01*
Y-75179D01*
X-87391Y-74929D01*
Y-74596D01*
X-87335Y-74207D01*
X-87279Y-73763D01*
X-87224Y-73235D01*
X-87113Y-72707D01*
X-87002Y-72124D01*
X-86835Y-71541D01*
X-86641Y-70930D01*
X-86419Y-70319D01*
X-86141Y-69736D01*
X-85808Y-69153D01*
X-85447Y-68597D01*
X-85030Y-68097D01*
X-85002Y-68070D01*
X-84919Y-67986D01*
X-84780Y-67848D01*
X-84586Y-67681D01*
X-84364Y-67487D01*
X-84058Y-67264D01*
X-83725Y-67042D01*
X-83336Y-66792D01*
X-82920Y-66542D01*
X-82447Y-66320D01*
X-81920Y-66098D01*
X-81364Y-65904D01*
X-80753Y-65737D01*
X-80142Y-65598D01*
X-79448Y-65515D01*
X-78754Y-65487D01*
X-78587D01*
X-78393Y-65515D01*
D02*
G37*
G36*
X-51373D02*
X-51151D01*
X-50873Y-65570D01*
X-50540Y-65626D01*
X-50179Y-65709D01*
X-49790Y-65820D01*
X-49373Y-65959D01*
X-48929Y-66154D01*
X-48485Y-66348D01*
X-48013Y-66626D01*
X-47568Y-66931D01*
X-47096Y-67292D01*
X-46680Y-67709D01*
X-46263Y-68181D01*
Y-65904D01*
X-43375D01*
Y-81955D01*
Y-82010D01*
Y-82149D01*
Y-82371D01*
Y-82649D01*
X-43403Y-83010D01*
X-43431Y-83426D01*
X-43458Y-83871D01*
X-43486Y-84343D01*
X-43597Y-85343D01*
X-43736Y-86370D01*
X-43847Y-86842D01*
X-43958Y-87314D01*
X-44097Y-87731D01*
X-44264Y-88092D01*
Y-88120D01*
X-44291Y-88175D01*
X-44347Y-88258D01*
X-44430Y-88397D01*
X-44653Y-88731D01*
X-44958Y-89119D01*
X-45347Y-89591D01*
X-45819Y-90064D01*
X-46402Y-90536D01*
X-47069Y-90952D01*
X-47096D01*
X-47152Y-91008D01*
X-47263Y-91035D01*
X-47402Y-91119D01*
X-47596Y-91202D01*
X-47818Y-91285D01*
X-48068Y-91369D01*
X-48374Y-91480D01*
X-48707Y-91591D01*
X-49068Y-91674D01*
X-49429Y-91758D01*
X-49845Y-91841D01*
X-50762Y-91952D01*
X-51762Y-92007D01*
X-52095D01*
X-52317Y-91980D01*
X-52595Y-91952D01*
X-52928Y-91924D01*
X-53289Y-91869D01*
X-53678Y-91813D01*
X-54539Y-91646D01*
X-55427Y-91369D01*
X-55899Y-91202D01*
X-56316Y-91008D01*
X-56760Y-90758D01*
X-57149Y-90508D01*
X-57177Y-90480D01*
X-57232Y-90425D01*
X-57343Y-90341D01*
X-57454Y-90230D01*
X-57621Y-90064D01*
X-57788Y-89869D01*
X-57954Y-89647D01*
X-58149Y-89369D01*
X-58343Y-89091D01*
X-58510Y-88758D01*
X-58676Y-88370D01*
X-58815Y-87981D01*
X-58954Y-87536D01*
X-59037Y-87064D01*
X-59093Y-86564D01*
Y-86009D01*
X-56038Y-86426D01*
Y-86453D01*
Y-86481D01*
X-55983Y-86648D01*
X-55927Y-86898D01*
X-55844Y-87203D01*
X-55705Y-87564D01*
X-55511Y-87897D01*
X-55288Y-88231D01*
X-54983Y-88508D01*
X-54927Y-88536D01*
X-54761Y-88647D01*
X-54511Y-88786D01*
X-54150Y-88953D01*
X-53678Y-89119D01*
X-53150Y-89258D01*
X-52511Y-89369D01*
X-51789Y-89397D01*
X-51567D01*
X-51428Y-89369D01*
X-51234D01*
X-51040Y-89341D01*
X-50540Y-89286D01*
X-50012Y-89175D01*
X-49457Y-89008D01*
X-48901Y-88814D01*
X-48429Y-88508D01*
X-48401D01*
X-48374Y-88481D01*
X-48235Y-88342D01*
X-48040Y-88147D01*
X-47763Y-87870D01*
X-47513Y-87536D01*
X-47235Y-87120D01*
X-46985Y-86620D01*
X-46791Y-86065D01*
Y-86009D01*
X-46763Y-85953D01*
Y-85870D01*
X-46735Y-85759D01*
X-46707Y-85593D01*
Y-85426D01*
X-46680Y-85204D01*
X-46652Y-84954D01*
X-46624Y-84676D01*
Y-84343D01*
X-46596Y-83982D01*
Y-83565D01*
X-46569Y-83121D01*
Y-82621D01*
Y-82066D01*
X-46596Y-82094D01*
X-46652Y-82177D01*
X-46791Y-82288D01*
X-46930Y-82455D01*
X-47152Y-82621D01*
X-47374Y-82815D01*
X-47679Y-83038D01*
X-47985Y-83260D01*
X-48346Y-83510D01*
X-48735Y-83704D01*
X-49151Y-83926D01*
X-49623Y-84093D01*
X-50095Y-84260D01*
X-50595Y-84371D01*
X-51151Y-84454D01*
X-51706Y-84482D01*
X-51873D01*
X-52067Y-84454D01*
X-52345Y-84426D01*
X-52650Y-84398D01*
X-53039Y-84343D01*
X-53428Y-84260D01*
X-53872Y-84149D01*
X-54344Y-83982D01*
X-54844Y-83815D01*
X-55344Y-83593D01*
X-55816Y-83315D01*
X-56316Y-83010D01*
X-56788Y-82649D01*
X-57232Y-82205D01*
X-57649Y-81732D01*
X-57677Y-81705D01*
X-57732Y-81594D01*
X-57843Y-81455D01*
X-57982Y-81233D01*
X-58121Y-80983D01*
X-58315Y-80650D01*
X-58482Y-80288D01*
X-58676Y-79872D01*
X-58871Y-79400D01*
X-59065Y-78900D01*
X-59259Y-78345D01*
X-59398Y-77761D01*
X-59537Y-77150D01*
X-59648Y-76484D01*
X-59704Y-75818D01*
X-59732Y-75095D01*
Y-75068D01*
Y-74984D01*
Y-74845D01*
X-59704Y-74651D01*
Y-74401D01*
X-59676Y-74151D01*
X-59648Y-73846D01*
X-59620Y-73485D01*
X-59509Y-72735D01*
X-59343Y-71930D01*
X-59093Y-71069D01*
X-58787Y-70208D01*
Y-70180D01*
X-58732Y-70097D01*
X-58676Y-69986D01*
X-58593Y-69847D01*
X-58510Y-69652D01*
X-58371Y-69430D01*
X-58065Y-68931D01*
X-57677Y-68375D01*
X-57205Y-67792D01*
X-56621Y-67237D01*
X-55983Y-66737D01*
X-55955Y-66709D01*
X-55899Y-66681D01*
X-55788Y-66626D01*
X-55649Y-66542D01*
X-55483Y-66459D01*
X-55261Y-66348D01*
X-55038Y-66237D01*
X-54761Y-66098D01*
X-54455Y-65987D01*
X-54122Y-65876D01*
X-53400Y-65681D01*
X-52595Y-65543D01*
X-52150Y-65487D01*
X-51567D01*
X-51373Y-65515D01*
D02*
G37*
%LPC*%
G36*
X-24103Y62655D02*
X-29712D01*
Y54907D01*
X-23631D01*
X-23408Y54935D01*
X-22936D01*
X-22409Y54962D01*
X-21853Y55018D01*
X-21353Y55101D01*
X-21131Y55129D01*
X-20937Y55185D01*
X-20909D01*
X-20881Y55212D01*
X-20715Y55268D01*
X-20493Y55351D01*
X-20215Y55490D01*
X-19909Y55657D01*
X-19576Y55879D01*
X-19271Y56157D01*
X-18993Y56462D01*
X-18965Y56518D01*
X-18882Y56629D01*
X-18771Y56823D01*
X-18660Y57073D01*
X-18549Y57406D01*
X-18438Y57795D01*
X-18354Y58212D01*
X-18327Y58711D01*
Y58739D01*
Y58767D01*
Y58934D01*
X-18354Y59156D01*
X-18410Y59461D01*
X-18493Y59822D01*
X-18604Y60211D01*
X-18743Y60600D01*
X-18965Y60961D01*
X-18993Y61016D01*
X-19076Y61128D01*
X-19215Y61294D01*
X-19410Y61488D01*
X-19659Y61711D01*
X-19965Y61933D01*
X-20298Y62127D01*
X-20715Y62294D01*
X-20770Y62322D01*
X-20826D01*
X-20937Y62349D01*
X-21048Y62377D01*
X-21215Y62405D01*
X-21409Y62433D01*
X-21603Y62488D01*
X-21853Y62516D01*
X-22159Y62544D01*
X-22464Y62572D01*
X-22825Y62599D01*
X-23214Y62627D01*
X-23631D01*
X-24103Y62655D01*
D02*
G37*
G36*
X-23797Y51880D02*
X-29712D01*
Y43077D01*
X-22770D01*
X-22409Y43105D01*
X-22048D01*
X-21659Y43132D01*
X-21298Y43160D01*
X-21020Y43188D01*
X-20965D01*
X-20826Y43216D01*
X-20604Y43271D01*
X-20326Y43355D01*
X-20020Y43438D01*
X-19715Y43577D01*
X-19382Y43716D01*
X-19076Y43882D01*
X-19049Y43910D01*
X-18937Y43966D01*
X-18799Y44077D01*
X-18604Y44243D01*
X-18410Y44438D01*
X-18188Y44688D01*
X-17966Y44965D01*
X-17771Y45299D01*
X-17743Y45354D01*
X-17688Y45465D01*
X-17605Y45660D01*
X-17493Y45937D01*
X-17410Y46243D01*
X-17327Y46604D01*
X-17271Y47020D01*
X-17244Y47465D01*
Y47492D01*
Y47520D01*
Y47603D01*
Y47715D01*
X-17271Y47965D01*
X-17327Y48325D01*
X-17438Y48714D01*
X-17549Y49131D01*
X-17743Y49547D01*
X-17993Y49964D01*
X-18021Y50020D01*
X-18132Y50131D01*
X-18299Y50325D01*
X-18521Y50547D01*
X-18826Y50797D01*
X-19187Y51019D01*
X-19576Y51241D01*
X-20048Y51436D01*
X-20076D01*
X-20104Y51464D01*
X-20187Y51491D01*
X-20298Y51519D01*
X-20437Y51547D01*
X-20576Y51575D01*
X-20770Y51630D01*
X-20992Y51658D01*
X-21270Y51714D01*
X-21548Y51741D01*
X-21853Y51769D01*
X-22186Y51824D01*
X-22936Y51852D01*
X-23797Y51880D01*
D02*
G37*
G36*
X-103219Y62655D02*
X-109134D01*
Y43077D01*
X-103247D01*
X-103025Y43105D01*
X-102775D01*
X-102220Y43132D01*
X-101581Y43188D01*
X-100915Y43271D01*
X-100276Y43382D01*
X-99693Y43521D01*
X-99665D01*
X-99637Y43549D01*
X-99554Y43577D01*
X-99443Y43605D01*
X-99193Y43716D01*
X-98860Y43855D01*
X-98498Y44049D01*
X-98110Y44271D01*
X-97721Y44549D01*
X-97388Y44854D01*
X-97360Y44882D01*
X-97332Y44910D01*
X-97193Y45076D01*
X-96971Y45354D01*
X-96693Y45715D01*
X-96416Y46187D01*
X-96110Y46743D01*
X-95805Y47381D01*
X-95527Y48103D01*
Y48131D01*
X-95499Y48187D01*
X-95472Y48298D01*
X-95416Y48464D01*
X-95360Y48659D01*
X-95305Y48909D01*
X-95249Y49186D01*
X-95166Y49492D01*
X-95111Y49825D01*
X-95055Y50214D01*
X-94999Y50603D01*
X-94944Y51047D01*
X-94861Y51991D01*
X-94833Y53046D01*
Y53102D01*
Y53213D01*
Y53435D01*
X-94861Y53713D01*
Y54046D01*
X-94888Y54435D01*
X-94944Y54852D01*
X-94999Y55324D01*
X-95166Y56323D01*
X-95388Y57351D01*
X-95722Y58323D01*
X-95944Y58795D01*
X-96166Y59211D01*
X-96194Y59239D01*
X-96221Y59295D01*
X-96305Y59406D01*
X-96416Y59572D01*
X-96527Y59739D01*
X-96693Y59933D01*
X-97054Y60378D01*
X-97527Y60878D01*
X-98082Y61350D01*
X-98693Y61794D01*
X-99026Y61961D01*
X-99387Y62127D01*
X-99415D01*
X-99443Y62155D01*
X-99526Y62183D01*
X-99637Y62211D01*
X-99804Y62238D01*
X-99970Y62294D01*
X-100192Y62349D01*
X-100442Y62405D01*
X-100720Y62433D01*
X-101053Y62488D01*
X-101414Y62544D01*
X-101803Y62572D01*
X-102248Y62599D01*
X-102720Y62627D01*
X-103219Y62655D01*
D02*
G37*
G36*
X-74950Y63210D02*
X-75588D01*
X-75755Y63182D01*
X-76033D01*
X-76338Y63127D01*
X-76699Y63071D01*
X-77088Y62988D01*
X-77532Y62905D01*
X-78004Y62766D01*
X-78504Y62599D01*
X-79032Y62405D01*
X-79532Y62155D01*
X-80059Y61877D01*
X-80587Y61544D01*
X-81115Y61155D01*
X-81614Y60711D01*
X-81642Y60683D01*
X-81725Y60600D01*
X-81864Y60433D01*
X-82003Y60239D01*
X-82225Y59961D01*
X-82420Y59628D01*
X-82670Y59211D01*
X-82892Y58767D01*
X-83142Y58212D01*
X-83392Y57601D01*
X-83586Y56934D01*
X-83780Y56184D01*
X-83947Y55379D01*
X-84086Y54491D01*
X-84169Y53518D01*
X-84197Y52463D01*
Y52408D01*
Y52269D01*
X-84169Y52019D01*
Y51686D01*
X-84114Y51297D01*
X-84058Y50853D01*
X-84003Y50353D01*
X-83891Y49825D01*
X-83753Y49242D01*
X-83586Y48631D01*
X-83392Y48048D01*
X-83142Y47437D01*
X-82864Y46826D01*
X-82531Y46243D01*
X-82170Y45687D01*
X-81725Y45160D01*
X-81698Y45132D01*
X-81614Y45049D01*
X-81476Y44910D01*
X-81281Y44743D01*
X-81031Y44549D01*
X-80726Y44327D01*
X-80392Y44077D01*
X-80004Y43855D01*
X-79587Y43605D01*
X-79087Y43355D01*
X-78587Y43132D01*
X-78032Y42938D01*
X-77449Y42772D01*
X-76810Y42633D01*
X-76171Y42549D01*
X-75477Y42522D01*
X-75311D01*
X-75116Y42549D01*
X-74839Y42577D01*
X-74505Y42605D01*
X-74144Y42660D01*
X-73700Y42744D01*
X-73256Y42855D01*
X-72756Y42994D01*
X-72256Y43160D01*
X-71728Y43382D01*
X-71201Y43660D01*
X-70673Y43966D01*
X-70145Y44299D01*
X-69646Y44715D01*
X-69173Y45188D01*
X-69146Y45215D01*
X-69062Y45326D01*
X-68951Y45465D01*
X-68785Y45687D01*
X-68590Y45965D01*
X-68368Y46298D01*
X-68146Y46687D01*
X-67924Y47159D01*
X-67702Y47659D01*
X-67452Y48242D01*
X-67257Y48853D01*
X-67063Y49547D01*
X-66896Y50297D01*
X-66785Y51075D01*
X-66702Y51936D01*
X-66674Y52824D01*
Y52852D01*
Y52963D01*
Y53130D01*
X-66702Y53352D01*
Y53630D01*
X-66730Y53935D01*
X-66757Y54296D01*
X-66813Y54685D01*
X-66924Y55546D01*
X-67118Y56462D01*
X-67396Y57379D01*
X-67757Y58295D01*
Y58323D01*
X-67813Y58406D01*
X-67868Y58517D01*
X-67952Y58684D01*
X-68063Y58878D01*
X-68201Y59100D01*
X-68535Y59628D01*
X-68979Y60211D01*
X-69507Y60794D01*
X-70118Y61377D01*
X-70840Y61905D01*
X-70867Y61933D01*
X-70923Y61961D01*
X-71034Y62016D01*
X-71201Y62099D01*
X-71395Y62211D01*
X-71617Y62322D01*
X-71867Y62433D01*
X-72173Y62572D01*
X-72506Y62683D01*
X-72839Y62794D01*
X-73617Y63016D01*
X-74477Y63155D01*
X-74950Y63210D01*
D02*
G37*
G36*
X36686Y1139D02*
X36492D01*
X36325Y1111D01*
X36158Y1083D01*
X35936Y1055D01*
X35436Y917D01*
X34853Y722D01*
X34548Y583D01*
X34242Y417D01*
X33937Y222D01*
X33631Y-28D01*
X33326Y-277D01*
X33020Y-583D01*
X32992Y-611D01*
X32965Y-666D01*
X32881Y-750D01*
X32770Y-888D01*
X32659Y-1055D01*
X32548Y-1277D01*
X32409Y-1499D01*
X32270Y-1777D01*
X32104Y-2083D01*
X31965Y-2416D01*
X31854Y-2777D01*
X31743Y-3193D01*
X31548Y-4054D01*
X31521Y-4526D01*
X31493Y-5026D01*
Y-5054D01*
Y-5137D01*
Y-5248D01*
X31521Y-5443D01*
X31548Y-5637D01*
X31576Y-5887D01*
X31687Y-6442D01*
X31854Y-7081D01*
X32104Y-7720D01*
X32270Y-8053D01*
X32465Y-8386D01*
X32687Y-8692D01*
X32937Y-8997D01*
X32965Y-9025D01*
X32992Y-9053D01*
X33076Y-9136D01*
X33215Y-9219D01*
X33353Y-9330D01*
X33520Y-9469D01*
X33715Y-9608D01*
X33937Y-9747D01*
X34492Y-10025D01*
X35103Y-10275D01*
X35825Y-10441D01*
X36214Y-10469D01*
X36603Y-10497D01*
X36825D01*
X36963Y-10469D01*
X37158Y-10441D01*
X37352Y-10414D01*
X37852Y-10302D01*
X38435Y-10136D01*
X39018Y-9858D01*
X39324Y-9692D01*
X39630Y-9497D01*
X39907Y-9247D01*
X40185Y-8997D01*
X40213Y-8969D01*
X40240Y-8914D01*
X40324Y-8831D01*
X40407Y-8720D01*
X40518Y-8553D01*
X40629Y-8359D01*
X40768Y-8136D01*
X40907Y-7886D01*
X41018Y-7609D01*
X41157Y-7276D01*
X41268Y-6942D01*
X41379Y-6554D01*
X41462Y-6137D01*
X41546Y-5720D01*
X41573Y-5248D01*
X41601Y-4749D01*
Y-4721D01*
Y-4637D01*
Y-4499D01*
X41573Y-4304D01*
X41546Y-4082D01*
X41518Y-3804D01*
X41490Y-3527D01*
X41434Y-3193D01*
X41240Y-2527D01*
X40990Y-1805D01*
X40824Y-1444D01*
X40629Y-1111D01*
X40407Y-777D01*
X40157Y-472D01*
X40129Y-444D01*
X40102Y-389D01*
X40018Y-333D01*
X39907Y-222D01*
X39768Y-111D01*
X39602Y28D01*
X39185Y333D01*
X38685Y639D01*
X38074Y889D01*
X37769Y1000D01*
X37408Y1083D01*
X37047Y1111D01*
X36686Y1139D01*
D02*
G37*
G36*
X-46569Y-12635D02*
X-46596D01*
X-46652Y-12663D01*
X-46763Y-12691D01*
X-46902Y-12746D01*
X-47069Y-12830D01*
X-47291Y-12885D01*
X-47568Y-12968D01*
X-47846Y-13052D01*
X-48207Y-13135D01*
X-48596Y-13246D01*
X-49012Y-13329D01*
X-49485Y-13441D01*
X-49984Y-13552D01*
X-50512Y-13635D01*
X-51095Y-13746D01*
X-51734Y-13829D01*
X-51817D01*
X-51928Y-13857D01*
X-52039Y-13885D01*
X-52400Y-13940D01*
X-52817Y-14024D01*
X-53261Y-14107D01*
X-53706Y-14218D01*
X-54122Y-14329D01*
X-54483Y-14468D01*
X-54511Y-14496D01*
X-54622Y-14524D01*
X-54761Y-14607D01*
X-54927Y-14718D01*
X-55150Y-14885D01*
X-55344Y-15051D01*
X-55538Y-15246D01*
X-55733Y-15495D01*
X-55761Y-15523D01*
X-55788Y-15607D01*
X-55872Y-15745D01*
X-55927Y-15940D01*
X-56010Y-16162D01*
X-56094Y-16412D01*
X-56121Y-16690D01*
X-56149Y-16995D01*
Y-17051D01*
X-56121Y-17189D01*
X-56094Y-17439D01*
X-56038Y-17717D01*
X-55927Y-18050D01*
X-55761Y-18411D01*
X-55511Y-18745D01*
X-55205Y-19078D01*
X-55150Y-19106D01*
X-55038Y-19217D01*
X-54816Y-19328D01*
X-54511Y-19494D01*
X-54122Y-19633D01*
X-53622Y-19772D01*
X-53067Y-19883D01*
X-52428Y-19911D01*
X-52123D01*
X-51956Y-19883D01*
X-51762Y-19855D01*
X-51345Y-19800D01*
X-50817Y-19716D01*
X-50290Y-19578D01*
X-49734Y-19383D01*
X-49179Y-19133D01*
X-49151D01*
X-49123Y-19106D01*
X-48957Y-18994D01*
X-48707Y-18800D01*
X-48374Y-18550D01*
X-48040Y-18245D01*
X-47707Y-17856D01*
X-47374Y-17439D01*
X-47096Y-16939D01*
X-47069Y-16884D01*
X-47013Y-16745D01*
X-46930Y-16495D01*
X-46846Y-16162D01*
X-46763Y-15718D01*
X-46680Y-15162D01*
X-46624Y-14524D01*
X-46596Y-13802D01*
X-46569Y-12635D01*
D02*
G37*
G36*
X-110412Y639D02*
X-116327D01*
Y-18939D01*
X-110440D01*
X-110217Y-18911D01*
X-109968D01*
X-109412Y-18883D01*
X-108773Y-18828D01*
X-108107Y-18745D01*
X-107468Y-18633D01*
X-106885Y-18495D01*
X-106857D01*
X-106830Y-18467D01*
X-106746Y-18439D01*
X-106635Y-18411D01*
X-106385Y-18300D01*
X-106052Y-18161D01*
X-105691Y-17967D01*
X-105302Y-17745D01*
X-104913Y-17467D01*
X-104580Y-17162D01*
X-104552Y-17134D01*
X-104525Y-17106D01*
X-104386Y-16939D01*
X-104164Y-16662D01*
X-103886Y-16301D01*
X-103608Y-15829D01*
X-103303Y-15273D01*
X-102997Y-14635D01*
X-102720Y-13913D01*
Y-13885D01*
X-102692Y-13829D01*
X-102664Y-13718D01*
X-102609Y-13552D01*
X-102553Y-13357D01*
X-102497Y-13107D01*
X-102442Y-12830D01*
X-102358Y-12524D01*
X-102303Y-12191D01*
X-102248Y-11802D01*
X-102192Y-11413D01*
X-102136Y-10969D01*
X-102053Y-10025D01*
X-102025Y-8969D01*
Y-8914D01*
Y-8803D01*
Y-8581D01*
X-102053Y-8303D01*
Y-7970D01*
X-102081Y-7581D01*
X-102136Y-7164D01*
X-102192Y-6692D01*
X-102358Y-5693D01*
X-102581Y-4665D01*
X-102914Y-3693D01*
X-103136Y-3221D01*
X-103358Y-2805D01*
X-103386Y-2777D01*
X-103414Y-2721D01*
X-103497Y-2610D01*
X-103608Y-2444D01*
X-103719Y-2277D01*
X-103886Y-2083D01*
X-104247Y-1638D01*
X-104719Y-1138D01*
X-105274Y-666D01*
X-105885Y-222D01*
X-106219Y-55D01*
X-106580Y111D01*
X-106607D01*
X-106635Y139D01*
X-106718Y167D01*
X-106830Y195D01*
X-106996Y222D01*
X-107163Y278D01*
X-107385Y333D01*
X-107635Y389D01*
X-107913Y417D01*
X-108246Y472D01*
X-108607Y528D01*
X-108996Y556D01*
X-109440Y583D01*
X-109912Y611D01*
X-110412Y639D01*
D02*
G37*
G36*
X56486Y1139D02*
X56292D01*
X56125Y1111D01*
X55958Y1083D01*
X55736Y1055D01*
X55236Y917D01*
X54681Y694D01*
X54403Y556D01*
X54098Y361D01*
X53820Y167D01*
X53542Y-83D01*
X53264Y-361D01*
X53015Y-694D01*
X52987Y-722D01*
X52959Y-805D01*
X52876Y-944D01*
X52765Y-1166D01*
X52654Y-1444D01*
X52515Y-1777D01*
X52348Y-2166D01*
X52209Y-2666D01*
X52070Y-3221D01*
X51904Y-3832D01*
X51765Y-4554D01*
X51654Y-5332D01*
X51543Y-6193D01*
X51487Y-7164D01*
X51432Y-8192D01*
X51404Y-9330D01*
Y-9358D01*
Y-9414D01*
Y-9497D01*
Y-9608D01*
Y-9747D01*
Y-9941D01*
X51432Y-10358D01*
X51459Y-10858D01*
X51487Y-11441D01*
X51515Y-12080D01*
X51598Y-12746D01*
X51765Y-14163D01*
X51876Y-14857D01*
X52015Y-15551D01*
X52182Y-16190D01*
X52404Y-16773D01*
X52626Y-17300D01*
X52876Y-17745D01*
X52903Y-17773D01*
X52931Y-17828D01*
X53015Y-17939D01*
X53154Y-18078D01*
X53292Y-18217D01*
X53459Y-18384D01*
X53875Y-18772D01*
X54403Y-19161D01*
X55042Y-19467D01*
X55375Y-19605D01*
X55736Y-19716D01*
X56125Y-19772D01*
X56514Y-19800D01*
X56597D01*
X56736Y-19772D01*
X56875D01*
X57069Y-19744D01*
X57291Y-19689D01*
X57791Y-19550D01*
X58069Y-19439D01*
X58346Y-19300D01*
X58652Y-19133D01*
X58957Y-18911D01*
X59263Y-18689D01*
X59568Y-18411D01*
X59874Y-18078D01*
X60151Y-17717D01*
X60179Y-17689D01*
X60207Y-17606D01*
X60290Y-17495D01*
X60374Y-17300D01*
X60513Y-17051D01*
X60624Y-16717D01*
X60762Y-16329D01*
X60901Y-15884D01*
X61040Y-15357D01*
X61179Y-14746D01*
X61318Y-14079D01*
X61429Y-13302D01*
X61512Y-12441D01*
X61595Y-11497D01*
X61623Y-10469D01*
X61651Y-9330D01*
Y-9303D01*
Y-9247D01*
Y-9164D01*
Y-9053D01*
Y-8914D01*
Y-8747D01*
X61623Y-8303D01*
X61595Y-7803D01*
X61568Y-7220D01*
X61540Y-6581D01*
X61457Y-5915D01*
X61290Y-4499D01*
X61151Y-3804D01*
X61012Y-3138D01*
X60846Y-2499D01*
X60651Y-1888D01*
X60429Y-1388D01*
X60151Y-944D01*
X60124Y-916D01*
X60096Y-861D01*
X60013Y-750D01*
X59902Y-611D01*
X59735Y-472D01*
X59568Y-277D01*
X59374Y-83D01*
X59152Y111D01*
X58624Y472D01*
X57985Y805D01*
X57652Y944D01*
X57263Y1055D01*
X56902Y1111D01*
X56486Y1139D01*
D02*
G37*
G36*
X6889Y-5554D02*
X6667D01*
X6528Y-5582D01*
X6333Y-5609D01*
X6139Y-5637D01*
X5611Y-5748D01*
X5056Y-5915D01*
X4417Y-6165D01*
X4112Y-6331D01*
X3806Y-6526D01*
X3501Y-6776D01*
X3223Y-7026D01*
X3195Y-7053D01*
X3167Y-7081D01*
X3084Y-7164D01*
X3001Y-7276D01*
X2890Y-7442D01*
X2751Y-7609D01*
X2612Y-7803D01*
X2473Y-8053D01*
X2334Y-8303D01*
X2196Y-8608D01*
X1918Y-9275D01*
X1723Y-10025D01*
X1668Y-10441D01*
X1612Y-10886D01*
X11998D01*
Y-10858D01*
Y-10775D01*
X11971Y-10663D01*
X11943Y-10497D01*
X11915Y-10302D01*
X11887Y-10080D01*
X11776Y-9580D01*
X11609Y-8997D01*
X11415Y-8414D01*
X11137Y-7859D01*
X10804Y-7387D01*
X10776Y-7359D01*
X10749Y-7303D01*
X10638Y-7220D01*
X10526Y-7109D01*
X10388Y-6970D01*
X10193Y-6803D01*
X9971Y-6637D01*
X9749Y-6470D01*
X9471Y-6304D01*
X9166Y-6137D01*
X8499Y-5832D01*
X8138Y-5720D01*
X7750Y-5637D01*
X7333Y-5582D01*
X6889Y-5554D01*
D02*
G37*
G36*
X-56302Y-36840D02*
X-56496D01*
X-56663Y-36867D01*
X-56830Y-36895D01*
X-57052Y-36923D01*
X-57524Y-37062D01*
X-58079Y-37256D01*
X-58385Y-37395D01*
X-58690Y-37562D01*
X-58968Y-37756D01*
X-59273Y-38006D01*
X-59551Y-38256D01*
X-59829Y-38561D01*
X-59857Y-38589D01*
X-59884Y-38645D01*
X-59968Y-38756D01*
X-60051Y-38895D01*
X-60162Y-39061D01*
X-60273Y-39311D01*
X-60384Y-39561D01*
X-60523Y-39894D01*
X-60662Y-40227D01*
X-60773Y-40644D01*
X-60884Y-41088D01*
X-60995Y-41560D01*
X-61078Y-42116D01*
X-61162Y-42671D01*
X-61190Y-43310D01*
X-61217Y-43976D01*
Y-44004D01*
Y-44143D01*
Y-44310D01*
X-61190Y-44560D01*
X-61162Y-44865D01*
X-61134Y-45198D01*
X-61078Y-45559D01*
X-61023Y-45976D01*
X-60856Y-46837D01*
X-60579Y-47725D01*
X-60412Y-48142D01*
X-60218Y-48558D01*
X-59968Y-48947D01*
X-59718Y-49308D01*
X-59690Y-49336D01*
X-59662Y-49392D01*
X-59551Y-49475D01*
X-59440Y-49586D01*
X-59301Y-49725D01*
X-59135Y-49864D01*
X-58718Y-50169D01*
X-58190Y-50502D01*
X-57579Y-50780D01*
X-57246Y-50891D01*
X-56913Y-50974D01*
X-56552Y-51030D01*
X-56163Y-51058D01*
X-55969D01*
X-55802Y-51030D01*
X-55635Y-51002D01*
X-55413Y-50974D01*
X-54941Y-50836D01*
X-54386Y-50641D01*
X-54080Y-50502D01*
X-53803Y-50363D01*
X-53497Y-50169D01*
X-53192Y-49947D01*
X-52914Y-49697D01*
X-52636Y-49392D01*
X-52609Y-49364D01*
X-52581Y-49308D01*
X-52498Y-49225D01*
X-52414Y-49058D01*
X-52303Y-48892D01*
X-52164Y-48669D01*
X-52025Y-48420D01*
X-51887Y-48114D01*
X-51775Y-47781D01*
X-51637Y-47392D01*
X-51498Y-46948D01*
X-51387Y-46503D01*
X-51303Y-46004D01*
X-51220Y-45448D01*
X-51192Y-44865D01*
X-51165Y-44226D01*
Y-44171D01*
Y-44060D01*
Y-43865D01*
X-51192Y-43615D01*
X-51220Y-43282D01*
X-51248Y-42921D01*
X-51276Y-42532D01*
X-51359Y-42088D01*
X-51525Y-41199D01*
X-51803Y-40255D01*
X-51970Y-39811D01*
X-52164Y-39394D01*
X-52386Y-39006D01*
X-52664Y-38645D01*
X-52692Y-38617D01*
X-52720Y-38561D01*
X-52803Y-38478D01*
X-52914Y-38367D01*
X-53081Y-38228D01*
X-53247Y-38061D01*
X-53664Y-37728D01*
X-54191Y-37423D01*
X-54830Y-37117D01*
X-55163Y-37006D01*
X-55524Y-36923D01*
X-55913Y-36867D01*
X-56302Y-36840D01*
D02*
G37*
G36*
X43698Y-30119D02*
X43503D01*
X43337Y-30147D01*
X43170Y-30175D01*
X42948Y-30202D01*
X42448Y-30341D01*
X41893Y-30564D01*
X41615Y-30702D01*
X41310Y-30897D01*
X41032Y-31091D01*
X40754Y-31341D01*
X40477Y-31619D01*
X40227Y-31952D01*
X40199Y-31980D01*
X40171Y-32063D01*
X40088Y-32202D01*
X39977Y-32424D01*
X39865Y-32702D01*
X39727Y-33035D01*
X39560Y-33424D01*
X39421Y-33924D01*
X39282Y-34479D01*
X39116Y-35090D01*
X38977Y-35812D01*
X38866Y-36590D01*
X38755Y-37451D01*
X38699Y-38422D01*
X38644Y-39450D01*
X38616Y-40589D01*
Y-40616D01*
Y-40672D01*
Y-40755D01*
Y-40866D01*
Y-41005D01*
Y-41199D01*
X38644Y-41616D01*
X38671Y-42116D01*
X38699Y-42699D01*
X38727Y-43338D01*
X38810Y-44004D01*
X38977Y-45420D01*
X39088Y-46115D01*
X39227Y-46809D01*
X39393Y-47448D01*
X39616Y-48031D01*
X39838Y-48558D01*
X40088Y-49003D01*
X40115Y-49031D01*
X40143Y-49086D01*
X40227Y-49197D01*
X40365Y-49336D01*
X40504Y-49475D01*
X40671Y-49641D01*
X41087Y-50030D01*
X41615Y-50419D01*
X42254Y-50725D01*
X42587Y-50863D01*
X42948Y-50974D01*
X43337Y-51030D01*
X43725Y-51058D01*
X43809D01*
X43948Y-51030D01*
X44087D01*
X44281Y-51002D01*
X44503Y-50947D01*
X45003Y-50808D01*
X45281Y-50697D01*
X45558Y-50558D01*
X45864Y-50391D01*
X46169Y-50169D01*
X46475Y-49947D01*
X46780Y-49669D01*
X47086Y-49336D01*
X47363Y-48975D01*
X47391Y-48947D01*
X47419Y-48864D01*
X47502Y-48753D01*
X47586Y-48558D01*
X47724Y-48309D01*
X47835Y-47975D01*
X47974Y-47587D01*
X48113Y-47142D01*
X48252Y-46615D01*
X48391Y-46004D01*
X48530Y-45337D01*
X48641Y-44560D01*
X48724Y-43699D01*
X48807Y-42755D01*
X48835Y-41727D01*
X48863Y-40589D01*
Y-40561D01*
Y-40505D01*
Y-40422D01*
Y-40311D01*
Y-40172D01*
Y-40005D01*
X48835Y-39561D01*
X48807Y-39061D01*
X48780Y-38478D01*
X48752Y-37839D01*
X48669Y-37173D01*
X48502Y-35756D01*
X48363Y-35062D01*
X48224Y-34396D01*
X48058Y-33757D01*
X47863Y-33146D01*
X47641Y-32646D01*
X47363Y-32202D01*
X47336Y-32174D01*
X47308Y-32119D01*
X47225Y-32008D01*
X47113Y-31869D01*
X46947Y-31730D01*
X46780Y-31535D01*
X46586Y-31341D01*
X46364Y-31147D01*
X45836Y-30786D01*
X45197Y-30452D01*
X44864Y-30314D01*
X44475Y-30202D01*
X44114Y-30147D01*
X43698Y-30119D01*
D02*
G37*
G36*
X-78754Y-68070D02*
X-78976D01*
X-79115Y-68097D01*
X-79309Y-68125D01*
X-79504Y-68153D01*
X-80032Y-68264D01*
X-80587Y-68431D01*
X-81226Y-68681D01*
X-81531Y-68847D01*
X-81836Y-69042D01*
X-82142Y-69292D01*
X-82420Y-69542D01*
X-82447Y-69569D01*
X-82475Y-69597D01*
X-82559Y-69680D01*
X-82642Y-69791D01*
X-82753Y-69958D01*
X-82892Y-70125D01*
X-83031Y-70319D01*
X-83170Y-70569D01*
X-83308Y-70819D01*
X-83447Y-71124D01*
X-83725Y-71791D01*
X-83919Y-72541D01*
X-83975Y-72957D01*
X-84030Y-73401D01*
X-73644D01*
Y-73374D01*
Y-73290D01*
X-73672Y-73179D01*
X-73700Y-73013D01*
X-73728Y-72818D01*
X-73755Y-72596D01*
X-73866Y-72096D01*
X-74033Y-71513D01*
X-74227Y-70930D01*
X-74505Y-70375D01*
X-74839Y-69902D01*
X-74866Y-69875D01*
X-74894Y-69819D01*
X-75005Y-69736D01*
X-75116Y-69625D01*
X-75255Y-69486D01*
X-75449Y-69319D01*
X-75672Y-69153D01*
X-75894Y-68986D01*
X-76171Y-68819D01*
X-76477Y-68653D01*
X-77143Y-68347D01*
X-77504Y-68236D01*
X-77893Y-68153D01*
X-78310Y-68097D01*
X-78754Y-68070D01*
D02*
G37*
G36*
X-51484Y-68097D02*
X-51678D01*
X-51845Y-68125D01*
X-52012Y-68153D01*
X-52234Y-68181D01*
X-52734Y-68320D01*
X-53289Y-68514D01*
X-53594Y-68653D01*
X-53872Y-68819D01*
X-54178Y-69014D01*
X-54483Y-69264D01*
X-54789Y-69514D01*
X-55066Y-69819D01*
X-55094Y-69847D01*
X-55122Y-69902D01*
X-55205Y-69986D01*
X-55288Y-70125D01*
X-55400Y-70319D01*
X-55511Y-70541D01*
X-55649Y-70791D01*
X-55788Y-71097D01*
X-55927Y-71430D01*
X-56066Y-71791D01*
X-56177Y-72207D01*
X-56288Y-72652D01*
X-56371Y-73152D01*
X-56455Y-73679D01*
X-56482Y-74262D01*
X-56510Y-74873D01*
Y-74901D01*
Y-75040D01*
Y-75234D01*
X-56482Y-75484D01*
X-56455Y-75762D01*
X-56427Y-76123D01*
X-56399Y-76512D01*
X-56316Y-76901D01*
X-56149Y-77789D01*
X-55899Y-78678D01*
X-55733Y-79094D01*
X-55538Y-79483D01*
X-55316Y-79872D01*
X-55066Y-80205D01*
X-55038Y-80233D01*
X-55011Y-80288D01*
X-54927Y-80372D01*
X-54816Y-80455D01*
X-54650Y-80594D01*
X-54483Y-80733D01*
X-54066Y-81038D01*
X-53539Y-81344D01*
X-52928Y-81621D01*
X-52567Y-81705D01*
X-52206Y-81788D01*
X-51817Y-81844D01*
X-51428Y-81871D01*
X-51206D01*
X-51067Y-81844D01*
X-50873Y-81816D01*
X-50651Y-81788D01*
X-50151Y-81649D01*
X-49595Y-81455D01*
X-49290Y-81316D01*
X-48985Y-81177D01*
X-48679Y-80983D01*
X-48374Y-80761D01*
X-48068Y-80511D01*
X-47791Y-80205D01*
X-47763Y-80177D01*
X-47735Y-80122D01*
X-47652Y-80038D01*
X-47568Y-79900D01*
X-47457Y-79705D01*
X-47318Y-79483D01*
X-47180Y-79233D01*
X-47041Y-78928D01*
X-46930Y-78594D01*
X-46791Y-78206D01*
X-46652Y-77761D01*
X-46541Y-77289D01*
X-46457Y-76789D01*
X-46374Y-76234D01*
X-46346Y-75623D01*
X-46319Y-74984D01*
Y-74957D01*
Y-74845D01*
Y-74651D01*
X-46346Y-74429D01*
X-46374Y-74151D01*
X-46402Y-73818D01*
X-46457Y-73457D01*
X-46513Y-73068D01*
X-46680Y-72235D01*
X-46957Y-71374D01*
X-47124Y-70958D01*
X-47346Y-70569D01*
X-47568Y-70180D01*
X-47846Y-69847D01*
X-47874Y-69819D01*
X-47902Y-69764D01*
X-47985Y-69680D01*
X-48124Y-69569D01*
X-48263Y-69430D01*
X-48429Y-69292D01*
X-48873Y-68958D01*
X-49401Y-68653D01*
X-50012Y-68375D01*
X-50345Y-68264D01*
X-50706Y-68181D01*
X-51095Y-68125D01*
X-51484Y-68097D01*
D02*
G37*
%LPD*%
D10*
X-20248Y-460158D02*
X-21560D01*
X-20904D01*
Y-463438D01*
X-21560Y-464094D01*
X-22216D01*
X-22872Y-463438D01*
X-18936Y-460158D02*
Y-464094D01*
X-16312D01*
X-12377Y-460814D02*
X-13033Y-460158D01*
X-14345D01*
X-15001Y-460814D01*
Y-463438D01*
X-14345Y-464094D01*
X-13033D01*
X-12377Y-463438D01*
X-8441Y-460158D02*
X-9753D01*
X-9097D01*
Y-463438D01*
X-9753Y-464094D01*
X-10409D01*
X-11065Y-463438D01*
X-7129Y-460158D02*
Y-464094D01*
X-4505D01*
X-570Y-460814D02*
X-1225Y-460158D01*
X-2537D01*
X-3193Y-460814D01*
Y-463438D01*
X-2537Y-464094D01*
X-1225D01*
X-570Y-463438D01*
X3366Y-460158D02*
X2054D01*
X2710D01*
Y-463438D01*
X2054Y-464094D01*
X1398D01*
X742Y-463438D01*
X4678Y-460158D02*
Y-464094D01*
X7302D01*
X11238Y-460814D02*
X10582Y-460158D01*
X9270D01*
X8614Y-460814D01*
Y-463438D01*
X9270Y-464094D01*
X10582D01*
X11238Y-463438D01*
X15173Y-460158D02*
X13861D01*
X14517D01*
Y-463438D01*
X13861Y-464094D01*
X13205D01*
X12550Y-463438D01*
X16485Y-460158D02*
Y-464094D01*
X19109D01*
X23045Y-460814D02*
X22389Y-460158D01*
X21077D01*
X20421Y-460814D01*
Y-463438D01*
X21077Y-464094D01*
X22389D01*
X23045Y-463438D01*
M02*
