G04*
G04 #@! TF.GenerationSoftware,Altium Limited,Altium Designer,19.1.5 (86)*
G04*
G04 Layer_Color=8388736*
%FSLAX25Y25*%
%MOIN*%
G70*
G01*
G75*
%ADD10C,0.01000*%
D10*
X714983Y12982D02*
X710984D01*
Y9983D01*
X712984D01*
X710984D01*
Y6984D01*
X716982Y12982D02*
Y7984D01*
X717982Y6984D01*
X719981D01*
X720981Y7984D01*
Y12982D01*
X722980D02*
Y6984D01*
X726979D01*
X728978Y12982D02*
Y6984D01*
X732977D01*
X744973Y11983D02*
X743974Y12982D01*
X741974D01*
X740975Y11983D01*
Y10983D01*
X741974Y9983D01*
X743974D01*
X744973Y8984D01*
Y7984D01*
X743974Y6984D01*
X741974D01*
X740975Y7984D01*
X749972Y12982D02*
X747972D01*
X746973Y11983D01*
Y7984D01*
X747972Y6984D01*
X749972D01*
X750971Y7984D01*
Y11983D01*
X749972Y12982D01*
X752971D02*
Y6984D01*
X756969D01*
X758969Y12982D02*
Y6984D01*
X761968D01*
X762967Y7984D01*
Y11983D01*
X761968Y12982D01*
X758969D01*
X768965D02*
X764967D01*
Y6984D01*
X768965D01*
X764967Y9983D02*
X766966D01*
X770965Y6984D02*
Y12982D01*
X773964D01*
X774964Y11983D01*
Y9983D01*
X773964Y8984D01*
X770965D01*
X772964D02*
X774964Y6984D01*
X776963D02*
Y12982D01*
X778962Y10983D01*
X780962Y12982D01*
Y6984D01*
X782961D02*
Y10983D01*
X784960Y12982D01*
X786960Y10983D01*
Y6984D01*
Y9983D01*
X782961D01*
X792958Y11983D02*
X791958Y12982D01*
X789959D01*
X788959Y11983D01*
Y10983D01*
X789959Y9983D01*
X791958D01*
X792958Y8984D01*
Y7984D01*
X791958Y6984D01*
X789959D01*
X788959Y7984D01*
X794957Y12982D02*
Y6984D01*
Y8984D01*
X798956Y12982D01*
X795957Y9983D01*
X798956Y6984D01*
M02*
