G04*
G04 #@! TF.GenerationSoftware,Altium Limited,Altium Designer,19.1.5 (86)*
G04*
G04 Layer_Physical_Order=1*
G04 Layer_Color=255*
%FSLAX25Y25*%
%MOIN*%
G70*
G01*
G75*
G36*
X503135Y977820D02*
X516922Y977319D01*
X530690Y976432D01*
X544427Y975159D01*
X558123Y973501D01*
X571768Y971461D01*
X585350Y969038D01*
X598859Y966236D01*
X612284Y963056D01*
X625614Y959502D01*
X638839Y955575D01*
X651950Y951279D01*
X664935Y946617D01*
X677784Y941593D01*
X690487Y936211D01*
X703034Y930475D01*
X715416Y924389D01*
X727622Y917959D01*
X739643Y911190D01*
X751470Y904086D01*
X763093Y896653D01*
X774503Y888898D01*
X785691Y880825D01*
X796649Y872443D01*
X807367Y863756D01*
X817837Y854772D01*
X828052Y845499D01*
X838003Y835943D01*
X847682Y826112D01*
X857081Y816013D01*
X866194Y805655D01*
X875013Y795045D01*
X883531Y784193D01*
X891742Y773105D01*
X899639Y761793D01*
X907215Y750263D01*
X914465Y738525D01*
X921384Y726589D01*
X927965Y714464D01*
X934204Y702159D01*
X940095Y689684D01*
X945635Y677048D01*
X950818Y664263D01*
X955641Y651337D01*
X960099Y638281D01*
X964190Y625105D01*
X967910Y611820D01*
X971256Y598435D01*
X974226Y584963D01*
X976817Y571412D01*
X979027Y557794D01*
X980854Y544119D01*
X982298Y530398D01*
X983356Y516643D01*
X984028Y502863D01*
X984314Y489070D01*
X984213Y475274D01*
X983726Y461486D01*
X982852Y447718D01*
X981593Y433979D01*
X979949Y420281D01*
X977922Y406634D01*
X975513Y393050D01*
X972724Y379538D01*
X969558Y366110D01*
X966017Y352777D01*
X962103Y339547D01*
X957820Y326432D01*
X953171Y313443D01*
X948160Y300589D01*
X942790Y287880D01*
X937067Y275327D01*
X930994Y262940D01*
X924576Y250727D01*
X917818Y238699D01*
X910726Y226866D01*
X903305Y215235D01*
X895560Y203818D01*
X887499Y192621D01*
X879128Y181656D01*
X870452Y170929D01*
X861479Y160449D01*
X852215Y150225D01*
X842669Y140265D01*
X832847Y130576D01*
X822758Y121167D01*
X812409Y112043D01*
X801808Y103214D01*
X790964Y94685D01*
X779885Y86463D01*
X768580Y78555D01*
X757058Y70968D01*
X745328Y63705D01*
X733398Y56775D01*
X721279Y50182D01*
X708981Y43931D01*
X696511Y38027D01*
X683882Y32475D01*
X671101Y27279D01*
X658180Y22444D01*
X645128Y17972D01*
X631957Y13868D01*
X618675Y10135D01*
X605294Y6776D01*
X591824Y3793D01*
X578276Y1188D01*
X571468Y77D01*
X571045Y8D01*
X570191Y54D01*
X569366Y284D01*
X568610Y685D01*
X567958Y1239D01*
X567440Y1921D01*
X567080Y2698D01*
X566896Y3534D01*
Y3962D01*
Y20852D01*
X409416Y20853D01*
X409416Y5335D01*
Y4903D01*
X409229Y4059D01*
X408863Y3276D01*
X408335Y2591D01*
X407672Y2037D01*
X406905Y1640D01*
X406069Y1419D01*
X405205Y1384D01*
X404780Y1460D01*
X397992Y2685D01*
X384489Y5514D01*
X371070Y8720D01*
X357747Y12302D01*
X344529Y16255D01*
X331427Y20577D01*
X318451Y25264D01*
X305612Y30314D01*
X292920Y35721D01*
X280384Y41482D01*
X268015Y47592D01*
X255821Y54047D01*
X243814Y60840D01*
X232001Y67968D01*
X220393Y75423D01*
X208998Y83202D01*
X197826Y91296D01*
X186885Y99700D01*
X176184Y108408D01*
X165732Y117413D01*
X155535Y126706D01*
X145604Y136282D01*
X135944Y146133D01*
X126565Y156250D01*
X117473Y166627D01*
X108675Y177254D01*
X100178Y188123D01*
X91989Y199226D01*
X84115Y210555D01*
X76562Y222100D01*
X69335Y233852D01*
X62440Y245801D01*
X55883Y257940D01*
X49669Y270257D01*
X43802Y282744D01*
X38288Y295391D01*
X33130Y308186D01*
X28333Y321122D01*
X23900Y334187D01*
X19836Y347371D01*
X16142Y360663D01*
X12823Y374054D01*
X9880Y387533D01*
X7316Y401089D01*
X5133Y414711D01*
X3333Y428390D01*
X1917Y442113D01*
X886Y455871D01*
X241Y469652D01*
X-18Y483446D01*
X110Y497241D01*
X625Y511028D01*
X1526Y524795D01*
X2813Y538531D01*
X4484Y552226D01*
X6538Y565868D01*
X8974Y579448D01*
X11790Y592954D01*
X14983Y606375D01*
X18551Y619702D01*
X22491Y632924D01*
X26800Y646030D01*
X31474Y659010D01*
X36511Y671854D01*
X41906Y684552D01*
X47654Y697094D01*
X53752Y709469D01*
X60194Y721669D01*
X66976Y733683D01*
X74092Y745503D01*
X81536Y757119D01*
X89303Y768521D01*
X97386Y779701D01*
X105780Y790650D01*
X114477Y801360D01*
X123471Y811821D01*
X132755Y822027D01*
X142321Y831968D01*
X152161Y841637D01*
X162269Y851027D01*
X172637Y860130D01*
X183255Y868938D01*
X194116Y877445D01*
X205211Y885645D01*
X216532Y893530D01*
X228069Y901095D01*
X239814Y908334D01*
X251757Y915241D01*
X263889Y921810D01*
X276200Y928036D01*
X288681Y933915D01*
X301322Y939442D01*
X314113Y944613D01*
X327043Y949422D01*
X340104Y953868D01*
X353284Y957946D01*
X366573Y961653D01*
X379960Y964985D01*
X393436Y967942D01*
X406989Y970519D01*
X420610Y972716D01*
X434286Y974529D01*
X448008Y975959D01*
X461765Y977004D01*
X475545Y977663D01*
X489339Y977935D01*
X503135Y977820D01*
D02*
G37*
%LPC*%
G36*
X285258Y765296D02*
X281721D01*
X278205Y764900D01*
X274757Y764113D01*
X271418Y762945D01*
X268230Y761410D01*
X265235Y759527D01*
X262469Y757322D01*
X259968Y754820D01*
X257762Y752055D01*
X255880Y749059D01*
X254345Y745872D01*
X253177Y742533D01*
X252390Y739084D01*
X251994Y735569D01*
Y733800D01*
X251993D01*
X251993Y237737D01*
Y235968D01*
X252390Y232453D01*
X253177Y229004D01*
X254345Y225665D01*
X255880Y222478D01*
X257762Y219482D01*
X259968Y216717D01*
X262469Y214215D01*
X265235Y212010D01*
X268230Y210128D01*
X271417Y208593D01*
X274757Y207424D01*
X278205Y206637D01*
X281721Y206241D01*
X285258Y206241D01*
X288774Y206637D01*
X292222Y207424D01*
X295562Y208593D01*
X298749Y210128D01*
X301744Y212010D01*
X304510Y214215D01*
X307011Y216717D01*
X309217Y219482D01*
X311099Y222478D01*
X312634Y225665D01*
X313802Y229004D01*
X314590Y232453D01*
X314986Y235968D01*
Y237237D01*
X314986Y237737D01*
X314986Y237737D01*
X314986Y733800D01*
Y735569D01*
X314590Y739084D01*
X313802Y742533D01*
X312634Y745872D01*
X311099Y749059D01*
X309217Y752055D01*
X307011Y754820D01*
X304510Y757322D01*
X301744Y759527D01*
X298749Y761410D01*
X295562Y762945D01*
X292223Y764113D01*
X288774Y764900D01*
X285258Y765296D01*
D02*
G37*
G36*
X699051Y765297D02*
X695535Y764901D01*
X692086Y764115D01*
X688746Y762947D01*
X685558Y761412D01*
X682562Y759530D01*
X679795Y757325D01*
X677293Y754823D01*
X675087Y752057D01*
X673204Y749061D01*
X671669Y745874D01*
X670500Y742534D01*
X669713Y739085D01*
X669316Y735569D01*
Y733800D01*
X669316Y237737D01*
Y235968D01*
X669712Y232453D01*
X670500Y229004D01*
X671668Y225665D01*
X673203Y222478D01*
X675085Y219482D01*
X677291Y216717D01*
X679792Y214215D01*
X682558Y212010D01*
X685553Y210127D01*
X688740Y208593D01*
X692079Y207424D01*
X695528Y206637D01*
X699044Y206241D01*
X702581Y206241D01*
X706097Y206637D01*
X709545Y207424D01*
X712884Y208593D01*
X716072Y210127D01*
X719067Y212010D01*
X721833Y214215D01*
X724334Y216717D01*
X726540Y219482D01*
X728422Y222478D01*
X729957Y225665D01*
X731125Y229004D01*
X731912Y232453D01*
X732308Y235968D01*
Y237737D01*
X732308Y237737D01*
X732308Y733785D01*
X732309Y735554D01*
X731915Y739070D01*
X731129Y742520D01*
X729962Y745860D01*
X728428Y749048D01*
X726547Y752044D01*
X724342Y754812D01*
X721841Y757314D01*
X719076Y759521D01*
X716081Y761405D01*
X712893Y762941D01*
X709554Y764110D01*
X706105Y764899D01*
X702589Y765296D01*
X699051Y765297D01*
D02*
G37*
%LPD*%
M02*
