G04*
G04 #@! TF.GenerationSoftware,Altium Limited,Altium Designer,19.1.5 (86)*
G04*
G04 Layer_Color=65535*
%FSLAX25Y25*%
%MOIN*%
G70*
G01*
G75*
G36*
X542874Y570209D02*
X543180Y570181D01*
X543485Y570153D01*
X543846Y570125D01*
X544624Y570014D01*
X545485Y569847D01*
X546346Y569598D01*
X547179Y569292D01*
X547206D01*
X547262Y569237D01*
X547401Y569209D01*
X547540Y569126D01*
X547706Y569015D01*
X547928Y568903D01*
X548400Y568626D01*
X548956Y568237D01*
X549511Y567765D01*
X550039Y567237D01*
X550511Y566599D01*
X550539Y566571D01*
X550567Y566515D01*
X550622Y566432D01*
X550705Y566293D01*
X550789Y566126D01*
X550900Y565932D01*
X550983Y565682D01*
X551122Y565432D01*
X551344Y564849D01*
X551539Y564155D01*
X551705Y563405D01*
X551789Y562572D01*
X548539Y562322D01*
Y562350D01*
X548512Y562433D01*
Y562544D01*
X548484Y562711D01*
X548428Y562933D01*
X548373Y563155D01*
X548206Y563683D01*
X547984Y564266D01*
X547651Y564877D01*
X547262Y565460D01*
X547012Y565710D01*
X546734Y565960D01*
X546706Y565987D01*
X546679Y566015D01*
X546568Y566071D01*
X546457Y566154D01*
X546290Y566237D01*
X546096Y566349D01*
X545873Y566460D01*
X545623Y566599D01*
X545318Y566710D01*
X544985Y566821D01*
X544624Y566932D01*
X544235Y567015D01*
X543791Y567098D01*
X543319Y567154D01*
X542819Y567209D01*
X542013D01*
X541791Y567182D01*
X541541D01*
X541264Y567154D01*
X540930Y567126D01*
X540597Y567071D01*
X539847Y566932D01*
X539125Y566737D01*
X538431Y566460D01*
X538098Y566265D01*
X537820Y566071D01*
X537792D01*
X537765Y566015D01*
X537598Y565876D01*
X537376Y565626D01*
X537126Y565293D01*
X536876Y564904D01*
X536654Y564432D01*
X536487Y563933D01*
X536459Y563655D01*
X536432Y563349D01*
Y563322D01*
Y563294D01*
X536459Y563127D01*
X536487Y562877D01*
X536543Y562572D01*
X536682Y562211D01*
X536848Y561822D01*
X537070Y561461D01*
X537404Y561100D01*
X537459Y561072D01*
X537515Y561017D01*
X537626Y560933D01*
X537765Y560850D01*
X537931Y560767D01*
X538153Y560656D01*
X538403Y560517D01*
X538709Y560378D01*
X539070Y560239D01*
X539486Y560100D01*
X539958Y559934D01*
X540514Y559767D01*
X541097Y559600D01*
X541763Y559406D01*
X542513Y559239D01*
X542569D01*
X542708Y559212D01*
X542902Y559156D01*
X543180Y559073D01*
X543513Y559017D01*
X543902Y558906D01*
X544318Y558823D01*
X544763Y558684D01*
X545707Y558434D01*
X546651Y558184D01*
X547095Y558045D01*
X547484Y557906D01*
X547873Y557768D01*
X548178Y557629D01*
X548206D01*
X548289Y557573D01*
X548400Y557518D01*
X548539Y557434D01*
X548734Y557351D01*
X548956Y557212D01*
X549428Y556907D01*
X549983Y556546D01*
X550511Y556101D01*
X551039Y555574D01*
X551261Y555296D01*
X551483Y555018D01*
Y554991D01*
X551539Y554935D01*
X551594Y554852D01*
X551650Y554741D01*
X551733Y554602D01*
X551816Y554407D01*
X552038Y553963D01*
X552233Y553436D01*
X552399Y552824D01*
X552510Y552130D01*
X552566Y551380D01*
Y551353D01*
Y551297D01*
Y551186D01*
X552538Y551047D01*
Y550853D01*
X552510Y550659D01*
X552427Y550131D01*
X552288Y549548D01*
X552066Y548909D01*
X551761Y548243D01*
X551594Y547882D01*
X551372Y547548D01*
Y547520D01*
X551316Y547465D01*
X551261Y547382D01*
X551150Y547243D01*
X550900Y546937D01*
X550511Y546521D01*
X550039Y546076D01*
X549456Y545604D01*
X548789Y545160D01*
X548012Y544743D01*
X547984D01*
X547901Y544688D01*
X547790Y544660D01*
X547623Y544577D01*
X547429Y544521D01*
X547179Y544438D01*
X546901Y544327D01*
X546568Y544244D01*
X546235Y544160D01*
X545846Y544049D01*
X545013Y543910D01*
X544096Y543799D01*
X543096Y543744D01*
X542763D01*
X542513Y543772D01*
X542208D01*
X541875Y543799D01*
X541486Y543827D01*
X541042Y543883D01*
X540125Y543994D01*
X539153Y544160D01*
X538181Y544410D01*
X537237Y544743D01*
X537209D01*
X537126Y544799D01*
X537015Y544855D01*
X536848Y544938D01*
X536654Y545049D01*
X536432Y545160D01*
X535904Y545493D01*
X535321Y545910D01*
X534710Y546437D01*
X534099Y547048D01*
X533571Y547770D01*
X533544Y547798D01*
X533516Y547854D01*
X533460Y547965D01*
X533377Y548131D01*
X533266Y548326D01*
X533155Y548548D01*
X533016Y548826D01*
X532905Y549131D01*
X532766Y549437D01*
X532655Y549798D01*
X532433Y550603D01*
X532266Y551464D01*
X532211Y551936D01*
X532183Y552408D01*
X535376Y552686D01*
Y552658D01*
Y552602D01*
X535404Y552491D01*
X535432Y552353D01*
X535460Y552186D01*
X535488Y552019D01*
X535599Y551547D01*
X535737Y551047D01*
X535904Y550520D01*
X536126Y549992D01*
X536404Y549492D01*
X536432Y549437D01*
X536571Y549298D01*
X536765Y549076D01*
X537043Y548798D01*
X537404Y548465D01*
X537848Y548159D01*
X538376Y547826D01*
X538986Y547520D01*
X539014D01*
X539070Y547493D01*
X539153Y547465D01*
X539292Y547409D01*
X539459Y547354D01*
X539653Y547270D01*
X539875Y547215D01*
X540125Y547159D01*
X540708Y547021D01*
X541402Y546882D01*
X542125Y546798D01*
X542930Y546771D01*
X543263D01*
X543430Y546798D01*
X543624D01*
X544068Y546854D01*
X544596Y546910D01*
X545179Y546993D01*
X545762Y547132D01*
X546318Y547326D01*
X546346D01*
X546373Y547354D01*
X546457Y547382D01*
X546568Y547437D01*
X546818Y547576D01*
X547151Y547743D01*
X547512Y547965D01*
X547901Y548243D01*
X548234Y548548D01*
X548539Y548909D01*
X548567Y548965D01*
X548651Y549076D01*
X548789Y549298D01*
X548928Y549576D01*
X549039Y549909D01*
X549178Y550270D01*
X549261Y550686D01*
X549289Y551103D01*
Y551131D01*
Y551158D01*
Y551297D01*
X549261Y551547D01*
X549206Y551825D01*
X549122Y552158D01*
X548984Y552519D01*
X548817Y552880D01*
X548567Y553213D01*
X548539Y553241D01*
X548428Y553352D01*
X548262Y553519D01*
X548012Y553741D01*
X547706Y553963D01*
X547290Y554213D01*
X546818Y554463D01*
X546262Y554713D01*
X546207Y554741D01*
X546151Y554768D01*
X546040Y554796D01*
X545929Y554824D01*
X545762Y554880D01*
X545540Y554963D01*
X545318Y555018D01*
X545013Y555102D01*
X544707Y555213D01*
X544318Y555296D01*
X543902Y555407D01*
X543430Y555546D01*
X542930Y555657D01*
X542347Y555824D01*
X541708Y555963D01*
X541680D01*
X541569Y555990D01*
X541375Y556046D01*
X541152Y556101D01*
X540847Y556185D01*
X540514Y556268D01*
X540181Y556379D01*
X539792Y556490D01*
X538959Y556740D01*
X538153Y557018D01*
X537765Y557157D01*
X537404Y557296D01*
X537070Y557434D01*
X536793Y557573D01*
X536765D01*
X536709Y557629D01*
X536626Y557684D01*
X536487Y557740D01*
X536154Y557934D01*
X535765Y558212D01*
X535293Y558573D01*
X534849Y558962D01*
X534404Y559434D01*
X534043Y559934D01*
Y559961D01*
X534016Y559989D01*
X533960Y560073D01*
X533905Y560184D01*
X533766Y560489D01*
X533599Y560878D01*
X533432Y561350D01*
X533294Y561905D01*
X533183Y562516D01*
X533155Y563155D01*
Y563183D01*
Y563238D01*
Y563349D01*
X533183Y563488D01*
Y563655D01*
X533210Y563849D01*
X533294Y564349D01*
X533432Y564904D01*
X533599Y565488D01*
X533877Y566126D01*
X534238Y566765D01*
Y566793D01*
X534293Y566848D01*
X534349Y566932D01*
X534432Y567043D01*
X534710Y567348D01*
X535071Y567737D01*
X535515Y568154D01*
X536071Y568570D01*
X536709Y568987D01*
X537459Y569348D01*
X537487D01*
X537542Y569376D01*
X537681Y569431D01*
X537820Y569487D01*
X538015Y569542D01*
X538265Y569625D01*
X538542Y569709D01*
X538848Y569792D01*
X539181Y569875D01*
X539542Y569959D01*
X540319Y570097D01*
X541208Y570209D01*
X542152Y570236D01*
X542624D01*
X542874Y570209D01*
D02*
G37*
G36*
X450039Y554991D02*
Y554935D01*
Y554824D01*
Y554630D01*
Y554352D01*
X450011Y554019D01*
X449984Y553658D01*
X449956Y553241D01*
X449928Y552769D01*
X449817Y551797D01*
X449678Y550770D01*
X449456Y549770D01*
X449317Y549298D01*
X449151Y548853D01*
Y548826D01*
X449123Y548742D01*
X449067Y548631D01*
X448984Y548465D01*
X448873Y548270D01*
X448762Y548048D01*
X448428Y547548D01*
X448234Y547243D01*
X448012Y546965D01*
X447734Y546632D01*
X447457Y546326D01*
X447123Y546021D01*
X446790Y545715D01*
X446401Y545438D01*
X445985Y545160D01*
X445957Y545132D01*
X445874Y545105D01*
X445763Y545021D01*
X445568Y544938D01*
X445346Y544827D01*
X445068Y544716D01*
X444763Y544577D01*
X444374Y544466D01*
X443985Y544327D01*
X443541Y544188D01*
X443041Y544077D01*
X442514Y543966D01*
X441930Y543883D01*
X441319Y543799D01*
X440681Y543772D01*
X440014Y543744D01*
X439653D01*
X439403Y543772D01*
X439098D01*
X438765Y543799D01*
X438348Y543855D01*
X437931Y543910D01*
X436987Y544049D01*
X435988Y544271D01*
X435016Y544577D01*
X434544Y544743D01*
X434099Y544966D01*
X434071Y544993D01*
X433988Y545021D01*
X433877Y545105D01*
X433738Y545188D01*
X433544Y545327D01*
X433322Y545493D01*
X433100Y545660D01*
X432850Y545882D01*
X432294Y546382D01*
X431767Y546993D01*
X431267Y547715D01*
X431044Y548131D01*
X430850Y548548D01*
Y548576D01*
X430822Y548659D01*
X430767Y548798D01*
X430711Y548992D01*
X430628Y549214D01*
X430545Y549520D01*
X430461Y549853D01*
X430378Y550242D01*
X430267Y550686D01*
X430184Y551158D01*
X430100Y551686D01*
X430045Y552269D01*
X429961Y552880D01*
X429934Y553547D01*
X429878Y554241D01*
Y554991D01*
Y569792D01*
X433266D01*
Y554991D01*
Y554963D01*
Y554852D01*
Y554685D01*
Y554435D01*
X433294Y554157D01*
Y553852D01*
X433322Y553491D01*
X433349Y553130D01*
X433405Y552325D01*
X433516Y551519D01*
X433683Y550742D01*
X433766Y550381D01*
X433877Y550075D01*
Y550047D01*
X433905Y550020D01*
X433933Y549936D01*
X433988Y549825D01*
X434155Y549520D01*
X434377Y549187D01*
X434655Y548770D01*
X435016Y548381D01*
X435460Y547993D01*
X435988Y547632D01*
X436015D01*
X436071Y547604D01*
X436154Y547548D01*
X436265Y547493D01*
X436404Y547437D01*
X436598Y547382D01*
X436793Y547298D01*
X437015Y547215D01*
X437570Y547076D01*
X438209Y546937D01*
X438931Y546826D01*
X439709Y546798D01*
X440070D01*
X440320Y546826D01*
X440625Y546854D01*
X440986Y546882D01*
X441375Y546937D01*
X441791Y547021D01*
X442652Y547215D01*
X443097Y547354D01*
X443541Y547520D01*
X443958Y547715D01*
X444346Y547937D01*
X444707Y548187D01*
X445041Y548492D01*
X445068Y548520D01*
X445124Y548576D01*
X445179Y548687D01*
X445291Y548826D01*
X445402Y549020D01*
X445540Y549270D01*
X445707Y549576D01*
X445846Y549936D01*
X445985Y550353D01*
X446151Y550825D01*
X446290Y551353D01*
X446401Y551936D01*
X446512Y552602D01*
X446596Y553324D01*
X446624Y554130D01*
X446651Y554991D01*
Y569792D01*
X450039D01*
Y554991D01*
D02*
G37*
G36*
X605385Y566765D02*
X596943D01*
Y544160D01*
X593554D01*
Y566765D01*
X585112D01*
Y569792D01*
X605385D01*
Y566765D01*
D02*
G37*
G36*
X581058Y544160D02*
X577670D01*
Y569792D01*
X581058D01*
Y544160D01*
D02*
G37*
G36*
X560425Y547187D02*
X573060D01*
Y544160D01*
X557037D01*
Y569792D01*
X560425D01*
Y547187D01*
D02*
G37*
G36*
X518103Y566765D02*
X502941D01*
Y558934D01*
X517132D01*
Y555907D01*
X502941D01*
Y547187D01*
X518687D01*
Y544160D01*
X499553D01*
Y569792D01*
X518103D01*
Y566765D01*
D02*
G37*
G36*
X482808Y547187D02*
X495443D01*
Y544160D01*
X479420D01*
Y569792D01*
X482808D01*
Y547187D01*
D02*
G37*
G36*
X465868Y569764D02*
X466174D01*
X466479Y569736D01*
X466840Y569681D01*
X467562Y569598D01*
X468367Y569459D01*
X469117Y569264D01*
X469839Y568987D01*
X469867D01*
X469922Y568959D01*
X470006Y568903D01*
X470145Y568848D01*
X470450Y568653D01*
X470867Y568403D01*
X471311Y568070D01*
X471755Y567654D01*
X472200Y567154D01*
X472616Y566599D01*
Y566571D01*
X472672Y566515D01*
X472699Y566432D01*
X472783Y566321D01*
X472866Y566182D01*
X472949Y565987D01*
X473144Y565571D01*
X473310Y565071D01*
X473477Y564488D01*
X473588Y563877D01*
X473644Y563210D01*
Y563183D01*
Y563127D01*
Y563044D01*
Y562933D01*
X473588Y562627D01*
X473533Y562211D01*
X473421Y561739D01*
X473255Y561211D01*
X473033Y560683D01*
X472727Y560128D01*
Y560100D01*
X472699Y560073D01*
X472644Y559989D01*
X472561Y559878D01*
X472366Y559628D01*
X472061Y559295D01*
X471700Y558934D01*
X471228Y558545D01*
X470700Y558156D01*
X470061Y557795D01*
X470089D01*
X470172Y557768D01*
X470284Y557712D01*
X470450Y557656D01*
X470645Y557573D01*
X470867Y557490D01*
X471367Y557240D01*
X471950Y556934D01*
X472533Y556518D01*
X473116Y556046D01*
X473616Y555463D01*
X473644Y555435D01*
X473671Y555379D01*
X473727Y555296D01*
X473810Y555185D01*
X473921Y555018D01*
X474032Y554824D01*
X474144Y554602D01*
X474255Y554352D01*
X474477Y553796D01*
X474699Y553130D01*
X474838Y552380D01*
X474893Y551991D01*
Y551575D01*
Y551547D01*
Y551492D01*
Y551408D01*
Y551269D01*
X474866Y551103D01*
Y550936D01*
X474810Y550492D01*
X474699Y549964D01*
X474560Y549409D01*
X474366Y548798D01*
X474116Y548215D01*
Y548187D01*
X474088Y548159D01*
X474032Y548076D01*
X473977Y547965D01*
X473810Y547687D01*
X473588Y547354D01*
X473338Y546965D01*
X473005Y546576D01*
X472644Y546187D01*
X472227Y545826D01*
X472172Y545799D01*
X472033Y545688D01*
X471783Y545549D01*
X471450Y545354D01*
X471061Y545160D01*
X470589Y544938D01*
X470034Y544743D01*
X469423Y544577D01*
X469395D01*
X469339Y544549D01*
X469256D01*
X469117Y544521D01*
X468951Y544493D01*
X468756Y544438D01*
X468534Y544410D01*
X468284Y544382D01*
X468006Y544327D01*
X467673Y544299D01*
X466979Y544216D01*
X466174Y544188D01*
X465285Y544160D01*
X455538D01*
Y569792D01*
X465618D01*
X465868Y569764D01*
D02*
G37*
G36*
X385946D02*
X386279D01*
X386613Y569736D01*
X387362Y569709D01*
X388112Y569625D01*
X388862Y569542D01*
X389195Y569459D01*
X389501Y569403D01*
X389528D01*
X389612Y569376D01*
X389723Y569348D01*
X389862Y569292D01*
X390056Y569237D01*
X390278Y569181D01*
X390806Y568987D01*
X391389Y568737D01*
X392000Y568431D01*
X392639Y568043D01*
X393250Y567570D01*
X393277Y567543D01*
X393333Y567487D01*
X393444Y567404D01*
X393583Y567265D01*
X393749Y567098D01*
X393944Y566876D01*
X394166Y566654D01*
X394388Y566376D01*
X394638Y566071D01*
X394888Y565738D01*
X395138Y565377D01*
X395388Y564988D01*
X395860Y564127D01*
X396276Y563183D01*
Y563155D01*
X396332Y563072D01*
X396360Y562905D01*
X396443Y562711D01*
X396526Y562461D01*
X396610Y562155D01*
X396693Y561822D01*
X396804Y561433D01*
X396887Y560989D01*
X396971Y560517D01*
X397054Y560017D01*
X397137Y559489D01*
X397221Y558934D01*
X397248Y558351D01*
X397304Y557101D01*
Y557073D01*
Y556962D01*
Y556823D01*
Y556601D01*
X397276Y556351D01*
Y556046D01*
X397248Y555713D01*
X397221Y555352D01*
X397137Y554546D01*
X396999Y553685D01*
X396832Y552797D01*
X396610Y551908D01*
Y551880D01*
X396582Y551797D01*
X396526Y551686D01*
X396499Y551547D01*
X396415Y551353D01*
X396332Y551131D01*
X396138Y550603D01*
X395888Y550020D01*
X395582Y549381D01*
X395249Y548770D01*
X394860Y548187D01*
Y548159D01*
X394805Y548131D01*
X394749Y548048D01*
X394666Y547937D01*
X394471Y547687D01*
X394166Y547354D01*
X393833Y546965D01*
X393444Y546576D01*
X393000Y546215D01*
X392528Y545854D01*
X392500D01*
X392472Y545826D01*
X392305Y545715D01*
X392028Y545577D01*
X391667Y545382D01*
X391222Y545188D01*
X390695Y544966D01*
X390084Y544771D01*
X389445Y544577D01*
X389417D01*
X389362Y544549D01*
X389278D01*
X389140Y544521D01*
X388973Y544493D01*
X388751Y544438D01*
X388529Y544410D01*
X388279Y544382D01*
X387668Y544299D01*
X386974Y544216D01*
X386196Y544188D01*
X385363Y544160D01*
X376115D01*
Y569792D01*
X385668D01*
X385946Y569764D01*
D02*
G37*
G36*
X413799Y570209D02*
X414133Y570181D01*
X414494Y570153D01*
X414882Y570097D01*
X415327Y570014D01*
X415827Y569931D01*
X416326Y569820D01*
X416854Y569681D01*
X417409Y569514D01*
X417965Y569320D01*
X418520Y569098D01*
X419048Y568848D01*
X419603Y568542D01*
X419631Y568515D01*
X419742Y568459D01*
X419881Y568376D01*
X420075Y568237D01*
X420325Y568070D01*
X420575Y567848D01*
X420881Y567598D01*
X421214Y567320D01*
X421575Y566987D01*
X421936Y566626D01*
X422297Y566237D01*
X422658Y565821D01*
X422991Y565377D01*
X423352Y564877D01*
X423658Y564349D01*
X423963Y563794D01*
X423991Y563766D01*
X424019Y563655D01*
X424102Y563488D01*
X424185Y563266D01*
X424324Y562988D01*
X424435Y562627D01*
X424574Y562239D01*
X424713Y561794D01*
X424852Y561322D01*
X424991Y560794D01*
X425130Y560211D01*
X425241Y559628D01*
X425324Y558989D01*
X425407Y558323D01*
X425435Y557656D01*
X425463Y556934D01*
Y556879D01*
Y556768D01*
Y556546D01*
X425435Y556268D01*
X425407Y555935D01*
X425379Y555546D01*
X425324Y555102D01*
X425268Y554602D01*
X425185Y554074D01*
X425074Y553519D01*
X424963Y552936D01*
X424796Y552353D01*
X424602Y551742D01*
X424407Y551158D01*
X424157Y550547D01*
X423880Y549964D01*
X423852Y549936D01*
X423797Y549825D01*
X423713Y549659D01*
X423602Y549464D01*
X423435Y549214D01*
X423241Y548909D01*
X422991Y548576D01*
X422741Y548215D01*
X422436Y547854D01*
X422103Y547465D01*
X421714Y547076D01*
X421325Y546687D01*
X420908Y546326D01*
X420436Y545965D01*
X419937Y545604D01*
X419409Y545299D01*
X419381Y545271D01*
X419270Y545243D01*
X419131Y545160D01*
X418909Y545049D01*
X418631Y544938D01*
X418326Y544799D01*
X417965Y544660D01*
X417548Y544521D01*
X417104Y544382D01*
X416632Y544244D01*
X416104Y544105D01*
X415577Y543994D01*
X414410Y543799D01*
X413799Y543772D01*
X413188Y543744D01*
X412827D01*
X412577Y543772D01*
X412272Y543799D01*
X411883Y543827D01*
X411494Y543883D01*
X411022Y543966D01*
X410550Y544049D01*
X410023Y544160D01*
X409495Y544299D01*
X408940Y544466D01*
X408384Y544660D01*
X407829Y544910D01*
X407273Y545160D01*
X406718Y545466D01*
X406690Y545493D01*
X406607Y545549D01*
X406440Y545660D01*
X406246Y545799D01*
X406024Y545965D01*
X405746Y546187D01*
X405441Y546437D01*
X405107Y546715D01*
X404746Y547048D01*
X404413Y547409D01*
X404052Y547798D01*
X403691Y548215D01*
X403330Y548687D01*
X402997Y549159D01*
X402691Y549686D01*
X402386Y550242D01*
X402358Y550270D01*
X402330Y550381D01*
X402247Y550547D01*
X402164Y550770D01*
X402053Y551047D01*
X401941Y551380D01*
X401803Y551742D01*
X401664Y552186D01*
X401525Y552630D01*
X401386Y553130D01*
X401275Y553658D01*
X401164Y554213D01*
X400997Y555379D01*
X400970Y556018D01*
X400942Y556629D01*
Y556657D01*
Y556712D01*
Y556796D01*
Y556907D01*
X400970Y557073D01*
Y557240D01*
X400997Y557684D01*
X401053Y558212D01*
X401136Y558851D01*
X401220Y559517D01*
X401358Y560267D01*
X401553Y561072D01*
X401775Y561878D01*
X402053Y562711D01*
X402386Y563544D01*
X402775Y564377D01*
X403219Y565154D01*
X403747Y565932D01*
X404357Y566626D01*
X404385Y566654D01*
X404524Y566793D01*
X404718Y566959D01*
X404969Y567182D01*
X405330Y567459D01*
X405718Y567765D01*
X406190Y568098D01*
X406746Y568431D01*
X407357Y568764D01*
X408023Y569098D01*
X408745Y569403D01*
X409551Y569681D01*
X410384Y569903D01*
X411272Y570070D01*
X412216Y570209D01*
X413216Y570236D01*
X413549D01*
X413799Y570209D01*
D02*
G37*
G36*
X387598Y504194D02*
X384460D01*
Y507776D01*
X387598D01*
Y504194D01*
D02*
G37*
G36*
X556329Y507832D02*
X556579Y507804D01*
X556884Y507776D01*
X557218Y507721D01*
X557579Y507637D01*
X558384Y507443D01*
X558773Y507304D01*
X559217Y507137D01*
X559633Y506943D01*
X560022Y506693D01*
X560411Y506443D01*
X560800Y506138D01*
X560828Y506110D01*
X560883Y506054D01*
X560994Y505971D01*
X561105Y505832D01*
X561272Y505665D01*
X561439Y505443D01*
X561633Y505193D01*
X561827Y504916D01*
X562022Y504610D01*
X562216Y504249D01*
X562410Y503861D01*
X562605Y503444D01*
X562772Y503000D01*
X562910Y502528D01*
X563049Y502028D01*
X563132Y501472D01*
X559995Y501222D01*
Y501250D01*
X559967Y501306D01*
X559939Y501389D01*
X559911Y501528D01*
X559828Y501861D01*
X559689Y502250D01*
X559522Y502694D01*
X559300Y503138D01*
X559078Y503555D01*
X558800Y503916D01*
X558773Y503944D01*
X558745Y503972D01*
X558662Y504055D01*
X558578Y504138D01*
X558300Y504360D01*
X557912Y504610D01*
X557467Y504860D01*
X556912Y505055D01*
X556301Y505221D01*
X555968Y505249D01*
X555635Y505277D01*
X555385D01*
X555079Y505221D01*
X554718Y505166D01*
X554302Y505055D01*
X553857Y504916D01*
X553413Y504694D01*
X552969Y504416D01*
X552941D01*
X552913Y504360D01*
X552830Y504305D01*
X552719Y504221D01*
X552469Y503972D01*
X552136Y503611D01*
X551747Y503166D01*
X551358Y502611D01*
X550997Y501972D01*
X550636Y501250D01*
Y501222D01*
X550608Y501167D01*
X550553Y501028D01*
X550497Y500861D01*
X550442Y500667D01*
X550358Y500389D01*
X550275Y500084D01*
X550192Y499751D01*
X550108Y499362D01*
X550053Y498917D01*
X549969Y498418D01*
X549886Y497890D01*
X549831Y497334D01*
X549803Y496724D01*
X549775Y496057D01*
X549749Y495392D01*
X549747Y495391D01*
Y495363D01*
X549749Y495392D01*
X549803Y495446D01*
X549858Y495530D01*
X549942Y495641D01*
X550192Y495946D01*
X550497Y496335D01*
X550914Y496751D01*
X551386Y497168D01*
X551913Y497557D01*
X552497Y497918D01*
X552524D01*
X552580Y497945D01*
X552663Y498001D01*
X552774Y498057D01*
X552941Y498112D01*
X553108Y498195D01*
X553552Y498362D01*
X554079Y498501D01*
X554663Y498640D01*
X555301Y498751D01*
X555968Y498779D01*
X556107D01*
X556273Y498751D01*
X556496D01*
X556773Y498695D01*
X557079Y498667D01*
X557440Y498584D01*
X557828Y498501D01*
X558217Y498362D01*
X558662Y498223D01*
X559106Y498029D01*
X559550Y497807D01*
X560022Y497529D01*
X560467Y497223D01*
X560911Y496862D01*
X561328Y496446D01*
X561355Y496418D01*
X561411Y496335D01*
X561522Y496224D01*
X561689Y496029D01*
X561855Y495807D01*
X562022Y495530D01*
X562244Y495196D01*
X562438Y494835D01*
X562633Y494419D01*
X562855Y493974D01*
X563021Y493474D01*
X563216Y492947D01*
X563355Y492391D01*
X563466Y491781D01*
X563521Y491142D01*
X563549Y490475D01*
Y490448D01*
Y490364D01*
Y490253D01*
X563521Y490059D01*
Y489864D01*
X563493Y489614D01*
X563466Y489309D01*
X563410Y489004D01*
X563299Y488309D01*
X563105Y487560D01*
X562855Y486782D01*
X562494Y485977D01*
Y485949D01*
X562438Y485893D01*
X562383Y485782D01*
X562299Y485643D01*
X562188Y485477D01*
X562077Y485282D01*
X561744Y484810D01*
X561355Y484310D01*
X560855Y483783D01*
X560272Y483255D01*
X559633Y482811D01*
X559606D01*
X559550Y482755D01*
X559439Y482700D01*
X559300Y482644D01*
X559134Y482561D01*
X558939Y482478D01*
X558689Y482367D01*
X558439Y482283D01*
X557828Y482061D01*
X557106Y481894D01*
X556329Y481783D01*
X555496Y481728D01*
X555329D01*
X555107Y481756D01*
X554829Y481783D01*
X554496Y481811D01*
X554107Y481894D01*
X553691Y481978D01*
X553219Y482089D01*
X552719Y482255D01*
X552191Y482422D01*
X551663Y482672D01*
X551136Y482950D01*
X550581Y483283D01*
X550081Y483672D01*
X549553Y484116D01*
X549081Y484616D01*
X549053Y484644D01*
X548970Y484755D01*
X548859Y484921D01*
X548692Y485171D01*
X548498Y485477D01*
X548303Y485865D01*
X548081Y486338D01*
X547859Y486893D01*
X547609Y487504D01*
X547387Y488198D01*
X547192Y488976D01*
X546998Y489837D01*
X546832Y490781D01*
X546720Y491808D01*
X546637Y492919D01*
X546609Y494113D01*
Y494141D01*
Y494197D01*
Y494308D01*
Y494447D01*
Y494613D01*
X546637Y494835D01*
Y495057D01*
X546665Y495335D01*
X546693Y495946D01*
X546748Y496640D01*
X546832Y497418D01*
X546943Y498251D01*
X547109Y499140D01*
X547276Y500028D01*
X547498Y500917D01*
X547776Y501805D01*
X548081Y502666D01*
X548442Y503500D01*
X548886Y504249D01*
X549359Y504916D01*
X549386Y504944D01*
X549470Y505055D01*
X549609Y505193D01*
X549803Y505388D01*
X550025Y505610D01*
X550330Y505860D01*
X550664Y506110D01*
X551053Y506388D01*
X551497Y506665D01*
X551997Y506915D01*
X552524Y507165D01*
X553108Y507387D01*
X553719Y507582D01*
X554385Y507721D01*
X555079Y507832D01*
X555829Y507859D01*
X556135D01*
X556329Y507832D01*
D02*
G37*
G36*
X449303Y501111D02*
X449470D01*
X449886Y501056D01*
X450358Y501000D01*
X450886Y500889D01*
X451414Y500723D01*
X451941Y500528D01*
X451969D01*
X451997Y500500D01*
X452164Y500417D01*
X452414Y500278D01*
X452747Y500111D01*
X453080Y499862D01*
X453441Y499612D01*
X453774Y499306D01*
X454052Y498945D01*
X454080Y498890D01*
X454163Y498779D01*
X454274Y498556D01*
X454441Y498279D01*
X454607Y497945D01*
X454746Y497557D01*
X454913Y497112D01*
X455024Y496613D01*
Y496585D01*
X455052Y496446D01*
X455079Y496224D01*
X455135Y495918D01*
X455163Y495502D01*
Y495252D01*
X455191Y494974D01*
Y494669D01*
X455218Y494308D01*
Y493947D01*
Y493558D01*
Y482144D01*
X452080D01*
Y493447D01*
Y493474D01*
Y493530D01*
Y493641D01*
Y493752D01*
Y493919D01*
X452052Y494113D01*
X452025Y494530D01*
X451997Y495002D01*
X451914Y495474D01*
X451830Y495918D01*
X451691Y496307D01*
X451664Y496363D01*
X451608Y496474D01*
X451525Y496640D01*
X451386Y496862D01*
X451219Y497112D01*
X450997Y497362D01*
X450719Y497612D01*
X450386Y497834D01*
X450358Y497862D01*
X450220Y497918D01*
X450025Y498029D01*
X449775Y498140D01*
X449442Y498223D01*
X449081Y498334D01*
X448665Y498390D01*
X448193Y498418D01*
X447998D01*
X447859Y498390D01*
X447693D01*
X447471Y498362D01*
X446998Y498251D01*
X446471Y498112D01*
X445888Y497890D01*
X445304Y497557D01*
X444999Y497362D01*
X444721Y497140D01*
X444694Y497112D01*
X444666Y497085D01*
X444582Y497001D01*
X444499Y496890D01*
X444388Y496724D01*
X444277Y496557D01*
X444138Y496335D01*
X443999Y496057D01*
X443860Y495752D01*
X443721Y495391D01*
X443610Y495002D01*
X443499Y494558D01*
X443416Y494058D01*
X443333Y493530D01*
X443305Y492919D01*
X443277Y492280D01*
Y482144D01*
X440139D01*
Y500723D01*
X442972D01*
Y498057D01*
X443000Y498084D01*
X443055Y498195D01*
X443194Y498334D01*
X443361Y498529D01*
X443555Y498779D01*
X443805Y499028D01*
X444110Y499306D01*
X444471Y499612D01*
X444860Y499889D01*
X445304Y500167D01*
X445777Y500417D01*
X446304Y500667D01*
X446887Y500861D01*
X447498Y501000D01*
X448165Y501111D01*
X448859Y501139D01*
X449137D01*
X449303Y501111D01*
D02*
G37*
G36*
X617229D02*
X617478Y501084D01*
X617728Y501056D01*
X618034Y501000D01*
X618367Y500945D01*
X619033Y500750D01*
X619756Y500472D01*
X620089Y500306D01*
X620422Y500111D01*
X620755Y499862D01*
X621033Y499584D01*
X621061Y499556D01*
X621089Y499501D01*
X621172Y499417D01*
X621255Y499306D01*
X621394Y499140D01*
X621505Y498945D01*
X621644Y498695D01*
X621783Y498418D01*
X621922Y498112D01*
X622060Y497779D01*
X622199Y497390D01*
X622310Y496974D01*
X622394Y496501D01*
X622477Y496002D01*
X622505Y495474D01*
X622533Y494891D01*
Y482144D01*
X619394D01*
Y493835D01*
Y493863D01*
Y493919D01*
Y494030D01*
Y494141D01*
X619367Y494474D01*
Y494891D01*
X619311Y495335D01*
X619256Y495779D01*
X619200Y496196D01*
X619089Y496557D01*
Y496585D01*
X619033Y496696D01*
X618950Y496835D01*
X618839Y497029D01*
X618673Y497251D01*
X618506Y497473D01*
X618256Y497695D01*
X617978Y497890D01*
X617950Y497918D01*
X617839Y497973D01*
X617673Y498057D01*
X617451Y498168D01*
X617173Y498251D01*
X616840Y498334D01*
X616479Y498390D01*
X616090Y498418D01*
X615896D01*
X615757Y498390D01*
X615590D01*
X615396Y498362D01*
X614951Y498251D01*
X614424Y498112D01*
X613868Y497862D01*
X613341Y497557D01*
X613063Y497334D01*
X612813Y497112D01*
Y497085D01*
X612757Y497057D01*
X612702Y496974D01*
X612619Y496862D01*
X612508Y496724D01*
X612396Y496557D01*
X612285Y496335D01*
X612174Y496113D01*
X612036Y495835D01*
X611924Y495530D01*
X611813Y495168D01*
X611702Y494807D01*
X611619Y494391D01*
X611563Y493919D01*
X611536Y493447D01*
X611508Y492919D01*
Y482144D01*
X608370D01*
Y494197D01*
Y494224D01*
Y494280D01*
Y494391D01*
Y494558D01*
X608342Y494724D01*
Y494918D01*
X608287Y495391D01*
X608176Y495891D01*
X608037Y496418D01*
X607842Y496918D01*
X607592Y497362D01*
X607564Y497418D01*
X607453Y497529D01*
X607259Y497695D01*
X607009Y497890D01*
X606648Y498084D01*
X606231Y498251D01*
X605704Y498362D01*
X605093Y498418D01*
X604871D01*
X604621Y498390D01*
X604288Y498334D01*
X603899Y498251D01*
X603482Y498112D01*
X603066Y497945D01*
X602622Y497695D01*
X602566Y497668D01*
X602427Y497557D01*
X602233Y497418D01*
X602010Y497168D01*
X601733Y496890D01*
X601455Y496529D01*
X601205Y496113D01*
X600983Y495641D01*
Y495613D01*
X600955Y495585D01*
X600927Y495502D01*
X600900Y495391D01*
X600872Y495252D01*
X600816Y495085D01*
X600789Y494891D01*
X600733Y494669D01*
X600677Y494391D01*
X600650Y494113D01*
X600594Y493808D01*
X600566Y493447D01*
X600539Y493086D01*
X600511Y492669D01*
X600483Y492253D01*
Y491781D01*
Y482144D01*
X597345D01*
Y500723D01*
X600150D01*
Y498140D01*
X600206Y498168D01*
X600316Y498334D01*
X600511Y498584D01*
X600789Y498890D01*
X601122Y499251D01*
X601511Y499612D01*
X601955Y499973D01*
X602483Y500306D01*
X602510D01*
X602538Y500334D01*
X602622Y500389D01*
X602733Y500445D01*
X602871Y500500D01*
X603038Y500584D01*
X603427Y500723D01*
X603927Y500889D01*
X604482Y501000D01*
X605121Y501111D01*
X605787Y501139D01*
X606120D01*
X606315Y501111D01*
X606509Y501084D01*
X606981Y501028D01*
X607509Y500917D01*
X608064Y500778D01*
X608620Y500556D01*
X609147Y500278D01*
X609175D01*
X609203Y500250D01*
X609370Y500111D01*
X609592Y499917D01*
X609897Y499667D01*
X610203Y499306D01*
X610508Y498917D01*
X610786Y498445D01*
X611036Y497890D01*
X611063Y497918D01*
X611147Y498029D01*
X611258Y498195D01*
X611452Y498390D01*
X611647Y498640D01*
X611924Y498917D01*
X612230Y499223D01*
X612591Y499528D01*
X612980Y499806D01*
X613424Y500111D01*
X613896Y500389D01*
X614396Y500639D01*
X614951Y500834D01*
X615534Y501000D01*
X616145Y501111D01*
X616784Y501139D01*
X617062D01*
X617229Y501111D01*
D02*
G37*
G36*
X587403D02*
X587653Y501084D01*
X587903Y501056D01*
X588209Y501000D01*
X588542Y500945D01*
X589209Y500750D01*
X589931Y500472D01*
X590264Y500306D01*
X590597Y500111D01*
X590930Y499862D01*
X591208Y499584D01*
X591236Y499556D01*
X591263Y499501D01*
X591347Y499417D01*
X591430Y499306D01*
X591569Y499140D01*
X591680Y498945D01*
X591819Y498695D01*
X591958Y498418D01*
X592097Y498112D01*
X592236Y497779D01*
X592374Y497390D01*
X592485Y496974D01*
X592569Y496501D01*
X592652Y496002D01*
X592680Y495474D01*
X592708Y494891D01*
Y482144D01*
X589570D01*
Y493835D01*
Y493863D01*
Y493919D01*
Y494030D01*
Y494141D01*
X589542Y494474D01*
Y494891D01*
X589486Y495335D01*
X589431Y495779D01*
X589375Y496196D01*
X589264Y496557D01*
Y496585D01*
X589209Y496696D01*
X589125Y496835D01*
X589014Y497029D01*
X588847Y497251D01*
X588681Y497473D01*
X588431Y497695D01*
X588153Y497890D01*
X588126Y497918D01*
X588014Y497973D01*
X587848Y498057D01*
X587626Y498168D01*
X587348Y498251D01*
X587015Y498334D01*
X586654Y498390D01*
X586265Y498418D01*
X586070D01*
X585932Y498390D01*
X585765D01*
X585571Y498362D01*
X585126Y498251D01*
X584599Y498112D01*
X584043Y497862D01*
X583516Y497557D01*
X583238Y497334D01*
X582988Y497112D01*
Y497085D01*
X582933Y497057D01*
X582877Y496974D01*
X582794Y496862D01*
X582683Y496724D01*
X582572Y496557D01*
X582460Y496335D01*
X582349Y496113D01*
X582210Y495835D01*
X582099Y495530D01*
X581988Y495168D01*
X581877Y494807D01*
X581794Y494391D01*
X581738Y493919D01*
X581711Y493447D01*
X581683Y492919D01*
Y482144D01*
X578545D01*
Y494197D01*
Y494224D01*
Y494280D01*
Y494391D01*
Y494558D01*
X578517Y494724D01*
Y494918D01*
X578462Y495391D01*
X578350Y495891D01*
X578212Y496418D01*
X578017Y496918D01*
X577767Y497362D01*
X577739Y497418D01*
X577628Y497529D01*
X577434Y497695D01*
X577184Y497890D01*
X576823Y498084D01*
X576407Y498251D01*
X575879Y498362D01*
X575268Y498418D01*
X575046D01*
X574796Y498390D01*
X574463Y498334D01*
X574074Y498251D01*
X573657Y498112D01*
X573241Y497945D01*
X572796Y497695D01*
X572741Y497668D01*
X572602Y497557D01*
X572408Y497418D01*
X572186Y497168D01*
X571908Y496890D01*
X571630Y496529D01*
X571380Y496113D01*
X571158Y495641D01*
Y495613D01*
X571130Y495585D01*
X571103Y495502D01*
X571075Y495391D01*
X571047Y495252D01*
X570991Y495085D01*
X570964Y494891D01*
X570908Y494669D01*
X570853Y494391D01*
X570825Y494113D01*
X570769Y493808D01*
X570742Y493447D01*
X570714Y493086D01*
X570686Y492669D01*
X570658Y492253D01*
Y491781D01*
Y482144D01*
X567520D01*
Y500723D01*
X570325D01*
Y498140D01*
X570380Y498168D01*
X570492Y498334D01*
X570686Y498584D01*
X570964Y498890D01*
X571297Y499251D01*
X571686Y499612D01*
X572130Y499973D01*
X572658Y500306D01*
X572685D01*
X572713Y500334D01*
X572796Y500389D01*
X572907Y500445D01*
X573046Y500500D01*
X573213Y500584D01*
X573602Y500723D01*
X574102Y500889D01*
X574657Y501000D01*
X575296Y501111D01*
X575962Y501139D01*
X576296D01*
X576490Y501111D01*
X576684Y501084D01*
X577156Y501028D01*
X577684Y500917D01*
X578239Y500778D01*
X578795Y500556D01*
X579322Y500278D01*
X579350D01*
X579378Y500250D01*
X579545Y500111D01*
X579767Y499917D01*
X580072Y499667D01*
X580378Y499306D01*
X580683Y498917D01*
X580961Y498445D01*
X581211Y497890D01*
X581239Y497918D01*
X581322Y498029D01*
X581433Y498195D01*
X581627Y498390D01*
X581822Y498640D01*
X582099Y498917D01*
X582405Y499223D01*
X582766Y499528D01*
X583155Y499806D01*
X583599Y500111D01*
X584071Y500389D01*
X584571Y500639D01*
X585126Y500834D01*
X585709Y501000D01*
X586320Y501111D01*
X586959Y501139D01*
X587237D01*
X587403Y501111D01*
D02*
G37*
G36*
X399040D02*
X399262D01*
X399789Y501056D01*
X400373Y500972D01*
X401039Y500861D01*
X401678Y500723D01*
X402316Y500500D01*
X402344D01*
X402400Y500472D01*
X402483Y500445D01*
X402594Y500389D01*
X402872Y500250D01*
X403261Y500056D01*
X403649Y499806D01*
X404038Y499501D01*
X404427Y499167D01*
X404760Y498779D01*
X404788Y498723D01*
X404899Y498584D01*
X405038Y498334D01*
X405204Y498029D01*
X405399Y497612D01*
X405566Y497112D01*
X405732Y496557D01*
X405871Y495918D01*
X402788Y495502D01*
Y495530D01*
Y495557D01*
X402733Y495724D01*
X402677Y496002D01*
X402566Y496307D01*
X402400Y496668D01*
X402178Y497029D01*
X401900Y497390D01*
X401567Y497723D01*
X401511Y497751D01*
X401372Y497862D01*
X401150Y498001D01*
X400845Y498140D01*
X400428Y498307D01*
X399928Y498418D01*
X399373Y498529D01*
X398706Y498556D01*
X398345D01*
X398179Y498529D01*
X397984D01*
X397512Y498473D01*
X397012Y498390D01*
X396485Y498251D01*
X396013Y498084D01*
X395818Y497973D01*
X395624Y497834D01*
X395596Y497807D01*
X395485Y497695D01*
X395346Y497557D01*
X395180Y497362D01*
X394985Y497112D01*
X394846Y496807D01*
X394735Y496501D01*
X394707Y496140D01*
Y496113D01*
Y496029D01*
X394735Y495918D01*
X394763Y495779D01*
X394874Y495418D01*
X394957Y495224D01*
X395069Y495030D01*
X395096Y495002D01*
X395152Y494946D01*
X395235Y494863D01*
X395374Y494752D01*
X395541Y494613D01*
X395763Y494474D01*
X396013Y494335D01*
X396290Y494197D01*
X396318D01*
X396401Y494169D01*
X396568Y494113D01*
X396818Y494030D01*
X396985Y493974D01*
X397179Y493919D01*
X397401Y493863D01*
X397651Y493780D01*
X397957Y493697D01*
X398290Y493613D01*
X398651Y493502D01*
X399067Y493391D01*
X399095D01*
X399206Y493363D01*
X399373Y493308D01*
X399623Y493252D01*
X399873Y493169D01*
X400178Y493086D01*
X400539Y492975D01*
X400900Y492864D01*
X401678Y492641D01*
X402427Y492391D01*
X402788Y492280D01*
X403122Y492141D01*
X403427Y492030D01*
X403705Y491919D01*
X403733D01*
X403760Y491892D01*
X403927Y491808D01*
X404177Y491697D01*
X404455Y491503D01*
X404788Y491281D01*
X405149Y491003D01*
X405482Y490670D01*
X405788Y490281D01*
X405816Y490225D01*
X405899Y490087D01*
X406038Y489864D01*
X406177Y489531D01*
X406315Y489142D01*
X406454Y488698D01*
X406537Y488170D01*
X406565Y487587D01*
Y487560D01*
Y487504D01*
Y487421D01*
Y487310D01*
X406510Y487004D01*
X406454Y486615D01*
X406343Y486171D01*
X406177Y485671D01*
X405927Y485144D01*
X405621Y484616D01*
Y484588D01*
X405566Y484560D01*
X405454Y484394D01*
X405232Y484144D01*
X404955Y483838D01*
X404566Y483477D01*
X404121Y483116D01*
X403594Y482783D01*
X402983Y482478D01*
X402955D01*
X402900Y482450D01*
X402816Y482422D01*
X402677Y482367D01*
X402511Y482311D01*
X402316Y482228D01*
X402094Y482172D01*
X401844Y482117D01*
X401261Y481978D01*
X400595Y481839D01*
X399873Y481756D01*
X399067Y481728D01*
X398706D01*
X398456Y481756D01*
X398179Y481783D01*
X397818Y481811D01*
X397429Y481839D01*
X397012Y481922D01*
X396124Y482089D01*
X395180Y482339D01*
X394735Y482505D01*
X394291Y482727D01*
X393902Y482950D01*
X393513Y483200D01*
X393486Y483227D01*
X393430Y483283D01*
X393347Y483366D01*
X393208Y483477D01*
X393069Y483644D01*
X392902Y483838D01*
X392708Y484060D01*
X392514Y484310D01*
X392291Y484616D01*
X392097Y484949D01*
X391903Y485310D01*
X391708Y485727D01*
X391542Y486143D01*
X391375Y486615D01*
X391236Y487143D01*
X391125Y487671D01*
X394235Y488170D01*
Y488143D01*
X394263Y488087D01*
Y488004D01*
X394291Y487865D01*
X394319Y487698D01*
X394374Y487532D01*
X394513Y487115D01*
X394707Y486643D01*
X394957Y486143D01*
X395263Y485699D01*
X395679Y485282D01*
X395707D01*
X395735Y485255D01*
X395902Y485144D01*
X396179Y484977D01*
X396568Y484810D01*
X397040Y484616D01*
X397623Y484477D01*
X398290Y484366D01*
X399040Y484310D01*
X399262D01*
X399401Y484338D01*
X399595D01*
X399789Y484366D01*
X400261Y484421D01*
X400789Y484533D01*
X401344Y484671D01*
X401844Y484894D01*
X402289Y485171D01*
X402344Y485199D01*
X402455Y485338D01*
X402622Y485504D01*
X402816Y485754D01*
X403011Y486060D01*
X403177Y486421D01*
X403288Y486810D01*
X403344Y487254D01*
Y487310D01*
Y487421D01*
X403288Y487643D01*
X403233Y487865D01*
X403122Y488143D01*
X402955Y488420D01*
X402705Y488698D01*
X402400Y488948D01*
X402372Y488976D01*
X402261Y489031D01*
X402067Y489115D01*
X401928Y489170D01*
X401761Y489226D01*
X401539Y489309D01*
X401317Y489392D01*
X401067Y489476D01*
X400761Y489559D01*
X400428Y489670D01*
X400039Y489781D01*
X399623Y489892D01*
X399178Y490003D01*
X399151D01*
X399040Y490031D01*
X398845Y490087D01*
X398623Y490142D01*
X398345Y490225D01*
X398012Y490309D01*
X397651Y490420D01*
X397262Y490531D01*
X396485Y490781D01*
X395679Y491031D01*
X395291Y491142D01*
X394957Y491281D01*
X394624Y491420D01*
X394346Y491531D01*
X394319D01*
X394291Y491558D01*
X394124Y491642D01*
X393902Y491781D01*
X393597Y492003D01*
X393263Y492253D01*
X392930Y492530D01*
X392597Y492891D01*
X392319Y493280D01*
X392291Y493336D01*
X392208Y493474D01*
X392097Y493724D01*
X391986Y494030D01*
X391875Y494391D01*
X391764Y494807D01*
X391681Y495280D01*
X391653Y495779D01*
Y495807D01*
Y495835D01*
Y496002D01*
X391681Y496224D01*
X391736Y496529D01*
X391792Y496890D01*
X391875Y497279D01*
X392014Y497695D01*
X392208Y498084D01*
X392236Y498140D01*
X392319Y498251D01*
X392430Y498445D01*
X392625Y498695D01*
X392819Y498973D01*
X393097Y499278D01*
X393402Y499556D01*
X393763Y499834D01*
X393791Y499862D01*
X393902Y499917D01*
X394069Y500028D01*
X394291Y500139D01*
X394569Y500278D01*
X394902Y500445D01*
X395318Y500611D01*
X395763Y500750D01*
X395791D01*
X395818Y500778D01*
X395985Y500806D01*
X396235Y500861D01*
X396596Y500945D01*
X396985Y501028D01*
X397457Y501084D01*
X397957Y501111D01*
X398484Y501139D01*
X398845D01*
X399040Y501111D01*
D02*
G37*
G36*
X468048D02*
X468298Y501084D01*
X468603Y501056D01*
X468937Y501000D01*
X469298Y500945D01*
X470075Y500750D01*
X470908Y500472D01*
X471325Y500306D01*
X471741Y500111D01*
X472130Y499862D01*
X472491Y499584D01*
X472519Y499556D01*
X472575Y499501D01*
X472686Y499417D01*
X472797Y499306D01*
X472963Y499140D01*
X473130Y498945D01*
X473324Y498723D01*
X473519Y498473D01*
X473741Y498168D01*
X473935Y497862D01*
X474157Y497501D01*
X474352Y497112D01*
X474518Y496696D01*
X474685Y496251D01*
X474852Y495752D01*
X474963Y495252D01*
X471908Y494780D01*
Y494807D01*
X471880Y494863D01*
X471852Y494946D01*
X471825Y495085D01*
X471714Y495418D01*
X471547Y495835D01*
X471325Y496279D01*
X471075Y496751D01*
X470742Y497196D01*
X470353Y497584D01*
X470297Y497640D01*
X470159Y497751D01*
X469909Y497890D01*
X469603Y498084D01*
X469214Y498251D01*
X468770Y498418D01*
X468242Y498529D01*
X467687Y498556D01*
X467465D01*
X467298Y498529D01*
X467076Y498501D01*
X466854Y498473D01*
X466298Y498334D01*
X465688Y498140D01*
X465382Y498001D01*
X465049Y497834D01*
X464743Y497640D01*
X464410Y497390D01*
X464105Y497140D01*
X463827Y496835D01*
X463799Y496807D01*
X463771Y496751D01*
X463688Y496668D01*
X463605Y496501D01*
X463494Y496335D01*
X463355Y496113D01*
X463216Y495835D01*
X463105Y495530D01*
X462966Y495168D01*
X462827Y494780D01*
X462688Y494335D01*
X462577Y493835D01*
X462494Y493308D01*
X462411Y492753D01*
X462383Y492114D01*
X462355Y491447D01*
Y491420D01*
Y491281D01*
Y491086D01*
X462383Y490836D01*
X462411Y490531D01*
X462438Y490170D01*
X462466Y489781D01*
X462522Y489364D01*
X462688Y488476D01*
X462966Y487560D01*
X463105Y487143D01*
X463299Y486726D01*
X463521Y486338D01*
X463771Y486004D01*
X463799Y485977D01*
X463827Y485921D01*
X463910Y485838D01*
X464021Y485754D01*
X464188Y485616D01*
X464355Y485477D01*
X464549Y485310D01*
X464771Y485171D01*
X465327Y484838D01*
X465965Y484588D01*
X466326Y484477D01*
X466687Y484394D01*
X467104Y484338D01*
X467520Y484310D01*
X467687D01*
X467826Y484338D01*
X467992D01*
X468159Y484366D01*
X468603Y484449D01*
X469075Y484588D01*
X469603Y484783D01*
X470103Y485060D01*
X470603Y485421D01*
X470631Y485449D01*
X470658Y485477D01*
X470797Y485643D01*
X471019Y485921D01*
X471131Y486088D01*
X471269Y486282D01*
X471408Y486532D01*
X471547Y486782D01*
X471658Y487060D01*
X471797Y487393D01*
X471908Y487726D01*
X472019Y488115D01*
X472102Y488504D01*
X472186Y488948D01*
X475268Y488531D01*
Y488504D01*
X475241Y488393D01*
X475213Y488226D01*
X475157Y488004D01*
X475074Y487726D01*
X474991Y487421D01*
X474879Y487087D01*
X474741Y486699D01*
X474407Y485921D01*
X474185Y485504D01*
X473935Y485088D01*
X473685Y484671D01*
X473380Y484255D01*
X473019Y483894D01*
X472658Y483533D01*
X472630Y483505D01*
X472575Y483450D01*
X472436Y483366D01*
X472297Y483255D01*
X472075Y483116D01*
X471852Y482950D01*
X471547Y482811D01*
X471242Y482644D01*
X470881Y482450D01*
X470492Y482311D01*
X470075Y482144D01*
X469631Y482006D01*
X469131Y481894D01*
X468631Y481811D01*
X468104Y481756D01*
X467548Y481728D01*
X467381D01*
X467187Y481756D01*
X466910D01*
X466604Y481811D01*
X466215Y481867D01*
X465799Y481922D01*
X465354Y482033D01*
X464882Y482172D01*
X464382Y482339D01*
X463882Y482533D01*
X463355Y482783D01*
X462855Y483061D01*
X462355Y483394D01*
X461883Y483755D01*
X461439Y484199D01*
X461411Y484227D01*
X461328Y484310D01*
X461217Y484449D01*
X461078Y484671D01*
X460911Y484921D01*
X460717Y485227D01*
X460495Y485616D01*
X460300Y486032D01*
X460078Y486504D01*
X459856Y487032D01*
X459661Y487615D01*
X459495Y488254D01*
X459356Y488948D01*
X459245Y489698D01*
X459162Y490503D01*
X459134Y491336D01*
Y491364D01*
Y491475D01*
Y491642D01*
X459162Y491836D01*
Y492114D01*
X459189Y492419D01*
X459217Y492753D01*
X459245Y493141D01*
X459384Y493947D01*
X459550Y494835D01*
X459773Y495752D01*
X460106Y496613D01*
Y496640D01*
X460161Y496724D01*
X460217Y496835D01*
X460300Y496974D01*
X460411Y497168D01*
X460522Y497390D01*
X460856Y497890D01*
X461272Y498418D01*
X461800Y499001D01*
X462411Y499528D01*
X463133Y500000D01*
X463161D01*
X463216Y500056D01*
X463327Y500111D01*
X463494Y500167D01*
X463688Y500278D01*
X463910Y500361D01*
X464160Y500472D01*
X464438Y500584D01*
X464771Y500667D01*
X465104Y500778D01*
X465854Y500972D01*
X466687Y501084D01*
X467548Y501139D01*
X467854D01*
X468048Y501111D01*
D02*
G37*
G36*
X518784Y482144D02*
X515646D01*
Y502167D01*
X515590Y502111D01*
X515451Y501972D01*
X515202Y501778D01*
X514841Y501500D01*
X514424Y501167D01*
X513896Y500806D01*
X513313Y500417D01*
X512647Y500000D01*
X512619D01*
X512563Y499945D01*
X512480Y499889D01*
X512341Y499834D01*
X512175Y499723D01*
X511980Y499639D01*
X511536Y499390D01*
X511036Y499140D01*
X510481Y498862D01*
X509897Y498612D01*
X509342Y498390D01*
Y501417D01*
X509370Y501444D01*
X509453Y501472D01*
X509592Y501556D01*
X509786Y501639D01*
X510008Y501750D01*
X510286Y501917D01*
X510592Y502083D01*
X510897Y502250D01*
X511619Y502694D01*
X512397Y503222D01*
X513202Y503777D01*
X513952Y504416D01*
X513980Y504444D01*
X514035Y504499D01*
X514146Y504583D01*
X514285Y504721D01*
X514424Y504888D01*
X514618Y505055D01*
X515035Y505527D01*
X515507Y506027D01*
X515979Y506610D01*
X516396Y507221D01*
X516757Y507859D01*
X518784D01*
Y482144D01*
D02*
G37*
G36*
X428670Y501111D02*
X428920D01*
X429448Y501056D01*
X430059Y501000D01*
X430697Y500889D01*
X431336Y500750D01*
X431919Y500556D01*
X431947D01*
X431975Y500528D01*
X432058Y500500D01*
X432169Y500445D01*
X432419Y500334D01*
X432752Y500167D01*
X433113Y499973D01*
X433474Y499723D01*
X433808Y499445D01*
X434113Y499140D01*
X434141Y499112D01*
X434224Y499001D01*
X434363Y498806D01*
X434502Y498556D01*
X434668Y498251D01*
X434835Y497890D01*
X435002Y497473D01*
X435113Y497001D01*
Y496974D01*
X435141Y496835D01*
X435168Y496640D01*
X435196Y496335D01*
X435224Y495946D01*
X435252Y495446D01*
Y495141D01*
X435279Y494835D01*
Y494502D01*
Y494113D01*
Y489920D01*
Y489864D01*
Y489726D01*
Y489503D01*
Y489226D01*
Y488865D01*
Y488476D01*
X435307Y488032D01*
Y487587D01*
X435335Y486643D01*
Y486171D01*
X435363Y485727D01*
X435391Y485310D01*
X435418Y484949D01*
X435446Y484616D01*
X435474Y484366D01*
Y484310D01*
X435502Y484172D01*
X435557Y483949D01*
X435640Y483644D01*
X435751Y483311D01*
X435890Y482950D01*
X436057Y482533D01*
X436251Y482144D01*
X432974D01*
X432947Y482200D01*
X432891Y482311D01*
X432808Y482533D01*
X432725Y482811D01*
X432614Y483144D01*
X432502Y483533D01*
X432419Y483977D01*
X432364Y484477D01*
X432336Y484449D01*
X432280Y484421D01*
X432197Y484338D01*
X432058Y484227D01*
X431891Y484116D01*
X431725Y483949D01*
X431281Y483644D01*
X430753Y483283D01*
X430197Y482922D01*
X429587Y482616D01*
X428976Y482339D01*
X428948D01*
X428892Y482311D01*
X428809Y482283D01*
X428698Y482255D01*
X428559Y482200D01*
X428365Y482144D01*
X427948Y482033D01*
X427421Y481922D01*
X426837Y481811D01*
X426199Y481756D01*
X425504Y481728D01*
X425199D01*
X425004Y481756D01*
X424755Y481783D01*
X424449Y481811D01*
X424116Y481839D01*
X423783Y481922D01*
X423005Y482089D01*
X422227Y482339D01*
X421867Y482505D01*
X421478Y482727D01*
X421144Y482950D01*
X420811Y483200D01*
X420784Y483227D01*
X420728Y483283D01*
X420672Y483366D01*
X420561Y483477D01*
X420423Y483616D01*
X420284Y483811D01*
X420145Y484005D01*
X420006Y484255D01*
X419700Y484783D01*
X419423Y485449D01*
X419312Y485810D01*
X419256Y486199D01*
X419201Y486615D01*
X419173Y487032D01*
Y487060D01*
Y487087D01*
Y487254D01*
X419201Y487532D01*
X419256Y487865D01*
X419312Y488254D01*
X419423Y488670D01*
X419589Y489087D01*
X419784Y489531D01*
X419811Y489587D01*
X419895Y489726D01*
X420034Y489920D01*
X420228Y490198D01*
X420450Y490475D01*
X420728Y490781D01*
X421033Y491058D01*
X421394Y491336D01*
X421450Y491364D01*
X421589Y491447D01*
X421783Y491586D01*
X422061Y491725D01*
X422394Y491892D01*
X422783Y492058D01*
X423227Y492225D01*
X423672Y492364D01*
X423727D01*
X423838Y492419D01*
X424060Y492447D01*
X424366Y492530D01*
X424755Y492586D01*
X425254Y492669D01*
X425810Y492753D01*
X426476Y492836D01*
X426532D01*
X426643Y492864D01*
X426837Y492891D01*
X427087Y492919D01*
X427421Y492975D01*
X427781Y493030D01*
X428170Y493086D01*
X428615Y493141D01*
X429531Y493308D01*
X430447Y493502D01*
X430892Y493613D01*
X431336Y493724D01*
X431725Y493835D01*
X432086Y493947D01*
Y493974D01*
Y494058D01*
Y494169D01*
X432114Y494280D01*
Y494558D01*
Y494669D01*
Y494752D01*
Y494780D01*
Y494835D01*
Y494946D01*
Y495057D01*
X432058Y495391D01*
X432003Y495807D01*
X431891Y496251D01*
X431725Y496696D01*
X431503Y497112D01*
X431197Y497446D01*
X431142Y497501D01*
X431086Y497557D01*
X430975Y497612D01*
X430836Y497695D01*
X430697Y497779D01*
X430309Y498001D01*
X429809Y498195D01*
X429198Y498362D01*
X428476Y498473D01*
X427643Y498529D01*
X427282D01*
X427087Y498501D01*
X426893D01*
X426393Y498445D01*
X425865Y498334D01*
X425338Y498195D01*
X424810Y498001D01*
X424366Y497751D01*
X424310Y497723D01*
X424199Y497612D01*
X424005Y497390D01*
X423783Y497112D01*
X423533Y496751D01*
X423255Y496251D01*
X423033Y495696D01*
X422922Y495363D01*
X422811Y495002D01*
X419728Y495418D01*
Y495446D01*
X419756Y495502D01*
X419784Y495613D01*
X419811Y495752D01*
X419867Y495918D01*
X419923Y496113D01*
X420061Y496557D01*
X420256Y497057D01*
X420478Y497584D01*
X420756Y498112D01*
X421089Y498584D01*
Y498612D01*
X421144Y498640D01*
X421283Y498779D01*
X421505Y499001D01*
X421811Y499278D01*
X422200Y499584D01*
X422672Y499889D01*
X423227Y500195D01*
X423866Y500472D01*
X423894D01*
X423949Y500500D01*
X424060Y500528D01*
X424199Y500584D01*
X424366Y500639D01*
X424560Y500695D01*
X424810Y500750D01*
X425088Y500806D01*
X425365Y500861D01*
X425699Y500917D01*
X426421Y501028D01*
X427226Y501111D01*
X428087Y501139D01*
X428476D01*
X428670Y501111D01*
D02*
G37*
G36*
X387598Y482144D02*
X384460D01*
Y500723D01*
X387598D01*
Y482144D01*
D02*
G37*
G36*
X368798Y507748D02*
X369131D01*
X369464Y507721D01*
X370214Y507693D01*
X370964Y507609D01*
X371714Y507526D01*
X372047Y507443D01*
X372353Y507387D01*
X372380D01*
X372464Y507360D01*
X372575Y507332D01*
X372714Y507276D01*
X372908Y507221D01*
X373130Y507165D01*
X373658Y506971D01*
X374241Y506721D01*
X374852Y506415D01*
X375491Y506027D01*
X376102Y505554D01*
X376129Y505527D01*
X376185Y505471D01*
X376296Y505388D01*
X376435Y505249D01*
X376601Y505082D01*
X376796Y504860D01*
X377018Y504638D01*
X377240Y504360D01*
X377490Y504055D01*
X377740Y503722D01*
X377990Y503361D01*
X378240Y502972D01*
X378712Y502111D01*
X379129Y501167D01*
Y501139D01*
X379184Y501056D01*
X379212Y500889D01*
X379295Y500695D01*
X379378Y500445D01*
X379462Y500139D01*
X379545Y499806D01*
X379656Y499417D01*
X379739Y498973D01*
X379823Y498501D01*
X379906Y498001D01*
X379989Y497473D01*
X380073Y496918D01*
X380100Y496335D01*
X380156Y495085D01*
Y495057D01*
Y494946D01*
Y494807D01*
Y494585D01*
X380128Y494335D01*
Y494030D01*
X380100Y493697D01*
X380073Y493336D01*
X379989Y492530D01*
X379851Y491669D01*
X379684Y490781D01*
X379462Y489892D01*
Y489864D01*
X379434Y489781D01*
X379378Y489670D01*
X379351Y489531D01*
X379267Y489337D01*
X379184Y489115D01*
X378990Y488587D01*
X378740Y488004D01*
X378434Y487365D01*
X378101Y486754D01*
X377712Y486171D01*
Y486143D01*
X377657Y486115D01*
X377601Y486032D01*
X377518Y485921D01*
X377323Y485671D01*
X377018Y485338D01*
X376685Y484949D01*
X376296Y484560D01*
X375852Y484199D01*
X375379Y483838D01*
X375352D01*
X375324Y483811D01*
X375157Y483700D01*
X374880Y483561D01*
X374519Y483366D01*
X374074Y483172D01*
X373547Y482950D01*
X372936Y482755D01*
X372297Y482561D01*
X372269D01*
X372214Y482533D01*
X372130D01*
X371992Y482505D01*
X371825Y482478D01*
X371603Y482422D01*
X371381Y482394D01*
X371131Y482367D01*
X370520Y482283D01*
X369826Y482200D01*
X369048Y482172D01*
X368215Y482144D01*
X358967D01*
Y507776D01*
X368520D01*
X368798Y507748D01*
D02*
G37*
G36*
X413952Y500723D02*
X417146D01*
Y498279D01*
X413952D01*
Y487393D01*
Y487365D01*
Y487337D01*
Y487171D01*
Y486948D01*
X413980Y486671D01*
Y486393D01*
X414035Y486115D01*
X414063Y485865D01*
X414119Y485671D01*
Y485643D01*
X414147Y485616D01*
X414257Y485449D01*
X414424Y485255D01*
X414646Y485060D01*
X414674D01*
X414730Y485032D01*
X414813Y485005D01*
X414924Y484949D01*
X415091Y484921D01*
X415257Y484866D01*
X415479Y484838D01*
X415951D01*
X416118Y484866D01*
X416313D01*
X416562Y484894D01*
X416840Y484921D01*
X417146Y484949D01*
X417562Y482172D01*
X417507D01*
X417340Y482117D01*
X417090Y482089D01*
X416757Y482033D01*
X416396Y481978D01*
X416007Y481950D01*
X415174Y481894D01*
X414896D01*
X414591Y481922D01*
X414202Y481950D01*
X413758Y482033D01*
X413313Y482117D01*
X412897Y482255D01*
X412508Y482422D01*
X412480Y482450D01*
X412369Y482533D01*
X412203Y482644D01*
X411980Y482811D01*
X411758Y483005D01*
X411536Y483255D01*
X411342Y483533D01*
X411175Y483838D01*
X411147Y483894D01*
X411120Y484033D01*
X411092Y484144D01*
X411064Y484283D01*
X411036Y484449D01*
X411008Y484644D01*
X410953Y484866D01*
X410925Y485144D01*
X410897Y485449D01*
X410870Y485782D01*
X410842Y486171D01*
Y486587D01*
X410814Y487060D01*
Y487560D01*
Y498279D01*
X408481D01*
Y500723D01*
X410814D01*
Y505304D01*
X413952Y507193D01*
Y500723D01*
D02*
G37*
G36*
X535723Y507832D02*
X535918Y507804D01*
X536418Y507748D01*
X536973Y507665D01*
X537584Y507498D01*
X538195Y507304D01*
X538806Y507026D01*
X538834D01*
X538889Y506998D01*
X538973Y506943D01*
X539084Y506860D01*
X539361Y506693D01*
X539722Y506415D01*
X540139Y506082D01*
X540555Y505665D01*
X541000Y505166D01*
X541389Y504610D01*
Y504583D01*
X541444Y504527D01*
X541472Y504444D01*
X541555Y504333D01*
X541639Y504194D01*
X541750Y503999D01*
X541833Y503777D01*
X541972Y503555D01*
X542222Y503000D01*
X542472Y502361D01*
X542749Y501611D01*
X542972Y500806D01*
Y500778D01*
X542999Y500695D01*
X543027Y500584D01*
X543055Y500389D01*
X543110Y500167D01*
X543166Y499889D01*
X543221Y499584D01*
X543277Y499223D01*
X543305Y498806D01*
X543360Y498362D01*
X543416Y497862D01*
X543471Y497334D01*
X543499Y496751D01*
X543527Y496140D01*
X543555Y495474D01*
Y494780D01*
Y494724D01*
Y494585D01*
Y494335D01*
Y494030D01*
X543527Y493641D01*
X543499Y493225D01*
X543471Y492725D01*
X543444Y492197D01*
X543388Y491614D01*
X543332Y491031D01*
X543166Y489809D01*
X542916Y488615D01*
X542777Y488032D01*
X542611Y487504D01*
Y487476D01*
X542555Y487393D01*
X542527Y487226D01*
X542444Y487060D01*
X542333Y486810D01*
X542222Y486560D01*
X542083Y486254D01*
X541916Y485921D01*
X541528Y485227D01*
X541055Y484533D01*
X540500Y483838D01*
X540167Y483533D01*
X539833Y483227D01*
X539806Y483200D01*
X539750Y483172D01*
X539639Y483088D01*
X539500Y483005D01*
X539334Y482894D01*
X539112Y482755D01*
X538862Y482616D01*
X538556Y482478D01*
X538251Y482339D01*
X537890Y482200D01*
X537529Y482089D01*
X537112Y481950D01*
X536668Y481867D01*
X536196Y481783D01*
X535723Y481756D01*
X535196Y481728D01*
X535029D01*
X534835Y481756D01*
X534585Y481783D01*
X534279Y481811D01*
X533919Y481867D01*
X533530Y481950D01*
X533085Y482061D01*
X532641Y482200D01*
X532169Y482367D01*
X531669Y482589D01*
X531197Y482839D01*
X530725Y483144D01*
X530253Y483505D01*
X529809Y483894D01*
X529392Y484366D01*
X529364Y484394D01*
X529281Y484505D01*
X529170Y484699D01*
X529003Y484977D01*
X528809Y485338D01*
X528587Y485754D01*
X528365Y486282D01*
X528142Y486865D01*
X527892Y487560D01*
X527670Y488309D01*
X527448Y489170D01*
X527254Y490114D01*
X527087Y491142D01*
X526976Y492253D01*
X526893Y493474D01*
X526865Y494780D01*
Y494835D01*
Y494974D01*
Y495224D01*
X526893Y495530D01*
Y495918D01*
X526920Y496363D01*
X526948Y496862D01*
X526976Y497390D01*
X527032Y497973D01*
X527087Y498556D01*
X527254Y499778D01*
X527476Y500972D01*
X527615Y501556D01*
X527781Y502083D01*
Y502111D01*
X527837Y502194D01*
X527892Y502361D01*
X527948Y502555D01*
X528059Y502777D01*
X528170Y503055D01*
X528309Y503333D01*
X528476Y503666D01*
X528864Y504360D01*
X529364Y505055D01*
X529920Y505749D01*
X530225Y506054D01*
X530558Y506360D01*
X530586Y506388D01*
X530642Y506415D01*
X530753Y506499D01*
X530892Y506582D01*
X531058Y506721D01*
X531280Y506832D01*
X531530Y506971D01*
X531836Y507110D01*
X532141Y507248D01*
X532502Y507387D01*
X532891Y507526D01*
X533280Y507637D01*
X533724Y507721D01*
X534196Y507804D01*
X534696Y507832D01*
X535196Y507859D01*
X535529D01*
X535723Y507832D01*
D02*
G37*
G36*
X485932Y501111D02*
X486182D01*
X486515Y501056D01*
X486876Y501000D01*
X487293Y500917D01*
X487737Y500834D01*
X488209Y500695D01*
X488681Y500528D01*
X489209Y500306D01*
X489709Y500056D01*
X490208Y499778D01*
X490708Y499417D01*
X491208Y499028D01*
X491652Y498584D01*
X491680Y498556D01*
X491764Y498473D01*
X491875Y498334D01*
X492014Y498112D01*
X492208Y497862D01*
X492402Y497557D01*
X492625Y497168D01*
X492847Y496751D01*
X493041Y496279D01*
X493263Y495752D01*
X493458Y495168D01*
X493652Y494530D01*
X493791Y493835D01*
X493902Y493086D01*
X493985Y492308D01*
X494013Y491475D01*
Y491420D01*
Y491281D01*
Y491003D01*
X493985Y490642D01*
X480128D01*
Y490614D01*
Y490503D01*
X480156Y490337D01*
X480184Y490142D01*
X480211Y489864D01*
X480267Y489587D01*
X480322Y489254D01*
X480406Y488893D01*
X480628Y488143D01*
X480933Y487337D01*
X481128Y486976D01*
X481322Y486587D01*
X481572Y486254D01*
X481850Y485921D01*
X481878Y485893D01*
X481933Y485865D01*
X482016Y485782D01*
X482127Y485671D01*
X482294Y485560D01*
X482461Y485421D01*
X482683Y485255D01*
X482933Y485116D01*
X483488Y484810D01*
X484155Y484560D01*
X484516Y484449D01*
X484904Y484394D01*
X485321Y484338D01*
X485738Y484310D01*
X485904D01*
X486015Y484338D01*
X486348Y484366D01*
X486765Y484421D01*
X487209Y484533D01*
X487709Y484699D01*
X488209Y484894D01*
X488681Y485199D01*
X488709D01*
X488737Y485255D01*
X488875Y485366D01*
X489098Y485588D01*
X489375Y485921D01*
X489681Y486310D01*
X490014Y486837D01*
X490347Y487448D01*
X490625Y488143D01*
X493902Y487726D01*
Y487698D01*
X493874Y487587D01*
X493819Y487448D01*
X493735Y487254D01*
X493652Y487004D01*
X493541Y486726D01*
X493402Y486421D01*
X493263Y486088D01*
X492874Y485393D01*
X492375Y484644D01*
X492069Y484283D01*
X491764Y483922D01*
X491430Y483588D01*
X491042Y483283D01*
X491014Y483255D01*
X490958Y483227D01*
X490819Y483144D01*
X490681Y483033D01*
X490458Y482922D01*
X490208Y482783D01*
X489931Y482644D01*
X489598Y482505D01*
X489236Y482367D01*
X488820Y482228D01*
X488403Y482089D01*
X487931Y481978D01*
X487431Y481867D01*
X486904Y481783D01*
X486321Y481756D01*
X485738Y481728D01*
X485571D01*
X485349Y481756D01*
X485071D01*
X484710Y481811D01*
X484321Y481867D01*
X483877Y481950D01*
X483405Y482033D01*
X482905Y482172D01*
X482377Y482339D01*
X481822Y482533D01*
X481294Y482783D01*
X480739Y483061D01*
X480239Y483394D01*
X479739Y483783D01*
X479267Y484227D01*
X479239Y484255D01*
X479156Y484338D01*
X479045Y484477D01*
X478906Y484699D01*
X478712Y484949D01*
X478517Y485255D01*
X478295Y485616D01*
X478101Y486032D01*
X477879Y486504D01*
X477657Y487032D01*
X477462Y487615D01*
X477268Y488254D01*
X477129Y488920D01*
X477018Y489642D01*
X476934Y490420D01*
X476907Y491253D01*
Y491308D01*
Y491447D01*
X476934Y491697D01*
Y492030D01*
X476990Y492419D01*
X477045Y492864D01*
X477101Y493391D01*
X477212Y493919D01*
X477323Y494502D01*
X477490Y495085D01*
X477684Y495696D01*
X477906Y496307D01*
X478184Y496890D01*
X478517Y497473D01*
X478878Y498029D01*
X479295Y498529D01*
X479323Y498556D01*
X479406Y498640D01*
X479545Y498779D01*
X479739Y498945D01*
X479961Y499140D01*
X480267Y499362D01*
X480600Y499584D01*
X480989Y499834D01*
X481405Y500084D01*
X481878Y500306D01*
X482405Y500528D01*
X482961Y500723D01*
X483571Y500889D01*
X484182Y501028D01*
X484877Y501111D01*
X485571Y501139D01*
X485738D01*
X485932Y501111D01*
D02*
G37*
G36*
X430545Y472936D02*
X427407D01*
Y476518D01*
X430545D01*
Y472936D01*
D02*
G37*
G36*
X523630Y476574D02*
X523880Y476546D01*
X524185Y476518D01*
X524518Y476463D01*
X524879Y476379D01*
X525685Y476185D01*
X526073Y476046D01*
X526518Y475879D01*
X526934Y475685D01*
X527323Y475435D01*
X527712Y475185D01*
X528101Y474880D01*
X528128Y474852D01*
X528184Y474796D01*
X528295Y474713D01*
X528406Y474574D01*
X528573Y474408D01*
X528739Y474186D01*
X528934Y473936D01*
X529128Y473658D01*
X529322Y473352D01*
X529517Y472991D01*
X529711Y472603D01*
X529906Y472186D01*
X530072Y471742D01*
X530211Y471270D01*
X530350Y470770D01*
X530433Y470214D01*
X527295Y469964D01*
Y469992D01*
X527268Y470048D01*
X527240Y470131D01*
X527212Y470270D01*
X527129Y470603D01*
X526990Y470992D01*
X526823Y471436D01*
X526601Y471881D01*
X526379Y472297D01*
X526101Y472658D01*
X526073Y472686D01*
X526046Y472714D01*
X525962Y472797D01*
X525879Y472880D01*
X525601Y473102D01*
X525213Y473352D01*
X524768Y473602D01*
X524213Y473797D01*
X523602Y473963D01*
X523269Y473991D01*
X522935Y474019D01*
X522685D01*
X522380Y473963D01*
X522019Y473908D01*
X521602Y473797D01*
X521158Y473658D01*
X520714Y473436D01*
X520269Y473158D01*
X520242D01*
X520214Y473102D01*
X520131Y473047D01*
X520020Y472964D01*
X519770Y472714D01*
X519436Y472353D01*
X519048Y471908D01*
X518659Y471353D01*
X518298Y470714D01*
X517937Y469992D01*
Y469964D01*
X517909Y469909D01*
X517853Y469770D01*
X517798Y469603D01*
X517742Y469409D01*
X517659Y469131D01*
X517576Y468826D01*
X517492Y468493D01*
X517409Y468104D01*
X517354Y467660D01*
X517270Y467160D01*
X517187Y466632D01*
X517132Y466077D01*
X517104Y465466D01*
X517076Y464799D01*
X517049Y464134D01*
X517048Y464133D01*
Y464105D01*
X517049Y464134D01*
X517104Y464188D01*
X517159Y464272D01*
X517243Y464383D01*
X517492Y464688D01*
X517798Y465077D01*
X518215Y465493D01*
X518687Y465910D01*
X519214Y466299D01*
X519797Y466660D01*
X519825D01*
X519881Y466688D01*
X519964Y466743D01*
X520075Y466799D01*
X520242Y466854D01*
X520408Y466937D01*
X520853Y467104D01*
X521380Y467243D01*
X521964Y467382D01*
X522602Y467493D01*
X523269Y467521D01*
X523408D01*
X523574Y467493D01*
X523796D01*
X524074Y467437D01*
X524379Y467410D01*
X524741Y467326D01*
X525129Y467243D01*
X525518Y467104D01*
X525962Y466965D01*
X526407Y466771D01*
X526851Y466549D01*
X527323Y466271D01*
X527767Y465966D01*
X528212Y465604D01*
X528628Y465188D01*
X528656Y465160D01*
X528712Y465077D01*
X528823Y464966D01*
X528989Y464771D01*
X529156Y464549D01*
X529322Y464272D01*
X529545Y463938D01*
X529739Y463577D01*
X529934Y463161D01*
X530156Y462716D01*
X530322Y462217D01*
X530517Y461689D01*
X530655Y461134D01*
X530767Y460523D01*
X530822Y459884D01*
X530850Y459217D01*
Y459190D01*
Y459106D01*
Y458995D01*
X530822Y458801D01*
Y458606D01*
X530794Y458357D01*
X530767Y458051D01*
X530711Y457746D01*
X530600Y457051D01*
X530406Y456302D01*
X530156Y455524D01*
X529795Y454719D01*
Y454691D01*
X529739Y454635D01*
X529683Y454524D01*
X529600Y454386D01*
X529489Y454219D01*
X529378Y454024D01*
X529045Y453552D01*
X528656Y453053D01*
X528156Y452525D01*
X527573Y451997D01*
X526934Y451553D01*
X526906D01*
X526851Y451497D01*
X526740Y451442D01*
X526601Y451386D01*
X526435Y451303D01*
X526240Y451220D01*
X525990Y451109D01*
X525740Y451025D01*
X525129Y450803D01*
X524407Y450636D01*
X523630Y450525D01*
X522797Y450470D01*
X522630D01*
X522408Y450498D01*
X522130Y450525D01*
X521797Y450553D01*
X521408Y450636D01*
X520992Y450720D01*
X520519Y450831D01*
X520020Y450997D01*
X519492Y451164D01*
X518964Y451414D01*
X518437Y451692D01*
X517881Y452025D01*
X517381Y452414D01*
X516854Y452858D01*
X516382Y453358D01*
X516354Y453386D01*
X516271Y453497D01*
X516160Y453663D01*
X515993Y453913D01*
X515799Y454219D01*
X515604Y454608D01*
X515382Y455080D01*
X515160Y455635D01*
X514910Y456246D01*
X514688Y456940D01*
X514493Y457718D01*
X514299Y458579D01*
X514132Y459523D01*
X514021Y460550D01*
X513938Y461661D01*
X513910Y462855D01*
Y462883D01*
Y462939D01*
Y463050D01*
Y463189D01*
Y463355D01*
X513938Y463577D01*
Y463799D01*
X513966Y464077D01*
X513994Y464688D01*
X514049Y465382D01*
X514132Y466160D01*
X514243Y466993D01*
X514410Y467882D01*
X514577Y468770D01*
X514799Y469659D01*
X515076Y470548D01*
X515382Y471409D01*
X515743Y472242D01*
X516187Y472991D01*
X516659Y473658D01*
X516687Y473686D01*
X516771Y473797D01*
X516909Y473936D01*
X517104Y474130D01*
X517326Y474352D01*
X517631Y474602D01*
X517965Y474852D01*
X518353Y475130D01*
X518798Y475407D01*
X519298Y475657D01*
X519825Y475907D01*
X520408Y476129D01*
X521019Y476324D01*
X521686Y476463D01*
X522380Y476574D01*
X523130Y476602D01*
X523435D01*
X523630Y476574D01*
D02*
G37*
G36*
X450261Y450886D02*
X447345D01*
Y453219D01*
X447318Y453191D01*
X447262Y453108D01*
X447151Y452969D01*
X447012Y452803D01*
X446818Y452580D01*
X446596Y452358D01*
X446346Y452108D01*
X446040Y451858D01*
X445679Y451581D01*
X445291Y451331D01*
X444874Y451109D01*
X444402Y450914D01*
X443874Y450720D01*
X443347Y450581D01*
X442763Y450498D01*
X442125Y450470D01*
X441903D01*
X441736Y450498D01*
X441542D01*
X441319Y450525D01*
X441070Y450581D01*
X440792Y450636D01*
X440153Y450775D01*
X439459Y450997D01*
X438765Y451303D01*
X438404Y451470D01*
X438042Y451692D01*
X438015Y451720D01*
X437959Y451747D01*
X437876Y451831D01*
X437737Y451914D01*
X437570Y452053D01*
X437404Y452192D01*
X436987Y452580D01*
X436515Y453053D01*
X436043Y453636D01*
X435571Y454330D01*
X435154Y455107D01*
Y455135D01*
X435099Y455219D01*
X435071Y455330D01*
X434988Y455496D01*
X434932Y455691D01*
X434849Y455941D01*
X434738Y456246D01*
X434655Y456552D01*
X434571Y456913D01*
X434460Y457301D01*
X434377Y457718D01*
X434321Y458162D01*
X434210Y459106D01*
X434155Y460134D01*
Y460162D01*
Y460273D01*
Y460412D01*
X434183Y460606D01*
Y460856D01*
X434210Y461134D01*
X434238Y461467D01*
X434266Y461828D01*
X434377Y462605D01*
X434544Y463439D01*
X434766Y464327D01*
X435071Y465188D01*
Y465216D01*
X435127Y465299D01*
X435182Y465410D01*
X435238Y465577D01*
X435349Y465743D01*
X435460Y465966D01*
X435765Y466465D01*
X436154Y467049D01*
X436626Y467604D01*
X437182Y468159D01*
X437848Y468659D01*
X437876Y468687D01*
X437931Y468715D01*
X438042Y468770D01*
X438181Y468854D01*
X438348Y468937D01*
X438570Y469048D01*
X438792Y469159D01*
X439070Y469270D01*
X439681Y469492D01*
X440375Y469687D01*
X441153Y469826D01*
X441569Y469881D01*
X442264D01*
X442597Y469853D01*
X442986Y469798D01*
X443458Y469714D01*
X443958Y469576D01*
X444485Y469409D01*
X444985Y469159D01*
X445013D01*
X445041Y469131D01*
X445207Y469020D01*
X445429Y468881D01*
X445735Y468659D01*
X446068Y468382D01*
X446429Y468076D01*
X446790Y467715D01*
X447123Y467299D01*
Y476518D01*
X450261D01*
Y450886D01*
D02*
G37*
G36*
X584529Y469853D02*
X584779Y469826D01*
X585029Y469798D01*
X585335Y469742D01*
X585668Y469687D01*
X586334Y469492D01*
X587056Y469215D01*
X587390Y469048D01*
X587723Y468854D01*
X588056Y468604D01*
X588334Y468326D01*
X588362Y468298D01*
X588389Y468243D01*
X588473Y468159D01*
X588556Y468048D01*
X588695Y467882D01*
X588806Y467687D01*
X588945Y467437D01*
X589084Y467160D01*
X589222Y466854D01*
X589361Y466521D01*
X589500Y466132D01*
X589611Y465716D01*
X589694Y465243D01*
X589778Y464744D01*
X589806Y464216D01*
X589833Y463633D01*
Y450886D01*
X586695D01*
Y462578D01*
Y462605D01*
Y462661D01*
Y462772D01*
Y462883D01*
X586668Y463216D01*
Y463633D01*
X586612Y464077D01*
X586556Y464522D01*
X586501Y464938D01*
X586390Y465299D01*
Y465327D01*
X586334Y465438D01*
X586251Y465577D01*
X586140Y465771D01*
X585973Y465993D01*
X585807Y466216D01*
X585557Y466438D01*
X585279Y466632D01*
X585251Y466660D01*
X585140Y466715D01*
X584974Y466799D01*
X584752Y466910D01*
X584474Y466993D01*
X584140Y467076D01*
X583779Y467132D01*
X583391Y467160D01*
X583196D01*
X583057Y467132D01*
X582891D01*
X582696Y467104D01*
X582252Y466993D01*
X581725Y466854D01*
X581169Y466604D01*
X580642Y466299D01*
X580364Y466077D01*
X580114Y465855D01*
Y465827D01*
X580058Y465799D01*
X580003Y465716D01*
X579919Y465604D01*
X579808Y465466D01*
X579697Y465299D01*
X579586Y465077D01*
X579475Y464855D01*
X579336Y464577D01*
X579225Y464272D01*
X579114Y463911D01*
X579003Y463550D01*
X578920Y463133D01*
X578864Y462661D01*
X578836Y462189D01*
X578809Y461661D01*
Y450886D01*
X575671D01*
Y462939D01*
Y462966D01*
Y463022D01*
Y463133D01*
Y463300D01*
X575643Y463466D01*
Y463661D01*
X575587Y464133D01*
X575476Y464633D01*
X575337Y465160D01*
X575143Y465660D01*
X574893Y466104D01*
X574865Y466160D01*
X574754Y466271D01*
X574560Y466438D01*
X574310Y466632D01*
X573949Y466826D01*
X573532Y466993D01*
X573005Y467104D01*
X572394Y467160D01*
X572172D01*
X571922Y467132D01*
X571589Y467076D01*
X571200Y466993D01*
X570783Y466854D01*
X570367Y466688D01*
X569922Y466438D01*
X569867Y466410D01*
X569728Y466299D01*
X569533Y466160D01*
X569311Y465910D01*
X569034Y465632D01*
X568756Y465271D01*
X568506Y464855D01*
X568284Y464383D01*
Y464355D01*
X568256Y464327D01*
X568228Y464244D01*
X568200Y464133D01*
X568173Y463994D01*
X568117Y463827D01*
X568089Y463633D01*
X568034Y463411D01*
X567978Y463133D01*
X567951Y462855D01*
X567895Y462550D01*
X567867Y462189D01*
X567839Y461828D01*
X567812Y461411D01*
X567784Y460995D01*
Y460523D01*
Y450886D01*
X564646D01*
Y469465D01*
X567451D01*
Y466882D01*
X567506Y466910D01*
X567617Y467076D01*
X567812Y467326D01*
X568089Y467632D01*
X568423Y467993D01*
X568812Y468354D01*
X569256Y468715D01*
X569783Y469048D01*
X569811D01*
X569839Y469076D01*
X569922Y469131D01*
X570033Y469187D01*
X570172Y469242D01*
X570339Y469326D01*
X570728Y469465D01*
X571228Y469631D01*
X571783Y469742D01*
X572422Y469853D01*
X573088Y469881D01*
X573421D01*
X573616Y469853D01*
X573810Y469826D01*
X574282Y469770D01*
X574810Y469659D01*
X575365Y469520D01*
X575921Y469298D01*
X576448Y469020D01*
X576476D01*
X576504Y468993D01*
X576670Y468854D01*
X576893Y468659D01*
X577198Y468409D01*
X577503Y468048D01*
X577809Y467660D01*
X578087Y467187D01*
X578337Y466632D01*
X578364Y466660D01*
X578448Y466771D01*
X578559Y466937D01*
X578753Y467132D01*
X578947Y467382D01*
X579225Y467660D01*
X579531Y467965D01*
X579892Y468270D01*
X580280Y468548D01*
X580725Y468854D01*
X581197Y469131D01*
X581697Y469381D01*
X582252Y469576D01*
X582835Y469742D01*
X583446Y469853D01*
X584085Y469881D01*
X584363D01*
X584529Y469853D01*
D02*
G37*
G36*
X554704D02*
X554954Y469826D01*
X555204Y469798D01*
X555510Y469742D01*
X555843Y469687D01*
X556509Y469492D01*
X557231Y469215D01*
X557565Y469048D01*
X557898Y468854D01*
X558231Y468604D01*
X558509Y468326D01*
X558537Y468298D01*
X558564Y468243D01*
X558648Y468159D01*
X558731Y468048D01*
X558870Y467882D01*
X558981Y467687D01*
X559120Y467437D01*
X559259Y467160D01*
X559397Y466854D01*
X559536Y466521D01*
X559675Y466132D01*
X559786Y465716D01*
X559869Y465243D01*
X559953Y464744D01*
X559981Y464216D01*
X560008Y463633D01*
Y450886D01*
X556870D01*
Y462578D01*
Y462605D01*
Y462661D01*
Y462772D01*
Y462883D01*
X556843Y463216D01*
Y463633D01*
X556787Y464077D01*
X556732Y464522D01*
X556676Y464938D01*
X556565Y465299D01*
Y465327D01*
X556509Y465438D01*
X556426Y465577D01*
X556315Y465771D01*
X556148Y465993D01*
X555982Y466216D01*
X555732Y466438D01*
X555454Y466632D01*
X555426Y466660D01*
X555315Y466715D01*
X555149Y466799D01*
X554926Y466910D01*
X554649Y466993D01*
X554316Y467076D01*
X553955Y467132D01*
X553566Y467160D01*
X553371D01*
X553232Y467132D01*
X553066D01*
X552872Y467104D01*
X552427Y466993D01*
X551899Y466854D01*
X551344Y466604D01*
X550816Y466299D01*
X550539Y466077D01*
X550289Y465855D01*
Y465827D01*
X550233Y465799D01*
X550178Y465716D01*
X550095Y465604D01*
X549983Y465466D01*
X549872Y465299D01*
X549761Y465077D01*
X549650Y464855D01*
X549511Y464577D01*
X549400Y464272D01*
X549289Y463911D01*
X549178Y463550D01*
X549095Y463133D01*
X549039Y462661D01*
X549012Y462189D01*
X548984Y461661D01*
Y450886D01*
X545846D01*
Y462939D01*
Y462966D01*
Y463022D01*
Y463133D01*
Y463300D01*
X545818Y463466D01*
Y463661D01*
X545762Y464133D01*
X545651Y464633D01*
X545512Y465160D01*
X545318Y465660D01*
X545068Y466104D01*
X545040Y466160D01*
X544929Y466271D01*
X544735Y466438D01*
X544485Y466632D01*
X544124Y466826D01*
X543707Y466993D01*
X543180Y467104D01*
X542569Y467160D01*
X542347D01*
X542097Y467132D01*
X541763Y467076D01*
X541375Y466993D01*
X540958Y466854D01*
X540542Y466688D01*
X540097Y466438D01*
X540042Y466410D01*
X539903Y466299D01*
X539709Y466160D01*
X539486Y465910D01*
X539209Y465632D01*
X538931Y465271D01*
X538681Y464855D01*
X538459Y464383D01*
Y464355D01*
X538431Y464327D01*
X538403Y464244D01*
X538376Y464133D01*
X538348Y463994D01*
X538292Y463827D01*
X538265Y463633D01*
X538209Y463411D01*
X538153Y463133D01*
X538126Y462855D01*
X538070Y462550D01*
X538042Y462189D01*
X538015Y461828D01*
X537987Y461411D01*
X537959Y460995D01*
Y460523D01*
Y450886D01*
X534821D01*
Y469465D01*
X537626D01*
Y466882D01*
X537681Y466910D01*
X537792Y467076D01*
X537987Y467326D01*
X538265Y467632D01*
X538598Y467993D01*
X538986Y468354D01*
X539431Y468715D01*
X539958Y469048D01*
X539986D01*
X540014Y469076D01*
X540097Y469131D01*
X540208Y469187D01*
X540347Y469242D01*
X540514Y469326D01*
X540903Y469465D01*
X541402Y469631D01*
X541958Y469742D01*
X542597Y469853D01*
X543263Y469881D01*
X543596D01*
X543791Y469853D01*
X543985Y469826D01*
X544457Y469770D01*
X544985Y469659D01*
X545540Y469520D01*
X546096Y469298D01*
X546623Y469020D01*
X546651D01*
X546679Y468993D01*
X546845Y468854D01*
X547068Y468659D01*
X547373Y468409D01*
X547679Y468048D01*
X547984Y467660D01*
X548262Y467187D01*
X548512Y466632D01*
X548539Y466660D01*
X548623Y466771D01*
X548734Y466937D01*
X548928Y467132D01*
X549122Y467382D01*
X549400Y467660D01*
X549706Y467965D01*
X550067Y468270D01*
X550456Y468548D01*
X550900Y468854D01*
X551372Y469131D01*
X551872Y469381D01*
X552427Y469576D01*
X553010Y469742D01*
X553621Y469853D01*
X554260Y469881D01*
X554538D01*
X554704Y469853D01*
D02*
G37*
G36*
X417604Y450886D02*
X414299D01*
X408940Y470409D01*
Y470436D01*
X408912Y470520D01*
X408884Y470631D01*
X408828Y470797D01*
X408773Y470992D01*
X408717Y471214D01*
X408579Y471714D01*
X408440Y472214D01*
X408301Y472714D01*
X408245Y472936D01*
X408190Y473130D01*
X408134Y473297D01*
X408107Y473408D01*
Y473380D01*
X408079Y473325D01*
Y473241D01*
X408023Y473102D01*
X407995Y472964D01*
X407968Y472769D01*
X407857Y472380D01*
X407746Y471908D01*
X407607Y471381D01*
X407468Y470881D01*
X407329Y470409D01*
X401941Y450886D01*
X398415D01*
X391667Y476518D01*
X395166D01*
X399026Y459690D01*
Y459662D01*
X399054Y459578D01*
X399081Y459440D01*
X399137Y459245D01*
X399192Y458995D01*
X399248Y458718D01*
X399331Y458412D01*
X399414Y458051D01*
X399498Y457662D01*
X399581Y457246D01*
X399748Y456385D01*
X399942Y455441D01*
X400109Y454469D01*
Y454524D01*
X400164Y454635D01*
X400192Y454857D01*
X400275Y455107D01*
X400331Y455441D01*
X400414Y455802D01*
X400525Y456190D01*
X400609Y456579D01*
X400831Y457412D01*
X400914Y457801D01*
X401025Y458190D01*
X401108Y458523D01*
X401164Y458801D01*
X401220Y459023D01*
X401275Y459190D01*
X406163Y476518D01*
X410245D01*
X413883Y463522D01*
X413910Y463466D01*
X413938Y463300D01*
X414021Y463050D01*
X414105Y462689D01*
X414216Y462272D01*
X414355Y461772D01*
X414494Y461217D01*
X414660Y460578D01*
X414827Y459912D01*
X414993Y459190D01*
X415160Y458440D01*
X415327Y457662D01*
X415632Y456079D01*
X415910Y454469D01*
Y454496D01*
X415938Y454580D01*
X415965Y454719D01*
X415993Y454885D01*
X416049Y455135D01*
X416104Y455413D01*
X416188Y455718D01*
X416271Y456079D01*
X416354Y456468D01*
X416437Y456885D01*
X416549Y457357D01*
X416660Y457829D01*
X416910Y458884D01*
X417187Y460023D01*
X421214Y476518D01*
X424630D01*
X417604Y450886D01*
D02*
G37*
G36*
X505996D02*
X502858D01*
Y470909D01*
X502802Y470853D01*
X502663Y470714D01*
X502413Y470520D01*
X502052Y470242D01*
X501636Y469909D01*
X501108Y469548D01*
X500525Y469159D01*
X499859Y468743D01*
X499831D01*
X499775Y468687D01*
X499692Y468632D01*
X499553Y468576D01*
X499387Y468465D01*
X499192Y468382D01*
X498748Y468132D01*
X498248Y467882D01*
X497692Y467604D01*
X497109Y467354D01*
X496554Y467132D01*
Y470159D01*
X496582Y470187D01*
X496665Y470214D01*
X496804Y470298D01*
X496998Y470381D01*
X497220Y470492D01*
X497498Y470659D01*
X497804Y470825D01*
X498109Y470992D01*
X498831Y471436D01*
X499609Y471964D01*
X500414Y472519D01*
X501164Y473158D01*
X501192Y473186D01*
X501247Y473241D01*
X501358Y473325D01*
X501497Y473463D01*
X501636Y473630D01*
X501830Y473797D01*
X502247Y474269D01*
X502719Y474769D01*
X503191Y475352D01*
X503608Y475963D01*
X503968Y476602D01*
X505996D01*
Y450886D01*
D02*
G37*
G36*
X468312Y467299D02*
X468340Y467326D01*
X468423Y467410D01*
X468534Y467548D01*
X468701Y467715D01*
X468923Y467909D01*
X469173Y468104D01*
X469478Y468354D01*
X469839Y468604D01*
X470200Y468826D01*
X470617Y469076D01*
X471089Y469270D01*
X471561Y469492D01*
X472089Y469631D01*
X472644Y469770D01*
X473227Y469853D01*
X473838Y469881D01*
X474171D01*
X474366Y469853D01*
X474560Y469826D01*
X475060Y469770D01*
X475615Y469687D01*
X476198Y469520D01*
X476810Y469326D01*
X477393Y469048D01*
X477420D01*
X477448Y469020D01*
X477531Y468965D01*
X477643Y468909D01*
X477920Y468715D01*
X478254Y468465D01*
X478587Y468159D01*
X478975Y467771D01*
X479309Y467299D01*
X479587Y466799D01*
Y466771D01*
X479614Y466743D01*
X479642Y466660D01*
X479698Y466549D01*
X479753Y466382D01*
X479809Y466216D01*
X479864Y465993D01*
X479920Y465743D01*
X479975Y465466D01*
X480031Y465160D01*
X480086Y464827D01*
X480142Y464438D01*
X480197Y464049D01*
X480225Y463605D01*
X480253Y463133D01*
Y462633D01*
Y450886D01*
X477115D01*
Y462633D01*
Y462661D01*
Y462744D01*
Y462855D01*
X477087Y463022D01*
Y463216D01*
X477059Y463439D01*
X476976Y463938D01*
X476865Y464522D01*
X476671Y465077D01*
X476421Y465632D01*
X476282Y465855D01*
X476087Y466077D01*
X476032Y466132D01*
X475893Y466243D01*
X475671Y466410D01*
X475338Y466632D01*
X474921Y466826D01*
X474449Y466993D01*
X473866Y467104D01*
X473199Y467160D01*
X472977D01*
X472699Y467132D01*
X472338Y467076D01*
X471950Y466965D01*
X471505Y466854D01*
X471033Y466660D01*
X470561Y466410D01*
X470506Y466382D01*
X470367Y466271D01*
X470145Y466104D01*
X469895Y465882D01*
X469589Y465604D01*
X469312Y465271D01*
X469034Y464883D01*
X468812Y464438D01*
X468784Y464383D01*
X468756Y464299D01*
X468728Y464216D01*
X468645Y463938D01*
X468562Y463550D01*
X468478Y463077D01*
X468395Y462494D01*
X468340Y461800D01*
X468312Y461023D01*
Y450886D01*
X465174D01*
Y476518D01*
X468312D01*
Y467299D01*
D02*
G37*
G36*
X430545Y450886D02*
X427407D01*
Y469465D01*
X430545D01*
Y450886D01*
D02*
G37*
G36*
X458898Y469465D02*
X462091D01*
Y467021D01*
X458898D01*
Y456135D01*
Y456107D01*
Y456079D01*
Y455913D01*
Y455691D01*
X458926Y455413D01*
Y455135D01*
X458981Y454857D01*
X459009Y454608D01*
X459064Y454413D01*
Y454386D01*
X459092Y454358D01*
X459203Y454191D01*
X459370Y453997D01*
X459592Y453802D01*
X459620D01*
X459675Y453774D01*
X459759Y453747D01*
X459870Y453691D01*
X460036Y453663D01*
X460203Y453608D01*
X460425Y453580D01*
X460897D01*
X461064Y453608D01*
X461258D01*
X461508Y453636D01*
X461786Y453663D01*
X462091Y453691D01*
X462508Y450914D01*
X462452D01*
X462286Y450859D01*
X462036Y450831D01*
X461703Y450775D01*
X461342Y450720D01*
X460953Y450692D01*
X460120Y450636D01*
X459842D01*
X459537Y450664D01*
X459148Y450692D01*
X458703Y450775D01*
X458259Y450859D01*
X457843Y450997D01*
X457454Y451164D01*
X457426Y451192D01*
X457315Y451275D01*
X457148Y451386D01*
X456926Y451553D01*
X456704Y451747D01*
X456482Y451997D01*
X456287Y452275D01*
X456121Y452580D01*
X456093Y452636D01*
X456065Y452775D01*
X456038Y452886D01*
X456010Y453025D01*
X455982Y453191D01*
X455954Y453386D01*
X455899Y453608D01*
X455871Y453886D01*
X455843Y454191D01*
X455815Y454524D01*
X455788Y454913D01*
Y455330D01*
X455760Y455802D01*
Y456302D01*
Y467021D01*
X453427D01*
Y469465D01*
X455760D01*
Y474047D01*
X458898Y475935D01*
Y469465D01*
D02*
G37*
G36*
X425352Y441678D02*
X422214D01*
Y445260D01*
X425352D01*
Y441678D01*
D02*
G37*
G36*
X599247Y438595D02*
X599497Y438568D01*
X599747Y438540D01*
X600053Y438484D01*
X600386Y438429D01*
X601052Y438234D01*
X601775Y437957D01*
X602108Y437790D01*
X602441Y437596D01*
X602774Y437346D01*
X603052Y437068D01*
X603080Y437040D01*
X603107Y436985D01*
X603191Y436902D01*
X603274Y436790D01*
X603413Y436624D01*
X603524Y436429D01*
X603663Y436179D01*
X603802Y435902D01*
X603940Y435596D01*
X604079Y435263D01*
X604218Y434874D01*
X604329Y434458D01*
X604413Y433986D01*
X604496Y433486D01*
X604524Y432958D01*
X604552Y432375D01*
Y419628D01*
X601413D01*
Y431320D01*
Y431348D01*
Y431403D01*
Y431514D01*
Y431625D01*
X601386Y431958D01*
Y432375D01*
X601330Y432819D01*
X601275Y433264D01*
X601219Y433680D01*
X601108Y434041D01*
Y434069D01*
X601052Y434180D01*
X600969Y434319D01*
X600858Y434513D01*
X600691Y434735D01*
X600525Y434958D01*
X600275Y435180D01*
X599997Y435374D01*
X599969Y435402D01*
X599858Y435457D01*
X599692Y435541D01*
X599470Y435652D01*
X599192Y435735D01*
X598859Y435818D01*
X598498Y435874D01*
X598109Y435902D01*
X597914D01*
X597776Y435874D01*
X597609D01*
X597415Y435846D01*
X596970Y435735D01*
X596443Y435596D01*
X595887Y435346D01*
X595360Y435041D01*
X595082Y434819D01*
X594832Y434597D01*
Y434569D01*
X594776Y434541D01*
X594721Y434458D01*
X594638Y434347D01*
X594526Y434208D01*
X594415Y434041D01*
X594304Y433819D01*
X594193Y433597D01*
X594054Y433319D01*
X593943Y433014D01*
X593832Y432653D01*
X593721Y432292D01*
X593638Y431875D01*
X593582Y431403D01*
X593554Y430931D01*
X593527Y430403D01*
Y419628D01*
X590389D01*
Y431681D01*
Y431708D01*
Y431764D01*
Y431875D01*
Y432042D01*
X590361Y432208D01*
Y432403D01*
X590306Y432875D01*
X590194Y433375D01*
X590056Y433902D01*
X589861Y434402D01*
X589611Y434846D01*
X589583Y434902D01*
X589472Y435013D01*
X589278Y435180D01*
X589028Y435374D01*
X588667Y435569D01*
X588250Y435735D01*
X587723Y435846D01*
X587112Y435902D01*
X586890D01*
X586640Y435874D01*
X586307Y435818D01*
X585918Y435735D01*
X585501Y435596D01*
X585085Y435430D01*
X584640Y435180D01*
X584585Y435152D01*
X584446Y435041D01*
X584252Y434902D01*
X584029Y434652D01*
X583752Y434374D01*
X583474Y434013D01*
X583224Y433597D01*
X583002Y433125D01*
Y433097D01*
X582974Y433069D01*
X582946Y432986D01*
X582919Y432875D01*
X582891Y432736D01*
X582835Y432569D01*
X582807Y432375D01*
X582752Y432153D01*
X582696Y431875D01*
X582669Y431597D01*
X582613Y431292D01*
X582585Y430931D01*
X582558Y430570D01*
X582530Y430153D01*
X582502Y429737D01*
Y429265D01*
Y419628D01*
X579364D01*
Y438207D01*
X582169D01*
Y435624D01*
X582224Y435652D01*
X582336Y435818D01*
X582530Y436068D01*
X582807Y436374D01*
X583141Y436735D01*
X583530Y437096D01*
X583974Y437457D01*
X584502Y437790D01*
X584529D01*
X584557Y437818D01*
X584640Y437873D01*
X584752Y437929D01*
X584890Y437985D01*
X585057Y438068D01*
X585446Y438207D01*
X585946Y438373D01*
X586501Y438484D01*
X587140Y438595D01*
X587806Y438623D01*
X588139D01*
X588334Y438595D01*
X588528Y438568D01*
X589000Y438512D01*
X589528Y438401D01*
X590083Y438262D01*
X590639Y438040D01*
X591166Y437762D01*
X591194D01*
X591222Y437735D01*
X591389Y437596D01*
X591611Y437401D01*
X591916Y437151D01*
X592222Y436790D01*
X592527Y436402D01*
X592805Y435929D01*
X593055Y435374D01*
X593082Y435402D01*
X593166Y435513D01*
X593277Y435680D01*
X593471Y435874D01*
X593666Y436124D01*
X593943Y436402D01*
X594249Y436707D01*
X594610Y437012D01*
X594999Y437290D01*
X595443Y437596D01*
X595915Y437873D01*
X596415Y438123D01*
X596970Y438318D01*
X597553Y438484D01*
X598164Y438595D01*
X598803Y438623D01*
X599081D01*
X599247Y438595D01*
D02*
G37*
G36*
X569422D02*
X569672Y438568D01*
X569922Y438540D01*
X570228Y438484D01*
X570561Y438429D01*
X571228Y438234D01*
X571949Y437957D01*
X572283Y437790D01*
X572616Y437596D01*
X572949Y437346D01*
X573227Y437068D01*
X573255Y437040D01*
X573282Y436985D01*
X573366Y436902D01*
X573449Y436790D01*
X573588Y436624D01*
X573699Y436429D01*
X573838Y436179D01*
X573977Y435902D01*
X574116Y435596D01*
X574254Y435263D01*
X574393Y434874D01*
X574504Y434458D01*
X574588Y433986D01*
X574671Y433486D01*
X574699Y432958D01*
X574726Y432375D01*
Y419628D01*
X571589D01*
Y431320D01*
Y431348D01*
Y431403D01*
Y431514D01*
Y431625D01*
X571561Y431958D01*
Y432375D01*
X571505Y432819D01*
X571450Y433264D01*
X571394Y433680D01*
X571283Y434041D01*
Y434069D01*
X571228Y434180D01*
X571144Y434319D01*
X571033Y434513D01*
X570866Y434735D01*
X570700Y434958D01*
X570450Y435180D01*
X570172Y435374D01*
X570144Y435402D01*
X570033Y435457D01*
X569867Y435541D01*
X569645Y435652D01*
X569367Y435735D01*
X569034Y435818D01*
X568673Y435874D01*
X568284Y435902D01*
X568089D01*
X567951Y435874D01*
X567784D01*
X567590Y435846D01*
X567145Y435735D01*
X566618Y435596D01*
X566062Y435346D01*
X565535Y435041D01*
X565257Y434819D01*
X565007Y434597D01*
Y434569D01*
X564951Y434541D01*
X564896Y434458D01*
X564813Y434347D01*
X564702Y434208D01*
X564590Y434041D01*
X564479Y433819D01*
X564368Y433597D01*
X564229Y433319D01*
X564118Y433014D01*
X564007Y432653D01*
X563896Y432292D01*
X563813Y431875D01*
X563757Y431403D01*
X563730Y430931D01*
X563702Y430403D01*
Y419628D01*
X560564D01*
Y431681D01*
Y431708D01*
Y431764D01*
Y431875D01*
Y432042D01*
X560536Y432208D01*
Y432403D01*
X560480Y432875D01*
X560369Y433375D01*
X560230Y433902D01*
X560036Y434402D01*
X559786Y434846D01*
X559758Y434902D01*
X559647Y435013D01*
X559453Y435180D01*
X559203Y435374D01*
X558842Y435569D01*
X558426Y435735D01*
X557898Y435846D01*
X557287Y435902D01*
X557065D01*
X556815Y435874D01*
X556482Y435818D01*
X556093Y435735D01*
X555676Y435596D01*
X555260Y435430D01*
X554815Y435180D01*
X554760Y435152D01*
X554621Y435041D01*
X554427Y434902D01*
X554204Y434652D01*
X553927Y434374D01*
X553649Y434013D01*
X553399Y433597D01*
X553177Y433125D01*
Y433097D01*
X553149Y433069D01*
X553121Y432986D01*
X553094Y432875D01*
X553066Y432736D01*
X553010Y432569D01*
X552983Y432375D01*
X552927Y432153D01*
X552872Y431875D01*
X552844Y431597D01*
X552788Y431292D01*
X552760Y430931D01*
X552733Y430570D01*
X552705Y430153D01*
X552677Y429737D01*
Y429265D01*
Y419628D01*
X549539D01*
Y438207D01*
X552344D01*
Y435624D01*
X552399Y435652D01*
X552510Y435818D01*
X552705Y436068D01*
X552983Y436374D01*
X553316Y436735D01*
X553705Y437096D01*
X554149Y437457D01*
X554676Y437790D01*
X554704D01*
X554732Y437818D01*
X554815Y437873D01*
X554926Y437929D01*
X555065Y437985D01*
X555232Y438068D01*
X555621Y438207D01*
X556121Y438373D01*
X556676Y438484D01*
X557315Y438595D01*
X557981Y438623D01*
X558314D01*
X558509Y438595D01*
X558703Y438568D01*
X559175Y438512D01*
X559703Y438401D01*
X560258Y438262D01*
X560814Y438040D01*
X561341Y437762D01*
X561369D01*
X561397Y437735D01*
X561563Y437596D01*
X561786Y437401D01*
X562091Y437151D01*
X562397Y436790D01*
X562702Y436402D01*
X562980Y435929D01*
X563230Y435374D01*
X563258Y435402D01*
X563341Y435513D01*
X563452Y435680D01*
X563646Y435874D01*
X563841Y436124D01*
X564118Y436402D01*
X564424Y436707D01*
X564785Y437012D01*
X565174Y437290D01*
X565618Y437596D01*
X566090Y437873D01*
X566590Y438123D01*
X567145Y438318D01*
X567728Y438484D01*
X568339Y438595D01*
X568978Y438623D01*
X569256D01*
X569422Y438595D01*
D02*
G37*
G36*
X397026Y419628D02*
X393638D01*
Y431708D01*
X380336D01*
Y419628D01*
X376948D01*
Y445260D01*
X380336D01*
Y434735D01*
X393638D01*
Y445260D01*
X397026D01*
Y419628D01*
D02*
G37*
G36*
X522102Y428654D02*
X525574D01*
Y425766D01*
X522102D01*
Y419628D01*
X518964D01*
Y425766D01*
X507801D01*
Y428654D01*
X519520Y445260D01*
X522102D01*
Y428654D01*
D02*
G37*
G36*
X500803Y419628D02*
X497665D01*
Y439651D01*
X497609Y439595D01*
X497470Y439456D01*
X497220Y439262D01*
X496859Y438984D01*
X496443Y438651D01*
X495915Y438290D01*
X495332Y437901D01*
X494666Y437485D01*
X494638D01*
X494582Y437429D01*
X494499Y437373D01*
X494360Y437318D01*
X494194Y437207D01*
X493999Y437124D01*
X493555Y436874D01*
X493055Y436624D01*
X492499Y436346D01*
X491916Y436096D01*
X491361Y435874D01*
Y438901D01*
X491389Y438929D01*
X491472Y438956D01*
X491611Y439040D01*
X491805Y439123D01*
X492027Y439234D01*
X492305Y439401D01*
X492611Y439567D01*
X492916Y439734D01*
X493638Y440178D01*
X494416Y440706D01*
X495221Y441261D01*
X495971Y441900D01*
X495998Y441928D01*
X496054Y441983D01*
X496165Y442067D01*
X496304Y442205D01*
X496443Y442372D01*
X496637Y442539D01*
X497054Y443011D01*
X497526Y443511D01*
X497998Y444094D01*
X498415Y444705D01*
X498775Y445343D01*
X500803D01*
Y419628D01*
D02*
G37*
G36*
X453177Y436041D02*
X453205Y436068D01*
X453288Y436152D01*
X453399Y436291D01*
X453566Y436457D01*
X453788Y436652D01*
X454038Y436846D01*
X454344Y437096D01*
X454705Y437346D01*
X455065Y437568D01*
X455482Y437818D01*
X455954Y438012D01*
X456426Y438234D01*
X456954Y438373D01*
X457509Y438512D01*
X458092Y438595D01*
X458703Y438623D01*
X459037D01*
X459231Y438595D01*
X459425Y438568D01*
X459925Y438512D01*
X460481Y438429D01*
X461064Y438262D01*
X461675Y438068D01*
X462258Y437790D01*
X462286D01*
X462314Y437762D01*
X462397Y437707D01*
X462508Y437651D01*
X462786Y437457D01*
X463119Y437207D01*
X463452Y436902D01*
X463841Y436513D01*
X464174Y436041D01*
X464452Y435541D01*
Y435513D01*
X464480Y435485D01*
X464507Y435402D01*
X464563Y435291D01*
X464618Y435124D01*
X464674Y434958D01*
X464729Y434735D01*
X464785Y434485D01*
X464841Y434208D01*
X464896Y433902D01*
X464952Y433569D01*
X465007Y433180D01*
X465063Y432792D01*
X465091Y432347D01*
X465118Y431875D01*
Y431375D01*
Y419628D01*
X461980D01*
Y431375D01*
Y431403D01*
Y431486D01*
Y431597D01*
X461952Y431764D01*
Y431958D01*
X461925Y432181D01*
X461841Y432680D01*
X461730Y433264D01*
X461536Y433819D01*
X461286Y434374D01*
X461147Y434597D01*
X460953Y434819D01*
X460897Y434874D01*
X460758Y434985D01*
X460536Y435152D01*
X460203Y435374D01*
X459786Y435569D01*
X459314Y435735D01*
X458731Y435846D01*
X458065Y435902D01*
X457843D01*
X457565Y435874D01*
X457204Y435818D01*
X456815Y435707D01*
X456371Y435596D01*
X455899Y435402D01*
X455427Y435152D01*
X455371Y435124D01*
X455232Y435013D01*
X455010Y434846D01*
X454760Y434624D01*
X454455Y434347D01*
X454177Y434013D01*
X453899Y433625D01*
X453677Y433180D01*
X453649Y433125D01*
X453621Y433041D01*
X453594Y432958D01*
X453510Y432680D01*
X453427Y432292D01*
X453344Y431819D01*
X453261Y431236D01*
X453205Y430542D01*
X453177Y429765D01*
Y419628D01*
X450039D01*
Y445260D01*
X453177D01*
Y436041D01*
D02*
G37*
G36*
X425352Y419628D02*
X422214D01*
Y438207D01*
X425352D01*
Y419628D01*
D02*
G37*
G36*
X473616Y438207D02*
X476810D01*
Y435763D01*
X473616D01*
Y424877D01*
Y424849D01*
Y424822D01*
Y424655D01*
Y424433D01*
X473644Y424155D01*
Y423877D01*
X473699Y423600D01*
X473727Y423350D01*
X473782Y423155D01*
Y423128D01*
X473810Y423100D01*
X473921Y422933D01*
X474088Y422739D01*
X474310Y422544D01*
X474338D01*
X474394Y422517D01*
X474477Y422489D01*
X474588Y422433D01*
X474754Y422405D01*
X474921Y422350D01*
X475143Y422322D01*
X475615D01*
X475782Y422350D01*
X475976D01*
X476226Y422378D01*
X476504Y422405D01*
X476810Y422433D01*
X477226Y419656D01*
X477171D01*
X477004Y419601D01*
X476754Y419573D01*
X476421Y419517D01*
X476060Y419462D01*
X475671Y419434D01*
X474838Y419379D01*
X474560D01*
X474255Y419406D01*
X473866Y419434D01*
X473421Y419517D01*
X472977Y419601D01*
X472561Y419740D01*
X472172Y419906D01*
X472144Y419934D01*
X472033Y420017D01*
X471866Y420128D01*
X471644Y420295D01*
X471422Y420489D01*
X471200Y420739D01*
X471005Y421017D01*
X470839Y421322D01*
X470811Y421378D01*
X470783Y421517D01*
X470756Y421628D01*
X470728Y421767D01*
X470700Y421933D01*
X470672Y422128D01*
X470617Y422350D01*
X470589Y422628D01*
X470561Y422933D01*
X470533Y423266D01*
X470506Y423655D01*
Y424072D01*
X470478Y424544D01*
Y425044D01*
Y435763D01*
X468145D01*
Y438207D01*
X470478D01*
Y442789D01*
X473616Y444677D01*
Y438207D01*
D02*
G37*
G36*
X537653Y445316D02*
X537848Y445288D01*
X538348Y445232D01*
X538903Y445149D01*
X539514Y444982D01*
X540125Y444788D01*
X540736Y444510D01*
X540764D01*
X540819Y444483D01*
X540903Y444427D01*
X541014Y444344D01*
X541291Y444177D01*
X541652Y443899D01*
X542069Y443566D01*
X542486Y443150D01*
X542930Y442650D01*
X543319Y442094D01*
Y442067D01*
X543374Y442011D01*
X543402Y441928D01*
X543485Y441817D01*
X543569Y441678D01*
X543680Y441483D01*
X543763Y441261D01*
X543902Y441039D01*
X544152Y440484D01*
X544402Y439845D01*
X544679Y439095D01*
X544902Y438290D01*
Y438262D01*
X544929Y438179D01*
X544957Y438068D01*
X544985Y437873D01*
X545040Y437651D01*
X545096Y437373D01*
X545151Y437068D01*
X545207Y436707D01*
X545235Y436291D01*
X545290Y435846D01*
X545346Y435346D01*
X545401Y434819D01*
X545429Y434235D01*
X545457Y433625D01*
X545485Y432958D01*
Y432264D01*
Y432208D01*
Y432069D01*
Y431819D01*
Y431514D01*
X545457Y431125D01*
X545429Y430709D01*
X545401Y430209D01*
X545374Y429681D01*
X545318Y429098D01*
X545262Y428515D01*
X545096Y427293D01*
X544846Y426099D01*
X544707Y425516D01*
X544541Y424988D01*
Y424960D01*
X544485Y424877D01*
X544457Y424710D01*
X544374Y424544D01*
X544263Y424294D01*
X544152Y424044D01*
X544013Y423738D01*
X543846Y423405D01*
X543458Y422711D01*
X542985Y422017D01*
X542430Y421322D01*
X542097Y421017D01*
X541763Y420712D01*
X541736Y420684D01*
X541680Y420656D01*
X541569Y420573D01*
X541430Y420489D01*
X541264Y420378D01*
X541042Y420239D01*
X540792Y420101D01*
X540486Y419962D01*
X540181Y419823D01*
X539820Y419684D01*
X539459Y419573D01*
X539042Y419434D01*
X538598Y419351D01*
X538126Y419268D01*
X537653Y419240D01*
X537126Y419212D01*
X536959D01*
X536765Y419240D01*
X536515Y419268D01*
X536209Y419295D01*
X535849Y419351D01*
X535460Y419434D01*
X535015Y419545D01*
X534571Y419684D01*
X534099Y419851D01*
X533599Y420073D01*
X533127Y420323D01*
X532655Y420628D01*
X532183Y420989D01*
X531739Y421378D01*
X531322Y421850D01*
X531294Y421878D01*
X531211Y421989D01*
X531100Y422183D01*
X530933Y422461D01*
X530739Y422822D01*
X530517Y423239D01*
X530295Y423766D01*
X530072Y424349D01*
X529822Y425044D01*
X529600Y425794D01*
X529378Y426654D01*
X529184Y427598D01*
X529017Y428626D01*
X528906Y429737D01*
X528823Y430959D01*
X528795Y432264D01*
Y432319D01*
Y432458D01*
Y432708D01*
X528823Y433014D01*
Y433402D01*
X528850Y433847D01*
X528878Y434347D01*
X528906Y434874D01*
X528962Y435457D01*
X529017Y436041D01*
X529184Y437262D01*
X529406Y438457D01*
X529545Y439040D01*
X529711Y439567D01*
Y439595D01*
X529767Y439678D01*
X529822Y439845D01*
X529878Y440039D01*
X529989Y440262D01*
X530100Y440539D01*
X530239Y440817D01*
X530406Y441150D01*
X530794Y441845D01*
X531294Y442539D01*
X531850Y443233D01*
X532155Y443539D01*
X532488Y443844D01*
X532516Y443872D01*
X532572Y443899D01*
X532683Y443983D01*
X532822Y444066D01*
X532988Y444205D01*
X533210Y444316D01*
X533460Y444455D01*
X533766Y444594D01*
X534071Y444733D01*
X534432Y444872D01*
X534821Y445010D01*
X535210Y445121D01*
X535654Y445205D01*
X536126Y445288D01*
X536626Y445316D01*
X537126Y445343D01*
X537459D01*
X537653Y445316D01*
D02*
G37*
G36*
X410245Y438595D02*
X410495D01*
X410828Y438540D01*
X411189Y438484D01*
X411606Y438401D01*
X412050Y438318D01*
X412522Y438179D01*
X412994Y438012D01*
X413522Y437790D01*
X414021Y437540D01*
X414521Y437262D01*
X415021Y436902D01*
X415521Y436513D01*
X415965Y436068D01*
X415993Y436041D01*
X416077Y435957D01*
X416188Y435818D01*
X416326Y435596D01*
X416521Y435346D01*
X416715Y435041D01*
X416937Y434652D01*
X417160Y434235D01*
X417354Y433764D01*
X417576Y433236D01*
X417770Y432653D01*
X417965Y432014D01*
X418104Y431320D01*
X418215Y430570D01*
X418298Y429792D01*
X418326Y428959D01*
Y428904D01*
Y428765D01*
Y428487D01*
X418298Y428126D01*
X404441D01*
Y428098D01*
Y427987D01*
X404469Y427821D01*
X404496Y427626D01*
X404524Y427349D01*
X404580Y427071D01*
X404635Y426738D01*
X404718Y426377D01*
X404941Y425627D01*
X405246Y424822D01*
X405441Y424461D01*
X405635Y424072D01*
X405885Y423738D01*
X406163Y423405D01*
X406190Y423378D01*
X406246Y423350D01*
X406329Y423266D01*
X406440Y423155D01*
X406607Y423044D01*
X406774Y422905D01*
X406996Y422739D01*
X407246Y422600D01*
X407801Y422294D01*
X408467Y422045D01*
X408828Y421933D01*
X409217Y421878D01*
X409634Y421822D01*
X410050Y421795D01*
X410217D01*
X410328Y421822D01*
X410661Y421850D01*
X411078Y421906D01*
X411522Y422017D01*
X412022Y422183D01*
X412522Y422378D01*
X412994Y422683D01*
X413022D01*
X413050Y422739D01*
X413188Y422850D01*
X413411Y423072D01*
X413688Y423405D01*
X413994Y423794D01*
X414327Y424322D01*
X414660Y424933D01*
X414938Y425627D01*
X418215Y425210D01*
Y425182D01*
X418187Y425071D01*
X418131Y424933D01*
X418048Y424738D01*
X417965Y424488D01*
X417854Y424211D01*
X417715Y423905D01*
X417576Y423572D01*
X417187Y422878D01*
X416687Y422128D01*
X416382Y421767D01*
X416077Y421406D01*
X415743Y421073D01*
X415354Y420767D01*
X415327Y420739D01*
X415271Y420712D01*
X415132Y420628D01*
X414993Y420517D01*
X414771Y420406D01*
X414521Y420267D01*
X414244Y420128D01*
X413910Y419989D01*
X413549Y419851D01*
X413133Y419712D01*
X412716Y419573D01*
X412244Y419462D01*
X411744Y419351D01*
X411217Y419268D01*
X410634Y419240D01*
X410050Y419212D01*
X409884D01*
X409662Y419240D01*
X409384D01*
X409023Y419295D01*
X408634Y419351D01*
X408190Y419434D01*
X407718Y419517D01*
X407218Y419656D01*
X406690Y419823D01*
X406135Y420017D01*
X405607Y420267D01*
X405052Y420545D01*
X404552Y420878D01*
X404052Y421267D01*
X403580Y421711D01*
X403552Y421739D01*
X403469Y421822D01*
X403358Y421961D01*
X403219Y422183D01*
X403025Y422433D01*
X402830Y422739D01*
X402608Y423100D01*
X402414Y423516D01*
X402191Y423988D01*
X401969Y424516D01*
X401775Y425099D01*
X401580Y425738D01*
X401442Y426404D01*
X401331Y427126D01*
X401247Y427904D01*
X401220Y428737D01*
Y428793D01*
Y428932D01*
X401247Y429181D01*
Y429515D01*
X401303Y429903D01*
X401358Y430348D01*
X401414Y430875D01*
X401525Y431403D01*
X401636Y431986D01*
X401803Y432569D01*
X401997Y433180D01*
X402219Y433791D01*
X402497Y434374D01*
X402830Y434958D01*
X403191Y435513D01*
X403608Y436013D01*
X403636Y436041D01*
X403719Y436124D01*
X403858Y436263D01*
X404052Y436429D01*
X404274Y436624D01*
X404580Y436846D01*
X404913Y437068D01*
X405302Y437318D01*
X405718Y437568D01*
X406190Y437790D01*
X406718Y438012D01*
X407273Y438207D01*
X407884Y438373D01*
X408495Y438512D01*
X409190Y438595D01*
X409884Y438623D01*
X410050D01*
X410245Y438595D01*
D02*
G37*
G36*
X437265D02*
X437487D01*
X437765Y438540D01*
X438098Y438484D01*
X438459Y438401D01*
X438848Y438290D01*
X439264Y438151D01*
X439709Y437957D01*
X440153Y437762D01*
X440625Y437485D01*
X441070Y437179D01*
X441542Y436818D01*
X441958Y436402D01*
X442375Y435929D01*
Y438207D01*
X445263D01*
Y422156D01*
Y422100D01*
Y421961D01*
Y421739D01*
Y421461D01*
X445235Y421100D01*
X445207Y420684D01*
X445179Y420239D01*
X445152Y419767D01*
X445041Y418768D01*
X444902Y417740D01*
X444791Y417268D01*
X444680Y416796D01*
X444541Y416379D01*
X444374Y416018D01*
Y415991D01*
X444346Y415935D01*
X444291Y415852D01*
X444207Y415713D01*
X443985Y415380D01*
X443680Y414991D01*
X443291Y414519D01*
X442819Y414047D01*
X442236Y413575D01*
X441569Y413158D01*
X441542D01*
X441486Y413103D01*
X441375Y413075D01*
X441236Y412992D01*
X441042Y412908D01*
X440820Y412825D01*
X440570Y412742D01*
X440264Y412631D01*
X439931Y412519D01*
X439570Y412436D01*
X439209Y412353D01*
X438792Y412269D01*
X437876Y412158D01*
X436876Y412103D01*
X436543D01*
X436321Y412131D01*
X436043Y412158D01*
X435710Y412186D01*
X435349Y412242D01*
X434960Y412297D01*
X434099Y412464D01*
X433211Y412742D01*
X432738Y412908D01*
X432322Y413103D01*
X431878Y413352D01*
X431489Y413602D01*
X431461Y413630D01*
X431405Y413686D01*
X431294Y413769D01*
X431183Y413880D01*
X431017Y414047D01*
X430850Y414241D01*
X430684Y414463D01*
X430489Y414741D01*
X430295Y415019D01*
X430128Y415352D01*
X429961Y415741D01*
X429823Y416129D01*
X429684Y416574D01*
X429600Y417046D01*
X429545Y417546D01*
Y418101D01*
X432600Y417685D01*
Y417657D01*
Y417629D01*
X432655Y417462D01*
X432711Y417212D01*
X432794Y416907D01*
X432933Y416546D01*
X433127Y416213D01*
X433349Y415880D01*
X433655Y415602D01*
X433710Y415574D01*
X433877Y415463D01*
X434127Y415324D01*
X434488Y415158D01*
X434960Y414991D01*
X435488Y414852D01*
X436126Y414741D01*
X436848Y414713D01*
X437071D01*
X437209Y414741D01*
X437404D01*
X437598Y414769D01*
X438098Y414824D01*
X438626Y414935D01*
X439181Y415102D01*
X439737Y415296D01*
X440209Y415602D01*
X440236D01*
X440264Y415630D01*
X440403Y415768D01*
X440597Y415963D01*
X440875Y416241D01*
X441125Y416574D01*
X441403Y416990D01*
X441653Y417490D01*
X441847Y418046D01*
Y418101D01*
X441875Y418157D01*
Y418240D01*
X441903Y418351D01*
X441930Y418518D01*
Y418684D01*
X441958Y418906D01*
X441986Y419156D01*
X442014Y419434D01*
Y419767D01*
X442041Y420128D01*
Y420545D01*
X442069Y420989D01*
Y421489D01*
Y422045D01*
X442041Y422017D01*
X441986Y421933D01*
X441847Y421822D01*
X441708Y421656D01*
X441486Y421489D01*
X441264Y421295D01*
X440958Y421073D01*
X440653Y420850D01*
X440292Y420601D01*
X439903Y420406D01*
X439487Y420184D01*
X439014Y420017D01*
X438542Y419851D01*
X438042Y419740D01*
X437487Y419656D01*
X436932Y419628D01*
X436765D01*
X436571Y419656D01*
X436293Y419684D01*
X435988Y419712D01*
X435599Y419767D01*
X435210Y419851D01*
X434766Y419962D01*
X434294Y420128D01*
X433794Y420295D01*
X433294Y420517D01*
X432822Y420795D01*
X432322Y421100D01*
X431850Y421461D01*
X431405Y421906D01*
X430989Y422378D01*
X430961Y422405D01*
X430906Y422517D01*
X430795Y422655D01*
X430656Y422878D01*
X430517Y423128D01*
X430323Y423461D01*
X430156Y423822D01*
X429961Y424238D01*
X429767Y424710D01*
X429573Y425210D01*
X429378Y425766D01*
X429240Y426349D01*
X429101Y426960D01*
X428990Y427626D01*
X428934Y428293D01*
X428906Y429015D01*
Y429043D01*
Y429126D01*
Y429265D01*
X428934Y429459D01*
Y429709D01*
X428962Y429959D01*
X428990Y430264D01*
X429017Y430625D01*
X429128Y431375D01*
X429295Y432181D01*
X429545Y433041D01*
X429850Y433902D01*
Y433930D01*
X429906Y434013D01*
X429961Y434125D01*
X430045Y434263D01*
X430128Y434458D01*
X430267Y434680D01*
X430572Y435180D01*
X430961Y435735D01*
X431433Y436318D01*
X432016Y436874D01*
X432655Y437373D01*
X432683Y437401D01*
X432738Y437429D01*
X432850Y437485D01*
X432988Y437568D01*
X433155Y437651D01*
X433377Y437762D01*
X433599Y437873D01*
X433877Y438012D01*
X434183Y438123D01*
X434516Y438234D01*
X435238Y438429D01*
X436043Y438568D01*
X436487Y438623D01*
X437071D01*
X437265Y438595D01*
D02*
G37*
%LPC*%
G36*
X464535Y566765D02*
X458926D01*
Y559017D01*
X465007D01*
X465229Y559045D01*
X465701D01*
X466229Y559073D01*
X466784Y559128D01*
X467284Y559212D01*
X467507Y559239D01*
X467701Y559295D01*
X467729D01*
X467756Y559323D01*
X467923Y559378D01*
X468145Y559462D01*
X468423Y559600D01*
X468728Y559767D01*
X469062Y559989D01*
X469367Y560267D01*
X469645Y560572D01*
X469673Y560628D01*
X469756Y560739D01*
X469867Y560933D01*
X469978Y561183D01*
X470089Y561517D01*
X470200Y561905D01*
X470284Y562322D01*
X470311Y562822D01*
Y562850D01*
Y562877D01*
Y563044D01*
X470284Y563266D01*
X470228Y563572D01*
X470145Y563933D01*
X470034Y564321D01*
X469895Y564710D01*
X469673Y565071D01*
X469645Y565127D01*
X469561Y565238D01*
X469423Y565404D01*
X469228Y565599D01*
X468978Y565821D01*
X468673Y566043D01*
X468340Y566237D01*
X467923Y566404D01*
X467868Y566432D01*
X467812D01*
X467701Y566460D01*
X467590Y566487D01*
X467423Y566515D01*
X467229Y566543D01*
X467034Y566599D01*
X466784Y566626D01*
X466479Y566654D01*
X466174Y566682D01*
X465812Y566710D01*
X465424Y566737D01*
X465007D01*
X464535Y566765D01*
D02*
G37*
G36*
X464841Y555990D02*
X458926D01*
Y547187D01*
X465868D01*
X466229Y547215D01*
X466590D01*
X466979Y547243D01*
X467340Y547270D01*
X467618Y547298D01*
X467673D01*
X467812Y547326D01*
X468034Y547382D01*
X468312Y547465D01*
X468617Y547548D01*
X468923Y547687D01*
X469256Y547826D01*
X469561Y547993D01*
X469589Y548020D01*
X469700Y548076D01*
X469839Y548187D01*
X470034Y548354D01*
X470228Y548548D01*
X470450Y548798D01*
X470672Y549076D01*
X470867Y549409D01*
X470894Y549464D01*
X470950Y549576D01*
X471033Y549770D01*
X471144Y550047D01*
X471228Y550353D01*
X471311Y550714D01*
X471367Y551131D01*
X471394Y551575D01*
Y551603D01*
Y551630D01*
Y551714D01*
Y551825D01*
X471367Y552075D01*
X471311Y552436D01*
X471200Y552824D01*
X471089Y553241D01*
X470894Y553658D01*
X470645Y554074D01*
X470617Y554130D01*
X470506Y554241D01*
X470339Y554435D01*
X470117Y554657D01*
X469811Y554907D01*
X469450Y555129D01*
X469062Y555352D01*
X468589Y555546D01*
X468562D01*
X468534Y555574D01*
X468451Y555602D01*
X468340Y555629D01*
X468201Y555657D01*
X468062Y555685D01*
X467868Y555740D01*
X467645Y555768D01*
X467368Y555824D01*
X467090Y555852D01*
X466784Y555879D01*
X466451Y555935D01*
X465701Y555963D01*
X464841Y555990D01*
D02*
G37*
G36*
X385418Y566765D02*
X379503D01*
Y547187D01*
X385391D01*
X385613Y547215D01*
X385863D01*
X386418Y547243D01*
X387057Y547298D01*
X387723Y547382D01*
X388362Y547493D01*
X388945Y547632D01*
X388973D01*
X389001Y547659D01*
X389084Y547687D01*
X389195Y547715D01*
X389445Y547826D01*
X389778Y547965D01*
X390139Y548159D01*
X390528Y548381D01*
X390917Y548659D01*
X391250Y548965D01*
X391278Y548992D01*
X391306Y549020D01*
X391444Y549187D01*
X391667Y549464D01*
X391944Y549825D01*
X392222Y550297D01*
X392528Y550853D01*
X392833Y551492D01*
X393111Y552214D01*
Y552241D01*
X393139Y552297D01*
X393166Y552408D01*
X393222Y552575D01*
X393277Y552769D01*
X393333Y553019D01*
X393388Y553297D01*
X393472Y553602D01*
X393527Y553935D01*
X393583Y554324D01*
X393638Y554713D01*
X393694Y555157D01*
X393777Y556101D01*
X393805Y557157D01*
Y557212D01*
Y557323D01*
Y557545D01*
X393777Y557823D01*
Y558156D01*
X393749Y558545D01*
X393694Y558962D01*
X393638Y559434D01*
X393472Y560433D01*
X393250Y561461D01*
X392916Y562433D01*
X392694Y562905D01*
X392472Y563322D01*
X392444Y563349D01*
X392416Y563405D01*
X392333Y563516D01*
X392222Y563683D01*
X392111Y563849D01*
X391944Y564044D01*
X391583Y564488D01*
X391111Y564988D01*
X390556Y565460D01*
X389945Y565904D01*
X389612Y566071D01*
X389251Y566237D01*
X389223D01*
X389195Y566265D01*
X389112Y566293D01*
X389001Y566321D01*
X388834Y566349D01*
X388667Y566404D01*
X388445Y566460D01*
X388195Y566515D01*
X387918Y566543D01*
X387584Y566599D01*
X387223Y566654D01*
X386835Y566682D01*
X386390Y566710D01*
X385918Y566737D01*
X385418Y566765D01*
D02*
G37*
G36*
X413688Y567320D02*
X413050D01*
X412883Y567293D01*
X412605D01*
X412300Y567237D01*
X411939Y567182D01*
X411550Y567098D01*
X411106Y567015D01*
X410634Y566876D01*
X410134Y566710D01*
X409606Y566515D01*
X409106Y566265D01*
X408579Y565987D01*
X408051Y565654D01*
X407523Y565266D01*
X407023Y564821D01*
X406996Y564793D01*
X406912Y564710D01*
X406774Y564543D01*
X406635Y564349D01*
X406413Y564071D01*
X406218Y563738D01*
X405968Y563322D01*
X405746Y562877D01*
X405496Y562322D01*
X405246Y561711D01*
X405052Y561045D01*
X404857Y560295D01*
X404691Y559489D01*
X404552Y558601D01*
X404469Y557629D01*
X404441Y556573D01*
Y556518D01*
Y556379D01*
X404469Y556129D01*
Y555796D01*
X404524Y555407D01*
X404580Y554963D01*
X404635Y554463D01*
X404746Y553935D01*
X404885Y553352D01*
X405052Y552741D01*
X405246Y552158D01*
X405496Y551547D01*
X405774Y550936D01*
X406107Y550353D01*
X406468Y549798D01*
X406912Y549270D01*
X406940Y549242D01*
X407023Y549159D01*
X407162Y549020D01*
X407357Y548853D01*
X407607Y548659D01*
X407912Y548437D01*
X408245Y548187D01*
X408634Y547965D01*
X409051Y547715D01*
X409551Y547465D01*
X410050Y547243D01*
X410606Y547048D01*
X411189Y546882D01*
X411828Y546743D01*
X412466Y546660D01*
X413161Y546632D01*
X413327D01*
X413522Y546660D01*
X413799Y546687D01*
X414133Y546715D01*
X414494Y546771D01*
X414938Y546854D01*
X415382Y546965D01*
X415882Y547104D01*
X416382Y547270D01*
X416910Y547493D01*
X417437Y547770D01*
X417965Y548076D01*
X418493Y548409D01*
X418992Y548826D01*
X419464Y549298D01*
X419492Y549326D01*
X419576Y549437D01*
X419687Y549576D01*
X419853Y549798D01*
X420048Y550075D01*
X420270Y550409D01*
X420492Y550797D01*
X420714Y551269D01*
X420936Y551769D01*
X421186Y552353D01*
X421381Y552963D01*
X421575Y553658D01*
X421742Y554407D01*
X421853Y555185D01*
X421936Y556046D01*
X421964Y556934D01*
Y556962D01*
Y557073D01*
Y557240D01*
X421936Y557462D01*
Y557740D01*
X421908Y558045D01*
X421880Y558406D01*
X421825Y558795D01*
X421714Y559656D01*
X421519Y560572D01*
X421242Y561489D01*
X420881Y562405D01*
Y562433D01*
X420825Y562516D01*
X420770Y562627D01*
X420686Y562794D01*
X420575Y562988D01*
X420436Y563210D01*
X420103Y563738D01*
X419659Y564321D01*
X419131Y564904D01*
X418520Y565488D01*
X417798Y566015D01*
X417770Y566043D01*
X417715Y566071D01*
X417604Y566126D01*
X417437Y566210D01*
X417243Y566321D01*
X417021Y566432D01*
X416771Y566543D01*
X416465Y566682D01*
X416132Y566793D01*
X415799Y566904D01*
X415021Y567126D01*
X414160Y567265D01*
X413688Y567320D01*
D02*
G37*
G36*
X555329Y496002D02*
X555135D01*
X554968Y495974D01*
X554802Y495946D01*
X554579Y495918D01*
X554079Y495807D01*
X553496Y495613D01*
X552885Y495335D01*
X552580Y495168D01*
X552274Y494974D01*
X551969Y494724D01*
X551691Y494447D01*
X551663Y494419D01*
X551636Y494363D01*
X551552Y494280D01*
X551469Y494169D01*
X551358Y494030D01*
X551219Y493835D01*
X551080Y493613D01*
X550969Y493363D01*
X550830Y493114D01*
X550692Y492808D01*
X550442Y492114D01*
X550275Y491336D01*
X550247Y490892D01*
X550219Y490448D01*
Y490420D01*
Y490364D01*
Y490281D01*
Y490170D01*
X550247Y490031D01*
Y489864D01*
X550303Y489448D01*
X550386Y488976D01*
X550497Y488448D01*
X550664Y487893D01*
X550886Y487337D01*
Y487310D01*
X550914Y487282D01*
X550969Y487198D01*
X551025Y487087D01*
X551164Y486837D01*
X551386Y486504D01*
X551663Y486143D01*
X551997Y485782D01*
X552358Y485421D01*
X552802Y485088D01*
X552830D01*
X552858Y485060D01*
X553024Y484977D01*
X553274Y484838D01*
X553607Y484699D01*
X553996Y484560D01*
X554440Y484421D01*
X554940Y484338D01*
X555440Y484310D01*
X555635D01*
X555773Y484338D01*
X555968Y484366D01*
X556162Y484394D01*
X556634Y484505D01*
X557162Y484699D01*
X557467Y484838D01*
X557745Y484977D01*
X558051Y485171D01*
X558328Y485366D01*
X558606Y485616D01*
X558884Y485893D01*
X558912Y485921D01*
X558939Y485977D01*
X559023Y486060D01*
X559106Y486199D01*
X559217Y486365D01*
X559328Y486560D01*
X559467Y486782D01*
X559606Y487060D01*
X559745Y487337D01*
X559883Y487671D01*
X559995Y488032D01*
X560106Y488420D01*
X560189Y488837D01*
X560272Y489309D01*
X560300Y489781D01*
X560328Y490281D01*
Y490309D01*
Y490392D01*
Y490531D01*
X560300Y490725D01*
X560272Y490947D01*
X560244Y491197D01*
X560217Y491475D01*
X560161Y491781D01*
X559995Y492447D01*
X559745Y493141D01*
X559578Y493502D01*
X559384Y493835D01*
X559161Y494141D01*
X558912Y494447D01*
X558884Y494474D01*
X558856Y494502D01*
X558773Y494585D01*
X558662Y494696D01*
X558523Y494807D01*
X558356Y494946D01*
X557939Y495224D01*
X557412Y495502D01*
X556801Y495752D01*
X556107Y495946D01*
X555718Y495974D01*
X555329Y496002D01*
D02*
G37*
G36*
X432114Y491475D02*
X432086D01*
X432030Y491447D01*
X431919Y491420D01*
X431780Y491364D01*
X431614Y491281D01*
X431392Y491225D01*
X431114Y491142D01*
X430836Y491058D01*
X430475Y490975D01*
X430086Y490864D01*
X429670Y490781D01*
X429198Y490670D01*
X428698Y490559D01*
X428170Y490475D01*
X427587Y490364D01*
X426948Y490281D01*
X426865D01*
X426754Y490253D01*
X426643Y490225D01*
X426282Y490170D01*
X425865Y490087D01*
X425421Y490003D01*
X424977Y489892D01*
X424560Y489781D01*
X424199Y489642D01*
X424171Y489614D01*
X424060Y489587D01*
X423921Y489503D01*
X423755Y489392D01*
X423533Y489226D01*
X423338Y489059D01*
X423144Y488865D01*
X422950Y488615D01*
X422922Y488587D01*
X422894Y488504D01*
X422811Y488365D01*
X422755Y488170D01*
X422672Y487948D01*
X422588Y487698D01*
X422561Y487421D01*
X422533Y487115D01*
Y487060D01*
X422561Y486921D01*
X422588Y486671D01*
X422644Y486393D01*
X422755Y486060D01*
X422922Y485699D01*
X423172Y485366D01*
X423477Y485032D01*
X423533Y485005D01*
X423644Y484894D01*
X423866Y484783D01*
X424171Y484616D01*
X424560Y484477D01*
X425060Y484338D01*
X425616Y484227D01*
X426254Y484199D01*
X426560D01*
X426726Y484227D01*
X426921Y484255D01*
X427337Y484310D01*
X427865Y484394D01*
X428393Y484533D01*
X428948Y484727D01*
X429503Y484977D01*
X429531D01*
X429559Y485005D01*
X429725Y485116D01*
X429975Y485310D01*
X430309Y485560D01*
X430642Y485865D01*
X430975Y486254D01*
X431308Y486671D01*
X431586Y487171D01*
X431614Y487226D01*
X431669Y487365D01*
X431753Y487615D01*
X431836Y487948D01*
X431919Y488393D01*
X432003Y488948D01*
X432058Y489587D01*
X432086Y490309D01*
X432114Y491475D01*
D02*
G37*
G36*
X368270Y504749D02*
X362355D01*
Y485171D01*
X368243D01*
X368465Y485199D01*
X368715D01*
X369270Y485227D01*
X369909Y485282D01*
X370575Y485366D01*
X371214Y485477D01*
X371797Y485616D01*
X371825D01*
X371853Y485643D01*
X371936Y485671D01*
X372047Y485699D01*
X372297Y485810D01*
X372630Y485949D01*
X372991Y486143D01*
X373380Y486365D01*
X373769Y486643D01*
X374102Y486948D01*
X374130Y486976D01*
X374158Y487004D01*
X374296Y487171D01*
X374519Y487448D01*
X374796Y487809D01*
X375074Y488281D01*
X375379Y488837D01*
X375685Y489476D01*
X375963Y490198D01*
Y490225D01*
X375991Y490281D01*
X376018Y490392D01*
X376074Y490559D01*
X376129Y490753D01*
X376185Y491003D01*
X376240Y491281D01*
X376324Y491586D01*
X376379Y491919D01*
X376435Y492308D01*
X376490Y492697D01*
X376546Y493141D01*
X376629Y494085D01*
X376657Y495141D01*
Y495196D01*
Y495307D01*
Y495530D01*
X376629Y495807D01*
Y496140D01*
X376601Y496529D01*
X376546Y496946D01*
X376490Y497418D01*
X376324Y498418D01*
X376102Y499445D01*
X375768Y500417D01*
X375546Y500889D01*
X375324Y501306D01*
X375296Y501333D01*
X375269Y501389D01*
X375185Y501500D01*
X375074Y501667D01*
X374963Y501833D01*
X374796Y502028D01*
X374435Y502472D01*
X373963Y502972D01*
X373408Y503444D01*
X372797Y503888D01*
X372464Y504055D01*
X372103Y504221D01*
X372075D01*
X372047Y504249D01*
X371964Y504277D01*
X371853Y504305D01*
X371686Y504333D01*
X371519Y504388D01*
X371297Y504444D01*
X371047Y504499D01*
X370770Y504527D01*
X370437Y504583D01*
X370075Y504638D01*
X369687Y504666D01*
X369242Y504694D01*
X368770Y504721D01*
X368270Y504749D01*
D02*
G37*
G36*
X535168Y505249D02*
X534974D01*
X534807Y505221D01*
X534641Y505193D01*
X534418Y505166D01*
X533919Y505027D01*
X533363Y504805D01*
X533085Y504666D01*
X532780Y504471D01*
X532502Y504277D01*
X532225Y504027D01*
X531947Y503749D01*
X531697Y503416D01*
X531669Y503388D01*
X531641Y503305D01*
X531558Y503166D01*
X531447Y502944D01*
X531336Y502666D01*
X531197Y502333D01*
X531030Y501944D01*
X530892Y501444D01*
X530753Y500889D01*
X530586Y500278D01*
X530447Y499556D01*
X530336Y498779D01*
X530225Y497918D01*
X530169Y496946D01*
X530114Y495918D01*
X530086Y494780D01*
Y494752D01*
Y494696D01*
Y494613D01*
Y494502D01*
Y494363D01*
Y494169D01*
X530114Y493752D01*
X530142Y493252D01*
X530169Y492669D01*
X530197Y492030D01*
X530281Y491364D01*
X530447Y489948D01*
X530558Y489254D01*
X530697Y488559D01*
X530864Y487921D01*
X531086Y487337D01*
X531308Y486810D01*
X531558Y486365D01*
X531586Y486338D01*
X531614Y486282D01*
X531697Y486171D01*
X531836Y486032D01*
X531975Y485893D01*
X532141Y485727D01*
X532558Y485338D01*
X533085Y484949D01*
X533724Y484644D01*
X534057Y484505D01*
X534418Y484394D01*
X534807Y484338D01*
X535196Y484310D01*
X535279D01*
X535418Y484338D01*
X535557D01*
X535751Y484366D01*
X535973Y484421D01*
X536473Y484560D01*
X536751Y484671D01*
X537029Y484810D01*
X537334Y484977D01*
X537640Y485199D01*
X537945Y485421D01*
X538251Y485699D01*
X538556Y486032D01*
X538834Y486393D01*
X538862Y486421D01*
X538889Y486504D01*
X538973Y486615D01*
X539056Y486810D01*
X539195Y487060D01*
X539306Y487393D01*
X539445Y487782D01*
X539584Y488226D01*
X539722Y488754D01*
X539861Y489364D01*
X540000Y490031D01*
X540111Y490809D01*
X540195Y491669D01*
X540278Y492614D01*
X540306Y493641D01*
X540333Y494780D01*
Y494807D01*
Y494863D01*
Y494946D01*
Y495057D01*
Y495196D01*
Y495363D01*
X540306Y495807D01*
X540278Y496307D01*
X540250Y496890D01*
X540222Y497529D01*
X540139Y498195D01*
X539972Y499612D01*
X539833Y500306D01*
X539695Y500972D01*
X539528Y501611D01*
X539334Y502222D01*
X539112Y502722D01*
X538834Y503166D01*
X538806Y503194D01*
X538778Y503250D01*
X538695Y503361D01*
X538584Y503500D01*
X538417Y503638D01*
X538251Y503833D01*
X538056Y504027D01*
X537834Y504221D01*
X537306Y504583D01*
X536668Y504916D01*
X536335Y505055D01*
X535946Y505166D01*
X535585Y505221D01*
X535168Y505249D01*
D02*
G37*
G36*
X485571Y498556D02*
X485349D01*
X485210Y498529D01*
X485015Y498501D01*
X484821Y498473D01*
X484294Y498362D01*
X483738Y498195D01*
X483099Y497945D01*
X482794Y497779D01*
X482488Y497584D01*
X482183Y497334D01*
X481905Y497085D01*
X481878Y497057D01*
X481850Y497029D01*
X481766Y496946D01*
X481683Y496835D01*
X481572Y496668D01*
X481433Y496501D01*
X481294Y496307D01*
X481155Y496057D01*
X481017Y495807D01*
X480878Y495502D01*
X480600Y494835D01*
X480406Y494085D01*
X480350Y493669D01*
X480295Y493225D01*
X490681D01*
Y493252D01*
Y493336D01*
X490653Y493447D01*
X490625Y493613D01*
X490597Y493808D01*
X490569Y494030D01*
X490458Y494530D01*
X490292Y495113D01*
X490097Y495696D01*
X489820Y496251D01*
X489487Y496724D01*
X489459Y496751D01*
X489431Y496807D01*
X489320Y496890D01*
X489209Y497001D01*
X489070Y497140D01*
X488875Y497307D01*
X488653Y497473D01*
X488431Y497640D01*
X488154Y497807D01*
X487848Y497973D01*
X487182Y498279D01*
X486821Y498390D01*
X486432Y498473D01*
X486015Y498529D01*
X485571Y498556D01*
D02*
G37*
G36*
X522630Y464744D02*
X522436D01*
X522269Y464716D01*
X522102Y464688D01*
X521880Y464660D01*
X521380Y464549D01*
X520797Y464355D01*
X520186Y464077D01*
X519881Y463911D01*
X519575Y463716D01*
X519270Y463466D01*
X518992Y463189D01*
X518964Y463161D01*
X518936Y463105D01*
X518853Y463022D01*
X518770Y462911D01*
X518659Y462772D01*
X518520Y462578D01*
X518381Y462355D01*
X518270Y462106D01*
X518131Y461856D01*
X517992Y461550D01*
X517742Y460856D01*
X517576Y460078D01*
X517548Y459634D01*
X517520Y459190D01*
Y459162D01*
Y459106D01*
Y459023D01*
Y458912D01*
X517548Y458773D01*
Y458606D01*
X517604Y458190D01*
X517687Y457718D01*
X517798Y457190D01*
X517965Y456635D01*
X518187Y456079D01*
Y456052D01*
X518215Y456024D01*
X518270Y455941D01*
X518326Y455829D01*
X518465Y455580D01*
X518687Y455246D01*
X518964Y454885D01*
X519298Y454524D01*
X519659Y454163D01*
X520103Y453830D01*
X520131D01*
X520158Y453802D01*
X520325Y453719D01*
X520575Y453580D01*
X520908Y453441D01*
X521297Y453302D01*
X521741Y453164D01*
X522241Y453080D01*
X522741Y453053D01*
X522935D01*
X523074Y453080D01*
X523269Y453108D01*
X523463Y453136D01*
X523935Y453247D01*
X524463Y453441D01*
X524768Y453580D01*
X525046Y453719D01*
X525351Y453913D01*
X525629Y454108D01*
X525907Y454358D01*
X526185Y454635D01*
X526212Y454663D01*
X526240Y454719D01*
X526323Y454802D01*
X526407Y454941D01*
X526518Y455107D01*
X526629Y455302D01*
X526768Y455524D01*
X526906Y455802D01*
X527045Y456079D01*
X527184Y456413D01*
X527295Y456774D01*
X527406Y457162D01*
X527490Y457579D01*
X527573Y458051D01*
X527601Y458523D01*
X527629Y459023D01*
Y459051D01*
Y459134D01*
Y459273D01*
X527601Y459467D01*
X527573Y459690D01*
X527545Y459939D01*
X527518Y460217D01*
X527462Y460523D01*
X527295Y461189D01*
X527045Y461883D01*
X526879Y462244D01*
X526684Y462578D01*
X526462Y462883D01*
X526212Y463189D01*
X526185Y463216D01*
X526157Y463244D01*
X526073Y463327D01*
X525962Y463439D01*
X525823Y463550D01*
X525657Y463688D01*
X525240Y463966D01*
X524713Y464244D01*
X524102Y464494D01*
X523408Y464688D01*
X523019Y464716D01*
X522630Y464744D01*
D02*
G37*
G36*
X442291Y467271D02*
X442097D01*
X441930Y467243D01*
X441764Y467215D01*
X441542Y467187D01*
X441070Y467049D01*
X440514Y466854D01*
X440209Y466715D01*
X439903Y466549D01*
X439625Y466354D01*
X439320Y466104D01*
X439042Y465855D01*
X438765Y465549D01*
X438737Y465521D01*
X438709Y465466D01*
X438626Y465355D01*
X438542Y465216D01*
X438431Y465049D01*
X438320Y464799D01*
X438209Y464549D01*
X438070Y464216D01*
X437931Y463883D01*
X437820Y463466D01*
X437709Y463022D01*
X437598Y462550D01*
X437515Y461994D01*
X437432Y461439D01*
X437404Y460800D01*
X437376Y460134D01*
Y460106D01*
Y459967D01*
Y459801D01*
X437404Y459551D01*
X437432Y459245D01*
X437459Y458912D01*
X437515Y458551D01*
X437570Y458134D01*
X437737Y457273D01*
X438015Y456385D01*
X438181Y455968D01*
X438376Y455552D01*
X438626Y455163D01*
X438876Y454802D01*
X438903Y454774D01*
X438931Y454719D01*
X439042Y454635D01*
X439153Y454524D01*
X439292Y454386D01*
X439459Y454247D01*
X439875Y453941D01*
X440403Y453608D01*
X441014Y453330D01*
X441347Y453219D01*
X441680Y453136D01*
X442041Y453080D01*
X442430Y453053D01*
X442625D01*
X442791Y453080D01*
X442958Y453108D01*
X443180Y453136D01*
X443652Y453275D01*
X444207Y453469D01*
X444513Y453608D01*
X444791Y453747D01*
X445096Y453941D01*
X445402Y454163D01*
X445679Y454413D01*
X445957Y454719D01*
X445985Y454746D01*
X446012Y454802D01*
X446096Y454885D01*
X446179Y455052D01*
X446290Y455219D01*
X446429Y455441D01*
X446568Y455691D01*
X446707Y455996D01*
X446818Y456329D01*
X446957Y456718D01*
X447096Y457162D01*
X447207Y457607D01*
X447290Y458107D01*
X447373Y458662D01*
X447401Y459245D01*
X447429Y459884D01*
Y459939D01*
Y460050D01*
Y460245D01*
X447401Y460495D01*
X447373Y460828D01*
X447345Y461189D01*
X447318Y461578D01*
X447234Y462022D01*
X447068Y462911D01*
X446790Y463855D01*
X446624Y464299D01*
X446429Y464716D01*
X446207Y465105D01*
X445929Y465466D01*
X445901Y465493D01*
X445874Y465549D01*
X445790Y465632D01*
X445679Y465743D01*
X445513Y465882D01*
X445346Y466049D01*
X444930Y466382D01*
X444402Y466688D01*
X443763Y466993D01*
X443430Y467104D01*
X443069Y467187D01*
X442680Y467243D01*
X442291Y467271D01*
D02*
G37*
G36*
X518964Y440206D02*
X510883Y428654D01*
X518964D01*
Y440206D01*
D02*
G37*
G36*
X537098Y442733D02*
X536904D01*
X536737Y442705D01*
X536571Y442678D01*
X536348Y442650D01*
X535849Y442511D01*
X535293Y442289D01*
X535015Y442150D01*
X534710Y441956D01*
X534432Y441761D01*
X534155Y441511D01*
X533877Y441234D01*
X533627Y440900D01*
X533599Y440873D01*
X533571Y440789D01*
X533488Y440650D01*
X533377Y440428D01*
X533266Y440151D01*
X533127Y439817D01*
X532960Y439429D01*
X532822Y438929D01*
X532683Y438373D01*
X532516Y437762D01*
X532377Y437040D01*
X532266Y436263D01*
X532155Y435402D01*
X532099Y434430D01*
X532044Y433402D01*
X532016Y432264D01*
Y432236D01*
Y432181D01*
Y432097D01*
Y431986D01*
Y431847D01*
Y431653D01*
X532044Y431236D01*
X532072Y430736D01*
X532099Y430153D01*
X532127Y429515D01*
X532211Y428848D01*
X532377Y427432D01*
X532488Y426738D01*
X532627Y426043D01*
X532794Y425405D01*
X533016Y424822D01*
X533238Y424294D01*
X533488Y423850D01*
X533516Y423822D01*
X533544Y423766D01*
X533627Y423655D01*
X533766Y423516D01*
X533905Y423378D01*
X534071Y423211D01*
X534488Y422822D01*
X535015Y422433D01*
X535654Y422128D01*
X535987Y421989D01*
X536348Y421878D01*
X536737Y421822D01*
X537126Y421795D01*
X537209D01*
X537348Y421822D01*
X537487D01*
X537681Y421850D01*
X537903Y421906D01*
X538403Y422045D01*
X538681Y422156D01*
X538959Y422294D01*
X539264Y422461D01*
X539570Y422683D01*
X539875Y422905D01*
X540181Y423183D01*
X540486Y423516D01*
X540764Y423877D01*
X540792Y423905D01*
X540819Y423988D01*
X540903Y424099D01*
X540986Y424294D01*
X541125Y424544D01*
X541236Y424877D01*
X541375Y425266D01*
X541514Y425710D01*
X541652Y426238D01*
X541791Y426849D01*
X541930Y427515D01*
X542041Y428293D01*
X542125Y429154D01*
X542208Y430098D01*
X542236Y431125D01*
X542263Y432264D01*
Y432292D01*
Y432347D01*
Y432431D01*
Y432542D01*
Y432680D01*
Y432847D01*
X542236Y433291D01*
X542208Y433791D01*
X542180Y434374D01*
X542152Y435013D01*
X542069Y435680D01*
X541902Y437096D01*
X541763Y437790D01*
X541625Y438457D01*
X541458Y439095D01*
X541264Y439706D01*
X541042Y440206D01*
X540764Y440650D01*
X540736Y440678D01*
X540708Y440734D01*
X540625Y440845D01*
X540514Y440984D01*
X540347Y441122D01*
X540181Y441317D01*
X539986Y441511D01*
X539764Y441706D01*
X539236Y442067D01*
X538598Y442400D01*
X538265Y442539D01*
X537876Y442650D01*
X537515Y442705D01*
X537098Y442733D01*
D02*
G37*
G36*
X409884Y436041D02*
X409662D01*
X409523Y436013D01*
X409328Y435985D01*
X409134Y435957D01*
X408606Y435846D01*
X408051Y435680D01*
X407412Y435430D01*
X407107Y435263D01*
X406801Y435069D01*
X406496Y434819D01*
X406218Y434569D01*
X406190Y434541D01*
X406163Y434513D01*
X406079Y434430D01*
X405996Y434319D01*
X405885Y434152D01*
X405746Y433986D01*
X405607Y433791D01*
X405468Y433541D01*
X405330Y433291D01*
X405191Y432986D01*
X404913Y432319D01*
X404718Y431570D01*
X404663Y431153D01*
X404607Y430709D01*
X414993D01*
Y430736D01*
Y430820D01*
X414966Y430931D01*
X414938Y431098D01*
X414910Y431292D01*
X414882Y431514D01*
X414771Y432014D01*
X414605Y432597D01*
X414410Y433180D01*
X414133Y433736D01*
X413799Y434208D01*
X413772Y434235D01*
X413744Y434291D01*
X413633Y434374D01*
X413522Y434485D01*
X413383Y434624D01*
X413188Y434791D01*
X412966Y434958D01*
X412744Y435124D01*
X412466Y435291D01*
X412161Y435457D01*
X411494Y435763D01*
X411133Y435874D01*
X410745Y435957D01*
X410328Y436013D01*
X409884Y436041D01*
D02*
G37*
G36*
X437154Y436013D02*
X436960D01*
X436793Y435985D01*
X436626Y435957D01*
X436404Y435929D01*
X435904Y435791D01*
X435349Y435596D01*
X435043Y435457D01*
X434766Y435291D01*
X434460Y435096D01*
X434155Y434846D01*
X433849Y434597D01*
X433572Y434291D01*
X433544Y434263D01*
X433516Y434208D01*
X433433Y434125D01*
X433349Y433986D01*
X433238Y433791D01*
X433127Y433569D01*
X432988Y433319D01*
X432850Y433014D01*
X432711Y432680D01*
X432572Y432319D01*
X432461Y431903D01*
X432350Y431459D01*
X432266Y430959D01*
X432183Y430431D01*
X432155Y429848D01*
X432128Y429237D01*
Y429209D01*
Y429070D01*
Y428876D01*
X432155Y428626D01*
X432183Y428348D01*
X432211Y427987D01*
X432239Y427598D01*
X432322Y427210D01*
X432488Y426321D01*
X432738Y425432D01*
X432905Y425016D01*
X433100Y424627D01*
X433322Y424238D01*
X433572Y423905D01*
X433599Y423877D01*
X433627Y423822D01*
X433710Y423738D01*
X433821Y423655D01*
X433988Y423516D01*
X434155Y423378D01*
X434571Y423072D01*
X435099Y422766D01*
X435710Y422489D01*
X436071Y422405D01*
X436432Y422322D01*
X436821Y422267D01*
X437209Y422239D01*
X437432D01*
X437570Y422267D01*
X437765Y422294D01*
X437987Y422322D01*
X438487Y422461D01*
X439042Y422655D01*
X439348Y422794D01*
X439653Y422933D01*
X439959Y423128D01*
X440264Y423350D01*
X440570Y423600D01*
X440847Y423905D01*
X440875Y423933D01*
X440903Y423988D01*
X440986Y424072D01*
X441070Y424211D01*
X441181Y424405D01*
X441319Y424627D01*
X441458Y424877D01*
X441597Y425182D01*
X441708Y425516D01*
X441847Y425905D01*
X441986Y426349D01*
X442097Y426821D01*
X442180Y427321D01*
X442264Y427876D01*
X442291Y428487D01*
X442319Y429126D01*
Y429154D01*
Y429265D01*
Y429459D01*
X442291Y429681D01*
X442264Y429959D01*
X442236Y430292D01*
X442180Y430653D01*
X442125Y431042D01*
X441958Y431875D01*
X441680Y432736D01*
X441514Y433152D01*
X441292Y433541D01*
X441070Y433930D01*
X440792Y434263D01*
X440764Y434291D01*
X440736Y434347D01*
X440653Y434430D01*
X440514Y434541D01*
X440375Y434680D01*
X440209Y434819D01*
X439764Y435152D01*
X439237Y435457D01*
X438626Y435735D01*
X438293Y435846D01*
X437931Y435929D01*
X437543Y435985D01*
X437154Y436013D01*
D02*
G37*
%LPD*%
M02*
