G04*
G04 #@! TF.GenerationSoftware,Altium Limited,Altium Designer,18.0.9 (584)*
G04*
G04 Layer_Color=65535*
%FSLAX25Y25*%
%MOIN*%
G70*
G01*
G75*
G36*
X354138Y369827D02*
X351015D01*
Y379042D01*
X351301Y389000D01*
X343532Y369827D01*
X341133D01*
X333384Y388943D01*
X333689Y379042D01*
Y369827D01*
X330566D01*
Y393513D01*
X334603D01*
X342352Y374168D01*
X350082Y393513D01*
X354138D01*
Y369827D01*
D02*
G37*
G36*
X440884Y393493D02*
X441170D01*
X441493Y393455D01*
X441874Y393417D01*
X442312Y393360D01*
X442769Y393284D01*
X443264Y393189D01*
X443759Y393074D01*
X444273Y392922D01*
X444787Y392751D01*
X445282Y392541D01*
X445777Y392294D01*
X446234Y392008D01*
X446653Y391685D01*
X446672Y391666D01*
X446748Y391609D01*
X446863Y391494D01*
X446996Y391342D01*
X447148Y391151D01*
X447338Y390923D01*
X447529Y390656D01*
X447738Y390333D01*
X447948Y389990D01*
X448138Y389590D01*
X448329Y389152D01*
X448481Y388676D01*
X448633Y388162D01*
X448728Y387610D01*
X448805Y387001D01*
X448824Y386372D01*
Y386353D01*
Y386277D01*
Y386163D01*
X448805Y386011D01*
X448785Y385801D01*
X448767Y385592D01*
X448728Y385344D01*
X448671Y385059D01*
X448614Y384773D01*
X448538Y384449D01*
X448443Y384145D01*
X448310Y383802D01*
X448176Y383478D01*
X448024Y383155D01*
X447833Y382831D01*
X447624Y382507D01*
X447605Y382488D01*
X447567Y382431D01*
X447491Y382355D01*
X447396Y382241D01*
X447281Y382107D01*
X447129Y381955D01*
X446958Y381784D01*
X446767Y381593D01*
X446539Y381403D01*
X446291Y381194D01*
X446006Y380984D01*
X445720Y380794D01*
X445396Y380584D01*
X445054Y380413D01*
X444673Y380223D01*
X444292Y380070D01*
X449871Y370017D01*
Y369827D01*
X446501D01*
X441360Y379404D01*
X435800D01*
Y369827D01*
X432659D01*
Y393513D01*
X440770D01*
X440884Y393493D01*
D02*
G37*
G36*
X397454D02*
X397739D01*
X398063Y393455D01*
X398444Y393417D01*
X398882Y393360D01*
X399339Y393284D01*
X399834Y393189D01*
X400329Y393074D01*
X400843Y392922D01*
X401357Y392751D01*
X401852Y392541D01*
X402347Y392294D01*
X402804Y392008D01*
X403223Y391685D01*
X403242Y391666D01*
X403318Y391609D01*
X403432Y391494D01*
X403566Y391342D01*
X403718Y391151D01*
X403908Y390923D01*
X404099Y390656D01*
X404308Y390333D01*
X404518Y389990D01*
X404708Y389590D01*
X404898Y389152D01*
X405051Y388676D01*
X405203Y388162D01*
X405298Y387610D01*
X405374Y387001D01*
X405393Y386372D01*
Y386353D01*
Y386277D01*
Y386163D01*
X405374Y386011D01*
X405355Y385801D01*
X405336Y385592D01*
X405298Y385344D01*
X405241Y385059D01*
X405184Y384773D01*
X405108Y384449D01*
X405013Y384145D01*
X404879Y383802D01*
X404746Y383478D01*
X404594Y383155D01*
X404403Y382831D01*
X404194Y382507D01*
X404175Y382488D01*
X404137Y382431D01*
X404061Y382355D01*
X403965Y382241D01*
X403851Y382107D01*
X403699Y381955D01*
X403527Y381784D01*
X403337Y381593D01*
X403109Y381403D01*
X402861Y381194D01*
X402575Y380984D01*
X402290Y380794D01*
X401966Y380584D01*
X401623Y380413D01*
X401243Y380223D01*
X400862Y380070D01*
X406441Y370017D01*
Y369827D01*
X403070D01*
X397930Y379404D01*
X392370D01*
Y369827D01*
X389228D01*
Y393513D01*
X397340D01*
X397454Y393493D01*
D02*
G37*
G36*
X376929D02*
X377214D01*
X377538Y393455D01*
X377919Y393417D01*
X378357Y393360D01*
X378814Y393284D01*
X379309Y393189D01*
X379804Y393074D01*
X380318Y392922D01*
X380832Y392751D01*
X381327Y392541D01*
X381822Y392294D01*
X382279Y392008D01*
X382698Y391685D01*
X382717Y391666D01*
X382793Y391609D01*
X382907Y391494D01*
X383040Y391342D01*
X383193Y391151D01*
X383383Y390923D01*
X383574Y390656D01*
X383783Y390333D01*
X383992Y389990D01*
X384183Y389590D01*
X384373Y389152D01*
X384525Y388676D01*
X384678Y388162D01*
X384773Y387610D01*
X384849Y387001D01*
X384868Y386372D01*
Y386353D01*
Y386277D01*
Y386163D01*
X384849Y386011D01*
X384830Y385801D01*
X384811Y385592D01*
X384773Y385344D01*
X384716Y385059D01*
X384659Y384773D01*
X384583Y384449D01*
X384488Y384145D01*
X384354Y383802D01*
X384221Y383478D01*
X384069Y383155D01*
X383878Y382831D01*
X383669Y382507D01*
X383650Y382488D01*
X383612Y382431D01*
X383536Y382355D01*
X383440Y382241D01*
X383326Y382107D01*
X383174Y381955D01*
X383002Y381784D01*
X382812Y381593D01*
X382583Y381403D01*
X382336Y381194D01*
X382050Y380984D01*
X381765Y380794D01*
X381441Y380584D01*
X381098Y380413D01*
X380717Y380223D01*
X380337Y380070D01*
X385915Y370017D01*
Y369827D01*
X382545D01*
X377405Y379404D01*
X371845D01*
Y369827D01*
X368703D01*
Y393513D01*
X376814D01*
X376929Y393493D01*
D02*
G37*
G36*
X363010Y369827D02*
X359888D01*
Y393513D01*
X363010D01*
Y369827D01*
D02*
G37*
G36*
X418931Y393817D02*
X419178Y393798D01*
X419483Y393760D01*
X419807Y393722D01*
X420149Y393665D01*
X420530Y393589D01*
X420930Y393493D01*
X421349Y393379D01*
X421787Y393246D01*
X422206Y393094D01*
X422644Y392903D01*
X423063Y392694D01*
X423481Y392446D01*
X423500Y392427D01*
X423577Y392389D01*
X423691Y392294D01*
X423843Y392199D01*
X424015Y392046D01*
X424224Y391875D01*
X424472Y391666D01*
X424719Y391437D01*
X424986Y391171D01*
X425252Y390866D01*
X425519Y390542D01*
X425804Y390180D01*
X426071Y389800D01*
X426337Y389381D01*
X426585Y388943D01*
X426813Y388467D01*
X426832Y388429D01*
X426870Y388353D01*
X426928Y388200D01*
X427004Y388010D01*
X427080Y387762D01*
X427194Y387458D01*
X427289Y387115D01*
X427404Y386734D01*
X427518Y386296D01*
X427613Y385839D01*
X427727Y385344D01*
X427804Y384811D01*
X427880Y384240D01*
X427937Y383650D01*
X427975Y383040D01*
X427994Y382393D01*
Y380889D01*
Y380851D01*
Y380737D01*
Y380546D01*
X427975Y380299D01*
X427956Y380013D01*
X427937Y379651D01*
X427899Y379271D01*
X427842Y378833D01*
X427784Y378376D01*
X427708Y377881D01*
X427613Y377386D01*
X427499Y376871D01*
X427365Y376338D01*
X427194Y375824D01*
X427023Y375310D01*
X426813Y374815D01*
X426794Y374777D01*
X426756Y374701D01*
X426699Y374568D01*
X426604Y374396D01*
X426471Y374168D01*
X426337Y373920D01*
X426166Y373654D01*
X425957Y373349D01*
X425747Y373044D01*
X425500Y372702D01*
X425214Y372378D01*
X424928Y372054D01*
X424605Y371731D01*
X424262Y371426D01*
X423900Y371121D01*
X423500Y370855D01*
X423481Y370836D01*
X423405Y370798D01*
X423291Y370722D01*
X423120Y370645D01*
X422910Y370550D01*
X422663Y370436D01*
X422396Y370303D01*
X422072Y370188D01*
X421711Y370055D01*
X421330Y369922D01*
X420911Y369808D01*
X420473Y369712D01*
X420016Y369636D01*
X419521Y369560D01*
X419026Y369522D01*
X418493Y369503D01*
X418360D01*
X418226Y369522D01*
X418017D01*
X417769Y369541D01*
X417503Y369579D01*
X417179Y369617D01*
X416817Y369674D01*
X416456Y369751D01*
X416056Y369846D01*
X415637Y369941D01*
X415218Y370074D01*
X414780Y370246D01*
X414361Y370417D01*
X413942Y370626D01*
X413523Y370874D01*
X413504Y370893D01*
X413428Y370931D01*
X413314Y371026D01*
X413162Y371121D01*
X412990Y371274D01*
X412781Y371445D01*
X412552Y371636D01*
X412305Y371883D01*
X412038Y372130D01*
X411753Y372435D01*
X411486Y372759D01*
X411201Y373102D01*
X410934Y373482D01*
X410668Y373882D01*
X410401Y374320D01*
X410172Y374777D01*
X410153Y374815D01*
X410115Y374891D01*
X410058Y375044D01*
X409982Y375234D01*
X409887Y375463D01*
X409792Y375767D01*
X409677Y376091D01*
X409563Y376472D01*
X409449Y376890D01*
X409335Y377347D01*
X409239Y377823D01*
X409144Y378338D01*
X409068Y378890D01*
X408992Y379461D01*
X408954Y380070D01*
X408935Y380679D01*
Y382393D01*
Y382412D01*
Y382431D01*
Y382545D01*
Y382717D01*
X408954Y382964D01*
X408973Y383269D01*
X408992Y383612D01*
X409030Y383993D01*
X409087Y384430D01*
X409144Y384887D01*
X409220Y385363D01*
X409316Y385858D01*
X409430Y386372D01*
X409563Y386887D01*
X409734Y387401D01*
X409906Y387915D01*
X410115Y388410D01*
X410134Y388448D01*
X410172Y388524D01*
X410249Y388657D01*
X410344Y388848D01*
X410458Y389057D01*
X410610Y389324D01*
X410782Y389590D01*
X410991Y389895D01*
X411220Y390219D01*
X411467Y390542D01*
X411734Y390885D01*
X412038Y391209D01*
X412362Y391532D01*
X412724Y391856D01*
X413086Y392161D01*
X413485Y392427D01*
X413504Y392446D01*
X413581Y392484D01*
X413714Y392561D01*
X413866Y392656D01*
X414076Y392751D01*
X414323Y392865D01*
X414609Y392998D01*
X414913Y393132D01*
X415275Y393265D01*
X415656Y393398D01*
X416056Y393513D01*
X416494Y393608D01*
X416951Y393703D01*
X417446Y393779D01*
X417941Y393817D01*
X418455Y393836D01*
X418740D01*
X418931Y393817D01*
D02*
G37*
%LPC*%
G36*
X440579Y390961D02*
X435800D01*
Y381955D01*
X440827D01*
X440979Y381974D01*
X441189Y381993D01*
X441398Y382012D01*
X441665Y382050D01*
X441931Y382107D01*
X442521Y382241D01*
X442826Y382355D01*
X443131Y382469D01*
X443435Y382603D01*
X443740Y382755D01*
X444026Y382945D01*
X444292Y383155D01*
X444311Y383174D01*
X444349Y383212D01*
X444425Y383288D01*
X444501Y383383D01*
X444616Y383497D01*
X444730Y383650D01*
X444863Y383821D01*
X444997Y384012D01*
X445111Y384221D01*
X445244Y384469D01*
X445358Y384735D01*
X445473Y385021D01*
X445549Y385344D01*
X445625Y385668D01*
X445663Y386011D01*
X445682Y386391D01*
Y386411D01*
Y386487D01*
Y386601D01*
X445663Y386753D01*
X445644Y386944D01*
X445606Y387153D01*
X445568Y387382D01*
X445511Y387629D01*
X445454Y387896D01*
X445358Y388181D01*
X445263Y388467D01*
X445130Y388733D01*
X444978Y389019D01*
X444806Y389286D01*
X444597Y389533D01*
X444368Y389762D01*
X444349Y389781D01*
X444311Y389819D01*
X444235Y389876D01*
X444121Y389952D01*
X443988Y390028D01*
X443816Y390142D01*
X443626Y390238D01*
X443397Y390352D01*
X443150Y390466D01*
X442864Y390580D01*
X442559Y390675D01*
X442217Y390771D01*
X441855Y390847D01*
X441455Y390904D01*
X441036Y390942D01*
X440579Y390961D01*
D02*
G37*
G36*
X397149D02*
X392370D01*
Y381955D01*
X397397D01*
X397549Y381974D01*
X397758Y381993D01*
X397968Y382012D01*
X398234Y382050D01*
X398501Y382107D01*
X399091Y382241D01*
X399396Y382355D01*
X399700Y382469D01*
X400005Y382603D01*
X400310Y382755D01*
X400595Y382945D01*
X400862Y383155D01*
X400881Y383174D01*
X400919Y383212D01*
X400995Y383288D01*
X401071Y383383D01*
X401186Y383497D01*
X401300Y383650D01*
X401433Y383821D01*
X401566Y384012D01*
X401681Y384221D01*
X401814Y384469D01*
X401928Y384735D01*
X402042Y385021D01*
X402118Y385344D01*
X402195Y385668D01*
X402233Y386011D01*
X402252Y386391D01*
Y386411D01*
Y386487D01*
Y386601D01*
X402233Y386753D01*
X402214Y386944D01*
X402176Y387153D01*
X402138Y387382D01*
X402080Y387629D01*
X402023Y387896D01*
X401928Y388181D01*
X401833Y388467D01*
X401700Y388733D01*
X401547Y389019D01*
X401376Y389286D01*
X401166Y389533D01*
X400938Y389762D01*
X400919Y389781D01*
X400881Y389819D01*
X400805Y389876D01*
X400691Y389952D01*
X400557Y390028D01*
X400386Y390142D01*
X400196Y390238D01*
X399967Y390352D01*
X399720Y390466D01*
X399434Y390580D01*
X399129Y390675D01*
X398786Y390771D01*
X398425Y390847D01*
X398025Y390904D01*
X397606Y390942D01*
X397149Y390961D01*
D02*
G37*
G36*
X376624D02*
X371845D01*
Y381955D01*
X376871D01*
X377024Y381974D01*
X377233Y381993D01*
X377443Y382012D01*
X377709Y382050D01*
X377976Y382107D01*
X378566Y382241D01*
X378871Y382355D01*
X379175Y382469D01*
X379480Y382603D01*
X379785Y382755D01*
X380070Y382945D01*
X380337Y383155D01*
X380356Y383174D01*
X380394Y383212D01*
X380470Y383288D01*
X380546Y383383D01*
X380660Y383497D01*
X380775Y383650D01*
X380908Y383821D01*
X381041Y384012D01*
X381155Y384221D01*
X381289Y384469D01*
X381403Y384735D01*
X381517Y385021D01*
X381593Y385344D01*
X381669Y385668D01*
X381708Y386011D01*
X381727Y386391D01*
Y386411D01*
Y386487D01*
Y386601D01*
X381708Y386753D01*
X381689Y386944D01*
X381650Y387153D01*
X381612Y387382D01*
X381555Y387629D01*
X381498Y387896D01*
X381403Y388181D01*
X381308Y388467D01*
X381174Y388733D01*
X381022Y389019D01*
X380851Y389286D01*
X380641Y389533D01*
X380413Y389762D01*
X380394Y389781D01*
X380356Y389819D01*
X380280Y389876D01*
X380165Y389952D01*
X380032Y390028D01*
X379861Y390142D01*
X379670Y390238D01*
X379442Y390352D01*
X379194Y390466D01*
X378909Y390580D01*
X378604Y390675D01*
X378261Y390771D01*
X377900Y390847D01*
X377500Y390904D01*
X377081Y390942D01*
X376624Y390961D01*
D02*
G37*
G36*
X418455Y391151D02*
X418322D01*
X418169Y391132D01*
X417960Y391113D01*
X417712Y391075D01*
X417427Y391037D01*
X417103Y390961D01*
X416760Y390866D01*
X416398Y390752D01*
X416018Y390599D01*
X415637Y390409D01*
X415237Y390199D01*
X414856Y389933D01*
X414475Y389628D01*
X414133Y389286D01*
X413790Y388886D01*
X413771Y388867D01*
X413714Y388790D01*
X413638Y388657D01*
X413523Y388467D01*
X413390Y388238D01*
X413257Y387972D01*
X413105Y387629D01*
X412933Y387267D01*
X412781Y386848D01*
X412629Y386372D01*
X412476Y385858D01*
X412343Y385306D01*
X412229Y384697D01*
X412153Y384050D01*
X412076Y383364D01*
X412057Y382641D01*
Y380889D01*
Y380870D01*
Y380851D01*
Y380794D01*
Y380718D01*
Y380622D01*
X412076Y380489D01*
Y380223D01*
X412114Y379880D01*
X412153Y379480D01*
X412210Y379042D01*
X412267Y378566D01*
X412362Y378052D01*
X412476Y377538D01*
X412609Y377005D01*
X412781Y376472D01*
X412971Y375939D01*
X413200Y375425D01*
X413466Y374929D01*
X413771Y374472D01*
X413790Y374453D01*
X413847Y374377D01*
X413942Y374263D01*
X414095Y374111D01*
X414266Y373939D01*
X414475Y373730D01*
X414723Y373520D01*
X415009Y373311D01*
X415332Y373102D01*
X415675Y372892D01*
X416056Y372683D01*
X416494Y372511D01*
X416932Y372359D01*
X417427Y372245D01*
X417941Y372169D01*
X418493Y372150D01*
X418626D01*
X418779Y372169D01*
X418988Y372188D01*
X419254Y372226D01*
X419540Y372264D01*
X419864Y372340D01*
X420206Y372416D01*
X420587Y372530D01*
X420968Y372683D01*
X421349Y372854D01*
X421749Y373082D01*
X422129Y373330D01*
X422491Y373616D01*
X422853Y373958D01*
X423177Y374339D01*
X423196Y374358D01*
X423253Y374434D01*
X423329Y374568D01*
X423443Y374758D01*
X423558Y374987D01*
X423710Y375253D01*
X423862Y375577D01*
X424015Y375958D01*
X424167Y376377D01*
X424319Y376852D01*
X424472Y377367D01*
X424605Y377938D01*
X424719Y378547D01*
X424795Y379213D01*
X424871Y379918D01*
X424890Y380661D01*
Y382431D01*
Y382450D01*
Y382488D01*
Y382545D01*
Y382622D01*
Y382717D01*
X424871Y382831D01*
Y383117D01*
X424833Y383478D01*
X424795Y383878D01*
X424757Y384335D01*
X424681Y384811D01*
X424586Y385325D01*
X424472Y385858D01*
X424338Y386391D01*
X424167Y386925D01*
X423976Y387458D01*
X423748Y387972D01*
X423500Y388448D01*
X423196Y388886D01*
X423177Y388905D01*
X423120Y388981D01*
X423024Y389095D01*
X422891Y389247D01*
X422720Y389419D01*
X422491Y389609D01*
X422244Y389800D01*
X421977Y390028D01*
X421654Y390238D01*
X421292Y390428D01*
X420911Y390618D01*
X420473Y390790D01*
X420016Y390942D01*
X419540Y391056D01*
X419007Y391132D01*
X418455Y391151D01*
D02*
G37*
%LPD*%
M02*
