G04*
G04 #@! TF.GenerationSoftware,Altium Limited,Altium Designer,19.1.6 (110)*
G04*
G04 Layer_Physical_Order=1*
G04 Layer_Color=255*
%FSLAX25Y25*%
%MOIN*%
G70*
G01*
G75*
G36*
X1902987Y35399D02*
X1903756Y34478D01*
X1903003Y30339D01*
X1903000Y30268D01*
X1902980Y30199D01*
X1902031Y23655D01*
X1902030Y23583D01*
X1902013Y23513D01*
X1901300Y16939D01*
X1901302Y16868D01*
X1901287Y16797D01*
X1900810Y10202D01*
X1900814Y10131D01*
X1900802Y10060D01*
X1900562Y3452D01*
X1900569Y3380D01*
X1900560Y3309D01*
X1900558Y-3303D01*
X1900567Y-3374D01*
X1900560Y-3446D01*
X1900795Y-10054D01*
X1900807Y-10125D01*
X1900803Y-10197D01*
X1901275Y-16792D01*
X1901290Y-16862D01*
X1901288Y-16934D01*
X1901997Y-23508D01*
X1902014Y-23578D01*
X1902015Y-23650D01*
X1902959Y-30195D01*
X1902979Y-30264D01*
X1902982Y-30335D01*
X1903733Y-34478D01*
X1902964Y-35399D01*
X3971D01*
Y35399D01*
X1902987Y35399D01*
D02*
G37*
%LPC*%
G36*
X13780Y21912D02*
X12927Y21743D01*
X12205Y21260D01*
X11722Y20537D01*
X11552Y19685D01*
X11722Y18833D01*
X12205Y18110D01*
X12927Y17627D01*
X13780Y17458D01*
X14632Y17627D01*
X15354Y18110D01*
X15837Y18833D01*
X16007Y19685D01*
X15837Y20537D01*
X15354Y21260D01*
X14632Y21743D01*
X13780Y21912D01*
D02*
G37*
G36*
X13780Y-17458D02*
X12927Y-17627D01*
X12205Y-18110D01*
X11722Y-18833D01*
X11553Y-19685D01*
X11722Y-20537D01*
X12205Y-21260D01*
X12927Y-21743D01*
X13780Y-21912D01*
X14632Y-21743D01*
X15354Y-21260D01*
X15837Y-20537D01*
X16007Y-19685D01*
X15837Y-18833D01*
X15354Y-18110D01*
X14632Y-17627D01*
X13780Y-17458D01*
D02*
G37*
%LPD*%
M02*
