G04*
G04 #@! TF.GenerationSoftware,Altium Limited,Altium Designer,19.1.5 (86)*
G04*
G04 Layer_Color=8388736*
%FSLAX25Y25*%
%MOIN*%
G70*
G01*
G75*
%ADD11C,0.01000*%
D11*
X3999Y-5813D02*
X0D01*
Y-8812D01*
X1999D01*
X0D01*
Y-11811D01*
X5998Y-5813D02*
Y-10811D01*
X6998Y-11811D01*
X8997D01*
X9997Y-10811D01*
Y-5813D01*
X11996D02*
Y-11811D01*
X15995D01*
X17994Y-5813D02*
Y-11811D01*
X21993D01*
X33989Y-6813D02*
X32989Y-5813D01*
X30990D01*
X29990Y-6813D01*
Y-7812D01*
X30990Y-8812D01*
X32989D01*
X33989Y-9812D01*
Y-10811D01*
X32989Y-11811D01*
X30990D01*
X29990Y-10811D01*
X38987Y-5813D02*
X36988D01*
X35988Y-6813D01*
Y-10811D01*
X36988Y-11811D01*
X38987D01*
X39987Y-10811D01*
Y-6813D01*
X38987Y-5813D01*
X41986D02*
Y-11811D01*
X45985D01*
X47984Y-5813D02*
Y-11811D01*
X50984D01*
X51983Y-10811D01*
Y-6813D01*
X50984Y-5813D01*
X47984D01*
X57981D02*
X53983D01*
Y-11811D01*
X57981D01*
X53983Y-8812D02*
X55982D01*
X59981Y-11811D02*
Y-5813D01*
X62980D01*
X63979Y-6813D01*
Y-8812D01*
X62980Y-9812D01*
X59981D01*
X61980D02*
X63979Y-11811D01*
X65979D02*
Y-5813D01*
X67978Y-7812D01*
X69977Y-5813D01*
Y-11811D01*
X71977D02*
Y-7812D01*
X73976Y-5813D01*
X75975Y-7812D01*
Y-11811D01*
Y-8812D01*
X71977D01*
X81973Y-6813D02*
X80974Y-5813D01*
X78974D01*
X77975Y-6813D01*
Y-7812D01*
X78974Y-8812D01*
X80974D01*
X81973Y-9812D01*
Y-10811D01*
X80974Y-11811D01*
X78974D01*
X77975Y-10811D01*
X83973Y-5813D02*
Y-11811D01*
Y-9812D01*
X87972Y-5813D01*
X84973Y-8812D01*
X87972Y-11811D01*
M02*
