G04*
G04 #@! TF.GenerationSoftware,Altium Limited,Altium Designer,19.0.15 (446)*
G04*
G04 Layer_Color=65535*
%FSLAX25Y25*%
%MOIN*%
G70*
G01*
G75*
%ADD10C,0.01000*%
G36*
X131826Y-6438D02*
X135074D01*
Y-7882D01*
X131826D01*
Y-11615D01*
X130230D01*
Y-7882D01*
X126955D01*
Y-6438D01*
X130230D01*
Y-2996D01*
X131826D01*
Y-6438D01*
D02*
G37*
G36*
X-129070Y-7439D02*
X-133872D01*
Y-6190D01*
X-129070D01*
Y-7439D01*
D02*
G37*
G36*
X-112697Y24675D02*
X-112517Y24653D01*
X-110804Y24379D01*
X-110791Y24376D01*
X-110763Y24372D01*
X-110708Y24363D01*
X-110641Y24345D01*
X-110560Y24326D01*
X-110466Y24296D01*
X-110359Y24265D01*
X-110245Y24226D01*
X-110126Y24179D01*
X-110002Y24124D01*
X-109878Y24062D01*
X-109756Y23993D01*
X-109635Y23910D01*
X-109523Y23822D01*
X-109412Y23727D01*
X-109316Y23620D01*
X-109310Y23612D01*
X-109292Y23595D01*
X-109270Y23557D01*
X-109241Y23517D01*
X-109209Y23456D01*
X-109164Y23385D01*
X-109127Y23309D01*
X-109086Y23218D01*
X-109045Y23120D01*
X-109013Y23009D01*
X-108983Y22892D01*
X-108955Y22761D01*
X-108941Y22625D01*
X-108936Y22484D01*
X-108938Y22337D01*
X-108957Y22178D01*
X-108962Y22144D01*
X-108977Y22097D01*
X-108986Y22042D01*
X-109011Y21969D01*
X-109031Y21888D01*
X-109067Y21795D01*
X-109110Y21704D01*
X-109155Y21598D01*
X-109214Y21495D01*
X-109273Y21392D01*
X-109346Y21284D01*
X-109432Y21186D01*
X-109525Y21088D01*
X-109632Y20993D01*
X-109750Y20913D01*
X-109758Y20908D01*
X-109781Y20897D01*
X-109819Y20875D01*
X-109866Y20848D01*
X-109933Y20823D01*
X-110008Y20793D01*
X-110098Y20758D01*
X-110202Y20726D01*
X-110319Y20695D01*
X-110443Y20666D01*
X-110580Y20646D01*
X-110722Y20633D01*
X-110879Y20623D01*
X-111047Y20622D01*
X-111221Y20636D01*
X-111400Y20658D01*
X-113113Y20932D01*
X-113127Y20934D01*
X-113154Y20939D01*
X-113208Y20954D01*
X-113277Y20965D01*
X-113358Y20985D01*
X-113452Y21014D01*
X-113559Y21046D01*
X-113672Y21085D01*
X-113791Y21132D01*
X-113909Y21186D01*
X-114033Y21248D01*
X-114155Y21317D01*
X-114277Y21393D01*
X-114396Y21482D01*
X-114500Y21576D01*
X-114602Y21684D01*
X-114608Y21692D01*
X-114627Y21709D01*
X-114649Y21747D01*
X-114676Y21794D01*
X-114717Y21850D01*
X-114755Y21919D01*
X-114798Y21996D01*
X-114840Y22087D01*
X-114873Y22191D01*
X-114911Y22302D01*
X-114942Y22420D01*
X-114971Y22544D01*
X-114984Y22680D01*
X-114990Y22821D01*
X-114986Y22975D01*
X-114969Y23127D01*
X-114962Y23168D01*
X-114949Y23208D01*
X-114939Y23270D01*
X-114914Y23336D01*
X-114894Y23417D01*
X-114858Y23510D01*
X-114814Y23608D01*
X-114770Y23707D01*
X-114711Y23817D01*
X-114645Y23919D01*
X-114572Y24026D01*
X-114486Y24125D01*
X-114393Y24223D01*
X-114286Y24318D01*
X-114168Y24397D01*
X-114160Y24403D01*
X-114137Y24414D01*
X-114099Y24435D01*
X-114052Y24463D01*
X-113985Y24487D01*
X-113910Y24518D01*
X-113813Y24551D01*
X-113716Y24585D01*
X-113599Y24615D01*
X-113475Y24645D01*
X-113338Y24665D01*
X-113195Y24677D01*
X-113039Y24688D01*
X-112870Y24689D01*
X-112697Y24675D01*
D02*
G37*
G36*
X-113992Y20011D02*
X-113854Y19996D01*
X-113847Y19995D01*
X-113833Y19993D01*
X-113813Y19990D01*
X-113779Y19977D01*
X-113738Y19971D01*
X-113691Y19956D01*
X-113585Y19918D01*
X-113466Y19871D01*
X-113337Y19801D01*
X-113210Y19717D01*
X-113087Y19606D01*
X-113080Y19605D01*
X-113075Y19591D01*
X-113040Y19550D01*
X-112987Y19485D01*
X-112923Y19398D01*
X-112857Y19288D01*
X-112786Y19158D01*
X-112726Y19007D01*
X-112675Y18845D01*
X-112673Y18851D01*
X-112664Y18864D01*
X-112646Y18889D01*
X-112627Y18921D01*
X-112607Y18960D01*
X-112572Y19004D01*
X-112498Y19112D01*
X-112402Y19230D01*
X-112285Y19345D01*
X-112148Y19456D01*
X-111998Y19559D01*
X-111990Y19564D01*
X-111982Y19570D01*
X-111952Y19579D01*
X-111922Y19596D01*
X-111884Y19611D01*
X-111839Y19632D01*
X-111727Y19670D01*
X-111588Y19704D01*
X-111430Y19728D01*
X-111260Y19736D01*
X-111169Y19735D01*
X-111079Y19721D01*
X-111073Y19720D01*
X-111045Y19715D01*
X-111004Y19709D01*
X-110950Y19693D01*
X-110883Y19675D01*
X-110803Y19648D01*
X-110723Y19622D01*
X-110631Y19579D01*
X-110540Y19536D01*
X-110442Y19485D01*
X-110346Y19428D01*
X-110244Y19362D01*
X-110158Y19285D01*
X-110067Y19193D01*
X-109991Y19104D01*
X-109917Y18993D01*
X-109911Y18985D01*
X-109899Y18970D01*
X-109884Y18932D01*
X-109864Y18886D01*
X-109837Y18833D01*
X-109813Y18766D01*
X-109784Y18684D01*
X-109756Y18595D01*
X-109729Y18499D01*
X-109704Y18390D01*
X-109687Y18275D01*
X-109672Y18153D01*
X-109665Y18018D01*
X-109666Y17885D01*
X-109675Y17739D01*
X-109692Y17587D01*
X-109705Y17505D01*
X-109722Y17444D01*
X-109740Y17377D01*
X-109761Y17289D01*
X-109790Y17195D01*
X-109826Y17102D01*
X-109917Y16885D01*
X-109970Y16774D01*
X-110030Y16664D01*
X-110096Y16555D01*
X-110177Y16448D01*
X-110263Y16350D01*
X-110356Y16252D01*
X-110364Y16247D01*
X-110380Y16235D01*
X-110412Y16212D01*
X-110451Y16183D01*
X-110499Y16149D01*
X-110568Y16111D01*
X-110638Y16072D01*
X-110721Y16037D01*
X-110812Y15995D01*
X-110915Y15962D01*
X-111026Y15931D01*
X-111142Y15907D01*
X-111264Y15892D01*
X-111399Y15885D01*
X-111545Y15894D01*
X-111690Y15911D01*
X-111697Y15912D01*
X-111710Y15914D01*
X-111738Y15918D01*
X-111771Y15931D01*
X-111812Y15937D01*
X-111866Y15953D01*
X-111978Y15999D01*
X-112109Y16055D01*
X-112244Y16133D01*
X-112383Y16233D01*
X-112451Y16293D01*
X-112511Y16358D01*
X-112516Y16366D01*
X-112522Y16374D01*
X-112539Y16398D01*
X-112564Y16423D01*
X-112621Y16503D01*
X-112688Y16612D01*
X-112758Y16743D01*
X-112824Y16901D01*
X-112887Y17079D01*
X-112933Y17277D01*
X-112934Y17270D01*
X-112943Y17257D01*
X-112960Y17239D01*
X-112979Y17207D01*
X-113033Y17131D01*
X-113105Y17037D01*
X-113191Y16938D01*
X-113300Y16829D01*
X-113421Y16729D01*
X-113561Y16646D01*
X-113568Y16647D01*
X-113577Y16635D01*
X-113599Y16631D01*
X-113629Y16615D01*
X-113711Y16586D01*
X-113815Y16553D01*
X-113939Y16524D01*
X-114083Y16505D01*
X-114245Y16503D01*
X-114411Y16515D01*
X-114418Y16516D01*
X-114445Y16521D01*
X-114486Y16534D01*
X-114533Y16542D01*
X-114601Y16560D01*
X-114674Y16586D01*
X-114754Y16612D01*
X-114833Y16646D01*
X-114925Y16689D01*
X-115015Y16738D01*
X-115105Y16788D01*
X-115194Y16851D01*
X-115280Y16928D01*
X-115366Y17006D01*
X-115436Y17094D01*
X-115504Y17196D01*
X-115510Y17204D01*
X-115521Y17220D01*
X-115531Y17250D01*
X-115551Y17295D01*
X-115578Y17349D01*
X-115602Y17416D01*
X-115626Y17490D01*
X-115655Y17572D01*
X-115675Y17666D01*
X-115694Y17768D01*
X-115710Y17883D01*
X-115727Y17998D01*
X-115735Y18126D01*
X-115727Y18258D01*
X-115719Y18398D01*
X-115703Y18543D01*
X-115691Y18618D01*
X-115676Y18665D01*
X-115660Y18725D01*
X-115641Y18800D01*
X-115614Y18880D01*
X-115586Y18967D01*
X-115499Y19157D01*
X-115456Y19248D01*
X-115398Y19351D01*
X-115333Y19446D01*
X-115263Y19533D01*
X-115186Y19620D01*
X-115095Y19703D01*
X-115087Y19709D01*
X-115072Y19721D01*
X-115048Y19738D01*
X-115008Y19767D01*
X-114961Y19794D01*
X-114907Y19828D01*
X-114838Y19866D01*
X-114762Y19896D01*
X-114673Y19931D01*
X-114584Y19959D01*
X-114481Y19985D01*
X-114366Y20001D01*
X-114251Y20018D01*
X-114124Y20019D01*
X-113992Y20011D01*
D02*
G37*
G36*
X-107326Y43991D02*
X-107184Y43978D01*
X-107028Y43961D01*
X-106861Y43933D01*
X-106693Y43889D01*
X-106520Y43837D01*
X-104881Y43269D01*
X-104868Y43264D01*
X-104841Y43255D01*
X-104789Y43237D01*
X-104726Y43208D01*
X-104649Y43174D01*
X-104562Y43129D01*
X-104462Y43080D01*
X-104357Y43022D01*
X-104248Y42954D01*
X-104135Y42878D01*
X-104024Y42796D01*
X-103915Y42707D01*
X-103811Y42605D01*
X-103716Y42498D01*
X-103622Y42385D01*
X-103547Y42264D01*
X-103543Y42255D01*
X-103528Y42235D01*
X-103513Y42193D01*
X-103491Y42149D01*
X-103470Y42083D01*
X-103438Y42006D01*
X-103415Y41924D01*
X-103390Y41827D01*
X-103367Y41724D01*
X-103355Y41610D01*
X-103345Y41489D01*
X-103340Y41355D01*
X-103351Y41219D01*
X-103370Y41079D01*
X-103398Y40934D01*
X-103444Y40781D01*
X-103455Y40748D01*
X-103477Y40705D01*
X-103496Y40652D01*
X-103534Y40584D01*
X-103567Y40508D01*
X-103619Y40423D01*
X-103677Y40340D01*
X-103740Y40244D01*
X-103815Y40153D01*
X-103891Y40062D01*
X-103982Y39969D01*
X-104084Y39886D01*
X-104192Y39806D01*
X-104314Y39731D01*
X-104444Y39673D01*
X-104453Y39669D01*
X-104477Y39663D01*
X-104519Y39648D01*
X-104570Y39629D01*
X-104640Y39616D01*
X-104719Y39600D01*
X-104814Y39581D01*
X-104921Y39567D01*
X-105042Y39557D01*
X-105170Y39550D01*
X-105308Y39554D01*
X-105450Y39566D01*
X-105606Y39584D01*
X-105773Y39612D01*
X-105941Y39656D01*
X-106114Y39708D01*
X-107753Y40276D01*
X-107766Y40280D01*
X-107793Y40289D01*
X-107843Y40314D01*
X-107908Y40337D01*
X-107985Y40371D01*
X-108072Y40415D01*
X-108173Y40465D01*
X-108277Y40523D01*
X-108386Y40590D01*
X-108493Y40664D01*
X-108604Y40747D01*
X-108712Y40836D01*
X-108819Y40931D01*
X-108921Y41040D01*
X-109007Y41151D01*
X-109089Y41274D01*
X-109094Y41283D01*
X-109109Y41303D01*
X-109124Y41345D01*
X-109143Y41396D01*
X-109173Y41458D01*
X-109198Y41532D01*
X-109228Y41616D01*
X-109253Y41713D01*
X-109267Y41821D01*
X-109286Y41937D01*
X-109295Y42058D01*
X-109303Y42186D01*
X-109292Y42322D01*
X-109273Y42462D01*
X-109243Y42613D01*
X-109199Y42759D01*
X-109186Y42799D01*
X-109166Y42836D01*
X-109145Y42895D01*
X-109109Y42956D01*
X-109075Y43032D01*
X-109024Y43117D01*
X-108964Y43207D01*
X-108903Y43296D01*
X-108826Y43394D01*
X-108743Y43483D01*
X-108652Y43576D01*
X-108550Y43658D01*
X-108442Y43738D01*
X-108320Y43814D01*
X-108190Y43871D01*
X-108181Y43876D01*
X-108157Y43882D01*
X-108115Y43897D01*
X-108064Y43916D01*
X-107994Y43928D01*
X-107915Y43945D01*
X-107814Y43962D01*
X-107713Y43978D01*
X-107592Y43987D01*
X-107464Y43995D01*
X-107326Y43991D01*
D02*
G37*
G36*
X-109407Y39974D02*
X-109401Y39972D01*
X-109399Y39957D01*
X-109384Y39937D01*
X-109364Y39908D01*
X-109317Y39833D01*
X-109256Y39731D01*
X-109175Y39608D01*
X-109077Y39464D01*
X-108976Y39311D01*
X-108860Y39138D01*
X-108730Y38961D01*
X-108594Y38782D01*
X-108444Y38598D01*
X-108302Y38417D01*
X-108143Y38237D01*
X-107987Y38073D01*
X-107829Y37915D01*
X-107673Y37773D01*
X-107662Y37762D01*
X-107631Y37744D01*
X-107586Y37706D01*
X-107523Y37655D01*
X-107440Y37597D01*
X-107346Y37528D01*
X-107233Y37452D01*
X-107107Y37371D01*
X-106963Y37277D01*
X-106810Y37188D01*
X-106645Y37094D01*
X-106464Y37001D01*
X-106276Y36907D01*
X-106073Y36815D01*
X-105865Y36736D01*
X-105645Y36652D01*
X-105035Y36441D01*
X-105296Y35686D01*
X-105906Y35898D01*
X-105912Y35900D01*
X-105919Y35902D01*
X-105938Y35909D01*
X-105965Y35918D01*
X-106030Y35941D01*
X-106120Y35979D01*
X-106229Y36024D01*
X-106349Y36081D01*
X-106495Y36146D01*
X-106646Y36220D01*
X-106807Y36305D01*
X-106982Y36395D01*
X-107159Y36500D01*
X-107333Y36612D01*
X-107511Y36733D01*
X-107692Y36869D01*
X-107864Y37009D01*
X-108027Y37154D01*
X-108037Y37165D01*
X-108066Y37189D01*
X-108109Y37233D01*
X-108174Y37300D01*
X-108248Y37384D01*
X-108339Y37482D01*
X-108441Y37591D01*
X-108551Y37717D01*
X-108677Y37863D01*
X-108804Y38025D01*
X-108939Y38189D01*
X-109079Y38377D01*
X-109224Y38574D01*
X-109373Y38780D01*
X-109517Y38999D01*
X-109664Y39233D01*
X-110693Y36263D01*
X-111289Y36469D01*
X-110004Y40181D01*
X-109407Y39974D01*
D02*
G37*
G36*
X-98620Y61876D02*
X-98517Y61874D01*
X-98396Y61863D01*
X-98270Y61848D01*
X-98134Y61820D01*
X-97996Y61783D01*
X-97846Y61739D01*
X-97687Y61682D01*
X-97528Y61610D01*
X-97367Y61528D01*
X-95851Y60685D01*
X-95839Y60678D01*
X-95815Y60664D01*
X-95767Y60637D01*
X-95709Y60597D01*
X-95640Y60551D01*
X-95562Y60492D01*
X-95472Y60425D01*
X-95379Y60350D01*
X-95283Y60265D01*
X-95184Y60170D01*
X-95090Y60070D01*
X-94998Y59963D01*
X-94913Y59844D01*
X-94838Y59723D01*
X-94766Y59596D01*
X-94713Y59463D01*
X-94710Y59453D01*
X-94698Y59431D01*
X-94691Y59387D01*
X-94678Y59340D01*
X-94668Y59271D01*
X-94650Y59190D01*
X-94641Y59105D01*
X-94633Y59006D01*
X-94629Y58900D01*
X-94637Y58785D01*
X-94648Y58665D01*
X-94667Y58532D01*
X-94701Y58400D01*
X-94744Y58265D01*
X-94797Y58128D01*
X-94868Y57985D01*
X-94885Y57954D01*
X-94915Y57915D01*
X-94942Y57867D01*
X-94991Y57807D01*
X-95038Y57737D01*
X-95103Y57663D01*
X-95174Y57591D01*
X-95253Y57508D01*
X-95343Y57431D01*
X-95433Y57354D01*
X-95539Y57278D01*
X-95654Y57215D01*
X-95775Y57155D01*
X-95907Y57102D01*
X-96046Y57068D01*
X-96055Y57065D01*
X-96080Y57063D01*
X-96124Y57055D01*
X-96177Y57046D01*
X-96249Y57046D01*
X-96329Y57043D01*
X-96426Y57041D01*
X-96535Y57046D01*
X-96655Y57057D01*
X-96782Y57072D01*
X-96917Y57100D01*
X-97055Y57137D01*
X-97206Y57181D01*
X-97365Y57238D01*
X-97523Y57310D01*
X-97684Y57392D01*
X-99200Y58236D01*
X-99212Y58242D01*
X-99237Y58256D01*
X-99282Y58289D01*
X-99342Y58323D01*
X-99412Y58369D01*
X-99490Y58429D01*
X-99580Y58495D01*
X-99673Y58570D01*
X-99769Y58655D01*
X-99861Y58746D01*
X-99956Y58847D01*
X-100048Y58953D01*
X-100136Y59066D01*
X-100217Y59191D01*
X-100283Y59315D01*
X-100342Y59451D01*
X-100345Y59461D01*
X-100356Y59483D01*
X-100364Y59527D01*
X-100374Y59580D01*
X-100393Y59646D01*
X-100405Y59724D01*
X-100420Y59812D01*
X-100428Y59912D01*
X-100423Y60020D01*
X-100421Y60138D01*
X-100409Y60259D01*
X-100394Y60386D01*
X-100360Y60518D01*
X-100317Y60652D01*
X-100261Y60796D01*
X-100193Y60933D01*
X-100173Y60969D01*
X-100146Y61002D01*
X-100116Y61057D01*
X-100070Y61111D01*
X-100023Y61180D01*
X-99958Y61255D01*
X-99883Y61332D01*
X-99808Y61410D01*
X-99715Y61492D01*
X-99618Y61566D01*
X-99512Y61642D01*
X-99398Y61705D01*
X-99277Y61765D01*
X-99144Y61818D01*
X-99006Y61853D01*
X-98996Y61855D01*
X-98971Y61857D01*
X-98928Y61865D01*
X-98874Y61875D01*
X-98803Y61875D01*
X-98722Y61877D01*
X-98620Y61876D01*
D02*
G37*
G36*
X-101058Y57609D02*
X-101070Y57601D01*
X-101096Y57583D01*
X-101132Y57547D01*
X-101187Y57506D01*
X-101239Y57456D01*
X-101303Y57397D01*
X-101371Y57331D01*
X-101443Y57260D01*
X-101450Y57248D01*
X-101473Y57221D01*
X-101508Y57185D01*
X-101558Y57125D01*
X-101604Y57056D01*
X-101667Y56972D01*
X-101727Y56878D01*
X-101815Y56720D01*
X-101825Y56687D01*
X-101843Y56641D01*
X-101858Y56586D01*
X-101888Y56459D01*
X-101904Y56389D01*
X-101911Y56305D01*
X-101918Y56222D01*
X-101912Y56131D01*
X-101898Y56044D01*
X-101880Y55946D01*
X-101847Y55849D01*
X-101808Y55748D01*
X-101805Y55738D01*
X-101797Y55725D01*
X-101783Y55694D01*
X-101762Y55659D01*
X-101733Y55611D01*
X-101698Y55559D01*
X-101657Y55505D01*
X-101607Y55437D01*
X-101551Y55366D01*
X-101486Y55298D01*
X-101415Y55227D01*
X-101331Y55149D01*
X-101244Y55076D01*
X-101151Y55001D01*
X-101040Y54931D01*
X-100928Y54861D01*
X-100528Y54638D01*
X-100533Y54657D01*
X-100544Y54694D01*
X-100553Y54763D01*
X-100574Y54854D01*
X-100588Y54957D01*
X-100595Y55073D01*
X-100596Y55200D01*
X-100584Y55336D01*
X-100580Y55342D01*
X-100583Y55352D01*
X-100579Y55373D01*
X-100571Y55401D01*
X-100565Y55469D01*
X-100542Y55567D01*
X-100510Y55668D01*
X-100473Y55791D01*
X-100421Y55913D01*
X-100357Y56044D01*
X-100319Y56110D01*
X-100290Y56150D01*
X-100250Y56207D01*
X-100201Y56267D01*
X-100148Y56333D01*
X-100086Y56401D01*
X-100018Y56467D01*
X-99937Y56541D01*
X-99853Y56605D01*
X-99760Y56673D01*
X-99658Y56727D01*
X-99550Y56779D01*
X-99436Y56826D01*
X-99317Y56855D01*
X-99308Y56858D01*
X-99289Y56863D01*
X-99248Y56865D01*
X-99205Y56872D01*
X-99139Y56875D01*
X-99068Y56875D01*
X-98987Y56878D01*
X-98894Y56874D01*
X-98795Y56866D01*
X-98684Y56852D01*
X-98570Y56828D01*
X-98450Y56801D01*
X-98321Y56761D01*
X-98196Y56715D01*
X-98062Y56657D01*
X-97925Y56589D01*
X-97919Y56585D01*
X-97888Y56568D01*
X-97846Y56545D01*
X-97795Y56508D01*
X-97731Y56465D01*
X-97659Y56409D01*
X-97581Y56350D01*
X-97500Y56281D01*
X-97411Y56199D01*
X-97325Y56111D01*
X-97238Y56024D01*
X-97159Y55924D01*
X-97080Y55809D01*
X-97007Y55697D01*
X-96947Y55576D01*
X-96900Y55446D01*
X-96898Y55437D01*
X-96892Y55418D01*
X-96882Y55380D01*
X-96872Y55327D01*
X-96859Y55264D01*
X-96847Y55186D01*
X-96838Y55102D01*
X-96836Y55006D01*
X-96838Y54903D01*
X-96846Y54789D01*
X-96857Y54668D01*
X-96878Y54545D01*
X-96909Y54418D01*
X-96952Y54284D01*
X-97011Y54150D01*
X-97079Y54013D01*
X-97096Y53983D01*
X-97122Y53949D01*
X-97152Y53895D01*
X-97198Y53841D01*
X-97251Y53775D01*
X-97307Y53703D01*
X-97378Y53632D01*
X-97463Y53551D01*
X-97553Y53475D01*
X-97650Y53401D01*
X-97761Y53329D01*
X-97879Y53259D01*
X-98006Y53203D01*
X-98142Y53143D01*
X-98290Y53106D01*
X-98300Y53104D01*
X-98325Y53102D01*
X-98368Y53094D01*
X-98434Y53091D01*
X-98509Y53085D01*
X-98599Y53080D01*
X-98701Y53081D01*
X-98816Y53089D01*
X-98940Y53095D01*
X-99079Y53117D01*
X-99224Y53142D01*
X-99377Y53180D01*
X-99534Y53227D01*
X-99705Y53290D01*
X-99875Y53369D01*
X-100048Y53458D01*
X-101237Y54119D01*
X-101249Y54126D01*
X-101279Y54143D01*
X-101325Y54176D01*
X-101385Y54210D01*
X-101457Y54266D01*
X-101542Y54329D01*
X-101632Y54395D01*
X-101727Y54480D01*
X-101829Y54568D01*
X-101930Y54672D01*
X-102034Y54785D01*
X-102134Y54905D01*
X-102228Y55036D01*
X-102312Y55170D01*
X-102390Y55317D01*
X-102454Y55472D01*
X-102457Y55481D01*
X-102465Y55510D01*
X-102478Y55557D01*
X-102494Y55613D01*
X-102513Y55695D01*
X-102527Y55783D01*
X-102545Y55880D01*
X-102555Y55989D01*
X-102559Y56110D01*
X-102560Y56238D01*
X-102551Y56368D01*
X-102539Y56504D01*
X-102508Y56645D01*
X-102467Y56790D01*
X-102411Y56933D01*
X-102339Y57076D01*
X-102279Y57185D01*
X-102229Y57261D01*
X-102172Y57348D01*
X-102103Y57445D01*
X-102024Y57543D01*
X-101945Y57643D01*
X-101938Y57655D01*
X-101906Y57684D01*
X-101860Y57738D01*
X-101804Y57795D01*
X-101742Y57863D01*
X-101665Y57932D01*
X-101591Y57993D01*
X-101516Y58055D01*
X-101058Y57609D01*
D02*
G37*
G36*
X-86766Y78055D02*
X-86721Y78055D01*
X-86667Y78056D01*
X-86597Y78043D01*
X-86517Y78032D01*
X-86416Y78012D01*
X-86315Y77993D01*
X-86199Y77961D01*
X-86076Y77924D01*
X-85948Y77873D01*
X-85818Y77813D01*
X-85678Y77743D01*
X-85531Y77660D01*
X-85388Y77561D01*
X-85243Y77453D01*
X-83897Y76358D01*
X-83886Y76350D01*
X-83865Y76332D01*
X-83821Y76297D01*
X-83772Y76248D01*
X-83712Y76190D01*
X-83645Y76118D01*
X-83568Y76037D01*
X-83489Y75947D01*
X-83410Y75846D01*
X-83329Y75736D01*
X-83253Y75621D01*
X-83182Y75500D01*
X-83119Y75368D01*
X-83065Y75236D01*
X-83017Y75098D01*
X-82987Y74958D01*
X-82986Y74948D01*
X-82979Y74924D01*
X-82979Y74880D01*
X-82974Y74831D01*
X-82977Y74761D01*
X-82973Y74678D01*
X-82979Y74593D01*
X-82989Y74494D01*
X-83003Y74389D01*
X-83031Y74277D01*
X-83063Y74160D01*
X-83104Y74033D01*
X-83160Y73909D01*
X-83226Y73783D01*
X-83302Y73657D01*
X-83397Y73529D01*
X-83419Y73502D01*
X-83455Y73469D01*
X-83490Y73426D01*
X-83549Y73375D01*
X-83607Y73315D01*
X-83684Y73253D01*
X-83767Y73195D01*
X-83859Y73126D01*
X-83961Y73066D01*
X-84064Y73006D01*
X-84181Y72950D01*
X-84305Y72907D01*
X-84434Y72869D01*
X-84574Y72840D01*
X-84716Y72830D01*
X-84726Y72829D01*
X-84751Y72832D01*
X-84795Y72832D01*
X-84850Y72831D01*
X-84920Y72844D01*
X-85000Y72855D01*
X-85095Y72870D01*
X-85201Y72894D01*
X-85318Y72926D01*
X-85440Y72963D01*
X-85569Y73014D01*
X-85699Y73074D01*
X-85839Y73144D01*
X-85986Y73227D01*
X-86129Y73326D01*
X-86273Y73434D01*
X-87620Y74528D01*
X-87631Y74537D01*
X-87652Y74555D01*
X-87691Y74595D01*
X-87745Y74639D01*
X-87805Y74697D01*
X-87872Y74769D01*
X-87949Y74849D01*
X-88028Y74940D01*
X-88107Y75040D01*
X-88182Y75146D01*
X-88258Y75261D01*
X-88330Y75382D01*
X-88397Y75509D01*
X-88456Y75646D01*
X-88499Y75779D01*
X-88534Y75924D01*
X-88535Y75933D01*
X-88542Y75957D01*
X-88542Y76002D01*
X-88542Y76056D01*
X-88550Y76124D01*
X-88548Y76204D01*
X-88547Y76292D01*
X-88538Y76392D01*
X-88514Y76498D01*
X-88492Y76614D01*
X-88459Y76731D01*
X-88423Y76853D01*
X-88366Y76977D01*
X-88300Y77102D01*
X-88220Y77234D01*
X-88129Y77357D01*
X-88103Y77389D01*
X-88071Y77417D01*
X-88032Y77465D01*
X-87977Y77511D01*
X-87920Y77571D01*
X-87842Y77633D01*
X-87755Y77696D01*
X-87668Y77760D01*
X-87561Y77825D01*
X-87453Y77881D01*
X-87336Y77937D01*
X-87212Y77979D01*
X-87083Y78017D01*
X-86943Y78047D01*
X-86800Y78057D01*
X-86791Y78057D01*
X-86766Y78055D01*
D02*
G37*
G36*
X-89405Y74521D02*
X-90845Y72750D01*
X-89648Y71526D01*
X-89649Y71536D01*
X-89643Y71566D01*
X-89638Y71616D01*
X-89634Y71676D01*
X-89622Y71746D01*
X-89600Y71827D01*
X-89584Y71913D01*
X-89559Y71999D01*
X-89556Y72014D01*
X-89543Y72040D01*
X-89524Y72087D01*
X-89500Y72148D01*
X-89463Y72216D01*
X-89417Y72295D01*
X-89366Y72379D01*
X-89302Y72470D01*
X-89253Y72529D01*
X-89209Y72573D01*
X-89164Y72617D01*
X-89101Y72673D01*
X-89033Y72734D01*
X-88960Y72791D01*
X-88873Y72855D01*
X-88780Y72913D01*
X-88682Y72968D01*
X-88574Y73024D01*
X-88466Y73069D01*
X-88346Y73106D01*
X-88220Y73129D01*
X-88093Y73142D01*
X-88084Y73143D01*
X-88064Y73145D01*
X-88024Y73140D01*
X-87970Y73140D01*
X-87910Y73137D01*
X-87830Y73125D01*
X-87745Y73109D01*
X-87654Y73089D01*
X-87552Y73060D01*
X-87441Y73032D01*
X-87327Y72985D01*
X-87203Y72929D01*
X-87073Y72868D01*
X-86947Y72792D01*
X-86815Y72702D01*
X-86681Y72603D01*
X-86676Y72598D01*
X-86649Y72576D01*
X-86616Y72550D01*
X-86572Y72505D01*
X-86517Y72452D01*
X-86456Y72384D01*
X-86389Y72312D01*
X-86322Y72230D01*
X-86249Y72144D01*
X-86179Y72043D01*
X-86109Y71941D01*
X-86049Y71829D01*
X-85992Y71712D01*
X-85940Y71589D01*
X-85902Y71460D01*
X-85874Y71329D01*
X-85873Y71320D01*
X-85870Y71300D01*
X-85866Y71261D01*
X-85866Y71207D01*
X-85864Y71143D01*
X-85871Y71068D01*
X-85877Y70984D01*
X-85892Y70888D01*
X-85906Y70783D01*
X-85934Y70672D01*
X-85976Y70554D01*
X-86022Y70431D01*
X-86079Y70307D01*
X-86149Y70176D01*
X-86239Y70043D01*
X-86339Y69910D01*
X-86382Y69856D01*
X-86423Y69817D01*
X-86467Y69773D01*
X-86521Y69718D01*
X-86584Y69662D01*
X-86652Y69601D01*
X-86812Y69481D01*
X-86905Y69422D01*
X-87003Y69367D01*
X-87111Y69312D01*
X-87219Y69266D01*
X-87329Y69230D01*
X-87444Y69199D01*
X-87454Y69198D01*
X-87473Y69196D01*
X-87507Y69187D01*
X-87551Y69187D01*
X-87610Y69181D01*
X-87679Y69184D01*
X-87754Y69191D01*
X-87839Y69197D01*
X-87924Y69213D01*
X-88020Y69238D01*
X-88122Y69267D01*
X-88230Y69310D01*
X-88344Y69357D01*
X-88454Y69420D01*
X-88565Y69492D01*
X-88678Y69584D01*
X-88695Y69607D01*
X-88240Y70167D01*
X-88235Y70163D01*
X-88224Y70154D01*
X-88202Y70136D01*
X-88171Y70120D01*
X-88144Y70098D01*
X-88102Y70073D01*
X-88003Y70019D01*
X-87889Y69972D01*
X-87761Y69930D01*
X-87621Y69906D01*
X-87478Y69906D01*
X-87458Y69908D01*
X-87415Y69917D01*
X-87343Y69939D01*
X-87253Y69973D01*
X-87150Y70023D01*
X-87038Y70094D01*
X-86929Y70184D01*
X-86818Y70299D01*
X-86787Y70337D01*
X-86771Y70368D01*
X-86750Y70405D01*
X-86725Y70447D01*
X-86672Y70556D01*
X-86625Y70679D01*
X-86591Y70821D01*
X-86584Y70896D01*
X-86582Y70975D01*
X-86590Y71053D01*
X-86603Y71135D01*
X-86609Y71140D01*
X-86605Y71155D01*
X-86613Y71179D01*
X-86631Y71212D01*
X-86640Y71255D01*
X-86659Y71298D01*
X-86685Y71354D01*
X-86711Y71411D01*
X-86751Y71470D01*
X-86788Y71536D01*
X-86886Y71679D01*
X-87020Y71823D01*
X-87183Y71974D01*
X-87189Y71978D01*
X-87205Y71991D01*
X-87226Y72009D01*
X-87263Y72029D01*
X-87301Y72060D01*
X-87348Y72090D01*
X-87458Y72152D01*
X-87593Y72217D01*
X-87742Y72276D01*
X-87905Y72318D01*
X-88074Y72330D01*
X-88079Y72335D01*
X-88093Y72328D01*
X-88147Y72328D01*
X-88230Y72314D01*
X-88335Y72284D01*
X-88454Y72237D01*
X-88584Y72164D01*
X-88713Y72072D01*
X-88775Y72006D01*
X-88837Y71941D01*
X-88886Y71881D01*
X-88933Y71812D01*
X-88988Y71723D01*
X-89047Y71628D01*
X-89095Y71524D01*
X-89139Y71416D01*
X-89158Y71316D01*
X-89157Y71306D01*
X-89158Y71271D01*
X-89153Y71222D01*
X-89151Y71158D01*
X-89134Y71081D01*
X-89105Y70995D01*
X-89071Y70905D01*
X-89016Y70807D01*
X-89490Y70334D01*
X-91829Y72672D01*
X-89960Y74972D01*
X-89405Y74521D01*
D02*
G37*
G36*
X-71681Y92157D02*
X-71671Y92156D01*
X-71647Y92150D01*
X-71603Y92142D01*
X-71550Y92133D01*
X-71483Y92108D01*
X-71406Y92083D01*
X-71310Y92047D01*
X-71214Y92010D01*
X-71105Y91958D01*
X-70991Y91901D01*
X-70873Y91829D01*
X-70756Y91746D01*
X-70630Y91654D01*
X-70500Y91546D01*
X-70376Y91424D01*
X-70252Y91292D01*
X-69116Y89981D01*
X-69107Y89970D01*
X-69089Y89949D01*
X-69053Y89907D01*
X-69012Y89850D01*
X-68963Y89783D01*
X-68910Y89700D01*
X-68848Y89607D01*
X-68786Y89504D01*
X-68726Y89392D01*
X-68665Y89269D01*
X-68611Y89142D01*
X-68561Y89011D01*
X-68522Y88870D01*
X-68492Y88731D01*
X-68468Y88586D01*
X-68464Y88443D01*
X-68464Y88433D01*
X-68461Y88408D01*
X-68470Y88365D01*
X-68473Y88316D01*
X-68488Y88248D01*
X-68498Y88165D01*
X-68519Y88083D01*
X-68546Y87986D01*
X-68578Y87885D01*
X-68625Y87781D01*
X-68677Y87671D01*
X-68739Y87553D01*
X-68816Y87440D01*
X-68903Y87328D01*
X-68999Y87217D01*
X-69116Y87107D01*
X-69142Y87085D01*
X-69183Y87058D01*
X-69225Y87022D01*
X-69292Y86982D01*
X-69359Y86933D01*
X-69446Y86885D01*
X-69538Y86842D01*
X-69640Y86791D01*
X-69751Y86749D01*
X-69863Y86708D01*
X-69988Y86673D01*
X-70117Y86653D01*
X-70251Y86638D01*
X-70394Y86633D01*
X-70536Y86648D01*
X-70546Y86649D01*
X-70570Y86656D01*
X-70613Y86664D01*
X-70667Y86672D01*
X-70734Y86697D01*
X-70811Y86722D01*
X-70902Y86753D01*
X-71003Y86795D01*
X-71112Y86847D01*
X-71226Y86904D01*
X-71344Y86977D01*
X-71461Y87059D01*
X-71587Y87152D01*
X-71717Y87259D01*
X-71841Y87381D01*
X-71965Y87513D01*
X-73101Y88825D01*
X-73110Y88835D01*
X-73128Y88856D01*
X-73159Y88903D01*
X-73204Y88955D01*
X-73254Y89023D01*
X-73307Y89105D01*
X-73369Y89198D01*
X-73431Y89301D01*
X-73491Y89413D01*
X-73547Y89531D01*
X-73602Y89658D01*
X-73651Y89789D01*
X-73696Y89925D01*
X-73730Y90070D01*
X-73749Y90209D01*
X-73758Y90358D01*
X-73757Y90367D01*
X-73761Y90392D01*
X-73753Y90436D01*
X-73744Y90489D01*
X-73739Y90558D01*
X-73724Y90636D01*
X-73707Y90723D01*
X-73681Y90819D01*
X-73639Y90920D01*
X-73597Y91030D01*
X-73545Y91139D01*
X-73487Y91253D01*
X-73410Y91366D01*
X-73324Y91478D01*
X-73222Y91593D01*
X-73111Y91699D01*
X-73080Y91726D01*
X-73044Y91748D01*
X-72996Y91789D01*
X-72935Y91824D01*
X-72867Y91873D01*
X-72780Y91921D01*
X-72683Y91968D01*
X-72587Y92015D01*
X-72470Y92061D01*
X-72354Y92097D01*
X-72229Y92132D01*
X-72100Y92153D01*
X-71965Y92168D01*
X-71823Y92172D01*
X-71681Y92157D01*
D02*
G37*
G36*
X-73045Y86449D02*
X-72426Y86985D01*
X-72012Y86508D01*
X-72631Y85972D01*
X-71740Y84944D01*
X-72344Y84421D01*
X-73234Y85449D01*
X-75154Y83786D01*
X-75450Y84127D01*
X-76256Y88864D01*
X-75616Y89418D01*
X-73045Y86449D01*
D02*
G37*
G36*
X-55151Y103183D02*
X-55016Y103175D01*
X-54875Y103155D01*
X-54738Y103115D01*
X-54728Y103113D01*
X-54706Y103102D01*
X-54664Y103086D01*
X-54613Y103068D01*
X-54551Y103033D01*
X-54480Y102995D01*
X-54392Y102942D01*
X-54304Y102890D01*
X-54205Y102819D01*
X-54103Y102743D01*
X-53999Y102651D01*
X-53898Y102550D01*
X-53790Y102437D01*
X-53681Y102308D01*
X-53580Y102166D01*
X-53481Y102015D01*
X-52590Y100526D01*
X-52583Y100514D01*
X-52569Y100491D01*
X-52540Y100443D01*
X-52510Y100380D01*
X-52474Y100305D01*
X-52436Y100214D01*
X-52391Y100112D01*
X-52348Y100000D01*
X-52308Y99879D01*
X-52270Y99748D01*
X-52238Y99613D01*
X-52212Y99475D01*
X-52197Y99330D01*
X-52193Y99187D01*
X-52194Y99041D01*
X-52215Y98899D01*
X-52217Y98889D01*
X-52218Y98864D01*
X-52234Y98823D01*
X-52246Y98775D01*
X-52272Y98711D01*
X-52297Y98631D01*
X-52332Y98554D01*
X-52375Y98463D01*
X-52424Y98370D01*
X-52488Y98274D01*
X-52558Y98176D01*
X-52640Y98070D01*
X-52736Y97972D01*
X-52841Y97877D01*
X-52955Y97785D01*
X-53088Y97697D01*
X-53118Y97679D01*
X-53163Y97660D01*
X-53211Y97631D01*
X-53284Y97604D01*
X-53359Y97567D01*
X-53453Y97535D01*
X-53550Y97509D01*
X-53660Y97476D01*
X-53777Y97455D01*
X-53893Y97433D01*
X-54023Y97420D01*
X-54154Y97423D01*
X-54288Y97431D01*
X-54430Y97452D01*
X-54567Y97491D01*
X-54576Y97494D01*
X-54599Y97504D01*
X-54641Y97520D01*
X-54692Y97538D01*
X-54754Y97574D01*
X-54825Y97612D01*
X-54909Y97658D01*
X-55001Y97717D01*
X-55100Y97787D01*
X-55202Y97863D01*
X-55305Y97955D01*
X-55406Y98056D01*
X-55515Y98169D01*
X-55624Y98298D01*
X-55725Y98440D01*
X-55824Y98591D01*
X-56715Y100080D01*
X-56722Y100092D01*
X-56736Y100116D01*
X-56759Y100167D01*
X-56794Y100226D01*
X-56831Y100301D01*
X-56869Y100392D01*
X-56914Y100494D01*
X-56957Y100606D01*
X-56997Y100728D01*
X-57032Y100853D01*
X-57064Y100987D01*
X-57090Y101125D01*
X-57110Y101267D01*
X-57118Y101416D01*
X-57113Y101556D01*
X-57096Y101704D01*
X-57094Y101713D01*
X-57092Y101738D01*
X-57077Y101780D01*
X-57059Y101831D01*
X-57042Y101898D01*
X-57014Y101971D01*
X-56983Y102055D01*
X-56940Y102145D01*
X-56881Y102237D01*
X-56820Y102338D01*
X-56750Y102436D01*
X-56674Y102539D01*
X-56578Y102636D01*
X-56474Y102731D01*
X-56353Y102828D01*
X-56226Y102912D01*
X-56190Y102933D01*
X-56151Y102949D01*
X-56097Y102981D01*
X-56031Y103005D01*
X-55956Y103041D01*
X-55862Y103074D01*
X-55758Y103103D01*
X-55654Y103133D01*
X-55532Y103158D01*
X-55411Y103173D01*
X-55282Y103186D01*
X-55151Y103183D01*
D02*
G37*
G36*
X-59005Y100853D02*
X-58888Y100833D01*
X-58879Y100831D01*
X-58860Y100826D01*
X-58831Y100819D01*
X-58784Y100807D01*
X-58732Y100789D01*
X-58674Y100759D01*
X-58606Y100727D01*
X-58526Y100687D01*
X-58451Y100642D01*
X-58365Y100580D01*
X-58285Y100515D01*
X-58192Y100441D01*
X-58108Y100354D01*
X-58022Y100251D01*
X-57939Y100140D01*
X-57859Y100018D01*
X-57855Y100012D01*
X-57848Y100000D01*
X-57837Y99982D01*
X-57823Y99958D01*
X-57792Y99880D01*
X-57754Y99789D01*
X-57717Y99674D01*
X-57683Y99549D01*
X-57663Y99407D01*
X-57655Y99259D01*
X-57651Y99252D01*
X-57653Y99243D01*
X-57662Y99190D01*
X-57671Y99111D01*
X-57692Y99010D01*
X-57721Y98896D01*
X-57763Y98765D01*
X-57824Y98623D01*
X-57904Y98486D01*
X-57898Y98490D01*
X-57883Y98491D01*
X-57858Y98490D01*
X-57821Y98496D01*
X-57734Y98499D01*
X-57616Y98505D01*
X-57482Y98497D01*
X-57340Y98476D01*
X-57194Y98434D01*
X-57043Y98371D01*
X-57039Y98365D01*
X-57030Y98363D01*
X-57007Y98352D01*
X-56981Y98335D01*
X-56945Y98316D01*
X-56906Y98291D01*
X-56817Y98223D01*
X-56713Y98132D01*
X-56603Y98028D01*
X-56490Y97893D01*
X-56388Y97736D01*
X-56384Y97730D01*
X-56370Y97706D01*
X-56348Y97671D01*
X-56326Y97619D01*
X-56296Y97556D01*
X-56269Y97484D01*
X-56234Y97399D01*
X-56202Y97305D01*
X-56176Y97207D01*
X-56153Y97100D01*
X-56135Y96990D01*
X-56120Y96869D01*
X-56120Y96748D01*
X-56129Y96629D01*
X-56145Y96506D01*
X-56176Y96382D01*
X-56178Y96373D01*
X-56183Y96354D01*
X-56202Y96318D01*
X-56218Y96277D01*
X-56248Y96218D01*
X-56280Y96150D01*
X-56318Y96079D01*
X-56368Y96001D01*
X-56424Y95919D01*
X-56486Y95833D01*
X-56560Y95740D01*
X-56643Y95650D01*
X-56736Y95562D01*
X-56845Y95473D01*
X-56957Y95390D01*
X-57084Y95305D01*
X-57150Y95266D01*
X-57195Y95247D01*
X-57258Y95217D01*
X-57327Y95184D01*
X-57406Y95153D01*
X-57500Y95121D01*
X-57707Y95062D01*
X-57820Y95035D01*
X-57937Y95013D01*
X-58057Y94998D01*
X-58190Y94991D01*
X-58321Y94994D01*
X-58456Y95002D01*
X-58465Y95004D01*
X-58490Y95006D01*
X-58528Y95015D01*
X-58576Y95027D01*
X-58633Y95042D01*
X-58703Y95064D01*
X-58777Y95093D01*
X-58860Y95124D01*
X-58951Y95167D01*
X-59035Y95213D01*
X-59127Y95272D01*
X-59216Y95340D01*
X-59303Y95417D01*
X-59385Y95514D01*
X-59467Y95610D01*
X-59534Y95723D01*
X-59543Y95751D01*
X-58888Y96143D01*
X-58884Y96137D01*
X-58877Y96125D01*
X-58866Y96107D01*
X-58846Y96087D01*
X-58797Y96019D01*
X-58720Y95944D01*
X-58630Y95860D01*
X-58521Y95788D01*
X-58392Y95720D01*
X-58318Y95691D01*
X-58242Y95672D01*
X-58236Y95675D01*
X-58223Y95667D01*
X-58169Y95659D01*
X-58088Y95659D01*
X-57982Y95657D01*
X-57853Y95670D01*
X-57712Y95706D01*
X-57557Y95758D01*
X-57401Y95835D01*
X-57360Y95860D01*
X-57333Y95884D01*
X-57304Y95902D01*
X-57266Y95933D01*
X-57184Y96013D01*
X-57095Y96107D01*
X-57016Y96219D01*
X-56949Y96349D01*
X-56922Y96413D01*
X-56903Y96489D01*
X-56907Y96495D01*
X-56898Y96508D01*
X-56896Y96558D01*
X-56890Y96643D01*
X-56889Y96749D01*
X-56904Y96869D01*
X-56933Y97013D01*
X-56988Y97158D01*
X-57065Y97314D01*
X-57069Y97320D01*
X-57079Y97338D01*
X-57094Y97362D01*
X-57118Y97388D01*
X-57143Y97430D01*
X-57173Y97468D01*
X-57255Y97564D01*
X-57347Y97663D01*
X-57460Y97757D01*
X-57581Y97838D01*
X-57719Y97893D01*
X-57738Y97898D01*
X-57782Y97904D01*
X-57861Y97914D01*
X-57957Y97913D01*
X-58083Y97894D01*
X-58227Y97864D01*
X-58379Y97806D01*
X-58553Y97718D01*
X-59118Y97380D01*
X-59439Y97916D01*
X-58832Y98279D01*
X-58799Y98306D01*
X-58764Y98328D01*
X-58726Y98359D01*
X-58635Y98437D01*
X-58548Y98522D01*
X-58460Y98631D01*
X-58397Y98742D01*
X-58371Y98806D01*
X-58360Y98869D01*
X-58361Y98884D01*
X-58355Y98928D01*
X-58357Y99000D01*
X-58364Y99093D01*
X-58382Y99203D01*
X-58420Y99334D01*
X-58471Y99474D01*
X-58554Y99626D01*
X-58558Y99632D01*
X-58565Y99644D01*
X-58575Y99662D01*
X-58599Y99688D01*
X-58644Y99750D01*
X-58710Y99832D01*
X-58797Y99910D01*
X-58893Y99989D01*
X-59001Y100062D01*
X-59130Y100115D01*
X-59149Y100119D01*
X-59187Y100129D01*
X-59265Y100139D01*
X-59356Y100141D01*
X-59464Y100133D01*
X-59596Y100110D01*
X-59735Y100059D01*
X-59886Y99986D01*
X-59921Y99964D01*
X-59947Y99941D01*
X-59983Y99919D01*
X-60015Y99892D01*
X-60100Y99817D01*
X-60189Y99723D01*
X-60272Y99617D01*
X-60349Y99490D01*
X-60400Y99346D01*
X-60405Y99327D01*
X-60417Y99279D01*
X-60427Y99201D01*
X-60426Y99104D01*
X-60420Y98987D01*
X-60397Y98855D01*
X-60356Y98718D01*
X-60323Y98649D01*
X-60286Y98573D01*
X-60947Y98178D01*
X-60967Y98198D01*
X-60970Y98204D01*
X-60981Y98222D01*
X-60999Y98252D01*
X-61018Y98297D01*
X-61041Y98348D01*
X-61070Y98411D01*
X-61098Y98484D01*
X-61123Y98566D01*
X-61141Y98652D01*
X-61164Y98743D01*
X-61178Y98848D01*
X-61186Y98957D01*
X-61183Y99072D01*
X-61175Y99181D01*
X-61154Y99308D01*
X-61123Y99431D01*
X-61120Y99441D01*
X-61110Y99463D01*
X-61096Y99496D01*
X-61079Y99547D01*
X-61055Y99602D01*
X-61023Y99669D01*
X-60978Y99744D01*
X-60928Y99823D01*
X-60872Y99905D01*
X-60808Y100000D01*
X-60730Y100087D01*
X-60647Y100177D01*
X-60558Y100271D01*
X-60449Y100360D01*
X-60337Y100443D01*
X-60210Y100528D01*
X-60144Y100567D01*
X-60087Y100593D01*
X-60024Y100623D01*
X-59955Y100656D01*
X-59870Y100690D01*
X-59780Y100728D01*
X-59573Y100788D01*
X-59469Y100817D01*
X-59352Y100839D01*
X-59238Y100850D01*
X-59120Y100856D01*
X-59005Y100853D01*
D02*
G37*
G36*
X-36725Y111200D02*
X-36595Y111191D01*
X-36467Y111165D01*
X-36336Y111134D01*
X-36200Y111089D01*
X-36072Y111026D01*
X-36063Y111022D01*
X-36042Y111008D01*
X-36004Y110985D01*
X-35957Y110959D01*
X-35902Y110913D01*
X-35839Y110863D01*
X-35761Y110796D01*
X-35684Y110729D01*
X-35598Y110643D01*
X-35511Y110550D01*
X-35425Y110441D01*
X-35343Y110324D01*
X-35256Y110194D01*
X-35171Y110048D01*
X-35096Y109891D01*
X-35025Y109725D01*
X-34406Y108104D01*
X-34401Y108091D01*
X-34391Y108065D01*
X-34372Y108013D01*
X-34353Y107946D01*
X-34330Y107866D01*
X-34308Y107770D01*
X-34282Y107661D01*
X-34259Y107544D01*
X-34240Y107417D01*
X-34226Y107281D01*
X-34218Y107143D01*
X-34216Y107003D01*
X-34227Y106858D01*
X-34248Y106716D01*
X-34274Y106572D01*
X-34319Y106436D01*
X-34323Y106427D01*
X-34329Y106403D01*
X-34351Y106365D01*
X-34371Y106320D01*
X-34408Y106261D01*
X-34447Y106187D01*
X-34494Y106117D01*
X-34552Y106035D01*
X-34617Y105951D01*
X-34697Y105869D01*
X-34783Y105784D01*
X-34882Y105694D01*
X-34993Y105614D01*
X-35113Y105539D01*
X-35242Y105467D01*
X-35388Y105404D01*
X-35421Y105392D01*
X-35469Y105381D01*
X-35520Y105361D01*
X-35597Y105347D01*
X-35677Y105323D01*
X-35775Y105308D01*
X-35876Y105299D01*
X-35989Y105286D01*
X-36108Y105285D01*
X-36227Y105284D01*
X-36357Y105294D01*
X-36485Y105319D01*
X-36616Y105351D01*
X-36752Y105396D01*
X-36880Y105458D01*
X-36889Y105462D01*
X-36909Y105477D01*
X-36948Y105499D01*
X-36995Y105526D01*
X-37050Y105572D01*
X-37113Y105622D01*
X-37188Y105682D01*
X-37268Y105756D01*
X-37353Y105842D01*
X-37441Y105935D01*
X-37527Y106043D01*
X-37609Y106161D01*
X-37696Y106291D01*
X-37781Y106437D01*
X-37856Y106594D01*
X-37927Y106760D01*
X-38546Y108381D01*
X-38551Y108394D01*
X-38561Y108420D01*
X-38574Y108474D01*
X-38599Y108539D01*
X-38622Y108619D01*
X-38644Y108715D01*
X-38670Y108823D01*
X-38693Y108941D01*
X-38711Y109068D01*
X-38724Y109197D01*
X-38732Y109335D01*
X-38733Y109475D01*
X-38728Y109618D01*
X-38711Y109766D01*
X-38682Y109904D01*
X-38639Y110046D01*
X-38635Y110055D01*
X-38630Y110079D01*
X-38607Y110118D01*
X-38581Y110165D01*
X-38553Y110228D01*
X-38512Y110295D01*
X-38467Y110372D01*
X-38409Y110453D01*
X-38335Y110534D01*
X-38258Y110623D01*
X-38171Y110708D01*
X-38078Y110795D01*
X-37968Y110874D01*
X-37848Y110950D01*
X-37713Y111024D01*
X-37573Y111085D01*
X-37534Y111100D01*
X-37492Y111108D01*
X-37434Y111130D01*
X-37364Y111142D01*
X-37284Y111165D01*
X-37186Y111181D01*
X-37078Y111192D01*
X-36971Y111203D01*
X-36846Y111206D01*
X-36725Y111200D01*
D02*
G37*
G36*
X-41000Y109575D02*
X-40892Y109565D01*
X-40773Y109543D01*
X-40663Y109511D01*
X-40552Y109472D01*
X-40543Y109468D01*
X-40525Y109460D01*
X-40498Y109448D01*
X-40460Y109425D01*
X-40410Y109392D01*
X-40354Y109362D01*
X-40293Y109318D01*
X-40229Y109268D01*
X-40163Y109212D01*
X-40094Y109149D01*
X-40021Y109073D01*
X-39954Y108994D01*
X-39888Y108900D01*
X-39829Y108804D01*
X-39772Y108693D01*
X-39721Y108578D01*
X-39718Y108572D01*
X-39713Y108559D01*
X-39703Y108533D01*
X-39700Y108504D01*
X-39685Y108466D01*
X-39672Y108411D01*
X-39649Y108294D01*
X-39625Y108154D01*
X-39616Y107994D01*
X-39615Y107816D01*
X-39634Y107631D01*
X-39631Y107624D01*
X-39639Y107606D01*
X-39642Y107576D01*
X-39652Y107542D01*
X-39660Y107487D01*
X-39676Y107429D01*
X-39686Y107358D01*
X-39706Y107276D01*
X-39731Y107185D01*
X-39753Y107088D01*
X-39777Y106974D01*
X-39813Y106857D01*
X-39886Y106598D01*
X-39974Y106305D01*
X-40744Y104139D01*
X-40724Y104124D01*
X-38208Y105085D01*
X-37985Y104501D01*
X-41422Y103189D01*
X-41617Y103701D01*
X-40669Y106433D01*
X-40665Y106442D01*
X-40660Y106466D01*
X-40644Y106502D01*
X-40626Y106553D01*
X-40614Y106618D01*
X-40588Y106687D01*
X-40540Y106854D01*
X-40491Y107036D01*
X-40444Y107225D01*
X-40402Y107404D01*
X-40390Y107491D01*
X-40382Y107568D01*
X-40385Y107574D01*
X-40381Y107583D01*
X-40382Y107605D01*
X-40379Y107636D01*
X-40377Y107711D01*
X-40377Y107808D01*
X-40384Y107924D01*
X-40400Y108044D01*
X-40428Y108174D01*
X-40469Y108300D01*
X-40471Y108307D01*
X-40476Y108319D01*
X-40483Y108339D01*
X-40500Y108362D01*
X-40534Y108431D01*
X-40581Y108517D01*
X-40651Y108602D01*
X-40729Y108691D01*
X-40821Y108775D01*
X-40936Y108842D01*
X-40954Y108850D01*
X-40990Y108866D01*
X-41056Y108885D01*
X-41145Y108904D01*
X-41253Y108914D01*
X-41372Y108914D01*
X-41505Y108893D01*
X-41646Y108853D01*
X-41691Y108836D01*
X-41721Y108817D01*
X-41766Y108800D01*
X-41809Y108776D01*
X-41910Y108708D01*
X-42020Y108629D01*
X-42124Y108530D01*
X-42211Y108407D01*
X-42252Y108340D01*
X-42284Y108268D01*
X-42281Y108262D01*
X-42292Y108250D01*
X-42297Y108226D01*
X-42303Y108201D01*
X-42317Y108122D01*
X-42328Y108013D01*
X-42338Y107884D01*
X-42329Y107745D01*
X-42298Y107586D01*
X-42250Y107419D01*
X-42969Y107145D01*
X-42992Y107166D01*
X-42995Y107172D01*
X-43005Y107198D01*
X-43017Y107230D01*
X-43028Y107278D01*
X-43044Y107339D01*
X-43064Y107413D01*
X-43079Y107489D01*
X-43091Y107581D01*
X-43106Y107679D01*
X-43109Y107782D01*
X-43111Y107885D01*
X-43103Y108000D01*
X-43088Y108117D01*
X-43060Y108239D01*
X-43024Y108357D01*
X-42974Y108480D01*
X-42970Y108489D01*
X-42962Y108507D01*
X-42939Y108545D01*
X-42917Y108583D01*
X-42880Y108642D01*
X-42836Y108703D01*
X-42789Y108774D01*
X-42728Y108849D01*
X-42652Y108922D01*
X-42579Y109002D01*
X-42484Y109083D01*
X-42388Y109164D01*
X-42275Y109237D01*
X-42149Y109315D01*
X-42018Y109380D01*
X-41871Y109443D01*
X-41800Y109471D01*
X-41745Y109484D01*
X-41684Y109500D01*
X-41604Y109523D01*
X-41521Y109540D01*
X-41430Y109553D01*
X-41222Y109572D01*
X-41112Y109577D01*
X-41000Y109575D01*
D02*
G37*
G36*
X-17560Y115902D02*
X-17452Y115894D01*
X-17345Y115886D01*
X-17221Y115868D01*
X-17103Y115841D01*
X-16976Y115809D01*
X-16854Y115762D01*
X-16731Y115708D01*
X-16605Y115640D01*
X-16490Y115556D01*
X-16481Y115551D01*
X-16464Y115533D01*
X-16430Y115504D01*
X-16388Y115470D01*
X-16342Y115415D01*
X-16288Y115355D01*
X-16224Y115275D01*
X-16159Y115196D01*
X-16090Y115096D01*
X-16020Y114989D01*
X-15954Y114868D01*
X-15894Y114738D01*
X-15831Y114595D01*
X-15772Y114436D01*
X-15726Y114269D01*
X-15685Y114093D01*
X-15357Y112389D01*
X-15354Y112375D01*
X-15349Y112348D01*
X-15338Y112294D01*
X-15332Y112224D01*
X-15323Y112141D01*
X-15318Y112043D01*
X-15311Y111931D01*
X-15309Y111812D01*
X-15313Y111684D01*
X-15322Y111548D01*
X-15338Y111410D01*
X-15361Y111272D01*
X-15397Y111130D01*
X-15442Y110995D01*
X-15493Y110857D01*
X-15561Y110731D01*
X-15566Y110723D01*
X-15576Y110700D01*
X-15605Y110666D01*
X-15632Y110626D01*
X-15679Y110574D01*
X-15730Y110508D01*
X-15789Y110447D01*
X-15860Y110377D01*
X-15938Y110305D01*
X-16031Y110238D01*
X-16131Y110169D01*
X-16244Y110098D01*
X-16367Y110039D01*
X-16498Y109985D01*
X-16637Y109937D01*
X-16793Y109900D01*
X-16827Y109894D01*
X-16876Y109891D01*
X-16930Y109881D01*
X-17008Y109880D01*
X-17091Y109871D01*
X-17190Y109873D01*
X-17291Y109882D01*
X-17405Y109889D01*
X-17522Y109908D01*
X-17639Y109928D01*
X-17766Y109960D01*
X-17888Y110008D01*
X-18011Y110062D01*
X-18137Y110129D01*
X-18252Y110213D01*
X-18260Y110219D01*
X-18278Y110236D01*
X-18312Y110265D01*
X-18354Y110300D01*
X-18400Y110354D01*
X-18454Y110415D01*
X-18517Y110487D01*
X-18583Y110573D01*
X-18652Y110673D01*
X-18722Y110780D01*
X-18788Y110901D01*
X-18848Y111031D01*
X-18911Y111175D01*
X-18970Y111333D01*
X-19016Y111501D01*
X-19057Y111677D01*
X-19385Y113380D01*
X-19388Y113394D01*
X-19393Y113421D01*
X-19397Y113477D01*
X-19410Y113545D01*
X-19419Y113628D01*
X-19424Y113726D01*
X-19431Y113838D01*
X-19433Y113958D01*
X-19429Y114085D01*
X-19419Y114215D01*
X-19403Y114352D01*
X-19380Y114491D01*
X-19351Y114631D01*
X-19307Y114773D01*
X-19255Y114904D01*
X-19188Y115037D01*
X-19183Y115045D01*
X-19173Y115068D01*
X-19144Y115102D01*
X-19110Y115144D01*
X-19072Y115200D01*
X-19019Y115260D01*
X-18962Y115328D01*
X-18890Y115398D01*
X-18804Y115464D01*
X-18712Y115538D01*
X-18613Y115607D01*
X-18506Y115677D01*
X-18383Y115736D01*
X-18252Y115789D01*
X-18106Y115839D01*
X-17957Y115874D01*
X-17917Y115882D01*
X-17874Y115883D01*
X-17813Y115895D01*
X-17742Y115895D01*
X-17659Y115903D01*
X-17560Y115902D01*
D02*
G37*
G36*
X-20877Y109199D02*
X-21667Y109046D01*
X-22647Y114130D01*
X-23911Y113873D01*
X-24028Y114479D01*
X-22012Y115094D01*
X-20877Y109199D01*
D02*
G37*
G36*
X10Y117173D02*
X72D01*
X142Y117159D01*
X225Y117152D01*
X322Y117131D01*
X426Y117103D01*
X530Y117075D01*
X648Y117034D01*
X759Y116985D01*
X877Y116930D01*
X988Y116860D01*
X1099Y116784D01*
X1210Y116694D01*
X1308Y116590D01*
X1314Y116583D01*
X1328Y116562D01*
X1356Y116527D01*
X1391Y116486D01*
X1426Y116423D01*
X1467Y116354D01*
X1516Y116263D01*
X1564Y116173D01*
X1613Y116062D01*
X1661Y115944D01*
X1703Y115812D01*
X1738Y115673D01*
X1773Y115521D01*
X1800Y115354D01*
X1814Y115181D01*
X1821Y115000D01*
Y113265D01*
Y113251D01*
Y113224D01*
Y113168D01*
D01*
Y113168D01*
X1814Y113099D01*
X1807Y113015D01*
X1793Y112918D01*
X1780Y112807D01*
X1759Y112689D01*
X1731Y112564D01*
X1696Y112433D01*
X1655Y112301D01*
X1606Y112169D01*
X1544Y112037D01*
X1474Y111912D01*
X1398Y111787D01*
X1308Y111676D01*
X1301Y111669D01*
X1287Y111648D01*
X1252Y111621D01*
X1217Y111586D01*
X1162Y111544D01*
X1099Y111489D01*
X1030Y111440D01*
X947Y111385D01*
X857Y111329D01*
X752Y111281D01*
X641Y111232D01*
X516Y111183D01*
X385Y111149D01*
X246Y111121D01*
X100Y111100D01*
X-60Y111093D01*
X-94D01*
X-143Y111100D01*
X-198D01*
X-275Y111114D01*
X-358Y111121D01*
X-455Y111142D01*
X-552Y111170D01*
X-663Y111197D01*
X-774Y111239D01*
X-885Y111281D01*
X-1003Y111336D01*
X-1115Y111405D01*
X-1225Y111482D01*
X-1336Y111572D01*
X-1434Y111676D01*
X-1441Y111683D01*
X-1455Y111704D01*
X-1482Y111739D01*
X-1517Y111780D01*
X-1552Y111843D01*
X-1593Y111912D01*
X-1642Y111995D01*
X-1691Y112092D01*
X-1739Y112204D01*
X-1788Y112321D01*
X-1829Y112453D01*
X-1864Y112592D01*
X-1899Y112745D01*
X-1926Y112911D01*
X-1940Y113085D01*
X-1947Y113265D01*
Y115000D01*
Y115014D01*
Y115042D01*
Y115042D01*
D01*
X-1940Y115097D01*
Y115167D01*
Y115167D01*
D01*
X-1933Y115250D01*
X-1919Y115347D01*
X-1906Y115458D01*
X-1885Y115576D01*
X-1857Y115701D01*
X-1822Y115826D01*
X-1781Y115958D01*
X-1732Y116090D01*
X-1677Y116222D01*
X-1607Y116354D01*
X-1531Y116472D01*
X-1441Y116590D01*
X-1434Y116596D01*
X-1420Y116617D01*
X-1385Y116645D01*
X-1343Y116680D01*
X-1295Y116728D01*
X-1232Y116777D01*
X-1163Y116832D01*
X-1080Y116888D01*
X-983Y116937D01*
X-879Y116992D01*
X-768Y117041D01*
X-649Y117089D01*
X-518Y117124D01*
X-379Y117152D01*
X-226Y117173D01*
X-74Y117180D01*
X-32D01*
X10Y117173D01*
D02*
G37*
G36*
X11647Y116525D02*
X11584Y115813D01*
X9310Y116012D01*
X8968Y114335D01*
X8975Y114341D01*
X9004Y114352D01*
X9048Y114376D01*
X9100Y114407D01*
X9165Y114436D01*
X9244Y114464D01*
X9324Y114498D01*
X9410Y114526D01*
X9424Y114532D01*
X9452Y114536D01*
X9502Y114546D01*
X9566Y114561D01*
X9643Y114568D01*
X9734Y114574D01*
X9832Y114579D01*
X9943Y114577D01*
X10019Y114570D01*
X10081Y114558D01*
X10143Y114545D01*
X10225Y114524D01*
X10313Y114503D01*
X10401Y114474D01*
X10503Y114437D01*
X10603Y114393D01*
X10703Y114343D01*
X10810Y114285D01*
X10909Y114220D01*
X11006Y114142D01*
X11096Y114051D01*
X11178Y113953D01*
X11184Y113946D01*
X11197Y113931D01*
X11214Y113894D01*
X11245Y113850D01*
X11276Y113798D01*
X11311Y113725D01*
X11346Y113646D01*
X11380Y113559D01*
X11413Y113459D01*
X11452Y113351D01*
X11477Y113230D01*
X11500Y113096D01*
X11522Y112955D01*
X11530Y112808D01*
X11530Y112647D01*
X11523Y112481D01*
X11522Y112474D01*
X11519Y112439D01*
X11515Y112398D01*
X11503Y112336D01*
X11489Y112261D01*
X11468Y112172D01*
X11445Y112077D01*
X11416Y111975D01*
X11385Y111866D01*
X11340Y111751D01*
X11295Y111637D01*
X11237Y111524D01*
X11171Y111411D01*
X11099Y111299D01*
X11013Y111195D01*
X10921Y111098D01*
X10914Y111092D01*
X10898Y111080D01*
X10868Y111054D01*
X10824Y111023D01*
X10772Y110986D01*
X10706Y110950D01*
X10633Y110908D01*
X10545Y110867D01*
X10451Y110819D01*
X10343Y110780D01*
X10222Y110749D01*
X10093Y110718D01*
X9959Y110695D01*
X9811Y110680D01*
X9651Y110680D01*
X9485Y110688D01*
X9416Y110694D01*
X9361Y110705D01*
X9299Y110718D01*
X9224Y110731D01*
X9142Y110752D01*
X9053Y110774D01*
X8864Y110839D01*
X8763Y110883D01*
X8663Y110934D01*
X8557Y110992D01*
X8458Y111056D01*
X8367Y111127D01*
X8276Y111204D01*
X8270Y111212D01*
X8257Y111227D01*
X8231Y111250D01*
X8207Y111287D01*
X8169Y111332D01*
X8132Y111391D01*
X8096Y111457D01*
X8054Y111530D01*
X8019Y111610D01*
X7985Y111704D01*
X7952Y111804D01*
X7927Y111918D01*
X7903Y112038D01*
X7893Y112164D01*
X7891Y112297D01*
X7904Y112442D01*
X7913Y112469D01*
X8632Y112406D01*
X8631Y112399D01*
X8630Y112386D01*
X8628Y112358D01*
X8632Y112323D01*
X8629Y112288D01*
X8631Y112239D01*
X8642Y112127D01*
X8667Y112006D01*
X8704Y111878D01*
X8762Y111747D01*
X8843Y111629D01*
X8855Y111614D01*
X8887Y111583D01*
X8946Y111536D01*
X9025Y111480D01*
X9124Y111423D01*
X9245Y111371D01*
X9381Y111331D01*
X9539Y111303D01*
X9587Y111299D01*
X9622Y111303D01*
X9664Y111306D01*
X9713Y111309D01*
X9833Y111326D01*
X9961Y111357D01*
X10098Y111407D01*
X10164Y111443D01*
X10230Y111486D01*
X10291Y111537D01*
X10351Y111594D01*
X10352Y111601D01*
X10366Y111607D01*
X10382Y111626D01*
X10399Y111660D01*
X10430Y111692D01*
X10454Y111731D01*
X10486Y111784D01*
X10519Y111837D01*
X10546Y111905D01*
X10579Y111971D01*
X10642Y112133D01*
X10687Y112324D01*
X10720Y112544D01*
X10721Y112551D01*
X10723Y112572D01*
X10725Y112600D01*
X10722Y112642D01*
X10726Y112690D01*
X10724Y112746D01*
X10714Y112872D01*
X10692Y113020D01*
X10657Y113177D01*
X10601Y113335D01*
X10516Y113481D01*
X10517Y113488D01*
X10504Y113497D01*
X10473Y113541D01*
X10415Y113602D01*
X10331Y113672D01*
X10226Y113744D01*
X10092Y113811D01*
X9944Y113866D01*
X9855Y113881D01*
X9765Y113896D01*
X9689Y113902D01*
X9606Y113903D01*
X9501Y113898D01*
X9389Y113894D01*
X9276Y113876D01*
X9162Y113851D01*
X9068Y113810D01*
X9061Y113804D01*
X9031Y113786D01*
X8994Y113754D01*
X8942Y113717D01*
X8888Y113659D01*
X8833Y113587D01*
X8777Y113508D01*
X8727Y113408D01*
X8069Y113535D01*
X8694Y116783D01*
X11647Y116525D01*
D02*
G37*
G36*
X18680Y115681D02*
X17730Y109754D01*
X16935Y109881D01*
X17754Y114993D01*
X16477Y115183D01*
X16575Y115793D01*
X18680Y115681D01*
D02*
G37*
G36*
X22605Y115045D02*
X22757Y115028D01*
X22798Y115022D01*
X22838Y115008D01*
X22900Y114998D01*
X22966Y114973D01*
X23047Y114953D01*
X23140Y114918D01*
X23238Y114874D01*
X23337Y114830D01*
X23447Y114770D01*
X23549Y114705D01*
X23656Y114631D01*
X23755Y114545D01*
X23853Y114452D01*
X23948Y114345D01*
X24027Y114227D01*
X24033Y114219D01*
X24044Y114197D01*
X24065Y114158D01*
X24093Y114111D01*
X24117Y114044D01*
X24148Y113969D01*
X24181Y113872D01*
X24215Y113775D01*
X24245Y113658D01*
X24275Y113534D01*
X24295Y113397D01*
X24307Y113255D01*
X24317Y113098D01*
X24318Y112929D01*
X24305Y112756D01*
X24283Y112577D01*
X24009Y110863D01*
X24006Y110850D01*
X24002Y110822D01*
X23993Y110768D01*
X23976Y110700D01*
X23956Y110619D01*
X23926Y110525D01*
X23895Y110418D01*
X23856Y110305D01*
X23809Y110186D01*
X23754Y110061D01*
X23692Y109937D01*
X23623Y109815D01*
X23540Y109695D01*
X23452Y109582D01*
X23357Y109471D01*
X23250Y109376D01*
X23242Y109370D01*
X23225Y109351D01*
X23187Y109329D01*
X23147Y109301D01*
X23086Y109268D01*
X23015Y109223D01*
X22939Y109186D01*
X22848Y109145D01*
X22750Y109104D01*
X22639Y109073D01*
X22522Y109042D01*
X22391Y109014D01*
X22255Y109001D01*
X22114Y108995D01*
X21967Y108998D01*
X21808Y109016D01*
X21774Y109022D01*
X21727Y109036D01*
X21672Y109045D01*
X21599Y109071D01*
X21518Y109091D01*
X21425Y109127D01*
X21334Y109169D01*
X21228Y109214D01*
X21125Y109273D01*
X21022Y109332D01*
X20914Y109405D01*
X20816Y109491D01*
X20718Y109584D01*
X20623Y109691D01*
X20543Y109809D01*
X20538Y109817D01*
X20527Y109840D01*
X20505Y109878D01*
X20478Y109925D01*
X20453Y109992D01*
X20423Y110067D01*
X20388Y110157D01*
X20356Y110261D01*
X20325Y110378D01*
X20296Y110502D01*
X20276Y110639D01*
X20264Y110782D01*
X20253Y110938D01*
X20252Y111107D01*
X20266Y111280D01*
X20288Y111460D01*
X20562Y113173D01*
X20564Y113186D01*
X20569Y113214D01*
X20584Y113268D01*
X20595Y113336D01*
X20615Y113417D01*
X20644Y113511D01*
X20676Y113618D01*
X20715Y113732D01*
X20762Y113850D01*
X20816Y113968D01*
X20878Y114092D01*
X20947Y114215D01*
X21023Y114336D01*
X21112Y114455D01*
X21206Y114560D01*
X21314Y114662D01*
X21322Y114668D01*
X21339Y114686D01*
X21377Y114708D01*
X21424Y114735D01*
X21479Y114776D01*
X21549Y114814D01*
X21626Y114858D01*
X21717Y114899D01*
X21821Y114932D01*
X21932Y114970D01*
X22050Y115001D01*
X22174Y115030D01*
X22310Y115043D01*
X22451Y115049D01*
X22605Y115045D01*
D02*
G37*
G36*
X37832Y110854D02*
X37978Y110833D01*
X38121Y110798D01*
X38274Y110753D01*
X38346Y110728D01*
X38396Y110703D01*
X38453Y110676D01*
X38529Y110642D01*
X38603Y110602D01*
X38682Y110553D01*
X38854Y110434D01*
X38941Y110367D01*
X39026Y110294D01*
X39102Y110216D01*
X39180Y110123D01*
X39242Y110028D01*
X39302Y109926D01*
X39307Y109918D01*
X39315Y109900D01*
X39328Y109873D01*
X39343Y109832D01*
X39360Y109774D01*
X39383Y109715D01*
X39402Y109642D01*
X39419Y109563D01*
X39433Y109477D01*
X39445Y109385D01*
X39453Y109280D01*
X39454Y109176D01*
X39444Y109062D01*
X39427Y108950D01*
X39399Y108828D01*
X39365Y108708D01*
X39363Y108701D01*
X39358Y108688D01*
X39349Y108662D01*
X39334Y108638D01*
X39320Y108598D01*
X39295Y108548D01*
X39237Y108444D01*
X39165Y108321D01*
X39069Y108193D01*
X38956Y108056D01*
X38823Y107926D01*
X38820Y107920D01*
X38803Y107911D01*
X38781Y107889D01*
X38752Y107870D01*
X38710Y107833D01*
X38661Y107798D01*
X38608Y107751D01*
X38539Y107701D01*
X38462Y107647D01*
X38382Y107587D01*
X38291Y107515D01*
X38187Y107448D01*
X37966Y107297D01*
X37709Y107129D01*
X35727Y105965D01*
X35734Y105940D01*
X38278Y105059D01*
X38074Y104469D01*
X34598Y105673D01*
X34777Y106191D01*
X37259Y107674D01*
X37268Y107678D01*
X37288Y107694D01*
X37323Y107711D01*
X37370Y107739D01*
X37421Y107780D01*
X37485Y107817D01*
X37628Y107914D01*
X37783Y108021D01*
X37941Y108136D01*
X38089Y108246D01*
X38153Y108305D01*
X38209Y108359D01*
X38211Y108365D01*
X38220Y108370D01*
X38233Y108387D01*
X38255Y108409D01*
X38304Y108465D01*
X38367Y108539D01*
X38436Y108633D01*
X38501Y108735D01*
X38563Y108853D01*
X38613Y108975D01*
X38615Y108982D01*
X38620Y108995D01*
X38627Y109015D01*
X38629Y109043D01*
X38648Y109118D01*
X38666Y109214D01*
X38668Y109324D01*
X38665Y109442D01*
X38649Y109565D01*
X38604Y109691D01*
X38595Y109709D01*
X38578Y109744D01*
X38539Y109801D01*
X38483Y109872D01*
X38407Y109950D01*
X38316Y110026D01*
X38200Y110095D01*
X38067Y110156D01*
X38021Y110172D01*
X37986Y110177D01*
X37940Y110193D01*
X37892Y110202D01*
X37771Y110214D01*
X37636Y110225D01*
X37493Y110215D01*
X37347Y110177D01*
X37273Y110152D01*
X37202Y110118D01*
X37200Y110111D01*
X37184Y110109D01*
X37164Y110094D01*
X37145Y110079D01*
X37082Y110027D01*
X37005Y109951D01*
X36914Y109858D01*
X36831Y109747D01*
X36753Y109605D01*
X36683Y109446D01*
X35955Y109698D01*
X35951Y109728D01*
X35953Y109735D01*
X35962Y109761D01*
X35974Y109794D01*
X35996Y109838D01*
X36023Y109894D01*
X36055Y109964D01*
X36093Y110032D01*
X36142Y110110D01*
X36193Y110195D01*
X36258Y110276D01*
X36322Y110356D01*
X36402Y110439D01*
X36489Y110519D01*
X36589Y110594D01*
X36693Y110661D01*
X36810Y110724D01*
X36818Y110728D01*
X36836Y110736D01*
X36878Y110751D01*
X36920Y110766D01*
X36986Y110787D01*
X37058Y110806D01*
X37140Y110829D01*
X37235Y110848D01*
X37340Y110856D01*
X37448Y110870D01*
X37573Y110871D01*
X37698Y110871D01*
X37832Y110854D01*
D02*
G37*
G36*
X42184Y109340D02*
X42324Y109321D01*
X42475Y109291D01*
X42622Y109247D01*
X42661Y109233D01*
X42698Y109213D01*
X42757Y109193D01*
X42818Y109157D01*
X42895Y109123D01*
X42980Y109072D01*
X43069Y109011D01*
X43158Y108951D01*
X43256Y108873D01*
X43345Y108791D01*
X43438Y108700D01*
X43521Y108598D01*
X43601Y108490D01*
X43676Y108368D01*
X43734Y108238D01*
X43738Y108229D01*
X43744Y108205D01*
X43759Y108163D01*
X43778Y108112D01*
X43791Y108042D01*
X43807Y107963D01*
X43824Y107861D01*
X43840Y107760D01*
X43850Y107639D01*
X43857Y107512D01*
X43853Y107374D01*
X43841Y107231D01*
X43823Y107076D01*
X43795Y106909D01*
X43751Y106741D01*
X43699Y106568D01*
X43131Y104928D01*
X43127Y104915D01*
X43118Y104889D01*
X43099Y104837D01*
X43070Y104773D01*
X43036Y104697D01*
X42992Y104610D01*
X42942Y104509D01*
X42884Y104405D01*
X42817Y104296D01*
X42741Y104182D01*
X42658Y104071D01*
X42569Y103963D01*
X42467Y103858D01*
X42360Y103763D01*
X42248Y103670D01*
X42126Y103595D01*
X42117Y103590D01*
X42097Y103575D01*
X42055Y103560D01*
X42011Y103539D01*
X41945Y103518D01*
X41868Y103486D01*
X41786Y103463D01*
X41690Y103437D01*
X41586Y103414D01*
X41472Y103403D01*
X41351Y103393D01*
X41217Y103388D01*
X41081Y103398D01*
X40941Y103418D01*
X40796Y103445D01*
X40643Y103491D01*
X40611Y103503D01*
X40567Y103525D01*
X40514Y103543D01*
X40447Y103581D01*
X40370Y103615D01*
X40285Y103667D01*
X40203Y103725D01*
X40107Y103787D01*
X40016Y103863D01*
X39924Y103938D01*
X39831Y104030D01*
X39749Y104131D01*
X39669Y104240D01*
X39593Y104362D01*
X39536Y104492D01*
X39531Y104500D01*
X39525Y104525D01*
X39510Y104567D01*
X39491Y104617D01*
X39479Y104688D01*
X39462Y104767D01*
X39443Y104861D01*
X39429Y104969D01*
X39420Y105090D01*
X39412Y105217D01*
X39416Y105356D01*
X39429Y105498D01*
X39446Y105654D01*
X39474Y105820D01*
X39518Y105989D01*
X39570Y106161D01*
X40138Y107801D01*
X40143Y107814D01*
X40152Y107840D01*
X40176Y107891D01*
X40199Y107956D01*
X40233Y108033D01*
X40278Y108120D01*
X40327Y108220D01*
X40385Y108325D01*
X40453Y108434D01*
X40526Y108540D01*
X40609Y108651D01*
X40698Y108760D01*
X40793Y108867D01*
X40902Y108968D01*
X41013Y109055D01*
X41137Y109137D01*
X41146Y109141D01*
X41166Y109156D01*
X41207Y109171D01*
X41258Y109190D01*
X41320Y109221D01*
X41395Y109246D01*
X41479Y109276D01*
X41576Y109301D01*
X41683Y109315D01*
X41800Y109333D01*
X41921Y109343D01*
X42048Y109350D01*
X42184Y109340D01*
D02*
G37*
G36*
X55892Y102681D02*
X55985Y102677D01*
X56084Y102669D01*
X56199Y102661D01*
X56313Y102637D01*
X56432Y102610D01*
X56559Y102580D01*
X56690Y102531D01*
X56818Y102475D01*
X56955Y102407D01*
X57021Y102370D01*
X57073Y102333D01*
X57130Y102294D01*
X57193Y102251D01*
X57265Y102194D01*
X57343Y102135D01*
X57498Y101985D01*
X57576Y101910D01*
X57652Y101820D01*
X57720Y101727D01*
X57784Y101628D01*
X57838Y101526D01*
X57880Y101415D01*
X57883Y101406D01*
X57888Y101387D01*
X57896Y101359D01*
X57910Y101312D01*
X57920Y101258D01*
X57923Y101193D01*
X57929Y101118D01*
X57934Y101028D01*
X57934Y100941D01*
X57923Y100836D01*
X57906Y100734D01*
X57888Y100617D01*
X57855Y100500D01*
X57809Y100375D01*
X57754Y100247D01*
X57689Y100116D01*
X57686Y100110D01*
X57679Y100098D01*
X57669Y100080D01*
X57655Y100055D01*
X57603Y99989D01*
X57543Y99911D01*
X57462Y99822D01*
X57371Y99729D01*
X57258Y99641D01*
X57133Y99560D01*
X57130Y99554D01*
X57120Y99551D01*
X57070Y99531D01*
X56997Y99500D01*
X56899Y99467D01*
X56786Y99435D01*
X56651Y99407D01*
X56498Y99389D01*
X56340Y99390D01*
X56346Y99386D01*
X56354Y99374D01*
X56366Y99351D01*
X56389Y99322D01*
X56436Y99249D01*
X56500Y99150D01*
X56560Y99029D01*
X56613Y98896D01*
X56650Y98748D01*
X56671Y98586D01*
X56667Y98580D01*
X56670Y98570D01*
X56672Y98545D01*
X56670Y98514D01*
X56672Y98474D01*
X56670Y98427D01*
X56656Y98316D01*
X56628Y98181D01*
X56593Y98033D01*
X56533Y97868D01*
X56448Y97701D01*
X56445Y97695D01*
X56431Y97671D01*
X56411Y97634D01*
X56378Y97589D01*
X56338Y97532D01*
X56289Y97472D01*
X56233Y97400D01*
X56167Y97325D01*
X56096Y97254D01*
X56015Y97180D01*
X55928Y97109D01*
X55831Y97036D01*
X55726Y96975D01*
X55618Y96924D01*
X55504Y96876D01*
X55382Y96841D01*
X55372Y96838D01*
X55353Y96833D01*
X55313Y96832D01*
X55269Y96824D01*
X55204Y96821D01*
X55129Y96815D01*
X55048Y96812D01*
X54955Y96816D01*
X54856Y96824D01*
X54751Y96835D01*
X54633Y96852D01*
X54514Y96880D01*
X54391Y96916D01*
X54260Y96965D01*
X54131Y97021D01*
X53995Y97089D01*
X53928Y97126D01*
X53889Y97156D01*
X53832Y97196D01*
X53768Y97239D01*
X53702Y97291D01*
X53628Y97357D01*
X53473Y97507D01*
X53392Y97591D01*
X53316Y97681D01*
X53242Y97778D01*
X53170Y97890D01*
X53106Y98004D01*
X53046Y98125D01*
X53044Y98134D01*
X53032Y98157D01*
X53022Y98194D01*
X53008Y98242D01*
X52992Y98298D01*
X52977Y98370D01*
X52964Y98449D01*
X52950Y98536D01*
X52942Y98636D01*
X52940Y98733D01*
X52944Y98841D01*
X52959Y98952D01*
X52982Y99066D01*
X53025Y99185D01*
X53067Y99305D01*
X53132Y99420D01*
X53151Y99441D01*
X53818Y99069D01*
X53815Y99063D01*
X53808Y99051D01*
X53798Y99033D01*
X53791Y99006D01*
X53756Y98929D01*
X53730Y98825D01*
X53703Y98705D01*
X53694Y98575D01*
X53700Y98428D01*
X53712Y98350D01*
X53733Y98275D01*
X53739Y98272D01*
X53739Y98256D01*
X53758Y98205D01*
X53799Y98135D01*
X53851Y98043D01*
X53927Y97937D01*
X54028Y97833D01*
X54150Y97725D01*
X54295Y97629D01*
X54338Y97605D01*
X54371Y97594D01*
X54401Y97577D01*
X54447Y97560D01*
X54558Y97530D01*
X54684Y97500D01*
X54820Y97487D01*
X54966Y97493D01*
X55035Y97503D01*
X55111Y97524D01*
X55114Y97530D01*
X55129Y97530D01*
X55174Y97552D01*
X55250Y97589D01*
X55343Y97641D01*
X55439Y97715D01*
X55549Y97812D01*
X55647Y97932D01*
X55744Y98077D01*
X55747Y98083D01*
X55757Y98101D01*
X55771Y98126D01*
X55782Y98159D01*
X55805Y98202D01*
X55823Y98248D01*
X55866Y98367D01*
X55905Y98496D01*
X55931Y98640D01*
X55940Y98786D01*
X55919Y98933D01*
X55913Y98952D01*
X55896Y98993D01*
X55865Y99066D01*
X55816Y99149D01*
X55737Y99249D01*
X55639Y99359D01*
X55513Y99461D01*
X55350Y99567D01*
X54774Y99888D01*
X55078Y100434D01*
X55696Y100089D01*
X55736Y100075D01*
X55773Y100055D01*
X55818Y100037D01*
X55932Y99998D01*
X56048Y99965D01*
X56187Y99943D01*
X56314Y99944D01*
X56383Y99953D01*
X56443Y99975D01*
X56456Y99984D01*
X56497Y100001D01*
X56558Y100039D01*
X56635Y100091D01*
X56722Y100162D01*
X56816Y100260D01*
X56911Y100374D01*
X57002Y100522D01*
X57005Y100528D01*
X57012Y100540D01*
X57022Y100559D01*
X57033Y100592D01*
X57064Y100662D01*
X57102Y100760D01*
X57126Y100874D01*
X57147Y100997D01*
X57156Y101128D01*
X57137Y101265D01*
X57132Y101284D01*
X57121Y101322D01*
X57090Y101394D01*
X57047Y101474D01*
X56986Y101564D01*
X56900Y101667D01*
X56786Y101762D01*
X56647Y101855D01*
X56611Y101875D01*
X56577Y101886D01*
X56541Y101907D01*
X56501Y101921D01*
X56394Y101956D01*
X56268Y101987D01*
X56135Y102005D01*
X55986Y102009D01*
X55836Y101981D01*
X55817Y101976D01*
X55770Y101962D01*
X55697Y101932D01*
X55614Y101882D01*
X55515Y101818D01*
X55412Y101733D01*
X55314Y101628D01*
X55271Y101565D01*
X55224Y101496D01*
X54551Y101870D01*
X54559Y101898D01*
X54562Y101904D01*
X54572Y101922D01*
X54589Y101953D01*
X54619Y101992D01*
X54652Y102037D01*
X54692Y102094D01*
X54741Y102154D01*
X54799Y102217D01*
X54864Y102276D01*
X54932Y102341D01*
X55016Y102406D01*
X55106Y102467D01*
X55208Y102522D01*
X55306Y102570D01*
X55426Y102614D01*
X55549Y102649D01*
X55558Y102652D01*
X55583Y102654D01*
X55617Y102659D01*
X55671Y102669D01*
X55730Y102676D01*
X55805Y102682D01*
X55892Y102681D01*
D02*
G37*
G36*
X60099Y100379D02*
X60217Y100377D01*
X60338Y100365D01*
X60464Y100350D01*
X60596Y100317D01*
X60731Y100273D01*
X60875Y100217D01*
X61011Y100149D01*
X61048Y100129D01*
X61081Y100102D01*
X61135Y100072D01*
X61189Y100026D01*
X61259Y99980D01*
X61334Y99914D01*
X61411Y99839D01*
X61488Y99764D01*
X61571Y99671D01*
X61645Y99574D01*
X61721Y99468D01*
X61784Y99354D01*
X61844Y99233D01*
X61897Y99100D01*
X61931Y98962D01*
X61934Y98953D01*
X61936Y98928D01*
X61943Y98884D01*
X61953Y98830D01*
X61953Y98759D01*
X61956Y98678D01*
X61955Y98576D01*
X61953Y98473D01*
X61942Y98353D01*
X61927Y98226D01*
X61899Y98090D01*
X61862Y97952D01*
X61818Y97802D01*
X61761Y97643D01*
X61689Y97485D01*
X61607Y97324D01*
X60763Y95807D01*
X60757Y95795D01*
X60743Y95771D01*
X60716Y95723D01*
X60676Y95665D01*
X60630Y95596D01*
X60570Y95518D01*
X60504Y95428D01*
X60429Y95335D01*
X60344Y95239D01*
X60249Y95141D01*
X60149Y95046D01*
X60042Y94954D01*
X59923Y94869D01*
X59802Y94794D01*
X59675Y94722D01*
X59542Y94669D01*
X59532Y94666D01*
X59510Y94655D01*
X59466Y94647D01*
X59419Y94634D01*
X59350Y94624D01*
X59269Y94606D01*
X59184Y94598D01*
X59085Y94590D01*
X58979Y94585D01*
X58864Y94593D01*
X58744Y94605D01*
X58611Y94623D01*
X58479Y94657D01*
X58344Y94700D01*
X58206Y94753D01*
X58064Y94824D01*
X58033Y94841D01*
X57994Y94871D01*
X57946Y94898D01*
X57886Y94947D01*
X57816Y94994D01*
X57741Y95059D01*
X57670Y95130D01*
X57587Y95209D01*
X57510Y95299D01*
X57433Y95390D01*
X57357Y95495D01*
X57294Y95610D01*
X57234Y95731D01*
X57181Y95864D01*
X57146Y96002D01*
X57144Y96011D01*
X57142Y96036D01*
X57134Y96080D01*
X57124Y96133D01*
X57124Y96205D01*
X57122Y96286D01*
X57120Y96382D01*
X57125Y96491D01*
X57136Y96611D01*
X57151Y96738D01*
X57179Y96873D01*
X57216Y97012D01*
X57260Y97162D01*
X57317Y97321D01*
X57389Y97479D01*
X57471Y97640D01*
X58314Y99156D01*
X58321Y99168D01*
X58335Y99193D01*
X58368Y99238D01*
X58402Y99298D01*
X58448Y99368D01*
X58507Y99446D01*
X58574Y99536D01*
X58649Y99629D01*
X58734Y99725D01*
X58825Y99817D01*
X58926Y99912D01*
X59032Y100004D01*
X59145Y100092D01*
X59270Y100173D01*
X59394Y100239D01*
X59530Y100299D01*
X59539Y100301D01*
X59562Y100313D01*
X59605Y100320D01*
X59659Y100330D01*
X59725Y100349D01*
X59803Y100361D01*
X59891Y100376D01*
X59990Y100384D01*
X60099Y100379D01*
D02*
G37*
G36*
X76457Y88342D02*
X76546Y88341D01*
X76645Y88332D01*
X76751Y88309D01*
X76867Y88286D01*
X76984Y88254D01*
X77106Y88217D01*
X77230Y88161D01*
X77355Y88095D01*
X77487Y88015D01*
X77610Y87924D01*
X77642Y87897D01*
X77670Y87866D01*
X77719Y87826D01*
X77764Y87772D01*
X77824Y87714D01*
X77886Y87636D01*
X77950Y87549D01*
X78013Y87462D01*
X78078Y87355D01*
X78134Y87248D01*
X78190Y87130D01*
X78233Y87006D01*
X78271Y86877D01*
X78300Y86737D01*
X78310Y86595D01*
X78311Y86585D01*
X78308Y86560D01*
X78308Y86516D01*
X78309Y86462D01*
X78296Y86391D01*
X78285Y86311D01*
X78266Y86210D01*
X78246Y86110D01*
X78214Y85993D01*
X78177Y85871D01*
X78126Y85742D01*
X78066Y85612D01*
X77996Y85472D01*
X77913Y85325D01*
X77814Y85182D01*
X77706Y85038D01*
X76612Y83691D01*
X76603Y83680D01*
X76585Y83659D01*
X76550Y83616D01*
X76501Y83566D01*
X76443Y83506D01*
X76371Y83439D01*
X76291Y83362D01*
X76200Y83284D01*
X76100Y83204D01*
X75990Y83124D01*
X75874Y83048D01*
X75753Y82976D01*
X75621Y82913D01*
X75489Y82860D01*
X75351Y82811D01*
X75211Y82782D01*
X75201Y82781D01*
X75177Y82773D01*
X75133Y82774D01*
X75084Y82769D01*
X75015Y82771D01*
X74931Y82768D01*
X74847Y82774D01*
X74747Y82783D01*
X74642Y82797D01*
X74531Y82825D01*
X74414Y82857D01*
X74286Y82898D01*
X74162Y82955D01*
X74037Y83021D01*
X73910Y83096D01*
X73782Y83192D01*
X73755Y83213D01*
X73722Y83249D01*
X73679Y83284D01*
X73628Y83343D01*
X73568Y83401D01*
X73506Y83479D01*
X73448Y83561D01*
X73379Y83653D01*
X73319Y83755D01*
X73259Y83858D01*
X73203Y83975D01*
X73160Y84099D01*
X73123Y84228D01*
X73093Y84368D01*
X73083Y84511D01*
X73082Y84520D01*
X73085Y84545D01*
X73085Y84590D01*
X73084Y84644D01*
X73097Y84714D01*
X73108Y84794D01*
X73123Y84890D01*
X73147Y84996D01*
X73179Y85113D01*
X73216Y85235D01*
X73267Y85363D01*
X73327Y85493D01*
X73397Y85633D01*
X73480Y85780D01*
X73579Y85923D01*
X73687Y86068D01*
X74781Y87414D01*
X74790Y87425D01*
X74808Y87447D01*
X74848Y87485D01*
X74892Y87539D01*
X74950Y87599D01*
X75022Y87666D01*
X75103Y87743D01*
X75193Y87822D01*
X75293Y87901D01*
X75399Y87976D01*
X75515Y88052D01*
X75635Y88124D01*
X75762Y88191D01*
X75899Y88250D01*
X76033Y88293D01*
X76177Y88328D01*
X76187Y88329D01*
X76211Y88336D01*
X76255Y88336D01*
X76309Y88337D01*
X76377Y88344D01*
X76457Y88342D01*
D02*
G37*
G36*
X74929Y89995D02*
X72452Y86947D01*
X73087Y86430D01*
X72689Y85940D01*
X72053Y86456D01*
X71196Y85401D01*
X70576Y85904D01*
X71434Y86960D01*
X69463Y88562D01*
X69748Y88912D01*
X74272Y90529D01*
X74929Y89995D01*
D02*
G37*
G36*
X89455Y75574D02*
X88914Y75106D01*
X87419Y76832D01*
X86007Y75866D01*
X86017Y75865D01*
X86045Y75853D01*
X86094Y75840D01*
X86152Y75826D01*
X86219Y75801D01*
X86295Y75766D01*
X86377Y75736D01*
X86457Y75696D01*
X86472Y75690D01*
X86495Y75673D01*
X86537Y75646D01*
X86594Y75612D01*
X86654Y75564D01*
X86724Y75504D01*
X86798Y75440D01*
X86876Y75361D01*
X86926Y75303D01*
X86962Y75251D01*
X86997Y75200D01*
X87041Y75128D01*
X87090Y75050D01*
X87133Y74968D01*
X87180Y74871D01*
X87222Y74770D01*
X87259Y74664D01*
X87295Y74548D01*
X87321Y74433D01*
X87337Y74309D01*
X87338Y74181D01*
X87328Y74054D01*
X87328Y74044D01*
X87326Y74025D01*
X87314Y73986D01*
X87305Y73933D01*
X87291Y73875D01*
X87266Y73798D01*
X87235Y73716D01*
X87200Y73630D01*
X87154Y73535D01*
X87107Y73430D01*
X87040Y73327D01*
X86963Y73214D01*
X86881Y73097D01*
X86784Y72986D01*
X86673Y72871D01*
X86552Y72757D01*
X86546Y72752D01*
X86520Y72729D01*
X86489Y72702D01*
X86437Y72667D01*
X86375Y72622D01*
X86297Y72573D01*
X86215Y72520D01*
X86123Y72468D01*
X86025Y72411D01*
X85913Y72360D01*
X85801Y72309D01*
X85680Y72268D01*
X85555Y72233D01*
X85425Y72203D01*
X85291Y72188D01*
X85158Y72183D01*
X85148Y72183D01*
X85128Y72185D01*
X85089Y72188D01*
X85035Y72196D01*
X84972Y72206D01*
X84900Y72226D01*
X84818Y72246D01*
X84726Y72277D01*
X84625Y72309D01*
X84521Y72356D01*
X84412Y72418D01*
X84298Y72485D01*
X84186Y72562D01*
X84070Y72654D01*
X83955Y72766D01*
X83840Y72887D01*
X83795Y72940D01*
X83764Y72986D01*
X83728Y73038D01*
X83683Y73100D01*
X83639Y73172D01*
X83591Y73249D01*
X83500Y73428D01*
X83458Y73529D01*
X83422Y73636D01*
X83386Y73751D01*
X83359Y73866D01*
X83343Y73981D01*
X83332Y74099D01*
X83333Y74109D01*
X83334Y74129D01*
X83332Y74163D01*
X83340Y74207D01*
X83344Y74266D01*
X83359Y74334D01*
X83378Y74406D01*
X83399Y74488D01*
X83429Y74570D01*
X83470Y74660D01*
X83517Y74755D01*
X83578Y74854D01*
X83644Y74958D01*
X83725Y75055D01*
X83816Y75152D01*
X83926Y75248D01*
X83951Y75260D01*
X84424Y74715D01*
X84419Y74710D01*
X84408Y74701D01*
X84387Y74683D01*
X84365Y74655D01*
X84339Y74632D01*
X84307Y74595D01*
X84237Y74507D01*
X84170Y74403D01*
X84108Y74285D01*
X84059Y74151D01*
X84034Y74010D01*
X84032Y73990D01*
X84034Y73946D01*
X84044Y73871D01*
X84061Y73777D01*
X84093Y73666D01*
X84143Y73544D01*
X84213Y73421D01*
X84307Y73291D01*
X84339Y73255D01*
X84367Y73233D01*
X84399Y73206D01*
X84436Y73174D01*
X84535Y73103D01*
X84648Y73036D01*
X84781Y72977D01*
X84854Y72957D01*
X84931Y72942D01*
X85010Y72936D01*
X85093Y72935D01*
X85099Y72940D01*
X85113Y72934D01*
X85138Y72937D01*
X85173Y72949D01*
X85217Y72951D01*
X85263Y72962D01*
X85323Y72978D01*
X85383Y72993D01*
X85449Y73023D01*
X85520Y73047D01*
X85677Y73119D01*
X85842Y73226D01*
X86019Y73361D01*
X86024Y73365D01*
X86040Y73379D01*
X86061Y73397D01*
X86088Y73430D01*
X86125Y73461D01*
X86162Y73503D01*
X86243Y73601D01*
X86330Y73722D01*
X86414Y73859D01*
X86484Y74011D01*
X86525Y74176D01*
X86531Y74180D01*
X86527Y74195D01*
X86536Y74249D01*
X86537Y74332D01*
X86525Y74441D01*
X86499Y74566D01*
X86450Y74707D01*
X86382Y74850D01*
X86328Y74923D01*
X86274Y74995D01*
X86224Y75053D01*
X86164Y75112D01*
X86086Y75181D01*
X86003Y75256D01*
X85909Y75322D01*
X85810Y75383D01*
X85714Y75419D01*
X85704Y75420D01*
X85671Y75427D01*
X85622Y75431D01*
X85558Y75440D01*
X85479Y75436D01*
X85390Y75423D01*
X85295Y75405D01*
X85189Y75368D01*
X84805Y75918D01*
X87514Y77814D01*
X89455Y75574D01*
D02*
G37*
G36*
X90222Y73999D02*
X90276Y73990D01*
X90344Y73985D01*
X90422Y73970D01*
X90509Y73954D01*
X90606Y73927D01*
X90706Y73886D01*
X90816Y73843D01*
X90926Y73791D01*
X91040Y73734D01*
X91152Y73657D01*
X91264Y73570D01*
X91380Y73468D01*
X91485Y73358D01*
X91512Y73326D01*
X91534Y73290D01*
X91575Y73243D01*
X91610Y73181D01*
X91659Y73114D01*
X91707Y73027D01*
X91755Y72930D01*
X91802Y72833D01*
X91847Y72717D01*
X91883Y72601D01*
X91919Y72475D01*
X91939Y72346D01*
X91954Y72212D01*
X91958Y72069D01*
X91943Y71927D01*
X91943Y71918D01*
X91936Y71894D01*
X91928Y71850D01*
X91919Y71796D01*
X91895Y71729D01*
X91870Y71652D01*
X91833Y71557D01*
X91797Y71461D01*
X91745Y71351D01*
X91687Y71237D01*
X91615Y71119D01*
X91533Y71002D01*
X91440Y70876D01*
X91332Y70746D01*
X91210Y70622D01*
X91078Y70499D01*
X89767Y69363D01*
X89757Y69354D01*
X89736Y69336D01*
X89694Y69299D01*
X89637Y69259D01*
X89569Y69210D01*
X89486Y69156D01*
X89394Y69094D01*
X89291Y69033D01*
X89178Y68972D01*
X89056Y68912D01*
X88929Y68857D01*
X88797Y68807D01*
X88657Y68768D01*
X88517Y68739D01*
X88372Y68715D01*
X88230Y68710D01*
X88220Y68711D01*
X88195Y68708D01*
X88151Y68716D01*
X88102Y68720D01*
X88034Y68734D01*
X87952Y68745D01*
X87869Y68766D01*
X87773Y68792D01*
X87672Y68824D01*
X87567Y68871D01*
X87458Y68923D01*
X87339Y68986D01*
X87226Y69063D01*
X87115Y69150D01*
X87003Y69246D01*
X86894Y69362D01*
X86871Y69388D01*
X86844Y69430D01*
X86808Y69472D01*
X86769Y69538D01*
X86719Y69606D01*
X86671Y69693D01*
X86629Y69784D01*
X86577Y69887D01*
X86536Y69998D01*
X86495Y70109D01*
X86459Y70235D01*
X86439Y70364D01*
X86424Y70498D01*
X86420Y70641D01*
X86435Y70782D01*
X86435Y70792D01*
X86442Y70816D01*
X86450Y70860D01*
X86459Y70913D01*
X86483Y70981D01*
X86509Y71057D01*
X86540Y71149D01*
X86581Y71249D01*
X86633Y71359D01*
X86691Y71473D01*
X86763Y71590D01*
X86845Y71707D01*
X86938Y71834D01*
X87046Y71964D01*
X87168Y72088D01*
X87300Y72211D01*
X88611Y73347D01*
X88622Y73356D01*
X88643Y73374D01*
X88689Y73405D01*
X88741Y73451D01*
X88809Y73500D01*
X88892Y73553D01*
X88985Y73615D01*
X89087Y73677D01*
X89200Y73738D01*
X89317Y73793D01*
X89444Y73848D01*
X89575Y73898D01*
X89711Y73942D01*
X89857Y73976D01*
X89996Y73996D01*
X90144Y74005D01*
X90154Y74004D01*
X90179Y74007D01*
X90222Y73999D01*
D02*
G37*
G36*
X99100Y61014D02*
X99267Y60992D01*
X99277Y60989D01*
X99305Y60982D01*
X99353Y60970D01*
X99410Y60956D01*
X99489Y60931D01*
X99573Y60900D01*
X99665Y60866D01*
X99765Y60821D01*
X99872Y60764D01*
X99983Y60701D01*
X100091Y60628D01*
X100203Y60549D01*
X100310Y60452D01*
X100415Y60344D01*
X100511Y60224D01*
X100599Y60091D01*
X100663Y59983D01*
X100704Y59903D01*
X100751Y59810D01*
X100800Y59701D01*
X100846Y59583D01*
X100892Y59465D01*
X100899Y59454D01*
X100909Y59411D01*
X100933Y59344D01*
X100954Y59268D01*
X100982Y59180D01*
X101003Y59079D01*
X101019Y58983D01*
X101036Y58888D01*
X100420Y58714D01*
X100419Y58729D01*
X100417Y58760D01*
X100403Y58809D01*
X100395Y58877D01*
X100378Y58947D01*
X100359Y59033D01*
X100336Y59124D01*
X100310Y59222D01*
X100303Y59234D01*
X100291Y59267D01*
X100278Y59316D01*
X100251Y59389D01*
X100214Y59464D01*
X100172Y59560D01*
X100121Y59659D01*
X100029Y59814D01*
X100005Y59840D01*
X99974Y59878D01*
X99933Y59919D01*
X99840Y60008D01*
X99786Y60057D01*
X99717Y60105D01*
X99648Y60152D01*
X99567Y60193D01*
X99484Y60224D01*
X99391Y60257D01*
X99290Y60278D01*
X99183Y60295D01*
X99173Y60297D01*
X99158Y60296D01*
X99123Y60299D01*
X99083Y60299D01*
X99027Y60298D01*
X98965Y60294D01*
X98897Y60285D01*
X98814Y60276D01*
X98725Y60263D01*
X98633Y60240D01*
X98535Y60214D01*
X98426Y60181D01*
X98320Y60142D01*
X98208Y60099D01*
X98091Y60037D01*
X97974Y59976D01*
X97581Y59741D01*
X97601Y59736D01*
X97638Y59726D01*
X97703Y59700D01*
X97792Y59672D01*
X97888Y59633D01*
X97992Y59582D01*
X98102Y59519D01*
X98214Y59440D01*
X98218Y59434D01*
X98227Y59432D01*
X98244Y59417D01*
X98264Y59397D01*
X98320Y59358D01*
X98394Y59289D01*
X98465Y59210D01*
X98553Y59117D01*
X98633Y59011D01*
X98714Y58890D01*
X98753Y58824D01*
X98772Y58779D01*
X98801Y58716D01*
X98829Y58643D01*
X98860Y58564D01*
X98888Y58476D01*
X98911Y58385D01*
X98934Y58277D01*
X98948Y58173D01*
X98960Y58058D01*
X98957Y57943D01*
X98947Y57824D01*
X98931Y57701D01*
X98897Y57584D01*
X98894Y57574D01*
X98889Y57555D01*
X98870Y57519D01*
X98855Y57478D01*
X98825Y57419D01*
X98789Y57358D01*
X98751Y57286D01*
X98701Y57208D01*
X98645Y57126D01*
X98577Y57037D01*
X98500Y56950D01*
X98416Y56859D01*
X98317Y56768D01*
X98215Y56682D01*
X98097Y56595D01*
X97969Y56511D01*
X97964Y56507D01*
X97934Y56490D01*
X97892Y56465D01*
X97835Y56439D01*
X97766Y56405D01*
X97681Y56371D01*
X97591Y56333D01*
X97491Y56297D01*
X97375Y56261D01*
X97256Y56230D01*
X97137Y56199D01*
X97011Y56180D01*
X96872Y56169D01*
X96738Y56163D01*
X96604Y56171D01*
X96468Y56195D01*
X96459Y56197D01*
X96440Y56202D01*
X96402Y56212D01*
X96350Y56230D01*
X96290Y56250D01*
X96216Y56279D01*
X96139Y56313D01*
X96054Y56360D01*
X95966Y56412D01*
X95871Y56476D01*
X95772Y56547D01*
X95676Y56627D01*
X95582Y56716D01*
X95487Y56821D01*
X95400Y56939D01*
X95316Y57066D01*
X95298Y57096D01*
X95283Y57135D01*
X95251Y57189D01*
X95227Y57256D01*
X95196Y57334D01*
X95161Y57419D01*
X95135Y57516D01*
X95108Y57630D01*
X95087Y57746D01*
X95072Y57866D01*
X95065Y58000D01*
X95064Y58137D01*
X95078Y58275D01*
X95095Y58422D01*
X95137Y58569D01*
X95139Y58578D01*
X95150Y58601D01*
X95165Y58642D01*
X95195Y58701D01*
X95227Y58768D01*
X95268Y58849D01*
X95320Y58937D01*
X95385Y59032D01*
X95451Y59137D01*
X95540Y59246D01*
X95634Y59360D01*
X95744Y59474D01*
X95863Y59585D01*
X96003Y59702D01*
X96157Y59810D01*
X96320Y59916D01*
X97487Y60614D01*
X97499Y60621D01*
X97529Y60639D01*
X97580Y60662D01*
X97640Y60697D01*
X97724Y60732D01*
X97821Y60773D01*
X97923Y60818D01*
X98045Y60859D01*
X98172Y60903D01*
X98312Y60938D01*
X98462Y60971D01*
X98616Y60999D01*
X98777Y61014D01*
X98935Y61020D01*
X99100Y61014D01*
D02*
G37*
G36*
X101510Y57190D02*
X101657Y57174D01*
X101667Y57171D01*
X101692Y57170D01*
X101734Y57154D01*
X101785Y57136D01*
X101851Y57120D01*
X101925Y57091D01*
X102008Y57060D01*
X102099Y57017D01*
X102190Y56959D01*
X102292Y56898D01*
X102390Y56827D01*
X102492Y56751D01*
X102590Y56656D01*
X102685Y56551D01*
X102781Y56431D01*
X102866Y56303D01*
X102887Y56268D01*
X102902Y56228D01*
X102935Y56175D01*
X102958Y56108D01*
X102995Y56033D01*
X103027Y55939D01*
X103057Y55835D01*
X103086Y55732D01*
X103111Y55609D01*
X103127Y55489D01*
X103140Y55359D01*
X103137Y55228D01*
X103129Y55094D01*
X103108Y54952D01*
X103069Y54815D01*
X103066Y54806D01*
X103056Y54783D01*
X103040Y54742D01*
X103022Y54690D01*
X102986Y54628D01*
X102948Y54557D01*
X102896Y54469D01*
X102843Y54381D01*
X102773Y54282D01*
X102697Y54180D01*
X102605Y54077D01*
X102504Y53976D01*
X102390Y53868D01*
X102262Y53758D01*
X102120Y53657D01*
X101969Y53558D01*
X100480Y52667D01*
X100468Y52660D01*
X100444Y52646D01*
X100397Y52618D01*
X100334Y52588D01*
X100259Y52551D01*
X100168Y52513D01*
X100066Y52468D01*
X99954Y52425D01*
X99832Y52385D01*
X99701Y52347D01*
X99567Y52315D01*
X99429Y52289D01*
X99283Y52275D01*
X99141Y52270D01*
X98994Y52272D01*
X98853Y52292D01*
X98843Y52294D01*
X98818Y52296D01*
X98777Y52311D01*
X98729Y52323D01*
X98665Y52349D01*
X98585Y52375D01*
X98508Y52409D01*
X98417Y52452D01*
X98323Y52501D01*
X98228Y52565D01*
X98129Y52636D01*
X98023Y52718D01*
X97926Y52813D01*
X97831Y52918D01*
X97738Y53032D01*
X97650Y53166D01*
X97632Y53196D01*
X97614Y53241D01*
X97585Y53289D01*
X97558Y53361D01*
X97521Y53436D01*
X97489Y53530D01*
X97463Y53628D01*
X97430Y53737D01*
X97408Y53854D01*
X97387Y53971D01*
X97374Y54100D01*
X97377Y54231D01*
X97385Y54366D01*
X97405Y54507D01*
X97445Y54644D01*
X97447Y54654D01*
X97458Y54676D01*
X97474Y54718D01*
X97491Y54769D01*
X97527Y54831D01*
X97565Y54902D01*
X97612Y54987D01*
X97670Y55078D01*
X97741Y55177D01*
X97817Y55279D01*
X97909Y55383D01*
X98010Y55484D01*
X98123Y55592D01*
X98252Y55701D01*
X98393Y55802D01*
X98545Y55901D01*
X100033Y56792D01*
X100046Y56799D01*
X100069Y56813D01*
X100120Y56836D01*
X100180Y56872D01*
X100255Y56909D01*
X100346Y56946D01*
X100448Y56991D01*
X100560Y57034D01*
X100681Y57075D01*
X100806Y57109D01*
X100941Y57141D01*
X101079Y57167D01*
X101221Y57187D01*
X101369Y57195D01*
X101510Y57190D01*
D02*
G37*
G36*
X110096Y39929D02*
X109506Y39703D01*
X109500Y39701D01*
X109488Y39711D01*
X109464Y39717D01*
X109430Y39726D01*
X109346Y39754D01*
X109234Y39793D01*
X109092Y39835D01*
X108925Y39883D01*
X108749Y39934D01*
X108549Y39992D01*
X108336Y40044D01*
X108116Y40094D01*
X107884Y40139D01*
X107658Y40186D01*
X107421Y40222D01*
X107196Y40248D01*
X106973Y40266D01*
X106762Y40275D01*
X106746Y40277D01*
X106712Y40271D01*
X106652Y40270D01*
X106571Y40269D01*
X106470Y40260D01*
X106354Y40253D01*
X106219Y40238D01*
X106070Y40219D01*
X105900Y40198D01*
X105725Y40169D01*
X105538Y40135D01*
X105340Y40089D01*
X105136Y40040D01*
X104921Y39981D01*
X104711Y39908D01*
X104488Y39830D01*
X103885Y39600D01*
X103600Y40345D01*
X104203Y40576D01*
X104209Y40578D01*
X104216Y40581D01*
X104235Y40588D01*
X104261Y40598D01*
X104326Y40623D01*
X104420Y40651D01*
X104532Y40687D01*
X104660Y40720D01*
X104814Y40764D01*
X104977Y40804D01*
X105156Y40843D01*
X105347Y40886D01*
X105550Y40919D01*
X105755Y40946D01*
X105970Y40968D01*
X106196Y40980D01*
X106417Y40983D01*
X106635Y40977D01*
X106650Y40975D01*
X106688Y40975D01*
X106750Y40969D01*
X106842Y40959D01*
X106953Y40942D01*
X107085Y40926D01*
X107233Y40908D01*
X107399Y40882D01*
X107589Y40851D01*
X107791Y40809D01*
X107999Y40770D01*
X108228Y40716D01*
X108465Y40658D01*
X108712Y40596D01*
X108963Y40521D01*
X109226Y40436D01*
X108105Y43373D01*
X108695Y43598D01*
X110096Y39929D01*
D02*
G37*
G36*
X109670Y38592D02*
X109818Y38575D01*
X109956Y38545D01*
X110098Y38503D01*
X110107Y38499D01*
X110131Y38494D01*
X110170Y38471D01*
X110217Y38445D01*
X110280Y38416D01*
X110347Y38375D01*
X110424Y38331D01*
X110505Y38273D01*
X110586Y38199D01*
X110675Y38122D01*
X110760Y38035D01*
X110847Y37942D01*
X110926Y37832D01*
X111002Y37712D01*
X111076Y37576D01*
X111137Y37436D01*
X111152Y37398D01*
X111160Y37356D01*
X111182Y37298D01*
X111194Y37228D01*
X111217Y37148D01*
X111232Y37049D01*
X111244Y36942D01*
X111255Y36835D01*
X111258Y36710D01*
X111252Y36589D01*
X111243Y36459D01*
X111217Y36331D01*
X111186Y36200D01*
X111141Y36064D01*
X111078Y35936D01*
X111074Y35927D01*
X111060Y35906D01*
X111037Y35868D01*
X111011Y35821D01*
X110965Y35766D01*
X110915Y35702D01*
X110848Y35625D01*
X110781Y35547D01*
X110695Y35462D01*
X110602Y35375D01*
X110493Y35289D01*
X110376Y35207D01*
X110246Y35120D01*
X110100Y35035D01*
X109943Y34960D01*
X109777Y34889D01*
X108156Y34270D01*
X108143Y34265D01*
X108117Y34255D01*
X108065Y34235D01*
X107998Y34217D01*
X107918Y34194D01*
X107822Y34172D01*
X107713Y34146D01*
X107596Y34123D01*
X107469Y34104D01*
X107334Y34090D01*
X107195Y34082D01*
X107055Y34080D01*
X106910Y34091D01*
X106768Y34111D01*
X106624Y34138D01*
X106488Y34183D01*
X106479Y34187D01*
X106455Y34192D01*
X106416Y34215D01*
X106372Y34235D01*
X106313Y34272D01*
X106239Y34311D01*
X106169Y34358D01*
X106087Y34416D01*
X106003Y34481D01*
X105921Y34560D01*
X105836Y34647D01*
X105746Y34746D01*
X105666Y34857D01*
X105591Y34977D01*
X105519Y35105D01*
X105456Y35252D01*
X105444Y35285D01*
X105433Y35332D01*
X105413Y35384D01*
X105399Y35461D01*
X105375Y35541D01*
X105360Y35639D01*
X105351Y35740D01*
X105338Y35853D01*
X105337Y35972D01*
X105336Y36090D01*
X105346Y36220D01*
X105371Y36349D01*
X105403Y36480D01*
X105448Y36616D01*
X105510Y36744D01*
X105514Y36753D01*
X105529Y36773D01*
X105551Y36812D01*
X105578Y36859D01*
X105624Y36913D01*
X105674Y36977D01*
X105734Y37052D01*
X105808Y37132D01*
X105894Y37217D01*
X105987Y37305D01*
X106095Y37391D01*
X106213Y37473D01*
X106343Y37560D01*
X106489Y37645D01*
X106646Y37720D01*
X106812Y37791D01*
X108433Y38410D01*
X108446Y38414D01*
X108472Y38424D01*
X108526Y38438D01*
X108591Y38462D01*
X108671Y38486D01*
X108767Y38507D01*
X108875Y38534D01*
X108993Y38557D01*
X109120Y38575D01*
X109249Y38587D01*
X109387Y38596D01*
X109527Y38597D01*
X109670Y38592D01*
D02*
G37*
G36*
X113601Y23633D02*
X113702Y23624D01*
X113804Y23608D01*
X113906Y23593D01*
X114010Y23563D01*
X114118Y23520D01*
X114225Y23478D01*
X114321Y23418D01*
X114420Y23345D01*
X114428Y23340D01*
X114444Y23329D01*
X114463Y23304D01*
X114498Y23269D01*
X114541Y23227D01*
X114587Y23173D01*
X114635Y23111D01*
X114690Y23044D01*
X114741Y22962D01*
X114793Y22873D01*
X114848Y22771D01*
X114904Y22668D01*
X114954Y22551D01*
X114993Y22424D01*
X115033Y22290D01*
X115067Y22149D01*
X115082Y22073D01*
X115084Y22025D01*
X115089Y21962D01*
X115097Y21886D01*
X115099Y21801D01*
X115102Y21710D01*
X115086Y21502D01*
X115077Y21401D01*
X115057Y21284D01*
X115029Y21173D01*
X114993Y21067D01*
X114950Y20960D01*
X114893Y20850D01*
X114888Y20842D01*
X114877Y20825D01*
X114860Y20801D01*
X114833Y20761D01*
X114798Y20719D01*
X114759Y20669D01*
X114707Y20609D01*
X114646Y20555D01*
X114574Y20492D01*
X114500Y20435D01*
X114412Y20376D01*
X114310Y20321D01*
X114207Y20265D01*
X114088Y20221D01*
X113962Y20183D01*
X113827Y20150D01*
X113820Y20148D01*
X113806Y20146D01*
X113786Y20142D01*
X113750Y20142D01*
X113709Y20134D01*
X113661Y20132D01*
X113548Y20131D01*
X113420Y20135D01*
X113274Y20156D01*
X113126Y20191D01*
X112973Y20254D01*
X112966Y20253D01*
X112956Y20265D01*
X112909Y20291D01*
X112837Y20334D01*
X112748Y20394D01*
X112647Y20474D01*
X112537Y20573D01*
X112429Y20693D01*
X112325Y20829D01*
X112326Y20822D01*
X112322Y20807D01*
X112313Y20777D01*
X112306Y20740D01*
X112301Y20697D01*
X112283Y20644D01*
X112250Y20518D01*
X112200Y20374D01*
X112130Y20226D01*
X112039Y20074D01*
X111933Y19927D01*
X111928Y19918D01*
X111922Y19910D01*
X111898Y19891D01*
X111874Y19866D01*
X111844Y19839D01*
X111808Y19804D01*
X111717Y19729D01*
X111598Y19650D01*
X111457Y19573D01*
X111300Y19508D01*
X111214Y19477D01*
X111125Y19460D01*
X111119Y19459D01*
X111091Y19453D01*
X111050Y19445D01*
X110995Y19442D01*
X110925Y19435D01*
X110841Y19433D01*
X110756Y19431D01*
X110656Y19440D01*
X110555Y19449D01*
X110446Y19463D01*
X110336Y19485D01*
X110218Y19511D01*
X110111Y19554D01*
X109994Y19610D01*
X109891Y19668D01*
X109784Y19746D01*
X109776Y19751D01*
X109760Y19762D01*
X109733Y19793D01*
X109697Y19828D01*
X109654Y19869D01*
X109608Y19924D01*
X109553Y19991D01*
X109496Y20065D01*
X109439Y20146D01*
X109378Y20240D01*
X109323Y20343D01*
X109266Y20452D01*
X109214Y20576D01*
X109169Y20702D01*
X109128Y20842D01*
X109092Y20991D01*
X109076Y21072D01*
X109071Y21135D01*
X109065Y21205D01*
X109055Y21294D01*
X109050Y21393D01*
X109052Y21492D01*
X109063Y21727D01*
X109075Y21850D01*
X109094Y21973D01*
X109119Y22098D01*
X109158Y22226D01*
X109205Y22348D01*
X109259Y22472D01*
X109265Y22480D01*
X109276Y22496D01*
X109298Y22529D01*
X109325Y22569D01*
X109358Y22618D01*
X109410Y22678D01*
X109462Y22737D01*
X109528Y22799D01*
X109599Y22870D01*
X109686Y22936D01*
X109779Y23003D01*
X109880Y23065D01*
X109989Y23121D01*
X110114Y23173D01*
X110254Y23215D01*
X110396Y23249D01*
X110403Y23250D01*
X110416Y23253D01*
X110443Y23258D01*
X110479Y23258D01*
X110520Y23266D01*
X110576Y23269D01*
X110697Y23265D01*
X110839Y23257D01*
X110993Y23230D01*
X111158Y23184D01*
X111242Y23150D01*
X111320Y23109D01*
X111328Y23103D01*
X111337Y23098D01*
X111361Y23081D01*
X111392Y23066D01*
X111473Y23011D01*
X111574Y22932D01*
X111684Y22833D01*
X111801Y22707D01*
X111921Y22560D01*
X112031Y22391D01*
X112030Y22398D01*
X112034Y22412D01*
X112044Y22435D01*
X112051Y22472D01*
X112076Y22562D01*
X112111Y22675D01*
X112158Y22797D01*
X112223Y22937D01*
X112303Y23072D01*
X112406Y23198D01*
X112413Y23199D01*
X112417Y23214D01*
X112436Y23225D01*
X112459Y23250D01*
X112526Y23306D01*
X112612Y23372D01*
X112719Y23442D01*
X112848Y23509D01*
X112999Y23566D01*
X113160Y23612D01*
X113167Y23613D01*
X113194Y23618D01*
X113236Y23619D01*
X113284Y23629D01*
X113353Y23635D01*
X113431Y23636D01*
X113515Y23638D01*
X113601Y23633D01*
D02*
G37*
G36*
X114156Y19061D02*
X114286Y19051D01*
X114423Y19035D01*
X114562Y19012D01*
X114702Y18982D01*
X114844Y18939D01*
X114974Y18887D01*
X115107Y18820D01*
X115116Y18815D01*
X115139Y18805D01*
X115173Y18776D01*
X115214Y18742D01*
X115271Y18703D01*
X115331Y18651D01*
X115398Y18594D01*
X115469Y18522D01*
X115535Y18436D01*
X115609Y18344D01*
X115678Y18245D01*
X115748Y18138D01*
X115807Y18015D01*
X115860Y17884D01*
X115910Y17738D01*
X115945Y17589D01*
X115953Y17549D01*
X115954Y17506D01*
X115966Y17445D01*
X115965Y17374D01*
X115974Y17291D01*
X115972Y17192D01*
X115965Y17084D01*
X115957Y16977D01*
X115939Y16853D01*
X115912Y16735D01*
X115880Y16609D01*
X115832Y16486D01*
X115779Y16363D01*
X115711Y16237D01*
X115627Y16122D01*
X115622Y16114D01*
X115604Y16096D01*
X115575Y16062D01*
X115541Y16020D01*
X115486Y15974D01*
X115426Y15920D01*
X115346Y15856D01*
X115267Y15791D01*
X115167Y15722D01*
X115060Y15652D01*
X114939Y15586D01*
X114809Y15526D01*
X114666Y15463D01*
X114507Y15404D01*
X114339Y15358D01*
X114164Y15317D01*
X112460Y14989D01*
X112446Y14986D01*
X112419Y14981D01*
X112364Y14970D01*
X112295Y14964D01*
X112212Y14955D01*
X112114Y14950D01*
X112002Y14943D01*
X111882Y14941D01*
X111755Y14945D01*
X111618Y14954D01*
X111481Y14970D01*
X111343Y14993D01*
X111201Y15029D01*
X111065Y15074D01*
X110928Y15125D01*
X110802Y15192D01*
X110794Y15198D01*
X110771Y15208D01*
X110737Y15237D01*
X110697Y15264D01*
X110645Y15311D01*
X110579Y15362D01*
X110518Y15420D01*
X110448Y15492D01*
X110376Y15570D01*
X110309Y15663D01*
X110240Y15763D01*
X110169Y15876D01*
X110110Y15999D01*
X110056Y16130D01*
X110008Y16269D01*
X109971Y16425D01*
X109965Y16459D01*
X109962Y16508D01*
X109952Y16562D01*
X109951Y16640D01*
X109942Y16723D01*
X109944Y16823D01*
X109953Y16923D01*
X109959Y17037D01*
X109979Y17154D01*
X109999Y17271D01*
X110031Y17398D01*
X110079Y17520D01*
X110132Y17643D01*
X110200Y17769D01*
X110284Y17884D01*
X110289Y17892D01*
X110307Y17910D01*
X110336Y17944D01*
X110370Y17986D01*
X110425Y18032D01*
X110485Y18086D01*
X110558Y18149D01*
X110644Y18215D01*
X110744Y18284D01*
X110851Y18354D01*
X110972Y18420D01*
X111102Y18480D01*
X111245Y18543D01*
X111404Y18602D01*
X111572Y18648D01*
X111747Y18689D01*
X113451Y19017D01*
X113465Y19020D01*
X113492Y19025D01*
X113548Y19029D01*
X113616Y19042D01*
X113699Y19051D01*
X113797Y19056D01*
X113909Y19063D01*
X114029Y19065D01*
X114156Y19061D01*
D02*
G37*
G36*
X-8702Y116065D02*
X-10977Y115866D01*
X-11022Y114155D01*
X-11016Y114162D01*
X-10990Y114179D01*
X-10951Y114210D01*
X-10905Y114249D01*
X-10846Y114289D01*
X-10773Y114330D01*
X-10701Y114378D01*
X-10621Y114420D01*
X-10607Y114428D01*
X-10580Y114437D01*
X-10533Y114455D01*
X-10473Y114482D01*
X-10398Y114502D01*
X-10309Y114524D01*
X-10214Y114546D01*
X-10104Y114563D01*
X-10028Y114569D01*
X-9965Y114568D01*
X-9902Y114566D01*
X-9818Y114560D01*
X-9727Y114554D01*
X-9635Y114541D01*
X-9529Y114522D01*
X-9422Y114497D01*
X-9315Y114464D01*
X-9200Y114426D01*
X-9091Y114380D01*
X-8982Y114319D01*
X-8878Y114245D01*
X-8780Y114163D01*
X-8772Y114157D01*
X-8757Y114144D01*
X-8733Y114111D01*
X-8695Y114073D01*
X-8657Y114027D01*
X-8609Y113962D01*
X-8561Y113890D01*
X-8512Y113810D01*
X-8462Y113717D01*
X-8405Y113618D01*
X-8360Y113503D01*
X-8314Y113375D01*
X-8267Y113240D01*
X-8234Y113096D01*
X-8206Y112938D01*
X-8185Y112773D01*
X-8184Y112766D01*
X-8181Y112732D01*
X-8177Y112690D01*
X-8179Y112627D01*
X-8179Y112550D01*
X-8185Y112459D01*
X-8190Y112361D01*
X-8202Y112256D01*
X-8213Y112144D01*
X-8237Y112023D01*
X-8262Y111902D01*
X-8300Y111781D01*
X-8345Y111658D01*
X-8397Y111535D01*
X-8463Y111418D01*
X-8537Y111307D01*
X-8543Y111300D01*
X-8556Y111284D01*
X-8581Y111254D01*
X-8620Y111216D01*
X-8664Y111170D01*
X-8723Y111124D01*
X-8788Y111069D01*
X-8867Y111013D01*
X-8952Y110950D01*
X-9051Y110893D01*
X-9165Y110841D01*
X-9286Y110789D01*
X-9414Y110743D01*
X-9557Y110702D01*
X-9715Y110675D01*
X-9880Y110653D01*
X-9949Y110647D01*
X-10005Y110649D01*
X-10068Y110651D01*
X-10145Y110651D01*
X-10229Y110657D01*
X-10320Y110663D01*
X-10518Y110695D01*
X-10624Y110720D01*
X-10732Y110753D01*
X-10847Y110792D01*
X-10955Y110838D01*
X-11057Y110891D01*
X-11160Y110952D01*
X-11168Y110958D01*
X-11183Y110971D01*
X-11212Y110989D01*
X-11243Y111021D01*
X-11288Y111059D01*
X-11334Y111111D01*
X-11381Y111170D01*
X-11436Y111234D01*
X-11484Y111307D01*
X-11533Y111393D01*
X-11583Y111486D01*
X-11627Y111594D01*
X-11672Y111708D01*
X-11704Y111831D01*
X-11729Y111961D01*
X-11742Y112106D01*
X-11737Y112135D01*
X-11018Y112198D01*
X-11018Y112191D01*
X-11016Y112177D01*
X-11014Y112149D01*
X-11004Y112115D01*
X-11001Y112081D01*
X-10990Y112033D01*
X-10960Y111924D01*
X-10915Y111810D01*
X-10855Y111689D01*
X-10775Y111571D01*
X-10676Y111468D01*
X-10661Y111456D01*
X-10624Y111431D01*
X-10558Y111395D01*
X-10471Y111354D01*
X-10363Y111314D01*
X-10235Y111284D01*
X-10094Y111268D01*
X-9934Y111268D01*
X-9886Y111273D01*
X-9851Y111283D01*
X-9811Y111293D01*
X-9763Y111304D01*
X-9648Y111342D01*
X-9527Y111395D01*
X-9401Y111468D01*
X-9342Y111515D01*
X-9284Y111569D01*
X-9234Y111629D01*
X-9184Y111696D01*
X-9185Y111703D01*
X-9172Y111711D01*
X-9159Y111733D01*
X-9149Y111769D01*
X-9124Y111806D01*
X-9107Y111849D01*
X-9084Y111907D01*
X-9061Y111965D01*
X-9047Y112036D01*
X-9025Y112107D01*
X-8991Y112277D01*
X-8980Y112473D01*
X-8986Y112696D01*
X-8986Y112703D01*
X-8988Y112724D01*
X-8991Y112751D01*
X-9001Y112792D01*
X-9005Y112840D01*
X-9017Y112895D01*
X-9049Y113018D01*
X-9096Y113160D01*
X-9158Y113308D01*
X-9240Y113454D01*
X-9349Y113584D01*
X-9350Y113591D01*
X-9364Y113596D01*
X-9402Y113635D01*
X-9470Y113685D01*
X-9565Y113739D01*
X-9681Y113792D01*
X-9824Y113835D01*
X-9980Y113863D01*
X-10070Y113862D01*
X-10161Y113861D01*
X-10237Y113854D01*
X-10319Y113840D01*
X-10422Y113817D01*
X-10531Y113794D01*
X-10639Y113756D01*
X-10747Y113712D01*
X-10832Y113656D01*
X-10839Y113648D01*
X-10865Y113625D01*
X-10896Y113588D01*
X-10941Y113542D01*
X-10984Y113476D01*
X-11026Y113395D01*
X-11067Y113308D01*
X-11099Y113201D01*
X-11769Y113212D01*
X-11717Y116518D01*
X-8765Y116777D01*
X-8702Y116065D01*
D02*
G37*
%LPC*%
G36*
X-113100Y23910D02*
X-113178Y23909D01*
X-113341Y23899D01*
X-113513Y23878D01*
X-113689Y23836D01*
X-113848Y23763D01*
X-113855Y23764D01*
X-113864Y23751D01*
X-113911Y23717D01*
X-113983Y23665D01*
X-114066Y23587D01*
X-114152Y23488D01*
X-114235Y23361D01*
X-114302Y23210D01*
X-114323Y23122D01*
X-114345Y23027D01*
X-114353Y22979D01*
X-114351Y22944D01*
X-114351Y22902D01*
X-114353Y22846D01*
X-114343Y22732D01*
X-114323Y22595D01*
X-114275Y22454D01*
X-114244Y22385D01*
X-114206Y22316D01*
X-114161Y22246D01*
X-114101Y22180D01*
X-114094Y22179D01*
X-114090Y22164D01*
X-114072Y22147D01*
X-114039Y22128D01*
X-114008Y22102D01*
X-113965Y22067D01*
X-113920Y22038D01*
X-113863Y22001D01*
X-113799Y21963D01*
X-113727Y21930D01*
X-113649Y21889D01*
X-113570Y21856D01*
X-113376Y21797D01*
X-113152Y21746D01*
X-111110Y21419D01*
X-111103Y21418D01*
X-111082Y21415D01*
X-111048Y21410D01*
X-111006Y21410D01*
X-110951Y21401D01*
X-110888Y21398D01*
X-110819Y21394D01*
X-110741Y21396D01*
X-110578Y21405D01*
X-110406Y21426D01*
X-110230Y21468D01*
X-110064Y21540D01*
X-110056Y21546D01*
X-110048Y21552D01*
X-110001Y21586D01*
X-109929Y21638D01*
X-109846Y21716D01*
X-109759Y21822D01*
X-109675Y21949D01*
X-109609Y22100D01*
X-109588Y22188D01*
X-109567Y22276D01*
X-109559Y22324D01*
X-109560Y22359D01*
X-109560Y22408D01*
X-109559Y22457D01*
X-109567Y22578D01*
X-109589Y22708D01*
X-109636Y22849D01*
X-109667Y22924D01*
X-109705Y22994D01*
X-109758Y23058D01*
X-109810Y23123D01*
X-109817Y23124D01*
X-109829Y23140D01*
X-109847Y23157D01*
X-109872Y23175D01*
X-109903Y23201D01*
X-109947Y23236D01*
X-109999Y23266D01*
X-110056Y23303D01*
X-110113Y23340D01*
X-110185Y23373D01*
X-110263Y23414D01*
X-110349Y23448D01*
X-110543Y23507D01*
X-110767Y23558D01*
X-112809Y23885D01*
X-112816Y23886D01*
X-112837Y23889D01*
X-112871Y23894D01*
X-112913Y23894D01*
X-112968Y23903D01*
X-113031Y23906D01*
X-113100Y23910D01*
D02*
G37*
G36*
X-111393Y18949D02*
X-111507Y18939D01*
X-111636Y18924D01*
X-111775Y18890D01*
X-111918Y18829D01*
X-111987Y18791D01*
X-112058Y18746D01*
X-112065Y18747D01*
X-112074Y18734D01*
X-112115Y18699D01*
X-112174Y18638D01*
X-112250Y18559D01*
X-112322Y18458D01*
X-112391Y18335D01*
X-112449Y18190D01*
X-112476Y18110D01*
X-112497Y17980D01*
X-112496Y17944D01*
X-112502Y17903D01*
X-112503Y17854D01*
X-112494Y17733D01*
X-112481Y17598D01*
X-112448Y17452D01*
X-112394Y17303D01*
X-112357Y17226D01*
X-112313Y17156D01*
X-112301Y17140D01*
X-112265Y17099D01*
X-112206Y17033D01*
X-112125Y16964D01*
X-112019Y16884D01*
X-111897Y16808D01*
X-111745Y16749D01*
X-111664Y16729D01*
X-111576Y16708D01*
X-111569Y16707D01*
X-111556Y16704D01*
X-111528Y16700D01*
X-111493Y16702D01*
X-111452Y16695D01*
X-111401Y16701D01*
X-111288Y16704D01*
X-111152Y16724D01*
X-111013Y16758D01*
X-110869Y16819D01*
X-110800Y16858D01*
X-110730Y16903D01*
X-110729Y16909D01*
X-110714Y16914D01*
X-110697Y16932D01*
X-110672Y16957D01*
X-110613Y17017D01*
X-110549Y17106D01*
X-110476Y17213D01*
X-110405Y17350D01*
X-110344Y17508D01*
X-110324Y17590D01*
X-110302Y17684D01*
X-110294Y17732D01*
X-110297Y17761D01*
X-110290Y17802D01*
X-110290Y17851D01*
X-110300Y17958D01*
X-110315Y18087D01*
X-110349Y18226D01*
X-110405Y18362D01*
X-110436Y18430D01*
X-110481Y18500D01*
X-110486Y18508D01*
X-110492Y18516D01*
X-110528Y18557D01*
X-110589Y18616D01*
X-110668Y18692D01*
X-110769Y18764D01*
X-110898Y18834D01*
X-111050Y18894D01*
X-111130Y18921D01*
X-111219Y18935D01*
X-111226Y18936D01*
X-111240Y18938D01*
X-111267Y18943D01*
X-111303Y18941D01*
X-111344Y18948D01*
X-111393Y18949D01*
D02*
G37*
G36*
X-114112Y19216D02*
X-114218Y19211D01*
X-114326Y19200D01*
X-114450Y19171D01*
X-114577Y19121D01*
X-114701Y19050D01*
X-114717Y19038D01*
X-114750Y19008D01*
X-114807Y18961D01*
X-114867Y18894D01*
X-114930Y18805D01*
X-114996Y18703D01*
X-115044Y18577D01*
X-115079Y18443D01*
X-115086Y18402D01*
X-115084Y18373D01*
X-115090Y18290D01*
X-115085Y18191D01*
X-115075Y18077D01*
X-115047Y17945D01*
X-114997Y17818D01*
X-114925Y17694D01*
X-114914Y17678D01*
X-114884Y17645D01*
X-114837Y17589D01*
X-114762Y17527D01*
X-114667Y17463D01*
X-114558Y17396D01*
X-114426Y17347D01*
X-114270Y17308D01*
X-114263Y17307D01*
X-114250Y17305D01*
X-114229Y17301D01*
X-114194Y17303D01*
X-114160Y17297D01*
X-114110Y17297D01*
X-114004Y17301D01*
X-113889Y17317D01*
X-113758Y17345D01*
X-113624Y17394D01*
X-113499Y17473D01*
X-113483Y17484D01*
X-113450Y17514D01*
X-113392Y17568D01*
X-113331Y17642D01*
X-113267Y17738D01*
X-113199Y17853D01*
X-113149Y17986D01*
X-113112Y18135D01*
X-113105Y18176D01*
X-113108Y18204D01*
X-113103Y18274D01*
X-113110Y18366D01*
X-113128Y18474D01*
X-113158Y18592D01*
X-113209Y18712D01*
X-113282Y18829D01*
X-113293Y18845D01*
X-113323Y18878D01*
X-113378Y18929D01*
X-113459Y18992D01*
X-113555Y19056D01*
X-113671Y19117D01*
X-113811Y19167D01*
X-113966Y19206D01*
X-113973Y19207D01*
X-113987Y19209D01*
X-114007Y19213D01*
X-114036Y19210D01*
X-114112Y19216D01*
D02*
G37*
G36*
X-107635Y43246D02*
X-107816Y43235D01*
X-107985Y43191D01*
X-107992Y43193D01*
X-108003Y43182D01*
X-108056Y43157D01*
X-108135Y43118D01*
X-108230Y43055D01*
X-108332Y42973D01*
X-108437Y42862D01*
X-108528Y42725D01*
X-108564Y42642D01*
X-108603Y42553D01*
X-108618Y42507D01*
X-108623Y42472D01*
X-108630Y42430D01*
X-108642Y42375D01*
X-108652Y42261D01*
X-108656Y42123D01*
X-108633Y41976D01*
X-108615Y41903D01*
X-108589Y41828D01*
X-108557Y41751D01*
X-108510Y41676D01*
X-108503Y41674D01*
X-108501Y41658D01*
X-108486Y41638D01*
X-108458Y41614D01*
X-108432Y41583D01*
X-108395Y41541D01*
X-108356Y41505D01*
X-108306Y41459D01*
X-108249Y41410D01*
X-108184Y41365D01*
X-108114Y41311D01*
X-108043Y41265D01*
X-107861Y41173D01*
X-107650Y41084D01*
X-105695Y40408D01*
X-105689Y40405D01*
X-105669Y40399D01*
X-105636Y40387D01*
X-105595Y40380D01*
X-105542Y40362D01*
X-105481Y40348D01*
X-105413Y40332D01*
X-105336Y40320D01*
X-105174Y40301D01*
X-105001Y40292D01*
X-104821Y40303D01*
X-104645Y40345D01*
X-104636Y40349D01*
X-104627Y40354D01*
X-104574Y40379D01*
X-104495Y40418D01*
X-104400Y40480D01*
X-104295Y40569D01*
X-104191Y40680D01*
X-104099Y40817D01*
X-104063Y40900D01*
X-104027Y40983D01*
X-104011Y41029D01*
X-104007Y41064D01*
X-103997Y41112D01*
X-103988Y41160D01*
X-103975Y41281D01*
X-103974Y41413D01*
X-103996Y41560D01*
X-104013Y41639D01*
X-104038Y41714D01*
X-104079Y41787D01*
X-104120Y41860D01*
X-104127Y41862D01*
X-104135Y41880D01*
X-104150Y41900D01*
X-104172Y41922D01*
X-104198Y41953D01*
X-104235Y41995D01*
X-104281Y42033D01*
X-104331Y42080D01*
X-104380Y42126D01*
X-104446Y42171D01*
X-104515Y42224D01*
X-104594Y42274D01*
X-104775Y42366D01*
X-104987Y42454D01*
X-106941Y43130D01*
X-106948Y43133D01*
X-106967Y43140D01*
X-107000Y43151D01*
X-107042Y43158D01*
X-107094Y43176D01*
X-107155Y43190D01*
X-107223Y43206D01*
X-107300Y43218D01*
X-107462Y43238D01*
X-107635Y43246D01*
D02*
G37*
G36*
X-98747Y61161D02*
X-98922Y61147D01*
X-98928Y61150D01*
X-98941Y61141D01*
X-98998Y61125D01*
X-99083Y61101D01*
X-99187Y61056D01*
X-99302Y60993D01*
X-99424Y60902D01*
X-99538Y60782D01*
X-99588Y60707D01*
X-99641Y60625D01*
X-99665Y60583D01*
X-99676Y60549D01*
X-99690Y60510D01*
X-99711Y60458D01*
X-99740Y60347D01*
X-99768Y60212D01*
X-99772Y60063D01*
X-99766Y59988D01*
X-99754Y59910D01*
X-99735Y59828D01*
X-99702Y59746D01*
X-99696Y59742D01*
X-99696Y59727D01*
X-99685Y59705D01*
X-99661Y59676D01*
X-99641Y59641D01*
X-99612Y59593D01*
X-99580Y59551D01*
X-99539Y59496D01*
X-99492Y59438D01*
X-99435Y59383D01*
X-99376Y59318D01*
X-99313Y59260D01*
X-99151Y59137D01*
X-98958Y59014D01*
X-97150Y58008D01*
X-97144Y58005D01*
X-97126Y57995D01*
X-97096Y57978D01*
X-97056Y57964D01*
X-97008Y57937D01*
X-96950Y57912D01*
X-96886Y57885D01*
X-96812Y57860D01*
X-96656Y57812D01*
X-96487Y57774D01*
X-96307Y57753D01*
X-96127Y57764D01*
X-96117Y57767D01*
X-96108Y57769D01*
X-96051Y57785D01*
X-95966Y57810D01*
X-95862Y57855D01*
X-95744Y57924D01*
X-95622Y58015D01*
X-95508Y58134D01*
X-95458Y58210D01*
X-95408Y58285D01*
X-95384Y58328D01*
X-95373Y58361D01*
X-95356Y58407D01*
X-95338Y58453D01*
X-95305Y58570D01*
X-95281Y58699D01*
X-95277Y58848D01*
X-95280Y58929D01*
X-95292Y59007D01*
X-95319Y59086D01*
X-95347Y59165D01*
X-95353Y59168D01*
X-95359Y59187D01*
X-95370Y59209D01*
X-95388Y59235D01*
X-95408Y59270D01*
X-95437Y59318D01*
X-95475Y59363D01*
X-95516Y59418D01*
X-95557Y59472D01*
X-95614Y59528D01*
X-95673Y59592D01*
X-95742Y59654D01*
X-95904Y59777D01*
X-96097Y59900D01*
X-97904Y60906D01*
X-97910Y60909D01*
X-97929Y60919D01*
X-97959Y60936D01*
X-97999Y60950D01*
X-98047Y60977D01*
X-98105Y61002D01*
X-98169Y61029D01*
X-98243Y61054D01*
X-98399Y61102D01*
X-98568Y61140D01*
X-98747Y61161D01*
D02*
G37*
G36*
X-99087Y56099D02*
X-99255Y56082D01*
X-99261Y56085D01*
X-99274Y56077D01*
X-99331Y56060D01*
X-99410Y56033D01*
X-99508Y55984D01*
X-99620Y55912D01*
X-99736Y55817D01*
X-99853Y55692D01*
X-99903Y55617D01*
X-99957Y55535D01*
X-99987Y55481D01*
X-100015Y55417D01*
X-100046Y55331D01*
X-100079Y55230D01*
X-100109Y55119D01*
X-100126Y55002D01*
X-100128Y54884D01*
X-100129Y54869D01*
X-100124Y54834D01*
X-100118Y54775D01*
X-100106Y54697D01*
X-100085Y54606D01*
X-100048Y54514D01*
X-100009Y54413D01*
X-99951Y54317D01*
X-99594Y54118D01*
X-99588Y54115D01*
X-99563Y54101D01*
X-99533Y54084D01*
X-99481Y54063D01*
X-99427Y54033D01*
X-99353Y54008D01*
X-99277Y53974D01*
X-99198Y53945D01*
X-99007Y53887D01*
X-98805Y53838D01*
X-98600Y53819D01*
X-98492Y53814D01*
X-98392Y53822D01*
X-98383Y53825D01*
X-98367Y53824D01*
X-98339Y53833D01*
X-98304Y53837D01*
X-98207Y53870D01*
X-98096Y53912D01*
X-97966Y53974D01*
X-97838Y54062D01*
X-97776Y54115D01*
X-97721Y54172D01*
X-97668Y54238D01*
X-97619Y54313D01*
X-97595Y54356D01*
X-97584Y54389D01*
X-97570Y54429D01*
X-97552Y54475D01*
X-97523Y54585D01*
X-97498Y54715D01*
X-97498Y54858D01*
X-97510Y54936D01*
X-97522Y55014D01*
X-97544Y55090D01*
X-97577Y55172D01*
X-97583Y55175D01*
X-97589Y55194D01*
X-97600Y55216D01*
X-97618Y55242D01*
X-97638Y55277D01*
X-97670Y55319D01*
X-97705Y55370D01*
X-97746Y55425D01*
X-97791Y55473D01*
X-97844Y55535D01*
X-97975Y55656D01*
X-98132Y55774D01*
X-98313Y55891D01*
X-98319Y55895D01*
X-98337Y55905D01*
X-98361Y55918D01*
X-98401Y55932D01*
X-98444Y55956D01*
X-98496Y55977D01*
X-98621Y56023D01*
X-98765Y56063D01*
X-98926Y56089D01*
X-99087Y56099D01*
D02*
G37*
G36*
X-86846Y77351D02*
X-86860Y77345D01*
X-86919Y77339D01*
X-87007Y77330D01*
X-87117Y77303D01*
X-87241Y77261D01*
X-87377Y77193D01*
X-87510Y77095D01*
X-87573Y77030D01*
X-87639Y76959D01*
X-87670Y76921D01*
X-87686Y76889D01*
X-87707Y76853D01*
X-87737Y76805D01*
X-87785Y76702D01*
X-87836Y76573D01*
X-87866Y76427D01*
X-87873Y76352D01*
X-87874Y76273D01*
X-87871Y76190D01*
X-87852Y76103D01*
X-87846Y76098D01*
X-87850Y76083D01*
X-87842Y76059D01*
X-87824Y76027D01*
X-87810Y75989D01*
X-87790Y75937D01*
X-87766Y75890D01*
X-87735Y75829D01*
X-87698Y75763D01*
X-87652Y75699D01*
X-87605Y75625D01*
X-87554Y75556D01*
X-87415Y75408D01*
X-87246Y75253D01*
X-85641Y73948D01*
X-85636Y73944D01*
X-85619Y73931D01*
X-85592Y73909D01*
X-85556Y73888D01*
X-85513Y73853D01*
X-85460Y73819D01*
X-85402Y73781D01*
X-85334Y73743D01*
X-85188Y73670D01*
X-85028Y73602D01*
X-84855Y73551D01*
X-84675Y73530D01*
X-84665Y73531D01*
X-84656Y73532D01*
X-84597Y73538D01*
X-84509Y73547D01*
X-84398Y73574D01*
X-84270Y73621D01*
X-84134Y73690D01*
X-84001Y73787D01*
X-83939Y73853D01*
X-83877Y73919D01*
X-83846Y73956D01*
X-83829Y73988D01*
X-83804Y74030D01*
X-83779Y74072D01*
X-83726Y74181D01*
X-83680Y74304D01*
X-83650Y74450D01*
X-83639Y74530D01*
X-83637Y74609D01*
X-83651Y74692D01*
X-83664Y74774D01*
X-83670Y74779D01*
X-83671Y74798D01*
X-83679Y74822D01*
X-83692Y74850D01*
X-83706Y74888D01*
X-83726Y74941D01*
X-83756Y74992D01*
X-83787Y75053D01*
X-83818Y75114D01*
X-83864Y75178D01*
X-83911Y75252D01*
X-83968Y75325D01*
X-84106Y75473D01*
X-84275Y75629D01*
X-85880Y76933D01*
X-85886Y76937D01*
X-85902Y76951D01*
X-85929Y76972D01*
X-85965Y76993D01*
X-86009Y77028D01*
X-86061Y77062D01*
X-86120Y77101D01*
X-86188Y77138D01*
X-86333Y77212D01*
X-86493Y77279D01*
X-86666Y77330D01*
X-86841Y77347D01*
X-86846Y77351D01*
D02*
G37*
G36*
X-72010Y91477D02*
X-72124Y91470D01*
X-72253Y91450D01*
X-72399Y91407D01*
X-72547Y91334D01*
X-72620Y91280D01*
X-72698Y91221D01*
X-72734Y91189D01*
X-72756Y91162D01*
X-72783Y91129D01*
X-72820Y91087D01*
X-72886Y90994D01*
X-72958Y90876D01*
X-73013Y90737D01*
X-73033Y90665D01*
X-73048Y90587D01*
X-73059Y90504D01*
X-73055Y90415D01*
X-73051Y90410D01*
X-73057Y90396D01*
X-73054Y90371D01*
X-73041Y90336D01*
X-73035Y90296D01*
X-73024Y90241D01*
X-73008Y90191D01*
X-72988Y90125D01*
X-72963Y90055D01*
X-72929Y89983D01*
X-72895Y89902D01*
X-72857Y89826D01*
X-72746Y89655D01*
X-72606Y89473D01*
X-71252Y87910D01*
X-71248Y87905D01*
X-71234Y87889D01*
X-71211Y87863D01*
X-71179Y87836D01*
X-71143Y87794D01*
X-71096Y87751D01*
X-71046Y87703D01*
X-70985Y87655D01*
X-70855Y87557D01*
X-70709Y87463D01*
X-70547Y87382D01*
X-70374Y87330D01*
X-70364Y87330D01*
X-70354Y87329D01*
X-70296Y87325D01*
X-70207Y87318D01*
X-70094Y87325D01*
X-69959Y87350D01*
X-69813Y87393D01*
X-69665Y87467D01*
X-69593Y87520D01*
X-69520Y87574D01*
X-69483Y87606D01*
X-69462Y87634D01*
X-69429Y87671D01*
X-69397Y87708D01*
X-69326Y87806D01*
X-69259Y87919D01*
X-69205Y88058D01*
X-69180Y88135D01*
X-69164Y88213D01*
X-69163Y88296D01*
X-69162Y88380D01*
X-69167Y88385D01*
X-69165Y88405D01*
X-69168Y88430D01*
X-69176Y88460D01*
X-69183Y88499D01*
X-69194Y88554D01*
X-69214Y88610D01*
X-69234Y88675D01*
X-69254Y88741D01*
X-69288Y88812D01*
X-69322Y88893D01*
X-69365Y88975D01*
X-69476Y89145D01*
X-69616Y89328D01*
X-70970Y90891D01*
X-70974Y90896D01*
X-70988Y90912D01*
X-71011Y90938D01*
X-71043Y90965D01*
X-71079Y91007D01*
X-71126Y91049D01*
X-71176Y91097D01*
X-71237Y91146D01*
X-71368Y91244D01*
X-71513Y91338D01*
X-71675Y91419D01*
X-71844Y91465D01*
X-71848Y91470D01*
X-71863Y91466D01*
X-71922Y91471D01*
X-72010Y91477D01*
D02*
G37*
G36*
X-75465Y88025D02*
X-75486Y88007D01*
X-75412Y87805D01*
X-74923Y84822D01*
X-73648Y85927D01*
X-75465Y88025D01*
D02*
G37*
G36*
X-55424Y102518D02*
X-55575Y102501D01*
X-55734Y102454D01*
X-55815Y102414D01*
X-55902Y102370D01*
X-55943Y102345D01*
X-55970Y102321D01*
X-56002Y102294D01*
X-56046Y102260D01*
X-56127Y102179D01*
X-56218Y102075D01*
X-56296Y101948D01*
X-56328Y101880D01*
X-56357Y101806D01*
X-56382Y101727D01*
X-56394Y101639D01*
X-56390Y101633D01*
X-56399Y101620D01*
X-56400Y101595D01*
X-56394Y101558D01*
X-56394Y101517D01*
X-56393Y101461D01*
X-56386Y101409D01*
X-56378Y101341D01*
X-56366Y101267D01*
X-56344Y101191D01*
X-56326Y101105D01*
X-56301Y101023D01*
X-56221Y100836D01*
X-56115Y100633D01*
X-55053Y98858D01*
X-55050Y98852D01*
X-55039Y98834D01*
X-55021Y98804D01*
X-54994Y98772D01*
X-54965Y98725D01*
X-54927Y98675D01*
X-54886Y98619D01*
X-54835Y98560D01*
X-54723Y98441D01*
X-54596Y98323D01*
X-54451Y98216D01*
X-54289Y98135D01*
X-54279Y98132D01*
X-54270Y98130D01*
X-54213Y98116D01*
X-54127Y98094D01*
X-54014Y98081D01*
X-53877Y98082D01*
X-53726Y98100D01*
X-53567Y98146D01*
X-53487Y98186D01*
X-53406Y98227D01*
X-53364Y98252D01*
X-53338Y98275D01*
X-53300Y98306D01*
X-53261Y98337D01*
X-53175Y98422D01*
X-53089Y98521D01*
X-53011Y98649D01*
X-52973Y98720D01*
X-52944Y98794D01*
X-52929Y98876D01*
X-52913Y98958D01*
X-52917Y98964D01*
X-52912Y98983D01*
X-52911Y99008D01*
X-52913Y99039D01*
X-52913Y99079D01*
X-52914Y99135D01*
X-52925Y99194D01*
X-52933Y99262D01*
X-52941Y99329D01*
X-52963Y99406D01*
X-52982Y99491D01*
X-53010Y99579D01*
X-53090Y99766D01*
X-53195Y99970D01*
X-54257Y101745D01*
X-54261Y101751D01*
X-54272Y101768D01*
X-54290Y101798D01*
X-54317Y101830D01*
X-54345Y101878D01*
X-54383Y101928D01*
X-54425Y101984D01*
X-54476Y102042D01*
X-54588Y102162D01*
X-54715Y102279D01*
X-54860Y102387D01*
X-55018Y102462D01*
X-55022Y102468D01*
X-55037Y102467D01*
X-55094Y102481D01*
X-55180Y102503D01*
X-55293Y102516D01*
X-55424Y102518D01*
D02*
G37*
G36*
X-37003Y110567D02*
X-37167Y110549D01*
X-37254Y110523D01*
X-37347Y110495D01*
X-37393Y110477D01*
X-37423Y110459D01*
X-37459Y110437D01*
X-37508Y110411D01*
X-37602Y110345D01*
X-37710Y110259D01*
X-37809Y110148D01*
X-37852Y110087D01*
X-37894Y110019D01*
X-37932Y109945D01*
X-37959Y109860D01*
X-37957Y109853D01*
X-37967Y109842D01*
X-37973Y109818D01*
X-37973Y109780D01*
X-37980Y109740D01*
X-37989Y109685D01*
X-37991Y109632D01*
X-37995Y109564D01*
X-37996Y109489D01*
X-37988Y109411D01*
X-37984Y109323D01*
X-37974Y109238D01*
X-37928Y109040D01*
X-37859Y108821D01*
X-37122Y106889D01*
X-37119Y106882D01*
X-37112Y106863D01*
X-37099Y106831D01*
X-37078Y106794D01*
X-37058Y106742D01*
X-37029Y106686D01*
X-36998Y106624D01*
X-36958Y106558D01*
X-36869Y106421D01*
X-36764Y106283D01*
X-36640Y106152D01*
X-36494Y106044D01*
X-36485Y106040D01*
X-36476Y106036D01*
X-36423Y106012D01*
X-36342Y105976D01*
X-36233Y105943D01*
X-36098Y105920D01*
X-35946Y105911D01*
X-35782Y105930D01*
X-35695Y105955D01*
X-35609Y105981D01*
X-35563Y105998D01*
X-35533Y106017D01*
X-35490Y106041D01*
X-35447Y106065D01*
X-35347Y106133D01*
X-35245Y106216D01*
X-35147Y106328D01*
X-35097Y106392D01*
X-35056Y106459D01*
X-35026Y106538D01*
X-34997Y106616D01*
X-34999Y106622D01*
X-34991Y106640D01*
X-34986Y106665D01*
X-34983Y106695D01*
X-34975Y106735D01*
X-34967Y106790D01*
X-34967Y106850D01*
X-34964Y106918D01*
X-34960Y106986D01*
X-34968Y107065D01*
X-34972Y107153D01*
X-34984Y107245D01*
X-35030Y107442D01*
X-35099Y107661D01*
X-35837Y109593D01*
X-35839Y109600D01*
X-35847Y109619D01*
X-35859Y109652D01*
X-35880Y109688D01*
X-35900Y109740D01*
X-35929Y109796D01*
X-35960Y109858D01*
X-36000Y109925D01*
X-36090Y110061D01*
X-36195Y110200D01*
X-36319Y110330D01*
X-36461Y110432D01*
X-36464Y110438D01*
X-36479Y110440D01*
X-36533Y110464D01*
X-36614Y110500D01*
X-36723Y110533D01*
X-36851Y110558D01*
X-37003Y110567D01*
D02*
G37*
G36*
X-17651Y115276D02*
X-17741Y115266D01*
X-17838Y115254D01*
X-17886Y115245D01*
X-17918Y115232D01*
X-17958Y115217D01*
X-18011Y115200D01*
X-18115Y115151D01*
X-18237Y115086D01*
X-18353Y114992D01*
X-18406Y114940D01*
X-18459Y114880D01*
X-18509Y114814D01*
X-18551Y114735D01*
X-18550Y114728D01*
X-18562Y114719D01*
X-18572Y114696D01*
X-18579Y114659D01*
X-18592Y114621D01*
X-18610Y114568D01*
X-18622Y114517D01*
X-18637Y114450D01*
X-18651Y114377D01*
X-18657Y114298D01*
X-18669Y114211D01*
X-18674Y114125D01*
X-18663Y113922D01*
X-18633Y113695D01*
X-18242Y111664D01*
X-18241Y111657D01*
X-18237Y111637D01*
X-18230Y111602D01*
X-18215Y111563D01*
X-18205Y111508D01*
X-18186Y111448D01*
X-18167Y111382D01*
X-18138Y111309D01*
X-18074Y111159D01*
X-17995Y111005D01*
X-17895Y110854D01*
X-17771Y110723D01*
X-17763Y110717D01*
X-17755Y110712D01*
X-17706Y110679D01*
X-17633Y110629D01*
X-17531Y110578D01*
X-17402Y110532D01*
X-17254Y110497D01*
X-17089Y110486D01*
X-16999Y110497D01*
X-16910Y110507D01*
X-16862Y110516D01*
X-16829Y110529D01*
X-16783Y110546D01*
X-16736Y110562D01*
X-16626Y110611D01*
X-16511Y110676D01*
X-16395Y110769D01*
X-16334Y110823D01*
X-16282Y110882D01*
X-16240Y110954D01*
X-16197Y111026D01*
X-16198Y111033D01*
X-16187Y111049D01*
X-16177Y111072D01*
X-16169Y111102D01*
X-16155Y111140D01*
X-16137Y111193D01*
X-16127Y111251D01*
X-16112Y111318D01*
X-16096Y111384D01*
X-16090Y111463D01*
X-16079Y111550D01*
X-16075Y111643D01*
X-16086Y111846D01*
X-16116Y112073D01*
X-16507Y114104D01*
X-16508Y114111D01*
X-16512Y114131D01*
X-16519Y114165D01*
X-16533Y114205D01*
X-16544Y114260D01*
X-16563Y114320D01*
X-16582Y114386D01*
X-16611Y114459D01*
X-16675Y114609D01*
X-16754Y114763D01*
X-16854Y114914D01*
X-16977Y115038D01*
X-16978Y115045D01*
X-16993Y115050D01*
X-17042Y115083D01*
X-17115Y115132D01*
X-17216Y115183D01*
X-17339Y115230D01*
X-17487Y115265D01*
X-17651Y115276D01*
D02*
G37*
G36*
X-74Y116548D02*
X-122D01*
X-157Y116541D01*
X-198Y116534D01*
X-254Y116527D01*
X-365Y116499D01*
X-497Y116458D01*
X-629Y116388D01*
X-691Y116347D01*
X-754Y116298D01*
X-816Y116243D01*
X-872Y116173D01*
Y116166D01*
D01*
Y116166D01*
X-885Y116159D01*
X-899Y116139D01*
X-913Y116104D01*
X-934Y116069D01*
X-962Y116021D01*
X-983Y115972D01*
X-1010Y115910D01*
X-1038Y115840D01*
X-1059Y115764D01*
X-1087Y115680D01*
X-1108Y115597D01*
X-1135Y115396D01*
X-1149Y115167D01*
Y113099D01*
Y113092D01*
Y113071D01*
Y113036D01*
X-1142Y112995D01*
Y112939D01*
X-1135Y112877D01*
X-1128Y112807D01*
X-1115Y112731D01*
X-1080Y112571D01*
X-1031Y112405D01*
X-962Y112238D01*
X-865Y112085D01*
X-858Y112079D01*
X-851Y112072D01*
X-809Y112030D01*
X-747Y111968D01*
X-656Y111898D01*
X-538Y111829D01*
X-400Y111766D01*
X-240Y111725D01*
X-150Y111718D01*
X-60Y111711D01*
X-11D01*
X24Y111718D01*
X72Y111725D01*
X121Y111732D01*
X239Y111759D01*
X364Y111801D01*
X496Y111870D01*
X565Y111912D01*
X628Y111961D01*
X683Y112023D01*
X739Y112085D01*
Y112092D01*
D01*
Y112092D01*
X752Y112106D01*
X766Y112127D01*
X780Y112155D01*
X801Y112190D01*
X829Y112238D01*
X850Y112294D01*
X877Y112356D01*
X905Y112419D01*
X926Y112495D01*
X954Y112578D01*
X974Y112669D01*
X1002Y112870D01*
X1016Y113099D01*
Y115167D01*
Y115174D01*
Y115195D01*
Y115229D01*
X1009Y115271D01*
Y115326D01*
X1002Y115389D01*
X995Y115458D01*
X981Y115535D01*
X947Y115694D01*
X898Y115861D01*
X829Y116027D01*
X732Y116173D01*
Y116180D01*
X718Y116187D01*
X676Y116229D01*
X614Y116291D01*
X523Y116361D01*
X412Y116430D01*
X274Y116492D01*
X114Y116534D01*
X24Y116541D01*
X-74Y116548D01*
D02*
G37*
G36*
X22476Y114412D02*
X22362Y114403D01*
X22225Y114382D01*
X22084Y114335D01*
X22015Y114303D01*
X21946Y114265D01*
X21876Y114220D01*
X21810Y114161D01*
X21809Y114154D01*
X21794Y114149D01*
X21777Y114131D01*
X21758Y114099D01*
X21732Y114068D01*
X21697Y114024D01*
X21668Y113979D01*
X21631Y113922D01*
X21593Y113858D01*
X21560Y113786D01*
X21519Y113708D01*
X21486Y113629D01*
X21426Y113435D01*
X21376Y113211D01*
X21049Y111169D01*
X21048Y111162D01*
X21045Y111141D01*
X21039Y111107D01*
X21040Y111065D01*
X21031Y111010D01*
X21028Y110947D01*
X21024Y110878D01*
X21025Y110800D01*
X21035Y110637D01*
X21056Y110465D01*
X21098Y110290D01*
X21170Y110123D01*
X21176Y110115D01*
X21182Y110107D01*
X21216Y110060D01*
X21268Y109988D01*
X21346Y109905D01*
X21452Y109818D01*
X21579Y109735D01*
X21730Y109668D01*
X21818Y109647D01*
X21906Y109626D01*
X21954Y109618D01*
X21989Y109620D01*
X22038Y109619D01*
X22087Y109618D01*
X22208Y109627D01*
X22338Y109648D01*
X22479Y109696D01*
X22554Y109726D01*
X22624Y109764D01*
X22688Y109817D01*
X22753Y109870D01*
X22754Y109877D01*
X22770Y109888D01*
X22787Y109906D01*
X22805Y109932D01*
X22831Y109963D01*
X22866Y110006D01*
X22896Y110058D01*
X22933Y110115D01*
X22970Y110172D01*
X23003Y110245D01*
X23043Y110322D01*
X23078Y110408D01*
X23137Y110602D01*
X23187Y110826D01*
X23515Y112868D01*
X23516Y112875D01*
X23519Y112896D01*
X23524Y112930D01*
X23524Y112972D01*
X23533Y113027D01*
X23536Y113090D01*
X23540Y113160D01*
X23538Y113237D01*
X23529Y113400D01*
X23508Y113572D01*
X23466Y113748D01*
X23393Y113907D01*
X23394Y113914D01*
X23381Y113923D01*
X23347Y113971D01*
X23295Y114042D01*
X23217Y114125D01*
X23118Y114211D01*
X22991Y114295D01*
X22840Y114361D01*
X22752Y114382D01*
X22657Y114404D01*
X22609Y114412D01*
X22574Y114411D01*
X22532Y114410D01*
X22476Y114412D01*
D02*
G37*
G36*
X41985Y108704D02*
X41838Y108681D01*
X41766Y108662D01*
X41691Y108637D01*
X41614Y108605D01*
X41538Y108557D01*
X41536Y108551D01*
X41521Y108549D01*
X41501Y108534D01*
X41476Y108505D01*
X41445Y108479D01*
X41403Y108443D01*
X41368Y108404D01*
X41321Y108353D01*
X41272Y108297D01*
X41227Y108232D01*
X41174Y108162D01*
X41127Y108090D01*
X41035Y107909D01*
X40947Y107697D01*
X40270Y105743D01*
X40268Y105736D01*
X40261Y105717D01*
X40249Y105684D01*
X40242Y105642D01*
X40224Y105590D01*
X40210Y105529D01*
X40194Y105461D01*
X40182Y105384D01*
X40163Y105222D01*
X40154Y105049D01*
X40165Y104868D01*
X40207Y104692D01*
X40212Y104684D01*
X40216Y104675D01*
X40242Y104622D01*
X40280Y104542D01*
X40343Y104447D01*
X40431Y104343D01*
X40542Y104239D01*
X40679Y104147D01*
X40762Y104111D01*
X40845Y104075D01*
X40891Y104059D01*
X40926Y104054D01*
X40975Y104045D01*
X41023Y104035D01*
X41143Y104023D01*
X41275Y104022D01*
X41422Y104044D01*
X41501Y104061D01*
X41576Y104086D01*
X41649Y104127D01*
X41722Y104168D01*
X41724Y104174D01*
X41742Y104183D01*
X41762Y104198D01*
X41784Y104220D01*
X41815Y104246D01*
X41857Y104283D01*
X41895Y104328D01*
X41942Y104378D01*
X41989Y104428D01*
X42033Y104493D01*
X42087Y104563D01*
X42136Y104641D01*
X42228Y104823D01*
X42316Y105034D01*
X42993Y106989D01*
X42995Y106995D01*
X43002Y107015D01*
X43013Y107048D01*
X43020Y107089D01*
X43038Y107142D01*
X43052Y107203D01*
X43069Y107271D01*
X43080Y107348D01*
X43100Y107510D01*
X43108Y107683D01*
X43097Y107863D01*
X43053Y108033D01*
X43055Y108039D01*
X43045Y108050D01*
X43019Y108103D01*
X42980Y108183D01*
X42918Y108278D01*
X42836Y108380D01*
X42725Y108484D01*
X42588Y108576D01*
X42505Y108612D01*
X42415Y108650D01*
X42369Y108666D01*
X42334Y108671D01*
X42292Y108678D01*
X42238Y108690D01*
X42124Y108700D01*
X41985Y108704D01*
D02*
G37*
G36*
X60142Y99728D02*
X60067Y99722D01*
X59988Y99710D01*
X59907Y99691D01*
X59825Y99658D01*
X59821Y99652D01*
X59806Y99652D01*
X59784Y99641D01*
X59755Y99617D01*
X59720Y99597D01*
X59672Y99568D01*
X59630Y99536D01*
X59575Y99495D01*
X59517Y99448D01*
X59462Y99391D01*
X59397Y99332D01*
X59338Y99269D01*
X59216Y99107D01*
X59093Y98914D01*
X58087Y97107D01*
X58084Y97101D01*
X58074Y97082D01*
X58057Y97052D01*
X58042Y97012D01*
X58015Y96964D01*
X57991Y96906D01*
X57963Y96842D01*
X57938Y96768D01*
X57891Y96612D01*
X57853Y96443D01*
X57832Y96263D01*
X57843Y96083D01*
X57845Y96073D01*
X57848Y96064D01*
X57864Y96007D01*
X57889Y95922D01*
X57934Y95818D01*
X58003Y95700D01*
X58094Y95578D01*
X58213Y95464D01*
X58289Y95414D01*
X58364Y95364D01*
X58406Y95340D01*
X58440Y95329D01*
X58486Y95312D01*
X58532Y95294D01*
X58648Y95261D01*
X58778Y95237D01*
X58927Y95233D01*
X59008Y95236D01*
X59086Y95248D01*
X59165Y95276D01*
X59244Y95303D01*
X59247Y95309D01*
X59266Y95315D01*
X59288Y95326D01*
X59314Y95344D01*
X59349Y95364D01*
X59397Y95393D01*
X59442Y95431D01*
X59496Y95472D01*
X59551Y95513D01*
X59606Y95570D01*
X59671Y95629D01*
X59733Y95698D01*
X59855Y95860D01*
X59979Y96053D01*
X60985Y97861D01*
X60988Y97867D01*
X60998Y97885D01*
X61015Y97915D01*
X61029Y97955D01*
X61056Y98003D01*
X61081Y98061D01*
X61108Y98125D01*
X61133Y98199D01*
X61181Y98355D01*
X61219Y98524D01*
X61239Y98704D01*
X61225Y98878D01*
X61229Y98884D01*
X61220Y98897D01*
X61204Y98954D01*
X61180Y99039D01*
X61135Y99143D01*
X61071Y99258D01*
X60980Y99380D01*
X60861Y99494D01*
X60786Y99544D01*
X60704Y99597D01*
X60662Y99621D01*
X60628Y99632D01*
X60588Y99646D01*
X60536Y99667D01*
X60426Y99696D01*
X60290Y99724D01*
X60142Y99728D01*
D02*
G37*
G36*
X76526Y87669D02*
X76443Y87665D01*
X76356Y87646D01*
X76351Y87641D01*
X76336Y87644D01*
X76313Y87637D01*
X76280Y87618D01*
X76242Y87605D01*
X76190Y87584D01*
X76143Y87560D01*
X76082Y87529D01*
X76016Y87493D01*
X75952Y87446D01*
X75878Y87399D01*
X75810Y87348D01*
X75661Y87209D01*
X75506Y87040D01*
X74202Y85435D01*
X74197Y85430D01*
X74184Y85414D01*
X74162Y85387D01*
X74141Y85350D01*
X74106Y85307D01*
X74072Y85254D01*
X74034Y85196D01*
X73997Y85128D01*
X73923Y84982D01*
X73855Y84822D01*
X73804Y84649D01*
X73783Y84469D01*
X73784Y84460D01*
X73785Y84450D01*
X73791Y84391D01*
X73800Y84303D01*
X73827Y84193D01*
X73874Y84064D01*
X73943Y83928D01*
X74040Y83795D01*
X74106Y83733D01*
X74172Y83671D01*
X74209Y83640D01*
X74241Y83624D01*
X74283Y83599D01*
X74325Y83573D01*
X74434Y83520D01*
X74557Y83474D01*
X74703Y83445D01*
X74783Y83433D01*
X74862Y83431D01*
X74945Y83445D01*
X75027Y83458D01*
X75032Y83464D01*
X75051Y83466D01*
X75075Y83473D01*
X75103Y83486D01*
X75142Y83500D01*
X75194Y83520D01*
X75245Y83550D01*
X75306Y83581D01*
X75367Y83612D01*
X75431Y83658D01*
X75505Y83705D01*
X75578Y83762D01*
X75727Y83901D01*
X75882Y84070D01*
X77186Y85675D01*
X77191Y85680D01*
X77204Y85696D01*
X77226Y85723D01*
X77246Y85760D01*
X77281Y85803D01*
X77315Y85856D01*
X77354Y85914D01*
X77391Y85982D01*
X77465Y86128D01*
X77532Y86287D01*
X77583Y86461D01*
X77600Y86635D01*
X77604Y86640D01*
X77598Y86655D01*
X77592Y86713D01*
X77583Y86801D01*
X77557Y86912D01*
X77514Y87036D01*
X77446Y87172D01*
X77348Y87305D01*
X77283Y87367D01*
X77212Y87433D01*
X77174Y87464D01*
X77143Y87481D01*
X77106Y87502D01*
X77059Y87531D01*
X76955Y87580D01*
X76826Y87630D01*
X76680Y87660D01*
X76605Y87667D01*
X76526Y87669D01*
D02*
G37*
G36*
X73562Y89622D02*
X73375Y89514D01*
X70524Y88513D01*
X71833Y87450D01*
X73583Y89604D01*
X73562Y89622D01*
D02*
G37*
G36*
X90291Y73305D02*
X90202Y73302D01*
X90197Y73297D01*
X90182Y73303D01*
X90158Y73300D01*
X90122Y73288D01*
X90082Y73281D01*
X90027Y73270D01*
X89977Y73254D01*
X89912Y73234D01*
X89841Y73210D01*
X89770Y73176D01*
X89689Y73142D01*
X89612Y73103D01*
X89442Y72992D01*
X89259Y72853D01*
X87696Y71499D01*
X87691Y71494D01*
X87675Y71481D01*
X87649Y71458D01*
X87622Y71425D01*
X87580Y71389D01*
X87537Y71343D01*
X87490Y71292D01*
X87441Y71232D01*
X87343Y71101D01*
X87249Y70955D01*
X87169Y70794D01*
X87117Y70620D01*
X87116Y70611D01*
X87115Y70601D01*
X87111Y70542D01*
X87105Y70454D01*
X87111Y70340D01*
X87136Y70206D01*
X87180Y70060D01*
X87253Y69912D01*
X87307Y69839D01*
X87361Y69766D01*
X87392Y69730D01*
X87420Y69708D01*
X87457Y69676D01*
X87494Y69644D01*
X87593Y69573D01*
X87706Y69506D01*
X87845Y69451D01*
X87922Y69426D01*
X87999Y69411D01*
X88083Y69410D01*
X88166Y69409D01*
X88172Y69413D01*
X88191Y69412D01*
X88216Y69415D01*
X88246Y69423D01*
X88286Y69430D01*
X88341Y69440D01*
X88397Y69461D01*
X88462Y69481D01*
X88527Y69501D01*
X88599Y69535D01*
X88680Y69569D01*
X88762Y69612D01*
X88932Y69723D01*
X89114Y69862D01*
X90677Y71216D01*
X90683Y71221D01*
X90698Y71235D01*
X90724Y71257D01*
X90751Y71290D01*
X90793Y71326D01*
X90836Y71372D01*
X90884Y71423D01*
X90933Y71483D01*
X91030Y71614D01*
X91124Y71760D01*
X91205Y71921D01*
X91251Y72090D01*
X91257Y72095D01*
X91253Y72110D01*
X91257Y72168D01*
X91264Y72257D01*
X91257Y72370D01*
X91237Y72500D01*
X91193Y72645D01*
X91120Y72793D01*
X91066Y72866D01*
X91008Y72944D01*
X90976Y72981D01*
X90948Y73002D01*
X90915Y73029D01*
X90874Y73067D01*
X90780Y73133D01*
X90662Y73205D01*
X90523Y73259D01*
X90451Y73279D01*
X90374Y73295D01*
X90291Y73305D01*
D02*
G37*
G36*
X97128Y59404D02*
X97016Y59402D01*
X96664Y59192D01*
X96658Y59188D01*
X96635Y59174D01*
X96605Y59156D01*
X96561Y59122D01*
X96507Y59089D01*
X96449Y59038D01*
X96381Y58990D01*
X96316Y58935D01*
X96171Y58799D01*
X96027Y58649D01*
X95909Y58481D01*
X95851Y58389D01*
X95808Y58299D01*
X95805Y58289D01*
X95797Y58276D01*
X95790Y58248D01*
X95777Y58215D01*
X95756Y58114D01*
X95737Y57998D01*
X95726Y57854D01*
X95738Y57699D01*
X95753Y57619D01*
X95775Y57543D01*
X95806Y57464D01*
X95846Y57384D01*
X95871Y57342D01*
X95895Y57316D01*
X95922Y57283D01*
X95953Y57245D01*
X96034Y57164D01*
X96134Y57078D01*
X96257Y57007D01*
X96331Y56978D01*
X96405Y56950D01*
X96481Y56931D01*
X96569Y56919D01*
X96575Y56922D01*
X96594Y56917D01*
X96619Y56916D01*
X96650Y56918D01*
X96690Y56918D01*
X96743Y56925D01*
X96805Y56930D01*
X96873Y56938D01*
X96937Y56953D01*
X97017Y56968D01*
X97187Y57021D01*
X97368Y57097D01*
X97560Y57196D01*
X97566Y57200D01*
X97583Y57210D01*
X97607Y57224D01*
X97639Y57252D01*
X97681Y57277D01*
X97725Y57311D01*
X97828Y57397D01*
X97935Y57501D01*
X98037Y57627D01*
X98127Y57762D01*
X98196Y57916D01*
X98202Y57920D01*
X98201Y57936D01*
X98215Y57993D01*
X98231Y58075D01*
X98238Y58184D01*
X98231Y58318D01*
X98207Y58465D01*
X98157Y58629D01*
X98117Y58710D01*
X98073Y58797D01*
X98041Y58851D01*
X98000Y58907D01*
X97941Y58977D01*
X97870Y59056D01*
X97789Y59137D01*
X97696Y59211D01*
X97595Y59272D01*
X97582Y59280D01*
X97550Y59293D01*
X97495Y59317D01*
X97421Y59346D01*
X97332Y59373D01*
X97235Y59387D01*
X97128Y59404D01*
D02*
G37*
G36*
X101548Y56477D02*
X101511Y56471D01*
X101471Y56472D01*
X101415Y56470D01*
X101363Y56463D01*
X101295Y56455D01*
X101221Y56443D01*
X101145Y56422D01*
X101059Y56403D01*
X100977Y56378D01*
X100790Y56299D01*
X100586Y56193D01*
X98812Y55131D01*
X98806Y55127D01*
X98788Y55116D01*
X98758Y55099D01*
X98726Y55071D01*
X98678Y55043D01*
X98628Y55005D01*
X98572Y54963D01*
X98514Y54912D01*
X98395Y54800D01*
X98277Y54673D01*
X98169Y54528D01*
X98088Y54366D01*
X98086Y54357D01*
X98084Y54347D01*
X98069Y54290D01*
X98048Y54204D01*
X98035Y54091D01*
X98036Y53954D01*
X98053Y53803D01*
X98099Y53645D01*
X98140Y53564D01*
X98180Y53483D01*
X98205Y53441D01*
X98229Y53415D01*
X98260Y53377D01*
X98291Y53339D01*
X98375Y53252D01*
X98475Y53166D01*
X98602Y53088D01*
X98674Y53050D01*
X98747Y53022D01*
X98830Y53006D01*
X98912Y52991D01*
X98918Y52994D01*
X98937Y52989D01*
X98962Y52988D01*
X98993Y52991D01*
X99033Y52991D01*
X99089Y52992D01*
X99147Y53002D01*
X99215Y53010D01*
X99283Y53019D01*
X99359Y53040D01*
X99445Y53059D01*
X99533Y53088D01*
X99720Y53167D01*
X99924Y53273D01*
X101698Y54335D01*
X101704Y54338D01*
X101722Y54349D01*
X101752Y54367D01*
X101784Y54394D01*
X101832Y54423D01*
X101882Y54461D01*
X101938Y54502D01*
X101996Y54554D01*
X102115Y54665D01*
X102233Y54792D01*
X102340Y54937D01*
X102416Y55096D01*
X102422Y55099D01*
X102420Y55115D01*
X102435Y55172D01*
X102456Y55258D01*
X102470Y55371D01*
X102472Y55502D01*
X102454Y55653D01*
X102408Y55811D01*
X102368Y55892D01*
X102324Y55979D01*
X102299Y56021D01*
X102275Y56047D01*
X102248Y56079D01*
X102213Y56123D01*
X102132Y56204D01*
X102029Y56296D01*
X101902Y56373D01*
X101834Y56406D01*
X101760Y56434D01*
X101680Y56459D01*
X101592Y56471D01*
X101586Y56468D01*
X101573Y56476D01*
X101548Y56477D01*
D02*
G37*
G36*
X109541Y37860D02*
X109463Y37852D01*
X109375Y37848D01*
X109290Y37838D01*
X109092Y37792D01*
X108873Y37723D01*
X106941Y36986D01*
X106934Y36983D01*
X106915Y36976D01*
X106883Y36963D01*
X106846Y36942D01*
X106794Y36922D01*
X106738Y36893D01*
X106676Y36862D01*
X106610Y36822D01*
X106473Y36733D01*
X106335Y36628D01*
X106204Y36503D01*
X106096Y36358D01*
X106092Y36349D01*
X106088Y36340D01*
X106064Y36287D01*
X106028Y36206D01*
X105995Y36097D01*
X105972Y35962D01*
X105963Y35810D01*
X105982Y35646D01*
X106007Y35559D01*
X106033Y35473D01*
X106050Y35427D01*
X106069Y35397D01*
X106093Y35354D01*
X106117Y35311D01*
X106185Y35211D01*
X106268Y35109D01*
X106380Y35011D01*
X106444Y34961D01*
X106511Y34920D01*
X106589Y34890D01*
X106668Y34861D01*
X106674Y34863D01*
X106692Y34855D01*
X106717Y34850D01*
X106747Y34846D01*
X106787Y34839D01*
X106843Y34831D01*
X106902Y34831D01*
X106970Y34828D01*
X107038Y34824D01*
X107117Y34832D01*
X107205Y34835D01*
X107297Y34848D01*
X107494Y34894D01*
X107713Y34963D01*
X109645Y35701D01*
X109652Y35703D01*
X109671Y35710D01*
X109704Y35723D01*
X109740Y35744D01*
X109792Y35764D01*
X109848Y35793D01*
X109910Y35824D01*
X109977Y35864D01*
X110113Y35954D01*
X110252Y36058D01*
X110382Y36182D01*
X110484Y36325D01*
X110490Y36328D01*
X110492Y36343D01*
X110516Y36397D01*
X110552Y36478D01*
X110585Y36587D01*
X110610Y36715D01*
X110619Y36867D01*
X110601Y37031D01*
X110575Y37118D01*
X110547Y37211D01*
X110529Y37257D01*
X110511Y37286D01*
X110489Y37323D01*
X110463Y37372D01*
X110398Y37466D01*
X110311Y37574D01*
X110200Y37673D01*
X110138Y37716D01*
X110071Y37757D01*
X109997Y37796D01*
X109912Y37823D01*
X109906Y37821D01*
X109894Y37831D01*
X109870Y37837D01*
X109832Y37837D01*
X109792Y37844D01*
X109737Y37853D01*
X109684Y37855D01*
X109616Y37859D01*
X109541Y37860D01*
D02*
G37*
G36*
X113458Y22835D02*
X113299Y22818D01*
X113292Y22817D01*
X113278Y22815D01*
X113258Y22811D01*
X113225Y22797D01*
X113191Y22791D01*
X113145Y22775D01*
X113046Y22735D01*
X112944Y22680D01*
X112830Y22608D01*
X112721Y22516D01*
X112630Y22400D01*
X112619Y22384D01*
X112598Y22344D01*
X112562Y22274D01*
X112531Y22183D01*
X112502Y22072D01*
X112478Y21940D01*
X112477Y21798D01*
X112493Y21646D01*
X112501Y21605D01*
X112513Y21579D01*
X112532Y21512D01*
X112570Y21427D01*
X112624Y21332D01*
X112692Y21232D01*
X112782Y21136D01*
X112890Y21051D01*
X112906Y21040D01*
X112945Y21019D01*
X113015Y20990D01*
X113112Y20959D01*
X113224Y20931D01*
X113354Y20914D01*
X113503Y20914D01*
X113662Y20931D01*
X113669Y20932D01*
X113682Y20935D01*
X113703Y20939D01*
X113729Y20951D01*
X113803Y20972D01*
X113901Y21012D01*
X113998Y21059D01*
X114104Y21129D01*
X114207Y21220D01*
X114299Y21329D01*
X114310Y21345D01*
X114331Y21385D01*
X114368Y21448D01*
X114401Y21533D01*
X114431Y21637D01*
X114457Y21755D01*
X114460Y21890D01*
X114447Y22029D01*
X114439Y22070D01*
X114427Y22096D01*
X114405Y22176D01*
X114366Y22268D01*
X114318Y22372D01*
X114246Y22485D01*
X114156Y22588D01*
X114046Y22680D01*
X114030Y22691D01*
X113991Y22712D01*
X113927Y22749D01*
X113836Y22781D01*
X113725Y22809D01*
X113600Y22834D01*
X113458Y22835D01*
D02*
G37*
G36*
X110735Y22480D02*
X110652Y22471D01*
X110562Y22461D01*
X110555Y22460D01*
X110541Y22457D01*
X110514Y22452D01*
X110481Y22438D01*
X110440Y22431D01*
X110395Y22408D01*
X110290Y22366D01*
X110169Y22301D01*
X110049Y22221D01*
X109936Y22114D01*
X109884Y22055D01*
X109833Y21989D01*
X109834Y21982D01*
X109822Y21972D01*
X109812Y21949D01*
X109797Y21918D01*
X109762Y21841D01*
X109733Y21736D01*
X109701Y21610D01*
X109681Y21457D01*
X109678Y21287D01*
X109687Y21204D01*
X109698Y21107D01*
X109708Y21060D01*
X109720Y21034D01*
X109728Y20993D01*
X109744Y20947D01*
X109791Y20850D01*
X109848Y20733D01*
X109928Y20615D01*
X110026Y20506D01*
X110079Y20453D01*
X110145Y20402D01*
X110153Y20396D01*
X110162Y20391D01*
X110209Y20365D01*
X110286Y20330D01*
X110387Y20286D01*
X110506Y20252D01*
X110652Y20231D01*
X110815Y20227D01*
X110899Y20229D01*
X110988Y20246D01*
X110995Y20248D01*
X111009Y20250D01*
X111036Y20256D01*
X111069Y20269D01*
X111109Y20277D01*
X111156Y20293D01*
X111260Y20341D01*
X111376Y20399D01*
X111495Y20478D01*
X111609Y20585D01*
X111661Y20644D01*
X111711Y20711D01*
X111718Y20712D01*
X111723Y20727D01*
X111749Y20774D01*
X111783Y20852D01*
X111828Y20952D01*
X111861Y21072D01*
X111884Y21210D01*
X111889Y21367D01*
X111887Y21451D01*
X111862Y21581D01*
X111849Y21613D01*
X111841Y21654D01*
X111825Y21701D01*
X111775Y21811D01*
X111716Y21934D01*
X111635Y22060D01*
X111534Y22182D01*
X111473Y22241D01*
X111407Y22292D01*
X111391Y22303D01*
X111343Y22329D01*
X111265Y22370D01*
X111166Y22408D01*
X111038Y22447D01*
X110898Y22476D01*
X110735Y22480D01*
D02*
G37*
G36*
X114196Y18306D02*
X113993Y18295D01*
X113766Y18265D01*
X111735Y17874D01*
X111728Y17873D01*
X111707Y17869D01*
X111673Y17862D01*
X111634Y17848D01*
X111579Y17837D01*
X111519Y17818D01*
X111452Y17798D01*
X111380Y17770D01*
X111230Y17706D01*
X111075Y17627D01*
X110925Y17527D01*
X110794Y17403D01*
X110788Y17395D01*
X110783Y17387D01*
X110749Y17338D01*
X110700Y17265D01*
X110649Y17163D01*
X110603Y17034D01*
X110568Y16886D01*
X110557Y16721D01*
X110567Y16632D01*
X110578Y16542D01*
X110587Y16494D01*
X110600Y16461D01*
X110616Y16415D01*
X110632Y16368D01*
X110682Y16258D01*
X110746Y16143D01*
X110839Y16027D01*
X110893Y15966D01*
X110953Y15914D01*
X111025Y15871D01*
X111097Y15829D01*
X111103Y15830D01*
X111120Y15819D01*
X111143Y15809D01*
X111173Y15801D01*
X111211Y15787D01*
X111264Y15769D01*
X111322Y15759D01*
X111389Y15744D01*
X111455Y15728D01*
X111534Y15722D01*
X111621Y15711D01*
X111714Y15707D01*
X111917Y15718D01*
X112144Y15748D01*
X114175Y16139D01*
X114182Y16140D01*
X114202Y16144D01*
X114236Y16151D01*
X114276Y16165D01*
X114330Y16176D01*
X114390Y16195D01*
X114457Y16214D01*
X114530Y16242D01*
X114680Y16307D01*
X114834Y16386D01*
X114985Y16486D01*
X115109Y16609D01*
X115116Y16610D01*
X115120Y16625D01*
X115153Y16674D01*
X115203Y16747D01*
X115254Y16848D01*
X115301Y16971D01*
X115336Y17119D01*
X115347Y17283D01*
X115337Y17373D01*
X115325Y17470D01*
X115316Y17518D01*
X115303Y17550D01*
X115288Y17590D01*
X115270Y17643D01*
X115222Y17747D01*
X115156Y17869D01*
X115063Y17985D01*
X115011Y18038D01*
X114951Y18090D01*
X114885Y18141D01*
X114806Y18183D01*
X114799Y18181D01*
X114790Y18194D01*
X114767Y18203D01*
X114730Y18211D01*
X114692Y18224D01*
X114639Y18243D01*
X114587Y18254D01*
X114521Y18269D01*
X114448Y18283D01*
X114369Y18289D01*
X114282Y18301D01*
X114196Y18306D01*
D02*
G37*
%LPD*%
D10*
X62987Y109144D02*
X68893Y119373D01*
X119116Y41055D02*
X130283Y44901D01*
X118382Y43128D02*
X129481Y47168D01*
X66757Y106879D02*
X73016Y116896D01*
X74047Y101962D02*
X80989Y111518D01*
X64882Y108028D02*
X70965Y118152D01*
X68611Y105698D02*
X75044Y115604D01*
X79280Y97947D02*
X86713Y107126D01*
X77559Y99316D02*
X84830Y108623D01*
X109101Y63031D02*
X119330Y68936D01*
X110184Y61117D02*
X120514Y66843D01*
X51238Y115131D02*
X56042Y125921D01*
X101919Y74090D02*
X111474Y81033D01*
X107985Y64925D02*
X118109Y71009D01*
X106836Y66800D02*
X116852Y73059D01*
X105655Y68655D02*
X115560Y75087D01*
X53238Y114219D02*
X58230Y124924D01*
X104441Y70488D02*
X114233Y77093D01*
X55223Y113273D02*
X60401Y123888D01*
X103196Y72300D02*
X112871Y79075D01*
X100611Y75858D02*
X110044Y82966D01*
X99272Y77602D02*
X108579Y84874D01*
X97903Y79323D02*
X107082Y86756D01*
X96505Y81020D02*
X105553Y88612D01*
X95077Y82692D02*
X103991Y90441D01*
X93620Y84339D02*
X102397Y92242D01*
X80976Y96548D02*
X88568Y105596D01*
X92134Y85960D02*
X100772Y94015D01*
X90621Y87555D02*
X99117Y95759D01*
X89080Y89123D02*
X97431Y97475D01*
X57191Y112292D02*
X62553Y122815D01*
X87511Y90664D02*
X95716Y99160D01*
X85916Y92178D02*
X93971Y100816D01*
X84295Y93663D02*
X92198Y102441D01*
X82648Y95120D02*
X90397Y104034D01*
X112248Y57235D02*
X122772Y62596D01*
X111233Y59185D02*
X121661Y64730D01*
X115964Y49265D02*
X126837Y53880D01*
X115088Y51281D02*
X125877Y56085D01*
X114176Y53282D02*
X124880Y58274D01*
X113229Y55267D02*
X123845Y60444D01*
X72257Y103239D02*
X79031Y112914D01*
X70445Y104484D02*
X77049Y114276D01*
X75814Y100654D02*
X82923Y110087D01*
X61074Y110227D02*
X66800Y120557D01*
X59141Y111276D02*
X64686Y121705D01*
X117612Y45188D02*
X128638Y49420D01*
X116806Y47233D02*
X127757Y51658D01*
X-137800Y39D02*
X-122052D01*
X-137276Y12048D02*
X-121588Y10676D01*
X-135707Y23967D02*
X-120198Y21232D01*
X-133105Y35703D02*
X-117893Y31627D01*
X-129490Y47168D02*
X-114692Y41781D01*
X-124890Y58274D02*
X-110617Y51618D01*
X-119339Y68936D02*
X-105701Y61062D01*
X-112880Y79075D02*
X-99980Y70042D01*
X-105562Y88612D02*
X-93498Y78489D01*
X-97441Y97475D02*
X-86305Y86339D01*
X-88578Y105596D02*
X-78455Y93532D01*
X-79041Y112914D02*
X-70008Y100014D01*
X-68902Y119373D02*
X-61028Y105735D01*
X-58240Y124924D02*
X-51584Y110651D01*
X-47133Y129524D02*
X-41747Y114726D01*
X-35669Y133139D02*
X-31593Y117927D01*
X-23933Y135741D02*
X-21198Y120232D01*
X-12014Y137310D02*
X-10642Y121622D01*
X-5Y122086D02*
Y137834D01*
X122043Y39D02*
X137791D01*
X121578Y10676D02*
X137266Y12048D01*
X120188Y21232D02*
X135697Y23967D01*
X117884Y31627D02*
X133095Y35703D01*
X114682Y41781D02*
X129481Y47168D01*
X110608Y51618D02*
X124880Y58274D01*
X105691Y61062D02*
X119330Y68936D01*
X99971Y70042D02*
X112871Y79075D01*
X93489Y78489D02*
X105553Y88612D01*
X86296Y86339D02*
X97431Y97475D01*
X78446Y93532D02*
X88568Y105596D01*
X69999Y100014D02*
X79031Y112914D01*
X61019Y105735D02*
X68893Y119373D01*
X51575Y110651D02*
X58230Y124924D01*
X41738Y114726D02*
X47124Y129524D01*
X31583Y117927D02*
X35659Y133139D01*
X21189Y120232D02*
X23923Y135741D01*
X10632Y121622D02*
X12005Y137310D01*
X-5Y122086D02*
Y137834D01*
X125979Y39D02*
X137791D01*
X125960Y2238D02*
X137770Y2444D01*
X125903Y4436D02*
X137707Y4848D01*
X125807Y6632D02*
X137602Y7250D01*
X125673Y8827D02*
X137455Y9651D01*
X125500Y11019D02*
X137266Y12048D01*
X125289Y13208D02*
X137036Y14442D01*
X125040Y15392D02*
X136763Y16832D01*
X124753Y17572D02*
X136450Y19216D01*
X124428Y19747D02*
X136094Y21595D01*
X124065Y21916D02*
X135697Y23967D01*
X123665Y24078D02*
X135259Y26331D01*
X123226Y26232D02*
X134779Y28688D01*
X122750Y28379D02*
X134259Y31036D01*
X122237Y30517D02*
X133697Y33375D01*
X121687Y32646D02*
X133095Y35703D01*
X121099Y34765D02*
X132453Y38020D01*
X120475Y36873D02*
X131770Y40326D01*
X119813Y38970D02*
X131046Y42620D01*
X49221Y116008D02*
X53836Y126880D01*
X47190Y116849D02*
X51614Y127800D01*
X45144Y117655D02*
X49377Y128682D01*
X43084Y118425D02*
X47124Y129524D01*
X41012Y119159D02*
X44857Y130327D01*
X38927Y119857D02*
X42576Y131090D01*
X36830Y120518D02*
X40283Y131813D01*
X34721Y121143D02*
X37977Y132496D01*
X32602Y121730D02*
X35659Y133139D01*
X30474Y122281D02*
X33331Y133741D01*
X28336Y122794D02*
X30992Y134302D01*
X26189Y123270D02*
X28644Y134823D01*
X24034Y123708D02*
X26288Y135302D01*
X21872Y124109D02*
X23923Y135741D01*
X19704Y124472D02*
X21551Y136138D01*
X17529Y124797D02*
X19173Y136493D01*
X15349Y125084D02*
X16788Y136807D01*
X13164Y125333D02*
X14399Y137079D01*
X10976Y125544D02*
X12005Y137310D01*
X8783Y125716D02*
X9607Y137498D01*
X6589Y125850D02*
X7207Y137645D01*
X4392Y125946D02*
X4804Y137750D01*
X2194Y126004D02*
X2400Y137813D01*
X-5Y126023D02*
Y137834D01*
X-2410Y137813D02*
X-2204Y126004D01*
X-4814Y137750D02*
X-4402Y125946D01*
X-7216Y137645D02*
X-6598Y125850D01*
X-9617Y137498D02*
X-8793Y125716D01*
X-12014Y137310D02*
X-10985Y125544D01*
X-14408Y137079D02*
X-13174Y125333D01*
X-16798Y136807D02*
X-15358Y125084D01*
X-19182Y136493D02*
X-17538Y124797D01*
X-21561Y136138D02*
X-19713Y124472D01*
X-23933Y135741D02*
X-21882Y124109D01*
X-26297Y135302D02*
X-24044Y123708D01*
X-28654Y134823D02*
X-26198Y123270D01*
X-31002Y134302D02*
X-28345Y122794D01*
X-33340Y133741D02*
X-30483Y122281D01*
X-35669Y133139D02*
X-32612Y121730D01*
X-37986Y132496D02*
X-34731Y121143D01*
X-40292Y131813D02*
X-36839Y120518D01*
X-42586Y131090D02*
X-38936Y119857D01*
X-44866Y130327D02*
X-41021Y119159D01*
X-47133Y129524D02*
X-43094Y118425D01*
X-49386Y128682D02*
X-45153Y117655D01*
X-51624Y127800D02*
X-47199Y116849D01*
X-53846Y126880D02*
X-49231Y116008D01*
X-56051Y125921D02*
X-51247Y115131D01*
X-58240Y124924D02*
X-53248Y114219D01*
X-60410Y123888D02*
X-55233Y113273D01*
X-62563Y122815D02*
X-57200Y112292D01*
X-64696Y121705D02*
X-59151Y111276D01*
X-66809Y120557D02*
X-61083Y110227D01*
X-68902Y119373D02*
X-62997Y109144D01*
X-70974Y118152D02*
X-64891Y108028D01*
X-73025Y116896D02*
X-66766Y106879D01*
X-75053Y115604D02*
X-68621Y105698D01*
X-77059Y114276D02*
X-70454Y104484D01*
X-79041Y112914D02*
X-72266Y103239D01*
X-80999Y111518D02*
X-74056Y101962D01*
X-82932Y110087D02*
X-75824Y100654D01*
X-84840Y108623D02*
X-77568Y99316D01*
X-86722Y107126D02*
X-79289Y97947D01*
X-88578Y105596D02*
X-80986Y96548D01*
X-90407Y104034D02*
X-82658Y95120D01*
X-92208Y102441D02*
X-84305Y93663D01*
X-93981Y100816D02*
X-85926Y92178D01*
X-95725Y99160D02*
X-87521Y90664D01*
X-97441Y97475D02*
X-89089Y89123D01*
X-99126Y95759D02*
X-90630Y87555D01*
X-100782Y94015D02*
X-92144Y85960D01*
X-102407Y92242D02*
X-93629Y84339D01*
X-104000Y90441D02*
X-95086Y82692D01*
X-105562Y88612D02*
X-96514Y81020D01*
X-107092Y86756D02*
X-97913Y79323D01*
X-108589Y84874D02*
X-99282Y77602D01*
X-110053Y82966D02*
X-100620Y75858D01*
X-111483Y81033D02*
X-101928Y74090D01*
X-112880Y79075D02*
X-103205Y72300D01*
X-114242Y77093D02*
X-104450Y70488D01*
X-115570Y75087D02*
X-105664Y68655D01*
X-116862Y73059D02*
X-106845Y66800D01*
X-118118Y71009D02*
X-107994Y64925D01*
X-119339Y68936D02*
X-109110Y63031D01*
X-120523Y66843D02*
X-110193Y61117D01*
X-121671Y64730D02*
X-111242Y59185D01*
X-122781Y62596D02*
X-112258Y57235D01*
X-123854Y60444D02*
X-113239Y55267D01*
X-124890Y58274D02*
X-114185Y53282D01*
X-125887Y56085D02*
X-115097Y51281D01*
X-126846Y53880D02*
X-115974Y49265D01*
X-127766Y51658D02*
X-116815Y47233D01*
X-128648Y49420D02*
X-117621Y45188D01*
X-129490Y47168D02*
X-118391Y43128D01*
X-130293Y44901D02*
X-119125Y41055D01*
X-131056Y42620D02*
X-119823Y38970D01*
X-131779Y40326D02*
X-120484Y36873D01*
X-132462Y38020D02*
X-121109Y34765D01*
X-133105Y35703D02*
X-121696Y32646D01*
X-133707Y33375D02*
X-122247Y30517D01*
X-134268Y31036D02*
X-122760Y28379D01*
X-134789Y28688D02*
X-123236Y26232D01*
X-135268Y26331D02*
X-123674Y24078D01*
X-135707Y23967D02*
X-124075Y21916D01*
X-136103Y21595D02*
X-124438Y19747D01*
X-136459Y19216D02*
X-124763Y17572D01*
X-136773Y16832D02*
X-125050Y15392D01*
X-137045Y14442D02*
X-125299Y13208D01*
X-137276Y12048D02*
X-125510Y11019D01*
X-137464Y9651D02*
X-125682Y8827D01*
X-137611Y7250D02*
X-125816Y6632D01*
X-137716Y4848D02*
X-125912Y4436D01*
X-137779Y2444D02*
X-125970Y2238D01*
M02*
