G04*
G04 #@! TF.GenerationSoftware,Altium Limited,Altium Designer,19.1.6 (110)*
G04*
G04 Layer_Color=65535*
%FSLAX25Y25*%
%MOIN*%
G70*
G01*
G75*
%ADD10C,0.00787*%
D10*
X-157479Y-20998D02*
Y-22310D01*
Y-21654D01*
X-154199D01*
X-153543Y-22310D01*
Y-22966D01*
X-154199Y-23622D01*
X-157479Y-19686D02*
X-153543D01*
Y-17063D01*
X-156823Y-13127D02*
X-157479Y-13783D01*
Y-15095D01*
X-156823Y-15751D01*
X-154199D01*
X-153543Y-15095D01*
Y-13783D01*
X-154199Y-13127D01*
X-157479Y-9191D02*
Y-10503D01*
Y-9847D01*
X-154199D01*
X-153543Y-10503D01*
Y-11159D01*
X-154199Y-11815D01*
X-157479Y-7879D02*
X-153543D01*
Y-5255D01*
X-156823Y-1319D02*
X-157479Y-1976D01*
Y-3287D01*
X-156823Y-3943D01*
X-154199D01*
X-153543Y-3287D01*
Y-1976D01*
X-154199Y-1319D01*
X-157479Y2616D02*
Y1304D01*
Y1960D01*
X-154199D01*
X-153543Y1304D01*
Y648D01*
X-154199Y-8D01*
X-157479Y3928D02*
X-153543D01*
Y6552D01*
X-156823Y10488D02*
X-157479Y9832D01*
Y8520D01*
X-156823Y7864D01*
X-154199D01*
X-153543Y8520D01*
Y9832D01*
X-154199Y10488D01*
X-157479Y14423D02*
Y13112D01*
Y13768D01*
X-154199D01*
X-153543Y13112D01*
Y12456D01*
X-154199Y11800D01*
X-157479Y15735D02*
X-153543D01*
Y18359D01*
X-156823Y22295D02*
X-157479Y21639D01*
Y20327D01*
X-156823Y19671D01*
X-154199D01*
X-153543Y20327D01*
Y21639D01*
X-154199Y22295D01*
M02*
