G04*
G04 #@! TF.GenerationSoftware,Altium Limited,Altium Designer,19.1.6 (110)*
G04*
G04 Layer_Physical_Order=2*
G04 Layer_Color=16711680*
%FSLAX25Y25*%
%MOIN*%
G70*
G01*
G75*
G36*
X11654Y177803D02*
X19398Y177126D01*
X27106Y176111D01*
X34762Y174761D01*
X42352Y173078D01*
X49861Y171066D01*
X57276Y168728D01*
X64581Y166069D01*
X71763Y163094D01*
X78809Y159809D01*
X85705Y156219D01*
X92437Y152332D01*
X98994Y148155D01*
X105362Y143696D01*
X111530Y138963D01*
X117485Y133966D01*
X123217Y128714D01*
X128714Y123217D01*
X133966Y117485D01*
X138963Y111530D01*
X143696Y105362D01*
X148155Y98994D01*
X152332Y92437D01*
X156219Y85705D01*
X159809Y78809D01*
X163094Y71763D01*
X166069Y64581D01*
X168728Y57275D01*
X171066Y49861D01*
X173078Y42352D01*
X174761Y34762D01*
X176111Y27106D01*
X177126Y19398D01*
X177803Y11654D01*
X178142Y3887D01*
Y-0D01*
Y-3887D01*
X177803Y-11654D01*
X177126Y-19398D01*
X176111Y-27106D01*
X174761Y-34762D01*
X173078Y-42352D01*
X171066Y-49861D01*
X168728Y-57276D01*
X166069Y-64581D01*
X163094Y-71763D01*
X159809Y-78809D01*
X156219Y-85705D01*
X152332Y-92437D01*
X148155Y-98994D01*
X143696Y-105362D01*
X138963Y-111530D01*
X133966Y-117485D01*
X128714Y-123217D01*
X123217Y-128714D01*
X117485Y-133966D01*
X111530Y-138963D01*
X105362Y-143696D01*
X98994Y-148155D01*
X92437Y-152332D01*
X85705Y-156219D01*
X78809Y-159809D01*
X71763Y-163094D01*
X64581Y-166069D01*
X57275Y-168728D01*
X49861Y-171066D01*
X42352Y-173078D01*
X34762Y-174761D01*
X27106Y-176111D01*
X19398Y-177126D01*
X11654Y-177803D01*
X3887Y-178142D01*
X-3887D01*
X-11654Y-177803D01*
X-19398Y-177126D01*
X-27106Y-176111D01*
X-34762Y-174761D01*
X-42352Y-173078D01*
X-49861Y-171066D01*
X-57276Y-168728D01*
X-64581Y-166069D01*
X-71763Y-163094D01*
X-78809Y-159809D01*
X-85705Y-156219D01*
X-92437Y-152332D01*
X-98994Y-148155D01*
X-105362Y-143696D01*
X-111530Y-138963D01*
X-117485Y-133966D01*
X-123217Y-128714D01*
X-128714Y-123217D01*
X-133966Y-117485D01*
X-138963Y-111530D01*
X-143696Y-105362D01*
X-148155Y-98994D01*
X-152332Y-92437D01*
X-156219Y-85705D01*
X-159809Y-78809D01*
X-163094Y-71763D01*
X-166069Y-64581D01*
X-168728Y-57275D01*
X-171066Y-49861D01*
X-173078Y-42352D01*
X-174761Y-34762D01*
X-176111Y-27106D01*
X-177126Y-19398D01*
X-177803Y-11654D01*
X-178142Y-3887D01*
Y0D01*
Y3887D01*
X-177803Y11654D01*
X-177126Y19398D01*
X-176111Y27106D01*
X-174761Y34762D01*
X-173078Y42352D01*
X-171066Y49861D01*
X-168728Y57276D01*
X-166069Y64581D01*
X-163094Y71763D01*
X-159809Y78809D01*
X-156219Y85705D01*
X-152332Y92437D01*
X-148155Y98994D01*
X-143696Y105362D01*
X-138963Y111530D01*
X-133966Y117485D01*
X-128714Y123217D01*
X-123217Y128714D01*
X-117485Y133966D01*
X-111530Y138963D01*
X-105362Y143696D01*
X-98994Y148155D01*
X-92437Y152332D01*
X-85705Y156219D01*
X-78809Y159809D01*
X-71763Y163094D01*
X-64581Y166069D01*
X-57275Y168728D01*
X-49861Y171066D01*
X-42352Y173078D01*
X-34762Y174761D01*
X-27106Y176111D01*
X-19398Y177126D01*
X-11654Y177803D01*
X-3887Y178142D01*
X3887D01*
X11654Y177803D01*
D02*
G37*
%LPC*%
G36*
X-155512Y61283D02*
X-157291Y61108D01*
X-159001Y60589D01*
X-160577Y59746D01*
X-161959Y58613D01*
X-163093Y57231D01*
X-163936Y55655D01*
X-164454Y53944D01*
X-164630Y52165D01*
X-164454Y50386D01*
X-163936Y48676D01*
X-163093Y47100D01*
X-161959Y45718D01*
X-160577Y44584D01*
X-159001Y43741D01*
X-157291Y43222D01*
X-155512Y43047D01*
X-153733Y43222D01*
X-152023Y43741D01*
X-150446Y44584D01*
X-149065Y45718D01*
X-147931Y47100D01*
X-147088Y48676D01*
X-146569Y50386D01*
X-146394Y52165D01*
X-146569Y53944D01*
X-147088Y55655D01*
X-147931Y57231D01*
X-149065Y58613D01*
X-150446Y59746D01*
X-152023Y60589D01*
X-153733Y61108D01*
X-155512Y61283D01*
D02*
G37*
G36*
X0Y18464D02*
X-2410Y18306D01*
X-4779Y17835D01*
X-7066Y17058D01*
X-9232Y15990D01*
X-11240Y14648D01*
X-13056Y13056D01*
X-14648Y11240D01*
X-15990Y9232D01*
X-17058Y7066D01*
X-17835Y4779D01*
X-18306Y2410D01*
X-18464Y0D01*
X-18306Y-2410D01*
X-17835Y-4779D01*
X-17058Y-7066D01*
X-15990Y-9232D01*
X-14648Y-11240D01*
X-13056Y-13056D01*
X-11240Y-14648D01*
X-9232Y-15990D01*
X-7066Y-17058D01*
X-4779Y-17835D01*
X-2410Y-18306D01*
X0Y-18464D01*
X2410Y-18306D01*
X4779Y-17835D01*
X7066Y-17058D01*
X9232Y-15990D01*
X11240Y-14648D01*
X13056Y-13056D01*
X14648Y-11240D01*
X15990Y-9232D01*
X17058Y-7066D01*
X17835Y-4779D01*
X18306Y-2410D01*
X18464Y0D01*
X18306Y2410D01*
X17835Y4779D01*
X17058Y7066D01*
X15990Y9232D01*
X14648Y11240D01*
X13056Y13056D01*
X11240Y14648D01*
X9232Y15990D01*
X7066Y17058D01*
X4779Y17835D01*
X2410Y18306D01*
X0Y18464D01*
D02*
G37*
G36*
X-155512Y-43047D02*
X-157291Y-43222D01*
X-159001Y-43741D01*
X-160577Y-44584D01*
X-161959Y-45718D01*
X-163093Y-47100D01*
X-163936Y-48676D01*
X-164454Y-50386D01*
X-164630Y-52165D01*
X-164454Y-53944D01*
X-163936Y-55655D01*
X-163093Y-57231D01*
X-161959Y-58613D01*
X-160577Y-59746D01*
X-159001Y-60589D01*
X-157291Y-61108D01*
X-155512Y-61283D01*
X-153733Y-61108D01*
X-152023Y-60589D01*
X-150446Y-59746D01*
X-149065Y-58613D01*
X-147931Y-57231D01*
X-147088Y-55655D01*
X-146569Y-53944D01*
X-146394Y-52165D01*
X-146569Y-50386D01*
X-147088Y-48676D01*
X-147931Y-47100D01*
X-149065Y-45718D01*
X-150446Y-44584D01*
X-152023Y-43741D01*
X-153733Y-43222D01*
X-155512Y-43047D01*
D02*
G37*
%LPD*%
M02*
