G04*
G04 #@! TF.GenerationSoftware,Altium Limited,Altium Designer,18.0.9 (584)*
G04*
G04 Layer_Color=65535*
%FSLAX25Y25*%
%MOIN*%
G70*
G01*
G75*
G36*
X523140Y538692D02*
X523387Y538673D01*
X523711Y538654D01*
X524073Y538597D01*
X524492Y538540D01*
X524930Y538445D01*
X525387Y538331D01*
X525882Y538197D01*
X526377Y538026D01*
X526872Y537817D01*
X527367Y537569D01*
X527843Y537284D01*
X528300Y536960D01*
X528738Y536579D01*
X528757Y536560D01*
X528833Y536484D01*
X528947Y536370D01*
X529080Y536198D01*
X529252Y536008D01*
X529442Y535760D01*
X529633Y535475D01*
X529842Y535170D01*
X530052Y534827D01*
X530242Y534446D01*
X530432Y534028D01*
X530585Y533609D01*
X530718Y533133D01*
X530813Y532657D01*
X530870Y532162D01*
X530889Y531629D01*
X530851Y531533D01*
X527786D01*
Y531552D01*
Y531629D01*
Y531724D01*
X527767Y531876D01*
X527748Y532048D01*
X527710Y532238D01*
X527671Y532466D01*
X527614Y532714D01*
X527538Y532961D01*
X527443Y533228D01*
X527329Y533514D01*
X527196Y533799D01*
X527024Y534066D01*
X526834Y534351D01*
X526624Y534618D01*
X526377Y534865D01*
X526358Y534884D01*
X526320Y534923D01*
X526225Y534980D01*
X526129Y535075D01*
X525977Y535170D01*
X525825Y535284D01*
X525615Y535398D01*
X525406Y535532D01*
X525158Y535646D01*
X524873Y535760D01*
X524587Y535875D01*
X524263Y535970D01*
X523921Y536065D01*
X523559Y536122D01*
X523178Y536160D01*
X522778Y536179D01*
X522569D01*
X522416Y536160D01*
X522226Y536141D01*
X521998Y536122D01*
X521769Y536084D01*
X521503Y536046D01*
X520950Y535913D01*
X520665Y535836D01*
X520379Y535722D01*
X520094Y535589D01*
X519827Y535456D01*
X519560Y535284D01*
X519332Y535094D01*
X519313Y535075D01*
X519275Y535037D01*
X519218Y534980D01*
X519142Y534903D01*
X519046Y534789D01*
X518951Y534656D01*
X518837Y534504D01*
X518742Y534332D01*
X518628Y534142D01*
X518513Y533932D01*
X518418Y533685D01*
X518323Y533437D01*
X518247Y533171D01*
X518190Y532885D01*
X518152Y532581D01*
X518132Y532257D01*
Y532238D01*
Y532181D01*
Y532105D01*
X518152Y532009D01*
X518171Y531876D01*
X518209Y531724D01*
X518304Y531362D01*
X518361Y531153D01*
X518456Y530943D01*
X518551Y530734D01*
X518685Y530524D01*
X518837Y530315D01*
X519008Y530086D01*
X519218Y529877D01*
X519446Y529686D01*
X519465Y529668D01*
X519503Y529648D01*
X519580Y529591D01*
X519694Y529515D01*
X519846Y529420D01*
X520017Y529325D01*
X520227Y529211D01*
X520474Y529077D01*
X520760Y528944D01*
X521065Y528792D01*
X521407Y528639D01*
X521807Y528487D01*
X522226Y528335D01*
X522683Y528182D01*
X523178Y528030D01*
X523711Y527878D01*
X523730D01*
X523749Y527859D01*
X523806D01*
X523864Y527840D01*
X524054Y527782D01*
X524301Y527706D01*
X524606Y527611D01*
X524949Y527497D01*
X525330Y527345D01*
X525729Y527192D01*
X526167Y527002D01*
X526605Y526792D01*
X527062Y526583D01*
X527519Y526335D01*
X527957Y526069D01*
X528395Y525764D01*
X528795Y525460D01*
X529157Y525136D01*
X529176Y525117D01*
X529233Y525060D01*
X529328Y524946D01*
X529442Y524812D01*
X529595Y524641D01*
X529747Y524432D01*
X529918Y524184D01*
X530090Y523898D01*
X530261Y523594D01*
X530432Y523251D01*
X530585Y522889D01*
X530737Y522489D01*
X530851Y522071D01*
X530946Y521633D01*
X531004Y521176D01*
X531023Y520681D01*
Y520643D01*
Y520547D01*
X531004Y520395D01*
X530984Y520205D01*
X530946Y519957D01*
X530908Y519671D01*
X530832Y519367D01*
X530737Y519024D01*
X530623Y518662D01*
X530470Y518301D01*
X530280Y517901D01*
X530071Y517520D01*
X529804Y517139D01*
X529499Y516777D01*
X529157Y516416D01*
X528757Y516073D01*
X528738Y516054D01*
X528662Y515997D01*
X528528Y515921D01*
X528357Y515806D01*
X528128Y515673D01*
X527862Y515540D01*
X527538Y515368D01*
X527177Y515216D01*
X526777Y515064D01*
X526339Y514912D01*
X525863Y514759D01*
X525330Y514626D01*
X524777Y514512D01*
X524187Y514435D01*
X523559Y514378D01*
X522893Y514359D01*
X522740D01*
X522569Y514378D01*
X522321Y514397D01*
X522017Y514416D01*
X521674Y514455D01*
X521274Y514512D01*
X520855Y514607D01*
X520398Y514702D01*
X519903Y514816D01*
X519408Y514988D01*
X518894Y515159D01*
X518380Y515387D01*
X517847Y515635D01*
X517333Y515921D01*
X516838Y516263D01*
X516800Y516282D01*
X516723Y516359D01*
X516590Y516454D01*
X516438Y516606D01*
X516228Y516796D01*
X516019Y517044D01*
X515771Y517310D01*
X515543Y517615D01*
X515296Y517958D01*
X515067Y518358D01*
X514839Y518777D01*
X514648Y519234D01*
X514496Y519710D01*
X514382Y520243D01*
X514305Y520795D01*
X514286Y521385D01*
X514325Y521499D01*
X517371D01*
Y521480D01*
Y521404D01*
X517390Y521290D01*
Y521138D01*
X517428Y520947D01*
X517466Y520719D01*
X517504Y520490D01*
X517580Y520224D01*
X517675Y519957D01*
X517790Y519671D01*
X517923Y519386D01*
X518094Y519081D01*
X518285Y518815D01*
X518513Y518529D01*
X518761Y518282D01*
X519065Y518034D01*
X519085Y518015D01*
X519142Y517977D01*
X519237Y517920D01*
X519370Y517844D01*
X519522Y517748D01*
X519713Y517653D01*
X519941Y517539D01*
X520189Y517444D01*
X520455Y517330D01*
X520741Y517215D01*
X521065Y517120D01*
X521388Y517025D01*
X521750Y516949D01*
X522112Y516892D01*
X522493Y516854D01*
X522893Y516834D01*
X523121D01*
X523273Y516854D01*
X523464Y516873D01*
X523692Y516892D01*
X523940Y516930D01*
X524206Y516968D01*
X524777Y517082D01*
X525368Y517272D01*
X525672Y517387D01*
X525958Y517520D01*
X526243Y517691D01*
X526491Y517863D01*
X526510Y517882D01*
X526548Y517920D01*
X526605Y517977D01*
X526700Y518053D01*
X526796Y518148D01*
X526910Y518282D01*
X527043Y518434D01*
X527157Y518605D01*
X527291Y518777D01*
X527405Y518986D01*
X527519Y519214D01*
X527614Y519462D01*
X527710Y519729D01*
X527767Y520014D01*
X527805Y520319D01*
X527824Y520643D01*
Y520662D01*
Y520719D01*
Y520795D01*
X527805Y520909D01*
X527786Y521042D01*
X527767Y521214D01*
X527671Y521594D01*
X527538Y522013D01*
X527443Y522242D01*
X527329Y522470D01*
X527196Y522699D01*
X527043Y522927D01*
X526872Y523137D01*
X526662Y523346D01*
X526643Y523365D01*
X526605Y523403D01*
X526529Y523460D01*
X526434Y523537D01*
X526301Y523613D01*
X526148Y523727D01*
X525958Y523860D01*
X525729Y523994D01*
X525463Y524127D01*
X525177Y524279D01*
X524835Y524432D01*
X524473Y524584D01*
X524073Y524736D01*
X523616Y524888D01*
X523140Y525041D01*
X522607Y525193D01*
X522588D01*
X522569Y525212D01*
X522512D01*
X522455Y525231D01*
X522264Y525288D01*
X522017Y525364D01*
X521712Y525460D01*
X521350Y525574D01*
X520969Y525707D01*
X520551Y525859D01*
X520094Y526031D01*
X519637Y526221D01*
X519161Y526450D01*
X518704Y526678D01*
X518228Y526945D01*
X517790Y527211D01*
X517352Y527497D01*
X516952Y527821D01*
X516933Y527840D01*
X516857Y527897D01*
X516762Y527992D01*
X516628Y528144D01*
X516476Y528316D01*
X516305Y528506D01*
X516133Y528754D01*
X515943Y529020D01*
X515753Y529325D01*
X515581Y529668D01*
X515410Y530029D01*
X515257Y530410D01*
X515124Y530829D01*
X515029Y531267D01*
X514953Y531743D01*
X514934Y532219D01*
Y532257D01*
Y532333D01*
X514953Y532485D01*
X514972Y532676D01*
X515010Y532923D01*
X515048Y533190D01*
X515124Y533514D01*
X515200Y533837D01*
X515315Y534199D01*
X515467Y534580D01*
X515638Y534961D01*
X515848Y535341D01*
X516095Y535741D01*
X516381Y536122D01*
X516723Y536484D01*
X517104Y536846D01*
X517123Y536865D01*
X517200Y536922D01*
X517333Y537017D01*
X517504Y537131D01*
X517714Y537284D01*
X517980Y537436D01*
X518285Y537607D01*
X518628Y537779D01*
X519027Y537950D01*
X519446Y538121D01*
X519922Y538274D01*
X520417Y538426D01*
X520969Y538540D01*
X521541Y538635D01*
X522150Y538692D01*
X522778Y538712D01*
X522950D01*
X523140Y538692D01*
D02*
G37*
G36*
X412575Y514683D02*
X409357D01*
Y525136D01*
X397857D01*
Y514683D01*
X394658D01*
Y538369D01*
X397857D01*
Y527649D01*
X409357D01*
Y538369D01*
X412575D01*
Y514683D01*
D02*
G37*
G36*
X501377D02*
X498160D01*
X486755Y532771D01*
X486659Y532733D01*
Y514683D01*
X483461D01*
Y538369D01*
X486659D01*
X498064Y520281D01*
X498160Y520319D01*
Y538369D01*
X501377D01*
Y514683D01*
D02*
G37*
G36*
X572511D02*
X569769D01*
X560953Y538369D01*
X564438D01*
X570550Y520890D01*
X571102Y518929D01*
X571197D01*
X571730Y520890D01*
X577842Y538369D01*
X581307D01*
X572511Y514683D01*
D02*
G37*
G36*
X598843Y535836D02*
X587629D01*
Y528182D01*
X597358D01*
Y525650D01*
X587629D01*
Y517177D01*
X599014D01*
Y514683D01*
X584430D01*
Y538369D01*
X598843D01*
Y535836D01*
D02*
G37*
G36*
X559411D02*
X548197D01*
Y528182D01*
X557926D01*
Y525650D01*
X548197D01*
Y517177D01*
X559583D01*
Y514683D01*
X544998D01*
Y538369D01*
X559411D01*
Y535836D01*
D02*
G37*
G36*
X539115Y514683D02*
X535897D01*
Y538369D01*
X539115D01*
Y514683D01*
D02*
G37*
G36*
X457376Y535836D02*
X449550D01*
Y514683D01*
X446352D01*
Y535836D01*
X438640D01*
Y538369D01*
X457376D01*
Y535836D01*
D02*
G37*
G36*
X382910Y538350D02*
X383177Y538331D01*
X383501Y538312D01*
X383862Y538274D01*
X384262Y538197D01*
X384700Y538121D01*
X385176Y538026D01*
X385652Y537893D01*
X386147Y537740D01*
X386623Y537550D01*
X387118Y537322D01*
X387575Y537055D01*
X388013Y536750D01*
X388432Y536408D01*
X388451Y536389D01*
X388527Y536312D01*
X388622Y536217D01*
X388756Y536046D01*
X388927Y535855D01*
X389098Y535627D01*
X389289Y535341D01*
X389498Y535037D01*
X389689Y534694D01*
X389879Y534294D01*
X390050Y533875D01*
X390222Y533418D01*
X390355Y532923D01*
X390450Y532409D01*
X390526Y531857D01*
X390545Y531267D01*
Y531229D01*
Y531134D01*
X390526Y530962D01*
X390507Y530734D01*
X390488Y530467D01*
X390431Y530143D01*
X390374Y529801D01*
X390279Y529420D01*
X390165Y529020D01*
X390031Y528601D01*
X389860Y528163D01*
X389651Y527725D01*
X389403Y527307D01*
X389137Y526888D01*
X388813Y526488D01*
X388432Y526107D01*
X388413Y526088D01*
X388337Y526031D01*
X388223Y525936D01*
X388051Y525802D01*
X387823Y525669D01*
X387575Y525498D01*
X387271Y525326D01*
X386909Y525155D01*
X386509Y524965D01*
X386071Y524793D01*
X385595Y524622D01*
X385062Y524489D01*
X384491Y524355D01*
X383881Y524260D01*
X383234Y524203D01*
X382549Y524184D01*
X376684D01*
Y514683D01*
X373486D01*
Y538369D01*
X382720D01*
X382910Y538350D01*
D02*
G37*
G36*
X469447Y538692D02*
X469581D01*
X469866Y538673D01*
X470247Y538616D01*
X470666Y538559D01*
X471123Y538464D01*
X471637Y538350D01*
X472189Y538197D01*
X472741Y538007D01*
X473331Y537779D01*
X473903Y537493D01*
X474493Y537169D01*
X475064Y536788D01*
X475616Y536350D01*
X476130Y535836D01*
X476168Y535798D01*
X476244Y535703D01*
X476378Y535551D01*
X476549Y535322D01*
X476759Y535037D01*
X476987Y534694D01*
X477235Y534313D01*
X477482Y533856D01*
X477730Y533361D01*
X477977Y532809D01*
X478206Y532219D01*
X478415Y531571D01*
X478586Y530905D01*
X478720Y530182D01*
X478796Y529420D01*
X478834Y528620D01*
Y524393D01*
Y524374D01*
Y524336D01*
Y524279D01*
Y524203D01*
X478815Y524089D01*
Y523975D01*
Y523841D01*
X478796Y523670D01*
X478758Y523308D01*
X478701Y522870D01*
X478605Y522394D01*
X478491Y521861D01*
X478358Y521309D01*
X478167Y520738D01*
X477958Y520128D01*
X477692Y519519D01*
X477387Y518929D01*
X477025Y518320D01*
X476606Y517748D01*
X476130Y517196D01*
X476092Y517158D01*
X476016Y517082D01*
X475864Y516930D01*
X475635Y516758D01*
X475369Y516530D01*
X475064Y516301D01*
X474683Y516035D01*
X474245Y515787D01*
X473769Y515521D01*
X473255Y515254D01*
X472684Y515026D01*
X472056Y514797D01*
X471389Y514626D01*
X470685Y514474D01*
X469942Y514397D01*
X469162Y514359D01*
X468971D01*
X468876Y514378D01*
X468762D01*
X468476Y514397D01*
X468114Y514455D01*
X467715Y514512D01*
X467258Y514607D01*
X466763Y514721D01*
X466229Y514873D01*
X465696Y515045D01*
X465125Y515273D01*
X464554Y515559D01*
X464002Y515882D01*
X463450Y516263D01*
X462917Y516701D01*
X462402Y517196D01*
X462383Y517234D01*
X462288Y517330D01*
X462155Y517482D01*
X462003Y517710D01*
X461793Y517996D01*
X461584Y518339D01*
X461355Y518719D01*
X461108Y519176D01*
X460860Y519671D01*
X460632Y520205D01*
X460422Y520795D01*
X460213Y521442D01*
X460061Y522109D01*
X459927Y522832D01*
X459851Y523594D01*
X459813Y524393D01*
Y528620D01*
Y528639D01*
Y528677D01*
Y528734D01*
Y528811D01*
X459832Y528925D01*
Y529039D01*
X459851Y529344D01*
X459889Y529706D01*
X459946Y530143D01*
X460022Y530619D01*
X460137Y531134D01*
X460270Y531705D01*
X460441Y532276D01*
X460651Y532866D01*
X460898Y533475D01*
X461203Y534085D01*
X461546Y534675D01*
X461945Y535265D01*
X462402Y535817D01*
X462440Y535855D01*
X462517Y535951D01*
X462669Y536084D01*
X462878Y536274D01*
X463126Y536484D01*
X463450Y536731D01*
X463811Y536998D01*
X464230Y537264D01*
X464687Y537531D01*
X465201Y537798D01*
X465753Y538045D01*
X466363Y538254D01*
X466991Y538445D01*
X467676Y538597D01*
X468400Y538673D01*
X469162Y538712D01*
X469352D01*
X469447Y538692D01*
D02*
G37*
G36*
X426798D02*
X426931D01*
X427216Y538673D01*
X427597Y538616D01*
X428016Y538559D01*
X428473Y538464D01*
X428987Y538350D01*
X429539Y538197D01*
X430091Y538007D01*
X430682Y537779D01*
X431253Y537493D01*
X431843Y537169D01*
X432414Y536788D01*
X432967Y536350D01*
X433481Y535836D01*
X433519Y535798D01*
X433595Y535703D01*
X433728Y535551D01*
X433899Y535322D01*
X434109Y535037D01*
X434337Y534694D01*
X434585Y534313D01*
X434832Y533856D01*
X435080Y533361D01*
X435327Y532809D01*
X435556Y532219D01*
X435765Y531571D01*
X435937Y530905D01*
X436070Y530182D01*
X436146Y529420D01*
X436184Y528620D01*
Y524393D01*
Y524374D01*
Y524336D01*
Y524279D01*
Y524203D01*
X436165Y524089D01*
Y523975D01*
Y523841D01*
X436146Y523670D01*
X436108Y523308D01*
X436051Y522870D01*
X435956Y522394D01*
X435842Y521861D01*
X435708Y521309D01*
X435518Y520738D01*
X435309Y520128D01*
X435042Y519519D01*
X434737Y518929D01*
X434375Y518320D01*
X433957Y517748D01*
X433481Y517196D01*
X433443Y517158D01*
X433366Y517082D01*
X433214Y516930D01*
X432986Y516758D01*
X432719Y516530D01*
X432414Y516301D01*
X432034Y516035D01*
X431596Y515787D01*
X431120Y515521D01*
X430606Y515254D01*
X430034Y515026D01*
X429406Y514797D01*
X428740Y514626D01*
X428035Y514474D01*
X427293Y514397D01*
X426512Y514359D01*
X426322D01*
X426226Y514378D01*
X426112D01*
X425827Y514397D01*
X425465Y514455D01*
X425065Y514512D01*
X424608Y514607D01*
X424113Y514721D01*
X423580Y514873D01*
X423047Y515045D01*
X422475Y515273D01*
X421904Y515559D01*
X421352Y515882D01*
X420800Y516263D01*
X420267Y516701D01*
X419753Y517196D01*
X419734Y517234D01*
X419639Y517330D01*
X419505Y517482D01*
X419353Y517710D01*
X419143Y517996D01*
X418934Y518339D01*
X418706Y518719D01*
X418458Y519176D01*
X418211Y519671D01*
X417982Y520205D01*
X417773Y520795D01*
X417563Y521442D01*
X417411Y522109D01*
X417278Y522832D01*
X417201Y523594D01*
X417163Y524393D01*
Y528620D01*
Y528639D01*
Y528677D01*
Y528734D01*
Y528811D01*
X417182Y528925D01*
Y529039D01*
X417201Y529344D01*
X417240Y529706D01*
X417297Y530143D01*
X417373Y530619D01*
X417487Y531134D01*
X417620Y531705D01*
X417792Y532276D01*
X418001Y532866D01*
X418249Y533475D01*
X418553Y534085D01*
X418896Y534675D01*
X419296Y535265D01*
X419753Y535817D01*
X419791Y535855D01*
X419867Y535951D01*
X420019Y536084D01*
X420229Y536274D01*
X420476Y536484D01*
X420800Y536731D01*
X421162Y536998D01*
X421581Y537264D01*
X422038Y537531D01*
X422552Y537798D01*
X423104Y538045D01*
X423713Y538254D01*
X424341Y538445D01*
X425027Y538597D01*
X425750Y538673D01*
X426512Y538712D01*
X426702D01*
X426798Y538692D01*
D02*
G37*
G36*
X485450Y477924D02*
X482233D01*
Y481199D01*
X485450D01*
Y477924D01*
D02*
G37*
G36*
X498950Y473716D02*
X499159D01*
X499388Y473678D01*
X499673Y473640D01*
X499978Y473602D01*
X500302Y473526D01*
X500663Y473431D01*
X501025Y473336D01*
X501387Y473183D01*
X501749Y473031D01*
X502110Y472841D01*
X502472Y472612D01*
X502796Y472365D01*
X503100Y472060D01*
X503119Y472041D01*
X503177Y471984D01*
X503253Y471889D01*
X503348Y471755D01*
X503462Y471565D01*
X503595Y471356D01*
X503729Y471089D01*
X503881Y470803D01*
X504033Y470461D01*
X504167Y470080D01*
X504300Y469661D01*
X504414Y469185D01*
X504509Y468690D01*
X504605Y468138D01*
X504643Y467548D01*
X504662Y466919D01*
Y455819D01*
X501463D01*
Y466862D01*
Y466881D01*
Y466957D01*
Y467091D01*
X501444Y467243D01*
Y467433D01*
X501406Y467643D01*
X501387Y467890D01*
X501349Y468138D01*
X501234Y468690D01*
X501063Y469223D01*
X500968Y469490D01*
X500835Y469737D01*
X500701Y469966D01*
X500530Y470156D01*
X500511Y470175D01*
X500492Y470194D01*
X500435Y470251D01*
X500359Y470308D01*
X500263Y470385D01*
X500149Y470461D01*
X499997Y470556D01*
X499845Y470651D01*
X499654Y470727D01*
X499445Y470822D01*
X499216Y470899D01*
X498969Y470975D01*
X498683Y471032D01*
X498397Y471089D01*
X498074Y471108D01*
X497731Y471127D01*
X497484D01*
X497350Y471108D01*
X497217Y471089D01*
X496855Y471051D01*
X496475Y470975D01*
X496037Y470880D01*
X495618Y470727D01*
X495218Y470537D01*
X495199D01*
X495180Y470518D01*
X495123Y470480D01*
X495047Y470423D01*
X494856Y470289D01*
X494628Y470118D01*
X494361Y469871D01*
X494095Y469585D01*
X493828Y469261D01*
X493580Y468880D01*
Y455819D01*
X490382D01*
Y473412D01*
X493238D01*
X493466Y470784D01*
X493485Y470803D01*
X493504Y470842D01*
X493561Y470918D01*
X493618Y471013D01*
X493714Y471127D01*
X493809Y471279D01*
X494075Y471584D01*
X494380Y471927D01*
X494761Y472289D01*
X495180Y472650D01*
X495656Y472955D01*
X495675D01*
X495713Y472993D01*
X495789Y473031D01*
X495884Y473069D01*
X496018Y473145D01*
X496170Y473203D01*
X496341Y473279D01*
X496532Y473355D01*
X496741Y473412D01*
X496989Y473488D01*
X497503Y473621D01*
X498074Y473698D01*
X498683Y473736D01*
X498816D01*
X498950Y473716D01*
D02*
G37*
G36*
X614370D02*
X614541D01*
X614770Y473678D01*
X615037Y473640D01*
X615322Y473583D01*
X615646Y473507D01*
X615970Y473412D01*
X616312Y473279D01*
X616674Y473145D01*
X617036Y472955D01*
X617379Y472746D01*
X617721Y472498D01*
X618045Y472212D01*
X618350Y471889D01*
X618369Y471870D01*
X618426Y471794D01*
X618502Y471698D01*
X618597Y471546D01*
X618711Y471356D01*
X618845Y471108D01*
X618978Y470822D01*
X619130Y470499D01*
X619282Y470137D01*
X619416Y469718D01*
X619549Y469261D01*
X619663Y468766D01*
X619759Y468214D01*
X619854Y467643D01*
X619892Y466995D01*
X619911Y466329D01*
Y455819D01*
X616712D01*
Y466367D01*
Y466405D01*
Y466481D01*
Y466615D01*
X616693Y466786D01*
Y467015D01*
X616674Y467243D01*
X616636Y467510D01*
X616598Y467814D01*
X616503Y468404D01*
X616331Y469014D01*
X616236Y469299D01*
X616122Y469585D01*
X615970Y469832D01*
X615817Y470042D01*
X615798Y470061D01*
X615779Y470080D01*
X615722Y470137D01*
X615646Y470213D01*
X615551Y470289D01*
X615436Y470385D01*
X615303Y470480D01*
X615151Y470594D01*
X614960Y470689D01*
X614770Y470784D01*
X614541Y470880D01*
X614313Y470956D01*
X614046Y471032D01*
X613761Y471089D01*
X613456Y471108D01*
X613133Y471127D01*
X612980D01*
X612866Y471108D01*
X612714Y471089D01*
X612561Y471070D01*
X612181Y470994D01*
X611762Y470842D01*
X611533Y470765D01*
X611324Y470651D01*
X611095Y470518D01*
X610886Y470365D01*
X610676Y470194D01*
X610467Y469985D01*
X610448Y469966D01*
X610429Y469928D01*
X610372Y469871D01*
X610315Y469775D01*
X610219Y469680D01*
X610143Y469547D01*
X610048Y469375D01*
X609934Y469204D01*
X609839Y469014D01*
X609743Y468785D01*
X609629Y468557D01*
X609553Y468290D01*
X609382Y467738D01*
X609325Y467433D01*
X609286Y467110D01*
Y466995D01*
Y455819D01*
X606069D01*
Y466367D01*
Y466405D01*
Y466481D01*
Y466596D01*
X606050Y466767D01*
Y466976D01*
X606012Y467205D01*
X605993Y467471D01*
X605955Y467757D01*
X605840Y468347D01*
X605669Y468937D01*
X605574Y469223D01*
X605440Y469509D01*
X605307Y469756D01*
X605136Y469985D01*
X605117Y470004D01*
X605098Y470042D01*
X605041Y470099D01*
X604964Y470156D01*
X604869Y470251D01*
X604755Y470346D01*
X604622Y470442D01*
X604469Y470556D01*
X604298Y470670D01*
X604089Y470765D01*
X603879Y470860D01*
X603651Y470956D01*
X603384Y471013D01*
X603118Y471070D01*
X602813Y471108D01*
X602508Y471127D01*
X602261D01*
X602146Y471108D01*
X601994Y471089D01*
X601651Y471051D01*
X601271Y470975D01*
X600871Y470880D01*
X600471Y470727D01*
X600090Y470518D01*
X600071D01*
X600052Y470499D01*
X599938Y470404D01*
X599766Y470270D01*
X599557Y470080D01*
X599329Y469851D01*
X599081Y469566D01*
X598853Y469223D01*
X598643Y468842D01*
Y455819D01*
X595444D01*
Y473412D01*
X598300D01*
X598529Y471108D01*
X598548Y471127D01*
X598567Y471165D01*
X598624Y471222D01*
X598681Y471317D01*
X598872Y471546D01*
X599119Y471832D01*
X599443Y472136D01*
X599824Y472460D01*
X600243Y472764D01*
X600718Y473050D01*
X600737D01*
X600776Y473088D01*
X600852Y473107D01*
X600947Y473164D01*
X601080Y473203D01*
X601233Y473260D01*
X601404Y473336D01*
X601613Y473393D01*
X601823Y473450D01*
X602051Y473526D01*
X602584Y473621D01*
X603175Y473698D01*
X603803Y473736D01*
X603974D01*
X604089Y473716D01*
X604241D01*
X604431Y473698D01*
X604622Y473659D01*
X604831Y473640D01*
X605307Y473545D01*
X605821Y473393D01*
X606316Y473183D01*
X606564Y473069D01*
X606811Y472917D01*
X606830D01*
X606868Y472879D01*
X606925Y472841D01*
X607021Y472764D01*
X607135Y472688D01*
X607249Y472574D01*
X607382Y472460D01*
X607535Y472308D01*
X607687Y472155D01*
X607839Y471965D01*
X607992Y471774D01*
X608144Y471546D01*
X608315Y471317D01*
X608449Y471051D01*
X608582Y470784D01*
X608715Y470480D01*
X608734Y470499D01*
X608753Y470556D01*
X608811Y470632D01*
X608868Y470727D01*
X608944Y470860D01*
X609058Y471013D01*
X609305Y471356D01*
X609610Y471736D01*
X609991Y472136D01*
X610429Y472517D01*
X610905Y472860D01*
X610924Y472879D01*
X610962Y472898D01*
X611038Y472936D01*
X611152Y472993D01*
X611286Y473069D01*
X611438Y473145D01*
X611609Y473221D01*
X611819Y473298D01*
X612047Y473374D01*
X612295Y473450D01*
X612828Y473602D01*
X613437Y473698D01*
X613761Y473736D01*
X614218D01*
X614370Y473716D01*
D02*
G37*
G36*
X585258D02*
X585429D01*
X585658Y473678D01*
X585924Y473640D01*
X586210Y473583D01*
X586534Y473507D01*
X586857Y473412D01*
X587200Y473279D01*
X587562Y473145D01*
X587924Y472955D01*
X588266Y472746D01*
X588609Y472498D01*
X588933Y472212D01*
X589237Y471889D01*
X589256Y471870D01*
X589314Y471794D01*
X589390Y471698D01*
X589485Y471546D01*
X589599Y471356D01*
X589732Y471108D01*
X589866Y470822D01*
X590018Y470499D01*
X590170Y470137D01*
X590304Y469718D01*
X590437Y469261D01*
X590551Y468766D01*
X590646Y468214D01*
X590741Y467643D01*
X590780Y466995D01*
X590799Y466329D01*
Y455819D01*
X587600D01*
Y466367D01*
Y466405D01*
Y466481D01*
Y466615D01*
X587581Y466786D01*
Y467015D01*
X587562Y467243D01*
X587524Y467510D01*
X587486Y467814D01*
X587391Y468404D01*
X587219Y469014D01*
X587124Y469299D01*
X587010Y469585D01*
X586857Y469832D01*
X586705Y470042D01*
X586686Y470061D01*
X586667Y470080D01*
X586610Y470137D01*
X586534Y470213D01*
X586439Y470289D01*
X586324Y470385D01*
X586191Y470480D01*
X586039Y470594D01*
X585848Y470689D01*
X585658Y470784D01*
X585429Y470880D01*
X585201Y470956D01*
X584934Y471032D01*
X584649Y471089D01*
X584344Y471108D01*
X584020Y471127D01*
X583868D01*
X583754Y471108D01*
X583602Y471089D01*
X583449Y471070D01*
X583068Y470994D01*
X582650Y470842D01*
X582421Y470765D01*
X582212Y470651D01*
X581983Y470518D01*
X581774Y470365D01*
X581564Y470194D01*
X581355Y469985D01*
X581336Y469966D01*
X581317Y469928D01*
X581260Y469871D01*
X581203Y469775D01*
X581107Y469680D01*
X581031Y469547D01*
X580936Y469375D01*
X580822Y469204D01*
X580726Y469014D01*
X580631Y468785D01*
X580517Y468557D01*
X580441Y468290D01*
X580269Y467738D01*
X580212Y467433D01*
X580174Y467110D01*
Y466995D01*
Y455819D01*
X576957D01*
Y466367D01*
Y466405D01*
Y466481D01*
Y466596D01*
X576937Y466767D01*
Y466976D01*
X576899Y467205D01*
X576880Y467471D01*
X576842Y467757D01*
X576728Y468347D01*
X576557Y468937D01*
X576462Y469223D01*
X576328Y469509D01*
X576195Y469756D01*
X576024Y469985D01*
X576005Y470004D01*
X575985Y470042D01*
X575928Y470099D01*
X575852Y470156D01*
X575757Y470251D01*
X575643Y470346D01*
X575510Y470442D01*
X575357Y470556D01*
X575186Y470670D01*
X574976Y470765D01*
X574767Y470860D01*
X574539Y470956D01*
X574272Y471013D01*
X574005Y471070D01*
X573701Y471108D01*
X573396Y471127D01*
X573149D01*
X573034Y471108D01*
X572882Y471089D01*
X572539Y471051D01*
X572158Y470975D01*
X571759Y470880D01*
X571359Y470727D01*
X570978Y470518D01*
X570959D01*
X570940Y470499D01*
X570826Y470404D01*
X570654Y470270D01*
X570445Y470080D01*
X570216Y469851D01*
X569969Y469566D01*
X569740Y469223D01*
X569531Y468842D01*
Y455819D01*
X566332D01*
Y473412D01*
X569188D01*
X569417Y471108D01*
X569436Y471127D01*
X569455Y471165D01*
X569512Y471222D01*
X569569Y471317D01*
X569759Y471546D01*
X570007Y471832D01*
X570331Y472136D01*
X570711Y472460D01*
X571130Y472764D01*
X571606Y473050D01*
X571625D01*
X571663Y473088D01*
X571740Y473107D01*
X571835Y473164D01*
X571968Y473203D01*
X572120Y473260D01*
X572292Y473336D01*
X572501Y473393D01*
X572711Y473450D01*
X572939Y473526D01*
X573472Y473621D01*
X574062Y473698D01*
X574691Y473736D01*
X574862D01*
X574976Y473716D01*
X575129D01*
X575319Y473698D01*
X575510Y473659D01*
X575719Y473640D01*
X576195Y473545D01*
X576709Y473393D01*
X577204Y473183D01*
X577452Y473069D01*
X577699Y472917D01*
X577718D01*
X577756Y472879D01*
X577813Y472841D01*
X577909Y472764D01*
X578023Y472688D01*
X578137Y472574D01*
X578270Y472460D01*
X578423Y472308D01*
X578575Y472155D01*
X578727Y471965D01*
X578880Y471774D01*
X579032Y471546D01*
X579203Y471317D01*
X579337Y471051D01*
X579470Y470784D01*
X579603Y470480D01*
X579622Y470499D01*
X579641Y470556D01*
X579698Y470632D01*
X579755Y470727D01*
X579832Y470860D01*
X579946Y471013D01*
X580193Y471356D01*
X580498Y471736D01*
X580879Y472136D01*
X581317Y472517D01*
X581793Y472860D01*
X581812Y472879D01*
X581850Y472898D01*
X581926Y472936D01*
X582040Y472993D01*
X582173Y473069D01*
X582326Y473145D01*
X582497Y473221D01*
X582707Y473298D01*
X582935Y473374D01*
X583183Y473450D01*
X583716Y473602D01*
X584325Y473698D01*
X584649Y473736D01*
X585106D01*
X585258Y473716D01*
D02*
G37*
G36*
X396724D02*
X396933D01*
X397181Y473678D01*
X397466Y473640D01*
X397790Y473583D01*
X398152Y473507D01*
X398514Y473412D01*
X398914Y473298D01*
X399313Y473145D01*
X399713Y472974D01*
X400113Y472764D01*
X400513Y472517D01*
X400894Y472231D01*
X401255Y471908D01*
X401274Y471889D01*
X401332Y471832D01*
X401427Y471717D01*
X401541Y471584D01*
X401693Y471413D01*
X401846Y471203D01*
X402017Y470956D01*
X402188Y470670D01*
X402360Y470365D01*
X402531Y470023D01*
X402683Y469661D01*
X402817Y469261D01*
X402931Y468842D01*
X403026Y468385D01*
X403064Y467928D01*
X403083Y467433D01*
X403045Y467338D01*
X400132D01*
Y467357D01*
Y467414D01*
Y467490D01*
X400113Y467605D01*
X400094Y467757D01*
X400075Y467909D01*
X400037Y468100D01*
X399999Y468290D01*
X399885Y468728D01*
X399694Y469185D01*
X399580Y469414D01*
X399428Y469642D01*
X399275Y469871D01*
X399085Y470080D01*
X399066Y470099D01*
X399047Y470137D01*
X398971Y470194D01*
X398895Y470251D01*
X398799Y470346D01*
X398666Y470442D01*
X398533Y470537D01*
X398361Y470651D01*
X397981Y470860D01*
X397524Y471051D01*
X397276Y471108D01*
X397009Y471165D01*
X396724Y471203D01*
X396438Y471222D01*
X396343D01*
X396210Y471203D01*
X396058D01*
X395867Y471165D01*
X395639Y471127D01*
X395391Y471070D01*
X395125Y470994D01*
X394839Y470899D01*
X394553Y470765D01*
X394268Y470632D01*
X393982Y470442D01*
X393716Y470232D01*
X393449Y469985D01*
X393201Y469699D01*
X392992Y469375D01*
X392973Y469356D01*
X392954Y469299D01*
X392897Y469185D01*
X392821Y469052D01*
X392745Y468880D01*
X392649Y468652D01*
X392554Y468423D01*
X392459Y468138D01*
X392364Y467833D01*
X392269Y467490D01*
X392173Y467129D01*
X392097Y466748D01*
X392021Y466329D01*
X391964Y465891D01*
X391945Y465434D01*
X391926Y464958D01*
Y464273D01*
Y464235D01*
Y464158D01*
Y464025D01*
X391945Y463835D01*
X391964Y463606D01*
X391983Y463340D01*
X392021Y463035D01*
X392059Y462731D01*
X392116Y462369D01*
X392192Y462026D01*
X392383Y461264D01*
X392497Y460884D01*
X392649Y460522D01*
X392802Y460141D01*
X392992Y459798D01*
X393011Y459779D01*
X393049Y459722D01*
X393106Y459627D01*
X393201Y459513D01*
X393316Y459379D01*
X393449Y459227D01*
X393620Y459056D01*
X393830Y458884D01*
X394058Y458713D01*
X394306Y458542D01*
X394591Y458389D01*
X394896Y458256D01*
X395239Y458142D01*
X395601Y458047D01*
X396000Y457990D01*
X396438Y457971D01*
X396591D01*
X396686Y457990D01*
X396819Y458008D01*
X396971Y458028D01*
X397314Y458104D01*
X397733Y458218D01*
X398152Y458389D01*
X398380Y458504D01*
X398609Y458637D01*
X398818Y458789D01*
X399028Y458960D01*
X399047Y458980D01*
X399085Y458999D01*
X399123Y459056D01*
X399199Y459132D01*
X399275Y459227D01*
X399371Y459341D01*
X399580Y459627D01*
X399789Y459989D01*
X399961Y460408D01*
X400037Y460617D01*
X400094Y460864D01*
X400113Y461112D01*
X400132Y461379D01*
X403026D01*
X403083Y461283D01*
Y461264D01*
Y461188D01*
Y461055D01*
X403064Y460903D01*
X403026Y460693D01*
X402988Y460465D01*
X402931Y460217D01*
X402855Y459932D01*
X402760Y459608D01*
X402626Y459303D01*
X402474Y458960D01*
X402284Y458618D01*
X402055Y458275D01*
X401789Y457932D01*
X401484Y457590D01*
X401122Y457247D01*
X401103Y457228D01*
X401027Y457171D01*
X400913Y457095D01*
X400760Y456980D01*
X400570Y456847D01*
X400342Y456695D01*
X400075Y456542D01*
X399789Y456371D01*
X399447Y456200D01*
X399085Y456047D01*
X398704Y455895D01*
X398304Y455762D01*
X397866Y455667D01*
X397409Y455571D01*
X396933Y455514D01*
X396438Y455495D01*
X396267D01*
X396077Y455514D01*
X395829Y455533D01*
X395524Y455571D01*
X395163Y455628D01*
X394763Y455705D01*
X394325Y455800D01*
X393868Y455933D01*
X393411Y456105D01*
X392935Y456314D01*
X392459Y456542D01*
X391983Y456828D01*
X391526Y457171D01*
X391107Y457552D01*
X390707Y457990D01*
X390688Y458028D01*
X390612Y458104D01*
X390517Y458256D01*
X390384Y458447D01*
X390231Y458694D01*
X390060Y458980D01*
X389889Y459322D01*
X389698Y459722D01*
X389508Y460160D01*
X389336Y460636D01*
X389165Y461150D01*
X389013Y461702D01*
X388879Y462292D01*
X388784Y462921D01*
X388708Y463587D01*
X388689Y464273D01*
Y464958D01*
Y464977D01*
Y464996D01*
Y465053D01*
Y465130D01*
X388708Y465320D01*
X388727Y465587D01*
X388746Y465891D01*
X388803Y466272D01*
X388860Y466672D01*
X388937Y467129D01*
X389051Y467605D01*
X389184Y468119D01*
X389336Y468633D01*
X389546Y469166D01*
X389774Y469680D01*
X390041Y470213D01*
X390346Y470708D01*
X390707Y471203D01*
X390726Y471241D01*
X390803Y471317D01*
X390917Y471432D01*
X391088Y471603D01*
X391298Y471794D01*
X391545Y472003D01*
X391850Y472231D01*
X392192Y472479D01*
X392573Y472707D01*
X393011Y472936D01*
X393468Y473145D01*
X393982Y473336D01*
X394534Y473507D01*
X395125Y473621D01*
X395772Y473716D01*
X396438Y473736D01*
X396572D01*
X396724Y473716D01*
D02*
G37*
G36*
X543789Y476972D02*
X543770Y476953D01*
X543732Y476915D01*
X543675Y476839D01*
X543599Y476744D01*
X543484Y476611D01*
X543370Y476458D01*
X543218Y476268D01*
X543065Y476078D01*
X542894Y475849D01*
X542704Y475621D01*
X542494Y475354D01*
X542285Y475068D01*
X541828Y474459D01*
X541352Y473793D01*
X540838Y473088D01*
X540324Y472327D01*
X539829Y471546D01*
X539333Y470746D01*
X538858Y469947D01*
X538439Y469128D01*
X538039Y468328D01*
X537715Y467548D01*
Y467528D01*
X537696Y467510D01*
X537677Y467452D01*
X537639Y467357D01*
X537620Y467262D01*
X537563Y467148D01*
X537525Y466995D01*
X537468Y466824D01*
X537410Y466653D01*
X537353Y466443D01*
X537220Y465986D01*
X537068Y465472D01*
X536935Y464882D01*
X536782Y464235D01*
X536630Y463530D01*
X536497Y462769D01*
X536382Y461969D01*
X536287Y461131D01*
X536211Y460236D01*
X536154Y459322D01*
X536135Y458389D01*
Y455819D01*
X532936D01*
Y458389D01*
Y458408D01*
Y458447D01*
Y458523D01*
Y458637D01*
Y458751D01*
X532955Y458922D01*
Y459094D01*
X532974Y459303D01*
Y459513D01*
X532993Y459760D01*
X533012Y460027D01*
X533050Y460312D01*
X533107Y460941D01*
X533184Y461607D01*
X533298Y462350D01*
X533412Y463111D01*
X533583Y463911D01*
X533774Y464730D01*
X534002Y465567D01*
X534269Y466405D01*
X534574Y467243D01*
X534916Y468062D01*
Y468081D01*
X534935Y468119D01*
X534973Y468176D01*
X535011Y468252D01*
X535069Y468366D01*
X535126Y468480D01*
X535202Y468633D01*
X535278Y468804D01*
X535373Y468995D01*
X535487Y469204D01*
X535735Y469661D01*
X536040Y470194D01*
X536382Y470784D01*
X536763Y471432D01*
X537182Y472136D01*
X537658Y472860D01*
X538153Y473640D01*
X538724Y474440D01*
X539315Y475259D01*
X539943Y476116D01*
X540628Y476972D01*
X528062D01*
Y479505D01*
X543789D01*
Y476972D01*
D02*
G37*
G36*
X485450Y455819D02*
X482233D01*
Y473412D01*
X485450D01*
Y455819D01*
D02*
G37*
G36*
X451750Y479486D02*
X452016Y479467D01*
X452340Y479448D01*
X452702Y479410D01*
X453101Y479333D01*
X453539Y479257D01*
X454015Y479162D01*
X454491Y479029D01*
X454986Y478876D01*
X455462Y478686D01*
X455957Y478457D01*
X456414Y478191D01*
X456852Y477886D01*
X457271Y477544D01*
X457290Y477525D01*
X457366Y477448D01*
X457462Y477353D01*
X457595Y477182D01*
X457766Y476991D01*
X457937Y476763D01*
X458128Y476477D01*
X458337Y476173D01*
X458528Y475830D01*
X458718Y475430D01*
X458889Y475011D01*
X459061Y474554D01*
X459194Y474059D01*
X459289Y473545D01*
X459366Y472993D01*
X459385Y472403D01*
Y472365D01*
Y472269D01*
X459366Y472098D01*
X459346Y471870D01*
X459327Y471603D01*
X459270Y471279D01*
X459213Y470937D01*
X459118Y470556D01*
X459004Y470156D01*
X458871Y469737D01*
X458699Y469299D01*
X458490Y468861D01*
X458242Y468442D01*
X457976Y468024D01*
X457652Y467624D01*
X457271Y467243D01*
X457252Y467224D01*
X457176Y467167D01*
X457062Y467072D01*
X456890Y466938D01*
X456662Y466805D01*
X456414Y466634D01*
X456110Y466462D01*
X455748Y466291D01*
X455348Y466101D01*
X454910Y465929D01*
X454434Y465758D01*
X453901Y465625D01*
X453330Y465491D01*
X452721Y465396D01*
X452073Y465339D01*
X451388Y465320D01*
X445523D01*
Y455819D01*
X442325D01*
Y479505D01*
X451559D01*
X451750Y479486D01*
D02*
G37*
G36*
X428673Y455819D02*
X425455D01*
Y481199D01*
X428673D01*
Y455819D01*
D02*
G37*
G36*
X414412Y473716D02*
X414660Y473698D01*
X414964Y473659D01*
X415288Y473602D01*
X415631Y473545D01*
X416011Y473469D01*
X416411Y473374D01*
X416792Y473241D01*
X417211Y473088D01*
X417592Y472917D01*
X417992Y472707D01*
X418372Y472479D01*
X418715Y472212D01*
X418734Y472193D01*
X418791Y472136D01*
X418887Y472060D01*
X419001Y471927D01*
X419134Y471774D01*
X419286Y471584D01*
X419458Y471356D01*
X419629Y471089D01*
X419800Y470803D01*
X419972Y470480D01*
X420124Y470118D01*
X420257Y469718D01*
X420372Y469299D01*
X420467Y468842D01*
X420524Y468347D01*
X420543Y467833D01*
Y459360D01*
Y459341D01*
Y459322D01*
Y459265D01*
Y459208D01*
Y459018D01*
X420562Y458770D01*
Y458504D01*
X420581Y458180D01*
X420638Y457533D01*
Y457494D01*
X420657Y457380D01*
X420695Y457209D01*
X420733Y456999D01*
X420771Y456733D01*
X420848Y456447D01*
X421000Y455819D01*
X417706D01*
Y455857D01*
X417687Y455952D01*
X417649Y456105D01*
X417611Y456295D01*
X417573Y456504D01*
X417516Y456733D01*
X417439Y457209D01*
Y457228D01*
X417420Y457323D01*
Y457437D01*
X417401Y457590D01*
X417382Y457780D01*
X417363Y457990D01*
X417344Y458447D01*
X417325Y458427D01*
X417306Y458389D01*
X417249Y458332D01*
X417192Y458237D01*
X417097Y458123D01*
X416983Y458008D01*
X416716Y457704D01*
X416373Y457361D01*
X415973Y457019D01*
X415516Y456657D01*
X415002Y456333D01*
X414983D01*
X414945Y456295D01*
X414869Y456257D01*
X414755Y456200D01*
X414621Y456143D01*
X414469Y456067D01*
X414279Y455990D01*
X414088Y455914D01*
X413860Y455838D01*
X413631Y455762D01*
X413098Y455628D01*
X412527Y455533D01*
X412222Y455514D01*
X411918Y455495D01*
X411804D01*
X411651Y455514D01*
X411461D01*
X411232Y455533D01*
X410966Y455571D01*
X410680Y455610D01*
X410357Y455667D01*
X410014Y455743D01*
X409671Y455838D01*
X409328Y455952D01*
X408986Y456085D01*
X408643Y456238D01*
X408300Y456428D01*
X407996Y456638D01*
X407710Y456885D01*
X407691Y456904D01*
X407653Y456942D01*
X407577Y457037D01*
X407481Y457133D01*
X407386Y457285D01*
X407253Y457456D01*
X407139Y457666D01*
X407006Y457894D01*
X406872Y458142D01*
X406739Y458447D01*
X406606Y458751D01*
X406510Y459094D01*
X406415Y459475D01*
X406339Y459874D01*
X406301Y460293D01*
X406282Y460750D01*
Y460788D01*
Y460864D01*
X406301Y460998D01*
X406320Y461169D01*
X406339Y461379D01*
X406396Y461626D01*
X406453Y461893D01*
X406530Y462197D01*
X406644Y462502D01*
X406777Y462826D01*
X406948Y463149D01*
X407139Y463473D01*
X407367Y463797D01*
X407653Y464120D01*
X407958Y464425D01*
X408319Y464692D01*
X408338Y464711D01*
X408415Y464749D01*
X408529Y464825D01*
X408700Y464920D01*
X408910Y465015D01*
X409157Y465148D01*
X409443Y465282D01*
X409785Y465415D01*
X410166Y465548D01*
X410585Y465663D01*
X411023Y465796D01*
X411518Y465891D01*
X412051Y465986D01*
X412622Y466062D01*
X413232Y466101D01*
X413860Y466120D01*
X417344D01*
Y467871D01*
Y467890D01*
Y467947D01*
Y468024D01*
X417325Y468119D01*
Y468252D01*
X417287Y468404D01*
X417230Y468747D01*
X417116Y469147D01*
X416944Y469547D01*
X416830Y469756D01*
X416716Y469947D01*
X416564Y470137D01*
X416392Y470308D01*
X416373Y470327D01*
X416354Y470346D01*
X416297Y470385D01*
X416221Y470461D01*
X416126Y470518D01*
X416011Y470594D01*
X415859Y470689D01*
X415707Y470765D01*
X415535Y470860D01*
X415326Y470937D01*
X415117Y471013D01*
X414869Y471089D01*
X414621Y471146D01*
X414336Y471184D01*
X414050Y471203D01*
X413727Y471222D01*
X413574D01*
X413460Y471203D01*
X413327D01*
X413174Y471184D01*
X412832Y471127D01*
X412432Y471032D01*
X412013Y470899D01*
X411594Y470708D01*
X411213Y470442D01*
X411194D01*
X411175Y470404D01*
X411061Y470308D01*
X410909Y470137D01*
X410737Y469909D01*
X410566Y469642D01*
X410414Y469318D01*
X410299Y468957D01*
X410280Y468766D01*
X410261Y468557D01*
X407215Y468538D01*
X407177Y468633D01*
Y468652D01*
Y468728D01*
Y468823D01*
X407196Y468957D01*
X407215Y469128D01*
X407234Y469318D01*
X407291Y469547D01*
X407367Y469794D01*
X407443Y470061D01*
X407558Y470327D01*
X407710Y470632D01*
X407881Y470918D01*
X408091Y471222D01*
X408338Y471527D01*
X408624Y471832D01*
X408967Y472136D01*
X408986Y472155D01*
X409062Y472212D01*
X409157Y472289D01*
X409309Y472384D01*
X409500Y472517D01*
X409728Y472650D01*
X409995Y472784D01*
X410299Y472936D01*
X410642Y473088D01*
X411023Y473221D01*
X411423Y473374D01*
X411861Y473488D01*
X412337Y473583D01*
X412832Y473659D01*
X413365Y473716D01*
X413917Y473736D01*
X414203D01*
X414412Y473716D01*
D02*
G37*
G36*
X367440Y476972D02*
X355788D01*
Y468804D01*
X365784D01*
Y466291D01*
X355788D01*
Y455819D01*
X352589D01*
Y479505D01*
X367440D01*
Y476972D01*
D02*
G37*
G36*
X554927Y479828D02*
X555175Y479809D01*
X555460Y479771D01*
X555803Y479714D01*
X556184Y479657D01*
X556584Y479562D01*
X557022Y479428D01*
X557460Y479276D01*
X557917Y479086D01*
X558373Y478857D01*
X558830Y478591D01*
X559287Y478267D01*
X559706Y477905D01*
X560106Y477487D01*
X560125Y477467D01*
X560201Y477372D01*
X560297Y477239D01*
X560430Y477048D01*
X560582Y476820D01*
X560753Y476535D01*
X560944Y476192D01*
X561134Y475811D01*
X561325Y475373D01*
X561515Y474897D01*
X561687Y474383D01*
X561839Y473812D01*
X561972Y473203D01*
X562067Y472555D01*
X562143Y471851D01*
X562162Y471127D01*
Y464178D01*
Y464158D01*
Y464139D01*
Y464082D01*
Y464006D01*
Y463911D01*
X562143Y463797D01*
X562124Y463511D01*
X562105Y463168D01*
X562048Y462788D01*
X561991Y462350D01*
X561915Y461874D01*
X561801Y461379D01*
X561667Y460864D01*
X561496Y460331D01*
X561306Y459798D01*
X561077Y459284D01*
X560792Y458770D01*
X560487Y458275D01*
X560125Y457818D01*
X560106Y457799D01*
X560030Y457723D01*
X559916Y457609D01*
X559744Y457456D01*
X559554Y457285D01*
X559306Y457076D01*
X559002Y456866D01*
X558678Y456657D01*
X558297Y456447D01*
X557898Y456238D01*
X557441Y456028D01*
X556946Y455857D01*
X556431Y455705D01*
X555860Y455590D01*
X555270Y455514D01*
X554642Y455495D01*
X554489D01*
X554318Y455514D01*
X554071Y455533D01*
X553785Y455571D01*
X553442Y455610D01*
X553061Y455686D01*
X552662Y455781D01*
X552224Y455914D01*
X551786Y456067D01*
X551329Y456257D01*
X550872Y456485D01*
X550415Y456733D01*
X549958Y457057D01*
X549539Y457418D01*
X549139Y457818D01*
X549120Y457837D01*
X549044Y457932D01*
X548949Y458066D01*
X548815Y458256D01*
X548663Y458485D01*
X548492Y458770D01*
X548301Y459113D01*
X548111Y459494D01*
X547921Y459932D01*
X547730Y460408D01*
X547559Y460922D01*
X547406Y461493D01*
X547273Y462102D01*
X547178Y462749D01*
X547102Y463454D01*
X547083Y464178D01*
Y471127D01*
Y471146D01*
Y471165D01*
Y471222D01*
Y471299D01*
Y471394D01*
X547102Y471508D01*
X547121Y471794D01*
X547140Y472136D01*
X547197Y472517D01*
X547254Y472955D01*
X547330Y473431D01*
X547445Y473926D01*
X547578Y474440D01*
X547749Y474973D01*
X547940Y475506D01*
X548168Y476020D01*
X548454Y476535D01*
X548758Y477030D01*
X549120Y477487D01*
X549139Y477505D01*
X549215Y477582D01*
X549330Y477696D01*
X549501Y477848D01*
X549710Y478039D01*
X549958Y478229D01*
X550243Y478439D01*
X550586Y478667D01*
X550948Y478895D01*
X551367Y479105D01*
X551805Y479295D01*
X552300Y479486D01*
X552833Y479638D01*
X553385Y479752D01*
X553975Y479828D01*
X554604Y479847D01*
X554756D01*
X554927Y479828D01*
D02*
G37*
G36*
X513763Y473412D02*
X517095D01*
Y471032D01*
X513763D01*
Y460351D01*
Y460331D01*
Y460293D01*
Y460236D01*
Y460141D01*
X513782Y459932D01*
X513820Y459665D01*
X513896Y459379D01*
X513972Y459094D01*
X514106Y458827D01*
X514277Y458599D01*
X514296Y458580D01*
X514372Y458523D01*
X514486Y458447D01*
X514639Y458351D01*
X514829Y458256D01*
X515058Y458180D01*
X515324Y458123D01*
X515629Y458104D01*
X515743D01*
X515819Y458123D01*
X516010Y458142D01*
X516257Y458180D01*
X516276D01*
X516314Y458199D01*
X516371Y458218D01*
X516447Y458237D01*
X516638Y458275D01*
X516809Y458332D01*
X517266Y456143D01*
X517247Y456124D01*
X517190Y456085D01*
X517114Y456028D01*
X517000Y455971D01*
X516847Y455895D01*
X516657Y455819D01*
X516447Y455743D01*
X516200Y455667D01*
X516162D01*
X516086Y455648D01*
X515933Y455610D01*
X515762Y455590D01*
X515553Y455552D01*
X515324Y455514D01*
X514810Y455495D01*
X514620D01*
X514486Y455514D01*
X514334Y455533D01*
X514144Y455552D01*
X513915Y455590D01*
X513687Y455648D01*
X513192Y455781D01*
X512944Y455876D01*
X512677Y455990D01*
X512430Y456124D01*
X512183Y456276D01*
X511935Y456447D01*
X511706Y456657D01*
X511687Y456676D01*
X511649Y456714D01*
X511592Y456790D01*
X511535Y456885D01*
X511440Y456999D01*
X511345Y457152D01*
X511231Y457342D01*
X511135Y457552D01*
X511021Y457799D01*
X510907Y458066D01*
X510812Y458370D01*
X510735Y458713D01*
X510659Y459075D01*
X510602Y459475D01*
X510564Y459894D01*
X510545Y460351D01*
Y471032D01*
X507765D01*
Y473412D01*
X510545D01*
Y477658D01*
X513763D01*
Y473412D01*
D02*
G37*
G36*
X470504Y473716D02*
X470771Y473698D01*
X471075Y473659D01*
X471437Y473602D01*
X471818Y473526D01*
X472256Y473412D01*
X472713Y473279D01*
X473170Y473126D01*
X473665Y472917D01*
X474141Y472669D01*
X474617Y472384D01*
X475073Y472041D01*
X475511Y471641D01*
X475930Y471203D01*
X475949Y471165D01*
X476025Y471089D01*
X476121Y470937D01*
X476273Y470746D01*
X476425Y470499D01*
X476597Y470194D01*
X476806Y469851D01*
X476997Y469452D01*
X477187Y469014D01*
X477396Y468538D01*
X477568Y468005D01*
X477739Y467433D01*
X477872Y466824D01*
X477968Y466177D01*
X478044Y465491D01*
X478063Y464768D01*
Y464425D01*
Y464406D01*
Y464387D01*
Y464330D01*
Y464254D01*
Y464158D01*
X478044Y464044D01*
X478025Y463778D01*
X478006Y463435D01*
X477949Y463054D01*
X477891Y462616D01*
X477796Y462140D01*
X477682Y461645D01*
X477549Y461131D01*
X477377Y460579D01*
X477168Y460046D01*
X476920Y459513D01*
X476654Y458980D01*
X476330Y458465D01*
X475949Y457990D01*
X475930Y457971D01*
X475854Y457875D01*
X475740Y457761D01*
X475569Y457609D01*
X475340Y457418D01*
X475093Y457209D01*
X474788Y456980D01*
X474445Y456752D01*
X474045Y456504D01*
X473627Y456276D01*
X473150Y456067D01*
X472636Y455895D01*
X472084Y455724D01*
X471494Y455610D01*
X470866Y455533D01*
X470199Y455495D01*
X470047D01*
X469857Y455514D01*
X469590Y455533D01*
X469285Y455571D01*
X468924Y455628D01*
X468543Y455705D01*
X468105Y455800D01*
X467648Y455933D01*
X467172Y456105D01*
X466696Y456314D01*
X466220Y456542D01*
X465744Y456828D01*
X465268Y457171D01*
X464830Y457552D01*
X464411Y457990D01*
X464392Y458028D01*
X464316Y458104D01*
X464221Y458256D01*
X464087Y458447D01*
X463916Y458694D01*
X463745Y458999D01*
X463554Y459341D01*
X463364Y459741D01*
X463155Y460179D01*
X462964Y460674D01*
X462793Y461188D01*
X462621Y461759D01*
X462488Y462369D01*
X462393Y463016D01*
X462317Y463701D01*
X462298Y464425D01*
Y464768D01*
Y464787D01*
Y464806D01*
Y464863D01*
Y464939D01*
X462317Y465148D01*
X462336Y465415D01*
X462355Y465758D01*
X462412Y466139D01*
X462469Y466576D01*
X462564Y467033D01*
X462678Y467528D01*
X462812Y468062D01*
X462983Y468595D01*
X463193Y469128D01*
X463440Y469661D01*
X463707Y470194D01*
X464030Y470708D01*
X464411Y471203D01*
X464430Y471241D01*
X464506Y471317D01*
X464640Y471432D01*
X464811Y471603D01*
X465020Y471794D01*
X465268Y472003D01*
X465573Y472231D01*
X465934Y472479D01*
X466315Y472707D01*
X466753Y472936D01*
X467229Y473145D01*
X467743Y473336D01*
X468295Y473507D01*
X468886Y473621D01*
X469495Y473716D01*
X470161Y473736D01*
X470314D01*
X470504Y473716D01*
D02*
G37*
G36*
X377970D02*
X378236Y473698D01*
X378541Y473659D01*
X378903Y473602D01*
X379283Y473526D01*
X379721Y473412D01*
X380178Y473279D01*
X380635Y473126D01*
X381130Y472917D01*
X381606Y472669D01*
X382082Y472384D01*
X382539Y472041D01*
X382977Y471641D01*
X383396Y471203D01*
X383415Y471165D01*
X383491Y471089D01*
X383586Y470937D01*
X383739Y470746D01*
X383891Y470499D01*
X384062Y470194D01*
X384272Y469851D01*
X384462Y469452D01*
X384653Y469014D01*
X384862Y468538D01*
X385033Y468005D01*
X385205Y467433D01*
X385338Y466824D01*
X385433Y466177D01*
X385509Y465491D01*
X385528Y464768D01*
Y464425D01*
Y464406D01*
Y464387D01*
Y464330D01*
Y464254D01*
Y464158D01*
X385509Y464044D01*
X385490Y463778D01*
X385471Y463435D01*
X385414Y463054D01*
X385357Y462616D01*
X385262Y462140D01*
X385148Y461645D01*
X385014Y461131D01*
X384843Y460579D01*
X384633Y460046D01*
X384386Y459513D01*
X384119Y458980D01*
X383796Y458465D01*
X383415Y457990D01*
X383396Y457971D01*
X383320Y457875D01*
X383206Y457761D01*
X383034Y457609D01*
X382806Y457418D01*
X382558Y457209D01*
X382254Y456980D01*
X381911Y456752D01*
X381511Y456504D01*
X381092Y456276D01*
X380616Y456067D01*
X380102Y455895D01*
X379550Y455724D01*
X378960Y455610D01*
X378331Y455533D01*
X377665Y455495D01*
X377513D01*
X377322Y455514D01*
X377056Y455533D01*
X376751Y455571D01*
X376389Y455628D01*
X376008Y455705D01*
X375571Y455800D01*
X375114Y455933D01*
X374638Y456105D01*
X374162Y456314D01*
X373686Y456542D01*
X373210Y456828D01*
X372733Y457171D01*
X372296Y457552D01*
X371877Y457990D01*
X371858Y458028D01*
X371781Y458104D01*
X371686Y458256D01*
X371553Y458447D01*
X371382Y458694D01*
X371210Y458999D01*
X371020Y459341D01*
X370830Y459741D01*
X370620Y460179D01*
X370430Y460674D01*
X370258Y461188D01*
X370087Y461759D01*
X369954Y462369D01*
X369859Y463016D01*
X369782Y463701D01*
X369763Y464425D01*
Y464768D01*
Y464787D01*
Y464806D01*
Y464863D01*
Y464939D01*
X369782Y465148D01*
X369801Y465415D01*
X369820Y465758D01*
X369878Y466139D01*
X369935Y466576D01*
X370030Y467033D01*
X370144Y467528D01*
X370277Y468062D01*
X370449Y468595D01*
X370658Y469128D01*
X370906Y469661D01*
X371172Y470194D01*
X371496Y470708D01*
X371877Y471203D01*
X371896Y471241D01*
X371972Y471317D01*
X372105Y471432D01*
X372277Y471603D01*
X372486Y471794D01*
X372733Y472003D01*
X373038Y472231D01*
X373400Y472479D01*
X373781Y472707D01*
X374219Y472936D01*
X374695Y473145D01*
X375209Y473336D01*
X375761Y473507D01*
X376351Y473621D01*
X376960Y473716D01*
X377627Y473736D01*
X377779D01*
X377970Y473716D01*
D02*
G37*
G36*
X584525Y450739D02*
X584792Y450720D01*
X585134Y450701D01*
X585515Y450644D01*
X585953Y450587D01*
X586410Y450492D01*
X586905Y450377D01*
X587419Y450244D01*
X587933Y450073D01*
X588447Y449863D01*
X588961Y449616D01*
X589456Y449349D01*
X589951Y449025D01*
X590389Y448645D01*
X590408Y448626D01*
X590485Y448550D01*
X590599Y448435D01*
X590751Y448264D01*
X590922Y448054D01*
X591113Y447807D01*
X591322Y447521D01*
X591532Y447179D01*
X591741Y446817D01*
X591951Y446398D01*
X592141Y445960D01*
X592293Y445484D01*
X592446Y444989D01*
X592541Y444437D01*
X592598Y443866D01*
X592617Y443275D01*
X592598Y443180D01*
X589513D01*
Y443199D01*
Y443275D01*
Y443390D01*
X589494Y443542D01*
X589475Y443732D01*
X589437Y443942D01*
X589399Y444189D01*
X589342Y444437D01*
X589266Y444722D01*
X589171Y445008D01*
X589056Y445313D01*
X588923Y445617D01*
X588752Y445922D01*
X588561Y446208D01*
X588352Y446512D01*
X588104Y446779D01*
X588085Y446798D01*
X588047Y446836D01*
X587952Y446912D01*
X587857Y447007D01*
X587705Y447121D01*
X587533Y447236D01*
X587324Y447369D01*
X587095Y447502D01*
X586829Y447636D01*
X586524Y447769D01*
X586201Y447883D01*
X585839Y447997D01*
X585458Y448093D01*
X585058Y448169D01*
X584620Y448207D01*
X584144Y448226D01*
X584030D01*
X583878Y448207D01*
X583687Y448188D01*
X583459Y448169D01*
X583192Y448111D01*
X582907Y448054D01*
X582583Y447978D01*
X582240Y447864D01*
X581878Y447731D01*
X581517Y447559D01*
X581155Y447369D01*
X580793Y447141D01*
X580431Y446855D01*
X580089Y446550D01*
X579765Y446188D01*
X579746Y446170D01*
X579689Y446093D01*
X579613Y445979D01*
X579498Y445827D01*
X579384Y445617D01*
X579251Y445389D01*
X579099Y445103D01*
X578946Y444780D01*
X578775Y444437D01*
X578642Y444037D01*
X578489Y443618D01*
X578375Y443161D01*
X578261Y442666D01*
X578185Y442152D01*
X578127Y441600D01*
X578109Y441029D01*
Y436116D01*
Y436078D01*
Y435983D01*
X578127Y435812D01*
Y435602D01*
X578166Y435317D01*
X578204Y435012D01*
X578261Y434669D01*
X578337Y434289D01*
X578413Y433889D01*
X578527Y433470D01*
X578680Y433032D01*
X578851Y432594D01*
X579041Y432156D01*
X579289Y431737D01*
X579556Y431318D01*
X579860Y430918D01*
X579879Y430899D01*
X579936Y430823D01*
X580051Y430728D01*
X580184Y430595D01*
X580355Y430442D01*
X580565Y430271D01*
X580812Y430100D01*
X581079Y429909D01*
X581402Y429719D01*
X581745Y429529D01*
X582107Y429357D01*
X582507Y429205D01*
X582926Y429072D01*
X583383Y428976D01*
X583859Y428900D01*
X584354Y428881D01*
X584696D01*
X584868Y428900D01*
X585077Y428919D01*
X585306D01*
X585553Y428957D01*
X586086Y429014D01*
X586638Y429110D01*
X587172Y429243D01*
X587438Y429319D01*
X587667Y429414D01*
X587686D01*
X587724Y429433D01*
X587781Y429471D01*
X587876Y429509D01*
X588085Y429624D01*
X588371Y429795D01*
X588657Y429986D01*
X588961Y430195D01*
X589266Y430462D01*
X589513Y430728D01*
Y436059D01*
X584144D01*
Y438573D01*
X592712D01*
Y429909D01*
Y429890D01*
X592674Y429852D01*
X592617Y429776D01*
X592541Y429681D01*
X592446Y429567D01*
X592331Y429433D01*
X592198Y429281D01*
X592027Y429110D01*
X591836Y428938D01*
X591627Y428748D01*
X591379Y428538D01*
X591132Y428329D01*
X590827Y428120D01*
X590504Y427910D01*
X590161Y427701D01*
X589780Y427491D01*
X589761Y427472D01*
X589685Y427453D01*
X589571Y427396D01*
X589399Y427320D01*
X589190Y427244D01*
X588942Y427148D01*
X588657Y427053D01*
X588314Y426958D01*
X587952Y426844D01*
X587533Y426749D01*
X587095Y426653D01*
X586600Y426577D01*
X586086Y426501D01*
X585553Y426444D01*
X584963Y426425D01*
X584354Y426406D01*
X584182D01*
X584068Y426425D01*
X583954D01*
X583668Y426444D01*
X583325Y426482D01*
X582926Y426558D01*
X582469Y426634D01*
X581974Y426749D01*
X581440Y426882D01*
X580907Y427072D01*
X580336Y427282D01*
X579765Y427548D01*
X579194Y427853D01*
X578642Y428215D01*
X578089Y428634D01*
X577575Y429110D01*
X577537Y429148D01*
X577461Y429243D01*
X577328Y429395D01*
X577156Y429605D01*
X576947Y429871D01*
X576719Y430195D01*
X576490Y430576D01*
X576243Y430995D01*
X575976Y431471D01*
X575747Y432004D01*
X575519Y432594D01*
X575310Y433203D01*
X575138Y433870D01*
X575005Y434574D01*
X574929Y435336D01*
X574891Y436116D01*
Y441010D01*
Y441029D01*
Y441067D01*
Y441124D01*
Y441200D01*
X574910Y441295D01*
Y441429D01*
X574929Y441733D01*
X574967Y442095D01*
X575024Y442514D01*
X575100Y442990D01*
X575214Y443504D01*
X575348Y444056D01*
X575519Y444608D01*
X575729Y445198D01*
X575976Y445789D01*
X576281Y446379D01*
X576623Y446950D01*
X577023Y447502D01*
X577480Y448035D01*
X577518Y448073D01*
X577594Y448150D01*
X577747Y448283D01*
X577956Y448454D01*
X578204Y448664D01*
X578508Y448892D01*
X578870Y449140D01*
X579289Y449406D01*
X579746Y449654D01*
X580241Y449901D01*
X580793Y450130D01*
X581383Y450339D01*
X582012Y450511D01*
X582697Y450644D01*
X583402Y450720D01*
X584144Y450758D01*
X584411D01*
X584525Y450739D01*
D02*
G37*
G36*
X363966Y444627D02*
X364213Y444589D01*
X364270D01*
X364327Y444570D01*
X364404Y444551D01*
X364575Y444513D01*
X364746Y444475D01*
X364308Y441486D01*
X362671Y441600D01*
X362461D01*
X362347Y441581D01*
X362214Y441562D01*
X361928Y441524D01*
X361586Y441447D01*
X361224Y441352D01*
X360862Y441200D01*
X360519Y440991D01*
X360481Y440972D01*
X360386Y440876D01*
X360215Y440743D01*
X360024Y440553D01*
X359815Y440305D01*
X359605Y440020D01*
X359377Y439677D01*
X359187Y439296D01*
Y426730D01*
X355988D01*
Y444323D01*
X358844D01*
X359149Y441752D01*
Y441771D01*
X359187Y441809D01*
X359225Y441886D01*
X359282Y441981D01*
X359358Y442095D01*
X359453Y442228D01*
X359663Y442533D01*
X359929Y442876D01*
X360253Y443237D01*
X360595Y443580D01*
X360995Y443885D01*
X361014D01*
X361052Y443923D01*
X361110Y443961D01*
X361186Y443999D01*
X361300Y444056D01*
X361414Y444132D01*
X361719Y444266D01*
X362100Y444399D01*
X362538Y444532D01*
X363014Y444608D01*
X363528Y444646D01*
X363756D01*
X363966Y444627D01*
D02*
G37*
G36*
X448960D02*
X449170D01*
X449398Y444589D01*
X449684Y444551D01*
X449988Y444513D01*
X450312Y444437D01*
X450674Y444342D01*
X451035Y444246D01*
X451397Y444094D01*
X451759Y443942D01*
X452121Y443751D01*
X452483Y443523D01*
X452806Y443275D01*
X453111Y442971D01*
X453130Y442952D01*
X453187Y442895D01*
X453263Y442799D01*
X453358Y442666D01*
X453473Y442476D01*
X453606Y442266D01*
X453739Y442000D01*
X453892Y441714D01*
X454044Y441371D01*
X454177Y440991D01*
X454310Y440572D01*
X454425Y440096D01*
X454520Y439601D01*
X454615Y439048D01*
X454653Y438458D01*
X454672Y437830D01*
Y426730D01*
X451473D01*
Y437773D01*
Y437792D01*
Y437868D01*
Y438001D01*
X451454Y438154D01*
Y438344D01*
X451416Y438553D01*
X451397Y438801D01*
X451359Y439048D01*
X451245Y439601D01*
X451074Y440134D01*
X450978Y440400D01*
X450845Y440648D01*
X450712Y440876D01*
X450540Y441067D01*
X450521Y441086D01*
X450502Y441105D01*
X450445Y441162D01*
X450369Y441219D01*
X450274Y441295D01*
X450160Y441371D01*
X450007Y441467D01*
X449855Y441562D01*
X449665Y441638D01*
X449455Y441733D01*
X449227Y441809D01*
X448979Y441886D01*
X448694Y441943D01*
X448408Y442000D01*
X448084Y442019D01*
X447742Y442038D01*
X447494D01*
X447361Y442019D01*
X447227Y442000D01*
X446866Y441962D01*
X446485Y441886D01*
X446047Y441790D01*
X445628Y441638D01*
X445228Y441447D01*
X445209D01*
X445190Y441429D01*
X445133Y441390D01*
X445057Y441333D01*
X444867Y441200D01*
X444638Y441029D01*
X444372Y440781D01*
X444105Y440496D01*
X443838Y440172D01*
X443591Y439791D01*
Y426730D01*
X440392D01*
Y444323D01*
X443248D01*
X443477Y441695D01*
X443496Y441714D01*
X443515Y441752D01*
X443572Y441828D01*
X443629Y441924D01*
X443724Y442038D01*
X443819Y442190D01*
X444086Y442495D01*
X444391Y442837D01*
X444771Y443199D01*
X445190Y443561D01*
X445666Y443866D01*
X445685D01*
X445723Y443904D01*
X445799Y443942D01*
X445895Y443980D01*
X446028Y444056D01*
X446180Y444113D01*
X446352Y444189D01*
X446542Y444266D01*
X446751Y444323D01*
X446999Y444399D01*
X447513Y444532D01*
X448084Y444608D01*
X448694Y444646D01*
X448827D01*
X448960Y444627D01*
D02*
G37*
G36*
X616169Y426730D02*
X612952D01*
Y437183D01*
X601451D01*
Y426730D01*
X598253D01*
Y450415D01*
X601451D01*
Y439696D01*
X612952D01*
Y450415D01*
X616169D01*
Y426730D01*
D02*
G37*
G36*
X466591Y444627D02*
X466801D01*
X467048Y444589D01*
X467334Y444551D01*
X467657Y444494D01*
X468019Y444418D01*
X468381Y444323D01*
X468781Y444208D01*
X469181Y444056D01*
X469581Y443885D01*
X469980Y443675D01*
X470380Y443428D01*
X470761Y443142D01*
X471123Y442818D01*
X471142Y442799D01*
X471199Y442742D01*
X471294Y442628D01*
X471408Y442495D01*
X471561Y442323D01*
X471713Y442114D01*
X471884Y441866D01*
X472056Y441581D01*
X472227Y441276D01*
X472398Y440934D01*
X472551Y440572D01*
X472684Y440172D01*
X472798Y439753D01*
X472893Y439296D01*
X472931Y438839D01*
X472951Y438344D01*
X472913Y438249D01*
X469999D01*
Y438268D01*
Y438325D01*
Y438401D01*
X469980Y438515D01*
X469961Y438668D01*
X469942Y438820D01*
X469904Y439010D01*
X469866Y439201D01*
X469752Y439639D01*
X469561Y440096D01*
X469447Y440324D01*
X469295Y440553D01*
X469143Y440781D01*
X468952Y440991D01*
X468933Y441010D01*
X468914Y441048D01*
X468838Y441105D01*
X468762Y441162D01*
X468667Y441257D01*
X468533Y441352D01*
X468400Y441447D01*
X468229Y441562D01*
X467848Y441771D01*
X467391Y441962D01*
X467143Y442019D01*
X466877Y442076D01*
X466591Y442114D01*
X466306Y442133D01*
X466210D01*
X466077Y442114D01*
X465925D01*
X465734Y442076D01*
X465506Y442038D01*
X465258Y441981D01*
X464992Y441904D01*
X464706Y441809D01*
X464421Y441676D01*
X464135Y441543D01*
X463849Y441352D01*
X463583Y441143D01*
X463316Y440895D01*
X463069Y440610D01*
X462859Y440286D01*
X462840Y440267D01*
X462821Y440210D01*
X462764Y440096D01*
X462688Y439962D01*
X462612Y439791D01*
X462517Y439563D01*
X462421Y439334D01*
X462326Y439048D01*
X462231Y438744D01*
X462136Y438401D01*
X462041Y438039D01*
X461965Y437659D01*
X461888Y437240D01*
X461831Y436802D01*
X461812Y436345D01*
X461793Y435869D01*
Y435183D01*
Y435145D01*
Y435069D01*
Y434936D01*
X461812Y434746D01*
X461831Y434517D01*
X461850Y434250D01*
X461888Y433946D01*
X461926Y433641D01*
X461983Y433279D01*
X462060Y432937D01*
X462250Y432175D01*
X462364Y431794D01*
X462517Y431432D01*
X462669Y431052D01*
X462859Y430709D01*
X462878Y430690D01*
X462917Y430633D01*
X462974Y430538D01*
X463069Y430423D01*
X463183Y430290D01*
X463316Y430138D01*
X463488Y429966D01*
X463697Y429795D01*
X463926Y429624D01*
X464173Y429452D01*
X464459Y429300D01*
X464763Y429167D01*
X465106Y429052D01*
X465468Y428957D01*
X465868Y428900D01*
X466306Y428881D01*
X466458D01*
X466553Y428900D01*
X466686Y428919D01*
X466839Y428938D01*
X467181Y429014D01*
X467600Y429129D01*
X468019Y429300D01*
X468248Y429414D01*
X468476Y429548D01*
X468686Y429700D01*
X468895Y429871D01*
X468914Y429890D01*
X468952Y429909D01*
X468990Y429966D01*
X469066Y430043D01*
X469143Y430138D01*
X469238Y430252D01*
X469447Y430538D01*
X469657Y430899D01*
X469828Y431318D01*
X469904Y431528D01*
X469961Y431775D01*
X469980Y432023D01*
X469999Y432289D01*
X472893D01*
X472951Y432194D01*
Y432175D01*
Y432099D01*
Y431966D01*
X472931Y431813D01*
X472893Y431604D01*
X472855Y431375D01*
X472798Y431128D01*
X472722Y430842D01*
X472627Y430519D01*
X472494Y430214D01*
X472341Y429871D01*
X472151Y429529D01*
X471922Y429186D01*
X471656Y428843D01*
X471351Y428500D01*
X470989Y428158D01*
X470970Y428139D01*
X470894Y428082D01*
X470780Y428005D01*
X470628Y427891D01*
X470437Y427758D01*
X470209Y427605D01*
X469942Y427453D01*
X469657Y427282D01*
X469314Y427110D01*
X468952Y426958D01*
X468571Y426806D01*
X468172Y426673D01*
X467734Y426577D01*
X467277Y426482D01*
X466801Y426425D01*
X466306Y426406D01*
X466134D01*
X465944Y426425D01*
X465696Y426444D01*
X465392Y426482D01*
X465030Y426539D01*
X464630Y426615D01*
X464192Y426711D01*
X463735Y426844D01*
X463278Y427015D01*
X462802Y427225D01*
X462326Y427453D01*
X461850Y427739D01*
X461393Y428082D01*
X460974Y428462D01*
X460575Y428900D01*
X460556Y428938D01*
X460479Y429014D01*
X460384Y429167D01*
X460251Y429357D01*
X460099Y429605D01*
X459927Y429890D01*
X459756Y430233D01*
X459565Y430633D01*
X459375Y431071D01*
X459204Y431547D01*
X459032Y432061D01*
X458880Y432613D01*
X458747Y433203D01*
X458651Y433832D01*
X458575Y434498D01*
X458556Y435183D01*
Y435869D01*
Y435888D01*
Y435907D01*
Y435964D01*
Y436040D01*
X458575Y436231D01*
X458594Y436497D01*
X458613Y436802D01*
X458671Y437183D01*
X458728Y437582D01*
X458804Y438039D01*
X458918Y438515D01*
X459051Y439030D01*
X459204Y439543D01*
X459413Y440077D01*
X459642Y440591D01*
X459908Y441124D01*
X460213Y441619D01*
X460575Y442114D01*
X460594Y442152D01*
X460670Y442228D01*
X460784Y442342D01*
X460955Y442514D01*
X461165Y442704D01*
X461412Y442914D01*
X461717Y443142D01*
X462060Y443390D01*
X462440Y443618D01*
X462878Y443847D01*
X463335Y444056D01*
X463849Y444246D01*
X464402Y444418D01*
X464992Y444532D01*
X465639Y444627D01*
X466306Y444646D01*
X466439D01*
X466591Y444627D01*
D02*
G37*
G36*
X483289Y424045D02*
Y424026D01*
X483251Y423969D01*
X483213Y423874D01*
X483175Y423740D01*
X483099Y423588D01*
X483004Y423417D01*
X482908Y423207D01*
X482794Y422998D01*
X482528Y422522D01*
X482204Y421989D01*
X481804Y421475D01*
X481366Y420961D01*
X481347Y420941D01*
X481309Y420903D01*
X481233Y420846D01*
X481138Y420751D01*
X481024Y420656D01*
X480871Y420542D01*
X480681Y420427D01*
X480490Y420294D01*
X480262Y420180D01*
X479995Y420047D01*
X479729Y419932D01*
X479424Y419837D01*
X479101Y419742D01*
X478758Y419685D01*
X478396Y419647D01*
X478015Y419628D01*
X477863D01*
X477749Y419647D01*
X477615D01*
X477444Y419666D01*
X477235Y419685D01*
X477025Y419723D01*
X477006D01*
X476930Y419742D01*
X476816Y419761D01*
X476682Y419780D01*
X476397Y419837D01*
X476244Y419856D01*
X476111Y419894D01*
X476435Y422407D01*
X476778D01*
X476987Y422389D01*
X477101D01*
X477215Y422369D01*
X477349D01*
X477653Y422350D01*
X477768Y422331D01*
X477958D01*
X478034Y422350D01*
X478225Y422389D01*
X478453Y422446D01*
X478720Y422560D01*
X479005Y422712D01*
X479272Y422941D01*
X479405Y423093D01*
X479538Y423245D01*
Y423264D01*
X479576Y423283D01*
X479596Y423341D01*
X479653Y423398D01*
X479767Y423588D01*
X479919Y423836D01*
X480091Y424140D01*
X480262Y424483D01*
X480452Y424864D01*
X480624Y425264D01*
X481385Y427072D01*
X474855Y444323D01*
X478434D01*
X482147Y433241D01*
X482699Y431033D01*
X482813D01*
X487135Y444323D01*
X490696D01*
X483289Y424045D01*
D02*
G37*
G36*
X418287Y426730D02*
X415412D01*
X415202Y429319D01*
Y429300D01*
X415164Y429262D01*
X415126Y429186D01*
X415050Y429091D01*
X414974Y428976D01*
X414859Y428843D01*
X414612Y428519D01*
X414307Y428177D01*
X413946Y427815D01*
X413527Y427453D01*
X413051Y427148D01*
X413032D01*
X412994Y427110D01*
X412917Y427072D01*
X412822Y427034D01*
X412708Y426977D01*
X412556Y426920D01*
X412384Y426844D01*
X412194Y426787D01*
X411984Y426711D01*
X411756Y426634D01*
X411242Y426520D01*
X410671Y426444D01*
X410061Y426406D01*
X409928D01*
X409776Y426425D01*
X409585Y426444D01*
X409338Y426463D01*
X409052Y426501D01*
X408748Y426558D01*
X408405Y426634D01*
X408062Y426730D01*
X407681Y426844D01*
X407320Y426996D01*
X406939Y427187D01*
X406558Y427396D01*
X406215Y427625D01*
X405873Y427910D01*
X405549Y428234D01*
X405530Y428253D01*
X405473Y428329D01*
X405397Y428424D01*
X405301Y428577D01*
X405187Y428786D01*
X405035Y429014D01*
X404902Y429300D01*
X404749Y429643D01*
X404597Y430005D01*
X404464Y430423D01*
X404330Y430899D01*
X404197Y431414D01*
X404102Y431985D01*
X404026Y432594D01*
X403969Y433241D01*
X403950Y433946D01*
Y444323D01*
X407167D01*
Y433908D01*
Y433870D01*
Y433793D01*
Y433641D01*
X407186Y433451D01*
Y433222D01*
X407205Y432956D01*
X407243Y432670D01*
X407263Y432366D01*
X407377Y431718D01*
X407510Y431090D01*
X407605Y430785D01*
X407720Y430500D01*
X407834Y430252D01*
X407986Y430023D01*
X408005Y430005D01*
X408024Y429986D01*
X408081Y429928D01*
X408138Y429852D01*
X408234Y429776D01*
X408348Y429700D01*
X408481Y429605D01*
X408633Y429509D01*
X408805Y429395D01*
X408995Y429300D01*
X409205Y429224D01*
X409433Y429148D01*
X409681Y429072D01*
X409966Y429014D01*
X410252Y428995D01*
X410575Y428976D01*
X410747D01*
X410861Y428995D01*
X411013D01*
X411185Y429014D01*
X411356Y429034D01*
X411566Y429072D01*
X412023Y429148D01*
X412479Y429262D01*
X412956Y429433D01*
X413393Y429662D01*
X413413D01*
X413451Y429700D01*
X413508Y429738D01*
X413584Y429795D01*
X413774Y429947D01*
X414022Y430176D01*
X414307Y430462D01*
X414574Y430804D01*
X414859Y431185D01*
X415088Y431642D01*
Y444323D01*
X418287D01*
Y426730D01*
D02*
G37*
G36*
X561963Y447559D02*
X552804D01*
X552043Y440743D01*
X552081Y440762D01*
X552176Y440838D01*
X552328Y440952D01*
X552538Y441067D01*
X552785Y441219D01*
X553071Y441371D01*
X553375Y441524D01*
X553718Y441676D01*
X553737D01*
X553756Y441695D01*
X553813Y441714D01*
X553890Y441733D01*
X554080Y441790D01*
X554327Y441866D01*
X554651Y441924D01*
X555013Y441981D01*
X555394Y442038D01*
X555832Y442057D01*
X555984D01*
X556155Y442038D01*
X556384D01*
X556650Y442000D01*
X556974Y441962D01*
X557336Y441904D01*
X557717Y441809D01*
X558116Y441714D01*
X558535Y441581D01*
X558973Y441409D01*
X559392Y441200D01*
X559830Y440972D01*
X560230Y440686D01*
X560630Y440362D01*
X560991Y440000D01*
X561011Y439982D01*
X561068Y439905D01*
X561163Y439791D01*
X561277Y439620D01*
X561429Y439410D01*
X561582Y439144D01*
X561753Y438839D01*
X561925Y438496D01*
X562096Y438116D01*
X562267Y437678D01*
X562420Y437202D01*
X562572Y436707D01*
X562686Y436154D01*
X562781Y435564D01*
X562838Y434936D01*
X562857Y434270D01*
Y434250D01*
Y434231D01*
Y434174D01*
Y434117D01*
X562838Y433927D01*
X562819Y433679D01*
X562800Y433375D01*
X562762Y433032D01*
X562705Y432651D01*
X562610Y432213D01*
X562515Y431775D01*
X562381Y431318D01*
X562229Y430842D01*
X562039Y430366D01*
X561829Y429890D01*
X561563Y429414D01*
X561277Y428976D01*
X560934Y428557D01*
X560915Y428538D01*
X560839Y428462D01*
X560744Y428367D01*
X560573Y428215D01*
X560382Y428062D01*
X560135Y427872D01*
X559849Y427682D01*
X559525Y427491D01*
X559164Y427282D01*
X558745Y427091D01*
X558288Y426901D01*
X557793Y426749D01*
X557241Y426596D01*
X556669Y426501D01*
X556041Y426425D01*
X555375Y426406D01*
X555241D01*
X555089Y426425D01*
X554880D01*
X554613Y426463D01*
X554309Y426501D01*
X553985Y426539D01*
X553623Y426615D01*
X553223Y426692D01*
X552823Y426806D01*
X552404Y426939D01*
X551986Y427091D01*
X551567Y427282D01*
X551148Y427491D01*
X550729Y427739D01*
X550348Y428024D01*
X550329Y428043D01*
X550272Y428100D01*
X550158Y428196D01*
X550043Y428329D01*
X549891Y428500D01*
X549720Y428710D01*
X549548Y428957D01*
X549358Y429243D01*
X549187Y429567D01*
X548996Y429928D01*
X548844Y430328D01*
X548711Y430747D01*
X548577Y431223D01*
X548501Y431737D01*
X548444Y432270D01*
Y432861D01*
X548463Y432956D01*
X551357D01*
Y432937D01*
Y432880D01*
Y432765D01*
X551376Y432632D01*
X551395Y432480D01*
X551414Y432289D01*
X551452Y432080D01*
X551491Y431851D01*
X551624Y431375D01*
X551719Y431109D01*
X551833Y430861D01*
X551967Y430614D01*
X552119Y430385D01*
X552290Y430157D01*
X552481Y429947D01*
X552500Y429928D01*
X552538Y429909D01*
X552595Y429852D01*
X552690Y429776D01*
X552804Y429700D01*
X552938Y429605D01*
X553090Y429509D01*
X553261Y429414D01*
X553471Y429319D01*
X553680Y429224D01*
X553928Y429129D01*
X554175Y429052D01*
X554746Y428919D01*
X555051Y428900D01*
X555375Y428881D01*
X555470D01*
X555565Y428900D01*
X555717D01*
X555870Y428919D01*
X556079Y428957D01*
X556289Y428995D01*
X556517Y429052D01*
X556765Y429129D01*
X557031Y429224D01*
X557298Y429338D01*
X557545Y429490D01*
X557812Y429643D01*
X558059Y429833D01*
X558288Y430062D01*
X558516Y430309D01*
X558535Y430328D01*
X558573Y430385D01*
X558611Y430462D01*
X558688Y430576D01*
X558783Y430728D01*
X558878Y430899D01*
X558973Y431109D01*
X559088Y431337D01*
X559183Y431604D01*
X559278Y431909D01*
X559373Y432232D01*
X559468Y432575D01*
X559545Y432956D01*
X559583Y433356D01*
X559621Y433774D01*
X559640Y434231D01*
Y434250D01*
Y434327D01*
Y434441D01*
X559621Y434612D01*
X559602Y434803D01*
X559583Y435031D01*
X559545Y435279D01*
X559506Y435545D01*
X559373Y436116D01*
X559278Y436421D01*
X559164Y436726D01*
X559030Y437030D01*
X558897Y437335D01*
X558707Y437620D01*
X558516Y437887D01*
X558497Y437906D01*
X558459Y437944D01*
X558402Y438020D01*
X558307Y438116D01*
X558193Y438211D01*
X558059Y438325D01*
X557888Y438458D01*
X557698Y438592D01*
X557488Y438725D01*
X557260Y438858D01*
X556993Y438972D01*
X556727Y439068D01*
X556422Y439163D01*
X556098Y439239D01*
X555736Y439277D01*
X555375Y439296D01*
X555070D01*
X554918Y439277D01*
X554727Y439258D01*
X554327Y439220D01*
X553871Y439163D01*
X553433Y439048D01*
X552995Y438915D01*
X552804Y438820D01*
X552633Y438725D01*
X552595Y438706D01*
X552500Y438611D01*
X552347Y438477D01*
X552157Y438287D01*
X551967Y438039D01*
X551757Y437754D01*
X551548Y437392D01*
X551376Y436973D01*
X548730Y437240D01*
X550101Y450415D01*
X561963D01*
Y447559D01*
D02*
G37*
G36*
X633896Y442152D02*
X624281Y429224D01*
X634448D01*
Y426730D01*
X620453D01*
Y428957D01*
X629973Y441790D01*
X620568D01*
Y444323D01*
X633896D01*
Y442152D01*
D02*
G37*
G36*
X542789Y426730D02*
X539591D01*
Y430005D01*
X542789D01*
Y426730D01*
D02*
G37*
G36*
X511012D02*
X507794D01*
Y447445D01*
X502634Y447407D01*
Y449863D01*
X511012Y450758D01*
Y426730D01*
D02*
G37*
G36*
X352903Y447883D02*
X341251D01*
Y439715D01*
X351247D01*
Y437202D01*
X341251D01*
Y426730D01*
X338052D01*
Y450415D01*
X352903D01*
Y447883D01*
D02*
G37*
G36*
X527900Y450739D02*
X528148Y450720D01*
X528433Y450682D01*
X528776Y450625D01*
X529157Y450568D01*
X529557Y450472D01*
X529994Y450339D01*
X530432Y450187D01*
X530889Y449997D01*
X531346Y449768D01*
X531803Y449502D01*
X532260Y449178D01*
X532679Y448816D01*
X533079Y448397D01*
X533098Y448378D01*
X533174Y448283D01*
X533269Y448150D01*
X533403Y447959D01*
X533555Y447731D01*
X533726Y447445D01*
X533917Y447102D01*
X534107Y446722D01*
X534297Y446284D01*
X534488Y445808D01*
X534659Y445294D01*
X534811Y444722D01*
X534945Y444113D01*
X535040Y443466D01*
X535116Y442761D01*
X535135Y442038D01*
Y435088D01*
Y435069D01*
Y435050D01*
Y434993D01*
Y434917D01*
Y434822D01*
X535116Y434707D01*
X535097Y434422D01*
X535078Y434079D01*
X535021Y433698D01*
X534964Y433260D01*
X534888Y432784D01*
X534773Y432289D01*
X534640Y431775D01*
X534469Y431242D01*
X534278Y430709D01*
X534050Y430195D01*
X533764Y429681D01*
X533460Y429186D01*
X533098Y428729D01*
X533079Y428710D01*
X533003Y428634D01*
X532889Y428519D01*
X532717Y428367D01*
X532527Y428196D01*
X532279Y427986D01*
X531975Y427777D01*
X531651Y427567D01*
X531270Y427358D01*
X530870Y427148D01*
X530413Y426939D01*
X529918Y426768D01*
X529404Y426615D01*
X528833Y426501D01*
X528243Y426425D01*
X527614Y426406D01*
X527462D01*
X527291Y426425D01*
X527043Y426444D01*
X526758Y426482D01*
X526415Y426520D01*
X526034Y426596D01*
X525634Y426692D01*
X525196Y426825D01*
X524758Y426977D01*
X524301Y427168D01*
X523844Y427396D01*
X523387Y427643D01*
X522931Y427967D01*
X522512Y428329D01*
X522112Y428729D01*
X522093Y428748D01*
X522017Y428843D01*
X521921Y428976D01*
X521788Y429167D01*
X521636Y429395D01*
X521464Y429681D01*
X521274Y430023D01*
X521084Y430404D01*
X520893Y430842D01*
X520703Y431318D01*
X520532Y431832D01*
X520379Y432404D01*
X520246Y433013D01*
X520151Y433660D01*
X520075Y434365D01*
X520055Y435088D01*
Y442038D01*
Y442057D01*
Y442076D01*
Y442133D01*
Y442209D01*
Y442304D01*
X520075Y442419D01*
X520094Y442704D01*
X520113Y443047D01*
X520170Y443428D01*
X520227Y443866D01*
X520303Y444342D01*
X520417Y444837D01*
X520551Y445351D01*
X520722Y445884D01*
X520912Y446417D01*
X521141Y446931D01*
X521426Y447445D01*
X521731Y447940D01*
X522093Y448397D01*
X522112Y448416D01*
X522188Y448492D01*
X522302Y448607D01*
X522474Y448759D01*
X522683Y448949D01*
X522931Y449140D01*
X523216Y449349D01*
X523559Y449578D01*
X523921Y449806D01*
X524339Y450015D01*
X524777Y450206D01*
X525273Y450396D01*
X525806Y450549D01*
X526358Y450663D01*
X526948Y450739D01*
X527576Y450758D01*
X527729D01*
X527900Y450739D01*
D02*
G37*
G36*
X430072Y444627D02*
X430301Y444608D01*
X430606Y444570D01*
X430929Y444532D01*
X431310Y444456D01*
X431710Y444380D01*
X432129Y444246D01*
X432567Y444113D01*
X433005Y443923D01*
X433443Y443713D01*
X433881Y443466D01*
X434280Y443161D01*
X434680Y442818D01*
X435023Y442438D01*
X435042Y442419D01*
X435099Y442342D01*
X435194Y442209D01*
X435309Y442038D01*
X435442Y441828D01*
X435575Y441562D01*
X435746Y441238D01*
X435918Y440895D01*
X436070Y440496D01*
X436241Y440058D01*
X436375Y439582D01*
X436527Y439048D01*
X436622Y438496D01*
X436717Y437906D01*
X436775Y437278D01*
X436794Y436611D01*
Y434917D01*
X425541D01*
X425484Y434841D01*
Y434803D01*
Y434726D01*
Y434593D01*
X425503Y434403D01*
X425522Y434174D01*
X425541Y433908D01*
X425579Y433622D01*
X425636Y433318D01*
X425693Y432975D01*
X425769Y432632D01*
X425865Y432270D01*
X425979Y431909D01*
X426112Y431547D01*
X426264Y431204D01*
X426436Y430861D01*
X426645Y430538D01*
X426664Y430519D01*
X426702Y430462D01*
X426779Y430385D01*
X426874Y430271D01*
X426988Y430157D01*
X427140Y430023D01*
X427331Y429871D01*
X427540Y429719D01*
X427769Y429548D01*
X428035Y429414D01*
X428340Y429262D01*
X428663Y429148D01*
X429006Y429034D01*
X429387Y428957D01*
X429806Y428900D01*
X430244Y428881D01*
X430510D01*
X430663Y428900D01*
X430815D01*
X431005Y428919D01*
X431215Y428938D01*
X431653Y428995D01*
X432129Y429072D01*
X432605Y429186D01*
X433081Y429338D01*
X433100D01*
X433138Y429357D01*
X433195Y429395D01*
X433290Y429433D01*
X433404Y429471D01*
X433519Y429529D01*
X433804Y429681D01*
X434147Y429871D01*
X434490Y430081D01*
X434852Y430347D01*
X435194Y430633D01*
X436451Y428538D01*
X436432Y428519D01*
X436413Y428500D01*
X436356Y428443D01*
X436279Y428386D01*
X436184Y428310D01*
X436070Y428215D01*
X435937Y428120D01*
X435784Y428005D01*
X435423Y427758D01*
X435004Y427510D01*
X434509Y427263D01*
X433957Y427015D01*
X433938D01*
X433881Y426996D01*
X433804Y426958D01*
X433690Y426920D01*
X433538Y426882D01*
X433347Y426825D01*
X433157Y426768D01*
X432909Y426711D01*
X432662Y426653D01*
X432376Y426596D01*
X432072Y426539D01*
X431748Y426501D01*
X431386Y426463D01*
X431025Y426425D01*
X430244Y426406D01*
X430072D01*
X429882Y426425D01*
X429615Y426444D01*
X429292Y426482D01*
X428930Y426539D01*
X428511Y426615D01*
X428073Y426711D01*
X427597Y426825D01*
X427121Y426996D01*
X426626Y427187D01*
X426131Y427415D01*
X425636Y427701D01*
X425179Y428005D01*
X424722Y428386D01*
X424303Y428805D01*
X424284Y428843D01*
X424208Y428919D01*
X424113Y429052D01*
X423980Y429243D01*
X423808Y429490D01*
X423637Y429776D01*
X423447Y430119D01*
X423256Y430519D01*
X423047Y430937D01*
X422856Y431432D01*
X422685Y431947D01*
X422514Y432518D01*
X422380Y433127D01*
X422285Y433774D01*
X422209Y434460D01*
X422190Y435183D01*
Y435888D01*
Y435907D01*
Y435926D01*
Y435983D01*
Y436059D01*
X422209Y436250D01*
X422228Y436516D01*
X422266Y436840D01*
X422304Y437221D01*
X422380Y437640D01*
X422457Y438097D01*
X422571Y438592D01*
X422723Y439087D01*
X422894Y439620D01*
X423123Y440153D01*
X423370Y440667D01*
X423656Y441200D01*
X423999Y441695D01*
X424379Y442171D01*
X424399Y442190D01*
X424475Y442285D01*
X424608Y442400D01*
X424779Y442552D01*
X424989Y442742D01*
X425236Y442952D01*
X425541Y443180D01*
X425865Y443409D01*
X426245Y443637D01*
X426645Y443866D01*
X427083Y444075D01*
X427559Y444266D01*
X428054Y444418D01*
X428587Y444532D01*
X429159Y444627D01*
X429730Y444646D01*
X429882D01*
X430072Y444627D01*
D02*
G37*
G36*
X374780D02*
X375009Y444608D01*
X375313Y444570D01*
X375637Y444532D01*
X376018Y444456D01*
X376418Y444380D01*
X376837Y444246D01*
X377275Y444113D01*
X377712Y443923D01*
X378150Y443713D01*
X378588Y443466D01*
X378988Y443161D01*
X379388Y442818D01*
X379731Y442438D01*
X379750Y442419D01*
X379807Y442342D01*
X379902Y442209D01*
X380016Y442038D01*
X380150Y441828D01*
X380283Y441562D01*
X380454Y441238D01*
X380626Y440895D01*
X380778Y440496D01*
X380949Y440058D01*
X381083Y439582D01*
X381235Y439048D01*
X381330Y438496D01*
X381425Y437906D01*
X381482Y437278D01*
X381501Y436611D01*
Y434917D01*
X370249D01*
X370192Y434841D01*
Y434803D01*
Y434726D01*
Y434593D01*
X370211Y434403D01*
X370230Y434174D01*
X370249Y433908D01*
X370287Y433622D01*
X370344Y433318D01*
X370401Y432975D01*
X370477Y432632D01*
X370572Y432270D01*
X370687Y431909D01*
X370820Y431547D01*
X370972Y431204D01*
X371144Y430861D01*
X371353Y430538D01*
X371372Y430519D01*
X371410Y430462D01*
X371486Y430385D01*
X371582Y430271D01*
X371696Y430157D01*
X371848Y430023D01*
X372039Y429871D01*
X372248Y429719D01*
X372477Y429548D01*
X372743Y429414D01*
X373048Y429262D01*
X373371Y429148D01*
X373714Y429034D01*
X374095Y428957D01*
X374514Y428900D01*
X374952Y428881D01*
X375218D01*
X375371Y428900D01*
X375523D01*
X375713Y428919D01*
X375923Y428938D01*
X376361Y428995D01*
X376837Y429072D01*
X377313Y429186D01*
X377789Y429338D01*
X377808D01*
X377846Y429357D01*
X377903Y429395D01*
X377998Y429433D01*
X378112Y429471D01*
X378227Y429529D01*
X378512Y429681D01*
X378855Y429871D01*
X379198Y430081D01*
X379559Y430347D01*
X379902Y430633D01*
X381159Y428538D01*
X381140Y428519D01*
X381121Y428500D01*
X381064Y428443D01*
X380987Y428386D01*
X380892Y428310D01*
X380778Y428215D01*
X380645Y428120D01*
X380492Y428005D01*
X380131Y427758D01*
X379712Y427510D01*
X379217Y427263D01*
X378664Y427015D01*
X378645D01*
X378588Y426996D01*
X378512Y426958D01*
X378398Y426920D01*
X378246Y426882D01*
X378055Y426825D01*
X377865Y426768D01*
X377617Y426711D01*
X377370Y426653D01*
X377084Y426596D01*
X376780Y426539D01*
X376456Y426501D01*
X376094Y426463D01*
X375732Y426425D01*
X374952Y426406D01*
X374780D01*
X374590Y426425D01*
X374323Y426444D01*
X374000Y426482D01*
X373638Y426539D01*
X373219Y426615D01*
X372781Y426711D01*
X372305Y426825D01*
X371829Y426996D01*
X371334Y427187D01*
X370839Y427415D01*
X370344Y427701D01*
X369887Y428005D01*
X369430Y428386D01*
X369011Y428805D01*
X368992Y428843D01*
X368916Y428919D01*
X368821Y429052D01*
X368688Y429243D01*
X368516Y429490D01*
X368345Y429776D01*
X368154Y430119D01*
X367964Y430519D01*
X367755Y430937D01*
X367564Y431432D01*
X367393Y431947D01*
X367221Y432518D01*
X367088Y433127D01*
X366993Y433774D01*
X366917Y434460D01*
X366898Y435183D01*
Y435888D01*
Y435907D01*
Y435926D01*
Y435983D01*
Y436059D01*
X366917Y436250D01*
X366936Y436516D01*
X366974Y436840D01*
X367012Y437221D01*
X367088Y437640D01*
X367164Y438097D01*
X367279Y438592D01*
X367431Y439087D01*
X367602Y439620D01*
X367831Y440153D01*
X368078Y440667D01*
X368364Y441200D01*
X368707Y441695D01*
X369087Y442171D01*
X369106Y442190D01*
X369183Y442285D01*
X369316Y442400D01*
X369487Y442552D01*
X369697Y442742D01*
X369944Y442952D01*
X370249Y443180D01*
X370572Y443409D01*
X370953Y443637D01*
X371353Y443866D01*
X371791Y444075D01*
X372267Y444266D01*
X372762Y444418D01*
X373295Y444532D01*
X373866Y444627D01*
X374438Y444646D01*
X374590D01*
X374780Y444627D01*
D02*
G37*
G36*
X391669D02*
X391840Y444608D01*
X392011Y444589D01*
X392221Y444570D01*
X392640Y444494D01*
X393116Y444399D01*
X393592Y444246D01*
X394068Y444037D01*
X394087D01*
X394125Y444018D01*
X394182Y443980D01*
X394277Y443923D01*
X394373Y443866D01*
X394506Y443789D01*
X394791Y443580D01*
X395115Y443332D01*
X395458Y443028D01*
X395819Y442685D01*
X396162Y442266D01*
X396619Y444323D01*
X399075D01*
Y419970D01*
X395858D01*
Y428367D01*
X395819Y428348D01*
X395705Y428234D01*
X395534Y428043D01*
X395286Y427834D01*
X395001Y427586D01*
X394658Y427339D01*
X394277Y427110D01*
X393858Y426901D01*
X393839D01*
X393801Y426882D01*
X393744Y426863D01*
X393649Y426825D01*
X393554Y426787D01*
X393421Y426749D01*
X393268Y426692D01*
X393097Y426653D01*
X392716Y426558D01*
X392278Y426482D01*
X391764Y426425D01*
X391231Y426406D01*
X391098D01*
X390926Y426425D01*
X390698Y426444D01*
X390431Y426482D01*
X390107Y426520D01*
X389765Y426596D01*
X389403Y426692D01*
X389003Y426825D01*
X388584Y426977D01*
X388165Y427168D01*
X387747Y427396D01*
X387328Y427643D01*
X386928Y427967D01*
X386547Y428329D01*
X386185Y428729D01*
X386166Y428748D01*
X386109Y428843D01*
X386014Y428976D01*
X385900Y429148D01*
X385766Y429376D01*
X385614Y429662D01*
X385443Y429986D01*
X385271Y430366D01*
X385100Y430785D01*
X384929Y431242D01*
X384776Y431756D01*
X384643Y432289D01*
X384529Y432880D01*
X384434Y433508D01*
X384377Y434155D01*
X384357Y434860D01*
Y435202D01*
Y435221D01*
Y435260D01*
Y435317D01*
Y435393D01*
Y435488D01*
X384377Y435621D01*
X384396Y435907D01*
X384415Y436269D01*
X384453Y436688D01*
X384510Y437145D01*
X384586Y437659D01*
X384681Y438192D01*
X384795Y438744D01*
X384948Y439315D01*
X385119Y439886D01*
X385329Y440438D01*
X385576Y441010D01*
X385843Y441543D01*
X386166Y442038D01*
X386185Y442076D01*
X386242Y442152D01*
X386357Y442285D01*
X386509Y442438D01*
X386699Y442647D01*
X386909Y442857D01*
X387175Y443104D01*
X387499Y443352D01*
X387842Y443580D01*
X388223Y443827D01*
X388641Y444037D01*
X389098Y444246D01*
X389574Y444399D01*
X390107Y444532D01*
X390679Y444608D01*
X391269Y444646D01*
X391535D01*
X391669Y444627D01*
D02*
G37*
%LPC*%
G36*
X382549Y535836D02*
X376684D01*
Y526678D01*
X382777D01*
X382948Y526697D01*
X383139Y526716D01*
X383367Y526754D01*
X383615Y526792D01*
X383900Y526850D01*
X384472Y527002D01*
X384776Y527097D01*
X385081Y527230D01*
X385367Y527383D01*
X385633Y527554D01*
X385900Y527744D01*
X386128Y527973D01*
X386147Y527992D01*
X386185Y528030D01*
X386242Y528106D01*
X386319Y528201D01*
X386414Y528335D01*
X386509Y528487D01*
X386623Y528658D01*
X386737Y528868D01*
X386833Y529096D01*
X386947Y529344D01*
X387042Y529610D01*
X387137Y529896D01*
X387213Y530201D01*
X387271Y530524D01*
X387309Y530867D01*
X387328Y531229D01*
Y531248D01*
Y531324D01*
Y531419D01*
X387309Y531552D01*
X387290Y531724D01*
X387271Y531933D01*
X387232Y532143D01*
X387175Y532390D01*
X387042Y532904D01*
X386947Y533171D01*
X386814Y533456D01*
X386680Y533723D01*
X386528Y534009D01*
X386338Y534275D01*
X386128Y534523D01*
X386109Y534542D01*
X386071Y534580D01*
X385995Y534637D01*
X385900Y534732D01*
X385785Y534827D01*
X385633Y534942D01*
X385443Y535056D01*
X385233Y535189D01*
X384986Y535303D01*
X384719Y535418D01*
X384434Y535532D01*
X384110Y535627D01*
X383767Y535722D01*
X383386Y535779D01*
X382987Y535817D01*
X382549Y535836D01*
D02*
G37*
G36*
X469162Y536065D02*
X469047D01*
X468895Y536046D01*
X468705Y536027D01*
X468457Y536008D01*
X468191Y535951D01*
X467886Y535894D01*
X467562Y535798D01*
X467201Y535684D01*
X466839Y535551D01*
X466477Y535380D01*
X466096Y535189D01*
X465715Y534942D01*
X465354Y534656D01*
X465011Y534332D01*
X464687Y533970D01*
X464668Y533952D01*
X464611Y533875D01*
X464535Y533761D01*
X464421Y533590D01*
X464306Y533399D01*
X464154Y533152D01*
X464002Y532847D01*
X463849Y532523D01*
X463697Y532162D01*
X463545Y531762D01*
X463392Y531324D01*
X463278Y530848D01*
X463164Y530353D01*
X463088Y529820D01*
X463031Y529249D01*
X463012Y528658D01*
Y524393D01*
Y524355D01*
Y524241D01*
X463031Y524070D01*
Y523841D01*
X463069Y523575D01*
X463107Y523251D01*
X463145Y522889D01*
X463221Y522489D01*
X463316Y522071D01*
X463431Y521652D01*
X463564Y521195D01*
X463716Y520757D01*
X463907Y520300D01*
X464135Y519862D01*
X464402Y519424D01*
X464687Y519024D01*
X464706Y519005D01*
X464763Y518929D01*
X464859Y518834D01*
X464992Y518700D01*
X465163Y518548D01*
X465373Y518377D01*
X465601Y518186D01*
X465868Y517996D01*
X466172Y517787D01*
X466515Y517615D01*
X466877Y517425D01*
X467277Y517272D01*
X467715Y517139D01*
X468172Y517044D01*
X468647Y516968D01*
X469162Y516949D01*
X469295D01*
X469447Y516968D01*
X469657Y516987D01*
X469904Y517006D01*
X470190Y517063D01*
X470513Y517120D01*
X470875Y517215D01*
X471237Y517310D01*
X471618Y517463D01*
X472018Y517615D01*
X472398Y517825D01*
X472798Y518053D01*
X473179Y518339D01*
X473541Y518662D01*
X473883Y519024D01*
X473903Y519043D01*
X473960Y519119D01*
X474055Y519234D01*
X474150Y519405D01*
X474283Y519614D01*
X474436Y519862D01*
X474588Y520148D01*
X474759Y520471D01*
X474931Y520833D01*
X475083Y521252D01*
X475235Y521690D01*
X475369Y522166D01*
X475483Y522680D01*
X475559Y523213D01*
X475616Y523784D01*
X475635Y524393D01*
Y528658D01*
Y528696D01*
Y528811D01*
X475616Y528963D01*
Y529191D01*
X475578Y529477D01*
X475540Y529801D01*
X475483Y530143D01*
X475407Y530543D01*
X475312Y530943D01*
X475197Y531381D01*
X475064Y531819D01*
X474893Y532257D01*
X474683Y532714D01*
X474455Y533152D01*
X474169Y533571D01*
X473865Y533970D01*
X473845Y533990D01*
X473788Y534066D01*
X473693Y534161D01*
X473541Y534294D01*
X473369Y534466D01*
X473160Y534637D01*
X472913Y534827D01*
X472627Y535018D01*
X472303Y535208D01*
X471941Y535398D01*
X471561Y535589D01*
X471142Y535741D01*
X470685Y535875D01*
X470209Y535970D01*
X469695Y536046D01*
X469162Y536065D01*
D02*
G37*
G36*
X426512D02*
X426398D01*
X426245Y536046D01*
X426055Y536027D01*
X425808Y536008D01*
X425541Y535951D01*
X425236Y535894D01*
X424913Y535798D01*
X424551Y535684D01*
X424189Y535551D01*
X423827Y535380D01*
X423447Y535189D01*
X423066Y534942D01*
X422704Y534656D01*
X422361Y534332D01*
X422038Y533970D01*
X422019Y533952D01*
X421961Y533875D01*
X421885Y533761D01*
X421771Y533590D01*
X421657Y533399D01*
X421504Y533152D01*
X421352Y532847D01*
X421200Y532523D01*
X421047Y532162D01*
X420895Y531762D01*
X420743Y531324D01*
X420629Y530848D01*
X420514Y530353D01*
X420438Y529820D01*
X420381Y529249D01*
X420362Y528658D01*
Y524393D01*
Y524355D01*
Y524241D01*
X420381Y524070D01*
Y523841D01*
X420419Y523575D01*
X420457Y523251D01*
X420495Y522889D01*
X420572Y522489D01*
X420667Y522071D01*
X420781Y521652D01*
X420914Y521195D01*
X421067Y520757D01*
X421257Y520300D01*
X421485Y519862D01*
X421752Y519424D01*
X422038Y519024D01*
X422057Y519005D01*
X422114Y518929D01*
X422209Y518834D01*
X422342Y518700D01*
X422514Y518548D01*
X422723Y518377D01*
X422952Y518186D01*
X423218Y517996D01*
X423523Y517787D01*
X423865Y517615D01*
X424227Y517425D01*
X424627Y517272D01*
X425065Y517139D01*
X425522Y517044D01*
X425998Y516968D01*
X426512Y516949D01*
X426645D01*
X426798Y516968D01*
X427007Y516987D01*
X427255Y517006D01*
X427540Y517063D01*
X427864Y517120D01*
X428226Y517215D01*
X428587Y517310D01*
X428968Y517463D01*
X429368Y517615D01*
X429749Y517825D01*
X430149Y518053D01*
X430529Y518339D01*
X430891Y518662D01*
X431234Y519024D01*
X431253Y519043D01*
X431310Y519119D01*
X431405Y519234D01*
X431500Y519405D01*
X431634Y519614D01*
X431786Y519862D01*
X431938Y520148D01*
X432110Y520471D01*
X432281Y520833D01*
X432433Y521252D01*
X432586Y521690D01*
X432719Y522166D01*
X432833Y522680D01*
X432909Y523213D01*
X432967Y523784D01*
X432986Y524393D01*
Y528658D01*
Y528696D01*
Y528811D01*
X432967Y528963D01*
Y529191D01*
X432929Y529477D01*
X432890Y529801D01*
X432833Y530143D01*
X432757Y530543D01*
X432662Y530943D01*
X432548Y531381D01*
X432414Y531819D01*
X432243Y532257D01*
X432034Y532714D01*
X431805Y533152D01*
X431520Y533571D01*
X431215Y533970D01*
X431196Y533990D01*
X431139Y534066D01*
X431043Y534161D01*
X430891Y534294D01*
X430720Y534466D01*
X430510Y534637D01*
X430263Y534827D01*
X429977Y535018D01*
X429654Y535208D01*
X429292Y535398D01*
X428911Y535589D01*
X428492Y535741D01*
X428035Y535875D01*
X427559Y535970D01*
X427045Y536046D01*
X426512Y536065D01*
D02*
G37*
G36*
X451388Y476972D02*
X445523D01*
Y467814D01*
X451616D01*
X451788Y467833D01*
X451978Y467852D01*
X452207Y467890D01*
X452454Y467928D01*
X452740Y467985D01*
X453311Y468138D01*
X453615Y468233D01*
X453920Y468366D01*
X454206Y468519D01*
X454472Y468690D01*
X454739Y468880D01*
X454967Y469109D01*
X454986Y469128D01*
X455024Y469166D01*
X455082Y469242D01*
X455158Y469337D01*
X455253Y469471D01*
X455348Y469623D01*
X455462Y469794D01*
X455577Y470004D01*
X455672Y470232D01*
X455786Y470480D01*
X455881Y470746D01*
X455976Y471032D01*
X456053Y471337D01*
X456110Y471660D01*
X456148Y472003D01*
X456167Y472365D01*
Y472384D01*
Y472460D01*
Y472555D01*
X456148Y472688D01*
X456129Y472860D01*
X456110Y473069D01*
X456072Y473279D01*
X456014Y473526D01*
X455881Y474040D01*
X455786Y474307D01*
X455653Y474592D01*
X455519Y474859D01*
X455367Y475144D01*
X455177Y475411D01*
X454967Y475659D01*
X454948Y475678D01*
X454910Y475716D01*
X454834Y475773D01*
X454739Y475868D01*
X454625Y475963D01*
X454472Y476078D01*
X454282Y476192D01*
X454072Y476325D01*
X453825Y476439D01*
X453558Y476553D01*
X453273Y476668D01*
X452949Y476763D01*
X452606Y476858D01*
X452225Y476915D01*
X451826Y476953D01*
X451388Y476972D01*
D02*
G37*
G36*
X417344Y463968D02*
X413555D01*
X413422Y463949D01*
X413270Y463930D01*
X413079Y463911D01*
X412870Y463892D01*
X412641Y463854D01*
X412146Y463721D01*
X411632Y463549D01*
X411366Y463435D01*
X411118Y463302D01*
X410871Y463149D01*
X410642Y462978D01*
X410623Y462959D01*
X410585Y462940D01*
X410528Y462883D01*
X410471Y462807D01*
X410376Y462711D01*
X410280Y462597D01*
X410071Y462331D01*
X409842Y461988D01*
X409671Y461607D01*
X409595Y461398D01*
X409538Y461169D01*
X409500Y460941D01*
X409481Y460693D01*
Y460674D01*
Y460636D01*
Y460579D01*
X409500Y460503D01*
X409519Y460293D01*
X409576Y460027D01*
X409652Y459722D01*
X409785Y459417D01*
X409957Y459113D01*
X410204Y458827D01*
X410242Y458808D01*
X410337Y458732D01*
X410509Y458618D01*
X410756Y458504D01*
X411061Y458370D01*
X411442Y458275D01*
X411880Y458199D01*
X412394Y458161D01*
X412565D01*
X412679Y458180D01*
X412832D01*
X413022Y458218D01*
X413213Y458237D01*
X413441Y458275D01*
X413917Y458389D01*
X414450Y458542D01*
X414983Y458770D01*
X415250Y458903D01*
X415516Y459056D01*
X415535Y459075D01*
X415574Y459094D01*
X415650Y459151D01*
X415745Y459208D01*
X415992Y459399D01*
X416278Y459646D01*
X416583Y459951D01*
X416887Y460293D01*
X417154Y460674D01*
X417249Y460884D01*
X417344Y461093D01*
Y463968D01*
D02*
G37*
G36*
X554604Y477315D02*
X554413D01*
X554261Y477296D01*
X554089Y477277D01*
X553880Y477239D01*
X553671Y477182D01*
X553423Y477125D01*
X553176Y477048D01*
X552909Y476953D01*
X552642Y476839D01*
X552376Y476687D01*
X552109Y476515D01*
X551862Y476325D01*
X551633Y476096D01*
X551405Y475830D01*
X551386Y475811D01*
X551348Y475754D01*
X551310Y475678D01*
X551233Y475563D01*
X551138Y475411D01*
X551043Y475240D01*
X550948Y475011D01*
X550853Y474783D01*
X550738Y474497D01*
X550643Y474192D01*
X550548Y473869D01*
X550453Y473507D01*
X550377Y473126D01*
X550339Y472707D01*
X550301Y472269D01*
X550281Y471794D01*
Y463530D01*
Y463492D01*
Y463416D01*
Y463283D01*
X550301Y463111D01*
X550320Y462883D01*
X550339Y462635D01*
X550377Y462369D01*
X550434Y462064D01*
X550567Y461398D01*
X550662Y461074D01*
X550758Y460731D01*
X550891Y460389D01*
X551043Y460065D01*
X551215Y459741D01*
X551424Y459456D01*
X551443Y459437D01*
X551481Y459399D01*
X551538Y459322D01*
X551633Y459227D01*
X551748Y459113D01*
X551900Y458980D01*
X552071Y458846D01*
X552262Y458713D01*
X552471Y458580D01*
X552719Y458447D01*
X552985Y458313D01*
X553271Y458199D01*
X553575Y458104D01*
X553918Y458028D01*
X554261Y457990D01*
X554642Y457971D01*
X554737D01*
X554832Y457990D01*
X554984D01*
X555156Y458008D01*
X555365Y458047D01*
X555575Y458104D01*
X555822Y458161D01*
X556070Y458237D01*
X556336Y458332D01*
X556603Y458447D01*
X556869Y458599D01*
X557136Y458770D01*
X557383Y458960D01*
X557612Y459189D01*
X557840Y459456D01*
X557859Y459475D01*
X557898Y459532D01*
X557936Y459608D01*
X558012Y459722D01*
X558107Y459874D01*
X558202Y460065D01*
X558297Y460274D01*
X558412Y460522D01*
X558507Y460807D01*
X558602Y461112D01*
X558697Y461455D01*
X558792Y461817D01*
X558869Y462197D01*
X558907Y462616D01*
X558945Y463054D01*
X558964Y463530D01*
Y471794D01*
Y471832D01*
Y471908D01*
Y472041D01*
X558945Y472212D01*
X558926Y472441D01*
X558907Y472688D01*
X558869Y472955D01*
X558830Y473260D01*
X558678Y473907D01*
X558602Y474250D01*
X558488Y474573D01*
X558355Y474916D01*
X558202Y475240D01*
X558031Y475544D01*
X557821Y475830D01*
X557802Y475849D01*
X557764Y475887D01*
X557707Y475963D01*
X557612Y476058D01*
X557498Y476173D01*
X557345Y476306D01*
X557174Y476439D01*
X556984Y476573D01*
X556774Y476706D01*
X556527Y476839D01*
X556279Y476972D01*
X555974Y477087D01*
X555670Y477182D01*
X555346Y477258D01*
X554984Y477296D01*
X554604Y477315D01*
D02*
G37*
G36*
X470161Y471222D02*
X470066D01*
X469952Y471203D01*
X469780D01*
X469590Y471165D01*
X469381Y471127D01*
X469133Y471070D01*
X468866Y470994D01*
X468600Y470899D01*
X468314Y470765D01*
X468029Y470632D01*
X467743Y470442D01*
X467457Y470232D01*
X467191Y469985D01*
X466924Y469699D01*
X466696Y469375D01*
X466677Y469356D01*
X466639Y469299D01*
X466582Y469185D01*
X466505Y469052D01*
X466429Y468861D01*
X466315Y468652D01*
X466220Y468404D01*
X466106Y468119D01*
X465991Y467795D01*
X465896Y467452D01*
X465782Y467072D01*
X465706Y466653D01*
X465630Y466234D01*
X465573Y465758D01*
X465534Y465282D01*
X465515Y464768D01*
Y464425D01*
Y464387D01*
Y464311D01*
Y464158D01*
X465534Y463968D01*
X465554Y463721D01*
X465573Y463435D01*
X465611Y463130D01*
X465668Y462807D01*
X465725Y462445D01*
X465801Y462064D01*
X465896Y461683D01*
X466011Y461303D01*
X466144Y460903D01*
X466315Y460522D01*
X466487Y460160D01*
X466696Y459798D01*
X466715Y459779D01*
X466753Y459722D01*
X466829Y459627D01*
X466924Y459513D01*
X467039Y459379D01*
X467191Y459227D01*
X467362Y459056D01*
X467572Y458884D01*
X467819Y458713D01*
X468067Y458542D01*
X468352Y458389D01*
X468676Y458256D01*
X469019Y458142D01*
X469381Y458047D01*
X469780Y457990D01*
X470199Y457971D01*
X470295D01*
X470428Y457990D01*
X470580Y458008D01*
X470771Y458028D01*
X470980Y458066D01*
X471227Y458123D01*
X471494Y458199D01*
X471761Y458294D01*
X472046Y458408D01*
X472332Y458561D01*
X472617Y458751D01*
X472903Y458960D01*
X473170Y459189D01*
X473436Y459475D01*
X473665Y459798D01*
X473684Y459817D01*
X473722Y459874D01*
X473779Y459989D01*
X473855Y460122D01*
X473950Y460312D01*
X474045Y460522D01*
X474160Y460769D01*
X474274Y461055D01*
X474369Y461379D01*
X474483Y461740D01*
X474579Y462121D01*
X474674Y462521D01*
X474750Y462959D01*
X474807Y463416D01*
X474845Y463911D01*
X474864Y464425D01*
Y464768D01*
Y464806D01*
Y464882D01*
Y465034D01*
X474845Y465225D01*
X474826Y465472D01*
X474807Y465739D01*
X474769Y466043D01*
X474712Y466386D01*
X474655Y466748D01*
X474579Y467110D01*
X474483Y467490D01*
X474350Y467890D01*
X474217Y468271D01*
X474064Y468652D01*
X473874Y469014D01*
X473665Y469375D01*
X473645Y469394D01*
X473607Y469452D01*
X473531Y469547D01*
X473436Y469661D01*
X473322Y469813D01*
X473170Y469966D01*
X472979Y470118D01*
X472770Y470308D01*
X472541Y470480D01*
X472275Y470632D01*
X471989Y470803D01*
X471684Y470937D01*
X471342Y471051D01*
X470980Y471146D01*
X470580Y471203D01*
X470161Y471222D01*
D02*
G37*
G36*
X377627D02*
X377532D01*
X377417Y471203D01*
X377246D01*
X377056Y471165D01*
X376846Y471127D01*
X376599Y471070D01*
X376332Y470994D01*
X376065Y470899D01*
X375780Y470765D01*
X375494Y470632D01*
X375209Y470442D01*
X374923Y470232D01*
X374657Y469985D01*
X374390Y469699D01*
X374162Y469375D01*
X374143Y469356D01*
X374104Y469299D01*
X374047Y469185D01*
X373971Y469052D01*
X373895Y468861D01*
X373781Y468652D01*
X373686Y468404D01*
X373571Y468119D01*
X373457Y467795D01*
X373362Y467452D01*
X373248Y467072D01*
X373171Y466653D01*
X373095Y466234D01*
X373038Y465758D01*
X373000Y465282D01*
X372981Y464768D01*
Y464425D01*
Y464387D01*
Y464311D01*
Y464158D01*
X373000Y463968D01*
X373019Y463721D01*
X373038Y463435D01*
X373076Y463130D01*
X373133Y462807D01*
X373190Y462445D01*
X373267Y462064D01*
X373362Y461683D01*
X373476Y461303D01*
X373609Y460903D01*
X373781Y460522D01*
X373952Y460160D01*
X374162Y459798D01*
X374181Y459779D01*
X374219Y459722D01*
X374295Y459627D01*
X374390Y459513D01*
X374504Y459379D01*
X374657Y459227D01*
X374828Y459056D01*
X375037Y458884D01*
X375285Y458713D01*
X375532Y458542D01*
X375818Y458389D01*
X376142Y458256D01*
X376484Y458142D01*
X376846Y458047D01*
X377246Y457990D01*
X377665Y457971D01*
X377760D01*
X377893Y457990D01*
X378046Y458008D01*
X378236Y458028D01*
X378446Y458066D01*
X378693Y458123D01*
X378960Y458199D01*
X379226Y458294D01*
X379512Y458408D01*
X379797Y458561D01*
X380083Y458751D01*
X380369Y458960D01*
X380635Y459189D01*
X380902Y459475D01*
X381130Y459798D01*
X381149Y459817D01*
X381187Y459874D01*
X381244Y459989D01*
X381321Y460122D01*
X381416Y460312D01*
X381511Y460522D01*
X381625Y460769D01*
X381739Y461055D01*
X381835Y461379D01*
X381949Y461740D01*
X382044Y462121D01*
X382139Y462521D01*
X382215Y462959D01*
X382273Y463416D01*
X382311Y463911D01*
X382330Y464425D01*
Y464768D01*
Y464806D01*
Y464882D01*
Y465034D01*
X382311Y465225D01*
X382292Y465472D01*
X382273Y465739D01*
X382235Y466043D01*
X382177Y466386D01*
X382120Y466748D01*
X382044Y467110D01*
X381949Y467490D01*
X381816Y467890D01*
X381682Y468271D01*
X381530Y468652D01*
X381340Y469014D01*
X381130Y469375D01*
X381111Y469394D01*
X381073Y469452D01*
X380997Y469547D01*
X380902Y469661D01*
X380787Y469813D01*
X380635Y469966D01*
X380445Y470118D01*
X380235Y470308D01*
X380007Y470480D01*
X379740Y470632D01*
X379455Y470803D01*
X379150Y470937D01*
X378807Y471051D01*
X378446Y471146D01*
X378046Y471203D01*
X377627Y471222D01*
D02*
G37*
G36*
X527576Y448226D02*
X527386D01*
X527234Y448207D01*
X527062Y448188D01*
X526853Y448150D01*
X526643Y448093D01*
X526396Y448035D01*
X526148Y447959D01*
X525882Y447864D01*
X525615Y447750D01*
X525349Y447598D01*
X525082Y447426D01*
X524835Y447236D01*
X524606Y447007D01*
X524378Y446741D01*
X524359Y446722D01*
X524321Y446664D01*
X524282Y446588D01*
X524206Y446474D01*
X524111Y446322D01*
X524016Y446150D01*
X523921Y445922D01*
X523825Y445693D01*
X523711Y445408D01*
X523616Y445103D01*
X523521Y444780D01*
X523426Y444418D01*
X523349Y444037D01*
X523311Y443618D01*
X523273Y443180D01*
X523254Y442704D01*
Y434441D01*
Y434403D01*
Y434327D01*
Y434193D01*
X523273Y434022D01*
X523292Y433793D01*
X523311Y433546D01*
X523349Y433279D01*
X523407Y432975D01*
X523540Y432308D01*
X523635Y431985D01*
X523730Y431642D01*
X523864Y431299D01*
X524016Y430976D01*
X524187Y430652D01*
X524397Y430366D01*
X524416Y430347D01*
X524454Y430309D01*
X524511Y430233D01*
X524606Y430138D01*
X524720Y430023D01*
X524873Y429890D01*
X525044Y429757D01*
X525234Y429624D01*
X525444Y429490D01*
X525691Y429357D01*
X525958Y429224D01*
X526243Y429110D01*
X526548Y429014D01*
X526891Y428938D01*
X527234Y428900D01*
X527614Y428881D01*
X527710D01*
X527805Y428900D01*
X527957D01*
X528128Y428919D01*
X528338Y428957D01*
X528547Y429014D01*
X528795Y429072D01*
X529042Y429148D01*
X529309Y429243D01*
X529575Y429357D01*
X529842Y429509D01*
X530109Y429681D01*
X530356Y429871D01*
X530585Y430100D01*
X530813Y430366D01*
X530832Y430385D01*
X530870Y430442D01*
X530908Y430519D01*
X530984Y430633D01*
X531080Y430785D01*
X531175Y430976D01*
X531270Y431185D01*
X531384Y431432D01*
X531480Y431718D01*
X531575Y432023D01*
X531670Y432366D01*
X531765Y432727D01*
X531841Y433108D01*
X531879Y433527D01*
X531917Y433965D01*
X531937Y434441D01*
Y442704D01*
Y442742D01*
Y442818D01*
Y442952D01*
X531917Y443123D01*
X531898Y443352D01*
X531879Y443599D01*
X531841Y443866D01*
X531803Y444170D01*
X531651Y444818D01*
X531575Y445160D01*
X531461Y445484D01*
X531327Y445827D01*
X531175Y446150D01*
X531004Y446455D01*
X530794Y446741D01*
X530775Y446760D01*
X530737Y446798D01*
X530680Y446874D01*
X530585Y446969D01*
X530470Y447083D01*
X530318Y447217D01*
X530147Y447350D01*
X529956Y447483D01*
X529747Y447616D01*
X529499Y447750D01*
X529252Y447883D01*
X528947Y447997D01*
X528643Y448093D01*
X528319Y448169D01*
X527957Y448207D01*
X527576Y448226D01*
D02*
G37*
G36*
X429730Y442133D02*
X429577D01*
X429444Y442114D01*
X429311Y442095D01*
X429140Y442057D01*
X428949Y442019D01*
X428759Y441981D01*
X428321Y441809D01*
X428092Y441714D01*
X427845Y441581D01*
X427616Y441447D01*
X427388Y441257D01*
X427159Y441067D01*
X426950Y440838D01*
X426931Y440819D01*
X426912Y440781D01*
X426855Y440705D01*
X426779Y440610D01*
X426683Y440477D01*
X426588Y440324D01*
X426493Y440134D01*
X426379Y439943D01*
X426264Y439715D01*
X426150Y439467D01*
X426036Y439182D01*
X425922Y438896D01*
X425827Y438573D01*
X425750Y438249D01*
X425674Y437887D01*
X425617Y437525D01*
X425655Y437449D01*
X433595D01*
Y437697D01*
Y437716D01*
Y437792D01*
Y437887D01*
X433576Y438020D01*
Y438173D01*
X433538Y438363D01*
X433519Y438592D01*
X433481Y438820D01*
X433366Y439315D01*
X433195Y439848D01*
X433081Y440115D01*
X432967Y440381D01*
X432814Y440629D01*
X432643Y440876D01*
X432624Y440895D01*
X432605Y440934D01*
X432548Y440991D01*
X432472Y441067D01*
X432357Y441162D01*
X432243Y441276D01*
X432091Y441390D01*
X431919Y441505D01*
X431729Y441619D01*
X431520Y441733D01*
X431272Y441847D01*
X431005Y441943D01*
X430720Y442019D01*
X430415Y442076D01*
X430091Y442114D01*
X429730Y442133D01*
D02*
G37*
G36*
X374438D02*
X374285D01*
X374152Y442114D01*
X374019Y442095D01*
X373847Y442057D01*
X373657Y442019D01*
X373467Y441981D01*
X373029Y441809D01*
X372800Y441714D01*
X372553Y441581D01*
X372324Y441447D01*
X372096Y441257D01*
X371867Y441067D01*
X371658Y440838D01*
X371639Y440819D01*
X371620Y440781D01*
X371563Y440705D01*
X371486Y440610D01*
X371391Y440477D01*
X371296Y440324D01*
X371201Y440134D01*
X371087Y439943D01*
X370972Y439715D01*
X370858Y439467D01*
X370744Y439182D01*
X370630Y438896D01*
X370534Y438573D01*
X370458Y438249D01*
X370382Y437887D01*
X370325Y437525D01*
X370363Y437449D01*
X378303D01*
Y437697D01*
Y437716D01*
Y437792D01*
Y437887D01*
X378284Y438020D01*
Y438173D01*
X378246Y438363D01*
X378227Y438592D01*
X378188Y438820D01*
X378074Y439315D01*
X377903Y439848D01*
X377789Y440115D01*
X377674Y440381D01*
X377522Y440629D01*
X377351Y440876D01*
X377332Y440895D01*
X377313Y440934D01*
X377256Y440991D01*
X377179Y441067D01*
X377065Y441162D01*
X376951Y441276D01*
X376799Y441390D01*
X376627Y441505D01*
X376437Y441619D01*
X376227Y441733D01*
X375980Y441847D01*
X375713Y441943D01*
X375428Y442019D01*
X375123Y442076D01*
X374799Y442114D01*
X374438Y442133D01*
D02*
G37*
G36*
X392069D02*
X391973D01*
X391859Y442114D01*
X391688Y442095D01*
X391497Y442076D01*
X391288Y442038D01*
X391040Y441962D01*
X390793Y441886D01*
X390526Y441790D01*
X390241Y441657D01*
X389955Y441505D01*
X389670Y441314D01*
X389403Y441086D01*
X389137Y440819D01*
X388908Y440515D01*
X388680Y440172D01*
X388661Y440153D01*
X388641Y440077D01*
X388584Y439982D01*
X388508Y439829D01*
X388432Y439639D01*
X388337Y439391D01*
X388223Y439125D01*
X388127Y438820D01*
X388032Y438477D01*
X387918Y438097D01*
X387823Y437697D01*
X387747Y437259D01*
X387670Y436783D01*
X387632Y436288D01*
X387594Y435755D01*
X387575Y435202D01*
Y434860D01*
Y434822D01*
Y434746D01*
Y434612D01*
X387594Y434422D01*
X387613Y434193D01*
X387632Y433927D01*
X387670Y433641D01*
X387708Y433318D01*
X387766Y432975D01*
X387842Y432632D01*
X387937Y432270D01*
X388032Y431909D01*
X388165Y431547D01*
X388299Y431204D01*
X388470Y430861D01*
X388661Y430538D01*
X388680Y430519D01*
X388718Y430462D01*
X388775Y430385D01*
X388870Y430271D01*
X388984Y430157D01*
X389137Y430023D01*
X389308Y429871D01*
X389498Y429719D01*
X389727Y429548D01*
X389974Y429414D01*
X390260Y429262D01*
X390564Y429148D01*
X390888Y429034D01*
X391250Y428957D01*
X391631Y428900D01*
X392050Y428881D01*
X392183D01*
X392278Y428900D01*
X392392D01*
X392507Y428919D01*
X392830Y428957D01*
X393173Y429034D01*
X393554Y429129D01*
X393935Y429281D01*
X394296Y429471D01*
X394315D01*
X394334Y429490D01*
X394449Y429586D01*
X394620Y429719D01*
X394848Y429890D01*
X395096Y430138D01*
X395343Y430404D01*
X395610Y430747D01*
X395858Y431109D01*
Y440000D01*
Y440020D01*
X395839Y440039D01*
X395800Y440096D01*
X395743Y440172D01*
X395610Y440343D01*
X395420Y440572D01*
X395210Y440819D01*
X394944Y441086D01*
X394639Y441333D01*
X394296Y441562D01*
X394277D01*
X394258Y441581D01*
X394201Y441619D01*
X394125Y441657D01*
X393935Y441752D01*
X393668Y441847D01*
X393344Y441962D01*
X392964Y442038D01*
X392545Y442114D01*
X392069Y442133D01*
D02*
G37*
%LPD*%
M02*
