G04*
G04 #@! TF.GenerationSoftware,Altium Limited,Altium Designer,18.0.9 (584)*
G04*
G04 Layer_Color=65535*
%FSLAX25Y25*%
%MOIN*%
G70*
G01*
G75*
G36*
X523254Y538483D02*
X523464D01*
X523711Y538445D01*
X523978Y538426D01*
X524301Y538388D01*
X524625Y538331D01*
X524968Y538274D01*
X525691Y538102D01*
X526072Y537988D01*
X526453Y537874D01*
X526815Y537721D01*
X527177Y537550D01*
X527196Y537531D01*
X527253Y537512D01*
X527367Y537455D01*
X527500Y537379D01*
X527653Y537284D01*
X527843Y537169D01*
X528052Y537017D01*
X528262Y536865D01*
X528509Y536693D01*
X528757Y536503D01*
X529233Y536046D01*
X529728Y535532D01*
X529937Y535246D01*
X530147Y534942D01*
X530166Y534923D01*
X530185Y534865D01*
X530242Y534770D01*
X530318Y534656D01*
X530394Y534504D01*
X530470Y534313D01*
X530566Y534104D01*
X530680Y533875D01*
X530775Y533609D01*
X530870Y533323D01*
X531023Y532714D01*
X531156Y532048D01*
X531175Y531686D01*
X531194Y531324D01*
X528052D01*
Y531343D01*
Y531419D01*
Y531533D01*
X528033Y531686D01*
X528014Y531857D01*
X527976Y532066D01*
X527938Y532295D01*
X527881Y532562D01*
X527805Y532828D01*
X527710Y533095D01*
X527614Y533380D01*
X527481Y533666D01*
X527310Y533932D01*
X527138Y534218D01*
X526929Y534466D01*
X526681Y534713D01*
X526662Y534732D01*
X526624Y534770D01*
X526548Y534827D01*
X526434Y534903D01*
X526301Y534999D01*
X526129Y535113D01*
X525920Y535208D01*
X525691Y535341D01*
X525444Y535456D01*
X525158Y535551D01*
X524835Y535665D01*
X524492Y535760D01*
X524111Y535836D01*
X523711Y535894D01*
X523292Y535932D01*
X522835Y535951D01*
X522607D01*
X522455Y535932D01*
X522264Y535913D01*
X522036Y535894D01*
X521788Y535875D01*
X521522Y535817D01*
X520950Y535703D01*
X520341Y535513D01*
X520055Y535398D01*
X519770Y535265D01*
X519484Y535113D01*
X519237Y534923D01*
X519218Y534903D01*
X519180Y534884D01*
X519123Y534808D01*
X519027Y534732D01*
X518932Y534637D01*
X518837Y534504D01*
X518704Y534351D01*
X518589Y534180D01*
X518475Y533990D01*
X518361Y533780D01*
X518247Y533552D01*
X518152Y533285D01*
X518056Y533018D01*
X517999Y532733D01*
X517961Y532409D01*
X517942Y532086D01*
Y532066D01*
Y532028D01*
Y531952D01*
X517961Y531838D01*
X517980Y531724D01*
X517999Y531571D01*
X518094Y531229D01*
X518247Y530848D01*
X518342Y530639D01*
X518456Y530448D01*
X518589Y530239D01*
X518761Y530029D01*
X518951Y529820D01*
X519161Y529629D01*
X519180Y529610D01*
X519218Y529591D01*
X519294Y529534D01*
X519408Y529458D01*
X519541Y529382D01*
X519713Y529268D01*
X519903Y529153D01*
X520151Y529039D01*
X520417Y528887D01*
X520722Y528754D01*
X521065Y528601D01*
X521445Y528449D01*
X521864Y528278D01*
X522321Y528125D01*
X522816Y527954D01*
X523349Y527802D01*
X523387D01*
X523483Y527764D01*
X523635Y527725D01*
X523844Y527649D01*
X524092Y527573D01*
X524378Y527478D01*
X524682Y527383D01*
X525025Y527249D01*
X525387Y527116D01*
X525768Y526983D01*
X526548Y526678D01*
X527291Y526316D01*
X527633Y526145D01*
X527957Y525955D01*
X527976Y525936D01*
X528033Y525917D01*
X528109Y525859D01*
X528224Y525783D01*
X528376Y525688D01*
X528528Y525574D01*
X528890Y525288D01*
X529290Y524946D01*
X529709Y524565D01*
X530090Y524108D01*
X530280Y523879D01*
X530432Y523632D01*
X530451Y523613D01*
X530470Y523575D01*
X530509Y523498D01*
X530566Y523403D01*
X530623Y523270D01*
X530699Y523118D01*
X530775Y522946D01*
X530851Y522737D01*
X530927Y522528D01*
X530984Y522280D01*
X531118Y521747D01*
X531213Y521138D01*
X531251Y520833D01*
Y520490D01*
Y520452D01*
Y520357D01*
X531232Y520205D01*
X531213Y520014D01*
X531175Y519767D01*
X531137Y519481D01*
X531061Y519176D01*
X530965Y518834D01*
X530851Y518472D01*
X530699Y518110D01*
X530527Y517710D01*
X530299Y517330D01*
X530052Y516949D01*
X529747Y516587D01*
X529404Y516225D01*
X529004Y515882D01*
X528985Y515864D01*
X528909Y515806D01*
X528776Y515730D01*
X528605Y515616D01*
X528376Y515483D01*
X528090Y515349D01*
X527786Y515178D01*
X527405Y515026D01*
X527005Y514873D01*
X526548Y514721D01*
X526053Y514569D01*
X525520Y514435D01*
X524949Y514321D01*
X524339Y514245D01*
X523692Y514188D01*
X523007Y514169D01*
X522759D01*
X522588Y514188D01*
X522378Y514207D01*
X522112Y514226D01*
X521826Y514245D01*
X521522Y514283D01*
X521179Y514340D01*
X520817Y514397D01*
X520037Y514569D01*
X519637Y514664D01*
X519237Y514797D01*
X518837Y514930D01*
X518437Y515102D01*
X518418Y515121D01*
X518342Y515140D01*
X518228Y515197D01*
X518094Y515273D01*
X517904Y515368D01*
X517714Y515483D01*
X517485Y515616D01*
X517238Y515768D01*
X516723Y516130D01*
X516171Y516568D01*
X515657Y517082D01*
X515410Y517368D01*
X515181Y517653D01*
X515162Y517672D01*
X515124Y517729D01*
X515067Y517825D01*
X515010Y517939D01*
X514915Y518091D01*
X514819Y518282D01*
X514724Y518491D01*
X514610Y518739D01*
X514496Y518986D01*
X514401Y519272D01*
X514305Y519576D01*
X514210Y519900D01*
X514153Y520243D01*
X514096Y520604D01*
X514058Y520966D01*
X514039Y521347D01*
X517180D01*
Y521328D01*
Y521252D01*
X517200Y521138D01*
Y520985D01*
X517238Y520814D01*
X517257Y520604D01*
X517314Y520376D01*
X517371Y520109D01*
X517466Y519843D01*
X517561Y519576D01*
X517695Y519291D01*
X517847Y519005D01*
X518037Y518739D01*
X518247Y518453D01*
X518475Y518205D01*
X518761Y517958D01*
X518780Y517939D01*
X518837Y517901D01*
X518932Y517844D01*
X519046Y517767D01*
X519218Y517672D01*
X519408Y517558D01*
X519637Y517463D01*
X519884Y517349D01*
X520170Y517215D01*
X520493Y517120D01*
X520836Y517006D01*
X521217Y516911D01*
X521617Y516834D01*
X522055Y516777D01*
X522512Y516739D01*
X523007Y516720D01*
X523235D01*
X523407Y516739D01*
X523616Y516758D01*
X523844Y516777D01*
X524111Y516796D01*
X524397Y516854D01*
X525006Y516968D01*
X525634Y517139D01*
X525939Y517253D01*
X526243Y517387D01*
X526510Y517539D01*
X526777Y517710D01*
X526796Y517729D01*
X526834Y517748D01*
X526891Y517825D01*
X526986Y517901D01*
X527081Y517996D01*
X527196Y518129D01*
X527329Y518262D01*
X527443Y518434D01*
X527576Y518624D01*
X527691Y518815D01*
X527805Y519043D01*
X527900Y519291D01*
X527995Y519557D01*
X528052Y519843D01*
X528090Y520128D01*
X528109Y520452D01*
Y520471D01*
Y520528D01*
Y520623D01*
X528090Y520738D01*
X528071Y520890D01*
X528052Y521061D01*
X527957Y521442D01*
X527805Y521880D01*
X527710Y522109D01*
X527595Y522337D01*
X527462Y522546D01*
X527291Y522775D01*
X527100Y522965D01*
X526891Y523156D01*
X526872Y523175D01*
X526834Y523194D01*
X526758Y523251D01*
X526643Y523327D01*
X526510Y523403D01*
X526339Y523498D01*
X526129Y523613D01*
X525882Y523746D01*
X525596Y523879D01*
X525273Y524032D01*
X524911Y524184D01*
X524511Y524355D01*
X524054Y524527D01*
X523578Y524698D01*
X523026Y524869D01*
X522455Y525041D01*
X522436D01*
X522416Y525060D01*
X522359Y525079D01*
X522283Y525098D01*
X522074Y525155D01*
X521807Y525250D01*
X521464Y525364D01*
X521084Y525498D01*
X520665Y525650D01*
X520227Y525840D01*
X519751Y526031D01*
X519256Y526240D01*
X518304Y526735D01*
X517828Y527002D01*
X517390Y527268D01*
X516971Y527573D01*
X516609Y527878D01*
X516590Y527897D01*
X516533Y527954D01*
X516438Y528049D01*
X516324Y528182D01*
X516190Y528354D01*
X516038Y528544D01*
X515867Y528773D01*
X515695Y529039D01*
X515524Y529325D01*
X515353Y529629D01*
X515200Y529972D01*
X515067Y530353D01*
X514953Y530734D01*
X514858Y531153D01*
X514801Y531571D01*
X514781Y532028D01*
Y532066D01*
Y532162D01*
X514801Y532295D01*
X514819Y532504D01*
X514858Y532733D01*
X514896Y533018D01*
X514972Y533323D01*
X515067Y533666D01*
X515181Y534009D01*
X515334Y534389D01*
X515505Y534770D01*
X515714Y535170D01*
X515981Y535551D01*
X516267Y535932D01*
X516609Y536293D01*
X517009Y536655D01*
X517028Y536674D01*
X517104Y536731D01*
X517238Y536827D01*
X517409Y536941D01*
X517637Y537093D01*
X517904Y537245D01*
X518228Y537398D01*
X518589Y537588D01*
X518970Y537759D01*
X519427Y537912D01*
X519903Y538083D01*
X520417Y538216D01*
X520969Y538331D01*
X521560Y538426D01*
X522188Y538483D01*
X522835Y538502D01*
X523083D01*
X523254Y538483D01*
D02*
G37*
G36*
X412232Y514493D02*
X409090D01*
Y525441D01*
X397152D01*
Y514493D01*
X394030D01*
Y538178D01*
X397152D01*
Y527992D01*
X409090D01*
Y538178D01*
X412232D01*
Y514493D01*
D02*
G37*
G36*
X501682D02*
X498559D01*
X486621Y532733D01*
Y514493D01*
X483480D01*
Y538178D01*
X486621D01*
X498578Y519843D01*
Y538178D01*
X501682D01*
Y514493D01*
D02*
G37*
G36*
X572492D02*
X569731D01*
X560953Y538178D01*
X564362D01*
X571102Y518624D01*
X577861Y538178D01*
X581269D01*
X572492Y514493D01*
D02*
G37*
G36*
X599338Y535627D02*
X587571D01*
Y527992D01*
X597834D01*
Y525441D01*
X587571D01*
Y517044D01*
X599490D01*
Y514493D01*
X584449D01*
Y538178D01*
X599338D01*
Y535627D01*
D02*
G37*
G36*
X559202D02*
X547435D01*
Y527992D01*
X557698D01*
Y525441D01*
X547435D01*
Y517044D01*
X559354D01*
Y514493D01*
X544312D01*
Y538178D01*
X559202D01*
Y535627D01*
D02*
G37*
G36*
X538600Y514493D02*
X535478D01*
Y538178D01*
X538600D01*
Y514493D01*
D02*
G37*
G36*
X457071Y535627D02*
X449455D01*
Y514493D01*
X446333D01*
Y535627D01*
X438736D01*
Y538178D01*
X457071D01*
Y535627D01*
D02*
G37*
G36*
X382130Y538159D02*
X382396Y538140D01*
X382720Y538121D01*
X383101Y538064D01*
X383520Y538007D01*
X383977Y537931D01*
X384453Y537817D01*
X384948Y537683D01*
X385443Y537531D01*
X385957Y537341D01*
X386452Y537112D01*
X386947Y536846D01*
X387404Y536541D01*
X387842Y536179D01*
X387861Y536160D01*
X387937Y536084D01*
X388051Y535970D01*
X388184Y535817D01*
X388356Y535627D01*
X388546Y535380D01*
X388737Y535094D01*
X388946Y534789D01*
X389156Y534427D01*
X389346Y534028D01*
X389536Y533590D01*
X389708Y533133D01*
X389841Y532619D01*
X389955Y532086D01*
X390031Y531514D01*
X390050Y530924D01*
Y530886D01*
Y530772D01*
X390031Y530600D01*
X390012Y530353D01*
X389993Y530067D01*
X389936Y529744D01*
X389860Y529363D01*
X389784Y528963D01*
X389670Y528544D01*
X389517Y528106D01*
X389346Y527668D01*
X389137Y527230D01*
X388889Y526792D01*
X388603Y526374D01*
X388261Y525974D01*
X387880Y525612D01*
X387861Y525593D01*
X387785Y525536D01*
X387651Y525441D01*
X387480Y525326D01*
X387251Y525193D01*
X386985Y525022D01*
X386661Y524869D01*
X386299Y524698D01*
X385881Y524508D01*
X385424Y524355D01*
X384929Y524203D01*
X384377Y524051D01*
X383767Y523936D01*
X383139Y523841D01*
X382434Y523784D01*
X381711Y523765D01*
X376132D01*
Y514493D01*
X373010D01*
Y538178D01*
X381920D01*
X382130Y538159D01*
D02*
G37*
G36*
X469733Y538483D02*
X469980Y538464D01*
X470285Y538426D01*
X470609Y538388D01*
X470951Y538331D01*
X471332Y538254D01*
X471732Y538159D01*
X472151Y538045D01*
X472589Y537912D01*
X473008Y537759D01*
X473446Y537569D01*
X473865Y537360D01*
X474283Y537112D01*
X474302Y537093D01*
X474379Y537055D01*
X474493Y536960D01*
X474645Y536865D01*
X474817Y536712D01*
X475026Y536541D01*
X475273Y536332D01*
X475521Y536103D01*
X475787Y535836D01*
X476054Y535532D01*
X476321Y535208D01*
X476606Y534846D01*
X476873Y534466D01*
X477139Y534047D01*
X477387Y533609D01*
X477615Y533133D01*
X477634Y533095D01*
X477672Y533018D01*
X477730Y532866D01*
X477806Y532676D01*
X477882Y532428D01*
X477996Y532124D01*
X478091Y531781D01*
X478206Y531400D01*
X478320Y530962D01*
X478415Y530505D01*
X478529Y530010D01*
X478605Y529477D01*
X478682Y528906D01*
X478739Y528316D01*
X478777Y527706D01*
X478796Y527059D01*
Y525555D01*
Y525517D01*
Y525402D01*
Y525212D01*
X478777Y524965D01*
X478758Y524679D01*
X478739Y524317D01*
X478701Y523936D01*
X478644Y523498D01*
X478586Y523042D01*
X478510Y522546D01*
X478415Y522051D01*
X478301Y521537D01*
X478167Y521004D01*
X477996Y520490D01*
X477825Y519976D01*
X477615Y519481D01*
X477596Y519443D01*
X477558Y519367D01*
X477501Y519234D01*
X477406Y519062D01*
X477273Y518834D01*
X477139Y518586D01*
X476968Y518320D01*
X476759Y518015D01*
X476549Y517710D01*
X476302Y517368D01*
X476016Y517044D01*
X475730Y516720D01*
X475407Y516397D01*
X475064Y516092D01*
X474702Y515787D01*
X474302Y515521D01*
X474283Y515502D01*
X474207Y515464D01*
X474093Y515387D01*
X473922Y515311D01*
X473712Y515216D01*
X473465Y515102D01*
X473198Y514969D01*
X472874Y514854D01*
X472513Y514721D01*
X472132Y514588D01*
X471713Y514474D01*
X471275Y514378D01*
X470818Y514302D01*
X470323Y514226D01*
X469828Y514188D01*
X469295Y514169D01*
X469162D01*
X469028Y514188D01*
X468819D01*
X468571Y514207D01*
X468305Y514245D01*
X467981Y514283D01*
X467619Y514340D01*
X467258Y514416D01*
X466858Y514512D01*
X466439Y514607D01*
X466020Y514740D01*
X465582Y514912D01*
X465163Y515083D01*
X464744Y515292D01*
X464325Y515540D01*
X464306Y515559D01*
X464230Y515597D01*
X464116Y515692D01*
X463964Y515787D01*
X463792Y515940D01*
X463583Y516111D01*
X463354Y516301D01*
X463107Y516549D01*
X462840Y516796D01*
X462555Y517101D01*
X462288Y517425D01*
X462003Y517767D01*
X461736Y518148D01*
X461469Y518548D01*
X461203Y518986D01*
X460974Y519443D01*
X460955Y519481D01*
X460917Y519557D01*
X460860Y519710D01*
X460784Y519900D01*
X460689Y520128D01*
X460594Y520433D01*
X460479Y520757D01*
X460365Y521138D01*
X460251Y521556D01*
X460137Y522013D01*
X460041Y522489D01*
X459946Y523003D01*
X459870Y523556D01*
X459794Y524127D01*
X459756Y524736D01*
X459737Y525345D01*
Y527059D01*
Y527078D01*
Y527097D01*
Y527211D01*
Y527383D01*
X459756Y527630D01*
X459775Y527935D01*
X459794Y528278D01*
X459832Y528658D01*
X459889Y529096D01*
X459946Y529553D01*
X460022Y530029D01*
X460118Y530524D01*
X460232Y531038D01*
X460365Y531552D01*
X460536Y532066D01*
X460708Y532581D01*
X460917Y533076D01*
X460936Y533114D01*
X460974Y533190D01*
X461051Y533323D01*
X461146Y533514D01*
X461260Y533723D01*
X461412Y533990D01*
X461584Y534256D01*
X461793Y534561D01*
X462022Y534884D01*
X462269Y535208D01*
X462536Y535551D01*
X462840Y535875D01*
X463164Y536198D01*
X463526Y536522D01*
X463888Y536827D01*
X464287Y537093D01*
X464306Y537112D01*
X464383Y537150D01*
X464516Y537226D01*
X464668Y537322D01*
X464878Y537417D01*
X465125Y537531D01*
X465411Y537664D01*
X465715Y537798D01*
X466077Y537931D01*
X466458Y538064D01*
X466858Y538178D01*
X467296Y538274D01*
X467753Y538369D01*
X468248Y538445D01*
X468743Y538483D01*
X469257Y538502D01*
X469542D01*
X469733Y538483D01*
D02*
G37*
G36*
X426950D02*
X427197Y538464D01*
X427502Y538426D01*
X427826Y538388D01*
X428168Y538331D01*
X428549Y538254D01*
X428949Y538159D01*
X429368Y538045D01*
X429806Y537912D01*
X430225Y537759D01*
X430663Y537569D01*
X431082Y537360D01*
X431500Y537112D01*
X431520Y537093D01*
X431596Y537055D01*
X431710Y536960D01*
X431862Y536865D01*
X432034Y536712D01*
X432243Y536541D01*
X432491Y536332D01*
X432738Y536103D01*
X433005Y535836D01*
X433271Y535532D01*
X433538Y535208D01*
X433823Y534846D01*
X434090Y534466D01*
X434356Y534047D01*
X434604Y533609D01*
X434832Y533133D01*
X434852Y533095D01*
X434890Y533018D01*
X434947Y532866D01*
X435023Y532676D01*
X435099Y532428D01*
X435213Y532124D01*
X435309Y531781D01*
X435423Y531400D01*
X435537Y530962D01*
X435632Y530505D01*
X435746Y530010D01*
X435823Y529477D01*
X435899Y528906D01*
X435956Y528316D01*
X435994Y527706D01*
X436013Y527059D01*
Y525555D01*
Y525517D01*
Y525402D01*
Y525212D01*
X435994Y524965D01*
X435975Y524679D01*
X435956Y524317D01*
X435918Y523936D01*
X435861Y523498D01*
X435804Y523042D01*
X435727Y522546D01*
X435632Y522051D01*
X435518Y521537D01*
X435385Y521004D01*
X435213Y520490D01*
X435042Y519976D01*
X434832Y519481D01*
X434813Y519443D01*
X434775Y519367D01*
X434718Y519234D01*
X434623Y519062D01*
X434490Y518834D01*
X434356Y518586D01*
X434185Y518320D01*
X433976Y518015D01*
X433766Y517710D01*
X433519Y517368D01*
X433233Y517044D01*
X432947Y516720D01*
X432624Y516397D01*
X432281Y516092D01*
X431919Y515787D01*
X431520Y515521D01*
X431500Y515502D01*
X431424Y515464D01*
X431310Y515387D01*
X431139Y515311D01*
X430929Y515216D01*
X430682Y515102D01*
X430415Y514969D01*
X430091Y514854D01*
X429730Y514721D01*
X429349Y514588D01*
X428930Y514474D01*
X428492Y514378D01*
X428035Y514302D01*
X427540Y514226D01*
X427045Y514188D01*
X426512Y514169D01*
X426379D01*
X426245Y514188D01*
X426036D01*
X425788Y514207D01*
X425522Y514245D01*
X425198Y514283D01*
X424836Y514340D01*
X424475Y514416D01*
X424075Y514512D01*
X423656Y514607D01*
X423237Y514740D01*
X422799Y514912D01*
X422380Y515083D01*
X421961Y515292D01*
X421543Y515540D01*
X421524Y515559D01*
X421447Y515597D01*
X421333Y515692D01*
X421181Y515787D01*
X421009Y515940D01*
X420800Y516111D01*
X420572Y516301D01*
X420324Y516549D01*
X420057Y516796D01*
X419772Y517101D01*
X419505Y517425D01*
X419220Y517767D01*
X418953Y518148D01*
X418687Y518548D01*
X418420Y518986D01*
X418191Y519443D01*
X418173Y519481D01*
X418134Y519557D01*
X418077Y519710D01*
X418001Y519900D01*
X417906Y520128D01*
X417811Y520433D01*
X417697Y520757D01*
X417582Y521138D01*
X417468Y521556D01*
X417354Y522013D01*
X417259Y522489D01*
X417163Y523003D01*
X417087Y523556D01*
X417011Y524127D01*
X416973Y524736D01*
X416954Y525345D01*
Y527059D01*
Y527078D01*
Y527097D01*
Y527211D01*
Y527383D01*
X416973Y527630D01*
X416992Y527935D01*
X417011Y528278D01*
X417049Y528658D01*
X417106Y529096D01*
X417163Y529553D01*
X417240Y530029D01*
X417335Y530524D01*
X417449Y531038D01*
X417582Y531552D01*
X417754Y532066D01*
X417925Y532581D01*
X418134Y533076D01*
X418153Y533114D01*
X418191Y533190D01*
X418268Y533323D01*
X418363Y533514D01*
X418477Y533723D01*
X418629Y533990D01*
X418801Y534256D01*
X419010Y534561D01*
X419239Y534884D01*
X419486Y535208D01*
X419753Y535551D01*
X420057Y535875D01*
X420381Y536198D01*
X420743Y536522D01*
X421105Y536827D01*
X421504Y537093D01*
X421524Y537112D01*
X421600Y537150D01*
X421733Y537226D01*
X421885Y537322D01*
X422095Y537417D01*
X422342Y537531D01*
X422628Y537664D01*
X422932Y537798D01*
X423294Y537931D01*
X423675Y538064D01*
X424075Y538178D01*
X424513Y538274D01*
X424970Y538369D01*
X425465Y538445D01*
X425960Y538483D01*
X426474Y538502D01*
X426759D01*
X426950Y538483D01*
D02*
G37*
G36*
X484308Y480019D02*
X484498Y479981D01*
X484708Y479905D01*
X484936Y479828D01*
X485146Y479695D01*
X485336Y479524D01*
X485355Y479505D01*
X485412Y479428D01*
X485488Y479333D01*
X485565Y479181D01*
X485641Y479010D01*
X485717Y478800D01*
X485774Y478553D01*
X485793Y478286D01*
Y478248D01*
Y478172D01*
X485774Y478039D01*
X485736Y477867D01*
X485679Y477677D01*
X485603Y477467D01*
X485488Y477258D01*
X485336Y477068D01*
X485317Y477048D01*
X485260Y476991D01*
X485146Y476915D01*
X484993Y476839D01*
X484803Y476744D01*
X484575Y476668D01*
X484308Y476611D01*
X484003Y476592D01*
X483851D01*
X483699Y476611D01*
X483508Y476649D01*
X483299Y476706D01*
X483070Y476801D01*
X482861Y476915D01*
X482670Y477068D01*
X482651Y477087D01*
X482594Y477163D01*
X482537Y477258D01*
X482461Y477410D01*
X482366Y477582D01*
X482309Y477791D01*
X482252Y478020D01*
X482233Y478286D01*
Y478324D01*
Y478419D01*
X482252Y478553D01*
X482290Y478724D01*
X482347Y478914D01*
X482423Y479124D01*
X482518Y479333D01*
X482670Y479524D01*
X482690Y479543D01*
X482766Y479600D01*
X482861Y479695D01*
X483013Y479790D01*
X483204Y479867D01*
X483432Y479962D01*
X483699Y480019D01*
X484003Y480038D01*
X484156D01*
X484308Y480019D01*
D02*
G37*
G36*
X498778Y473926D02*
X498893D01*
X499045Y473907D01*
X499216Y473888D01*
X499407Y473850D01*
X499825Y473755D01*
X500302Y473621D01*
X500797Y473412D01*
X501330Y473164D01*
X501596Y472993D01*
X501844Y472822D01*
X502110Y472631D01*
X502358Y472403D01*
X502605Y472155D01*
X502834Y471889D01*
X503062Y471603D01*
X503272Y471279D01*
X503462Y470937D01*
X503633Y470556D01*
X503786Y470156D01*
X503900Y469718D01*
X504014Y469261D01*
X504090Y468747D01*
X504148Y468214D01*
X504167Y467643D01*
Y456009D01*
X501139D01*
Y467662D01*
Y467681D01*
Y467738D01*
Y467852D01*
X501120Y467967D01*
Y468138D01*
X501101Y468309D01*
X501063Y468519D01*
X501025Y468728D01*
X500930Y469185D01*
X500777Y469661D01*
X500568Y470099D01*
X500435Y470289D01*
X500282Y470480D01*
Y470499D01*
X500244Y470518D01*
X500187Y470556D01*
X500130Y470632D01*
X500035Y470689D01*
X499921Y470765D01*
X499787Y470860D01*
X499635Y470937D01*
X499445Y471032D01*
X499254Y471108D01*
X499045Y471184D01*
X498797Y471260D01*
X498531Y471317D01*
X498245Y471356D01*
X497941Y471375D01*
X497617Y471394D01*
X497484D01*
X497369Y471375D01*
X497236D01*
X497103Y471356D01*
X496741Y471299D01*
X496341Y471203D01*
X495922Y471051D01*
X495465Y470860D01*
X495047Y470594D01*
X495027D01*
X494989Y470556D01*
X494932Y470518D01*
X494856Y470461D01*
X494666Y470289D01*
X494418Y470042D01*
X494133Y469756D01*
X493847Y469414D01*
X493561Y469014D01*
X493314Y468557D01*
Y456009D01*
X490306D01*
Y473621D01*
X493161D01*
X493257Y471394D01*
X493276Y471432D01*
X493352Y471508D01*
X493466Y471622D01*
X493618Y471794D01*
X493828Y471984D01*
X494075Y472193D01*
X494342Y472441D01*
X494666Y472669D01*
X495027Y472917D01*
X495427Y473145D01*
X495865Y473355D01*
X496341Y473545D01*
X496836Y473716D01*
X497369Y473831D01*
X497941Y473926D01*
X498531Y473945D01*
X498664D01*
X498778Y473926D01*
D02*
G37*
G36*
X613494D02*
X613628D01*
X613780Y473907D01*
X613951Y473888D01*
X614161Y473850D01*
X614599Y473755D01*
X615094Y473621D01*
X615627Y473431D01*
X616160Y473183D01*
X616445Y473031D01*
X616712Y472860D01*
X616979Y472650D01*
X617245Y472441D01*
X617493Y472212D01*
X617740Y471946D01*
X617969Y471660D01*
X618178Y471356D01*
X618388Y471013D01*
X618578Y470651D01*
X618730Y470251D01*
X618864Y469832D01*
X618978Y469375D01*
X619073Y468880D01*
X619130Y468347D01*
X619149Y467795D01*
Y456009D01*
X616141D01*
Y467624D01*
Y467643D01*
Y467700D01*
Y467795D01*
X616122Y467928D01*
Y468081D01*
X616103Y468271D01*
X616065Y468462D01*
X616027Y468690D01*
X615931Y469147D01*
X615779Y469604D01*
X615551Y470061D01*
X615417Y470251D01*
X615265Y470442D01*
X615246Y470461D01*
X615227Y470480D01*
X615170Y470537D01*
X615094Y470594D01*
X614998Y470670D01*
X614884Y470746D01*
X614751Y470822D01*
X614580Y470918D01*
X614389Y471013D01*
X614180Y471089D01*
X613951Y471165D01*
X613685Y471241D01*
X613399Y471299D01*
X613075Y471356D01*
X612733Y471375D01*
X612371Y471394D01*
X612219D01*
X612085Y471375D01*
X611952Y471356D01*
X611781Y471337D01*
X611590Y471317D01*
X611400Y471260D01*
X610962Y471146D01*
X610486Y470975D01*
X610257Y470860D01*
X610029Y470727D01*
X609801Y470556D01*
X609591Y470385D01*
X609572Y470365D01*
X609553Y470346D01*
X609496Y470289D01*
X609420Y470194D01*
X609325Y470099D01*
X609229Y469985D01*
X609134Y469832D01*
X609020Y469661D01*
X608906Y469490D01*
X608791Y469280D01*
X608582Y468823D01*
X608411Y468290D01*
X608354Y467985D01*
X608315Y467681D01*
Y456009D01*
X605288D01*
Y467548D01*
Y467567D01*
Y467586D01*
Y467643D01*
Y467719D01*
X605269Y467909D01*
X605231Y468157D01*
X605174Y468442D01*
X605098Y468766D01*
X604964Y469109D01*
X604812Y469471D01*
X604622Y469832D01*
X604374Y470175D01*
X604070Y470499D01*
X603708Y470784D01*
X603270Y471032D01*
X603022Y471146D01*
X602756Y471222D01*
X602489Y471299D01*
X602185Y471356D01*
X601861Y471375D01*
X601518Y471394D01*
X601385D01*
X601233Y471375D01*
X601042Y471356D01*
X600795Y471317D01*
X600528Y471260D01*
X600223Y471184D01*
X599900Y471070D01*
X599576Y470937D01*
X599233Y470784D01*
X598891Y470575D01*
X598567Y470327D01*
X598243Y470042D01*
X597958Y469699D01*
X597691Y469299D01*
X597463Y468861D01*
Y456009D01*
X594454D01*
Y473621D01*
X597310D01*
X597387Y471660D01*
X597405Y471679D01*
X597482Y471755D01*
X597596Y471870D01*
X597748Y472022D01*
X597939Y472193D01*
X598167Y472384D01*
X598453Y472593D01*
X598776Y472803D01*
X599119Y473012D01*
X599519Y473221D01*
X599938Y473412D01*
X600414Y473583D01*
X600909Y473736D01*
X601442Y473850D01*
X602013Y473926D01*
X602603Y473945D01*
X602775D01*
X602946Y473926D01*
X603194Y473907D01*
X603498Y473850D01*
X603841Y473793D01*
X604222Y473716D01*
X604622Y473583D01*
X605041Y473450D01*
X605459Y473260D01*
X605878Y473031D01*
X606297Y472746D01*
X606678Y472422D01*
X607040Y472041D01*
X607363Y471603D01*
X607649Y471108D01*
X607668Y471127D01*
X607687Y471165D01*
X607744Y471222D01*
X607801Y471317D01*
X607897Y471432D01*
X607992Y471546D01*
X608258Y471832D01*
X608582Y472155D01*
X608982Y472498D01*
X609420Y472841D01*
X609915Y473145D01*
X609934Y473164D01*
X609972Y473183D01*
X610067Y473221D01*
X610162Y473279D01*
X610296Y473336D01*
X610467Y473393D01*
X610657Y473469D01*
X610867Y473545D01*
X611095Y473621D01*
X611343Y473698D01*
X611628Y473755D01*
X611914Y473812D01*
X612561Y473907D01*
X613247Y473945D01*
X613399D01*
X613494Y473926D01*
D02*
G37*
G36*
X584287D02*
X584420D01*
X584573Y473907D01*
X584744Y473888D01*
X584953Y473850D01*
X585391Y473755D01*
X585886Y473621D01*
X586419Y473431D01*
X586953Y473183D01*
X587238Y473031D01*
X587505Y472860D01*
X587771Y472650D01*
X588038Y472441D01*
X588285Y472212D01*
X588533Y471946D01*
X588761Y471660D01*
X588971Y471356D01*
X589180Y471013D01*
X589371Y470651D01*
X589523Y470251D01*
X589656Y469832D01*
X589771Y469375D01*
X589866Y468880D01*
X589923Y468347D01*
X589942Y467795D01*
Y456009D01*
X586934D01*
Y467624D01*
Y467643D01*
Y467700D01*
Y467795D01*
X586914Y467928D01*
Y468081D01*
X586895Y468271D01*
X586857Y468462D01*
X586819Y468690D01*
X586724Y469147D01*
X586572Y469604D01*
X586343Y470061D01*
X586210Y470251D01*
X586058Y470442D01*
X586039Y470461D01*
X586020Y470480D01*
X585962Y470537D01*
X585886Y470594D01*
X585791Y470670D01*
X585677Y470746D01*
X585544Y470822D01*
X585372Y470918D01*
X585182Y471013D01*
X584972Y471089D01*
X584744Y471165D01*
X584477Y471241D01*
X584192Y471299D01*
X583868Y471356D01*
X583525Y471375D01*
X583164Y471394D01*
X583011D01*
X582878Y471375D01*
X582745Y471356D01*
X582573Y471337D01*
X582383Y471317D01*
X582193Y471260D01*
X581755Y471146D01*
X581279Y470975D01*
X581050Y470860D01*
X580822Y470727D01*
X580593Y470556D01*
X580384Y470385D01*
X580365Y470365D01*
X580346Y470346D01*
X580289Y470289D01*
X580212Y470194D01*
X580117Y470099D01*
X580022Y469985D01*
X579927Y469832D01*
X579813Y469661D01*
X579698Y469490D01*
X579584Y469280D01*
X579375Y468823D01*
X579203Y468290D01*
X579146Y467985D01*
X579108Y467681D01*
Y456009D01*
X576081D01*
Y467548D01*
Y467567D01*
Y467586D01*
Y467643D01*
Y467719D01*
X576062Y467909D01*
X576024Y468157D01*
X575967Y468442D01*
X575890Y468766D01*
X575757Y469109D01*
X575605Y469471D01*
X575414Y469832D01*
X575167Y470175D01*
X574862Y470499D01*
X574500Y470784D01*
X574062Y471032D01*
X573815Y471146D01*
X573548Y471222D01*
X573282Y471299D01*
X572977Y471356D01*
X572653Y471375D01*
X572311Y471394D01*
X572178D01*
X572025Y471375D01*
X571835Y471356D01*
X571587Y471317D01*
X571321Y471260D01*
X571016Y471184D01*
X570692Y471070D01*
X570369Y470937D01*
X570026Y470784D01*
X569683Y470575D01*
X569360Y470327D01*
X569036Y470042D01*
X568750Y469699D01*
X568484Y469299D01*
X568255Y468861D01*
Y456009D01*
X565247D01*
Y473621D01*
X568103D01*
X568179Y471660D01*
X568198Y471679D01*
X568274Y471755D01*
X568389Y471870D01*
X568541Y472022D01*
X568731Y472193D01*
X568960Y472384D01*
X569245Y472593D01*
X569569Y472803D01*
X569912Y473012D01*
X570312Y473221D01*
X570730Y473412D01*
X571207Y473583D01*
X571701Y473736D01*
X572235Y473850D01*
X572806Y473926D01*
X573396Y473945D01*
X573567D01*
X573739Y473926D01*
X573986Y473907D01*
X574291Y473850D01*
X574634Y473793D01*
X575014Y473716D01*
X575414Y473583D01*
X575833Y473450D01*
X576252Y473260D01*
X576671Y473031D01*
X577090Y472746D01*
X577471Y472422D01*
X577832Y472041D01*
X578156Y471603D01*
X578442Y471108D01*
X578461Y471127D01*
X578480Y471165D01*
X578537Y471222D01*
X578594Y471317D01*
X578689Y471432D01*
X578784Y471546D01*
X579051Y471832D01*
X579375Y472155D01*
X579775Y472498D01*
X580212Y472841D01*
X580707Y473145D01*
X580726Y473164D01*
X580765Y473183D01*
X580860Y473221D01*
X580955Y473279D01*
X581088Y473336D01*
X581260Y473393D01*
X581450Y473469D01*
X581659Y473545D01*
X581888Y473621D01*
X582135Y473698D01*
X582421Y473755D01*
X582707Y473812D01*
X583354Y473907D01*
X584039Y473945D01*
X584192D01*
X584287Y473926D01*
D02*
G37*
G36*
X397619D02*
X397828D01*
X398076Y473888D01*
X398380Y473850D01*
X398704Y473793D01*
X399066Y473716D01*
X399447Y473621D01*
X399847Y473507D01*
X400246Y473355D01*
X400665Y473183D01*
X401084Y472993D01*
X401484Y472746D01*
X401884Y472479D01*
X402265Y472155D01*
X402284Y472136D01*
X402341Y472079D01*
X402455Y471965D01*
X402569Y471832D01*
X402722Y471660D01*
X402893Y471451D01*
X403064Y471203D01*
X403255Y470918D01*
X403445Y470613D01*
X403635Y470251D01*
X403807Y469889D01*
X403959Y469471D01*
X404111Y469033D01*
X404226Y468576D01*
X404302Y468081D01*
X404340Y467567D01*
X401503D01*
Y467586D01*
Y467643D01*
X401484Y467738D01*
X401465Y467852D01*
X401446Y467985D01*
X401408Y468157D01*
X401351Y468347D01*
X401294Y468557D01*
X401122Y468995D01*
X400894Y469471D01*
X400760Y469699D01*
X400589Y469928D01*
X400418Y470156D01*
X400208Y470365D01*
X400189Y470385D01*
X400151Y470423D01*
X400094Y470461D01*
X399999Y470537D01*
X399885Y470613D01*
X399751Y470708D01*
X399599Y470822D01*
X399409Y470918D01*
X399218Y471013D01*
X398990Y471127D01*
X398514Y471299D01*
X398228Y471375D01*
X397942Y471432D01*
X397657Y471451D01*
X397333Y471470D01*
X397238D01*
X397124Y471451D01*
X396952D01*
X396762Y471413D01*
X396553Y471375D01*
X396305Y471337D01*
X396039Y471260D01*
X395753Y471184D01*
X395467Y471070D01*
X395163Y470937D01*
X394877Y470765D01*
X394572Y470575D01*
X394287Y470365D01*
X394020Y470099D01*
X393773Y469813D01*
X393754Y469794D01*
X393716Y469737D01*
X393658Y469642D01*
X393582Y469509D01*
X393487Y469337D01*
X393373Y469128D01*
X393259Y468880D01*
X393144Y468595D01*
X393030Y468271D01*
X392916Y467928D01*
X392802Y467528D01*
X392706Y467091D01*
X392630Y466634D01*
X392573Y466139D01*
X392535Y465605D01*
X392516Y465034D01*
Y464463D01*
Y464425D01*
Y464330D01*
Y464178D01*
X392535Y463968D01*
X392554Y463701D01*
X392592Y463416D01*
X392630Y463092D01*
X392668Y462731D01*
X392745Y462369D01*
X392821Y461988D01*
X392916Y461588D01*
X393049Y461207D01*
X393182Y460826D01*
X393354Y460446D01*
X393544Y460103D01*
X393773Y459779D01*
X393792Y459760D01*
X393830Y459703D01*
X393906Y459627D01*
X394001Y459532D01*
X394134Y459399D01*
X394287Y459265D01*
X394477Y459113D01*
X394687Y458960D01*
X394934Y458808D01*
X395201Y458656D01*
X395486Y458523D01*
X395810Y458389D01*
X396153Y458294D01*
X396533Y458218D01*
X396933Y458161D01*
X397352Y458142D01*
X397505D01*
X397619Y458161D01*
X397771Y458180D01*
X397923Y458199D01*
X398114Y458218D01*
X398304Y458256D01*
X398761Y458370D01*
X399218Y458561D01*
X399466Y458656D01*
X399713Y458789D01*
X399942Y458942D01*
X400170Y459113D01*
X400189Y459132D01*
X400227Y459151D01*
X400284Y459208D01*
X400361Y459284D01*
X400456Y459379D01*
X400551Y459494D01*
X400779Y459779D01*
X401027Y460141D01*
X401236Y460560D01*
X401408Y461017D01*
X401465Y461283D01*
X401503Y461550D01*
X404340D01*
Y461531D01*
Y461474D01*
X404321Y461398D01*
Y461303D01*
X404302Y461169D01*
X404264Y460998D01*
X404226Y460826D01*
X404188Y460636D01*
X404054Y460179D01*
X403864Y459703D01*
X403616Y459189D01*
X403464Y458942D01*
X403293Y458675D01*
X403274Y458656D01*
X403255Y458618D01*
X403197Y458542D01*
X403121Y458447D01*
X403026Y458332D01*
X402912Y458199D01*
X402779Y458047D01*
X402626Y457894D01*
X402246Y457533D01*
X401808Y457171D01*
X401313Y456809D01*
X400741Y456485D01*
X400722D01*
X400665Y456447D01*
X400589Y456409D01*
X400456Y456352D01*
X400322Y456295D01*
X400132Y456238D01*
X399942Y456162D01*
X399713Y456085D01*
X399466Y456009D01*
X399218Y455933D01*
X398647Y455819D01*
X398019Y455724D01*
X397352Y455686D01*
X397200D01*
X397009Y455705D01*
X396762Y455724D01*
X396457Y455762D01*
X396096Y455819D01*
X395715Y455895D01*
X395296Y455990D01*
X394839Y456105D01*
X394363Y456276D01*
X393887Y456466D01*
X393411Y456695D01*
X392935Y456980D01*
X392478Y457285D01*
X392040Y457666D01*
X391621Y458085D01*
X391602Y458104D01*
X391526Y458199D01*
X391431Y458332D01*
X391298Y458523D01*
X391126Y458770D01*
X390955Y459056D01*
X390764Y459417D01*
X390574Y459798D01*
X390365Y460255D01*
X390174Y460731D01*
X390003Y461283D01*
X389831Y461855D01*
X389698Y462483D01*
X389603Y463168D01*
X389527Y463873D01*
X389508Y464635D01*
Y465148D01*
Y465187D01*
Y465263D01*
Y465396D01*
X389527Y465587D01*
X389546Y465815D01*
X389565Y466062D01*
X389584Y466367D01*
X389622Y466691D01*
X389679Y467033D01*
X389736Y467395D01*
X389908Y468157D01*
X390003Y468557D01*
X390136Y468957D01*
X390269Y469337D01*
X390441Y469718D01*
X390460Y469737D01*
X390479Y469813D01*
X390536Y469909D01*
X390612Y470042D01*
X390707Y470213D01*
X390841Y470404D01*
X390974Y470632D01*
X391145Y470860D01*
X391317Y471108D01*
X391526Y471356D01*
X391755Y471622D01*
X391983Y471870D01*
X392249Y472117D01*
X392535Y472365D01*
X392840Y472612D01*
X393163Y472822D01*
X393182Y472841D01*
X393240Y472879D01*
X393335Y472917D01*
X393487Y472993D01*
X393639Y473088D01*
X393849Y473183D01*
X394077Y473279D01*
X394344Y473393D01*
X394649Y473488D01*
X394953Y473583D01*
X395296Y473678D01*
X395677Y473774D01*
X396058Y473850D01*
X396457Y473888D01*
X396895Y473926D01*
X397333Y473945D01*
X397466D01*
X397619Y473926D01*
D02*
G37*
G36*
X542818Y478000D02*
X533012Y456009D01*
X529852D01*
X539638Y477220D01*
X526805D01*
Y479695D01*
X542818D01*
Y478000D01*
D02*
G37*
G36*
X485488Y456009D02*
X482480D01*
Y473621D01*
X485488D01*
Y456009D01*
D02*
G37*
G36*
X451788Y479676D02*
X452054Y479657D01*
X452378Y479638D01*
X452759Y479581D01*
X453177Y479524D01*
X453635Y479448D01*
X454110Y479333D01*
X454605Y479200D01*
X455101Y479048D01*
X455615Y478857D01*
X456110Y478629D01*
X456605Y478362D01*
X457062Y478058D01*
X457500Y477696D01*
X457519Y477677D01*
X457595Y477601D01*
X457709Y477487D01*
X457842Y477334D01*
X458014Y477144D01*
X458204Y476896D01*
X458394Y476611D01*
X458604Y476306D01*
X458813Y475944D01*
X459004Y475544D01*
X459194Y475106D01*
X459366Y474649D01*
X459499Y474135D01*
X459613Y473602D01*
X459689Y473031D01*
X459708Y472441D01*
Y472403D01*
Y472289D01*
X459689Y472117D01*
X459670Y471870D01*
X459651Y471584D01*
X459594Y471260D01*
X459518Y470880D01*
X459442Y470480D01*
X459327Y470061D01*
X459175Y469623D01*
X459004Y469185D01*
X458794Y468747D01*
X458547Y468309D01*
X458261Y467890D01*
X457919Y467490D01*
X457538Y467129D01*
X457519Y467110D01*
X457443Y467053D01*
X457309Y466957D01*
X457138Y466843D01*
X456909Y466710D01*
X456643Y466538D01*
X456319Y466386D01*
X455957Y466215D01*
X455539Y466024D01*
X455082Y465872D01*
X454587Y465720D01*
X454034Y465567D01*
X453425Y465453D01*
X452797Y465358D01*
X452092Y465301D01*
X451369Y465282D01*
X445790D01*
Y456009D01*
X442667D01*
Y479695D01*
X451578D01*
X451788Y479676D01*
D02*
G37*
G36*
X429130Y456009D02*
X426122D01*
Y481009D01*
X429130D01*
Y456009D01*
D02*
G37*
G36*
X415078Y473926D02*
X415345Y473907D01*
X415631Y473869D01*
X415973Y473812D01*
X416316Y473755D01*
X416697Y473678D01*
X417078Y473583D01*
X417478Y473450D01*
X417877Y473298D01*
X418277Y473126D01*
X418639Y472917D01*
X419001Y472688D01*
X419343Y472422D01*
X419362Y472403D01*
X419420Y472346D01*
X419496Y472269D01*
X419610Y472136D01*
X419743Y471984D01*
X419896Y471794D01*
X420048Y471584D01*
X420219Y471317D01*
X420391Y471032D01*
X420543Y470727D01*
X420695Y470385D01*
X420829Y470004D01*
X420943Y469604D01*
X421038Y469166D01*
X421095Y468709D01*
X421133Y468214D01*
Y460122D01*
Y460103D01*
Y460008D01*
Y459894D01*
X421152Y459722D01*
Y459513D01*
X421171Y459284D01*
X421190Y459018D01*
X421209Y458732D01*
X421285Y458104D01*
X421400Y457456D01*
X421552Y456828D01*
X421647Y456542D01*
X421762Y456257D01*
Y456009D01*
X418601D01*
X418582Y456028D01*
X418563Y456105D01*
X418506Y456238D01*
X418449Y456428D01*
X418391Y456695D01*
X418315Y456999D01*
X418239Y457399D01*
X418220Y457609D01*
X418182Y457856D01*
X418163Y457837D01*
X418087Y457761D01*
X417973Y457666D01*
X417801Y457514D01*
X417611Y457361D01*
X417363Y457171D01*
X417078Y456980D01*
X416773Y456771D01*
X416430Y456562D01*
X416031Y456371D01*
X415631Y456181D01*
X415193Y456028D01*
X414717Y455895D01*
X414222Y455781D01*
X413708Y455705D01*
X413174Y455686D01*
X413060D01*
X412927Y455705D01*
X412737D01*
X412527Y455724D01*
X412261Y455762D01*
X411975Y455800D01*
X411670Y455876D01*
X411328Y455952D01*
X410985Y456047D01*
X410623Y456162D01*
X410261Y456314D01*
X409900Y456466D01*
X409557Y456676D01*
X409214Y456885D01*
X408890Y457152D01*
X408871Y457171D01*
X408814Y457228D01*
X408738Y457304D01*
X408624Y457418D01*
X408510Y457571D01*
X408376Y457742D01*
X408224Y457932D01*
X408072Y458161D01*
X407900Y458427D01*
X407767Y458713D01*
X407615Y459018D01*
X407501Y459341D01*
X407386Y459703D01*
X407310Y460065D01*
X407253Y460465D01*
X407234Y460884D01*
Y460922D01*
Y460998D01*
X407253Y461150D01*
X407272Y461341D01*
X407291Y461569D01*
X407348Y461836D01*
X407405Y462140D01*
X407501Y462464D01*
X407596Y462788D01*
X407748Y463149D01*
X407900Y463492D01*
X408110Y463854D01*
X408338Y464216D01*
X408624Y464539D01*
X408948Y464863D01*
X409309Y465168D01*
X409328Y465187D01*
X409405Y465225D01*
X409519Y465301D01*
X409690Y465415D01*
X409919Y465529D01*
X410166Y465644D01*
X410471Y465796D01*
X410833Y465929D01*
X411232Y466062D01*
X411670Y466215D01*
X412146Y466329D01*
X412679Y466462D01*
X413251Y466558D01*
X413860Y466634D01*
X414507Y466672D01*
X415193Y466691D01*
X418125D01*
Y468062D01*
Y468081D01*
Y468138D01*
Y468214D01*
X418106Y468328D01*
Y468462D01*
X418068Y468614D01*
X418011Y468976D01*
X417896Y469375D01*
X417725Y469794D01*
X417611Y470004D01*
X417497Y470194D01*
X417344Y470385D01*
X417173Y470575D01*
X417154Y470594D01*
X417135Y470613D01*
X417078Y470670D01*
X417001Y470727D01*
X416906Y470803D01*
X416773Y470880D01*
X416640Y470956D01*
X416487Y471051D01*
X416297Y471146D01*
X416088Y471222D01*
X415859Y471299D01*
X415612Y471375D01*
X415345Y471432D01*
X415059Y471489D01*
X414736Y471508D01*
X414412Y471527D01*
X414260D01*
X414146Y471508D01*
X414012D01*
X413841Y471489D01*
X413669Y471451D01*
X413460Y471432D01*
X413041Y471337D01*
X412584Y471184D01*
X412127Y470975D01*
X411899Y470860D01*
X411689Y470708D01*
X411670D01*
X411651Y470670D01*
X411594Y470632D01*
X411518Y470556D01*
X411347Y470385D01*
X411156Y470156D01*
X410947Y469871D01*
X410775Y469528D01*
X410699Y469337D01*
X410642Y469147D01*
X410623Y468937D01*
X410604Y468728D01*
X407577D01*
Y468747D01*
Y468785D01*
Y468861D01*
X407596Y468957D01*
X407615Y469071D01*
X407634Y469204D01*
X407691Y469547D01*
X407805Y469928D01*
X407977Y470346D01*
X408072Y470575D01*
X408205Y470803D01*
X408338Y471032D01*
X408510Y471260D01*
X408529Y471279D01*
X408548Y471317D01*
X408605Y471375D01*
X408681Y471470D01*
X408776Y471565D01*
X408890Y471698D01*
X409024Y471832D01*
X409195Y471965D01*
X409557Y472289D01*
X409995Y472612D01*
X410490Y472936D01*
X411061Y473221D01*
X411080D01*
X411137Y473260D01*
X411213Y473298D01*
X411347Y473336D01*
X411499Y473393D01*
X411670Y473450D01*
X411880Y473507D01*
X412108Y473583D01*
X412356Y473659D01*
X412622Y473716D01*
X413232Y473831D01*
X413879Y473907D01*
X414583Y473945D01*
X414869D01*
X415078Y473926D01*
D02*
G37*
G36*
X368031Y477144D02*
X356473D01*
Y469033D01*
X366412D01*
Y466481D01*
X356473D01*
Y456009D01*
X353351D01*
Y479695D01*
X368031D01*
Y477144D01*
D02*
G37*
G36*
X553975Y480000D02*
X554242Y479981D01*
X554565Y479943D01*
X554927Y479885D01*
X555327Y479809D01*
X555746Y479714D01*
X556203Y479581D01*
X556660Y479428D01*
X557136Y479219D01*
X557593Y478991D01*
X558050Y478705D01*
X558469Y478381D01*
X558869Y478000D01*
X559230Y477563D01*
X559249Y477544D01*
X559306Y477448D01*
X559402Y477296D01*
X559516Y477106D01*
X559649Y476839D01*
X559801Y476515D01*
X559973Y476135D01*
X560144Y475697D01*
X560316Y475202D01*
X560487Y474630D01*
X560639Y474021D01*
X560773Y473336D01*
X560906Y472593D01*
X561001Y471794D01*
X561058Y470937D01*
X561096Y470004D01*
Y466101D01*
Y466081D01*
Y466043D01*
Y465967D01*
Y465872D01*
Y465739D01*
X561077Y465587D01*
Y465434D01*
Y465225D01*
X561058Y465015D01*
X561039Y464787D01*
X561001Y464292D01*
X560944Y463740D01*
X560868Y463130D01*
X560773Y462502D01*
X560658Y461855D01*
X560506Y461207D01*
X560335Y460560D01*
X560125Y459912D01*
X559878Y459322D01*
X559611Y458751D01*
X559287Y458237D01*
X559268Y458218D01*
X559211Y458123D01*
X559097Y458008D01*
X558945Y457837D01*
X558754Y457647D01*
X558507Y457437D01*
X558240Y457209D01*
X557898Y456961D01*
X557536Y456733D01*
X557117Y456485D01*
X556660Y456276D01*
X556146Y456085D01*
X555594Y455914D01*
X554984Y455800D01*
X554337Y455724D01*
X553652Y455686D01*
X553480D01*
X553290Y455705D01*
X553023Y455724D01*
X552719Y455762D01*
X552357Y455819D01*
X551957Y455895D01*
X551538Y455990D01*
X551081Y456124D01*
X550624Y456295D01*
X550148Y456504D01*
X549691Y456733D01*
X549234Y457019D01*
X548796Y457361D01*
X548397Y457742D01*
X548035Y458180D01*
X548016Y458218D01*
X547959Y458294D01*
X547863Y458447D01*
X547749Y458656D01*
X547616Y458922D01*
X547445Y459246D01*
X547292Y459627D01*
X547121Y460065D01*
X546949Y460560D01*
X546778Y461112D01*
X546607Y461740D01*
X546474Y462407D01*
X546340Y463149D01*
X546245Y463949D01*
X546188Y464787D01*
X546150Y465701D01*
Y469718D01*
Y469737D01*
Y469775D01*
Y469851D01*
Y469947D01*
Y470080D01*
X546169Y470213D01*
Y470385D01*
X546188Y470575D01*
X546207Y471013D01*
X546245Y471508D01*
X546302Y472060D01*
X546378Y472650D01*
X546474Y473260D01*
X546588Y473907D01*
X546740Y474554D01*
X546911Y475183D01*
X547102Y475811D01*
X547349Y476401D01*
X547616Y476972D01*
X547940Y477467D01*
X547959Y477505D01*
X548035Y477582D01*
X548130Y477696D01*
X548282Y477867D01*
X548473Y478058D01*
X548720Y478267D01*
X549006Y478515D01*
X549330Y478743D01*
X549710Y478991D01*
X550129Y479219D01*
X550586Y479428D01*
X551100Y479619D01*
X551652Y479790D01*
X552262Y479905D01*
X552909Y480000D01*
X553614Y480019D01*
X553785D01*
X553975Y480000D01*
D02*
G37*
G36*
X512792Y473621D02*
X516067D01*
Y471299D01*
X512792D01*
Y460351D01*
Y460331D01*
Y460312D01*
Y460255D01*
Y460179D01*
X512811Y459989D01*
X512849Y459760D01*
X512906Y459494D01*
X512982Y459227D01*
X513077Y458980D01*
X513230Y458751D01*
X513249Y458732D01*
X513306Y458675D01*
X513420Y458580D01*
X513572Y458504D01*
X513782Y458408D01*
X514048Y458313D01*
X514353Y458256D01*
X514715Y458237D01*
X514810D01*
X514924Y458256D01*
X515096D01*
X515305Y458275D01*
X515553Y458313D01*
X515838Y458370D01*
X516162Y458427D01*
Y456009D01*
X516143D01*
X516105Y455990D01*
X516048Y455971D01*
X515952Y455952D01*
X515857Y455933D01*
X515724Y455914D01*
X515419Y455857D01*
X515077Y455781D01*
X514677Y455743D01*
X514258Y455705D01*
X513839Y455686D01*
X513649D01*
X513515Y455705D01*
X513344Y455724D01*
X513154Y455743D01*
X512925Y455781D01*
X512697Y455838D01*
X512201Y455990D01*
X511954Y456085D01*
X511706Y456200D01*
X511459Y456333D01*
X511211Y456504D01*
X511002Y456695D01*
X510793Y456904D01*
X510774Y456923D01*
X510754Y456961D01*
X510697Y457037D01*
X510640Y457133D01*
X510564Y457247D01*
X510469Y457418D01*
X510374Y457590D01*
X510297Y457799D01*
X510202Y458028D01*
X510107Y458294D01*
X510012Y458580D01*
X509936Y458884D01*
X509879Y459208D01*
X509822Y459570D01*
X509802Y459970D01*
X509783Y460369D01*
Y471299D01*
X506566D01*
Y473621D01*
X509783D01*
Y477886D01*
X512792D01*
Y473621D01*
D02*
G37*
G36*
X470751Y473926D02*
X470999Y473907D01*
X471304Y473869D01*
X471665Y473812D01*
X472065Y473736D01*
X472484Y473640D01*
X472941Y473507D01*
X473417Y473336D01*
X473893Y473126D01*
X474369Y472898D01*
X474864Y472612D01*
X475340Y472269D01*
X475778Y471889D01*
X476216Y471451D01*
X476235Y471432D01*
X476311Y471337D01*
X476425Y471203D01*
X476559Y470994D01*
X476730Y470746D01*
X476920Y470442D01*
X477130Y470099D01*
X477339Y469680D01*
X477530Y469242D01*
X477739Y468747D01*
X477929Y468195D01*
X478101Y467605D01*
X478234Y466976D01*
X478348Y466291D01*
X478425Y465587D01*
X478444Y464825D01*
Y464615D01*
Y464577D01*
Y464501D01*
Y464368D01*
X478425Y464178D01*
X478406Y463949D01*
X478386Y463701D01*
X478367Y463397D01*
X478329Y463073D01*
X478272Y462731D01*
X478196Y462350D01*
X478025Y461588D01*
X477911Y461188D01*
X477777Y460769D01*
X477625Y460389D01*
X477454Y459989D01*
X477434Y459970D01*
X477415Y459894D01*
X477358Y459798D01*
X477282Y459646D01*
X477168Y459475D01*
X477054Y459284D01*
X476901Y459056D01*
X476730Y458827D01*
X476559Y458580D01*
X476330Y458313D01*
X476102Y458047D01*
X475854Y457780D01*
X475588Y457533D01*
X475283Y457266D01*
X474978Y457037D01*
X474636Y456809D01*
X474617Y456790D01*
X474559Y456752D01*
X474445Y456714D01*
X474312Y456638D01*
X474141Y456542D01*
X473931Y456447D01*
X473703Y456352D01*
X473436Y456257D01*
X473131Y456143D01*
X472808Y456047D01*
X472465Y455952D01*
X472103Y455857D01*
X471703Y455781D01*
X471304Y455743D01*
X470885Y455705D01*
X470447Y455686D01*
X470295D01*
X470104Y455705D01*
X469857Y455724D01*
X469552Y455762D01*
X469190Y455819D01*
X468809Y455895D01*
X468371Y455990D01*
X467934Y456124D01*
X467457Y456295D01*
X466982Y456485D01*
X466487Y456733D01*
X466011Y457019D01*
X465534Y457342D01*
X465077Y457723D01*
X464640Y458161D01*
X464621Y458199D01*
X464544Y458275D01*
X464430Y458427D01*
X464297Y458618D01*
X464125Y458865D01*
X463935Y459170D01*
X463726Y459513D01*
X463535Y459912D01*
X463326Y460369D01*
X463116Y460864D01*
X462926Y461417D01*
X462755Y461988D01*
X462621Y462616D01*
X462507Y463283D01*
X462431Y464006D01*
X462412Y464749D01*
Y464977D01*
Y465015D01*
Y465091D01*
Y465225D01*
X462431Y465415D01*
X462450Y465644D01*
X462469Y465891D01*
X462488Y466196D01*
X462545Y466519D01*
X462583Y466881D01*
X462659Y467243D01*
X462831Y468024D01*
X462945Y468423D01*
X463097Y468823D01*
X463250Y469223D01*
X463421Y469623D01*
X463440Y469642D01*
X463478Y469718D01*
X463535Y469813D01*
X463611Y469966D01*
X463707Y470137D01*
X463840Y470346D01*
X463992Y470556D01*
X464164Y470803D01*
X464354Y471051D01*
X464563Y471317D01*
X464792Y471584D01*
X465059Y471851D01*
X465325Y472117D01*
X465611Y472365D01*
X465934Y472593D01*
X466258Y472822D01*
X466277Y472841D01*
X466334Y472879D01*
X466448Y472917D01*
X466582Y472993D01*
X466753Y473088D01*
X466962Y473183D01*
X467191Y473279D01*
X467457Y473393D01*
X467762Y473488D01*
X468067Y473583D01*
X468409Y473678D01*
X468790Y473774D01*
X469171Y473850D01*
X469571Y473888D01*
X469971Y473926D01*
X470409Y473945D01*
X470561D01*
X470751Y473926D01*
D02*
G37*
G36*
X378826D02*
X379074Y473907D01*
X379379Y473869D01*
X379740Y473812D01*
X380140Y473736D01*
X380559Y473640D01*
X381016Y473507D01*
X381492Y473336D01*
X381968Y473126D01*
X382444Y472898D01*
X382939Y472612D01*
X383415Y472269D01*
X383853Y471889D01*
X384291Y471451D01*
X384310Y471432D01*
X384386Y471337D01*
X384500Y471203D01*
X384633Y470994D01*
X384805Y470746D01*
X384995Y470442D01*
X385205Y470099D01*
X385414Y469680D01*
X385605Y469242D01*
X385814Y468747D01*
X386004Y468195D01*
X386176Y467605D01*
X386309Y466976D01*
X386423Y466291D01*
X386499Y465587D01*
X386519Y464825D01*
Y464615D01*
Y464577D01*
Y464501D01*
Y464368D01*
X386499Y464178D01*
X386480Y463949D01*
X386461Y463701D01*
X386442Y463397D01*
X386404Y463073D01*
X386347Y462731D01*
X386271Y462350D01*
X386100Y461588D01*
X385985Y461188D01*
X385852Y460769D01*
X385700Y460389D01*
X385528Y459989D01*
X385509Y459970D01*
X385490Y459894D01*
X385433Y459798D01*
X385357Y459646D01*
X385243Y459475D01*
X385129Y459284D01*
X384976Y459056D01*
X384805Y458827D01*
X384633Y458580D01*
X384405Y458313D01*
X384177Y458047D01*
X383929Y457780D01*
X383663Y457533D01*
X383358Y457266D01*
X383053Y457037D01*
X382711Y456809D01*
X382691Y456790D01*
X382634Y456752D01*
X382520Y456714D01*
X382387Y456638D01*
X382215Y456542D01*
X382006Y456447D01*
X381778Y456352D01*
X381511Y456257D01*
X381206Y456143D01*
X380883Y456047D01*
X380540Y455952D01*
X380178Y455857D01*
X379778Y455781D01*
X379379Y455743D01*
X378960Y455705D01*
X378522Y455686D01*
X378369D01*
X378179Y455705D01*
X377931Y455724D01*
X377627Y455762D01*
X377265Y455819D01*
X376884Y455895D01*
X376446Y455990D01*
X376008Y456124D01*
X375532Y456295D01*
X375056Y456485D01*
X374561Y456733D01*
X374085Y457019D01*
X373609Y457342D01*
X373152Y457723D01*
X372714Y458161D01*
X372695Y458199D01*
X372619Y458275D01*
X372505Y458427D01*
X372372Y458618D01*
X372200Y458865D01*
X372010Y459170D01*
X371801Y459513D01*
X371610Y459912D01*
X371401Y460369D01*
X371191Y460864D01*
X371001Y461417D01*
X370830Y461988D01*
X370696Y462616D01*
X370582Y463283D01*
X370506Y464006D01*
X370487Y464749D01*
Y464977D01*
Y465015D01*
Y465091D01*
Y465225D01*
X370506Y465415D01*
X370525Y465644D01*
X370544Y465891D01*
X370563Y466196D01*
X370620Y466519D01*
X370658Y466881D01*
X370734Y467243D01*
X370906Y468024D01*
X371020Y468423D01*
X371172Y468823D01*
X371325Y469223D01*
X371496Y469623D01*
X371515Y469642D01*
X371553Y469718D01*
X371610Y469813D01*
X371686Y469966D01*
X371781Y470137D01*
X371915Y470346D01*
X372067Y470556D01*
X372238Y470803D01*
X372429Y471051D01*
X372638Y471317D01*
X372867Y471584D01*
X373133Y471851D01*
X373400Y472117D01*
X373686Y472365D01*
X374009Y472593D01*
X374333Y472822D01*
X374352Y472841D01*
X374409Y472879D01*
X374523Y472917D01*
X374657Y472993D01*
X374828Y473088D01*
X375037Y473183D01*
X375266Y473279D01*
X375532Y473393D01*
X375837Y473488D01*
X376142Y473583D01*
X376484Y473678D01*
X376865Y473774D01*
X377246Y473850D01*
X377646Y473888D01*
X378046Y473926D01*
X378484Y473945D01*
X378636D01*
X378826Y473926D01*
D02*
G37*
G36*
X583468Y450929D02*
X583716Y450910D01*
X584039Y450891D01*
X584401Y450853D01*
X584801Y450796D01*
X585239Y450720D01*
X585696Y450606D01*
X586191Y450492D01*
X586686Y450339D01*
X587181Y450149D01*
X587676Y449920D01*
X588152Y449673D01*
X588628Y449387D01*
X589066Y449045D01*
X589085Y449025D01*
X589161Y448949D01*
X589275Y448854D01*
X589428Y448702D01*
X589599Y448492D01*
X589809Y448264D01*
X590037Y447978D01*
X590266Y447655D01*
X590494Y447293D01*
X590741Y446893D01*
X590970Y446455D01*
X591179Y445979D01*
X591389Y445465D01*
X591560Y444894D01*
X591713Y444304D01*
X591827Y443675D01*
X588704D01*
Y443694D01*
X588685Y443732D01*
Y443789D01*
X588666Y443885D01*
X588628Y443980D01*
X588590Y444113D01*
X588495Y444418D01*
X588362Y444780D01*
X588171Y445179D01*
X587962Y445598D01*
X587676Y446036D01*
X587352Y446474D01*
X586953Y446912D01*
X586496Y447312D01*
X585982Y447655D01*
X585677Y447826D01*
X585372Y447959D01*
X585049Y448093D01*
X584706Y448188D01*
X584344Y448283D01*
X583944Y448340D01*
X583544Y448378D01*
X583107Y448397D01*
X582973D01*
X582802Y448378D01*
X582592Y448359D01*
X582326Y448321D01*
X582040Y448283D01*
X581698Y448207D01*
X581336Y448131D01*
X580974Y447997D01*
X580574Y447864D01*
X580174Y447674D01*
X579794Y447464D01*
X579413Y447217D01*
X579032Y446912D01*
X578689Y446569D01*
X578366Y446188D01*
X578346Y446170D01*
X578289Y446093D01*
X578213Y445960D01*
X578118Y445770D01*
X577985Y445541D01*
X577851Y445275D01*
X577699Y444932D01*
X577547Y444570D01*
X577394Y444132D01*
X577261Y443656D01*
X577109Y443123D01*
X576995Y442552D01*
X576880Y441943D01*
X576804Y441276D01*
X576747Y440553D01*
X576728Y439791D01*
Y437849D01*
Y437830D01*
Y437811D01*
Y437754D01*
Y437678D01*
Y437582D01*
X576747Y437468D01*
X576766Y437183D01*
X576785Y436859D01*
X576823Y436459D01*
X576880Y436040D01*
X576957Y435564D01*
X577052Y435069D01*
X577166Y434555D01*
X577318Y434022D01*
X577490Y433489D01*
X577699Y432975D01*
X577947Y432461D01*
X578213Y431966D01*
X578537Y431509D01*
X578556Y431490D01*
X578613Y431414D01*
X578727Y431299D01*
X578880Y431147D01*
X579051Y430976D01*
X579279Y430766D01*
X579546Y430557D01*
X579832Y430347D01*
X580174Y430119D01*
X580536Y429909D01*
X580955Y429719D01*
X581393Y429529D01*
X581869Y429376D01*
X582364Y429262D01*
X582897Y429186D01*
X583468Y429167D01*
X583773D01*
X583925Y429186D01*
X584097D01*
X584306Y429205D01*
X584515Y429224D01*
X584991Y429262D01*
X585525Y429319D01*
X586039Y429414D01*
X586553Y429548D01*
X586572D01*
X586610Y429567D01*
X586686Y429586D01*
X586781Y429624D01*
X586876Y429662D01*
X587010Y429719D01*
X587314Y429852D01*
X587657Y430043D01*
X588019Y430271D01*
X588381Y430538D01*
X588723Y430861D01*
Y436173D01*
X583240D01*
Y438725D01*
X591827D01*
Y430043D01*
X591808Y430023D01*
X591770Y429966D01*
X591693Y429871D01*
X591598Y429757D01*
X591484Y429624D01*
X591332Y429452D01*
X591160Y429262D01*
X590951Y429072D01*
X590741Y428862D01*
X590475Y428653D01*
X590208Y428443D01*
X589904Y428215D01*
X589580Y428005D01*
X589237Y427815D01*
X588876Y427625D01*
X588476Y427453D01*
X588457D01*
X588381Y427415D01*
X588266Y427377D01*
X588095Y427320D01*
X587886Y427263D01*
X587638Y427187D01*
X587352Y427110D01*
X587048Y427034D01*
X586686Y426958D01*
X586305Y426882D01*
X585886Y426806D01*
X585448Y426749D01*
X584972Y426692D01*
X584496Y426653D01*
X583982Y426634D01*
X583449Y426615D01*
X583164D01*
X582954Y426634D01*
X582707Y426653D01*
X582421Y426692D01*
X582078Y426730D01*
X581717Y426787D01*
X581336Y426863D01*
X580917Y426939D01*
X580498Y427053D01*
X580060Y427187D01*
X579622Y427339D01*
X579184Y427529D01*
X578746Y427739D01*
X578308Y427967D01*
X578289Y427986D01*
X578213Y428024D01*
X578099Y428100D01*
X577947Y428215D01*
X577756Y428348D01*
X577528Y428519D01*
X577299Y428729D01*
X577033Y428957D01*
X576747Y429205D01*
X576462Y429509D01*
X576176Y429814D01*
X575890Y430157D01*
X575605Y430538D01*
X575338Y430937D01*
X575072Y431356D01*
X574824Y431813D01*
X574805Y431851D01*
X574767Y431927D01*
X574710Y432061D01*
X574634Y432251D01*
X574539Y432499D01*
X574443Y432784D01*
X574329Y433108D01*
X574215Y433489D01*
X574101Y433889D01*
X573986Y434346D01*
X573891Y434822D01*
X573796Y435336D01*
X573701Y435869D01*
X573644Y436440D01*
X573605Y437030D01*
X573587Y437640D01*
Y439696D01*
Y439715D01*
Y439753D01*
Y439829D01*
Y439924D01*
X573605Y440058D01*
Y440210D01*
Y440381D01*
X573625Y440572D01*
X573644Y440800D01*
X573663Y441029D01*
X573720Y441543D01*
X573796Y442114D01*
X573891Y442742D01*
X574024Y443390D01*
X574196Y444075D01*
X574405Y444761D01*
X574634Y445465D01*
X574919Y446131D01*
X575262Y446798D01*
X575643Y447426D01*
X576081Y447997D01*
X576119Y448035D01*
X576195Y448131D01*
X576347Y448264D01*
X576538Y448454D01*
X576804Y448683D01*
X577109Y448930D01*
X577471Y449197D01*
X577889Y449482D01*
X578366Y449749D01*
X578899Y450015D01*
X579470Y450263D01*
X580098Y450492D01*
X580784Y450682D01*
X581507Y450815D01*
X582288Y450910D01*
X583107Y450948D01*
X583278D01*
X583468Y450929D01*
D02*
G37*
G36*
X364451Y444856D02*
X364641D01*
X364851Y444818D01*
X365079Y444780D01*
X365289Y444722D01*
X365479Y444646D01*
Y441847D01*
X365441D01*
X365365Y441866D01*
X365213Y441886D01*
X365041Y441904D01*
X364813Y441924D01*
X364565Y441943D01*
X364280Y441962D01*
X363861D01*
X363709Y441943D01*
X363518Y441924D01*
X363271Y441886D01*
X363004Y441828D01*
X362699Y441752D01*
X362395Y441638D01*
X362052Y441505D01*
X361709Y441352D01*
X361386Y441143D01*
X361062Y440895D01*
X360738Y440610D01*
X360453Y440267D01*
X360205Y439867D01*
X359977Y439429D01*
Y426939D01*
X356968D01*
Y444551D01*
X359901D01*
X359939Y442514D01*
X359958Y442533D01*
X360015Y442609D01*
X360091Y442723D01*
X360205Y442876D01*
X360357Y443066D01*
X360548Y443256D01*
X360776Y443466D01*
X361024Y443694D01*
X361310Y443923D01*
X361614Y444132D01*
X361957Y444323D01*
X362338Y444513D01*
X362757Y444665D01*
X363175Y444780D01*
X363651Y444856D01*
X364146Y444875D01*
X364299D01*
X364451Y444856D01*
D02*
G37*
G36*
X449331D02*
X449446D01*
X449598Y444837D01*
X449769Y444818D01*
X449960Y444780D01*
X450379Y444684D01*
X450855Y444551D01*
X451350Y444342D01*
X451883Y444094D01*
X452149Y443923D01*
X452397Y443751D01*
X452663Y443561D01*
X452911Y443332D01*
X453159Y443085D01*
X453387Y442818D01*
X453615Y442533D01*
X453825Y442209D01*
X454015Y441866D01*
X454187Y441486D01*
X454339Y441086D01*
X454453Y440648D01*
X454567Y440191D01*
X454644Y439677D01*
X454701Y439144D01*
X454720Y438573D01*
Y426939D01*
X451692D01*
Y438592D01*
Y438611D01*
Y438668D01*
Y438782D01*
X451673Y438896D01*
Y439068D01*
X451654Y439239D01*
X451616Y439448D01*
X451578Y439658D01*
X451483Y440115D01*
X451331Y440591D01*
X451121Y441029D01*
X450988Y441219D01*
X450836Y441409D01*
Y441429D01*
X450798Y441447D01*
X450740Y441486D01*
X450683Y441562D01*
X450588Y441619D01*
X450474Y441695D01*
X450341Y441790D01*
X450188Y441866D01*
X449998Y441962D01*
X449807Y442038D01*
X449598Y442114D01*
X449351Y442190D01*
X449084Y442247D01*
X448798Y442285D01*
X448494Y442304D01*
X448170Y442323D01*
X448037D01*
X447923Y442304D01*
X447789D01*
X447656Y442285D01*
X447294Y442228D01*
X446894Y442133D01*
X446475Y441981D01*
X446019Y441790D01*
X445600Y441524D01*
X445581D01*
X445542Y441486D01*
X445485Y441447D01*
X445409Y441390D01*
X445219Y441219D01*
X444971Y440972D01*
X444686Y440686D01*
X444400Y440343D01*
X444114Y439943D01*
X443867Y439486D01*
Y426939D01*
X440859D01*
Y444551D01*
X443715D01*
X443810Y442323D01*
X443829Y442361D01*
X443905Y442438D01*
X444019Y442552D01*
X444172Y442723D01*
X444381Y442914D01*
X444629Y443123D01*
X444895Y443371D01*
X445219Y443599D01*
X445581Y443847D01*
X445980Y444075D01*
X446418Y444284D01*
X446894Y444475D01*
X447389Y444646D01*
X447923Y444761D01*
X448494Y444856D01*
X449084Y444875D01*
X449217D01*
X449331Y444856D01*
D02*
G37*
G36*
X615246Y426939D02*
X612104D01*
Y437887D01*
X600166D01*
Y426939D01*
X597044D01*
Y450625D01*
X600166D01*
Y440438D01*
X612104D01*
Y450625D01*
X615246D01*
Y426939D01*
D02*
G37*
G36*
X466582Y444856D02*
X466791D01*
X467039Y444818D01*
X467343Y444780D01*
X467667Y444722D01*
X468029Y444646D01*
X468409Y444551D01*
X468809Y444437D01*
X469209Y444284D01*
X469628Y444113D01*
X470047Y443923D01*
X470447Y443675D01*
X470847Y443409D01*
X471227Y443085D01*
X471246Y443066D01*
X471304Y443009D01*
X471418Y442895D01*
X471532Y442761D01*
X471684Y442590D01*
X471856Y442381D01*
X472027Y442133D01*
X472218Y441847D01*
X472408Y441543D01*
X472598Y441181D01*
X472770Y440819D01*
X472922Y440400D01*
X473074Y439962D01*
X473189Y439505D01*
X473265Y439010D01*
X473303Y438496D01*
X470466D01*
Y438515D01*
Y438573D01*
X470447Y438668D01*
X470428Y438782D01*
X470409Y438915D01*
X470371Y439087D01*
X470314Y439277D01*
X470256Y439486D01*
X470085Y439924D01*
X469857Y440400D01*
X469723Y440629D01*
X469552Y440857D01*
X469381Y441086D01*
X469171Y441295D01*
X469152Y441314D01*
X469114Y441352D01*
X469057Y441390D01*
X468962Y441467D01*
X468847Y441543D01*
X468714Y441638D01*
X468562Y441752D01*
X468371Y441847D01*
X468181Y441943D01*
X467953Y442057D01*
X467477Y442228D01*
X467191Y442304D01*
X466905Y442361D01*
X466620Y442381D01*
X466296Y442400D01*
X466201D01*
X466087Y442381D01*
X465915D01*
X465725Y442342D01*
X465515Y442304D01*
X465268Y442266D01*
X465001Y442190D01*
X464716Y442114D01*
X464430Y442000D01*
X464125Y441866D01*
X463840Y441695D01*
X463535Y441505D01*
X463250Y441295D01*
X462983Y441029D01*
X462736Y440743D01*
X462717Y440724D01*
X462678Y440667D01*
X462621Y440572D01*
X462545Y440438D01*
X462450Y440267D01*
X462336Y440058D01*
X462221Y439810D01*
X462107Y439525D01*
X461993Y439201D01*
X461879Y438858D01*
X461765Y438458D01*
X461669Y438020D01*
X461593Y437563D01*
X461536Y437068D01*
X461498Y436535D01*
X461479Y435964D01*
Y435393D01*
Y435355D01*
Y435260D01*
Y435107D01*
X461498Y434898D01*
X461517Y434631D01*
X461555Y434346D01*
X461593Y434022D01*
X461631Y433660D01*
X461707Y433298D01*
X461784Y432918D01*
X461879Y432518D01*
X462012Y432137D01*
X462145Y431756D01*
X462317Y431375D01*
X462507Y431033D01*
X462736Y430709D01*
X462755Y430690D01*
X462793Y430633D01*
X462869Y430557D01*
X462964Y430462D01*
X463097Y430328D01*
X463250Y430195D01*
X463440Y430043D01*
X463650Y429890D01*
X463897Y429738D01*
X464164Y429586D01*
X464449Y429452D01*
X464773Y429319D01*
X465116Y429224D01*
X465496Y429148D01*
X465896Y429091D01*
X466315Y429072D01*
X466467D01*
X466582Y429091D01*
X466734Y429110D01*
X466886Y429129D01*
X467077Y429148D01*
X467267Y429186D01*
X467724Y429300D01*
X468181Y429490D01*
X468429Y429586D01*
X468676Y429719D01*
X468905Y429871D01*
X469133Y430043D01*
X469152Y430062D01*
X469190Y430081D01*
X469247Y430138D01*
X469323Y430214D01*
X469419Y430309D01*
X469514Y430423D01*
X469742Y430709D01*
X469990Y431071D01*
X470199Y431490D01*
X470371Y431947D01*
X470428Y432213D01*
X470466Y432480D01*
X473303D01*
Y432461D01*
Y432404D01*
X473284Y432327D01*
Y432232D01*
X473265Y432099D01*
X473227Y431927D01*
X473189Y431756D01*
X473150Y431566D01*
X473017Y431109D01*
X472827Y430633D01*
X472579Y430119D01*
X472427Y429871D01*
X472256Y429605D01*
X472237Y429586D01*
X472218Y429548D01*
X472160Y429471D01*
X472084Y429376D01*
X471989Y429262D01*
X471875Y429129D01*
X471741Y428976D01*
X471589Y428824D01*
X471208Y428462D01*
X470771Y428100D01*
X470275Y427739D01*
X469704Y427415D01*
X469685D01*
X469628Y427377D01*
X469552Y427339D01*
X469419Y427282D01*
X469285Y427225D01*
X469095Y427168D01*
X468905Y427091D01*
X468676Y427015D01*
X468429Y426939D01*
X468181Y426863D01*
X467610Y426749D01*
X466982Y426653D01*
X466315Y426615D01*
X466163D01*
X465972Y426634D01*
X465725Y426653D01*
X465420Y426692D01*
X465059Y426749D01*
X464678Y426825D01*
X464259Y426920D01*
X463802Y427034D01*
X463326Y427206D01*
X462850Y427396D01*
X462374Y427625D01*
X461898Y427910D01*
X461441Y428215D01*
X461003Y428596D01*
X460584Y429014D01*
X460565Y429034D01*
X460489Y429129D01*
X460394Y429262D01*
X460260Y429452D01*
X460089Y429700D01*
X459918Y429986D01*
X459727Y430347D01*
X459537Y430728D01*
X459327Y431185D01*
X459137Y431661D01*
X458966Y432213D01*
X458794Y432784D01*
X458661Y433413D01*
X458566Y434098D01*
X458490Y434803D01*
X458471Y435564D01*
Y436078D01*
Y436116D01*
Y436193D01*
Y436326D01*
X458490Y436516D01*
X458509Y436745D01*
X458528Y436992D01*
X458547Y437297D01*
X458585Y437620D01*
X458642Y437963D01*
X458699Y438325D01*
X458871Y439087D01*
X458966Y439486D01*
X459099Y439886D01*
X459232Y440267D01*
X459404Y440648D01*
X459423Y440667D01*
X459442Y440743D01*
X459499Y440838D01*
X459575Y440972D01*
X459670Y441143D01*
X459803Y441333D01*
X459937Y441562D01*
X460108Y441790D01*
X460279Y442038D01*
X460489Y442285D01*
X460717Y442552D01*
X460946Y442799D01*
X461212Y443047D01*
X461498Y443294D01*
X461803Y443542D01*
X462126Y443751D01*
X462145Y443770D01*
X462203Y443809D01*
X462298Y443847D01*
X462450Y443923D01*
X462602Y444018D01*
X462812Y444113D01*
X463040Y444208D01*
X463307Y444323D01*
X463611Y444418D01*
X463916Y444513D01*
X464259Y444608D01*
X464640Y444703D01*
X465020Y444780D01*
X465420Y444818D01*
X465858Y444856D01*
X466296Y444875D01*
X466429D01*
X466582Y444856D01*
D02*
G37*
G36*
X482690Y424235D02*
Y424216D01*
X482670Y424178D01*
X482651Y424121D01*
X482613Y424045D01*
X482575Y423950D01*
X482518Y423836D01*
X482385Y423550D01*
X482195Y423207D01*
X481985Y422846D01*
X481718Y422446D01*
X481433Y422046D01*
X481090Y421627D01*
X480690Y421227D01*
X480271Y420865D01*
X479795Y420523D01*
X479281Y420237D01*
X479015Y420123D01*
X478729Y420027D01*
X478425Y419951D01*
X478120Y419894D01*
X477796Y419856D01*
X477473Y419837D01*
X476901Y419894D01*
X475778Y420104D01*
Y422541D01*
X476597Y422465D01*
X476749D01*
X476844Y422484D01*
X476977D01*
X477130Y422503D01*
X477473Y422541D01*
X477853Y422617D01*
X478253Y422731D01*
X478634Y422884D01*
X478977Y423093D01*
X478996D01*
X479015Y423131D01*
X479129Y423226D01*
X479281Y423379D01*
X479377Y423493D01*
X479472Y423607D01*
X479586Y423759D01*
X479700Y423931D01*
X479814Y424102D01*
X479929Y424311D01*
X480043Y424540D01*
X480176Y424788D01*
X480271Y425073D01*
X480386Y425359D01*
X481052Y427130D01*
X474769Y444551D01*
X478063D01*
X482461Y431356D01*
X486555Y444551D01*
X489772D01*
X482690Y424235D01*
D02*
G37*
G36*
X418639Y426939D02*
X415764D01*
X415707Y428672D01*
X415688Y428653D01*
X415631Y428577D01*
X415516Y428481D01*
X415383Y428348D01*
X415193Y428196D01*
X414964Y428024D01*
X414717Y427834D01*
X414412Y427643D01*
X414069Y427453D01*
X413669Y427263D01*
X413251Y427091D01*
X412794Y426939D01*
X412299Y426806D01*
X411747Y426711D01*
X411175Y426634D01*
X410547Y426615D01*
X410433D01*
X410280Y426634D01*
X410090D01*
X409842Y426673D01*
X409576Y426711D01*
X409271Y426749D01*
X408948Y426825D01*
X408624Y426901D01*
X408262Y427015D01*
X407900Y427148D01*
X407558Y427301D01*
X407196Y427491D01*
X406872Y427701D01*
X406549Y427948D01*
X406263Y428234D01*
X406244Y428253D01*
X406206Y428310D01*
X406130Y428405D01*
X406035Y428538D01*
X405920Y428710D01*
X405806Y428919D01*
X405673Y429167D01*
X405520Y429452D01*
X405387Y429776D01*
X405254Y430138D01*
X405140Y430538D01*
X405025Y430976D01*
X404930Y431452D01*
X404854Y431966D01*
X404797Y432499D01*
X404778Y433089D01*
Y444551D01*
X407786D01*
Y433165D01*
Y433146D01*
Y433127D01*
Y433070D01*
Y432994D01*
X407805Y432803D01*
X407843Y432537D01*
X407881Y432232D01*
X407958Y431909D01*
X408053Y431547D01*
X408186Y431166D01*
X408357Y430785D01*
X408586Y430423D01*
X408852Y430100D01*
X409157Y429795D01*
X409538Y429529D01*
X409976Y429338D01*
X410204Y429262D01*
X410471Y429205D01*
X410737Y429186D01*
X411042Y429167D01*
X411194D01*
X411366Y429186D01*
X411594Y429205D01*
X411880Y429243D01*
X412184Y429300D01*
X412546Y429376D01*
X412908Y429490D01*
X413289Y429624D01*
X413669Y429795D01*
X414069Y430005D01*
X414431Y430252D01*
X414793Y430538D01*
X415098Y430880D01*
X415383Y431280D01*
X415631Y431737D01*
Y444551D01*
X418639D01*
Y426939D01*
D02*
G37*
G36*
X561325Y447845D02*
X551748D01*
X551024Y441390D01*
X551043Y441409D01*
X551100Y441429D01*
X551195Y441486D01*
X551329Y441543D01*
X551500Y441638D01*
X551690Y441714D01*
X551919Y441809D01*
X552185Y441904D01*
X552452Y442000D01*
X552757Y442095D01*
X553080Y442190D01*
X553442Y442266D01*
X554185Y442381D01*
X554585Y442400D01*
X554984Y442419D01*
X555137D01*
X555289Y442400D01*
X555517Y442381D01*
X555803Y442361D01*
X556108Y442304D01*
X556469Y442247D01*
X556850Y442152D01*
X557250Y442038D01*
X557669Y441886D01*
X558088Y441714D01*
X558526Y441505D01*
X558945Y441257D01*
X559364Y440972D01*
X559763Y440648D01*
X560125Y440267D01*
X560144Y440248D01*
X560201Y440172D01*
X560297Y440039D01*
X560430Y439886D01*
X560563Y439658D01*
X560735Y439391D01*
X560906Y439087D01*
X561077Y438744D01*
X561249Y438344D01*
X561420Y437925D01*
X561591Y437449D01*
X561725Y436935D01*
X561858Y436364D01*
X561953Y435774D01*
X562010Y435145D01*
X562029Y434479D01*
Y434460D01*
Y434441D01*
Y434384D01*
Y434327D01*
X562010Y434136D01*
X561991Y433870D01*
X561972Y433565D01*
X561934Y433203D01*
X561858Y432822D01*
X561782Y432384D01*
X561687Y431927D01*
X561553Y431471D01*
X561382Y430976D01*
X561191Y430500D01*
X560963Y430023D01*
X560696Y429567D01*
X560392Y429129D01*
X560049Y428710D01*
X560030Y428691D01*
X559954Y428615D01*
X559840Y428519D01*
X559687Y428386D01*
X559478Y428234D01*
X559230Y428043D01*
X558945Y427853D01*
X558621Y427663D01*
X558240Y427472D01*
X557840Y427282D01*
X557383Y427110D01*
X556888Y426939D01*
X556355Y426806D01*
X555784Y426711D01*
X555175Y426634D01*
X554527Y426615D01*
X554394D01*
X554223Y426634D01*
X554013D01*
X553747Y426673D01*
X553423Y426711D01*
X553080Y426768D01*
X552719Y426825D01*
X552319Y426920D01*
X551900Y427034D01*
X551481Y427187D01*
X551043Y427339D01*
X550605Y427548D01*
X550186Y427777D01*
X549787Y428043D01*
X549406Y428348D01*
X549387Y428367D01*
X549330Y428424D01*
X549215Y428519D01*
X549101Y428672D01*
X548930Y428843D01*
X548758Y429052D01*
X548568Y429319D01*
X548378Y429605D01*
X548187Y429928D01*
X547978Y430290D01*
X547787Y430690D01*
X547616Y431109D01*
X547464Y431585D01*
X547311Y432080D01*
X547216Y432594D01*
X547140Y433165D01*
X549996D01*
Y433146D01*
X550015Y433070D01*
X550034Y432975D01*
X550053Y432822D01*
X550091Y432670D01*
X550148Y432461D01*
X550205Y432251D01*
X550281Y432023D01*
X550453Y431528D01*
X550719Y431014D01*
X550853Y430766D01*
X551024Y430519D01*
X551215Y430309D01*
X551424Y430100D01*
X551443Y430081D01*
X551481Y430062D01*
X551538Y430005D01*
X551633Y429947D01*
X551748Y429871D01*
X551900Y429776D01*
X552071Y429681D01*
X552262Y429586D01*
X552471Y429490D01*
X552700Y429395D01*
X552947Y429319D01*
X553233Y429224D01*
X553518Y429167D01*
X553842Y429110D01*
X554185Y429091D01*
X554527Y429072D01*
X554623D01*
X554737Y429091D01*
X554870D01*
X555042Y429110D01*
X555251Y429148D01*
X555479Y429186D01*
X555727Y429243D01*
X555994Y429319D01*
X556260Y429414D01*
X556527Y429529D01*
X556793Y429681D01*
X557079Y429833D01*
X557345Y430023D01*
X557593Y430252D01*
X557821Y430500D01*
X557840Y430519D01*
X557878Y430576D01*
X557936Y430652D01*
X558012Y430766D01*
X558107Y430899D01*
X558202Y431090D01*
X558316Y431299D01*
X558431Y431528D01*
X558526Y431794D01*
X558640Y432099D01*
X558735Y432423D01*
X558830Y432765D01*
X558907Y433146D01*
X558964Y433546D01*
X559002Y433984D01*
X559021Y434441D01*
Y434460D01*
Y434555D01*
Y434669D01*
X559002Y434841D01*
X558983Y435031D01*
X558945Y435279D01*
X558907Y435526D01*
X558869Y435812D01*
X558697Y436421D01*
X558602Y436745D01*
X558469Y437068D01*
X558335Y437373D01*
X558145Y437697D01*
X557955Y437982D01*
X557726Y438268D01*
X557707Y438287D01*
X557669Y438325D01*
X557593Y438401D01*
X557498Y438496D01*
X557364Y438611D01*
X557212Y438725D01*
X557022Y438858D01*
X556812Y438991D01*
X556584Y439125D01*
X556317Y439258D01*
X556032Y439372D01*
X555727Y439486D01*
X555403Y439582D01*
X555042Y439658D01*
X554680Y439696D01*
X554280Y439715D01*
X554089D01*
X553956Y439696D01*
X553785D01*
X553594Y439677D01*
X553385Y439639D01*
X553157Y439601D01*
X552662Y439505D01*
X552147Y439353D01*
X551652Y439125D01*
X551424Y438991D01*
X551195Y438839D01*
X550396Y438192D01*
X547997Y438820D01*
X549196Y450625D01*
X561325D01*
Y447845D01*
D02*
G37*
G36*
X632972Y442400D02*
X623167Y429395D01*
X633467D01*
Y426939D01*
X619492D01*
Y429148D01*
X629202Y442057D01*
X619625D01*
Y444551D01*
X632972D01*
Y442400D01*
D02*
G37*
G36*
X510279Y426939D02*
X507251D01*
Y446988D01*
X501196Y444761D01*
Y447502D01*
X509822Y450739D01*
X510279D01*
Y426939D01*
D02*
G37*
G36*
X353713Y448073D02*
X342155D01*
Y439962D01*
X352094D01*
Y437411D01*
X342155D01*
Y426939D01*
X339033D01*
Y450625D01*
X353713D01*
Y448073D01*
D02*
G37*
G36*
X540381Y430328D02*
X540590Y430290D01*
X540819Y430214D01*
X541047Y430119D01*
X541276Y429986D01*
X541466Y429814D01*
X541485Y429795D01*
X541542Y429719D01*
X541618Y429605D01*
X541713Y429452D01*
X541790Y429281D01*
X541866Y429052D01*
X541923Y428805D01*
X541942Y428519D01*
Y428481D01*
Y428386D01*
X541923Y428253D01*
X541885Y428082D01*
X541828Y427872D01*
X541733Y427663D01*
X541618Y427453D01*
X541466Y427263D01*
X541447Y427244D01*
X541371Y427187D01*
X541276Y427110D01*
X541104Y427015D01*
X540914Y426920D01*
X540666Y426844D01*
X540381Y426787D01*
X540057Y426768D01*
X539905D01*
X539733Y426787D01*
X539543Y426825D01*
X539315Y426882D01*
X539086Y426977D01*
X538858Y427091D01*
X538667Y427263D01*
X538648Y427282D01*
X538591Y427358D01*
X538515Y427453D01*
X538439Y427605D01*
X538363Y427796D01*
X538286Y428005D01*
X538229Y428253D01*
X538210Y428519D01*
Y428557D01*
Y428653D01*
X538229Y428786D01*
X538267Y428976D01*
X538324Y429186D01*
X538401Y429395D01*
X538515Y429605D01*
X538667Y429814D01*
X538686Y429833D01*
X538762Y429890D01*
X538858Y429986D01*
X539010Y430081D01*
X539200Y430176D01*
X539448Y430271D01*
X539733Y430328D01*
X540057Y430347D01*
X540209D01*
X540381Y430328D01*
D02*
G37*
G36*
X526843Y450929D02*
X527110Y450910D01*
X527433Y450872D01*
X527795Y450815D01*
X528195Y450739D01*
X528614Y450644D01*
X529071Y450511D01*
X529528Y450358D01*
X530004Y450149D01*
X530461Y449920D01*
X530918Y449635D01*
X531337Y449311D01*
X531737Y448930D01*
X532098Y448492D01*
X532117Y448473D01*
X532174Y448378D01*
X532270Y448226D01*
X532384Y448035D01*
X532517Y447769D01*
X532669Y447445D01*
X532841Y447064D01*
X533012Y446626D01*
X533184Y446131D01*
X533355Y445560D01*
X533507Y444951D01*
X533641Y444266D01*
X533774Y443523D01*
X533869Y442723D01*
X533926Y441866D01*
X533964Y440934D01*
Y437030D01*
Y437011D01*
Y436973D01*
Y436897D01*
Y436802D01*
Y436668D01*
X533945Y436516D01*
Y436364D01*
Y436154D01*
X533926Y435945D01*
X533907Y435716D01*
X533869Y435221D01*
X533812Y434669D01*
X533736Y434060D01*
X533641Y433432D01*
X533526Y432784D01*
X533374Y432137D01*
X533203Y431490D01*
X532993Y430842D01*
X532746Y430252D01*
X532479Y429681D01*
X532155Y429167D01*
X532136Y429148D01*
X532079Y429052D01*
X531965Y428938D01*
X531813Y428767D01*
X531622Y428577D01*
X531375Y428367D01*
X531108Y428139D01*
X530765Y427891D01*
X530404Y427663D01*
X529985Y427415D01*
X529528Y427206D01*
X529014Y427015D01*
X528462Y426844D01*
X527852Y426730D01*
X527205Y426653D01*
X526520Y426615D01*
X526348D01*
X526158Y426634D01*
X525891Y426653D01*
X525587Y426692D01*
X525225Y426749D01*
X524825Y426825D01*
X524406Y426920D01*
X523949Y427053D01*
X523492Y427225D01*
X523016Y427434D01*
X522559Y427663D01*
X522102Y427948D01*
X521664Y428291D01*
X521265Y428672D01*
X520903Y429110D01*
X520884Y429148D01*
X520827Y429224D01*
X520731Y429376D01*
X520617Y429586D01*
X520484Y429852D01*
X520313Y430176D01*
X520160Y430557D01*
X519989Y430995D01*
X519817Y431490D01*
X519646Y432042D01*
X519475Y432670D01*
X519342Y433336D01*
X519208Y434079D01*
X519113Y434879D01*
X519056Y435716D01*
X519018Y436630D01*
Y440648D01*
Y440667D01*
Y440705D01*
Y440781D01*
Y440876D01*
Y441010D01*
X519037Y441143D01*
Y441314D01*
X519056Y441505D01*
X519075Y441943D01*
X519113Y442438D01*
X519170Y442990D01*
X519246Y443580D01*
X519342Y444189D01*
X519456Y444837D01*
X519608Y445484D01*
X519779Y446112D01*
X519970Y446741D01*
X520217Y447331D01*
X520484Y447902D01*
X520808Y448397D01*
X520827Y448435D01*
X520903Y448511D01*
X520998Y448626D01*
X521150Y448797D01*
X521341Y448987D01*
X521588Y449197D01*
X521874Y449444D01*
X522197Y449673D01*
X522578Y449920D01*
X522997Y450149D01*
X523454Y450358D01*
X523968Y450549D01*
X524520Y450720D01*
X525130Y450834D01*
X525777Y450929D01*
X526481Y450948D01*
X526653D01*
X526843Y450929D01*
D02*
G37*
G36*
X430463Y444856D02*
X430710Y444837D01*
X430996Y444799D01*
X431320Y444761D01*
X431700Y444684D01*
X432100Y444589D01*
X432519Y444475D01*
X432938Y444323D01*
X433395Y444132D01*
X433833Y443923D01*
X434271Y443656D01*
X434690Y443352D01*
X435089Y443009D01*
X435470Y442609D01*
X435489Y442590D01*
X435546Y442495D01*
X435642Y442381D01*
X435775Y442190D01*
X435908Y441962D01*
X436080Y441676D01*
X436251Y441333D01*
X436422Y440952D01*
X436594Y440515D01*
X436765Y440020D01*
X436936Y439486D01*
X437070Y438915D01*
X437203Y438287D01*
X437298Y437602D01*
X437355Y436878D01*
X437374Y436116D01*
Y434879D01*
X425455D01*
Y434841D01*
Y434764D01*
X425474Y434631D01*
X425493Y434441D01*
X425512Y434231D01*
X425551Y433965D01*
X425608Y433679D01*
X425665Y433375D01*
X425741Y433051D01*
X425855Y432708D01*
X425969Y432366D01*
X426122Y432004D01*
X426293Y431661D01*
X426483Y431318D01*
X426712Y430976D01*
X426959Y430671D01*
X426978Y430652D01*
X427036Y430595D01*
X427112Y430519D01*
X427226Y430423D01*
X427359Y430309D01*
X427550Y430157D01*
X427740Y430023D01*
X427969Y429871D01*
X428235Y429719D01*
X428502Y429586D01*
X428825Y429452D01*
X429149Y429319D01*
X429492Y429224D01*
X429873Y429148D01*
X430253Y429091D01*
X430672Y429072D01*
X430825D01*
X430939Y429091D01*
X431072D01*
X431243Y429110D01*
X431415Y429129D01*
X431605Y429148D01*
X432043Y429224D01*
X432481Y429338D01*
X432938Y429509D01*
X433376Y429719D01*
X433395D01*
X433433Y429757D01*
X433490Y429795D01*
X433566Y429833D01*
X433776Y429986D01*
X434042Y430176D01*
X434328Y430423D01*
X434671Y430709D01*
X434994Y431052D01*
X435318Y431432D01*
X437146Y430005D01*
X437127Y429966D01*
X437051Y429852D01*
X436917Y429700D01*
X436727Y429471D01*
X436498Y429224D01*
X436213Y428938D01*
X435870Y428634D01*
X435489Y428310D01*
X435051Y427986D01*
X434556Y427682D01*
X434023Y427396D01*
X433414Y427148D01*
X432767Y426920D01*
X432081Y426768D01*
X431320Y426653D01*
X430920Y426634D01*
X430520Y426615D01*
X430368D01*
X430177Y426634D01*
X429930Y426653D01*
X429625Y426692D01*
X429263Y426749D01*
X428883Y426806D01*
X428445Y426901D01*
X427988Y427034D01*
X427531Y427187D01*
X427036Y427377D01*
X426560Y427605D01*
X426065Y427872D01*
X425589Y428177D01*
X425132Y428538D01*
X424694Y428957D01*
X424675Y428976D01*
X424599Y429072D01*
X424484Y429205D01*
X424351Y429395D01*
X424180Y429624D01*
X423989Y429909D01*
X423780Y430252D01*
X423570Y430633D01*
X423361Y431052D01*
X423151Y431528D01*
X422961Y432042D01*
X422790Y432613D01*
X422656Y433203D01*
X422542Y433851D01*
X422466Y434517D01*
X422447Y435241D01*
Y435793D01*
Y435831D01*
Y435907D01*
Y436040D01*
X422466Y436231D01*
X422485Y436459D01*
X422504Y436726D01*
X422523Y437030D01*
X422580Y437373D01*
X422618Y437716D01*
X422694Y438097D01*
X422866Y438877D01*
X422980Y439277D01*
X423113Y439677D01*
X423266Y440077D01*
X423437Y440477D01*
X423456Y440496D01*
X423475Y440572D01*
X423551Y440667D01*
X423627Y440819D01*
X423723Y440991D01*
X423856Y441181D01*
X423989Y441409D01*
X424161Y441657D01*
X424351Y441904D01*
X424560Y442171D01*
X424789Y442438D01*
X425036Y442704D01*
X425322Y442971D01*
X425608Y443218D01*
X425912Y443466D01*
X426236Y443694D01*
X426255Y443713D01*
X426312Y443751D01*
X426426Y443809D01*
X426560Y443885D01*
X426712Y443961D01*
X426921Y444075D01*
X427150Y444170D01*
X427397Y444284D01*
X427683Y444399D01*
X427988Y444494D01*
X428311Y444608D01*
X428654Y444684D01*
X428997Y444761D01*
X429378Y444818D01*
X429758Y444856D01*
X430139Y444875D01*
X430291D01*
X430463Y444856D01*
D02*
G37*
G36*
X375494D02*
X375742Y444837D01*
X376027Y444799D01*
X376351Y444761D01*
X376732Y444684D01*
X377132Y444589D01*
X377551Y444475D01*
X377970Y444323D01*
X378427Y444132D01*
X378864Y443923D01*
X379302Y443656D01*
X379721Y443352D01*
X380121Y443009D01*
X380502Y442609D01*
X380521Y442590D01*
X380578Y442495D01*
X380673Y442381D01*
X380806Y442190D01*
X380940Y441962D01*
X381111Y441676D01*
X381282Y441333D01*
X381454Y440952D01*
X381625Y440515D01*
X381797Y440020D01*
X381968Y439486D01*
X382101Y438915D01*
X382235Y438287D01*
X382330Y437602D01*
X382387Y436878D01*
X382406Y436116D01*
Y434879D01*
X370487D01*
Y434841D01*
Y434764D01*
X370506Y434631D01*
X370525Y434441D01*
X370544Y434231D01*
X370582Y433965D01*
X370639Y433679D01*
X370696Y433375D01*
X370772Y433051D01*
X370887Y432708D01*
X371001Y432366D01*
X371153Y432004D01*
X371325Y431661D01*
X371515Y431318D01*
X371743Y430976D01*
X371991Y430671D01*
X372010Y430652D01*
X372067Y430595D01*
X372143Y430519D01*
X372257Y430423D01*
X372391Y430309D01*
X372581Y430157D01*
X372772Y430023D01*
X373000Y429871D01*
X373267Y429719D01*
X373533Y429586D01*
X373857Y429452D01*
X374181Y429319D01*
X374523Y429224D01*
X374904Y429148D01*
X375285Y429091D01*
X375704Y429072D01*
X375856D01*
X375970Y429091D01*
X376104D01*
X376275Y429110D01*
X376446Y429129D01*
X376637Y429148D01*
X377075Y429224D01*
X377513Y429338D01*
X377970Y429509D01*
X378407Y429719D01*
X378427D01*
X378465Y429757D01*
X378522Y429795D01*
X378598Y429833D01*
X378807Y429986D01*
X379074Y430176D01*
X379359Y430423D01*
X379702Y430709D01*
X380026Y431052D01*
X380349Y431432D01*
X382177Y430005D01*
X382158Y429966D01*
X382082Y429852D01*
X381949Y429700D01*
X381758Y429471D01*
X381530Y429224D01*
X381244Y428938D01*
X380902Y428634D01*
X380521Y428310D01*
X380083Y427986D01*
X379588Y427682D01*
X379055Y427396D01*
X378446Y427148D01*
X377798Y426920D01*
X377113Y426768D01*
X376351Y426653D01*
X375951Y426634D01*
X375551Y426615D01*
X375399D01*
X375209Y426634D01*
X374961Y426653D01*
X374657Y426692D01*
X374295Y426749D01*
X373914Y426806D01*
X373476Y426901D01*
X373019Y427034D01*
X372562Y427187D01*
X372067Y427377D01*
X371591Y427605D01*
X371096Y427872D01*
X370620Y428177D01*
X370163Y428538D01*
X369725Y428957D01*
X369706Y428976D01*
X369630Y429072D01*
X369516Y429205D01*
X369383Y429395D01*
X369211Y429624D01*
X369021Y429909D01*
X368811Y430252D01*
X368602Y430633D01*
X368392Y431052D01*
X368183Y431528D01*
X367993Y432042D01*
X367821Y432613D01*
X367688Y433203D01*
X367574Y433851D01*
X367497Y434517D01*
X367478Y435241D01*
Y435793D01*
Y435831D01*
Y435907D01*
Y436040D01*
X367497Y436231D01*
X367517Y436459D01*
X367536Y436726D01*
X367555Y437030D01*
X367612Y437373D01*
X367650Y437716D01*
X367726Y438097D01*
X367897Y438877D01*
X368012Y439277D01*
X368145Y439677D01*
X368297Y440077D01*
X368469Y440477D01*
X368488Y440496D01*
X368507Y440572D01*
X368583Y440667D01*
X368659Y440819D01*
X368754Y440991D01*
X368887Y441181D01*
X369021Y441409D01*
X369192Y441657D01*
X369383Y441904D01*
X369592Y442171D01*
X369820Y442438D01*
X370068Y442704D01*
X370354Y442971D01*
X370639Y443218D01*
X370944Y443466D01*
X371267Y443694D01*
X371287Y443713D01*
X371344Y443751D01*
X371458Y443809D01*
X371591Y443885D01*
X371743Y443961D01*
X371953Y444075D01*
X372181Y444170D01*
X372429Y444284D01*
X372714Y444399D01*
X373019Y444494D01*
X373343Y444608D01*
X373686Y444684D01*
X374028Y444761D01*
X374409Y444818D01*
X374790Y444856D01*
X375171Y444875D01*
X375323D01*
X375494Y444856D01*
D02*
G37*
G36*
X392478D02*
X392687Y444837D01*
X392954Y444818D01*
X393259Y444761D01*
X393601Y444703D01*
X393963Y444608D01*
X394344Y444494D01*
X394744Y444361D01*
X395163Y444189D01*
X395563Y443980D01*
X395981Y443732D01*
X396381Y443466D01*
X396743Y443142D01*
X397105Y442761D01*
X397238Y444551D01*
X399999D01*
Y420180D01*
X396990D01*
Y428557D01*
X396971Y428538D01*
X396914Y428481D01*
X396800Y428386D01*
X396667Y428253D01*
X396476Y428100D01*
X396248Y427948D01*
X396000Y427777D01*
X395696Y427586D01*
X395372Y427415D01*
X395010Y427225D01*
X394611Y427072D01*
X394173Y426920D01*
X393716Y426787D01*
X393221Y426692D01*
X392687Y426634D01*
X392135Y426615D01*
X392002D01*
X391831Y426634D01*
X391602Y426653D01*
X391336Y426692D01*
X391031Y426749D01*
X390688Y426825D01*
X390307Y426920D01*
X389908Y427053D01*
X389489Y427225D01*
X389070Y427415D01*
X388651Y427663D01*
X388232Y427948D01*
X387813Y428272D01*
X387432Y428653D01*
X387052Y429091D01*
X387033Y429129D01*
X386975Y429205D01*
X386880Y429338D01*
X386766Y429548D01*
X386614Y429795D01*
X386461Y430100D01*
X386290Y430442D01*
X386119Y430842D01*
X385928Y431299D01*
X385757Y431794D01*
X385605Y432327D01*
X385471Y432918D01*
X385338Y433546D01*
X385243Y434212D01*
X385186Y434936D01*
X385167Y435678D01*
Y435888D01*
Y435907D01*
Y435945D01*
Y436002D01*
Y436078D01*
Y436173D01*
X385186Y436288D01*
X385205Y436573D01*
X385224Y436916D01*
X385262Y437335D01*
X385319Y437773D01*
X385414Y438268D01*
X385509Y438782D01*
X385624Y439315D01*
X385795Y439867D01*
X385966Y440419D01*
X386195Y440952D01*
X386442Y441486D01*
X386728Y441981D01*
X387071Y442457D01*
X387090Y442476D01*
X387166Y442552D01*
X387261Y442685D01*
X387413Y442837D01*
X387604Y443009D01*
X387851Y443218D01*
X388118Y443447D01*
X388422Y443675D01*
X388765Y443885D01*
X389146Y444113D01*
X389565Y444323D01*
X390022Y444494D01*
X390517Y444646D01*
X391031Y444780D01*
X391583Y444856D01*
X392173Y444875D01*
X392307D01*
X392478Y444856D01*
D02*
G37*
%LPC*%
G36*
X381920Y535627D02*
X376132D01*
Y526316D01*
X381996D01*
X382168Y526335D01*
X382377Y526355D01*
X382606Y526374D01*
X382872Y526412D01*
X383158Y526469D01*
X383786Y526602D01*
X384091Y526697D01*
X384415Y526812D01*
X384719Y526945D01*
X385024Y527116D01*
X385309Y527287D01*
X385576Y527497D01*
X385595Y527516D01*
X385633Y527554D01*
X385709Y527630D01*
X385785Y527725D01*
X385881Y527840D01*
X385995Y527992D01*
X386128Y528163D01*
X386261Y528373D01*
X386376Y528601D01*
X386509Y528849D01*
X386623Y529134D01*
X386718Y529439D01*
X386795Y529763D01*
X386871Y530124D01*
X386909Y530505D01*
X386928Y530905D01*
Y530924D01*
Y531000D01*
Y531114D01*
X386909Y531248D01*
X386890Y531438D01*
X386852Y531648D01*
X386814Y531876D01*
X386756Y532124D01*
X386680Y532390D01*
X386604Y532657D01*
X386490Y532942D01*
X386357Y533228D01*
X386204Y533514D01*
X386014Y533780D01*
X385823Y534047D01*
X385576Y534294D01*
X385557Y534313D01*
X385519Y534351D01*
X385443Y534408D01*
X385329Y534504D01*
X385195Y534599D01*
X385024Y534694D01*
X384833Y534827D01*
X384624Y534942D01*
X384377Y535056D01*
X384091Y535189D01*
X383805Y535284D01*
X383482Y535398D01*
X383120Y535475D01*
X382739Y535551D01*
X382339Y535608D01*
X381920Y535627D01*
D02*
G37*
G36*
X469257Y535817D02*
X469124D01*
X468971Y535798D01*
X468762Y535779D01*
X468514Y535741D01*
X468229Y535703D01*
X467905Y535627D01*
X467562Y535532D01*
X467201Y535418D01*
X466820Y535265D01*
X466439Y535075D01*
X466039Y534865D01*
X465658Y534599D01*
X465277Y534294D01*
X464935Y533952D01*
X464592Y533552D01*
X464573Y533533D01*
X464516Y533456D01*
X464440Y533323D01*
X464325Y533133D01*
X464192Y532904D01*
X464059Y532638D01*
X463907Y532295D01*
X463735Y531933D01*
X463583Y531514D01*
X463431Y531038D01*
X463278Y530524D01*
X463145Y529972D01*
X463031Y529363D01*
X462955Y528716D01*
X462878Y528030D01*
X462859Y527307D01*
Y525555D01*
Y525536D01*
Y525517D01*
Y525460D01*
Y525384D01*
Y525288D01*
X462878Y525155D01*
Y524888D01*
X462917Y524546D01*
X462955Y524146D01*
X463012Y523708D01*
X463069Y523232D01*
X463164Y522718D01*
X463278Y522204D01*
X463412Y521671D01*
X463583Y521138D01*
X463773Y520604D01*
X464002Y520090D01*
X464268Y519595D01*
X464573Y519138D01*
X464592Y519119D01*
X464649Y519043D01*
X464744Y518929D01*
X464897Y518777D01*
X465068Y518605D01*
X465277Y518396D01*
X465525Y518186D01*
X465811Y517977D01*
X466134Y517767D01*
X466477Y517558D01*
X466858Y517349D01*
X467296Y517177D01*
X467734Y517025D01*
X468229Y516911D01*
X468743Y516834D01*
X469295Y516816D01*
X469428D01*
X469581Y516834D01*
X469790Y516854D01*
X470056Y516892D01*
X470342Y516930D01*
X470666Y517006D01*
X471008Y517082D01*
X471389Y517196D01*
X471770Y517349D01*
X472151Y517520D01*
X472551Y517748D01*
X472931Y517996D01*
X473293Y518282D01*
X473655Y518624D01*
X473979Y519005D01*
X473998Y519024D01*
X474055Y519100D01*
X474131Y519234D01*
X474245Y519424D01*
X474360Y519652D01*
X474512Y519919D01*
X474664Y520243D01*
X474817Y520623D01*
X474969Y521042D01*
X475121Y521518D01*
X475273Y522032D01*
X475407Y522604D01*
X475521Y523213D01*
X475597Y523879D01*
X475673Y524584D01*
X475692Y525326D01*
Y527097D01*
Y527116D01*
Y527154D01*
Y527211D01*
Y527287D01*
Y527383D01*
X475673Y527497D01*
Y527782D01*
X475635Y528144D01*
X475597Y528544D01*
X475559Y529001D01*
X475483Y529477D01*
X475388Y529991D01*
X475273Y530524D01*
X475140Y531057D01*
X474969Y531591D01*
X474778Y532124D01*
X474550Y532638D01*
X474302Y533114D01*
X473998Y533552D01*
X473979Y533571D01*
X473922Y533647D01*
X473826Y533761D01*
X473693Y533913D01*
X473522Y534085D01*
X473293Y534275D01*
X473046Y534466D01*
X472779Y534694D01*
X472456Y534903D01*
X472094Y535094D01*
X471713Y535284D01*
X471275Y535456D01*
X470818Y535608D01*
X470342Y535722D01*
X469809Y535798D01*
X469257Y535817D01*
D02*
G37*
G36*
X426474D02*
X426341D01*
X426188Y535798D01*
X425979Y535779D01*
X425731Y535741D01*
X425446Y535703D01*
X425122Y535627D01*
X424779Y535532D01*
X424418Y535418D01*
X424037Y535265D01*
X423656Y535075D01*
X423256Y534865D01*
X422875Y534599D01*
X422495Y534294D01*
X422152Y533952D01*
X421809Y533552D01*
X421790Y533533D01*
X421733Y533456D01*
X421657Y533323D01*
X421543Y533133D01*
X421409Y532904D01*
X421276Y532638D01*
X421124Y532295D01*
X420952Y531933D01*
X420800Y531514D01*
X420648Y531038D01*
X420495Y530524D01*
X420362Y529972D01*
X420248Y529363D01*
X420172Y528716D01*
X420095Y528030D01*
X420077Y527307D01*
Y525555D01*
Y525536D01*
Y525517D01*
Y525460D01*
Y525384D01*
Y525288D01*
X420095Y525155D01*
Y524888D01*
X420134Y524546D01*
X420172Y524146D01*
X420229Y523708D01*
X420286Y523232D01*
X420381Y522718D01*
X420495Y522204D01*
X420629Y521671D01*
X420800Y521138D01*
X420990Y520604D01*
X421219Y520090D01*
X421485Y519595D01*
X421790Y519138D01*
X421809Y519119D01*
X421866Y519043D01*
X421961Y518929D01*
X422114Y518777D01*
X422285Y518605D01*
X422495Y518396D01*
X422742Y518186D01*
X423028Y517977D01*
X423351Y517767D01*
X423694Y517558D01*
X424075Y517349D01*
X424513Y517177D01*
X424951Y517025D01*
X425446Y516911D01*
X425960Y516834D01*
X426512Y516816D01*
X426645D01*
X426798Y516834D01*
X427007Y516854D01*
X427274Y516892D01*
X427559Y516930D01*
X427883Y517006D01*
X428226Y517082D01*
X428606Y517196D01*
X428987Y517349D01*
X429368Y517520D01*
X429768Y517748D01*
X430149Y517996D01*
X430510Y518282D01*
X430872Y518624D01*
X431196Y519005D01*
X431215Y519024D01*
X431272Y519100D01*
X431348Y519234D01*
X431462Y519424D01*
X431577Y519652D01*
X431729Y519919D01*
X431881Y520243D01*
X432034Y520623D01*
X432186Y521042D01*
X432338Y521518D01*
X432491Y522032D01*
X432624Y522604D01*
X432738Y523213D01*
X432814Y523879D01*
X432890Y524584D01*
X432909Y525326D01*
Y527097D01*
Y527116D01*
Y527154D01*
Y527211D01*
Y527287D01*
Y527383D01*
X432890Y527497D01*
Y527782D01*
X432852Y528144D01*
X432814Y528544D01*
X432776Y529001D01*
X432700Y529477D01*
X432605Y529991D01*
X432491Y530524D01*
X432357Y531057D01*
X432186Y531591D01*
X431995Y532124D01*
X431767Y532638D01*
X431520Y533114D01*
X431215Y533552D01*
X431196Y533571D01*
X431139Y533647D01*
X431043Y533761D01*
X430910Y533913D01*
X430739Y534085D01*
X430510Y534275D01*
X430263Y534466D01*
X429996Y534694D01*
X429673Y534903D01*
X429311Y535094D01*
X428930Y535284D01*
X428492Y535456D01*
X428035Y535608D01*
X427559Y535722D01*
X427026Y535798D01*
X426474Y535817D01*
D02*
G37*
G36*
X451578Y477144D02*
X445790D01*
Y467833D01*
X451654D01*
X451826Y467852D01*
X452035Y467871D01*
X452264Y467890D01*
X452530Y467928D01*
X452816Y467985D01*
X453444Y468119D01*
X453749Y468214D01*
X454072Y468328D01*
X454377Y468462D01*
X454682Y468633D01*
X454967Y468804D01*
X455234Y469014D01*
X455253Y469033D01*
X455291Y469071D01*
X455367Y469147D01*
X455443Y469242D01*
X455539Y469356D01*
X455653Y469509D01*
X455786Y469680D01*
X455919Y469889D01*
X456034Y470118D01*
X456167Y470365D01*
X456281Y470651D01*
X456376Y470956D01*
X456452Y471279D01*
X456529Y471641D01*
X456567Y472022D01*
X456586Y472422D01*
Y472441D01*
Y472517D01*
Y472631D01*
X456567Y472764D01*
X456548Y472955D01*
X456509Y473164D01*
X456471Y473393D01*
X456414Y473640D01*
X456338Y473907D01*
X456262Y474173D01*
X456148Y474459D01*
X456014Y474745D01*
X455862Y475030D01*
X455672Y475297D01*
X455481Y475563D01*
X455234Y475811D01*
X455215Y475830D01*
X455177Y475868D01*
X455101Y475925D01*
X454986Y476020D01*
X454853Y476116D01*
X454682Y476211D01*
X454491Y476344D01*
X454282Y476458D01*
X454034Y476573D01*
X453749Y476706D01*
X453463Y476801D01*
X453139Y476915D01*
X452778Y476991D01*
X452397Y477068D01*
X451997Y477125D01*
X451578Y477144D01*
D02*
G37*
G36*
X418125Y464558D02*
X415535D01*
X415402Y464539D01*
X415250D01*
X415078Y464520D01*
X414907Y464501D01*
X414488Y464463D01*
X414012Y464387D01*
X413517Y464292D01*
X413003Y464158D01*
X412489Y463987D01*
X411994Y463778D01*
X411518Y463511D01*
X411099Y463187D01*
X410928Y463016D01*
X410756Y462826D01*
X410604Y462616D01*
X410471Y462388D01*
X410376Y462159D01*
X410299Y461893D01*
X410261Y461607D01*
X410242Y461321D01*
Y461303D01*
Y461264D01*
Y461188D01*
X410261Y461093D01*
X410280Y460960D01*
X410299Y460826D01*
X410357Y460503D01*
X410471Y460160D01*
X410642Y459779D01*
X410737Y459589D01*
X410871Y459417D01*
X411004Y459246D01*
X411175Y459094D01*
X411194D01*
X411213Y459056D01*
X411271Y459018D01*
X411347Y458980D01*
X411442Y458922D01*
X411556Y458846D01*
X411842Y458713D01*
X412184Y458561D01*
X412603Y458427D01*
X413079Y458351D01*
X413612Y458313D01*
X413746D01*
X413860Y458332D01*
X413974D01*
X414126Y458351D01*
X414298Y458370D01*
X414469Y458408D01*
X414888Y458485D01*
X415326Y458618D01*
X415802Y458789D01*
X416278Y459037D01*
X416297D01*
X416335Y459075D01*
X416392Y459113D01*
X416487Y459170D01*
X416716Y459322D01*
X416983Y459551D01*
X417287Y459817D01*
X417592Y460141D01*
X417877Y460522D01*
X418125Y460941D01*
Y464558D01*
D02*
G37*
G36*
X553614Y477544D02*
X553518D01*
X553385Y477525D01*
X553233D01*
X553042Y477487D01*
X552833Y477448D01*
X552585Y477391D01*
X552338Y477334D01*
X552052Y477239D01*
X551786Y477125D01*
X551500Y476972D01*
X551215Y476801D01*
X550948Y476611D01*
X550700Y476363D01*
X550453Y476096D01*
X550243Y475792D01*
X550224Y475773D01*
X550205Y475716D01*
X550148Y475601D01*
X550072Y475468D01*
X549996Y475278D01*
X549920Y475049D01*
X549805Y474783D01*
X549710Y474478D01*
X549615Y474116D01*
X549520Y473716D01*
X549425Y473279D01*
X549349Y472803D01*
X549272Y472289D01*
X549215Y471717D01*
X549177Y471089D01*
X549158Y470442D01*
Y465625D01*
Y465605D01*
Y465587D01*
Y465529D01*
Y465453D01*
Y465263D01*
X549177Y464996D01*
X549196Y464673D01*
X549215Y464311D01*
X549253Y463911D01*
X549291Y463492D01*
X549349Y463035D01*
X549425Y462559D01*
X549520Y462083D01*
X549634Y461626D01*
X549748Y461169D01*
X549901Y460731D01*
X550072Y460331D01*
X550262Y459970D01*
X550281Y459951D01*
X550320Y459894D01*
X550377Y459798D01*
X550472Y459684D01*
X550586Y459551D01*
X550738Y459399D01*
X550910Y459227D01*
X551100Y459056D01*
X551329Y458884D01*
X551576Y458713D01*
X551862Y458561D01*
X552167Y458427D01*
X552490Y458313D01*
X552852Y458218D01*
X553233Y458161D01*
X553652Y458142D01*
X553747D01*
X553861Y458161D01*
X554013D01*
X554204Y458199D01*
X554413Y458237D01*
X554642Y458294D01*
X554908Y458351D01*
X555156Y458447D01*
X555441Y458561D01*
X555708Y458694D01*
X555974Y458865D01*
X556241Y459056D01*
X556508Y459284D01*
X556736Y459551D01*
X556946Y459855D01*
X556965Y459874D01*
X556984Y459932D01*
X557041Y460046D01*
X557117Y460179D01*
X557193Y460369D01*
X557288Y460598D01*
X557383Y460864D01*
X557498Y461188D01*
X557593Y461550D01*
X557707Y461950D01*
X557802Y462388D01*
X557878Y462883D01*
X557955Y463416D01*
X558031Y463987D01*
X558069Y464615D01*
X558088Y465282D01*
Y470213D01*
Y470232D01*
Y470251D01*
Y470308D01*
Y470385D01*
Y470575D01*
X558069Y470842D01*
X558050Y471146D01*
X558031Y471508D01*
X557993Y471908D01*
X557955Y472346D01*
X557898Y472803D01*
X557821Y473260D01*
X557745Y473716D01*
X557631Y474173D01*
X557498Y474630D01*
X557364Y475049D01*
X557193Y475449D01*
X557003Y475792D01*
X556984Y475811D01*
X556946Y475868D01*
X556888Y475963D01*
X556793Y476058D01*
X556679Y476192D01*
X556546Y476344D01*
X556374Y476496D01*
X556184Y476668D01*
X555955Y476839D01*
X555708Y476991D01*
X555422Y477144D01*
X555118Y477277D01*
X554794Y477391D01*
X554432Y477467D01*
X554032Y477525D01*
X553614Y477544D01*
D02*
G37*
G36*
X470409Y471470D02*
X470314D01*
X470199Y471451D01*
X470047D01*
X469857Y471413D01*
X469628Y471375D01*
X469381Y471317D01*
X469133Y471241D01*
X468847Y471146D01*
X468543Y471032D01*
X468257Y470880D01*
X467953Y470708D01*
X467648Y470518D01*
X467362Y470270D01*
X467077Y470004D01*
X466810Y469680D01*
X466791Y469661D01*
X466753Y469604D01*
X466677Y469490D01*
X466601Y469356D01*
X466487Y469166D01*
X466372Y468937D01*
X466258Y468690D01*
X466125Y468385D01*
X465991Y468043D01*
X465877Y467662D01*
X465763Y467243D01*
X465649Y466805D01*
X465573Y466310D01*
X465496Y465777D01*
X465458Y465225D01*
X465439Y464615D01*
Y464577D01*
Y464482D01*
Y464330D01*
X465458Y464139D01*
X465477Y463873D01*
X465515Y463587D01*
X465554Y463283D01*
X465611Y462921D01*
X465687Y462559D01*
X465763Y462178D01*
X465877Y461798D01*
X466011Y461398D01*
X466163Y460998D01*
X466353Y460617D01*
X466563Y460255D01*
X466791Y459912D01*
X466810Y459894D01*
X466848Y459836D01*
X466924Y459741D01*
X467039Y459646D01*
X467172Y459494D01*
X467343Y459360D01*
X467534Y459189D01*
X467762Y459037D01*
X468010Y458865D01*
X468295Y458694D01*
X468581Y458561D01*
X468905Y458427D01*
X469266Y458313D01*
X469628Y458218D01*
X470028Y458161D01*
X470447Y458142D01*
X470542D01*
X470675Y458161D01*
X470828Y458180D01*
X471018Y458199D01*
X471246Y458237D01*
X471494Y458294D01*
X471761Y458370D01*
X472046Y458465D01*
X472332Y458580D01*
X472636Y458732D01*
X472941Y458903D01*
X473246Y459094D01*
X473531Y459341D01*
X473817Y459608D01*
X474083Y459932D01*
X474102Y459951D01*
X474141Y460008D01*
X474217Y460122D01*
X474293Y460255D01*
X474388Y460446D01*
X474502Y460674D01*
X474636Y460941D01*
X474769Y461226D01*
X474883Y461569D01*
X475016Y461950D01*
X475131Y462350D01*
X475226Y462807D01*
X475302Y463302D01*
X475378Y463816D01*
X475416Y464368D01*
X475435Y464958D01*
Y464996D01*
Y465091D01*
Y465244D01*
X475416Y465434D01*
X475397Y465682D01*
X475359Y465967D01*
X475321Y466291D01*
X475264Y466634D01*
X475188Y467015D01*
X475093Y467395D01*
X474978Y467776D01*
X474845Y468176D01*
X474693Y468557D01*
X474502Y468937D01*
X474293Y469318D01*
X474045Y469661D01*
X474026Y469680D01*
X473988Y469737D01*
X473912Y469832D01*
X473798Y469947D01*
X473665Y470080D01*
X473493Y470232D01*
X473303Y470404D01*
X473074Y470575D01*
X472827Y470727D01*
X472560Y470899D01*
X472256Y471051D01*
X471932Y471184D01*
X471589Y471299D01*
X471208Y471394D01*
X470828Y471451D01*
X470409Y471470D01*
D02*
G37*
G36*
X378484D02*
X378388D01*
X378274Y471451D01*
X378122D01*
X377931Y471413D01*
X377703Y471375D01*
X377455Y471317D01*
X377208Y471241D01*
X376922Y471146D01*
X376618Y471032D01*
X376332Y470880D01*
X376027Y470708D01*
X375723Y470518D01*
X375437Y470270D01*
X375152Y470004D01*
X374885Y469680D01*
X374866Y469661D01*
X374828Y469604D01*
X374752Y469490D01*
X374676Y469356D01*
X374561Y469166D01*
X374447Y468937D01*
X374333Y468690D01*
X374200Y468385D01*
X374066Y468043D01*
X373952Y467662D01*
X373838Y467243D01*
X373724Y466805D01*
X373647Y466310D01*
X373571Y465777D01*
X373533Y465225D01*
X373514Y464615D01*
Y464577D01*
Y464482D01*
Y464330D01*
X373533Y464139D01*
X373552Y463873D01*
X373590Y463587D01*
X373628Y463283D01*
X373686Y462921D01*
X373762Y462559D01*
X373838Y462178D01*
X373952Y461798D01*
X374085Y461398D01*
X374238Y460998D01*
X374428Y460617D01*
X374638Y460255D01*
X374866Y459912D01*
X374885Y459894D01*
X374923Y459836D01*
X374999Y459741D01*
X375114Y459646D01*
X375247Y459494D01*
X375418Y459360D01*
X375609Y459189D01*
X375837Y459037D01*
X376085Y458865D01*
X376370Y458694D01*
X376656Y458561D01*
X376979Y458427D01*
X377341Y458313D01*
X377703Y458218D01*
X378103Y458161D01*
X378522Y458142D01*
X378617D01*
X378750Y458161D01*
X378903Y458180D01*
X379093Y458199D01*
X379321Y458237D01*
X379569Y458294D01*
X379835Y458370D01*
X380121Y458465D01*
X380407Y458580D01*
X380711Y458732D01*
X381016Y458903D01*
X381321Y459094D01*
X381606Y459341D01*
X381892Y459608D01*
X382158Y459932D01*
X382177Y459951D01*
X382215Y460008D01*
X382292Y460122D01*
X382368Y460255D01*
X382463Y460446D01*
X382577Y460674D01*
X382711Y460941D01*
X382844Y461226D01*
X382958Y461569D01*
X383091Y461950D01*
X383206Y462350D01*
X383301Y462807D01*
X383377Y463302D01*
X383453Y463816D01*
X383491Y464368D01*
X383510Y464958D01*
Y464996D01*
Y465091D01*
Y465244D01*
X383491Y465434D01*
X383472Y465682D01*
X383434Y465967D01*
X383396Y466291D01*
X383339Y466634D01*
X383263Y467015D01*
X383167Y467395D01*
X383053Y467776D01*
X382920Y468176D01*
X382768Y468557D01*
X382577Y468937D01*
X382368Y469318D01*
X382120Y469661D01*
X382101Y469680D01*
X382063Y469737D01*
X381987Y469832D01*
X381873Y469947D01*
X381739Y470080D01*
X381568Y470232D01*
X381378Y470404D01*
X381149Y470575D01*
X380902Y470727D01*
X380635Y470899D01*
X380330Y471051D01*
X380007Y471184D01*
X379664Y471299D01*
X379283Y471394D01*
X378903Y471451D01*
X378484Y471470D01*
D02*
G37*
G36*
X526481Y448473D02*
X526386D01*
X526253Y448454D01*
X526101D01*
X525910Y448416D01*
X525701Y448378D01*
X525453Y448321D01*
X525206Y448264D01*
X524920Y448169D01*
X524654Y448054D01*
X524368Y447902D01*
X524083Y447731D01*
X523816Y447540D01*
X523568Y447293D01*
X523321Y447026D01*
X523111Y446722D01*
X523092Y446703D01*
X523073Y446645D01*
X523016Y446531D01*
X522940Y446398D01*
X522864Y446208D01*
X522788Y445979D01*
X522674Y445713D01*
X522578Y445408D01*
X522483Y445046D01*
X522388Y444646D01*
X522293Y444208D01*
X522217Y443732D01*
X522140Y443218D01*
X522083Y442647D01*
X522045Y442019D01*
X522026Y441371D01*
Y436554D01*
Y436535D01*
Y436516D01*
Y436459D01*
Y436383D01*
Y436193D01*
X522045Y435926D01*
X522064Y435602D01*
X522083Y435241D01*
X522121Y434841D01*
X522159Y434422D01*
X522217Y433965D01*
X522293Y433489D01*
X522388Y433013D01*
X522502Y432556D01*
X522616Y432099D01*
X522769Y431661D01*
X522940Y431261D01*
X523131Y430899D01*
X523149Y430880D01*
X523188Y430823D01*
X523245Y430728D01*
X523340Y430614D01*
X523454Y430480D01*
X523606Y430328D01*
X523778Y430157D01*
X523968Y429986D01*
X524197Y429814D01*
X524444Y429643D01*
X524730Y429490D01*
X525035Y429357D01*
X525358Y429243D01*
X525720Y429148D01*
X526101Y429091D01*
X526520Y429072D01*
X526615D01*
X526729Y429091D01*
X526881D01*
X527072Y429129D01*
X527281Y429167D01*
X527510Y429224D01*
X527776Y429281D01*
X528024Y429376D01*
X528309Y429490D01*
X528576Y429624D01*
X528842Y429795D01*
X529109Y429986D01*
X529376Y430214D01*
X529604Y430480D01*
X529813Y430785D01*
X529833Y430804D01*
X529852Y430861D01*
X529909Y430976D01*
X529985Y431109D01*
X530061Y431299D01*
X530156Y431528D01*
X530251Y431794D01*
X530366Y432118D01*
X530461Y432480D01*
X530575Y432880D01*
X530670Y433318D01*
X530747Y433813D01*
X530823Y434346D01*
X530899Y434917D01*
X530937Y435545D01*
X530956Y436211D01*
Y441143D01*
Y441162D01*
Y441181D01*
Y441238D01*
Y441314D01*
Y441505D01*
X530937Y441771D01*
X530918Y442076D01*
X530899Y442438D01*
X530861Y442837D01*
X530823Y443275D01*
X530765Y443732D01*
X530689Y444189D01*
X530613Y444646D01*
X530499Y445103D01*
X530366Y445560D01*
X530232Y445979D01*
X530061Y446379D01*
X529871Y446722D01*
X529852Y446741D01*
X529813Y446798D01*
X529756Y446893D01*
X529661Y446988D01*
X529547Y447121D01*
X529414Y447274D01*
X529242Y447426D01*
X529052Y447598D01*
X528823Y447769D01*
X528576Y447921D01*
X528290Y448073D01*
X527986Y448207D01*
X527662Y448321D01*
X527300Y448397D01*
X526900Y448454D01*
X526481Y448473D01*
D02*
G37*
G36*
X430139Y442400D02*
X429968D01*
X429835Y442381D01*
X429682Y442361D01*
X429492Y442323D01*
X429301Y442285D01*
X429073Y442228D01*
X428844Y442171D01*
X428597Y442076D01*
X428330Y441962D01*
X428083Y441847D01*
X427816Y441676D01*
X427569Y441505D01*
X427321Y441295D01*
X427074Y441067D01*
X427055Y441048D01*
X427017Y441010D01*
X426959Y440934D01*
X426883Y440819D01*
X426788Y440686D01*
X426674Y440515D01*
X426560Y440324D01*
X426426Y440096D01*
X426293Y439848D01*
X426160Y439582D01*
X426046Y439277D01*
X425912Y438934D01*
X425798Y438573D01*
X425703Y438192D01*
X425627Y437792D01*
X425551Y437354D01*
X434366D01*
Y437563D01*
Y437582D01*
Y437659D01*
X434347Y437792D01*
X434328Y437944D01*
X434309Y438135D01*
X434271Y438363D01*
X434214Y438611D01*
X434157Y438877D01*
X434004Y439448D01*
X433795Y440039D01*
X433662Y440324D01*
X433490Y440610D01*
X433319Y440876D01*
X433128Y441124D01*
X433109Y441143D01*
X433071Y441181D01*
X433014Y441238D01*
X432919Y441333D01*
X432824Y441429D01*
X432671Y441524D01*
X432519Y441638D01*
X432348Y441771D01*
X432138Y441886D01*
X431910Y442000D01*
X431662Y442095D01*
X431396Y442209D01*
X431110Y442285D01*
X430805Y442342D01*
X430482Y442381D01*
X430139Y442400D01*
D02*
G37*
G36*
X375171D02*
X374999D01*
X374866Y442381D01*
X374714Y442361D01*
X374523Y442323D01*
X374333Y442285D01*
X374104Y442228D01*
X373876Y442171D01*
X373628Y442076D01*
X373362Y441962D01*
X373114Y441847D01*
X372848Y441676D01*
X372600Y441505D01*
X372353Y441295D01*
X372105Y441067D01*
X372086Y441048D01*
X372048Y441010D01*
X371991Y440934D01*
X371915Y440819D01*
X371820Y440686D01*
X371705Y440515D01*
X371591Y440324D01*
X371458Y440096D01*
X371325Y439848D01*
X371191Y439582D01*
X371077Y439277D01*
X370944Y438934D01*
X370830Y438573D01*
X370734Y438192D01*
X370658Y437792D01*
X370582Y437354D01*
X379398D01*
Y437563D01*
Y437582D01*
Y437659D01*
X379379Y437792D01*
X379359Y437944D01*
X379340Y438135D01*
X379302Y438363D01*
X379245Y438611D01*
X379188Y438877D01*
X379036Y439448D01*
X378826Y440039D01*
X378693Y440324D01*
X378522Y440610D01*
X378350Y440876D01*
X378160Y441124D01*
X378141Y441143D01*
X378103Y441181D01*
X378046Y441238D01*
X377951Y441333D01*
X377855Y441429D01*
X377703Y441524D01*
X377551Y441638D01*
X377379Y441771D01*
X377170Y441886D01*
X376941Y442000D01*
X376694Y442095D01*
X376427Y442209D01*
X376142Y442285D01*
X375837Y442342D01*
X375513Y442381D01*
X375171Y442400D01*
D02*
G37*
G36*
X392916D02*
X392821D01*
X392706Y442381D01*
X392554D01*
X392383Y442342D01*
X392154Y442304D01*
X391926Y442247D01*
X391678Y442190D01*
X391393Y442095D01*
X391126Y441981D01*
X390822Y441828D01*
X390536Y441657D01*
X390250Y441467D01*
X389965Y441219D01*
X389698Y440952D01*
X389451Y440648D01*
X389432Y440629D01*
X389393Y440572D01*
X389336Y440457D01*
X389260Y440324D01*
X389146Y440153D01*
X389051Y439924D01*
X388937Y439658D01*
X388822Y439353D01*
X388689Y439030D01*
X388575Y438649D01*
X388480Y438230D01*
X388384Y437773D01*
X388289Y437259D01*
X388232Y436726D01*
X388194Y436154D01*
X388175Y435545D01*
Y435507D01*
Y435412D01*
Y435260D01*
X388194Y435050D01*
X388213Y434784D01*
X388251Y434498D01*
X388289Y434174D01*
X388327Y433813D01*
X388403Y433451D01*
X388480Y433051D01*
X388594Y432651D01*
X388708Y432251D01*
X388860Y431870D01*
X389032Y431490D01*
X389222Y431128D01*
X389451Y430785D01*
X389470Y430766D01*
X389508Y430709D01*
X389584Y430633D01*
X389679Y430519D01*
X389812Y430385D01*
X389965Y430252D01*
X390155Y430081D01*
X390365Y429928D01*
X390593Y429776D01*
X390860Y429624D01*
X391145Y429471D01*
X391450Y429338D01*
X391774Y429224D01*
X392135Y429148D01*
X392497Y429091D01*
X392897Y429072D01*
X393011D01*
X393163Y429091D01*
X393335Y429110D01*
X393563Y429148D01*
X393830Y429205D01*
X394115Y429262D01*
X394420Y429376D01*
X394744Y429490D01*
X395067Y429643D01*
X395410Y429833D01*
X395753Y430062D01*
X396096Y430347D01*
X396419Y430652D01*
X396705Y431014D01*
X396990Y431432D01*
Y440058D01*
X396971Y440077D01*
X396933Y440153D01*
X396838Y440267D01*
X396724Y440419D01*
X396572Y440610D01*
X396400Y440800D01*
X396191Y441010D01*
X395943Y441238D01*
X395677Y441447D01*
X395372Y441657D01*
X395029Y441866D01*
X394668Y442038D01*
X394268Y442190D01*
X393849Y442304D01*
X393392Y442381D01*
X392916Y442400D01*
D02*
G37*
%LPD*%
M02*
