G04*
G04 #@! TF.GenerationSoftware,Altium Limited,Altium Designer,18.0.9 (584)*
G04*
G04 Layer_Color=16711935*
%FSLAX25Y25*%
%MOIN*%
G70*
G01*
G75*
%ADD11C,0.00050*%
D11*
X899893Y475662D02*
G03*
X899893Y475662I-417040J0D01*
G01*
X755590D02*
G03*
X755590Y475662I-272737J0D01*
G01*
X686507Y255013D02*
G03*
X686507Y255013I-43343J0D01*
G01*
X667377Y475662D02*
G03*
X667377Y475662I-184524J0D01*
G01*
X170489Y716161D02*
G03*
X170489Y716161I-28345J0D01*
G01*
X526196Y748400D02*
G03*
X526196Y748400I-43343J0D01*
G01*
X118237Y615320D02*
G03*
X118237Y615320I-28345J0D01*
G01*
X266807Y391382D02*
G03*
X266807Y391382I-43343J0D01*
G01*
Y559943D02*
G03*
X266807Y559943I-43343J0D01*
G01*
X851908Y716161D02*
G03*
X851908Y716161I-28345J0D01*
G01*
X526196Y202925D02*
G03*
X526196Y202925I-43343J0D01*
G01*
X365885Y696311D02*
G03*
X365885Y696311I-43343J0D01*
G01*
Y255013D02*
G03*
X365885Y255013I-43343J0D01*
G01*
X927267Y504122D02*
G03*
X927267Y504122I-28345J0D01*
G01*
X623714Y74087D02*
G03*
X623714Y74087I-28345J0D01*
G01*
X815986Y191010D02*
G03*
X815986Y191010I-28345J0D01*
G01*
X454411Y888818D02*
G03*
X454411Y888818I-28345J0D01*
G01*
X248009Y799165D02*
G03*
X248009Y799165I-28345J0D01*
G01*
X785584Y391382D02*
G03*
X785584Y391382I-43343J0D01*
G01*
X686507Y696311D02*
G03*
X686507Y696311I-43343J0D01*
G01*
X774388Y799165D02*
G03*
X774388Y799165I-28345J0D01*
G01*
X904159Y615320D02*
G03*
X904159Y615320I-28345J0D01*
G01*
X345049Y858176D02*
G03*
X345049Y858176I-28345J0D01*
G01*
X102881Y390813D02*
G03*
X102881Y390813I-28345J0D01*
G01*
X567985Y888818D02*
G03*
X567985Y888818I-28345J0D01*
G01*
X881482Y283797D02*
G03*
X881482Y283797I-28345J0D01*
G01*
X919516Y390813D02*
G03*
X919516Y390813I-28345J0D01*
G01*
X727886Y119335D02*
G03*
X727886Y119335I-28345J0D01*
G01*
X785584Y559943D02*
G03*
X785584Y559943I-43343J0D01*
G01*
X398682Y74087D02*
G03*
X398682Y74087I-28345J0D01*
G01*
X294511Y119335D02*
G03*
X294511Y119335I-28345J0D01*
G01*
X140914Y283797D02*
G03*
X140914Y283797I-28345J0D01*
G01*
X206410Y191010D02*
G03*
X206410Y191010I-28345J0D01*
G01*
X95130Y504122D02*
G03*
X95130Y504122I-28345J0D01*
G01*
X677348Y858176D02*
G03*
X677348Y858176I-28345J0D01*
G01*
X566210Y84D02*
G03*
X399496Y84I-83357J475578D01*
G01*
D02*
G03*
X404113Y3962I680J3878D01*
G01*
X561593Y3962D02*
G03*
X566210Y84I3937J-0D01*
G01*
X511198Y58622D02*
G03*
X511198Y58622I-28345J0D01*
G01*
X404113Y3962D02*
Y18983D01*
X561593D01*
Y3962D02*
Y18983D01*
M02*
