G04*
G04 #@! TF.GenerationSoftware,Altium Limited,Altium Designer,18.0.9 (584)*
G04*
G04 Layer_Color=65535*
%FSLAX25Y25*%
%MOIN*%
G70*
G01*
G75*
%ADD10C,0.02500*%
D10*
X390470Y526875D02*
X398905D01*
X401716Y527812D01*
X402654Y528750D01*
X403591Y530624D01*
Y533435D01*
X402654Y535310D01*
X401716Y536247D01*
X398905Y537184D01*
X390470D01*
Y517503D01*
X407996Y537184D02*
Y517503D01*
X421116Y537184D02*
Y517503D01*
X407996Y527812D02*
X421116D01*
X432175Y537184D02*
X430300Y536247D01*
X428426Y534373D01*
X427489Y532498D01*
X426552Y529687D01*
Y525001D01*
X427489Y522189D01*
X428426Y520315D01*
X430300Y518440D01*
X432175Y517503D01*
X435923D01*
X437798Y518440D01*
X439672Y520315D01*
X440609Y522189D01*
X441546Y525001D01*
Y529687D01*
X440609Y532498D01*
X439672Y534373D01*
X437798Y536247D01*
X435923Y537184D01*
X432175D01*
X452699D02*
Y517503D01*
X446139Y537184D02*
X459259D01*
X467225D02*
X465351Y536247D01*
X463477Y534373D01*
X462539Y532498D01*
X461602Y529687D01*
Y525001D01*
X462539Y522189D01*
X463477Y520315D01*
X465351Y518440D01*
X467225Y517503D01*
X470974D01*
X472848Y518440D01*
X474723Y520315D01*
X475660Y522189D01*
X476597Y525001D01*
Y529687D01*
X475660Y532498D01*
X474723Y534373D01*
X472848Y536247D01*
X470974Y537184D01*
X467225D01*
X481189D02*
Y517503D01*
Y537184D02*
X494310Y517503D01*
Y537184D02*
Y517503D01*
X528329Y534373D02*
X526455Y536247D01*
X523643Y537184D01*
X519895D01*
X517083Y536247D01*
X515209Y534373D01*
Y532498D01*
X516146Y530624D01*
X517083Y529687D01*
X518958Y528750D01*
X524581Y526875D01*
X526455Y525938D01*
X527392Y525001D01*
X528329Y523126D01*
Y520315D01*
X526455Y518440D01*
X523643Y517503D01*
X519895D01*
X517083Y518440D01*
X515209Y520315D01*
X532734Y537184D02*
Y517503D01*
X549041Y537184D02*
X536858D01*
Y517503D01*
X549041D01*
X536858Y527812D02*
X544355D01*
X552321Y537184D02*
X559819Y517503D01*
X567316Y537184D02*
X559819Y517503D01*
X582030Y537184D02*
X569846D01*
Y517503D01*
X582030D01*
X569846Y527812D02*
X577344D01*
X362542Y477013D02*
Y457332D01*
Y477013D02*
X374726D01*
X362542Y467641D02*
X370040D01*
X381661Y470453D02*
X379786Y469516D01*
X377912Y467641D01*
X376975Y464830D01*
Y462955D01*
X377912Y460144D01*
X379786Y458269D01*
X381661Y457332D01*
X384472D01*
X386347Y458269D01*
X388221Y460144D01*
X389158Y462955D01*
Y464830D01*
X388221Y467641D01*
X386347Y469516D01*
X384472Y470453D01*
X381661D01*
X404715Y467641D02*
X402841Y469516D01*
X400967Y470453D01*
X398155D01*
X396281Y469516D01*
X394406Y467641D01*
X393469Y464830D01*
Y462955D01*
X394406Y460144D01*
X396281Y458269D01*
X398155Y457332D01*
X400967D01*
X402841Y458269D01*
X404715Y460144D01*
X420179Y470453D02*
Y457332D01*
Y467641D02*
X418304Y469516D01*
X416430Y470453D01*
X413619D01*
X411744Y469516D01*
X409870Y467641D01*
X408933Y464830D01*
Y462955D01*
X409870Y460144D01*
X411744Y458269D01*
X413619Y457332D01*
X416430D01*
X418304Y458269D01*
X420179Y460144D01*
X425427Y477013D02*
Y457332D01*
X445014Y466704D02*
X453449D01*
X456260Y467641D01*
X457197Y468578D01*
X458135Y470453D01*
Y473264D01*
X457197Y475139D01*
X456260Y476076D01*
X453449Y477013D01*
X445014D01*
Y457332D01*
X467225Y470453D02*
X465351Y469516D01*
X463477Y467641D01*
X462539Y464830D01*
Y462955D01*
X463477Y460144D01*
X465351Y458269D01*
X467225Y457332D01*
X470037D01*
X471911Y458269D01*
X473785Y460144D01*
X474723Y462955D01*
Y464830D01*
X473785Y467641D01*
X471911Y469516D01*
X470037Y470453D01*
X467225D01*
X480908Y477013D02*
X481845Y476076D01*
X482782Y477013D01*
X481845Y477950D01*
X480908Y477013D01*
X481845Y470453D02*
Y457332D01*
X486250Y470453D02*
Y457332D01*
Y466704D02*
X489061Y469516D01*
X490936Y470453D01*
X493747D01*
X495622Y469516D01*
X496559Y466704D01*
Y457332D01*
X504525Y477013D02*
Y461081D01*
X505462Y458269D01*
X507337Y457332D01*
X509211D01*
X501714Y470453D02*
X508274D01*
X540606Y477013D02*
X531235Y457332D01*
X527486Y477013D02*
X540606D01*
X550634D02*
X547823Y476076D01*
X545948Y473264D01*
X545011Y468578D01*
Y465767D01*
X545948Y461081D01*
X547823Y458269D01*
X550634Y457332D01*
X552509D01*
X555320Y458269D01*
X557195Y461081D01*
X558132Y465767D01*
Y468578D01*
X557195Y473264D01*
X555320Y476076D01*
X552509Y477013D01*
X550634D01*
X562536Y470453D02*
Y457332D01*
Y466704D02*
X565348Y469516D01*
X567222Y470453D01*
X570034D01*
X571908Y469516D01*
X572845Y466704D01*
Y457332D01*
Y466704D02*
X575657Y469516D01*
X577531Y470453D01*
X580343D01*
X582217Y469516D01*
X583154Y466704D01*
Y457332D01*
X589340Y470453D02*
Y457332D01*
Y466704D02*
X592151Y469516D01*
X594026Y470453D01*
X596837D01*
X598712Y469516D01*
X599649Y466704D01*
Y457332D01*
Y466704D02*
X602460Y469516D01*
X604335Y470453D01*
X607146D01*
X609021Y469516D01*
X609958Y466704D01*
Y457332D01*
X352749Y447396D02*
Y427715D01*
Y447396D02*
X364932D01*
X352749Y438024D02*
X360246D01*
X367181Y440836D02*
Y427715D01*
Y435213D02*
X368118Y438024D01*
X369993Y439899D01*
X371867Y440836D01*
X374679D01*
X376459Y435213D02*
X387705D01*
Y437087D01*
X386768Y438962D01*
X385831Y439899D01*
X383957Y440836D01*
X381145D01*
X379271Y439899D01*
X377396Y438024D01*
X376459Y435213D01*
Y433338D01*
X377396Y430527D01*
X379271Y428652D01*
X381145Y427715D01*
X383957D01*
X385831Y428652D01*
X387705Y430527D01*
X403169Y440836D02*
Y421155D01*
Y438024D02*
X401295Y439899D01*
X399420Y440836D01*
X396609D01*
X394734Y439899D01*
X392860Y438024D01*
X391923Y435213D01*
Y433338D01*
X392860Y430527D01*
X394734Y428652D01*
X396609Y427715D01*
X399420D01*
X401295Y428652D01*
X403169Y430527D01*
X408417Y440836D02*
Y431464D01*
X409354Y428652D01*
X411229Y427715D01*
X414040D01*
X415915Y428652D01*
X418726Y431464D01*
Y440836D02*
Y427715D01*
X423881Y435213D02*
X435127D01*
Y437087D01*
X434190Y438962D01*
X433252Y439899D01*
X431378Y440836D01*
X428567D01*
X426692Y439899D01*
X424818Y438024D01*
X423881Y435213D01*
Y433338D01*
X424818Y430527D01*
X426692Y428652D01*
X428567Y427715D01*
X431378D01*
X433252Y428652D01*
X435127Y430527D01*
X439344Y440836D02*
Y427715D01*
Y437087D02*
X442156Y439899D01*
X444030Y440836D01*
X446842D01*
X448716Y439899D01*
X449653Y437087D01*
Y427715D01*
X466054Y438024D02*
X464179Y439899D01*
X462305Y440836D01*
X459493D01*
X457619Y439899D01*
X455745Y438024D01*
X454808Y435213D01*
Y433338D01*
X455745Y430527D01*
X457619Y428652D01*
X459493Y427715D01*
X462305D01*
X464179Y428652D01*
X466054Y430527D01*
X471208Y440836D02*
X476831Y427715D01*
X482454Y440836D02*
X476831Y427715D01*
X474957Y423967D01*
X473083Y422092D01*
X471208Y421155D01*
X470271D01*
X501198Y443647D02*
X503072Y444585D01*
X505884Y447396D01*
Y427715D01*
X521254Y447396D02*
X518442Y446459D01*
X516568Y443647D01*
X515631Y438962D01*
Y436150D01*
X516568Y431464D01*
X518442Y428652D01*
X521254Y427715D01*
X523128D01*
X525940Y428652D01*
X527814Y431464D01*
X528751Y436150D01*
Y438962D01*
X527814Y443647D01*
X525940Y446459D01*
X523128Y447396D01*
X521254D01*
X534093Y429590D02*
X533156Y428652D01*
X534093Y427715D01*
X535030Y428652D01*
X534093Y429590D01*
X550587Y447396D02*
X541216D01*
X540278Y438962D01*
X541216Y439899D01*
X544027Y440836D01*
X546839D01*
X549650Y439899D01*
X551525Y438024D01*
X552462Y435213D01*
Y433338D01*
X551525Y430527D01*
X549650Y428652D01*
X546839Y427715D01*
X544027D01*
X541216Y428652D01*
X540278Y429590D01*
X539341Y431464D01*
X586388Y442710D02*
X585451Y444585D01*
X583576Y446459D01*
X581702Y447396D01*
X577953D01*
X576079Y446459D01*
X574204Y444585D01*
X573267Y442710D01*
X572330Y439899D01*
Y435213D01*
X573267Y432401D01*
X574204Y430527D01*
X576079Y428652D01*
X577953Y427715D01*
X581702D01*
X583576Y428652D01*
X585451Y430527D01*
X586388Y432401D01*
Y435213D01*
X581702D02*
X586388D01*
X590886Y447396D02*
Y427715D01*
X604007Y447396D02*
Y427715D01*
X590886Y438024D02*
X604007D01*
X619751Y440836D02*
X609442Y427715D01*
Y440836D02*
X619751D01*
X609442Y427715D02*
X619751D01*
M02*
