G04*
G04 #@! TF.GenerationSoftware,Altium Limited,Altium Designer,18.0.9 (584)*
G04*
G04 Layer_Color=65535*
%FSLAX25Y25*%
%MOIN*%
G70*
G01*
G75*
G36*
X466226Y425439D02*
X466493D01*
X466816Y425401D01*
X467197Y425363D01*
X467597Y425306D01*
X468054Y425248D01*
X468530Y425153D01*
X469006Y425039D01*
X469501Y424887D01*
X469996Y424734D01*
X470491Y424525D01*
X470948Y424296D01*
X471386Y424030D01*
X471786Y423725D01*
X471805Y423706D01*
X471881Y423649D01*
X471976Y423554D01*
X472110Y423401D01*
X472262Y423230D01*
X472433Y423002D01*
X472624Y422754D01*
X472814Y422449D01*
X473004Y422126D01*
X473195Y421745D01*
X473366Y421345D01*
X473519Y420888D01*
X473652Y420412D01*
X473747Y419879D01*
X473823Y419308D01*
X473842Y418718D01*
Y418699D01*
Y418642D01*
Y418546D01*
X473823Y418413D01*
Y418261D01*
X473785Y418070D01*
X473766Y417861D01*
X473728Y417632D01*
X473614Y417137D01*
X473442Y416604D01*
X473328Y416338D01*
X473214Y416071D01*
X473062Y415804D01*
X472890Y415538D01*
X472871Y415519D01*
X472852Y415481D01*
X472795Y415405D01*
X472719Y415309D01*
X472624Y415195D01*
X472490Y415062D01*
X472357Y414929D01*
X472186Y414757D01*
X471995Y414605D01*
X471786Y414415D01*
X471557Y414243D01*
X471310Y414072D01*
X471043Y413901D01*
X470758Y413729D01*
X470434Y413558D01*
X470110Y413406D01*
X470129D01*
X470205Y413367D01*
X470301Y413329D01*
X470434Y413291D01*
X470586Y413215D01*
X470777Y413120D01*
X471196Y412910D01*
X471653Y412606D01*
X472129Y412263D01*
X472547Y411825D01*
X472738Y411597D01*
X472909Y411330D01*
X472928Y411311D01*
X472947Y411273D01*
X472985Y411178D01*
X473042Y411083D01*
X473100Y410949D01*
X473176Y410778D01*
X473252Y410588D01*
X473347Y410359D01*
X473423Y410131D01*
X473499Y409864D01*
X473576Y409559D01*
X473633Y409255D01*
X473690Y408931D01*
X473728Y408588D01*
X473766Y408208D01*
Y407827D01*
Y405580D01*
Y405561D01*
Y405523D01*
Y405466D01*
Y405390D01*
X473785Y405180D01*
X473804Y404914D01*
X473823Y404609D01*
X473880Y404285D01*
X473937Y403943D01*
X474014Y403600D01*
X474033Y403562D01*
X474071Y403447D01*
X474128Y403295D01*
X474223Y403086D01*
X474337Y402876D01*
X474489Y402629D01*
X474661Y402400D01*
X474870Y402172D01*
Y401791D01*
X471557D01*
X471538Y401810D01*
X471462Y401886D01*
X471348Y402020D01*
X471215Y402210D01*
X471081Y402438D01*
X470948Y402705D01*
X470834Y403029D01*
X470739Y403409D01*
Y403429D01*
Y403467D01*
X470720Y403524D01*
Y403600D01*
X470701Y403695D01*
X470681Y403809D01*
X470662Y404095D01*
X470624Y404419D01*
X470586Y404799D01*
X470567Y405199D01*
Y405618D01*
Y407789D01*
Y407808D01*
Y407865D01*
Y407979D01*
X470548Y408112D01*
X470529Y408265D01*
X470510Y408455D01*
X470472Y408665D01*
X470434Y408893D01*
X470301Y409388D01*
X470205Y409635D01*
X470091Y409902D01*
X469958Y410150D01*
X469825Y410416D01*
X469634Y410645D01*
X469444Y410873D01*
X469425Y410892D01*
X469387Y410930D01*
X469330Y410987D01*
X469235Y411063D01*
X469120Y411140D01*
X468987Y411254D01*
X468835Y411349D01*
X468644Y411463D01*
X468435Y411578D01*
X468225Y411673D01*
X467978Y411787D01*
X467692Y411863D01*
X467407Y411939D01*
X467102Y411997D01*
X466778Y412035D01*
X466436Y412054D01*
X460952D01*
Y401791D01*
X457753D01*
Y425458D01*
X466017D01*
X466226Y425439D01*
D02*
G37*
G36*
X453793Y422944D02*
X442579D01*
Y415290D01*
X452308D01*
Y412758D01*
X442579D01*
Y404285D01*
X453964D01*
Y401791D01*
X439380D01*
Y425477D01*
X453793D01*
Y422944D01*
D02*
G37*
G36*
X434563Y423173D02*
X421863Y404285D01*
X435115D01*
Y401791D01*
X418245D01*
Y404152D01*
X430907Y422944D01*
X418436D01*
Y425477D01*
X434563D01*
Y423173D01*
D02*
G37*
G36*
X413561Y401791D02*
X410344D01*
Y425477D01*
X413561D01*
Y401791D01*
D02*
G37*
G36*
X397301Y425439D02*
X397568D01*
X397892Y425401D01*
X398272Y425363D01*
X398672Y425306D01*
X399129Y425248D01*
X399605Y425153D01*
X400081Y425039D01*
X400576Y424887D01*
X401071Y424734D01*
X401566Y424525D01*
X402023Y424296D01*
X402461Y424030D01*
X402861Y423725D01*
X402880Y423706D01*
X402956Y423649D01*
X403052Y423554D01*
X403185Y423401D01*
X403337Y423230D01*
X403508Y423002D01*
X403699Y422754D01*
X403889Y422449D01*
X404080Y422126D01*
X404270Y421745D01*
X404441Y421345D01*
X404594Y420888D01*
X404727Y420412D01*
X404822Y419879D01*
X404898Y419308D01*
X404917Y418718D01*
Y418699D01*
Y418642D01*
Y418546D01*
X404898Y418413D01*
Y418261D01*
X404860Y418070D01*
X404841Y417861D01*
X404803Y417632D01*
X404689Y417137D01*
X404518Y416604D01*
X404403Y416338D01*
X404289Y416071D01*
X404137Y415804D01*
X403965Y415538D01*
X403946Y415519D01*
X403927Y415481D01*
X403870Y415405D01*
X403794Y415309D01*
X403699Y415195D01*
X403566Y415062D01*
X403432Y414929D01*
X403261Y414757D01*
X403070Y414605D01*
X402861Y414415D01*
X402633Y414243D01*
X402385Y414072D01*
X402118Y413901D01*
X401833Y413729D01*
X401509Y413558D01*
X401186Y413406D01*
X401205D01*
X401281Y413367D01*
X401376Y413329D01*
X401509Y413291D01*
X401661Y413215D01*
X401852Y413120D01*
X402271Y412910D01*
X402728Y412606D01*
X403204Y412263D01*
X403623Y411825D01*
X403813Y411597D01*
X403984Y411330D01*
X404003Y411311D01*
X404023Y411273D01*
X404061Y411178D01*
X404118Y411083D01*
X404175Y410949D01*
X404251Y410778D01*
X404327Y410588D01*
X404422Y410359D01*
X404498Y410131D01*
X404575Y409864D01*
X404651Y409559D01*
X404708Y409255D01*
X404765Y408931D01*
X404803Y408588D01*
X404841Y408208D01*
Y407827D01*
Y405580D01*
Y405561D01*
Y405523D01*
Y405466D01*
Y405390D01*
X404860Y405180D01*
X404879Y404914D01*
X404898Y404609D01*
X404955Y404285D01*
X405013Y403943D01*
X405089Y403600D01*
X405108Y403562D01*
X405146Y403447D01*
X405203Y403295D01*
X405298Y403086D01*
X405412Y402876D01*
X405565Y402629D01*
X405736Y402400D01*
X405945Y402172D01*
Y401791D01*
X402633D01*
X402613Y401810D01*
X402537Y401886D01*
X402423Y402020D01*
X402290Y402210D01*
X402157Y402438D01*
X402023Y402705D01*
X401909Y403029D01*
X401814Y403409D01*
Y403429D01*
Y403467D01*
X401795Y403524D01*
Y403600D01*
X401776Y403695D01*
X401757Y403809D01*
X401738Y404095D01*
X401700Y404419D01*
X401661Y404799D01*
X401643Y405199D01*
Y405618D01*
Y407789D01*
Y407808D01*
Y407865D01*
Y407979D01*
X401623Y408112D01*
X401604Y408265D01*
X401585Y408455D01*
X401547Y408665D01*
X401509Y408893D01*
X401376Y409388D01*
X401281Y409635D01*
X401166Y409902D01*
X401033Y410150D01*
X400900Y410416D01*
X400709Y410645D01*
X400519Y410873D01*
X400500Y410892D01*
X400462Y410930D01*
X400405Y410987D01*
X400310Y411063D01*
X400196Y411140D01*
X400062Y411254D01*
X399910Y411349D01*
X399720Y411463D01*
X399510Y411578D01*
X399301Y411673D01*
X399053Y411787D01*
X398767Y411863D01*
X398482Y411939D01*
X398177Y411997D01*
X397853Y412035D01*
X397511Y412054D01*
X392027D01*
Y401791D01*
X388829D01*
Y425458D01*
X397092D01*
X397301Y425439D01*
D02*
G37*
G36*
X385344Y401791D02*
X382088D01*
X379994Y407884D01*
X371083D01*
X368970Y401791D01*
X365695D01*
X374244Y425477D01*
X376986D01*
X385344Y401791D01*
D02*
G37*
G36*
X352653Y404285D02*
X364210D01*
Y401791D01*
X349454D01*
Y425477D01*
X352653D01*
Y404285D01*
D02*
G37*
G36*
X314991Y425458D02*
X315258Y425439D01*
X315582Y425420D01*
X315944Y425382D01*
X316343Y425306D01*
X316781Y425229D01*
X317257Y425134D01*
X317733Y425001D01*
X318228Y424849D01*
X318704Y424658D01*
X319199Y424430D01*
X319656Y424163D01*
X320094Y423858D01*
X320513Y423516D01*
X320532Y423497D01*
X320608Y423420D01*
X320704Y423325D01*
X320837Y423154D01*
X321008Y422963D01*
X321180Y422735D01*
X321370Y422449D01*
X321579Y422145D01*
X321770Y421802D01*
X321960Y421402D01*
X322131Y420983D01*
X322303Y420526D01*
X322436Y420031D01*
X322531Y419517D01*
X322607Y418965D01*
X322626Y418375D01*
Y418337D01*
Y418242D01*
X322607Y418070D01*
X322588Y417842D01*
X322569Y417575D01*
X322512Y417251D01*
X322455Y416909D01*
X322360Y416528D01*
X322246Y416128D01*
X322112Y415709D01*
X321941Y415271D01*
X321732Y414833D01*
X321484Y414415D01*
X321217Y413996D01*
X320894Y413596D01*
X320513Y413215D01*
X320494Y413196D01*
X320418Y413139D01*
X320304Y413044D01*
X320132Y412910D01*
X319904Y412777D01*
X319656Y412606D01*
X319352Y412434D01*
X318990Y412263D01*
X318590Y412073D01*
X318152Y411901D01*
X317676Y411730D01*
X317143Y411597D01*
X316572Y411463D01*
X315963Y411368D01*
X315315Y411311D01*
X314630Y411292D01*
X308765D01*
Y401791D01*
X305567D01*
Y425477D01*
X314801D01*
X314991Y425458D01*
D02*
G37*
G36*
X335440Y425801D02*
X335574D01*
X335859Y425781D01*
X336240Y425724D01*
X336659Y425667D01*
X337116Y425572D01*
X337630Y425458D01*
X338182Y425306D01*
X338734Y425115D01*
X339325Y424887D01*
X339896Y424601D01*
X340486Y424277D01*
X341057Y423897D01*
X341609Y423459D01*
X342124Y422944D01*
X342161Y422906D01*
X342238Y422811D01*
X342371Y422659D01*
X342542Y422430D01*
X342752Y422145D01*
X342980Y421802D01*
X343228Y421421D01*
X343475Y420964D01*
X343723Y420469D01*
X343970Y419917D01*
X344199Y419327D01*
X344408Y418680D01*
X344580Y418013D01*
X344713Y417290D01*
X344789Y416528D01*
X344827Y415728D01*
Y411502D01*
Y411482D01*
Y411444D01*
Y411387D01*
Y411311D01*
X344808Y411197D01*
Y411083D01*
Y410949D01*
X344789Y410778D01*
X344751Y410416D01*
X344694Y409978D01*
X344599Y409502D01*
X344484Y408969D01*
X344351Y408417D01*
X344161Y407846D01*
X343951Y407236D01*
X343685Y406627D01*
X343380Y406037D01*
X343018Y405428D01*
X342600Y404856D01*
X342124Y404304D01*
X342085Y404266D01*
X342009Y404190D01*
X341857Y404038D01*
X341628Y403866D01*
X341362Y403638D01*
X341057Y403409D01*
X340676Y403143D01*
X340238Y402895D01*
X339762Y402629D01*
X339248Y402362D01*
X338677Y402134D01*
X338049Y401905D01*
X337383Y401734D01*
X336678Y401582D01*
X335935Y401506D01*
X335155Y401467D01*
X334964D01*
X334869Y401486D01*
X334755D01*
X334469Y401506D01*
X334108Y401563D01*
X333708Y401620D01*
X333251Y401715D01*
X332756Y401829D01*
X332223Y401981D01*
X331690Y402153D01*
X331118Y402381D01*
X330547Y402667D01*
X329995Y402991D01*
X329443Y403371D01*
X328910Y403809D01*
X328396Y404304D01*
X328377Y404342D01*
X328281Y404438D01*
X328148Y404590D01*
X327996Y404818D01*
X327786Y405104D01*
X327577Y405447D01*
X327348Y405828D01*
X327101Y406285D01*
X326853Y406779D01*
X326625Y407313D01*
X326415Y407903D01*
X326206Y408550D01*
X326054Y409217D01*
X325920Y409940D01*
X325844Y410702D01*
X325806Y411502D01*
Y415728D01*
Y415747D01*
Y415786D01*
Y415843D01*
Y415919D01*
X325825Y416033D01*
Y416147D01*
X325844Y416452D01*
X325882Y416814D01*
X325939Y417251D01*
X326016Y417728D01*
X326130Y418242D01*
X326263Y418813D01*
X326434Y419384D01*
X326644Y419974D01*
X326891Y420583D01*
X327196Y421193D01*
X327539Y421783D01*
X327939Y422373D01*
X328396Y422926D01*
X328434Y422963D01*
X328510Y423059D01*
X328662Y423192D01*
X328872Y423382D01*
X329119Y423592D01*
X329443Y423839D01*
X329805Y424106D01*
X330223Y424372D01*
X330680Y424639D01*
X331194Y424906D01*
X331747Y425153D01*
X332356Y425363D01*
X332984Y425553D01*
X333670Y425705D01*
X334393Y425781D01*
X335155Y425819D01*
X335345D01*
X335440Y425801D01*
D02*
G37*
G36*
X324540Y368288D02*
X324787Y368269D01*
X325111Y368250D01*
X325473Y368193D01*
X325892Y368136D01*
X326330Y368041D01*
X326787Y367927D01*
X327282Y367793D01*
X327777Y367622D01*
X328272Y367412D01*
X328767Y367165D01*
X329243Y366879D01*
X329700Y366556D01*
X330138Y366175D01*
X330157Y366156D01*
X330233Y366080D01*
X330347Y365965D01*
X330481Y365794D01*
X330652Y365604D01*
X330842Y365356D01*
X331033Y365071D01*
X331242Y364766D01*
X331452Y364423D01*
X331642Y364042D01*
X331832Y363623D01*
X331985Y363205D01*
X332118Y362729D01*
X332213Y362253D01*
X332270Y361758D01*
X332289Y361224D01*
X332251Y361129D01*
X329186D01*
Y361148D01*
Y361224D01*
Y361320D01*
X329167Y361472D01*
X329148Y361643D01*
X329110Y361834D01*
X329071Y362062D01*
X329014Y362310D01*
X328938Y362557D01*
X328843Y362824D01*
X328729Y363109D01*
X328595Y363395D01*
X328424Y363662D01*
X328234Y363947D01*
X328024Y364214D01*
X327777Y364461D01*
X327758Y364480D01*
X327720Y364518D01*
X327625Y364576D01*
X327529Y364671D01*
X327377Y364766D01*
X327225Y364880D01*
X327015Y364994D01*
X326806Y365128D01*
X326558Y365242D01*
X326273Y365356D01*
X325987Y365470D01*
X325663Y365566D01*
X325321Y365661D01*
X324959Y365718D01*
X324578Y365756D01*
X324178Y365775D01*
X323969D01*
X323816Y365756D01*
X323626Y365737D01*
X323398Y365718D01*
X323169Y365680D01*
X322903Y365642D01*
X322350Y365508D01*
X322065Y365432D01*
X321779Y365318D01*
X321494Y365185D01*
X321227Y365052D01*
X320960Y364880D01*
X320732Y364690D01*
X320713Y364671D01*
X320675Y364633D01*
X320618Y364576D01*
X320542Y364499D01*
X320446Y364385D01*
X320351Y364252D01*
X320237Y364100D01*
X320142Y363928D01*
X320027Y363738D01*
X319913Y363528D01*
X319818Y363281D01*
X319723Y363033D01*
X319647Y362767D01*
X319590Y362481D01*
X319551Y362176D01*
X319532Y361853D01*
Y361834D01*
Y361777D01*
Y361700D01*
X319551Y361605D01*
X319571Y361472D01*
X319609Y361320D01*
X319704Y360958D01*
X319761Y360748D01*
X319856Y360539D01*
X319951Y360330D01*
X320085Y360120D01*
X320237Y359911D01*
X320408Y359682D01*
X320618Y359473D01*
X320846Y359282D01*
X320865Y359263D01*
X320903Y359244D01*
X320979Y359187D01*
X321094Y359111D01*
X321246Y359016D01*
X321417Y358921D01*
X321627Y358806D01*
X321874Y358673D01*
X322160Y358540D01*
X322465Y358387D01*
X322807Y358235D01*
X323207Y358083D01*
X323626Y357930D01*
X324083Y357778D01*
X324578Y357626D01*
X325111Y357474D01*
X325130D01*
X325149Y357454D01*
X325206D01*
X325264Y357435D01*
X325454Y357378D01*
X325701Y357302D01*
X326006Y357207D01*
X326349Y357093D01*
X326730Y356940D01*
X327130Y356788D01*
X327567Y356598D01*
X328005Y356388D01*
X328462Y356179D01*
X328919Y355931D01*
X329357Y355665D01*
X329795Y355360D01*
X330195Y355055D01*
X330557Y354732D01*
X330576Y354713D01*
X330633Y354656D01*
X330728Y354541D01*
X330842Y354408D01*
X330995Y354237D01*
X331147Y354027D01*
X331318Y353780D01*
X331490Y353494D01*
X331661Y353190D01*
X331832Y352847D01*
X331985Y352485D01*
X332137Y352085D01*
X332251Y351666D01*
X332346Y351228D01*
X332403Y350771D01*
X332423Y350276D01*
Y350238D01*
Y350143D01*
X332403Y349991D01*
X332384Y349800D01*
X332346Y349553D01*
X332308Y349267D01*
X332232Y348963D01*
X332137Y348620D01*
X332023Y348258D01*
X331870Y347896D01*
X331680Y347497D01*
X331471Y347116D01*
X331204Y346735D01*
X330899Y346373D01*
X330557Y346011D01*
X330157Y345669D01*
X330138Y345650D01*
X330062Y345593D01*
X329928Y345516D01*
X329757Y345402D01*
X329528Y345269D01*
X329262Y345136D01*
X328938Y344964D01*
X328576Y344812D01*
X328177Y344660D01*
X327739Y344507D01*
X327263Y344355D01*
X326730Y344222D01*
X326178Y344108D01*
X325587Y344031D01*
X324959Y343974D01*
X324292Y343955D01*
X324140D01*
X323969Y343974D01*
X323721Y343993D01*
X323417Y344012D01*
X323074Y344050D01*
X322674Y344108D01*
X322255Y344203D01*
X321798Y344298D01*
X321303Y344412D01*
X320808Y344584D01*
X320294Y344755D01*
X319780Y344983D01*
X319247Y345231D01*
X318733Y345516D01*
X318238Y345859D01*
X318200Y345878D01*
X318124Y345954D01*
X317990Y346050D01*
X317838Y346202D01*
X317629Y346392D01*
X317419Y346640D01*
X317172Y346906D01*
X316943Y347211D01*
X316695Y347554D01*
X316467Y347954D01*
X316239Y348372D01*
X316048Y348829D01*
X315896Y349305D01*
X315782Y349838D01*
X315705Y350391D01*
X315686Y350981D01*
X315724Y351095D01*
X318771D01*
Y351076D01*
Y351000D01*
X318790Y350886D01*
Y350733D01*
X318828Y350543D01*
X318866Y350314D01*
X318904Y350086D01*
X318980Y349819D01*
X319075Y349553D01*
X319190Y349267D01*
X319323Y348982D01*
X319494Y348677D01*
X319685Y348411D01*
X319913Y348125D01*
X320161Y347877D01*
X320465Y347630D01*
X320484Y347611D01*
X320542Y347573D01*
X320637Y347516D01*
X320770Y347440D01*
X320922Y347344D01*
X321113Y347249D01*
X321341Y347135D01*
X321589Y347040D01*
X321855Y346925D01*
X322141Y346811D01*
X322465Y346716D01*
X322788Y346621D01*
X323150Y346545D01*
X323512Y346487D01*
X323893Y346449D01*
X324292Y346430D01*
X324521D01*
X324673Y346449D01*
X324864Y346468D01*
X325092Y346487D01*
X325340Y346526D01*
X325606Y346564D01*
X326178Y346678D01*
X326768Y346868D01*
X327072Y346983D01*
X327358Y347116D01*
X327643Y347287D01*
X327891Y347459D01*
X327910Y347478D01*
X327948Y347516D01*
X328005Y347573D01*
X328100Y347649D01*
X328196Y347744D01*
X328310Y347877D01*
X328443Y348030D01*
X328557Y348201D01*
X328691Y348372D01*
X328805Y348582D01*
X328919Y348810D01*
X329014Y349058D01*
X329110Y349324D01*
X329167Y349610D01*
X329205Y349915D01*
X329224Y350238D01*
Y350257D01*
Y350314D01*
Y350391D01*
X329205Y350505D01*
X329186Y350638D01*
X329167Y350810D01*
X329071Y351190D01*
X328938Y351609D01*
X328843Y351838D01*
X328729Y352066D01*
X328595Y352295D01*
X328443Y352523D01*
X328272Y352733D01*
X328062Y352942D01*
X328043Y352961D01*
X328005Y352999D01*
X327929Y353056D01*
X327834Y353132D01*
X327701Y353209D01*
X327548Y353323D01*
X327358Y353456D01*
X327130Y353589D01*
X326863Y353723D01*
X326577Y353875D01*
X326235Y354027D01*
X325873Y354180D01*
X325473Y354332D01*
X325016Y354484D01*
X324540Y354637D01*
X324007Y354789D01*
X323988D01*
X323969Y354808D01*
X323912D01*
X323855Y354827D01*
X323664Y354884D01*
X323417Y354960D01*
X323112Y355055D01*
X322750Y355170D01*
X322370Y355303D01*
X321951Y355455D01*
X321494Y355627D01*
X321037Y355817D01*
X320561Y356046D01*
X320104Y356274D01*
X319628Y356541D01*
X319190Y356807D01*
X318752Y357093D01*
X318352Y357416D01*
X318333Y357435D01*
X318257Y357493D01*
X318162Y357588D01*
X318028Y357740D01*
X317876Y357911D01*
X317705Y358102D01*
X317533Y358349D01*
X317343Y358616D01*
X317153Y358921D01*
X316981Y359263D01*
X316810Y359625D01*
X316657Y360006D01*
X316524Y360425D01*
X316429Y360863D01*
X316353Y361339D01*
X316334Y361815D01*
Y361853D01*
Y361929D01*
X316353Y362081D01*
X316372Y362272D01*
X316410Y362519D01*
X316448Y362786D01*
X316524Y363109D01*
X316600Y363433D01*
X316715Y363795D01*
X316867Y364176D01*
X317038Y364556D01*
X317248Y364937D01*
X317495Y365337D01*
X317781Y365718D01*
X318124Y366080D01*
X318504Y366441D01*
X318523Y366460D01*
X318600Y366518D01*
X318733Y366613D01*
X318904Y366727D01*
X319114Y366879D01*
X319380Y367032D01*
X319685Y367203D01*
X320027Y367374D01*
X320427Y367546D01*
X320846Y367717D01*
X321322Y367869D01*
X321817Y368022D01*
X322370Y368136D01*
X322941Y368231D01*
X323550Y368288D01*
X324178Y368307D01*
X324350D01*
X324540Y368288D01*
D02*
G37*
G36*
X373625Y362176D02*
X373835Y362157D01*
X374120Y362119D01*
X374425Y362062D01*
X374787Y361986D01*
X375167Y361872D01*
X375567Y361738D01*
X375986Y361567D01*
X376405Y361358D01*
X376824Y361110D01*
X377243Y360806D01*
X377643Y360463D01*
X378023Y360063D01*
X378385Y359606D01*
X378404Y359568D01*
X378461Y359492D01*
X378556Y359339D01*
X378671Y359130D01*
X378804Y358882D01*
X378956Y358559D01*
X379128Y358197D01*
X379299Y357778D01*
X379470Y357302D01*
X379642Y356788D01*
X379794Y356236D01*
X379927Y355627D01*
X380042Y354960D01*
X380137Y354275D01*
X380194Y353532D01*
X380213Y352752D01*
Y352409D01*
Y352390D01*
Y352371D01*
Y352314D01*
Y352238D01*
X380194Y352047D01*
Y351781D01*
X380156Y351457D01*
X380118Y351076D01*
X380061Y350657D01*
X379984Y350219D01*
X379889Y349743D01*
X379775Y349248D01*
X379623Y348734D01*
X379451Y348220D01*
X379242Y347706D01*
X378994Y347211D01*
X378709Y346735D01*
X378385Y346278D01*
X378366Y346259D01*
X378309Y346183D01*
X378195Y346069D01*
X378042Y345916D01*
X377871Y345745D01*
X377643Y345535D01*
X377376Y345326D01*
X377071Y345117D01*
X376729Y344907D01*
X376348Y344698D01*
X375948Y344488D01*
X375491Y344317D01*
X375015Y344165D01*
X374501Y344050D01*
X373949Y343974D01*
X373359Y343955D01*
X373092D01*
X372940Y343974D01*
X372768Y343993D01*
X372597D01*
X372388Y344031D01*
X371931Y344088D01*
X371455Y344184D01*
X370959Y344317D01*
X370483Y344488D01*
X370464D01*
X370426Y344507D01*
X370369Y344545D01*
X370274Y344584D01*
X370179Y344641D01*
X370046Y344717D01*
X369760Y344888D01*
X369436Y345117D01*
X369094Y345402D01*
X368751Y345726D01*
X368408Y346107D01*
Y337520D01*
X365210D01*
Y361872D01*
X367666D01*
X368161Y359587D01*
X368180Y359606D01*
X368199Y359644D01*
X368256Y359701D01*
X368313Y359796D01*
X368503Y360025D01*
X368751Y360311D01*
X369075Y360615D01*
X369436Y360939D01*
X369855Y361262D01*
X370312Y361529D01*
X370331D01*
X370369Y361567D01*
X370445Y361586D01*
X370541Y361643D01*
X370674Y361681D01*
X370807Y361738D01*
X370979Y361796D01*
X371169Y361872D01*
X371378Y361929D01*
X371607Y361986D01*
X372121Y362100D01*
X372692Y362176D01*
X373302Y362195D01*
X373454D01*
X373625Y362176D01*
D02*
G37*
G36*
X459210D02*
X459381D01*
X459610Y362138D01*
X459876Y362100D01*
X460162Y362043D01*
X460486Y361967D01*
X460809Y361872D01*
X461152Y361738D01*
X461514Y361605D01*
X461875Y361415D01*
X462218Y361205D01*
X462561Y360958D01*
X462885Y360672D01*
X463189Y360349D01*
X463208Y360330D01*
X463266Y360253D01*
X463342Y360158D01*
X463437Y360006D01*
X463551Y359816D01*
X463684Y359568D01*
X463818Y359282D01*
X463970Y358959D01*
X464122Y358597D01*
X464256Y358178D01*
X464389Y357721D01*
X464503Y357226D01*
X464598Y356674D01*
X464693Y356103D01*
X464732Y355455D01*
X464751Y354789D01*
Y344279D01*
X461552D01*
Y354827D01*
Y354865D01*
Y354941D01*
Y355075D01*
X461533Y355246D01*
Y355474D01*
X461514Y355703D01*
X461476Y355969D01*
X461438Y356274D01*
X461342Y356864D01*
X461171Y357474D01*
X461076Y357759D01*
X460962Y358045D01*
X460809Y358292D01*
X460657Y358502D01*
X460638Y358521D01*
X460619Y358540D01*
X460562Y358597D01*
X460486Y358673D01*
X460390Y358749D01*
X460276Y358844D01*
X460143Y358940D01*
X459991Y359054D01*
X459800Y359149D01*
X459610Y359244D01*
X459381Y359339D01*
X459153Y359416D01*
X458886Y359492D01*
X458601Y359549D01*
X458296Y359568D01*
X457972Y359587D01*
X457820D01*
X457706Y359568D01*
X457553Y359549D01*
X457401Y359530D01*
X457020Y359454D01*
X456601Y359301D01*
X456373Y359225D01*
X456164Y359111D01*
X455935Y358978D01*
X455726Y358825D01*
X455516Y358654D01*
X455307Y358445D01*
X455288Y358426D01*
X455269Y358387D01*
X455211Y358330D01*
X455154Y358235D01*
X455059Y358140D01*
X454983Y358007D01*
X454888Y357835D01*
X454774Y357664D01*
X454678Y357474D01*
X454583Y357245D01*
X454469Y357017D01*
X454393Y356750D01*
X454221Y356198D01*
X454164Y355893D01*
X454126Y355570D01*
Y355455D01*
Y344279D01*
X450909D01*
Y354827D01*
Y354865D01*
Y354941D01*
Y355055D01*
X450889Y355227D01*
Y355436D01*
X450851Y355665D01*
X450832Y355931D01*
X450794Y356217D01*
X450680Y356807D01*
X450509Y357397D01*
X450414Y357683D01*
X450280Y357969D01*
X450147Y358216D01*
X449975Y358445D01*
X449957Y358464D01*
X449937Y358502D01*
X449880Y358559D01*
X449804Y358616D01*
X449709Y358711D01*
X449595Y358806D01*
X449462Y358902D01*
X449309Y359016D01*
X449138Y359130D01*
X448928Y359225D01*
X448719Y359320D01*
X448490Y359416D01*
X448224Y359473D01*
X447957Y359530D01*
X447653Y359568D01*
X447348Y359587D01*
X447100D01*
X446986Y359568D01*
X446834Y359549D01*
X446491Y359511D01*
X446110Y359435D01*
X445711Y359339D01*
X445311Y359187D01*
X444930Y358978D01*
X444911D01*
X444892Y358959D01*
X444778Y358863D01*
X444606Y358730D01*
X444397Y358540D01*
X444168Y358311D01*
X443921Y358026D01*
X443692Y357683D01*
X443483Y357302D01*
Y344279D01*
X440284D01*
Y361872D01*
X443140D01*
X443369Y359568D01*
X443388Y359587D01*
X443407Y359625D01*
X443464Y359682D01*
X443521Y359777D01*
X443711Y360006D01*
X443959Y360292D01*
X444283Y360596D01*
X444663Y360920D01*
X445082Y361224D01*
X445558Y361510D01*
X445577D01*
X445615Y361548D01*
X445691Y361567D01*
X445787Y361624D01*
X445920Y361662D01*
X446072Y361719D01*
X446244Y361796D01*
X446453Y361853D01*
X446663Y361910D01*
X446891Y361986D01*
X447424Y362081D01*
X448014Y362157D01*
X448643Y362195D01*
X448814D01*
X448928Y362176D01*
X449081D01*
X449271Y362157D01*
X449462Y362119D01*
X449671Y362100D01*
X450147Y362005D01*
X450661Y361853D01*
X451156Y361643D01*
X451404Y361529D01*
X451651Y361377D01*
X451670D01*
X451708Y361339D01*
X451765Y361301D01*
X451861Y361224D01*
X451975Y361148D01*
X452089Y361034D01*
X452222Y360920D01*
X452375Y360768D01*
X452527Y360615D01*
X452679Y360425D01*
X452832Y360234D01*
X452984Y360006D01*
X453155Y359777D01*
X453289Y359511D01*
X453422Y359244D01*
X453555Y358940D01*
X453574Y358959D01*
X453593Y359016D01*
X453650Y359092D01*
X453707Y359187D01*
X453784Y359320D01*
X453898Y359473D01*
X454145Y359816D01*
X454450Y360196D01*
X454831Y360596D01*
X455269Y360977D01*
X455745Y361320D01*
X455764Y361339D01*
X455802Y361358D01*
X455878Y361396D01*
X455992Y361453D01*
X456125Y361529D01*
X456278Y361605D01*
X456449Y361681D01*
X456659Y361758D01*
X456887Y361834D01*
X457135Y361910D01*
X457668Y362062D01*
X458277Y362157D01*
X458601Y362195D01*
X459058D01*
X459210Y362176D01*
D02*
G37*
G36*
X430098D02*
X430269D01*
X430498Y362138D01*
X430764Y362100D01*
X431050Y362043D01*
X431374Y361967D01*
X431697Y361872D01*
X432040Y361738D01*
X432402Y361605D01*
X432763Y361415D01*
X433106Y361205D01*
X433449Y360958D01*
X433773Y360672D01*
X434077Y360349D01*
X434096Y360330D01*
X434153Y360253D01*
X434230Y360158D01*
X434325Y360006D01*
X434439Y359816D01*
X434572Y359568D01*
X434705Y359282D01*
X434858Y358959D01*
X435010Y358597D01*
X435143Y358178D01*
X435277Y357721D01*
X435391Y357226D01*
X435486Y356674D01*
X435581Y356103D01*
X435619Y355455D01*
X435638Y354789D01*
Y344279D01*
X432440D01*
Y354827D01*
Y354865D01*
Y354941D01*
Y355075D01*
X432421Y355246D01*
Y355474D01*
X432402Y355703D01*
X432364Y355969D01*
X432326Y356274D01*
X432230Y356864D01*
X432059Y357474D01*
X431964Y357759D01*
X431849Y358045D01*
X431697Y358292D01*
X431545Y358502D01*
X431526Y358521D01*
X431507Y358540D01*
X431450Y358597D01*
X431374Y358673D01*
X431278Y358749D01*
X431164Y358844D01*
X431031Y358940D01*
X430878Y359054D01*
X430688Y359149D01*
X430498Y359244D01*
X430269Y359339D01*
X430041Y359416D01*
X429774Y359492D01*
X429489Y359549D01*
X429184Y359568D01*
X428860Y359587D01*
X428708D01*
X428594Y359568D01*
X428441Y359549D01*
X428289Y359530D01*
X427908Y359454D01*
X427489Y359301D01*
X427261Y359225D01*
X427051Y359111D01*
X426823Y358978D01*
X426614Y358825D01*
X426404Y358654D01*
X426195Y358445D01*
X426175Y358426D01*
X426157Y358387D01*
X426099Y358330D01*
X426042Y358235D01*
X425947Y358140D01*
X425871Y358007D01*
X425776Y357835D01*
X425662Y357664D01*
X425566Y357474D01*
X425471Y357245D01*
X425357Y357017D01*
X425281Y356750D01*
X425109Y356198D01*
X425052Y355893D01*
X425014Y355570D01*
Y355455D01*
Y344279D01*
X421796D01*
Y354827D01*
Y354865D01*
Y354941D01*
Y355055D01*
X421777Y355227D01*
Y355436D01*
X421739Y355665D01*
X421720Y355931D01*
X421682Y356217D01*
X421568Y356807D01*
X421396Y357397D01*
X421301Y357683D01*
X421168Y357969D01*
X421035Y358216D01*
X420863Y358445D01*
X420844Y358464D01*
X420825Y358502D01*
X420768Y358559D01*
X420692Y358616D01*
X420597Y358711D01*
X420483Y358806D01*
X420349Y358902D01*
X420197Y359016D01*
X420026Y359130D01*
X419816Y359225D01*
X419607Y359320D01*
X419378Y359416D01*
X419112Y359473D01*
X418845Y359530D01*
X418540Y359568D01*
X418236Y359587D01*
X417988D01*
X417874Y359568D01*
X417722Y359549D01*
X417379Y359511D01*
X416998Y359435D01*
X416598Y359339D01*
X416199Y359187D01*
X415818Y358978D01*
X415799D01*
X415780Y358959D01*
X415665Y358863D01*
X415494Y358730D01*
X415285Y358540D01*
X415056Y358311D01*
X414809Y358026D01*
X414580Y357683D01*
X414371Y357302D01*
Y344279D01*
X411172D01*
Y361872D01*
X414028D01*
X414256Y359568D01*
X414276Y359587D01*
X414295Y359625D01*
X414352Y359682D01*
X414409Y359777D01*
X414599Y360006D01*
X414847Y360292D01*
X415170Y360596D01*
X415551Y360920D01*
X415970Y361224D01*
X416446Y361510D01*
X416465D01*
X416503Y361548D01*
X416579Y361567D01*
X416675Y361624D01*
X416808Y361662D01*
X416960Y361719D01*
X417132Y361796D01*
X417341Y361853D01*
X417550Y361910D01*
X417779Y361986D01*
X418312Y362081D01*
X418902Y362157D01*
X419531Y362195D01*
X419702D01*
X419816Y362176D01*
X419969D01*
X420159Y362157D01*
X420349Y362119D01*
X420559Y362100D01*
X421035Y362005D01*
X421549Y361853D01*
X422044Y361643D01*
X422291Y361529D01*
X422539Y361377D01*
X422558D01*
X422596Y361339D01*
X422653Y361301D01*
X422748Y361224D01*
X422863Y361148D01*
X422977Y361034D01*
X423110Y360920D01*
X423262Y360768D01*
X423415Y360615D01*
X423567Y360425D01*
X423719Y360234D01*
X423872Y360006D01*
X424043Y359777D01*
X424176Y359511D01*
X424310Y359244D01*
X424443Y358940D01*
X424462Y358959D01*
X424481Y359016D01*
X424538Y359092D01*
X424595Y359187D01*
X424671Y359320D01*
X424786Y359473D01*
X425033Y359816D01*
X425338Y360196D01*
X425719Y360596D01*
X426157Y360977D01*
X426632Y361320D01*
X426651Y361339D01*
X426690Y361358D01*
X426766Y361396D01*
X426880Y361453D01*
X427013Y361529D01*
X427166Y361605D01*
X427337Y361681D01*
X427546Y361758D01*
X427775Y361834D01*
X428022Y361910D01*
X428555Y362062D01*
X429165Y362157D01*
X429489Y362195D01*
X429946D01*
X430098Y362176D01*
D02*
G37*
G36*
X406165Y365109D02*
X397006D01*
X396245Y358292D01*
X396283Y358311D01*
X396378Y358387D01*
X396530Y358502D01*
X396740Y358616D01*
X396987Y358768D01*
X397273Y358921D01*
X397578Y359073D01*
X397920Y359225D01*
X397939D01*
X397958Y359244D01*
X398015Y359263D01*
X398092Y359282D01*
X398282Y359339D01*
X398530Y359416D01*
X398853Y359473D01*
X399215Y359530D01*
X399596Y359587D01*
X400034Y359606D01*
X400186D01*
X400357Y359587D01*
X400586D01*
X400852Y359549D01*
X401176Y359511D01*
X401538Y359454D01*
X401919Y359359D01*
X402318Y359263D01*
X402737Y359130D01*
X403175Y358959D01*
X403594Y358749D01*
X404032Y358521D01*
X404432Y358235D01*
X404832Y357911D01*
X405194Y357550D01*
X405212Y357531D01*
X405270Y357454D01*
X405365Y357340D01*
X405479Y357169D01*
X405631Y356960D01*
X405784Y356693D01*
X405955Y356388D01*
X406126Y356046D01*
X406298Y355665D01*
X406469Y355227D01*
X406622Y354751D01*
X406774Y354256D01*
X406888Y353704D01*
X406983Y353113D01*
X407040Y352485D01*
X407059Y351819D01*
Y351800D01*
Y351781D01*
Y351724D01*
Y351666D01*
X407040Y351476D01*
X407021Y351228D01*
X407002Y350924D01*
X406964Y350581D01*
X406907Y350200D01*
X406812Y349762D01*
X406717Y349324D01*
X406583Y348868D01*
X406431Y348392D01*
X406241Y347916D01*
X406031Y347440D01*
X405765Y346964D01*
X405479Y346526D01*
X405136Y346107D01*
X405117Y346088D01*
X405041Y346011D01*
X404946Y345916D01*
X404775Y345764D01*
X404584Y345612D01*
X404337Y345421D01*
X404051Y345231D01*
X403727Y345040D01*
X403366Y344831D01*
X402947Y344641D01*
X402490Y344450D01*
X401995Y344298D01*
X401443Y344146D01*
X400871Y344050D01*
X400243Y343974D01*
X399577Y343955D01*
X399443D01*
X399291Y343974D01*
X399082D01*
X398815Y344012D01*
X398510Y344050D01*
X398187Y344088D01*
X397825Y344165D01*
X397425Y344241D01*
X397025Y344355D01*
X396606Y344488D01*
X396187Y344641D01*
X395769Y344831D01*
X395350Y345040D01*
X394931Y345288D01*
X394550Y345574D01*
X394531Y345593D01*
X394474Y345650D01*
X394360Y345745D01*
X394246Y345878D01*
X394093Y346050D01*
X393922Y346259D01*
X393750Y346507D01*
X393560Y346792D01*
X393389Y347116D01*
X393198Y347478D01*
X393046Y347877D01*
X392913Y348296D01*
X392779Y348772D01*
X392703Y349286D01*
X392646Y349819D01*
Y350410D01*
X392665Y350505D01*
X395559D01*
Y350486D01*
Y350429D01*
Y350314D01*
X395578Y350181D01*
X395597Y350029D01*
X395616Y349838D01*
X395654Y349629D01*
X395692Y349401D01*
X395826Y348925D01*
X395921Y348658D01*
X396035Y348411D01*
X396168Y348163D01*
X396321Y347935D01*
X396492Y347706D01*
X396683Y347497D01*
X396702Y347478D01*
X396740Y347459D01*
X396797Y347401D01*
X396892Y347325D01*
X397006Y347249D01*
X397140Y347154D01*
X397292Y347059D01*
X397463Y346964D01*
X397673Y346868D01*
X397882Y346773D01*
X398130Y346678D01*
X398377Y346602D01*
X398948Y346468D01*
X399253Y346449D01*
X399577Y346430D01*
X399672D01*
X399767Y346449D01*
X399919D01*
X400072Y346468D01*
X400281Y346507D01*
X400491Y346545D01*
X400719Y346602D01*
X400967Y346678D01*
X401233Y346773D01*
X401500Y346887D01*
X401747Y347040D01*
X402014Y347192D01*
X402261Y347382D01*
X402490Y347611D01*
X402718Y347858D01*
X402737Y347877D01*
X402775Y347935D01*
X402813Y348011D01*
X402890Y348125D01*
X402985Y348277D01*
X403080Y348449D01*
X403175Y348658D01*
X403290Y348886D01*
X403385Y349153D01*
X403480Y349458D01*
X403575Y349781D01*
X403670Y350124D01*
X403746Y350505D01*
X403785Y350905D01*
X403823Y351324D01*
X403842Y351781D01*
Y351800D01*
Y351876D01*
Y351990D01*
X403823Y352161D01*
X403803Y352352D01*
X403785Y352580D01*
X403746Y352828D01*
X403708Y353094D01*
X403575Y353666D01*
X403480Y353970D01*
X403366Y354275D01*
X403232Y354579D01*
X403099Y354884D01*
X402909Y355170D01*
X402718Y355436D01*
X402699Y355455D01*
X402661Y355493D01*
X402604Y355570D01*
X402509Y355665D01*
X402395Y355760D01*
X402261Y355874D01*
X402090Y356008D01*
X401899Y356141D01*
X401690Y356274D01*
X401462Y356407D01*
X401195Y356522D01*
X400928Y356617D01*
X400624Y356712D01*
X400300Y356788D01*
X399938Y356826D01*
X399577Y356845D01*
X399272D01*
X399120Y356826D01*
X398929Y356807D01*
X398530Y356769D01*
X398073Y356712D01*
X397635Y356598D01*
X397197Y356464D01*
X397006Y356369D01*
X396835Y356274D01*
X396797Y356255D01*
X396702Y356160D01*
X396549Y356027D01*
X396359Y355836D01*
X396168Y355589D01*
X395959Y355303D01*
X395750Y354941D01*
X395578Y354522D01*
X392932Y354789D01*
X394303Y367965D01*
X406165D01*
Y365109D01*
D02*
G37*
G36*
X354890Y362176D02*
X355118Y362157D01*
X355423Y362119D01*
X355747Y362081D01*
X356127Y362005D01*
X356527Y361929D01*
X356946Y361796D01*
X357384Y361662D01*
X357822Y361472D01*
X358260Y361262D01*
X358698Y361015D01*
X359098Y360710D01*
X359497Y360368D01*
X359840Y359987D01*
X359859Y359968D01*
X359916Y359892D01*
X360012Y359758D01*
X360126Y359587D01*
X360259Y359378D01*
X360392Y359111D01*
X360564Y358787D01*
X360735Y358445D01*
X360887Y358045D01*
X361059Y357607D01*
X361192Y357131D01*
X361344Y356598D01*
X361439Y356046D01*
X361535Y355455D01*
X361592Y354827D01*
X361611Y354161D01*
Y352466D01*
X350358D01*
X350301Y352390D01*
Y352352D01*
Y352276D01*
Y352142D01*
X350320Y351952D01*
X350339Y351724D01*
X350358Y351457D01*
X350396Y351171D01*
X350453Y350867D01*
X350511Y350524D01*
X350587Y350181D01*
X350682Y349819D01*
X350796Y349458D01*
X350929Y349096D01*
X351082Y348753D01*
X351253Y348411D01*
X351463Y348087D01*
X351482Y348068D01*
X351520Y348011D01*
X351596Y347935D01*
X351691Y347820D01*
X351805Y347706D01*
X351958Y347573D01*
X352148Y347420D01*
X352358Y347268D01*
X352586Y347097D01*
X352853Y346964D01*
X353157Y346811D01*
X353481Y346697D01*
X353823Y346583D01*
X354204Y346507D01*
X354623Y346449D01*
X355061Y346430D01*
X355328D01*
X355480Y346449D01*
X355632D01*
X355823Y346468D01*
X356032Y346487D01*
X356470Y346545D01*
X356946Y346621D01*
X357422Y346735D01*
X357898Y346887D01*
X357917D01*
X357955Y346906D01*
X358012Y346944D01*
X358107Y346983D01*
X358222Y347021D01*
X358336Y347078D01*
X358622Y347230D01*
X358964Y347420D01*
X359307Y347630D01*
X359669Y347896D01*
X360012Y348182D01*
X361268Y346088D01*
X361249Y346069D01*
X361230Y346050D01*
X361173Y345992D01*
X361097Y345935D01*
X361002Y345859D01*
X360887Y345764D01*
X360754Y345669D01*
X360602Y345554D01*
X360240Y345307D01*
X359821Y345059D01*
X359326Y344812D01*
X358774Y344564D01*
X358755D01*
X358698Y344545D01*
X358622Y344507D01*
X358507Y344469D01*
X358355Y344431D01*
X358165Y344374D01*
X357974Y344317D01*
X357727Y344260D01*
X357479Y344203D01*
X357194Y344146D01*
X356889Y344088D01*
X356565Y344050D01*
X356204Y344012D01*
X355842Y343974D01*
X355061Y343955D01*
X354890D01*
X354699Y343974D01*
X354433Y343993D01*
X354109Y344031D01*
X353747Y344088D01*
X353328Y344165D01*
X352891Y344260D01*
X352415Y344374D01*
X351939Y344545D01*
X351444Y344736D01*
X350949Y344964D01*
X350453Y345250D01*
X349996Y345554D01*
X349539Y345935D01*
X349121Y346354D01*
X349102Y346392D01*
X349026Y346468D01*
X348930Y346602D01*
X348797Y346792D01*
X348626Y347040D01*
X348454Y347325D01*
X348264Y347668D01*
X348074Y348068D01*
X347864Y348487D01*
X347674Y348982D01*
X347502Y349496D01*
X347331Y350067D01*
X347198Y350676D01*
X347102Y351324D01*
X347026Y352009D01*
X347007Y352733D01*
Y353437D01*
Y353456D01*
Y353475D01*
Y353532D01*
Y353608D01*
X347026Y353799D01*
X347045Y354065D01*
X347083Y354389D01*
X347122Y354770D01*
X347198Y355189D01*
X347274Y355646D01*
X347388Y356141D01*
X347540Y356636D01*
X347712Y357169D01*
X347940Y357702D01*
X348188Y358216D01*
X348473Y358749D01*
X348816Y359244D01*
X349197Y359720D01*
X349216Y359739D01*
X349292Y359835D01*
X349425Y359949D01*
X349597Y360101D01*
X349806Y360292D01*
X350054Y360501D01*
X350358Y360729D01*
X350682Y360958D01*
X351063Y361186D01*
X351463Y361415D01*
X351901Y361624D01*
X352377Y361815D01*
X352871Y361967D01*
X353405Y362081D01*
X353976Y362176D01*
X354547Y362195D01*
X354699D01*
X354890Y362176D01*
D02*
G37*
G36*
X340991Y361872D02*
X344323D01*
Y359492D01*
X340991D01*
Y348810D01*
Y348791D01*
Y348753D01*
Y348696D01*
Y348601D01*
X341010Y348392D01*
X341048Y348125D01*
X341124Y347839D01*
X341200Y347554D01*
X341333Y347287D01*
X341505Y347059D01*
X341524Y347040D01*
X341600Y346983D01*
X341714Y346906D01*
X341866Y346811D01*
X342057Y346716D01*
X342285Y346640D01*
X342552Y346583D01*
X342857Y346564D01*
X342971D01*
X343047Y346583D01*
X343237Y346602D01*
X343485Y346640D01*
X343504D01*
X343542Y346659D01*
X343599Y346678D01*
X343675Y346697D01*
X343866Y346735D01*
X344037Y346792D01*
X344494Y344602D01*
X344475Y344584D01*
X344418Y344545D01*
X344342Y344488D01*
X344227Y344431D01*
X344075Y344355D01*
X343885Y344279D01*
X343675Y344203D01*
X343428Y344127D01*
X343390D01*
X343314Y344108D01*
X343161Y344069D01*
X342990Y344050D01*
X342780Y344012D01*
X342552Y343974D01*
X342038Y343955D01*
X341847D01*
X341714Y343974D01*
X341562Y343993D01*
X341371Y344012D01*
X341143Y344050D01*
X340914Y344108D01*
X340419Y344241D01*
X340172Y344336D01*
X339905Y344450D01*
X339658Y344584D01*
X339410Y344736D01*
X339163Y344907D01*
X338934Y345117D01*
X338915Y345136D01*
X338877Y345174D01*
X338820Y345250D01*
X338763Y345345D01*
X338668Y345459D01*
X338573Y345612D01*
X338458Y345802D01*
X338363Y346011D01*
X338249Y346259D01*
X338135Y346526D01*
X338039Y346830D01*
X337963Y347173D01*
X337887Y347535D01*
X337830Y347935D01*
X337792Y348353D01*
X337773Y348810D01*
Y359492D01*
X334993D01*
Y361872D01*
X337773D01*
Y366118D01*
X340991D01*
Y361872D01*
D02*
G37*
%LPC*%
G36*
X465845Y422944D02*
X460952D01*
Y414567D01*
X465788D01*
X465960Y414586D01*
X466188Y414605D01*
X466455Y414624D01*
X466721Y414662D01*
X467026Y414700D01*
X467673Y414814D01*
X468321Y415005D01*
X468644Y415119D01*
X468930Y415252D01*
X469196Y415424D01*
X469444Y415595D01*
X469463Y415614D01*
X469501Y415652D01*
X469558Y415709D01*
X469634Y415786D01*
X469730Y415900D01*
X469825Y416033D01*
X469939Y416204D01*
X470053Y416376D01*
X470148Y416585D01*
X470263Y416833D01*
X470358Y417080D01*
X470453Y417366D01*
X470529Y417670D01*
X470586Y418013D01*
X470624Y418375D01*
X470644Y418756D01*
Y418775D01*
Y418851D01*
Y418946D01*
X470624Y419079D01*
X470605Y419251D01*
X470586Y419441D01*
X470548Y419670D01*
X470491Y419898D01*
X470358Y420393D01*
X470263Y420641D01*
X470148Y420907D01*
X470015Y421155D01*
X469844Y421402D01*
X469672Y421631D01*
X469463Y421840D01*
X469444Y421859D01*
X469406Y421897D01*
X469349Y421935D01*
X469235Y422012D01*
X469120Y422088D01*
X468968Y422183D01*
X468778Y422297D01*
X468568Y422392D01*
X468340Y422487D01*
X468073Y422602D01*
X467768Y422697D01*
X467445Y422773D01*
X467083Y422849D01*
X466702Y422906D01*
X466283Y422926D01*
X465845Y422944D01*
D02*
G37*
G36*
X396921D02*
X392027D01*
Y414567D01*
X396864D01*
X397035Y414586D01*
X397263Y414605D01*
X397530Y414624D01*
X397796Y414662D01*
X398101Y414700D01*
X398748Y414814D01*
X399396Y415005D01*
X399720Y415119D01*
X400005Y415252D01*
X400272Y415424D01*
X400519Y415595D01*
X400538Y415614D01*
X400576Y415652D01*
X400633Y415709D01*
X400709Y415786D01*
X400805Y415900D01*
X400900Y416033D01*
X401014Y416204D01*
X401128Y416376D01*
X401224Y416585D01*
X401338Y416833D01*
X401433Y417080D01*
X401528Y417366D01*
X401604Y417670D01*
X401661Y418013D01*
X401700Y418375D01*
X401719Y418756D01*
Y418775D01*
Y418851D01*
Y418946D01*
X401700Y419079D01*
X401681Y419251D01*
X401661Y419441D01*
X401623Y419670D01*
X401566Y419898D01*
X401433Y420393D01*
X401338Y420641D01*
X401224Y420907D01*
X401090Y421155D01*
X400919Y421402D01*
X400748Y421631D01*
X400538Y421840D01*
X400519Y421859D01*
X400481Y421897D01*
X400424Y421935D01*
X400310Y422012D01*
X400196Y422088D01*
X400043Y422183D01*
X399853Y422297D01*
X399643Y422392D01*
X399415Y422487D01*
X399148Y422602D01*
X398844Y422697D01*
X398520Y422773D01*
X398158Y422849D01*
X397777Y422906D01*
X397358Y422926D01*
X396921Y422944D01*
D02*
G37*
G36*
X375634Y420736D02*
X375539D01*
X372016Y410569D01*
X379080D01*
X375634Y420736D01*
D02*
G37*
G36*
X314630Y422944D02*
X308765D01*
Y413786D01*
X314858D01*
X315030Y413805D01*
X315220Y413824D01*
X315448Y413862D01*
X315696Y413901D01*
X315982Y413958D01*
X316553Y414110D01*
X316857Y414205D01*
X317162Y414338D01*
X317448Y414491D01*
X317714Y414662D01*
X317981Y414853D01*
X318209Y415081D01*
X318228Y415100D01*
X318266Y415138D01*
X318323Y415214D01*
X318400Y415309D01*
X318495Y415443D01*
X318590Y415595D01*
X318704Y415766D01*
X318818Y415976D01*
X318914Y416204D01*
X319028Y416452D01*
X319123Y416718D01*
X319218Y417004D01*
X319295Y417309D01*
X319352Y417632D01*
X319390Y417975D01*
X319409Y418337D01*
Y418356D01*
Y418432D01*
Y418527D01*
X319390Y418660D01*
X319371Y418832D01*
X319352Y419041D01*
X319314Y419251D01*
X319256Y419498D01*
X319123Y420012D01*
X319028Y420279D01*
X318895Y420565D01*
X318761Y420831D01*
X318609Y421117D01*
X318419Y421383D01*
X318209Y421631D01*
X318190Y421650D01*
X318152Y421688D01*
X318076Y421745D01*
X317981Y421840D01*
X317866Y421935D01*
X317714Y422050D01*
X317524Y422164D01*
X317314Y422297D01*
X317067Y422411D01*
X316800Y422526D01*
X316515Y422640D01*
X316191Y422735D01*
X315848Y422830D01*
X315468Y422887D01*
X315068Y422926D01*
X314630Y422944D01*
D02*
G37*
G36*
X335155Y423173D02*
X335041D01*
X334888Y423154D01*
X334698Y423135D01*
X334450Y423116D01*
X334184Y423059D01*
X333879Y423002D01*
X333556Y422906D01*
X333194Y422792D01*
X332832Y422659D01*
X332470Y422487D01*
X332089Y422297D01*
X331709Y422050D01*
X331347Y421764D01*
X331004Y421440D01*
X330680Y421079D01*
X330661Y421060D01*
X330604Y420983D01*
X330528Y420869D01*
X330414Y420698D01*
X330300Y420507D01*
X330147Y420260D01*
X329995Y419955D01*
X329843Y419631D01*
X329690Y419270D01*
X329538Y418870D01*
X329386Y418432D01*
X329272Y417956D01*
X329157Y417461D01*
X329081Y416928D01*
X329024Y416357D01*
X329005Y415766D01*
Y411502D01*
Y411463D01*
Y411349D01*
X329024Y411178D01*
Y410949D01*
X329062Y410683D01*
X329100Y410359D01*
X329138Y409997D01*
X329214Y409597D01*
X329310Y409179D01*
X329424Y408760D01*
X329557Y408303D01*
X329709Y407865D01*
X329900Y407408D01*
X330128Y406970D01*
X330395Y406532D01*
X330680Y406132D01*
X330699Y406113D01*
X330757Y406037D01*
X330852Y405942D01*
X330985Y405808D01*
X331156Y405656D01*
X331366Y405485D01*
X331594Y405294D01*
X331861Y405104D01*
X332166Y404895D01*
X332508Y404723D01*
X332870Y404533D01*
X333270Y404381D01*
X333708Y404247D01*
X334165Y404152D01*
X334641Y404076D01*
X335155Y404057D01*
X335288D01*
X335440Y404076D01*
X335650Y404095D01*
X335897Y404114D01*
X336183Y404171D01*
X336507Y404228D01*
X336868Y404323D01*
X337230Y404419D01*
X337611Y404571D01*
X338011Y404723D01*
X338392Y404933D01*
X338791Y405161D01*
X339172Y405447D01*
X339534Y405770D01*
X339877Y406132D01*
X339896Y406151D01*
X339953Y406227D01*
X340048Y406342D01*
X340143Y406513D01*
X340277Y406722D01*
X340429Y406970D01*
X340581Y407256D01*
X340753Y407579D01*
X340924Y407941D01*
X341076Y408360D01*
X341229Y408798D01*
X341362Y409274D01*
X341476Y409788D01*
X341552Y410321D01*
X341609Y410892D01*
X341628Y411502D01*
Y415766D01*
Y415804D01*
Y415919D01*
X341609Y416071D01*
Y416299D01*
X341571Y416585D01*
X341533Y416909D01*
X341476Y417251D01*
X341400Y417651D01*
X341305Y418051D01*
X341191Y418489D01*
X341057Y418927D01*
X340886Y419365D01*
X340676Y419822D01*
X340448Y420260D01*
X340162Y420679D01*
X339858Y421079D01*
X339839Y421098D01*
X339781Y421174D01*
X339686Y421269D01*
X339534Y421402D01*
X339363Y421574D01*
X339153Y421745D01*
X338906Y421935D01*
X338620Y422126D01*
X338296Y422316D01*
X337935Y422507D01*
X337554Y422697D01*
X337135Y422849D01*
X336678Y422983D01*
X336202Y423078D01*
X335688Y423154D01*
X335155Y423173D01*
D02*
G37*
G36*
X372350Y359587D02*
X372121D01*
X372007Y359568D01*
X371854Y359549D01*
X371531Y359511D01*
X371169Y359435D01*
X370769Y359320D01*
X370369Y359168D01*
X369988Y358959D01*
X369970D01*
X369950Y358940D01*
X369836Y358844D01*
X369646Y358711D01*
X369436Y358521D01*
X369170Y358273D01*
X368922Y357988D01*
X368656Y357645D01*
X368408Y357245D01*
Y348734D01*
Y348715D01*
X368446Y348696D01*
X368465Y348639D01*
X368522Y348563D01*
X368656Y348353D01*
X368827Y348125D01*
X369056Y347839D01*
X369341Y347554D01*
X369646Y347287D01*
X369988Y347040D01*
X370007D01*
X370027Y347021D01*
X370084Y346983D01*
X370160Y346944D01*
X370255Y346906D01*
X370369Y346849D01*
X370655Y346735D01*
X370998Y346621D01*
X371416Y346526D01*
X371873Y346449D01*
X372388Y346430D01*
X372483D01*
X372597Y346449D01*
X372768D01*
X372940Y346487D01*
X373168Y346526D01*
X373416Y346564D01*
X373663Y346640D01*
X373930Y346735D01*
X374215Y346830D01*
X374501Y346964D01*
X374787Y347135D01*
X375072Y347325D01*
X375339Y347535D01*
X375586Y347801D01*
X375815Y348087D01*
X375834Y348106D01*
X375872Y348163D01*
X375929Y348258D01*
X376005Y348392D01*
X376081Y348563D01*
X376196Y348753D01*
X376291Y348982D01*
X376405Y349248D01*
X376519Y349553D01*
X376614Y349877D01*
X376729Y350238D01*
X376805Y350619D01*
X376881Y351019D01*
X376938Y351457D01*
X376976Y351933D01*
X376995Y352409D01*
Y352752D01*
Y352790D01*
Y352885D01*
Y353037D01*
X376976Y353247D01*
X376957Y353513D01*
X376938Y353799D01*
X376900Y354122D01*
X376843Y354484D01*
X376786Y354865D01*
X376710Y355265D01*
X376614Y355665D01*
X376500Y356084D01*
X376367Y356503D01*
X376196Y356902D01*
X376024Y357283D01*
X375815Y357664D01*
X375796Y357683D01*
X375758Y357740D01*
X375700Y357835D01*
X375586Y357969D01*
X375472Y358102D01*
X375320Y358273D01*
X375148Y358445D01*
X374939Y358635D01*
X374710Y358806D01*
X374444Y358978D01*
X374158Y359149D01*
X373854Y359282D01*
X373511Y359416D01*
X373149Y359511D01*
X372768Y359568D01*
X372350Y359587D01*
D02*
G37*
G36*
X354547Y359682D02*
X354395D01*
X354261Y359663D01*
X354128Y359644D01*
X353957Y359606D01*
X353766Y359568D01*
X353576Y359530D01*
X353138Y359359D01*
X352910Y359263D01*
X352662Y359130D01*
X352434Y358997D01*
X352205Y358806D01*
X351977Y358616D01*
X351767Y358387D01*
X351748Y358368D01*
X351729Y358330D01*
X351672Y358254D01*
X351596Y358159D01*
X351501Y358026D01*
X351406Y357873D01*
X351310Y357683D01*
X351196Y357493D01*
X351082Y357264D01*
X350968Y357017D01*
X350853Y356731D01*
X350739Y356445D01*
X350644Y356122D01*
X350568Y355798D01*
X350491Y355436D01*
X350434Y355075D01*
X350472Y354998D01*
X358412D01*
Y355246D01*
Y355265D01*
Y355341D01*
Y355436D01*
X358393Y355570D01*
Y355722D01*
X358355Y355912D01*
X358336Y356141D01*
X358298Y356369D01*
X358184Y356864D01*
X358012Y357397D01*
X357898Y357664D01*
X357784Y357930D01*
X357631Y358178D01*
X357460Y358426D01*
X357441Y358445D01*
X357422Y358483D01*
X357365Y358540D01*
X357289Y358616D01*
X357175Y358711D01*
X357060Y358825D01*
X356908Y358940D01*
X356737Y359054D01*
X356546Y359168D01*
X356337Y359282D01*
X356089Y359397D01*
X355823Y359492D01*
X355537Y359568D01*
X355233Y359625D01*
X354909Y359663D01*
X354547Y359682D01*
D02*
G37*
%LPD*%
M02*
