G04*
G04 #@! TF.GenerationSoftware,Altium Limited,Altium Designer,18.0.9 (584)*
G04*
G04 Layer_Color=65535*
%FSLAX25Y25*%
%MOIN*%
G70*
G01*
G75*
G36*
X465874Y425458D02*
X466159D01*
X466483Y425420D01*
X466864Y425382D01*
X467302Y425324D01*
X467759Y425248D01*
X468254Y425153D01*
X468749Y425039D01*
X469263Y424887D01*
X469777Y424715D01*
X470272Y424506D01*
X470767Y424258D01*
X471224Y423973D01*
X471643Y423649D01*
X471662Y423630D01*
X471738Y423573D01*
X471852Y423459D01*
X471986Y423306D01*
X472138Y423116D01*
X472329Y422887D01*
X472519Y422621D01*
X472728Y422297D01*
X472938Y421954D01*
X473128Y421555D01*
X473319Y421117D01*
X473471Y420641D01*
X473623Y420127D01*
X473718Y419574D01*
X473795Y418965D01*
X473814Y418337D01*
Y418318D01*
Y418242D01*
Y418127D01*
X473795Y417975D01*
X473775Y417766D01*
X473757Y417556D01*
X473718Y417309D01*
X473661Y417023D01*
X473604Y416738D01*
X473528Y416414D01*
X473433Y416109D01*
X473300Y415766D01*
X473166Y415443D01*
X473014Y415119D01*
X472823Y414795D01*
X472614Y414472D01*
X472595Y414453D01*
X472557Y414396D01*
X472481Y414319D01*
X472386Y414205D01*
X472271Y414072D01*
X472119Y413919D01*
X471948Y413748D01*
X471757Y413558D01*
X471529Y413367D01*
X471281Y413158D01*
X470996Y412949D01*
X470710Y412758D01*
X470386Y412549D01*
X470044Y412377D01*
X469663Y412187D01*
X469282Y412035D01*
X474861Y401981D01*
Y401791D01*
X471491D01*
X466350Y411368D01*
X460790D01*
Y401791D01*
X457649D01*
Y425477D01*
X465760D01*
X465874Y425458D01*
D02*
G37*
G36*
X453612Y422926D02*
X441846D01*
Y415290D01*
X452108D01*
Y412739D01*
X441846D01*
Y404342D01*
X453764D01*
Y401791D01*
X438723D01*
Y425477D01*
X453612D01*
Y422926D01*
D02*
G37*
G36*
X434134Y423192D02*
X421111Y404342D01*
X434667D01*
Y401791D01*
X417417D01*
Y404114D01*
X430402Y422926D01*
X417627D01*
Y425477D01*
X434134D01*
Y423192D01*
D02*
G37*
G36*
X413057Y401791D02*
X409934D01*
Y425477D01*
X413057D01*
Y401791D01*
D02*
G37*
G36*
X397387Y425458D02*
X397673D01*
X397996Y425420D01*
X398377Y425382D01*
X398815Y425324D01*
X399272Y425248D01*
X399767Y425153D01*
X400262Y425039D01*
X400776Y424887D01*
X401290Y424715D01*
X401785Y424506D01*
X402280Y424258D01*
X402737Y423973D01*
X403156Y423649D01*
X403175Y423630D01*
X403251Y423573D01*
X403366Y423459D01*
X403499Y423306D01*
X403651Y423116D01*
X403842Y422887D01*
X404032Y422621D01*
X404242Y422297D01*
X404451Y421954D01*
X404641Y421555D01*
X404832Y421117D01*
X404984Y420641D01*
X405136Y420127D01*
X405232Y419574D01*
X405308Y418965D01*
X405327Y418337D01*
Y418318D01*
Y418242D01*
Y418127D01*
X405308Y417975D01*
X405289Y417766D01*
X405270Y417556D01*
X405232Y417309D01*
X405174Y417023D01*
X405117Y416738D01*
X405041Y416414D01*
X404946Y416109D01*
X404813Y415766D01*
X404679Y415443D01*
X404527Y415119D01*
X404337Y414795D01*
X404127Y414472D01*
X404108Y414453D01*
X404070Y414396D01*
X403994Y414319D01*
X403899Y414205D01*
X403785Y414072D01*
X403632Y413919D01*
X403461Y413748D01*
X403270Y413558D01*
X403042Y413367D01*
X402794Y413158D01*
X402509Y412949D01*
X402223Y412758D01*
X401899Y412549D01*
X401557Y412377D01*
X401176Y412187D01*
X400795Y412035D01*
X406374Y401981D01*
Y401791D01*
X403004D01*
X397863Y411368D01*
X392303D01*
Y401791D01*
X389162D01*
Y425477D01*
X397273D01*
X397387Y425458D01*
D02*
G37*
G36*
X385982Y401791D02*
X382783D01*
X380518Y407998D01*
X370598D01*
X368370Y401791D01*
X365152D01*
X374196Y425477D01*
X376919D01*
X385982Y401791D01*
D02*
G37*
G36*
X352643Y404342D02*
X363858D01*
Y401791D01*
X349501D01*
Y425477D01*
X352643D01*
Y404342D01*
D02*
G37*
G36*
X314696Y425458D02*
X314963Y425439D01*
X315287Y425420D01*
X315667Y425363D01*
X316086Y425306D01*
X316543Y425229D01*
X317019Y425115D01*
X317514Y424982D01*
X318009Y424829D01*
X318523Y424639D01*
X319018Y424411D01*
X319514Y424144D01*
X319970Y423839D01*
X320408Y423478D01*
X320427Y423459D01*
X320503Y423382D01*
X320618Y423268D01*
X320751Y423116D01*
X320922Y422926D01*
X321113Y422678D01*
X321303Y422392D01*
X321513Y422088D01*
X321722Y421726D01*
X321913Y421326D01*
X322103Y420888D01*
X322274Y420431D01*
X322408Y419917D01*
X322522Y419384D01*
X322598Y418813D01*
X322617Y418223D01*
Y418185D01*
Y418070D01*
X322598Y417899D01*
X322579Y417651D01*
X322560Y417366D01*
X322503Y417042D01*
X322427Y416661D01*
X322350Y416261D01*
X322236Y415843D01*
X322084Y415405D01*
X321913Y414967D01*
X321703Y414529D01*
X321456Y414091D01*
X321170Y413672D01*
X320827Y413272D01*
X320446Y412910D01*
X320427Y412891D01*
X320351Y412834D01*
X320218Y412739D01*
X320047Y412625D01*
X319818Y412492D01*
X319551Y412320D01*
X319228Y412168D01*
X318866Y411997D01*
X318447Y411806D01*
X317990Y411654D01*
X317495Y411502D01*
X316943Y411349D01*
X316334Y411235D01*
X315705Y411140D01*
X315001Y411083D01*
X314278Y411063D01*
X308699D01*
Y401791D01*
X305576D01*
Y425477D01*
X314487D01*
X314696Y425458D01*
D02*
G37*
G36*
X335755Y425781D02*
X336002Y425762D01*
X336307Y425724D01*
X336630Y425686D01*
X336973Y425629D01*
X337354Y425553D01*
X337754Y425458D01*
X338173Y425344D01*
X338611Y425210D01*
X339030Y425058D01*
X339467Y424867D01*
X339886Y424658D01*
X340305Y424411D01*
X340324Y424392D01*
X340400Y424354D01*
X340515Y424258D01*
X340667Y424163D01*
X340838Y424011D01*
X341048Y423839D01*
X341295Y423630D01*
X341543Y423401D01*
X341809Y423135D01*
X342076Y422830D01*
X342342Y422507D01*
X342628Y422145D01*
X342895Y421764D01*
X343161Y421345D01*
X343409Y420907D01*
X343637Y420431D01*
X343656Y420393D01*
X343694Y420317D01*
X343751Y420165D01*
X343828Y419974D01*
X343904Y419727D01*
X344018Y419422D01*
X344113Y419079D01*
X344227Y418699D01*
X344342Y418261D01*
X344437Y417804D01*
X344551Y417309D01*
X344627Y416776D01*
X344703Y416204D01*
X344760Y415614D01*
X344799Y415005D01*
X344818Y414358D01*
Y412853D01*
Y412815D01*
Y412701D01*
Y412511D01*
X344799Y412263D01*
X344779Y411977D01*
X344760Y411616D01*
X344722Y411235D01*
X344665Y410797D01*
X344608Y410340D01*
X344532Y409845D01*
X344437Y409350D01*
X344323Y408836D01*
X344189Y408303D01*
X344018Y407789D01*
X343847Y407275D01*
X343637Y406779D01*
X343618Y406742D01*
X343580Y406665D01*
X343523Y406532D01*
X343428Y406361D01*
X343294Y406132D01*
X343161Y405885D01*
X342990Y405618D01*
X342780Y405313D01*
X342571Y405009D01*
X342323Y404666D01*
X342038Y404342D01*
X341752Y404019D01*
X341428Y403695D01*
X341086Y403390D01*
X340724Y403086D01*
X340324Y402819D01*
X340305Y402800D01*
X340229Y402762D01*
X340115Y402686D01*
X339943Y402610D01*
X339734Y402515D01*
X339486Y402400D01*
X339220Y402267D01*
X338896Y402153D01*
X338534Y402020D01*
X338154Y401886D01*
X337735Y401772D01*
X337297Y401677D01*
X336840Y401601D01*
X336345Y401524D01*
X335850Y401486D01*
X335317Y401467D01*
X335183D01*
X335050Y401486D01*
X334841D01*
X334593Y401506D01*
X334327Y401544D01*
X334003Y401582D01*
X333641Y401639D01*
X333279Y401715D01*
X332879Y401810D01*
X332461Y401905D01*
X332042Y402039D01*
X331604Y402210D01*
X331185Y402381D01*
X330766Y402591D01*
X330347Y402838D01*
X330328Y402857D01*
X330252Y402895D01*
X330138Y402991D01*
X329985Y403086D01*
X329814Y403238D01*
X329605Y403409D01*
X329376Y403600D01*
X329129Y403847D01*
X328862Y404095D01*
X328576Y404399D01*
X328310Y404723D01*
X328024Y405066D01*
X327758Y405447D01*
X327491Y405847D01*
X327225Y406285D01*
X326996Y406742D01*
X326977Y406779D01*
X326939Y406856D01*
X326882Y407008D01*
X326806Y407198D01*
X326711Y407427D01*
X326615Y407731D01*
X326501Y408055D01*
X326387Y408436D01*
X326273Y408855D01*
X326158Y409312D01*
X326063Y409788D01*
X325968Y410302D01*
X325892Y410854D01*
X325816Y411425D01*
X325778Y412035D01*
X325759Y412644D01*
Y414358D01*
Y414376D01*
Y414396D01*
Y414510D01*
Y414681D01*
X325778Y414929D01*
X325797Y415233D01*
X325816Y415576D01*
X325854Y415957D01*
X325911Y416395D01*
X325968Y416852D01*
X326044Y417328D01*
X326139Y417823D01*
X326254Y418337D01*
X326387Y418851D01*
X326558Y419365D01*
X326730Y419879D01*
X326939Y420374D01*
X326958Y420412D01*
X326996Y420488D01*
X327072Y420622D01*
X327168Y420812D01*
X327282Y421022D01*
X327434Y421288D01*
X327606Y421555D01*
X327815Y421859D01*
X328043Y422183D01*
X328291Y422507D01*
X328557Y422849D01*
X328862Y423173D01*
X329186Y423497D01*
X329548Y423820D01*
X329909Y424125D01*
X330309Y424392D01*
X330328Y424411D01*
X330404Y424449D01*
X330538Y424525D01*
X330690Y424620D01*
X330899Y424715D01*
X331147Y424829D01*
X331433Y424963D01*
X331737Y425096D01*
X332099Y425229D01*
X332480Y425363D01*
X332879Y425477D01*
X333317Y425572D01*
X333774Y425667D01*
X334269Y425743D01*
X334765Y425781D01*
X335279Y425801D01*
X335564D01*
X335755Y425781D01*
D02*
G37*
G36*
X325026Y368288D02*
X325235D01*
X325483Y368250D01*
X325749Y368231D01*
X326073Y368193D01*
X326396Y368136D01*
X326739Y368079D01*
X327463Y367908D01*
X327843Y367793D01*
X328224Y367679D01*
X328586Y367527D01*
X328948Y367355D01*
X328967Y367336D01*
X329024Y367317D01*
X329138Y367260D01*
X329272Y367184D01*
X329424Y367089D01*
X329614Y366974D01*
X329824Y366822D01*
X330033Y366670D01*
X330281Y366498D01*
X330528Y366308D01*
X331004Y365851D01*
X331499Y365337D01*
X331709Y365052D01*
X331918Y364747D01*
X331937Y364728D01*
X331956Y364671D01*
X332013Y364576D01*
X332089Y364461D01*
X332166Y364309D01*
X332242Y364119D01*
X332337Y363909D01*
X332451Y363681D01*
X332546Y363414D01*
X332642Y363128D01*
X332794Y362519D01*
X332927Y361853D01*
X332946Y361491D01*
X332965Y361129D01*
X329824D01*
Y361148D01*
Y361224D01*
Y361339D01*
X329805Y361491D01*
X329785Y361662D01*
X329748Y361872D01*
X329709Y362100D01*
X329652Y362367D01*
X329576Y362633D01*
X329481Y362900D01*
X329386Y363186D01*
X329252Y363471D01*
X329081Y363738D01*
X328910Y364023D01*
X328700Y364271D01*
X328453Y364518D01*
X328434Y364537D01*
X328396Y364576D01*
X328320Y364633D01*
X328205Y364709D01*
X328072Y364804D01*
X327901Y364918D01*
X327691Y365013D01*
X327463Y365147D01*
X327215Y365261D01*
X326929Y365356D01*
X326606Y365470D01*
X326263Y365566D01*
X325882Y365642D01*
X325483Y365699D01*
X325064Y365737D01*
X324607Y365756D01*
X324378D01*
X324226Y365737D01*
X324036Y365718D01*
X323807Y365699D01*
X323559Y365680D01*
X323293Y365623D01*
X322722Y365508D01*
X322112Y365318D01*
X321827Y365204D01*
X321541Y365071D01*
X321256Y364918D01*
X321008Y364728D01*
X320989Y364709D01*
X320951Y364690D01*
X320894Y364614D01*
X320799Y364537D01*
X320704Y364442D01*
X320608Y364309D01*
X320475Y364157D01*
X320361Y363985D01*
X320247Y363795D01*
X320132Y363585D01*
X320018Y363357D01*
X319923Y363090D01*
X319828Y362824D01*
X319771Y362538D01*
X319732Y362214D01*
X319713Y361891D01*
Y361872D01*
Y361834D01*
Y361758D01*
X319732Y361643D01*
X319752Y361529D01*
X319771Y361377D01*
X319866Y361034D01*
X320018Y360653D01*
X320113Y360444D01*
X320228Y360253D01*
X320361Y360044D01*
X320532Y359835D01*
X320723Y359625D01*
X320932Y359435D01*
X320951Y359416D01*
X320989Y359397D01*
X321065Y359339D01*
X321180Y359263D01*
X321313Y359187D01*
X321484Y359073D01*
X321674Y358959D01*
X321922Y358844D01*
X322189Y358692D01*
X322493Y358559D01*
X322836Y358406D01*
X323217Y358254D01*
X323636Y358083D01*
X324093Y357930D01*
X324588Y357759D01*
X325121Y357607D01*
X325159D01*
X325254Y357569D01*
X325406Y357531D01*
X325616Y357454D01*
X325863Y357378D01*
X326149Y357283D01*
X326453Y357188D01*
X326796Y357055D01*
X327158Y356921D01*
X327539Y356788D01*
X328320Y356484D01*
X329062Y356122D01*
X329405Y355950D01*
X329728Y355760D01*
X329748Y355741D01*
X329805Y355722D01*
X329881Y355665D01*
X329995Y355589D01*
X330147Y355493D01*
X330300Y355379D01*
X330661Y355094D01*
X331061Y354751D01*
X331480Y354370D01*
X331861Y353913D01*
X332051Y353685D01*
X332204Y353437D01*
X332223Y353418D01*
X332242Y353380D01*
X332280Y353304D01*
X332337Y353209D01*
X332394Y353075D01*
X332470Y352923D01*
X332546Y352752D01*
X332623Y352542D01*
X332699Y352333D01*
X332756Y352085D01*
X332889Y351552D01*
X332984Y350943D01*
X333022Y350638D01*
Y350295D01*
Y350257D01*
Y350162D01*
X333003Y350010D01*
X332984Y349819D01*
X332946Y349572D01*
X332908Y349286D01*
X332832Y348982D01*
X332737Y348639D01*
X332623Y348277D01*
X332470Y347916D01*
X332299Y347516D01*
X332070Y347135D01*
X331823Y346754D01*
X331518Y346392D01*
X331175Y346030D01*
X330776Y345688D01*
X330757Y345669D01*
X330680Y345612D01*
X330547Y345535D01*
X330376Y345421D01*
X330147Y345288D01*
X329862Y345155D01*
X329557Y344983D01*
X329176Y344831D01*
X328776Y344679D01*
X328320Y344526D01*
X327824Y344374D01*
X327291Y344241D01*
X326720Y344127D01*
X326111Y344050D01*
X325464Y343993D01*
X324778Y343974D01*
X324531D01*
X324359Y343993D01*
X324150Y344012D01*
X323883Y344031D01*
X323598Y344050D01*
X323293Y344088D01*
X322950Y344146D01*
X322588Y344203D01*
X321808Y344374D01*
X321408Y344469D01*
X321008Y344602D01*
X320608Y344736D01*
X320208Y344907D01*
X320189Y344926D01*
X320113Y344945D01*
X319999Y345002D01*
X319866Y345078D01*
X319675Y345174D01*
X319485Y345288D01*
X319256Y345421D01*
X319009Y345574D01*
X318495Y345935D01*
X317943Y346373D01*
X317429Y346887D01*
X317181Y347173D01*
X316953Y347459D01*
X316933Y347478D01*
X316896Y347535D01*
X316838Y347630D01*
X316781Y347744D01*
X316686Y347896D01*
X316591Y348087D01*
X316496Y348296D01*
X316381Y348544D01*
X316267Y348791D01*
X316172Y349077D01*
X316077Y349382D01*
X315982Y349705D01*
X315924Y350048D01*
X315867Y350410D01*
X315829Y350771D01*
X315810Y351152D01*
X318952D01*
Y351133D01*
Y351057D01*
X318971Y350943D01*
Y350791D01*
X319009Y350619D01*
X319028Y350410D01*
X319085Y350181D01*
X319142Y349915D01*
X319237Y349648D01*
X319333Y349382D01*
X319466Y349096D01*
X319618Y348810D01*
X319809Y348544D01*
X320018Y348258D01*
X320247Y348011D01*
X320532Y347763D01*
X320551Y347744D01*
X320608Y347706D01*
X320704Y347649D01*
X320818Y347573D01*
X320989Y347478D01*
X321180Y347363D01*
X321408Y347268D01*
X321656Y347154D01*
X321941Y347021D01*
X322265Y346925D01*
X322607Y346811D01*
X322988Y346716D01*
X323388Y346640D01*
X323826Y346583D01*
X324283Y346545D01*
X324778Y346526D01*
X325007D01*
X325178Y346545D01*
X325387Y346564D01*
X325616Y346583D01*
X325882Y346602D01*
X326168Y346659D01*
X326777Y346773D01*
X327406Y346944D01*
X327710Y347059D01*
X328015Y347192D01*
X328281Y347344D01*
X328548Y347516D01*
X328567Y347535D01*
X328605Y347554D01*
X328662Y347630D01*
X328757Y347706D01*
X328853Y347801D01*
X328967Y347935D01*
X329100Y348068D01*
X329214Y348239D01*
X329348Y348430D01*
X329462Y348620D01*
X329576Y348848D01*
X329671Y349096D01*
X329767Y349362D01*
X329824Y349648D01*
X329862Y349934D01*
X329881Y350257D01*
Y350276D01*
Y350334D01*
Y350429D01*
X329862Y350543D01*
X329843Y350695D01*
X329824Y350867D01*
X329728Y351248D01*
X329576Y351685D01*
X329481Y351914D01*
X329367Y352142D01*
X329233Y352352D01*
X329062Y352580D01*
X328872Y352771D01*
X328662Y352961D01*
X328643Y352980D01*
X328605Y352999D01*
X328529Y353056D01*
X328415Y353132D01*
X328281Y353209D01*
X328110Y353304D01*
X327901Y353418D01*
X327653Y353551D01*
X327367Y353685D01*
X327044Y353837D01*
X326682Y353989D01*
X326282Y354161D01*
X325825Y354332D01*
X325349Y354503D01*
X324797Y354675D01*
X324226Y354846D01*
X324207D01*
X324188Y354865D01*
X324131Y354884D01*
X324055Y354903D01*
X323845Y354960D01*
X323579Y355055D01*
X323236Y355170D01*
X322855Y355303D01*
X322436Y355455D01*
X321998Y355646D01*
X321522Y355836D01*
X321027Y356046D01*
X320075Y356541D01*
X319599Y356807D01*
X319161Y357074D01*
X318742Y357378D01*
X318381Y357683D01*
X318361Y357702D01*
X318304Y357759D01*
X318209Y357854D01*
X318095Y357988D01*
X317962Y358159D01*
X317809Y358349D01*
X317638Y358578D01*
X317467Y358844D01*
X317295Y359130D01*
X317124Y359435D01*
X316972Y359777D01*
X316838Y360158D01*
X316724Y360539D01*
X316629Y360958D01*
X316572Y361377D01*
X316553Y361834D01*
Y361872D01*
Y361967D01*
X316572Y362100D01*
X316591Y362310D01*
X316629Y362538D01*
X316667Y362824D01*
X316743Y363128D01*
X316838Y363471D01*
X316953Y363814D01*
X317105Y364195D01*
X317276Y364576D01*
X317486Y364975D01*
X317752Y365356D01*
X318038Y365737D01*
X318381Y366099D01*
X318780Y366460D01*
X318799Y366479D01*
X318876Y366537D01*
X319009Y366632D01*
X319180Y366746D01*
X319409Y366898D01*
X319675Y367051D01*
X319999Y367203D01*
X320361Y367393D01*
X320742Y367565D01*
X321199Y367717D01*
X321674Y367888D01*
X322189Y368022D01*
X322741Y368136D01*
X323331Y368231D01*
X323959Y368288D01*
X324607Y368307D01*
X324854D01*
X325026Y368288D01*
D02*
G37*
G36*
X373406Y362214D02*
X373616Y362195D01*
X373882Y362157D01*
X374206Y362100D01*
X374549Y362024D01*
X374910Y361929D01*
X375310Y361815D01*
X375710Y361643D01*
X376129Y361453D01*
X376548Y361224D01*
X376967Y360939D01*
X377366Y360634D01*
X377747Y360253D01*
X378109Y359835D01*
X378128Y359816D01*
X378185Y359720D01*
X378280Y359587D01*
X378395Y359397D01*
X378547Y359149D01*
X378699Y358844D01*
X378852Y358502D01*
X379042Y358102D01*
X379213Y357645D01*
X379366Y357150D01*
X379537Y356598D01*
X379670Y356008D01*
X379785Y355379D01*
X379880Y354675D01*
X379937Y353951D01*
X379956Y353170D01*
Y352904D01*
Y352885D01*
Y352866D01*
Y352809D01*
Y352733D01*
Y352637D01*
X379937Y352523D01*
Y352238D01*
X379899Y351895D01*
X379861Y351495D01*
X379804Y351057D01*
X379728Y350581D01*
X379632Y350086D01*
X379499Y349553D01*
X379366Y349020D01*
X379175Y348487D01*
X378966Y347935D01*
X378718Y347420D01*
X378433Y346906D01*
X378109Y346430D01*
X378090Y346411D01*
X378033Y346316D01*
X377919Y346202D01*
X377766Y346050D01*
X377595Y345859D01*
X377366Y345650D01*
X377100Y345440D01*
X376795Y345212D01*
X376472Y344983D01*
X376091Y344755D01*
X375691Y344545D01*
X375234Y344355D01*
X374758Y344203D01*
X374263Y344088D01*
X373711Y343993D01*
X373140Y343974D01*
X373006D01*
X372835Y343993D01*
X372606Y344012D01*
X372340Y344031D01*
X372035Y344088D01*
X371693Y344146D01*
X371312Y344222D01*
X370912Y344336D01*
X370512Y344469D01*
X370074Y344622D01*
X369655Y344831D01*
X369255Y345059D01*
X368837Y345326D01*
X368456Y345631D01*
X368094Y345992D01*
Y337539D01*
X365086D01*
Y361910D01*
X367846D01*
X367980Y359949D01*
X367999Y359968D01*
X368075Y360044D01*
X368170Y360158D01*
X368322Y360311D01*
X368513Y360482D01*
X368741Y360672D01*
X369008Y360882D01*
X369313Y361091D01*
X369655Y361301D01*
X370036Y361510D01*
X370455Y361700D01*
X370912Y361872D01*
X371407Y362024D01*
X371940Y362138D01*
X372511Y362214D01*
X373101Y362234D01*
X373235D01*
X373406Y362214D01*
D02*
G37*
G36*
X458972D02*
X459105D01*
X459258Y362195D01*
X459429Y362176D01*
X459638Y362138D01*
X460076Y362043D01*
X460571Y361910D01*
X461104Y361719D01*
X461637Y361472D01*
X461923Y361320D01*
X462190Y361148D01*
X462456Y360939D01*
X462723Y360729D01*
X462970Y360501D01*
X463218Y360234D01*
X463446Y359949D01*
X463656Y359644D01*
X463865Y359301D01*
X464056Y358940D01*
X464208Y358540D01*
X464341Y358121D01*
X464456Y357664D01*
X464551Y357169D01*
X464608Y356636D01*
X464627Y356084D01*
Y344298D01*
X461619D01*
Y355912D01*
Y355931D01*
Y355988D01*
Y356084D01*
X461599Y356217D01*
Y356369D01*
X461580Y356560D01*
X461542Y356750D01*
X461504Y356979D01*
X461409Y357435D01*
X461257Y357892D01*
X461028Y358349D01*
X460895Y358540D01*
X460743Y358730D01*
X460724Y358749D01*
X460705Y358768D01*
X460647Y358825D01*
X460571Y358882D01*
X460476Y358959D01*
X460362Y359035D01*
X460229Y359111D01*
X460057Y359206D01*
X459867Y359301D01*
X459657Y359378D01*
X459429Y359454D01*
X459162Y359530D01*
X458877Y359587D01*
X458553Y359644D01*
X458210Y359663D01*
X457849Y359682D01*
X457696D01*
X457563Y359663D01*
X457430Y359644D01*
X457258Y359625D01*
X457068Y359606D01*
X456878Y359549D01*
X456440Y359435D01*
X455964Y359263D01*
X455735Y359149D01*
X455507Y359016D01*
X455278Y358844D01*
X455069Y358673D01*
X455050Y358654D01*
X455031Y358635D01*
X454974Y358578D01*
X454897Y358483D01*
X454802Y358387D01*
X454707Y358273D01*
X454612Y358121D01*
X454497Y357950D01*
X454383Y357778D01*
X454269Y357569D01*
X454060Y357112D01*
X453888Y356579D01*
X453831Y356274D01*
X453793Y355969D01*
Y344298D01*
X450766D01*
Y355836D01*
Y355855D01*
Y355874D01*
Y355931D01*
Y356008D01*
X450747Y356198D01*
X450709Y356445D01*
X450652Y356731D01*
X450575Y357055D01*
X450442Y357397D01*
X450290Y357759D01*
X450099Y358121D01*
X449852Y358464D01*
X449547Y358787D01*
X449185Y359073D01*
X448747Y359320D01*
X448500Y359435D01*
X448233Y359511D01*
X447967Y359587D01*
X447662Y359644D01*
X447338Y359663D01*
X446996Y359682D01*
X446863D01*
X446710Y359663D01*
X446520Y359644D01*
X446272Y359606D01*
X446006Y359549D01*
X445701Y359473D01*
X445377Y359359D01*
X445054Y359225D01*
X444711Y359073D01*
X444368Y358863D01*
X444045Y358616D01*
X443721Y358330D01*
X443435Y357988D01*
X443169Y357588D01*
X442940Y357150D01*
Y344298D01*
X439932D01*
Y361910D01*
X442788D01*
X442864Y359949D01*
X442883Y359968D01*
X442959Y360044D01*
X443074Y360158D01*
X443226Y360311D01*
X443416Y360482D01*
X443645Y360672D01*
X443930Y360882D01*
X444254Y361091D01*
X444597Y361301D01*
X444997Y361510D01*
X445415Y361700D01*
X445892Y361872D01*
X446386Y362024D01*
X446920Y362138D01*
X447491Y362214D01*
X448081Y362234D01*
X448252D01*
X448424Y362214D01*
X448671Y362195D01*
X448976Y362138D01*
X449319Y362081D01*
X449699Y362005D01*
X450099Y361872D01*
X450518Y361738D01*
X450937Y361548D01*
X451356Y361320D01*
X451775Y361034D01*
X452156Y360710D01*
X452517Y360330D01*
X452841Y359892D01*
X453127Y359397D01*
X453146Y359416D01*
X453165Y359454D01*
X453222Y359511D01*
X453279Y359606D01*
X453374Y359720D01*
X453469Y359835D01*
X453736Y360120D01*
X454060Y360444D01*
X454459Y360787D01*
X454897Y361129D01*
X455392Y361434D01*
X455411Y361453D01*
X455449Y361472D01*
X455545Y361510D01*
X455640Y361567D01*
X455773Y361624D01*
X455945Y361681D01*
X456135Y361758D01*
X456344Y361834D01*
X456573Y361910D01*
X456820Y361986D01*
X457106Y362043D01*
X457392Y362100D01*
X458039Y362195D01*
X458724Y362234D01*
X458877D01*
X458972Y362214D01*
D02*
G37*
G36*
X429765D02*
X429898D01*
X430050Y362195D01*
X430222Y362176D01*
X430431Y362138D01*
X430869Y362043D01*
X431364Y361910D01*
X431897Y361719D01*
X432430Y361472D01*
X432716Y361320D01*
X432982Y361148D01*
X433249Y360939D01*
X433516Y360729D01*
X433763Y360501D01*
X434011Y360234D01*
X434239Y359949D01*
X434448Y359644D01*
X434658Y359301D01*
X434848Y358940D01*
X435001Y358540D01*
X435134Y358121D01*
X435248Y357664D01*
X435343Y357169D01*
X435400Y356636D01*
X435420Y356084D01*
Y344298D01*
X432411D01*
Y355912D01*
Y355931D01*
Y355988D01*
Y356084D01*
X432392Y356217D01*
Y356369D01*
X432373Y356560D01*
X432335Y356750D01*
X432297Y356979D01*
X432202Y357435D01*
X432049Y357892D01*
X431821Y358349D01*
X431688Y358540D01*
X431535Y358730D01*
X431516Y358749D01*
X431497Y358768D01*
X431440Y358825D01*
X431364Y358882D01*
X431269Y358959D01*
X431154Y359035D01*
X431021Y359111D01*
X430850Y359206D01*
X430659Y359301D01*
X430450Y359378D01*
X430222Y359454D01*
X429955Y359530D01*
X429669Y359587D01*
X429346Y359644D01*
X429003Y359663D01*
X428641Y359682D01*
X428489D01*
X428356Y359663D01*
X428222Y359644D01*
X428051Y359625D01*
X427861Y359606D01*
X427670Y359549D01*
X427232Y359435D01*
X426756Y359263D01*
X426528Y359149D01*
X426299Y359016D01*
X426071Y358844D01*
X425861Y358673D01*
X425842Y358654D01*
X425823Y358635D01*
X425766Y358578D01*
X425690Y358483D01*
X425595Y358387D01*
X425500Y358273D01*
X425404Y358121D01*
X425290Y357950D01*
X425176Y357778D01*
X425062Y357569D01*
X424852Y357112D01*
X424681Y356579D01*
X424624Y356274D01*
X424586Y355969D01*
Y344298D01*
X421558D01*
Y355836D01*
Y355855D01*
Y355874D01*
Y355931D01*
Y356008D01*
X421539Y356198D01*
X421501Y356445D01*
X421444Y356731D01*
X421368Y357055D01*
X421235Y357397D01*
X421082Y357759D01*
X420892Y358121D01*
X420644Y358464D01*
X420340Y358787D01*
X419978Y359073D01*
X419540Y359320D01*
X419293Y359435D01*
X419026Y359511D01*
X418759Y359587D01*
X418455Y359644D01*
X418131Y359663D01*
X417788Y359682D01*
X417655D01*
X417503Y359663D01*
X417312Y359644D01*
X417065Y359606D01*
X416798Y359549D01*
X416494Y359473D01*
X416170Y359359D01*
X415846Y359225D01*
X415504Y359073D01*
X415161Y358863D01*
X414837Y358616D01*
X414513Y358330D01*
X414228Y357988D01*
X413961Y357588D01*
X413733Y357150D01*
Y344298D01*
X410725D01*
Y361910D01*
X413581D01*
X413657Y359949D01*
X413676Y359968D01*
X413752Y360044D01*
X413866Y360158D01*
X414018Y360311D01*
X414209Y360482D01*
X414437Y360672D01*
X414723Y360882D01*
X415047Y361091D01*
X415389Y361301D01*
X415789Y361510D01*
X416208Y361700D01*
X416684Y361872D01*
X417179Y362024D01*
X417712Y362138D01*
X418284Y362214D01*
X418874Y362234D01*
X419045D01*
X419216Y362214D01*
X419464Y362195D01*
X419769Y362138D01*
X420111Y362081D01*
X420492Y362005D01*
X420892Y361872D01*
X421311Y361738D01*
X421730Y361548D01*
X422149Y361320D01*
X422568Y361034D01*
X422948Y360710D01*
X423310Y360330D01*
X423634Y359892D01*
X423919Y359397D01*
X423938Y359416D01*
X423957Y359454D01*
X424015Y359511D01*
X424072Y359606D01*
X424167Y359720D01*
X424262Y359835D01*
X424529Y360120D01*
X424852Y360444D01*
X425252Y360787D01*
X425690Y361129D01*
X426185Y361434D01*
X426204Y361453D01*
X426242Y361472D01*
X426337Y361510D01*
X426433Y361567D01*
X426566Y361624D01*
X426737Y361681D01*
X426928Y361758D01*
X427137Y361834D01*
X427365Y361910D01*
X427613Y361986D01*
X427899Y362043D01*
X428184Y362100D01*
X428832Y362195D01*
X429517Y362234D01*
X429669D01*
X429765Y362214D01*
D02*
G37*
G36*
X406441Y365204D02*
X396864D01*
X396140Y358749D01*
X396159Y358768D01*
X396216Y358787D01*
X396311Y358844D01*
X396445Y358902D01*
X396616Y358997D01*
X396806Y359073D01*
X397035Y359168D01*
X397301Y359263D01*
X397568Y359359D01*
X397873Y359454D01*
X398196Y359549D01*
X398558Y359625D01*
X399301Y359739D01*
X399700Y359758D01*
X400100Y359777D01*
X400253D01*
X400405Y359758D01*
X400633Y359739D01*
X400919Y359720D01*
X401224Y359663D01*
X401585Y359606D01*
X401966Y359511D01*
X402366Y359397D01*
X402785Y359244D01*
X403204Y359073D01*
X403642Y358863D01*
X404061Y358616D01*
X404480Y358330D01*
X404879Y358007D01*
X405241Y357626D01*
X405260Y357607D01*
X405317Y357531D01*
X405412Y357397D01*
X405546Y357245D01*
X405679Y357017D01*
X405850Y356750D01*
X406022Y356445D01*
X406193Y356103D01*
X406364Y355703D01*
X406536Y355284D01*
X406707Y354808D01*
X406840Y354294D01*
X406974Y353723D01*
X407069Y353132D01*
X407126Y352504D01*
X407145Y351838D01*
Y351819D01*
Y351800D01*
Y351743D01*
Y351685D01*
X407126Y351495D01*
X407107Y351228D01*
X407088Y350924D01*
X407050Y350562D01*
X406974Y350181D01*
X406897Y349743D01*
X406802Y349286D01*
X406669Y348829D01*
X406498Y348334D01*
X406307Y347858D01*
X406079Y347382D01*
X405812Y346925D01*
X405508Y346487D01*
X405165Y346069D01*
X405146Y346050D01*
X405070Y345973D01*
X404955Y345878D01*
X404803Y345745D01*
X404594Y345593D01*
X404346Y345402D01*
X404061Y345212D01*
X403737Y345021D01*
X403356Y344831D01*
X402956Y344641D01*
X402499Y344469D01*
X402004Y344298D01*
X401471Y344165D01*
X400900Y344069D01*
X400291Y343993D01*
X399643Y343974D01*
X399510D01*
X399339Y343993D01*
X399129D01*
X398863Y344031D01*
X398539Y344069D01*
X398196Y344127D01*
X397834Y344184D01*
X397435Y344279D01*
X397016Y344393D01*
X396597Y344545D01*
X396159Y344698D01*
X395721Y344907D01*
X395302Y345136D01*
X394902Y345402D01*
X394521Y345707D01*
X394502Y345726D01*
X394445Y345783D01*
X394331Y345878D01*
X394217Y346030D01*
X394045Y346202D01*
X393874Y346411D01*
X393684Y346678D01*
X393493Y346964D01*
X393303Y347287D01*
X393093Y347649D01*
X392903Y348049D01*
X392732Y348468D01*
X392580Y348944D01*
X392427Y349439D01*
X392332Y349953D01*
X392256Y350524D01*
X395112D01*
Y350505D01*
X395131Y350429D01*
X395150Y350334D01*
X395169Y350181D01*
X395207Y350029D01*
X395264Y349819D01*
X395321Y349610D01*
X395397Y349382D01*
X395569Y348886D01*
X395835Y348372D01*
X395969Y348125D01*
X396140Y347877D01*
X396330Y347668D01*
X396540Y347459D01*
X396559Y347440D01*
X396597Y347420D01*
X396654Y347363D01*
X396749Y347306D01*
X396864Y347230D01*
X397016Y347135D01*
X397187Y347040D01*
X397377Y346944D01*
X397587Y346849D01*
X397815Y346754D01*
X398063Y346678D01*
X398349Y346583D01*
X398634Y346526D01*
X398958Y346468D01*
X399301Y346449D01*
X399643Y346430D01*
X399739D01*
X399853Y346449D01*
X399986D01*
X400157Y346468D01*
X400367Y346507D01*
X400595Y346545D01*
X400843Y346602D01*
X401109Y346678D01*
X401376Y346773D01*
X401643Y346887D01*
X401909Y347040D01*
X402195Y347192D01*
X402461Y347382D01*
X402709Y347611D01*
X402937Y347858D01*
X402956Y347877D01*
X402994Y347935D01*
X403052Y348011D01*
X403128Y348125D01*
X403223Y348258D01*
X403318Y348449D01*
X403432Y348658D01*
X403546Y348886D01*
X403642Y349153D01*
X403756Y349458D01*
X403851Y349781D01*
X403946Y350124D01*
X404023Y350505D01*
X404080Y350905D01*
X404118Y351343D01*
X404137Y351800D01*
Y351819D01*
Y351914D01*
Y352028D01*
X404118Y352200D01*
X404099Y352390D01*
X404061Y352637D01*
X404023Y352885D01*
X403984Y353170D01*
X403813Y353780D01*
X403718Y354103D01*
X403585Y354427D01*
X403451Y354732D01*
X403261Y355055D01*
X403070Y355341D01*
X402842Y355627D01*
X402823Y355646D01*
X402785Y355684D01*
X402709Y355760D01*
X402613Y355855D01*
X402480Y355969D01*
X402328Y356084D01*
X402138Y356217D01*
X401928Y356350D01*
X401700Y356484D01*
X401433Y356617D01*
X401148Y356731D01*
X400843Y356845D01*
X400519Y356940D01*
X400157Y357017D01*
X399796Y357055D01*
X399396Y357074D01*
X399205D01*
X399072Y357055D01*
X398901D01*
X398710Y357036D01*
X398501Y356998D01*
X398272Y356960D01*
X397777Y356864D01*
X397263Y356712D01*
X396768Y356484D01*
X396540Y356350D01*
X396311Y356198D01*
X395512Y355551D01*
X393113Y356179D01*
X394312Y367984D01*
X406441D01*
Y365204D01*
D02*
G37*
G36*
X354690Y362214D02*
X354937Y362195D01*
X355223Y362157D01*
X355547Y362119D01*
X355927Y362043D01*
X356327Y361948D01*
X356746Y361834D01*
X357165Y361681D01*
X357622Y361491D01*
X358060Y361282D01*
X358498Y361015D01*
X358917Y360710D01*
X359317Y360368D01*
X359697Y359968D01*
X359716Y359949D01*
X359773Y359854D01*
X359869Y359739D01*
X360002Y359549D01*
X360135Y359320D01*
X360307Y359035D01*
X360478Y358692D01*
X360649Y358311D01*
X360821Y357873D01*
X360992Y357378D01*
X361163Y356845D01*
X361297Y356274D01*
X361430Y355646D01*
X361525Y354960D01*
X361582Y354237D01*
X361601Y353475D01*
Y352238D01*
X349682D01*
Y352200D01*
Y352123D01*
X349701Y351990D01*
X349720Y351800D01*
X349740Y351590D01*
X349778Y351324D01*
X349835Y351038D01*
X349892Y350733D01*
X349968Y350410D01*
X350082Y350067D01*
X350196Y349724D01*
X350349Y349362D01*
X350520Y349020D01*
X350711Y348677D01*
X350939Y348334D01*
X351186Y348030D01*
X351205Y348011D01*
X351263Y347954D01*
X351339Y347877D01*
X351453Y347782D01*
X351586Y347668D01*
X351777Y347516D01*
X351967Y347382D01*
X352196Y347230D01*
X352462Y347078D01*
X352729Y346944D01*
X353052Y346811D01*
X353376Y346678D01*
X353719Y346583D01*
X354100Y346507D01*
X354480Y346449D01*
X354899Y346430D01*
X355052D01*
X355166Y346449D01*
X355299D01*
X355470Y346468D01*
X355642Y346487D01*
X355832Y346507D01*
X356270Y346583D01*
X356708Y346697D01*
X357165Y346868D01*
X357603Y347078D01*
X357622D01*
X357660Y347116D01*
X357717Y347154D01*
X357793Y347192D01*
X358003Y347344D01*
X358269Y347535D01*
X358555Y347782D01*
X358898Y348068D01*
X359221Y348411D01*
X359545Y348791D01*
X361373Y347363D01*
X361354Y347325D01*
X361278Y347211D01*
X361144Y347059D01*
X360954Y346830D01*
X360725Y346583D01*
X360440Y346297D01*
X360097Y345992D01*
X359716Y345669D01*
X359278Y345345D01*
X358784Y345040D01*
X358250Y344755D01*
X357641Y344507D01*
X356994Y344279D01*
X356308Y344127D01*
X355547Y344012D01*
X355147Y343993D01*
X354747Y343974D01*
X354595D01*
X354404Y343993D01*
X354157Y344012D01*
X353852Y344050D01*
X353490Y344108D01*
X353110Y344165D01*
X352672Y344260D01*
X352215Y344393D01*
X351758Y344545D01*
X351263Y344736D01*
X350787Y344964D01*
X350292Y345231D01*
X349816Y345535D01*
X349359Y345897D01*
X348921Y346316D01*
X348902Y346335D01*
X348826Y346430D01*
X348711Y346564D01*
X348578Y346754D01*
X348407Y346983D01*
X348216Y347268D01*
X348007Y347611D01*
X347797Y347992D01*
X347588Y348411D01*
X347378Y348886D01*
X347188Y349401D01*
X347017Y349972D01*
X346884Y350562D01*
X346769Y351209D01*
X346693Y351876D01*
X346674Y352599D01*
Y353151D01*
Y353190D01*
Y353266D01*
Y353399D01*
X346693Y353589D01*
X346712Y353818D01*
X346731Y354084D01*
X346750Y354389D01*
X346807Y354732D01*
X346845Y355075D01*
X346921Y355455D01*
X347093Y356236D01*
X347207Y356636D01*
X347340Y357036D01*
X347493Y357435D01*
X347664Y357835D01*
X347683Y357854D01*
X347702Y357930D01*
X347778Y358026D01*
X347854Y358178D01*
X347950Y358349D01*
X348083Y358540D01*
X348216Y358768D01*
X348388Y359016D01*
X348578Y359263D01*
X348787Y359530D01*
X349016Y359796D01*
X349264Y360063D01*
X349549Y360330D01*
X349835Y360577D01*
X350139Y360825D01*
X350463Y361053D01*
X350482Y361072D01*
X350539Y361110D01*
X350653Y361167D01*
X350787Y361244D01*
X350939Y361320D01*
X351148Y361434D01*
X351377Y361529D01*
X351624Y361643D01*
X351910Y361758D01*
X352215Y361853D01*
X352538Y361967D01*
X352881Y362043D01*
X353224Y362119D01*
X353605Y362176D01*
X353985Y362214D01*
X354366Y362234D01*
X354519D01*
X354690Y362214D01*
D02*
G37*
G36*
X340638Y361910D02*
X343913D01*
Y359587D01*
X340638D01*
Y348639D01*
Y348620D01*
Y348601D01*
Y348544D01*
Y348468D01*
X340657Y348277D01*
X340696Y348049D01*
X340753Y347782D01*
X340829Y347516D01*
X340924Y347268D01*
X341076Y347040D01*
X341095Y347021D01*
X341152Y346964D01*
X341267Y346868D01*
X341419Y346792D01*
X341628Y346697D01*
X341895Y346602D01*
X342200Y346545D01*
X342561Y346526D01*
X342657D01*
X342771Y346545D01*
X342942D01*
X343152Y346564D01*
X343399Y346602D01*
X343685Y346659D01*
X344008Y346716D01*
Y344298D01*
X343989D01*
X343951Y344279D01*
X343894Y344260D01*
X343799Y344241D01*
X343704Y344222D01*
X343570Y344203D01*
X343266Y344146D01*
X342923Y344069D01*
X342523Y344031D01*
X342104Y343993D01*
X341686Y343974D01*
X341495D01*
X341362Y343993D01*
X341191Y344012D01*
X341000Y344031D01*
X340772Y344069D01*
X340543Y344127D01*
X340048Y344279D01*
X339801Y344374D01*
X339553Y344488D01*
X339305Y344622D01*
X339058Y344793D01*
X338849Y344983D01*
X338639Y345193D01*
X338620Y345212D01*
X338601Y345250D01*
X338544Y345326D01*
X338487Y345421D01*
X338411Y345535D01*
X338316Y345707D01*
X338220Y345878D01*
X338144Y346088D01*
X338049Y346316D01*
X337954Y346583D01*
X337859Y346868D01*
X337782Y347173D01*
X337725Y347497D01*
X337668Y347858D01*
X337649Y348258D01*
X337630Y348658D01*
Y359587D01*
X334412D01*
Y361910D01*
X337630D01*
Y366175D01*
X340638D01*
Y361910D01*
D02*
G37*
%LPC*%
G36*
X465569Y422926D02*
X460790D01*
Y413919D01*
X465817D01*
X465969Y413939D01*
X466179Y413958D01*
X466388Y413977D01*
X466655Y414015D01*
X466921Y414072D01*
X467511Y414205D01*
X467816Y414319D01*
X468121Y414434D01*
X468425Y414567D01*
X468730Y414719D01*
X469016Y414910D01*
X469282Y415119D01*
X469301Y415138D01*
X469339Y415176D01*
X469415Y415252D01*
X469491Y415347D01*
X469606Y415462D01*
X469720Y415614D01*
X469853Y415786D01*
X469987Y415976D01*
X470101Y416185D01*
X470234Y416433D01*
X470348Y416699D01*
X470463Y416985D01*
X470539Y417309D01*
X470615Y417632D01*
X470653Y417975D01*
X470672Y418356D01*
Y418375D01*
Y418451D01*
Y418565D01*
X470653Y418718D01*
X470634Y418908D01*
X470596Y419117D01*
X470558Y419346D01*
X470501Y419593D01*
X470443Y419860D01*
X470348Y420146D01*
X470253Y420431D01*
X470120Y420698D01*
X469968Y420983D01*
X469796Y421250D01*
X469587Y421497D01*
X469358Y421726D01*
X469339Y421745D01*
X469301Y421783D01*
X469225Y421840D01*
X469111Y421916D01*
X468977Y421992D01*
X468806Y422107D01*
X468616Y422202D01*
X468387Y422316D01*
X468140Y422430D01*
X467854Y422545D01*
X467550Y422640D01*
X467207Y422735D01*
X466845Y422811D01*
X466445Y422868D01*
X466026Y422906D01*
X465569Y422926D01*
D02*
G37*
G36*
X397082D02*
X392303D01*
Y413919D01*
X397330D01*
X397482Y413939D01*
X397692Y413958D01*
X397901Y413977D01*
X398168Y414015D01*
X398434Y414072D01*
X399025Y414205D01*
X399329Y414319D01*
X399634Y414434D01*
X399938Y414567D01*
X400243Y414719D01*
X400529Y414910D01*
X400795Y415119D01*
X400814Y415138D01*
X400852Y415176D01*
X400928Y415252D01*
X401005Y415347D01*
X401119Y415462D01*
X401233Y415614D01*
X401366Y415786D01*
X401500Y415976D01*
X401614Y416185D01*
X401747Y416433D01*
X401861Y416699D01*
X401976Y416985D01*
X402052Y417309D01*
X402128Y417632D01*
X402166Y417975D01*
X402185Y418356D01*
Y418375D01*
Y418451D01*
Y418565D01*
X402166Y418718D01*
X402147Y418908D01*
X402109Y419117D01*
X402071Y419346D01*
X402014Y419593D01*
X401957Y419860D01*
X401861Y420146D01*
X401766Y420431D01*
X401633Y420698D01*
X401481Y420983D01*
X401309Y421250D01*
X401100Y421497D01*
X400871Y421726D01*
X400852Y421745D01*
X400814Y421783D01*
X400738Y421840D01*
X400624Y421916D01*
X400491Y421992D01*
X400319Y422107D01*
X400129Y422202D01*
X399900Y422316D01*
X399653Y422430D01*
X399367Y422545D01*
X399063Y422640D01*
X398720Y422735D01*
X398358Y422811D01*
X397958Y422868D01*
X397539Y422906D01*
X397082Y422926D01*
D02*
G37*
G36*
X375567Y421612D02*
X371531Y410549D01*
X379585D01*
X375567Y421612D01*
D02*
G37*
G36*
X314487Y422926D02*
X308699D01*
Y413615D01*
X314563D01*
X314734Y413634D01*
X314944Y413653D01*
X315172Y413672D01*
X315439Y413710D01*
X315724Y413767D01*
X316353Y413901D01*
X316657Y413996D01*
X316981Y414110D01*
X317286Y414243D01*
X317590Y414415D01*
X317876Y414586D01*
X318143Y414795D01*
X318162Y414814D01*
X318200Y414853D01*
X318276Y414929D01*
X318352Y415024D01*
X318447Y415138D01*
X318562Y415290D01*
X318695Y415462D01*
X318828Y415671D01*
X318942Y415900D01*
X319075Y416147D01*
X319190Y416433D01*
X319285Y416738D01*
X319361Y417061D01*
X319437Y417423D01*
X319475Y417804D01*
X319494Y418203D01*
Y418223D01*
Y418299D01*
Y418413D01*
X319475Y418546D01*
X319456Y418737D01*
X319418Y418946D01*
X319380Y419175D01*
X319323Y419422D01*
X319247Y419689D01*
X319171Y419955D01*
X319057Y420241D01*
X318923Y420526D01*
X318771Y420812D01*
X318581Y421079D01*
X318390Y421345D01*
X318143Y421593D01*
X318124Y421612D01*
X318086Y421650D01*
X318009Y421707D01*
X317895Y421802D01*
X317762Y421897D01*
X317590Y421992D01*
X317400Y422126D01*
X317191Y422240D01*
X316943Y422354D01*
X316657Y422487D01*
X316372Y422583D01*
X316048Y422697D01*
X315686Y422773D01*
X315306Y422849D01*
X314906Y422906D01*
X314487Y422926D01*
D02*
G37*
G36*
X335279Y423116D02*
X335145D01*
X334993Y423097D01*
X334784Y423078D01*
X334536Y423040D01*
X334250Y423002D01*
X333927Y422926D01*
X333584Y422830D01*
X333222Y422716D01*
X332841Y422564D01*
X332461Y422373D01*
X332061Y422164D01*
X331680Y421897D01*
X331299Y421593D01*
X330957Y421250D01*
X330614Y420850D01*
X330595Y420831D01*
X330538Y420755D01*
X330462Y420622D01*
X330347Y420431D01*
X330214Y420203D01*
X330081Y419936D01*
X329928Y419593D01*
X329757Y419232D01*
X329605Y418813D01*
X329452Y418337D01*
X329300Y417823D01*
X329167Y417271D01*
X329052Y416661D01*
X328976Y416014D01*
X328900Y415329D01*
X328881Y414605D01*
Y412853D01*
Y412834D01*
Y412815D01*
Y412758D01*
Y412682D01*
Y412587D01*
X328900Y412454D01*
Y412187D01*
X328938Y411844D01*
X328976Y411444D01*
X329033Y411006D01*
X329091Y410530D01*
X329186Y410016D01*
X329300Y409502D01*
X329433Y408969D01*
X329605Y408436D01*
X329795Y407903D01*
X330024Y407389D01*
X330290Y406894D01*
X330595Y406437D01*
X330614Y406418D01*
X330671Y406342D01*
X330766Y406227D01*
X330918Y406075D01*
X331090Y405904D01*
X331299Y405694D01*
X331547Y405485D01*
X331832Y405275D01*
X332156Y405066D01*
X332499Y404856D01*
X332879Y404647D01*
X333317Y404476D01*
X333755Y404323D01*
X334250Y404209D01*
X334765Y404133D01*
X335317Y404114D01*
X335450D01*
X335602Y404133D01*
X335812Y404152D01*
X336078Y404190D01*
X336364Y404228D01*
X336687Y404304D01*
X337030Y404381D01*
X337411Y404495D01*
X337792Y404647D01*
X338173Y404818D01*
X338573Y405047D01*
X338953Y405294D01*
X339315Y405580D01*
X339677Y405923D01*
X340001Y406304D01*
X340019Y406323D01*
X340077Y406399D01*
X340153Y406532D01*
X340267Y406722D01*
X340381Y406951D01*
X340534Y407218D01*
X340686Y407541D01*
X340838Y407922D01*
X340991Y408341D01*
X341143Y408817D01*
X341295Y409331D01*
X341428Y409902D01*
X341543Y410511D01*
X341619Y411178D01*
X341695Y411882D01*
X341714Y412625D01*
Y414396D01*
Y414415D01*
Y414453D01*
Y414510D01*
Y414586D01*
Y414681D01*
X341695Y414795D01*
Y415081D01*
X341657Y415443D01*
X341619Y415843D01*
X341581Y416299D01*
X341505Y416776D01*
X341409Y417290D01*
X341295Y417823D01*
X341162Y418356D01*
X340991Y418889D01*
X340800Y419422D01*
X340572Y419936D01*
X340324Y420412D01*
X340019Y420850D01*
X340001Y420869D01*
X339943Y420945D01*
X339848Y421060D01*
X339715Y421212D01*
X339544Y421383D01*
X339315Y421574D01*
X339068Y421764D01*
X338801Y421992D01*
X338477Y422202D01*
X338116Y422392D01*
X337735Y422583D01*
X337297Y422754D01*
X336840Y422906D01*
X336364Y423021D01*
X335831Y423097D01*
X335279Y423116D01*
D02*
G37*
G36*
X372207Y359682D02*
X372092D01*
X371940Y359663D01*
X371750Y359644D01*
X371521Y359606D01*
X371274Y359549D01*
X370969Y359473D01*
X370664Y359378D01*
X370341Y359244D01*
X369998Y359092D01*
X369655Y358882D01*
X369313Y358654D01*
X368989Y358368D01*
X368665Y358045D01*
X368361Y357683D01*
X368094Y357245D01*
Y348829D01*
X368113Y348810D01*
X368151Y348734D01*
X368246Y348601D01*
X368341Y348449D01*
X368494Y348277D01*
X368665Y348068D01*
X368875Y347858D01*
X369122Y347630D01*
X369389Y347401D01*
X369693Y347192D01*
X370036Y346983D01*
X370417Y346811D01*
X370817Y346659D01*
X371255Y346526D01*
X371731Y346449D01*
X372226Y346430D01*
X372321D01*
X372435Y346449D01*
X372587D01*
X372778Y346487D01*
X372987Y346526D01*
X373216Y346583D01*
X373463Y346640D01*
X373749Y346735D01*
X374015Y346849D01*
X374301Y346983D01*
X374587Y347154D01*
X374872Y347344D01*
X375158Y347573D01*
X375424Y347839D01*
X375672Y348144D01*
X375691Y348163D01*
X375729Y348220D01*
X375786Y348334D01*
X375881Y348468D01*
X375977Y348639D01*
X376072Y348868D01*
X376186Y349134D01*
X376319Y349420D01*
X376433Y349762D01*
X376548Y350143D01*
X376643Y350562D01*
X376757Y351019D01*
X376833Y351514D01*
X376890Y352047D01*
X376929Y352637D01*
X376948Y353247D01*
Y353285D01*
Y353380D01*
Y353532D01*
X376929Y353742D01*
X376909Y353989D01*
X376871Y354275D01*
X376833Y354598D01*
X376795Y354941D01*
X376719Y355322D01*
X376643Y355703D01*
X376529Y356084D01*
X376414Y356484D01*
X376262Y356864D01*
X376091Y357245D01*
X375900Y357607D01*
X375672Y357950D01*
X375653Y357969D01*
X375615Y358026D01*
X375539Y358102D01*
X375444Y358216D01*
X375310Y358349D01*
X375158Y358502D01*
X374968Y358654D01*
X374777Y358825D01*
X374530Y358978D01*
X374282Y359130D01*
X373996Y359282D01*
X373673Y359416D01*
X373349Y359530D01*
X372987Y359606D01*
X372606Y359663D01*
X372207Y359682D01*
D02*
G37*
G36*
X354366Y359758D02*
X354195D01*
X354062Y359739D01*
X353909Y359720D01*
X353719Y359682D01*
X353528Y359644D01*
X353300Y359587D01*
X353071Y359530D01*
X352824Y359435D01*
X352557Y359320D01*
X352310Y359206D01*
X352043Y359035D01*
X351796Y358863D01*
X351548Y358654D01*
X351301Y358426D01*
X351282Y358406D01*
X351244Y358368D01*
X351186Y358292D01*
X351110Y358178D01*
X351015Y358045D01*
X350901Y357873D01*
X350787Y357683D01*
X350653Y357454D01*
X350520Y357207D01*
X350387Y356940D01*
X350273Y356636D01*
X350139Y356293D01*
X350025Y355931D01*
X349930Y355551D01*
X349854Y355151D01*
X349778Y354713D01*
X358593D01*
Y354922D01*
Y354941D01*
Y355017D01*
X358574Y355151D01*
X358555Y355303D01*
X358536Y355493D01*
X358498Y355722D01*
X358441Y355969D01*
X358384Y356236D01*
X358231Y356807D01*
X358022Y357397D01*
X357889Y357683D01*
X357717Y357969D01*
X357546Y358235D01*
X357355Y358483D01*
X357336Y358502D01*
X357298Y358540D01*
X357241Y358597D01*
X357146Y358692D01*
X357051Y358787D01*
X356898Y358882D01*
X356746Y358997D01*
X356575Y359130D01*
X356365Y359244D01*
X356137Y359359D01*
X355889Y359454D01*
X355623Y359568D01*
X355337Y359644D01*
X355033Y359701D01*
X354709Y359739D01*
X354366Y359758D01*
D02*
G37*
%LPD*%
M02*
