G04*
G04 #@! TF.GenerationSoftware,Altium Limited,Altium Designer,18.0.9 (584)*
G04*
G04 Layer_Physical_Order=1*
G04 Layer_Color=255*
%FSLAX25Y25*%
%MOIN*%
G70*
G01*
G75*
%ADD10C,0.19685*%
D10*
X477238Y115D02*
G03*
X787427Y384856I-83512J384741D01*
G01*
X472466Y3962D02*
G03*
X477238Y115I3937J0D01*
G01*
X787427Y384856D02*
G03*
X310213Y115I-393701J0D01*
G01*
X310213Y115D02*
G03*
X314985Y3962I835J3847D01*
G01*
X708662Y148603D02*
Y621109D01*
X669292Y103673D02*
Y666039D01*
X787402Y380460D02*
Y389252D01*
X748032Y213195D02*
Y556517D01*
X590552Y43887D02*
Y725825D01*
X551181Y24013D02*
Y745700D01*
X629922Y69877D02*
Y699835D01*
X511811Y9282D02*
Y760430D01*
X472466Y3962D02*
Y20683D01*
X433071D02*
Y776586D01*
X393701Y20683D02*
Y778557D01*
X472441Y20683D02*
Y770608D01*
X236221Y24034D02*
Y745678D01*
X196851Y43916D02*
Y725797D01*
X314985Y20683D02*
X472466D01*
X157480Y69914D02*
Y699798D01*
X118110Y103722D02*
Y665990D01*
X78740Y148669D02*
Y621043D01*
X39370Y213298D02*
Y556415D01*
X354331Y20683D02*
Y776581D01*
X314985Y3962D02*
Y20683D01*
X314961Y3523D02*
Y770598D01*
X275591Y9297D02*
Y760415D01*
M02*
