G04*
G04 #@! TF.GenerationSoftware,Altium Limited,Altium Designer,19.0.15 (446)*
G04*
G04 Layer_Color=65535*
%FSLAX25Y25*%
%MOIN*%
G70*
G01*
G75*
G36*
X533613Y566599D02*
X533946Y566571D01*
X534307Y566515D01*
X534724Y566460D01*
X535168Y566349D01*
X535612Y566237D01*
X536112Y566099D01*
X536612Y565932D01*
X537112Y565738D01*
X537584Y565488D01*
X538084Y565182D01*
X538528Y564877D01*
X538973Y564488D01*
X539000Y564460D01*
X539056Y564405D01*
X539167Y564266D01*
X539334Y564127D01*
X539500Y563905D01*
X539667Y563683D01*
X539861Y563405D01*
X540083Y563072D01*
X540278Y562738D01*
X540472Y562350D01*
X540667Y561961D01*
X540833Y561517D01*
X540972Y561045D01*
X541055Y560572D01*
X541111Y560073D01*
X541139Y559545D01*
X541083Y559462D01*
X538028D01*
Y559489D01*
Y559545D01*
Y559656D01*
X538001Y559795D01*
X537973Y559961D01*
X537945Y560156D01*
X537862Y560628D01*
X537695Y561156D01*
X537445Y561711D01*
X537279Y561989D01*
X537084Y562239D01*
X536862Y562516D01*
X536612Y562766D01*
X536584Y562794D01*
X536557Y562822D01*
X536473Y562877D01*
X536362Y562988D01*
X536223Y563072D01*
X536057Y563183D01*
X535640Y563433D01*
X535113Y563683D01*
X534502Y563905D01*
X533780Y564044D01*
X533419Y564071D01*
X533002Y564099D01*
X532780D01*
X532641Y564071D01*
X532447D01*
X532225Y564044D01*
X531725Y563960D01*
X531169Y563849D01*
X530614Y563655D01*
X530058Y563377D01*
X529559Y563016D01*
X529503Y562961D01*
X529364Y562822D01*
X529170Y562572D01*
X528975Y562266D01*
X528753Y561850D01*
X528559Y561378D01*
X528420Y560822D01*
X528392Y560517D01*
X528365Y560184D01*
Y560156D01*
Y560128D01*
Y560045D01*
X528392Y559934D01*
X528448Y559628D01*
X528531Y559267D01*
X528698Y558878D01*
X528920Y558434D01*
X529253Y558017D01*
X529448Y557795D01*
X529670Y557601D01*
X529697D01*
X529725Y557545D01*
X529809Y557490D01*
X529920Y557434D01*
X530058Y557351D01*
X530253Y557240D01*
X530447Y557129D01*
X530697Y556990D01*
X530975Y556851D01*
X531308Y556712D01*
X531641Y556573D01*
X532030Y556407D01*
X532447Y556240D01*
X532919Y556101D01*
X533419Y555935D01*
X533946Y555796D01*
X533974D01*
X534113Y555740D01*
X534279Y555685D01*
X534529Y555629D01*
X534835Y555518D01*
X535168Y555407D01*
X535557Y555268D01*
X535946Y555102D01*
X536834Y554713D01*
X537723Y554241D01*
X538584Y553685D01*
X539000Y553380D01*
X539361Y553047D01*
X539389Y553019D01*
X539445Y552963D01*
X539528Y552852D01*
X539667Y552713D01*
X539806Y552547D01*
X539972Y552325D01*
X540139Y552103D01*
X540306Y551825D01*
X540472Y551519D01*
X540667Y551158D01*
X540805Y550797D01*
X540944Y550409D01*
X541083Y549992D01*
X541166Y549548D01*
X541222Y549076D01*
X541250Y548603D01*
Y548576D01*
Y548465D01*
X541222Y548326D01*
Y548131D01*
X541194Y547882D01*
X541139Y547604D01*
X541055Y547298D01*
X540972Y546965D01*
X540861Y546604D01*
X540694Y546215D01*
X540528Y545826D01*
X540306Y545466D01*
X540056Y545077D01*
X539750Y544688D01*
X539389Y544327D01*
X539000Y543994D01*
X538973Y543966D01*
X538889Y543910D01*
X538778Y543827D01*
X538584Y543716D01*
X538362Y543605D01*
X538084Y543438D01*
X537779Y543299D01*
X537418Y543133D01*
X537029Y542966D01*
X536584Y542827D01*
X536085Y542661D01*
X535557Y542550D01*
X535002Y542439D01*
X534418Y542355D01*
X533780Y542300D01*
X533113Y542272D01*
X532780D01*
X532530Y542300D01*
X532252Y542327D01*
X531891Y542383D01*
X531502Y542439D01*
X531086Y542522D01*
X530614Y542605D01*
X530142Y542744D01*
X529642Y542883D01*
X529114Y543077D01*
X528587Y543299D01*
X528087Y543549D01*
X527559Y543827D01*
X527059Y544160D01*
X527032Y544188D01*
X526948Y544244D01*
X526809Y544355D01*
X526643Y544521D01*
X526448Y544716D01*
X526226Y544938D01*
X526004Y545216D01*
X525754Y545521D01*
X525504Y545882D01*
X525282Y546271D01*
X525060Y546687D01*
X524865Y547159D01*
X524699Y547632D01*
X524588Y548159D01*
X524532Y548742D01*
X524504Y549326D01*
X524532Y549409D01*
X527615D01*
Y549381D01*
Y549326D01*
Y549187D01*
X527642Y549048D01*
X527670Y548853D01*
X527698Y548631D01*
X527837Y548159D01*
X528031Y547604D01*
X528170Y547298D01*
X528337Y547021D01*
X528531Y546743D01*
X528753Y546465D01*
X529003Y546215D01*
X529309Y545965D01*
X529336D01*
X529392Y545910D01*
X529475Y545854D01*
X529614Y545771D01*
X529753Y545688D01*
X529947Y545577D01*
X530169Y545466D01*
X530419Y545354D01*
X530975Y545132D01*
X531641Y544938D01*
X532336Y544799D01*
X532724Y544771D01*
X533113Y544743D01*
X533335D01*
X533502Y544771D01*
X533696D01*
X533919Y544799D01*
X534418Y544882D01*
X535002Y544993D01*
X535585Y545188D01*
X536196Y545438D01*
X536723Y545771D01*
X536751D01*
X536779Y545826D01*
X536945Y545965D01*
X537140Y546187D01*
X537390Y546521D01*
X537640Y546910D01*
X537862Y547382D01*
X538001Y547937D01*
X538028Y548243D01*
X538056Y548576D01*
Y548603D01*
Y548659D01*
Y548742D01*
X538028Y548853D01*
X538001Y549131D01*
X537917Y549520D01*
X537779Y549936D01*
X537556Y550381D01*
X537279Y550853D01*
X536890Y551269D01*
X536834Y551325D01*
X536779Y551380D01*
X536668Y551464D01*
X536529Y551547D01*
X536390Y551658D01*
X536196Y551769D01*
X535946Y551908D01*
X535696Y552047D01*
X535390Y552214D01*
X535057Y552353D01*
X534696Y552519D01*
X534279Y552658D01*
X533835Y552824D01*
X533363Y552991D01*
X532835Y553130D01*
X532808D01*
X532669Y553186D01*
X532502Y553213D01*
X532252Y553297D01*
X531947Y553380D01*
X531586Y553491D01*
X531197Y553630D01*
X530781Y553796D01*
X529864Y554157D01*
X528948Y554602D01*
X528031Y555129D01*
X527587Y555435D01*
X527198Y555740D01*
X527170Y555768D01*
X527115Y555824D01*
X527004Y555907D01*
X526893Y556046D01*
X526726Y556240D01*
X526559Y556435D01*
X526365Y556685D01*
X526198Y556934D01*
X526004Y557240D01*
X525810Y557573D01*
X525643Y557934D01*
X525476Y558323D01*
X525365Y558740D01*
X525254Y559184D01*
X525199Y559656D01*
X525171Y560128D01*
Y560156D01*
Y560239D01*
X525199Y560406D01*
Y560600D01*
X525226Y560822D01*
X525282Y561100D01*
X525365Y561406D01*
X525449Y561739D01*
X525560Y562100D01*
X525699Y562489D01*
X525865Y562877D01*
X526087Y563266D01*
X526337Y563655D01*
X526615Y564044D01*
X526948Y564405D01*
X527337Y564766D01*
X527365Y564793D01*
X527448Y564849D01*
X527559Y564932D01*
X527726Y565071D01*
X527948Y565210D01*
X528226Y565349D01*
X528531Y565515D01*
X528864Y565710D01*
X529253Y565876D01*
X529697Y566043D01*
X530142Y566182D01*
X530642Y566349D01*
X531197Y566460D01*
X531752Y566543D01*
X532363Y566599D01*
X533002Y566626D01*
X533363D01*
X533613Y566599D01*
D02*
G37*
G36*
X454163Y550547D02*
Y550492D01*
Y550381D01*
X454135Y550159D01*
Y549909D01*
X454080Y549576D01*
X454024Y549187D01*
X453941Y548770D01*
X453858Y548326D01*
X453719Y547826D01*
X453552Y547326D01*
X453330Y546826D01*
X453108Y546326D01*
X452802Y545826D01*
X452469Y545327D01*
X452080Y544882D01*
X451636Y544438D01*
X451608Y544410D01*
X451525Y544355D01*
X451386Y544244D01*
X451192Y544105D01*
X450942Y543938D01*
X450636Y543744D01*
X450275Y543549D01*
X449859Y543355D01*
X449414Y543161D01*
X448914Y542966D01*
X448387Y542772D01*
X447804Y542605D01*
X447193Y542466D01*
X446526Y542355D01*
X445832Y542300D01*
X445082Y542272D01*
X444916D01*
X444721Y542300D01*
X444444D01*
X444110Y542327D01*
X443749Y542383D01*
X443305Y542466D01*
X442861Y542550D01*
X442361Y542661D01*
X441861Y542800D01*
X441333Y542994D01*
X440806Y543188D01*
X440278Y543438D01*
X439750Y543744D01*
X439251Y544077D01*
X438778Y544466D01*
X438751Y544493D01*
X438667Y544577D01*
X438556Y544688D01*
X438390Y544882D01*
X438223Y545105D01*
X438001Y545354D01*
X437779Y545688D01*
X437557Y546049D01*
X437334Y546465D01*
X437112Y546910D01*
X436890Y547409D01*
X436724Y547965D01*
X436557Y548548D01*
X436446Y549159D01*
X436363Y549853D01*
X436335Y550547D01*
Y566293D01*
X439528D01*
Y550547D01*
Y550520D01*
Y550436D01*
Y550297D01*
X439556Y550103D01*
X439584Y549881D01*
X439611Y549603D01*
X439667Y549298D01*
X439723Y548992D01*
X439917Y548298D01*
X440195Y547604D01*
X440361Y547243D01*
X440584Y546910D01*
X440806Y546576D01*
X441083Y546271D01*
X441111Y546243D01*
X441167Y546215D01*
X441250Y546132D01*
X441361Y546021D01*
X441528Y545910D01*
X441694Y545799D01*
X441917Y545660D01*
X442166Y545521D01*
X442444Y545354D01*
X442750Y545216D01*
X443416Y544993D01*
X444221Y544799D01*
X444638Y544771D01*
X445082Y544743D01*
X445332D01*
X445527Y544771D01*
X445749Y544799D01*
X445999Y544827D01*
X446276Y544882D01*
X446582Y544938D01*
X447276Y545105D01*
X447970Y545382D01*
X448331Y545577D01*
X448692Y545771D01*
X449026Y545993D01*
X449331Y546271D01*
X449359Y546299D01*
X449414Y546354D01*
X449470Y546437D01*
X449581Y546549D01*
X449720Y546715D01*
X449859Y546910D01*
X449998Y547132D01*
X450164Y547382D01*
X450303Y547687D01*
X450442Y547993D01*
X450581Y548354D01*
X450719Y548742D01*
X450831Y549131D01*
X450886Y549576D01*
X450942Y550047D01*
X450970Y550547D01*
Y566293D01*
X454163D01*
Y550547D01*
D02*
G37*
G36*
X590097Y563766D02*
X582266D01*
Y542605D01*
X579073D01*
Y563766D01*
X571352D01*
Y566293D01*
X590097D01*
Y563766D01*
D02*
G37*
G36*
X567659Y542605D02*
X564438D01*
Y566293D01*
X567659D01*
Y542605D01*
D02*
G37*
G36*
X548998Y545105D02*
X560550D01*
Y542605D01*
X545776D01*
Y566293D01*
X548998D01*
Y545105D01*
D02*
G37*
G36*
X513174Y563766D02*
X501983D01*
Y556101D01*
X511702D01*
Y553574D01*
X501983D01*
Y545105D01*
X513369D01*
Y542605D01*
X498762D01*
Y566293D01*
X513174D01*
Y563766D01*
D02*
G37*
G36*
X483655Y545105D02*
X495207D01*
Y542605D01*
X480433D01*
Y566293D01*
X483655D01*
Y545105D01*
D02*
G37*
G36*
X467576Y566265D02*
X467881Y566237D01*
X468242Y566210D01*
X468659Y566154D01*
X469075Y566099D01*
X470020Y565904D01*
X470492Y565765D01*
X470992Y565626D01*
X471464Y565432D01*
X471936Y565210D01*
X472352Y564960D01*
X472769Y564682D01*
X472797Y564655D01*
X472852Y564599D01*
X472963Y564516D01*
X473102Y564377D01*
X473269Y564210D01*
X473435Y564016D01*
X473630Y563766D01*
X473824Y563488D01*
X474019Y563155D01*
X474213Y562794D01*
X474380Y562405D01*
X474546Y561989D01*
X474685Y561517D01*
X474796Y560989D01*
X474852Y560461D01*
X474879Y559878D01*
Y559850D01*
Y559823D01*
Y559739D01*
Y559628D01*
X474824Y559323D01*
X474768Y558962D01*
X474657Y558545D01*
X474491Y558073D01*
X474241Y557601D01*
X473935Y557129D01*
X473880Y557073D01*
X473769Y556934D01*
X473547Y556712D01*
X473269Y556435D01*
X472908Y556157D01*
X472491Y555852D01*
X471991Y555546D01*
X471436Y555296D01*
X471464D01*
X471547Y555268D01*
X471658D01*
X471825Y555213D01*
X472019Y555157D01*
X472241Y555102D01*
X472769Y554907D01*
X473352Y554657D01*
X473991Y554296D01*
X474296Y554074D01*
X474574Y553852D01*
X474852Y553574D01*
X475129Y553269D01*
X475157Y553241D01*
X475185Y553186D01*
X475268Y553102D01*
X475351Y552963D01*
X475435Y552797D01*
X475574Y552602D01*
X475685Y552380D01*
X475824Y552130D01*
X476074Y551547D01*
X476268Y550881D01*
X476435Y550103D01*
X476462Y549686D01*
X476490Y549270D01*
Y549242D01*
Y549131D01*
Y548965D01*
X476462Y548742D01*
X476435Y548465D01*
X476379Y548159D01*
X476324Y547798D01*
X476212Y547437D01*
X476101Y547048D01*
X475962Y546632D01*
X475796Y546215D01*
X475601Y545799D01*
X475351Y545410D01*
X475046Y545021D01*
X474741Y544632D01*
X474352Y544299D01*
X474324Y544271D01*
X474268Y544216D01*
X474130Y544133D01*
X473963Y544049D01*
X473741Y543910D01*
X473491Y543772D01*
X473185Y543605D01*
X472852Y543466D01*
X472464Y543299D01*
X472019Y543133D01*
X471547Y542994D01*
X471047Y542883D01*
X470492Y542772D01*
X469909Y542689D01*
X469298Y542633D01*
X468631Y542605D01*
X459245D01*
Y566293D01*
X467326D01*
X467576Y566265D01*
D02*
G37*
G36*
X399289D02*
X399623Y566237D01*
X400011Y566210D01*
X400456Y566154D01*
X400956Y566043D01*
X401511Y565932D01*
X402094Y565793D01*
X402705Y565599D01*
X403316Y565377D01*
X403955Y565099D01*
X404566Y564766D01*
X405177Y564377D01*
X405760Y563933D01*
X406315Y563433D01*
X406343Y563405D01*
X406426Y563294D01*
X406565Y563127D01*
X406760Y562905D01*
X406982Y562627D01*
X407204Y562294D01*
X407482Y561878D01*
X407732Y561433D01*
X408009Y560933D01*
X408259Y560378D01*
X408481Y559767D01*
X408704Y559101D01*
X408898Y558406D01*
X409037Y557656D01*
X409120Y556879D01*
X409148Y556046D01*
Y552797D01*
Y552741D01*
Y552602D01*
X409120Y552353D01*
X409092Y552047D01*
X409065Y551658D01*
X409009Y551214D01*
X408898Y550714D01*
X408787Y550186D01*
X408648Y549603D01*
X408454Y549020D01*
X408231Y548409D01*
X407954Y547770D01*
X407620Y547159D01*
X407260Y546576D01*
X406815Y545993D01*
X406315Y545438D01*
X406288Y545410D01*
X406177Y545327D01*
X406038Y545188D01*
X405788Y544993D01*
X405510Y544771D01*
X405177Y544549D01*
X404788Y544299D01*
X404316Y544022D01*
X403816Y543772D01*
X403261Y543494D01*
X402622Y543272D01*
X401983Y543049D01*
X401261Y542855D01*
X400511Y542716D01*
X399706Y542633D01*
X398845Y542605D01*
X391403D01*
Y566293D01*
X399040D01*
X399289Y566265D01*
D02*
G37*
G36*
X422811Y566599D02*
X423116Y566571D01*
X423477Y566543D01*
X423894Y566487D01*
X424366Y566376D01*
X424894Y566265D01*
X425421Y566126D01*
X426004Y565932D01*
X426587Y565682D01*
X427171Y565404D01*
X427754Y565071D01*
X428309Y564682D01*
X428865Y564238D01*
X429392Y563738D01*
X429420Y563710D01*
X429503Y563599D01*
X429642Y563433D01*
X429809Y563238D01*
X430031Y562933D01*
X430253Y562600D01*
X430475Y562211D01*
X430753Y561766D01*
X431003Y561267D01*
X431225Y560739D01*
X431475Y560128D01*
X431669Y559489D01*
X431836Y558823D01*
X431975Y558101D01*
X432058Y557351D01*
X432086Y556546D01*
Y552325D01*
Y552269D01*
Y552130D01*
X432058Y551908D01*
Y551603D01*
X432003Y551214D01*
X431947Y550797D01*
X431864Y550325D01*
X431753Y549798D01*
X431614Y549242D01*
X431419Y548659D01*
X431225Y548048D01*
X430947Y547437D01*
X430642Y546826D01*
X430281Y546243D01*
X429864Y545660D01*
X429392Y545105D01*
X429364Y545077D01*
X429281Y544993D01*
X429114Y544855D01*
X428892Y544660D01*
X428642Y544438D01*
X428309Y544216D01*
X427948Y543966D01*
X427504Y543688D01*
X427032Y543438D01*
X426504Y543161D01*
X425921Y542938D01*
X425310Y542716D01*
X424644Y542522D01*
X423921Y542383D01*
X423172Y542300D01*
X422394Y542272D01*
X422200D01*
X422005Y542300D01*
X421700Y542327D01*
X421367Y542355D01*
X420950Y542411D01*
X420506Y542522D01*
X420006Y542633D01*
X419478Y542772D01*
X418923Y542966D01*
X418367Y543188D01*
X417812Y543466D01*
X417229Y543799D01*
X416674Y544160D01*
X416146Y544605D01*
X415646Y545105D01*
X415618Y545132D01*
X415535Y545243D01*
X415396Y545410D01*
X415257Y545632D01*
X415035Y545910D01*
X414841Y546243D01*
X414591Y546632D01*
X414369Y547076D01*
X414119Y547576D01*
X413869Y548131D01*
X413674Y548715D01*
X413480Y549353D01*
X413313Y550047D01*
X413174Y550770D01*
X413091Y551519D01*
X413063Y552325D01*
Y556546D01*
Y556601D01*
Y556740D01*
X413091Y556962D01*
Y557268D01*
X413147Y557629D01*
X413202Y558073D01*
X413286Y558545D01*
X413397Y559073D01*
X413535Y559628D01*
X413702Y560211D01*
X413897Y560794D01*
X414147Y561406D01*
X414452Y562016D01*
X414785Y562600D01*
X415202Y563183D01*
X415646Y563738D01*
X415674Y563766D01*
X415757Y563877D01*
X415924Y564016D01*
X416118Y564183D01*
X416368Y564405D01*
X416701Y564655D01*
X417062Y564904D01*
X417479Y565182D01*
X417923Y565460D01*
X418451Y565710D01*
X419006Y565960D01*
X419589Y566182D01*
X420228Y566349D01*
X420922Y566515D01*
X421644Y566599D01*
X422394Y566626D01*
X422588D01*
X422811Y566599D01*
D02*
G37*
G36*
X391639Y505832D02*
X388445D01*
Y509109D01*
X391639D01*
Y505832D01*
D02*
G37*
G36*
X552066Y507721D02*
X552483Y507693D01*
X552955Y507637D01*
X553455Y507554D01*
X553955Y507471D01*
X554010D01*
X554177Y507415D01*
X554454Y507360D01*
X554760Y507276D01*
X555121Y507193D01*
X555510Y507054D01*
X555871Y506915D01*
X556232Y506776D01*
X555565Y504305D01*
X555510Y504333D01*
X555399Y504388D01*
X555204Y504444D01*
X554954Y504555D01*
X554676Y504638D01*
X554343Y504749D01*
X553982Y504860D01*
X553593Y504971D01*
X553538D01*
X553399Y504999D01*
X553205Y505055D01*
X552899Y505110D01*
X552566Y505138D01*
X552149Y505193D01*
X551705Y505221D01*
X550983D01*
X550844Y505193D01*
X550650Y505166D01*
X550428Y505110D01*
X549928Y504971D01*
X549650Y504888D01*
X549345Y504749D01*
X549039Y504610D01*
X548734Y504416D01*
X548456Y504194D01*
X548151Y503944D01*
X547873Y503638D01*
X547595Y503305D01*
X547567Y503277D01*
X547540Y503222D01*
X547456Y503111D01*
X547373Y502972D01*
X547262Y502777D01*
X547151Y502555D01*
X547040Y502305D01*
X546901Y502000D01*
X546762Y501667D01*
X546651Y501306D01*
X546540Y500917D01*
X546429Y500472D01*
X546346Y500028D01*
X546262Y499556D01*
X546235Y499028D01*
X546207Y498501D01*
Y496668D01*
X546262Y496724D01*
X546373Y496835D01*
X546595Y497001D01*
X546873Y497251D01*
X547206Y497501D01*
X547595Y497751D01*
X548039Y498001D01*
X548539Y498223D01*
X548567D01*
X548595Y498251D01*
X548678Y498279D01*
X548789Y498307D01*
X549039Y498418D01*
X549428Y498529D01*
X549845Y498612D01*
X550344Y498723D01*
X550872Y498779D01*
X551455Y498806D01*
X551761D01*
X551955Y498779D01*
X552233Y498751D01*
X552538Y498695D01*
X552872Y498640D01*
X553232Y498556D01*
X553593Y498445D01*
X554010Y498307D01*
X554399Y498140D01*
X554815Y497945D01*
X555204Y497695D01*
X555593Y497418D01*
X555982Y497112D01*
X556315Y496751D01*
X556343Y496724D01*
X556398Y496668D01*
X556482Y496529D01*
X556593Y496390D01*
X556732Y496168D01*
X556870Y495918D01*
X557037Y495641D01*
X557204Y495307D01*
X557370Y494946D01*
X557537Y494530D01*
X557676Y494085D01*
X557815Y493613D01*
X557926Y493086D01*
X558009Y492558D01*
X558065Y491975D01*
X558092Y491364D01*
Y491336D01*
Y491197D01*
Y491003D01*
X558065Y490753D01*
X558037Y490448D01*
X557981Y490087D01*
X557926Y489698D01*
X557842Y489281D01*
X557731Y488809D01*
X557592Y488337D01*
X557453Y487865D01*
X557259Y487393D01*
X557009Y486893D01*
X556759Y486421D01*
X556454Y485977D01*
X556093Y485560D01*
X556065Y485532D01*
X556009Y485477D01*
X555898Y485366D01*
X555732Y485227D01*
X555537Y485060D01*
X555288Y484866D01*
X555010Y484671D01*
X554676Y484477D01*
X554316Y484283D01*
X553899Y484088D01*
X553455Y483894D01*
X552983Y483727D01*
X552483Y483588D01*
X551927Y483477D01*
X551344Y483422D01*
X550733Y483394D01*
X550594D01*
X550428Y483422D01*
X550178D01*
X549900Y483477D01*
X549567Y483533D01*
X549206Y483588D01*
X548817Y483700D01*
X548373Y483838D01*
X547928Y484005D01*
X547484Y484199D01*
X547012Y484449D01*
X546540Y484727D01*
X546096Y485060D01*
X545623Y485421D01*
X545207Y485865D01*
X545179Y485893D01*
X545124Y485977D01*
X545013Y486115D01*
X544874Y486338D01*
X544707Y486587D01*
X544513Y486893D01*
X544318Y487254D01*
X544124Y487671D01*
X543902Y488115D01*
X543707Y488643D01*
X543513Y489198D01*
X543346Y489809D01*
X543208Y490448D01*
X543096Y491170D01*
X543041Y491919D01*
X543013Y492697D01*
Y498140D01*
Y498195D01*
Y498334D01*
X543041Y498556D01*
Y498834D01*
X543096Y499195D01*
X543152Y499612D01*
X543208Y500056D01*
X543319Y500556D01*
X543430Y501084D01*
X543596Y501639D01*
X543791Y502222D01*
X544013Y502805D01*
X544291Y503388D01*
X544596Y503944D01*
X544957Y504499D01*
X545374Y505027D01*
X545401Y505055D01*
X545485Y505138D01*
X545623Y505277D01*
X545790Y505443D01*
X546040Y505665D01*
X546318Y505888D01*
X546623Y506138D01*
X546984Y506388D01*
X547401Y506637D01*
X547845Y506887D01*
X548317Y507110D01*
X548817Y507332D01*
X549372Y507498D01*
X549956Y507637D01*
X550567Y507721D01*
X551205Y507748D01*
X551705D01*
X552066Y507721D01*
D02*
G37*
G36*
X452316Y501611D02*
X452538Y501583D01*
X452816Y501556D01*
X453122Y501500D01*
X453455Y501444D01*
X454149Y501222D01*
X454538Y501111D01*
X454899Y500945D01*
X455260Y500750D01*
X455593Y500528D01*
X455926Y500278D01*
X456232Y499973D01*
X456260Y499945D01*
X456287Y499889D01*
X456371Y499806D01*
X456482Y499667D01*
X456593Y499473D01*
X456732Y499251D01*
X456871Y499001D01*
X457037Y498695D01*
X457176Y498362D01*
X457315Y497973D01*
X457454Y497557D01*
X457565Y497112D01*
X457676Y496613D01*
X457759Y496057D01*
X457787Y495474D01*
X457815Y494835D01*
Y483727D01*
X454594D01*
Y494752D01*
Y494780D01*
Y494863D01*
Y494974D01*
Y495141D01*
X454566Y495335D01*
X454538Y495530D01*
X454482Y496029D01*
X454371Y496585D01*
X454205Y497140D01*
X453982Y497640D01*
X453844Y497862D01*
X453677Y498057D01*
X453621Y498112D01*
X453510Y498223D01*
X453288Y498362D01*
X452983Y498556D01*
X452594Y498723D01*
X452122Y498890D01*
X451539Y499001D01*
X450872Y499028D01*
X450622D01*
X450345Y499001D01*
X450011Y498945D01*
X449623Y498890D01*
X449178Y498779D01*
X448762Y498640D01*
X448345Y498445D01*
X448290Y498418D01*
X448179Y498334D01*
X447984Y498195D01*
X447762Y498029D01*
X447512Y497779D01*
X447234Y497501D01*
X446984Y497168D01*
X446735Y496779D01*
Y483727D01*
X443513D01*
Y501306D01*
X446374D01*
X446624Y498695D01*
Y498723D01*
X446651Y498751D01*
X446790Y498917D01*
X446957Y499195D01*
X447234Y499501D01*
X447540Y499834D01*
X447901Y500195D01*
X448345Y500556D01*
X448817Y500861D01*
X448845D01*
X448873Y500889D01*
X448956Y500945D01*
X449040Y500972D01*
X449317Y501111D01*
X449706Y501250D01*
X450150Y501389D01*
X450650Y501528D01*
X451233Y501611D01*
X451844Y501639D01*
X452122D01*
X452316Y501611D01*
D02*
G37*
G36*
X610078D02*
X610300Y501583D01*
X610577Y501528D01*
X610855Y501472D01*
X611189Y501417D01*
X611855Y501195D01*
X612216Y501028D01*
X612577Y500861D01*
X612910Y500639D01*
X613243Y500389D01*
X613577Y500111D01*
X613882Y499778D01*
X613910Y499751D01*
X613938Y499695D01*
X614021Y499584D01*
X614132Y499445D01*
X614243Y499251D01*
X614382Y499001D01*
X614521Y498723D01*
X614687Y498390D01*
X614826Y498029D01*
X614965Y497612D01*
X615104Y497168D01*
X615215Y496668D01*
X615326Y496140D01*
X615410Y495557D01*
X615437Y494918D01*
X615465Y494252D01*
Y483727D01*
X612244D01*
Y494280D01*
Y494308D01*
Y494391D01*
Y494530D01*
Y494696D01*
X612216Y494918D01*
X612188Y495168D01*
X612133Y495724D01*
X612022Y496335D01*
X611883Y496918D01*
X611661Y497473D01*
X611522Y497723D01*
X611355Y497945D01*
X611327Y498001D01*
X611189Y498112D01*
X610994Y498279D01*
X610689Y498501D01*
X610328Y498695D01*
X609856Y498862D01*
X609328Y498973D01*
X608689Y499028D01*
X608523D01*
X608412Y499001D01*
X608106Y498973D01*
X607745Y498890D01*
X607329Y498751D01*
X606884Y498556D01*
X606440Y498279D01*
X606023Y497890D01*
X605968Y497834D01*
X605857Y497695D01*
X605690Y497446D01*
X605496Y497112D01*
X605273Y496696D01*
X605079Y496196D01*
X604940Y495641D01*
X604829Y495030D01*
Y494891D01*
Y483727D01*
X601608D01*
Y494280D01*
Y494308D01*
Y494391D01*
Y494530D01*
Y494696D01*
X601580Y494891D01*
X601552Y495113D01*
X601497Y495668D01*
X601386Y496251D01*
X601219Y496835D01*
X600997Y497418D01*
X600858Y497668D01*
X600691Y497890D01*
X600636Y497945D01*
X600525Y498057D01*
X600303Y498251D01*
X600025Y498473D01*
X599636Y498667D01*
X599192Y498862D01*
X598664Y498973D01*
X598053Y499028D01*
X597803D01*
X597526Y499001D01*
X597192Y498945D01*
X596831Y498890D01*
X596415Y498779D01*
X596026Y498612D01*
X595637Y498418D01*
X595610Y498390D01*
X595471Y498307D01*
X595304Y498168D01*
X595110Y498001D01*
X594860Y497751D01*
X594638Y497473D01*
X594388Y497140D01*
X594193Y496751D01*
Y483727D01*
X590972D01*
Y501306D01*
X593832D01*
X594082Y499001D01*
Y499028D01*
X594110Y499056D01*
X594249Y499195D01*
X594415Y499445D01*
X594665Y499723D01*
X594999Y500028D01*
X595360Y500361D01*
X595776Y500667D01*
X596248Y500945D01*
X596276D01*
X596304Y500972D01*
X596387Y501000D01*
X596498Y501056D01*
X596776Y501167D01*
X597137Y501306D01*
X597581Y501417D01*
X598109Y501528D01*
X598692Y501611D01*
X599331Y501639D01*
X599636D01*
X599775Y501611D01*
X599969D01*
X600386Y501528D01*
X600858Y501444D01*
X601358Y501306D01*
X601858Y501111D01*
X602358Y500834D01*
X602385D01*
X602413Y500806D01*
X602580Y500695D01*
X602802Y500500D01*
X603080Y500223D01*
X603385Y499889D01*
X603691Y499473D01*
X603996Y498973D01*
X604246Y498390D01*
Y498418D01*
X604274Y498445D01*
X604329Y498529D01*
X604413Y498640D01*
X604579Y498917D01*
X604857Y499251D01*
X605162Y499639D01*
X605551Y500056D01*
X605996Y500417D01*
X606468Y500778D01*
X606495D01*
X606523Y500806D01*
X606606Y500861D01*
X606717Y500917D01*
X606995Y501056D01*
X607384Y501222D01*
X607828Y501361D01*
X608384Y501500D01*
X608967Y501611D01*
X609633Y501639D01*
X609883D01*
X610078Y501611D01*
D02*
G37*
G36*
X580947D02*
X581169Y501583D01*
X581447Y501528D01*
X581725Y501472D01*
X582058Y501417D01*
X582724Y501195D01*
X583085Y501028D01*
X583446Y500861D01*
X583779Y500639D01*
X584113Y500389D01*
X584446Y500111D01*
X584752Y499778D01*
X584779Y499751D01*
X584807Y499695D01*
X584890Y499584D01*
X585001Y499445D01*
X585112Y499251D01*
X585251Y499001D01*
X585390Y498723D01*
X585557Y498390D01*
X585696Y498029D01*
X585835Y497612D01*
X585973Y497168D01*
X586084Y496668D01*
X586196Y496140D01*
X586279Y495557D01*
X586307Y494918D01*
X586334Y494252D01*
Y483727D01*
X583113D01*
Y494280D01*
Y494308D01*
Y494391D01*
Y494530D01*
Y494696D01*
X583085Y494918D01*
X583057Y495168D01*
X583002Y495724D01*
X582891Y496335D01*
X582752Y496918D01*
X582530Y497473D01*
X582391Y497723D01*
X582224Y497945D01*
X582197Y498001D01*
X582058Y498112D01*
X581863Y498279D01*
X581558Y498501D01*
X581197Y498695D01*
X580725Y498862D01*
X580197Y498973D01*
X579559Y499028D01*
X579392D01*
X579281Y499001D01*
X578975Y498973D01*
X578614Y498890D01*
X578198Y498751D01*
X577753Y498556D01*
X577309Y498279D01*
X576893Y497890D01*
X576837Y497834D01*
X576726Y497695D01*
X576559Y497446D01*
X576365Y497112D01*
X576143Y496696D01*
X575948Y496196D01*
X575809Y495641D01*
X575698Y495030D01*
Y494891D01*
Y483727D01*
X572477D01*
Y494280D01*
Y494308D01*
Y494391D01*
Y494530D01*
Y494696D01*
X572449Y494891D01*
X572422Y495113D01*
X572366Y495668D01*
X572255Y496251D01*
X572088Y496835D01*
X571866Y497418D01*
X571727Y497668D01*
X571561Y497890D01*
X571505Y497945D01*
X571394Y498057D01*
X571172Y498251D01*
X570894Y498473D01*
X570505Y498667D01*
X570061Y498862D01*
X569533Y498973D01*
X568923Y499028D01*
X568673D01*
X568395Y499001D01*
X568062Y498945D01*
X567701Y498890D01*
X567284Y498779D01*
X566895Y498612D01*
X566507Y498418D01*
X566479Y498390D01*
X566340Y498307D01*
X566173Y498168D01*
X565979Y498001D01*
X565729Y497751D01*
X565507Y497473D01*
X565257Y497140D01*
X565063Y496751D01*
Y483727D01*
X561841D01*
Y501306D01*
X564702D01*
X564951Y499001D01*
Y499028D01*
X564979Y499056D01*
X565118Y499195D01*
X565285Y499445D01*
X565535Y499723D01*
X565868Y500028D01*
X566229Y500361D01*
X566645Y500667D01*
X567118Y500945D01*
X567145D01*
X567173Y500972D01*
X567256Y501000D01*
X567367Y501056D01*
X567645Y501167D01*
X568006Y501306D01*
X568450Y501417D01*
X568978Y501528D01*
X569561Y501611D01*
X570200Y501639D01*
X570505D01*
X570644Y501611D01*
X570839D01*
X571255Y501528D01*
X571727Y501444D01*
X572227Y501306D01*
X572727Y501111D01*
X573227Y500834D01*
X573255D01*
X573282Y500806D01*
X573449Y500695D01*
X573671Y500500D01*
X573949Y500223D01*
X574254Y499889D01*
X574560Y499473D01*
X574865Y498973D01*
X575115Y498390D01*
Y498418D01*
X575143Y498445D01*
X575199Y498529D01*
X575282Y498640D01*
X575449Y498917D01*
X575726Y499251D01*
X576032Y499639D01*
X576420Y500056D01*
X576865Y500417D01*
X577337Y500778D01*
X577365D01*
X577392Y500806D01*
X577476Y500861D01*
X577587Y500917D01*
X577865Y501056D01*
X578253Y501222D01*
X578698Y501361D01*
X579253Y501500D01*
X579836Y501611D01*
X580503Y501639D01*
X580753D01*
X580947Y501611D01*
D02*
G37*
G36*
X403580D02*
X403830Y501583D01*
X404108Y501556D01*
X404441Y501500D01*
X404802Y501444D01*
X405579Y501250D01*
X405968Y501111D01*
X406385Y500945D01*
X406774Y500750D01*
X407162Y500556D01*
X407551Y500278D01*
X407912Y500000D01*
X407940Y499973D01*
X407995Y499917D01*
X408079Y499834D01*
X408190Y499723D01*
X408329Y499556D01*
X408495Y499390D01*
X408662Y499167D01*
X408828Y498917D01*
X409162Y498362D01*
X409439Y497723D01*
X409551Y497390D01*
X409634Y497001D01*
X409689Y496613D01*
Y496224D01*
X409662Y496140D01*
X406607D01*
Y496196D01*
X406579Y496335D01*
X406551Y496557D01*
X406496Y496835D01*
X406357Y497140D01*
X406190Y497501D01*
X405940Y497834D01*
X405607Y498195D01*
X405552Y498223D01*
X405441Y498334D01*
X405218Y498473D01*
X404913Y498667D01*
X404552Y498834D01*
X404108Y498973D01*
X403636Y499084D01*
X403080Y499112D01*
X402802D01*
X402497Y499084D01*
X402136Y499028D01*
X401719Y498917D01*
X401275Y498779D01*
X400886Y498584D01*
X400525Y498334D01*
X400497Y498307D01*
X400386Y498195D01*
X400275Y498029D01*
X400109Y497834D01*
X399970Y497557D01*
X399831Y497251D01*
X399720Y496918D01*
X399692Y496529D01*
Y496474D01*
Y496363D01*
X399720Y496168D01*
X399776Y495946D01*
X399859Y495696D01*
X399998Y495418D01*
X400164Y495168D01*
X400414Y494918D01*
X400442Y494891D01*
X400581Y494835D01*
X400775Y494724D01*
X401081Y494585D01*
X401247Y494502D01*
X401470Y494419D01*
X401719Y494335D01*
X401997Y494252D01*
X402303Y494169D01*
X402636Y494085D01*
X402997Y493974D01*
X403413Y493891D01*
X403441D01*
X403552Y493863D01*
X403719Y493808D01*
X403941Y493752D01*
X404219Y493697D01*
X404524Y493613D01*
X404885Y493502D01*
X405246Y493391D01*
X406051Y493114D01*
X406857Y492780D01*
X407634Y492391D01*
X407995Y492169D01*
X408329Y491947D01*
X408356D01*
X408412Y491892D01*
X408495Y491808D01*
X408579Y491725D01*
X408856Y491447D01*
X409162Y491058D01*
X409467Y490586D01*
X409745Y490031D01*
X409828Y489726D01*
X409911Y489392D01*
X409967Y489031D01*
X409995Y488670D01*
Y488643D01*
Y488559D01*
Y488448D01*
X409967Y488281D01*
X409939Y488087D01*
X409884Y487865D01*
X409773Y487310D01*
X409523Y486726D01*
X409384Y486393D01*
X409190Y486088D01*
X408995Y485754D01*
X408717Y485449D01*
X408440Y485144D01*
X408107Y484866D01*
X408079Y484838D01*
X408023Y484810D01*
X407912Y484727D01*
X407773Y484644D01*
X407579Y484533D01*
X407357Y484394D01*
X407079Y484255D01*
X406774Y484144D01*
X406440Y484005D01*
X406079Y483866D01*
X405663Y483727D01*
X405218Y483616D01*
X404746Y483533D01*
X404247Y483450D01*
X403719Y483422D01*
X403163Y483394D01*
X402830D01*
X402608Y483422D01*
X402330Y483450D01*
X401997Y483477D01*
X401636Y483533D01*
X401220Y483616D01*
X400386Y483811D01*
X399942Y483949D01*
X399498Y484116D01*
X399054Y484310D01*
X398609Y484533D01*
X398220Y484783D01*
X397832Y485088D01*
X397804Y485116D01*
X397748Y485171D01*
X397665Y485255D01*
X397526Y485393D01*
X397387Y485560D01*
X397221Y485754D01*
X397054Y485977D01*
X396887Y486227D01*
X396554Y486810D01*
X396249Y487476D01*
X396138Y487837D01*
X396054Y488226D01*
X395999Y488643D01*
Y489059D01*
X396054Y489170D01*
X399109D01*
Y489142D01*
Y489087D01*
X399137Y489004D01*
Y488893D01*
X399192Y488587D01*
X399303Y488198D01*
X399442Y487809D01*
X399664Y487365D01*
X399970Y486976D01*
X400359Y486643D01*
X400386D01*
X400414Y486615D01*
X400581Y486532D01*
X400831Y486393D01*
X401164Y486254D01*
X401580Y486115D01*
X402053Y485977D01*
X402580Y485893D01*
X403163Y485865D01*
X403441D01*
X403747Y485893D01*
X404135Y485949D01*
X404552Y486032D01*
X404996Y486171D01*
X405441Y486338D01*
X405829Y486587D01*
X405885Y486615D01*
X405996Y486726D01*
X406135Y486893D01*
X406329Y487115D01*
X406496Y487365D01*
X406662Y487698D01*
X406774Y488059D01*
X406801Y488448D01*
Y488504D01*
Y488615D01*
X406774Y488809D01*
X406690Y489059D01*
X406607Y489337D01*
X406468Y489614D01*
X406274Y489892D01*
X405996Y490170D01*
X405968Y490198D01*
X405829Y490281D01*
X405635Y490420D01*
X405302Y490559D01*
X405107Y490642D01*
X404885Y490753D01*
X404635Y490836D01*
X404357Y490947D01*
X404052Y491031D01*
X403719Y491142D01*
X403358Y491253D01*
X402941Y491336D01*
X402914D01*
X402802Y491364D01*
X402636Y491420D01*
X402441Y491447D01*
X402164Y491531D01*
X401858Y491614D01*
X401525Y491697D01*
X401192Y491808D01*
X400414Y492086D01*
X399609Y492391D01*
X398859Y492780D01*
X398498Y492975D01*
X398165Y493197D01*
X398137Y493225D01*
X398081Y493252D01*
X397998Y493336D01*
X397915Y493419D01*
X397637Y493697D01*
X397332Y494058D01*
X397026Y494530D01*
X396748Y495085D01*
X396665Y495391D01*
X396582Y495724D01*
X396526Y496085D01*
X396499Y496446D01*
Y496474D01*
Y496529D01*
Y496640D01*
X396526Y496807D01*
X396554Y497001D01*
X396610Y497196D01*
X396721Y497695D01*
X396943Y498279D01*
X397082Y498584D01*
X397276Y498890D01*
X397471Y499195D01*
X397721Y499528D01*
X397998Y499806D01*
X398331Y500111D01*
X398359Y500139D01*
X398415Y500167D01*
X398526Y500250D01*
X398665Y500361D01*
X398859Y500472D01*
X399054Y500584D01*
X399331Y500723D01*
X399609Y500889D01*
X399942Y501028D01*
X400303Y501167D01*
X400692Y501278D01*
X401108Y501389D01*
X401553Y501500D01*
X402053Y501583D01*
X402553Y501611D01*
X403080Y501639D01*
X403358D01*
X403580Y501611D01*
D02*
G37*
G36*
X469950D02*
X470200Y501583D01*
X470478Y501556D01*
X470811Y501500D01*
X471172Y501417D01*
X471922Y501195D01*
X472338Y501056D01*
X472727Y500861D01*
X473144Y500667D01*
X473533Y500417D01*
X473921Y500139D01*
X474282Y499806D01*
X474310Y499778D01*
X474366Y499723D01*
X474449Y499612D01*
X474588Y499473D01*
X474727Y499306D01*
X474866Y499084D01*
X475032Y498862D01*
X475227Y498584D01*
X475393Y498251D01*
X475560Y497918D01*
X475699Y497557D01*
X475838Y497168D01*
X475949Y496751D01*
X476032Y496307D01*
X476087Y495835D01*
Y495335D01*
X476060Y495252D01*
X473144D01*
Y495280D01*
Y495335D01*
Y495418D01*
X473116Y495530D01*
X473088Y495807D01*
X473005Y496196D01*
X472894Y496613D01*
X472699Y497085D01*
X472450Y497529D01*
X472089Y497973D01*
X472033Y498029D01*
X471894Y498140D01*
X471672Y498334D01*
X471367Y498556D01*
X471005Y498751D01*
X470533Y498945D01*
X470034Y499056D01*
X469450Y499112D01*
X469228D01*
X469062Y499084D01*
X468867Y499056D01*
X468645Y499028D01*
X468145Y498890D01*
X467562Y498667D01*
X467284Y498529D01*
X467007Y498334D01*
X466729Y498140D01*
X466479Y497890D01*
X466229Y497612D01*
X466007Y497279D01*
Y497251D01*
X465951Y497196D01*
X465896Y497085D01*
X465840Y496946D01*
X465757Y496779D01*
X465674Y496585D01*
X465563Y496335D01*
X465479Y496057D01*
X465368Y495752D01*
X465257Y495418D01*
X465091Y494669D01*
X464979Y493808D01*
X464924Y492864D01*
Y492169D01*
Y492141D01*
Y492058D01*
Y491919D01*
X464952Y491725D01*
Y491503D01*
X464979Y491225D01*
X465007Y490947D01*
X465063Y490614D01*
X465174Y489920D01*
X465368Y489170D01*
X465618Y488420D01*
X465979Y487698D01*
Y487671D01*
X466035Y487615D01*
X466090Y487532D01*
X466174Y487421D01*
X466451Y487115D01*
X466618Y486948D01*
X466812Y486782D01*
X467034Y486615D01*
X467312Y486449D01*
X467590Y486282D01*
X467895Y486143D01*
X468256Y486032D01*
X468617Y485949D01*
X469006Y485893D01*
X469450Y485865D01*
X469589D01*
X469700Y485893D01*
X469978Y485921D01*
X470339Y485977D01*
X470728Y486115D01*
X471172Y486282D01*
X471617Y486504D01*
X472033Y486837D01*
X472089Y486893D01*
X472200Y487004D01*
X472394Y487226D01*
X472588Y487532D01*
X472783Y487865D01*
X472977Y488281D01*
X473088Y488754D01*
X473144Y489281D01*
X476060D01*
X476087Y489170D01*
Y489142D01*
Y489059D01*
Y488948D01*
X476060Y488781D01*
X476032Y488587D01*
X476004Y488365D01*
X475949Y488087D01*
X475865Y487809D01*
X475782Y487504D01*
X475643Y487198D01*
X475504Y486865D01*
X475310Y486504D01*
X475088Y486171D01*
X474810Y485810D01*
X474505Y485477D01*
X474144Y485144D01*
X474116Y485116D01*
X474060Y485060D01*
X473949Y484977D01*
X473782Y484866D01*
X473588Y484727D01*
X473366Y484588D01*
X473088Y484421D01*
X472811Y484283D01*
X472477Y484116D01*
X472116Y483949D01*
X471311Y483672D01*
X470867Y483561D01*
X470422Y483477D01*
X469950Y483422D01*
X469450Y483394D01*
X469284D01*
X469089Y483422D01*
X468840D01*
X468534Y483477D01*
X468173Y483533D01*
X467784Y483616D01*
X467340Y483700D01*
X466896Y483838D01*
X466424Y484005D01*
X465951Y484199D01*
X465479Y484449D01*
X465007Y484727D01*
X464563Y485060D01*
X464119Y485449D01*
X463730Y485893D01*
X463702Y485921D01*
X463647Y486004D01*
X463535Y486143D01*
X463424Y486338D01*
X463258Y486587D01*
X463091Y486893D01*
X462897Y487226D01*
X462730Y487615D01*
X462536Y488059D01*
X462341Y488531D01*
X462175Y489059D01*
X462008Y489614D01*
X461897Y490198D01*
X461786Y490836D01*
X461730Y491475D01*
X461703Y492169D01*
Y492864D01*
Y492919D01*
Y493030D01*
X461730Y493225D01*
Y493474D01*
X461758Y493808D01*
X461814Y494169D01*
X461869Y494585D01*
X461952Y495030D01*
X462064Y495530D01*
X462202Y496029D01*
X462369Y496557D01*
X462564Y497057D01*
X462786Y497584D01*
X463063Y498112D01*
X463369Y498640D01*
X463730Y499112D01*
X463758Y499140D01*
X463813Y499223D01*
X463952Y499334D01*
X464119Y499501D01*
X464313Y499695D01*
X464563Y499917D01*
X464868Y500139D01*
X465202Y500389D01*
X465590Y500611D01*
X466007Y500834D01*
X466479Y501056D01*
X467007Y501250D01*
X467562Y501417D01*
X468145Y501528D01*
X468784Y501611D01*
X469450Y501639D01*
X469728D01*
X469950Y501611D01*
D02*
G37*
G36*
X514854Y483727D02*
X511633D01*
Y504444D01*
X506468Y504388D01*
Y506860D01*
X514854Y507748D01*
Y483727D01*
D02*
G37*
G36*
X432711Y501611D02*
X432961Y501583D01*
X433266Y501556D01*
X433572Y501500D01*
X433933Y501444D01*
X434710Y501278D01*
X435515Y501000D01*
X435904Y500834D01*
X436293Y500611D01*
X436654Y500389D01*
X437015Y500111D01*
X437043Y500084D01*
X437098Y500056D01*
X437182Y499945D01*
X437293Y499834D01*
X437432Y499667D01*
X437598Y499501D01*
X437765Y499251D01*
X437931Y499001D01*
X438098Y498723D01*
X438265Y498390D01*
X438431Y498029D01*
X438570Y497640D01*
X438681Y497223D01*
X438765Y496751D01*
X438820Y496279D01*
X438848Y495752D01*
Y487254D01*
Y487226D01*
Y487087D01*
Y486921D01*
X438876Y486671D01*
Y486393D01*
X438903Y486088D01*
X438959Y485421D01*
Y485393D01*
X438987Y485282D01*
X439014Y485116D01*
X439042Y484894D01*
X439098Y484644D01*
X439153Y484338D01*
X439320Y483727D01*
X436015D01*
Y483755D01*
X435988Y483866D01*
X435960Y484005D01*
X435932Y484199D01*
X435877Y484421D01*
X435849Y484644D01*
X435765Y485116D01*
Y485144D01*
Y485227D01*
X435738Y485338D01*
X435710Y485504D01*
Y485671D01*
X435682Y485893D01*
X435654Y486338D01*
X435627Y486282D01*
X435488Y486143D01*
X435293Y485893D01*
X435043Y485616D01*
X434682Y485282D01*
X434294Y484921D01*
X433849Y484560D01*
X433322Y484227D01*
X433294D01*
X433266Y484199D01*
X433183Y484144D01*
X433072Y484088D01*
X432766Y483977D01*
X432405Y483811D01*
X431933Y483672D01*
X431405Y483533D01*
X430822Y483422D01*
X430211Y483394D01*
X429961D01*
X429767Y483422D01*
X429517Y483450D01*
X429267Y483477D01*
X428962Y483505D01*
X428656Y483561D01*
X427990Y483727D01*
X427296Y483977D01*
X426934Y484144D01*
X426601Y484338D01*
X426296Y484533D01*
X426018Y484783D01*
X425990Y484810D01*
X425963Y484838D01*
X425879Y484921D01*
X425796Y485032D01*
X425685Y485199D01*
X425574Y485366D01*
X425435Y485560D01*
X425324Y485810D01*
X425185Y486060D01*
X425046Y486365D01*
X424935Y486671D01*
X424824Y487032D01*
X424657Y487782D01*
X424630Y488226D01*
X424602Y488670D01*
Y488698D01*
Y488781D01*
X424630Y488920D01*
Y489087D01*
X424657Y489281D01*
X424713Y489531D01*
X424852Y490087D01*
X424963Y490420D01*
X425102Y490725D01*
X425268Y491058D01*
X425463Y491364D01*
X425685Y491697D01*
X425963Y492003D01*
X426268Y492308D01*
X426629Y492586D01*
X426657Y492614D01*
X426712Y492641D01*
X426851Y492725D01*
X427018Y492808D01*
X427212Y492919D01*
X427462Y493030D01*
X427768Y493169D01*
X428101Y493308D01*
X428462Y493447D01*
X428878Y493586D01*
X429351Y493697D01*
X429850Y493808D01*
X430378Y493891D01*
X430933Y493974D01*
X431544Y494002D01*
X432183Y494030D01*
X435654D01*
Y495779D01*
Y495807D01*
Y495835D01*
Y495918D01*
Y496029D01*
X435599Y496307D01*
X435543Y496668D01*
X435432Y497029D01*
X435265Y497446D01*
X435016Y497834D01*
X434710Y498195D01*
X434655Y498223D01*
X434544Y498334D01*
X434321Y498473D01*
X434016Y498667D01*
X433655Y498834D01*
X433183Y498973D01*
X432655Y499084D01*
X432044Y499112D01*
X431794D01*
X431489Y499084D01*
X431156Y499028D01*
X430739Y498917D01*
X430323Y498779D01*
X429906Y498584D01*
X429517Y498334D01*
X429489Y498307D01*
X429378Y498195D01*
X429212Y498029D01*
X429045Y497807D01*
X428878Y497529D01*
X428712Y497223D01*
X428601Y496862D01*
X428573Y496474D01*
X425518Y496446D01*
X425491Y496529D01*
Y496557D01*
Y496613D01*
Y496724D01*
Y496862D01*
X425518Y497029D01*
X425546Y497223D01*
X425685Y497695D01*
X425768Y497945D01*
X425879Y498223D01*
X426018Y498529D01*
X426185Y498806D01*
X426407Y499112D01*
X426657Y499417D01*
X426934Y499723D01*
X427268Y500028D01*
X427296Y500056D01*
X427351Y500111D01*
X427462Y500167D01*
X427629Y500278D01*
X427795Y500389D01*
X428045Y500528D01*
X428295Y500695D01*
X428601Y500834D01*
X428934Y500972D01*
X429323Y501139D01*
X429711Y501278D01*
X430156Y501389D01*
X430628Y501500D01*
X431128Y501583D01*
X431655Y501611D01*
X432211Y501639D01*
X432488D01*
X432711Y501611D01*
D02*
G37*
G36*
X391639Y483727D02*
X388445D01*
Y501306D01*
X391639D01*
Y483727D01*
D02*
G37*
G36*
X373922Y507387D02*
X374255Y507360D01*
X374644Y507332D01*
X375088Y507276D01*
X375588Y507165D01*
X376143Y507054D01*
X376726Y506915D01*
X377337Y506721D01*
X377948Y506499D01*
X378587Y506221D01*
X379198Y505888D01*
X379809Y505499D01*
X380392Y505055D01*
X380947Y504555D01*
X380975Y504527D01*
X381059Y504416D01*
X381197Y504249D01*
X381392Y504027D01*
X381614Y503749D01*
X381836Y503416D01*
X382114Y503000D01*
X382364Y502555D01*
X382641Y502055D01*
X382891Y501500D01*
X383114Y500889D01*
X383336Y500223D01*
X383530Y499528D01*
X383669Y498779D01*
X383752Y498001D01*
X383780Y497168D01*
Y493919D01*
Y493863D01*
Y493724D01*
X383752Y493474D01*
X383724Y493169D01*
X383697Y492780D01*
X383641Y492336D01*
X383530Y491836D01*
X383419Y491308D01*
X383280Y490725D01*
X383086Y490142D01*
X382863Y489531D01*
X382586Y488893D01*
X382253Y488281D01*
X381892Y487698D01*
X381447Y487115D01*
X380947Y486560D01*
X380920Y486532D01*
X380809Y486449D01*
X380670Y486310D01*
X380420Y486115D01*
X380142Y485893D01*
X379809Y485671D01*
X379420Y485421D01*
X378948Y485144D01*
X378448Y484894D01*
X377893Y484616D01*
X377254Y484394D01*
X376615Y484172D01*
X375893Y483977D01*
X375144Y483838D01*
X374338Y483755D01*
X373477Y483727D01*
X366035D01*
Y507415D01*
X373672D01*
X373922Y507387D01*
D02*
G37*
G36*
X531711Y507721D02*
X531961D01*
X532238Y507665D01*
X532572Y507637D01*
X532960Y507554D01*
X533377Y507443D01*
X533793Y507332D01*
X534266Y507165D01*
X534710Y506971D01*
X535182Y506749D01*
X535626Y506471D01*
X536071Y506165D01*
X536515Y505804D01*
X536904Y505388D01*
X536932Y505360D01*
X536987Y505277D01*
X537098Y505138D01*
X537237Y504971D01*
X537376Y504721D01*
X537542Y504444D01*
X537737Y504083D01*
X537931Y503722D01*
X538126Y503277D01*
X538320Y502805D01*
X538487Y502278D01*
X538625Y501722D01*
X538764Y501111D01*
X538875Y500445D01*
X538931Y499751D01*
X538959Y499028D01*
Y492086D01*
Y492030D01*
Y491919D01*
Y491697D01*
X538931Y491420D01*
X538903Y491086D01*
X538848Y490697D01*
X538792Y490253D01*
X538709Y489781D01*
X538598Y489281D01*
X538459Y488754D01*
X538292Y488226D01*
X538098Y487698D01*
X537848Y487171D01*
X537570Y486671D01*
X537265Y486171D01*
X536904Y485727D01*
X536876Y485699D01*
X536820Y485616D01*
X536682Y485504D01*
X536543Y485366D01*
X536321Y485199D01*
X536071Y484977D01*
X535793Y484783D01*
X535460Y484560D01*
X535099Y484338D01*
X534682Y484144D01*
X534238Y483949D01*
X533738Y483755D01*
X533210Y483616D01*
X532655Y483505D01*
X532072Y483422D01*
X531433Y483394D01*
X531294D01*
X531100Y483422D01*
X530878D01*
X530572Y483477D01*
X530239Y483505D01*
X529850Y483588D01*
X529461Y483700D01*
X529017Y483811D01*
X528573Y483977D01*
X528128Y484144D01*
X527656Y484366D01*
X527212Y484644D01*
X526768Y484949D01*
X526323Y485310D01*
X525935Y485727D01*
X525907Y485754D01*
X525851Y485838D01*
X525740Y485977D01*
X525601Y486143D01*
X525462Y486393D01*
X525296Y486671D01*
X525102Y487004D01*
X524907Y487393D01*
X524713Y487837D01*
X524518Y488309D01*
X524352Y488837D01*
X524213Y489392D01*
X524074Y490003D01*
X523963Y490670D01*
X523907Y491364D01*
X523880Y492086D01*
Y499028D01*
Y499084D01*
Y499195D01*
X523907Y499417D01*
Y499695D01*
X523935Y500028D01*
X523991Y500417D01*
X524046Y500861D01*
X524129Y501333D01*
X524241Y501833D01*
X524379Y502333D01*
X524546Y502861D01*
X524741Y503388D01*
X524963Y503916D01*
X525240Y504444D01*
X525546Y504916D01*
X525907Y505388D01*
X525935Y505416D01*
X525990Y505499D01*
X526129Y505610D01*
X526296Y505749D01*
X526490Y505943D01*
X526740Y506138D01*
X527018Y506360D01*
X527351Y506582D01*
X527740Y506776D01*
X528156Y506998D01*
X528601Y507193D01*
X529073Y507387D01*
X529600Y507526D01*
X530156Y507637D01*
X530767Y507721D01*
X531378Y507748D01*
X531544D01*
X531711Y507721D01*
D02*
G37*
G36*
X487279Y501611D02*
X487557Y501583D01*
X487918Y501528D01*
X488278Y501444D01*
X488667Y501361D01*
X489112Y501250D01*
X489528Y501111D01*
X489972Y500917D01*
X490417Y500723D01*
X490833Y500472D01*
X491250Y500167D01*
X491639Y499834D01*
X491972Y499445D01*
X492000Y499417D01*
X492055Y499334D01*
X492138Y499223D01*
X492250Y499056D01*
X492388Y498834D01*
X492527Y498556D01*
X492694Y498251D01*
X492861Y497890D01*
X493027Y497501D01*
X493194Y497057D01*
X493333Y496585D01*
X493471Y496057D01*
X493582Y495502D01*
X493666Y494918D01*
X493721Y494280D01*
X493749Y493613D01*
Y491919D01*
X482475D01*
X482447Y491836D01*
Y491808D01*
Y491725D01*
Y491586D01*
X482475Y491392D01*
Y491170D01*
X482502Y490892D01*
X482558Y490614D01*
X482586Y490309D01*
X482725Y489614D01*
X482947Y488893D01*
X483224Y488170D01*
X483613Y487504D01*
X483641Y487476D01*
X483669Y487421D01*
X483724Y487365D01*
X483835Y487254D01*
X483946Y487115D01*
X484113Y486976D01*
X484280Y486837D01*
X484502Y486699D01*
X484724Y486532D01*
X485002Y486393D01*
X485307Y486254D01*
X485613Y486115D01*
X485974Y486004D01*
X486362Y485949D01*
X486751Y485893D01*
X487195Y485865D01*
X487473D01*
X487779Y485893D01*
X488167Y485921D01*
X488584Y485977D01*
X489084Y486060D01*
X489556Y486171D01*
X490028Y486338D01*
X490056D01*
X490084Y486365D01*
X490250Y486421D01*
X490472Y486532D01*
X490778Y486671D01*
X491111Y486865D01*
X491472Y487087D01*
X491833Y487337D01*
X492166Y487615D01*
X493416Y485532D01*
X493360Y485504D01*
X493249Y485393D01*
X493027Y485199D01*
X492749Y485005D01*
X492388Y484755D01*
X491972Y484505D01*
X491472Y484255D01*
X490917Y484005D01*
X490889D01*
X490833Y483977D01*
X490750Y483949D01*
X490639Y483922D01*
X490500Y483866D01*
X490306Y483811D01*
X490111Y483755D01*
X489861Y483700D01*
X489334Y483588D01*
X488695Y483477D01*
X487973Y483422D01*
X487195Y483394D01*
X487029D01*
X486834Y483422D01*
X486557D01*
X486251Y483477D01*
X485890Y483533D01*
X485474Y483588D01*
X485029Y483700D01*
X484557Y483838D01*
X484085Y483977D01*
X483585Y484172D01*
X483085Y484421D01*
X482586Y484699D01*
X482114Y485005D01*
X481669Y485393D01*
X481253Y485810D01*
X481225Y485838D01*
X481169Y485921D01*
X481058Y486060D01*
X480919Y486254D01*
X480753Y486504D01*
X480586Y486782D01*
X480392Y487115D01*
X480197Y487504D01*
X480003Y487948D01*
X479809Y488420D01*
X479642Y488948D01*
X479475Y489503D01*
X479337Y490114D01*
X479225Y490753D01*
X479170Y491447D01*
X479142Y492169D01*
Y492891D01*
Y492947D01*
Y493058D01*
X479170Y493252D01*
Y493530D01*
X479198Y493863D01*
X479253Y494224D01*
X479337Y494641D01*
X479420Y495113D01*
X479531Y495585D01*
X479670Y496085D01*
X479864Y496613D01*
X480059Y497140D01*
X480308Y497668D01*
X480614Y498195D01*
X480947Y498695D01*
X481336Y499167D01*
X481364Y499195D01*
X481447Y499278D01*
X481558Y499390D01*
X481725Y499556D01*
X481947Y499751D01*
X482197Y499945D01*
X482502Y500167D01*
X482835Y500417D01*
X483197Y500639D01*
X483613Y500861D01*
X484057Y501056D01*
X484529Y501250D01*
X485029Y501417D01*
X485557Y501528D01*
X486112Y501611D01*
X486696Y501639D01*
X487029D01*
X487279Y501611D01*
D02*
G37*
G36*
X418437Y501306D02*
X421769D01*
Y498945D01*
X418437D01*
Y488254D01*
Y488198D01*
Y488059D01*
X418465Y487837D01*
X418493Y487560D01*
X418548Y487282D01*
X418659Y486976D01*
X418770Y486726D01*
X418937Y486504D01*
X418964Y486477D01*
X419020Y486421D01*
X419159Y486338D01*
X419298Y486254D01*
X419492Y486171D01*
X419742Y486088D01*
X419992Y486032D01*
X420297Y486004D01*
X420492D01*
X420686Y486032D01*
X420908Y486060D01*
X420936D01*
X420964Y486088D01*
X421131Y486115D01*
X421297Y486171D01*
X421492Y486227D01*
X421936Y484033D01*
X421908D01*
X421880Y483977D01*
X421797Y483949D01*
X421658Y483866D01*
X421519Y483811D01*
X421353Y483727D01*
X421131Y483644D01*
X420881Y483588D01*
X420853D01*
X420770Y483561D01*
X420631Y483533D01*
X420436Y483505D01*
X420242Y483450D01*
X419992Y483422D01*
X419492Y483394D01*
X419298D01*
X419159Y483422D01*
X419020D01*
X418826Y483450D01*
X418381Y483533D01*
X417881Y483672D01*
X417354Y483894D01*
X416854Y484172D01*
X416382Y484560D01*
Y484588D01*
X416326Y484616D01*
X416271Y484699D01*
X416188Y484783D01*
X416104Y484921D01*
X416021Y485060D01*
X415910Y485255D01*
X415799Y485449D01*
X415688Y485699D01*
X415577Y485977D01*
X415493Y486282D01*
X415410Y486615D01*
X415327Y486976D01*
X415271Y487365D01*
X415243Y487809D01*
X415216Y488254D01*
Y498945D01*
X412439D01*
Y501306D01*
X415216D01*
Y505554D01*
X418437D01*
Y501306D01*
D02*
G37*
G36*
X430989Y475380D02*
X427795D01*
Y478656D01*
X430989D01*
Y475380D01*
D02*
G37*
G36*
X520992Y477268D02*
X521408Y477240D01*
X521880Y477185D01*
X522380Y477101D01*
X522880Y477018D01*
X522935D01*
X523102Y476963D01*
X523380Y476907D01*
X523685Y476824D01*
X524046Y476740D01*
X524435Y476602D01*
X524796Y476463D01*
X525157Y476324D01*
X524490Y473852D01*
X524435Y473880D01*
X524324Y473936D01*
X524129Y473991D01*
X523880Y474102D01*
X523602Y474186D01*
X523269Y474297D01*
X522908Y474408D01*
X522519Y474519D01*
X522463D01*
X522325Y474546D01*
X522130Y474602D01*
X521825Y474657D01*
X521491Y474685D01*
X521075Y474741D01*
X520631Y474769D01*
X519909D01*
X519770Y474741D01*
X519575Y474713D01*
X519353Y474657D01*
X518853Y474519D01*
X518575Y474435D01*
X518270Y474297D01*
X517965Y474158D01*
X517659Y473963D01*
X517381Y473741D01*
X517076Y473491D01*
X516798Y473186D01*
X516521Y472853D01*
X516493Y472825D01*
X516465Y472769D01*
X516382Y472658D01*
X516298Y472519D01*
X516187Y472325D01*
X516076Y472103D01*
X515965Y471853D01*
X515826Y471547D01*
X515688Y471214D01*
X515576Y470853D01*
X515465Y470464D01*
X515354Y470020D01*
X515271Y469576D01*
X515188Y469103D01*
X515160Y468576D01*
X515132Y468048D01*
Y466216D01*
X515188Y466271D01*
X515299Y466382D01*
X515521Y466549D01*
X515799Y466799D01*
X516132Y467049D01*
X516521Y467299D01*
X516965Y467548D01*
X517465Y467771D01*
X517492D01*
X517520Y467798D01*
X517604Y467826D01*
X517715Y467854D01*
X517965Y467965D01*
X518353Y468076D01*
X518770Y468159D01*
X519270Y468270D01*
X519797Y468326D01*
X520381Y468354D01*
X520686D01*
X520881Y468326D01*
X521158Y468298D01*
X521464Y468243D01*
X521797Y468187D01*
X522158Y468104D01*
X522519Y467993D01*
X522935Y467854D01*
X523324Y467687D01*
X523741Y467493D01*
X524129Y467243D01*
X524518Y466965D01*
X524907Y466660D01*
X525240Y466299D01*
X525268Y466271D01*
X525324Y466216D01*
X525407Y466077D01*
X525518Y465938D01*
X525657Y465716D01*
X525796Y465466D01*
X525962Y465188D01*
X526129Y464855D01*
X526296Y464494D01*
X526462Y464077D01*
X526601Y463633D01*
X526740Y463161D01*
X526851Y462633D01*
X526934Y462106D01*
X526990Y461522D01*
X527018Y460911D01*
Y460884D01*
Y460745D01*
Y460550D01*
X526990Y460300D01*
X526962Y459995D01*
X526906Y459634D01*
X526851Y459245D01*
X526768Y458829D01*
X526657Y458357D01*
X526518Y457885D01*
X526379Y457412D01*
X526185Y456940D01*
X525935Y456440D01*
X525685Y455968D01*
X525379Y455524D01*
X525018Y455107D01*
X524990Y455080D01*
X524935Y455024D01*
X524824Y454913D01*
X524657Y454774D01*
X524463Y454608D01*
X524213Y454413D01*
X523935Y454219D01*
X523602Y454024D01*
X523241Y453830D01*
X522824Y453636D01*
X522380Y453441D01*
X521908Y453275D01*
X521408Y453136D01*
X520853Y453025D01*
X520269Y452969D01*
X519659Y452941D01*
X519520D01*
X519353Y452969D01*
X519103D01*
X518825Y453025D01*
X518492Y453080D01*
X518131Y453136D01*
X517742Y453247D01*
X517298Y453386D01*
X516854Y453552D01*
X516409Y453747D01*
X515937Y453997D01*
X515465Y454274D01*
X515021Y454608D01*
X514549Y454969D01*
X514132Y455413D01*
X514105Y455441D01*
X514049Y455524D01*
X513938Y455663D01*
X513799Y455885D01*
X513632Y456135D01*
X513438Y456440D01*
X513244Y456801D01*
X513049Y457218D01*
X512827Y457662D01*
X512633Y458190D01*
X512438Y458745D01*
X512272Y459356D01*
X512133Y459995D01*
X512022Y460717D01*
X511966Y461467D01*
X511938Y462244D01*
Y467687D01*
Y467743D01*
Y467882D01*
X511966Y468104D01*
Y468382D01*
X512022Y468743D01*
X512077Y469159D01*
X512133Y469603D01*
X512244Y470103D01*
X512355Y470631D01*
X512522Y471186D01*
X512716Y471770D01*
X512938Y472353D01*
X513216Y472936D01*
X513521Y473491D01*
X513882Y474047D01*
X514299Y474574D01*
X514327Y474602D01*
X514410Y474685D01*
X514549Y474824D01*
X514715Y474991D01*
X514965Y475213D01*
X515243Y475435D01*
X515549Y475685D01*
X515910Y475935D01*
X516326Y476185D01*
X516771Y476435D01*
X517243Y476657D01*
X517742Y476879D01*
X518298Y477046D01*
X518881Y477185D01*
X519492Y477268D01*
X520131Y477296D01*
X520631D01*
X520992Y477268D01*
D02*
G37*
G36*
X450067Y453275D02*
X447623D01*
X447123Y455496D01*
X447096Y455441D01*
X446957Y455274D01*
X446790Y455052D01*
X446540Y454774D01*
X446235Y454469D01*
X445846Y454163D01*
X445457Y453858D01*
X444985Y453580D01*
X444930Y453552D01*
X444763Y453469D01*
X444513Y453386D01*
X444152Y453275D01*
X443708Y453136D01*
X443208Y453053D01*
X442652Y452969D01*
X442041Y452941D01*
X441903D01*
X441736Y452969D01*
X441514D01*
X441236Y453025D01*
X440931Y453053D01*
X440570Y453136D01*
X440209Y453219D01*
X439792Y453358D01*
X439403Y453497D01*
X438959Y453691D01*
X438542Y453913D01*
X438126Y454191D01*
X437737Y454496D01*
X437348Y454830D01*
X436987Y455246D01*
X436960Y455274D01*
X436904Y455357D01*
X436821Y455496D01*
X436710Y455663D01*
X436571Y455913D01*
X436404Y456190D01*
X436265Y456524D01*
X436099Y456885D01*
X435904Y457301D01*
X435765Y457773D01*
X435599Y458273D01*
X435460Y458829D01*
X435349Y459412D01*
X435265Y460023D01*
X435210Y460689D01*
X435182Y461383D01*
Y461744D01*
Y461800D01*
Y461939D01*
Y462161D01*
X435210Y462439D01*
X435238Y462800D01*
X435265Y463216D01*
X435321Y463688D01*
X435404Y464188D01*
X435515Y464716D01*
X435627Y465271D01*
X435765Y465855D01*
X435932Y466410D01*
X436154Y466993D01*
X436404Y467548D01*
X436682Y468076D01*
X436987Y468576D01*
X437015Y468604D01*
X437071Y468687D01*
X437182Y468826D01*
X437321Y468993D01*
X437515Y469187D01*
X437737Y469409D01*
X438015Y469631D01*
X438320Y469881D01*
X438654Y470131D01*
X439042Y470353D01*
X439459Y470575D01*
X439903Y470770D01*
X440403Y470936D01*
X440931Y471075D01*
X441486Y471159D01*
X442069Y471186D01*
X442319D01*
X442625Y471159D01*
X442986Y471103D01*
X443430Y471047D01*
X443874Y470936D01*
X444346Y470797D01*
X444818Y470603D01*
X444846D01*
X444874Y470575D01*
X445013Y470492D01*
X445235Y470381D01*
X445513Y470187D01*
X445846Y469964D01*
X446179Y469687D01*
X446540Y469353D01*
X446873Y468965D01*
Y478656D01*
X450067D01*
Y453275D01*
D02*
G37*
G36*
X579003Y471159D02*
X579225Y471131D01*
X579503Y471075D01*
X579781Y471020D01*
X580114Y470964D01*
X580780Y470742D01*
X581141Y470575D01*
X581502Y470409D01*
X581836Y470187D01*
X582169Y469937D01*
X582502Y469659D01*
X582807Y469326D01*
X582835Y469298D01*
X582863Y469242D01*
X582946Y469131D01*
X583057Y468993D01*
X583169Y468798D01*
X583307Y468548D01*
X583446Y468270D01*
X583613Y467937D01*
X583752Y467576D01*
X583891Y467160D01*
X584029Y466715D01*
X584140Y466216D01*
X584252Y465688D01*
X584335Y465105D01*
X584363Y464466D01*
X584390Y463799D01*
Y453275D01*
X581169D01*
Y463827D01*
Y463855D01*
Y463938D01*
Y464077D01*
Y464244D01*
X581141Y464466D01*
X581114Y464716D01*
X581058Y465271D01*
X580947Y465882D01*
X580808Y466465D01*
X580586Y467021D01*
X580447Y467271D01*
X580280Y467493D01*
X580253Y467548D01*
X580114Y467660D01*
X579919Y467826D01*
X579614Y468048D01*
X579253Y468243D01*
X578781Y468409D01*
X578253Y468520D01*
X577615Y468576D01*
X577448D01*
X577337Y468548D01*
X577031Y468520D01*
X576670Y468437D01*
X576254Y468298D01*
X575809Y468104D01*
X575365Y467826D01*
X574949Y467437D01*
X574893Y467382D01*
X574782Y467243D01*
X574615Y466993D01*
X574421Y466660D01*
X574199Y466243D01*
X574005Y465743D01*
X573866Y465188D01*
X573755Y464577D01*
Y464438D01*
Y453275D01*
X570533D01*
Y463827D01*
Y463855D01*
Y463938D01*
Y464077D01*
Y464244D01*
X570505Y464438D01*
X570478Y464660D01*
X570422Y465216D01*
X570311Y465799D01*
X570144Y466382D01*
X569922Y466965D01*
X569783Y467215D01*
X569617Y467437D01*
X569561Y467493D01*
X569450Y467604D01*
X569228Y467798D01*
X568950Y468020D01*
X568562Y468215D01*
X568117Y468409D01*
X567590Y468520D01*
X566979Y468576D01*
X566729D01*
X566451Y468548D01*
X566118Y468493D01*
X565757Y468437D01*
X565340Y468326D01*
X564951Y468159D01*
X564563Y467965D01*
X564535Y467937D01*
X564396Y467854D01*
X564229Y467715D01*
X564035Y467548D01*
X563785Y467299D01*
X563563Y467021D01*
X563313Y466688D01*
X563119Y466299D01*
Y453275D01*
X559897D01*
Y470853D01*
X562758D01*
X563007Y468548D01*
Y468576D01*
X563035Y468604D01*
X563174Y468743D01*
X563341Y468993D01*
X563591Y469270D01*
X563924Y469576D01*
X564285Y469909D01*
X564702Y470214D01*
X565174Y470492D01*
X565201D01*
X565229Y470520D01*
X565312Y470548D01*
X565423Y470603D01*
X565701Y470714D01*
X566062Y470853D01*
X566507Y470964D01*
X567034Y471075D01*
X567617Y471159D01*
X568256Y471186D01*
X568562D01*
X568700Y471159D01*
X568895D01*
X569311Y471075D01*
X569783Y470992D01*
X570283Y470853D01*
X570783Y470659D01*
X571283Y470381D01*
X571311D01*
X571339Y470353D01*
X571505Y470242D01*
X571727Y470048D01*
X572005Y469770D01*
X572310Y469437D01*
X572616Y469020D01*
X572921Y468520D01*
X573171Y467937D01*
Y467965D01*
X573199Y467993D01*
X573255Y468076D01*
X573338Y468187D01*
X573505Y468465D01*
X573782Y468798D01*
X574088Y469187D01*
X574477Y469603D01*
X574921Y469964D01*
X575393Y470325D01*
X575421D01*
X575449Y470353D01*
X575532Y470409D01*
X575643Y470464D01*
X575921Y470603D01*
X576309Y470770D01*
X576754Y470909D01*
X577309Y471047D01*
X577892Y471159D01*
X578559Y471186D01*
X578809D01*
X579003Y471159D01*
D02*
G37*
G36*
X549872D02*
X550095Y471131D01*
X550372Y471075D01*
X550650Y471020D01*
X550983Y470964D01*
X551650Y470742D01*
X552011Y470575D01*
X552372Y470409D01*
X552705Y470187D01*
X553038Y469937D01*
X553371Y469659D01*
X553677Y469326D01*
X553705Y469298D01*
X553732Y469242D01*
X553816Y469131D01*
X553927Y468993D01*
X554038Y468798D01*
X554177Y468548D01*
X554316Y468270D01*
X554482Y467937D01*
X554621Y467576D01*
X554760Y467160D01*
X554899Y466715D01*
X555010Y466216D01*
X555121Y465688D01*
X555204Y465105D01*
X555232Y464466D01*
X555260Y463799D01*
Y453275D01*
X552038D01*
Y463827D01*
Y463855D01*
Y463938D01*
Y464077D01*
Y464244D01*
X552011Y464466D01*
X551983Y464716D01*
X551927Y465271D01*
X551816Y465882D01*
X551677Y466465D01*
X551455Y467021D01*
X551316Y467271D01*
X551150Y467493D01*
X551122Y467548D01*
X550983Y467660D01*
X550789Y467826D01*
X550483Y468048D01*
X550122Y468243D01*
X549650Y468409D01*
X549122Y468520D01*
X548484Y468576D01*
X548317D01*
X548206Y468548D01*
X547901Y468520D01*
X547540Y468437D01*
X547123Y468298D01*
X546679Y468104D01*
X546235Y467826D01*
X545818Y467437D01*
X545762Y467382D01*
X545651Y467243D01*
X545485Y466993D01*
X545290Y466660D01*
X545068Y466243D01*
X544874Y465743D01*
X544735Y465188D01*
X544624Y464577D01*
Y464438D01*
Y453275D01*
X541402D01*
Y463827D01*
Y463855D01*
Y463938D01*
Y464077D01*
Y464244D01*
X541375Y464438D01*
X541347Y464660D01*
X541291Y465216D01*
X541180Y465799D01*
X541014Y466382D01*
X540792Y466965D01*
X540653Y467215D01*
X540486Y467437D01*
X540430Y467493D01*
X540319Y467604D01*
X540097Y467798D01*
X539820Y468020D01*
X539431Y468215D01*
X538986Y468409D01*
X538459Y468520D01*
X537848Y468576D01*
X537598D01*
X537320Y468548D01*
X536987Y468493D01*
X536626Y468437D01*
X536209Y468326D01*
X535821Y468159D01*
X535432Y467965D01*
X535404Y467937D01*
X535265Y467854D01*
X535099Y467715D01*
X534904Y467548D01*
X534654Y467299D01*
X534432Y467021D01*
X534182Y466688D01*
X533988Y466299D01*
Y453275D01*
X530767D01*
Y470853D01*
X533627D01*
X533877Y468548D01*
Y468576D01*
X533905Y468604D01*
X534043Y468743D01*
X534210Y468993D01*
X534460Y469270D01*
X534793Y469576D01*
X535154Y469909D01*
X535571Y470214D01*
X536043Y470492D01*
X536071D01*
X536098Y470520D01*
X536182Y470548D01*
X536293Y470603D01*
X536571Y470714D01*
X536932Y470853D01*
X537376Y470964D01*
X537903Y471075D01*
X538487Y471159D01*
X539125Y471186D01*
X539431D01*
X539570Y471159D01*
X539764D01*
X540181Y471075D01*
X540653Y470992D01*
X541152Y470853D01*
X541652Y470659D01*
X542152Y470381D01*
X542180D01*
X542208Y470353D01*
X542374Y470242D01*
X542597Y470048D01*
X542874Y469770D01*
X543180Y469437D01*
X543485Y469020D01*
X543791Y468520D01*
X544041Y467937D01*
Y467965D01*
X544068Y467993D01*
X544124Y468076D01*
X544207Y468187D01*
X544374Y468465D01*
X544652Y468798D01*
X544957Y469187D01*
X545346Y469603D01*
X545790Y469964D01*
X546262Y470325D01*
X546290D01*
X546318Y470353D01*
X546401Y470409D01*
X546512Y470464D01*
X546790Y470603D01*
X547179Y470770D01*
X547623Y470909D01*
X548178Y471047D01*
X548762Y471159D01*
X549428Y471186D01*
X549678D01*
X549872Y471159D01*
D02*
G37*
G36*
X418881Y453275D02*
X416021D01*
X411300Y469687D01*
X410939Y471825D01*
X410828D01*
X410495Y469687D01*
X405690Y453275D01*
X402830D01*
X397110Y476963D01*
X400581D01*
X404024Y461467D01*
X404441Y458357D01*
X404524D01*
X405080Y461467D01*
X409273Y476963D01*
X412439D01*
X416660Y461467D01*
X417215Y458301D01*
X417298D01*
X417743Y461467D01*
X421131Y476963D01*
X424602D01*
X418881Y453275D01*
D02*
G37*
G36*
X502525D02*
X499303D01*
Y473991D01*
X494138Y473936D01*
Y476407D01*
X502525Y477296D01*
Y453275D01*
D02*
G37*
G36*
X469284Y468548D02*
X469339Y468576D01*
X469450Y468715D01*
X469645Y468965D01*
X469895Y469242D01*
X470228Y469548D01*
X470617Y469881D01*
X471033Y470187D01*
X471505Y470464D01*
X471533D01*
X471561Y470492D01*
X471644Y470520D01*
X471728Y470575D01*
X472005Y470686D01*
X472366Y470825D01*
X472811Y470964D01*
X473310Y471075D01*
X473866Y471159D01*
X474449Y471186D01*
X474727D01*
X474921Y471159D01*
X475143Y471131D01*
X475421Y471103D01*
X475726Y471047D01*
X476060Y470964D01*
X476754Y470770D01*
X477115Y470631D01*
X477476Y470464D01*
X477837Y470270D01*
X478198Y470048D01*
X478531Y469798D01*
X478837Y469492D01*
X478864Y469465D01*
X478892Y469409D01*
X478975Y469326D01*
X479087Y469187D01*
X479198Y468993D01*
X479337Y468770D01*
X479475Y468520D01*
X479642Y468215D01*
X479781Y467854D01*
X479920Y467493D01*
X480059Y467049D01*
X480170Y466576D01*
X480281Y466077D01*
X480364Y465521D01*
X480392Y464938D01*
X480420Y464299D01*
Y453275D01*
X477198D01*
Y464327D01*
Y464355D01*
Y464410D01*
Y464522D01*
Y464688D01*
X477171Y464855D01*
X477143Y465077D01*
X477087Y465549D01*
X476976Y466049D01*
X476810Y466576D01*
X476559Y467076D01*
X476254Y467521D01*
X476198Y467576D01*
X476087Y467687D01*
X475865Y467854D01*
X475560Y468048D01*
X475171Y468243D01*
X474699Y468409D01*
X474144Y468520D01*
X473477Y468576D01*
X473227D01*
X472977Y468548D01*
X472616Y468520D01*
X472227Y468437D01*
X471811Y468354D01*
X471394Y468215D01*
X470978Y468020D01*
X470922Y467993D01*
X470811Y467909D01*
X470617Y467798D01*
X470367Y467632D01*
X470089Y467410D01*
X469811Y467132D01*
X469534Y466826D01*
X469284Y466465D01*
Y453275D01*
X466062D01*
Y478656D01*
X469284D01*
Y468548D01*
D02*
G37*
G36*
X430989Y453275D02*
X427795D01*
Y470853D01*
X430989D01*
Y453275D01*
D02*
G37*
G36*
X459314Y470853D02*
X462647D01*
Y468493D01*
X459314D01*
Y457801D01*
Y457746D01*
Y457607D01*
X459342Y457385D01*
X459370Y457107D01*
X459425Y456829D01*
X459537Y456524D01*
X459648Y456274D01*
X459814Y456052D01*
X459842Y456024D01*
X459898Y455968D01*
X460036Y455885D01*
X460175Y455802D01*
X460370Y455718D01*
X460619Y455635D01*
X460870Y455580D01*
X461175Y455552D01*
X461369D01*
X461564Y455580D01*
X461786Y455607D01*
X461814D01*
X461841Y455635D01*
X462008Y455663D01*
X462175Y455718D01*
X462369Y455774D01*
X462813Y453580D01*
X462786D01*
X462758Y453525D01*
X462675Y453497D01*
X462536Y453413D01*
X462397Y453358D01*
X462230Y453275D01*
X462008Y453191D01*
X461758Y453136D01*
X461730D01*
X461647Y453108D01*
X461508Y453080D01*
X461314Y453053D01*
X461119Y452997D01*
X460870Y452969D01*
X460370Y452941D01*
X460175D01*
X460036Y452969D01*
X459898D01*
X459703Y452997D01*
X459259Y453080D01*
X458759Y453219D01*
X458231Y453441D01*
X457731Y453719D01*
X457259Y454108D01*
Y454136D01*
X457204Y454163D01*
X457148Y454247D01*
X457065Y454330D01*
X456982Y454469D01*
X456898Y454608D01*
X456787Y454802D01*
X456676Y454996D01*
X456565Y455246D01*
X456454Y455524D01*
X456371Y455829D01*
X456287Y456163D01*
X456204Y456524D01*
X456149Y456913D01*
X456121Y457357D01*
X456093Y457801D01*
Y468493D01*
X453316D01*
Y470853D01*
X456093D01*
Y475102D01*
X459314D01*
Y470853D01*
D02*
G37*
G36*
X426629Y444927D02*
X423435D01*
Y448204D01*
X426629D01*
Y444927D01*
D02*
G37*
G36*
X593388Y440706D02*
X593610Y440678D01*
X593888Y440623D01*
X594166Y440567D01*
X594499Y440512D01*
X595165Y440289D01*
X595526Y440123D01*
X595887Y439956D01*
X596220Y439734D01*
X596554Y439484D01*
X596887Y439206D01*
X597192Y438873D01*
X597220Y438845D01*
X597248Y438790D01*
X597331Y438679D01*
X597442Y438540D01*
X597553Y438345D01*
X597692Y438096D01*
X597831Y437818D01*
X597998Y437485D01*
X598137Y437124D01*
X598275Y436707D01*
X598414Y436263D01*
X598525Y435763D01*
X598636Y435235D01*
X598720Y434652D01*
X598747Y434013D01*
X598775Y433347D01*
Y422822D01*
X595554D01*
Y433375D01*
Y433402D01*
Y433486D01*
Y433625D01*
Y433791D01*
X595526Y434013D01*
X595498Y434263D01*
X595443Y434819D01*
X595332Y435430D01*
X595193Y436013D01*
X594971Y436568D01*
X594832Y436818D01*
X594665Y437040D01*
X594638Y437096D01*
X594499Y437207D01*
X594304Y437373D01*
X593999Y437596D01*
X593638Y437790D01*
X593166Y437957D01*
X592638Y438068D01*
X591999Y438123D01*
X591833D01*
X591722Y438096D01*
X591416Y438068D01*
X591055Y437985D01*
X590639Y437846D01*
X590194Y437651D01*
X589750Y437373D01*
X589333Y436985D01*
X589278Y436929D01*
X589167Y436790D01*
X589000Y436540D01*
X588806Y436207D01*
X588584Y435791D01*
X588389Y435291D01*
X588250Y434735D01*
X588139Y434125D01*
Y433986D01*
Y422822D01*
X584918D01*
Y433375D01*
Y433402D01*
Y433486D01*
Y433625D01*
Y433791D01*
X584890Y433986D01*
X584863Y434208D01*
X584807Y434763D01*
X584696Y435346D01*
X584529Y435929D01*
X584307Y436513D01*
X584168Y436763D01*
X584002Y436985D01*
X583946Y437040D01*
X583835Y437151D01*
X583613Y437346D01*
X583335Y437568D01*
X582946Y437762D01*
X582502Y437957D01*
X581974Y438068D01*
X581363Y438123D01*
X581114D01*
X580836Y438096D01*
X580503Y438040D01*
X580142Y437985D01*
X579725Y437873D01*
X579336Y437707D01*
X578947Y437512D01*
X578920Y437485D01*
X578781Y437401D01*
X578614Y437262D01*
X578420Y437096D01*
X578170Y436846D01*
X577948Y436568D01*
X577698Y436235D01*
X577503Y435846D01*
Y422822D01*
X574282D01*
Y440401D01*
X577142D01*
X577392Y438096D01*
Y438123D01*
X577420Y438151D01*
X577559Y438290D01*
X577726Y438540D01*
X577976Y438818D01*
X578309Y439123D01*
X578670Y439456D01*
X579086Y439762D01*
X579559Y440039D01*
X579586D01*
X579614Y440067D01*
X579697Y440095D01*
X579808Y440151D01*
X580086Y440262D01*
X580447Y440401D01*
X580891Y440512D01*
X581419Y440623D01*
X582002Y440706D01*
X582641Y440734D01*
X582946D01*
X583085Y440706D01*
X583280D01*
X583696Y440623D01*
X584168Y440539D01*
X584668Y440401D01*
X585168Y440206D01*
X585668Y439928D01*
X585696D01*
X585723Y439901D01*
X585890Y439789D01*
X586112Y439595D01*
X586390Y439318D01*
X586695Y438984D01*
X587001Y438568D01*
X587306Y438068D01*
X587556Y437485D01*
Y437512D01*
X587584Y437540D01*
X587640Y437624D01*
X587723Y437735D01*
X587889Y438012D01*
X588167Y438345D01*
X588473Y438734D01*
X588861Y439151D01*
X589306Y439512D01*
X589778Y439873D01*
X589806D01*
X589833Y439901D01*
X589917Y439956D01*
X590028Y440012D01*
X590306Y440151D01*
X590694Y440317D01*
X591139Y440456D01*
X591694Y440595D01*
X592277Y440706D01*
X592944Y440734D01*
X593193D01*
X593388Y440706D01*
D02*
G37*
G36*
X564257D02*
X564479Y440678D01*
X564757Y440623D01*
X565035Y440567D01*
X565368Y440512D01*
X566035Y440289D01*
X566396Y440123D01*
X566756Y439956D01*
X567090Y439734D01*
X567423Y439484D01*
X567756Y439206D01*
X568062Y438873D01*
X568089Y438845D01*
X568117Y438790D01*
X568200Y438679D01*
X568312Y438540D01*
X568423Y438345D01*
X568562Y438096D01*
X568700Y437818D01*
X568867Y437485D01*
X569006Y437124D01*
X569145Y436707D01*
X569284Y436263D01*
X569395Y435763D01*
X569506Y435235D01*
X569589Y434652D01*
X569617Y434013D01*
X569645Y433347D01*
Y422822D01*
X566423D01*
Y433375D01*
Y433402D01*
Y433486D01*
Y433625D01*
Y433791D01*
X566396Y434013D01*
X566368Y434263D01*
X566312Y434819D01*
X566201Y435430D01*
X566062Y436013D01*
X565840Y436568D01*
X565701Y436818D01*
X565535Y437040D01*
X565507Y437096D01*
X565368Y437207D01*
X565174Y437373D01*
X564868Y437596D01*
X564507Y437790D01*
X564035Y437957D01*
X563507Y438068D01*
X562869Y438123D01*
X562702D01*
X562591Y438096D01*
X562286Y438068D01*
X561925Y437985D01*
X561508Y437846D01*
X561064Y437651D01*
X560619Y437373D01*
X560203Y436985D01*
X560147Y436929D01*
X560036Y436790D01*
X559869Y436540D01*
X559675Y436207D01*
X559453Y435791D01*
X559259Y435291D01*
X559120Y434735D01*
X559009Y434125D01*
Y433986D01*
Y422822D01*
X555787D01*
Y433375D01*
Y433402D01*
Y433486D01*
Y433625D01*
Y433791D01*
X555760Y433986D01*
X555732Y434208D01*
X555676Y434763D01*
X555565Y435346D01*
X555399Y435929D01*
X555176Y436513D01*
X555038Y436763D01*
X554871Y436985D01*
X554815Y437040D01*
X554704Y437151D01*
X554482Y437346D01*
X554204Y437568D01*
X553816Y437762D01*
X553371Y437957D01*
X552844Y438068D01*
X552233Y438123D01*
X551983D01*
X551705Y438096D01*
X551372Y438040D01*
X551011Y437985D01*
X550594Y437873D01*
X550206Y437707D01*
X549817Y437512D01*
X549789Y437485D01*
X549650Y437401D01*
X549484Y437262D01*
X549289Y437096D01*
X549039Y436846D01*
X548817Y436568D01*
X548567Y436235D01*
X548373Y435846D01*
Y422822D01*
X545151D01*
Y440401D01*
X548012D01*
X548262Y438096D01*
Y438123D01*
X548289Y438151D01*
X548428Y438290D01*
X548595Y438540D01*
X548845Y438818D01*
X549178Y439123D01*
X549539Y439456D01*
X549956Y439762D01*
X550428Y440039D01*
X550456D01*
X550483Y440067D01*
X550567Y440095D01*
X550678Y440151D01*
X550955Y440262D01*
X551316Y440401D01*
X551761Y440512D01*
X552288Y440623D01*
X552872Y440706D01*
X553510Y440734D01*
X553816D01*
X553955Y440706D01*
X554149D01*
X554565Y440623D01*
X555038Y440539D01*
X555537Y440401D01*
X556037Y440206D01*
X556537Y439928D01*
X556565D01*
X556593Y439901D01*
X556759Y439789D01*
X556982Y439595D01*
X557259Y439318D01*
X557565Y438984D01*
X557870Y438568D01*
X558176Y438068D01*
X558426Y437485D01*
Y437512D01*
X558453Y437540D01*
X558509Y437624D01*
X558592Y437735D01*
X558759Y438012D01*
X559036Y438345D01*
X559342Y438734D01*
X559731Y439151D01*
X560175Y439512D01*
X560647Y439873D01*
X560675D01*
X560703Y439901D01*
X560786Y439956D01*
X560897Y440012D01*
X561175Y440151D01*
X561563Y440317D01*
X562008Y440456D01*
X562563Y440595D01*
X563146Y440706D01*
X563813Y440734D01*
X564063D01*
X564257Y440706D01*
D02*
G37*
G36*
X400636Y422822D02*
X397443D01*
Y433264D01*
X385946D01*
Y422822D01*
X382725D01*
Y446510D01*
X385946D01*
Y435791D01*
X397443D01*
Y446510D01*
X400636D01*
Y422822D01*
D02*
G37*
G36*
X519881Y430792D02*
X523158D01*
Y428265D01*
X519881D01*
Y422822D01*
X516687D01*
Y428265D01*
X506523D01*
Y430070D01*
X516493Y446510D01*
X519881D01*
Y430792D01*
D02*
G37*
G36*
X498165Y422822D02*
X494943D01*
Y443539D01*
X489778Y443483D01*
Y445955D01*
X498165Y446843D01*
Y422822D01*
D02*
G37*
G36*
X453705Y438096D02*
X453760Y438123D01*
X453871Y438262D01*
X454066Y438512D01*
X454316Y438790D01*
X454649Y439095D01*
X455038Y439429D01*
X455454Y439734D01*
X455926Y440012D01*
X455954D01*
X455982Y440039D01*
X456065Y440067D01*
X456149Y440123D01*
X456426Y440234D01*
X456787Y440373D01*
X457232Y440512D01*
X457731Y440623D01*
X458287Y440706D01*
X458870Y440734D01*
X459148D01*
X459342Y440706D01*
X459564Y440678D01*
X459842Y440650D01*
X460147Y440595D01*
X460481Y440512D01*
X461175Y440317D01*
X461536Y440178D01*
X461897Y440012D01*
X462258Y439817D01*
X462619Y439595D01*
X462952Y439345D01*
X463258Y439040D01*
X463285Y439012D01*
X463313Y438956D01*
X463397Y438873D01*
X463508Y438734D01*
X463619Y438540D01*
X463758Y438318D01*
X463896Y438068D01*
X464063Y437762D01*
X464202Y437401D01*
X464341Y437040D01*
X464480Y436596D01*
X464591Y436124D01*
X464702Y435624D01*
X464785Y435069D01*
X464813Y434485D01*
X464841Y433847D01*
Y422822D01*
X461619D01*
Y433875D01*
Y433902D01*
Y433958D01*
Y434069D01*
Y434235D01*
X461591Y434402D01*
X461564Y434624D01*
X461508Y435096D01*
X461397Y435596D01*
X461231Y436124D01*
X460981Y436624D01*
X460675Y437068D01*
X460619Y437124D01*
X460508Y437235D01*
X460286Y437401D01*
X459981Y437596D01*
X459592Y437790D01*
X459120Y437957D01*
X458565Y438068D01*
X457898Y438123D01*
X457648D01*
X457398Y438096D01*
X457037Y438068D01*
X456648Y437985D01*
X456232Y437901D01*
X455815Y437762D01*
X455399Y437568D01*
X455343Y437540D01*
X455232Y437457D01*
X455038Y437346D01*
X454788Y437179D01*
X454510Y436957D01*
X454232Y436679D01*
X453955Y436374D01*
X453705Y436013D01*
Y422822D01*
X450484D01*
Y448204D01*
X453705D01*
Y438096D01*
D02*
G37*
G36*
X426629Y422822D02*
X423435D01*
Y440401D01*
X426629D01*
Y422822D01*
D02*
G37*
G36*
X533766Y446815D02*
X534016D01*
X534293Y446760D01*
X534627Y446732D01*
X535015Y446649D01*
X535432Y446538D01*
X535849Y446427D01*
X536321Y446260D01*
X536765Y446066D01*
X537237Y445843D01*
X537681Y445566D01*
X538126Y445260D01*
X538570Y444899D01*
X538959Y444483D01*
X538986Y444455D01*
X539042Y444372D01*
X539153Y444233D01*
X539292Y444066D01*
X539431Y443816D01*
X539597Y443539D01*
X539792Y443178D01*
X539986Y442816D01*
X540181Y442372D01*
X540375Y441900D01*
X540542Y441372D01*
X540681Y440817D01*
X540819Y440206D01*
X540930Y439540D01*
X540986Y438845D01*
X541014Y438123D01*
Y431181D01*
Y431125D01*
Y431014D01*
Y430792D01*
X540986Y430514D01*
X540958Y430181D01*
X540903Y429792D01*
X540847Y429348D01*
X540764Y428876D01*
X540653Y428376D01*
X540514Y427848D01*
X540347Y427321D01*
X540153Y426793D01*
X539903Y426265D01*
X539625Y425766D01*
X539320Y425266D01*
X538959Y424822D01*
X538931Y424794D01*
X538875Y424710D01*
X538737Y424599D01*
X538598Y424461D01*
X538376Y424294D01*
X538126Y424072D01*
X537848Y423877D01*
X537515Y423655D01*
X537154Y423433D01*
X536737Y423239D01*
X536293Y423044D01*
X535793Y422850D01*
X535265Y422711D01*
X534710Y422600D01*
X534127Y422517D01*
X533488Y422489D01*
X533349D01*
X533155Y422517D01*
X532933D01*
X532627Y422572D01*
X532294Y422600D01*
X531905Y422683D01*
X531516Y422794D01*
X531072Y422905D01*
X530628Y423072D01*
X530183Y423239D01*
X529711Y423461D01*
X529267Y423738D01*
X528823Y424044D01*
X528378Y424405D01*
X527990Y424822D01*
X527962Y424849D01*
X527906Y424933D01*
X527795Y425071D01*
X527656Y425238D01*
X527518Y425488D01*
X527351Y425766D01*
X527156Y426099D01*
X526962Y426488D01*
X526768Y426932D01*
X526573Y427404D01*
X526407Y427932D01*
X526268Y428487D01*
X526129Y429098D01*
X526018Y429765D01*
X525962Y430459D01*
X525935Y431181D01*
Y438123D01*
Y438179D01*
Y438290D01*
X525962Y438512D01*
Y438790D01*
X525990Y439123D01*
X526046Y439512D01*
X526101Y439956D01*
X526185Y440428D01*
X526296Y440928D01*
X526435Y441428D01*
X526601Y441956D01*
X526795Y442483D01*
X527018Y443011D01*
X527295Y443539D01*
X527601Y444011D01*
X527962Y444483D01*
X527990Y444510D01*
X528045Y444594D01*
X528184Y444705D01*
X528351Y444844D01*
X528545Y445038D01*
X528795Y445232D01*
X529073Y445455D01*
X529406Y445677D01*
X529795Y445871D01*
X530211Y446093D01*
X530655Y446288D01*
X531128Y446482D01*
X531655Y446621D01*
X532211Y446732D01*
X532822Y446815D01*
X533432Y446843D01*
X533599D01*
X533766Y446815D01*
D02*
G37*
G36*
X473894Y440401D02*
X477226D01*
Y438040D01*
X473894D01*
Y427349D01*
Y427293D01*
Y427154D01*
X473921Y426932D01*
X473949Y426654D01*
X474005Y426377D01*
X474116Y426071D01*
X474227Y425821D01*
X474394Y425599D01*
X474421Y425571D01*
X474477Y425516D01*
X474616Y425432D01*
X474754Y425349D01*
X474949Y425266D01*
X475199Y425182D01*
X475449Y425127D01*
X475754Y425099D01*
X475949D01*
X476143Y425127D01*
X476365Y425155D01*
X476393D01*
X476421Y425182D01*
X476587Y425210D01*
X476754Y425266D01*
X476948Y425321D01*
X477393Y423128D01*
X477365D01*
X477337Y423072D01*
X477254Y423044D01*
X477115Y422961D01*
X476976Y422905D01*
X476810Y422822D01*
X476587Y422739D01*
X476337Y422683D01*
X476310D01*
X476226Y422655D01*
X476087Y422628D01*
X475893Y422600D01*
X475699Y422544D01*
X475449Y422517D01*
X474949Y422489D01*
X474754D01*
X474616Y422517D01*
X474477D01*
X474282Y422544D01*
X473838Y422628D01*
X473338Y422766D01*
X472811Y422989D01*
X472311Y423266D01*
X471839Y423655D01*
Y423683D01*
X471783Y423711D01*
X471728Y423794D01*
X471644Y423877D01*
X471561Y424016D01*
X471478Y424155D01*
X471367Y424349D01*
X471255Y424544D01*
X471144Y424794D01*
X471033Y425071D01*
X470950Y425377D01*
X470867Y425710D01*
X470783Y426071D01*
X470728Y426460D01*
X470700Y426904D01*
X470672Y427349D01*
Y438040D01*
X467895D01*
Y440401D01*
X470672D01*
Y444649D01*
X473894D01*
Y440401D01*
D02*
G37*
G36*
X413105Y440706D02*
X413383Y440678D01*
X413744Y440623D01*
X414105Y440539D01*
X414494Y440456D01*
X414938Y440345D01*
X415354Y440206D01*
X415799Y440012D01*
X416243Y439817D01*
X416660Y439567D01*
X417076Y439262D01*
X417465Y438929D01*
X417798Y438540D01*
X417826Y438512D01*
X417881Y438429D01*
X417965Y438318D01*
X418076Y438151D01*
X418215Y437929D01*
X418354Y437651D01*
X418520Y437346D01*
X418687Y436985D01*
X418854Y436596D01*
X419020Y436152D01*
X419159Y435680D01*
X419298Y435152D01*
X419409Y434597D01*
X419492Y434013D01*
X419548Y433375D01*
X419576Y432708D01*
Y431014D01*
X408301D01*
X408273Y430931D01*
Y430903D01*
Y430820D01*
Y430681D01*
X408301Y430487D01*
Y430264D01*
X408329Y429987D01*
X408384Y429709D01*
X408412Y429404D01*
X408551Y428709D01*
X408773Y427987D01*
X409051Y427265D01*
X409439Y426599D01*
X409467Y426571D01*
X409495Y426515D01*
X409551Y426460D01*
X409662Y426349D01*
X409773Y426210D01*
X409939Y426071D01*
X410106Y425932D01*
X410328Y425794D01*
X410550Y425627D01*
X410828Y425488D01*
X411133Y425349D01*
X411439Y425210D01*
X411800Y425099D01*
X412189Y425044D01*
X412577Y424988D01*
X413022Y424960D01*
X413300D01*
X413605Y424988D01*
X413994Y425016D01*
X414410Y425071D01*
X414910Y425155D01*
X415382Y425266D01*
X415854Y425432D01*
X415882D01*
X415910Y425460D01*
X416077Y425516D01*
X416299Y425627D01*
X416604Y425766D01*
X416937Y425960D01*
X417298Y426182D01*
X417659Y426432D01*
X417993Y426710D01*
X419242Y424627D01*
X419187Y424599D01*
X419076Y424488D01*
X418854Y424294D01*
X418576Y424099D01*
X418215Y423850D01*
X417798Y423600D01*
X417298Y423350D01*
X416743Y423100D01*
X416715D01*
X416660Y423072D01*
X416576Y423044D01*
X416465Y423017D01*
X416326Y422961D01*
X416132Y422905D01*
X415938Y422850D01*
X415688Y422794D01*
X415160Y422683D01*
X414521Y422572D01*
X413799Y422517D01*
X413022Y422489D01*
X412855D01*
X412661Y422517D01*
X412383D01*
X412078Y422572D01*
X411717Y422628D01*
X411300Y422683D01*
X410856Y422794D01*
X410384Y422933D01*
X409911Y423072D01*
X409412Y423266D01*
X408912Y423516D01*
X408412Y423794D01*
X407940Y424099D01*
X407495Y424488D01*
X407079Y424905D01*
X407051Y424933D01*
X406996Y425016D01*
X406885Y425155D01*
X406746Y425349D01*
X406579Y425599D01*
X406413Y425877D01*
X406218Y426210D01*
X406024Y426599D01*
X405829Y427043D01*
X405635Y427515D01*
X405468Y428043D01*
X405302Y428598D01*
X405163Y429209D01*
X405052Y429848D01*
X404996Y430542D01*
X404969Y431264D01*
Y431986D01*
Y432042D01*
Y432153D01*
X404996Y432347D01*
Y432625D01*
X405024Y432958D01*
X405080Y433319D01*
X405163Y433736D01*
X405246Y434208D01*
X405357Y434680D01*
X405496Y435180D01*
X405690Y435707D01*
X405885Y436235D01*
X406135Y436763D01*
X406440Y437290D01*
X406774Y437790D01*
X407162Y438262D01*
X407190Y438290D01*
X407273Y438373D01*
X407384Y438484D01*
X407551Y438651D01*
X407773Y438845D01*
X408023Y439040D01*
X408329Y439262D01*
X408662Y439512D01*
X409023Y439734D01*
X409439Y439956D01*
X409884Y440151D01*
X410356Y440345D01*
X410856Y440512D01*
X411383Y440623D01*
X411939Y440706D01*
X412522Y440734D01*
X412855D01*
X413105Y440706D01*
D02*
G37*
G36*
X438459D02*
X438876Y440650D01*
X439320Y440567D01*
X439820Y440456D01*
X440320Y440289D01*
X440792Y440067D01*
X440820D01*
X440847Y440039D01*
X441014Y439956D01*
X441236Y439789D01*
X441542Y439567D01*
X441875Y439290D01*
X442236Y438956D01*
X442597Y438568D01*
X442930Y438123D01*
X443347Y440401D01*
X445901D01*
Y422739D01*
Y422711D01*
Y422600D01*
Y422405D01*
X445874Y422183D01*
X445846Y421906D01*
X445790Y421572D01*
X445735Y421211D01*
X445651Y420823D01*
X445540Y420406D01*
X445429Y419989D01*
X445263Y419545D01*
X445068Y419129D01*
X444846Y418684D01*
X444568Y418296D01*
X444291Y417907D01*
X443930Y417546D01*
X443902Y417518D01*
X443847Y417462D01*
X443735Y417379D01*
X443569Y417268D01*
X443347Y417129D01*
X443124Y416963D01*
X442819Y416796D01*
X442486Y416629D01*
X442097Y416463D01*
X441680Y416296D01*
X441208Y416129D01*
X440708Y415991D01*
X440153Y415880D01*
X439542Y415796D01*
X438903Y415741D01*
X438237Y415713D01*
X438015D01*
X437765Y415741D01*
X437404Y415768D01*
X437015Y415796D01*
X436543Y415880D01*
X436043Y415963D01*
X435488Y416074D01*
X435460D01*
X435432Y416102D01*
X435349D01*
X435238Y416129D01*
X434960Y416213D01*
X434627Y416324D01*
X434210Y416463D01*
X433766Y416629D01*
X433349Y416824D01*
X432905Y417018D01*
X433405Y419517D01*
X433461Y419490D01*
X433572Y419434D01*
X433766Y419351D01*
X434016Y419240D01*
X434349Y419101D01*
X434738Y418990D01*
X435154Y418851D01*
X435627Y418740D01*
X435682D01*
X435849Y418684D01*
X436099Y418657D01*
X436432Y418601D01*
X436821Y418545D01*
X437265Y418490D01*
X437737Y418462D01*
X438209Y418434D01*
X438431D01*
X438598Y418462D01*
X438792D01*
X439014Y418490D01*
X439514Y418573D01*
X440070Y418684D01*
X440625Y418879D01*
X441153Y419129D01*
X441375Y419295D01*
X441597Y419490D01*
X441653Y419545D01*
X441764Y419684D01*
X441930Y419934D01*
X442153Y420295D01*
X442347Y420739D01*
X442514Y421295D01*
X442625Y421961D01*
X442680Y422739D01*
Y424710D01*
X442652Y424655D01*
X442541Y424516D01*
X442347Y424322D01*
X442097Y424099D01*
X441791Y423822D01*
X441431Y423544D01*
X441042Y423266D01*
X440597Y423044D01*
X440542Y423017D01*
X440375Y422961D01*
X440125Y422878D01*
X439792Y422766D01*
X439403Y422655D01*
X438931Y422572D01*
X438404Y422517D01*
X437820Y422489D01*
X437681D01*
X437515Y422517D01*
X437293D01*
X437015Y422572D01*
X436710Y422600D01*
X436349Y422683D01*
X435988Y422766D01*
X435599Y422905D01*
X435182Y423044D01*
X434766Y423239D01*
X434349Y423461D01*
X433933Y423738D01*
X433516Y424044D01*
X433155Y424377D01*
X432794Y424794D01*
X432766Y424822D01*
X432711Y424905D01*
X432627Y425044D01*
X432516Y425210D01*
X432377Y425460D01*
X432211Y425738D01*
X432072Y426071D01*
X431905Y426432D01*
X431711Y426849D01*
X431572Y427321D01*
X431405Y427821D01*
X431267Y428376D01*
X431156Y428959D01*
X431072Y429570D01*
X431017Y430237D01*
X430989Y430931D01*
Y431292D01*
Y431348D01*
Y431486D01*
Y431708D01*
X431017Y431986D01*
X431044Y432347D01*
X431072Y432764D01*
X431128Y433236D01*
X431211Y433736D01*
X431322Y434263D01*
X431433Y434819D01*
X431572Y435402D01*
X431739Y435957D01*
X431961Y436540D01*
X432211Y437096D01*
X432488Y437624D01*
X432794Y438123D01*
X432822Y438151D01*
X432877Y438234D01*
X432988Y438373D01*
X433127Y438540D01*
X433322Y438734D01*
X433544Y438956D01*
X433794Y439179D01*
X434099Y439429D01*
X434460Y439678D01*
X434821Y439901D01*
X435238Y440123D01*
X435710Y440317D01*
X436182Y440484D01*
X436710Y440623D01*
X437293Y440706D01*
X437876Y440734D01*
X438154D01*
X438459Y440706D01*
D02*
G37*
%LPC*%
G36*
X466965Y563766D02*
X462466D01*
Y556213D01*
X467798D01*
X467937Y556240D01*
X468270Y556268D01*
X468687Y556324D01*
X469131Y556462D01*
X469631Y556629D01*
X470103Y556851D01*
X470547Y557184D01*
X470603Y557240D01*
X470714Y557379D01*
X470908Y557601D01*
X471131Y557906D01*
X471325Y558295D01*
X471519Y558767D01*
X471630Y559323D01*
X471686Y559934D01*
Y559961D01*
Y560017D01*
Y560128D01*
X471658Y560239D01*
Y560406D01*
X471630Y560600D01*
X471547Y561017D01*
X471380Y561489D01*
X471158Y561961D01*
X470881Y562405D01*
X470686Y562600D01*
X470464Y562794D01*
X470408Y562850D01*
X470325Y562877D01*
X470242Y562961D01*
X469964Y563099D01*
X469575Y563294D01*
X469075Y563460D01*
X468465Y563627D01*
X467770Y563738D01*
X466965Y563766D01*
D02*
G37*
G36*
X468687Y553713D02*
X462466D01*
Y545105D01*
X468853D01*
X468992Y545132D01*
X469187D01*
X469381Y545160D01*
X469881Y545243D01*
X470436Y545382D01*
X470992Y545549D01*
X471547Y545826D01*
X472047Y546187D01*
X472075D01*
X472102Y546243D01*
X472241Y546382D01*
X472436Y546632D01*
X472658Y546965D01*
X472880Y547409D01*
X473074Y547937D01*
X473213Y548548D01*
X473269Y548881D01*
Y549242D01*
Y549270D01*
Y549326D01*
Y549437D01*
X473241Y549576D01*
Y549742D01*
X473213Y549936D01*
X473102Y550381D01*
X472963Y550881D01*
X472741Y551408D01*
X472436Y551936D01*
X472241Y552186D01*
X472019Y552408D01*
Y552436D01*
X471964Y552463D01*
X471797Y552602D01*
X471519Y552797D01*
X471158Y553019D01*
X470658Y553269D01*
X470103Y553463D01*
X469437Y553630D01*
X468687Y553713D01*
D02*
G37*
G36*
X398845Y563766D02*
X394624D01*
Y545105D01*
X398984D01*
X399151Y545132D01*
X399401D01*
X399678Y545160D01*
X399984Y545216D01*
X400345Y545299D01*
X400734Y545382D01*
X401150Y545493D01*
X401567Y545632D01*
X402011Y545799D01*
X402427Y546021D01*
X402872Y546271D01*
X403261Y546549D01*
X403677Y546882D01*
X404038Y547270D01*
X404066Y547298D01*
X404121Y547382D01*
X404205Y547493D01*
X404344Y547659D01*
X404483Y547882D01*
X404649Y548131D01*
X404816Y548437D01*
X404982Y548770D01*
X405149Y549159D01*
X405343Y549576D01*
X405482Y550020D01*
X405621Y550520D01*
X405760Y551047D01*
X405843Y551603D01*
X405899Y552186D01*
X405927Y552797D01*
Y556074D01*
Y556101D01*
Y556213D01*
Y556407D01*
X405899Y556629D01*
X405871Y556907D01*
X405816Y557240D01*
X405760Y557629D01*
X405704Y558017D01*
X405454Y558906D01*
X405316Y559350D01*
X405121Y559823D01*
X404927Y560295D01*
X404649Y560739D01*
X404371Y561183D01*
X404038Y561600D01*
X404010Y561628D01*
X403955Y561683D01*
X403844Y561794D01*
X403705Y561933D01*
X403511Y562100D01*
X403261Y562294D01*
X402983Y562489D01*
X402677Y562683D01*
X402344Y562877D01*
X401928Y563072D01*
X401511Y563266D01*
X401039Y563433D01*
X400539Y563572D01*
X400011Y563683D01*
X399456Y563738D01*
X398845Y563766D01*
D02*
G37*
G36*
X422394Y563988D02*
X422116D01*
X421922Y563960D01*
X421700Y563933D01*
X421422Y563877D01*
X421117Y563822D01*
X420784Y563738D01*
X420423Y563627D01*
X420061Y563488D01*
X419700Y563322D01*
X419340Y563099D01*
X418951Y562877D01*
X418590Y562600D01*
X418256Y562266D01*
X417923Y561905D01*
X417895Y561878D01*
X417840Y561822D01*
X417757Y561683D01*
X417673Y561517D01*
X417534Y561322D01*
X417396Y561072D01*
X417257Y560794D01*
X417090Y560461D01*
X416924Y560100D01*
X416785Y559684D01*
X416646Y559239D01*
X416507Y558767D01*
X416424Y558267D01*
X416340Y557740D01*
X416285Y557157D01*
X416257Y556573D01*
Y552325D01*
Y552297D01*
Y552186D01*
Y552019D01*
X416285Y551769D01*
X416313Y551492D01*
X416340Y551186D01*
X416396Y550825D01*
X416479Y550436D01*
X416674Y549576D01*
X416812Y549131D01*
X416951Y548687D01*
X417146Y548243D01*
X417368Y547798D01*
X417618Y547382D01*
X417923Y546965D01*
X417951Y546937D01*
X418007Y546882D01*
X418090Y546771D01*
X418229Y546632D01*
X418395Y546493D01*
X418590Y546299D01*
X418840Y546132D01*
X419117Y545938D01*
X419423Y545743D01*
X419756Y545549D01*
X420117Y545354D01*
X420506Y545216D01*
X420950Y545077D01*
X421394Y544966D01*
X421894Y544910D01*
X422394Y544882D01*
X422533D01*
X422672Y544910D01*
X422894D01*
X423144Y544938D01*
X423422Y544993D01*
X423755Y545049D01*
X424088Y545132D01*
X424477Y545243D01*
X424866Y545382D01*
X425254Y545549D01*
X425643Y545743D01*
X426032Y545993D01*
X426421Y546271D01*
X426782Y546576D01*
X427115Y546937D01*
X427143Y546965D01*
X427198Y547021D01*
X427282Y547159D01*
X427393Y547326D01*
X427532Y547520D01*
X427670Y547770D01*
X427837Y548076D01*
X428004Y548381D01*
X428142Y548770D01*
X428309Y549159D01*
X428448Y549603D01*
X428587Y550103D01*
X428698Y550603D01*
X428781Y551158D01*
X428837Y551714D01*
X428865Y552325D01*
Y556573D01*
Y556601D01*
Y556712D01*
Y556879D01*
X428837Y557101D01*
X428809Y557379D01*
X428781Y557712D01*
X428726Y558073D01*
X428642Y558462D01*
X428448Y559295D01*
X428309Y559739D01*
X428115Y560184D01*
X427920Y560628D01*
X427698Y561072D01*
X427421Y561517D01*
X427115Y561905D01*
X427087Y561933D01*
X427032Y561989D01*
X426948Y562100D01*
X426810Y562239D01*
X426615Y562377D01*
X426393Y562572D01*
X426143Y562766D01*
X425865Y562961D01*
X425560Y563155D01*
X425199Y563322D01*
X424810Y563516D01*
X424394Y563655D01*
X423921Y563794D01*
X423449Y563905D01*
X422950Y563960D01*
X422394Y563988D01*
D02*
G37*
G36*
X550456Y496418D02*
X550206D01*
X549928Y496390D01*
X549567Y496335D01*
X549150Y496251D01*
X548706Y496140D01*
X548262Y495974D01*
X547845Y495752D01*
X547790Y495724D01*
X547679Y495641D01*
X547484Y495502D01*
X547234Y495307D01*
X546956Y495057D01*
X546706Y494752D01*
X546429Y494419D01*
X546207Y494030D01*
Y492391D01*
Y492364D01*
Y492253D01*
Y492114D01*
X546235Y491892D01*
Y491642D01*
X546290Y491336D01*
X546318Y491003D01*
X546373Y490670D01*
X546540Y489892D01*
X546762Y489087D01*
X547095Y488337D01*
X547290Y487948D01*
X547512Y487615D01*
X547540Y487587D01*
X547567Y487532D01*
X547651Y487448D01*
X547734Y487337D01*
X548039Y487060D01*
X548400Y486754D01*
X548873Y486421D01*
X549428Y486143D01*
X549733Y486032D01*
X550039Y485949D01*
X550372Y485893D01*
X550733Y485865D01*
X550928D01*
X551066Y485893D01*
X551233Y485921D01*
X551428Y485949D01*
X551872Y486060D01*
X552372Y486227D01*
X552872Y486504D01*
X553121Y486699D01*
X553371Y486893D01*
X553593Y487115D01*
X553816Y487393D01*
Y487421D01*
X553871Y487476D01*
X553927Y487560D01*
X553982Y487671D01*
X554066Y487809D01*
X554149Y488004D01*
X554260Y488226D01*
X554371Y488476D01*
X554454Y488726D01*
X554565Y489031D01*
X554732Y489726D01*
X554843Y490503D01*
X554899Y491364D01*
Y491392D01*
Y491475D01*
Y491586D01*
X554871Y491753D01*
Y491947D01*
X554843Y492169D01*
X554760Y492697D01*
X554621Y493280D01*
X554399Y493891D01*
X554121Y494474D01*
X553732Y495030D01*
Y495057D01*
X553677Y495085D01*
X553510Y495252D01*
X553260Y495474D01*
X552899Y495724D01*
X552427Y495974D01*
X551872Y496196D01*
X551205Y496363D01*
X550844Y496390D01*
X550456Y496418D01*
D02*
G37*
G36*
X435654Y491864D02*
X431878D01*
X431739Y491836D01*
X431600D01*
X431405Y491808D01*
X430961Y491753D01*
X430461Y491614D01*
X429934Y491447D01*
X429434Y491225D01*
X428962Y490892D01*
X428906Y490836D01*
X428767Y490725D01*
X428601Y490503D01*
X428379Y490253D01*
X428156Y489892D01*
X427990Y489503D01*
X427851Y489059D01*
X427795Y488587D01*
Y488531D01*
Y488393D01*
X427823Y488170D01*
X427879Y487921D01*
X427962Y487615D01*
X428101Y487310D01*
X428267Y487004D01*
X428517Y486726D01*
X428545Y486699D01*
X428656Y486615D01*
X428823Y486504D01*
X429073Y486393D01*
X429378Y486282D01*
X429739Y486171D01*
X430184Y486088D01*
X430684Y486060D01*
X430850D01*
X430989Y486088D01*
X431128D01*
X431322Y486115D01*
X431739Y486171D01*
X432211Y486282D01*
X432738Y486449D01*
X433294Y486643D01*
X433821Y486948D01*
X433849D01*
X433877Y486976D01*
X434044Y487115D01*
X434294Y487282D01*
X434571Y487532D01*
X434904Y487837D01*
X435182Y488198D01*
X435460Y488587D01*
X435654Y489004D01*
Y491864D01*
D02*
G37*
G36*
X373477Y504888D02*
X369256D01*
Y486227D01*
X373616D01*
X373783Y486254D01*
X374033D01*
X374310Y486282D01*
X374616Y486338D01*
X374977Y486421D01*
X375366Y486504D01*
X375782Y486615D01*
X376199Y486754D01*
X376643Y486921D01*
X377060Y487143D01*
X377504Y487393D01*
X377893Y487671D01*
X378309Y488004D01*
X378670Y488393D01*
X378698Y488420D01*
X378754Y488504D01*
X378837Y488615D01*
X378976Y488781D01*
X379115Y489004D01*
X379281Y489254D01*
X379448Y489559D01*
X379614Y489892D01*
X379781Y490281D01*
X379976Y490697D01*
X380114Y491142D01*
X380253Y491642D01*
X380392Y492169D01*
X380475Y492725D01*
X380531Y493308D01*
X380559Y493919D01*
Y497196D01*
Y497223D01*
Y497334D01*
Y497529D01*
X380531Y497751D01*
X380503Y498029D01*
X380448Y498362D01*
X380392Y498751D01*
X380336Y499140D01*
X380086Y500028D01*
X379948Y500472D01*
X379753Y500945D01*
X379559Y501417D01*
X379281Y501861D01*
X379004Y502305D01*
X378670Y502722D01*
X378643Y502750D01*
X378587Y502805D01*
X378476Y502916D01*
X378337Y503055D01*
X378143Y503222D01*
X377893Y503416D01*
X377615Y503611D01*
X377309Y503805D01*
X376976Y503999D01*
X376560Y504194D01*
X376143Y504388D01*
X375671Y504555D01*
X375171Y504694D01*
X374644Y504805D01*
X374088Y504860D01*
X373477Y504888D01*
D02*
G37*
G36*
X531378Y505221D02*
X531183D01*
X531044Y505193D01*
X530878Y505166D01*
X530655Y505138D01*
X530211Y505027D01*
X529683Y504860D01*
X529156Y504583D01*
X528906Y504416D01*
X528656Y504221D01*
X528406Y503999D01*
X528184Y503722D01*
Y503694D01*
X528128Y503666D01*
X528073Y503583D01*
X528017Y503444D01*
X527934Y503305D01*
X527823Y503111D01*
X527740Y502916D01*
X527629Y502666D01*
X527518Y502389D01*
X527434Y502083D01*
X527323Y501750D01*
X527240Y501417D01*
X527129Y500611D01*
X527073Y499695D01*
Y491420D01*
Y491392D01*
Y491308D01*
Y491170D01*
X527101Y491003D01*
Y490781D01*
X527129Y490531D01*
X527156Y490253D01*
X527212Y489948D01*
X527351Y489309D01*
X527545Y488643D01*
X527823Y487976D01*
X528212Y487365D01*
X528239Y487337D01*
X528267Y487310D01*
X528434Y487143D01*
X528684Y486893D01*
X529045Y486615D01*
X529517Y486338D01*
X530072Y486088D01*
X530711Y485921D01*
X531072Y485893D01*
X531433Y485865D01*
X531627D01*
X531766Y485893D01*
X531961Y485921D01*
X532155Y485949D01*
X532627Y486060D01*
X533127Y486227D01*
X533655Y486504D01*
X533932Y486671D01*
X534182Y486865D01*
X534404Y487115D01*
X534627Y487365D01*
Y487393D01*
X534682Y487448D01*
X534738Y487532D01*
X534793Y487643D01*
X534876Y487782D01*
X534988Y487976D01*
X535071Y488198D01*
X535182Y488448D01*
X535293Y488698D01*
X535376Y489004D01*
X535488Y489337D01*
X535571Y489698D01*
X535682Y490503D01*
X535737Y491420D01*
Y499695D01*
Y499723D01*
Y499806D01*
Y499945D01*
X535710Y500111D01*
Y500334D01*
X535682Y500584D01*
X535654Y500861D01*
X535599Y501167D01*
X535460Y501805D01*
X535265Y502472D01*
X534988Y503138D01*
X534599Y503722D01*
Y503749D01*
X534543Y503777D01*
X534377Y503944D01*
X534127Y504194D01*
X533766Y504471D01*
X533321Y504749D01*
X532766Y504999D01*
X532127Y505166D01*
X531766Y505193D01*
X531378Y505221D01*
D02*
G37*
G36*
X487057Y499112D02*
X486529D01*
X486418Y499084D01*
X486112Y499056D01*
X485724Y498945D01*
X485279Y498806D01*
X484807Y498556D01*
X484335Y498251D01*
X484113Y498029D01*
X483891Y497807D01*
Y497779D01*
X483835Y497751D01*
X483780Y497668D01*
X483724Y497584D01*
X483530Y497307D01*
X483308Y496918D01*
X483085Y496446D01*
X482863Y495891D01*
X482697Y495252D01*
X482558Y494530D01*
X482613Y494447D01*
X490556D01*
Y494696D01*
Y494724D01*
Y494780D01*
Y494891D01*
Y495030D01*
X490528Y495168D01*
X490500Y495363D01*
X490445Y495807D01*
X490333Y496307D01*
X490167Y496835D01*
X489917Y497362D01*
X489611Y497862D01*
Y497890D01*
X489556Y497918D01*
X489445Y498057D01*
X489223Y498251D01*
X488889Y498501D01*
X488473Y498723D01*
X487973Y498917D01*
X487390Y499056D01*
X487057Y499112D01*
D02*
G37*
G36*
X519381Y465966D02*
X519131D01*
X518853Y465938D01*
X518492Y465882D01*
X518076Y465799D01*
X517631Y465688D01*
X517187Y465521D01*
X516771Y465299D01*
X516715Y465271D01*
X516604Y465188D01*
X516409Y465049D01*
X516160Y464855D01*
X515882Y464605D01*
X515632Y464299D01*
X515354Y463966D01*
X515132Y463577D01*
Y461939D01*
Y461911D01*
Y461800D01*
Y461661D01*
X515160Y461439D01*
Y461189D01*
X515215Y460884D01*
X515243Y460550D01*
X515299Y460217D01*
X515465Y459440D01*
X515688Y458634D01*
X516021Y457885D01*
X516215Y457496D01*
X516437Y457162D01*
X516465Y457135D01*
X516493Y457079D01*
X516576Y456996D01*
X516659Y456885D01*
X516965Y456607D01*
X517326Y456302D01*
X517798Y455968D01*
X518353Y455691D01*
X518659Y455580D01*
X518964Y455496D01*
X519298Y455441D01*
X519659Y455413D01*
X519853D01*
X519992Y455441D01*
X520158Y455469D01*
X520353Y455496D01*
X520797Y455607D01*
X521297Y455774D01*
X521797Y456052D01*
X522047Y456246D01*
X522297Y456440D01*
X522519Y456663D01*
X522741Y456940D01*
Y456968D01*
X522797Y457024D01*
X522852Y457107D01*
X522908Y457218D01*
X522991Y457357D01*
X523074Y457551D01*
X523185Y457773D01*
X523296Y458023D01*
X523380Y458273D01*
X523491Y458579D01*
X523657Y459273D01*
X523769Y460050D01*
X523824Y460911D01*
Y460939D01*
Y461023D01*
Y461134D01*
X523796Y461300D01*
Y461495D01*
X523769Y461717D01*
X523685Y462244D01*
X523546Y462827D01*
X523324Y463439D01*
X523046Y464022D01*
X522658Y464577D01*
Y464605D01*
X522602Y464633D01*
X522436Y464799D01*
X522186Y465021D01*
X521825Y465271D01*
X521352Y465521D01*
X520797Y465743D01*
X520131Y465910D01*
X519770Y465938D01*
X519381Y465966D01*
D02*
G37*
G36*
X442902Y468576D02*
X442680D01*
X442514Y468548D01*
X442319Y468520D01*
X442097Y468465D01*
X441597Y468326D01*
X441319Y468243D01*
X441042Y468104D01*
X440764Y467965D01*
X440458Y467771D01*
X440181Y467548D01*
X439931Y467299D01*
X439681Y466993D01*
X439459Y466660D01*
Y466632D01*
X439403Y466576D01*
X439348Y466465D01*
X439292Y466327D01*
X439209Y466132D01*
X439126Y465910D01*
X439014Y465632D01*
X438931Y465327D01*
X438820Y464994D01*
X438709Y464633D01*
X438626Y464216D01*
X438542Y463799D01*
X438487Y463327D01*
X438431Y462827D01*
X438376Y462300D01*
Y461744D01*
Y461383D01*
Y461356D01*
Y461272D01*
Y461134D01*
X438404Y460939D01*
Y460717D01*
X438431Y460467D01*
X438459Y460162D01*
X438515Y459856D01*
X438654Y459162D01*
X438820Y458468D01*
X439098Y457746D01*
X439459Y457107D01*
X439487Y457079D01*
X439514Y457051D01*
X439570Y456968D01*
X439681Y456857D01*
X439931Y456607D01*
X440292Y456329D01*
X440764Y456024D01*
X441347Y455774D01*
X441680Y455663D01*
X442041Y455580D01*
X442430Y455552D01*
X442847Y455524D01*
X443097D01*
X443347Y455552D01*
X443680Y455607D01*
X444069Y455691D01*
X444485Y455802D01*
X444874Y455941D01*
X445263Y456163D01*
X445318Y456190D01*
X445429Y456274D01*
X445596Y456440D01*
X445818Y456635D01*
X446096Y456913D01*
X446346Y457218D01*
X446624Y457579D01*
X446873Y457996D01*
Y466216D01*
X446846Y466271D01*
X446762Y466382D01*
X446624Y466604D01*
X446429Y466826D01*
X446207Y467104D01*
X445901Y467410D01*
X445596Y467687D01*
X445235Y467937D01*
X445179Y467965D01*
X445068Y468048D01*
X444846Y468132D01*
X444568Y468270D01*
X444235Y468382D01*
X443847Y468465D01*
X443402Y468548D01*
X442902Y468576D01*
D02*
G37*
G36*
X516687Y441900D02*
X516576D01*
X516271Y441095D01*
X509939Y430792D01*
X516687D01*
Y441900D01*
D02*
G37*
G36*
X533432Y444316D02*
X533238D01*
X533099Y444288D01*
X532933Y444261D01*
X532711Y444233D01*
X532266Y444122D01*
X531739Y443955D01*
X531211Y443677D01*
X530961Y443511D01*
X530711Y443316D01*
X530461Y443094D01*
X530239Y442816D01*
Y442789D01*
X530183Y442761D01*
X530128Y442678D01*
X530072Y442539D01*
X529989Y442400D01*
X529878Y442205D01*
X529795Y442011D01*
X529683Y441761D01*
X529572Y441483D01*
X529489Y441178D01*
X529378Y440845D01*
X529295Y440512D01*
X529184Y439706D01*
X529128Y438790D01*
Y430514D01*
Y430487D01*
Y430403D01*
Y430264D01*
X529156Y430098D01*
Y429876D01*
X529184Y429626D01*
X529211Y429348D01*
X529267Y429043D01*
X529406Y428404D01*
X529600Y427737D01*
X529878Y427071D01*
X530267Y426460D01*
X530295Y426432D01*
X530322Y426404D01*
X530489Y426238D01*
X530739Y425988D01*
X531100Y425710D01*
X531572Y425432D01*
X532127Y425182D01*
X532766Y425016D01*
X533127Y424988D01*
X533488Y424960D01*
X533682D01*
X533821Y424988D01*
X534016Y425016D01*
X534210Y425044D01*
X534682Y425155D01*
X535182Y425321D01*
X535710Y425599D01*
X535987Y425766D01*
X536237Y425960D01*
X536459Y426210D01*
X536682Y426460D01*
Y426488D01*
X536737Y426543D01*
X536793Y426627D01*
X536848Y426738D01*
X536932Y426876D01*
X537043Y427071D01*
X537126Y427293D01*
X537237Y427543D01*
X537348Y427793D01*
X537431Y428098D01*
X537542Y428432D01*
X537626Y428793D01*
X537737Y429598D01*
X537792Y430514D01*
Y438790D01*
Y438818D01*
Y438901D01*
Y439040D01*
X537765Y439206D01*
Y439429D01*
X537737Y439678D01*
X537709Y439956D01*
X537653Y440262D01*
X537515Y440900D01*
X537320Y441567D01*
X537043Y442233D01*
X536654Y442816D01*
Y442844D01*
X536598Y442872D01*
X536432Y443039D01*
X536182Y443289D01*
X535821Y443566D01*
X535376Y443844D01*
X534821Y444094D01*
X534182Y444261D01*
X533821Y444288D01*
X533432Y444316D01*
D02*
G37*
G36*
X412883Y438207D02*
X412355D01*
X412244Y438179D01*
X411939Y438151D01*
X411550Y438040D01*
X411106Y437901D01*
X410634Y437651D01*
X410161Y437346D01*
X409939Y437124D01*
X409717Y436902D01*
Y436874D01*
X409662Y436846D01*
X409606Y436763D01*
X409551Y436679D01*
X409356Y436402D01*
X409134Y436013D01*
X408912Y435541D01*
X408690Y434985D01*
X408523Y434347D01*
X408384Y433625D01*
X408440Y433541D01*
X416382D01*
Y433791D01*
Y433819D01*
Y433875D01*
Y433986D01*
Y434125D01*
X416354Y434263D01*
X416326Y434458D01*
X416271Y434902D01*
X416160Y435402D01*
X415993Y435929D01*
X415743Y436457D01*
X415438Y436957D01*
Y436985D01*
X415382Y437012D01*
X415271Y437151D01*
X415049Y437346D01*
X414716Y437596D01*
X414299Y437818D01*
X413799Y438012D01*
X413216Y438151D01*
X412883Y438207D01*
D02*
G37*
G36*
X438681Y438123D02*
X438459D01*
X438293Y438096D01*
X438126Y438068D01*
X437904Y438012D01*
X437404Y437873D01*
X437126Y437790D01*
X436848Y437651D01*
X436543Y437512D01*
X436265Y437318D01*
X435988Y437096D01*
X435738Y436846D01*
X435488Y436540D01*
X435265Y436207D01*
Y436179D01*
X435210Y436124D01*
X435154Y436013D01*
X435099Y435874D01*
X435016Y435680D01*
X434932Y435457D01*
X434821Y435180D01*
X434738Y434874D01*
X434627Y434541D01*
X434516Y434180D01*
X434432Y433764D01*
X434349Y433347D01*
X434294Y432875D01*
X434238Y432375D01*
X434183Y431847D01*
Y431292D01*
Y430931D01*
Y430903D01*
Y430820D01*
Y430681D01*
X434210Y430487D01*
Y430264D01*
X434238Y430015D01*
X434266Y429737D01*
X434321Y429404D01*
X434460Y428737D01*
X434627Y428015D01*
X434904Y427321D01*
X435265Y426682D01*
X435293Y426654D01*
X435321Y426627D01*
X435377Y426543D01*
X435488Y426432D01*
X435738Y426182D01*
X436099Y425877D01*
X436571Y425571D01*
X437154Y425321D01*
X437487Y425210D01*
X437848Y425155D01*
X438237Y425099D01*
X438654Y425071D01*
X438903D01*
X439153Y425099D01*
X439487Y425155D01*
X439875Y425238D01*
X440292Y425349D01*
X440681Y425488D01*
X441070Y425710D01*
X441125Y425738D01*
X441236Y425821D01*
X441403Y425988D01*
X441625Y426210D01*
X441903Y426460D01*
X442153Y426793D01*
X442430Y427154D01*
X442680Y427598D01*
Y435707D01*
X442652Y435763D01*
X442569Y435902D01*
X442430Y436096D01*
X442264Y436346D01*
X442014Y436624D01*
X441736Y436902D01*
X441431Y437207D01*
X441070Y437457D01*
X441014Y437485D01*
X440903Y437568D01*
X440681Y437679D01*
X440403Y437790D01*
X440042Y437901D01*
X439653Y438012D01*
X439181Y438096D01*
X438681Y438123D01*
D02*
G37*
%LPD*%
M02*
