G04*
G04 #@! TF.GenerationSoftware,Altium Limited,Altium Designer,18.0.9 (584)*
G04*
G04 Layer_Color=65535*
%FSLAX25Y25*%
%MOIN*%
G70*
G01*
G75*
G36*
X533066Y565437D02*
X533276D01*
X533523Y565399D01*
X533790Y565380D01*
X534114Y565342D01*
X534437Y565285D01*
X534780Y565228D01*
X535503Y565056D01*
X535884Y564942D01*
X536265Y564828D01*
X536627Y564675D01*
X536989Y564504D01*
X537008Y564485D01*
X537065Y564466D01*
X537179Y564409D01*
X537312Y564333D01*
X537465Y564237D01*
X537655Y564123D01*
X537864Y563971D01*
X538074Y563819D01*
X538321Y563647D01*
X538569Y563457D01*
X539045Y563000D01*
X539540Y562486D01*
X539749Y562200D01*
X539959Y561896D01*
X539978Y561876D01*
X539997Y561819D01*
X540054Y561724D01*
X540130Y561610D01*
X540206Y561458D01*
X540283Y561267D01*
X540378Y561058D01*
X540492Y560829D01*
X540587Y560563D01*
X540682Y560277D01*
X540835Y559668D01*
X540968Y559001D01*
X540987Y558640D01*
X541006Y558278D01*
X537864D01*
Y558297D01*
Y558373D01*
Y558487D01*
X537845Y558640D01*
X537826Y558811D01*
X537788Y559021D01*
X537750Y559249D01*
X537693Y559516D01*
X537617Y559782D01*
X537522Y560049D01*
X537427Y560334D01*
X537293Y560620D01*
X537122Y560886D01*
X536951Y561172D01*
X536741Y561420D01*
X536494Y561667D01*
X536475Y561686D01*
X536437Y561724D01*
X536360Y561781D01*
X536246Y561858D01*
X536113Y561953D01*
X535941Y562067D01*
X535732Y562162D01*
X535503Y562295D01*
X535256Y562410D01*
X534970Y562505D01*
X534647Y562619D01*
X534304Y562714D01*
X533923Y562790D01*
X533523Y562848D01*
X533105Y562886D01*
X532648Y562905D01*
X532419D01*
X532267Y562886D01*
X532076Y562867D01*
X531848Y562848D01*
X531600Y562828D01*
X531334Y562771D01*
X530763Y562657D01*
X530153Y562467D01*
X529868Y562353D01*
X529582Y562219D01*
X529296Y562067D01*
X529049Y561876D01*
X529030Y561858D01*
X528992Y561838D01*
X528935Y561762D01*
X528839Y561686D01*
X528744Y561591D01*
X528649Y561458D01*
X528516Y561305D01*
X528402Y561134D01*
X528287Y560944D01*
X528173Y560734D01*
X528059Y560506D01*
X527964Y560239D01*
X527869Y559972D01*
X527811Y559687D01*
X527773Y559363D01*
X527754Y559040D01*
Y559021D01*
Y558982D01*
Y558906D01*
X527773Y558792D01*
X527792Y558678D01*
X527811Y558526D01*
X527907Y558183D01*
X528059Y557802D01*
X528154Y557592D01*
X528268Y557402D01*
X528402Y557193D01*
X528573Y556983D01*
X528763Y556774D01*
X528973Y556583D01*
X528992Y556564D01*
X529030Y556545D01*
X529106Y556488D01*
X529220Y556412D01*
X529354Y556336D01*
X529525Y556222D01*
X529715Y556107D01*
X529963Y555993D01*
X530229Y555841D01*
X530534Y555708D01*
X530877Y555555D01*
X531258Y555403D01*
X531676Y555232D01*
X532133Y555079D01*
X532628Y554908D01*
X533162Y554756D01*
X533200D01*
X533295Y554717D01*
X533447Y554679D01*
X533657Y554603D01*
X533904Y554527D01*
X534190Y554432D01*
X534494Y554337D01*
X534837Y554203D01*
X535199Y554070D01*
X535580Y553937D01*
X536360Y553632D01*
X537103Y553270D01*
X537446Y553099D01*
X537769Y552909D01*
X537788Y552890D01*
X537845Y552871D01*
X537922Y552813D01*
X538036Y552737D01*
X538188Y552642D01*
X538341Y552528D01*
X538702Y552242D01*
X539102Y551900D01*
X539521Y551519D01*
X539902Y551062D01*
X540092Y550833D01*
X540244Y550586D01*
X540264Y550567D01*
X540283Y550529D01*
X540321Y550453D01*
X540378Y550357D01*
X540435Y550224D01*
X540511Y550072D01*
X540587Y549900D01*
X540663Y549691D01*
X540739Y549481D01*
X540797Y549234D01*
X540930Y548701D01*
X541025Y548092D01*
X541063Y547787D01*
Y547444D01*
Y547406D01*
Y547311D01*
X541044Y547159D01*
X541025Y546968D01*
X540987Y546721D01*
X540949Y546435D01*
X540873Y546131D01*
X540778Y545788D01*
X540663Y545426D01*
X540511Y545064D01*
X540340Y544664D01*
X540111Y544284D01*
X539864Y543903D01*
X539559Y543541D01*
X539216Y543179D01*
X538816Y542837D01*
X538797Y542817D01*
X538721Y542760D01*
X538588Y542684D01*
X538417Y542570D01*
X538188Y542437D01*
X537903Y542303D01*
X537598Y542132D01*
X537217Y541980D01*
X536817Y541827D01*
X536360Y541675D01*
X535865Y541523D01*
X535332Y541390D01*
X534761Y541275D01*
X534152Y541199D01*
X533504Y541142D01*
X532819Y541123D01*
X532571D01*
X532400Y541142D01*
X532191Y541161D01*
X531924Y541180D01*
X531638Y541199D01*
X531334Y541237D01*
X530991Y541294D01*
X530629Y541351D01*
X529849Y541523D01*
X529449Y541618D01*
X529049Y541751D01*
X528649Y541885D01*
X528249Y542056D01*
X528230Y542075D01*
X528154Y542094D01*
X528040Y542151D01*
X527907Y542227D01*
X527716Y542322D01*
X527526Y542437D01*
X527297Y542570D01*
X527050Y542722D01*
X526536Y543084D01*
X525983Y543522D01*
X525469Y544036D01*
X525222Y544322D01*
X524993Y544607D01*
X524974Y544626D01*
X524936Y544683D01*
X524879Y544779D01*
X524822Y544893D01*
X524727Y545045D01*
X524632Y545236D01*
X524537Y545445D01*
X524422Y545692D01*
X524308Y545940D01*
X524213Y546226D01*
X524118Y546530D01*
X524022Y546854D01*
X523965Y547197D01*
X523908Y547558D01*
X523870Y547920D01*
X523851Y548301D01*
X526993D01*
Y548282D01*
Y548206D01*
X527012Y548092D01*
Y547939D01*
X527050Y547768D01*
X527069Y547558D01*
X527126Y547330D01*
X527183Y547063D01*
X527278Y546797D01*
X527373Y546530D01*
X527507Y546245D01*
X527659Y545959D01*
X527849Y545692D01*
X528059Y545407D01*
X528287Y545159D01*
X528573Y544912D01*
X528592Y544893D01*
X528649Y544855D01*
X528744Y544798D01*
X528859Y544722D01*
X529030Y544626D01*
X529220Y544512D01*
X529449Y544417D01*
X529696Y544303D01*
X529982Y544169D01*
X530306Y544074D01*
X530648Y543960D01*
X531029Y543865D01*
X531429Y543788D01*
X531867Y543731D01*
X532324Y543693D01*
X532819Y543674D01*
X533047D01*
X533219Y543693D01*
X533428Y543712D01*
X533657Y543731D01*
X533923Y543750D01*
X534209Y543808D01*
X534818Y543922D01*
X535446Y544093D01*
X535751Y544207D01*
X536056Y544341D01*
X536322Y544493D01*
X536589Y544664D01*
X536608Y544683D01*
X536646Y544702D01*
X536703Y544779D01*
X536798Y544855D01*
X536893Y544950D01*
X537008Y545083D01*
X537141Y545217D01*
X537255Y545388D01*
X537389Y545578D01*
X537503Y545769D01*
X537617Y545997D01*
X537712Y546245D01*
X537807Y546511D01*
X537864Y546797D01*
X537903Y547082D01*
X537922Y547406D01*
Y547425D01*
Y547482D01*
Y547577D01*
X537903Y547692D01*
X537884Y547844D01*
X537864Y548015D01*
X537769Y548396D01*
X537617Y548834D01*
X537522Y549063D01*
X537407Y549291D01*
X537274Y549501D01*
X537103Y549729D01*
X536912Y549919D01*
X536703Y550110D01*
X536684Y550129D01*
X536646Y550148D01*
X536570Y550205D01*
X536455Y550281D01*
X536322Y550357D01*
X536151Y550453D01*
X535941Y550567D01*
X535694Y550700D01*
X535408Y550833D01*
X535085Y550986D01*
X534723Y551138D01*
X534323Y551309D01*
X533866Y551481D01*
X533390Y551652D01*
X532838Y551823D01*
X532267Y551995D01*
X532248D01*
X532229Y552014D01*
X532171Y552033D01*
X532095Y552052D01*
X531886Y552109D01*
X531619Y552204D01*
X531277Y552318D01*
X530896Y552452D01*
X530477Y552604D01*
X530039Y552794D01*
X529563Y552985D01*
X529068Y553194D01*
X528116Y553689D01*
X527640Y553956D01*
X527202Y554222D01*
X526783Y554527D01*
X526421Y554832D01*
X526402Y554851D01*
X526345Y554908D01*
X526250Y555003D01*
X526136Y555136D01*
X526003Y555308D01*
X525850Y555498D01*
X525679Y555727D01*
X525507Y555993D01*
X525336Y556279D01*
X525165Y556583D01*
X525012Y556926D01*
X524879Y557307D01*
X524765Y557688D01*
X524670Y558107D01*
X524613Y558526D01*
X524594Y558982D01*
Y559021D01*
Y559116D01*
X524613Y559249D01*
X524632Y559458D01*
X524670Y559687D01*
X524708Y559972D01*
X524784Y560277D01*
X524879Y560620D01*
X524993Y560963D01*
X525146Y561343D01*
X525317Y561724D01*
X525527Y562124D01*
X525793Y562505D01*
X526079Y562886D01*
X526421Y563247D01*
X526821Y563609D01*
X526840Y563628D01*
X526917Y563685D01*
X527050Y563780D01*
X527221Y563895D01*
X527450Y564047D01*
X527716Y564199D01*
X528040Y564352D01*
X528402Y564542D01*
X528782Y564713D01*
X529239Y564866D01*
X529715Y565037D01*
X530229Y565170D01*
X530782Y565285D01*
X531372Y565380D01*
X532000Y565437D01*
X532648Y565456D01*
X532895D01*
X533066Y565437D01*
D02*
G37*
G36*
X454507Y549024D02*
Y548986D01*
Y548872D01*
X454488Y548701D01*
X454469Y548472D01*
X454431Y548187D01*
X454393Y547844D01*
X454317Y547482D01*
X454241Y547082D01*
X454127Y546664D01*
X453974Y546207D01*
X453822Y545750D01*
X453613Y545293D01*
X453365Y544836D01*
X453079Y544398D01*
X452756Y543960D01*
X452394Y543541D01*
X452375Y543522D01*
X452299Y543446D01*
X452184Y543351D01*
X452013Y543198D01*
X451804Y543046D01*
X451537Y542856D01*
X451252Y542665D01*
X450909Y542456D01*
X450509Y542246D01*
X450090Y542037D01*
X449614Y541827D01*
X449119Y541637D01*
X448567Y541485D01*
X447996Y541332D01*
X447367Y541237D01*
X446720Y541161D01*
X445901Y541123D01*
X445730D01*
X445520Y541142D01*
X445254Y541161D01*
X444930Y541180D01*
X444549Y541237D01*
X444131Y541294D01*
X443674Y541390D01*
X443179Y541504D01*
X442684Y541637D01*
X442169Y541808D01*
X441636Y541999D01*
X441122Y542246D01*
X440627Y542532D01*
X440151Y542856D01*
X439694Y543217D01*
X439675Y543236D01*
X439599Y543313D01*
X439485Y543427D01*
X439332Y543598D01*
X439161Y543808D01*
X438971Y544074D01*
X438761Y544379D01*
X438533Y544722D01*
X438323Y545121D01*
X438114Y545540D01*
X437905Y546016D01*
X437733Y546530D01*
X437581Y547082D01*
X437467Y547692D01*
X437390Y548320D01*
X437352Y548986D01*
Y565132D01*
X440456D01*
Y549082D01*
Y549044D01*
Y548967D01*
X440475Y548834D01*
Y548663D01*
X440494Y548434D01*
X440532Y548187D01*
X440570Y547920D01*
X440627Y547616D01*
X440703Y547311D01*
X440799Y546968D01*
X440913Y546644D01*
X441046Y546302D01*
X441217Y545978D01*
X441408Y545674D01*
X441617Y545369D01*
X441865Y545083D01*
X441884Y545064D01*
X441922Y545026D01*
X442017Y544950D01*
X442131Y544855D01*
X442265Y544760D01*
X442455Y544645D01*
X442664Y544512D01*
X442893Y544379D01*
X443159Y544245D01*
X443464Y544112D01*
X443807Y543998D01*
X444169Y543903D01*
X444549Y543808D01*
X444968Y543731D01*
X445425Y543693D01*
X445901Y543674D01*
X446016D01*
X446149Y543693D01*
X446339D01*
X446568Y543712D01*
X446815Y543750D01*
X447101Y543788D01*
X447405Y543846D01*
X447729Y543922D01*
X448053Y544017D01*
X448395Y544131D01*
X448738Y544265D01*
X449062Y544436D01*
X449386Y544626D01*
X449671Y544836D01*
X449957Y545083D01*
X449976Y545102D01*
X450014Y545140D01*
X450090Y545236D01*
X450185Y545350D01*
X450281Y545483D01*
X450395Y545674D01*
X450528Y545864D01*
X450661Y546111D01*
X450795Y546378D01*
X450928Y546683D01*
X451042Y547006D01*
X451137Y547349D01*
X451232Y547749D01*
X451309Y548149D01*
X451347Y548587D01*
X451366Y549063D01*
Y565132D01*
X454507D01*
Y549024D01*
D02*
G37*
G36*
X588435Y562581D02*
X580819D01*
Y541447D01*
X577696D01*
Y562581D01*
X570099D01*
Y565132D01*
X588435D01*
Y562581D01*
D02*
G37*
G36*
X566348Y541447D02*
X563226D01*
Y565132D01*
X566348D01*
Y541447D01*
D02*
G37*
G36*
X548203Y543998D02*
X559418D01*
Y541447D01*
X545062D01*
Y565132D01*
X548203D01*
Y543998D01*
D02*
G37*
G36*
X512998Y562581D02*
X501231D01*
Y554946D01*
X511494D01*
Y552395D01*
X501231D01*
Y543998D01*
X513151D01*
Y541447D01*
X498109D01*
Y565132D01*
X512998D01*
Y562581D01*
D02*
G37*
G36*
X483315Y543998D02*
X494529D01*
Y541447D01*
X480173D01*
Y565132D01*
X483315D01*
Y543998D01*
D02*
G37*
G36*
X467550Y565113D02*
X467816D01*
X468140Y565075D01*
X468502Y565056D01*
X468921Y564999D01*
X469359Y564942D01*
X469815Y564847D01*
X470292Y564752D01*
X470767Y564618D01*
X471263Y564466D01*
X471720Y564276D01*
X472177Y564066D01*
X472595Y563819D01*
X472976Y563533D01*
X472995Y563514D01*
X473052Y563457D01*
X473147Y563362D01*
X473281Y563228D01*
X473433Y563076D01*
X473585Y562867D01*
X473776Y562619D01*
X473947Y562353D01*
X474138Y562029D01*
X474309Y561686D01*
X474461Y561286D01*
X474614Y560867D01*
X474747Y560410D01*
X474842Y559915D01*
X474899Y559382D01*
X474918Y558811D01*
Y558792D01*
Y558735D01*
Y558640D01*
X474899Y558526D01*
Y558392D01*
X474861Y558221D01*
X474842Y558031D01*
X474804Y557821D01*
X474690Y557364D01*
X474518Y556869D01*
X474404Y556602D01*
X474290Y556355D01*
X474138Y556107D01*
X473966Y555860D01*
X473947Y555841D01*
X473928Y555803D01*
X473871Y555746D01*
X473795Y555651D01*
X473700Y555536D01*
X473585Y555422D01*
X473452Y555289D01*
X473300Y555136D01*
X472938Y554813D01*
X472500Y554489D01*
X471986Y554165D01*
X471415Y553880D01*
X471434D01*
X471491Y553861D01*
X471605Y553823D01*
X471739Y553765D01*
X471891Y553708D01*
X472081Y553632D01*
X472291Y553537D01*
X472519Y553423D01*
X472995Y553156D01*
X473243Y552985D01*
X473509Y552794D01*
X473757Y552585D01*
X474004Y552356D01*
X474233Y552109D01*
X474442Y551842D01*
X474461Y551823D01*
X474499Y551766D01*
X474537Y551690D01*
X474614Y551576D01*
X474709Y551424D01*
X474804Y551252D01*
X474899Y551062D01*
X475013Y550833D01*
X475109Y550586D01*
X475204Y550300D01*
X475299Y550015D01*
X475394Y549691D01*
X475470Y549367D01*
X475508Y549006D01*
X475547Y548644D01*
X475566Y548263D01*
Y548225D01*
Y548130D01*
X475547Y547958D01*
X475527Y547730D01*
X475508Y547463D01*
X475451Y547159D01*
X475394Y546816D01*
X475299Y546454D01*
X475204Y546054D01*
X475051Y545635D01*
X474899Y545236D01*
X474690Y544817D01*
X474461Y544398D01*
X474176Y543998D01*
X473852Y543617D01*
X473490Y543255D01*
X473471Y543236D01*
X473395Y543179D01*
X473281Y543084D01*
X473109Y542970D01*
X472900Y542837D01*
X472633Y542684D01*
X472329Y542513D01*
X471986Y542360D01*
X471605Y542189D01*
X471167Y542018D01*
X470672Y541865D01*
X470158Y541732D01*
X469587Y541618D01*
X468978Y541523D01*
X468330Y541466D01*
X467645Y541447D01*
X459439D01*
Y565132D01*
X467359D01*
X467550Y565113D01*
D02*
G37*
G36*
X400262D02*
X400529Y565094D01*
X400853Y565056D01*
X401195Y565018D01*
X401595Y564961D01*
X401995Y564885D01*
X402433Y564790D01*
X402890Y564694D01*
X403347Y564561D01*
X403823Y564390D01*
X404299Y564219D01*
X404756Y564009D01*
X405213Y563762D01*
X405232Y563742D01*
X405327Y563704D01*
X405441Y563628D01*
X405613Y563514D01*
X405803Y563362D01*
X406032Y563190D01*
X406298Y563000D01*
X406565Y562752D01*
X406850Y562505D01*
X407155Y562200D01*
X407459Y561896D01*
X407764Y561534D01*
X408069Y561153D01*
X408354Y560753D01*
X408640Y560315D01*
X408887Y559858D01*
X408907Y559839D01*
X408945Y559744D01*
X409002Y559611D01*
X409097Y559420D01*
X409192Y559173D01*
X409306Y558887D01*
X409421Y558564D01*
X409535Y558202D01*
X409668Y557783D01*
X409782Y557345D01*
X409897Y556869D01*
X409992Y556355D01*
X410068Y555822D01*
X410144Y555251D01*
X410182Y554679D01*
X410201Y554070D01*
Y552566D01*
Y552528D01*
Y552414D01*
Y552242D01*
X410182Y551995D01*
X410163Y551709D01*
X410125Y551366D01*
X410087Y550986D01*
X410049Y550567D01*
X409973Y550129D01*
X409878Y549653D01*
X409782Y549177D01*
X409649Y548663D01*
X409516Y548168D01*
X409325Y547654D01*
X409135Y547159D01*
X408907Y546683D01*
X408887Y546664D01*
X408849Y546568D01*
X408773Y546435D01*
X408659Y546264D01*
X408526Y546054D01*
X408373Y545826D01*
X408183Y545540D01*
X407955Y545255D01*
X407707Y544950D01*
X407441Y544626D01*
X407136Y544322D01*
X406812Y543998D01*
X406450Y543674D01*
X406070Y543370D01*
X405651Y543084D01*
X405213Y542817D01*
X405194Y542798D01*
X405099Y542760D01*
X404965Y542684D01*
X404794Y542608D01*
X404565Y542513D01*
X404280Y542399D01*
X403975Y542265D01*
X403613Y542132D01*
X403214Y542018D01*
X402795Y541885D01*
X402338Y541770D01*
X401843Y541675D01*
X401329Y541580D01*
X400776Y541504D01*
X400205Y541466D01*
X399615Y541447D01*
X393065D01*
Y565132D01*
X400053D01*
X400262Y565113D01*
D02*
G37*
G36*
X424081Y565437D02*
X424329Y565418D01*
X424634Y565380D01*
X424957Y565342D01*
X425300Y565285D01*
X425681Y565208D01*
X426081Y565113D01*
X426500Y564999D01*
X426937Y564866D01*
X427356Y564713D01*
X427794Y564523D01*
X428213Y564314D01*
X428632Y564066D01*
X428651Y564047D01*
X428727Y564009D01*
X428841Y563914D01*
X428994Y563819D01*
X429165Y563666D01*
X429375Y563495D01*
X429622Y563285D01*
X429870Y563057D01*
X430136Y562790D01*
X430403Y562486D01*
X430669Y562162D01*
X430955Y561800D01*
X431221Y561420D01*
X431488Y561001D01*
X431736Y560563D01*
X431964Y560087D01*
X431983Y560049D01*
X432021Y559972D01*
X432078Y559820D01*
X432154Y559630D01*
X432231Y559382D01*
X432345Y559078D01*
X432440Y558735D01*
X432554Y558354D01*
X432668Y557916D01*
X432764Y557459D01*
X432878Y556964D01*
X432954Y556431D01*
X433030Y555860D01*
X433087Y555270D01*
X433125Y554660D01*
X433145Y554013D01*
Y552509D01*
Y552471D01*
Y552356D01*
Y552166D01*
X433125Y551919D01*
X433106Y551633D01*
X433087Y551271D01*
X433049Y550890D01*
X432992Y550453D01*
X432935Y549996D01*
X432859Y549501D01*
X432764Y549006D01*
X432649Y548491D01*
X432516Y547958D01*
X432345Y547444D01*
X432173Y546930D01*
X431964Y546435D01*
X431945Y546397D01*
X431907Y546321D01*
X431850Y546188D01*
X431755Y546016D01*
X431621Y545788D01*
X431488Y545540D01*
X431317Y545274D01*
X431107Y544969D01*
X430898Y544664D01*
X430650Y544322D01*
X430365Y543998D01*
X430079Y543674D01*
X429755Y543351D01*
X429413Y543046D01*
X429051Y542741D01*
X428651Y542475D01*
X428632Y542456D01*
X428556Y542418D01*
X428442Y542342D01*
X428270Y542265D01*
X428061Y542170D01*
X427813Y542056D01*
X427547Y541923D01*
X427223Y541808D01*
X426861Y541675D01*
X426480Y541542D01*
X426062Y541428D01*
X425624Y541332D01*
X425167Y541256D01*
X424672Y541180D01*
X424177Y541142D01*
X423643Y541123D01*
X423510D01*
X423377Y541142D01*
X423168D01*
X422920Y541161D01*
X422653Y541199D01*
X422330Y541237D01*
X421968Y541294D01*
X421606Y541370D01*
X421206Y541466D01*
X420787Y541561D01*
X420369Y541694D01*
X419931Y541865D01*
X419512Y542037D01*
X419093Y542246D01*
X418674Y542494D01*
X418655Y542513D01*
X418579Y542551D01*
X418465Y542646D01*
X418312Y542741D01*
X418141Y542894D01*
X417932Y543065D01*
X417703Y543255D01*
X417455Y543503D01*
X417189Y543750D01*
X416903Y544055D01*
X416637Y544379D01*
X416351Y544722D01*
X416085Y545102D01*
X415818Y545502D01*
X415552Y545940D01*
X415323Y546397D01*
X415304Y546435D01*
X415266Y546511D01*
X415209Y546664D01*
X415133Y546854D01*
X415037Y547082D01*
X414942Y547387D01*
X414828Y547711D01*
X414714Y548092D01*
X414600Y548511D01*
X414485Y548967D01*
X414390Y549443D01*
X414295Y549958D01*
X414219Y550510D01*
X414143Y551081D01*
X414105Y551690D01*
X414085Y552299D01*
Y554013D01*
Y554032D01*
Y554051D01*
Y554165D01*
Y554337D01*
X414105Y554584D01*
X414123Y554889D01*
X414143Y555232D01*
X414181Y555612D01*
X414238Y556050D01*
X414295Y556507D01*
X414371Y556983D01*
X414466Y557478D01*
X414580Y557992D01*
X414714Y558506D01*
X414885Y559021D01*
X415057Y559535D01*
X415266Y560030D01*
X415285Y560068D01*
X415323Y560144D01*
X415399Y560277D01*
X415494Y560468D01*
X415609Y560677D01*
X415761Y560944D01*
X415932Y561210D01*
X416142Y561515D01*
X416370Y561838D01*
X416618Y562162D01*
X416884Y562505D01*
X417189Y562828D01*
X417513Y563152D01*
X417874Y563476D01*
X418236Y563780D01*
X418636Y564047D01*
X418655Y564066D01*
X418731Y564104D01*
X418864Y564180D01*
X419017Y564276D01*
X419226Y564371D01*
X419474Y564485D01*
X419759Y564618D01*
X420064Y564752D01*
X420426Y564885D01*
X420807Y565018D01*
X421206Y565132D01*
X421644Y565228D01*
X422101Y565323D01*
X422596Y565399D01*
X423091Y565437D01*
X423605Y565456D01*
X423891D01*
X424081Y565437D01*
D02*
G37*
G36*
X390514Y507944D02*
X390704Y507906D01*
X390914Y507830D01*
X391142Y507753D01*
X391352Y507620D01*
X391542Y507449D01*
X391561Y507430D01*
X391618Y507354D01*
X391694Y507258D01*
X391771Y507106D01*
X391847Y506935D01*
X391923Y506725D01*
X391980Y506478D01*
X391999Y506211D01*
Y506173D01*
Y506097D01*
X391980Y505964D01*
X391942Y505792D01*
X391885Y505602D01*
X391809Y505393D01*
X391694Y505183D01*
X391542Y504993D01*
X391523Y504974D01*
X391466Y504916D01*
X391352Y504840D01*
X391199Y504764D01*
X391009Y504669D01*
X390780Y504593D01*
X390514Y504536D01*
X390209Y504517D01*
X390057D01*
X389905Y504536D01*
X389714Y504574D01*
X389505Y504631D01*
X389276Y504726D01*
X389067Y504840D01*
X388877Y504993D01*
X388857Y505012D01*
X388800Y505088D01*
X388743Y505183D01*
X388667Y505335D01*
X388572Y505507D01*
X388515Y505716D01*
X388458Y505945D01*
X388439Y506211D01*
Y506249D01*
Y506345D01*
X388458Y506478D01*
X388496Y506649D01*
X388553Y506840D01*
X388629Y507049D01*
X388724Y507258D01*
X388877Y507449D01*
X388896Y507468D01*
X388972Y507525D01*
X389067Y507620D01*
X389219Y507715D01*
X389410Y507792D01*
X389638Y507887D01*
X389905Y507944D01*
X390209Y507963D01*
X390362D01*
X390514Y507944D01*
D02*
G37*
G36*
X451175Y501851D02*
X451290D01*
X451442Y501832D01*
X451613Y501813D01*
X451804Y501775D01*
X452223Y501680D01*
X452699Y501546D01*
X453194Y501337D01*
X453727Y501089D01*
X453993Y500918D01*
X454241Y500747D01*
X454507Y500556D01*
X454755Y500328D01*
X455002Y500080D01*
X455231Y499814D01*
X455459Y499528D01*
X455669Y499204D01*
X455859Y498862D01*
X456031Y498481D01*
X456183Y498081D01*
X456297Y497643D01*
X456411Y497186D01*
X456488Y496672D01*
X456545Y496139D01*
X456564Y495568D01*
Y483934D01*
X453536D01*
Y495587D01*
Y495606D01*
Y495663D01*
Y495777D01*
X453517Y495892D01*
Y496063D01*
X453498Y496234D01*
X453460Y496444D01*
X453422Y496653D01*
X453327Y497110D01*
X453175Y497586D01*
X452965Y498024D01*
X452832Y498214D01*
X452679Y498405D01*
Y498424D01*
X452641Y498443D01*
X452584Y498481D01*
X452527Y498557D01*
X452432Y498614D01*
X452318Y498690D01*
X452184Y498786D01*
X452032Y498862D01*
X451842Y498957D01*
X451651Y499033D01*
X451442Y499109D01*
X451194Y499185D01*
X450928Y499243D01*
X450642Y499281D01*
X450338Y499300D01*
X450014Y499319D01*
X449881D01*
X449766Y499300D01*
X449633D01*
X449500Y499281D01*
X449138Y499224D01*
X448738Y499128D01*
X448319Y498976D01*
X447862Y498786D01*
X447443Y498519D01*
X447425D01*
X447386Y498481D01*
X447329Y498443D01*
X447253Y498386D01*
X447063Y498214D01*
X446815Y497967D01*
X446530Y497681D01*
X446244Y497339D01*
X445958Y496939D01*
X445711Y496482D01*
Y483934D01*
X442703D01*
Y501546D01*
X445559D01*
X445654Y499319D01*
X445673Y499357D01*
X445749Y499433D01*
X445863Y499547D01*
X446016Y499719D01*
X446225Y499909D01*
X446473Y500118D01*
X446739Y500366D01*
X447063Y500594D01*
X447425Y500842D01*
X447824Y501070D01*
X448262Y501280D01*
X448738Y501470D01*
X449233Y501642D01*
X449766Y501756D01*
X450338Y501851D01*
X450928Y501870D01*
X451061D01*
X451175Y501851D01*
D02*
G37*
G36*
X608808D02*
X608941D01*
X609093Y501832D01*
X609265Y501813D01*
X609474Y501775D01*
X609912Y501680D01*
X610407Y501546D01*
X610940Y501356D01*
X611473Y501109D01*
X611759Y500956D01*
X612025Y500785D01*
X612292Y500575D01*
X612558Y500366D01*
X612806Y500137D01*
X613053Y499871D01*
X613282Y499585D01*
X613491Y499281D01*
X613701Y498938D01*
X613891Y498576D01*
X614044Y498176D01*
X614177Y497757D01*
X614291Y497300D01*
X614386Y496805D01*
X614443Y496272D01*
X614462Y495720D01*
Y483934D01*
X611454D01*
Y495549D01*
Y495568D01*
Y495625D01*
Y495720D01*
X611435Y495853D01*
Y496006D01*
X611416Y496196D01*
X611378Y496386D01*
X611340Y496615D01*
X611245Y497072D01*
X611092Y497529D01*
X610864Y497986D01*
X610731Y498176D01*
X610578Y498367D01*
X610559Y498386D01*
X610540Y498405D01*
X610483Y498462D01*
X610407Y498519D01*
X610312Y498595D01*
X610197Y498671D01*
X610064Y498747D01*
X609893Y498843D01*
X609702Y498938D01*
X609493Y499014D01*
X609265Y499090D01*
X608998Y499166D01*
X608712Y499224D01*
X608389Y499281D01*
X608046Y499300D01*
X607684Y499319D01*
X607532D01*
X607399Y499300D01*
X607265Y499281D01*
X607094Y499262D01*
X606904Y499243D01*
X606713Y499185D01*
X606275Y499071D01*
X605799Y498900D01*
X605571Y498786D01*
X605342Y498652D01*
X605114Y498481D01*
X604904Y498310D01*
X604885Y498290D01*
X604866Y498272D01*
X604809Y498214D01*
X604733Y498119D01*
X604638Y498024D01*
X604543Y497910D01*
X604447Y497757D01*
X604333Y497586D01*
X604219Y497415D01*
X604105Y497205D01*
X603895Y496748D01*
X603724Y496215D01*
X603667Y495911D01*
X603629Y495606D01*
Y483934D01*
X600601D01*
Y495473D01*
Y495492D01*
Y495511D01*
Y495568D01*
Y495644D01*
X600582Y495834D01*
X600544Y496082D01*
X600487Y496368D01*
X600411Y496691D01*
X600278Y497034D01*
X600125Y497396D01*
X599935Y497757D01*
X599687Y498100D01*
X599383Y498424D01*
X599021Y498709D01*
X598583Y498957D01*
X598336Y499071D01*
X598069Y499147D01*
X597802Y499224D01*
X597498Y499281D01*
X597174Y499300D01*
X596831Y499319D01*
X596698D01*
X596546Y499300D01*
X596355Y499281D01*
X596108Y499243D01*
X595841Y499185D01*
X595537Y499109D01*
X595213Y498995D01*
X594889Y498862D01*
X594547Y498709D01*
X594204Y498500D01*
X593880Y498252D01*
X593556Y497967D01*
X593271Y497624D01*
X593004Y497224D01*
X592776Y496786D01*
Y483934D01*
X589768D01*
Y501546D01*
X592624D01*
X592700Y499585D01*
X592719Y499604D01*
X592795Y499681D01*
X592909Y499795D01*
X593061Y499947D01*
X593252Y500118D01*
X593480Y500309D01*
X593766Y500518D01*
X594090Y500728D01*
X594432Y500937D01*
X594832Y501147D01*
X595251Y501337D01*
X595727Y501508D01*
X596222Y501661D01*
X596755Y501775D01*
X597326Y501851D01*
X597917Y501870D01*
X598088D01*
X598259Y501851D01*
X598507Y501832D01*
X598811Y501775D01*
X599154Y501718D01*
X599535Y501642D01*
X599935Y501508D01*
X600354Y501375D01*
X600773Y501185D01*
X601192Y500956D01*
X601610Y500671D01*
X601991Y500347D01*
X602353Y499966D01*
X602677Y499528D01*
X602962Y499033D01*
X602981Y499052D01*
X603000Y499090D01*
X603057Y499147D01*
X603115Y499243D01*
X603210Y499357D01*
X603305Y499471D01*
X603572Y499757D01*
X603895Y500080D01*
X604295Y500423D01*
X604733Y500766D01*
X605228Y501070D01*
X605247Y501089D01*
X605285Y501109D01*
X605380Y501147D01*
X605476Y501204D01*
X605609Y501261D01*
X605780Y501318D01*
X605971Y501394D01*
X606180Y501470D01*
X606409Y501546D01*
X606656Y501622D01*
X606942Y501680D01*
X607227Y501737D01*
X607875Y501832D01*
X608560Y501870D01*
X608712D01*
X608808Y501851D01*
D02*
G37*
G36*
X579600D02*
X579733D01*
X579886Y501832D01*
X580057Y501813D01*
X580267Y501775D01*
X580704Y501680D01*
X581200Y501546D01*
X581733Y501356D01*
X582266Y501109D01*
X582551Y500956D01*
X582818Y500785D01*
X583084Y500575D01*
X583351Y500366D01*
X583599Y500137D01*
X583846Y499871D01*
X584075Y499585D01*
X584284Y499281D01*
X584493Y498938D01*
X584684Y498576D01*
X584836Y498176D01*
X584969Y497757D01*
X585084Y497300D01*
X585179Y496805D01*
X585236Y496272D01*
X585255Y495720D01*
Y483934D01*
X582247D01*
Y495549D01*
Y495568D01*
Y495625D01*
Y495720D01*
X582228Y495853D01*
Y496006D01*
X582209Y496196D01*
X582171Y496386D01*
X582132Y496615D01*
X582037Y497072D01*
X581885Y497529D01*
X581657Y497986D01*
X581523Y498176D01*
X581371Y498367D01*
X581352Y498386D01*
X581333Y498405D01*
X581276Y498462D01*
X581200Y498519D01*
X581104Y498595D01*
X580990Y498671D01*
X580857Y498747D01*
X580685Y498843D01*
X580495Y498938D01*
X580286Y499014D01*
X580057Y499090D01*
X579791Y499166D01*
X579505Y499224D01*
X579181Y499281D01*
X578839Y499300D01*
X578477Y499319D01*
X578325D01*
X578191Y499300D01*
X578058Y499281D01*
X577887Y499262D01*
X577696Y499243D01*
X577506Y499185D01*
X577068Y499071D01*
X576592Y498900D01*
X576363Y498786D01*
X576135Y498652D01*
X575906Y498481D01*
X575697Y498310D01*
X575678Y498290D01*
X575659Y498272D01*
X575602Y498214D01*
X575526Y498119D01*
X575430Y498024D01*
X575335Y497910D01*
X575240Y497757D01*
X575126Y497586D01*
X575011Y497415D01*
X574897Y497205D01*
X574688Y496748D01*
X574516Y496215D01*
X574459Y495911D01*
X574421Y495606D01*
Y483934D01*
X571394D01*
Y495473D01*
Y495492D01*
Y495511D01*
Y495568D01*
Y495644D01*
X571375Y495834D01*
X571337Y496082D01*
X571280Y496368D01*
X571204Y496691D01*
X571070Y497034D01*
X570918Y497396D01*
X570727Y497757D01*
X570480Y498100D01*
X570175Y498424D01*
X569814Y498709D01*
X569376Y498957D01*
X569128Y499071D01*
X568862Y499147D01*
X568595Y499224D01*
X568290Y499281D01*
X567967Y499300D01*
X567624Y499319D01*
X567491D01*
X567338Y499300D01*
X567148Y499281D01*
X566900Y499243D01*
X566634Y499185D01*
X566329Y499109D01*
X566006Y498995D01*
X565682Y498862D01*
X565339Y498709D01*
X564996Y498500D01*
X564673Y498252D01*
X564349Y497967D01*
X564064Y497624D01*
X563797Y497224D01*
X563568Y496786D01*
Y483934D01*
X560560D01*
Y501546D01*
X563416D01*
X563492Y499585D01*
X563511Y499604D01*
X563588Y499681D01*
X563702Y499795D01*
X563854Y499947D01*
X564045Y500118D01*
X564273Y500309D01*
X564559Y500518D01*
X564882Y500728D01*
X565225Y500937D01*
X565625Y501147D01*
X566044Y501337D01*
X566520Y501508D01*
X567015Y501661D01*
X567548Y501775D01*
X568119Y501851D01*
X568709Y501870D01*
X568881D01*
X569052Y501851D01*
X569300Y501832D01*
X569604Y501775D01*
X569947Y501718D01*
X570328Y501642D01*
X570727Y501508D01*
X571146Y501375D01*
X571565Y501185D01*
X571984Y500956D01*
X572403Y500671D01*
X572784Y500347D01*
X573146Y499966D01*
X573469Y499528D01*
X573755Y499033D01*
X573774Y499052D01*
X573793Y499090D01*
X573850Y499147D01*
X573907Y499243D01*
X574002Y499357D01*
X574098Y499471D01*
X574364Y499757D01*
X574688Y500080D01*
X575088Y500423D01*
X575526Y500766D01*
X576021Y501070D01*
X576040Y501089D01*
X576078Y501109D01*
X576173Y501147D01*
X576268Y501204D01*
X576401Y501261D01*
X576573Y501318D01*
X576763Y501394D01*
X576973Y501470D01*
X577201Y501546D01*
X577449Y501622D01*
X577734Y501680D01*
X578020Y501737D01*
X578667Y501832D01*
X579353Y501870D01*
X579505D01*
X579600Y501851D01*
D02*
G37*
G36*
X403175D02*
X403385D01*
X403632Y501832D01*
X403937Y501794D01*
X404261Y501737D01*
X404623Y501680D01*
X405003Y501584D01*
X405384Y501489D01*
X405784Y501356D01*
X406203Y501204D01*
X406603Y501032D01*
X407003Y500823D01*
X407383Y500575D01*
X407745Y500309D01*
X407764Y500290D01*
X407821Y500233D01*
X407916Y500156D01*
X408031Y500023D01*
X408183Y499871D01*
X408335Y499699D01*
X408507Y499490D01*
X408678Y499243D01*
X408849Y498976D01*
X409021Y498671D01*
X409173Y498348D01*
X409325Y498005D01*
X409440Y497624D01*
X409535Y497224D01*
X409592Y496805D01*
X409611Y496368D01*
X406584D01*
Y496386D01*
Y496425D01*
Y496482D01*
X406565Y496577D01*
X406546Y496691D01*
X406527Y496805D01*
X406450Y497091D01*
X406336Y497434D01*
X406146Y497795D01*
X406032Y497967D01*
X405879Y498157D01*
X405727Y498329D01*
X405537Y498500D01*
X405517Y498519D01*
X405498Y498538D01*
X405422Y498576D01*
X405346Y498633D01*
X405251Y498709D01*
X405118Y498786D01*
X404984Y498862D01*
X404813Y498957D01*
X404432Y499109D01*
X403975Y499262D01*
X403461Y499357D01*
X403175Y499395D01*
X402738D01*
X402623Y499376D01*
X402490D01*
X402319Y499357D01*
X401957Y499300D01*
X401538Y499224D01*
X401119Y499090D01*
X400700Y498919D01*
X400319Y498671D01*
X400301D01*
X400281Y498633D01*
X400167Y498538D01*
X400034Y498386D01*
X399863Y498176D01*
X399691Y497891D01*
X399539Y497586D01*
X399425Y497205D01*
X399406Y497015D01*
X399387Y496805D01*
Y496786D01*
Y496748D01*
Y496691D01*
X399406Y496634D01*
X399425Y496425D01*
X399501Y496177D01*
X399596Y495911D01*
X399748Y495644D01*
X399958Y495377D01*
X400091Y495263D01*
X400243Y495149D01*
X400262D01*
X400281Y495130D01*
X400339Y495092D01*
X400415Y495054D01*
X400510Y494997D01*
X400643Y494940D01*
X400796Y494882D01*
X400967Y494806D01*
X401157Y494730D01*
X401386Y494654D01*
X401652Y494559D01*
X401938Y494463D01*
X402243Y494368D01*
X402585Y494273D01*
X402966Y494178D01*
X403366Y494083D01*
X403385D01*
X403461Y494064D01*
X403575Y494026D01*
X403747Y493988D01*
X403937Y493949D01*
X404147Y493892D01*
X404394Y493816D01*
X404661Y493740D01*
X405251Y493569D01*
X405841Y493359D01*
X406450Y493131D01*
X406736Y493016D01*
X407003Y492883D01*
X407022D01*
X407060Y492845D01*
X407136Y492807D01*
X407231Y492769D01*
X407345Y492693D01*
X407479Y492617D01*
X407783Y492426D01*
X408126Y492179D01*
X408469Y491893D01*
X408792Y491569D01*
X409078Y491208D01*
Y491189D01*
X409116Y491170D01*
X409135Y491113D01*
X409192Y491036D01*
X409230Y490941D01*
X409287Y490827D01*
X409421Y490541D01*
X409554Y490179D01*
X409649Y489780D01*
X409725Y489323D01*
X409763Y488809D01*
Y488790D01*
Y488713D01*
X409744Y488580D01*
X409725Y488409D01*
X409706Y488218D01*
X409668Y487990D01*
X409611Y487723D01*
X409535Y487457D01*
X409421Y487152D01*
X409306Y486847D01*
X409154Y486524D01*
X408964Y486219D01*
X408754Y485895D01*
X408507Y485591D01*
X408202Y485305D01*
X407878Y485020D01*
X407859Y485001D01*
X407783Y484963D01*
X407688Y484886D01*
X407536Y484791D01*
X407345Y484696D01*
X407117Y484582D01*
X406869Y484448D01*
X406565Y484315D01*
X406222Y484182D01*
X405860Y484049D01*
X405460Y483934D01*
X405022Y483839D01*
X404546Y483744D01*
X404051Y483668D01*
X403537Y483630D01*
X402985Y483611D01*
X402776D01*
X402623Y483630D01*
X402452D01*
X402223Y483649D01*
X401995Y483668D01*
X401728Y483706D01*
X401443Y483744D01*
X401138Y483801D01*
X400510Y483915D01*
X399863Y484106D01*
X399234Y484353D01*
X399215D01*
X399158Y484391D01*
X399082Y484429D01*
X398968Y484486D01*
X398834Y484563D01*
X398682Y484658D01*
X398320Y484886D01*
X397901Y485191D01*
X397483Y485534D01*
X397083Y485953D01*
X396702Y486429D01*
X396683Y486448D01*
X396664Y486486D01*
X396626Y486562D01*
X396569Y486657D01*
X396493Y486790D01*
X396416Y486943D01*
X396340Y487114D01*
X396245Y487304D01*
X396074Y487742D01*
X395940Y488237D01*
X395826Y488771D01*
X395807Y489056D01*
X395788Y489342D01*
X398796D01*
Y489323D01*
Y489285D01*
X398815Y489189D01*
X398834Y489094D01*
X398853Y488961D01*
X398872Y488828D01*
X398968Y488485D01*
X399120Y488104D01*
X399329Y487704D01*
X399463Y487495D01*
X399615Y487304D01*
X399805Y487114D01*
X399996Y486943D01*
X400015D01*
X400053Y486905D01*
X400110Y486867D01*
X400205Y486809D01*
X400319Y486733D01*
X400453Y486657D01*
X400624Y486581D01*
X400796Y486505D01*
X401005Y486429D01*
X401233Y486352D01*
X401481Y486276D01*
X401748Y486200D01*
X402033Y486143D01*
X402319Y486105D01*
X402642Y486086D01*
X402985Y486067D01*
X403157D01*
X403271Y486086D01*
X403423D01*
X403575Y486105D01*
X403766Y486124D01*
X403975Y486162D01*
X404413Y486238D01*
X404870Y486352D01*
X405308Y486524D01*
X405727Y486752D01*
X405746D01*
X405765Y486790D01*
X405879Y486886D01*
X406051Y487038D01*
X406241Y487247D01*
X406431Y487514D01*
X406603Y487818D01*
X406717Y488180D01*
X406736Y488390D01*
X406755Y488599D01*
Y488618D01*
Y488656D01*
Y488713D01*
X406736Y488809D01*
X406717Y489018D01*
X406641Y489285D01*
X406527Y489589D01*
X406374Y489913D01*
X406146Y490218D01*
X405993Y490351D01*
X405841Y490484D01*
X405822D01*
X405803Y490522D01*
X405746Y490560D01*
X405670Y490598D01*
X405555Y490656D01*
X405441Y490732D01*
X405270Y490808D01*
X405099Y490884D01*
X404889Y490979D01*
X404661Y491074D01*
X404394Y491170D01*
X404108Y491265D01*
X403785Y491360D01*
X403442Y491455D01*
X403061Y491550D01*
X402642Y491646D01*
X402623D01*
X402547Y491665D01*
X402414Y491703D01*
X402262Y491741D01*
X402071Y491779D01*
X401843Y491836D01*
X401595Y491912D01*
X401329Y491988D01*
X400757Y492160D01*
X400148Y492350D01*
X399558Y492579D01*
X399272Y492693D01*
X399006Y492826D01*
X398987D01*
X398949Y492864D01*
X398872Y492902D01*
X398796Y492940D01*
X398682Y493016D01*
X398549Y493093D01*
X398263Y493283D01*
X397939Y493531D01*
X397616Y493797D01*
X397292Y494102D01*
X397026Y494445D01*
Y494463D01*
X397007Y494483D01*
X396969Y494540D01*
X396930Y494616D01*
X396816Y494806D01*
X396702Y495092D01*
X396588Y495415D01*
X396473Y495796D01*
X396397Y496234D01*
X396378Y496710D01*
Y496729D01*
Y496805D01*
X396397Y496920D01*
X396416Y497072D01*
X396435Y497262D01*
X396473Y497472D01*
X396531Y497719D01*
X396607Y497967D01*
X396702Y498252D01*
X396816Y498557D01*
X396969Y498843D01*
X397159Y499166D01*
X397368Y499471D01*
X397597Y499776D01*
X397882Y500080D01*
X398206Y500366D01*
X398225Y500385D01*
X398282Y500423D01*
X398396Y500499D01*
X398530Y500594D01*
X398720Y500709D01*
X398930Y500842D01*
X399196Y500975D01*
X399482Y501127D01*
X399805Y501261D01*
X400148Y501394D01*
X400548Y501527D01*
X400948Y501642D01*
X401405Y501737D01*
X401862Y501813D01*
X402376Y501851D01*
X402890Y501870D01*
X403023D01*
X403175Y501851D01*
D02*
G37*
G36*
X468426D02*
X468635D01*
X468883Y501813D01*
X469187Y501775D01*
X469511Y501718D01*
X469873Y501642D01*
X470253Y501546D01*
X470653Y501432D01*
X471053Y501280D01*
X471472Y501109D01*
X471891Y500918D01*
X472291Y500671D01*
X472691Y500404D01*
X473071Y500080D01*
X473090Y500061D01*
X473147Y500004D01*
X473262Y499890D01*
X473376Y499757D01*
X473528Y499585D01*
X473700Y499376D01*
X473871Y499128D01*
X474061Y498843D01*
X474252Y498538D01*
X474442Y498176D01*
X474614Y497815D01*
X474766Y497396D01*
X474918Y496958D01*
X475033Y496501D01*
X475109Y496006D01*
X475147Y495492D01*
X472310D01*
Y495511D01*
Y495568D01*
X472291Y495663D01*
X472272Y495777D01*
X472253Y495911D01*
X472215Y496082D01*
X472157Y496272D01*
X472100Y496482D01*
X471929Y496920D01*
X471700Y497396D01*
X471567Y497624D01*
X471396Y497853D01*
X471224Y498081D01*
X471015Y498290D01*
X470996Y498310D01*
X470958Y498348D01*
X470901Y498386D01*
X470806Y498462D01*
X470691Y498538D01*
X470558Y498633D01*
X470406Y498747D01*
X470215Y498843D01*
X470025Y498938D01*
X469797Y499052D01*
X469320Y499224D01*
X469035Y499300D01*
X468749Y499357D01*
X468464Y499376D01*
X468140Y499395D01*
X468045D01*
X467931Y499376D01*
X467759D01*
X467569Y499338D01*
X467359Y499300D01*
X467112Y499262D01*
X466845Y499185D01*
X466560Y499109D01*
X466274Y498995D01*
X465969Y498862D01*
X465684Y498690D01*
X465379Y498500D01*
X465094Y498290D01*
X464827Y498024D01*
X464579Y497738D01*
X464561Y497719D01*
X464522Y497662D01*
X464465Y497567D01*
X464389Y497434D01*
X464294Y497262D01*
X464180Y497053D01*
X464065Y496805D01*
X463951Y496520D01*
X463837Y496196D01*
X463723Y495853D01*
X463609Y495454D01*
X463513Y495016D01*
X463437Y494559D01*
X463380Y494064D01*
X463342Y493531D01*
X463323Y492959D01*
Y492388D01*
Y492350D01*
Y492255D01*
Y492102D01*
X463342Y491893D01*
X463361Y491627D01*
X463399Y491341D01*
X463437Y491017D01*
X463475Y490656D01*
X463551Y490294D01*
X463627Y489913D01*
X463723Y489513D01*
X463856Y489132D01*
X463989Y488752D01*
X464161Y488371D01*
X464351Y488028D01*
X464579Y487704D01*
X464599Y487685D01*
X464637Y487628D01*
X464713Y487552D01*
X464808Y487457D01*
X464941Y487324D01*
X465094Y487190D01*
X465284Y487038D01*
X465493Y486886D01*
X465741Y486733D01*
X466008Y486581D01*
X466293Y486448D01*
X466617Y486314D01*
X466959Y486219D01*
X467340Y486143D01*
X467740Y486086D01*
X468159Y486067D01*
X468311D01*
X468426Y486086D01*
X468578Y486105D01*
X468730Y486124D01*
X468921Y486143D01*
X469111Y486181D01*
X469568Y486295D01*
X470025Y486486D01*
X470272Y486581D01*
X470520Y486714D01*
X470749Y486867D01*
X470977Y487038D01*
X470996Y487057D01*
X471034Y487076D01*
X471091Y487133D01*
X471167Y487209D01*
X471263Y487304D01*
X471358Y487419D01*
X471586Y487704D01*
X471834Y488066D01*
X472043Y488485D01*
X472215Y488942D01*
X472272Y489209D01*
X472310Y489475D01*
X475147D01*
Y489456D01*
Y489399D01*
X475128Y489323D01*
Y489227D01*
X475109Y489094D01*
X475071Y488923D01*
X475033Y488752D01*
X474994Y488561D01*
X474861Y488104D01*
X474671Y487628D01*
X474423Y487114D01*
X474271Y486867D01*
X474099Y486600D01*
X474081Y486581D01*
X474061Y486543D01*
X474004Y486467D01*
X473928Y486372D01*
X473833Y486257D01*
X473719Y486124D01*
X473585Y485972D01*
X473433Y485819D01*
X473052Y485458D01*
X472614Y485096D01*
X472119Y484734D01*
X471548Y484410D01*
X471529D01*
X471472Y484372D01*
X471396Y484334D01*
X471263Y484277D01*
X471129Y484220D01*
X470939Y484163D01*
X470749Y484087D01*
X470520Y484011D01*
X470272Y483934D01*
X470025Y483858D01*
X469454Y483744D01*
X468825Y483649D01*
X468159Y483611D01*
X468007D01*
X467816Y483630D01*
X467569Y483649D01*
X467264Y483687D01*
X466902Y483744D01*
X466522Y483820D01*
X466103Y483915D01*
X465646Y484030D01*
X465170Y484201D01*
X464694Y484391D01*
X464218Y484620D01*
X463742Y484905D01*
X463285Y485210D01*
X462847Y485591D01*
X462428Y486010D01*
X462409Y486029D01*
X462333Y486124D01*
X462238Y486257D01*
X462104Y486448D01*
X461933Y486695D01*
X461762Y486981D01*
X461571Y487343D01*
X461381Y487723D01*
X461171Y488180D01*
X460981Y488656D01*
X460810Y489209D01*
X460638Y489780D01*
X460505Y490408D01*
X460410Y491093D01*
X460334Y491798D01*
X460315Y492559D01*
Y493074D01*
Y493112D01*
Y493188D01*
Y493321D01*
X460334Y493511D01*
X460353Y493740D01*
X460372Y493988D01*
X460391Y494292D01*
X460429Y494616D01*
X460486Y494959D01*
X460543Y495320D01*
X460714Y496082D01*
X460810Y496482D01*
X460943Y496882D01*
X461076Y497262D01*
X461247Y497643D01*
X461267Y497662D01*
X461286Y497738D01*
X461343Y497834D01*
X461419Y497967D01*
X461514Y498138D01*
X461647Y498329D01*
X461781Y498557D01*
X461952Y498786D01*
X462123Y499033D01*
X462333Y499281D01*
X462561Y499547D01*
X462790Y499795D01*
X463056Y500042D01*
X463342Y500290D01*
X463647Y500537D01*
X463970Y500747D01*
X463989Y500766D01*
X464046Y500804D01*
X464142Y500842D01*
X464294Y500918D01*
X464446Y501013D01*
X464656Y501109D01*
X464884Y501204D01*
X465151Y501318D01*
X465455Y501413D01*
X465760Y501508D01*
X466103Y501604D01*
X466483Y501699D01*
X466864Y501775D01*
X467264Y501813D01*
X467702Y501851D01*
X468140Y501870D01*
X468273D01*
X468426Y501851D01*
D02*
G37*
G36*
X514007Y483934D02*
X510980D01*
Y503983D01*
X504925Y501756D01*
Y504498D01*
X513550Y507734D01*
X514007D01*
Y483934D01*
D02*
G37*
G36*
X431926Y501851D02*
X432193Y501832D01*
X432478Y501794D01*
X432821Y501737D01*
X433163Y501680D01*
X433544Y501604D01*
X433925Y501508D01*
X434325Y501375D01*
X434725Y501223D01*
X435125Y501051D01*
X435486Y500842D01*
X435848Y500613D01*
X436191Y500347D01*
X436210Y500328D01*
X436267Y500271D01*
X436343Y500195D01*
X436457Y500061D01*
X436591Y499909D01*
X436743Y499719D01*
X436895Y499509D01*
X437067Y499243D01*
X437238Y498957D01*
X437390Y498652D01*
X437543Y498310D01*
X437676Y497929D01*
X437790Y497529D01*
X437885Y497091D01*
X437943Y496634D01*
X437981Y496139D01*
Y488047D01*
Y488028D01*
Y487933D01*
Y487818D01*
X438000Y487647D01*
Y487438D01*
X438019Y487209D01*
X438038Y486943D01*
X438057Y486657D01*
X438133Y486029D01*
X438247Y485381D01*
X438400Y484753D01*
X438495Y484468D01*
X438609Y484182D01*
Y483934D01*
X435448D01*
X435429Y483953D01*
X435410Y484030D01*
X435353Y484163D01*
X435296Y484353D01*
X435239Y484620D01*
X435163Y484925D01*
X435087Y485324D01*
X435068Y485534D01*
X435029Y485781D01*
X435010Y485762D01*
X434934Y485686D01*
X434820Y485591D01*
X434649Y485439D01*
X434458Y485286D01*
X434211Y485096D01*
X433925Y484905D01*
X433621Y484696D01*
X433278Y484486D01*
X432878Y484296D01*
X432478Y484106D01*
X432040Y483953D01*
X431564Y483820D01*
X431069Y483706D01*
X430555Y483630D01*
X430022Y483611D01*
X429908D01*
X429774Y483630D01*
X429584D01*
X429375Y483649D01*
X429108Y483687D01*
X428822Y483725D01*
X428518Y483801D01*
X428175Y483877D01*
X427832Y483973D01*
X427471Y484087D01*
X427109Y484239D01*
X426747Y484391D01*
X426404Y484601D01*
X426062Y484810D01*
X425738Y485077D01*
X425719Y485096D01*
X425662Y485153D01*
X425586Y485229D01*
X425471Y485343D01*
X425357Y485496D01*
X425224Y485667D01*
X425071Y485857D01*
X424919Y486086D01*
X424748Y486352D01*
X424615Y486638D01*
X424462Y486943D01*
X424348Y487266D01*
X424234Y487628D01*
X424158Y487990D01*
X424100Y488390D01*
X424081Y488809D01*
Y488847D01*
Y488923D01*
X424100Y489075D01*
X424120Y489266D01*
X424139Y489494D01*
X424196Y489761D01*
X424253Y490065D01*
X424348Y490389D01*
X424443Y490713D01*
X424595Y491074D01*
X424748Y491417D01*
X424957Y491779D01*
X425186Y492141D01*
X425471Y492464D01*
X425795Y492788D01*
X426157Y493093D01*
X426176Y493112D01*
X426252Y493150D01*
X426366Y493226D01*
X426538Y493340D01*
X426766Y493454D01*
X427014Y493569D01*
X427318Y493721D01*
X427680Y493854D01*
X428080Y493988D01*
X428518Y494140D01*
X428994Y494254D01*
X429527Y494387D01*
X430098Y494483D01*
X430707Y494559D01*
X431355Y494597D01*
X432040Y494616D01*
X434972D01*
Y495987D01*
Y496006D01*
Y496063D01*
Y496139D01*
X434953Y496253D01*
Y496386D01*
X434915Y496539D01*
X434858Y496901D01*
X434744Y497300D01*
X434573Y497719D01*
X434458Y497929D01*
X434344Y498119D01*
X434192Y498310D01*
X434020Y498500D01*
X434001Y498519D01*
X433982Y498538D01*
X433925Y498595D01*
X433849Y498652D01*
X433754Y498729D01*
X433621Y498805D01*
X433487Y498881D01*
X433335Y498976D01*
X433145Y499071D01*
X432935Y499147D01*
X432707Y499224D01*
X432459Y499300D01*
X432193Y499357D01*
X431907Y499414D01*
X431583Y499433D01*
X431259Y499452D01*
X431107D01*
X430993Y499433D01*
X430860D01*
X430688Y499414D01*
X430517Y499376D01*
X430307Y499357D01*
X429889Y499262D01*
X429432Y499109D01*
X428975Y498900D01*
X428746Y498786D01*
X428537Y498633D01*
X428518D01*
X428499Y498595D01*
X428442Y498557D01*
X428365Y498481D01*
X428194Y498310D01*
X428004Y498081D01*
X427794Y497795D01*
X427623Y497453D01*
X427547Y497262D01*
X427490Y497072D01*
X427471Y496863D01*
X427452Y496653D01*
X424424D01*
Y496672D01*
Y496710D01*
Y496786D01*
X424443Y496882D01*
X424462Y496996D01*
X424481Y497129D01*
X424538Y497472D01*
X424653Y497853D01*
X424824Y498272D01*
X424919Y498500D01*
X425052Y498729D01*
X425186Y498957D01*
X425357Y499185D01*
X425376Y499204D01*
X425395Y499243D01*
X425452Y499300D01*
X425528Y499395D01*
X425624Y499490D01*
X425738Y499623D01*
X425871Y499757D01*
X426043Y499890D01*
X426404Y500214D01*
X426842Y500537D01*
X427337Y500861D01*
X427909Y501147D01*
X427927D01*
X427985Y501185D01*
X428061Y501223D01*
X428194Y501261D01*
X428346Y501318D01*
X428518Y501375D01*
X428727Y501432D01*
X428956Y501508D01*
X429203Y501584D01*
X429470Y501642D01*
X430079Y501756D01*
X430726Y501832D01*
X431431Y501870D01*
X431716D01*
X431926Y501851D01*
D02*
G37*
G36*
X391694Y483934D02*
X388686D01*
Y501546D01*
X391694D01*
Y483934D01*
D02*
G37*
G36*
X374235Y507601D02*
X374501Y507582D01*
X374825Y507544D01*
X375168Y507506D01*
X375568Y507449D01*
X375967Y507373D01*
X376405Y507277D01*
X376862Y507182D01*
X377319Y507049D01*
X377795Y506878D01*
X378271Y506706D01*
X378728Y506497D01*
X379185Y506249D01*
X379204Y506230D01*
X379299Y506192D01*
X379414Y506116D01*
X379585Y506002D01*
X379775Y505849D01*
X380004Y505678D01*
X380270Y505488D01*
X380537Y505240D01*
X380823Y504993D01*
X381127Y504688D01*
X381432Y504383D01*
X381736Y504022D01*
X382041Y503641D01*
X382327Y503241D01*
X382612Y502803D01*
X382860Y502346D01*
X382879Y502327D01*
X382917Y502232D01*
X382974Y502099D01*
X383069Y501908D01*
X383165Y501661D01*
X383279Y501375D01*
X383393Y501051D01*
X383507Y500690D01*
X383641Y500271D01*
X383755Y499833D01*
X383869Y499357D01*
X383964Y498843D01*
X384040Y498310D01*
X384117Y497738D01*
X384155Y497167D01*
X384174Y496558D01*
Y495054D01*
Y495016D01*
Y494901D01*
Y494730D01*
X384155Y494483D01*
X384136Y494197D01*
X384097Y493854D01*
X384059Y493473D01*
X384021Y493055D01*
X383945Y492617D01*
X383850Y492141D01*
X383755Y491665D01*
X383621Y491151D01*
X383488Y490656D01*
X383298Y490141D01*
X383107Y489646D01*
X382879Y489170D01*
X382860Y489151D01*
X382822Y489056D01*
X382746Y488923D01*
X382631Y488752D01*
X382498Y488542D01*
X382346Y488314D01*
X382155Y488028D01*
X381927Y487742D01*
X381679Y487438D01*
X381413Y487114D01*
X381108Y486809D01*
X380785Y486486D01*
X380423Y486162D01*
X380042Y485857D01*
X379623Y485572D01*
X379185Y485305D01*
X379166Y485286D01*
X379071Y485248D01*
X378938Y485172D01*
X378766Y485096D01*
X378538Y485001D01*
X378252Y484886D01*
X377947Y484753D01*
X377586Y484620D01*
X377186Y484506D01*
X376767Y484372D01*
X376310Y484258D01*
X375815Y484163D01*
X375301Y484068D01*
X374749Y483991D01*
X374178Y483953D01*
X373587Y483934D01*
X367038D01*
Y507620D01*
X374025D01*
X374235Y507601D01*
D02*
G37*
G36*
X553363Y505088D02*
X552659D01*
X552468Y505069D01*
X552240Y505050D01*
X551935Y505012D01*
X551592Y504955D01*
X551212Y504897D01*
X550793Y504802D01*
X550355Y504688D01*
X549898Y504536D01*
X549441Y504383D01*
X548965Y504174D01*
X548508Y503945D01*
X548051Y503660D01*
X547613Y503355D01*
X547213Y502993D01*
X547194Y502974D01*
X547118Y502898D01*
X547023Y502784D01*
X546889Y502613D01*
X546718Y502422D01*
X546547Y502156D01*
X546337Y501870D01*
X546128Y501527D01*
X545918Y501147D01*
X545709Y500728D01*
X545519Y500252D01*
X545328Y499757D01*
X545157Y499204D01*
X545005Y498614D01*
X544890Y497986D01*
X544814Y497320D01*
X544833Y497339D01*
X544909Y497415D01*
X545005Y497510D01*
X545157Y497662D01*
X545347Y497815D01*
X545576Y498005D01*
X545842Y498195D01*
X546147Y498405D01*
X546490Y498595D01*
X546889Y498786D01*
X547308Y498976D01*
X547746Y499128D01*
X548241Y499281D01*
X548774Y499376D01*
X549327Y499452D01*
X549917Y499471D01*
X550050D01*
X550221Y499452D01*
X550431Y499433D01*
X550697Y499414D01*
X550983Y499357D01*
X551326Y499281D01*
X551687Y499204D01*
X552068Y499090D01*
X552468Y498938D01*
X552887Y498767D01*
X553306Y498557D01*
X553706Y498290D01*
X554106Y498005D01*
X554486Y497662D01*
X554848Y497281D01*
X554867Y497262D01*
X554924Y497186D01*
X555020Y497053D01*
X555134Y496882D01*
X555286Y496672D01*
X555438Y496406D01*
X555591Y496101D01*
X555781Y495758D01*
X555953Y495377D01*
X556105Y494959D01*
X556276Y494483D01*
X556409Y493988D01*
X556524Y493454D01*
X556619Y492883D01*
X556676Y492274D01*
X556695Y491646D01*
Y491627D01*
Y491608D01*
Y491550D01*
Y491493D01*
X556676Y491303D01*
X556657Y491036D01*
X556638Y490732D01*
X556581Y490370D01*
X556524Y489970D01*
X556448Y489551D01*
X556333Y489094D01*
X556200Y488618D01*
X556048Y488123D01*
X555857Y487647D01*
X555629Y487152D01*
X555362Y486676D01*
X555058Y486219D01*
X554696Y485800D01*
X554677Y485781D01*
X554601Y485705D01*
X554486Y485591D01*
X554334Y485458D01*
X554144Y485286D01*
X553896Y485115D01*
X553611Y484905D01*
X553287Y484715D01*
X552925Y484506D01*
X552525Y484296D01*
X552087Y484125D01*
X551611Y483953D01*
X551097Y483820D01*
X550564Y483706D01*
X549974Y483630D01*
X549365Y483611D01*
X549212D01*
X549041Y483630D01*
X548793Y483649D01*
X548508Y483687D01*
X548184Y483744D01*
X547803Y483839D01*
X547403Y483934D01*
X546966Y484068D01*
X546528Y484239D01*
X546052Y484468D01*
X545595Y484715D01*
X545138Y485020D01*
X544681Y485362D01*
X544262Y485762D01*
X543843Y486219D01*
X543824Y486257D01*
X543748Y486333D01*
X543653Y486486D01*
X543519Y486695D01*
X543348Y486943D01*
X543177Y487266D01*
X542986Y487628D01*
X542796Y488047D01*
X542586Y488504D01*
X542396Y488999D01*
X542225Y489551D01*
X542053Y490161D01*
X541920Y490789D01*
X541825Y491474D01*
X541749Y492179D01*
X541730Y492940D01*
Y494102D01*
Y494121D01*
Y494178D01*
Y494273D01*
Y494387D01*
X541749Y494540D01*
Y494730D01*
X541768Y494940D01*
Y495168D01*
X541787Y495435D01*
X541806Y495720D01*
X541844Y496025D01*
X541882Y496348D01*
X541958Y497053D01*
X542072Y497795D01*
X542225Y498595D01*
X542415Y499414D01*
X542625Y500233D01*
X542910Y501070D01*
X543215Y501870D01*
X543596Y502670D01*
X544014Y503393D01*
X544509Y504079D01*
Y504098D01*
X544548Y504117D01*
X544643Y504231D01*
X544814Y504402D01*
X545043Y504631D01*
X545328Y504878D01*
X545690Y505183D01*
X546109Y505488D01*
X546604Y505830D01*
X547156Y506154D01*
X547765Y506478D01*
X548451Y506763D01*
X549193Y507049D01*
X550012Y507277D01*
X550888Y507468D01*
X551821Y507582D01*
X552316Y507620D01*
X552830Y507639D01*
X553363D01*
Y505088D01*
D02*
G37*
G36*
X530572Y507925D02*
X530839Y507906D01*
X531162Y507868D01*
X531524Y507810D01*
X531924Y507734D01*
X532343Y507639D01*
X532800Y507506D01*
X533257Y507354D01*
X533733Y507144D01*
X534190Y506916D01*
X534647Y506630D01*
X535066Y506306D01*
X535465Y505926D01*
X535827Y505488D01*
X535846Y505469D01*
X535903Y505373D01*
X535999Y505221D01*
X536113Y505031D01*
X536246Y504764D01*
X536398Y504440D01*
X536570Y504060D01*
X536741Y503622D01*
X536912Y503127D01*
X537084Y502556D01*
X537236Y501946D01*
X537369Y501261D01*
X537503Y500518D01*
X537598Y499719D01*
X537655Y498862D01*
X537693Y497929D01*
Y494026D01*
Y494006D01*
Y493968D01*
Y493892D01*
Y493797D01*
Y493664D01*
X537674Y493511D01*
Y493359D01*
Y493150D01*
X537655Y492940D01*
X537636Y492712D01*
X537598Y492217D01*
X537541Y491665D01*
X537465Y491055D01*
X537369Y490427D01*
X537255Y489780D01*
X537103Y489132D01*
X536932Y488485D01*
X536722Y487838D01*
X536475Y487247D01*
X536208Y486676D01*
X535884Y486162D01*
X535865Y486143D01*
X535808Y486048D01*
X535694Y485934D01*
X535542Y485762D01*
X535351Y485572D01*
X535104Y485362D01*
X534837Y485134D01*
X534494Y484886D01*
X534133Y484658D01*
X533714Y484410D01*
X533257Y484201D01*
X532743Y484011D01*
X532191Y483839D01*
X531581Y483725D01*
X530934Y483649D01*
X530248Y483611D01*
X530077D01*
X529887Y483630D01*
X529620Y483649D01*
X529316Y483687D01*
X528954Y483744D01*
X528554Y483820D01*
X528135Y483915D01*
X527678Y484049D01*
X527221Y484220D01*
X526745Y484429D01*
X526288Y484658D01*
X525831Y484943D01*
X525393Y485286D01*
X524993Y485667D01*
X524632Y486105D01*
X524613Y486143D01*
X524555Y486219D01*
X524460Y486372D01*
X524346Y486581D01*
X524213Y486847D01*
X524041Y487171D01*
X523889Y487552D01*
X523718Y487990D01*
X523546Y488485D01*
X523375Y489037D01*
X523204Y489665D01*
X523070Y490332D01*
X522937Y491074D01*
X522842Y491874D01*
X522785Y492712D01*
X522747Y493626D01*
Y497643D01*
Y497662D01*
Y497700D01*
Y497777D01*
Y497872D01*
Y498005D01*
X522766Y498138D01*
Y498310D01*
X522785Y498500D01*
X522804Y498938D01*
X522842Y499433D01*
X522899Y499985D01*
X522975Y500575D01*
X523070Y501185D01*
X523185Y501832D01*
X523337Y502479D01*
X523508Y503108D01*
X523699Y503736D01*
X523946Y504326D01*
X524213Y504897D01*
X524537Y505393D01*
X524555Y505431D01*
X524632Y505507D01*
X524727Y505621D01*
X524879Y505792D01*
X525070Y505983D01*
X525317Y506192D01*
X525603Y506440D01*
X525926Y506668D01*
X526307Y506916D01*
X526726Y507144D01*
X527183Y507354D01*
X527697Y507544D01*
X528249Y507715D01*
X528859Y507830D01*
X529506Y507925D01*
X530210Y507944D01*
X530382D01*
X530572Y507925D01*
D02*
G37*
G36*
X485790Y501851D02*
X486038Y501832D01*
X486323Y501794D01*
X486647Y501756D01*
X487028Y501680D01*
X487428Y501584D01*
X487846Y501470D01*
X488265Y501318D01*
X488722Y501127D01*
X489160Y500918D01*
X489598Y500652D01*
X490017Y500347D01*
X490417Y500004D01*
X490798Y499604D01*
X490817Y499585D01*
X490874Y499490D01*
X490969Y499376D01*
X491102Y499185D01*
X491235Y498957D01*
X491407Y498671D01*
X491578Y498329D01*
X491750Y497948D01*
X491921Y497510D01*
X492092Y497015D01*
X492264Y496482D01*
X492397Y495911D01*
X492530Y495282D01*
X492625Y494597D01*
X492683Y493873D01*
X492702Y493112D01*
Y491874D01*
X480783D01*
Y491836D01*
Y491760D01*
X480802Y491627D01*
X480821Y491436D01*
X480840Y491227D01*
X480878Y490960D01*
X480935Y490674D01*
X480992Y490370D01*
X481068Y490046D01*
X481182Y489704D01*
X481297Y489361D01*
X481449Y488999D01*
X481620Y488656D01*
X481811Y488314D01*
X482039Y487971D01*
X482287Y487666D01*
X482306Y487647D01*
X482363Y487590D01*
X482439Y487514D01*
X482553Y487419D01*
X482687Y487304D01*
X482877Y487152D01*
X483067Y487019D01*
X483296Y486867D01*
X483562Y486714D01*
X483829Y486581D01*
X484153Y486448D01*
X484476Y486314D01*
X484819Y486219D01*
X485200Y486143D01*
X485581Y486086D01*
X485999Y486067D01*
X486152D01*
X486266Y486086D01*
X486399D01*
X486571Y486105D01*
X486742Y486124D01*
X486933Y486143D01*
X487370Y486219D01*
X487808Y486333D01*
X488265Y486505D01*
X488703Y486714D01*
X488722D01*
X488760Y486752D01*
X488817Y486790D01*
X488894Y486829D01*
X489103Y486981D01*
X489370Y487171D01*
X489655Y487419D01*
X489998Y487704D01*
X490322Y488047D01*
X490645Y488428D01*
X492473Y487000D01*
X492454Y486962D01*
X492378Y486847D01*
X492245Y486695D01*
X492054Y486467D01*
X491826Y486219D01*
X491540Y485934D01*
X491197Y485629D01*
X490817Y485305D01*
X490379Y484982D01*
X489884Y484677D01*
X489351Y484391D01*
X488741Y484144D01*
X488094Y483915D01*
X487408Y483763D01*
X486647Y483649D01*
X486247Y483630D01*
X485847Y483611D01*
X485695D01*
X485504Y483630D01*
X485257Y483649D01*
X484952Y483687D01*
X484591Y483744D01*
X484210Y483801D01*
X483772Y483896D01*
X483315Y484030D01*
X482858Y484182D01*
X482363Y484372D01*
X481887Y484601D01*
X481392Y484867D01*
X480916Y485172D01*
X480459Y485534D01*
X480021Y485953D01*
X480002Y485972D01*
X479926Y486067D01*
X479811Y486200D01*
X479678Y486390D01*
X479507Y486619D01*
X479317Y486905D01*
X479107Y487247D01*
X478898Y487628D01*
X478688Y488047D01*
X478479Y488523D01*
X478288Y489037D01*
X478117Y489608D01*
X477984Y490199D01*
X477869Y490846D01*
X477793Y491512D01*
X477774Y492236D01*
Y492788D01*
Y492826D01*
Y492902D01*
Y493036D01*
X477793Y493226D01*
X477812Y493454D01*
X477831Y493721D01*
X477850Y494026D01*
X477908Y494368D01*
X477946Y494711D01*
X478022Y495092D01*
X478193Y495872D01*
X478307Y496272D01*
X478441Y496672D01*
X478593Y497072D01*
X478764Y497472D01*
X478783Y497491D01*
X478802Y497567D01*
X478879Y497662D01*
X478955Y497815D01*
X479050Y497986D01*
X479183Y498176D01*
X479317Y498405D01*
X479488Y498652D01*
X479678Y498900D01*
X479888Y499166D01*
X480116Y499433D01*
X480364Y499699D01*
X480649Y499966D01*
X480935Y500214D01*
X481240Y500461D01*
X481563Y500690D01*
X481582Y500709D01*
X481639Y500747D01*
X481754Y500804D01*
X481887Y500880D01*
X482039Y500956D01*
X482249Y501070D01*
X482477Y501166D01*
X482725Y501280D01*
X483010Y501394D01*
X483315Y501489D01*
X483639Y501604D01*
X483981Y501680D01*
X484324Y501756D01*
X484705Y501813D01*
X485086Y501851D01*
X485466Y501870D01*
X485619D01*
X485790Y501851D01*
D02*
G37*
G36*
X417779Y501546D02*
X421054D01*
Y499224D01*
X417779D01*
Y488275D01*
Y488257D01*
Y488237D01*
Y488180D01*
Y488104D01*
X417798Y487914D01*
X417836Y487685D01*
X417893Y487419D01*
X417970Y487152D01*
X418065Y486905D01*
X418217Y486676D01*
X418236Y486657D01*
X418293Y486600D01*
X418407Y486505D01*
X418560Y486429D01*
X418769Y486333D01*
X419036Y486238D01*
X419341Y486181D01*
X419702Y486162D01*
X419797D01*
X419912Y486181D01*
X420083D01*
X420293Y486200D01*
X420540Y486238D01*
X420826Y486295D01*
X421149Y486352D01*
Y483934D01*
X421130D01*
X421092Y483915D01*
X421035Y483896D01*
X420940Y483877D01*
X420845Y483858D01*
X420711Y483839D01*
X420407Y483782D01*
X420064Y483706D01*
X419664Y483668D01*
X419245Y483630D01*
X418826Y483611D01*
X418636D01*
X418503Y483630D01*
X418331Y483649D01*
X418141Y483668D01*
X417912Y483706D01*
X417684Y483763D01*
X417189Y483915D01*
X416941Y484011D01*
X416694Y484125D01*
X416446Y484258D01*
X416199Y484429D01*
X415989Y484620D01*
X415780Y484829D01*
X415761Y484848D01*
X415742Y484886D01*
X415685Y484963D01*
X415628Y485058D01*
X415552Y485172D01*
X415456Y485343D01*
X415361Y485515D01*
X415285Y485724D01*
X415190Y485953D01*
X415095Y486219D01*
X414999Y486505D01*
X414923Y486809D01*
X414866Y487133D01*
X414809Y487495D01*
X414790Y487895D01*
X414771Y488295D01*
Y499224D01*
X411553D01*
Y501546D01*
X414771D01*
Y505811D01*
X417779D01*
Y501546D01*
D02*
G37*
G36*
X430422Y477883D02*
X430612Y477845D01*
X430822Y477769D01*
X431050Y477693D01*
X431259Y477560D01*
X431450Y477388D01*
X431469Y477369D01*
X431526Y477293D01*
X431602Y477198D01*
X431678Y477046D01*
X431755Y476874D01*
X431831Y476665D01*
X431888Y476417D01*
X431907Y476151D01*
Y476113D01*
Y476037D01*
X431888Y475903D01*
X431850Y475732D01*
X431793Y475542D01*
X431716Y475332D01*
X431602Y475123D01*
X431450Y474932D01*
X431431Y474913D01*
X431374Y474856D01*
X431259Y474780D01*
X431107Y474704D01*
X430917Y474609D01*
X430688Y474532D01*
X430422Y474475D01*
X430117Y474456D01*
X429965D01*
X429812Y474475D01*
X429622Y474513D01*
X429413Y474571D01*
X429184Y474666D01*
X428975Y474780D01*
X428784Y474932D01*
X428765Y474951D01*
X428708Y475028D01*
X428651Y475123D01*
X428575Y475275D01*
X428480Y475446D01*
X428423Y475656D01*
X428365Y475884D01*
X428346Y476151D01*
Y476189D01*
Y476284D01*
X428365Y476417D01*
X428404Y476589D01*
X428461Y476779D01*
X428537Y476989D01*
X428632Y477198D01*
X428784Y477388D01*
X428803Y477408D01*
X428879Y477465D01*
X428975Y477560D01*
X429127Y477655D01*
X429317Y477731D01*
X429546Y477826D01*
X429812Y477883D01*
X430117Y477903D01*
X430269D01*
X430422Y477883D01*
D02*
G37*
G36*
X450547Y453874D02*
X447786D01*
X447634Y455759D01*
X447615Y455740D01*
X447558Y455664D01*
X447443Y455550D01*
X447310Y455416D01*
X447120Y455245D01*
X446891Y455055D01*
X446625Y454864D01*
X446320Y454655D01*
X445997Y454445D01*
X445616Y454255D01*
X445197Y454064D01*
X444759Y453893D01*
X444264Y453760D01*
X443750Y453646D01*
X443198Y453569D01*
X442607Y453550D01*
X442474D01*
X442322Y453569D01*
X442093Y453588D01*
X441846Y453626D01*
X441541Y453684D01*
X441198Y453760D01*
X440837Y453855D01*
X440456Y453988D01*
X440037Y454160D01*
X439637Y454369D01*
X439218Y454598D01*
X438799Y454883D01*
X438380Y455226D01*
X438000Y455607D01*
X437619Y456045D01*
X437600Y456083D01*
X437543Y456159D01*
X437448Y456311D01*
X437314Y456502D01*
X437181Y456749D01*
X437010Y457054D01*
X436838Y457396D01*
X436667Y457815D01*
X436477Y458253D01*
X436305Y458748D01*
X436134Y459281D01*
X436000Y459872D01*
X435867Y460500D01*
X435772Y461147D01*
X435715Y461852D01*
X435696Y462594D01*
Y462823D01*
Y462842D01*
Y462861D01*
Y462918D01*
Y462994D01*
Y463089D01*
X435715Y463223D01*
X435734Y463489D01*
X435753Y463832D01*
X435791Y464232D01*
X435848Y464670D01*
X435943Y465165D01*
X436039Y465660D01*
X436153Y466193D01*
X436324Y466745D01*
X436495Y467278D01*
X436724Y467830D01*
X436972Y468344D01*
X437257Y468858D01*
X437600Y469335D01*
X437619Y469354D01*
X437695Y469449D01*
X437790Y469563D01*
X437943Y469715D01*
X438133Y469906D01*
X438380Y470115D01*
X438647Y470344D01*
X438952Y470572D01*
X439294Y470801D01*
X439675Y471029D01*
X440094Y471239D01*
X440532Y471429D01*
X441027Y471581D01*
X441541Y471696D01*
X442074Y471791D01*
X442645Y471810D01*
X442779D01*
X442950Y471791D01*
X443159Y471772D01*
X443426Y471753D01*
X443712Y471696D01*
X444054Y471638D01*
X444416Y471543D01*
X444797Y471429D01*
X445197Y471296D01*
X445597Y471124D01*
X446016Y470915D01*
X446415Y470667D01*
X446815Y470382D01*
X447177Y470058D01*
X447539Y469677D01*
Y478874D01*
X450547D01*
Y453874D01*
D02*
G37*
G36*
X578363Y471791D02*
X578496D01*
X578648Y471772D01*
X578820Y471753D01*
X579029Y471714D01*
X579467Y471619D01*
X579962Y471486D01*
X580495Y471296D01*
X581028Y471048D01*
X581314Y470896D01*
X581580Y470724D01*
X581847Y470515D01*
X582113Y470306D01*
X582361Y470077D01*
X582609Y469810D01*
X582837Y469525D01*
X583046Y469220D01*
X583256Y468878D01*
X583446Y468516D01*
X583599Y468116D01*
X583732Y467697D01*
X583846Y467240D01*
X583941Y466745D01*
X583998Y466212D01*
X584017Y465660D01*
Y453874D01*
X581009D01*
Y465488D01*
Y465508D01*
Y465565D01*
Y465660D01*
X580990Y465793D01*
Y465945D01*
X580971Y466136D01*
X580933Y466326D01*
X580895Y466555D01*
X580800Y467012D01*
X580647Y467469D01*
X580419Y467926D01*
X580286Y468116D01*
X580133Y468306D01*
X580114Y468325D01*
X580095Y468344D01*
X580038Y468402D01*
X579962Y468459D01*
X579867Y468535D01*
X579752Y468611D01*
X579619Y468687D01*
X579448Y468782D01*
X579257Y468878D01*
X579048Y468954D01*
X578820Y469030D01*
X578553Y469106D01*
X578267Y469163D01*
X577944Y469220D01*
X577601Y469239D01*
X577239Y469258D01*
X577087D01*
X576954Y469239D01*
X576820Y469220D01*
X576649Y469201D01*
X576459Y469182D01*
X576268Y469125D01*
X575830Y469011D01*
X575354Y468840D01*
X575126Y468725D01*
X574897Y468592D01*
X574669Y468421D01*
X574459Y468249D01*
X574440Y468230D01*
X574421Y468211D01*
X574364Y468154D01*
X574288Y468059D01*
X574193Y467964D01*
X574098Y467849D01*
X574002Y467697D01*
X573888Y467526D01*
X573774Y467354D01*
X573660Y467145D01*
X573450Y466688D01*
X573279Y466155D01*
X573222Y465850D01*
X573184Y465546D01*
Y453874D01*
X570156D01*
Y465412D01*
Y465431D01*
Y465450D01*
Y465508D01*
Y465584D01*
X570137Y465774D01*
X570099Y466022D01*
X570042Y466307D01*
X569966Y466631D01*
X569833Y466974D01*
X569680Y467335D01*
X569490Y467697D01*
X569242Y468040D01*
X568938Y468364D01*
X568576Y468649D01*
X568138Y468897D01*
X567891Y469011D01*
X567624Y469087D01*
X567357Y469163D01*
X567053Y469220D01*
X566729Y469239D01*
X566386Y469258D01*
X566253D01*
X566101Y469239D01*
X565910Y469220D01*
X565663Y469182D01*
X565396Y469125D01*
X565092Y469049D01*
X564768Y468935D01*
X564444Y468801D01*
X564102Y468649D01*
X563759Y468440D01*
X563435Y468192D01*
X563111Y467907D01*
X562826Y467564D01*
X562559Y467164D01*
X562331Y466726D01*
Y453874D01*
X559323D01*
Y471486D01*
X562179D01*
X562255Y469525D01*
X562274Y469544D01*
X562350Y469620D01*
X562464Y469734D01*
X562616Y469887D01*
X562807Y470058D01*
X563035Y470248D01*
X563321Y470458D01*
X563645Y470667D01*
X563987Y470877D01*
X564387Y471086D01*
X564806Y471277D01*
X565282Y471448D01*
X565777Y471600D01*
X566310Y471714D01*
X566881Y471791D01*
X567472Y471810D01*
X567643D01*
X567814Y471791D01*
X568062Y471772D01*
X568367Y471714D01*
X568709Y471657D01*
X569090Y471581D01*
X569490Y471448D01*
X569909Y471315D01*
X570328Y471124D01*
X570747Y470896D01*
X571165Y470610D01*
X571546Y470287D01*
X571908Y469906D01*
X572232Y469468D01*
X572517Y468973D01*
X572536Y468992D01*
X572555Y469030D01*
X572612Y469087D01*
X572670Y469182D01*
X572765Y469296D01*
X572860Y469411D01*
X573127Y469696D01*
X573450Y470020D01*
X573850Y470363D01*
X574288Y470705D01*
X574783Y471010D01*
X574802Y471029D01*
X574840Y471048D01*
X574935Y471086D01*
X575031Y471143D01*
X575164Y471200D01*
X575335Y471258D01*
X575526Y471334D01*
X575735Y471410D01*
X575963Y471486D01*
X576211Y471562D01*
X576497Y471619D01*
X576782Y471676D01*
X577430Y471772D01*
X578115Y471810D01*
X578267D01*
X578363Y471791D01*
D02*
G37*
G36*
X549155D02*
X549289D01*
X549441Y471772D01*
X549612Y471753D01*
X549822Y471714D01*
X550259Y471619D01*
X550755Y471486D01*
X551288Y471296D01*
X551821Y471048D01*
X552106Y470896D01*
X552373Y470724D01*
X552639Y470515D01*
X552906Y470306D01*
X553154Y470077D01*
X553401Y469810D01*
X553630Y469525D01*
X553839Y469220D01*
X554048Y468878D01*
X554239Y468516D01*
X554391Y468116D01*
X554525Y467697D01*
X554639Y467240D01*
X554734Y466745D01*
X554791Y466212D01*
X554810Y465660D01*
Y453874D01*
X551802D01*
Y465488D01*
Y465508D01*
Y465565D01*
Y465660D01*
X551783Y465793D01*
Y465945D01*
X551764Y466136D01*
X551726Y466326D01*
X551687Y466555D01*
X551592Y467012D01*
X551440Y467469D01*
X551212Y467926D01*
X551078Y468116D01*
X550926Y468306D01*
X550907Y468325D01*
X550888Y468344D01*
X550831Y468402D01*
X550755Y468459D01*
X550659Y468535D01*
X550545Y468611D01*
X550412Y468687D01*
X550241Y468782D01*
X550050Y468878D01*
X549841Y468954D01*
X549612Y469030D01*
X549346Y469106D01*
X549060Y469163D01*
X548736Y469220D01*
X548394Y469239D01*
X548032Y469258D01*
X547880D01*
X547746Y469239D01*
X547613Y469220D01*
X547442Y469201D01*
X547251Y469182D01*
X547061Y469125D01*
X546623Y469011D01*
X546147Y468840D01*
X545918Y468725D01*
X545690Y468592D01*
X545461Y468421D01*
X545252Y468249D01*
X545233Y468230D01*
X545214Y468211D01*
X545157Y468154D01*
X545081Y468059D01*
X544985Y467964D01*
X544890Y467849D01*
X544795Y467697D01*
X544681Y467526D01*
X544567Y467354D01*
X544452Y467145D01*
X544243Y466688D01*
X544071Y466155D01*
X544014Y465850D01*
X543976Y465546D01*
Y453874D01*
X540949D01*
Y465412D01*
Y465431D01*
Y465450D01*
Y465508D01*
Y465584D01*
X540930Y465774D01*
X540892Y466022D01*
X540835Y466307D01*
X540759Y466631D01*
X540625Y466974D01*
X540473Y467335D01*
X540283Y467697D01*
X540035Y468040D01*
X539730Y468364D01*
X539369Y468649D01*
X538931Y468897D01*
X538683Y469011D01*
X538417Y469087D01*
X538150Y469163D01*
X537845Y469220D01*
X537522Y469239D01*
X537179Y469258D01*
X537046D01*
X536893Y469239D01*
X536703Y469220D01*
X536455Y469182D01*
X536189Y469125D01*
X535884Y469049D01*
X535561Y468935D01*
X535237Y468801D01*
X534894Y468649D01*
X534551Y468440D01*
X534228Y468192D01*
X533904Y467907D01*
X533619Y467564D01*
X533352Y467164D01*
X533123Y466726D01*
Y453874D01*
X530115D01*
Y471486D01*
X532971D01*
X533047Y469525D01*
X533066Y469544D01*
X533143Y469620D01*
X533257Y469734D01*
X533409Y469887D01*
X533600Y470058D01*
X533828Y470248D01*
X534114Y470458D01*
X534437Y470667D01*
X534780Y470877D01*
X535180Y471086D01*
X535599Y471277D01*
X536075Y471448D01*
X536570Y471600D01*
X537103Y471714D01*
X537674Y471791D01*
X538264Y471810D01*
X538436D01*
X538607Y471791D01*
X538855Y471772D01*
X539159Y471714D01*
X539502Y471657D01*
X539883Y471581D01*
X540283Y471448D01*
X540701Y471315D01*
X541120Y471124D01*
X541539Y470896D01*
X541958Y470610D01*
X542339Y470287D01*
X542701Y469906D01*
X543024Y469468D01*
X543310Y468973D01*
X543329Y468992D01*
X543348Y469030D01*
X543405Y469087D01*
X543462Y469182D01*
X543557Y469296D01*
X543653Y469411D01*
X543919Y469696D01*
X544243Y470020D01*
X544643Y470363D01*
X545081Y470705D01*
X545576Y471010D01*
X545595Y471029D01*
X545633Y471048D01*
X545728Y471086D01*
X545823Y471143D01*
X545957Y471200D01*
X546128Y471258D01*
X546318Y471334D01*
X546528Y471410D01*
X546756Y471486D01*
X547004Y471562D01*
X547289Y471619D01*
X547575Y471676D01*
X548222Y471772D01*
X548908Y471810D01*
X549060D01*
X549155Y471791D01*
D02*
G37*
G36*
X419588Y453874D02*
X416732D01*
X411858Y471124D01*
X411477Y472933D01*
X411115Y471124D01*
X406051Y453874D01*
X403195D01*
X397483Y477560D01*
X400605D01*
X404337Y461338D01*
X404794Y458215D01*
X405460Y461014D01*
X410144Y477560D01*
X412791D01*
X417360Y461014D01*
X418008Y458158D01*
X418503Y461357D01*
X422196Y477560D01*
X425338D01*
X419588Y453874D01*
D02*
G37*
G36*
X502279D02*
X499251D01*
Y473923D01*
X493197Y471696D01*
Y474437D01*
X501822Y477674D01*
X502279D01*
Y453874D01*
D02*
G37*
G36*
X469111Y469335D02*
X469130Y469354D01*
X469206Y469449D01*
X469320Y469563D01*
X469473Y469715D01*
X469682Y469906D01*
X469911Y470115D01*
X470196Y470344D01*
X470520Y470572D01*
X470863Y470801D01*
X471263Y471029D01*
X471700Y471239D01*
X472157Y471429D01*
X472652Y471581D01*
X473186Y471696D01*
X473738Y471791D01*
X474328Y471810D01*
X474461D01*
X474576Y471791D01*
X474690D01*
X474842Y471772D01*
X475013Y471753D01*
X475204Y471714D01*
X475623Y471619D01*
X476099Y471486D01*
X476594Y471277D01*
X477127Y471029D01*
X477393Y470858D01*
X477641Y470686D01*
X477908Y470496D01*
X478155Y470267D01*
X478403Y470020D01*
X478631Y469753D01*
X478840Y469468D01*
X479050Y469144D01*
X479240Y468801D01*
X479412Y468421D01*
X479564Y468021D01*
X479697Y467583D01*
X479792Y467126D01*
X479869Y466612D01*
X479926Y466079D01*
X479945Y465508D01*
Y453874D01*
X476936D01*
Y465526D01*
Y465546D01*
Y465603D01*
Y465717D01*
X476917Y465831D01*
X476898Y466003D01*
X476879Y466174D01*
X476860Y466383D01*
X476822Y466593D01*
X476708Y467050D01*
X476556Y467526D01*
X476346Y467964D01*
X476213Y468154D01*
X476061Y468344D01*
Y468364D01*
X476023Y468383D01*
X475965Y468421D01*
X475908Y468497D01*
X475813Y468554D01*
X475699Y468630D01*
X475566Y468725D01*
X475413Y468801D01*
X475242Y468897D01*
X475051Y468973D01*
X474823Y469049D01*
X474595Y469125D01*
X474328Y469182D01*
X474042Y469220D01*
X473738Y469239D01*
X473414Y469258D01*
X473281D01*
X473167Y469239D01*
X473033D01*
X472900Y469220D01*
X472538Y469163D01*
X472138Y469068D01*
X471720Y468916D01*
X471263Y468725D01*
X470844Y468459D01*
X470825D01*
X470787Y468421D01*
X470729Y468383D01*
X470653Y468325D01*
X470463Y468154D01*
X470215Y467907D01*
X469930Y467621D01*
X469644Y467278D01*
X469359Y466878D01*
X469111Y466421D01*
Y453874D01*
X466103D01*
Y478874D01*
X469111D01*
Y469335D01*
D02*
G37*
G36*
X431602Y453874D02*
X428594D01*
Y471486D01*
X431602D01*
Y453874D01*
D02*
G37*
G36*
X522918Y475028D02*
X522214D01*
X522023Y475008D01*
X521795Y474989D01*
X521490Y474951D01*
X521147Y474894D01*
X520767Y474837D01*
X520348Y474742D01*
X519910Y474628D01*
X519453Y474475D01*
X518996Y474323D01*
X518520Y474114D01*
X518063Y473885D01*
X517606Y473599D01*
X517168Y473295D01*
X516768Y472933D01*
X516749Y472914D01*
X516673Y472838D01*
X516578Y472724D01*
X516444Y472552D01*
X516273Y472362D01*
X516102Y472095D01*
X515892Y471810D01*
X515683Y471467D01*
X515473Y471086D01*
X515264Y470667D01*
X515074Y470191D01*
X514883Y469696D01*
X514712Y469144D01*
X514560Y468554D01*
X514445Y467926D01*
X514369Y467259D01*
X514388Y467278D01*
X514464Y467354D01*
X514560Y467450D01*
X514712Y467602D01*
X514902Y467754D01*
X515131Y467945D01*
X515397Y468135D01*
X515702Y468344D01*
X516045Y468535D01*
X516444Y468725D01*
X516863Y468916D01*
X517301Y469068D01*
X517796Y469220D01*
X518329Y469315D01*
X518882Y469392D01*
X519472Y469411D01*
X519605D01*
X519776Y469392D01*
X519986Y469373D01*
X520253Y469354D01*
X520538Y469296D01*
X520881Y469220D01*
X521243Y469144D01*
X521623Y469030D01*
X522023Y468878D01*
X522442Y468706D01*
X522861Y468497D01*
X523261Y468230D01*
X523661Y467945D01*
X524041Y467602D01*
X524403Y467221D01*
X524422Y467202D01*
X524479Y467126D01*
X524575Y466993D01*
X524689Y466821D01*
X524841Y466612D01*
X524993Y466345D01*
X525146Y466041D01*
X525336Y465698D01*
X525507Y465317D01*
X525660Y464898D01*
X525831Y464422D01*
X525964Y463927D01*
X526079Y463394D01*
X526174Y462823D01*
X526231Y462214D01*
X526250Y461585D01*
Y461566D01*
Y461547D01*
Y461490D01*
Y461433D01*
X526231Y461242D01*
X526212Y460976D01*
X526193Y460671D01*
X526136Y460310D01*
X526079Y459910D01*
X526003Y459491D01*
X525888Y459034D01*
X525755Y458558D01*
X525603Y458063D01*
X525412Y457587D01*
X525184Y457092D01*
X524917Y456616D01*
X524613Y456159D01*
X524251Y455740D01*
X524232Y455721D01*
X524156Y455645D01*
X524041Y455531D01*
X523889Y455397D01*
X523699Y455226D01*
X523451Y455055D01*
X523166Y454845D01*
X522842Y454655D01*
X522480Y454445D01*
X522080Y454236D01*
X521642Y454064D01*
X521166Y453893D01*
X520652Y453760D01*
X520119Y453646D01*
X519529Y453569D01*
X518920Y453550D01*
X518767D01*
X518596Y453569D01*
X518349Y453588D01*
X518063Y453626D01*
X517739Y453684D01*
X517358Y453779D01*
X516959Y453874D01*
X516521Y454007D01*
X516083Y454179D01*
X515607Y454407D01*
X515150Y454655D01*
X514693Y454959D01*
X514236Y455302D01*
X513817Y455702D01*
X513398Y456159D01*
X513379Y456197D01*
X513303Y456273D01*
X513208Y456425D01*
X513074Y456635D01*
X512903Y456882D01*
X512732Y457206D01*
X512541Y457568D01*
X512351Y457987D01*
X512141Y458444D01*
X511951Y458939D01*
X511780Y459491D01*
X511608Y460100D01*
X511475Y460728D01*
X511380Y461414D01*
X511304Y462118D01*
X511285Y462880D01*
Y464041D01*
Y464060D01*
Y464118D01*
Y464213D01*
Y464327D01*
X511304Y464479D01*
Y464670D01*
X511323Y464879D01*
Y465108D01*
X511342Y465374D01*
X511361Y465660D01*
X511399Y465964D01*
X511437Y466288D01*
X511513Y466993D01*
X511627Y467735D01*
X511780Y468535D01*
X511970Y469354D01*
X512180Y470172D01*
X512465Y471010D01*
X512770Y471810D01*
X513151Y472609D01*
X513569Y473333D01*
X514065Y474018D01*
Y474037D01*
X514103Y474056D01*
X514198Y474171D01*
X514369Y474342D01*
X514598Y474571D01*
X514883Y474818D01*
X515245Y475123D01*
X515664Y475427D01*
X516159Y475770D01*
X516711Y476094D01*
X517320Y476417D01*
X518006Y476703D01*
X518748Y476989D01*
X519567Y477217D01*
X520443Y477408D01*
X521376Y477522D01*
X521871Y477560D01*
X522385Y477579D01*
X522918D01*
Y475028D01*
D02*
G37*
G36*
X459305Y471486D02*
X462580D01*
Y469163D01*
X459305D01*
Y458215D01*
Y458196D01*
Y458177D01*
Y458120D01*
Y458044D01*
X459325Y457853D01*
X459363Y457625D01*
X459420Y457358D01*
X459496Y457092D01*
X459591Y456844D01*
X459743Y456616D01*
X459762Y456597D01*
X459820Y456540D01*
X459934Y456444D01*
X460086Y456368D01*
X460295Y456273D01*
X460562Y456178D01*
X460867Y456121D01*
X461229Y456102D01*
X461324D01*
X461438Y456121D01*
X461609D01*
X461819Y456140D01*
X462066Y456178D01*
X462352Y456235D01*
X462676Y456292D01*
Y453874D01*
X462656D01*
X462618Y453855D01*
X462561Y453836D01*
X462466Y453817D01*
X462371Y453798D01*
X462238Y453779D01*
X461933Y453722D01*
X461590Y453646D01*
X461190Y453608D01*
X460772Y453569D01*
X460353Y453550D01*
X460162D01*
X460029Y453569D01*
X459858Y453588D01*
X459667Y453608D01*
X459439Y453646D01*
X459210Y453703D01*
X458715Y453855D01*
X458468Y453950D01*
X458220Y454064D01*
X457973Y454198D01*
X457725Y454369D01*
X457516Y454560D01*
X457306Y454769D01*
X457287Y454788D01*
X457268Y454826D01*
X457211Y454902D01*
X457154Y454997D01*
X457078Y455112D01*
X456983Y455283D01*
X456887Y455454D01*
X456811Y455664D01*
X456716Y455892D01*
X456621Y456159D01*
X456526Y456444D01*
X456449Y456749D01*
X456392Y457073D01*
X456335Y457435D01*
X456316Y457834D01*
X456297Y458234D01*
Y469163D01*
X453079D01*
Y471486D01*
X456297D01*
Y475751D01*
X459305D01*
Y471486D01*
D02*
G37*
G36*
X426157Y447823D02*
X426347Y447785D01*
X426557Y447709D01*
X426785Y447633D01*
X426995Y447499D01*
X427185Y447328D01*
X427204Y447309D01*
X427261Y447233D01*
X427337Y447138D01*
X427413Y446985D01*
X427490Y446814D01*
X427566Y446605D01*
X427623Y446357D01*
X427642Y446091D01*
Y446052D01*
Y445976D01*
X427623Y445843D01*
X427585Y445672D01*
X427528Y445481D01*
X427452Y445272D01*
X427337Y445062D01*
X427185Y444872D01*
X427166Y444853D01*
X427109Y444796D01*
X426995Y444720D01*
X426842Y444643D01*
X426652Y444548D01*
X426423Y444472D01*
X426157Y444415D01*
X425852Y444396D01*
X425700D01*
X425548Y444415D01*
X425357Y444453D01*
X425148Y444510D01*
X424919Y444605D01*
X424710Y444720D01*
X424519Y444872D01*
X424500Y444891D01*
X424443Y444967D01*
X424386Y445062D01*
X424310Y445215D01*
X424215Y445386D01*
X424158Y445595D01*
X424100Y445824D01*
X424081Y446091D01*
Y446129D01*
Y446224D01*
X424100Y446357D01*
X424139Y446528D01*
X424196Y446719D01*
X424272Y446928D01*
X424367Y447138D01*
X424519Y447328D01*
X424538Y447347D01*
X424615Y447404D01*
X424710Y447499D01*
X424862Y447595D01*
X425052Y447671D01*
X425281Y447766D01*
X425548Y447823D01*
X425852Y447842D01*
X426005D01*
X426157Y447823D01*
D02*
G37*
G36*
X592719Y441730D02*
X592852D01*
X593004Y441711D01*
X593176Y441692D01*
X593385Y441654D01*
X593823Y441559D01*
X594318Y441426D01*
X594851Y441235D01*
X595384Y440988D01*
X595670Y440836D01*
X595936Y440664D01*
X596203Y440455D01*
X596470Y440245D01*
X596717Y440017D01*
X596965Y439750D01*
X597193Y439465D01*
X597403Y439160D01*
X597612Y438817D01*
X597802Y438455D01*
X597955Y438056D01*
X598088Y437637D01*
X598202Y437180D01*
X598297Y436685D01*
X598355Y436152D01*
X598374Y435599D01*
Y423814D01*
X595365D01*
Y435428D01*
Y435447D01*
Y435504D01*
Y435599D01*
X595346Y435733D01*
Y435885D01*
X595327Y436075D01*
X595289Y436266D01*
X595251Y436494D01*
X595156Y436951D01*
X595004Y437408D01*
X594775Y437865D01*
X594642Y438056D01*
X594489Y438246D01*
X594470Y438265D01*
X594451Y438284D01*
X594394Y438341D01*
X594318Y438398D01*
X594223Y438475D01*
X594109Y438551D01*
X593975Y438627D01*
X593804Y438722D01*
X593614Y438817D01*
X593404Y438893D01*
X593176Y438970D01*
X592909Y439046D01*
X592624Y439103D01*
X592300Y439160D01*
X591957Y439179D01*
X591595Y439198D01*
X591443D01*
X591310Y439179D01*
X591177Y439160D01*
X591005Y439141D01*
X590815Y439122D01*
X590624Y439065D01*
X590186Y438950D01*
X589710Y438779D01*
X589482Y438665D01*
X589253Y438532D01*
X589025Y438360D01*
X588815Y438189D01*
X588797Y438170D01*
X588777Y438151D01*
X588720Y438094D01*
X588644Y437998D01*
X588549Y437903D01*
X588454Y437789D01*
X588359Y437637D01*
X588244Y437465D01*
X588130Y437294D01*
X588016Y437085D01*
X587806Y436628D01*
X587635Y436095D01*
X587578Y435790D01*
X587540Y435485D01*
Y423814D01*
X584513D01*
Y435352D01*
Y435371D01*
Y435390D01*
Y435447D01*
Y435523D01*
X584493Y435714D01*
X584455Y435961D01*
X584398Y436247D01*
X584322Y436571D01*
X584189Y436913D01*
X584036Y437275D01*
X583846Y437637D01*
X583599Y437979D01*
X583294Y438303D01*
X582932Y438589D01*
X582494Y438836D01*
X582247Y438950D01*
X581980Y439027D01*
X581714Y439103D01*
X581409Y439160D01*
X581085Y439179D01*
X580743Y439198D01*
X580609D01*
X580457Y439179D01*
X580267Y439160D01*
X580019Y439122D01*
X579752Y439065D01*
X579448Y438989D01*
X579124Y438874D01*
X578800Y438741D01*
X578458Y438589D01*
X578115Y438379D01*
X577791Y438132D01*
X577468Y437846D01*
X577182Y437503D01*
X576916Y437104D01*
X576687Y436666D01*
Y423814D01*
X573679D01*
Y441426D01*
X576535D01*
X576611Y439465D01*
X576630Y439484D01*
X576706Y439560D01*
X576820Y439674D01*
X576973Y439826D01*
X577163Y439998D01*
X577391Y440188D01*
X577677Y440398D01*
X578001Y440607D01*
X578343Y440816D01*
X578743Y441026D01*
X579162Y441216D01*
X579638Y441388D01*
X580133Y441540D01*
X580666Y441654D01*
X581238Y441730D01*
X581828Y441749D01*
X581999D01*
X582171Y441730D01*
X582418Y441711D01*
X582723Y441654D01*
X583065Y441597D01*
X583446Y441521D01*
X583846Y441388D01*
X584265Y441254D01*
X584684Y441064D01*
X585103Y440836D01*
X585522Y440550D01*
X585902Y440226D01*
X586264Y439845D01*
X586588Y439407D01*
X586873Y438912D01*
X586893Y438932D01*
X586911Y438970D01*
X586969Y439027D01*
X587026Y439122D01*
X587121Y439236D01*
X587216Y439350D01*
X587483Y439636D01*
X587806Y439960D01*
X588206Y440302D01*
X588644Y440645D01*
X589139Y440950D01*
X589158Y440969D01*
X589196Y440988D01*
X589291Y441026D01*
X589387Y441083D01*
X589520Y441140D01*
X589691Y441197D01*
X589882Y441273D01*
X590091Y441350D01*
X590320Y441426D01*
X590567Y441502D01*
X590853Y441559D01*
X591138Y441616D01*
X591786Y441711D01*
X592471Y441749D01*
X592624D01*
X592719Y441730D01*
D02*
G37*
G36*
X563511D02*
X563645D01*
X563797Y441711D01*
X563968Y441692D01*
X564178Y441654D01*
X564616Y441559D01*
X565111Y441426D01*
X565644Y441235D01*
X566177Y440988D01*
X566463Y440836D01*
X566729Y440664D01*
X566996Y440455D01*
X567262Y440245D01*
X567510Y440017D01*
X567757Y439750D01*
X567986Y439465D01*
X568195Y439160D01*
X568405Y438817D01*
X568595Y438455D01*
X568747Y438056D01*
X568881Y437637D01*
X568995Y437180D01*
X569090Y436685D01*
X569147Y436152D01*
X569166Y435599D01*
Y423814D01*
X566158D01*
Y435428D01*
Y435447D01*
Y435504D01*
Y435599D01*
X566139Y435733D01*
Y435885D01*
X566120Y436075D01*
X566082Y436266D01*
X566044Y436494D01*
X565948Y436951D01*
X565796Y437408D01*
X565568Y437865D01*
X565434Y438056D01*
X565282Y438246D01*
X565263Y438265D01*
X565244Y438284D01*
X565187Y438341D01*
X565111Y438398D01*
X565016Y438475D01*
X564901Y438551D01*
X564768Y438627D01*
X564597Y438722D01*
X564406Y438817D01*
X564197Y438893D01*
X563968Y438970D01*
X563702Y439046D01*
X563416Y439103D01*
X563093Y439160D01*
X562750Y439179D01*
X562388Y439198D01*
X562236D01*
X562102Y439179D01*
X561969Y439160D01*
X561798Y439141D01*
X561607Y439122D01*
X561417Y439065D01*
X560979Y438950D01*
X560503Y438779D01*
X560275Y438665D01*
X560046Y438532D01*
X559818Y438360D01*
X559608Y438189D01*
X559589Y438170D01*
X559570Y438151D01*
X559513Y438094D01*
X559437Y437998D01*
X559342Y437903D01*
X559246Y437789D01*
X559151Y437637D01*
X559037Y437465D01*
X558923Y437294D01*
X558809Y437085D01*
X558599Y436628D01*
X558428Y436095D01*
X558371Y435790D01*
X558332Y435485D01*
Y423814D01*
X555305D01*
Y435352D01*
Y435371D01*
Y435390D01*
Y435447D01*
Y435523D01*
X555286Y435714D01*
X555248Y435961D01*
X555191Y436247D01*
X555115Y436571D01*
X554981Y436913D01*
X554829Y437275D01*
X554639Y437637D01*
X554391Y437979D01*
X554087Y438303D01*
X553725Y438589D01*
X553287Y438836D01*
X553039Y438950D01*
X552773Y439027D01*
X552506Y439103D01*
X552202Y439160D01*
X551878Y439179D01*
X551535Y439198D01*
X551402D01*
X551250Y439179D01*
X551059Y439160D01*
X550812Y439122D01*
X550545Y439065D01*
X550241Y438989D01*
X549917Y438874D01*
X549593Y438741D01*
X549250Y438589D01*
X548908Y438379D01*
X548584Y438132D01*
X548260Y437846D01*
X547975Y437503D01*
X547708Y437104D01*
X547480Y436666D01*
Y423814D01*
X544471D01*
Y441426D01*
X547327D01*
X547403Y439465D01*
X547423Y439484D01*
X547499Y439560D01*
X547613Y439674D01*
X547765Y439826D01*
X547956Y439998D01*
X548184Y440188D01*
X548470Y440398D01*
X548793Y440607D01*
X549136Y440816D01*
X549536Y441026D01*
X549955Y441216D01*
X550431Y441388D01*
X550926Y441540D01*
X551459Y441654D01*
X552030Y441730D01*
X552621Y441749D01*
X552792D01*
X552963Y441730D01*
X553211Y441711D01*
X553515Y441654D01*
X553858Y441597D01*
X554239Y441521D01*
X554639Y441388D01*
X555058Y441254D01*
X555477Y441064D01*
X555895Y440836D01*
X556314Y440550D01*
X556695Y440226D01*
X557057Y439845D01*
X557380Y439407D01*
X557666Y438912D01*
X557685Y438932D01*
X557704Y438970D01*
X557761Y439027D01*
X557818Y439122D01*
X557914Y439236D01*
X558009Y439350D01*
X558275Y439636D01*
X558599Y439960D01*
X558999Y440302D01*
X559437Y440645D01*
X559932Y440950D01*
X559951Y440969D01*
X559989Y440988D01*
X560084Y441026D01*
X560179Y441083D01*
X560313Y441140D01*
X560484Y441197D01*
X560674Y441273D01*
X560884Y441350D01*
X561112Y441426D01*
X561360Y441502D01*
X561645Y441559D01*
X561931Y441616D01*
X562578Y441711D01*
X563264Y441749D01*
X563416D01*
X563511Y441730D01*
D02*
G37*
G36*
X401329Y423814D02*
X398187D01*
Y434762D01*
X386249D01*
Y423814D01*
X383126D01*
Y447499D01*
X386249D01*
Y437313D01*
X398187D01*
Y447499D01*
X401329D01*
Y423814D01*
D02*
G37*
G36*
X519453Y431772D02*
X522747D01*
Y429316D01*
X519453D01*
Y423814D01*
X516425D01*
Y429316D01*
X505649D01*
Y431087D01*
X516254Y447499D01*
X519453D01*
Y431772D01*
D02*
G37*
G36*
X497919Y423814D02*
X494891D01*
Y443863D01*
X488836Y441635D01*
Y444377D01*
X497462Y447614D01*
X497919D01*
Y423814D01*
D02*
G37*
G36*
X453860Y439274D02*
X453879Y439293D01*
X453955Y439388D01*
X454069Y439503D01*
X454222Y439655D01*
X454431Y439845D01*
X454660Y440055D01*
X454945Y440283D01*
X455269Y440512D01*
X455612Y440740D01*
X456011Y440969D01*
X456449Y441178D01*
X456906Y441369D01*
X457401Y441521D01*
X457935Y441635D01*
X458487Y441730D01*
X459077Y441749D01*
X459210D01*
X459325Y441730D01*
X459439D01*
X459591Y441711D01*
X459762Y441692D01*
X459953Y441654D01*
X460372Y441559D01*
X460848Y441426D01*
X461343Y441216D01*
X461876Y440969D01*
X462142Y440797D01*
X462390Y440626D01*
X462656Y440436D01*
X462904Y440207D01*
X463152Y439960D01*
X463380Y439693D01*
X463589Y439407D01*
X463799Y439084D01*
X463989Y438741D01*
X464161Y438360D01*
X464313Y437960D01*
X464446Y437523D01*
X464541Y437066D01*
X464618Y436552D01*
X464675Y436018D01*
X464694Y435447D01*
Y423814D01*
X461685D01*
Y435466D01*
Y435485D01*
Y435542D01*
Y435657D01*
X461666Y435771D01*
X461647Y435942D01*
X461628Y436114D01*
X461609Y436323D01*
X461571Y436532D01*
X461457Y436989D01*
X461305Y437465D01*
X461095Y437903D01*
X460962Y438094D01*
X460810Y438284D01*
Y438303D01*
X460772Y438322D01*
X460714Y438360D01*
X460657Y438436D01*
X460562Y438493D01*
X460448Y438570D01*
X460315Y438665D01*
X460162Y438741D01*
X459991Y438836D01*
X459800Y438912D01*
X459572Y438989D01*
X459343Y439065D01*
X459077Y439122D01*
X458791Y439160D01*
X458487Y439179D01*
X458163Y439198D01*
X458030D01*
X457915Y439179D01*
X457782D01*
X457649Y439160D01*
X457287Y439103D01*
X456887Y439008D01*
X456468Y438855D01*
X456011Y438665D01*
X455593Y438398D01*
X455574D01*
X455536Y438360D01*
X455478Y438322D01*
X455402Y438265D01*
X455212Y438094D01*
X454964Y437846D01*
X454679Y437561D01*
X454393Y437218D01*
X454108Y436818D01*
X453860Y436361D01*
Y423814D01*
X450852D01*
Y448813D01*
X453860D01*
Y439274D01*
D02*
G37*
G36*
X427337Y423814D02*
X424329D01*
Y441426D01*
X427337D01*
Y423814D01*
D02*
G37*
G36*
X533200Y447804D02*
X533466Y447785D01*
X533790Y447747D01*
X534152Y447690D01*
X534551Y447614D01*
X534970Y447518D01*
X535427Y447385D01*
X535884Y447233D01*
X536360Y447023D01*
X536817Y446795D01*
X537274Y446509D01*
X537693Y446186D01*
X538093Y445805D01*
X538455Y445367D01*
X538474Y445348D01*
X538531Y445253D01*
X538626Y445100D01*
X538740Y444910D01*
X538874Y444643D01*
X539026Y444320D01*
X539197Y443939D01*
X539369Y443501D01*
X539540Y443006D01*
X539711Y442435D01*
X539864Y441825D01*
X539997Y441140D01*
X540130Y440398D01*
X540225Y439598D01*
X540283Y438741D01*
X540321Y437808D01*
Y433905D01*
Y433886D01*
Y433848D01*
Y433772D01*
Y433676D01*
Y433543D01*
X540302Y433391D01*
Y433239D01*
Y433029D01*
X540283Y432820D01*
X540264Y432591D01*
X540225Y432096D01*
X540168Y431544D01*
X540092Y430935D01*
X539997Y430306D01*
X539883Y429659D01*
X539730Y429012D01*
X539559Y428364D01*
X539350Y427717D01*
X539102Y427127D01*
X538835Y426555D01*
X538512Y426041D01*
X538493Y426022D01*
X538436Y425927D01*
X538321Y425813D01*
X538169Y425641D01*
X537979Y425451D01*
X537731Y425242D01*
X537465Y425013D01*
X537122Y424766D01*
X536760Y424537D01*
X536341Y424290D01*
X535884Y424080D01*
X535370Y423890D01*
X534818Y423719D01*
X534209Y423604D01*
X533561Y423528D01*
X532876Y423490D01*
X532705D01*
X532514Y423509D01*
X532248Y423528D01*
X531943Y423566D01*
X531581Y423623D01*
X531181Y423699D01*
X530763Y423795D01*
X530306Y423928D01*
X529849Y424099D01*
X529373Y424309D01*
X528916Y424537D01*
X528459Y424823D01*
X528021Y425166D01*
X527621Y425546D01*
X527259Y425984D01*
X527240Y426022D01*
X527183Y426098D01*
X527088Y426251D01*
X526974Y426460D01*
X526840Y426727D01*
X526669Y427050D01*
X526517Y427431D01*
X526345Y427869D01*
X526174Y428364D01*
X526003Y428916D01*
X525831Y429545D01*
X525698Y430211D01*
X525565Y430954D01*
X525469Y431753D01*
X525412Y432591D01*
X525374Y433505D01*
Y437523D01*
Y437541D01*
Y437580D01*
Y437656D01*
Y437751D01*
Y437884D01*
X525393Y438018D01*
Y438189D01*
X525412Y438379D01*
X525431Y438817D01*
X525469Y439312D01*
X525527Y439864D01*
X525603Y440455D01*
X525698Y441064D01*
X525812Y441711D01*
X525964Y442359D01*
X526136Y442987D01*
X526326Y443615D01*
X526574Y444206D01*
X526840Y444777D01*
X527164Y445272D01*
X527183Y445310D01*
X527259Y445386D01*
X527354Y445500D01*
X527507Y445672D01*
X527697Y445862D01*
X527945Y446071D01*
X528230Y446319D01*
X528554Y446548D01*
X528935Y446795D01*
X529354Y447023D01*
X529811Y447233D01*
X530325Y447423D01*
X530877Y447595D01*
X531486Y447709D01*
X532133Y447804D01*
X532838Y447823D01*
X533009D01*
X533200Y447804D01*
D02*
G37*
G36*
X473300Y441426D02*
X476575D01*
Y439103D01*
X473300D01*
Y428155D01*
Y428136D01*
Y428117D01*
Y428060D01*
Y427983D01*
X473319Y427793D01*
X473357Y427565D01*
X473414Y427298D01*
X473490Y427032D01*
X473585Y426784D01*
X473738Y426555D01*
X473757Y426536D01*
X473814Y426479D01*
X473928Y426384D01*
X474081Y426308D01*
X474290Y426213D01*
X474556Y426118D01*
X474861Y426060D01*
X475223Y426041D01*
X475318D01*
X475432Y426060D01*
X475604D01*
X475813Y426079D01*
X476061Y426118D01*
X476346Y426175D01*
X476670Y426232D01*
Y423814D01*
X476651D01*
X476613Y423795D01*
X476556Y423776D01*
X476461Y423757D01*
X476365Y423737D01*
X476232Y423719D01*
X475927Y423661D01*
X475585Y423585D01*
X475185Y423547D01*
X474766Y423509D01*
X474347Y423490D01*
X474157D01*
X474023Y423509D01*
X473852Y423528D01*
X473662Y423547D01*
X473433Y423585D01*
X473205Y423642D01*
X472710Y423795D01*
X472462Y423890D01*
X472215Y424004D01*
X471967Y424137D01*
X471720Y424309D01*
X471510Y424499D01*
X471301Y424709D01*
X471282Y424728D01*
X471263Y424766D01*
X471205Y424842D01*
X471148Y424937D01*
X471072Y425051D01*
X470977Y425223D01*
X470882Y425394D01*
X470806Y425603D01*
X470710Y425832D01*
X470615Y426098D01*
X470520Y426384D01*
X470444Y426689D01*
X470387Y427012D01*
X470330Y427374D01*
X470311Y427774D01*
X470292Y428174D01*
Y439103D01*
X467074D01*
Y441426D01*
X470292D01*
Y445691D01*
X473300D01*
Y441426D01*
D02*
G37*
G36*
X413667Y441730D02*
X413914Y441711D01*
X414200Y441673D01*
X414523Y441635D01*
X414904Y441559D01*
X415304Y441464D01*
X415723Y441350D01*
X416142Y441197D01*
X416599Y441007D01*
X417037Y440797D01*
X417475Y440531D01*
X417893Y440226D01*
X418293Y439883D01*
X418674Y439484D01*
X418693Y439465D01*
X418750Y439369D01*
X418845Y439255D01*
X418979Y439065D01*
X419112Y438836D01*
X419283Y438551D01*
X419455Y438208D01*
X419626Y437827D01*
X419797Y437389D01*
X419969Y436894D01*
X420140Y436361D01*
X420273Y435790D01*
X420407Y435161D01*
X420502Y434476D01*
X420559Y433753D01*
X420578Y432991D01*
Y431753D01*
X408659D01*
Y431715D01*
Y431639D01*
X408678Y431506D01*
X408697Y431315D01*
X408716Y431106D01*
X408754Y430839D01*
X408811Y430554D01*
X408869Y430249D01*
X408945Y429925D01*
X409059Y429583D01*
X409173Y429240D01*
X409325Y428878D01*
X409497Y428536D01*
X409687Y428193D01*
X409916Y427850D01*
X410163Y427545D01*
X410182Y427527D01*
X410239Y427469D01*
X410316Y427393D01*
X410430Y427298D01*
X410563Y427184D01*
X410753Y427032D01*
X410944Y426898D01*
X411172Y426746D01*
X411439Y426593D01*
X411705Y426460D01*
X412029Y426327D01*
X412353Y426194D01*
X412696Y426098D01*
X413076Y426022D01*
X413457Y425965D01*
X413876Y425946D01*
X414028D01*
X414143Y425965D01*
X414276D01*
X414447Y425984D01*
X414619Y426003D01*
X414809Y426022D01*
X415247Y426098D01*
X415685Y426213D01*
X416142Y426384D01*
X416580Y426593D01*
X416599D01*
X416637Y426632D01*
X416694Y426670D01*
X416770Y426708D01*
X416980Y426860D01*
X417246Y427050D01*
X417532Y427298D01*
X417874Y427584D01*
X418198Y427926D01*
X418522Y428307D01*
X420350Y426879D01*
X420331Y426841D01*
X420254Y426727D01*
X420121Y426575D01*
X419931Y426346D01*
X419702Y426098D01*
X419417Y425813D01*
X419074Y425508D01*
X418693Y425185D01*
X418255Y424861D01*
X417760Y424556D01*
X417227Y424271D01*
X416618Y424023D01*
X415970Y423795D01*
X415285Y423642D01*
X414523Y423528D01*
X414123Y423509D01*
X413724Y423490D01*
X413571D01*
X413381Y423509D01*
X413133Y423528D01*
X412829Y423566D01*
X412467Y423623D01*
X412086Y423680D01*
X411648Y423776D01*
X411191Y423909D01*
X410734Y424061D01*
X410239Y424252D01*
X409763Y424480D01*
X409268Y424747D01*
X408792Y425051D01*
X408335Y425413D01*
X407897Y425832D01*
X407878Y425851D01*
X407802Y425946D01*
X407688Y426079D01*
X407555Y426270D01*
X407383Y426498D01*
X407193Y426784D01*
X406984Y427127D01*
X406774Y427507D01*
X406565Y427926D01*
X406355Y428402D01*
X406165Y428916D01*
X405993Y429488D01*
X405860Y430078D01*
X405746Y430725D01*
X405670Y431392D01*
X405651Y432115D01*
Y432667D01*
Y432705D01*
Y432782D01*
Y432915D01*
X405670Y433105D01*
X405689Y433334D01*
X405708Y433600D01*
X405727Y433905D01*
X405784Y434248D01*
X405822Y434590D01*
X405898Y434971D01*
X406070Y435752D01*
X406184Y436152D01*
X406317Y436552D01*
X406469Y436951D01*
X406641Y437351D01*
X406660Y437370D01*
X406679Y437446D01*
X406755Y437541D01*
X406831Y437694D01*
X406926Y437865D01*
X407060Y438056D01*
X407193Y438284D01*
X407364Y438532D01*
X407555Y438779D01*
X407764Y439046D01*
X407993Y439312D01*
X408240Y439579D01*
X408526Y439845D01*
X408811Y440093D01*
X409116Y440340D01*
X409440Y440569D01*
X409459Y440588D01*
X409516Y440626D01*
X409630Y440683D01*
X409763Y440759D01*
X409916Y440836D01*
X410125Y440950D01*
X410354Y441045D01*
X410601Y441159D01*
X410887Y441273D01*
X411191Y441369D01*
X411515Y441483D01*
X411858Y441559D01*
X412200Y441635D01*
X412581Y441692D01*
X412962Y441730D01*
X413343Y441749D01*
X413495D01*
X413667Y441730D01*
D02*
G37*
G36*
X438704D02*
X438933Y441711D01*
X439199Y441673D01*
X439523Y441635D01*
X439866Y441559D01*
X440227Y441464D01*
X440627Y441350D01*
X441046Y441197D01*
X441465Y441007D01*
X441884Y440778D01*
X442284Y440531D01*
X442684Y440226D01*
X443064Y439864D01*
X443426Y439465D01*
X443559Y441426D01*
X446320D01*
Y424233D01*
Y424194D01*
Y424080D01*
X446301Y423909D01*
X446282Y423661D01*
X446263Y423376D01*
X446206Y423052D01*
X446149Y422690D01*
X446073Y422291D01*
X445958Y421872D01*
X445825Y421434D01*
X445654Y420977D01*
X445463Y420539D01*
X445235Y420082D01*
X444949Y419663D01*
X444645Y419244D01*
X444283Y418863D01*
X444264Y418844D01*
X444188Y418787D01*
X444073Y418673D01*
X443921Y418559D01*
X443712Y418406D01*
X443464Y418235D01*
X443179Y418064D01*
X442855Y417873D01*
X442474Y417683D01*
X442074Y417511D01*
X441617Y417340D01*
X441141Y417188D01*
X440608Y417073D01*
X440056Y416978D01*
X439466Y416902D01*
X438837Y416883D01*
X438647D01*
X438514Y416902D01*
X438342D01*
X438133Y416921D01*
X437905Y416959D01*
X437657Y416978D01*
X437390Y417035D01*
X437086Y417093D01*
X436457Y417226D01*
X435791Y417435D01*
X435448Y417550D01*
X435106Y417702D01*
X435087Y417721D01*
X435029Y417740D01*
X434934Y417778D01*
X434801Y417854D01*
X434649Y417930D01*
X434477Y418045D01*
X434077Y418292D01*
X433639Y418597D01*
X433183Y418997D01*
X432745Y419434D01*
X432535Y419682D01*
X432345Y419930D01*
X433906Y421738D01*
X433925Y421719D01*
X434001Y421643D01*
X434096Y421510D01*
X434249Y421357D01*
X434439Y421186D01*
X434668Y420977D01*
X434915Y420767D01*
X435220Y420539D01*
X435543Y420310D01*
X435905Y420101D01*
X436286Y419891D01*
X436705Y419720D01*
X437162Y419568D01*
X437619Y419434D01*
X438114Y419358D01*
X438628Y419339D01*
X438837D01*
X438990Y419358D01*
X439180Y419377D01*
X439390Y419396D01*
X439637Y419434D01*
X439885Y419492D01*
X440437Y419644D01*
X440722Y419739D01*
X441008Y419853D01*
X441294Y420006D01*
X441560Y420177D01*
X441808Y420367D01*
X442055Y420577D01*
X442074Y420596D01*
X442112Y420634D01*
X442169Y420710D01*
X442246Y420805D01*
X442341Y420939D01*
X442455Y421091D01*
X442550Y421262D01*
X442684Y421472D01*
X442798Y421700D01*
X442893Y421967D01*
X443007Y422252D01*
X443102Y422557D01*
X443179Y422900D01*
X443236Y423261D01*
X443274Y423642D01*
X443293Y424042D01*
Y425565D01*
X443274Y425546D01*
X443217Y425470D01*
X443102Y425375D01*
X442969Y425242D01*
X442779Y425089D01*
X442550Y424918D01*
X442303Y424728D01*
X441998Y424537D01*
X441655Y424328D01*
X441294Y424156D01*
X440894Y423966D01*
X440456Y423814D01*
X439980Y423680D01*
X439466Y423585D01*
X438933Y423509D01*
X438361Y423490D01*
X438228D01*
X438057Y423509D01*
X437847Y423528D01*
X437581Y423566D01*
X437276Y423623D01*
X436933Y423699D01*
X436572Y423795D01*
X436191Y423928D01*
X435772Y424099D01*
X435353Y424290D01*
X434934Y424537D01*
X434515Y424823D01*
X434116Y425146D01*
X433716Y425527D01*
X433354Y425965D01*
X433335Y426003D01*
X433278Y426079D01*
X433183Y426232D01*
X433049Y426422D01*
X432916Y426670D01*
X432745Y426974D01*
X432573Y427336D01*
X432402Y427755D01*
X432231Y428212D01*
X432059Y428726D01*
X431888Y429278D01*
X431755Y429887D01*
X431621Y430535D01*
X431526Y431239D01*
X431469Y431982D01*
X431450Y432762D01*
Y432782D01*
Y432801D01*
Y432858D01*
Y432953D01*
Y433048D01*
X431469Y433162D01*
X431488Y433448D01*
X431507Y433791D01*
X431545Y434191D01*
X431602Y434648D01*
X431697Y435123D01*
X431793Y435638D01*
X431907Y436171D01*
X432078Y436723D01*
X432250Y437256D01*
X432478Y437808D01*
X432726Y438341D01*
X433011Y438836D01*
X433354Y439312D01*
X433373Y439331D01*
X433449Y439427D01*
X433544Y439541D01*
X433697Y439693D01*
X433887Y439883D01*
X434116Y440093D01*
X434401Y440302D01*
X434706Y440531D01*
X435048Y440759D01*
X435429Y440988D01*
X435829Y441178D01*
X436286Y441369D01*
X436762Y441521D01*
X437276Y441654D01*
X437828Y441730D01*
X438400Y441749D01*
X438533D01*
X438704Y441730D01*
D02*
G37*
%LPC*%
G36*
X467607Y562581D02*
X462561D01*
Y555022D01*
X467474D01*
X467626Y555041D01*
X467797Y555060D01*
X467988Y555079D01*
X468216Y555117D01*
X468464Y555155D01*
X468978Y555270D01*
X469511Y555460D01*
X469777Y555574D01*
X470044Y555708D01*
X470311Y555879D01*
X470539Y556050D01*
X470558Y556069D01*
X470596Y556107D01*
X470653Y556165D01*
X470729Y556241D01*
X470825Y556336D01*
X470939Y556469D01*
X471034Y556622D01*
X471167Y556793D01*
X471282Y556964D01*
X471377Y557174D01*
X471491Y557402D01*
X471586Y557650D01*
X471662Y557916D01*
X471720Y558202D01*
X471758Y558506D01*
X471777Y558830D01*
Y558849D01*
Y558925D01*
Y559021D01*
X471758Y559154D01*
X471739Y559306D01*
X471720Y559496D01*
X471681Y559706D01*
X471643Y559915D01*
X471491Y560391D01*
X471415Y560620D01*
X471301Y560867D01*
X471167Y561096D01*
X471015Y561305D01*
X470844Y561515D01*
X470634Y561686D01*
X470615Y561705D01*
X470577Y561724D01*
X470520Y561762D01*
X470425Y561819D01*
X470311Y561896D01*
X470158Y561972D01*
X469987Y562048D01*
X469777Y562143D01*
X469549Y562219D01*
X469301Y562295D01*
X469016Y562372D01*
X468711Y562448D01*
X468368Y562505D01*
X468007Y562543D01*
X467607Y562581D01*
D02*
G37*
G36*
X467759Y552509D02*
X462561D01*
Y543998D01*
X467931D01*
X468083Y544017D01*
X468254Y544036D01*
X468483Y544055D01*
X468711Y544093D01*
X468959Y544131D01*
X469511Y544265D01*
X469797Y544360D01*
X470082Y544474D01*
X470368Y544607D01*
X470634Y544760D01*
X470901Y544931D01*
X471148Y545121D01*
X471167Y545140D01*
X471205Y545178D01*
X471263Y545236D01*
X471358Y545331D01*
X471453Y545445D01*
X471548Y545578D01*
X471662Y545750D01*
X471796Y545940D01*
X471910Y546149D01*
X472024Y546378D01*
X472119Y546626D01*
X472234Y546911D01*
X472310Y547197D01*
X472367Y547520D01*
X472405Y547863D01*
X472424Y548225D01*
Y548244D01*
Y548282D01*
Y548339D01*
Y548415D01*
X472386Y548625D01*
X472348Y548891D01*
X472291Y549215D01*
X472177Y549577D01*
X472043Y549976D01*
X471834Y550376D01*
X471586Y550776D01*
X471282Y551157D01*
X470901Y551519D01*
X470691Y551690D01*
X470463Y551842D01*
X470196Y551976D01*
X469930Y552109D01*
X469625Y552223D01*
X469301Y552318D01*
X468959Y552395D01*
X468578Y552471D01*
X468178Y552490D01*
X467759Y552509D01*
D02*
G37*
G36*
X399825Y562581D02*
X396188D01*
Y543998D01*
X399634D01*
X399825Y544017D01*
X400072Y544036D01*
X400377Y544074D01*
X400719Y544112D01*
X401119Y544188D01*
X401538Y544284D01*
X401976Y544398D01*
X402433Y544550D01*
X402890Y544722D01*
X403366Y544950D01*
X403823Y545197D01*
X404261Y545502D01*
X404680Y545845D01*
X405080Y546245D01*
X405099Y546264D01*
X405175Y546359D01*
X405270Y546473D01*
X405403Y546664D01*
X405555Y546892D01*
X405727Y547178D01*
X405898Y547501D01*
X406089Y547882D01*
X406279Y548320D01*
X406450Y548796D01*
X406622Y549329D01*
X406774Y549900D01*
X406907Y550510D01*
X407003Y551176D01*
X407079Y551881D01*
X407098Y552642D01*
Y554013D01*
Y554032D01*
Y554051D01*
Y554108D01*
Y554184D01*
Y554280D01*
X407079Y554394D01*
X407060Y554679D01*
X407041Y555022D01*
X407003Y555422D01*
X406945Y555841D01*
X406869Y556317D01*
X406755Y556812D01*
X406641Y557326D01*
X406489Y557859D01*
X406298Y558373D01*
X406070Y558887D01*
X405822Y559382D01*
X405537Y559858D01*
X405194Y560296D01*
X405175Y560315D01*
X405099Y560391D01*
X405003Y560506D01*
X404851Y560658D01*
X404642Y560810D01*
X404413Y561001D01*
X404128Y561210D01*
X403823Y561420D01*
X403461Y561629D01*
X403061Y561838D01*
X402623Y562029D01*
X402128Y562200D01*
X401614Y562353D01*
X401062Y562467D01*
X400453Y562543D01*
X399825Y562581D01*
D02*
G37*
G36*
X423605Y562771D02*
X423472D01*
X423320Y562752D01*
X423110Y562733D01*
X422863Y562695D01*
X422577Y562657D01*
X422254Y562581D01*
X421911Y562486D01*
X421549Y562372D01*
X421168Y562219D01*
X420787Y562029D01*
X420388Y561819D01*
X420007Y561553D01*
X419626Y561248D01*
X419283Y560906D01*
X418941Y560506D01*
X418922Y560487D01*
X418864Y560410D01*
X418788Y560277D01*
X418674Y560087D01*
X418541Y559858D01*
X418407Y559592D01*
X418255Y559249D01*
X418084Y558887D01*
X417932Y558468D01*
X417779Y557992D01*
X417627Y557478D01*
X417494Y556926D01*
X417379Y556317D01*
X417303Y555669D01*
X417227Y554984D01*
X417208Y554260D01*
Y552509D01*
Y552490D01*
Y552471D01*
Y552414D01*
Y552338D01*
Y552242D01*
X417227Y552109D01*
Y551842D01*
X417265Y551500D01*
X417303Y551100D01*
X417360Y550662D01*
X417417Y550186D01*
X417513Y549672D01*
X417627Y549158D01*
X417760Y548625D01*
X417932Y548092D01*
X418122Y547558D01*
X418350Y547044D01*
X418617Y546549D01*
X418922Y546092D01*
X418941Y546073D01*
X418998Y545997D01*
X419093Y545883D01*
X419245Y545731D01*
X419417Y545559D01*
X419626Y545350D01*
X419874Y545140D01*
X420159Y544931D01*
X420483Y544722D01*
X420826Y544512D01*
X421206Y544303D01*
X421644Y544131D01*
X422082Y543979D01*
X422577Y543865D01*
X423091Y543788D01*
X423643Y543770D01*
X423777D01*
X423929Y543788D01*
X424139Y543808D01*
X424405Y543846D01*
X424691Y543884D01*
X425014Y543960D01*
X425357Y544036D01*
X425738Y544150D01*
X426119Y544303D01*
X426500Y544474D01*
X426899Y544702D01*
X427280Y544950D01*
X427642Y545236D01*
X428004Y545578D01*
X428327Y545959D01*
X428346Y545978D01*
X428404Y546054D01*
X428480Y546188D01*
X428594Y546378D01*
X428708Y546606D01*
X428861Y546873D01*
X429013Y547197D01*
X429165Y547577D01*
X429317Y547996D01*
X429470Y548472D01*
X429622Y548986D01*
X429755Y549558D01*
X429870Y550167D01*
X429946Y550833D01*
X430022Y551538D01*
X430041Y552280D01*
Y554051D01*
Y554070D01*
Y554108D01*
Y554165D01*
Y554242D01*
Y554337D01*
X430022Y554451D01*
Y554737D01*
X429984Y555098D01*
X429946Y555498D01*
X429908Y555955D01*
X429832Y556431D01*
X429736Y556945D01*
X429622Y557478D01*
X429489Y558011D01*
X429317Y558544D01*
X429127Y559078D01*
X428899Y559592D01*
X428651Y560068D01*
X428346Y560506D01*
X428327Y560525D01*
X428270Y560601D01*
X428175Y560715D01*
X428042Y560867D01*
X427870Y561039D01*
X427642Y561229D01*
X427394Y561420D01*
X427128Y561648D01*
X426804Y561858D01*
X426442Y562048D01*
X426062Y562238D01*
X425624Y562410D01*
X425167Y562562D01*
X424691Y562676D01*
X424158Y562752D01*
X423605Y562771D01*
D02*
G37*
G36*
X434972Y492483D02*
X432383D01*
X432250Y492464D01*
X432097D01*
X431926Y492445D01*
X431755Y492426D01*
X431336Y492388D01*
X430860Y492312D01*
X430365Y492217D01*
X429851Y492084D01*
X429337Y491912D01*
X428841Y491703D01*
X428365Y491436D01*
X427947Y491113D01*
X427775Y490941D01*
X427604Y490751D01*
X427452Y490541D01*
X427318Y490313D01*
X427223Y490084D01*
X427147Y489818D01*
X427109Y489532D01*
X427090Y489247D01*
Y489227D01*
Y489189D01*
Y489113D01*
X427109Y489018D01*
X427128Y488885D01*
X427147Y488752D01*
X427204Y488428D01*
X427318Y488085D01*
X427490Y487704D01*
X427585Y487514D01*
X427718Y487343D01*
X427851Y487171D01*
X428023Y487019D01*
X428042D01*
X428061Y486981D01*
X428118Y486943D01*
X428194Y486905D01*
X428289Y486847D01*
X428404Y486771D01*
X428689Y486638D01*
X429032Y486486D01*
X429451Y486352D01*
X429927Y486276D01*
X430460Y486238D01*
X430593D01*
X430707Y486257D01*
X430822D01*
X430974Y486276D01*
X431145Y486295D01*
X431317Y486333D01*
X431736Y486410D01*
X432173Y486543D01*
X432649Y486714D01*
X433125Y486962D01*
X433145D01*
X433183Y487000D01*
X433240Y487038D01*
X433335Y487095D01*
X433563Y487247D01*
X433830Y487476D01*
X434135Y487742D01*
X434439Y488066D01*
X434725Y488447D01*
X434972Y488866D01*
Y492483D01*
D02*
G37*
G36*
X373797Y505069D02*
X370160D01*
Y486486D01*
X373606D01*
X373797Y486505D01*
X374044Y486524D01*
X374349Y486562D01*
X374692Y486600D01*
X375092Y486676D01*
X375510Y486771D01*
X375948Y486886D01*
X376405Y487038D01*
X376862Y487209D01*
X377338Y487438D01*
X377795Y487685D01*
X378233Y487990D01*
X378652Y488333D01*
X379052Y488732D01*
X379071Y488752D01*
X379147Y488847D01*
X379242Y488961D01*
X379376Y489151D01*
X379528Y489380D01*
X379699Y489665D01*
X379871Y489989D01*
X380061Y490370D01*
X380251Y490808D01*
X380423Y491284D01*
X380594Y491817D01*
X380746Y492388D01*
X380880Y492997D01*
X380975Y493664D01*
X381051Y494368D01*
X381070Y495130D01*
Y496501D01*
Y496520D01*
Y496539D01*
Y496596D01*
Y496672D01*
Y496767D01*
X381051Y496882D01*
X381032Y497167D01*
X381013Y497510D01*
X380975Y497910D01*
X380918Y498329D01*
X380842Y498805D01*
X380727Y499300D01*
X380613Y499814D01*
X380461Y500347D01*
X380270Y500861D01*
X380042Y501375D01*
X379794Y501870D01*
X379509Y502346D01*
X379166Y502784D01*
X379147Y502803D01*
X379071Y502879D01*
X378976Y502993D01*
X378823Y503146D01*
X378614Y503298D01*
X378385Y503488D01*
X378100Y503698D01*
X377795Y503907D01*
X377433Y504117D01*
X377034Y504326D01*
X376596Y504517D01*
X376101Y504688D01*
X375587Y504840D01*
X375034Y504955D01*
X374425Y505031D01*
X373797Y505069D01*
D02*
G37*
G36*
X549422Y496958D02*
X549269D01*
X549155Y496939D01*
X549022D01*
X548870Y496901D01*
X548679Y496882D01*
X548489Y496843D01*
X548032Y496729D01*
X547556Y496558D01*
X547308Y496463D01*
X547061Y496329D01*
X546813Y496196D01*
X546566Y496025D01*
X546547Y496006D01*
X546509Y495987D01*
X546452Y495930D01*
X546356Y495853D01*
X546242Y495758D01*
X546128Y495663D01*
X545861Y495377D01*
X545557Y495054D01*
X545252Y494654D01*
X544985Y494197D01*
X544757Y493702D01*
Y492598D01*
Y492559D01*
Y492464D01*
Y492312D01*
X544776Y492122D01*
X544795Y491855D01*
X544833Y491569D01*
X544871Y491265D01*
X544928Y490903D01*
X544985Y490541D01*
X545081Y490161D01*
X545176Y489761D01*
X545309Y489361D01*
X545461Y488980D01*
X545633Y488599D01*
X545842Y488218D01*
X546071Y487876D01*
X546090Y487857D01*
X546128Y487800D01*
X546204Y487704D01*
X546318Y487609D01*
X546432Y487457D01*
X546604Y487324D01*
X546775Y487152D01*
X546985Y487000D01*
X547213Y486829D01*
X547461Y486657D01*
X547727Y486524D01*
X548032Y486390D01*
X548337Y486276D01*
X548660Y486181D01*
X549003Y486124D01*
X549365Y486105D01*
X549460D01*
X549555Y486124D01*
X549707D01*
X549879Y486143D01*
X550069Y486181D01*
X550298Y486238D01*
X550526Y486295D01*
X550774Y486372D01*
X551040Y486467D01*
X551307Y486581D01*
X551573Y486733D01*
X551840Y486905D01*
X552087Y487095D01*
X552335Y487324D01*
X552563Y487590D01*
X552582Y487609D01*
X552621Y487666D01*
X552678Y487742D01*
X552754Y487857D01*
X552830Y488009D01*
X552925Y488199D01*
X553039Y488409D01*
X553154Y488637D01*
X553249Y488923D01*
X553363Y489209D01*
X553458Y489532D01*
X553553Y489875D01*
X553611Y490256D01*
X553668Y490656D01*
X553706Y491074D01*
X553725Y491512D01*
Y491531D01*
Y491627D01*
Y491741D01*
X553706Y491912D01*
X553687Y492122D01*
X553668Y492369D01*
X553630Y492636D01*
X553573Y492921D01*
X553439Y493550D01*
X553344Y493873D01*
X553230Y494197D01*
X553096Y494540D01*
X552925Y494844D01*
X552754Y495168D01*
X552544Y495454D01*
X552525Y495473D01*
X552487Y495511D01*
X552430Y495587D01*
X552335Y495682D01*
X552221Y495796D01*
X552068Y495930D01*
X551897Y496063D01*
X551707Y496215D01*
X551497Y496348D01*
X551269Y496482D01*
X551002Y496615D01*
X550736Y496729D01*
X550431Y496825D01*
X550107Y496901D01*
X549784Y496939D01*
X549422Y496958D01*
D02*
G37*
G36*
X530210Y505469D02*
X530115D01*
X529982Y505450D01*
X529830D01*
X529639Y505411D01*
X529430Y505373D01*
X529182Y505316D01*
X528935Y505259D01*
X528649Y505164D01*
X528383Y505050D01*
X528097Y504897D01*
X527811Y504726D01*
X527545Y504536D01*
X527297Y504288D01*
X527050Y504022D01*
X526840Y503717D01*
X526821Y503698D01*
X526802Y503641D01*
X526745Y503527D01*
X526669Y503393D01*
X526593Y503203D01*
X526517Y502974D01*
X526402Y502708D01*
X526307Y502403D01*
X526212Y502041D01*
X526117Y501642D01*
X526022Y501204D01*
X525945Y500728D01*
X525869Y500214D01*
X525812Y499642D01*
X525774Y499014D01*
X525755Y498367D01*
Y493550D01*
Y493531D01*
Y493511D01*
Y493454D01*
Y493378D01*
Y493188D01*
X525774Y492921D01*
X525793Y492598D01*
X525812Y492236D01*
X525850Y491836D01*
X525888Y491417D01*
X525945Y490960D01*
X526022Y490484D01*
X526117Y490008D01*
X526231Y489551D01*
X526345Y489094D01*
X526498Y488656D01*
X526669Y488257D01*
X526859Y487895D01*
X526878Y487876D01*
X526917Y487818D01*
X526974Y487723D01*
X527069Y487609D01*
X527183Y487476D01*
X527335Y487324D01*
X527507Y487152D01*
X527697Y486981D01*
X527926Y486809D01*
X528173Y486638D01*
X528459Y486486D01*
X528763Y486352D01*
X529087Y486238D01*
X529449Y486143D01*
X529830Y486086D01*
X530248Y486067D01*
X530344D01*
X530458Y486086D01*
X530610D01*
X530801Y486124D01*
X531010Y486162D01*
X531239Y486219D01*
X531505Y486276D01*
X531753Y486372D01*
X532038Y486486D01*
X532305Y486619D01*
X532571Y486790D01*
X532838Y486981D01*
X533105Y487209D01*
X533333Y487476D01*
X533542Y487781D01*
X533561Y487800D01*
X533580Y487857D01*
X533638Y487971D01*
X533714Y488104D01*
X533790Y488295D01*
X533885Y488523D01*
X533980Y488790D01*
X534095Y489113D01*
X534190Y489475D01*
X534304Y489875D01*
X534399Y490313D01*
X534475Y490808D01*
X534551Y491341D01*
X534628Y491912D01*
X534666Y492541D01*
X534685Y493207D01*
Y498138D01*
Y498157D01*
Y498176D01*
Y498233D01*
Y498310D01*
Y498500D01*
X534666Y498767D01*
X534647Y499071D01*
X534628Y499433D01*
X534590Y499833D01*
X534551Y500271D01*
X534494Y500728D01*
X534418Y501185D01*
X534342Y501642D01*
X534228Y502099D01*
X534095Y502556D01*
X533961Y502974D01*
X533790Y503374D01*
X533600Y503717D01*
X533580Y503736D01*
X533542Y503793D01*
X533485Y503888D01*
X533390Y503983D01*
X533276Y504117D01*
X533143Y504269D01*
X532971Y504421D01*
X532781Y504593D01*
X532552Y504764D01*
X532305Y504916D01*
X532019Y505069D01*
X531715Y505202D01*
X531391Y505316D01*
X531029Y505393D01*
X530629Y505450D01*
X530210Y505469D01*
D02*
G37*
G36*
X485466Y499395D02*
X485295D01*
X485162Y499376D01*
X485009Y499357D01*
X484819Y499319D01*
X484629Y499281D01*
X484400Y499224D01*
X484172Y499166D01*
X483924Y499071D01*
X483658Y498957D01*
X483410Y498843D01*
X483144Y498671D01*
X482896Y498500D01*
X482649Y498290D01*
X482401Y498062D01*
X482382Y498043D01*
X482344Y498005D01*
X482287Y497929D01*
X482211Y497815D01*
X482115Y497681D01*
X482001Y497510D01*
X481887Y497320D01*
X481754Y497091D01*
X481620Y496843D01*
X481487Y496577D01*
X481373Y496272D01*
X481240Y495930D01*
X481125Y495568D01*
X481030Y495187D01*
X480954Y494787D01*
X480878Y494349D01*
X489693D01*
Y494559D01*
Y494578D01*
Y494654D01*
X489674Y494787D01*
X489655Y494940D01*
X489636Y495130D01*
X489598Y495358D01*
X489541Y495606D01*
X489484Y495872D01*
X489331Y496444D01*
X489122Y497034D01*
X488989Y497320D01*
X488817Y497605D01*
X488646Y497872D01*
X488456Y498119D01*
X488437Y498138D01*
X488399Y498176D01*
X488341Y498233D01*
X488246Y498329D01*
X488151Y498424D01*
X487999Y498519D01*
X487846Y498633D01*
X487675Y498767D01*
X487466Y498881D01*
X487237Y498995D01*
X486990Y499090D01*
X486723Y499204D01*
X486437Y499281D01*
X486133Y499338D01*
X485809Y499376D01*
X485466Y499395D01*
D02*
G37*
G36*
X443388Y469258D02*
X443293D01*
X443179Y469239D01*
X443026D01*
X442836Y469201D01*
X442626Y469163D01*
X442379Y469106D01*
X442131Y469049D01*
X441865Y468954D01*
X441579Y468840D01*
X441294Y468706D01*
X441008Y468535D01*
X440722Y468344D01*
X440437Y468116D01*
X440189Y467849D01*
X439942Y467545D01*
X439923Y467526D01*
X439885Y467469D01*
X439827Y467373D01*
X439751Y467221D01*
X439656Y467050D01*
X439542Y466821D01*
X439447Y466574D01*
X439332Y466269D01*
X439199Y465926D01*
X439104Y465565D01*
X438990Y465146D01*
X438895Y464689D01*
X438818Y464194D01*
X438761Y463661D01*
X438723Y463089D01*
X438704Y462480D01*
Y462442D01*
Y462347D01*
Y462194D01*
X438723Y461985D01*
X438742Y461738D01*
X438761Y461433D01*
X438799Y461109D01*
X438857Y460767D01*
X438933Y460386D01*
X439009Y460005D01*
X439104Y459624D01*
X439218Y459224D01*
X439371Y458844D01*
X439542Y458463D01*
X439732Y458101D01*
X439942Y457777D01*
X439961Y457758D01*
X439999Y457701D01*
X440075Y457625D01*
X440170Y457511D01*
X440304Y457396D01*
X440456Y457244D01*
X440627Y457092D01*
X440837Y456940D01*
X441065Y456787D01*
X441313Y456635D01*
X441598Y456483D01*
X441903Y456368D01*
X442227Y456254D01*
X442588Y456178D01*
X442950Y456121D01*
X443350Y456102D01*
X443483D01*
X443616Y456121D01*
X443826Y456140D01*
X444054Y456178D01*
X444321Y456235D01*
X444626Y456311D01*
X444949Y456425D01*
X445292Y456559D01*
X445635Y456730D01*
X445977Y456940D01*
X446339Y457187D01*
X446663Y457473D01*
X446987Y457815D01*
X447272Y458215D01*
X447539Y458672D01*
Y466764D01*
X447520Y466802D01*
X447482Y466878D01*
X447405Y466993D01*
X447291Y467164D01*
X447139Y467335D01*
X446968Y467545D01*
X446758Y467773D01*
X446511Y468021D01*
X446244Y468249D01*
X445939Y468478D01*
X445597Y468687D01*
X445216Y468878D01*
X444816Y469030D01*
X444378Y469144D01*
X443902Y469239D01*
X443388Y469258D01*
D02*
G37*
G36*
X518977Y466897D02*
X518824D01*
X518710Y466878D01*
X518577D01*
X518425Y466840D01*
X518234Y466821D01*
X518044Y466783D01*
X517587Y466669D01*
X517111Y466498D01*
X516863Y466402D01*
X516616Y466269D01*
X516368Y466136D01*
X516121Y465964D01*
X516102Y465945D01*
X516064Y465926D01*
X516007Y465869D01*
X515911Y465793D01*
X515797Y465698D01*
X515683Y465603D01*
X515416Y465317D01*
X515112Y464993D01*
X514807Y464594D01*
X514540Y464137D01*
X514312Y463642D01*
Y462537D01*
Y462499D01*
Y462404D01*
Y462252D01*
X514331Y462061D01*
X514350Y461795D01*
X514388Y461509D01*
X514426Y461204D01*
X514483Y460843D01*
X514540Y460481D01*
X514636Y460100D01*
X514731Y459700D01*
X514864Y459300D01*
X515017Y458920D01*
X515188Y458539D01*
X515397Y458158D01*
X515626Y457815D01*
X515645Y457796D01*
X515683Y457739D01*
X515759Y457644D01*
X515873Y457549D01*
X515987Y457396D01*
X516159Y457263D01*
X516330Y457092D01*
X516540Y456940D01*
X516768Y456768D01*
X517016Y456597D01*
X517282Y456463D01*
X517587Y456330D01*
X517892Y456216D01*
X518215Y456121D01*
X518558Y456064D01*
X518920Y456045D01*
X519015D01*
X519110Y456064D01*
X519262D01*
X519434Y456083D01*
X519624Y456121D01*
X519853Y456178D01*
X520081Y456235D01*
X520329Y456311D01*
X520595Y456406D01*
X520862Y456521D01*
X521128Y456673D01*
X521395Y456844D01*
X521642Y457035D01*
X521890Y457263D01*
X522118Y457530D01*
X522137Y457549D01*
X522176Y457606D01*
X522233Y457682D01*
X522309Y457796D01*
X522385Y457949D01*
X522480Y458139D01*
X522594Y458348D01*
X522709Y458577D01*
X522804Y458862D01*
X522918Y459148D01*
X523013Y459472D01*
X523108Y459815D01*
X523166Y460195D01*
X523223Y460595D01*
X523261Y461014D01*
X523280Y461452D01*
Y461471D01*
Y461566D01*
Y461680D01*
X523261Y461852D01*
X523242Y462061D01*
X523223Y462309D01*
X523185Y462575D01*
X523128Y462861D01*
X522994Y463489D01*
X522899Y463813D01*
X522785Y464137D01*
X522651Y464479D01*
X522480Y464784D01*
X522309Y465108D01*
X522099Y465393D01*
X522080Y465412D01*
X522042Y465450D01*
X521985Y465526D01*
X521890Y465622D01*
X521776Y465736D01*
X521623Y465869D01*
X521452Y466003D01*
X521262Y466155D01*
X521052Y466288D01*
X520824Y466421D01*
X520557Y466555D01*
X520291Y466669D01*
X519986Y466764D01*
X519662Y466840D01*
X519339Y466878D01*
X518977Y466897D01*
D02*
G37*
G36*
X516425Y443368D02*
X516083Y442720D01*
X509057Y431772D01*
X516425D01*
Y443368D01*
D02*
G37*
G36*
X532838Y445348D02*
X532743D01*
X532609Y445329D01*
X532457D01*
X532267Y445291D01*
X532057Y445253D01*
X531810Y445196D01*
X531562Y445139D01*
X531277Y445043D01*
X531010Y444929D01*
X530724Y444777D01*
X530439Y444605D01*
X530172Y444415D01*
X529925Y444168D01*
X529677Y443901D01*
X529468Y443596D01*
X529449Y443577D01*
X529430Y443520D01*
X529373Y443406D01*
X529296Y443273D01*
X529220Y443082D01*
X529144Y442854D01*
X529030Y442587D01*
X528935Y442282D01*
X528839Y441921D01*
X528744Y441521D01*
X528649Y441083D01*
X528573Y440607D01*
X528497Y440093D01*
X528440Y439522D01*
X528402Y438893D01*
X528383Y438246D01*
Y433429D01*
Y433410D01*
Y433391D01*
Y433334D01*
Y433257D01*
Y433067D01*
X528402Y432801D01*
X528421Y432477D01*
X528440Y432115D01*
X528478Y431715D01*
X528516Y431296D01*
X528573Y430839D01*
X528649Y430364D01*
X528744Y429887D01*
X528859Y429430D01*
X528973Y428973D01*
X529125Y428536D01*
X529296Y428136D01*
X529487Y427774D01*
X529506Y427755D01*
X529544Y427698D01*
X529601Y427603D01*
X529696Y427488D01*
X529811Y427355D01*
X529963Y427203D01*
X530134Y427032D01*
X530325Y426860D01*
X530553Y426689D01*
X530801Y426517D01*
X531086Y426365D01*
X531391Y426232D01*
X531715Y426118D01*
X532076Y426022D01*
X532457Y425965D01*
X532876Y425946D01*
X532971D01*
X533085Y425965D01*
X533238D01*
X533428Y426003D01*
X533638Y426041D01*
X533866Y426098D01*
X534133Y426156D01*
X534380Y426251D01*
X534666Y426365D01*
X534932Y426498D01*
X535199Y426670D01*
X535465Y426860D01*
X535732Y427089D01*
X535960Y427355D01*
X536170Y427660D01*
X536189Y427679D01*
X536208Y427736D01*
X536265Y427850D01*
X536341Y427983D01*
X536417Y428174D01*
X536513Y428402D01*
X536608Y428669D01*
X536722Y428993D01*
X536817Y429354D01*
X536932Y429754D01*
X537027Y430192D01*
X537103Y430687D01*
X537179Y431220D01*
X537255Y431791D01*
X537293Y432420D01*
X537312Y433086D01*
Y438018D01*
Y438037D01*
Y438056D01*
Y438113D01*
Y438189D01*
Y438379D01*
X537293Y438646D01*
X537274Y438950D01*
X537255Y439312D01*
X537217Y439712D01*
X537179Y440150D01*
X537122Y440607D01*
X537046Y441064D01*
X536970Y441521D01*
X536855Y441978D01*
X536722Y442435D01*
X536589Y442854D01*
X536417Y443254D01*
X536227Y443596D01*
X536208Y443615D01*
X536170Y443672D01*
X536113Y443768D01*
X536018Y443863D01*
X535903Y443996D01*
X535770Y444148D01*
X535599Y444301D01*
X535408Y444472D01*
X535180Y444643D01*
X534932Y444796D01*
X534647Y444948D01*
X534342Y445081D01*
X534018Y445196D01*
X533657Y445272D01*
X533257Y445329D01*
X532838Y445348D01*
D02*
G37*
G36*
X413343Y439274D02*
X413171D01*
X413038Y439255D01*
X412886Y439236D01*
X412696Y439198D01*
X412505Y439160D01*
X412277Y439103D01*
X412048Y439046D01*
X411801Y438950D01*
X411534Y438836D01*
X411287Y438722D01*
X411020Y438551D01*
X410773Y438379D01*
X410525Y438170D01*
X410277Y437941D01*
X410258Y437922D01*
X410220Y437884D01*
X410163Y437808D01*
X410087Y437694D01*
X409992Y437561D01*
X409878Y437389D01*
X409763Y437199D01*
X409630Y436970D01*
X409497Y436723D01*
X409364Y436456D01*
X409249Y436152D01*
X409116Y435809D01*
X409002Y435447D01*
X408907Y435066D01*
X408830Y434666D01*
X408754Y434229D01*
X417570D01*
Y434438D01*
Y434457D01*
Y434533D01*
X417551Y434666D01*
X417532Y434819D01*
X417513Y435009D01*
X417475Y435238D01*
X417417Y435485D01*
X417360Y435752D01*
X417208Y436323D01*
X416999Y436913D01*
X416865Y437199D01*
X416694Y437484D01*
X416523Y437751D01*
X416332Y437998D01*
X416313Y438018D01*
X416275Y438056D01*
X416218Y438113D01*
X416123Y438208D01*
X416027Y438303D01*
X415875Y438398D01*
X415723Y438513D01*
X415552Y438646D01*
X415342Y438760D01*
X415114Y438874D01*
X414866Y438970D01*
X414600Y439084D01*
X414314Y439160D01*
X414009Y439217D01*
X413686Y439255D01*
X413343Y439274D01*
D02*
G37*
G36*
X439142Y439198D02*
X439047D01*
X438933Y439179D01*
X438780D01*
X438590Y439141D01*
X438380Y439103D01*
X438133Y439046D01*
X437885Y438989D01*
X437619Y438893D01*
X437333Y438779D01*
X437048Y438646D01*
X436762Y438475D01*
X436477Y438284D01*
X436191Y438056D01*
X435943Y437789D01*
X435696Y437484D01*
X435677Y437465D01*
X435639Y437408D01*
X435582Y437313D01*
X435505Y437161D01*
X435410Y436989D01*
X435315Y436761D01*
X435201Y436513D01*
X435087Y436209D01*
X434972Y435866D01*
X434858Y435504D01*
X434763Y435085D01*
X434668Y434628D01*
X434591Y434133D01*
X434534Y433600D01*
X434496Y433029D01*
X434477Y432420D01*
Y432382D01*
Y432287D01*
Y432134D01*
X434496Y431925D01*
X434515Y431677D01*
X434534Y431392D01*
X434573Y431068D01*
X434630Y430706D01*
X434687Y430344D01*
X434782Y429964D01*
X434877Y429583D01*
X434991Y429183D01*
X435125Y428802D01*
X435296Y428421D01*
X435486Y428060D01*
X435696Y427736D01*
X435715Y427717D01*
X435753Y427660D01*
X435829Y427584D01*
X435924Y427469D01*
X436039Y427336D01*
X436191Y427203D01*
X436381Y427050D01*
X436572Y426898D01*
X436800Y426727D01*
X437067Y426575D01*
X437352Y426441D01*
X437657Y426308D01*
X437981Y426194D01*
X438323Y426118D01*
X438704Y426060D01*
X439104Y426041D01*
X439237D01*
X439371Y426060D01*
X439580Y426079D01*
X439809Y426118D01*
X440075Y426175D01*
X440380Y426251D01*
X440703Y426365D01*
X441027Y426498D01*
X441389Y426670D01*
X441732Y426879D01*
X442074Y427127D01*
X442417Y427412D01*
X442722Y427755D01*
X443026Y428155D01*
X443293Y428612D01*
Y436666D01*
X443274Y436704D01*
X443236Y436780D01*
X443141Y436894D01*
X443026Y437066D01*
X442893Y437256D01*
X442703Y437465D01*
X442493Y437694D01*
X442246Y437941D01*
X441979Y438170D01*
X441674Y438398D01*
X441332Y438608D01*
X440951Y438798D01*
X440551Y438970D01*
X440113Y439084D01*
X439637Y439179D01*
X439142Y439198D01*
D02*
G37*
%LPD*%
M02*
