G04*
G04 #@! TF.GenerationSoftware,Altium Limited,Altium Designer,19.1.5 (86)*
G04*
G04 Layer_Color=65535*
%FSLAX25Y25*%
%MOIN*%
G70*
G01*
G75*
G36*
X343690Y368840D02*
X340413D01*
Y390306D01*
X332915Y368840D01*
X329860D01*
X322474Y390667D01*
Y368840D01*
X319197D01*
Y394472D01*
X324279D01*
X330360Y376310D01*
Y376282D01*
X330388Y376199D01*
X330444Y376060D01*
X330499Y375893D01*
X330555Y375699D01*
X330638Y375449D01*
X330832Y374894D01*
X331027Y374283D01*
X331221Y373644D01*
X331416Y373061D01*
X331499Y372783D01*
X331582Y372533D01*
Y372561D01*
X331610Y372589D01*
X331638Y372672D01*
X331665Y372783D01*
X331721Y372950D01*
X331776Y373116D01*
X331832Y373339D01*
X331915Y373561D01*
X331999Y373838D01*
X332110Y374144D01*
X332221Y374477D01*
X332332Y374866D01*
X332471Y375255D01*
X332610Y375699D01*
X332776Y376143D01*
X332943Y376643D01*
X339108Y394472D01*
X343690D01*
Y368840D01*
D02*
G37*
G36*
X450910Y394444D02*
X451215D01*
X451576Y394416D01*
X451993Y394388D01*
X452826Y394305D01*
X453687Y394166D01*
X454520Y394000D01*
X454881Y393888D01*
X455242Y393777D01*
X455270D01*
X455325Y393749D01*
X455409Y393694D01*
X455547Y393638D01*
X455881Y393472D01*
X456269Y393222D01*
X456742Y392889D01*
X457214Y392444D01*
X457686Y391945D01*
X458102Y391334D01*
Y391306D01*
X458158Y391250D01*
X458213Y391167D01*
X458269Y391028D01*
X458352Y390862D01*
X458435Y390667D01*
X458547Y390445D01*
X458658Y390195D01*
X458852Y389612D01*
X459019Y388973D01*
X459130Y388251D01*
X459185Y387474D01*
Y387446D01*
Y387362D01*
Y387196D01*
X459158Y387029D01*
X459130Y386779D01*
X459102Y386502D01*
X459047Y386196D01*
X458963Y385863D01*
X458741Y385141D01*
X458602Y384752D01*
X458435Y384363D01*
X458241Y383975D01*
X457991Y383586D01*
X457714Y383225D01*
X457408Y382864D01*
X457380Y382836D01*
X457325Y382780D01*
X457214Y382697D01*
X457075Y382558D01*
X456880Y382419D01*
X456658Y382253D01*
X456381Y382058D01*
X456047Y381864D01*
X455686Y381670D01*
X455298Y381475D01*
X454853Y381281D01*
X454353Y381086D01*
X453826Y380920D01*
X453242Y380753D01*
X452604Y380614D01*
X451937Y380503D01*
X451965D01*
X451993Y380475D01*
X452160Y380392D01*
X452409Y380253D01*
X452715Y380087D01*
X453048Y379892D01*
X453381Y379698D01*
X453715Y379448D01*
X453992Y379226D01*
X454020Y379198D01*
X454048Y379170D01*
X454131Y379087D01*
X454242Y378976D01*
X454381Y378837D01*
X454548Y378670D01*
X454909Y378282D01*
X455325Y377782D01*
X455797Y377199D01*
X456297Y376532D01*
X456797Y375810D01*
X461240Y368840D01*
X456991D01*
X453604Y374172D01*
X453576Y374200D01*
X453548Y374283D01*
X453465Y374394D01*
X453354Y374560D01*
X453242Y374755D01*
X453076Y374977D01*
X452743Y375477D01*
X452354Y376060D01*
X451965Y376643D01*
X451548Y377199D01*
X451160Y377698D01*
Y377726D01*
X451104Y377754D01*
X450993Y377893D01*
X450827Y378115D01*
X450577Y378365D01*
X450327Y378643D01*
X450021Y378920D01*
X449716Y379198D01*
X449438Y379393D01*
X449410Y379420D01*
X449299Y379476D01*
X449160Y379559D01*
X448966Y379670D01*
X448716Y379781D01*
X448466Y379892D01*
X448188Y380003D01*
X447883Y380087D01*
X447855D01*
X447772Y380115D01*
X447633Y380142D01*
X447439Y380170D01*
X447161D01*
X446828Y380198D01*
X446439Y380226D01*
X442079D01*
Y368840D01*
X438691D01*
Y394472D01*
X450604D01*
X450910Y394444D01*
D02*
G37*
G36*
X397203D02*
X397508D01*
X397869Y394416D01*
X398286Y394388D01*
X399119Y394305D01*
X399980Y394166D01*
X400813Y394000D01*
X401174Y393888D01*
X401535Y393777D01*
X401563D01*
X401618Y393749D01*
X401701Y393694D01*
X401840Y393638D01*
X402174Y393472D01*
X402562Y393222D01*
X403034Y392889D01*
X403506Y392444D01*
X403978Y391945D01*
X404395Y391334D01*
Y391306D01*
X404451Y391250D01*
X404506Y391167D01*
X404562Y391028D01*
X404645Y390862D01*
X404728Y390667D01*
X404839Y390445D01*
X404951Y390195D01*
X405145Y389612D01*
X405311Y388973D01*
X405423Y388251D01*
X405478Y387474D01*
Y387446D01*
Y387362D01*
Y387196D01*
X405450Y387029D01*
X405423Y386779D01*
X405395Y386502D01*
X405339Y386196D01*
X405256Y385863D01*
X405034Y385141D01*
X404895Y384752D01*
X404728Y384363D01*
X404534Y383975D01*
X404284Y383586D01*
X404006Y383225D01*
X403701Y382864D01*
X403673Y382836D01*
X403617Y382780D01*
X403506Y382697D01*
X403368Y382558D01*
X403173Y382419D01*
X402951Y382253D01*
X402673Y382058D01*
X402340Y381864D01*
X401979Y381670D01*
X401590Y381475D01*
X401146Y381281D01*
X400646Y381086D01*
X400118Y380920D01*
X399535Y380753D01*
X398897Y380614D01*
X398230Y380503D01*
X398258D01*
X398286Y380475D01*
X398452Y380392D01*
X398702Y380253D01*
X399008Y380087D01*
X399341Y379892D01*
X399674Y379698D01*
X400007Y379448D01*
X400285Y379226D01*
X400313Y379198D01*
X400341Y379170D01*
X400424Y379087D01*
X400535Y378976D01*
X400674Y378837D01*
X400841Y378670D01*
X401201Y378282D01*
X401618Y377782D01*
X402090Y377199D01*
X402590Y376532D01*
X403090Y375810D01*
X407533Y368840D01*
X403284D01*
X399896Y374172D01*
X399869Y374200D01*
X399841Y374283D01*
X399758Y374394D01*
X399646Y374560D01*
X399535Y374755D01*
X399369Y374977D01*
X399036Y375477D01*
X398647Y376060D01*
X398258Y376643D01*
X397841Y377199D01*
X397453Y377698D01*
Y377726D01*
X397397Y377754D01*
X397286Y377893D01*
X397119Y378115D01*
X396869Y378365D01*
X396620Y378643D01*
X396314Y378920D01*
X396009Y379198D01*
X395731Y379393D01*
X395703Y379420D01*
X395592Y379476D01*
X395453Y379559D01*
X395259Y379670D01*
X395009Y379781D01*
X394759Y379892D01*
X394481Y380003D01*
X394176Y380087D01*
X394148D01*
X394065Y380115D01*
X393926Y380142D01*
X393731Y380170D01*
X393454D01*
X393121Y380198D01*
X392732Y380226D01*
X388372D01*
Y368840D01*
X384984D01*
Y394472D01*
X396897D01*
X397203Y394444D01*
D02*
G37*
G36*
X371349D02*
X371654D01*
X372015Y394416D01*
X372432Y394388D01*
X373265Y394305D01*
X374126Y394166D01*
X374959Y394000D01*
X375320Y393888D01*
X375681Y393777D01*
X375709D01*
X375764Y393749D01*
X375848Y393694D01*
X375986Y393638D01*
X376320Y393472D01*
X376708Y393222D01*
X377181Y392889D01*
X377653Y392444D01*
X378125Y391945D01*
X378541Y391334D01*
Y391306D01*
X378597Y391250D01*
X378652Y391167D01*
X378708Y391028D01*
X378791Y390862D01*
X378874Y390667D01*
X378986Y390445D01*
X379097Y390195D01*
X379291Y389612D01*
X379458Y388973D01*
X379569Y388251D01*
X379624Y387474D01*
Y387446D01*
Y387362D01*
Y387196D01*
X379596Y387029D01*
X379569Y386779D01*
X379541Y386502D01*
X379485Y386196D01*
X379402Y385863D01*
X379180Y385141D01*
X379041Y384752D01*
X378874Y384363D01*
X378680Y383975D01*
X378430Y383586D01*
X378152Y383225D01*
X377847Y382864D01*
X377819Y382836D01*
X377764Y382780D01*
X377653Y382697D01*
X377514Y382558D01*
X377319Y382419D01*
X377097Y382253D01*
X376819Y382058D01*
X376486Y381864D01*
X376125Y381670D01*
X375736Y381475D01*
X375292Y381281D01*
X374792Y381086D01*
X374265Y380920D01*
X373681Y380753D01*
X373043Y380614D01*
X372376Y380503D01*
X372404D01*
X372432Y380475D01*
X372598Y380392D01*
X372848Y380253D01*
X373154Y380087D01*
X373487Y379892D01*
X373820Y379698D01*
X374154Y379448D01*
X374431Y379226D01*
X374459Y379198D01*
X374487Y379170D01*
X374570Y379087D01*
X374681Y378976D01*
X374820Y378837D01*
X374987Y378670D01*
X375348Y378282D01*
X375764Y377782D01*
X376236Y377199D01*
X376736Y376532D01*
X377236Y375810D01*
X381679Y368840D01*
X377430D01*
X374043Y374172D01*
X374015Y374200D01*
X373987Y374283D01*
X373904Y374394D01*
X373793Y374560D01*
X373681Y374755D01*
X373515Y374977D01*
X373182Y375477D01*
X372793Y376060D01*
X372404Y376643D01*
X371988Y377199D01*
X371599Y377698D01*
Y377726D01*
X371543Y377754D01*
X371432Y377893D01*
X371266Y378115D01*
X371016Y378365D01*
X370766Y378643D01*
X370460Y378920D01*
X370155Y379198D01*
X369877Y379393D01*
X369849Y379420D01*
X369738Y379476D01*
X369599Y379559D01*
X369405Y379670D01*
X369155Y379781D01*
X368905Y379892D01*
X368627Y380003D01*
X368322Y380087D01*
X368294D01*
X368211Y380115D01*
X368072Y380142D01*
X367878Y380170D01*
X367600D01*
X367267Y380198D01*
X366878Y380226D01*
X362518D01*
Y368840D01*
X359130D01*
Y394472D01*
X371043D01*
X371349Y394444D01*
D02*
G37*
G36*
X353104Y368840D02*
X349716D01*
Y394472D01*
X353104D01*
Y368840D01*
D02*
G37*
G36*
X422612Y394888D02*
X422945Y394860D01*
X423307Y394833D01*
X423695Y394777D01*
X424140Y394694D01*
X424639Y394610D01*
X425139Y394499D01*
X425667Y394360D01*
X426222Y394194D01*
X426778Y394000D01*
X427333Y393777D01*
X427861Y393527D01*
X428416Y393222D01*
X428444Y393194D01*
X428555Y393139D01*
X428694Y393055D01*
X428888Y392916D01*
X429138Y392750D01*
X429388Y392528D01*
X429694Y392278D01*
X430027Y392000D01*
X430388Y391667D01*
X430749Y391306D01*
X431110Y390917D01*
X431471Y390500D01*
X431804Y390056D01*
X432165Y389556D01*
X432471Y389029D01*
X432776Y388473D01*
X432804Y388445D01*
X432832Y388334D01*
X432915Y388168D01*
X432998Y387946D01*
X433137Y387668D01*
X433248Y387307D01*
X433387Y386918D01*
X433526Y386474D01*
X433665Y386002D01*
X433804Y385474D01*
X433942Y384891D01*
X434053Y384308D01*
X434137Y383669D01*
X434220Y383003D01*
X434248Y382336D01*
X434276Y381614D01*
Y381558D01*
Y381447D01*
Y381225D01*
X434248Y380948D01*
X434220Y380614D01*
X434192Y380226D01*
X434137Y379781D01*
X434081Y379281D01*
X433998Y378754D01*
X433887Y378198D01*
X433776Y377615D01*
X433609Y377032D01*
X433415Y376421D01*
X433220Y375838D01*
X432970Y375227D01*
X432693Y374644D01*
X432665Y374616D01*
X432609Y374505D01*
X432526Y374338D01*
X432415Y374144D01*
X432248Y373894D01*
X432054Y373588D01*
X431804Y373255D01*
X431554Y372894D01*
X431249Y372533D01*
X430915Y372145D01*
X430527Y371756D01*
X430138Y371367D01*
X429721Y371006D01*
X429249Y370645D01*
X428749Y370284D01*
X428222Y369978D01*
X428194Y369951D01*
X428083Y369923D01*
X427944Y369840D01*
X427722Y369728D01*
X427444Y369617D01*
X427139Y369479D01*
X426778Y369340D01*
X426361Y369201D01*
X425917Y369062D01*
X425445Y368923D01*
X424917Y368784D01*
X424390Y368673D01*
X423223Y368479D01*
X422612Y368451D01*
X422001Y368423D01*
X421640D01*
X421390Y368451D01*
X421085Y368479D01*
X420696Y368507D01*
X420307Y368562D01*
X419835Y368646D01*
X419363Y368729D01*
X418835Y368840D01*
X418308Y368979D01*
X417753Y369145D01*
X417197Y369340D01*
X416642Y369590D01*
X416086Y369840D01*
X415531Y370145D01*
X415503Y370173D01*
X415420Y370228D01*
X415253Y370339D01*
X415059Y370478D01*
X414837Y370645D01*
X414559Y370867D01*
X414253Y371117D01*
X413920Y371395D01*
X413559Y371728D01*
X413226Y372089D01*
X412865Y372478D01*
X412504Y372894D01*
X412143Y373366D01*
X411810Y373838D01*
X411504Y374366D01*
X411199Y374921D01*
X411171Y374949D01*
X411143Y375060D01*
X411060Y375227D01*
X410977Y375449D01*
X410865Y375727D01*
X410754Y376060D01*
X410616Y376421D01*
X410477Y376865D01*
X410338Y377310D01*
X410199Y377810D01*
X410088Y378337D01*
X409977Y378893D01*
X409810Y380059D01*
X409783Y380698D01*
X409755Y381309D01*
Y381336D01*
Y381392D01*
Y381475D01*
Y381586D01*
X409783Y381753D01*
Y381920D01*
X409810Y382364D01*
X409866Y382892D01*
X409949Y383530D01*
X410032Y384197D01*
X410171Y384946D01*
X410366Y385752D01*
X410588Y386557D01*
X410865Y387390D01*
X411199Y388223D01*
X411587Y389056D01*
X412032Y389834D01*
X412560Y390612D01*
X413170Y391306D01*
X413198Y391334D01*
X413337Y391472D01*
X413531Y391639D01*
X413781Y391861D01*
X414142Y392139D01*
X414531Y392444D01*
X415003Y392778D01*
X415559Y393111D01*
X416170Y393444D01*
X416836Y393777D01*
X417558Y394083D01*
X418363Y394360D01*
X419197Y394583D01*
X420085Y394749D01*
X421029Y394888D01*
X422029Y394916D01*
X422362D01*
X422612Y394888D01*
D02*
G37*
%LPC*%
G36*
X450715Y391639D02*
X442079D01*
Y383169D01*
X449744D01*
X449938Y383197D01*
X450160D01*
X450688Y383225D01*
X451271Y383280D01*
X451882Y383364D01*
X452465Y383475D01*
X452993Y383641D01*
X453020D01*
X453048Y383669D01*
X453215Y383725D01*
X453437Y383836D01*
X453742Y384002D01*
X454048Y384224D01*
X454381Y384474D01*
X454714Y384808D01*
X454992Y385169D01*
X455020Y385224D01*
X455103Y385363D01*
X455214Y385557D01*
X455353Y385863D01*
X455464Y386196D01*
X455575Y386585D01*
X455658Y387029D01*
X455686Y387474D01*
Y387501D01*
Y387557D01*
Y387640D01*
X455658Y387779D01*
Y387918D01*
X455631Y388112D01*
X455520Y388529D01*
X455353Y389001D01*
X455131Y389501D01*
X454798Y389973D01*
X454575Y390223D01*
X454353Y390445D01*
X454326Y390473D01*
X454298Y390500D01*
X454214Y390556D01*
X454103Y390639D01*
X453965Y390723D01*
X453770Y390834D01*
X453576Y390945D01*
X453326Y391056D01*
X453048Y391167D01*
X452743Y391250D01*
X452409Y391361D01*
X452048Y391445D01*
X451632Y391528D01*
X451188Y391583D01*
X450715Y391639D01*
D02*
G37*
G36*
X397008D02*
X388372D01*
Y383169D01*
X396036D01*
X396231Y383197D01*
X396453D01*
X396981Y383225D01*
X397564Y383280D01*
X398175Y383364D01*
X398758Y383475D01*
X399285Y383641D01*
X399313D01*
X399341Y383669D01*
X399508Y383725D01*
X399730Y383836D01*
X400035Y384002D01*
X400341Y384224D01*
X400674Y384474D01*
X401007Y384808D01*
X401285Y385169D01*
X401313Y385224D01*
X401396Y385363D01*
X401507Y385557D01*
X401646Y385863D01*
X401757Y386196D01*
X401868Y386585D01*
X401951Y387029D01*
X401979Y387474D01*
Y387501D01*
Y387557D01*
Y387640D01*
X401951Y387779D01*
Y387918D01*
X401924Y388112D01*
X401813Y388529D01*
X401646Y389001D01*
X401424Y389501D01*
X401090Y389973D01*
X400868Y390223D01*
X400646Y390445D01*
X400618Y390473D01*
X400591Y390500D01*
X400507Y390556D01*
X400396Y390639D01*
X400257Y390723D01*
X400063Y390834D01*
X399869Y390945D01*
X399619Y391056D01*
X399341Y391167D01*
X399036Y391250D01*
X398702Y391361D01*
X398341Y391445D01*
X397925Y391528D01*
X397480Y391583D01*
X397008Y391639D01*
D02*
G37*
G36*
X371154D02*
X362518D01*
Y383169D01*
X370182D01*
X370377Y383197D01*
X370599D01*
X371127Y383225D01*
X371710Y383280D01*
X372321Y383364D01*
X372904Y383475D01*
X373431Y383641D01*
X373459D01*
X373487Y383669D01*
X373654Y383725D01*
X373876Y383836D01*
X374181Y384002D01*
X374487Y384224D01*
X374820Y384474D01*
X375153Y384808D01*
X375431Y385169D01*
X375459Y385224D01*
X375542Y385363D01*
X375653Y385557D01*
X375792Y385863D01*
X375903Y386196D01*
X376014Y386585D01*
X376097Y387029D01*
X376125Y387474D01*
Y387501D01*
Y387557D01*
Y387640D01*
X376097Y387779D01*
Y387918D01*
X376070Y388112D01*
X375959Y388529D01*
X375792Y389001D01*
X375570Y389501D01*
X375237Y389973D01*
X375014Y390223D01*
X374792Y390445D01*
X374764Y390473D01*
X374737Y390500D01*
X374653Y390556D01*
X374542Y390639D01*
X374404Y390723D01*
X374209Y390834D01*
X374015Y390945D01*
X373765Y391056D01*
X373487Y391167D01*
X373182Y391250D01*
X372848Y391361D01*
X372487Y391445D01*
X372071Y391528D01*
X371626Y391583D01*
X371154Y391639D01*
D02*
G37*
G36*
X422501Y392000D02*
X421862D01*
X421696Y391972D01*
X421418D01*
X421113Y391917D01*
X420752Y391861D01*
X420363Y391778D01*
X419918Y391695D01*
X419446Y391556D01*
X418947Y391389D01*
X418419Y391195D01*
X417919Y390945D01*
X417391Y390667D01*
X416864Y390334D01*
X416336Y389945D01*
X415836Y389501D01*
X415809Y389473D01*
X415725Y389390D01*
X415586Y389223D01*
X415448Y389029D01*
X415225Y388751D01*
X415031Y388418D01*
X414781Y388001D01*
X414559Y387557D01*
X414309Y387001D01*
X414059Y386390D01*
X413865Y385724D01*
X413670Y384974D01*
X413504Y384169D01*
X413365Y383280D01*
X413281Y382308D01*
X413254Y381253D01*
Y381198D01*
Y381059D01*
X413281Y380809D01*
Y380475D01*
X413337Y380087D01*
X413393Y379642D01*
X413448Y379142D01*
X413559Y378615D01*
X413698Y378032D01*
X413865Y377421D01*
X414059Y376838D01*
X414309Y376227D01*
X414587Y375616D01*
X414920Y375033D01*
X415281Y374477D01*
X415725Y373950D01*
X415753Y373922D01*
X415836Y373838D01*
X415975Y373700D01*
X416170Y373533D01*
X416420Y373339D01*
X416725Y373116D01*
X417058Y372867D01*
X417447Y372644D01*
X417864Y372394D01*
X418363Y372145D01*
X418863Y371922D01*
X419419Y371728D01*
X420002Y371561D01*
X420641Y371423D01*
X421279Y371339D01*
X421974Y371311D01*
X422140D01*
X422334Y371339D01*
X422612Y371367D01*
X422945Y371395D01*
X423307Y371450D01*
X423751Y371533D01*
X424195Y371645D01*
X424695Y371783D01*
X425195Y371950D01*
X425723Y372172D01*
X426250Y372450D01*
X426778Y372755D01*
X427305Y373089D01*
X427805Y373505D01*
X428277Y373977D01*
X428305Y374005D01*
X428388Y374116D01*
X428499Y374255D01*
X428666Y374477D01*
X428861Y374755D01*
X429083Y375088D01*
X429305Y375477D01*
X429527Y375949D01*
X429749Y376449D01*
X429999Y377032D01*
X430193Y377643D01*
X430388Y378337D01*
X430554Y379087D01*
X430665Y379865D01*
X430749Y380725D01*
X430777Y381614D01*
Y381642D01*
Y381753D01*
Y381920D01*
X430749Y382142D01*
Y382419D01*
X430721Y382725D01*
X430693Y383086D01*
X430638Y383475D01*
X430527Y384335D01*
X430332Y385252D01*
X430055Y386168D01*
X429694Y387085D01*
Y387112D01*
X429638Y387196D01*
X429583Y387307D01*
X429499Y387474D01*
X429388Y387668D01*
X429249Y387890D01*
X428916Y388418D01*
X428472Y389001D01*
X427944Y389584D01*
X427333Y390167D01*
X426611Y390695D01*
X426583Y390723D01*
X426528Y390750D01*
X426417Y390806D01*
X426250Y390889D01*
X426056Y391000D01*
X425834Y391111D01*
X425584Y391223D01*
X425278Y391361D01*
X424945Y391472D01*
X424612Y391583D01*
X423834Y391806D01*
X422973Y391945D01*
X422501Y392000D01*
D02*
G37*
%LPD*%
M02*
