G04*
G04 #@! TF.GenerationSoftware,Altium Limited,Altium Designer,19.1.5 (86)*
G04*
G04 Layer_Color=65535*
%FSLAX25Y25*%
%MOIN*%
G70*
G01*
G75*
%ADD10C,0.00787*%
G36*
X-49810Y-12160D02*
X-53087D01*
Y9306D01*
X-60585Y-12160D01*
X-63640D01*
X-71026Y9667D01*
Y-12160D01*
X-74303D01*
Y13472D01*
X-69221D01*
X-63140Y-4690D01*
Y-4718D01*
X-63112Y-4801D01*
X-63056Y-4940D01*
X-63001Y-5107D01*
X-62945Y-5301D01*
X-62862Y-5551D01*
X-62668Y-6106D01*
X-62473Y-6717D01*
X-62279Y-7356D01*
X-62085Y-7939D01*
X-62001Y-8217D01*
X-61918Y-8467D01*
Y-8439D01*
X-61890Y-8411D01*
X-61862Y-8328D01*
X-61835Y-8217D01*
X-61779Y-8050D01*
X-61724Y-7884D01*
X-61668Y-7661D01*
X-61585Y-7439D01*
X-61501Y-7162D01*
X-61390Y-6856D01*
X-61279Y-6523D01*
X-61168Y-6134D01*
X-61029Y-5745D01*
X-60890Y-5301D01*
X-60724Y-4857D01*
X-60557Y-4357D01*
X-54392Y13472D01*
X-49810D01*
Y-12160D01*
D02*
G37*
G36*
X57410Y13444D02*
X57715D01*
X58076Y13416D01*
X58493Y13388D01*
X59326Y13305D01*
X60187Y13166D01*
X61020Y13000D01*
X61381Y12888D01*
X61742Y12777D01*
X61770D01*
X61825Y12750D01*
X61909Y12694D01*
X62047Y12639D01*
X62381Y12472D01*
X62769Y12222D01*
X63241Y11889D01*
X63714Y11444D01*
X64186Y10944D01*
X64602Y10334D01*
Y10306D01*
X64658Y10250D01*
X64713Y10167D01*
X64769Y10028D01*
X64852Y9861D01*
X64935Y9667D01*
X65047Y9445D01*
X65158Y9195D01*
X65352Y8612D01*
X65519Y7973D01*
X65630Y7251D01*
X65685Y6474D01*
Y6446D01*
Y6362D01*
Y6196D01*
X65658Y6029D01*
X65630Y5779D01*
X65602Y5502D01*
X65547Y5196D01*
X65463Y4863D01*
X65241Y4141D01*
X65102Y3752D01*
X64935Y3363D01*
X64741Y2974D01*
X64491Y2586D01*
X64214Y2225D01*
X63908Y1864D01*
X63880Y1836D01*
X63825Y1780D01*
X63714Y1697D01*
X63575Y1558D01*
X63380Y1419D01*
X63158Y1253D01*
X62880Y1058D01*
X62547Y864D01*
X62186Y670D01*
X61797Y475D01*
X61353Y281D01*
X60853Y86D01*
X60326Y-80D01*
X59742Y-247D01*
X59104Y-386D01*
X58437Y-497D01*
X58465D01*
X58493Y-525D01*
X58659Y-608D01*
X58909Y-747D01*
X59215Y-913D01*
X59548Y-1108D01*
X59881Y-1302D01*
X60215Y-1552D01*
X60492Y-1774D01*
X60520Y-1802D01*
X60548Y-1830D01*
X60631Y-1913D01*
X60742Y-2024D01*
X60881Y-2163D01*
X61048Y-2330D01*
X61409Y-2718D01*
X61825Y-3218D01*
X62297Y-3801D01*
X62797Y-4468D01*
X63297Y-5190D01*
X67740Y-12160D01*
X63491D01*
X60103Y-6828D01*
X60076Y-6801D01*
X60048Y-6717D01*
X59965Y-6606D01*
X59854Y-6440D01*
X59742Y-6245D01*
X59576Y-6023D01*
X59243Y-5523D01*
X58854Y-4940D01*
X58465Y-4357D01*
X58049Y-3801D01*
X57660Y-3302D01*
Y-3274D01*
X57604Y-3246D01*
X57493Y-3107D01*
X57327Y-2885D01*
X57077Y-2635D01*
X56827Y-2357D01*
X56521Y-2080D01*
X56216Y-1802D01*
X55938Y-1608D01*
X55910Y-1580D01*
X55799Y-1524D01*
X55660Y-1441D01*
X55466Y-1330D01*
X55216Y-1219D01*
X54966Y-1108D01*
X54688Y-997D01*
X54383Y-913D01*
X54355D01*
X54272Y-886D01*
X54133Y-858D01*
X53939Y-830D01*
X53661D01*
X53328Y-802D01*
X52939Y-775D01*
X48579D01*
Y-12160D01*
X45191D01*
Y13472D01*
X57104D01*
X57410Y13444D01*
D02*
G37*
G36*
X3703D02*
X4008D01*
X4369Y13416D01*
X4786Y13388D01*
X5619Y13305D01*
X6480Y13166D01*
X7313Y13000D01*
X7674Y12888D01*
X8035Y12777D01*
X8063D01*
X8118Y12750D01*
X8201Y12694D01*
X8340Y12639D01*
X8674Y12472D01*
X9062Y12222D01*
X9534Y11889D01*
X10006Y11444D01*
X10479Y10944D01*
X10895Y10334D01*
Y10306D01*
X10951Y10250D01*
X11006Y10167D01*
X11062Y10028D01*
X11145Y9861D01*
X11228Y9667D01*
X11339Y9445D01*
X11451Y9195D01*
X11645Y8612D01*
X11812Y7973D01*
X11923Y7251D01*
X11978Y6474D01*
Y6446D01*
Y6362D01*
Y6196D01*
X11950Y6029D01*
X11923Y5779D01*
X11895Y5502D01*
X11839Y5196D01*
X11756Y4863D01*
X11534Y4141D01*
X11395Y3752D01*
X11228Y3363D01*
X11034Y2974D01*
X10784Y2586D01*
X10506Y2225D01*
X10201Y1864D01*
X10173Y1836D01*
X10118Y1780D01*
X10006Y1697D01*
X9868Y1558D01*
X9673Y1419D01*
X9451Y1253D01*
X9173Y1058D01*
X8840Y864D01*
X8479Y670D01*
X8090Y475D01*
X7646Y281D01*
X7146Y86D01*
X6618Y-80D01*
X6035Y-247D01*
X5397Y-386D01*
X4730Y-497D01*
X4758D01*
X4786Y-525D01*
X4952Y-608D01*
X5202Y-747D01*
X5508Y-913D01*
X5841Y-1108D01*
X6174Y-1302D01*
X6507Y-1552D01*
X6785Y-1774D01*
X6813Y-1802D01*
X6841Y-1830D01*
X6924Y-1913D01*
X7035Y-2024D01*
X7174Y-2163D01*
X7340Y-2330D01*
X7701Y-2718D01*
X8118Y-3218D01*
X8590Y-3801D01*
X9090Y-4468D01*
X9590Y-5190D01*
X14033Y-12160D01*
X9784D01*
X6396Y-6828D01*
X6369Y-6801D01*
X6341Y-6717D01*
X6257Y-6606D01*
X6146Y-6440D01*
X6035Y-6245D01*
X5869Y-6023D01*
X5536Y-5523D01*
X5147Y-4940D01*
X4758Y-4357D01*
X4341Y-3801D01*
X3953Y-3302D01*
Y-3274D01*
X3897Y-3246D01*
X3786Y-3107D01*
X3619Y-2885D01*
X3369Y-2635D01*
X3119Y-2357D01*
X2814Y-2080D01*
X2509Y-1802D01*
X2231Y-1608D01*
X2203Y-1580D01*
X2092Y-1524D01*
X1953Y-1441D01*
X1759Y-1330D01*
X1509Y-1219D01*
X1259Y-1108D01*
X981Y-997D01*
X676Y-913D01*
X648D01*
X565Y-886D01*
X426Y-858D01*
X231Y-830D01*
X-46D01*
X-380Y-802D01*
X-768Y-775D01*
X-5128D01*
Y-12160D01*
X-8516D01*
Y13472D01*
X3397D01*
X3703Y13444D01*
D02*
G37*
G36*
X-22151D02*
X-21846D01*
X-21485Y13416D01*
X-21068Y13388D01*
X-20235Y13305D01*
X-19374Y13166D01*
X-18541Y13000D01*
X-18180Y12888D01*
X-17819Y12777D01*
X-17791D01*
X-17736Y12750D01*
X-17652Y12694D01*
X-17514Y12639D01*
X-17180Y12472D01*
X-16792Y12222D01*
X-16319Y11889D01*
X-15847Y11444D01*
X-15375Y10944D01*
X-14959Y10334D01*
Y10306D01*
X-14903Y10250D01*
X-14848Y10167D01*
X-14792Y10028D01*
X-14709Y9861D01*
X-14626Y9667D01*
X-14514Y9445D01*
X-14403Y9195D01*
X-14209Y8612D01*
X-14042Y7973D01*
X-13931Y7251D01*
X-13876Y6474D01*
Y6446D01*
Y6362D01*
Y6196D01*
X-13904Y6029D01*
X-13931Y5779D01*
X-13959Y5502D01*
X-14015Y5196D01*
X-14098Y4863D01*
X-14320Y4141D01*
X-14459Y3752D01*
X-14626Y3363D01*
X-14820Y2974D01*
X-15070Y2586D01*
X-15348Y2225D01*
X-15653Y1864D01*
X-15681Y1836D01*
X-15736Y1780D01*
X-15847Y1697D01*
X-15986Y1558D01*
X-16181Y1419D01*
X-16403Y1253D01*
X-16680Y1058D01*
X-17014Y864D01*
X-17375Y670D01*
X-17764Y475D01*
X-18208Y281D01*
X-18708Y86D01*
X-19235Y-80D01*
X-19818Y-247D01*
X-20457Y-386D01*
X-21124Y-497D01*
X-21096D01*
X-21068Y-525D01*
X-20902Y-608D01*
X-20652Y-747D01*
X-20346Y-913D01*
X-20013Y-1108D01*
X-19680Y-1302D01*
X-19346Y-1552D01*
X-19069Y-1774D01*
X-19041Y-1802D01*
X-19013Y-1830D01*
X-18930Y-1913D01*
X-18819Y-2024D01*
X-18680Y-2163D01*
X-18513Y-2330D01*
X-18152Y-2718D01*
X-17736Y-3218D01*
X-17264Y-3801D01*
X-16764Y-4468D01*
X-16264Y-5190D01*
X-11821Y-12160D01*
X-16070D01*
X-19457Y-6828D01*
X-19485Y-6801D01*
X-19513Y-6717D01*
X-19596Y-6606D01*
X-19707Y-6440D01*
X-19818Y-6245D01*
X-19985Y-6023D01*
X-20318Y-5523D01*
X-20707Y-4940D01*
X-21096Y-4357D01*
X-21512Y-3801D01*
X-21901Y-3302D01*
Y-3274D01*
X-21957Y-3246D01*
X-22068Y-3107D01*
X-22234Y-2885D01*
X-22485Y-2635D01*
X-22734Y-2357D01*
X-23040Y-2080D01*
X-23345Y-1802D01*
X-23623Y-1608D01*
X-23651Y-1580D01*
X-23762Y-1524D01*
X-23901Y-1441D01*
X-24095Y-1330D01*
X-24345Y-1219D01*
X-24595Y-1108D01*
X-24873Y-997D01*
X-25178Y-913D01*
X-25206D01*
X-25289Y-886D01*
X-25428Y-858D01*
X-25622Y-830D01*
X-25900D01*
X-26233Y-802D01*
X-26622Y-775D01*
X-30982D01*
Y-12160D01*
X-34370D01*
Y13472D01*
X-22457D01*
X-22151Y13444D01*
D02*
G37*
G36*
X-40396Y-12160D02*
X-43784D01*
Y13472D01*
X-40396D01*
Y-12160D01*
D02*
G37*
G36*
X29112Y13888D02*
X29445Y13860D01*
X29807Y13833D01*
X30195Y13777D01*
X30640Y13694D01*
X31139Y13610D01*
X31639Y13499D01*
X32167Y13361D01*
X32722Y13194D01*
X33278Y13000D01*
X33833Y12777D01*
X34361Y12527D01*
X34916Y12222D01*
X34944Y12194D01*
X35055Y12139D01*
X35194Y12055D01*
X35388Y11916D01*
X35638Y11750D01*
X35888Y11528D01*
X36194Y11278D01*
X36527Y11000D01*
X36888Y10667D01*
X37249Y10306D01*
X37610Y9917D01*
X37971Y9500D01*
X38304Y9056D01*
X38665Y8556D01*
X38971Y8029D01*
X39276Y7473D01*
X39304Y7446D01*
X39332Y7334D01*
X39415Y7168D01*
X39498Y6946D01*
X39637Y6668D01*
X39748Y6307D01*
X39887Y5918D01*
X40026Y5474D01*
X40165Y5002D01*
X40304Y4474D01*
X40442Y3891D01*
X40553Y3308D01*
X40637Y2669D01*
X40720Y2003D01*
X40748Y1336D01*
X40776Y614D01*
Y558D01*
Y447D01*
Y225D01*
X40748Y-52D01*
X40720Y-386D01*
X40692Y-775D01*
X40637Y-1219D01*
X40581Y-1719D01*
X40498Y-2246D01*
X40387Y-2802D01*
X40276Y-3385D01*
X40109Y-3968D01*
X39915Y-4579D01*
X39720Y-5162D01*
X39470Y-5773D01*
X39193Y-6356D01*
X39165Y-6384D01*
X39109Y-6495D01*
X39026Y-6662D01*
X38915Y-6856D01*
X38748Y-7106D01*
X38554Y-7412D01*
X38304Y-7745D01*
X38054Y-8106D01*
X37749Y-8467D01*
X37415Y-8856D01*
X37027Y-9244D01*
X36638Y-9633D01*
X36221Y-9994D01*
X35749Y-10355D01*
X35249Y-10716D01*
X34722Y-11022D01*
X34694Y-11049D01*
X34583Y-11077D01*
X34444Y-11160D01*
X34222Y-11271D01*
X33944Y-11383D01*
X33639Y-11521D01*
X33278Y-11660D01*
X32861Y-11799D01*
X32417Y-11938D01*
X31945Y-12077D01*
X31417Y-12216D01*
X30889Y-12327D01*
X29723Y-12521D01*
X29112Y-12549D01*
X28501Y-12577D01*
X28140D01*
X27890Y-12549D01*
X27585Y-12521D01*
X27196Y-12493D01*
X26807Y-12438D01*
X26335Y-12354D01*
X25863Y-12271D01*
X25335Y-12160D01*
X24808Y-12021D01*
X24252Y-11855D01*
X23697Y-11660D01*
X23142Y-11410D01*
X22586Y-11160D01*
X22031Y-10855D01*
X22003Y-10827D01*
X21920Y-10772D01*
X21753Y-10661D01*
X21559Y-10522D01*
X21337Y-10355D01*
X21059Y-10133D01*
X20753Y-9883D01*
X20420Y-9605D01*
X20059Y-9272D01*
X19726Y-8911D01*
X19365Y-8522D01*
X19004Y-8106D01*
X18643Y-7634D01*
X18310Y-7162D01*
X18004Y-6634D01*
X17699Y-6078D01*
X17671Y-6051D01*
X17643Y-5940D01*
X17560Y-5773D01*
X17477Y-5551D01*
X17366Y-5273D01*
X17254Y-4940D01*
X17116Y-4579D01*
X16977Y-4135D01*
X16838Y-3690D01*
X16699Y-3190D01*
X16588Y-2663D01*
X16477Y-2107D01*
X16310Y-941D01*
X16283Y-302D01*
X16255Y309D01*
Y336D01*
Y392D01*
Y475D01*
Y586D01*
X16283Y753D01*
Y919D01*
X16310Y1364D01*
X16366Y1891D01*
X16449Y2530D01*
X16532Y3197D01*
X16671Y3946D01*
X16866Y4752D01*
X17088Y5557D01*
X17366Y6390D01*
X17699Y7223D01*
X18088Y8056D01*
X18532Y8834D01*
X19060Y9612D01*
X19670Y10306D01*
X19698Y10334D01*
X19837Y10472D01*
X20031Y10639D01*
X20281Y10861D01*
X20642Y11139D01*
X21031Y11444D01*
X21503Y11778D01*
X22059Y12111D01*
X22670Y12444D01*
X23336Y12777D01*
X24058Y13083D01*
X24863Y13361D01*
X25697Y13583D01*
X26585Y13749D01*
X27529Y13888D01*
X28529Y13916D01*
X28862D01*
X29112Y13888D01*
D02*
G37*
%LPC*%
G36*
X57215Y10639D02*
X48579D01*
Y2169D01*
X56243D01*
X56438Y2197D01*
X56660D01*
X57188Y2225D01*
X57771Y2280D01*
X58382Y2364D01*
X58965Y2475D01*
X59493Y2641D01*
X59520D01*
X59548Y2669D01*
X59715Y2725D01*
X59937Y2836D01*
X60242Y3002D01*
X60548Y3224D01*
X60881Y3474D01*
X61214Y3808D01*
X61492Y4169D01*
X61520Y4224D01*
X61603Y4363D01*
X61714Y4557D01*
X61853Y4863D01*
X61964Y5196D01*
X62075Y5585D01*
X62159Y6029D01*
X62186Y6474D01*
Y6501D01*
Y6557D01*
Y6640D01*
X62159Y6779D01*
Y6918D01*
X62131Y7112D01*
X62020Y7529D01*
X61853Y8001D01*
X61631Y8501D01*
X61298Y8973D01*
X61076Y9223D01*
X60853Y9445D01*
X60826Y9473D01*
X60798Y9500D01*
X60715Y9556D01*
X60603Y9639D01*
X60465Y9723D01*
X60270Y9834D01*
X60076Y9945D01*
X59826Y10056D01*
X59548Y10167D01*
X59243Y10250D01*
X58909Y10361D01*
X58548Y10445D01*
X58132Y10528D01*
X57687Y10583D01*
X57215Y10639D01*
D02*
G37*
G36*
X3508D02*
X-5128D01*
Y2169D01*
X2536D01*
X2731Y2197D01*
X2953D01*
X3480Y2225D01*
X4064Y2280D01*
X4675Y2364D01*
X5258Y2475D01*
X5785Y2641D01*
X5813D01*
X5841Y2669D01*
X6008Y2725D01*
X6230Y2836D01*
X6535Y3002D01*
X6841Y3224D01*
X7174Y3474D01*
X7507Y3808D01*
X7785Y4169D01*
X7813Y4224D01*
X7896Y4363D01*
X8007Y4557D01*
X8146Y4863D01*
X8257Y5196D01*
X8368Y5585D01*
X8451Y6029D01*
X8479Y6474D01*
Y6501D01*
Y6557D01*
Y6640D01*
X8451Y6779D01*
Y6918D01*
X8424Y7112D01*
X8313Y7529D01*
X8146Y8001D01*
X7924Y8501D01*
X7591Y8973D01*
X7368Y9223D01*
X7146Y9445D01*
X7118Y9473D01*
X7091Y9500D01*
X7007Y9556D01*
X6896Y9639D01*
X6757Y9723D01*
X6563Y9834D01*
X6369Y9945D01*
X6119Y10056D01*
X5841Y10167D01*
X5536Y10250D01*
X5202Y10361D01*
X4841Y10445D01*
X4425Y10528D01*
X3980Y10583D01*
X3508Y10639D01*
D02*
G37*
G36*
X-22346D02*
X-30982D01*
Y2169D01*
X-23317D01*
X-23123Y2197D01*
X-22901D01*
X-22373Y2225D01*
X-21790Y2280D01*
X-21179Y2364D01*
X-20596Y2475D01*
X-20068Y2641D01*
X-20041D01*
X-20013Y2669D01*
X-19846Y2725D01*
X-19624Y2836D01*
X-19319Y3002D01*
X-19013Y3224D01*
X-18680Y3474D01*
X-18347Y3808D01*
X-18069Y4169D01*
X-18041Y4224D01*
X-17958Y4363D01*
X-17847Y4557D01*
X-17708Y4863D01*
X-17597Y5196D01*
X-17486Y5585D01*
X-17402Y6029D01*
X-17375Y6474D01*
Y6501D01*
Y6557D01*
Y6640D01*
X-17402Y6779D01*
Y6918D01*
X-17430Y7112D01*
X-17541Y7529D01*
X-17708Y8001D01*
X-17930Y8501D01*
X-18263Y8973D01*
X-18486Y9223D01*
X-18708Y9445D01*
X-18735Y9473D01*
X-18763Y9500D01*
X-18847Y9556D01*
X-18958Y9639D01*
X-19096Y9723D01*
X-19291Y9834D01*
X-19485Y9945D01*
X-19735Y10056D01*
X-20013Y10167D01*
X-20318Y10250D01*
X-20652Y10361D01*
X-21013Y10445D01*
X-21429Y10528D01*
X-21873Y10583D01*
X-22346Y10639D01*
D02*
G37*
G36*
X29001Y11000D02*
X28362D01*
X28196Y10972D01*
X27918D01*
X27613Y10917D01*
X27252Y10861D01*
X26863Y10778D01*
X26419Y10695D01*
X25946Y10556D01*
X25447Y10389D01*
X24919Y10195D01*
X24419Y9945D01*
X23891Y9667D01*
X23364Y9334D01*
X22836Y8945D01*
X22336Y8501D01*
X22309Y8473D01*
X22225Y8390D01*
X22086Y8223D01*
X21948Y8029D01*
X21725Y7751D01*
X21531Y7418D01*
X21281Y7001D01*
X21059Y6557D01*
X20809Y6001D01*
X20559Y5390D01*
X20365Y4724D01*
X20170Y3974D01*
X20004Y3169D01*
X19865Y2280D01*
X19782Y1308D01*
X19754Y253D01*
Y197D01*
Y59D01*
X19782Y-191D01*
Y-525D01*
X19837Y-913D01*
X19893Y-1358D01*
X19948Y-1857D01*
X20059Y-2385D01*
X20198Y-2968D01*
X20365Y-3579D01*
X20559Y-4162D01*
X20809Y-4773D01*
X21087Y-5384D01*
X21420Y-5967D01*
X21781Y-6523D01*
X22225Y-7051D01*
X22253Y-7078D01*
X22336Y-7162D01*
X22475Y-7300D01*
X22670Y-7467D01*
X22919Y-7661D01*
X23225Y-7884D01*
X23558Y-8134D01*
X23947Y-8356D01*
X24363Y-8606D01*
X24863Y-8856D01*
X25363Y-9078D01*
X25919Y-9272D01*
X26502Y-9439D01*
X27141Y-9578D01*
X27779Y-9661D01*
X28473Y-9689D01*
X28640D01*
X28835Y-9661D01*
X29112Y-9633D01*
X29445Y-9605D01*
X29807Y-9550D01*
X30251Y-9466D01*
X30695Y-9355D01*
X31195Y-9217D01*
X31695Y-9050D01*
X32222Y-8828D01*
X32750Y-8550D01*
X33278Y-8245D01*
X33805Y-7911D01*
X34305Y-7495D01*
X34777Y-7023D01*
X34805Y-6995D01*
X34888Y-6884D01*
X34999Y-6745D01*
X35166Y-6523D01*
X35361Y-6245D01*
X35583Y-5912D01*
X35805Y-5523D01*
X36027Y-5051D01*
X36249Y-4551D01*
X36499Y-3968D01*
X36693Y-3357D01*
X36888Y-2663D01*
X37054Y-1913D01*
X37165Y-1135D01*
X37249Y-275D01*
X37277Y614D01*
Y642D01*
Y753D01*
Y919D01*
X37249Y1142D01*
Y1419D01*
X37221Y1725D01*
X37193Y2086D01*
X37138Y2475D01*
X37027Y3336D01*
X36832Y4252D01*
X36555Y5168D01*
X36194Y6085D01*
Y6112D01*
X36138Y6196D01*
X36083Y6307D01*
X35999Y6474D01*
X35888Y6668D01*
X35749Y6890D01*
X35416Y7418D01*
X34972Y8001D01*
X34444Y8584D01*
X33833Y9167D01*
X33111Y9695D01*
X33083Y9723D01*
X33028Y9750D01*
X32917Y9806D01*
X32750Y9889D01*
X32556Y10000D01*
X32333Y10111D01*
X32084Y10222D01*
X31778Y10361D01*
X31445Y10472D01*
X31112Y10583D01*
X30334Y10806D01*
X29473Y10944D01*
X29001Y11000D01*
D02*
G37*
%LPD*%
D10*
X-19536Y-358784D02*
X-20848D01*
X-20192D01*
Y-362064D01*
X-20848Y-362720D01*
X-21504D01*
X-22160Y-362064D01*
X-18224Y-358784D02*
Y-362720D01*
X-15600D01*
X-11664Y-359440D02*
X-12320Y-358784D01*
X-13632D01*
X-14288Y-359440D01*
Y-362064D01*
X-13632Y-362720D01*
X-12320D01*
X-11664Y-362064D01*
X-7728Y-358784D02*
X-9040D01*
X-8384D01*
Y-362064D01*
X-9040Y-362720D01*
X-9696D01*
X-10352Y-362064D01*
X-6417Y-358784D02*
Y-362720D01*
X-3793D01*
X143Y-359440D02*
X-513Y-358784D01*
X-1825D01*
X-2481Y-359440D01*
Y-362064D01*
X-1825Y-362720D01*
X-513D01*
X143Y-362064D01*
X4079Y-358784D02*
X2767D01*
X3423D01*
Y-362064D01*
X2767Y-362720D01*
X2111D01*
X1455Y-362064D01*
X5391Y-358784D02*
Y-362720D01*
X8015D01*
X11950Y-359440D02*
X11294Y-358784D01*
X9982D01*
X9326Y-359440D01*
Y-362064D01*
X9982Y-362720D01*
X11294D01*
X11950Y-362064D01*
X15886Y-358784D02*
X14574D01*
X15230D01*
Y-362064D01*
X14574Y-362720D01*
X13918D01*
X13262Y-362064D01*
X17198Y-358784D02*
Y-362720D01*
X19822D01*
X23757Y-359440D02*
X23101Y-358784D01*
X21790D01*
X21134Y-359440D01*
Y-362064D01*
X21790Y-362720D01*
X23101D01*
X23757Y-362064D01*
M02*
