G04*
G04 #@! TF.GenerationSoftware,Altium Limited,Altium Designer,19.1.5 (86)*
G04*
G04 Layer_Physical_Order=1*
G04 Layer_Color=255*
%FSLAX25Y25*%
%MOIN*%
G70*
G01*
G75*
G36*
X399928Y774586D02*
X412326Y774191D01*
X424705Y773402D01*
X437052Y772220D01*
X449356Y770645D01*
X461603Y768680D01*
X473782Y766326D01*
X485879Y763585D01*
X497883Y760461D01*
X509782Y756957D01*
X521563Y753076D01*
X533215Y748821D01*
X544725Y744199D01*
X556082Y739212D01*
X567275Y733867D01*
X578293Y728168D01*
X589123Y722121D01*
X599756Y715733D01*
X610179Y709010D01*
X620384Y701958D01*
X630359Y694586D01*
X640095Y686899D01*
X649581Y678907D01*
X658808Y670617D01*
X667766Y662038D01*
X676447Y653178D01*
X684842Y644046D01*
X692941Y634652D01*
X700738Y625004D01*
X708224Y615114D01*
X715391Y604990D01*
X722233Y594644D01*
X728742Y584085D01*
X734911Y573324D01*
X740735Y562372D01*
X746208Y551241D01*
X751324Y539941D01*
X756078Y528484D01*
X760464Y516882D01*
X764479Y505146D01*
X768119Y493288D01*
X771380Y481320D01*
X774258Y469254D01*
X776751Y457104D01*
X778856Y444879D01*
X780571Y432594D01*
X781894Y420261D01*
X782824Y407892D01*
X783360Y395500D01*
X783501Y383097D01*
X783248Y370695D01*
X782600Y358308D01*
X781558Y345948D01*
X780124Y333627D01*
X778298Y321358D01*
X776083Y309154D01*
X773481Y297026D01*
X770494Y284987D01*
X767125Y273049D01*
X763378Y261225D01*
X759257Y249525D01*
X754766Y237963D01*
X749909Y226549D01*
X744692Y215296D01*
X739119Y204215D01*
X733196Y193316D01*
X726930Y182611D01*
X720326Y172111D01*
X713391Y161827D01*
X706133Y151768D01*
X698558Y141946D01*
X690674Y132370D01*
X682490Y123049D01*
X674013Y113993D01*
X665253Y105212D01*
X656217Y96714D01*
X646916Y88507D01*
X637358Y80601D01*
X627554Y73003D01*
X617512Y65721D01*
X607245Y58762D01*
X596760Y52133D01*
X586071Y45841D01*
X575186Y39892D01*
X564118Y34293D01*
X552877Y29049D01*
X541475Y24165D01*
X529923Y19647D01*
X518234Y15498D01*
X506418Y11723D01*
X494488Y8326D01*
X482456Y5311D01*
X478885Y4536D01*
X478460Y4814D01*
X477977Y5537D01*
X477255Y6019D01*
X476437Y6182D01*
Y20683D01*
X476301Y21710D01*
X475905Y22668D01*
X475274Y23491D01*
X474451Y24122D01*
X473493Y24518D01*
X472466Y24654D01*
X314985D01*
X313958Y24518D01*
X313000Y24122D01*
X312177Y23491D01*
X311546Y22668D01*
X311150Y21710D01*
X311014Y20683D01*
Y6182D01*
X310196Y6020D01*
X309474Y5537D01*
X308991Y4814D01*
X308566Y4536D01*
X304995Y5311D01*
X292963Y8326D01*
X281033Y11723D01*
X269217Y15498D01*
X257528Y19647D01*
X245976Y24165D01*
X234574Y29049D01*
X223333Y34293D01*
X212265Y39893D01*
X201380Y45841D01*
X190691Y52133D01*
X180207Y58762D01*
X169939Y65721D01*
X159897Y73003D01*
X150093Y80602D01*
X140535Y88508D01*
X131234Y96714D01*
X122198Y105212D01*
X113438Y113994D01*
X104961Y123049D01*
X96777Y132370D01*
X88893Y141947D01*
X81318Y151769D01*
X74060Y161827D01*
X67126Y172112D01*
X60522Y182612D01*
X54255Y193316D01*
X48332Y204215D01*
X42759Y215297D01*
X37542Y226550D01*
X32685Y237964D01*
X28194Y249526D01*
X24073Y261225D01*
X20326Y273050D01*
X16958Y284988D01*
X13971Y297027D01*
X11369Y309154D01*
X9153Y321359D01*
X7328Y333628D01*
X5893Y345949D01*
X4852Y358309D01*
X4204Y370696D01*
X3951Y383097D01*
X4092Y395500D01*
X4628Y407893D01*
X5558Y420262D01*
X6881Y432595D01*
X8596Y444880D01*
X10701Y457104D01*
X13194Y469255D01*
X16072Y481320D01*
X19333Y493288D01*
X22972Y505146D01*
X26987Y516882D01*
X31374Y528485D01*
X36128Y539942D01*
X41243Y551241D01*
X46716Y562373D01*
X52540Y573324D01*
X58710Y584085D01*
X65219Y594644D01*
X72061Y604991D01*
X79228Y615114D01*
X86714Y625005D01*
X94510Y634652D01*
X102611Y644047D01*
X111005Y653178D01*
X119686Y662038D01*
X128644Y670618D01*
X137871Y678907D01*
X147357Y686900D01*
X157092Y694586D01*
X167068Y701959D01*
X177272Y709010D01*
X187696Y715733D01*
X198329Y722121D01*
X209159Y728168D01*
X220177Y733867D01*
X231369Y739212D01*
X242727Y744199D01*
X254238Y748822D01*
X265889Y753076D01*
X277670Y756957D01*
X289569Y760461D01*
X301573Y763585D01*
X313670Y766326D01*
X325849Y768680D01*
X338096Y770645D01*
X350400Y772220D01*
X362748Y773402D01*
X375126Y774191D01*
X387524Y774586D01*
X399928Y774586D01*
D02*
G37*
M02*
