G04*
G04 #@! TF.GenerationSoftware,Altium Limited,Altium Designer,19.0.15 (446)*
G04*
G04 Layer_Color=65535*
%FSLAX25Y25*%
%MOIN*%
G70*
G01*
G75*
G36*
X353340Y369826D02*
X350119D01*
Y387571D01*
X350035D01*
X342843Y369826D01*
X340621D01*
X333235Y388154D01*
X333151D01*
Y369826D01*
X329930D01*
Y393513D01*
X334151D01*
X341676Y374241D01*
X341788D01*
X349341Y393513D01*
X353340D01*
Y369826D01*
D02*
G37*
G36*
X442121Y393458D02*
X442454Y393430D01*
X442815Y393402D01*
X443231Y393347D01*
X443676Y393264D01*
X444648Y393069D01*
X445148Y392930D01*
X445620Y392764D01*
X446119Y392569D01*
X446592Y392319D01*
X447008Y392070D01*
X447425Y391764D01*
X447452Y391736D01*
X447508Y391681D01*
X447619Y391597D01*
X447758Y391431D01*
X447897Y391264D01*
X448063Y391042D01*
X448258Y390792D01*
X448452Y390487D01*
X448647Y390153D01*
X448841Y389792D01*
X449008Y389376D01*
X449146Y388931D01*
X449285Y388432D01*
X449396Y387904D01*
X449452Y387349D01*
X449480Y386738D01*
Y386710D01*
Y386654D01*
Y386571D01*
X449452Y386432D01*
Y386265D01*
X449424Y386099D01*
X449369Y385655D01*
X449230Y385182D01*
X449063Y384655D01*
X448841Y384100D01*
X448508Y383572D01*
Y383544D01*
X448452Y383516D01*
X448341Y383350D01*
X448119Y383100D01*
X447814Y382794D01*
X447425Y382461D01*
X446953Y382100D01*
X446369Y381767D01*
X445731Y381434D01*
X445758D01*
X445814Y381406D01*
X445925Y381378D01*
X446064Y381323D01*
X446203Y381239D01*
X446397Y381156D01*
X446814Y380934D01*
X447286Y380656D01*
X447758Y380295D01*
X448174Y379851D01*
X448535Y379351D01*
Y379323D01*
X448563Y379295D01*
X448619Y379212D01*
X448674Y379101D01*
X448730Y378962D01*
X448813Y378795D01*
X448980Y378379D01*
X449119Y377879D01*
X449258Y377268D01*
X449369Y376602D01*
X449396Y375852D01*
Y373630D01*
Y373575D01*
Y373436D01*
X449424Y373241D01*
Y372964D01*
X449452Y372658D01*
X449507Y372325D01*
X449646Y371631D01*
Y371603D01*
X449702Y371492D01*
X449757Y371325D01*
X449841Y371131D01*
X449979Y370909D01*
X450118Y370659D01*
X450285Y370437D01*
X450507Y370215D01*
Y369826D01*
X447202D01*
X447175Y369853D01*
X447091Y369937D01*
X446980Y370048D01*
X446869Y370215D01*
X446731Y370464D01*
X446592Y370742D01*
X446453Y371048D01*
X446369Y371436D01*
Y371492D01*
X446342Y371631D01*
X446314Y371853D01*
X446286Y372131D01*
X446258Y372464D01*
X446231Y372825D01*
X446203Y373241D01*
Y373658D01*
Y375824D01*
Y375852D01*
Y375907D01*
Y376018D01*
X446175Y376130D01*
Y376296D01*
X446147Y376490D01*
X446064Y376935D01*
X445925Y377407D01*
X445731Y377935D01*
X445453Y378434D01*
X445064Y378906D01*
X445009Y378962D01*
X444870Y379101D01*
X444620Y379268D01*
X444287Y379490D01*
X443842Y379712D01*
X443342Y379878D01*
X442732Y380017D01*
X442065Y380073D01*
X436594D01*
Y369826D01*
X433373D01*
Y393486D01*
X441843D01*
X442121Y393458D01*
D02*
G37*
G36*
X398216D02*
X398550Y393430D01*
X398910Y393402D01*
X399327Y393347D01*
X399771Y393264D01*
X400743Y393069D01*
X401243Y392930D01*
X401715Y392764D01*
X402215Y392569D01*
X402687Y392319D01*
X403104Y392070D01*
X403520Y391764D01*
X403548Y391736D01*
X403604Y391681D01*
X403715Y391597D01*
X403854Y391431D01*
X403992Y391264D01*
X404159Y391042D01*
X404353Y390792D01*
X404548Y390487D01*
X404742Y390153D01*
X404937Y389792D01*
X405103Y389376D01*
X405242Y388931D01*
X405381Y388432D01*
X405492Y387904D01*
X405548Y387349D01*
X405575Y386738D01*
Y386710D01*
Y386654D01*
Y386571D01*
X405548Y386432D01*
Y386265D01*
X405520Y386099D01*
X405464Y385655D01*
X405325Y385182D01*
X405159Y384655D01*
X404937Y384100D01*
X404603Y383572D01*
Y383544D01*
X404548Y383516D01*
X404437Y383350D01*
X404215Y383100D01*
X403909Y382794D01*
X403520Y382461D01*
X403048Y382100D01*
X402465Y381767D01*
X401826Y381434D01*
X401854D01*
X401910Y381406D01*
X402021Y381378D01*
X402160Y381323D01*
X402298Y381239D01*
X402493Y381156D01*
X402909Y380934D01*
X403381Y380656D01*
X403854Y380295D01*
X404270Y379851D01*
X404631Y379351D01*
Y379323D01*
X404659Y379295D01*
X404714Y379212D01*
X404770Y379101D01*
X404825Y378962D01*
X404909Y378795D01*
X405076Y378379D01*
X405214Y377879D01*
X405353Y377268D01*
X405464Y376602D01*
X405492Y375852D01*
Y373630D01*
Y373575D01*
Y373436D01*
X405520Y373241D01*
Y372964D01*
X405548Y372658D01*
X405603Y372325D01*
X405742Y371631D01*
Y371603D01*
X405797Y371492D01*
X405853Y371325D01*
X405936Y371131D01*
X406075Y370909D01*
X406214Y370659D01*
X406381Y370437D01*
X406603Y370215D01*
Y369826D01*
X403298D01*
X403270Y369853D01*
X403187Y369937D01*
X403076Y370048D01*
X402965Y370215D01*
X402826Y370464D01*
X402687Y370742D01*
X402548Y371048D01*
X402465Y371436D01*
Y371492D01*
X402437Y371631D01*
X402410Y371853D01*
X402382Y372131D01*
X402354Y372464D01*
X402326Y372825D01*
X402298Y373241D01*
Y373658D01*
Y375824D01*
Y375852D01*
Y375907D01*
Y376018D01*
X402271Y376130D01*
Y376296D01*
X402243Y376490D01*
X402160Y376935D01*
X402021Y377407D01*
X401826Y377935D01*
X401549Y378434D01*
X401160Y378906D01*
X401104Y378962D01*
X400965Y379101D01*
X400716Y379268D01*
X400382Y379490D01*
X399938Y379712D01*
X399438Y379878D01*
X398827Y380017D01*
X398161Y380073D01*
X392690D01*
Y369826D01*
X389469D01*
Y393486D01*
X397939D01*
X398216Y393458D01*
D02*
G37*
G36*
X377028D02*
X377361Y393430D01*
X377722Y393402D01*
X378138Y393347D01*
X378583Y393264D01*
X379555Y393069D01*
X380055Y392930D01*
X380527Y392764D01*
X381027Y392569D01*
X381499Y392319D01*
X381915Y392070D01*
X382332Y391764D01*
X382360Y391736D01*
X382415Y391681D01*
X382526Y391597D01*
X382665Y391431D01*
X382804Y391264D01*
X382970Y391042D01*
X383165Y390792D01*
X383359Y390487D01*
X383554Y390153D01*
X383748Y389792D01*
X383915Y389376D01*
X384054Y388931D01*
X384192Y388432D01*
X384303Y387904D01*
X384359Y387349D01*
X384387Y386738D01*
Y386710D01*
Y386654D01*
Y386571D01*
X384359Y386432D01*
Y386265D01*
X384331Y386099D01*
X384276Y385655D01*
X384137Y385182D01*
X383970Y384655D01*
X383748Y384100D01*
X383415Y383572D01*
Y383544D01*
X383359Y383516D01*
X383248Y383350D01*
X383026Y383100D01*
X382721Y382794D01*
X382332Y382461D01*
X381860Y382100D01*
X381277Y381767D01*
X380638Y381434D01*
X380666D01*
X380721Y381406D01*
X380832Y381378D01*
X380971Y381323D01*
X381110Y381239D01*
X381304Y381156D01*
X381721Y380934D01*
X382193Y380656D01*
X382665Y380295D01*
X383082Y379851D01*
X383443Y379351D01*
Y379323D01*
X383470Y379295D01*
X383526Y379212D01*
X383581Y379101D01*
X383637Y378962D01*
X383720Y378795D01*
X383887Y378379D01*
X384026Y377879D01*
X384165Y377268D01*
X384276Y376602D01*
X384303Y375852D01*
Y373630D01*
Y373575D01*
Y373436D01*
X384331Y373241D01*
Y372964D01*
X384359Y372658D01*
X384415Y372325D01*
X384553Y371631D01*
Y371603D01*
X384609Y371492D01*
X384665Y371325D01*
X384748Y371131D01*
X384887Y370909D01*
X385026Y370659D01*
X385192Y370437D01*
X385414Y370215D01*
Y369826D01*
X382110D01*
X382082Y369853D01*
X381999Y369937D01*
X381888Y370048D01*
X381776Y370215D01*
X381638Y370464D01*
X381499Y370742D01*
X381360Y371048D01*
X381277Y371436D01*
Y371492D01*
X381249Y371631D01*
X381221Y371853D01*
X381193Y372131D01*
X381166Y372464D01*
X381138Y372825D01*
X381110Y373241D01*
Y373658D01*
Y375824D01*
Y375852D01*
Y375907D01*
Y376018D01*
X381082Y376130D01*
Y376296D01*
X381054Y376490D01*
X380971Y376935D01*
X380832Y377407D01*
X380638Y377935D01*
X380360Y378434D01*
X379971Y378906D01*
X379916Y378962D01*
X379777Y379101D01*
X379527Y379268D01*
X379194Y379490D01*
X378749Y379712D01*
X378250Y379878D01*
X377639Y380017D01*
X376972Y380073D01*
X371501D01*
Y369826D01*
X368280D01*
Y393486D01*
X376750D01*
X377028Y393458D01*
D02*
G37*
G36*
X362421Y369826D02*
X359199D01*
Y393513D01*
X362421D01*
Y369826D01*
D02*
G37*
G36*
X419488Y393819D02*
X419794Y393791D01*
X420155Y393763D01*
X420571Y393708D01*
X421043Y393597D01*
X421571Y393486D01*
X422098Y393347D01*
X422682Y393152D01*
X423265Y392903D01*
X423848Y392625D01*
X424431Y392292D01*
X424987Y391903D01*
X425542Y391459D01*
X426070Y390959D01*
X426097Y390931D01*
X426181Y390820D01*
X426320Y390653D01*
X426486Y390459D01*
X426708Y390153D01*
X426930Y389820D01*
X427153Y389431D01*
X427430Y388987D01*
X427680Y388487D01*
X427902Y387960D01*
X428152Y387349D01*
X428347Y386710D01*
X428513Y386043D01*
X428652Y385321D01*
X428735Y384572D01*
X428763Y383766D01*
Y379545D01*
Y379490D01*
Y379351D01*
X428735Y379129D01*
Y378823D01*
X428680Y378434D01*
X428624Y378018D01*
X428541Y377546D01*
X428430Y377018D01*
X428291Y376463D01*
X428097Y375880D01*
X427902Y375269D01*
X427625Y374658D01*
X427319Y374047D01*
X426958Y373464D01*
X426542Y372880D01*
X426070Y372325D01*
X426042Y372297D01*
X425958Y372214D01*
X425792Y372075D01*
X425570Y371881D01*
X425320Y371658D01*
X424987Y371436D01*
X424625Y371186D01*
X424181Y370909D01*
X423709Y370659D01*
X423181Y370381D01*
X422598Y370159D01*
X421987Y369937D01*
X421321Y369742D01*
X420599Y369603D01*
X419849Y369520D01*
X419071Y369493D01*
X418877D01*
X418683Y369520D01*
X418377Y369548D01*
X418044Y369576D01*
X417627Y369631D01*
X417183Y369742D01*
X416683Y369853D01*
X416156Y369992D01*
X415600Y370187D01*
X415045Y370409D01*
X414490Y370687D01*
X413906Y371020D01*
X413351Y371381D01*
X412823Y371825D01*
X412323Y372325D01*
X412296Y372353D01*
X412212Y372464D01*
X412074Y372631D01*
X411935Y372853D01*
X411713Y373130D01*
X411518Y373464D01*
X411268Y373852D01*
X411046Y374297D01*
X410796Y374797D01*
X410546Y375352D01*
X410352Y375935D01*
X410157Y376574D01*
X409991Y377268D01*
X409852Y377990D01*
X409769Y378740D01*
X409741Y379545D01*
Y383766D01*
Y383822D01*
Y383961D01*
X409769Y384183D01*
Y384488D01*
X409824Y384849D01*
X409880Y385294D01*
X409963Y385766D01*
X410074Y386293D01*
X410213Y386849D01*
X410380Y387432D01*
X410574Y388015D01*
X410824Y388626D01*
X411129Y389237D01*
X411463Y389820D01*
X411879Y390403D01*
X412323Y390959D01*
X412351Y390986D01*
X412434Y391097D01*
X412601Y391236D01*
X412795Y391403D01*
X413045Y391625D01*
X413379Y391875D01*
X413740Y392125D01*
X414156Y392403D01*
X414601Y392680D01*
X415128Y392930D01*
X415684Y393180D01*
X416267Y393402D01*
X416905Y393569D01*
X417600Y393736D01*
X418322Y393819D01*
X419071Y393847D01*
X419266D01*
X419488Y393819D01*
D02*
G37*
%LPC*%
G36*
X441926Y390986D02*
X436594D01*
Y382600D01*
X441399D01*
X441593Y382628D01*
X441815D01*
X442065Y382655D01*
X442648Y382739D01*
X443315Y382850D01*
X443953Y383044D01*
X444564Y383294D01*
X444814Y383461D01*
X445064Y383627D01*
X445092D01*
X445120Y383683D01*
X445259Y383822D01*
X445453Y384072D01*
X445675Y384405D01*
X445870Y384849D01*
X446064Y385405D01*
X446203Y386043D01*
X446258Y386404D01*
Y386793D01*
Y386821D01*
Y386877D01*
Y386988D01*
X446231Y387126D01*
Y387293D01*
X446203Y387487D01*
X446119Y387932D01*
X445981Y388432D01*
X445758Y388931D01*
X445481Y389431D01*
X445092Y389876D01*
X445037Y389931D01*
X444981Y389987D01*
X444870Y390042D01*
X444759Y390126D01*
X444592Y390237D01*
X444425Y390320D01*
X444203Y390431D01*
X443953Y390542D01*
X443704Y390625D01*
X443398Y390737D01*
X443065Y390820D01*
X442732Y390875D01*
X442343Y390931D01*
X441926Y390986D01*
D02*
G37*
G36*
X398022D02*
X392690D01*
Y382600D01*
X397494D01*
X397689Y382628D01*
X397911D01*
X398161Y382655D01*
X398744Y382739D01*
X399410Y382850D01*
X400049Y383044D01*
X400660Y383294D01*
X400910Y383461D01*
X401160Y383627D01*
X401188D01*
X401215Y383683D01*
X401354Y383822D01*
X401549Y384072D01*
X401771Y384405D01*
X401965Y384849D01*
X402160Y385405D01*
X402298Y386043D01*
X402354Y386404D01*
Y386793D01*
Y386821D01*
Y386877D01*
Y386988D01*
X402326Y387126D01*
Y387293D01*
X402298Y387487D01*
X402215Y387932D01*
X402076Y388432D01*
X401854Y388931D01*
X401576Y389431D01*
X401188Y389876D01*
X401132Y389931D01*
X401077Y389987D01*
X400965Y390042D01*
X400854Y390126D01*
X400688Y390237D01*
X400521Y390320D01*
X400299Y390431D01*
X400049Y390542D01*
X399799Y390625D01*
X399494Y390737D01*
X399160Y390820D01*
X398827Y390875D01*
X398438Y390931D01*
X398022Y390986D01*
D02*
G37*
G36*
X376833D02*
X371501D01*
Y382600D01*
X376306D01*
X376500Y382628D01*
X376722D01*
X376972Y382655D01*
X377555Y382739D01*
X378222Y382850D01*
X378861Y383044D01*
X379471Y383294D01*
X379721Y383461D01*
X379971Y383627D01*
X379999D01*
X380027Y383683D01*
X380166Y383822D01*
X380360Y384072D01*
X380582Y384405D01*
X380777Y384849D01*
X380971Y385405D01*
X381110Y386043D01*
X381166Y386404D01*
Y386793D01*
Y386821D01*
Y386877D01*
Y386988D01*
X381138Y387126D01*
Y387293D01*
X381110Y387487D01*
X381027Y387932D01*
X380888Y388432D01*
X380666Y388931D01*
X380388Y389431D01*
X379999Y389876D01*
X379944Y389931D01*
X379888Y389987D01*
X379777Y390042D01*
X379666Y390126D01*
X379499Y390237D01*
X379333Y390320D01*
X379111Y390431D01*
X378861Y390542D01*
X378611Y390625D01*
X378305Y390737D01*
X377972Y390820D01*
X377639Y390875D01*
X377250Y390931D01*
X376833Y390986D01*
D02*
G37*
G36*
X419071Y391209D02*
X418794D01*
X418599Y391181D01*
X418377Y391153D01*
X418100Y391097D01*
X417794Y391042D01*
X417461Y390959D01*
X417100Y390848D01*
X416739Y390709D01*
X416378Y390542D01*
X416017Y390320D01*
X415628Y390098D01*
X415267Y389820D01*
X414934Y389487D01*
X414601Y389126D01*
X414573Y389098D01*
X414517Y389042D01*
X414434Y388904D01*
X414351Y388737D01*
X414212Y388543D01*
X414073Y388293D01*
X413934Y388015D01*
X413767Y387682D01*
X413601Y387321D01*
X413462Y386904D01*
X413323Y386460D01*
X413184Y385988D01*
X413101Y385488D01*
X413018Y384960D01*
X412962Y384377D01*
X412934Y383794D01*
Y379545D01*
Y379517D01*
Y379406D01*
Y379240D01*
X412962Y378990D01*
X412990Y378712D01*
X413018Y378407D01*
X413073Y378046D01*
X413157Y377657D01*
X413351Y376796D01*
X413490Y376352D01*
X413629Y375907D01*
X413823Y375463D01*
X414045Y375019D01*
X414295Y374602D01*
X414601Y374186D01*
X414628Y374158D01*
X414684Y374102D01*
X414767Y373991D01*
X414906Y373852D01*
X415073Y373713D01*
X415267Y373519D01*
X415517Y373353D01*
X415795Y373158D01*
X416100Y372964D01*
X416433Y372769D01*
X416794Y372575D01*
X417183Y372436D01*
X417627Y372297D01*
X418072Y372186D01*
X418572Y372131D01*
X419071Y372103D01*
X419210D01*
X419349Y372131D01*
X419571D01*
X419821Y372158D01*
X420099Y372214D01*
X420432Y372270D01*
X420765Y372353D01*
X421154Y372464D01*
X421543Y372603D01*
X421932Y372769D01*
X422321Y372964D01*
X422709Y373214D01*
X423098Y373491D01*
X423459Y373797D01*
X423792Y374158D01*
X423820Y374186D01*
X423876Y374241D01*
X423959Y374380D01*
X424070Y374547D01*
X424209Y374741D01*
X424348Y374991D01*
X424514Y375296D01*
X424681Y375602D01*
X424820Y375991D01*
X424987Y376379D01*
X425125Y376824D01*
X425264Y377324D01*
X425375Y377823D01*
X425459Y378379D01*
X425514Y378934D01*
X425542Y379545D01*
Y383794D01*
Y383822D01*
Y383933D01*
Y384100D01*
X425514Y384322D01*
X425486Y384599D01*
X425459Y384933D01*
X425403Y385294D01*
X425320Y385682D01*
X425125Y386515D01*
X424987Y386960D01*
X424792Y387404D01*
X424598Y387848D01*
X424376Y388293D01*
X424098Y388737D01*
X423792Y389126D01*
X423765Y389154D01*
X423709Y389209D01*
X423626Y389320D01*
X423487Y389459D01*
X423293Y389598D01*
X423070Y389792D01*
X422821Y389987D01*
X422543Y390181D01*
X422237Y390375D01*
X421876Y390542D01*
X421488Y390737D01*
X421071Y390875D01*
X420599Y391014D01*
X420127Y391125D01*
X419627Y391181D01*
X419071Y391209D01*
D02*
G37*
%LPD*%
M02*
