0
SECTION
2
HEADER
9
$INSUNITS
70
4
9
$ACADVER
1
AC1014
9
$HANDSEED
5
FFFF
0
ENDSEC
0
SECTION
2
TABLES
0
TABLE
2
VPORT
5
8
100
AcDbSymbolTable
0
ENDTAB
0
TABLE
2
LTYPE
5
5
100
AcDbSymbolTable
0
LTYPE
5
14
100
AcDbSymbolTableRecord
100
AcDbLinetypeTableRecord
2
BYBLOCK
70
0
0
LTYPE
5
15
100
AcDbSymbolTableRecord
100
AcDbLinetypeTableRecord
2
BYLAYER
70
0
0
ENDTAB
0
TABLE
2
LAYER
5
2
100
AcDbSymbolTable
70
2
0
LAYER
5
50
100
AcDbSymbolTableRecord
100
AcDbLayerTableRecord
2
0
70
0
6
CONTINUOUS
0
ENDTAB
0
TABLE
2
STYLE
5
3
100
AcDbSymbolTable
70
1
0
STYLE
5
11
100
AcDbSymbolTableRecord
100
AcDbTextStyleTableRecord
2
STANDARD
70
0
0
ENDTAB
0
TABLE
2
VIEW
5
6
100
AcDbSymbolTable
70
0
0
ENDTAB
0
TABLE
2
UCS
5
7
100
AcDbSymbolTable
70
0
0
ENDTAB
0
TABLE
2
APPID
5
9
100
AcDbSymbolTable
70
2
0
APPID
5
12
100
AcDbSymbolTableRecord
100
AcDbRegAppTableRecord
2
ACAD
70
0
0
ENDTAB
0
TABLE
2
DIMSTYLE
5
A
100
AcDbSymbolTable
70
1
0
ENDTAB
0
TABLE
2
BLOCK_RECORD
5
1
100
AcDbSymbolTable
70
1
0
BLOCK_RECORD
5
1F
100
AcDbSymbolTableRecord
100
AcDbBlockTableRecord
2
*MODEL_SPACE
0
BLOCK_RECORD
5
1B
100
AcDbSymbolTableRecord
100
AcDbBlockTableRecord
2
*PAPER_SPACE
0
ENDTAB
0
ENDSEC
0
SECTION
2
BLOCKS
0
BLOCK
5
20
100
AcDbEntity
100
AcDbBlockBegin
2
*MODEL_SPACE
0
ENDBLK
5
21
100
AcDbEntity
100
AcDbBlockEnd
0
BLOCK
5
1C
100
AcDbEntity
100
AcDbBlockBegin
2
*PAPER_SPACE
0
ENDBLK
5
1D
100
AcDbEntity
100
AcDbBlockEnd
0
ENDSEC
0
SECTION
2
ENTITIES
0
CIRCLE
5
100
100
AcDbEntity
8
0
100
AcDbCircle
10
3.5527136788005009e-14
20
-106.80876270223898
30
0
40
7.1997312999999998
0
LWPOLYLINE
5
101
100
AcDbEntity
8
0
100
AcDbPolyline
90
6
70
1
43
0.0
10
21.17264298375154
20
-121.67734017458781
42
-0.46599706182678585
10
20.000000000000004
20
-120.69235570762329
10
20.000000000000004
20
-116.87701818442571
10
-19.999999999999964
20
-116.87701818442571
10
-19.999999999999911
20
-120.69235570762329
42
-0.46599706182680389
10
-21.172642983751647
20
-121.67734017458777
42
-11.497626047875396
0
CIRCLE
5
102
100
AcDbEntity
8
0
100
AcDbCircle
10
42.201929647903562
20
96.278072470639046
30
0
40
7.1997312999999963
0
CIRCLE
5
103
100
AcDbEntity
8
0
100
AcDbCircle
10
-105.68130530350456
20
6.348285118893684
30
0
40
7.1997312999999963
0
CIRCLE
5
104
100
AcDbEntity
8
0
100
AcDbCircle
10
-77.416173636790262
20
-73.182173171560606
30
0
40
7.1997312999999963
0
CIRCLE
5
105
100
AcDbEntity
8
0
100
AcDbCircle
10
-94.052126054403544
20
-49.614397845186303
30
0
40
7.1997312999999963
0
CIRCLE
5
106
100
AcDbEntity
8
0
100
AcDbCircle
10
-55.038617775964951
20
-91.387665210261446
30
0
40
7.1997312999999963
0
CIRCLE
5
107
100
AcDbEntity
8
0
100
AcDbCircle
10
-28.579099419618874
20
-102.88065590136256
30
0
40
7.1997313000000007
0
CIRCLE
5
108
100
AcDbEntity
8
0
100
AcDbCircle
10
65.884727860942974
20
20.526731560726283
30
0
40
11.009044999999995
0
CIRCLE
5
109
100
AcDbEntity
8
0
100
AcDbCircle
10
55.038617775965022
20
-91.387665210261446
30
0
40
7.1997312999999963
0
CIRCLE
5
110
100
AcDbEntity
8
0
100
AcDbCircle
10
103.71266254240892
20
-22.432253311697625
30
0
40
7.1997312999999963
0
CIRCLE
5
111
100
AcDbEntity
8
0
100
AcDbCircle
10
94.052126054403615
20
-49.614397845186346
30
0
40
7.1997312999999963
0
CIRCLE
5
112
100
AcDbEntity
8
0
100
AcDbCircle
10
14.423894642879551
20
104.06111287495504
30
0
40
7.1997313000000007
0
CIRCLE
5
113
100
AcDbEntity
8
0
100
AcDbCircle
10
-103.71266254240886
20
-22.432253311697565
30
0
40
7.1997312999999963
0
CIRCLE
5
114
100
AcDbEntity
8
0
100
AcDbCircle
10
-42.201929647903427
20
96.278072470639103
30
0
40
7.1997313000000007
0
CIRCLE
5
115
100
AcDbEntity
8
0
100
AcDbCircle
10
99.812049110041585
20
34.59269657339285
30
0
40
7.1997312999999963
0
CIRCLE
5
116
100
AcDbEntity
8
0
100
AcDbCircle
10
66.850040591924341
20
81.28922416375454
30
0
40
7.1997312999999963
0
CIRCLE
5
117
100
AcDbEntity
8
0
100
AcDbCircle
10
40.719001157599934
20
55.164382810726273
30
0
40
11.009045000000004
0
CIRCLE
5
118
100
AcDbEntity
8
0
100
AcDbCircle
10
65.884727860942974
20
-22.287759965204263
30
0
40
11.009044999999995
0
CIRCLE
5
119
100
AcDbEntity
8
0
100
AcDbCircle
10
-66.850040591924255
20
81.28922416375454
30
0
40
7.1997312999999963
0
CIRCLE
5
120
100
AcDbEntity
8
0
100
AcDbCircle
10
-14.423894642879455
20
104.06111287495504
30
0
40
7.1997312999999998
0
CIRCLE
5
121
100
AcDbEntity
8
0
100
AcDbCircle
10
77.41617363679029
20
-73.182173171560663
30
0
40
7.1997313000000052
0
CIRCLE
5
122
100
AcDbEntity
8
0
100
AcDbCircle
10
28.579099419618931
20
-102.88065590136256
30
0
40
7.1997313000000007
0
CIRCLE
5
123
100
AcDbEntity
8
0
100
AcDbCircle
10
105.6813053035046
20
6.3482851188935907
30
0
40
7.1997312999999963
0
CIRCLE
5
124
100
AcDbEntity
8
0
100
AcDbCircle
10
-40.719001157599862
20
-56.92541121520425
30
0
40
11.009045
0
CIRCLE
5
125
100
AcDbEntity
8
0
100
AcDbCircle
10
-40.719001157599848
20
55.164382810726309
30
0
40
11.009045
0
CIRCLE
5
126
100
AcDbEntity
8
0
100
AcDbCircle
10
3.5527136788005009e-14
20
-70.15581670223898
30
0
40
11.009045
0
CIRCLE
5
127
100
AcDbEntity
8
0
100
AcDbCircle
10
86.540189843828557
20
60.206222263804705
30
0
40
7.1997312999999963
0
CIRCLE
5
128
100
AcDbEntity
8
0
100
AcDbCircle
10
-65.884727860942888
20
20.526731560726294
30
0
40
11.009044999999995
0
CIRCLE
5
129
100
AcDbEntity
8
0
100
AcDbCircle
10
-65.884727860942903
20
-22.287759965204241
30
0
40
11.009044999999995
0
CIRCLE
5
130
100
AcDbEntity
8
0
100
AcDbCircle
10
-99.812049110041499
20
34.592696573392899
30
0
40
7.1997312999999963
0
CIRCLE
5
131
100
AcDbEntity
8
0
100
AcDbCircle
10
4.4010914534663971e-14
20
68.394788297761011
30
0
40
11.009045
0
CIRCLE
5
132
100
AcDbEntity
8
0
100
AcDbCircle
10
-86.540189843828472
20
60.206222263804705
30
0
40
7.1997312999999963
0
CIRCLE
5
133
100
AcDbEntity
8
0
100
AcDbCircle
10
3.5527136788005009e-14
20
-0.88051420223898447
30
0
40
46.86898145
0
CIRCLE
5
134
100
AcDbEntity
8
0
100
AcDbCircle
10
40.719001157599919
20
-56.925411215204264
30
0
40
11.009044999999995
0
LINE
5
135
100
AcDbEntity
8
0
100
AcDbLine
10
0
20
0
30
0
11
122.63514451677786
21
0
31
0
0
LINE
5
136
100
AcDbEntity
8
0
100
AcDbLine
10
0
20
0
30
0
11
-122.63514451677779
21
0
31
0
0
CIRCLE
5
137
100
AcDbEntity
8
0
100
AcDbCircle
10
3.5527136788005009e-14
20
-0.88051420223898447
30
0
40
69.275302499999981
0
CIRCLE
5
138
100
AcDbEntity
8
0
100
AcDbCircle
10
3.5527136788005009e-14
20
-0.88051420223898447
30
0
40
105.92824850000001
0
ENDSEC
0
SECTION
2
OBJECTS
0
DICTIONARY
5
C
100
AcDbDictionary
3
ACAD_GROUP
350
D
3
ACAD_MLINESTYLE
350
17
0
DICTIONARY
5
D
100
AcDbDictionary
0
DICTIONARY
5
1A
330
C
100
AcDbDictionary
0
DICTIONARY
5
17
100
AcDbDictionary
0
ENDSEC
0
EOF
