0
SECTION
2
HEADER
9
$INSUNITS
70
4
9
$ACADVER
1
AC1014
9
$HANDSEED
5
FFFF
0
ENDSEC
0
SECTION
2
TABLES
0
TABLE
2
VPORT
5
8
100
AcDbSymbolTable
0
ENDTAB
0
TABLE
2
LTYPE
5
5
100
AcDbSymbolTable
0
LTYPE
5
14
100
AcDbSymbolTableRecord
100
AcDbLinetypeTableRecord
2
BYBLOCK
70
0
0
LTYPE
5
15
100
AcDbSymbolTableRecord
100
AcDbLinetypeTableRecord
2
BYLAYER
70
0
0
ENDTAB
0
TABLE
2
LAYER
5
2
100
AcDbSymbolTable
70
2
0
LAYER
5
50
100
AcDbSymbolTableRecord
100
AcDbLayerTableRecord
2
0
70
0
6
CONTINUOUS
0
ENDTAB
0
TABLE
2
STYLE
5
3
100
AcDbSymbolTable
70
1
0
STYLE
5
11
100
AcDbSymbolTableRecord
100
AcDbTextStyleTableRecord
2
STANDARD
70
0
0
ENDTAB
0
TABLE
2
VIEW
5
6
100
AcDbSymbolTable
70
0
0
ENDTAB
0
TABLE
2
UCS
5
7
100
AcDbSymbolTable
70
0
0
ENDTAB
0
TABLE
2
APPID
5
9
100
AcDbSymbolTable
70
2
0
APPID
5
12
100
AcDbSymbolTableRecord
100
AcDbRegAppTableRecord
2
ACAD
70
0
0
ENDTAB
0
TABLE
2
DIMSTYLE
5
A
100
AcDbSymbolTable
70
1
0
ENDTAB
0
TABLE
2
BLOCK_RECORD
5
1
100
AcDbSymbolTable
70
1
0
BLOCK_RECORD
5
1F
100
AcDbSymbolTableRecord
100
AcDbBlockTableRecord
2
*MODEL_SPACE
0
BLOCK_RECORD
5
1B
100
AcDbSymbolTableRecord
100
AcDbBlockTableRecord
2
*PAPER_SPACE
0
ENDTAB
0
ENDSEC
0
SECTION
2
BLOCKS
0
BLOCK
5
20
100
AcDbEntity
100
AcDbBlockBegin
2
*MODEL_SPACE
0
ENDBLK
5
21
100
AcDbEntity
100
AcDbBlockEnd
0
BLOCK
5
1C
100
AcDbEntity
100
AcDbBlockBegin
2
*PAPER_SPACE
0
ENDBLK
5
1D
100
AcDbEntity
100
AcDbBlockEnd
0
ENDSEC
0
SECTION
2
ENTITIES
0
LWPOLYLINE
5
100
100
AcDbEntity
8
0
100
AcDbPolyline
90
8
70
1
43
0.0
10
61.869445779652764
20
30.835052074601343
42
-0.40184860893698598
10
62.449107111187026
20
32.828352913991019
10
76.387153179509369
20
40.875487563514305
42
-0.4243684578045771
10
78.461320618734376
20
40.28113420500933
42
-0.55454470580810755
10
3.5127939634984799
20
-89.533521914289466
42
-0.42436845780456761
10
1.9609851365960862
20
-88.034416899470628
10
1.9609851365960864
20
-71.940147600423927
42
-0.40184860893698254
10
3.3974036351252943
20
-70.441495742028962
42
0.54942102290911843
0
LWPOLYLINE
5
101
100
AcDbEntity
8
0
100
AcDbPolyline
90
8
70
1
43
0.0
10
-58.011057007931527
20
35.921078106338975
42
-0.40184860893698332
10
-60.027136837994945
20
35.426429125344299
10
-73.965182906317352
20
43.473563774867621
42
-0.42436845780456034
10
-74.487541518639915
20
45.567022148191427
42
-0.55454470580810855
10
75.409511791831974
20
45.567022148191505
42
-0.42436845780456417
10
74.887153179509454
20
43.473563774867692
10
60.94910711118694
20
35.426429125344349
42
-0.40184860893697638
10
58.933027281123543
20
35.921078106339039
42
0.54942102290911865
0
CIRCLE
5
102
100
AcDbEntity
8
0
100
AcDbCircle
10
0.46098513659604379
20
-1.2284551870295246
30
0
40
46.868981450000007
0
LWPOLYLINE
5
103
100
AcDbEntity
8
0
100
AcDbPolyline
90
6
70
1
43
0.0
10
-21.304528991255644
20
-104.89646483816563
42
-9.8919328189214397
10
21.095714573940874
20
-105.12745311927776
42
-0.47454150586684835
10
19.90093029435311
20
-104.14116223515768
10
19.921535970891533
20
-100.35878115572559
10
-20.078464029108574
20
-100.14086893476497
10
-20.099069705647047
20
-103.92325001419893
42
-0.4745415058668575
0
LWPOLYLINE
5
104
100
AcDbEntity
8
0
100
AcDbPolyline
90
8
70
1
43
0.0
10
-1.0390148634038709
20
-88.034416899470628
10
-1.0390148634038709
20
-71.940147600423927
42
0.40184860893698221
10
-2.4754333619330504
20
-70.441495742028991
42
-0.54942102290911887
10
-60.947475506460691
20
30.835052074601315
42
0.40184860893697971
10
-61.527136837994902
20
32.828352913990955
10
-75.465182906317281
20
40.875487563514341
42
0.42436845780457555
10
-77.539350345542289
20
40.281134205009366
42
0.55454470580810833
10
-2.5908236903062583
20
-89.533521914289466
42
0.42436845780456922
0
ENDSEC
0
SECTION
2
OBJECTS
0
DICTIONARY
5
C
100
AcDbDictionary
3
ACAD_GROUP
350
D
3
ACAD_MLINESTYLE
350
17
0
DICTIONARY
5
D
100
AcDbDictionary
0
DICTIONARY
5
1A
330
C
100
AcDbDictionary
0
DICTIONARY
5
17
100
AcDbDictionary
0
ENDSEC
0
EOF
