0
SECTION
2
HEADER
9
$INSUNITS
70
4
9
$ACADVER
1
AC1014
9
$HANDSEED
5
FFFF
0
ENDSEC
0
SECTION
2
TABLES
0
TABLE
2
VPORT
5
8
100
AcDbSymbolTable
0
ENDTAB
0
TABLE
2
LTYPE
5
5
100
AcDbSymbolTable
0
LTYPE
5
14
100
AcDbSymbolTableRecord
100
AcDbLinetypeTableRecord
2
BYBLOCK
70
0
0
LTYPE
5
15
100
AcDbSymbolTableRecord
100
AcDbLinetypeTableRecord
2
BYLAYER
70
0
0
ENDTAB
0
TABLE
2
LAYER
5
2
100
AcDbSymbolTable
70
2
0
LAYER
5
50
100
AcDbSymbolTableRecord
100
AcDbLayerTableRecord
2
0
70
0
6
CONTINUOUS
0
ENDTAB
0
TABLE
2
STYLE
5
3
100
AcDbSymbolTable
70
1
0
STYLE
5
11
100
AcDbSymbolTableRecord
100
AcDbTextStyleTableRecord
2
STANDARD
70
0
0
ENDTAB
0
TABLE
2
VIEW
5
6
100
AcDbSymbolTable
70
0
0
ENDTAB
0
TABLE
2
UCS
5
7
100
AcDbSymbolTable
70
0
0
ENDTAB
0
TABLE
2
APPID
5
9
100
AcDbSymbolTable
70
2
0
APPID
5
12
100
AcDbSymbolTableRecord
100
AcDbRegAppTableRecord
2
ACAD
70
0
0
ENDTAB
0
TABLE
2
DIMSTYLE
5
A
100
AcDbSymbolTable
70
1
0
ENDTAB
0
TABLE
2
BLOCK_RECORD
5
1
100
AcDbSymbolTable
70
1
0
BLOCK_RECORD
5
1F
100
AcDbSymbolTableRecord
100
AcDbBlockTableRecord
2
*MODEL_SPACE
0
BLOCK_RECORD
5
1B
100
AcDbSymbolTableRecord
100
AcDbBlockTableRecord
2
*PAPER_SPACE
0
ENDTAB
0
ENDSEC
0
SECTION
2
BLOCKS
0
BLOCK
5
20
100
AcDbEntity
100
AcDbBlockBegin
2
*MODEL_SPACE
0
ENDBLK
5
21
100
AcDbEntity
100
AcDbBlockEnd
0
BLOCK
5
1C
100
AcDbEntity
100
AcDbBlockBegin
2
*PAPER_SPACE
0
ENDBLK
5
1D
100
AcDbEntity
100
AcDbBlockEnd
0
ENDSEC
0
SECTION
2
ENTITIES
0
LWPOLYLINE
5
100
100
AcDbEntity
8
0
100
AcDbPolyline
90
6
70
1
43
0.0
10
21.172642983751523
20
-121.68388373360156
42
-0.46599706182677147
10
19.999999999999986
20
-120.69889926663706
10
19.999999999999986
20
-116.88356174343949
10
-19.999999999999982
20
-116.88356174343949
10
-19.999999999999915
20
-120.69889926663706
42
-0.46599706182679618
10
-21.172642983751548
20
-121.68388373360156
42
-11.497626047875428
0
CIRCLE
5
101
100
AcDbEntity
8
0
100
AcDbCircle
10
42.20192964790354
20
96.271528911625268
30
0
40
7.1997312999999963
0
CIRCLE
5
102
100
AcDbEntity
8
0
100
AcDbCircle
10
-105.68130530350457
20
6.3417415598799165
30
0
40
7.1997312999999963
0
CIRCLE
5
103
100
AcDbEntity
8
0
100
AcDbCircle
10
-77.416173636790276
20
-73.18871673057437
30
0
40
7.1997312999999963
0
CIRCLE
5
104
100
AcDbEntity
8
0
100
AcDbCircle
10
-94.052126054403558
20
-49.620941404200067
30
0
40
7.1997312999999963
0
CIRCLE
5
105
100
AcDbEntity
8
0
100
AcDbCircle
10
-55.038617775964973
20
-91.394208769275224
30
0
40
7.1997312999999963
0
CIRCLE
5
106
100
AcDbEntity
8
0
100
AcDbCircle
10
-28.579099419618892
20
-102.88719946037632
30
0
40
7.1997313000000007
0
CIRCLE
5
107
100
AcDbEntity
8
0
100
AcDbCircle
10
65.884727860942959
20
20.520188001712512
30
0
40
11.009044999999995
0
CIRCLE
5
108
100
AcDbEntity
8
0
100
AcDbCircle
10
55.038617775965008
20
-91.394208769275224
30
0
40
7.1997312999999963
0
CIRCLE
5
109
100
AcDbEntity
8
0
100
AcDbCircle
10
103.71266254240891
20
-22.438796870711393
30
0
40
7.1997312999999963
0
CIRCLE
5
110
100
AcDbEntity
8
0
100
AcDbCircle
10
94.052126054403601
20
-49.62094140420011
30
0
40
7.1997312999999963
0
CIRCLE
5
111
100
AcDbEntity
8
0
100
AcDbCircle
10
14.423894642879533
20
104.05456931594128
30
0
40
7.1997313000000007
0
CIRCLE
5
112
100
AcDbEntity
8
0
100
AcDbCircle
10
-103.71266254240888
20
-22.438796870711329
30
0
40
7.1997312999999963
0
CIRCLE
5
113
100
AcDbEntity
8
0
100
AcDbCircle
10
-42.201929647903441
20
96.271528911625325
30
0
40
7.1997313000000007
0
CIRCLE
5
114
100
AcDbEntity
8
0
100
AcDbCircle
10
99.812049110041571
20
34.586153014379079
30
0
40
7.1997312999999963
0
CIRCLE
5
115
100
AcDbEntity
8
0
100
AcDbCircle
10
66.850040591924312
20
81.282680604740776
30
0
40
7.1997312999999963
0
CIRCLE
5
116
100
AcDbEntity
8
0
100
AcDbCircle
10
40.719001157599912
20
55.157839251712502
30
0
40
11.009045000000004
0
CIRCLE
5
117
100
AcDbEntity
8
0
100
AcDbCircle
10
65.884727860942959
20
-22.29430352421803
30
0
40
11.009044999999995
0
CIRCLE
5
118
100
AcDbEntity
8
0
100
AcDbCircle
10
-66.85004059192427
20
81.282680604740776
30
0
40
7.1997312999999963
0
CIRCLE
5
119
100
AcDbEntity
8
0
100
AcDbCircle
10
-14.423894642879473
20
104.05456931594128
30
0
40
7.1997312999999998
0
CIRCLE
5
120
100
AcDbEntity
8
0
100
AcDbCircle
10
77.416173636790276
20
-73.188716730574427
30
0
40
7.1997313000000052
0
CIRCLE
5
121
100
AcDbEntity
8
0
100
AcDbCircle
10
28.579099419618913
20
-102.88719946037632
30
0
40
7.1997313000000007
0
CIRCLE
5
122
100
AcDbEntity
8
0
100
AcDbCircle
10
105.68130530350459
20
6.3417415598798232
30
0
40
7.1997312999999963
0
CIRCLE
5
123
100
AcDbEntity
8
0
100
AcDbCircle
10
-40.719001157599877
20
-56.931954774218021
30
0
40
11.009045
0
CIRCLE
5
124
100
AcDbEntity
8
0
100
AcDbCircle
10
-40.71900115759987
20
55.157839251712545
30
0
40
11.009045
0
CIRCLE
5
125
100
AcDbEntity
8
0
100
AcDbCircle
10
1.7763568394002505e-14
20
-70.162360261252743
30
0
40
11.009045
0
CIRCLE
5
126
100
AcDbEntity
8
0
100
AcDbCircle
10
86.540189843828529
20
60.199678704790934
30
0
40
7.1997312999999963
0
CIRCLE
5
127
100
AcDbEntity
8
0
100
AcDbCircle
10
-65.884727860942903
20
20.520188001712526
30
0
40
11.009044999999995
0
CIRCLE
5
128
100
AcDbEntity
8
0
100
AcDbCircle
10
-65.884727860942917
20
-22.294303524218009
30
0
40
11.009044999999995
0
CIRCLE
5
129
100
AcDbEntity
8
0
100
AcDbCircle
10
-99.812049110041528
20
34.586153014379128
30
0
40
7.1997312999999963
0
CIRCLE
5
130
100
AcDbEntity
8
0
100
AcDbCircle
10
2.6247346140661466e-14
20
68.388244738747247
30
0
40
11.009045
0
CIRCLE
5
131
100
AcDbEntity
8
0
100
AcDbCircle
10
-86.5401898438285
20
60.199678704790934
30
0
40
7.1997312999999963
0
CIRCLE
5
132
100
AcDbEntity
8
0
100
AcDbCircle
10
1.7763568394002505e-14
20
-0.88705776125275193
30
0
40
46.86898145
0
CIRCLE
5
133
100
AcDbEntity
8
0
100
AcDbCircle
10
40.719001157599905
20
-56.931954774218028
30
0
40
11.009044999999995
0
ENDSEC
0
SECTION
2
OBJECTS
0
DICTIONARY
5
C
100
AcDbDictionary
3
ACAD_GROUP
350
D
3
ACAD_MLINESTYLE
350
17
0
DICTIONARY
5
D
100
AcDbDictionary
0
DICTIONARY
5
1A
330
C
100
AcDbDictionary
0
DICTIONARY
5
17
100
AcDbDictionary
0
ENDSEC
0
EOF
