G04*
G04 #@! TF.GenerationSoftware,Altium Limited,Altium Designer,19.1.6 (110)*
G04*
G04 Layer_Color=16711935*
%FSLAX25Y25*%
%MOIN*%
G70*
G01*
G75*
%ADD19C,0.01000*%
D19*
X224410Y0D02*
G03*
X224410Y0I-224410J0D01*
G01*
X291339D02*
G03*
X291339Y0I-291339J0D01*
G01*
X-66929Y96549D02*
Y90551D01*
Y93550D01*
X-62930D01*
Y96549D01*
Y90551D01*
X-57932Y96549D02*
X-59931D01*
X-60931Y95550D01*
Y91551D01*
X-59931Y90551D01*
X-57932D01*
X-56932Y91551D01*
Y95550D01*
X-57932Y96549D01*
X-54933D02*
Y90551D01*
X-50934D01*
X-44936Y96549D02*
X-48935D01*
Y90551D01*
X-44936D01*
X-48935Y93550D02*
X-46936D01*
X-74803Y179226D02*
Y173228D01*
Y176227D01*
X-70804D01*
Y179226D01*
Y173228D01*
X-65806Y179226D02*
X-67805D01*
X-68805Y178227D01*
Y174228D01*
X-67805Y173228D01*
X-65806D01*
X-64806Y174228D01*
Y178227D01*
X-65806Y179226D01*
X-62807D02*
Y173228D01*
X-58808D01*
X-52810Y179226D02*
X-56809D01*
Y173228D01*
X-52810D01*
X-56809Y176227D02*
X-54810D01*
X161417Y-29435D02*
Y-35433D01*
Y-32434D01*
X165416D01*
Y-29435D01*
Y-35433D01*
X170414Y-29435D02*
X168415D01*
X167415Y-30435D01*
Y-34433D01*
X168415Y-35433D01*
X170414D01*
X171414Y-34433D01*
Y-30435D01*
X170414Y-29435D01*
X173413D02*
Y-35433D01*
X177412D01*
X183410Y-29435D02*
X179411D01*
Y-35433D01*
X183410D01*
X179411Y-32434D02*
X181411D01*
X70866Y80801D02*
Y74803D01*
Y77802D01*
X74865D01*
Y80801D01*
Y74803D01*
X79863Y80801D02*
X77864D01*
X76864Y79801D01*
Y75803D01*
X77864Y74803D01*
X79863D01*
X80863Y75803D01*
Y79801D01*
X79863Y80801D01*
X82862D02*
Y74803D01*
X86861D01*
X92859Y80801D02*
X88860D01*
Y74803D01*
X92859D01*
X88860Y77802D02*
X90860D01*
X102362Y128045D02*
Y122047D01*
Y125046D01*
X106361D01*
Y128045D01*
Y122047D01*
X111359Y128045D02*
X109360D01*
X108360Y127046D01*
Y123047D01*
X109360Y122047D01*
X111359D01*
X112359Y123047D01*
Y127046D01*
X111359Y128045D01*
X114358D02*
Y122047D01*
X118357D01*
X124355Y128045D02*
X120356D01*
Y122047D01*
X124355D01*
X120356Y125046D02*
X122356D01*
X19685Y179226D02*
Y173228D01*
Y176227D01*
X23684D01*
Y179226D01*
Y173228D01*
X28682Y179226D02*
X26683D01*
X25683Y178227D01*
Y174228D01*
X26683Y173228D01*
X28682D01*
X29682Y174228D01*
Y178227D01*
X28682Y179226D01*
X31681D02*
Y173228D01*
X35680D01*
X41678Y179226D02*
X37679D01*
Y173228D01*
X41678D01*
X37679Y176227D02*
X39679D01*
X-102362Y49305D02*
Y43307D01*
Y46306D01*
X-98364D01*
Y49305D01*
Y43307D01*
X-93365Y49305D02*
X-95364D01*
X-96364Y48305D01*
Y44307D01*
X-95364Y43307D01*
X-93365D01*
X-92365Y44307D01*
Y48305D01*
X-93365Y49305D01*
X-90366D02*
Y43307D01*
X-86367D01*
X-80369Y49305D02*
X-84368D01*
Y43307D01*
X-80369D01*
X-84368Y46306D02*
X-82369D01*
X27559Y2061D02*
Y-3937D01*
Y-938D01*
X31558D01*
Y2061D01*
Y-3937D01*
X36556Y2061D02*
X34557D01*
X33557Y1061D01*
Y-2937D01*
X34557Y-3937D01*
X36556D01*
X37556Y-2937D01*
Y1061D01*
X36556Y2061D01*
X39555D02*
Y-3937D01*
X43554D01*
X49552Y2061D02*
X45553D01*
Y-3937D01*
X49552D01*
X45553Y-938D02*
X47553D01*
X-15748Y-17624D02*
Y-23622D01*
Y-20623D01*
X-11749D01*
Y-17624D01*
Y-23622D01*
X-6751Y-17624D02*
X-8750D01*
X-9750Y-18624D01*
Y-22622D01*
X-8750Y-23622D01*
X-6751D01*
X-5751Y-22622D01*
Y-18624D01*
X-6751Y-17624D01*
X-3752D02*
Y-23622D01*
X247D01*
X6245Y-17624D02*
X2246D01*
Y-23622D01*
X6245D01*
X2246Y-20623D02*
X4245D01*
X23622Y-112112D02*
Y-118110D01*
Y-115111D01*
X27621D01*
Y-112112D01*
Y-118110D01*
X32619Y-112112D02*
X30620D01*
X29620Y-113112D01*
Y-117111D01*
X30620Y-118110D01*
X32619D01*
X33619Y-117111D01*
Y-113112D01*
X32619Y-112112D01*
X35618D02*
Y-118110D01*
X39617D01*
X45615Y-112112D02*
X41616D01*
Y-118110D01*
X45615D01*
X41616Y-115111D02*
X43616D01*
X59055Y-155419D02*
Y-161417D01*
Y-158418D01*
X63054D01*
Y-155419D01*
Y-161417D01*
X68052Y-155419D02*
X66053D01*
X65053Y-156419D01*
Y-160418D01*
X66053Y-161417D01*
X68052D01*
X69052Y-160418D01*
Y-156419D01*
X68052Y-155419D01*
X71051D02*
Y-161417D01*
X75050D01*
X81048Y-155419D02*
X77049D01*
Y-161417D01*
X81048D01*
X77049Y-158418D02*
X79049D01*
X-3937Y-182978D02*
Y-188976D01*
Y-185977D01*
X62D01*
Y-182978D01*
Y-188976D01*
X5060Y-182978D02*
X3061D01*
X2061Y-183978D01*
Y-187977D01*
X3061Y-188976D01*
X5060D01*
X6060Y-187977D01*
Y-183978D01*
X5060Y-182978D01*
X8059D02*
Y-188976D01*
X12058D01*
X18056Y-182978D02*
X14057D01*
Y-188976D01*
X18056D01*
X14057Y-185977D02*
X16057D01*
X-66929Y-167230D02*
Y-173228D01*
Y-170229D01*
X-62930D01*
Y-167230D01*
Y-173228D01*
X-57932Y-167230D02*
X-59931D01*
X-60931Y-168230D01*
Y-172229D01*
X-59931Y-173228D01*
X-57932D01*
X-56932Y-172229D01*
Y-168230D01*
X-57932Y-167230D01*
X-54933D02*
Y-173228D01*
X-50934D01*
X-44936Y-167230D02*
X-48935D01*
Y-173228D01*
X-44936D01*
X-48935Y-170229D02*
X-46936D01*
X-35433Y-131797D02*
Y-137795D01*
Y-134796D01*
X-31434D01*
Y-131797D01*
Y-137795D01*
X-26436Y-131797D02*
X-28435D01*
X-29435Y-132797D01*
Y-136796D01*
X-28435Y-137795D01*
X-26436D01*
X-25436Y-136796D01*
Y-132797D01*
X-26436Y-131797D01*
X-23437D02*
Y-137795D01*
X-19438D01*
X-13440Y-131797D02*
X-17439D01*
Y-137795D01*
X-13440D01*
X-17439Y-134796D02*
X-15439D01*
X-66929Y-68805D02*
Y-74803D01*
Y-71804D01*
X-62930D01*
Y-68805D01*
Y-74803D01*
X-57932Y-68805D02*
X-59931D01*
X-60931Y-69805D01*
Y-73804D01*
X-59931Y-74803D01*
X-57932D01*
X-56932Y-73804D01*
Y-69805D01*
X-57932Y-68805D01*
X-54933D02*
Y-74803D01*
X-50934D01*
X-44936Y-68805D02*
X-48935D01*
Y-74803D01*
X-44936D01*
X-48935Y-71804D02*
X-46936D01*
X-149606Y-104238D02*
Y-110236D01*
Y-107237D01*
X-145608D01*
Y-104238D01*
Y-110236D01*
X-140609Y-104238D02*
X-142609D01*
X-143608Y-105238D01*
Y-109237D01*
X-142609Y-110236D01*
X-140609D01*
X-139610Y-109237D01*
Y-105238D01*
X-140609Y-104238D01*
X-137610D02*
Y-110236D01*
X-133612D01*
X-127613Y-104238D02*
X-131612D01*
Y-110236D01*
X-127613D01*
X-131612Y-107237D02*
X-129613D01*
X-149606Y-53057D02*
Y-59055D01*
Y-56056D01*
X-145608D01*
Y-53057D01*
Y-59055D01*
X-140609Y-53057D02*
X-142609D01*
X-143608Y-54057D01*
Y-58055D01*
X-142609Y-59055D01*
X-140609D01*
X-139610Y-58055D01*
Y-54057D01*
X-140609Y-53057D01*
X-137610D02*
Y-59055D01*
X-133612D01*
X-127613Y-53057D02*
X-131612D01*
Y-59055D01*
X-127613D01*
X-131612Y-56056D02*
X-129613D01*
X-177165Y2061D02*
Y-3937D01*
Y-938D01*
X-173167D01*
Y2061D01*
Y-3937D01*
X-168168Y2061D02*
X-170168D01*
X-171167Y1061D01*
Y-2937D01*
X-170168Y-3937D01*
X-168168D01*
X-167169Y-2937D01*
Y1061D01*
X-168168Y2061D01*
X-165169D02*
Y-3937D01*
X-161170D01*
X-155173Y2061D02*
X-159171D01*
Y-3937D01*
X-155173D01*
X-159171Y-938D02*
X-157172D01*
X-106299Y-17624D02*
Y-23622D01*
Y-20623D01*
X-102301D01*
Y-17624D01*
Y-23622D01*
X-97302Y-17624D02*
X-99301D01*
X-100301Y-18624D01*
Y-22622D01*
X-99301Y-23622D01*
X-97302D01*
X-96302Y-22622D01*
Y-18624D01*
X-97302Y-17624D01*
X-94303D02*
Y-23622D01*
X-90304D01*
X-84306Y-17624D02*
X-88305D01*
Y-23622D01*
X-84306D01*
X-88305Y-20623D02*
X-86306D01*
X47244Y-56994D02*
Y-62992D01*
Y-59993D01*
X51243D01*
Y-56994D01*
Y-62992D01*
X56241Y-56994D02*
X54242D01*
X53242Y-57994D01*
Y-61992D01*
X54242Y-62992D01*
X56241D01*
X57241Y-61992D01*
Y-57994D01*
X56241Y-56994D01*
X59240D02*
Y-62992D01*
X63239D01*
X69237Y-56994D02*
X65238D01*
Y-62992D01*
X69237D01*
X65238Y-59993D02*
X67238D01*
X94488Y-119986D02*
Y-125984D01*
Y-122985D01*
X98487D01*
Y-119986D01*
Y-125984D01*
X103485Y-119986D02*
X101486D01*
X100486Y-120986D01*
Y-124985D01*
X101486Y-125984D01*
X103485D01*
X104485Y-124985D01*
Y-120986D01*
X103485Y-119986D01*
X106484D02*
Y-125984D01*
X110483D01*
X116481Y-119986D02*
X112482D01*
Y-125984D01*
X116481D01*
X112482Y-122985D02*
X114482D01*
X145669Y-92427D02*
Y-98425D01*
Y-95426D01*
X149668D01*
Y-92427D01*
Y-98425D01*
X154666Y-92427D02*
X152667D01*
X151667Y-93427D01*
Y-97426D01*
X152667Y-98425D01*
X154666D01*
X155666Y-97426D01*
Y-93427D01*
X154666Y-92427D01*
X157665D02*
Y-98425D01*
X161664D01*
X167662Y-92427D02*
X163663D01*
Y-98425D01*
X167662D01*
X163663Y-95426D02*
X165663D01*
X98425Y-41246D02*
Y-47244D01*
Y-44245D01*
X102424D01*
Y-41246D01*
Y-47244D01*
X107422Y-41246D02*
X105423D01*
X104423Y-42246D01*
Y-46244D01*
X105423Y-47244D01*
X107422D01*
X108422Y-46244D01*
Y-42246D01*
X107422Y-41246D01*
X110421D02*
Y-47244D01*
X114420D01*
X120418Y-41246D02*
X116419D01*
Y-47244D01*
X120418D01*
X116419Y-44245D02*
X118419D01*
X94488Y21746D02*
Y15748D01*
Y18747D01*
X98487D01*
Y21746D01*
Y15748D01*
X103485Y21746D02*
X101486D01*
X100486Y20746D01*
Y16748D01*
X101486Y15748D01*
X103485D01*
X104485Y16748D01*
Y20746D01*
X103485Y21746D01*
X106484D02*
Y15748D01*
X110483D01*
X116481Y21746D02*
X112482D01*
Y15748D01*
X116481D01*
X112482Y18747D02*
X114482D01*
X137795Y76864D02*
Y70866D01*
Y73865D01*
X141794D01*
Y76864D01*
Y70866D01*
X146792Y76864D02*
X144793D01*
X143793Y75864D01*
Y71866D01*
X144793Y70866D01*
X146792D01*
X147792Y71866D01*
Y75864D01*
X146792Y76864D01*
X149791D02*
Y70866D01*
X153790D01*
X159788Y76864D02*
X155789D01*
Y70866D01*
X159788D01*
X155789Y73865D02*
X157789D01*
X0Y76864D02*
Y70866D01*
Y73865D01*
X3999D01*
Y76864D01*
Y70866D01*
X8997Y76864D02*
X6998D01*
X5998Y75864D01*
Y71866D01*
X6998Y70866D01*
X8997D01*
X9997Y71866D01*
Y75864D01*
X8997Y76864D01*
X11996D02*
Y70866D01*
X15995D01*
X21993Y76864D02*
X17994D01*
Y70866D01*
X21993D01*
X17994Y73865D02*
X19994D01*
X27559Y128045D02*
Y122047D01*
Y125046D01*
X31558D01*
Y128045D01*
Y122047D01*
X36556Y128045D02*
X34557D01*
X33557Y127046D01*
Y123047D01*
X34557Y122047D01*
X36556D01*
X37556Y123047D01*
Y127046D01*
X36556Y128045D01*
X39555D02*
Y122047D01*
X43554D01*
X49552Y128045D02*
X45553D01*
Y122047D01*
X49552D01*
X45553Y125046D02*
X47553D01*
X-39370Y151667D02*
Y145669D01*
Y148668D01*
X-35371D01*
Y151667D01*
Y145669D01*
X-30373Y151667D02*
X-32372D01*
X-33372Y150668D01*
Y146669D01*
X-32372Y145669D01*
X-30373D01*
X-29373Y146669D01*
Y150668D01*
X-30373Y151667D01*
X-27374D02*
Y145669D01*
X-23375D01*
X-17377Y151667D02*
X-21376D01*
Y145669D01*
X-17377D01*
X-21376Y148668D02*
X-19377D01*
X-129921Y124108D02*
Y118110D01*
Y121109D01*
X-125923D01*
Y124108D01*
Y118110D01*
X-120924Y124108D02*
X-122924D01*
X-123923Y123109D01*
Y119110D01*
X-122924Y118110D01*
X-120924D01*
X-119924Y119110D01*
Y123109D01*
X-120924Y124108D01*
X-117925D02*
Y118110D01*
X-113926D01*
X-107928Y124108D02*
X-111927D01*
Y118110D01*
X-107928D01*
X-111927Y121109D02*
X-109928D01*
X-153543Y80801D02*
Y74803D01*
Y77802D01*
X-149545D01*
Y80801D01*
Y74803D01*
X-144546Y80801D02*
X-146546D01*
X-147545Y79801D01*
Y75803D01*
X-146546Y74803D01*
X-144546D01*
X-143546Y75803D01*
Y79801D01*
X-144546Y80801D01*
X-141547D02*
Y74803D01*
X-137548D01*
X-131550Y80801D02*
X-135549D01*
Y74803D01*
X-131550D01*
X-135549Y77802D02*
X-133550D01*
M02*
