G04*
G04 #@! TF.GenerationSoftware,Altium Limited,Altium Designer,19.1.6 (110)*
G04*
G04 Layer_Physical_Order=2*
G04 Layer_Color=16711680*
%FSLAX25Y25*%
%MOIN*%
G70*
G01*
G75*
%ADD14C,0.00787*%
%ADD15C,0.00800*%
%ADD16C,0.07874*%
%ADD17P,0.11136X4X50.0*%
%ADD18R,0.07874X0.07874*%
G36*
X-277613Y-25083D02*
X-277767Y-25087D01*
X-277904Y-25099D01*
X-278024Y-25119D01*
X-278127Y-25148D01*
X-278213Y-25184D01*
X-278282Y-25228D01*
X-278335Y-25280D01*
X-278370Y-25340D01*
X-278388Y-25408D01*
X-278390Y-25484D01*
X-278530Y-23884D01*
X-278515Y-23960D01*
X-278485Y-24028D01*
X-278439Y-24088D01*
X-278378Y-24140D01*
X-278301Y-24184D01*
X-278208Y-24219D01*
X-278100Y-24247D01*
X-277977Y-24267D01*
X-277837Y-24279D01*
X-277683Y-24283D01*
X-277613Y-25083D01*
D02*
G37*
G36*
X-235540Y-5244D02*
X-235535Y-5139D01*
X-235545Y-4954D01*
X-235611Y-4348D01*
X-236170Y-628D01*
X-230600Y-3559D01*
X-234810Y-5723D01*
X-235540Y-5244D01*
D02*
G37*
D14*
X-268448Y61976D02*
G03*
X-274542Y-24019I269275J-62295D01*
G01*
X-235322Y-20588D02*
G03*
X-200426Y-125240I236579J20742D01*
G01*
X-265028Y-23168D02*
G03*
X-258049Y-64325I268207J24310D01*
G01*
X-266563Y-23299D02*
G03*
X-259561Y-64708I271126J24547D01*
G01*
X-268098Y-23433D02*
G03*
X-261080Y-65093I273760J24694D01*
G01*
X-257284Y-22510D02*
G03*
X-250553Y-62452I250405J21658D01*
G01*
X-258851Y-22646D02*
G03*
X-252049Y-62822I254270J22385D01*
G01*
X-260407Y-22778D02*
G03*
X-253545Y-63194I258025J23017D01*
G01*
X-249318Y-21834D02*
G03*
X-242990Y-60585I245443J20186D01*
G01*
X-250919Y-21971D02*
G03*
X-244522Y-60966I244704J20119D01*
G01*
X-252518Y-22106D02*
G03*
X-246041Y-61342I244123J20145D01*
G01*
X237841Y-16651D02*
G03*
X237454Y20767I-241964J16209D01*
G01*
X239381Y-16759D02*
G03*
X239015Y20910I-244495J16456D01*
G01*
X247151Y-17281D02*
G03*
X246921Y21624I-252699J17961D01*
G01*
X255085Y-17815D02*
G03*
X254910Y22308I-253411J18957D01*
G01*
X256686Y-17928D02*
G03*
X256495Y22442I-252808J18988D01*
G01*
X263083Y-18392D02*
G03*
X262723Y22973I-253678J18478D01*
G01*
X264667Y-18507D02*
G03*
X264261Y23103I-257209J18297D01*
G01*
X270885Y-18957D02*
G03*
X270406Y23638I-272336J18239D01*
G01*
X272422Y-19069D02*
G03*
X271952Y23778I-275607J18402D01*
G01*
X-273189Y19124D02*
G03*
X-272727Y-23848I277141J-18504D01*
G01*
X-265454Y18562D02*
G03*
X-265028Y-23168I259209J-18222D01*
G01*
X-267019Y18674D02*
G03*
X-266563Y-23299I263173J-18131D01*
G01*
X-257488Y17985D02*
G03*
X-257284Y-22510I252437J-18976D01*
G01*
X-259091Y18100D02*
G03*
X-258851Y-22646I251610J-18895D01*
G01*
X-260691Y18217D02*
G03*
X-260407Y-22778I251266J-18753D01*
G01*
X-237071Y16596D02*
G03*
X-236676Y-20696I240600J-16100D01*
G01*
X239015Y20910D02*
G03*
X232892Y58088I-244651J-21195D01*
G01*
X246921Y21624D02*
G03*
X240673Y60014I-246201J-20368D01*
G01*
X248518Y21764D02*
G03*
X242220Y60395I-245746J-20237D01*
G01*
X253317Y22173D02*
G03*
X246797Y61528I-244172J-20231D01*
G01*
X256495Y22442D02*
G03*
X249804Y62268I-248542J-21282D01*
G01*
X262723Y22973D02*
G03*
X255792Y63756I-263353J-23775D01*
G01*
X264261Y23103D02*
G03*
X257296Y64134I-266648J-24156D01*
G01*
X268866Y23501D02*
G03*
X261842Y65287I-274963J-24736D01*
G01*
X-241698Y16918D02*
G03*
X-235224Y-58670I247370J-16887D01*
G01*
X-243248Y17023D02*
G03*
X-236782Y-59056I248459J-17199D01*
G01*
X-244804Y17127D02*
G03*
X-238340Y-59440I249244J-17516D01*
G01*
X245584Y-17178D02*
G03*
X239119Y59632I-249525J17674D01*
G01*
X261490Y-18276D02*
G03*
X254293Y63380I-255369J18638D01*
G01*
X-255704Y-22375D02*
G03*
X-249055Y-62083I246878J20928D01*
G01*
X-263492Y-23038D02*
G03*
X-256543Y-63945I265029J23978D01*
G01*
X-261080Y-65093D02*
G03*
X-247774Y-105199I267227J66403D01*
G01*
X-271178Y-23708D02*
G03*
X-250732Y-106454I277214J24600D01*
G01*
X-272727Y-23848D02*
G03*
X-252214Y-107079I278094J24394D01*
G01*
X-257580Y59444D02*
G03*
X-263876Y18450I253798J-59959D01*
G01*
X-259147Y59808D02*
G03*
X-265454Y18562I252987J-59794D01*
G01*
X-260712Y60174D02*
G03*
X-267019Y18674I252186J-59553D01*
G01*
X-263831Y60905D02*
G03*
X-270115Y18900I254083J-59488D01*
G01*
X-265379Y61266D02*
G03*
X-271654Y19013I257509J-59836D01*
G01*
X-266915Y61623D02*
G03*
X-273189Y19124I261535J-60325D01*
G01*
X-229792Y-143595D02*
G03*
X-204511Y-177762I222006J137832D01*
G01*
X-231141Y-144434D02*
G03*
X-205678Y-178770I224784J140084D01*
G01*
X-232478Y-145268D02*
G03*
X-206842Y-179777I227991J142585D01*
G01*
X-236676Y-20696D02*
G03*
X-218888Y-92930I241280J21110D01*
G01*
X-238233Y-20838D02*
G03*
X-220365Y-93552I241945J20903D01*
G01*
X-239797Y-20981D02*
G03*
X-233669Y-58282I245127J21124D01*
G01*
Y-58282D02*
G03*
X-221838Y-94172I232913J56880D01*
G01*
X-235224Y-58670D02*
G03*
X-223305Y-94790I232512J56697D01*
G01*
X-236782Y-59056D02*
G03*
X-224763Y-95406I231918J56524D01*
G01*
X-238340Y-59440D02*
G03*
X-226208Y-96018I231265J56405D01*
G01*
X-246124Y-21554D02*
G03*
X-239896Y-59823I246344J20444D01*
G01*
X-247719Y-21695D02*
G03*
X-241447Y-60205I246000J20298D01*
G01*
Y-60205D02*
G03*
X-229074Y-97225I232806J57232D01*
G01*
X-242990Y-60585D02*
G03*
X-230499Y-97824I235798J58382D01*
G01*
X-244522Y-60966D02*
G03*
X-231920Y-98424I239410J59694D01*
G01*
X-231623Y53475D02*
G03*
X-237071Y16596I227122J-52393D01*
G01*
X-233146Y53829D02*
G03*
X-238611Y16705I230730J-52926D01*
G01*
X-236168Y54537D02*
G03*
X-241698Y16918I237443J-54116D01*
G01*
X-237672Y54888D02*
G03*
X-243248Y17023I240486J-54753D01*
G01*
X-227667Y91985D02*
G03*
X-239175Y55238I224031J-90333D01*
G01*
Y55238D02*
G03*
X-244804Y17127I243283J-55403D01*
G01*
X-229112Y92573D02*
G03*
X-240679Y55586I227516J-91448D01*
G01*
Y55586D02*
G03*
X-246367Y17230I245811J-56053D01*
G01*
X-242185Y55933D02*
G03*
X-247937Y17333I248050J-56691D01*
G01*
X-231981Y93742D02*
G03*
X-243695Y56279I233921J-93708D01*
G01*
X-233410Y94324D02*
G03*
X-245212Y56624I236781J-94820D01*
G01*
X-234839Y94903D02*
G03*
X-246734Y56970I239381J-95900D01*
G01*
X-236269Y95482D02*
G03*
X-248264Y57316I241700J-96931D01*
G01*
X-201761Y-126074D02*
G03*
X-179515Y-156026I198017J123831D01*
G01*
X-203088Y-126899D02*
G03*
X-180681Y-157037I200936J125989D01*
G01*
X-205724Y-128535D02*
G03*
X-183015Y-159070I206497J129854D01*
G01*
X-207035Y-129350D02*
G03*
X-184186Y-160093I209080J131533D01*
G01*
X-199785Y-173672D02*
G03*
X-170152Y-202755I193845J167878D01*
G01*
X-200978Y-174708D02*
G03*
X-171145Y-203933I196518J170770D01*
G01*
X-202163Y-175734D02*
G03*
X-172137Y-205111I199251J173618D01*
G01*
X-206269Y123914D02*
G03*
X-223268Y90198I204956J-124483D01*
G01*
X-207643Y124740D02*
G03*
X-224743Y90799I204561J-124347D01*
G01*
X-209017Y125568D02*
G03*
X-226211Y91395I204033J-124067D01*
G01*
X183643Y-154098D02*
G03*
X205582Y-123503I-187901J157903D01*
G01*
X184853Y-155104D02*
G03*
X206955Y-124327I-188444J158653D01*
G01*
X211077Y-126813D02*
G03*
X228391Y-92279I-203335J123551D01*
G01*
X213811Y-128467D02*
G03*
X231266Y-93451I-206067J124576D01*
G01*
X215169Y-129286D02*
G03*
X232696Y-94033I-209305J126046D01*
G01*
X216516Y-130097D02*
G03*
X234124Y-94614I-212795J127704D01*
G01*
X217853Y-130904D02*
G03*
X235554Y-95193I-216144J129376D01*
G01*
X220503Y-132509D02*
G03*
X238422Y-96348I-222271J132666D01*
G01*
X218149Y92618D02*
G03*
X201094Y125658I-213582J-89324D01*
G01*
X219626Y93241D02*
G03*
X202425Y126487I-213050J-89156D01*
G01*
X209000Y130573D02*
G03*
X185948Y161636I-212631J-133704D01*
G01*
X210309Y131392D02*
G03*
X187130Y162672I-214747J-134910D01*
G01*
X215580Y134706D02*
G03*
X191912Y166855I-220815J-137782D01*
G01*
X216911Y135546D02*
G03*
X193120Y167907I-221676J-138038D01*
G01*
X236301Y-16541D02*
G03*
X235899Y20626I-239173J16002D01*
G01*
X236920Y-54713D02*
G03*
X242472Y-16971I-238994J54432D01*
G01*
X238424Y-55063D02*
G03*
X244025Y-17075I-241917J55077D01*
G01*
X239927Y-55412D02*
G03*
X245584Y-17178I-244582J55728D01*
G01*
X241431Y-55760D02*
G03*
X247151Y-17281I-246967J56374D01*
G01*
X242939Y-56106D02*
G03*
X248518Y21764I-248761J56957D01*
G01*
X244453Y-56451D02*
G03*
X250118Y21902I-249816J57445D01*
G01*
X245972Y-56797D02*
G03*
X251719Y22039I-250560J57891D01*
G01*
X247498Y-57143D02*
G03*
X253317Y22173I-251004J58284D01*
G01*
X249032Y-57490D02*
G03*
X255085Y-17815I-254275J59091D01*
G01*
X258289Y-18042D02*
G03*
X258069Y22578I-252023J18945D01*
G01*
X259892Y-18159D02*
G03*
X259630Y22712I-251316J18830D01*
G01*
X255234Y-58902D02*
G03*
X261490Y-18276I-254669J60011D01*
G01*
X236003Y58863D02*
G03*
X224035Y95098I-232237J-56608D01*
G01*
X237561Y59248D02*
G03*
X225487Y95713I-231566J-56448D01*
G01*
X239119Y59632D02*
G03*
X226927Y96321I-231131J-56431D01*
G01*
X242220Y60395D02*
G03*
X229787Y97525I-234170J-57766D01*
G01*
X243758Y60776D02*
G03*
X231210Y98124I-237583J-59039D01*
G01*
X245283Y61155D02*
G03*
X232630Y98724I-241219J-60323D01*
G01*
X246797Y61528D02*
G03*
X234050Y99326I-244754J-61494D01*
G01*
X249804Y62268D02*
G03*
X236897Y100538I-251370J-63469D01*
G01*
X251301Y62637D02*
G03*
X238326Y101150I-254383J-64263D01*
G01*
X252797Y63007D02*
G03*
X239760Y101765I-257159J-64928D01*
G01*
X254293Y63380D02*
G03*
X241201Y102384I-259672J-65462D01*
G01*
X241201D02*
G03*
X222298Y138934I-246842J-104502D01*
G01*
X248512Y105513D02*
G03*
X229114Y143175I-247788J-103797D01*
G01*
X249991Y106140D02*
G03*
X230468Y144015I-247189J-103449D01*
G01*
X251473Y106766D02*
G03*
X231811Y144852I-246380J-103081D01*
G01*
X252956Y107391D02*
G03*
X233142Y145681I-245526J-102777D01*
G01*
X266238Y-18618D02*
G03*
X265796Y23233I-261207J18166D01*
G01*
X267796Y-18730D02*
G03*
X267330Y23366I-265100J18115D01*
G01*
X273957Y-19179D02*
G03*
X273504Y23920I-278604J18620D01*
G01*
X-254285Y17759D02*
G03*
X-254114Y-22241I253633J-18916D01*
G01*
X-263876Y18450D02*
G03*
X-263492Y-23038I255324J-18384D01*
G01*
X-262274Y60540D02*
G03*
X-268098Y-23433I255777J-59927D01*
G01*
X-270115Y18900D02*
G03*
X-269636Y-23569I270607J-18182D01*
G01*
X-271654Y19013D02*
G03*
X-271178Y-23708I274004J-18313D01*
G01*
X-226208Y-96018D02*
G03*
X-208345Y-130165I222701J94755D01*
G01*
X-239896Y-59823D02*
G03*
X-209654Y-130982I234233J57541D01*
G01*
X-229074Y-97225D02*
G03*
X-210965Y-131803I229062J97936D01*
G01*
X-230499Y-97824D02*
G03*
X-212278Y-132627I232030J99309D01*
G01*
X-231920Y-98424D02*
G03*
X-213595Y-133455I234815J100525D01*
G01*
X-233340Y-99024D02*
G03*
X-214917Y-134288I237389J101579D01*
G01*
X-234761Y-99627D02*
G03*
X-216244Y-135126I239727J102469D01*
G01*
X-238611Y16705D02*
G03*
X-238233Y-20838I243264J-16328D01*
G01*
X-240152Y16813D02*
G03*
X-239797Y-20981I245656J-16592D01*
G01*
X-246367Y17230D02*
G03*
X-246124Y-21554I252228J-17812D01*
G01*
X-247937Y17333D02*
G03*
X-247719Y-21695I253092J-18105D01*
G01*
X-202460Y169903D02*
G03*
X-226453Y136089I204032J-170190D01*
G01*
X-203638Y170897D02*
G03*
X-227786Y136884I206544J-172215D01*
G01*
X-204816Y171889D02*
G03*
X-229125Y137682I208808J-174128D01*
G01*
X-205996Y172880D02*
G03*
X-230471Y138483I210808J-175905D01*
G01*
X178932Y155520D02*
G03*
X152346Y181540I-180708J-158046D01*
G01*
X180098Y156531D02*
G03*
X153346Y182740I-182810J-159847D01*
G01*
X181264Y157544D02*
G03*
X154349Y183945I-184754J-161434D01*
G01*
X219559Y-88688D02*
G03*
X230857Y-53297I-214262J87895D01*
G01*
X221045Y-89293D02*
G03*
X232386Y-53652I-213728J87633D01*
G01*
X239865Y-96926D02*
G03*
X258289Y-18042I-244903J98795D01*
G01*
X241313Y-97505D02*
G03*
X259892Y-18159I-245437J99315D01*
G01*
X242769Y-98086D02*
G03*
X255234Y-58902I-248344J100578D01*
G01*
X250147Y-101041D02*
G03*
X263053Y-60723I-248678J101830D01*
G01*
X251637Y-101643D02*
G03*
X264606Y-61086I-248032J101669D01*
G01*
X253127Y-102247D02*
G03*
X266149Y-61445I-247218J101374D01*
G01*
X254617Y-102854D02*
G03*
X267678Y-61800I-246365J100983D01*
G01*
X250118Y21902D02*
G03*
X243758Y60776I-245093J-20146D01*
G01*
X251719Y22039D02*
G03*
X245283Y61155I-244340J-20113D01*
G01*
X254910Y22308D02*
G03*
X235472Y99930I-250114J-21387D01*
G01*
X258069Y22578D02*
G03*
X251301Y62637I-252345J-22032D01*
G01*
X259630Y22712D02*
G03*
X252797Y63007I-256165J-22714D01*
G01*
X265796Y23233D02*
G03*
X258804Y64516I-269700J-24440D01*
G01*
X267330Y23366D02*
G03*
X260320Y64900I-272480J-24631D01*
G01*
X-262288Y18334D02*
G03*
X-255043Y-63568I257011J-18536D01*
G01*
X242472Y-16971D02*
G03*
X236003Y58863I-247953J17042D01*
G01*
X244025Y-17075D02*
G03*
X237561Y59248I-248889J17358D01*
G01*
X-19152Y-273573D02*
G03*
X23884Y-273115I18561J277882D01*
G01*
X-18590Y-265846D02*
G03*
X23201Y-265412I18192J260212D01*
G01*
D02*
G03*
X64420Y-258427I-24378J268962D01*
G01*
X-18702Y-267408D02*
G03*
X23333Y-266946I18120J264141D01*
G01*
X23333D02*
G03*
X64804Y-259940I-24592J271812D01*
G01*
X-18013Y-257889D02*
G03*
X22544Y-257677I18963J252235D01*
G01*
D02*
G03*
X62545Y-250927I-21847J251373D01*
G01*
X-18129Y-259491D02*
G03*
X22679Y-259241I18865J251440D01*
G01*
Y-259241D02*
G03*
X62915Y-252423I-22553J255221D01*
G01*
X21868Y-249718D02*
G03*
X60681Y-243374I-20165J245273D01*
G01*
X22005Y-251319D02*
G03*
X61061Y-244903I-20112J244512D01*
G01*
X-16839Y-240538D02*
G03*
X21017Y-240190I16663J246210D01*
G01*
D02*
G03*
X58379Y-234057I-21085J245337D01*
G01*
X-16945Y-242085D02*
G03*
X58766Y-235614I16964J247671D01*
G01*
X-17049Y-243636D02*
G03*
X59152Y-237172I17278J248684D01*
G01*
X-16513Y-235916D02*
G03*
X20591Y-235511I15957J238437D01*
G01*
X16678Y238226D02*
G03*
X-20803Y237843I-16267J-242622D01*
G01*
X16786Y239767D02*
G03*
X-20946Y239406I-16524J-245084D01*
G01*
D02*
G03*
X-58185Y233280I21160J-244898D01*
G01*
X17204Y245975D02*
G03*
X-59728Y239508I-17751J-249639D01*
G01*
X17307Y247543D02*
G03*
X-21660Y247320I-18034J-252905D01*
G01*
D02*
G03*
X-60110Y241060I20332J-246108D01*
G01*
X17732Y253886D02*
G03*
X-22207Y253716I-18890J-253723D01*
G01*
X-22341Y255307D02*
G03*
X-61991Y248679I20768J-246156D01*
G01*
X17956Y257087D02*
G03*
X-22476Y256890I-18985J-252628D01*
G01*
X-22476Y256890D02*
G03*
X-62360Y250179I21468J-249457D01*
G01*
X18305Y261889D02*
G03*
X-63474Y254668I-18587J-256176D01*
G01*
X18421Y263480D02*
G03*
X-23005Y263108I-18430J-254463D01*
G01*
Y263108D02*
G03*
X-63850Y256168I23880J-264198D01*
G01*
X18535Y265061D02*
G03*
X-23135Y264645I-18258J-258203D01*
G01*
Y264645D02*
G03*
X-64230Y257672I24236J-267435D01*
G01*
X-23535Y269251D02*
G03*
X-65384Y262224I24749J-275535D01*
G01*
X18985Y271270D02*
G03*
X-23673Y270792I-18274J-273178D01*
G01*
X19096Y272806D02*
G03*
X-23813Y272339I-18451J-276383D01*
G01*
X-102096Y-252755D02*
G03*
X-61356Y-265764I101460J247435D01*
G01*
X-102702Y-254245D02*
G03*
X-61711Y-267297I101078J246550D01*
G01*
X-90949Y-225111D02*
G03*
X-54625Y-236544I88500J217747D01*
G01*
X-91543Y-226576D02*
G03*
X-54976Y-238048I89516J221319D01*
G01*
X-92132Y-228029D02*
G03*
X-55325Y-239551I90610J224917D01*
G01*
X-93305Y-230908D02*
G03*
X-56019Y-242562I92861J231618D01*
G01*
X-93888Y-232338D02*
G03*
X-56365Y-244074I93988J234659D01*
G01*
X-94469Y-233767D02*
G03*
X-56710Y-245592I95094J237456D01*
G01*
X-95048Y-235196D02*
G03*
X-57056Y-247116I96163J239988D01*
G01*
X-133903Y-222813D02*
G03*
X-97360Y-240951I135378J226869D01*
G01*
X-134698Y-224133D02*
G03*
X-97941Y-242405I136815J229130D01*
G01*
X-135493Y-225457D02*
G03*
X-98524Y-243866I138145J231104D01*
G01*
X-138684Y-230808D02*
G03*
X-100891Y-249775I142089J235992D01*
G01*
X-162020Y-193115D02*
G03*
X-129895Y-216181I158739J187186D01*
G01*
X-163055Y-194342D02*
G03*
X-130703Y-217520I158353J186865D01*
G01*
X-165117Y-196783D02*
G03*
X-132309Y-220173I159987J189704D01*
G01*
X-166137Y-197995D02*
G03*
X-133107Y-221493I162023J192786D01*
G01*
X-162931Y187426D02*
G03*
X-190351Y159695I166121J-191676D01*
G01*
X-94636Y222939D02*
G03*
X-128331Y205395I90782J-215486D01*
G01*
X-95252Y224399D02*
G03*
X-129146Y206708I92508J-218539D01*
G01*
X-95866Y225848D02*
G03*
X-129961Y208018I94320J-221876D01*
G01*
X-96473Y227286D02*
G03*
X-130778Y209327I96012J-225141D01*
G01*
X-97675Y230143D02*
G03*
X-132421Y211949I98980J-231304D01*
G01*
X-139147Y222638D02*
G03*
X-172371Y198278I137514J-222395D01*
G01*
X-139997Y224000D02*
G03*
X-173413Y199485I137119J-221932D01*
G01*
X-140847Y225364D02*
G03*
X-174450Y200681I136667J-221265D01*
G01*
X-105042Y247405D02*
G03*
X-142542Y228094I104031J-248082D01*
G01*
X-105670Y248881D02*
G03*
X-143385Y229453I103713J-247659D01*
G01*
X-106297Y250361D02*
G03*
X-144225Y230805I103358J-247006D01*
G01*
X-106923Y251844D02*
G03*
X-145060Y232145I102988J-246149D01*
G01*
X-107547Y253326D02*
G03*
X-145887Y233473I102753J-245392D01*
G01*
X-17152Y-245194D02*
G03*
X59536Y-238730I17595J249394D01*
G01*
X-17256Y-246758D02*
G03*
X21589Y-246522I17887J252473D01*
G01*
D02*
G03*
X59919Y-240285I-20405J246280D01*
G01*
X22140Y-252918D02*
G03*
X61435Y-246420I-20180J244107D01*
G01*
X-17787Y-254685D02*
G03*
X22274Y-254512I18939J253529D01*
G01*
X-17899Y-256286D02*
G03*
X22408Y-256100I18987J252978D01*
G01*
X22408Y-256100D02*
G03*
X62176Y-249430I-21101J247678D01*
G01*
X-18247Y-261091D02*
G03*
X63287Y-253919I18687J254595D01*
G01*
X-18363Y-262686D02*
G03*
X22941Y-262338I18526J252983D01*
G01*
X22941Y-262338D02*
G03*
X63662Y-255417I-23665J262495D01*
G01*
X-18478Y-264272D02*
G03*
X23070Y-263877I18339J256244D01*
G01*
X23070D02*
G03*
X64039Y-256919I-24070J265846D01*
G01*
X23467Y-268482D02*
G03*
X65190Y-261461I-24717J274372D01*
G01*
X-18928Y-270500D02*
G03*
X23604Y-270021I18208J271479D01*
G01*
X-19041Y-272038D02*
G03*
X23743Y-271565I18355J274814D01*
G01*
X-53209Y-230472D02*
G03*
X-16513Y-235916I52029J224341D01*
G01*
X-53563Y-232005D02*
G03*
X-16623Y-237456I52522J228037D01*
G01*
X-16623Y-237456D02*
G03*
X20732Y-237064I16153J241290D01*
G01*
X-16732Y-238996D02*
G03*
X20874Y-238624I16391J243888D01*
G01*
X16568Y236686D02*
G03*
X-20661Y236287I-16049J-239894D01*
G01*
X-20661Y236287D02*
G03*
X-92774Y218518I21156J-241069D01*
G01*
X16997Y242860D02*
G03*
X-58959Y236393I-17120J-248216D01*
G01*
X17101Y244414D02*
G03*
X-59344Y237951I-17437J-249076D01*
G01*
X-21799Y248918D02*
G03*
X-60490Y242606I20210J-245601D01*
G01*
X-21937Y250518D02*
G03*
X-60871Y244140I20131J-244902D01*
G01*
X-22072Y252118D02*
G03*
X-61249Y245662I20124J-244206D01*
G01*
X18071Y258690D02*
G03*
X-22612Y258461I-18923J-251810D01*
G01*
X-22612Y258461D02*
G03*
X-62729Y251675I22212J-253311D01*
G01*
X18188Y260292D02*
G03*
X-22745Y260019I-18793J-251253D01*
G01*
D02*
G03*
X-63100Y253171I22868J-257100D01*
G01*
X18646Y266629D02*
G03*
X-23266Y266179I-18146J-262194D01*
G01*
D02*
G03*
X-64612Y259183I24497J-270422D01*
G01*
X18758Y268184D02*
G03*
X-23400Y267714I-18114J-266048D01*
G01*
Y267714D02*
G03*
X-64997Y260700I24665J-273130D01*
G01*
X19206Y274341D02*
G03*
X-23955Y273893I-18683J-279308D01*
G01*
X106610Y-251103D02*
G03*
X144643Y-231476I-103174J246600D01*
G01*
X107235Y-252585D02*
G03*
X145475Y-232810I-102830J245707D01*
G01*
X92462Y-217779D02*
G03*
X125449Y-200760I-89385J213729D01*
G01*
X93085Y-219257D02*
G03*
X126280Y-202093I-89175J213149D01*
G01*
X93707Y-220733D02*
G03*
X127104Y-203419I-89281J213073D01*
G01*
X94944Y-223671D02*
G03*
X128739Y-206052I-91607J216930D01*
G01*
X95560Y-225125D02*
G03*
X129553Y-207363I-93426J220212D01*
G01*
X96170Y-226568D02*
G03*
X130369Y-208672I-95182J223520D01*
G01*
X97375Y-229431D02*
G03*
X132008Y-211293I-98293J229819D01*
G01*
X97974Y-230854D02*
G03*
X132834Y-212607I-99628J232745D01*
G01*
X98574Y-232275D02*
G03*
X133663Y-213925I-100804J235479D01*
G01*
X138721Y-221958D02*
G03*
X171848Y-197673I-137684J222544D01*
G01*
X140422Y-224682D02*
G03*
X173932Y-200084I-136898J221622D01*
G01*
X141272Y-226047D02*
G03*
X174966Y-201275I-136433J220869D01*
G01*
X142119Y-227412D02*
G03*
X175989Y-202457I-136174J220283D01*
G01*
X167644Y-192818D02*
G03*
X195870Y-164346I-165833J192630D01*
G01*
X159437Y190044D02*
G03*
X127848Y212789I-159669J-188448D01*
G01*
X160468Y191272D02*
G03*
X128672Y214151I-159418J-188019D01*
G01*
X161503Y192501D02*
G03*
X129489Y215507I-159001J-187480D01*
G01*
X162538Y193729D02*
G03*
X130299Y216851I-158498J-186948D01*
G01*
X88839Y219931D02*
G03*
X53386Y231240I-87831J-214112D01*
G01*
X89444Y221416D02*
G03*
X53741Y232766I-87582J-213668D01*
G01*
X90649Y224375D02*
G03*
X54449Y235792I-88083J-216202D01*
G01*
X91247Y225845D02*
G03*
X54800Y237296I-88988J-219490D01*
G01*
X91837Y227304D02*
G03*
X55151Y238799I-90059J-223135D01*
G01*
X92426Y228752D02*
G03*
X55499Y240302I-91168J-226660D01*
G01*
X93597Y231623D02*
G03*
X56192Y243317I-93426J-233168D01*
G01*
X131908Y219512D02*
G03*
X95915Y237345I-131448J-220073D01*
G01*
X132708Y220833D02*
G03*
X96492Y238782I-133066J-222975D01*
G01*
X133505Y222153D02*
G03*
X97070Y240226I-134626J-225636D01*
G01*
X134301Y223472D02*
G03*
X97650Y241677I-136109J-228035D01*
G01*
X135095Y224795D02*
G03*
X98232Y243134I-137494J-230154D01*
G01*
X101191Y250519D02*
G03*
X60814Y263442I-101802J-248534D01*
G01*
X101794Y252009D02*
G03*
X61177Y264993I-101608J-247843D01*
G01*
X102399Y253500D02*
G03*
X61534Y266532I-101279J-246992D01*
G01*
X103006Y254989D02*
G03*
X61888Y268058I-100898J-246224D01*
G01*
X-216244Y-135126D02*
G03*
X-192516Y-167381I221279J137932D01*
G01*
X-222978Y-139359D02*
G03*
X-198581Y-172632I222300J137422D01*
G01*
X-224341Y-140210D02*
G03*
X-199785Y-173672I221783J137010D01*
G01*
X-225706Y-141060D02*
G03*
X-200978Y-174708I221070J136549D01*
G01*
X-227071Y-141908D02*
G03*
X-202163Y-175734I220370J136189D01*
G01*
X-246041Y-61342D02*
G03*
X-233340Y-99024I243002J60923D01*
G01*
X-254114Y-22241D02*
G03*
X-234761Y-99627I248503J21033D01*
G01*
X-249055Y-62083D02*
G03*
X-236184Y-100234I249784J63023D01*
G01*
X-250553Y-62452D02*
G03*
X-237611Y-100843I252905J63882D01*
G01*
X-252049Y-62822D02*
G03*
X-239042Y-101457I255803J64612D01*
G01*
X-253545Y-63194D02*
G03*
X-240480Y-102074I258450J65211D01*
G01*
X-255043Y-63568D02*
G03*
X-241925Y-102695I260822J65682D01*
G01*
X-220302Y88990D02*
G03*
X-231623Y53475I213964J-87762D01*
G01*
X-221787Y89595D02*
G03*
X-233146Y53829I213665J-87547D01*
G01*
X-223268Y90198D02*
G03*
X-240152Y16813I218276J-88855D01*
G01*
X-224743Y90799D02*
G03*
X-236168Y54537I216943J-88281D01*
G01*
X-226211Y91395D02*
G03*
X-237672Y54888I220401J-89249D01*
G01*
X-215844Y129692D02*
G03*
X-233410Y94324I211062J-126871D01*
G01*
X-217186Y130501D02*
G03*
X-234839Y94903I214490J-128540D01*
G01*
X-248264Y57316D02*
G03*
X-254285Y17759I253899J-58882D01*
G01*
X-219843Y132109D02*
G03*
X-237703Y96059I220819J-131857D01*
G01*
X-221163Y132908D02*
G03*
X-239143Y96637I223663J-133462D01*
G01*
Y96637D02*
G03*
X-257488Y17985I244523J-98499D01*
G01*
X-222483Y133704D02*
G03*
X-240588Y97215I226261J-135005D01*
G01*
D02*
G03*
X-259091Y18100I245208J-99067D01*
G01*
X-223803Y134500D02*
G03*
X-242040Y97795I228591J-136465D01*
G01*
D02*
G03*
X-260691Y18217I245593J-99536D01*
G01*
X-225126Y135294D02*
G03*
X-243500Y98378I230638J-137823D01*
G01*
X-243500D02*
G03*
X-256016Y59082I248692J-100851D01*
G01*
X-256016D02*
G03*
X-262288Y18334I254430J-60020D01*
G01*
X-226453Y136089D02*
G03*
X-257580Y59444I231955J-138846D01*
G01*
X-227786Y136884D02*
G03*
X-259147Y59808I232710J-139603D01*
G01*
X-229125Y137682D02*
G03*
X-260712Y60174I233171J-140215D01*
G01*
X-249403Y100741D02*
G03*
X-262274Y60540I248927J-101858D01*
G01*
X-252382Y101945D02*
G03*
X-265379Y61266I247644J-101538D01*
G01*
X-253873Y102550D02*
G03*
X-266915Y61623I246764J-101179D01*
G01*
X-255361Y103157D02*
G03*
X-268448Y61976I247537J-101335D01*
G01*
X-95626Y-236627D02*
G03*
X-57403Y-248648I97180J242233D01*
G01*
X-97941Y-242405D02*
G03*
X-58813Y-254844I100430J248141D01*
G01*
X-98524Y-243866D02*
G03*
X-59172Y-256407I100976J248837D01*
G01*
X-100891Y-249775D02*
G03*
X-60632Y-262664I101848J248810D01*
G01*
X-151847Y-180942D02*
G03*
X-88537Y-219188I155002J185063D01*
G01*
X-179515Y-156026D02*
G03*
X-152845Y-182140I181778J158972D01*
G01*
Y-182140D02*
G03*
X-89141Y-220674I155770J185591D01*
G01*
X-180681Y-157037D02*
G03*
X-153847Y-183342I183803J160668D01*
G01*
Y-183342D02*
G03*
X-89746Y-222158I156365J185886D01*
G01*
X-181848Y-158052D02*
G03*
X-154852Y-184550I185660J162145D01*
G01*
X-154852D02*
G03*
X-124120Y-206612I158484J188330D01*
G01*
X-124120D02*
G03*
X-90349Y-223638I124463J204871D01*
G01*
X-183015Y-159070D02*
G03*
X-124946Y-207986I186993J163057D01*
G01*
X-124947D02*
G03*
X-90949Y-225111I124290J204440D01*
G01*
X-184186Y-160093D02*
G03*
X-125775Y-209361I187958J163578D01*
G01*
Y-209361D02*
G03*
X-91543Y-226576I123976J203883D01*
G01*
X-185360Y-161121D02*
G03*
X-126605Y-210734I188711J163883D01*
G01*
D02*
G03*
X-92132Y-228029I123608J203375D01*
G01*
X-186538Y-162153D02*
G03*
X-158923Y-189430I191063J165819D01*
G01*
D02*
G03*
X-127435Y-212105I159728J188612D01*
G01*
X-128261Y-213471D02*
G03*
X-93305Y-230908I124282J205395D01*
G01*
X-160985Y-191887D02*
G03*
X-129082Y-214830I159230J187761D01*
G01*
Y-214830D02*
G03*
X-93888Y-232338I125646J208440D01*
G01*
X-129895Y-216181D02*
G03*
X-94469Y-233767I127287J211933D01*
G01*
X-167149Y-199198D02*
G03*
X-133903Y-222813I164244J196021D01*
G01*
X-168154Y-200391D02*
G03*
X-134698Y-224133I166450J199102D01*
G01*
X-170152Y-202755D02*
G03*
X-136287Y-226786I170706J204682D01*
G01*
X-171145Y-203933D02*
G03*
X-137083Y-228120I172705J207134D01*
G01*
X-172137Y-205111D02*
G03*
X-137882Y-229461I174585J209333D01*
G01*
X-173128Y-206291D02*
G03*
X-138684Y-230808I176326J211266D01*
G01*
X-125866Y201428D02*
G03*
X-155773Y179223I123271J-197277D01*
G01*
D02*
G03*
X-181840Y152595I158516J-181248D01*
G01*
X-126693Y202757D02*
G03*
X-156784Y180390I125462J-200213D01*
G01*
Y180390D02*
G03*
X-183041Y153596I160264J-183312D01*
G01*
X-157798Y181556D02*
G03*
X-184247Y154600I161796J-185213D01*
G01*
X-128331Y205395D02*
G03*
X-158815Y182723I129407J-205828D01*
G01*
X-129146Y206708D02*
G03*
X-159837Y183893I131130J-208449D01*
G01*
X-129961Y208018D02*
G03*
X-160863Y185066I132672J-210908D01*
G01*
X-130778Y209327D02*
G03*
X-161895Y186243I134024J-213180D01*
G01*
X-131597Y210637D02*
G03*
X-162931Y187426I135181J-215242D01*
G01*
X-132421Y211949D02*
G03*
X-191580Y160727I135799J-216614D01*
G01*
X-98274Y231565D02*
G03*
X-133248Y213265I100236J-234137D01*
G01*
X-133248D02*
G03*
X-192808Y161761I136127J-217611D01*
G01*
X-98874Y232985D02*
G03*
X-134080Y214586I101331J-236767D01*
G01*
X-134080Y214586D02*
G03*
X-194035Y162796I136271J-218359D01*
G01*
X-99476Y234406D02*
G03*
X-134916Y215912I102262J-239166D01*
G01*
D02*
G03*
X-167118Y192213I137862J-221055D01*
G01*
X-167118Y192213D02*
G03*
X-195259Y163830I166012J-192745D01*
G01*
X-100082Y235828D02*
G03*
X-196479Y164860I101938J-239418D01*
G01*
X-100691Y237253D02*
G03*
X-169223Y194637I103234J-242422D01*
G01*
Y194637D02*
G03*
X-197693Y165883I165147J-191990D01*
G01*
X-101303Y238684D02*
G03*
X-170275Y195852I103334J-243344D01*
G01*
Y195852D02*
G03*
X-198899Y166896I164613J-191355D01*
G01*
X-101919Y240120D02*
G03*
X-171324Y197066I103293J-243983D01*
G01*
X-171324D02*
G03*
X-200093Y167903I164385J-190934D01*
G01*
X-102539Y241563D02*
G03*
X-139147Y222638I104529J-247061D01*
G01*
X-173413Y199485D02*
G03*
X-202460Y169903I167215J-193246D01*
G01*
X-174450Y200681D02*
G03*
X-203638Y170897I170035J-195830D01*
G01*
X-141696Y226730D02*
G03*
X-175479Y201867I136243J-220506D01*
G01*
D02*
G03*
X-204816Y171889I172921J-198571D01*
G01*
X-142542Y228094D02*
G03*
X-205996Y172880I138239J-222938D01*
G01*
X-143385Y229453D02*
G03*
X-177510Y204219I137381J-221471D01*
G01*
X-177510D02*
G03*
X-207179Y173871I178188J-203884D01*
G01*
X-144225Y230805D02*
G03*
X-178518Y205387I139473J-224018D01*
G01*
X-178518D02*
G03*
X-208367Y174864I180524J-206394D01*
G01*
X-145060Y232145D02*
G03*
X-179525Y206552I141968J-227187D01*
G01*
X-179525Y206552D02*
G03*
X-209561Y175859I182636J-208768D01*
G01*
X-145887Y233473D02*
G03*
X-180534Y207715I144380J-230375D01*
G01*
X-180534D02*
G03*
X-210761Y176857I184511J-210977D01*
G01*
X99175Y-233695D02*
G03*
X134497Y-215248I-101817J237996D01*
G01*
X99779Y-235117D02*
G03*
X135336Y-216577I-102665J240272D01*
G01*
X102229Y-240841D02*
G03*
X138721Y-221958I-104468J246603D01*
G01*
X105356Y-248143D02*
G03*
X142964Y-228774I-103878J247901D01*
G01*
X105983Y-249621D02*
G03*
X143805Y-230130I-103539J247360D01*
G01*
X125449Y-200760D02*
G03*
X155268Y-178640I-122130J195793D01*
G01*
X155268D02*
G03*
X181241Y-152096I-157563J180161D01*
G01*
X126281Y-202093D02*
G03*
X156278Y-179807I-124383J198752D01*
G01*
Y-179807D02*
G03*
X182439Y-153095I-159416J182299D01*
G01*
X127104Y-203419D02*
G03*
X157291Y-180973I-126506J201654D01*
G01*
X157291D02*
G03*
X183643Y-154098I-161058J184284D01*
G01*
X158306Y-182139D02*
G03*
X184853Y-155104I-162479J186095D01*
G01*
X128739Y-206052D02*
G03*
X159326Y-183308I-130291J207157D01*
G01*
X129553Y-207363D02*
G03*
X160350Y-184479I-131924J209700D01*
G01*
X130369Y-208672D02*
G03*
X161379Y-185654I-133372J212069D01*
G01*
X131187Y-209982D02*
G03*
X162413Y-186834I-134627J214239D01*
G01*
D02*
G03*
X189737Y-159180I-165933J191282D01*
G01*
X132834Y-212607D02*
G03*
X192194Y-161244I-135987J217144D01*
G01*
X133663Y-213925D02*
G03*
X193422Y-162279I-136221J218016D01*
G01*
X152346Y181540D02*
G03*
X88839Y219931I-155407J-185357D01*
G01*
X153346Y182740D02*
G03*
X89444Y221416I-156089J-185767D01*
G01*
X154349Y183945D02*
G03*
X123708Y205925I-158108J-188058D01*
G01*
X123708D02*
G03*
X90048Y222898I-124493J-205030D01*
G01*
X125361Y208674D02*
G03*
X91247Y225845I-124150J-204176D01*
G01*
X126190Y210048D02*
G03*
X91837Y227304I-123778J-203586D01*
G01*
X127020Y211420D02*
G03*
X92426Y228752I-123521J-203356D01*
G01*
X127848Y212789D02*
G03*
X55846Y241808I-125722J-208103D01*
G01*
X128672Y214151D02*
G03*
X93597Y231623I-124905J-206808D01*
G01*
X129489Y215507D02*
G03*
X94178Y233053I-126456J-210184D01*
G01*
X94178D02*
G03*
X56538Y244832I-94545J-236090D01*
G01*
X130299Y216851D02*
G03*
X94759Y234481I-128122J-213647D01*
G01*
D02*
G03*
X56883Y246353I-95634J-238757D01*
G01*
X163572Y194954D02*
G03*
X95337Y235911I-160221J-189610D01*
G01*
Y235911D02*
G03*
X57229Y247881I-96679J-241147D01*
G01*
X164603Y196175D02*
G03*
X131908Y219512I-159196J-188460D01*
G01*
X98232Y243134D02*
G03*
X58992Y255625I-100718J-248527D01*
G01*
X135890Y226121D02*
G03*
X59353Y257189I-138635J-231719D01*
G01*
X136685Y227452D02*
G03*
X59717Y258755I-139427J-232550D01*
G01*
X137482Y228790D02*
G03*
X60082Y260321I-140076J-233083D01*
G01*
X138283Y230134D02*
G03*
X60449Y261884I-140574J-233330D01*
G01*
X139086Y231485D02*
G03*
X101191Y250519I-142402J-236266D01*
G01*
X205582Y-123503D02*
G03*
X222528Y-89897I-205094J124494D01*
G01*
X206955Y-124327D02*
G03*
X224007Y-90499I-204777J124434D01*
G01*
X208330Y-125154D02*
G03*
X225478Y-91098I-204312J124225D01*
G01*
X209704Y-125983D02*
G03*
X226940Y-91690I-203730J123877D01*
G01*
X198297Y-166391D02*
G03*
X221823Y-133306I-193606J162577D01*
G01*
D02*
G03*
X239865Y-96926I-224994J134243D01*
G01*
X199497Y-167400D02*
G03*
X223142Y-134102I-196808J164798D01*
G01*
D02*
G03*
X241313Y-97505I-227461J135747D01*
G01*
X224464Y-134897D02*
G03*
X242769Y-98086I-229651J137158D01*
G01*
X201870Y-169404D02*
G03*
X225789Y-135691I-202689J169143D01*
G01*
X203049Y-170400D02*
G03*
X227119Y-136486I-205318J171215D01*
G01*
X204227Y-171393D02*
G03*
X228455Y-137283I-207708J173187D01*
G01*
X205406Y-172385D02*
G03*
X229797Y-138082I-209842J175035D01*
G01*
X206587Y-173376D02*
G03*
X231146Y-138885I-211706J176736D01*
G01*
X231146D02*
G03*
X250147Y-101041I-236138J142251D01*
G01*
X207772Y-174367D02*
G03*
X251637Y-101643I-212975J178047D01*
G01*
X208963Y-175361D02*
G03*
X253127Y-102247I-213626J178936D01*
G01*
X210160Y-176358D02*
G03*
X254617Y-102854I-213999J179630D01*
G01*
X230857Y-53297D02*
G03*
X236301Y-16541I-225271J52147D01*
G01*
X232386Y-53652D02*
G03*
X237841Y-16651I-228944J52653D01*
G01*
X235415Y-54360D02*
G03*
X240924Y-16866I-235838J53806D01*
G01*
X258363Y-59626D02*
G03*
X264667Y-18507I-253412J59889D01*
G01*
X259929Y-59991D02*
G03*
X266238Y-18618I-252543J59675D01*
G01*
X261494Y-60357D02*
G03*
X267796Y-18730I-252044J59452D01*
G01*
X263053Y-60723D02*
G03*
X268866Y23501I-257405J60078D01*
G01*
X264606Y-61086D02*
G03*
X270885Y-18957I-255657J59637D01*
G01*
X266149Y-61445D02*
G03*
X272422Y-19069I-259511J60070D01*
G01*
X267678Y-61800D02*
G03*
X273957Y-19179I-263525J60595D01*
G01*
X201094Y125658D02*
G03*
X178932Y155520I-196536J-122704D01*
G01*
X202425Y126487D02*
G03*
X180098Y156531I-199485J-124927D01*
G01*
X232892Y58088D02*
G03*
X221102Y93862I-233033J-56970D01*
G01*
X221102D02*
G03*
X181264Y157544I-216176J-90932D01*
G01*
X222573Y94481D02*
G03*
X205066Y128127I-214856J-90415D01*
G01*
D02*
G03*
X182431Y158561I-205151J-128949D01*
G01*
X224035Y95098D02*
G03*
X206380Y128942I-217720J-92052D01*
G01*
X206380D02*
G03*
X183600Y159581I-207808J-130716D01*
G01*
X225487Y95713D02*
G03*
X207690Y129757I-221046J-93877D01*
G01*
X207690Y129757D02*
G03*
X184772Y160606I-210310J-132304D01*
G01*
X226927Y96321D02*
G03*
X209000Y130573I-224334J-95601D01*
G01*
X240673Y60014D02*
G03*
X210309Y131392I-235673J-58105D01*
G01*
X229787Y97525D02*
G03*
X211621Y132214I-230567J-98641D01*
G01*
X231210Y98124D02*
G03*
X212936Y133041I-233447J-99937D01*
G01*
X232630Y98724D02*
G03*
X214255Y133871I-236130J-101072D01*
G01*
X234050Y99326D02*
G03*
X215580Y134706I-238589J-102044D01*
G01*
X235472Y99930D02*
G03*
X216911Y135546I-240800J-102852D01*
G01*
X236897Y100538D02*
G03*
X194333Y168960I-242147J-103185D01*
G01*
X238326Y101150D02*
G03*
X195548Y170012I-243140J-103323D01*
G01*
X239760Y101765D02*
G03*
X196763Y171062I-243849J-103316D01*
G01*
X222298Y138934D02*
G03*
X197976Y172109I-222477J-137602D01*
G01*
X255792Y63756D02*
G03*
X199184Y173153I-259645J-65011D01*
G01*
X257296Y64134D02*
G03*
X225023Y140635I-262901J-65850D01*
G01*
Y140635D02*
G03*
X200383Y174191I-221450J-136784D01*
G01*
X258804Y64516D02*
G03*
X226389Y141484I-263775J-65781D01*
G01*
D02*
G03*
X201571Y175222I-220677J-136328D01*
G01*
X260320Y64900D02*
G03*
X227753Y142331I-264341J-65616D01*
G01*
X261842Y65287D02*
G03*
X248512Y105513I-267663J-66381D01*
G01*
X205095Y178266D02*
G03*
X174616Y208069I-205778J-179961D01*
G01*
X206260Y179274D02*
G03*
X175610Y209262I-208189J-182130D01*
G01*
X207424Y180281D02*
G03*
X176608Y210460I-210442J-184065D01*
G01*
X-218888Y-92930D02*
G03*
X-201761Y-126074I213279J89213D01*
G01*
X-220365Y-93552D02*
G03*
X-203088Y-126899I212999J89203D01*
G01*
X-223305Y-94790D02*
G03*
X-205724Y-128535I216181J91182D01*
G01*
X-224763Y-95406D02*
G03*
X-207035Y-129350I219374J92969D01*
G01*
X-236184Y-100234D02*
G03*
X-193726Y-168433I241545J103058D01*
G01*
X-237611Y-100843D02*
G03*
X-194940Y-169486I242679J103273D01*
G01*
X-239042Y-101457D02*
G03*
X-196156Y-170537I243530J103337D01*
G01*
X-240480Y-102074D02*
G03*
X-197370Y-171586I244099J103262D01*
G01*
X-241925Y-102695D02*
G03*
X-222978Y-139359I247262J104547D01*
G01*
X-256543Y-63945D02*
G03*
X-224341Y-140210I262347J65844D01*
G01*
X-258049Y-64325D02*
G03*
X-225706Y-141060I263377J65829D01*
G01*
X-259561Y-64708D02*
G03*
X-227071Y-141908I264096J65710D01*
G01*
X-247774Y-105199D02*
G03*
X-228434Y-142753I248000J103956D01*
G01*
X-250732Y-106454D02*
G03*
X-231141Y-144434I246809J103266D01*
G01*
X-252214Y-107079D02*
G03*
X-232478Y-145268I245920J102902D01*
G01*
X-243695Y56279D02*
G03*
X-249318Y-21834I249328J-57206D01*
G01*
X-245212Y56624D02*
G03*
X-250919Y-21971I250226J-57674D01*
G01*
X-246734Y56970D02*
G03*
X-252518Y-22106I250818J-58095D01*
G01*
X-237703Y96059D02*
G03*
X-255704Y-22375I241435J-97280D01*
G01*
X-230471Y138483D02*
G03*
X-249403Y100741I235827J-141917D01*
G01*
X-127435Y-212105D02*
G03*
X-55673Y-241055I125090J206660D01*
G01*
X-130703Y-217520D02*
G03*
X-95048Y-235196I128958J215322D01*
G01*
X-164088Y-195565D02*
G03*
X-95626Y-236627I161062J190930D01*
G01*
X-132309Y-220173D02*
G03*
X-96204Y-238063I132263J221552D01*
G01*
X-133107Y-221493D02*
G03*
X-96781Y-239504I133854J224337D01*
G01*
X-136287Y-226786D02*
G03*
X-59535Y-257972I139049J232172D01*
G01*
X-137083Y-228120D02*
G03*
X-59899Y-259538I139770J232853D01*
G01*
X-137882Y-229461D02*
G03*
X-60265Y-261103I140344J233241D01*
G01*
X-174119Y-207476D02*
G03*
X-60996Y-264219I176563J210864D01*
G01*
X-175112Y-208665D02*
G03*
X-102096Y-252755I178732J213490D01*
G01*
X-176108Y-209860D02*
G03*
X-102702Y-254245I179475J213931D01*
G01*
X-184247Y154600D02*
G03*
X-206269Y123914I188201J-158302D01*
G01*
X-158815Y182723D02*
G03*
X-207643Y124740I162892J-186720D01*
G01*
X-159837Y183893D02*
G03*
X-209017Y125568I163469J-187736D01*
G01*
X-160863Y185066D02*
G03*
X-210391Y126398I163826J-188542D01*
G01*
X-161895Y186243D02*
G03*
X-211763Y127227I163978J-189136D01*
G01*
X-190351Y159695D02*
G03*
X-213130Y128055I188352J-159623D01*
G01*
X94327Y-222206D02*
G03*
X158306Y-182139I-92124J218223D01*
G01*
X134497Y-215248D02*
G03*
X194648Y-163314I-136278J218639D01*
G01*
X135336Y-216577D02*
G03*
X167644Y-192818I-137990J221486D01*
G01*
X100386Y-236540D02*
G03*
X168696Y-194030I-103127J241855D01*
G01*
X100996Y-237968D02*
G03*
X169749Y-195244I-103303J242919D01*
G01*
X101611Y-239401D02*
G03*
X170800Y-196459I-103330J243699D01*
G01*
X143805Y-230130D02*
G03*
X178014Y-204803I-138337J222617D01*
G01*
X144643Y-231476D02*
G03*
X179022Y-205969I-140710J225576D01*
G01*
X145475Y-232810D02*
G03*
X180029Y-207133I-143193J228790D01*
G01*
X222528Y-89897D02*
G03*
X239381Y-16759I-216799J88467D01*
G01*
X224007Y-90499D02*
G03*
X235415Y-54360I-215537J87911D01*
G01*
X225478Y-91098D02*
G03*
X236920Y-54713I-218601J88737D01*
G01*
X226940Y-91690D02*
G03*
X238424Y-55063I-222231J89786D01*
G01*
X228391Y-92279D02*
G03*
X239927Y-55412I-225794J90888D01*
G01*
X212447Y-127641D02*
G03*
X241431Y-55760I-207368J125400D01*
G01*
X231266Y-93451D02*
G03*
X242939Y-56106I-232400J93144D01*
G01*
X232696Y-94033D02*
G03*
X244453Y-56451I-235382J94267D01*
G01*
X234124Y-94614D02*
G03*
X245972Y-56797I-238115J95366D01*
G01*
X235554Y-95193D02*
G03*
X247498Y-57143I-240576J96423D01*
G01*
X236986Y-95771D02*
G03*
X249032Y-57490I-242748J97424D01*
G01*
X238422Y-96348D02*
G03*
X256686Y-17928I-244065J98179D01*
G01*
X225789Y-135691D02*
G03*
X263083Y-18392I-229520J137553D01*
G01*
X227119Y-136486D02*
G03*
X258364Y-59626I-232370J139242D01*
G01*
X228455Y-137283D02*
G03*
X259929Y-59991I-232977J139927D01*
G01*
X229797Y-138082D02*
G03*
X261494Y-60357I-233294J140464D01*
G01*
X235899Y20626D02*
G03*
X218149Y92618I-240840J-21198D01*
G01*
X237454Y20767D02*
G03*
X219626Y93241I-241648J-21011D01*
G01*
X195548Y170012D02*
G03*
X166644Y198598I-191520J-164743D01*
G01*
X196763Y171062D02*
G03*
X167652Y199795I-190981J-164377D01*
G01*
X199184Y173153D02*
G03*
X169654Y202165I-192696J-166599D01*
G01*
X200383Y174191D02*
G03*
X170649Y203344I-195148J-169300D01*
G01*
X201571Y175222D02*
G03*
X171641Y204522I-197889J-172213D01*
G01*
X227753Y142331D02*
G03*
X202752Y176244I-220256J-136206D01*
G01*
X202752D02*
G03*
X172633Y205701I-200599J-174982D01*
G01*
X229114Y143175D02*
G03*
X173624Y206883I-224824J-139803D01*
G01*
X270406Y23638D02*
G03*
X249991Y106140I-276649J-24680D01*
G01*
X230468Y144015D02*
G03*
X205095Y178266I-223291J-138887D01*
G01*
X271952Y23778D02*
G03*
X251473Y106766I-277695J-24504D01*
G01*
X231811Y144852D02*
G03*
X206260Y179274I-226381J-141342D01*
G01*
X273504Y23920D02*
G03*
X252956Y107391I-278409J-24271D01*
G01*
X233142Y145681D02*
G03*
X207424Y180281I-229585J-143791D01*
G01*
X-269636Y-23569D02*
G03*
X-229792Y-143595I273874J24289D01*
G01*
X240924Y-16866D02*
G03*
X222573Y94481I-244817J16836D01*
G01*
X-57403Y-248648D02*
G03*
X-17787Y-254685I58989J254097D01*
G01*
X22274Y-254512D02*
G03*
X99779Y-235117I-21208J249296D01*
G01*
X62176Y-249430D02*
G03*
X100386Y-236540I-63250J250583D01*
G01*
X62545Y-250927D02*
G03*
X100996Y-237968I-64077J253651D01*
G01*
X62915Y-252423D02*
G03*
X101611Y-239401I-64774J256489D01*
G01*
X-58813Y-254844D02*
G03*
X-18247Y-261091I59998J254767D01*
G01*
X63287Y-253919D02*
G03*
X102229Y-240841I-65340J259070D01*
G01*
X-59172Y-256407D02*
G03*
X-18363Y-262686I60014J254290D01*
G01*
X-59535Y-257972D02*
G03*
X-18478Y-264272I59927J253610D01*
G01*
X-59899Y-259538D02*
G03*
X-18590Y-265846I59736J252762D01*
G01*
X-60265Y-261103D02*
G03*
X-18702Y-267408I59499J252080D01*
G01*
X-60632Y-262664D02*
G03*
X23467Y-268482I60001J256575D01*
G01*
X65190Y-261461D02*
G03*
X105356Y-248143I-66394J267455D01*
G01*
X-60996Y-264219D02*
G03*
X-18928Y-270500I59556J254827D01*
G01*
X23604Y-270021D02*
G03*
X105983Y-249621I-24714J276335D01*
G01*
X-61356Y-265764D02*
G03*
X-19041Y-272038I59949J258499D01*
G01*
X23743Y-271565D02*
G03*
X106610Y-251103I-24554J277465D01*
G01*
X-61711Y-267297D02*
G03*
X-19152Y-273573I60458J262535D01*
G01*
X-88537Y-219188D02*
G03*
X-53209Y-230472I87953J214405D01*
G01*
X20591Y-235511D02*
G03*
X92462Y-217779I-21238J240593D01*
G01*
X-89141Y-220674D02*
G03*
X-53563Y-232005I87695J213831D01*
G01*
X20732Y-237064D02*
G03*
X93085Y-219257I-21062J241473D01*
G01*
X-89746Y-222158D02*
G03*
X-53918Y-233526I87533J213732D01*
G01*
X-53918D02*
G03*
X-16732Y-238996I53066J231609D01*
G01*
X20874Y-238624D02*
G03*
X93707Y-220733I-20846J242067D01*
G01*
X-90349Y-223638D02*
G03*
X-16839Y-240538I89060J219053D01*
G01*
X58379Y-234057D02*
G03*
X94327Y-222206I-56834J232832D01*
G01*
X-54625Y-236544D02*
G03*
X-16945Y-242085I54274J238226D01*
G01*
X58766Y-235614D02*
G03*
X94944Y-223671I-56652J232381D01*
G01*
X-54976Y-238048D02*
G03*
X-17049Y-243636I54915J241210D01*
G01*
X168696Y-194030D02*
G03*
X197087Y-165373I-165397J192250D01*
G01*
X169749Y-195244D02*
G03*
X198297Y-166391I-164880J191686D01*
G01*
X53386Y231240D02*
G03*
X16568Y236686I-52268J-226200D01*
G01*
X-92774Y218518D02*
G03*
X-125866Y201428I89265J-213428D01*
G01*
X53741Y232766D02*
G03*
X16678Y238226I-52788J-229842D01*
G01*
X-93396Y219996D02*
G03*
X-126693Y202757I89164J-212996D01*
G01*
X90048Y222898D02*
G03*
X16786Y239767I-88657J-217524D01*
G01*
X-58185Y233280D02*
G03*
X-94017Y221470I56925J-232980D01*
G01*
X56538Y244832D02*
G03*
X-21937Y250518I-57561J-250031D01*
G01*
X-60871Y244140D02*
G03*
X-98274Y231565I59369J-238498D01*
G01*
X56883Y246353D02*
G03*
X-22072Y252118I-57994J-250698D01*
G01*
X-61249Y245662D02*
G03*
X-98874Y232985I60627J-242114D01*
G01*
X57229Y247881D02*
G03*
X17732Y253886I-58770J-253682D01*
G01*
X-22207Y253716D02*
G03*
X-99476Y234406I20863J-247738D01*
G01*
X-61991Y248679D02*
G03*
X-100082Y235828I62788J-248973D01*
G01*
X-62360Y250179D02*
G03*
X-100691Y237253I63680J-252144D01*
G01*
X-62729Y251675D02*
G03*
X-101303Y238684I64442J-255100D01*
G01*
X-63100Y253171D02*
G03*
X-101919Y240120I65073J-257813D01*
G01*
X58992Y255625D02*
G03*
X18305Y261889I-60019J-254556D01*
G01*
X-63474Y254668D02*
G03*
X-102539Y241563I65576J-260256D01*
G01*
X59353Y257189D02*
G03*
X18421Y263480I-59984J-253974D01*
G01*
X59717Y258755D02*
G03*
X18535Y265061I-59845J-253204D01*
G01*
X60082Y260321D02*
G03*
X18646Y266629I-59613J-252345D01*
G01*
X60449Y261884D02*
G03*
X18758Y268184I-59416J-252094D01*
G01*
X-64997Y260700D02*
G03*
X-105042Y247405I66405J-266979D01*
G01*
X-65384Y262224D02*
G03*
X-105670Y248881I66362J-267850D01*
G01*
X61177Y264993D02*
G03*
X18985Y271270I-59731J-256556D01*
G01*
X-200426Y-125240D02*
G03*
X-151847Y-180942I198770J124316D01*
G01*
X-208345Y-130165D02*
G03*
X-185360Y-161121I211494J133028D01*
G01*
X-209654Y-130982D02*
G03*
X-186538Y-162153I213716J134332D01*
G01*
X-210965Y-131803D02*
G03*
X-128261Y-213471I214194J134201D01*
G01*
X-212278Y-132627D02*
G03*
X-160985Y-191887I216887J135899D01*
G01*
X-213595Y-133455D02*
G03*
X-162020Y-193115I217822J136180D01*
G01*
X-214917Y-134288D02*
G03*
X-163055Y-194342I218506J136279D01*
G01*
X-192516Y-167381D02*
G03*
X-164088Y-195565I192694J165926D01*
G01*
X-193726Y-168433D02*
G03*
X-165117Y-196783I192363J165514D01*
G01*
X-194940Y-169486D02*
G03*
X-166137Y-197995I191843J165015D01*
G01*
X-196156Y-170537D02*
G03*
X-167149Y-199198I191202J164501D01*
G01*
X-197370Y-171586D02*
G03*
X-168154Y-200391I190946J164455D01*
G01*
X-198581Y-172632D02*
G03*
X-135493Y-225457I195124J168947D01*
G01*
X-228434Y-142753D02*
G03*
X-173128Y-206291I223542J138741D01*
G01*
X-204511Y-177762D02*
G03*
X-174119Y-207476I204523J178792D01*
G01*
X-205678Y-178770D02*
G03*
X-175112Y-208665I207001J181074D01*
G01*
X-206842Y-179777D02*
G03*
X-176108Y-209860I209336J183128D01*
G01*
X-210391Y126398D02*
G03*
X-227667Y91985I203463J-123686D01*
G01*
X-211763Y127227D02*
G03*
X-229112Y92573I203450J-123527D01*
G01*
X-213130Y128055D02*
G03*
X-242185Y55933I208859J-126054D01*
G01*
X-214491Y128877D02*
G03*
X-231981Y93742I207603J-125264D01*
G01*
X59152Y-237172D02*
G03*
X95560Y-225125I-56484J231743D01*
G01*
X-55325Y-239551D02*
G03*
X-17152Y-245194I55566J243941D01*
G01*
X59536Y-238730D02*
G03*
X96170Y-226568I-56407J231170D01*
G01*
X-55673Y-241055D02*
G03*
X-17256Y-246758I56214J246398D01*
G01*
X-56019Y-242562D02*
G03*
X60300Y-241834I56620J246430D01*
G01*
Y-241834D02*
G03*
X97375Y-229431I-57486J233448D01*
G01*
X-56365Y-244074D02*
G03*
X21868Y-249718I57327J249582D01*
G01*
X60681Y-243374D02*
G03*
X97974Y-230854I-58708J236678D01*
G01*
X-56710Y-245592D02*
G03*
X22005Y-251319I57784J250402D01*
G01*
X61061Y-244903D02*
G03*
X98574Y-232275I-60012J240318D01*
G01*
X-57056Y-247116D02*
G03*
X22140Y-252918I58191J250920D01*
G01*
X61435Y-246420D02*
G03*
X99175Y-233695I-61212J243882D01*
G01*
X-96204Y-238063D02*
G03*
X-17899Y-256286I98011J243807D01*
G01*
X-96781Y-239504D02*
G03*
X-18013Y-257889I98650J244723D01*
G01*
X-97360Y-240951D02*
G03*
X-18129Y-259491I99194J245332D01*
G01*
X64039Y-256919D02*
G03*
X140422Y-224682I-65851J262634D01*
G01*
X64420Y-258427D02*
G03*
X141272Y-226047I-65808J263586D01*
G01*
X64804Y-259940D02*
G03*
X142119Y-227412I-65665J264228D01*
G01*
X23884Y-273115D02*
G03*
X107235Y-252585I-24334J278261D01*
G01*
X181241Y-152096D02*
G03*
X219559Y-88688I-185218J155210D01*
G01*
X182439Y-153095D02*
G03*
X221045Y-89293I-185686J155935D01*
G01*
X159326Y-183308D02*
G03*
X208330Y-125154I-163209J187254D01*
G01*
X160350Y-184479D02*
G03*
X209704Y-125983I-163674J188166D01*
G01*
X161379Y-185654D02*
G03*
X211077Y-126813I-163927J188866D01*
G01*
X189737Y-159180D02*
G03*
X212447Y-127641I-188535J159704D01*
G01*
X132008Y-211293D02*
G03*
X213811Y-128467I-134228J214379D01*
G01*
X192194Y-161244D02*
G03*
X215169Y-129286I-187624J159120D01*
G01*
X193422Y-162279D02*
G03*
X216516Y-130097I-187054J158612D01*
G01*
X194648Y-163314D02*
G03*
X217853Y-130904I-186911J158339D01*
G01*
X195870Y-164346D02*
G03*
X236986Y-95771I-191625J161507D01*
G01*
X197087Y-165373D02*
G03*
X220503Y-132509I-190419J160452D01*
G01*
X170800Y-196459D02*
G03*
X199497Y-167400I-164419J191074D01*
G01*
X171848Y-197673D02*
G03*
X224464Y-134897I-167100J193493D01*
G01*
X172892Y-198882D02*
G03*
X201870Y-169404I-166040J192206D01*
G01*
X173932Y-200084D02*
G03*
X203049Y-170400I-168578J194483D01*
G01*
X174966Y-201275D02*
G03*
X204227Y-171393I-171496J197204D01*
G01*
X175989Y-202457D02*
G03*
X205406Y-172385I-174305J199927D01*
G01*
X178014Y-204803D02*
G03*
X207772Y-174367I-179383J205154D01*
G01*
X179022Y-205969D02*
G03*
X208963Y-175361I-181609J207600D01*
G01*
X180029Y-207133D02*
G03*
X210160Y-176358I-183604J209894D01*
G01*
X-20803Y237843D02*
G03*
X-93396Y219996I20958J-241805D01*
G01*
X54449Y235792D02*
G03*
X16892Y241311I-53960J-236647D01*
G01*
D02*
G03*
X-94636Y222939I-16921J-244988D01*
G01*
X54800Y237296D02*
G03*
X16997Y242860I-54592J-239748D01*
G01*
X-58959Y236393D02*
G03*
X-95252Y224399I56565J-232083D01*
G01*
X55151Y238799D02*
G03*
X17101Y244414I-55240J-242608D01*
G01*
X-59344Y237951D02*
G03*
X-95866Y225848I56420J-231402D01*
G01*
X55499Y240302D02*
G03*
X17204Y245975I-55891J-245205D01*
G01*
X-59728Y239508D02*
G03*
X-96473Y227286I56479J-231162D01*
G01*
X55846Y241808D02*
G03*
X17307Y247543I-56533J-247518D01*
G01*
X-60110Y241060D02*
G03*
X-131597Y210637I58401J-236432D01*
G01*
X56192Y243317D02*
G03*
X-21799Y248918I-57083J-249054D01*
G01*
X-60490Y242606D02*
G03*
X-97675Y230143I58066J-234958D01*
G01*
X95915Y237345D02*
G03*
X-22341Y255307I-97146J-241310D01*
G01*
X165628Y197390D02*
G03*
X132708Y220833I-160951J-191180D01*
G01*
X96492Y238782D02*
G03*
X17956Y257087I-98342J-244304D01*
G01*
X166644Y198598D02*
G03*
X133505Y222153I-163134J-194420D01*
G01*
X97070Y240226D02*
G03*
X18071Y258690I-98934J-245065D01*
G01*
X167652Y199795D02*
G03*
X134301Y223472I-165351J-197583D01*
G01*
X97650Y241677D02*
G03*
X18188Y260292I-99428J-245524D01*
G01*
X169654Y202165D02*
G03*
X135890Y226121I-169669J-203368D01*
G01*
X-63850Y256168D02*
G03*
X-139997Y224000I65830J-262040D01*
G01*
X170649Y203344D02*
G03*
X136685Y227452I-171718J-205938D01*
G01*
X-64230Y257672D02*
G03*
X-140847Y225364I65843J-263149D01*
G01*
X171641Y204522D02*
G03*
X137483Y228790I-173661J-208266D01*
G01*
X-64612Y259183D02*
G03*
X-141696Y226730I65749J-263945D01*
G01*
X172633Y205701D02*
G03*
X138283Y230134I-175475J-210333D01*
G01*
X173624Y206883D02*
G03*
X139086Y231485I-177137J-212128D01*
G01*
X60814Y263442D02*
G03*
X-23535Y269251I-60160J-258261D01*
G01*
X174616Y208069D02*
G03*
X101794Y252009I-178287J-213164D01*
G01*
X-23673Y270792D02*
G03*
X-106297Y250361I24642J-276942D01*
G01*
X175610Y209262D02*
G03*
X102399Y253500I-179128J-213745D01*
G01*
X61534Y266532D02*
G03*
X19096Y272806I-60195J-260527D01*
G01*
X-23813Y272339D02*
G03*
X-106923Y251844I24451J-277905D01*
G01*
X176608Y210460D02*
G03*
X103006Y254989I-179772J-214051D01*
G01*
X61888Y268058D02*
G03*
X19206Y274341I-60736J-264505D01*
G01*
X-23955Y273893D02*
G03*
X-107547Y253326I24205J-278536D01*
G01*
X-221838Y-94172D02*
G03*
X-181848Y-158052I217519J91715D01*
G01*
X-181840Y152595D02*
G03*
X-220302Y88990I185481J-155594D01*
G01*
X-183041Y153596D02*
G03*
X-221787Y89595I185833J-156233D01*
G01*
X-191580Y160727D02*
G03*
X-214491Y128877I187893J-159329D01*
G01*
X-192808Y161761D02*
G03*
X-215844Y129692I187332J-158872D01*
G01*
X-194035Y162796D02*
G03*
X-217186Y130501I186881J-158409D01*
G01*
X-195259Y163830D02*
G03*
X-236269Y95482I190257J-160633D01*
G01*
X-196479Y164860D02*
G03*
X-219843Y132109I189047J-159565D01*
G01*
X-197693Y165883D02*
G03*
X-221163Y132908I191973J-161478D01*
G01*
X-198899Y166896D02*
G03*
X-222483Y133704I195226J-163689D01*
G01*
X-200093Y167903D02*
G03*
X-223803Y134500I198348J-165902D01*
G01*
X-172371Y198278D02*
G03*
X-225126Y135294I168312J-194562D01*
G01*
X-207179Y173871D02*
G03*
X-263831Y60905I210798J-176401D01*
G01*
X-208367Y174864D02*
G03*
X-252382Y101945I213336J-178516D01*
G01*
X-209561Y175859D02*
G03*
X-253873Y102550I213846J-179307D01*
G01*
X-210761Y176857D02*
G03*
X-255361Y103157I214086J-179903D01*
G01*
X59919Y-240285D02*
G03*
X131187Y-209982I-57818J234939D01*
G01*
X63662Y-255417D02*
G03*
X172892Y-198882I-65049J259470D01*
G01*
X142964Y-228774D02*
G03*
X206587Y-173376I-139263J224171D01*
G01*
X182431Y158561D02*
G03*
X90649Y224375I-185109J-161239D01*
G01*
X183600Y159581D02*
G03*
X125361Y208674I-187502J-163346D01*
G01*
X184772Y160606D02*
G03*
X126190Y210048I-188361J-163757D01*
G01*
X185948Y161636D02*
G03*
X127020Y211420I-189007J-163958D01*
G01*
X187130Y162672D02*
G03*
X159437Y190044I-191486J-166033D01*
G01*
X211621Y132214D02*
G03*
X160468Y191272I-216326J-135687D01*
G01*
X212936Y133041D02*
G03*
X161503Y192501I-217385J-136063D01*
G01*
X214255Y133871D02*
G03*
X162538Y193729I-218195J-136251D01*
G01*
X191912Y166855D02*
G03*
X163572Y194954I-192783J-166090D01*
G01*
X193120Y167907D02*
G03*
X164603Y196175I-192553J-165733D01*
G01*
X194333Y168960D02*
G03*
X165628Y197390I-192126J-165274D01*
G01*
X197976Y172109D02*
G03*
X135095Y224795I-194017J-167695D01*
G01*
X-94017Y221470D02*
G03*
X-157798Y181556I91317J-216836D01*
G01*
D15*
X-232393Y-109D02*
G03*
X-235322Y-7180I7071J-7071D01*
G01*
X-282388Y-24683D02*
X-274542D01*
Y-24019D01*
X-232393Y-109D02*
X-232283Y0D01*
X-235322Y-20588D02*
Y-7180D01*
Y-20588D02*
Y-20588D01*
D16*
X-282384Y24728D02*
D03*
X-279154Y49245D02*
D03*
X-273800Y73388D02*
D03*
X-266362Y96972D02*
D03*
X-256897Y119818D02*
D03*
X-245476Y141752D02*
D03*
X-232188Y162607D02*
D03*
X-217132Y182225D02*
D03*
X-200424Y200455D02*
D03*
X-182190Y217161D02*
D03*
X-162570Y232213D02*
D03*
X-141713Y245499D02*
D03*
X-119777Y256916D02*
D03*
X-96930Y266377D02*
D03*
X-73344Y273812D02*
D03*
X-49201Y279162D02*
D03*
X-24683Y282388D02*
D03*
X22Y283465D02*
D03*
X24728Y282384D02*
D03*
X49245Y279154D02*
D03*
X73388Y273800D02*
D03*
X96972Y266362D02*
D03*
X119818Y256897D02*
D03*
X141752Y245476D02*
D03*
X162607Y232188D02*
D03*
X182225Y217132D02*
D03*
X200455Y200424D02*
D03*
X217161Y182190D02*
D03*
X232213Y162570D02*
D03*
X245499Y141713D02*
D03*
X256916Y119777D02*
D03*
X266377Y96930D02*
D03*
X273812Y73344D02*
D03*
X279162Y49201D02*
D03*
X282388Y24683D02*
D03*
X283465Y-22D02*
D03*
X282384Y-24728D02*
D03*
X279154Y-49245D02*
D03*
X273800Y-73388D02*
D03*
X266362Y-96972D02*
D03*
X256897Y-119818D02*
D03*
X245476Y-141752D02*
D03*
X232188Y-162607D02*
D03*
X217132Y-182225D02*
D03*
X200424Y-200455D02*
D03*
X182190Y-217161D02*
D03*
X162570Y-232213D02*
D03*
X141713Y-245499D02*
D03*
X119777Y-256916D02*
D03*
X96930Y-266377D02*
D03*
X73344Y-273812D02*
D03*
X49201Y-279162D02*
D03*
X24683Y-282388D02*
D03*
X-22Y-283465D02*
D03*
X-24728Y-282384D02*
D03*
X-49245Y-279154D02*
D03*
X-73388Y-273800D02*
D03*
X-96972Y-266362D02*
D03*
X-119818Y-256897D02*
D03*
X-141752Y-245476D02*
D03*
X-162607Y-232188D02*
D03*
X-182225Y-217132D02*
D03*
X-200455Y-200424D02*
D03*
X-217161Y-182190D02*
D03*
X-232213Y-162570D02*
D03*
X-245499Y-141713D02*
D03*
X-256916Y-119777D02*
D03*
X-266377Y-96930D02*
D03*
X-273812Y-73344D02*
D03*
X-279162Y-49201D02*
D03*
X-283465Y0D02*
D03*
X-232283D02*
D03*
D17*
X-282388Y-24683D02*
D03*
D18*
X-283465Y22D02*
D03*
M02*
