G04*
G04 #@! TF.GenerationSoftware,Altium Limited,Altium Designer,19.1.6 (110)*
G04*
G04 Layer_Color=8388736*
%FSLAX25Y25*%
%MOIN*%
G70*
G01*
G75*
%ADD10C,0.08268*%
%ADD11P,0.11692X4X50.0*%
%ADD12R,0.08268X0.08268*%
%ADD13C,0.00394*%
D10*
X-282384Y24728D02*
D03*
X-279154Y49245D02*
D03*
X-273800Y73388D02*
D03*
X-266362Y96972D02*
D03*
X-256897Y119818D02*
D03*
X-245476Y141752D02*
D03*
X-232188Y162607D02*
D03*
X-217132Y182225D02*
D03*
X-200424Y200455D02*
D03*
X-182190Y217161D02*
D03*
X-162570Y232213D02*
D03*
X-141713Y245499D02*
D03*
X-119777Y256916D02*
D03*
X-96930Y266377D02*
D03*
X-73344Y273812D02*
D03*
X-49201Y279162D02*
D03*
X-24683Y282388D02*
D03*
X22Y283465D02*
D03*
X24728Y282384D02*
D03*
X49245Y279154D02*
D03*
X73388Y273800D02*
D03*
X96972Y266362D02*
D03*
X119818Y256897D02*
D03*
X141752Y245476D02*
D03*
X162607Y232188D02*
D03*
X182225Y217132D02*
D03*
X200455Y200424D02*
D03*
X217161Y182190D02*
D03*
X232213Y162570D02*
D03*
X245499Y141713D02*
D03*
X256916Y119777D02*
D03*
X266377Y96930D02*
D03*
X273812Y73344D02*
D03*
X279162Y49201D02*
D03*
X282388Y24683D02*
D03*
X283465Y-22D02*
D03*
X282384Y-24728D02*
D03*
X279154Y-49245D02*
D03*
X273800Y-73388D02*
D03*
X266362Y-96972D02*
D03*
X256897Y-119818D02*
D03*
X245476Y-141752D02*
D03*
X232188Y-162607D02*
D03*
X217132Y-182225D02*
D03*
X200424Y-200455D02*
D03*
X182190Y-217161D02*
D03*
X162570Y-232213D02*
D03*
X141713Y-245499D02*
D03*
X119777Y-256916D02*
D03*
X96930Y-266377D02*
D03*
X73344Y-273812D02*
D03*
X49201Y-279162D02*
D03*
X24683Y-282388D02*
D03*
X-22Y-283465D02*
D03*
X-24728Y-282384D02*
D03*
X-49245Y-279154D02*
D03*
X-73388Y-273800D02*
D03*
X-96972Y-266362D02*
D03*
X-119818Y-256897D02*
D03*
X-141752Y-245476D02*
D03*
X-162607Y-232188D02*
D03*
X-182225Y-217132D02*
D03*
X-200455Y-200424D02*
D03*
X-217161Y-182190D02*
D03*
X-232213Y-162570D02*
D03*
X-245499Y-141713D02*
D03*
X-256916Y-119777D02*
D03*
X-266377Y-96930D02*
D03*
X-273812Y-73344D02*
D03*
X-279162Y-49201D02*
D03*
X-283465Y0D02*
D03*
D11*
X-282388Y-24683D02*
D03*
D12*
X-283465Y22D02*
D03*
D13*
X0Y0D02*
D03*
M02*
