M48
;Layer_Color=9474304
;FILE_FORMAT=2:5
INCH,LZ
;TYPE=PLATED
T1F00S00C0.03937
;TYPE=NON_PLATED
T2F00S00C4.48819
%
T01
X-0217161Y-018219
X-0200455Y-0200424
X-0182225Y-0217132
X-0162607Y-0232188
X-0141752Y-0245476
X-0119818Y-0256897
X-0096972Y-0266362
X-0073388Y-02738
X-0049245Y-0279154
X-0024728Y-0282384
X-0000022Y-0283465
X0024683Y-0282388
X0049201Y-0279162
X0073344Y-0273812
X009693Y-0266377
X0119777Y-0256916
X0141713Y-0245499
X016257Y-0232213
X018219Y-0217161
X0200424Y-0200455
X0217132Y-0182225
X0256897Y-0119818
X0266362Y-0096972
X02738Y-0073388
X0279154Y-0049245
X0282384Y-0024728
X0245476Y-0141752
X0232188Y-0162607
X-0232213Y-016257
X-0245499Y-0141713
X-0256916Y-0119777
X-0266377Y-009693
X-0273812Y-0073344
X-0279162Y-0049201
X-0282388Y-0024683
X-0283465Y0
Y0000022
X-0282384Y0024728
X-0279154Y0049245
X-02738Y0073388
X-0266362Y0096972
X-0256897Y0119818
X-0232283Y0
X0283465Y-0000022
X0282388Y0024683
X0279162Y0049201
X0273812Y0073344
X0266377Y009693
X0256916Y0119777
X0245499Y0141713
X0232213Y016257
X0217161Y018219
X0200455Y0200424
X0182225Y0217132
X0162607Y0232188
X0141752Y0245476
X0119818Y0256897
X0096972Y0266362
X0073388Y02738
X0049245Y0279154
X0024728Y0282384
X0000022Y0283465
X-0024683Y0282388
X-0049201Y0279162
X-0073344Y0273812
X-009693Y0266377
X-0119777Y0256916
X-0141713Y0245499
X-016257Y0232213
X-018219Y0217161
X-0200424Y0200455
X-0217132Y0182225
X-0232188Y0162607
X-0245476Y0141752
T02
X0Y0
M30
