G04*
G04 #@! TF.GenerationSoftware,Altium Limited,Altium Designer,19.1.5 (86)*
G04*
G04 Layer_Color=65535*
%FSLAX25Y25*%
%MOIN*%
G70*
G01*
G75*
G36*
X-39621Y21329D02*
X-43120D01*
X-56561Y41434D01*
Y21329D01*
X-59810D01*
Y46961D01*
X-56339D01*
X-42870Y26827D01*
Y46961D01*
X-39621D01*
Y21329D01*
D02*
G37*
G36*
X108060Y43934D02*
X92897D01*
Y36103D01*
X107088D01*
Y33076D01*
X92897D01*
Y24356D01*
X108643D01*
Y21329D01*
X89509D01*
Y46961D01*
X108060D01*
Y43934D01*
D02*
G37*
G36*
X85927D02*
X77485D01*
Y21329D01*
X74097D01*
Y43934D01*
X65655D01*
Y46961D01*
X85927D01*
Y43934D01*
D02*
G37*
G36*
X64877Y21329D02*
X61017D01*
X58046Y29077D01*
X47271D01*
X44494Y21329D01*
X40912D01*
X50715Y46961D01*
X54380D01*
X64877Y21329D01*
D02*
G37*
G36*
X27027Y24356D02*
X39662D01*
Y21329D01*
X23639D01*
Y46961D01*
X27027D01*
Y24356D01*
D02*
G37*
G36*
X11004Y46933D02*
X11642Y46905D01*
X12281Y46850D01*
X12892Y46794D01*
X13197Y46766D01*
X13447Y46711D01*
X13475D01*
X13531Y46683D01*
X13642D01*
X13753Y46655D01*
X13919Y46600D01*
X14114Y46572D01*
X14558Y46433D01*
X15058Y46266D01*
X15586Y46044D01*
X16113Y45794D01*
X16613Y45489D01*
X16641D01*
X16669Y45461D01*
X16835Y45322D01*
X17057Y45128D01*
X17363Y44850D01*
X17668Y44517D01*
X18029Y44072D01*
X18363Y43600D01*
X18668Y43017D01*
Y42990D01*
X18696Y42934D01*
X18751Y42851D01*
X18807Y42739D01*
X18862Y42601D01*
X18918Y42406D01*
X19085Y41990D01*
X19223Y41462D01*
X19362Y40879D01*
X19446Y40213D01*
X19473Y39518D01*
Y39490D01*
Y39379D01*
Y39213D01*
X19446Y38963D01*
X19418Y38685D01*
X19362Y38380D01*
X19307Y38019D01*
X19223Y37602D01*
X19112Y37185D01*
X18974Y36741D01*
X18807Y36297D01*
X18585Y35825D01*
X18363Y35353D01*
X18085Y34881D01*
X17752Y34436D01*
X17391Y33992D01*
X17363Y33964D01*
X17280Y33909D01*
X17168Y33798D01*
X16974Y33631D01*
X16752Y33464D01*
X16446Y33270D01*
X16085Y33076D01*
X15669Y32881D01*
X15169Y32659D01*
X14641Y32465D01*
X14003Y32270D01*
X13336Y32104D01*
X12559Y31965D01*
X11726Y31854D01*
X10837Y31770D01*
X9837Y31743D01*
X3283D01*
Y21329D01*
X-104D01*
Y46961D01*
X10448D01*
X11004Y46933D01*
D02*
G37*
G36*
X-15295Y43934D02*
X-30457D01*
Y36103D01*
X-16267D01*
Y33076D01*
X-30457D01*
Y24356D01*
X-14712D01*
Y21329D01*
X-33845D01*
Y46961D01*
X-15295D01*
Y43934D01*
D02*
G37*
G36*
X-91690D02*
X-106103Y26161D01*
X-107630Y24356D01*
X-91273D01*
Y21329D01*
X-111518D01*
Y24467D01*
X-98410Y40851D01*
X-98383Y40879D01*
X-98355Y40935D01*
X-98271Y41018D01*
X-98160Y41157D01*
X-98049Y41295D01*
X-97910Y41490D01*
X-97549Y41906D01*
X-97161Y42379D01*
X-96688Y42906D01*
X-96216Y43434D01*
X-95744Y43934D01*
X-110046D01*
Y46961D01*
X-91690D01*
Y43934D01*
D02*
G37*
G36*
X-75805Y47377D02*
X-75472Y47349D01*
X-75111Y47322D01*
X-74722Y47266D01*
X-74278Y47183D01*
X-73778Y47099D01*
X-73278Y46988D01*
X-72751Y46850D01*
X-72195Y46683D01*
X-71640Y46488D01*
X-71085Y46266D01*
X-70557Y46016D01*
X-70002Y45711D01*
X-69974Y45683D01*
X-69863Y45628D01*
X-69724Y45544D01*
X-69529Y45406D01*
X-69279Y45239D01*
X-69030Y45017D01*
X-68724Y44767D01*
X-68391Y44489D01*
X-68030Y44156D01*
X-67669Y43795D01*
X-67308Y43406D01*
X-66947Y42990D01*
X-66614Y42545D01*
X-66253Y42045D01*
X-65947Y41518D01*
X-65642Y40962D01*
X-65614Y40935D01*
X-65586Y40823D01*
X-65503Y40657D01*
X-65420Y40435D01*
X-65281Y40157D01*
X-65170Y39796D01*
X-65031Y39407D01*
X-64892Y38963D01*
X-64753Y38491D01*
X-64614Y37963D01*
X-64475Y37380D01*
X-64364Y36797D01*
X-64281Y36158D01*
X-64198Y35492D01*
X-64170Y34825D01*
X-64142Y34103D01*
Y34047D01*
Y33936D01*
Y33714D01*
X-64170Y33437D01*
X-64198Y33103D01*
X-64225Y32715D01*
X-64281Y32270D01*
X-64337Y31770D01*
X-64420Y31243D01*
X-64531Y30687D01*
X-64642Y30104D01*
X-64808Y29521D01*
X-65003Y28910D01*
X-65197Y28327D01*
X-65447Y27716D01*
X-65725Y27133D01*
X-65753Y27105D01*
X-65808Y26994D01*
X-65892Y26827D01*
X-66003Y26633D01*
X-66169Y26383D01*
X-66364Y26077D01*
X-66614Y25744D01*
X-66864Y25383D01*
X-67169Y25022D01*
X-67502Y24633D01*
X-67891Y24245D01*
X-68280Y23856D01*
X-68696Y23495D01*
X-69168Y23134D01*
X-69668Y22773D01*
X-70196Y22467D01*
X-70224Y22440D01*
X-70335Y22412D01*
X-70474Y22329D01*
X-70696Y22218D01*
X-70973Y22106D01*
X-71279Y21968D01*
X-71640Y21829D01*
X-72057Y21690D01*
X-72501Y21551D01*
X-72973Y21412D01*
X-73501Y21273D01*
X-74028Y21162D01*
X-75195Y20968D01*
X-75805Y20940D01*
X-76416Y20912D01*
X-76777D01*
X-77027Y20940D01*
X-77333Y20968D01*
X-77722Y20996D01*
X-78110Y21051D01*
X-78583Y21135D01*
X-79054Y21218D01*
X-79582Y21329D01*
X-80110Y21468D01*
X-80665Y21634D01*
X-81221Y21829D01*
X-81776Y22079D01*
X-82331Y22329D01*
X-82887Y22634D01*
X-82915Y22662D01*
X-82998Y22717D01*
X-83165Y22828D01*
X-83359Y22967D01*
X-83581Y23134D01*
X-83859Y23356D01*
X-84164Y23606D01*
X-84497Y23884D01*
X-84859Y24217D01*
X-85192Y24578D01*
X-85553Y24967D01*
X-85914Y25383D01*
X-86275Y25855D01*
X-86608Y26327D01*
X-86914Y26855D01*
X-87219Y27411D01*
X-87247Y27438D01*
X-87274Y27549D01*
X-87358Y27716D01*
X-87441Y27938D01*
X-87552Y28216D01*
X-87663Y28549D01*
X-87802Y28910D01*
X-87941Y29354D01*
X-88080Y29799D01*
X-88219Y30299D01*
X-88330Y30826D01*
X-88441Y31382D01*
X-88607Y32548D01*
X-88635Y33187D01*
X-88663Y33798D01*
Y33825D01*
Y33881D01*
Y33964D01*
Y34075D01*
X-88635Y34242D01*
Y34409D01*
X-88607Y34853D01*
X-88552Y35381D01*
X-88469Y36019D01*
X-88385Y36686D01*
X-88246Y37435D01*
X-88052Y38241D01*
X-87830Y39046D01*
X-87552Y39879D01*
X-87219Y40712D01*
X-86830Y41545D01*
X-86386Y42323D01*
X-85858Y43101D01*
X-85247Y43795D01*
X-85220Y43823D01*
X-85081Y43961D01*
X-84886Y44128D01*
X-84636Y44350D01*
X-84275Y44628D01*
X-83886Y44933D01*
X-83414Y45267D01*
X-82859Y45600D01*
X-82248Y45933D01*
X-81582Y46266D01*
X-80860Y46572D01*
X-80054Y46850D01*
X-79221Y47072D01*
X-78333Y47238D01*
X-77388Y47377D01*
X-76389Y47405D01*
X-76055D01*
X-75805Y47377D01*
D02*
G37*
G36*
X798Y-18638D02*
X-2340D01*
Y-15055D01*
X798D01*
Y-18638D01*
D02*
G37*
G36*
X14739Y-21720D02*
X14905D01*
X15322Y-21776D01*
X15794Y-21831D01*
X16321Y-21942D01*
X16849Y-22109D01*
X17377Y-22303D01*
X17405D01*
X17432Y-22331D01*
X17599Y-22414D01*
X17849Y-22553D01*
X18182Y-22720D01*
X18515Y-22970D01*
X18876Y-23220D01*
X19210Y-23525D01*
X19487Y-23886D01*
X19515Y-23942D01*
X19598Y-24053D01*
X19710Y-24275D01*
X19876Y-24553D01*
X20043Y-24886D01*
X20181Y-25275D01*
X20348Y-25719D01*
X20459Y-26219D01*
Y-26247D01*
X20487Y-26386D01*
X20515Y-26608D01*
X20570Y-26913D01*
X20598Y-27330D01*
Y-27580D01*
X20626Y-27857D01*
Y-28163D01*
X20654Y-28524D01*
Y-28885D01*
Y-29274D01*
Y-40687D01*
X17516D01*
Y-29385D01*
Y-29357D01*
Y-29301D01*
Y-29190D01*
Y-29079D01*
Y-28913D01*
X17488Y-28718D01*
X17460Y-28302D01*
X17432Y-27830D01*
X17349Y-27358D01*
X17266Y-26913D01*
X17127Y-26524D01*
X17099Y-26469D01*
X17043Y-26358D01*
X16960Y-26191D01*
X16821Y-25969D01*
X16655Y-25719D01*
X16433Y-25469D01*
X16155Y-25219D01*
X15822Y-24997D01*
X15794Y-24969D01*
X15655Y-24914D01*
X15461Y-24803D01*
X15211Y-24692D01*
X14877Y-24608D01*
X14516Y-24497D01*
X14100Y-24442D01*
X13628Y-24414D01*
X13433D01*
X13295Y-24442D01*
X13128D01*
X12906Y-24469D01*
X12434Y-24580D01*
X11906Y-24719D01*
X11323Y-24941D01*
X10740Y-25275D01*
X10434Y-25469D01*
X10157Y-25691D01*
X10129Y-25719D01*
X10101Y-25747D01*
X10018Y-25830D01*
X9934Y-25941D01*
X9823Y-26108D01*
X9712Y-26274D01*
X9573Y-26497D01*
X9435Y-26774D01*
X9296Y-27080D01*
X9157Y-27441D01*
X9046Y-27830D01*
X8935Y-28274D01*
X8851Y-28774D01*
X8768Y-29301D01*
X8740Y-29912D01*
X8713Y-30551D01*
Y-40687D01*
X5574D01*
Y-22109D01*
X8407D01*
Y-24775D01*
X8435Y-24747D01*
X8490Y-24636D01*
X8629Y-24497D01*
X8796Y-24303D01*
X8990Y-24053D01*
X9240Y-23803D01*
X9546Y-23525D01*
X9907Y-23220D01*
X10295Y-22942D01*
X10740Y-22664D01*
X11212Y-22414D01*
X11739Y-22164D01*
X12323Y-21970D01*
X12934Y-21831D01*
X13600Y-21720D01*
X14294Y-21692D01*
X14572D01*
X14739Y-21720D01*
D02*
G37*
G36*
X134872D02*
X135122Y-21748D01*
X135371Y-21776D01*
X135677Y-21831D01*
X136010Y-21887D01*
X136677Y-22081D01*
X137399Y-22359D01*
X137732Y-22525D01*
X138065Y-22720D01*
X138398Y-22970D01*
X138676Y-23247D01*
X138704Y-23275D01*
X138732Y-23331D01*
X138815Y-23414D01*
X138898Y-23525D01*
X139037Y-23692D01*
X139148Y-23886D01*
X139287Y-24136D01*
X139426Y-24414D01*
X139565Y-24719D01*
X139704Y-25053D01*
X139842Y-25441D01*
X139954Y-25858D01*
X140037Y-26330D01*
X140120Y-26830D01*
X140148Y-27358D01*
X140176Y-27941D01*
Y-40687D01*
X137038D01*
Y-28996D01*
Y-28968D01*
Y-28913D01*
Y-28802D01*
Y-28690D01*
X137010Y-28357D01*
Y-27941D01*
X136954Y-27496D01*
X136899Y-27052D01*
X136843Y-26636D01*
X136732Y-26274D01*
Y-26247D01*
X136677Y-26136D01*
X136593Y-25997D01*
X136482Y-25802D01*
X136316Y-25580D01*
X136149Y-25358D01*
X135899Y-25136D01*
X135621Y-24941D01*
X135594Y-24914D01*
X135483Y-24858D01*
X135316Y-24775D01*
X135094Y-24664D01*
X134816Y-24580D01*
X134483Y-24497D01*
X134122Y-24442D01*
X133733Y-24414D01*
X133539D01*
X133400Y-24442D01*
X133233D01*
X133039Y-24469D01*
X132595Y-24580D01*
X132067Y-24719D01*
X131511Y-24969D01*
X130984Y-25275D01*
X130706Y-25497D01*
X130456Y-25719D01*
Y-25747D01*
X130401Y-25775D01*
X130345Y-25858D01*
X130262Y-25969D01*
X130151Y-26108D01*
X130040Y-26274D01*
X129929Y-26497D01*
X129817Y-26719D01*
X129679Y-26996D01*
X129568Y-27302D01*
X129456Y-27663D01*
X129345Y-28024D01*
X129262Y-28440D01*
X129207Y-28913D01*
X129179Y-29385D01*
X129151Y-29912D01*
Y-40687D01*
X126013D01*
Y-28635D01*
Y-28607D01*
Y-28552D01*
Y-28440D01*
Y-28274D01*
X125985Y-28107D01*
Y-27913D01*
X125930Y-27441D01*
X125819Y-26941D01*
X125680Y-26413D01*
X125485Y-25914D01*
X125235Y-25469D01*
X125208Y-25414D01*
X125097Y-25302D01*
X124902Y-25136D01*
X124652Y-24941D01*
X124291Y-24747D01*
X123875Y-24580D01*
X123347Y-24469D01*
X122736Y-24414D01*
X122514D01*
X122264Y-24442D01*
X121931Y-24497D01*
X121542Y-24580D01*
X121125Y-24719D01*
X120709Y-24886D01*
X120265Y-25136D01*
X120209Y-25164D01*
X120070Y-25275D01*
X119876Y-25414D01*
X119654Y-25664D01*
X119376Y-25941D01*
X119098Y-26302D01*
X118848Y-26719D01*
X118626Y-27191D01*
Y-27219D01*
X118598Y-27246D01*
X118571Y-27330D01*
X118543Y-27441D01*
X118515Y-27580D01*
X118460Y-27746D01*
X118432Y-27941D01*
X118376Y-28163D01*
X118321Y-28440D01*
X118293Y-28718D01*
X118237Y-29024D01*
X118210Y-29385D01*
X118182Y-29746D01*
X118154Y-30162D01*
X118126Y-30579D01*
Y-31051D01*
Y-40687D01*
X114988D01*
Y-22109D01*
X117793D01*
Y-24692D01*
X117849Y-24664D01*
X117960Y-24497D01*
X118154Y-24247D01*
X118432Y-23942D01*
X118765Y-23581D01*
X119154Y-23220D01*
X119598Y-22859D01*
X120126Y-22525D01*
X120153D01*
X120181Y-22498D01*
X120265Y-22442D01*
X120376Y-22387D01*
X120515Y-22331D01*
X120681Y-22248D01*
X121070Y-22109D01*
X121570Y-21942D01*
X122125Y-21831D01*
X122764Y-21720D01*
X123430Y-21692D01*
X123764D01*
X123958Y-21720D01*
X124152Y-21748D01*
X124625Y-21803D01*
X125152Y-21915D01*
X125707Y-22053D01*
X126263Y-22276D01*
X126791Y-22553D01*
X126818D01*
X126846Y-22581D01*
X127013Y-22720D01*
X127235Y-22914D01*
X127540Y-23164D01*
X127846Y-23525D01*
X128151Y-23914D01*
X128429Y-24386D01*
X128679Y-24941D01*
X128707Y-24914D01*
X128790Y-24803D01*
X128901Y-24636D01*
X129095Y-24442D01*
X129290Y-24192D01*
X129568Y-23914D01*
X129873Y-23608D01*
X130234Y-23303D01*
X130623Y-23025D01*
X131067Y-22720D01*
X131539Y-22442D01*
X132039Y-22192D01*
X132595Y-21998D01*
X133178Y-21831D01*
X133789Y-21720D01*
X134427Y-21692D01*
X134705D01*
X134872Y-21720D01*
D02*
G37*
G36*
X105047D02*
X105297Y-21748D01*
X105546Y-21776D01*
X105852Y-21831D01*
X106185Y-21887D01*
X106852Y-22081D01*
X107574Y-22359D01*
X107907Y-22525D01*
X108240Y-22720D01*
X108573Y-22970D01*
X108851Y-23247D01*
X108879Y-23275D01*
X108907Y-23331D01*
X108990Y-23414D01*
X109073Y-23525D01*
X109212Y-23692D01*
X109323Y-23886D01*
X109462Y-24136D01*
X109601Y-24414D01*
X109740Y-24719D01*
X109879Y-25053D01*
X110018Y-25441D01*
X110129Y-25858D01*
X110212Y-26330D01*
X110295Y-26830D01*
X110323Y-27358D01*
X110351Y-27941D01*
Y-40687D01*
X107213D01*
Y-28996D01*
Y-28968D01*
Y-28913D01*
Y-28802D01*
Y-28690D01*
X107185Y-28357D01*
Y-27941D01*
X107129Y-27496D01*
X107074Y-27052D01*
X107018Y-26636D01*
X106907Y-26274D01*
Y-26247D01*
X106852Y-26136D01*
X106768Y-25997D01*
X106657Y-25802D01*
X106491Y-25580D01*
X106324Y-25358D01*
X106074Y-25136D01*
X105797Y-24941D01*
X105769Y-24914D01*
X105658Y-24858D01*
X105491Y-24775D01*
X105269Y-24664D01*
X104991Y-24580D01*
X104658Y-24497D01*
X104297Y-24442D01*
X103908Y-24414D01*
X103714D01*
X103575Y-24442D01*
X103408D01*
X103214Y-24469D01*
X102769Y-24580D01*
X102242Y-24719D01*
X101687Y-24969D01*
X101159Y-25275D01*
X100881Y-25497D01*
X100631Y-25719D01*
Y-25747D01*
X100576Y-25775D01*
X100520Y-25858D01*
X100437Y-25969D01*
X100326Y-26108D01*
X100215Y-26274D01*
X100104Y-26497D01*
X99993Y-26719D01*
X99854Y-26996D01*
X99743Y-27302D01*
X99632Y-27663D01*
X99520Y-28024D01*
X99437Y-28440D01*
X99382Y-28913D01*
X99354Y-29385D01*
X99326Y-29912D01*
Y-40687D01*
X96188D01*
Y-28635D01*
Y-28607D01*
Y-28552D01*
Y-28440D01*
Y-28274D01*
X96160Y-28107D01*
Y-27913D01*
X96105Y-27441D01*
X95994Y-26941D01*
X95855Y-26413D01*
X95660Y-25914D01*
X95411Y-25469D01*
X95383Y-25414D01*
X95272Y-25302D01*
X95077Y-25136D01*
X94827Y-24941D01*
X94466Y-24747D01*
X94050Y-24580D01*
X93522Y-24469D01*
X92911Y-24414D01*
X92689D01*
X92439Y-24442D01*
X92106Y-24497D01*
X91717Y-24580D01*
X91300Y-24719D01*
X90884Y-24886D01*
X90440Y-25136D01*
X90384Y-25164D01*
X90245Y-25275D01*
X90051Y-25414D01*
X89829Y-25664D01*
X89551Y-25941D01*
X89273Y-26302D01*
X89023Y-26719D01*
X88801Y-27191D01*
Y-27219D01*
X88774Y-27246D01*
X88746Y-27330D01*
X88718Y-27441D01*
X88690Y-27580D01*
X88635Y-27746D01*
X88607Y-27941D01*
X88551Y-28163D01*
X88496Y-28440D01*
X88468Y-28718D01*
X88412Y-29024D01*
X88385Y-29385D01*
X88357Y-29746D01*
X88329Y-30162D01*
X88301Y-30579D01*
Y-31051D01*
Y-40687D01*
X85163D01*
Y-22109D01*
X87968D01*
Y-24692D01*
X88024Y-24664D01*
X88135Y-24497D01*
X88329Y-24247D01*
X88607Y-23942D01*
X88940Y-23581D01*
X89329Y-23220D01*
X89773Y-22859D01*
X90301Y-22525D01*
X90329D01*
X90356Y-22498D01*
X90440Y-22442D01*
X90551Y-22387D01*
X90690Y-22331D01*
X90856Y-22248D01*
X91245Y-22109D01*
X91745Y-21942D01*
X92300Y-21831D01*
X92939Y-21720D01*
X93605Y-21692D01*
X93939D01*
X94133Y-21720D01*
X94327Y-21748D01*
X94800Y-21803D01*
X95327Y-21915D01*
X95883Y-22053D01*
X96438Y-22276D01*
X96966Y-22553D01*
X96993D01*
X97021Y-22581D01*
X97188Y-22720D01*
X97410Y-22914D01*
X97715Y-23164D01*
X98021Y-23525D01*
X98326Y-23914D01*
X98604Y-24386D01*
X98854Y-24941D01*
X98882Y-24914D01*
X98965Y-24803D01*
X99076Y-24636D01*
X99270Y-24442D01*
X99465Y-24192D01*
X99743Y-23914D01*
X100048Y-23608D01*
X100409Y-23303D01*
X100798Y-23025D01*
X101242Y-22720D01*
X101714Y-22442D01*
X102214Y-22192D01*
X102769Y-21998D01*
X103353Y-21831D01*
X103964Y-21720D01*
X104602Y-21692D01*
X104880D01*
X105047Y-21720D01*
D02*
G37*
G36*
X-93870D02*
X-93620Y-21748D01*
X-93314Y-21776D01*
X-92981Y-21831D01*
X-92620Y-21887D01*
X-91843Y-22081D01*
X-91009Y-22359D01*
X-90593Y-22525D01*
X-90176Y-22720D01*
X-89788Y-22970D01*
X-89427Y-23247D01*
X-89399Y-23275D01*
X-89343Y-23331D01*
X-89232Y-23414D01*
X-89121Y-23525D01*
X-88955Y-23692D01*
X-88788Y-23886D01*
X-88594Y-24108D01*
X-88399Y-24358D01*
X-88177Y-24664D01*
X-87983Y-24969D01*
X-87760Y-25330D01*
X-87566Y-25719D01*
X-87399Y-26136D01*
X-87233Y-26580D01*
X-87066Y-27080D01*
X-86955Y-27580D01*
X-90010Y-28052D01*
Y-28024D01*
X-90038Y-27968D01*
X-90065Y-27885D01*
X-90093Y-27746D01*
X-90204Y-27413D01*
X-90371Y-26996D01*
X-90593Y-26552D01*
X-90843Y-26080D01*
X-91176Y-25636D01*
X-91565Y-25247D01*
X-91620Y-25191D01*
X-91759Y-25080D01*
X-92009Y-24941D01*
X-92315Y-24747D01*
X-92703Y-24580D01*
X-93148Y-24414D01*
X-93676Y-24303D01*
X-94231Y-24275D01*
X-94453D01*
X-94620Y-24303D01*
X-94842Y-24331D01*
X-95064Y-24358D01*
X-95619Y-24497D01*
X-96230Y-24692D01*
X-96536Y-24830D01*
X-96869Y-24997D01*
X-97175Y-25191D01*
X-97508Y-25441D01*
X-97813Y-25691D01*
X-98091Y-25997D01*
X-98119Y-26024D01*
X-98146Y-26080D01*
X-98230Y-26163D01*
X-98313Y-26330D01*
X-98424Y-26497D01*
X-98563Y-26719D01*
X-98702Y-26996D01*
X-98813Y-27302D01*
X-98952Y-27663D01*
X-99091Y-28052D01*
X-99229Y-28496D01*
X-99340Y-28996D01*
X-99424Y-29524D01*
X-99507Y-30079D01*
X-99535Y-30718D01*
X-99563Y-31384D01*
Y-31412D01*
Y-31551D01*
Y-31745D01*
X-99535Y-31995D01*
X-99507Y-32301D01*
X-99479Y-32662D01*
X-99452Y-33050D01*
X-99396Y-33467D01*
X-99229Y-34356D01*
X-98952Y-35272D01*
X-98813Y-35688D01*
X-98619Y-36105D01*
X-98396Y-36494D01*
X-98146Y-36827D01*
X-98119Y-36855D01*
X-98091Y-36910D01*
X-98008Y-36994D01*
X-97896Y-37077D01*
X-97730Y-37216D01*
X-97563Y-37355D01*
X-97369Y-37521D01*
X-97147Y-37660D01*
X-96591Y-37993D01*
X-95953Y-38243D01*
X-95592Y-38354D01*
X-95231Y-38438D01*
X-94814Y-38493D01*
X-94397Y-38521D01*
X-94231D01*
X-94092Y-38493D01*
X-93925D01*
X-93759Y-38465D01*
X-93314Y-38382D01*
X-92842Y-38243D01*
X-92315Y-38049D01*
X-91815Y-37771D01*
X-91315Y-37410D01*
X-91287Y-37383D01*
X-91259Y-37355D01*
X-91121Y-37188D01*
X-90899Y-36910D01*
X-90787Y-36744D01*
X-90649Y-36549D01*
X-90510Y-36299D01*
X-90371Y-36050D01*
X-90260Y-35772D01*
X-90121Y-35439D01*
X-90010Y-35105D01*
X-89899Y-34717D01*
X-89815Y-34328D01*
X-89732Y-33883D01*
X-86650Y-34300D01*
Y-34328D01*
X-86677Y-34439D01*
X-86705Y-34606D01*
X-86761Y-34828D01*
X-86844Y-35105D01*
X-86927Y-35411D01*
X-87038Y-35744D01*
X-87177Y-36133D01*
X-87511Y-36910D01*
X-87733Y-37327D01*
X-87983Y-37743D01*
X-88232Y-38160D01*
X-88538Y-38577D01*
X-88899Y-38938D01*
X-89260Y-39299D01*
X-89288Y-39326D01*
X-89343Y-39382D01*
X-89482Y-39465D01*
X-89621Y-39576D01*
X-89843Y-39715D01*
X-90065Y-39882D01*
X-90371Y-40021D01*
X-90676Y-40187D01*
X-91037Y-40382D01*
X-91426Y-40521D01*
X-91843Y-40687D01*
X-92287Y-40826D01*
X-92787Y-40937D01*
X-93287Y-41020D01*
X-93814Y-41076D01*
X-94370Y-41104D01*
X-94536D01*
X-94731Y-41076D01*
X-95008D01*
X-95314Y-41020D01*
X-95703Y-40965D01*
X-96119Y-40909D01*
X-96564Y-40798D01*
X-97036Y-40659D01*
X-97536Y-40493D01*
X-98035Y-40298D01*
X-98563Y-40048D01*
X-99063Y-39771D01*
X-99563Y-39437D01*
X-100035Y-39076D01*
X-100479Y-38632D01*
X-100507Y-38604D01*
X-100590Y-38521D01*
X-100701Y-38382D01*
X-100840Y-38160D01*
X-101007Y-37910D01*
X-101201Y-37605D01*
X-101423Y-37216D01*
X-101618Y-36799D01*
X-101840Y-36327D01*
X-102062Y-35800D01*
X-102256Y-35216D01*
X-102423Y-34578D01*
X-102562Y-33883D01*
X-102673Y-33134D01*
X-102756Y-32328D01*
X-102784Y-31495D01*
Y-31468D01*
Y-31356D01*
Y-31190D01*
X-102756Y-30995D01*
Y-30718D01*
X-102728Y-30412D01*
X-102701Y-30079D01*
X-102673Y-29690D01*
X-102534Y-28885D01*
X-102367Y-27996D01*
X-102145Y-27080D01*
X-101812Y-26219D01*
Y-26191D01*
X-101757Y-26108D01*
X-101701Y-25997D01*
X-101618Y-25858D01*
X-101507Y-25664D01*
X-101395Y-25441D01*
X-101062Y-24941D01*
X-100646Y-24414D01*
X-100118Y-23831D01*
X-99507Y-23303D01*
X-98785Y-22831D01*
X-98757D01*
X-98702Y-22775D01*
X-98591Y-22720D01*
X-98424Y-22664D01*
X-98230Y-22553D01*
X-98008Y-22470D01*
X-97758Y-22359D01*
X-97480Y-22248D01*
X-97147Y-22164D01*
X-96813Y-22053D01*
X-96064Y-21859D01*
X-95231Y-21748D01*
X-94370Y-21692D01*
X-94064D01*
X-93870Y-21720D01*
D02*
G37*
G36*
X61281Y-17860D02*
X61253Y-17888D01*
X61170Y-17971D01*
X61031Y-18138D01*
X60865Y-18332D01*
X60642Y-18610D01*
X60365Y-18915D01*
X60087Y-19276D01*
X59754Y-19693D01*
X59393Y-20165D01*
X59004Y-20693D01*
X58587Y-21276D01*
X58171Y-21887D01*
X57754Y-22525D01*
X57310Y-23247D01*
X56838Y-23997D01*
X56394Y-24775D01*
X56366Y-24830D01*
X56283Y-24969D01*
X56172Y-25191D01*
X56005Y-25525D01*
X55810Y-25914D01*
X55560Y-26386D01*
X55311Y-26913D01*
X55033Y-27496D01*
X54755Y-28135D01*
X54450Y-28829D01*
X54144Y-29579D01*
X53839Y-30329D01*
X53533Y-31134D01*
X53228Y-31967D01*
X52700Y-33661D01*
Y-33689D01*
X52672Y-33800D01*
X52617Y-33994D01*
X52561Y-34217D01*
X52478Y-34522D01*
X52395Y-34883D01*
X52284Y-35300D01*
X52200Y-35744D01*
X52089Y-36244D01*
X52006Y-36799D01*
X51895Y-37383D01*
X51812Y-37993D01*
X51701Y-38632D01*
X51617Y-39299D01*
X51506Y-40687D01*
X48285D01*
Y-40659D01*
Y-40548D01*
Y-40382D01*
X48313Y-40159D01*
X48340Y-39854D01*
X48368Y-39521D01*
X48396Y-39104D01*
X48451Y-38660D01*
X48507Y-38132D01*
X48590Y-37605D01*
X48674Y-36994D01*
X48785Y-36355D01*
X48924Y-35661D01*
X49062Y-34939D01*
X49257Y-34189D01*
X49451Y-33411D01*
X49479Y-33356D01*
X49507Y-33217D01*
X49562Y-32995D01*
X49673Y-32689D01*
X49784Y-32301D01*
X49923Y-31828D01*
X50090Y-31329D01*
X50284Y-30773D01*
X50506Y-30162D01*
X50756Y-29496D01*
X51006Y-28802D01*
X51312Y-28107D01*
X51950Y-26636D01*
X52700Y-25136D01*
X52728Y-25080D01*
X52811Y-24969D01*
X52922Y-24747D01*
X53061Y-24469D01*
X53283Y-24136D01*
X53506Y-23747D01*
X53783Y-23303D01*
X54061Y-22803D01*
X54394Y-22303D01*
X54755Y-21748D01*
X55533Y-20637D01*
X56366Y-19499D01*
X56810Y-18943D01*
X57254Y-18416D01*
X44703D01*
Y-15389D01*
X61281D01*
Y-17860D01*
D02*
G37*
G36*
X798Y-40687D02*
X-2340D01*
Y-22109D01*
X798D01*
Y-40687D01*
D02*
G37*
G36*
X-34664Y-15083D02*
X-34025Y-15111D01*
X-33387Y-15167D01*
X-32776Y-15222D01*
X-32470Y-15250D01*
X-32220Y-15305D01*
X-32193D01*
X-32137Y-15333D01*
X-32026D01*
X-31915Y-15361D01*
X-31748Y-15416D01*
X-31554Y-15444D01*
X-31110Y-15583D01*
X-30610Y-15750D01*
X-30082Y-15972D01*
X-29555Y-16222D01*
X-29055Y-16527D01*
X-29027D01*
X-28999Y-16555D01*
X-28833Y-16694D01*
X-28610Y-16888D01*
X-28305Y-17166D01*
X-27999Y-17499D01*
X-27638Y-17943D01*
X-27305Y-18416D01*
X-27000Y-18999D01*
Y-19026D01*
X-26972Y-19082D01*
X-26916Y-19165D01*
X-26861Y-19276D01*
X-26805Y-19415D01*
X-26750Y-19610D01*
X-26583Y-20026D01*
X-26444Y-20554D01*
X-26305Y-21137D01*
X-26222Y-21803D01*
X-26194Y-22498D01*
Y-22525D01*
Y-22637D01*
Y-22803D01*
X-26222Y-23053D01*
X-26250Y-23331D01*
X-26305Y-23636D01*
X-26361Y-23997D01*
X-26444Y-24414D01*
X-26555Y-24830D01*
X-26694Y-25275D01*
X-26861Y-25719D01*
X-27083Y-26191D01*
X-27305Y-26663D01*
X-27583Y-27135D01*
X-27916Y-27580D01*
X-28277Y-28024D01*
X-28305Y-28052D01*
X-28388Y-28107D01*
X-28499Y-28218D01*
X-28694Y-28385D01*
X-28916Y-28552D01*
X-29221Y-28746D01*
X-29582Y-28940D01*
X-29999Y-29135D01*
X-30499Y-29357D01*
X-31026Y-29551D01*
X-31665Y-29746D01*
X-32331Y-29912D01*
X-33109Y-30051D01*
X-33942Y-30162D01*
X-34831Y-30246D01*
X-35831Y-30273D01*
X-42384D01*
Y-40687D01*
X-45772D01*
Y-15055D01*
X-35220D01*
X-34664Y-15083D01*
D02*
G37*
G36*
X-60990Y-40687D02*
X-64128D01*
Y-15055D01*
X-60990D01*
Y-40687D01*
D02*
G37*
G36*
X-75514Y-21720D02*
X-75264D01*
X-74736Y-21776D01*
X-74125Y-21831D01*
X-73487Y-21942D01*
X-72848Y-22081D01*
X-72265Y-22276D01*
X-72237D01*
X-72209Y-22303D01*
X-72126Y-22331D01*
X-72015Y-22387D01*
X-71765Y-22498D01*
X-71432Y-22664D01*
X-71071Y-22859D01*
X-70710Y-23109D01*
X-70376Y-23386D01*
X-70071Y-23692D01*
X-70043Y-23720D01*
X-69960Y-23831D01*
X-69821Y-24025D01*
X-69682Y-24275D01*
X-69516Y-24580D01*
X-69349Y-24941D01*
X-69182Y-25358D01*
X-69071Y-25830D01*
Y-25858D01*
X-69043Y-25997D01*
X-69016Y-26191D01*
X-68988Y-26497D01*
X-68960Y-26885D01*
X-68932Y-27385D01*
Y-27691D01*
X-68905Y-27996D01*
Y-28330D01*
Y-28718D01*
Y-32912D01*
Y-32967D01*
Y-33106D01*
Y-33328D01*
Y-33606D01*
Y-33967D01*
Y-34356D01*
X-68877Y-34800D01*
Y-35244D01*
X-68849Y-36188D01*
Y-36660D01*
X-68821Y-37105D01*
X-68793Y-37521D01*
X-68766Y-37882D01*
X-68738Y-38216D01*
X-68710Y-38465D01*
Y-38521D01*
X-68682Y-38660D01*
X-68627Y-38882D01*
X-68544Y-39187D01*
X-68432Y-39521D01*
X-68294Y-39882D01*
X-68127Y-40298D01*
X-67933Y-40687D01*
X-71210D01*
X-71237Y-40632D01*
X-71293Y-40521D01*
X-71376Y-40298D01*
X-71460Y-40021D01*
X-71570Y-39687D01*
X-71682Y-39299D01*
X-71765Y-38854D01*
X-71820Y-38354D01*
X-71848Y-38382D01*
X-71904Y-38410D01*
X-71987Y-38493D01*
X-72126Y-38604D01*
X-72293Y-38715D01*
X-72459Y-38882D01*
X-72904Y-39187D01*
X-73431Y-39549D01*
X-73987Y-39909D01*
X-74598Y-40215D01*
X-75208Y-40493D01*
X-75236D01*
X-75292Y-40521D01*
X-75375Y-40548D01*
X-75486Y-40576D01*
X-75625Y-40632D01*
X-75819Y-40687D01*
X-76236Y-40798D01*
X-76763Y-40909D01*
X-77347Y-41020D01*
X-77985Y-41076D01*
X-78680Y-41104D01*
X-78985D01*
X-79180Y-41076D01*
X-79429Y-41048D01*
X-79735Y-41020D01*
X-80068Y-40993D01*
X-80401Y-40909D01*
X-81179Y-40743D01*
X-81956Y-40493D01*
X-82318Y-40326D01*
X-82706Y-40104D01*
X-83039Y-39882D01*
X-83373Y-39632D01*
X-83400Y-39604D01*
X-83456Y-39549D01*
X-83512Y-39465D01*
X-83623Y-39354D01*
X-83762Y-39215D01*
X-83900Y-39021D01*
X-84039Y-38827D01*
X-84178Y-38577D01*
X-84484Y-38049D01*
X-84761Y-37383D01*
X-84872Y-37021D01*
X-84928Y-36633D01*
X-84983Y-36216D01*
X-85011Y-35800D01*
Y-35772D01*
Y-35744D01*
Y-35577D01*
X-84983Y-35300D01*
X-84928Y-34966D01*
X-84872Y-34578D01*
X-84761Y-34161D01*
X-84595Y-33745D01*
X-84400Y-33300D01*
X-84373Y-33245D01*
X-84289Y-33106D01*
X-84150Y-32912D01*
X-83956Y-32634D01*
X-83734Y-32356D01*
X-83456Y-32051D01*
X-83151Y-31773D01*
X-82790Y-31495D01*
X-82734Y-31468D01*
X-82595Y-31384D01*
X-82401Y-31245D01*
X-82123Y-31106D01*
X-81790Y-30940D01*
X-81401Y-30773D01*
X-80957Y-30607D01*
X-80512Y-30468D01*
X-80457D01*
X-80346Y-30412D01*
X-80124Y-30384D01*
X-79818Y-30301D01*
X-79429Y-30246D01*
X-78930Y-30162D01*
X-78374Y-30079D01*
X-77708Y-29996D01*
X-77652D01*
X-77541Y-29968D01*
X-77347Y-29940D01*
X-77097Y-29912D01*
X-76763Y-29857D01*
X-76402Y-29801D01*
X-76014Y-29746D01*
X-75569Y-29690D01*
X-74653Y-29524D01*
X-73737Y-29329D01*
X-73292Y-29218D01*
X-72848Y-29107D01*
X-72459Y-28996D01*
X-72098Y-28885D01*
Y-28857D01*
Y-28774D01*
Y-28663D01*
X-72070Y-28552D01*
Y-28274D01*
Y-28163D01*
Y-28080D01*
Y-28052D01*
Y-27996D01*
Y-27885D01*
Y-27774D01*
X-72126Y-27441D01*
X-72181Y-27024D01*
X-72293Y-26580D01*
X-72459Y-26136D01*
X-72681Y-25719D01*
X-72987Y-25386D01*
X-73042Y-25330D01*
X-73098Y-25275D01*
X-73209Y-25219D01*
X-73348Y-25136D01*
X-73487Y-25053D01*
X-73875Y-24830D01*
X-74375Y-24636D01*
X-74986Y-24469D01*
X-75708Y-24358D01*
X-76541Y-24303D01*
X-76902D01*
X-77097Y-24331D01*
X-77291D01*
X-77791Y-24386D01*
X-78319Y-24497D01*
X-78846Y-24636D01*
X-79374Y-24830D01*
X-79818Y-25080D01*
X-79874Y-25108D01*
X-79985Y-25219D01*
X-80179Y-25441D01*
X-80401Y-25719D01*
X-80651Y-26080D01*
X-80929Y-26580D01*
X-81151Y-27135D01*
X-81262Y-27469D01*
X-81373Y-27830D01*
X-84456Y-27413D01*
Y-27385D01*
X-84428Y-27330D01*
X-84400Y-27219D01*
X-84373Y-27080D01*
X-84317Y-26913D01*
X-84261Y-26719D01*
X-84123Y-26274D01*
X-83928Y-25775D01*
X-83706Y-25247D01*
X-83428Y-24719D01*
X-83095Y-24247D01*
Y-24219D01*
X-83039Y-24192D01*
X-82901Y-24053D01*
X-82679Y-23831D01*
X-82373Y-23553D01*
X-81984Y-23247D01*
X-81512Y-22942D01*
X-80957Y-22637D01*
X-80318Y-22359D01*
X-80290D01*
X-80235Y-22331D01*
X-80124Y-22303D01*
X-79985Y-22248D01*
X-79818Y-22192D01*
X-79624Y-22137D01*
X-79374Y-22081D01*
X-79096Y-22026D01*
X-78819Y-21970D01*
X-78485Y-21915D01*
X-77763Y-21803D01*
X-76958Y-21720D01*
X-76097Y-21692D01*
X-75708D01*
X-75514Y-21720D01*
D02*
G37*
G36*
X-125778Y-18082D02*
X-139663D01*
Y-26024D01*
X-127638D01*
Y-29052D01*
X-139663D01*
Y-40687D01*
X-143051D01*
Y-15055D01*
X-125778D01*
Y-18082D01*
D02*
G37*
G36*
X29151Y-22109D02*
X32345D01*
Y-24553D01*
X29151D01*
Y-35439D01*
Y-35466D01*
Y-35494D01*
Y-35661D01*
Y-35883D01*
X29179Y-36161D01*
Y-36438D01*
X29235Y-36716D01*
X29262Y-36966D01*
X29318Y-37160D01*
Y-37188D01*
X29346Y-37216D01*
X29457Y-37383D01*
X29623Y-37577D01*
X29845Y-37771D01*
X29873D01*
X29929Y-37799D01*
X30012Y-37827D01*
X30123Y-37882D01*
X30290Y-37910D01*
X30457Y-37966D01*
X30679Y-37993D01*
X31151D01*
X31317Y-37966D01*
X31512D01*
X31762Y-37938D01*
X32039Y-37910D01*
X32345Y-37882D01*
X32761Y-40659D01*
X32706D01*
X32539Y-40715D01*
X32289Y-40743D01*
X31956Y-40798D01*
X31595Y-40854D01*
X31206Y-40881D01*
X30373Y-40937D01*
X30095D01*
X29790Y-40909D01*
X29401Y-40881D01*
X28957Y-40798D01*
X28512Y-40715D01*
X28096Y-40576D01*
X27707Y-40409D01*
X27679Y-40382D01*
X27568Y-40298D01*
X27402Y-40187D01*
X27180Y-40021D01*
X26957Y-39826D01*
X26735Y-39576D01*
X26541Y-39299D01*
X26374Y-38993D01*
X26346Y-38938D01*
X26319Y-38799D01*
X26291Y-38688D01*
X26263Y-38549D01*
X26235Y-38382D01*
X26208Y-38188D01*
X26152Y-37966D01*
X26124Y-37688D01*
X26097Y-37383D01*
X26069Y-37049D01*
X26041Y-36660D01*
Y-36244D01*
X26013Y-35772D01*
Y-35272D01*
Y-24553D01*
X23681D01*
Y-22109D01*
X26013D01*
Y-17527D01*
X29151Y-15639D01*
Y-22109D01*
D02*
G37*
G36*
X73278Y-15000D02*
X73472Y-15028D01*
X73972Y-15083D01*
X74527Y-15167D01*
X75138Y-15333D01*
X75749Y-15528D01*
X76360Y-15805D01*
X76388D01*
X76444Y-15833D01*
X76527Y-15889D01*
X76638Y-15972D01*
X76916Y-16138D01*
X77277Y-16416D01*
X77693Y-16749D01*
X78110Y-17166D01*
X78554Y-17666D01*
X78943Y-18221D01*
Y-18249D01*
X78998Y-18304D01*
X79026Y-18388D01*
X79110Y-18499D01*
X79193Y-18638D01*
X79304Y-18832D01*
X79387Y-19054D01*
X79526Y-19276D01*
X79776Y-19832D01*
X80026Y-20470D01*
X80304Y-21220D01*
X80526Y-22026D01*
Y-22053D01*
X80554Y-22137D01*
X80581Y-22248D01*
X80609Y-22442D01*
X80665Y-22664D01*
X80720Y-22942D01*
X80776Y-23247D01*
X80831Y-23608D01*
X80859Y-24025D01*
X80914Y-24469D01*
X80970Y-24969D01*
X81026Y-25497D01*
X81053Y-26080D01*
X81081Y-26691D01*
X81109Y-27358D01*
Y-28052D01*
Y-28107D01*
Y-28246D01*
Y-28496D01*
Y-28802D01*
X81081Y-29190D01*
X81053Y-29607D01*
X81026Y-30107D01*
X80998Y-30634D01*
X80942Y-31218D01*
X80887Y-31801D01*
X80720Y-33023D01*
X80470Y-34217D01*
X80331Y-34800D01*
X80165Y-35328D01*
Y-35355D01*
X80109Y-35439D01*
X80081Y-35605D01*
X79998Y-35772D01*
X79887Y-36022D01*
X79776Y-36272D01*
X79637Y-36577D01*
X79470Y-36910D01*
X79082Y-37605D01*
X78610Y-38299D01*
X78054Y-38993D01*
X77721Y-39299D01*
X77388Y-39604D01*
X77360Y-39632D01*
X77304Y-39660D01*
X77193Y-39743D01*
X77055Y-39826D01*
X76888Y-39937D01*
X76666Y-40076D01*
X76416Y-40215D01*
X76110Y-40354D01*
X75805Y-40493D01*
X75444Y-40632D01*
X75083Y-40743D01*
X74666Y-40881D01*
X74222Y-40965D01*
X73750Y-41048D01*
X73278Y-41076D01*
X72750Y-41104D01*
X72584D01*
X72389Y-41076D01*
X72139Y-41048D01*
X71834Y-41020D01*
X71473Y-40965D01*
X71084Y-40881D01*
X70640Y-40770D01*
X70195Y-40632D01*
X69723Y-40465D01*
X69223Y-40243D01*
X68751Y-39993D01*
X68279Y-39687D01*
X67807Y-39326D01*
X67363Y-38938D01*
X66946Y-38465D01*
X66918Y-38438D01*
X66835Y-38327D01*
X66724Y-38132D01*
X66557Y-37855D01*
X66363Y-37494D01*
X66141Y-37077D01*
X65919Y-36549D01*
X65697Y-35966D01*
X65447Y-35272D01*
X65224Y-34522D01*
X65002Y-33661D01*
X64808Y-32717D01*
X64641Y-31690D01*
X64530Y-30579D01*
X64447Y-29357D01*
X64419Y-28052D01*
Y-27996D01*
Y-27857D01*
Y-27607D01*
X64447Y-27302D01*
Y-26913D01*
X64475Y-26469D01*
X64503Y-25969D01*
X64530Y-25441D01*
X64586Y-24858D01*
X64641Y-24275D01*
X64808Y-23053D01*
X65030Y-21859D01*
X65169Y-21276D01*
X65336Y-20748D01*
Y-20720D01*
X65391Y-20637D01*
X65447Y-20470D01*
X65502Y-20276D01*
X65613Y-20054D01*
X65724Y-19776D01*
X65863Y-19499D01*
X66030Y-19165D01*
X66419Y-18471D01*
X66918Y-17777D01*
X67474Y-17083D01*
X67779Y-16777D01*
X68113Y-16472D01*
X68140Y-16444D01*
X68196Y-16416D01*
X68307Y-16333D01*
X68446Y-16250D01*
X68612Y-16111D01*
X68835Y-16000D01*
X69085Y-15861D01*
X69390Y-15722D01*
X69696Y-15583D01*
X70056Y-15444D01*
X70445Y-15305D01*
X70834Y-15194D01*
X71278Y-15111D01*
X71750Y-15028D01*
X72250Y-15000D01*
X72750Y-14972D01*
X73083D01*
X73278Y-15000D01*
D02*
G37*
G36*
X-14392Y-21720D02*
X-14114D01*
X-13781Y-21776D01*
X-13420Y-21831D01*
X-13004Y-21915D01*
X-12531Y-21998D01*
X-12059Y-22137D01*
X-11532Y-22303D01*
X-11032Y-22525D01*
X-10504Y-22748D01*
X-9977Y-23053D01*
X-9477Y-23386D01*
X-8977Y-23775D01*
X-8505Y-24219D01*
X-8477Y-24247D01*
X-8394Y-24331D01*
X-8283Y-24469D01*
X-8116Y-24692D01*
X-7949Y-24941D01*
X-7727Y-25247D01*
X-7505Y-25608D01*
X-7283Y-26024D01*
X-7061Y-26497D01*
X-6839Y-27024D01*
X-6617Y-27580D01*
X-6450Y-28191D01*
X-6283Y-28857D01*
X-6172Y-29579D01*
X-6089Y-30357D01*
X-6061Y-31162D01*
Y-31190D01*
Y-31329D01*
Y-31495D01*
X-6089Y-31745D01*
Y-32051D01*
X-6117Y-32412D01*
X-6144Y-32800D01*
X-6200Y-33217D01*
X-6311Y-34106D01*
X-6505Y-35050D01*
X-6783Y-35966D01*
X-6950Y-36383D01*
X-7144Y-36799D01*
Y-36827D01*
X-7200Y-36883D01*
X-7255Y-36994D01*
X-7339Y-37132D01*
X-7450Y-37299D01*
X-7588Y-37521D01*
X-7949Y-37966D01*
X-8394Y-38493D01*
X-8921Y-39021D01*
X-9560Y-39521D01*
X-10282Y-39993D01*
X-10310D01*
X-10365Y-40048D01*
X-10476Y-40104D01*
X-10643Y-40159D01*
X-10837Y-40243D01*
X-11060Y-40354D01*
X-11310Y-40437D01*
X-11615Y-40548D01*
X-11921Y-40659D01*
X-12282Y-40743D01*
X-13031Y-40937D01*
X-13864Y-41048D01*
X-14753Y-41104D01*
X-14920D01*
X-15114Y-41076D01*
X-15392D01*
X-15725Y-41020D01*
X-16114Y-40965D01*
X-16530Y-40881D01*
X-17003Y-40798D01*
X-17502Y-40659D01*
X-18002Y-40493D01*
X-18530Y-40298D01*
X-19058Y-40048D01*
X-19585Y-39771D01*
X-20085Y-39437D01*
X-20585Y-39049D01*
X-21057Y-38604D01*
X-21085Y-38577D01*
X-21168Y-38493D01*
X-21279Y-38354D01*
X-21418Y-38132D01*
X-21612Y-37882D01*
X-21807Y-37577D01*
X-22029Y-37188D01*
X-22251Y-36772D01*
X-22473Y-36272D01*
X-22695Y-35744D01*
X-22890Y-35161D01*
X-23084Y-34522D01*
X-23223Y-33828D01*
X-23334Y-33078D01*
X-23417Y-32273D01*
X-23445Y-31412D01*
Y-31384D01*
Y-31356D01*
Y-31190D01*
X-23417Y-30912D01*
X-23390Y-30579D01*
X-23362Y-30134D01*
X-23306Y-29635D01*
X-23195Y-29107D01*
X-23084Y-28524D01*
X-22945Y-27913D01*
X-22751Y-27274D01*
X-22501Y-26636D01*
X-22251Y-25997D01*
X-21918Y-25386D01*
X-21529Y-24803D01*
X-21085Y-24275D01*
X-20585Y-23775D01*
X-20557Y-23747D01*
X-20474Y-23692D01*
X-20335Y-23581D01*
X-20168Y-23442D01*
X-19918Y-23303D01*
X-19641Y-23109D01*
X-19335Y-22914D01*
X-18946Y-22720D01*
X-18558Y-22525D01*
X-18113Y-22359D01*
X-17641Y-22164D01*
X-17114Y-22026D01*
X-16558Y-21887D01*
X-16003Y-21776D01*
X-15392Y-21720D01*
X-14753Y-21692D01*
X-14586D01*
X-14392Y-21720D01*
D02*
G37*
G36*
X-113892D02*
X-113614D01*
X-113281Y-21776D01*
X-112920Y-21831D01*
X-112504Y-21915D01*
X-112031Y-21998D01*
X-111559Y-22137D01*
X-111032Y-22303D01*
X-110532Y-22525D01*
X-110004Y-22748D01*
X-109477Y-23053D01*
X-108977Y-23386D01*
X-108477Y-23775D01*
X-108005Y-24219D01*
X-107977Y-24247D01*
X-107894Y-24331D01*
X-107783Y-24469D01*
X-107616Y-24692D01*
X-107449Y-24941D01*
X-107227Y-25247D01*
X-107005Y-25608D01*
X-106783Y-26024D01*
X-106561Y-26497D01*
X-106339Y-27024D01*
X-106116Y-27580D01*
X-105950Y-28191D01*
X-105783Y-28857D01*
X-105672Y-29579D01*
X-105589Y-30357D01*
X-105561Y-31162D01*
Y-31190D01*
Y-31329D01*
Y-31495D01*
X-105589Y-31745D01*
Y-32051D01*
X-105617Y-32412D01*
X-105644Y-32800D01*
X-105700Y-33217D01*
X-105811Y-34106D01*
X-106005Y-35050D01*
X-106283Y-35966D01*
X-106450Y-36383D01*
X-106644Y-36799D01*
Y-36827D01*
X-106700Y-36883D01*
X-106755Y-36994D01*
X-106838Y-37132D01*
X-106949Y-37299D01*
X-107088Y-37521D01*
X-107449Y-37966D01*
X-107894Y-38493D01*
X-108421Y-39021D01*
X-109060Y-39521D01*
X-109782Y-39993D01*
X-109810D01*
X-109865Y-40048D01*
X-109976Y-40104D01*
X-110143Y-40159D01*
X-110337Y-40243D01*
X-110560Y-40354D01*
X-110810Y-40437D01*
X-111115Y-40548D01*
X-111421Y-40659D01*
X-111782Y-40743D01*
X-112531Y-40937D01*
X-113364Y-41048D01*
X-114253Y-41104D01*
X-114420D01*
X-114614Y-41076D01*
X-114892D01*
X-115225Y-41020D01*
X-115614Y-40965D01*
X-116030Y-40881D01*
X-116502Y-40798D01*
X-117002Y-40659D01*
X-117502Y-40493D01*
X-118030Y-40298D01*
X-118557Y-40048D01*
X-119085Y-39771D01*
X-119585Y-39437D01*
X-120085Y-39049D01*
X-120557Y-38604D01*
X-120585Y-38577D01*
X-120668Y-38493D01*
X-120779Y-38354D01*
X-120918Y-38132D01*
X-121112Y-37882D01*
X-121307Y-37577D01*
X-121529Y-37188D01*
X-121751Y-36772D01*
X-121973Y-36272D01*
X-122195Y-35744D01*
X-122390Y-35161D01*
X-122584Y-34522D01*
X-122723Y-33828D01*
X-122834Y-33078D01*
X-122917Y-32273D01*
X-122945Y-31412D01*
Y-31384D01*
Y-31356D01*
Y-31190D01*
X-122917Y-30912D01*
X-122889Y-30579D01*
X-122862Y-30134D01*
X-122806Y-29635D01*
X-122695Y-29107D01*
X-122584Y-28524D01*
X-122445Y-27913D01*
X-122251Y-27274D01*
X-122001Y-26636D01*
X-121751Y-25997D01*
X-121418Y-25386D01*
X-121029Y-24803D01*
X-120585Y-24275D01*
X-120085Y-23775D01*
X-120057Y-23747D01*
X-119974Y-23692D01*
X-119835Y-23581D01*
X-119668Y-23442D01*
X-119418Y-23303D01*
X-119141Y-23109D01*
X-118835Y-22914D01*
X-118446Y-22720D01*
X-118058Y-22525D01*
X-117613Y-22359D01*
X-117141Y-22164D01*
X-116613Y-22026D01*
X-116058Y-21887D01*
X-115503Y-21776D01*
X-114892Y-21720D01*
X-114253Y-21692D01*
X-114086D01*
X-113892Y-21720D01*
D02*
G37*
G36*
X106463Y-46258D02*
X106741Y-46286D01*
X107046Y-46313D01*
X107407Y-46341D01*
X108185Y-46452D01*
X109046Y-46619D01*
X109906Y-46841D01*
X110767Y-47146D01*
X110795D01*
X110878Y-47174D01*
X110989Y-47230D01*
X111128Y-47313D01*
X111323Y-47396D01*
X111545Y-47507D01*
X112045Y-47785D01*
X112628Y-48146D01*
X113211Y-48563D01*
X113767Y-49062D01*
X114294Y-49646D01*
X114322Y-49674D01*
X114350Y-49729D01*
X114405Y-49812D01*
X114516Y-49923D01*
X114600Y-50090D01*
X114738Y-50284D01*
X114877Y-50507D01*
X115016Y-50784D01*
X115183Y-51062D01*
X115322Y-51367D01*
X115488Y-51728D01*
X115655Y-52090D01*
X115960Y-52923D01*
X116238Y-53839D01*
X113155Y-54672D01*
Y-54644D01*
X113128Y-54589D01*
X113100Y-54478D01*
X113044Y-54339D01*
X112989Y-54200D01*
X112933Y-54006D01*
X112767Y-53561D01*
X112545Y-53061D01*
X112295Y-52561D01*
X112017Y-52062D01*
X111712Y-51617D01*
X111684Y-51562D01*
X111545Y-51423D01*
X111351Y-51229D01*
X111100Y-50951D01*
X110740Y-50673D01*
X110323Y-50368D01*
X109823Y-50090D01*
X109268Y-49812D01*
X109240D01*
X109184Y-49785D01*
X109101Y-49757D01*
X108990Y-49701D01*
X108851Y-49646D01*
X108657Y-49590D01*
X108240Y-49451D01*
X107713Y-49340D01*
X107129Y-49229D01*
X106463Y-49146D01*
X105769Y-49118D01*
X105380D01*
X105185Y-49146D01*
X104936D01*
X104686Y-49174D01*
X104380Y-49201D01*
X103769Y-49285D01*
X103075Y-49424D01*
X102409Y-49590D01*
X101742Y-49840D01*
X101714D01*
X101659Y-49868D01*
X101575Y-49923D01*
X101464Y-49979D01*
X101159Y-50118D01*
X100770Y-50340D01*
X100326Y-50618D01*
X99881Y-50951D01*
X99409Y-51312D01*
X98993Y-51728D01*
X98937Y-51784D01*
X98826Y-51923D01*
X98632Y-52173D01*
X98410Y-52478D01*
X98160Y-52839D01*
X97882Y-53284D01*
X97632Y-53756D01*
X97410Y-54255D01*
Y-54283D01*
X97382Y-54367D01*
X97327Y-54478D01*
X97271Y-54672D01*
X97188Y-54894D01*
X97104Y-55144D01*
X97021Y-55450D01*
X96938Y-55783D01*
X96827Y-56144D01*
X96743Y-56560D01*
X96605Y-57421D01*
X96494Y-58393D01*
X96438Y-59421D01*
Y-59448D01*
Y-59560D01*
Y-59754D01*
X96466Y-59976D01*
Y-60282D01*
X96494Y-60615D01*
X96549Y-61004D01*
X96577Y-61420D01*
X96716Y-62337D01*
X96938Y-63281D01*
X97215Y-64253D01*
X97604Y-65169D01*
X97632Y-65197D01*
X97660Y-65280D01*
X97715Y-65391D01*
X97826Y-65558D01*
X97938Y-65724D01*
X98104Y-65947D01*
X98465Y-66447D01*
X98965Y-67002D01*
X99548Y-67585D01*
X100215Y-68113D01*
X100603Y-68363D01*
X101020Y-68585D01*
X101048D01*
X101131Y-68640D01*
X101242Y-68696D01*
X101409Y-68752D01*
X101631Y-68835D01*
X101881Y-68946D01*
X102159Y-69029D01*
X102464Y-69140D01*
X102797Y-69251D01*
X103186Y-69335D01*
X103991Y-69529D01*
X104880Y-69640D01*
X105824Y-69696D01*
X106046D01*
X106213Y-69668D01*
X106407D01*
X106630Y-69640D01*
X106879Y-69612D01*
X107185Y-69585D01*
X107824Y-69501D01*
X108546Y-69335D01*
X109323Y-69140D01*
X110101Y-68862D01*
X110129D01*
X110184Y-68835D01*
X110295Y-68779D01*
X110462Y-68724D01*
X110628Y-68640D01*
X110823Y-68529D01*
X111295Y-68307D01*
X111823Y-68029D01*
X112350Y-67724D01*
X112850Y-67418D01*
X113294Y-67058D01*
Y-62253D01*
X105769D01*
Y-59226D01*
X116627D01*
Y-68752D01*
X116599Y-68779D01*
X116516Y-68835D01*
X116377Y-68946D01*
X116182Y-69085D01*
X115960Y-69251D01*
X115683Y-69418D01*
X115377Y-69640D01*
X115044Y-69862D01*
X114683Y-70084D01*
X114266Y-70334D01*
X113405Y-70834D01*
X112461Y-71306D01*
X111461Y-71723D01*
X111434D01*
X111351Y-71778D01*
X111212Y-71806D01*
X110989Y-71890D01*
X110767Y-71945D01*
X110462Y-72028D01*
X110156Y-72139D01*
X109795Y-72223D01*
X109379Y-72306D01*
X108962Y-72417D01*
X108046Y-72556D01*
X107046Y-72667D01*
X106019Y-72723D01*
X105658D01*
X105380Y-72695D01*
X105047Y-72667D01*
X104658Y-72639D01*
X104214Y-72584D01*
X103742Y-72528D01*
X103242Y-72445D01*
X102686Y-72334D01*
X102131Y-72195D01*
X101520Y-72028D01*
X100937Y-71862D01*
X100354Y-71640D01*
X99743Y-71390D01*
X99159Y-71112D01*
X99132Y-71084D01*
X99021Y-71029D01*
X98854Y-70945D01*
X98660Y-70806D01*
X98410Y-70640D01*
X98104Y-70445D01*
X97771Y-70196D01*
X97410Y-69918D01*
X97049Y-69612D01*
X96660Y-69251D01*
X96271Y-68890D01*
X95883Y-68474D01*
X95522Y-68002D01*
X95161Y-67530D01*
X94800Y-67002D01*
X94494Y-66447D01*
X94466Y-66419D01*
X94438Y-66308D01*
X94355Y-66141D01*
X94244Y-65919D01*
X94133Y-65614D01*
X93994Y-65280D01*
X93855Y-64891D01*
X93717Y-64447D01*
X93578Y-63975D01*
X93439Y-63447D01*
X93300Y-62864D01*
X93189Y-62281D01*
X93078Y-61642D01*
X92994Y-61004D01*
X92967Y-60309D01*
X92939Y-59615D01*
Y-59560D01*
Y-59448D01*
Y-59254D01*
X92967Y-58976D01*
X92994Y-58643D01*
X93022Y-58254D01*
X93078Y-57810D01*
X93133Y-57338D01*
X93217Y-56810D01*
X93328Y-56255D01*
X93605Y-55089D01*
X93772Y-54478D01*
X93994Y-53867D01*
X94216Y-53256D01*
X94494Y-52645D01*
X94522Y-52617D01*
X94577Y-52506D01*
X94661Y-52339D01*
X94772Y-52117D01*
X94938Y-51840D01*
X95133Y-51534D01*
X95383Y-51201D01*
X95633Y-50812D01*
X95938Y-50423D01*
X96271Y-50034D01*
X96632Y-49646D01*
X97049Y-49229D01*
X97465Y-48840D01*
X97938Y-48479D01*
X98437Y-48118D01*
X98965Y-47813D01*
X98993Y-47785D01*
X99104Y-47757D01*
X99270Y-47674D01*
X99493Y-47563D01*
X99770Y-47452D01*
X100104Y-47313D01*
X100492Y-47174D01*
X100909Y-47008D01*
X101381Y-46869D01*
X101909Y-46730D01*
X102464Y-46591D01*
X103075Y-46480D01*
X103686Y-46369D01*
X104352Y-46286D01*
X105047Y-46258D01*
X105741Y-46230D01*
X106213D01*
X106463Y-46258D01*
D02*
G37*
G36*
X-42745Y-53339D02*
X-42579D01*
X-42162Y-53395D01*
X-41690Y-53450D01*
X-41162Y-53561D01*
X-40635Y-53728D01*
X-40107Y-53922D01*
X-40079D01*
X-40052Y-53950D01*
X-39885Y-54033D01*
X-39635Y-54172D01*
X-39302Y-54339D01*
X-38969Y-54589D01*
X-38607Y-54839D01*
X-38274Y-55144D01*
X-37997Y-55505D01*
X-37969Y-55561D01*
X-37885Y-55672D01*
X-37774Y-55894D01*
X-37608Y-56172D01*
X-37441Y-56505D01*
X-37302Y-56894D01*
X-37136Y-57338D01*
X-37025Y-57838D01*
Y-57866D01*
X-36997Y-58004D01*
X-36969Y-58227D01*
X-36914Y-58532D01*
X-36886Y-58949D01*
Y-59199D01*
X-36858Y-59476D01*
Y-59782D01*
X-36830Y-60143D01*
Y-60504D01*
Y-60893D01*
Y-72306D01*
X-39968D01*
Y-61004D01*
Y-60976D01*
Y-60920D01*
Y-60809D01*
Y-60698D01*
Y-60532D01*
X-39996Y-60337D01*
X-40024Y-59921D01*
X-40052Y-59448D01*
X-40135Y-58976D01*
X-40218Y-58532D01*
X-40357Y-58143D01*
X-40385Y-58088D01*
X-40440Y-57977D01*
X-40524Y-57810D01*
X-40663Y-57588D01*
X-40829Y-57338D01*
X-41051Y-57088D01*
X-41329Y-56838D01*
X-41662Y-56616D01*
X-41690Y-56588D01*
X-41829Y-56533D01*
X-42023Y-56422D01*
X-42273Y-56310D01*
X-42606Y-56227D01*
X-42967Y-56116D01*
X-43384Y-56061D01*
X-43856Y-56033D01*
X-44050D01*
X-44189Y-56061D01*
X-44356D01*
X-44578Y-56088D01*
X-45050Y-56199D01*
X-45578Y-56338D01*
X-46161Y-56560D01*
X-46744Y-56894D01*
X-47050Y-57088D01*
X-47327Y-57310D01*
X-47355Y-57338D01*
X-47383Y-57366D01*
X-47466Y-57449D01*
X-47550Y-57560D01*
X-47661Y-57727D01*
X-47772Y-57893D01*
X-47910Y-58116D01*
X-48049Y-58393D01*
X-48188Y-58699D01*
X-48327Y-59060D01*
X-48438Y-59448D01*
X-48549Y-59893D01*
X-48632Y-60393D01*
X-48716Y-60920D01*
X-48744Y-61531D01*
X-48771Y-62170D01*
Y-72306D01*
X-51909D01*
Y-53728D01*
X-49077D01*
Y-56394D01*
X-49049Y-56366D01*
X-48994Y-56255D01*
X-48855Y-56116D01*
X-48688Y-55922D01*
X-48494Y-55672D01*
X-48244Y-55422D01*
X-47938Y-55144D01*
X-47577Y-54839D01*
X-47188Y-54561D01*
X-46744Y-54283D01*
X-46272Y-54033D01*
X-45744Y-53783D01*
X-45161Y-53589D01*
X-44550Y-53450D01*
X-43884Y-53339D01*
X-43190Y-53311D01*
X-42912D01*
X-42745Y-53339D01*
D02*
G37*
G36*
X-136386D02*
X-136247D01*
X-136080Y-53367D01*
X-135664Y-53450D01*
X-135164Y-53561D01*
X-134636Y-53756D01*
X-134025Y-54006D01*
X-133414Y-54339D01*
X-134525Y-57255D01*
X-134581Y-57227D01*
X-134720Y-57144D01*
X-134942Y-57033D01*
X-135247Y-56894D01*
X-135580Y-56783D01*
X-135969Y-56672D01*
X-136386Y-56588D01*
X-136830Y-56560D01*
X-136997D01*
X-137191Y-56588D01*
X-137441Y-56644D01*
X-137746Y-56727D01*
X-138052Y-56838D01*
X-138357Y-56977D01*
X-138691Y-57199D01*
X-138718Y-57227D01*
X-138830Y-57310D01*
X-138968Y-57449D01*
X-139135Y-57644D01*
X-139329Y-57893D01*
X-139524Y-58171D01*
X-139690Y-58532D01*
X-139857Y-58921D01*
Y-58949D01*
X-139885Y-59004D01*
X-139912Y-59088D01*
X-139940Y-59199D01*
X-139968Y-59365D01*
X-140024Y-59560D01*
X-140107Y-60004D01*
X-140190Y-60559D01*
X-140273Y-61170D01*
X-140329Y-61865D01*
X-140357Y-62586D01*
Y-72306D01*
X-143495D01*
Y-53728D01*
X-140662D01*
Y-56533D01*
X-140607Y-56477D01*
X-140551Y-56366D01*
X-140468Y-56255D01*
X-140273Y-55894D01*
X-139996Y-55505D01*
X-139690Y-55061D01*
X-139357Y-54616D01*
X-139024Y-54255D01*
X-138830Y-54089D01*
X-138663Y-53950D01*
X-138607Y-53922D01*
X-138496Y-53839D01*
X-138302Y-53756D01*
X-138080Y-53617D01*
X-137774Y-53506D01*
X-137441Y-53422D01*
X-137052Y-53339D01*
X-136663Y-53311D01*
X-136497D01*
X-136386Y-53339D01*
D02*
G37*
G36*
X141842Y-72306D02*
X138454D01*
Y-60226D01*
X125152D01*
Y-72306D01*
X121764D01*
Y-46674D01*
X125152D01*
Y-57199D01*
X138454D01*
Y-46674D01*
X141842D01*
Y-72306D01*
D02*
G37*
G36*
X-24001Y-53339D02*
X-23751Y-53367D01*
X-23445Y-53395D01*
X-23112Y-53450D01*
X-22751Y-53506D01*
X-21973Y-53700D01*
X-21140Y-53978D01*
X-20724Y-54144D01*
X-20307Y-54339D01*
X-19918Y-54589D01*
X-19557Y-54866D01*
X-19530Y-54894D01*
X-19474Y-54950D01*
X-19363Y-55033D01*
X-19252Y-55144D01*
X-19085Y-55311D01*
X-18919Y-55505D01*
X-18724Y-55727D01*
X-18530Y-55977D01*
X-18308Y-56283D01*
X-18113Y-56588D01*
X-17891Y-56949D01*
X-17697Y-57338D01*
X-17530Y-57754D01*
X-17364Y-58199D01*
X-17197Y-58699D01*
X-17086Y-59199D01*
X-20141Y-59671D01*
Y-59643D01*
X-20168Y-59587D01*
X-20196Y-59504D01*
X-20224Y-59365D01*
X-20335Y-59032D01*
X-20502Y-58615D01*
X-20724Y-58171D01*
X-20974Y-57699D01*
X-21307Y-57255D01*
X-21696Y-56866D01*
X-21751Y-56810D01*
X-21890Y-56699D01*
X-22140Y-56560D01*
X-22445Y-56366D01*
X-22834Y-56199D01*
X-23279Y-56033D01*
X-23806Y-55922D01*
X-24362Y-55894D01*
X-24584D01*
X-24750Y-55922D01*
X-24972Y-55949D01*
X-25195Y-55977D01*
X-25750Y-56116D01*
X-26361Y-56310D01*
X-26666Y-56449D01*
X-27000Y-56616D01*
X-27305Y-56810D01*
X-27638Y-57060D01*
X-27944Y-57310D01*
X-28222Y-57616D01*
X-28249Y-57644D01*
X-28277Y-57699D01*
X-28360Y-57782D01*
X-28444Y-57949D01*
X-28555Y-58116D01*
X-28694Y-58338D01*
X-28833Y-58615D01*
X-28944Y-58921D01*
X-29082Y-59282D01*
X-29221Y-59671D01*
X-29360Y-60115D01*
X-29471Y-60615D01*
X-29555Y-61142D01*
X-29638Y-61698D01*
X-29666Y-62337D01*
X-29693Y-63003D01*
Y-63031D01*
Y-63170D01*
Y-63364D01*
X-29666Y-63614D01*
X-29638Y-63920D01*
X-29610Y-64280D01*
X-29582Y-64669D01*
X-29527Y-65086D01*
X-29360Y-65974D01*
X-29082Y-66891D01*
X-28944Y-67307D01*
X-28749Y-67724D01*
X-28527Y-68113D01*
X-28277Y-68446D01*
X-28249Y-68474D01*
X-28222Y-68529D01*
X-28138Y-68613D01*
X-28027Y-68696D01*
X-27861Y-68835D01*
X-27694Y-68974D01*
X-27499Y-69140D01*
X-27277Y-69279D01*
X-26722Y-69612D01*
X-26083Y-69862D01*
X-25722Y-69973D01*
X-25361Y-70057D01*
X-24945Y-70112D01*
X-24528Y-70140D01*
X-24362D01*
X-24223Y-70112D01*
X-24056D01*
X-23889Y-70084D01*
X-23445Y-70001D01*
X-22973Y-69862D01*
X-22445Y-69668D01*
X-21946Y-69390D01*
X-21446Y-69029D01*
X-21418Y-69001D01*
X-21390Y-68974D01*
X-21251Y-68807D01*
X-21029Y-68529D01*
X-20918Y-68363D01*
X-20779Y-68168D01*
X-20640Y-67918D01*
X-20502Y-67668D01*
X-20390Y-67391D01*
X-20252Y-67058D01*
X-20141Y-66724D01*
X-20029Y-66335D01*
X-19946Y-65947D01*
X-19863Y-65502D01*
X-16780Y-65919D01*
Y-65947D01*
X-16808Y-66058D01*
X-16836Y-66224D01*
X-16891Y-66447D01*
X-16975Y-66724D01*
X-17058Y-67030D01*
X-17169Y-67363D01*
X-17308Y-67752D01*
X-17641Y-68529D01*
X-17863Y-68946D01*
X-18113Y-69362D01*
X-18363Y-69779D01*
X-18669Y-70196D01*
X-19030Y-70556D01*
X-19391Y-70917D01*
X-19419Y-70945D01*
X-19474Y-71001D01*
X-19613Y-71084D01*
X-19752Y-71195D01*
X-19974Y-71334D01*
X-20196Y-71501D01*
X-20502Y-71640D01*
X-20807Y-71806D01*
X-21168Y-72000D01*
X-21557Y-72139D01*
X-21973Y-72306D01*
X-22418Y-72445D01*
X-22918Y-72556D01*
X-23417Y-72639D01*
X-23945Y-72695D01*
X-24500Y-72723D01*
X-24667D01*
X-24861Y-72695D01*
X-25139D01*
X-25445Y-72639D01*
X-25833Y-72584D01*
X-26250Y-72528D01*
X-26694Y-72417D01*
X-27166Y-72278D01*
X-27666Y-72112D01*
X-28166Y-71917D01*
X-28694Y-71667D01*
X-29193Y-71390D01*
X-29693Y-71056D01*
X-30165Y-70695D01*
X-30610Y-70251D01*
X-30637Y-70223D01*
X-30721Y-70140D01*
X-30832Y-70001D01*
X-30971Y-69779D01*
X-31137Y-69529D01*
X-31332Y-69224D01*
X-31554Y-68835D01*
X-31748Y-68418D01*
X-31971Y-67946D01*
X-32193Y-67418D01*
X-32387Y-66835D01*
X-32554Y-66197D01*
X-32693Y-65502D01*
X-32804Y-64753D01*
X-32887Y-63947D01*
X-32915Y-63114D01*
Y-63086D01*
Y-62975D01*
Y-62809D01*
X-32887Y-62614D01*
Y-62337D01*
X-32859Y-62031D01*
X-32831Y-61698D01*
X-32804Y-61309D01*
X-32665Y-60504D01*
X-32498Y-59615D01*
X-32276Y-58699D01*
X-31943Y-57838D01*
Y-57810D01*
X-31887Y-57727D01*
X-31832Y-57616D01*
X-31748Y-57477D01*
X-31637Y-57282D01*
X-31526Y-57060D01*
X-31193Y-56560D01*
X-30776Y-56033D01*
X-30249Y-55450D01*
X-29638Y-54922D01*
X-28916Y-54450D01*
X-28888D01*
X-28833Y-54394D01*
X-28721Y-54339D01*
X-28555Y-54283D01*
X-28360Y-54172D01*
X-28138Y-54089D01*
X-27888Y-53978D01*
X-27611Y-53867D01*
X-27277Y-53783D01*
X-26944Y-53672D01*
X-26194Y-53478D01*
X-25361Y-53367D01*
X-24500Y-53311D01*
X-24195D01*
X-24001Y-53339D01*
D02*
G37*
G36*
X-5922Y-72611D02*
Y-72639D01*
X-5978Y-72750D01*
X-6033Y-72889D01*
X-6117Y-73111D01*
X-6200Y-73361D01*
X-6311Y-73639D01*
X-6450Y-73944D01*
X-6561Y-74278D01*
X-6866Y-74972D01*
X-7144Y-75666D01*
X-7311Y-75999D01*
X-7450Y-76305D01*
X-7561Y-76583D01*
X-7700Y-76805D01*
Y-76832D01*
X-7727Y-76860D01*
X-7783Y-76944D01*
X-7838Y-77055D01*
X-8033Y-77332D01*
X-8255Y-77666D01*
X-8533Y-78054D01*
X-8866Y-78415D01*
X-9227Y-78776D01*
X-9616Y-79082D01*
X-9671Y-79110D01*
X-9810Y-79193D01*
X-10032Y-79332D01*
X-10338Y-79443D01*
X-10727Y-79582D01*
X-11171Y-79721D01*
X-11643Y-79804D01*
X-12198Y-79832D01*
X-12365D01*
X-12559Y-79804D01*
X-12781Y-79776D01*
X-13087Y-79748D01*
X-13448Y-79665D01*
X-13809Y-79582D01*
X-14225Y-79443D01*
X-14586Y-76499D01*
X-14531D01*
X-14420Y-76555D01*
X-14225Y-76583D01*
X-13976Y-76638D01*
X-13698Y-76694D01*
X-13392Y-76749D01*
X-13087Y-76777D01*
X-12809Y-76805D01*
X-12643D01*
X-12448Y-76777D01*
X-12198Y-76749D01*
X-11948Y-76722D01*
X-11671Y-76638D01*
X-11393Y-76555D01*
X-11143Y-76444D01*
X-11115Y-76416D01*
X-11032Y-76388D01*
X-10921Y-76305D01*
X-10782Y-76194D01*
X-10615Y-76055D01*
X-10421Y-75888D01*
X-10088Y-75472D01*
X-10060Y-75444D01*
X-10032Y-75361D01*
X-9949Y-75222D01*
X-9866Y-75000D01*
X-9727Y-74694D01*
X-9560Y-74278D01*
X-9477Y-74028D01*
X-9366Y-73750D01*
X-9255Y-73445D01*
X-9144Y-73111D01*
X-9116Y-73056D01*
X-9060Y-72917D01*
X-8977Y-72667D01*
X-8838Y-72334D01*
X-15864Y-53728D01*
X-12531D01*
X-8671Y-64503D01*
Y-64530D01*
X-8644Y-64586D01*
X-8588Y-64697D01*
X-8533Y-64864D01*
X-8477Y-65058D01*
X-8394Y-65280D01*
X-8310Y-65530D01*
X-8199Y-65808D01*
X-8005Y-66447D01*
X-7755Y-67196D01*
X-7533Y-67974D01*
X-7311Y-68807D01*
Y-68779D01*
X-7283Y-68696D01*
X-7255Y-68585D01*
X-7200Y-68446D01*
X-7172Y-68252D01*
X-7089Y-68002D01*
X-7033Y-67752D01*
X-6950Y-67474D01*
X-6755Y-66835D01*
X-6533Y-66113D01*
X-6283Y-65364D01*
X-6006Y-64586D01*
X-2007Y-53728D01*
X1131D01*
X-5922Y-72611D01*
D02*
G37*
G36*
X-76763Y-72306D02*
X-79568D01*
Y-69585D01*
X-79596Y-69612D01*
X-79679Y-69723D01*
X-79790Y-69862D01*
X-79957Y-70084D01*
X-80179Y-70307D01*
X-80457Y-70584D01*
X-80762Y-70862D01*
X-81123Y-71140D01*
X-81540Y-71445D01*
X-81984Y-71723D01*
X-82456Y-72000D01*
X-82984Y-72223D01*
X-83567Y-72445D01*
X-84150Y-72584D01*
X-84789Y-72695D01*
X-85483Y-72723D01*
X-85761D01*
X-86067Y-72695D01*
X-86483Y-72639D01*
X-86955Y-72584D01*
X-87483Y-72473D01*
X-88010Y-72306D01*
X-88566Y-72112D01*
X-88594D01*
X-88621Y-72084D01*
X-88788Y-72000D01*
X-89038Y-71862D01*
X-89371Y-71667D01*
X-89704Y-71445D01*
X-90065Y-71167D01*
X-90399Y-70862D01*
X-90676Y-70529D01*
X-90704Y-70473D01*
X-90787Y-70362D01*
X-90899Y-70140D01*
X-91037Y-69862D01*
X-91204Y-69529D01*
X-91370Y-69140D01*
X-91509Y-68696D01*
X-91648Y-68196D01*
Y-68141D01*
X-91676Y-68029D01*
X-91704Y-67779D01*
X-91732Y-67474D01*
X-91759Y-67058D01*
X-91787Y-66558D01*
X-91815Y-65947D01*
Y-65252D01*
Y-53728D01*
X-88677D01*
Y-64031D01*
Y-64058D01*
Y-64142D01*
Y-64253D01*
Y-64419D01*
Y-64641D01*
Y-64864D01*
X-88649Y-65364D01*
Y-65919D01*
X-88594Y-66474D01*
X-88566Y-66974D01*
X-88538Y-67196D01*
X-88510Y-67363D01*
X-88482Y-67418D01*
X-88455Y-67557D01*
X-88371Y-67807D01*
X-88232Y-68085D01*
X-88066Y-68390D01*
X-87844Y-68696D01*
X-87566Y-69029D01*
X-87233Y-69307D01*
X-87177Y-69335D01*
X-87066Y-69418D01*
X-86844Y-69529D01*
X-86566Y-69640D01*
X-86233Y-69779D01*
X-85817Y-69890D01*
X-85344Y-69973D01*
X-84845Y-70001D01*
X-84595D01*
X-84345Y-69973D01*
X-83984Y-69918D01*
X-83567Y-69835D01*
X-83123Y-69696D01*
X-82679Y-69529D01*
X-82206Y-69279D01*
X-82179D01*
X-82151Y-69251D01*
X-82012Y-69140D01*
X-81790Y-68974D01*
X-81512Y-68752D01*
X-81235Y-68474D01*
X-80929Y-68141D01*
X-80651Y-67752D01*
X-80429Y-67307D01*
Y-67280D01*
X-80401Y-67252D01*
X-80374Y-67169D01*
X-80346Y-67085D01*
X-80318Y-66946D01*
X-80263Y-66780D01*
X-80207Y-66613D01*
X-80151Y-66391D01*
X-80068Y-65863D01*
X-79985Y-65252D01*
X-79929Y-64530D01*
X-79901Y-63697D01*
Y-53728D01*
X-76763D01*
Y-72306D01*
D02*
G37*
G36*
X78443Y-50007D02*
X68196D01*
X66835Y-56894D01*
X66863Y-56866D01*
X66946Y-56810D01*
X67057Y-56755D01*
X67224Y-56644D01*
X67446Y-56533D01*
X67696Y-56394D01*
X67974Y-56227D01*
X68307Y-56088D01*
X68640Y-55949D01*
X69029Y-55783D01*
X69834Y-55533D01*
X70279Y-55422D01*
X70723Y-55339D01*
X71195Y-55311D01*
X71667Y-55283D01*
X71806D01*
X72000Y-55311D01*
X72223D01*
X72500Y-55366D01*
X72834Y-55394D01*
X73222Y-55477D01*
X73611Y-55561D01*
X74055Y-55700D01*
X74500Y-55838D01*
X74972Y-56033D01*
X75444Y-56255D01*
X75916Y-56533D01*
X76388Y-56838D01*
X76860Y-57199D01*
X77304Y-57616D01*
X77332Y-57644D01*
X77416Y-57727D01*
X77527Y-57866D01*
X77665Y-58032D01*
X77860Y-58254D01*
X78054Y-58560D01*
X78249Y-58865D01*
X78471Y-59226D01*
X78693Y-59643D01*
X78887Y-60115D01*
X79110Y-60587D01*
X79276Y-61142D01*
X79415Y-61698D01*
X79526Y-62309D01*
X79609Y-62947D01*
X79637Y-63614D01*
Y-63642D01*
Y-63781D01*
Y-63947D01*
X79609Y-64197D01*
X79582Y-64503D01*
X79526Y-64836D01*
X79470Y-65225D01*
X79387Y-65669D01*
X79276Y-66113D01*
X79137Y-66613D01*
X78971Y-67113D01*
X78776Y-67613D01*
X78554Y-68113D01*
X78276Y-68640D01*
X77971Y-69140D01*
X77610Y-69612D01*
X77582Y-69640D01*
X77499Y-69751D01*
X77360Y-69890D01*
X77166Y-70084D01*
X76916Y-70334D01*
X76610Y-70584D01*
X76249Y-70890D01*
X75833Y-71167D01*
X75388Y-71445D01*
X74888Y-71751D01*
X74333Y-72000D01*
X73722Y-72223D01*
X73083Y-72445D01*
X72389Y-72584D01*
X71667Y-72695D01*
X70890Y-72723D01*
X70556D01*
X70306Y-72695D01*
X70001Y-72667D01*
X69668Y-72611D01*
X69279Y-72556D01*
X68862Y-72473D01*
X68418Y-72389D01*
X67946Y-72250D01*
X67474Y-72084D01*
X67002Y-71890D01*
X66530Y-71667D01*
X66058Y-71417D01*
X65613Y-71112D01*
X65169Y-70779D01*
X65141Y-70751D01*
X65086Y-70695D01*
X64975Y-70584D01*
X64836Y-70418D01*
X64641Y-70223D01*
X64447Y-70001D01*
X64253Y-69723D01*
X64030Y-69390D01*
X63808Y-69057D01*
X63586Y-68668D01*
X63392Y-68224D01*
X63197Y-67779D01*
X63003Y-67280D01*
X62864Y-66752D01*
X62753Y-66169D01*
X62670Y-65586D01*
X65974Y-65336D01*
Y-65364D01*
X66002Y-65447D01*
X66030Y-65558D01*
X66058Y-65724D01*
X66085Y-65919D01*
X66169Y-66169D01*
X66307Y-66697D01*
X66530Y-67280D01*
X66835Y-67891D01*
X67196Y-68446D01*
X67418Y-68696D01*
X67641Y-68946D01*
X67668D01*
X67696Y-69001D01*
X67779Y-69057D01*
X67890Y-69140D01*
X68168Y-69335D01*
X68557Y-69529D01*
X69029Y-69751D01*
X69584Y-69946D01*
X70195Y-70084D01*
X70529Y-70112D01*
X70890Y-70140D01*
X71112D01*
X71278Y-70112D01*
X71473Y-70084D01*
X71695Y-70057D01*
X72223Y-69918D01*
X72834Y-69723D01*
X73139Y-69585D01*
X73472Y-69418D01*
X73805Y-69224D01*
X74111Y-69001D01*
X74416Y-68752D01*
X74722Y-68446D01*
X74750Y-68418D01*
X74777Y-68363D01*
X74861Y-68279D01*
X74972Y-68141D01*
X75083Y-67946D01*
X75222Y-67752D01*
X75361Y-67502D01*
X75527Y-67224D01*
X75666Y-66919D01*
X75805Y-66585D01*
X75944Y-66197D01*
X76055Y-65808D01*
X76166Y-65364D01*
X76249Y-64891D01*
X76277Y-64419D01*
X76305Y-63892D01*
Y-63864D01*
Y-63781D01*
Y-63642D01*
X76277Y-63447D01*
X76249Y-63225D01*
X76221Y-62947D01*
X76166Y-62670D01*
X76110Y-62337D01*
X75944Y-61670D01*
X75666Y-60948D01*
X75499Y-60615D01*
X75277Y-60282D01*
X75055Y-59948D01*
X74777Y-59643D01*
X74750Y-59615D01*
X74722Y-59587D01*
X74611Y-59504D01*
X74500Y-59393D01*
X74361Y-59282D01*
X74166Y-59143D01*
X73972Y-59004D01*
X73722Y-58838D01*
X73444Y-58699D01*
X73167Y-58560D01*
X72473Y-58310D01*
X72111Y-58199D01*
X71695Y-58116D01*
X71278Y-58088D01*
X70834Y-58060D01*
X70584D01*
X70279Y-58088D01*
X69918Y-58143D01*
X69473Y-58227D01*
X69001Y-58365D01*
X68529Y-58532D01*
X68057Y-58782D01*
X68002Y-58810D01*
X67863Y-58893D01*
X67641Y-59060D01*
X67363Y-59254D01*
X67085Y-59532D01*
X66752Y-59837D01*
X66446Y-60198D01*
X66169Y-60587D01*
X63225Y-60171D01*
X65697Y-47008D01*
X78443D01*
Y-50007D01*
D02*
G37*
G36*
X161309Y-55838D02*
X151228Y-67613D01*
X149257Y-69779D01*
X149340D01*
X149479Y-69751D01*
X149618D01*
X149812Y-69723D01*
X150034D01*
X150284Y-69696D01*
X150562Y-69668D01*
X151173Y-69640D01*
X151839Y-69612D01*
X152561Y-69585D01*
X161864D01*
Y-72306D01*
X145424D01*
Y-69751D01*
X157199Y-56199D01*
X157004D01*
X156866Y-56227D01*
X156477D01*
X156005Y-56255D01*
X155449Y-56283D01*
X154866D01*
X154255Y-56310D01*
X146118D01*
Y-53728D01*
X161309D01*
Y-55838D01*
D02*
G37*
G36*
X58060Y-72306D02*
X54478D01*
Y-68724D01*
X58060D01*
Y-72306D01*
D02*
G37*
G36*
X24736D02*
X21598D01*
Y-52284D01*
X21542Y-52339D01*
X21403Y-52478D01*
X21154Y-52673D01*
X20793Y-52950D01*
X20376Y-53284D01*
X19848Y-53645D01*
X19265Y-54033D01*
X18599Y-54450D01*
X18571D01*
X18515Y-54505D01*
X18432Y-54561D01*
X18293Y-54616D01*
X18127Y-54728D01*
X17932Y-54811D01*
X17488Y-55061D01*
X16988Y-55311D01*
X16433Y-55589D01*
X15849Y-55838D01*
X15294Y-56061D01*
Y-53034D01*
X15322Y-53006D01*
X15405Y-52978D01*
X15544Y-52895D01*
X15738Y-52811D01*
X15960Y-52700D01*
X16238Y-52534D01*
X16544Y-52367D01*
X16849Y-52201D01*
X17571Y-51756D01*
X18349Y-51229D01*
X19154Y-50673D01*
X19904Y-50034D01*
X19932Y-50007D01*
X19987Y-49951D01*
X20098Y-49868D01*
X20237Y-49729D01*
X20376Y-49562D01*
X20570Y-49396D01*
X20987Y-48924D01*
X21459Y-48424D01*
X21931Y-47841D01*
X22348Y-47230D01*
X22709Y-46591D01*
X24736D01*
Y-72306D01*
D02*
G37*
G36*
X-147466Y-49701D02*
X-161351D01*
Y-57644D01*
X-149327D01*
Y-60670D01*
X-161351D01*
Y-72306D01*
X-164739D01*
Y-46674D01*
X-147466D01*
Y-49701D01*
D02*
G37*
G36*
X41675Y-46619D02*
X41870Y-46646D01*
X42370Y-46702D01*
X42925Y-46785D01*
X43536Y-46952D01*
X44147Y-47146D01*
X44758Y-47424D01*
X44786D01*
X44841Y-47452D01*
X44925Y-47507D01*
X45036Y-47591D01*
X45313Y-47757D01*
X45674Y-48035D01*
X46091Y-48368D01*
X46507Y-48785D01*
X46952Y-49285D01*
X47341Y-49840D01*
Y-49868D01*
X47396Y-49923D01*
X47424Y-50007D01*
X47507Y-50118D01*
X47591Y-50257D01*
X47702Y-50451D01*
X47785Y-50673D01*
X47924Y-50895D01*
X48174Y-51451D01*
X48424Y-52090D01*
X48701Y-52839D01*
X48924Y-53645D01*
Y-53672D01*
X48951Y-53756D01*
X48979Y-53867D01*
X49007Y-54061D01*
X49062Y-54283D01*
X49118Y-54561D01*
X49173Y-54866D01*
X49229Y-55228D01*
X49257Y-55644D01*
X49312Y-56088D01*
X49368Y-56588D01*
X49423Y-57116D01*
X49451Y-57699D01*
X49479Y-58310D01*
X49507Y-58976D01*
Y-59671D01*
Y-59726D01*
Y-59865D01*
Y-60115D01*
Y-60421D01*
X49479Y-60809D01*
X49451Y-61226D01*
X49423Y-61726D01*
X49396Y-62253D01*
X49340Y-62836D01*
X49284Y-63420D01*
X49118Y-64641D01*
X48868Y-65836D01*
X48729Y-66419D01*
X48562Y-66946D01*
Y-66974D01*
X48507Y-67058D01*
X48479Y-67224D01*
X48396Y-67391D01*
X48285Y-67641D01*
X48174Y-67891D01*
X48035Y-68196D01*
X47868Y-68529D01*
X47480Y-69224D01*
X47007Y-69918D01*
X46452Y-70612D01*
X46119Y-70917D01*
X45785Y-71223D01*
X45758Y-71251D01*
X45702Y-71279D01*
X45591Y-71362D01*
X45452Y-71445D01*
X45286Y-71556D01*
X45063Y-71695D01*
X44813Y-71834D01*
X44508Y-71973D01*
X44203Y-72112D01*
X43842Y-72250D01*
X43481Y-72362D01*
X43064Y-72500D01*
X42620Y-72584D01*
X42148Y-72667D01*
X41675Y-72695D01*
X41148Y-72723D01*
X40981D01*
X40787Y-72695D01*
X40537Y-72667D01*
X40231Y-72639D01*
X39871Y-72584D01*
X39482Y-72500D01*
X39037Y-72389D01*
X38593Y-72250D01*
X38121Y-72084D01*
X37621Y-71862D01*
X37149Y-71612D01*
X36677Y-71306D01*
X36205Y-70945D01*
X35761Y-70556D01*
X35344Y-70084D01*
X35316Y-70057D01*
X35233Y-69946D01*
X35122Y-69751D01*
X34955Y-69473D01*
X34761Y-69112D01*
X34539Y-68696D01*
X34317Y-68168D01*
X34094Y-67585D01*
X33844Y-66891D01*
X33622Y-66141D01*
X33400Y-65280D01*
X33206Y-64336D01*
X33039Y-63309D01*
X32928Y-62198D01*
X32845Y-60976D01*
X32817Y-59671D01*
Y-59615D01*
Y-59476D01*
Y-59226D01*
X32845Y-58921D01*
Y-58532D01*
X32872Y-58088D01*
X32900Y-57588D01*
X32928Y-57060D01*
X32983Y-56477D01*
X33039Y-55894D01*
X33206Y-54672D01*
X33428Y-53478D01*
X33567Y-52895D01*
X33733Y-52367D01*
Y-52339D01*
X33789Y-52256D01*
X33844Y-52090D01*
X33900Y-51895D01*
X34011Y-51673D01*
X34122Y-51395D01*
X34261Y-51117D01*
X34428Y-50784D01*
X34816Y-50090D01*
X35316Y-49396D01*
X35872Y-48702D01*
X36177Y-48396D01*
X36510Y-48091D01*
X36538Y-48063D01*
X36594Y-48035D01*
X36705Y-47952D01*
X36843Y-47868D01*
X37010Y-47730D01*
X37232Y-47618D01*
X37482Y-47480D01*
X37788Y-47341D01*
X38093Y-47202D01*
X38454Y-47063D01*
X38843Y-46924D01*
X39232Y-46813D01*
X39676Y-46730D01*
X40148Y-46646D01*
X40648Y-46619D01*
X41148Y-46591D01*
X41481D01*
X41675Y-46619D01*
D02*
G37*
G36*
X-63850Y-53339D02*
X-63600D01*
X-63267Y-53395D01*
X-62906Y-53450D01*
X-62490Y-53534D01*
X-62045Y-53617D01*
X-61573Y-53756D01*
X-61101Y-53922D01*
X-60574Y-54144D01*
X-60074Y-54394D01*
X-59574Y-54672D01*
X-59074Y-55033D01*
X-58574Y-55422D01*
X-58130Y-55866D01*
X-58102Y-55894D01*
X-58019Y-55977D01*
X-57908Y-56116D01*
X-57769Y-56338D01*
X-57574Y-56588D01*
X-57380Y-56894D01*
X-57158Y-57282D01*
X-56936Y-57699D01*
X-56741Y-58171D01*
X-56519Y-58699D01*
X-56325Y-59282D01*
X-56130Y-59921D01*
X-55992Y-60615D01*
X-55880Y-61365D01*
X-55797Y-62142D01*
X-55769Y-62975D01*
Y-63031D01*
Y-63170D01*
Y-63447D01*
X-55797Y-63808D01*
X-69654D01*
Y-63836D01*
Y-63947D01*
X-69627Y-64114D01*
X-69599Y-64308D01*
X-69571Y-64586D01*
X-69516Y-64864D01*
X-69460Y-65197D01*
X-69377Y-65558D01*
X-69155Y-66308D01*
X-68849Y-67113D01*
X-68655Y-67474D01*
X-68460Y-67863D01*
X-68210Y-68196D01*
X-67933Y-68529D01*
X-67905Y-68557D01*
X-67849Y-68585D01*
X-67766Y-68668D01*
X-67655Y-68779D01*
X-67488Y-68890D01*
X-67322Y-69029D01*
X-67100Y-69196D01*
X-66850Y-69335D01*
X-66294Y-69640D01*
X-65628Y-69890D01*
X-65267Y-70001D01*
X-64878Y-70057D01*
X-64461Y-70112D01*
X-64045Y-70140D01*
X-63878D01*
X-63767Y-70112D01*
X-63434Y-70084D01*
X-63017Y-70029D01*
X-62573Y-69918D01*
X-62073Y-69751D01*
X-61573Y-69557D01*
X-61101Y-69251D01*
X-61073D01*
X-61046Y-69196D01*
X-60907Y-69085D01*
X-60685Y-68862D01*
X-60407Y-68529D01*
X-60101Y-68141D01*
X-59768Y-67613D01*
X-59435Y-67002D01*
X-59157Y-66308D01*
X-55880Y-66724D01*
Y-66752D01*
X-55908Y-66863D01*
X-55964Y-67002D01*
X-56047Y-67196D01*
X-56130Y-67446D01*
X-56242Y-67724D01*
X-56380Y-68029D01*
X-56519Y-68363D01*
X-56908Y-69057D01*
X-57408Y-69807D01*
X-57713Y-70168D01*
X-58019Y-70529D01*
X-58352Y-70862D01*
X-58741Y-71167D01*
X-58769Y-71195D01*
X-58824Y-71223D01*
X-58963Y-71306D01*
X-59102Y-71417D01*
X-59324Y-71529D01*
X-59574Y-71667D01*
X-59852Y-71806D01*
X-60185Y-71945D01*
X-60546Y-72084D01*
X-60962Y-72223D01*
X-61379Y-72362D01*
X-61851Y-72473D01*
X-62351Y-72584D01*
X-62879Y-72667D01*
X-63462Y-72695D01*
X-64045Y-72723D01*
X-64211D01*
X-64434Y-72695D01*
X-64711D01*
X-65072Y-72639D01*
X-65461Y-72584D01*
X-65905Y-72500D01*
X-66378Y-72417D01*
X-66877Y-72278D01*
X-67405Y-72112D01*
X-67960Y-71917D01*
X-68488Y-71667D01*
X-69043Y-71390D01*
X-69543Y-71056D01*
X-70043Y-70668D01*
X-70515Y-70223D01*
X-70543Y-70196D01*
X-70626Y-70112D01*
X-70737Y-69973D01*
X-70876Y-69751D01*
X-71071Y-69501D01*
X-71265Y-69196D01*
X-71487Y-68835D01*
X-71682Y-68418D01*
X-71904Y-67946D01*
X-72126Y-67418D01*
X-72320Y-66835D01*
X-72515Y-66197D01*
X-72654Y-65530D01*
X-72765Y-64808D01*
X-72848Y-64031D01*
X-72876Y-63197D01*
Y-63142D01*
Y-63003D01*
X-72848Y-62753D01*
Y-62420D01*
X-72792Y-62031D01*
X-72737Y-61587D01*
X-72681Y-61059D01*
X-72570Y-60532D01*
X-72459Y-59948D01*
X-72293Y-59365D01*
X-72098Y-58754D01*
X-71876Y-58143D01*
X-71598Y-57560D01*
X-71265Y-56977D01*
X-70904Y-56422D01*
X-70487Y-55922D01*
X-70460Y-55894D01*
X-70376Y-55811D01*
X-70238Y-55672D01*
X-70043Y-55505D01*
X-69821Y-55311D01*
X-69516Y-55089D01*
X-69182Y-54866D01*
X-68793Y-54616D01*
X-68377Y-54367D01*
X-67905Y-54144D01*
X-67377Y-53922D01*
X-66822Y-53728D01*
X-66211Y-53561D01*
X-65600Y-53422D01*
X-64906Y-53339D01*
X-64211Y-53311D01*
X-64045D01*
X-63850Y-53339D01*
D02*
G37*
G36*
X-123584D02*
X-123334D01*
X-123001Y-53395D01*
X-122640Y-53450D01*
X-122223Y-53534D01*
X-121779Y-53617D01*
X-121307Y-53756D01*
X-120835Y-53922D01*
X-120307Y-54144D01*
X-119807Y-54394D01*
X-119307Y-54672D01*
X-118807Y-55033D01*
X-118307Y-55422D01*
X-117863Y-55866D01*
X-117835Y-55894D01*
X-117752Y-55977D01*
X-117641Y-56116D01*
X-117502Y-56338D01*
X-117308Y-56588D01*
X-117113Y-56894D01*
X-116891Y-57282D01*
X-116669Y-57699D01*
X-116475Y-58171D01*
X-116253Y-58699D01*
X-116058Y-59282D01*
X-115864Y-59921D01*
X-115725Y-60615D01*
X-115614Y-61365D01*
X-115530Y-62142D01*
X-115503Y-62975D01*
Y-63031D01*
Y-63170D01*
Y-63447D01*
X-115530Y-63808D01*
X-129388D01*
Y-63836D01*
Y-63947D01*
X-129360Y-64114D01*
X-129332Y-64308D01*
X-129304Y-64586D01*
X-129249Y-64864D01*
X-129193Y-65197D01*
X-129110Y-65558D01*
X-128888Y-66308D01*
X-128582Y-67113D01*
X-128388Y-67474D01*
X-128194Y-67863D01*
X-127944Y-68196D01*
X-127666Y-68529D01*
X-127638Y-68557D01*
X-127583Y-68585D01*
X-127499Y-68668D01*
X-127388Y-68779D01*
X-127222Y-68890D01*
X-127055Y-69029D01*
X-126833Y-69196D01*
X-126583Y-69335D01*
X-126028Y-69640D01*
X-125361Y-69890D01*
X-125000Y-70001D01*
X-124611Y-70057D01*
X-124195Y-70112D01*
X-123778Y-70140D01*
X-123611D01*
X-123500Y-70112D01*
X-123167Y-70084D01*
X-122751Y-70029D01*
X-122306Y-69918D01*
X-121807Y-69751D01*
X-121307Y-69557D01*
X-120835Y-69251D01*
X-120807D01*
X-120779Y-69196D01*
X-120640Y-69085D01*
X-120418Y-68862D01*
X-120140Y-68529D01*
X-119835Y-68141D01*
X-119501Y-67613D01*
X-119168Y-67002D01*
X-118891Y-66308D01*
X-115614Y-66724D01*
Y-66752D01*
X-115641Y-66863D01*
X-115697Y-67002D01*
X-115780Y-67196D01*
X-115864Y-67446D01*
X-115975Y-67724D01*
X-116114Y-68029D01*
X-116253Y-68363D01*
X-116641Y-69057D01*
X-117141Y-69807D01*
X-117447Y-70168D01*
X-117752Y-70529D01*
X-118085Y-70862D01*
X-118474Y-71167D01*
X-118502Y-71195D01*
X-118557Y-71223D01*
X-118696Y-71306D01*
X-118835Y-71417D01*
X-119057Y-71529D01*
X-119307Y-71667D01*
X-119585Y-71806D01*
X-119918Y-71945D01*
X-120279Y-72084D01*
X-120696Y-72223D01*
X-121112Y-72362D01*
X-121584Y-72473D01*
X-122084Y-72584D01*
X-122612Y-72667D01*
X-123195Y-72695D01*
X-123778Y-72723D01*
X-123945D01*
X-124167Y-72695D01*
X-124445D01*
X-124806Y-72639D01*
X-125194Y-72584D01*
X-125639Y-72500D01*
X-126111Y-72417D01*
X-126611Y-72278D01*
X-127138Y-72112D01*
X-127694Y-71917D01*
X-128221Y-71667D01*
X-128777Y-71390D01*
X-129277Y-71056D01*
X-129776Y-70668D01*
X-130248Y-70223D01*
X-130276Y-70196D01*
X-130360Y-70112D01*
X-130471Y-69973D01*
X-130610Y-69751D01*
X-130804Y-69501D01*
X-130998Y-69196D01*
X-131220Y-68835D01*
X-131415Y-68418D01*
X-131637Y-67946D01*
X-131859Y-67418D01*
X-132054Y-66835D01*
X-132248Y-66197D01*
X-132387Y-65530D01*
X-132498Y-64808D01*
X-132581Y-64031D01*
X-132609Y-63197D01*
Y-63142D01*
Y-63003D01*
X-132581Y-62753D01*
Y-62420D01*
X-132526Y-62031D01*
X-132470Y-61587D01*
X-132415Y-61059D01*
X-132304Y-60532D01*
X-132192Y-59948D01*
X-132026Y-59365D01*
X-131831Y-58754D01*
X-131609Y-58143D01*
X-131332Y-57560D01*
X-130998Y-56977D01*
X-130637Y-56422D01*
X-130221Y-55922D01*
X-130193Y-55894D01*
X-130110Y-55811D01*
X-129971Y-55672D01*
X-129776Y-55505D01*
X-129554Y-55311D01*
X-129249Y-55089D01*
X-128916Y-54866D01*
X-128527Y-54616D01*
X-128110Y-54367D01*
X-127638Y-54144D01*
X-127111Y-53922D01*
X-126555Y-53728D01*
X-125944Y-53561D01*
X-125333Y-53422D01*
X-124639Y-53339D01*
X-123945Y-53311D01*
X-123778D01*
X-123584Y-53339D01*
D02*
G37*
G36*
X-104617D02*
X-104367Y-53367D01*
X-104089Y-53395D01*
X-103756Y-53478D01*
X-103395Y-53561D01*
X-102978Y-53672D01*
X-102562Y-53839D01*
X-102118Y-54033D01*
X-101645Y-54255D01*
X-101201Y-54533D01*
X-100757Y-54866D01*
X-100312Y-55255D01*
X-99896Y-55700D01*
X-99507Y-56227D01*
Y-53728D01*
X-96675D01*
Y-79415D01*
X-99813D01*
Y-70334D01*
X-99840Y-70390D01*
X-99951Y-70501D01*
X-100118Y-70695D01*
X-100340Y-70945D01*
X-100646Y-71195D01*
X-101007Y-71501D01*
X-101423Y-71778D01*
X-101895Y-72056D01*
X-101923D01*
X-101951Y-72084D01*
X-102118Y-72167D01*
X-102395Y-72278D01*
X-102728Y-72389D01*
X-103145Y-72500D01*
X-103617Y-72611D01*
X-104117Y-72695D01*
X-104672Y-72723D01*
X-104811D01*
X-105006Y-72695D01*
X-105228Y-72667D01*
X-105506Y-72639D01*
X-105839Y-72584D01*
X-106228Y-72500D01*
X-106644Y-72389D01*
X-107061Y-72250D01*
X-107533Y-72084D01*
X-108005Y-71862D01*
X-108477Y-71612D01*
X-108977Y-71306D01*
X-109449Y-70945D01*
X-109921Y-70556D01*
X-110393Y-70084D01*
X-110421Y-70057D01*
X-110504Y-69973D01*
X-110615Y-69807D01*
X-110754Y-69612D01*
X-110948Y-69335D01*
X-111143Y-69001D01*
X-111365Y-68640D01*
X-111559Y-68196D01*
X-111782Y-67696D01*
X-112004Y-67169D01*
X-112198Y-66558D01*
X-112392Y-65919D01*
X-112531Y-65225D01*
X-112642Y-64503D01*
X-112726Y-63697D01*
X-112753Y-62864D01*
Y-62836D01*
Y-62725D01*
Y-62586D01*
X-112726Y-62392D01*
Y-62142D01*
X-112698Y-61865D01*
X-112670Y-61531D01*
X-112642Y-61170D01*
X-112531Y-60393D01*
X-112365Y-59560D01*
X-112115Y-58699D01*
X-111809Y-57838D01*
Y-57810D01*
X-111754Y-57727D01*
X-111698Y-57616D01*
X-111615Y-57477D01*
X-111532Y-57282D01*
X-111393Y-57060D01*
X-111087Y-56588D01*
X-110698Y-56033D01*
X-110226Y-55477D01*
X-109643Y-54950D01*
X-109004Y-54478D01*
X-108977Y-54450D01*
X-108921Y-54422D01*
X-108810Y-54367D01*
X-108671Y-54283D01*
X-108505Y-54200D01*
X-108310Y-54117D01*
X-108060Y-54006D01*
X-107810Y-53895D01*
X-107199Y-53672D01*
X-106505Y-53506D01*
X-105755Y-53367D01*
X-104950Y-53311D01*
X-104783D01*
X-104617Y-53339D01*
D02*
G37*
%LPC*%
G36*
X52464Y44295D02*
Y44267D01*
X52436Y44184D01*
X52409Y44045D01*
X52381Y43878D01*
X52325Y43628D01*
X52270Y43378D01*
X52187Y43073D01*
X52103Y42739D01*
X52020Y42379D01*
X51909Y41990D01*
X51659Y41157D01*
X51381Y40268D01*
X51076Y39352D01*
X48243Y31826D01*
X56991D01*
X54297Y38935D01*
Y38963D01*
X54241Y39074D01*
X54186Y39241D01*
X54103Y39490D01*
X53992Y39740D01*
X53880Y40074D01*
X53742Y40435D01*
X53603Y40823D01*
X53325Y41684D01*
X53020Y42573D01*
X52714Y43461D01*
X52464Y44295D01*
D02*
G37*
G36*
X10643Y43934D02*
X3283D01*
Y34769D01*
X10198D01*
X10420Y34797D01*
X10698D01*
X11004Y34825D01*
X11365Y34881D01*
X11726Y34936D01*
X12503Y35075D01*
X13281Y35297D01*
X13642Y35436D01*
X13975Y35603D01*
X14308Y35769D01*
X14586Y35991D01*
X14614Y36019D01*
X14641Y36047D01*
X14725Y36130D01*
X14808Y36214D01*
X15030Y36491D01*
X15280Y36880D01*
X15530Y37380D01*
X15752Y37963D01*
X15919Y38657D01*
X15947Y39018D01*
X15974Y39435D01*
Y39463D01*
Y39518D01*
Y39601D01*
Y39713D01*
X15919Y40018D01*
X15863Y40379D01*
X15780Y40823D01*
X15613Y41268D01*
X15419Y41740D01*
X15141Y42184D01*
X15113Y42240D01*
X15002Y42379D01*
X14808Y42573D01*
X14586Y42795D01*
X14253Y43045D01*
X13892Y43295D01*
X13475Y43517D01*
X13003Y43684D01*
X12975D01*
X12836Y43712D01*
X12614Y43767D01*
X12281Y43823D01*
X12087D01*
X11864Y43850D01*
X11587Y43878D01*
X11309Y43906D01*
X10976D01*
X10643Y43934D01*
D02*
G37*
G36*
X-75916Y44489D02*
X-76555D01*
X-76722Y44461D01*
X-77000D01*
X-77305Y44406D01*
X-77666Y44350D01*
X-78055Y44267D01*
X-78499Y44184D01*
X-78971Y44045D01*
X-79471Y43878D01*
X-79999Y43684D01*
X-80499Y43434D01*
X-81026Y43156D01*
X-81554Y42823D01*
X-82082Y42434D01*
X-82581Y41990D01*
X-82609Y41962D01*
X-82692Y41879D01*
X-82831Y41712D01*
X-82970Y41518D01*
X-83192Y41240D01*
X-83387Y40907D01*
X-83637Y40490D01*
X-83859Y40046D01*
X-84109Y39490D01*
X-84359Y38879D01*
X-84553Y38213D01*
X-84747Y37463D01*
X-84914Y36658D01*
X-85053Y35769D01*
X-85136Y34797D01*
X-85164Y33742D01*
Y33687D01*
Y33548D01*
X-85136Y33298D01*
Y32965D01*
X-85081Y32576D01*
X-85025Y32131D01*
X-84970Y31631D01*
X-84859Y31104D01*
X-84720Y30521D01*
X-84553Y29910D01*
X-84359Y29327D01*
X-84109Y28716D01*
X-83831Y28105D01*
X-83498Y27522D01*
X-83137Y26966D01*
X-82692Y26439D01*
X-82665Y26411D01*
X-82581Y26327D01*
X-82442Y26189D01*
X-82248Y26022D01*
X-81998Y25828D01*
X-81693Y25605D01*
X-81359Y25355D01*
X-80971Y25133D01*
X-80554Y24883D01*
X-80054Y24633D01*
X-79554Y24411D01*
X-78999Y24217D01*
X-78416Y24050D01*
X-77777Y23911D01*
X-77138Y23828D01*
X-76444Y23800D01*
X-76278D01*
X-76083Y23828D01*
X-75805Y23856D01*
X-75472Y23884D01*
X-75111Y23939D01*
X-74667Y24023D01*
X-74223Y24134D01*
X-73723Y24272D01*
X-73223Y24439D01*
X-72695Y24661D01*
X-72168Y24939D01*
X-71640Y25244D01*
X-71112Y25578D01*
X-70613Y25994D01*
X-70140Y26466D01*
X-70113Y26494D01*
X-70029Y26605D01*
X-69918Y26744D01*
X-69752Y26966D01*
X-69557Y27244D01*
X-69335Y27577D01*
X-69113Y27966D01*
X-68891Y28438D01*
X-68669Y28938D01*
X-68419Y29521D01*
X-68224Y30132D01*
X-68030Y30826D01*
X-67863Y31576D01*
X-67752Y32354D01*
X-67669Y33214D01*
X-67641Y34103D01*
Y34131D01*
Y34242D01*
Y34409D01*
X-67669Y34631D01*
Y34908D01*
X-67697Y35214D01*
X-67724Y35575D01*
X-67780Y35964D01*
X-67891Y36825D01*
X-68085Y37741D01*
X-68363Y38657D01*
X-68724Y39574D01*
Y39601D01*
X-68780Y39685D01*
X-68835Y39796D01*
X-68919Y39963D01*
X-69030Y40157D01*
X-69168Y40379D01*
X-69502Y40907D01*
X-69946Y41490D01*
X-70474Y42073D01*
X-71085Y42656D01*
X-71807Y43184D01*
X-71834Y43212D01*
X-71890Y43239D01*
X-72001Y43295D01*
X-72168Y43378D01*
X-72362Y43489D01*
X-72584Y43600D01*
X-72834Y43712D01*
X-73140Y43850D01*
X-73473Y43961D01*
X-73806Y44072D01*
X-74584Y44295D01*
X-75444Y44434D01*
X-75916Y44489D01*
D02*
G37*
G36*
X-35025Y-18082D02*
X-42384D01*
Y-27246D01*
X-35469D01*
X-35247Y-27219D01*
X-34970D01*
X-34664Y-27191D01*
X-34303Y-27135D01*
X-33942Y-27080D01*
X-33165Y-26941D01*
X-32387Y-26719D01*
X-32026Y-26580D01*
X-31693Y-26413D01*
X-31360Y-26247D01*
X-31082Y-26024D01*
X-31054Y-25997D01*
X-31026Y-25969D01*
X-30943Y-25886D01*
X-30860Y-25802D01*
X-30637Y-25525D01*
X-30388Y-25136D01*
X-30138Y-24636D01*
X-29915Y-24053D01*
X-29749Y-23359D01*
X-29721Y-22998D01*
X-29693Y-22581D01*
Y-22553D01*
Y-22498D01*
Y-22414D01*
Y-22303D01*
X-29749Y-21998D01*
X-29805Y-21637D01*
X-29888Y-21193D01*
X-30054Y-20748D01*
X-30249Y-20276D01*
X-30527Y-19832D01*
X-30554Y-19776D01*
X-30665Y-19637D01*
X-30860Y-19443D01*
X-31082Y-19221D01*
X-31415Y-18971D01*
X-31776Y-18721D01*
X-32193Y-18499D01*
X-32665Y-18332D01*
X-32693D01*
X-32831Y-18304D01*
X-33053Y-18249D01*
X-33387Y-18193D01*
X-33581D01*
X-33803Y-18166D01*
X-34081Y-18138D01*
X-34359Y-18110D01*
X-34692D01*
X-35025Y-18082D01*
D02*
G37*
G36*
X-72070Y-31356D02*
X-72098D01*
X-72154Y-31384D01*
X-72265Y-31412D01*
X-72404Y-31468D01*
X-72570Y-31551D01*
X-72792Y-31606D01*
X-73070Y-31690D01*
X-73348Y-31773D01*
X-73709Y-31856D01*
X-74098Y-31967D01*
X-74514Y-32051D01*
X-74986Y-32162D01*
X-75486Y-32273D01*
X-76014Y-32356D01*
X-76597Y-32467D01*
X-77236Y-32550D01*
X-77319D01*
X-77430Y-32578D01*
X-77541Y-32606D01*
X-77902Y-32662D01*
X-78319Y-32745D01*
X-78763Y-32828D01*
X-79207Y-32939D01*
X-79624Y-33050D01*
X-79985Y-33189D01*
X-80013Y-33217D01*
X-80124Y-33245D01*
X-80263Y-33328D01*
X-80429Y-33439D01*
X-80651Y-33606D01*
X-80846Y-33772D01*
X-81040Y-33967D01*
X-81235Y-34217D01*
X-81262Y-34244D01*
X-81290Y-34328D01*
X-81373Y-34467D01*
X-81429Y-34661D01*
X-81512Y-34883D01*
X-81595Y-35133D01*
X-81623Y-35411D01*
X-81651Y-35716D01*
Y-35772D01*
X-81623Y-35911D01*
X-81595Y-36161D01*
X-81540Y-36438D01*
X-81429Y-36772D01*
X-81262Y-37132D01*
X-81012Y-37466D01*
X-80707Y-37799D01*
X-80651Y-37827D01*
X-80540Y-37938D01*
X-80318Y-38049D01*
X-80013Y-38216D01*
X-79624Y-38354D01*
X-79124Y-38493D01*
X-78569Y-38604D01*
X-77930Y-38632D01*
X-77624D01*
X-77458Y-38604D01*
X-77263Y-38577D01*
X-76847Y-38521D01*
X-76319Y-38438D01*
X-75792Y-38299D01*
X-75236Y-38105D01*
X-74681Y-37855D01*
X-74653D01*
X-74625Y-37827D01*
X-74459Y-37716D01*
X-74209Y-37521D01*
X-73875Y-37271D01*
X-73542Y-36966D01*
X-73209Y-36577D01*
X-72876Y-36161D01*
X-72598Y-35661D01*
X-72570Y-35605D01*
X-72515Y-35466D01*
X-72431Y-35216D01*
X-72348Y-34883D01*
X-72265Y-34439D01*
X-72181Y-33883D01*
X-72126Y-33245D01*
X-72098Y-32523D01*
X-72070Y-31356D01*
D02*
G37*
G36*
X72722Y-17582D02*
X72528D01*
X72361Y-17610D01*
X72195Y-17638D01*
X71973Y-17666D01*
X71473Y-17805D01*
X70917Y-18027D01*
X70640Y-18166D01*
X70334Y-18360D01*
X70056Y-18554D01*
X69779Y-18804D01*
X69501Y-19082D01*
X69251Y-19415D01*
X69223Y-19443D01*
X69196Y-19526D01*
X69112Y-19665D01*
X69001Y-19887D01*
X68890Y-20165D01*
X68751Y-20498D01*
X68585Y-20887D01*
X68446Y-21387D01*
X68307Y-21942D01*
X68140Y-22553D01*
X68002Y-23275D01*
X67890Y-24053D01*
X67779Y-24914D01*
X67724Y-25886D01*
X67668Y-26913D01*
X67641Y-28052D01*
Y-28080D01*
Y-28135D01*
Y-28218D01*
Y-28330D01*
Y-28468D01*
Y-28663D01*
X67668Y-29079D01*
X67696Y-29579D01*
X67724Y-30162D01*
X67752Y-30801D01*
X67835Y-31468D01*
X68002Y-32884D01*
X68113Y-33578D01*
X68251Y-34272D01*
X68418Y-34911D01*
X68640Y-35494D01*
X68862Y-36022D01*
X69112Y-36466D01*
X69140Y-36494D01*
X69168Y-36549D01*
X69251Y-36660D01*
X69390Y-36799D01*
X69529Y-36938D01*
X69696Y-37105D01*
X70112Y-37494D01*
X70640Y-37882D01*
X71278Y-38188D01*
X71612Y-38327D01*
X71973Y-38438D01*
X72361Y-38493D01*
X72750Y-38521D01*
X72834D01*
X72972Y-38493D01*
X73111D01*
X73306Y-38465D01*
X73528Y-38410D01*
X74028Y-38271D01*
X74305Y-38160D01*
X74583Y-38021D01*
X74888Y-37855D01*
X75194Y-37632D01*
X75499Y-37410D01*
X75805Y-37132D01*
X76110Y-36799D01*
X76388Y-36438D01*
X76416Y-36410D01*
X76444Y-36327D01*
X76527Y-36216D01*
X76610Y-36022D01*
X76749Y-35772D01*
X76860Y-35439D01*
X76999Y-35050D01*
X77138Y-34606D01*
X77277Y-34078D01*
X77416Y-33467D01*
X77554Y-32800D01*
X77665Y-32023D01*
X77749Y-31162D01*
X77832Y-30218D01*
X77860Y-29190D01*
X77888Y-28052D01*
Y-28024D01*
Y-27968D01*
Y-27885D01*
Y-27774D01*
Y-27635D01*
Y-27469D01*
X77860Y-27024D01*
X77832Y-26524D01*
X77804Y-25941D01*
X77776Y-25302D01*
X77693Y-24636D01*
X77527Y-23220D01*
X77388Y-22525D01*
X77249Y-21859D01*
X77082Y-21220D01*
X76888Y-20609D01*
X76666Y-20109D01*
X76388Y-19665D01*
X76360Y-19637D01*
X76332Y-19582D01*
X76249Y-19471D01*
X76138Y-19332D01*
X75972Y-19193D01*
X75805Y-18999D01*
X75611Y-18804D01*
X75388Y-18610D01*
X74861Y-18249D01*
X74222Y-17916D01*
X73889Y-17777D01*
X73500Y-17666D01*
X73139Y-17610D01*
X72722Y-17582D01*
D02*
G37*
G36*
X-14753Y-24303D02*
X-14975D01*
X-15142Y-24331D01*
X-15336Y-24358D01*
X-15586Y-24386D01*
X-16114Y-24525D01*
X-16752Y-24747D01*
X-17058Y-24886D01*
X-17391Y-25053D01*
X-17725Y-25247D01*
X-18058Y-25497D01*
X-18363Y-25775D01*
X-18669Y-26080D01*
X-18696Y-26108D01*
X-18724Y-26163D01*
X-18808Y-26274D01*
X-18919Y-26413D01*
X-19030Y-26608D01*
X-19169Y-26830D01*
X-19307Y-27108D01*
X-19446Y-27413D01*
X-19585Y-27774D01*
X-19724Y-28163D01*
X-19863Y-28607D01*
X-19974Y-29079D01*
X-20085Y-29607D01*
X-20168Y-30162D01*
X-20196Y-30773D01*
X-20224Y-31412D01*
Y-31440D01*
Y-31578D01*
Y-31745D01*
X-20196Y-31995D01*
X-20168Y-32301D01*
X-20141Y-32634D01*
X-20085Y-33023D01*
X-20029Y-33411D01*
X-19835Y-34300D01*
X-19557Y-35189D01*
X-19391Y-35605D01*
X-19169Y-36022D01*
X-18946Y-36410D01*
X-18669Y-36772D01*
X-18641Y-36799D01*
X-18585Y-36855D01*
X-18502Y-36938D01*
X-18391Y-37049D01*
X-18224Y-37188D01*
X-18058Y-37327D01*
X-17836Y-37494D01*
X-17586Y-37632D01*
X-17030Y-37966D01*
X-16364Y-38243D01*
X-16003Y-38354D01*
X-15586Y-38438D01*
X-15197Y-38493D01*
X-14753Y-38521D01*
X-14531D01*
X-14364Y-38493D01*
X-14170Y-38465D01*
X-13920Y-38438D01*
X-13392Y-38299D01*
X-12781Y-38077D01*
X-12448Y-37938D01*
X-12115Y-37771D01*
X-11810Y-37577D01*
X-11476Y-37327D01*
X-11171Y-37049D01*
X-10865Y-36744D01*
X-10837Y-36716D01*
X-10810Y-36660D01*
X-10727Y-36549D01*
X-10615Y-36410D01*
X-10504Y-36216D01*
X-10365Y-35994D01*
X-10227Y-35716D01*
X-10060Y-35383D01*
X-9921Y-35050D01*
X-9782Y-34633D01*
X-9643Y-34189D01*
X-9532Y-33689D01*
X-9421Y-33161D01*
X-9338Y-32578D01*
X-9310Y-31967D01*
X-9282Y-31301D01*
Y-31273D01*
Y-31162D01*
Y-30968D01*
X-9310Y-30745D01*
X-9338Y-30440D01*
X-9366Y-30107D01*
X-9421Y-29746D01*
X-9477Y-29357D01*
X-9671Y-28524D01*
X-9782Y-28080D01*
X-9949Y-27635D01*
X-10143Y-27219D01*
X-10338Y-26802D01*
X-10588Y-26441D01*
X-10865Y-26080D01*
X-10893Y-26052D01*
X-10949Y-25997D01*
X-11032Y-25914D01*
X-11143Y-25802D01*
X-11310Y-25664D01*
X-11476Y-25525D01*
X-11698Y-25358D01*
X-11921Y-25191D01*
X-12504Y-24858D01*
X-13170Y-24580D01*
X-13531Y-24469D01*
X-13920Y-24386D01*
X-14337Y-24331D01*
X-14753Y-24303D01*
D02*
G37*
G36*
X-114253D02*
X-114475D01*
X-114642Y-24331D01*
X-114836Y-24358D01*
X-115086Y-24386D01*
X-115614Y-24525D01*
X-116253Y-24747D01*
X-116558Y-24886D01*
X-116891Y-25053D01*
X-117224Y-25247D01*
X-117558Y-25497D01*
X-117863Y-25775D01*
X-118169Y-26080D01*
X-118196Y-26108D01*
X-118224Y-26163D01*
X-118307Y-26274D01*
X-118419Y-26413D01*
X-118530Y-26608D01*
X-118668Y-26830D01*
X-118807Y-27108D01*
X-118946Y-27413D01*
X-119085Y-27774D01*
X-119224Y-28163D01*
X-119363Y-28607D01*
X-119474Y-29079D01*
X-119585Y-29607D01*
X-119668Y-30162D01*
X-119696Y-30773D01*
X-119724Y-31412D01*
Y-31440D01*
Y-31578D01*
Y-31745D01*
X-119696Y-31995D01*
X-119668Y-32301D01*
X-119640Y-32634D01*
X-119585Y-33023D01*
X-119529Y-33411D01*
X-119335Y-34300D01*
X-119057Y-35189D01*
X-118891Y-35605D01*
X-118668Y-36022D01*
X-118446Y-36410D01*
X-118169Y-36772D01*
X-118141Y-36799D01*
X-118085Y-36855D01*
X-118002Y-36938D01*
X-117891Y-37049D01*
X-117724Y-37188D01*
X-117558Y-37327D01*
X-117335Y-37494D01*
X-117086Y-37632D01*
X-116530Y-37966D01*
X-115864Y-38243D01*
X-115503Y-38354D01*
X-115086Y-38438D01*
X-114697Y-38493D01*
X-114253Y-38521D01*
X-114031D01*
X-113864Y-38493D01*
X-113670Y-38465D01*
X-113420Y-38438D01*
X-112892Y-38299D01*
X-112281Y-38077D01*
X-111948Y-37938D01*
X-111615Y-37771D01*
X-111309Y-37577D01*
X-110976Y-37327D01*
X-110671Y-37049D01*
X-110365Y-36744D01*
X-110337Y-36716D01*
X-110310Y-36660D01*
X-110226Y-36549D01*
X-110115Y-36410D01*
X-110004Y-36216D01*
X-109865Y-35994D01*
X-109727Y-35716D01*
X-109560Y-35383D01*
X-109421Y-35050D01*
X-109282Y-34633D01*
X-109143Y-34189D01*
X-109032Y-33689D01*
X-108921Y-33161D01*
X-108838Y-32578D01*
X-108810Y-31967D01*
X-108782Y-31301D01*
Y-31273D01*
Y-31162D01*
Y-30968D01*
X-108810Y-30745D01*
X-108838Y-30440D01*
X-108866Y-30107D01*
X-108921Y-29746D01*
X-108977Y-29357D01*
X-109171Y-28524D01*
X-109282Y-28080D01*
X-109449Y-27635D01*
X-109643Y-27219D01*
X-109838Y-26802D01*
X-110088Y-26441D01*
X-110365Y-26080D01*
X-110393Y-26052D01*
X-110449Y-25997D01*
X-110532Y-25914D01*
X-110643Y-25802D01*
X-110810Y-25664D01*
X-110976Y-25525D01*
X-111198Y-25358D01*
X-111421Y-25191D01*
X-112004Y-24858D01*
X-112670Y-24580D01*
X-113031Y-24469D01*
X-113420Y-24386D01*
X-113837Y-24331D01*
X-114253Y-24303D01*
D02*
G37*
G36*
X41120Y-49201D02*
X40926D01*
X40759Y-49229D01*
X40593Y-49257D01*
X40370Y-49285D01*
X39871Y-49424D01*
X39315Y-49646D01*
X39037Y-49785D01*
X38732Y-49979D01*
X38454Y-50173D01*
X38177Y-50423D01*
X37899Y-50701D01*
X37649Y-51034D01*
X37621Y-51062D01*
X37593Y-51145D01*
X37510Y-51284D01*
X37399Y-51506D01*
X37288Y-51784D01*
X37149Y-52117D01*
X36982Y-52506D01*
X36843Y-53006D01*
X36705Y-53561D01*
X36538Y-54172D01*
X36399Y-54894D01*
X36288Y-55672D01*
X36177Y-56533D01*
X36121Y-57505D01*
X36066Y-58532D01*
X36038Y-59671D01*
Y-59698D01*
Y-59754D01*
Y-59837D01*
Y-59948D01*
Y-60087D01*
Y-60282D01*
X36066Y-60698D01*
X36094Y-61198D01*
X36121Y-61781D01*
X36149Y-62420D01*
X36233Y-63086D01*
X36399Y-64503D01*
X36510Y-65197D01*
X36649Y-65891D01*
X36816Y-66530D01*
X37038Y-67113D01*
X37260Y-67641D01*
X37510Y-68085D01*
X37538Y-68113D01*
X37566Y-68168D01*
X37649Y-68279D01*
X37788Y-68418D01*
X37927Y-68557D01*
X38093Y-68724D01*
X38510Y-69112D01*
X39037Y-69501D01*
X39676Y-69807D01*
X40009Y-69946D01*
X40370Y-70057D01*
X40759Y-70112D01*
X41148Y-70140D01*
X41231D01*
X41370Y-70112D01*
X41509D01*
X41703Y-70084D01*
X41925Y-70029D01*
X42425Y-69890D01*
X42703Y-69779D01*
X42981Y-69640D01*
X43286Y-69473D01*
X43592Y-69251D01*
X43897Y-69029D01*
X44203Y-68752D01*
X44508Y-68418D01*
X44786Y-68057D01*
X44813Y-68029D01*
X44841Y-67946D01*
X44925Y-67835D01*
X45008Y-67641D01*
X45147Y-67391D01*
X45258Y-67058D01*
X45397Y-66669D01*
X45536Y-66224D01*
X45674Y-65697D01*
X45813Y-65086D01*
X45952Y-64419D01*
X46063Y-63642D01*
X46147Y-62781D01*
X46230Y-61837D01*
X46258Y-60809D01*
X46285Y-59671D01*
Y-59643D01*
Y-59587D01*
Y-59504D01*
Y-59393D01*
Y-59254D01*
Y-59088D01*
X46258Y-58643D01*
X46230Y-58143D01*
X46202Y-57560D01*
X46174Y-56921D01*
X46091Y-56255D01*
X45924Y-54839D01*
X45785Y-54144D01*
X45647Y-53478D01*
X45480Y-52839D01*
X45286Y-52228D01*
X45063Y-51728D01*
X44786Y-51284D01*
X44758Y-51256D01*
X44730Y-51201D01*
X44647Y-51090D01*
X44536Y-50951D01*
X44369Y-50812D01*
X44203Y-50618D01*
X44008Y-50423D01*
X43786Y-50229D01*
X43258Y-49868D01*
X42620Y-49535D01*
X42287Y-49396D01*
X41898Y-49285D01*
X41537Y-49229D01*
X41120Y-49201D01*
D02*
G37*
G36*
X-64211Y-55894D02*
X-64434D01*
X-64573Y-55922D01*
X-64767Y-55949D01*
X-64961Y-55977D01*
X-65489Y-56088D01*
X-66044Y-56255D01*
X-66683Y-56505D01*
X-66988Y-56672D01*
X-67294Y-56866D01*
X-67599Y-57116D01*
X-67877Y-57366D01*
X-67905Y-57393D01*
X-67933Y-57421D01*
X-68016Y-57505D01*
X-68099Y-57616D01*
X-68210Y-57782D01*
X-68349Y-57949D01*
X-68488Y-58143D01*
X-68627Y-58393D01*
X-68766Y-58643D01*
X-68905Y-58949D01*
X-69182Y-59615D01*
X-69377Y-60365D01*
X-69432Y-60782D01*
X-69488Y-61226D01*
X-59102D01*
Y-61198D01*
Y-61115D01*
X-59130Y-61004D01*
X-59157Y-60837D01*
X-59185Y-60643D01*
X-59213Y-60421D01*
X-59324Y-59921D01*
X-59491Y-59337D01*
X-59685Y-58754D01*
X-59963Y-58199D01*
X-60296Y-57727D01*
X-60324Y-57699D01*
X-60351Y-57644D01*
X-60462Y-57560D01*
X-60574Y-57449D01*
X-60712Y-57310D01*
X-60907Y-57144D01*
X-61129Y-56977D01*
X-61351Y-56810D01*
X-61629Y-56644D01*
X-61934Y-56477D01*
X-62601Y-56172D01*
X-62962Y-56061D01*
X-63351Y-55977D01*
X-63767Y-55922D01*
X-64211Y-55894D01*
D02*
G37*
G36*
X-123945D02*
X-124167D01*
X-124306Y-55922D01*
X-124500Y-55949D01*
X-124695Y-55977D01*
X-125222Y-56088D01*
X-125778Y-56255D01*
X-126416Y-56505D01*
X-126722Y-56672D01*
X-127027Y-56866D01*
X-127333Y-57116D01*
X-127610Y-57366D01*
X-127638Y-57393D01*
X-127666Y-57421D01*
X-127749Y-57505D01*
X-127832Y-57616D01*
X-127944Y-57782D01*
X-128083Y-57949D01*
X-128221Y-58143D01*
X-128360Y-58393D01*
X-128499Y-58643D01*
X-128638Y-58949D01*
X-128916Y-59615D01*
X-129110Y-60365D01*
X-129165Y-60782D01*
X-129221Y-61226D01*
X-118835D01*
Y-61198D01*
Y-61115D01*
X-118863Y-61004D01*
X-118891Y-60837D01*
X-118918Y-60643D01*
X-118946Y-60421D01*
X-119057Y-59921D01*
X-119224Y-59337D01*
X-119418Y-58754D01*
X-119696Y-58199D01*
X-120029Y-57727D01*
X-120057Y-57699D01*
X-120085Y-57644D01*
X-120196Y-57560D01*
X-120307Y-57449D01*
X-120446Y-57310D01*
X-120640Y-57144D01*
X-120862Y-56977D01*
X-121084Y-56810D01*
X-121362Y-56644D01*
X-121668Y-56477D01*
X-122334Y-56172D01*
X-122695Y-56061D01*
X-123084Y-55977D01*
X-123500Y-55922D01*
X-123945Y-55894D01*
D02*
G37*
G36*
X-104645Y-55783D02*
X-104839D01*
X-104978Y-55811D01*
X-105172Y-55838D01*
X-105367Y-55866D01*
X-105839Y-56005D01*
X-106394Y-56199D01*
X-106672Y-56338D01*
X-106977Y-56533D01*
X-107255Y-56727D01*
X-107560Y-56949D01*
X-107838Y-57227D01*
X-108116Y-57532D01*
X-108144Y-57560D01*
X-108171Y-57616D01*
X-108255Y-57727D01*
X-108338Y-57866D01*
X-108449Y-58060D01*
X-108560Y-58282D01*
X-108699Y-58560D01*
X-108810Y-58865D01*
X-108949Y-59226D01*
X-109088Y-59643D01*
X-109199Y-60087D01*
X-109310Y-60559D01*
X-109393Y-61087D01*
X-109477Y-61670D01*
X-109504Y-62309D01*
X-109532Y-62975D01*
Y-63003D01*
Y-63142D01*
Y-63309D01*
X-109504Y-63559D01*
X-109477Y-63864D01*
X-109449Y-64197D01*
X-109393Y-64586D01*
X-109338Y-65003D01*
X-109171Y-65863D01*
X-108893Y-66752D01*
X-108727Y-67196D01*
X-108532Y-67613D01*
X-108282Y-68002D01*
X-108033Y-68363D01*
X-108005Y-68390D01*
X-107949Y-68446D01*
X-107866Y-68529D01*
X-107755Y-68640D01*
X-107616Y-68779D01*
X-107449Y-68918D01*
X-107005Y-69251D01*
X-106477Y-69585D01*
X-105867Y-69862D01*
X-105533Y-69973D01*
X-105172Y-70057D01*
X-104811Y-70112D01*
X-104422Y-70140D01*
X-104228D01*
X-104089Y-70112D01*
X-103923Y-70084D01*
X-103700Y-70057D01*
X-103228Y-69918D01*
X-102701Y-69723D01*
X-102423Y-69585D01*
X-102118Y-69418D01*
X-101840Y-69224D01*
X-101534Y-69001D01*
X-101257Y-68752D01*
X-100979Y-68446D01*
X-100951Y-68418D01*
X-100923Y-68363D01*
X-100840Y-68279D01*
X-100757Y-68113D01*
X-100646Y-67946D01*
X-100507Y-67724D01*
X-100368Y-67474D01*
X-100229Y-67169D01*
X-100118Y-66808D01*
X-99979Y-66447D01*
X-99840Y-66002D01*
X-99729Y-65530D01*
X-99646Y-65030D01*
X-99563Y-64475D01*
X-99535Y-63892D01*
X-99507Y-63253D01*
Y-63197D01*
Y-63086D01*
Y-62892D01*
X-99535Y-62642D01*
X-99563Y-62337D01*
X-99590Y-61976D01*
X-99646Y-61587D01*
X-99701Y-61170D01*
X-99896Y-60254D01*
X-100174Y-59337D01*
X-100340Y-58865D01*
X-100535Y-58449D01*
X-100785Y-58032D01*
X-101062Y-57671D01*
X-101090Y-57644D01*
X-101118Y-57588D01*
X-101229Y-57505D01*
X-101340Y-57366D01*
X-101479Y-57227D01*
X-101645Y-57060D01*
X-102090Y-56727D01*
X-102617Y-56366D01*
X-103228Y-56088D01*
X-103562Y-55949D01*
X-103895Y-55866D01*
X-104256Y-55811D01*
X-104645Y-55783D01*
D02*
G37*
%LPD*%
M02*
