G04*
G04 #@! TF.GenerationSoftware,Altium Limited,Altium Designer,19.1.6 (110)*
G04*
G04 Layer_Physical_Order=2*
G04 Layer_Color=16711680*
%FSLAX25Y25*%
%MOIN*%
G70*
G01*
G75*
G36*
X8047Y416984D02*
X20604Y416552D01*
X33141Y415742D01*
X45649Y414555D01*
X58116Y412992D01*
X70529Y411054D01*
X82879Y408743D01*
X95153Y406061D01*
X107342Y403011D01*
X119432Y399595D01*
X131414Y395816D01*
X143277Y391678D01*
X155010Y387184D01*
X166603Y382340D01*
X178044Y377148D01*
X189323Y371614D01*
X200431Y365742D01*
X211357Y359539D01*
X222091Y353009D01*
X232623Y346160D01*
X242945Y338995D01*
X253046Y331524D01*
X262917Y323751D01*
X272549Y315685D01*
X281935Y307332D01*
X291064Y298700D01*
X299929Y289797D01*
X308522Y280631D01*
X316835Y271211D01*
X324861Y261544D01*
X332592Y251640D01*
X340021Y241508D01*
X347141Y231156D01*
X353946Y220595D01*
X360430Y209833D01*
X366587Y198881D01*
X372412Y187749D01*
X377898Y176446D01*
X383041Y164983D01*
X387837Y153370D01*
X392281Y141618D01*
X396369Y129738D01*
X400097Y117740D01*
X403462Y105635D01*
X406461Y93434D01*
X409090Y81148D01*
X411349Y68789D01*
X413235Y56367D01*
X414745Y43894D01*
X415879Y31381D01*
X416635Y18840D01*
X417014Y6282D01*
Y0D01*
Y-4333D01*
X416834Y-12996D01*
X416474Y-21654D01*
X415934Y-30303D01*
X415214Y-38938D01*
X414316Y-47557D01*
X413238Y-56155D01*
X411982Y-64729D01*
X410548Y-73275D01*
X408937Y-81790D01*
X407150Y-90269D01*
X405186Y-98709D01*
X404117Y-102907D01*
X404143Y-102914D01*
X404143D01*
X404143Y-102914D01*
X404143Y-102914D01*
X404143Y-102914D01*
X404143Y-102914D01*
X404143Y-102914D01*
X404147Y-102915D01*
X404154Y-102920D01*
X404160Y-102927D01*
X404163Y-102935D01*
Y-102940D01*
Y-102940D01*
X404163Y-102942D01*
X404162Y-102944D01*
X404162Y-102945D01*
X404162Y-102946D01*
X402714Y-108632D01*
X399499Y-119917D01*
X395967Y-131107D01*
X392123Y-142194D01*
X387967Y-153168D01*
X383506Y-164021D01*
X378740Y-174743D01*
X373675Y-185328D01*
X368314Y-195766D01*
X362661Y-206049D01*
X356721Y-216169D01*
X350499Y-226118D01*
X344000Y-235888D01*
X337229Y-245471D01*
X330190Y-254860D01*
X322890Y-264047D01*
X315335Y-273026D01*
X307530Y-281788D01*
X299482Y-290327D01*
X291197Y-298637D01*
X282681Y-306710D01*
X273941Y-314540D01*
X264985Y-322121D01*
X255819Y-329448D01*
X246451Y-336513D01*
X236887Y-343313D01*
X227136Y-349840D01*
X217205Y-356091D01*
X207103Y-362060D01*
X196836Y-367743D01*
X186414Y-373134D01*
X175844Y-378230D01*
X165135Y-383027D01*
X154295Y-387521D01*
X143333Y-391707D01*
X132258Y-395584D01*
X121078Y-399148D01*
X109802Y-402396D01*
X98440Y-405326D01*
X86999Y-407934D01*
X81244Y-409077D01*
X81244Y-409077D01*
X81244Y-409077D01*
X81244Y-409077D01*
X81244Y-409077D01*
X81243Y-409077D01*
X80811Y-409163D01*
X79930Y-409140D01*
X79075Y-408925D01*
X78289Y-408527D01*
X77609Y-407965D01*
X77069Y-407268D01*
X76695Y-406470D01*
X76506Y-405609D01*
X76509Y-405168D01*
X76590Y-390303D01*
X-80838Y-389446D01*
X-80919Y-404310D01*
X-80919Y-404310D01*
Y-404310D01*
X-80921Y-404751D01*
X-81119Y-405610D01*
X-81502Y-406405D01*
X-82049Y-407096D01*
X-82735Y-407650D01*
X-83526Y-408039D01*
X-84383Y-408245D01*
X-85265Y-408258D01*
X-85697Y-408168D01*
Y-408168D01*
X-91576Y-406933D01*
X-103260Y-404127D01*
X-114857Y-400985D01*
X-126360Y-397510D01*
X-137757Y-393705D01*
X-149040Y-389574D01*
X-160200Y-385119D01*
X-171227Y-380345D01*
X-182111Y-375255D01*
X-192844Y-369854D01*
X-203418Y-364146D01*
X-213822Y-358135D01*
X-224049Y-351828D01*
X-234090Y-345228D01*
X-243937Y-338342D01*
X-253582Y-331175D01*
X-263016Y-323734D01*
X-272232Y-316023D01*
X-281222Y-308051D01*
X-289978Y-299823D01*
X-298494Y-291346D01*
X-306762Y-282627D01*
X-314775Y-273674D01*
X-322528Y-264493D01*
X-330013Y-255093D01*
X-337223Y-245482D01*
X-344154Y-235666D01*
X-350800Y-225655D01*
X-357154Y-215457D01*
X-363212Y-205080D01*
X-368968Y-194533D01*
X-374419Y-183825D01*
X-379558Y-172964D01*
X-384383Y-161959D01*
X-388889Y-150820D01*
X-393071Y-139556D01*
X-396928Y-128176D01*
X-400455Y-116689D01*
X-403650Y-105106D01*
X-406510Y-93436D01*
X-409033Y-81687D01*
X-411216Y-69872D01*
X-413058Y-57998D01*
X-414557Y-46076D01*
X-415713Y-34116D01*
X-416523Y-22128D01*
X-416987Y-10121D01*
X-417106Y1894D01*
X-416878Y13908D01*
X-416305Y25910D01*
X-415385Y37891D01*
X-414122Y49840D01*
X-412514Y61748D01*
X-410565Y73604D01*
X-408274Y85400D01*
X-405645Y97124D01*
X-404162Y102946D01*
X-404161Y102951D01*
X-404154Y102960D01*
X-404145Y102965D01*
X-404135Y102967D01*
X-404130Y102965D01*
X-404130Y102965D01*
X-404104Y102959D01*
X-402553Y109046D01*
X-399086Y121122D01*
X-395256Y133089D01*
X-391068Y144934D01*
X-386525Y156648D01*
X-381631Y168219D01*
X-376391Y179639D01*
X-370809Y190894D01*
X-364891Y201977D01*
X-358641Y212877D01*
X-352066Y223583D01*
X-345172Y234086D01*
X-337964Y244377D01*
X-330450Y254447D01*
X-322635Y264285D01*
X-314528Y273883D01*
X-306136Y283233D01*
X-297465Y292326D01*
X-288525Y301153D01*
X-279323Y309707D01*
X-269867Y317981D01*
X-260167Y325965D01*
X-250230Y333654D01*
X-240066Y341040D01*
X-229685Y348116D01*
X-219095Y354877D01*
X-208306Y361315D01*
X-197328Y367426D01*
X-186171Y373203D01*
X-174845Y378641D01*
X-163360Y383736D01*
X-151727Y388483D01*
X-139957Y392877D01*
X-128059Y396914D01*
X-116045Y400592D01*
X-103926Y403905D01*
X-91713Y406852D01*
X-79416Y409430D01*
X-67047Y411637D01*
X-54618Y413469D01*
X-42138Y414927D01*
X-29621Y416008D01*
X-17077Y416711D01*
X-4517Y417037D01*
X8047Y416984D01*
D02*
G37*
%LPC*%
G36*
X3380Y347875D02*
X-8052Y347799D01*
X-19476Y347346D01*
X-30879Y346519D01*
X-42249Y345317D01*
X-53572Y343742D01*
X-64839Y341796D01*
X-76035Y339481D01*
X-87149Y336799D01*
X-98168Y333754D01*
X-109082Y330348D01*
X-119878Y326585D01*
X-130545Y322470D01*
X-141070Y318006D01*
X-151443Y313199D01*
X-161653Y308054D01*
X-171688Y302576D01*
X-181537Y296771D01*
X-191191Y290645D01*
X-200638Y284206D01*
X-209868Y277460D01*
X-218872Y270414D01*
X-227639Y263076D01*
X-236161Y255454D01*
X-244427Y247556D01*
X-252430Y239391D01*
X-260160Y230967D01*
X-267608Y222294D01*
X-274768Y213380D01*
X-281631Y204236D01*
X-288190Y194872D01*
X-294438Y185297D01*
X-300367Y175522D01*
X-305973Y165558D01*
X-311248Y155414D01*
X-316186Y145103D01*
X-320783Y134635D01*
X-325034Y124022D01*
X-328934Y113275D01*
X-332478Y102405D01*
X-335664Y91425D01*
X-337121Y85897D01*
X-337095Y85891D01*
X-337095D01*
X-337095Y85891D01*
X-337095Y85891D01*
X-337095Y85891D01*
X-337095Y85891D01*
X-337095Y85891D01*
X-337091Y85890D01*
X-337083Y85885D01*
X-337078Y85878D01*
X-337075Y85869D01*
Y85865D01*
Y85864D01*
X-337075Y85862D01*
X-337075Y85861D01*
X-337076Y85859D01*
X-337076Y85858D01*
X-338436Y80332D01*
X-340883Y69215D01*
X-342965Y58025D01*
X-344680Y46772D01*
X-346026Y35470D01*
X-347001Y24129D01*
X-347605Y12763D01*
X-347836Y1383D01*
X-347695Y-9999D01*
X-347182Y-21370D01*
X-346297Y-32718D01*
X-345041Y-44031D01*
X-343415Y-55297D01*
X-341422Y-66504D01*
X-339064Y-77639D01*
X-336342Y-88691D01*
X-333260Y-99648D01*
X-329821Y-110499D01*
X-326029Y-121231D01*
X-321888Y-131834D01*
X-317402Y-142295D01*
X-312576Y-152604D01*
X-307416Y-162750D01*
X-301926Y-172721D01*
X-296113Y-182507D01*
X-289983Y-192098D01*
X-283543Y-201483D01*
X-276799Y-210652D01*
X-269758Y-219596D01*
X-262429Y-228305D01*
X-254818Y-236769D01*
X-246935Y-244980D01*
X-238787Y-252928D01*
X-230384Y-260605D01*
X-221734Y-268004D01*
X-212846Y-275115D01*
X-203731Y-281932D01*
X-194397Y-288447D01*
X-184855Y-294653D01*
X-175115Y-300544D01*
X-165188Y-306112D01*
X-155084Y-311353D01*
X-144814Y-316261D01*
X-134388Y-320830D01*
X-123819Y-325055D01*
X-113117Y-328932D01*
X-102295Y-332457D01*
X-91362Y-335626D01*
X-80332Y-338436D01*
X-69215Y-340883D01*
X-58025Y-342965D01*
X-46772Y-344680D01*
X-35470Y-346026D01*
X-24129Y-347001D01*
X-12763Y-347605D01*
X-1383Y-347836D01*
X9999Y-347695D01*
X21370Y-347182D01*
X32718Y-346297D01*
X44031Y-345041D01*
X55297Y-343415D01*
X66503Y-341422D01*
X77639Y-339064D01*
X88691Y-336342D01*
X99648Y-333260D01*
X110499Y-329821D01*
X121231Y-326029D01*
X131834Y-321888D01*
X142295Y-317402D01*
X152604Y-312576D01*
X162750Y-307416D01*
X172721Y-301926D01*
X182507Y-296113D01*
X192098Y-289983D01*
X201483Y-283543D01*
X210652Y-276799D01*
X219596Y-269758D01*
X228305Y-262429D01*
X236769Y-254818D01*
X244980Y-246935D01*
X252928Y-238787D01*
X260605Y-230384D01*
X268004Y-221734D01*
X275115Y-212846D01*
X281932Y-203731D01*
X288447Y-194397D01*
X294653Y-184855D01*
X300544Y-175115D01*
X306112Y-165188D01*
X311353Y-155084D01*
X316261Y-144814D01*
X320830Y-134388D01*
X325055Y-123819D01*
X328932Y-113117D01*
X332457Y-102295D01*
X335626Y-91362D01*
X337076Y-85858D01*
X337077Y-85853D01*
X337084Y-85845D01*
X337092Y-85839D01*
X337103Y-85838D01*
X337108Y-85839D01*
X337108Y-85839D01*
X337134Y-85846D01*
X338431Y-80582D01*
X340777Y-69997D01*
X342793Y-59343D01*
X344476Y-48632D01*
X345824Y-37874D01*
X346836Y-27079D01*
X347512Y-16258D01*
X347849Y-5421D01*
X347892Y-0D01*
X347845Y5716D01*
X347469Y17143D01*
X346718Y28551D01*
X345593Y39929D01*
X344094Y51263D01*
X342224Y62542D01*
X339984Y73753D01*
X337377Y84885D01*
X334406Y95925D01*
X331073Y106861D01*
X327383Y117682D01*
X323339Y128376D01*
X318946Y138931D01*
X314209Y149337D01*
X309132Y159581D01*
X303722Y169652D01*
X297983Y179541D01*
X291923Y189235D01*
X285547Y198725D01*
X278863Y208000D01*
X271878Y217051D01*
X264599Y225868D01*
X257034Y234440D01*
X249192Y242759D01*
X241080Y250816D01*
X232709Y258603D01*
X224086Y266110D01*
X215221Y273329D01*
X206123Y280253D01*
X196803Y286875D01*
X187270Y293187D01*
X177535Y299182D01*
X167609Y304854D01*
X157501Y310197D01*
X147223Y315205D01*
X136786Y319872D01*
X126202Y324194D01*
X115481Y328166D01*
X104636Y331783D01*
X93677Y335042D01*
X82617Y337940D01*
X71468Y340472D01*
X60242Y342636D01*
X48951Y344431D01*
X37607Y345853D01*
X26222Y346902D01*
X14809Y347576D01*
X3380Y347875D01*
D02*
G37*
%LPD*%
G36*
X8078Y272641D02*
X18445Y272136D01*
X28785Y271237D01*
X39083Y269946D01*
X49325Y268263D01*
X59495Y266193D01*
X69579Y263737D01*
X79562Y260898D01*
X89430Y257683D01*
X99169Y254094D01*
X108764Y250137D01*
X118202Y245818D01*
X127468Y241143D01*
X136550Y236119D01*
X145434Y230753D01*
X154108Y225053D01*
X162558Y219027D01*
X170773Y212684D01*
X178741Y206033D01*
X186450Y199084D01*
X193889Y191846D01*
X201048Y184331D01*
X207915Y176549D01*
X214481Y168511D01*
X220737Y160229D01*
X226673Y151715D01*
X232281Y142982D01*
X237552Y134041D01*
X242480Y124907D01*
X247056Y115591D01*
X251275Y106108D01*
X255130Y96472D01*
X258616Y86696D01*
X261727Y76794D01*
X264459Y66781D01*
X266808Y56672D01*
X268771Y46480D01*
X270345Y36221D01*
X271527Y25910D01*
X272316Y15561D01*
X272711Y5190D01*
Y0D01*
Y-4250D01*
X272446Y-12745D01*
X271917Y-21228D01*
X271123Y-29691D01*
X270066Y-38124D01*
X268747Y-46521D01*
X267167Y-54872D01*
X265328Y-63170D01*
X264279Y-67289D01*
X264305Y-67295D01*
X264305D01*
X264305Y-67295D01*
X264305Y-67295D01*
X264305Y-67295D01*
X264305Y-67295D01*
X264305Y-67295D01*
X264309Y-67296D01*
X264317Y-67301D01*
X264322Y-67308D01*
X264325Y-67316D01*
Y-67321D01*
Y-67322D01*
X264325Y-67323D01*
X264324Y-67325D01*
X264324Y-67327D01*
X264324Y-67327D01*
X263065Y-72271D01*
X260179Y-82057D01*
X256928Y-91728D01*
X253319Y-101270D01*
X249355Y-110671D01*
X245043Y-119918D01*
X240388Y-128996D01*
X235396Y-137894D01*
X230075Y-146600D01*
X224433Y-155100D01*
X218477Y-163383D01*
X212215Y-171438D01*
X205656Y-179253D01*
X198810Y-186818D01*
X191685Y-194121D01*
X184293Y-201152D01*
X176643Y-207903D01*
X168746Y-214362D01*
X160612Y-220522D01*
X152254Y-226373D01*
X143684Y-231908D01*
X134912Y-237118D01*
X125951Y-241997D01*
X116815Y-246537D01*
X107515Y-250732D01*
X98064Y-254577D01*
X88477Y-258066D01*
X78765Y-261194D01*
X68944Y-263956D01*
X59026Y-266350D01*
X49026Y-268370D01*
X38957Y-270016D01*
X28833Y-271284D01*
X18670Y-272172D01*
X8480Y-272680D01*
X-1722Y-272806D01*
X-11921Y-272551D01*
X-22104Y-271915D01*
X-32256Y-270898D01*
X-42362Y-269502D01*
X-52410Y-267730D01*
X-62384Y-265583D01*
X-72271Y-263065D01*
X-82057Y-260179D01*
X-91728Y-256928D01*
X-101270Y-253319D01*
X-110671Y-249355D01*
X-119918Y-245043D01*
X-128996Y-240388D01*
X-137894Y-235396D01*
X-146600Y-230075D01*
X-155100Y-224433D01*
X-163383Y-218477D01*
X-171438Y-212215D01*
X-179253Y-205656D01*
X-186818Y-198810D01*
X-194121Y-191685D01*
X-201152Y-184293D01*
X-207903Y-176643D01*
X-214362Y-168746D01*
X-220522Y-160612D01*
X-226373Y-152254D01*
X-231908Y-143684D01*
X-237118Y-134912D01*
X-241997Y-125951D01*
X-246537Y-116815D01*
X-250732Y-107515D01*
X-254577Y-98064D01*
X-258066Y-88477D01*
X-261194Y-78765D01*
X-263956Y-68944D01*
X-266350Y-59026D01*
X-268370Y-49026D01*
X-270016Y-38957D01*
X-271284Y-28833D01*
X-272172Y-18670D01*
X-272680Y-8480D01*
X-272806Y1722D01*
X-272551Y11921D01*
X-271915Y22104D01*
X-270898Y32256D01*
X-269502Y42362D01*
X-267730Y52410D01*
X-265583Y62384D01*
X-264324Y67327D01*
X-264323Y67332D01*
X-264316Y67341D01*
X-264307Y67346D01*
X-264297Y67348D01*
X-264292Y67347D01*
X-264292Y67347D01*
X-264292Y67347D01*
X-264292Y67347D01*
X-264292Y67347D01*
X-264292Y67347D01*
X-221550Y56459D01*
X-264266Y67340D01*
X-262985Y72369D01*
X-260041Y82322D01*
X-256721Y92155D01*
X-253029Y101855D01*
X-248971Y111408D01*
X-244552Y120799D01*
X-239779Y130016D01*
X-234659Y139044D01*
X-229200Y147871D01*
X-223408Y156483D01*
X-217293Y164869D01*
X-210863Y173017D01*
X-204128Y180914D01*
X-197098Y188549D01*
X-189782Y195911D01*
X-182191Y202989D01*
X-174337Y209774D01*
X-166229Y216254D01*
X-157882Y222422D01*
X-149306Y228267D01*
X-140513Y233782D01*
X-131517Y238959D01*
X-122331Y243789D01*
X-112968Y248267D01*
X-103441Y252385D01*
X-93764Y256138D01*
X-83951Y259519D01*
X-74017Y262525D01*
X-63976Y265151D01*
X-53842Y267393D01*
X-43630Y269248D01*
X-33355Y270713D01*
X-23032Y271786D01*
X-12675Y272466D01*
X-2300Y272751D01*
X8078Y272641D01*
D02*
G37*
%LPC*%
G36*
X2179Y184537D02*
X-6159Y184447D01*
X-14485Y183981D01*
X-22781Y183139D01*
X-31031Y181923D01*
X-39217Y180335D01*
X-47323Y178379D01*
X-55333Y176060D01*
X-63229Y173380D01*
X-70997Y170347D01*
X-78619Y166966D01*
X-86081Y163244D01*
X-93368Y159189D01*
X-100463Y154809D01*
X-107354Y150113D01*
X-114025Y145110D01*
X-120464Y139811D01*
X-126657Y134227D01*
X-132591Y128368D01*
X-138254Y122248D01*
X-143635Y115877D01*
X-148723Y109271D01*
X-153507Y102441D01*
X-157978Y95402D01*
X-162127Y88168D01*
X-165944Y80755D01*
X-169422Y73176D01*
X-172555Y65448D01*
X-175335Y57587D01*
X-177758Y49608D01*
X-178833Y45579D01*
X-178808Y45572D01*
X-178808D01*
X-178807Y45572D01*
X-178807Y45572D01*
X-178807Y45572D01*
X-178807Y45572D01*
X-178807Y45572D01*
X-178803Y45571D01*
X-178796Y45566D01*
X-178790Y45559D01*
X-178788Y45551D01*
Y45547D01*
Y45546D01*
X-178788Y45544D01*
X-178788Y45542D01*
X-178788Y45541D01*
X-178788Y45540D01*
X-179792Y41398D01*
X-181513Y33051D01*
X-182845Y24633D01*
X-183788Y16162D01*
X-184338Y7657D01*
X-184495Y-865D01*
X-184258Y-9385D01*
X-183628Y-17884D01*
X-182606Y-26346D01*
X-181195Y-34751D01*
X-179396Y-43082D01*
X-177215Y-51321D01*
X-174656Y-59451D01*
X-171724Y-67454D01*
X-168426Y-75313D01*
X-164768Y-83011D01*
X-160758Y-90532D01*
X-156405Y-97860D01*
X-151719Y-104978D01*
X-146709Y-111873D01*
X-141386Y-118529D01*
X-135761Y-124933D01*
X-129846Y-131069D01*
X-123654Y-136926D01*
X-117199Y-142491D01*
X-110493Y-147751D01*
X-103551Y-152697D01*
X-96389Y-157316D01*
X-89021Y-161600D01*
X-81462Y-165539D01*
X-73730Y-169124D01*
X-65841Y-172349D01*
X-57811Y-175206D01*
X-49658Y-177689D01*
X-41398Y-179792D01*
X-33051Y-181513D01*
X-24633Y-182845D01*
X-16162Y-183788D01*
X-7657Y-184338D01*
X865Y-184495D01*
X9385Y-184258D01*
X17884Y-183628D01*
X26346Y-182606D01*
X34751Y-181195D01*
X43082Y-179396D01*
X51321Y-177215D01*
X59451Y-174656D01*
X67454Y-171724D01*
X75313Y-168426D01*
X83011Y-164768D01*
X90532Y-160758D01*
X97859Y-156405D01*
X104978Y-151719D01*
X111873Y-146709D01*
X118529Y-141386D01*
X124933Y-135761D01*
X131069Y-129846D01*
X136926Y-123654D01*
X142491Y-117199D01*
X147751Y-110493D01*
X152697Y-103551D01*
X157316Y-96389D01*
X161600Y-89021D01*
X165539Y-81462D01*
X169124Y-73730D01*
X172349Y-65841D01*
X175206Y-57811D01*
X177689Y-49658D01*
X178788Y-45540D01*
X178790Y-45535D01*
X178796Y-45527D01*
X178805Y-45521D01*
X178815Y-45520D01*
X178820Y-45521D01*
X178821Y-45521D01*
Y-45521D01*
X178846Y-45527D01*
X179534Y-42736D01*
X180778Y-37122D01*
X181847Y-31472D01*
X182739Y-25792D01*
X183454Y-20086D01*
X183990Y-14361D01*
X184348Y-8622D01*
X184528Y-2875D01*
X184550Y-0D01*
X184503Y4169D01*
X184126Y12500D01*
X183374Y20804D01*
X182247Y29067D01*
X180748Y37269D01*
X178879Y45396D01*
X176646Y53430D01*
X174052Y61356D01*
X171103Y69155D01*
X167805Y76814D01*
X164163Y84316D01*
X160187Y91645D01*
X155884Y98788D01*
X151262Y105729D01*
X146332Y112454D01*
X141102Y118949D01*
X135585Y125202D01*
X129791Y131199D01*
X123732Y136928D01*
X117420Y142377D01*
X110869Y147536D01*
X104091Y152394D01*
X97101Y156940D01*
X89912Y161166D01*
X82540Y165063D01*
X74999Y168623D01*
X67306Y171839D01*
X59474Y174704D01*
X51522Y177212D01*
X43464Y179359D01*
X35318Y181139D01*
X27099Y182550D01*
X18825Y183587D01*
X10513Y184250D01*
X2179Y184537D01*
D02*
G37*
%LPD*%
M02*
