G04*
G04 #@! TF.GenerationSoftware,Altium Limited,Altium Designer,19.0.15 (446)*
G04*
G04 Layer_Color=65535*
%FSLAX25Y25*%
%MOIN*%
G70*
G01*
G75*
G36*
X380863Y442273D02*
X377670D01*
X366256Y460352D01*
X366173Y460324D01*
Y442273D01*
X362951D01*
Y465961D01*
X366173D01*
X377558Y447883D01*
X377670Y447911D01*
Y465961D01*
X380863D01*
Y442273D01*
D02*
G37*
G36*
X508022Y463434D02*
X496831D01*
Y455769D01*
X506550D01*
Y453242D01*
X496831D01*
Y444773D01*
X508216D01*
Y442273D01*
X493609D01*
Y465961D01*
X508022D01*
Y463434D01*
D02*
G37*
G36*
X490249D02*
X482418D01*
Y442273D01*
X479224D01*
Y463434D01*
X471504D01*
Y465961D01*
X490249D01*
Y463434D01*
D02*
G37*
G36*
X470199Y442273D02*
X466922D01*
X464840Y448355D01*
X455925D01*
X453787Y442273D01*
X450538D01*
X459063Y465961D01*
X461813D01*
X470199Y442273D01*
D02*
G37*
G36*
X437486Y444773D02*
X449038D01*
Y442273D01*
X434265D01*
Y465961D01*
X437486D01*
Y444773D01*
D02*
G37*
G36*
X422768Y465933D02*
X423073Y465906D01*
X423434Y465850D01*
X423851Y465795D01*
X424295Y465711D01*
X424767Y465600D01*
X425240Y465489D01*
X425739Y465322D01*
X426239Y465128D01*
X426711Y464906D01*
X427183Y464628D01*
X427628Y464351D01*
X428044Y463989D01*
X428072Y463962D01*
X428128Y463906D01*
X428239Y463795D01*
X428377Y463628D01*
X428544Y463434D01*
X428711Y463212D01*
X428905Y462934D01*
X429100Y462629D01*
X429294Y462268D01*
X429488Y461879D01*
X429655Y461462D01*
X429822Y460990D01*
X429960Y460518D01*
X430071Y459991D01*
X430127Y459435D01*
X430155Y458852D01*
Y458824D01*
Y458713D01*
Y458547D01*
X430127Y458324D01*
X430099Y458047D01*
X430044Y457741D01*
X429988Y457380D01*
X429905Y456991D01*
X429794Y456603D01*
X429627Y456186D01*
X429461Y455742D01*
X429266Y455325D01*
X429016Y454881D01*
X428739Y454464D01*
X428405Y454076D01*
X428044Y453687D01*
X428017Y453659D01*
X427933Y453604D01*
X427822Y453520D01*
X427656Y453381D01*
X427433Y453242D01*
X427183Y453076D01*
X426878Y452909D01*
X426517Y452743D01*
X426128Y452548D01*
X425684Y452382D01*
X425184Y452215D01*
X424656Y452076D01*
X424101Y451937D01*
X423490Y451854D01*
X422823Y451798D01*
X422129Y451771D01*
X416298D01*
Y442273D01*
X413076D01*
Y465961D01*
X422490D01*
X422768Y465933D01*
D02*
G37*
G36*
X400830Y463434D02*
X389638D01*
Y455769D01*
X399358D01*
Y453242D01*
X389638D01*
Y444773D01*
X401024D01*
Y442273D01*
X386417D01*
Y465961D01*
X400830D01*
Y463434D01*
D02*
G37*
G36*
X335431Y463656D02*
X322713Y444773D01*
X335959D01*
Y442273D01*
X319103D01*
Y444634D01*
X331766Y463434D01*
X319297D01*
Y465961D01*
X335431D01*
Y463656D01*
D02*
G37*
G36*
X349066Y466267D02*
X349372Y466239D01*
X349733Y466211D01*
X350149Y466155D01*
X350622Y466044D01*
X351149Y465933D01*
X351677Y465795D01*
X352260Y465600D01*
X352843Y465350D01*
X353426Y465072D01*
X354010Y464739D01*
X354565Y464351D01*
X355120Y463906D01*
X355648Y463406D01*
X355676Y463378D01*
X355759Y463268D01*
X355898Y463101D01*
X356065Y462906D01*
X356287Y462601D01*
X356509Y462268D01*
X356731Y461879D01*
X357009Y461435D01*
X357259Y460935D01*
X357481Y460407D01*
X357731Y459796D01*
X357925Y459158D01*
X358092Y458491D01*
X358230Y457769D01*
X358314Y457019D01*
X358342Y456214D01*
Y451993D01*
Y451937D01*
Y451798D01*
X358314Y451576D01*
Y451271D01*
X358258Y450882D01*
X358203Y450465D01*
X358119Y449993D01*
X358008Y449466D01*
X357870Y448910D01*
X357675Y448327D01*
X357481Y447716D01*
X357203Y447105D01*
X356898Y446494D01*
X356537Y445911D01*
X356120Y445328D01*
X355648Y444773D01*
X355620Y444745D01*
X355537Y444662D01*
X355370Y444523D01*
X355148Y444328D01*
X354898Y444106D01*
X354565Y443884D01*
X354204Y443634D01*
X353760Y443356D01*
X353288Y443106D01*
X352760Y442829D01*
X352177Y442607D01*
X351566Y442384D01*
X350899Y442190D01*
X350177Y442051D01*
X349427Y441968D01*
X348650Y441940D01*
X348456D01*
X348261Y441968D01*
X347956Y441996D01*
X347622Y442023D01*
X347206Y442079D01*
X346761Y442190D01*
X346262Y442301D01*
X345734Y442440D01*
X345179Y442634D01*
X344623Y442857D01*
X344068Y443134D01*
X343485Y443467D01*
X342929Y443828D01*
X342402Y444273D01*
X341902Y444773D01*
X341874Y444800D01*
X341791Y444911D01*
X341652Y445078D01*
X341513Y445300D01*
X341291Y445578D01*
X341096Y445911D01*
X340846Y446300D01*
X340624Y446744D01*
X340374Y447244D01*
X340125Y447800D01*
X339930Y448383D01*
X339736Y449021D01*
X339569Y449716D01*
X339430Y450438D01*
X339347Y451188D01*
X339319Y451993D01*
Y456214D01*
Y456269D01*
Y456408D01*
X339347Y456630D01*
Y456936D01*
X339403Y457297D01*
X339458Y457741D01*
X339541Y458213D01*
X339652Y458741D01*
X339791Y459296D01*
X339958Y459879D01*
X340152Y460463D01*
X340402Y461074D01*
X340708Y461685D01*
X341041Y462268D01*
X341457Y462851D01*
X341902Y463406D01*
X341930Y463434D01*
X342013Y463545D01*
X342179Y463684D01*
X342374Y463851D01*
X342624Y464073D01*
X342957Y464323D01*
X343318Y464573D01*
X343735Y464850D01*
X344179Y465128D01*
X344707Y465378D01*
X345262Y465628D01*
X345845Y465850D01*
X346484Y466017D01*
X347178Y466183D01*
X347900Y466267D01*
X348650Y466294D01*
X348844D01*
X349066Y466267D01*
D02*
G37*
G36*
X412882Y405500D02*
X409688D01*
Y408777D01*
X412882D01*
Y405500D01*
D02*
G37*
G36*
X426600Y401279D02*
X426822Y401252D01*
X427100Y401224D01*
X427406Y401168D01*
X427739Y401113D01*
X428433Y400890D01*
X428822Y400779D01*
X429183Y400613D01*
X429544Y400418D01*
X429877Y400196D01*
X430210Y399946D01*
X430516Y399641D01*
X430544Y399613D01*
X430571Y399557D01*
X430655Y399474D01*
X430766Y399335D01*
X430877Y399141D01*
X431016Y398919D01*
X431154Y398669D01*
X431321Y398363D01*
X431460Y398030D01*
X431599Y397641D01*
X431738Y397225D01*
X431849Y396780D01*
X431960Y396281D01*
X432043Y395725D01*
X432071Y395142D01*
X432099Y394503D01*
Y383395D01*
X428877D01*
Y394420D01*
Y394448D01*
Y394531D01*
Y394642D01*
Y394809D01*
X428850Y395003D01*
X428822Y395198D01*
X428766Y395697D01*
X428655Y396253D01*
X428489Y396808D01*
X428266Y397308D01*
X428128Y397530D01*
X427961Y397725D01*
X427906Y397780D01*
X427794Y397891D01*
X427572Y398030D01*
X427267Y398225D01*
X426878Y398391D01*
X426406Y398558D01*
X425823Y398669D01*
X425156Y398697D01*
X424906D01*
X424629Y398669D01*
X424295Y398613D01*
X423907Y398558D01*
X423462Y398447D01*
X423046Y398308D01*
X422629Y398113D01*
X422574Y398086D01*
X422463Y398002D01*
X422268Y397864D01*
X422046Y397697D01*
X421796Y397447D01*
X421518Y397169D01*
X421268Y396836D01*
X421019Y396447D01*
Y383395D01*
X417797D01*
Y400974D01*
X420657D01*
X420907Y398363D01*
Y398391D01*
X420935Y398419D01*
X421074Y398586D01*
X421241Y398863D01*
X421518Y399169D01*
X421824Y399502D01*
X422185Y399863D01*
X422629Y400224D01*
X423101Y400529D01*
X423129D01*
X423157Y400557D01*
X423240Y400613D01*
X423323Y400640D01*
X423601Y400779D01*
X423990Y400918D01*
X424434Y401057D01*
X424934Y401196D01*
X425517Y401279D01*
X426128Y401307D01*
X426406D01*
X426600Y401279D01*
D02*
G37*
G36*
X541957D02*
X542179Y401252D01*
X542457Y401196D01*
X542734Y401140D01*
X543068Y401085D01*
X543734Y400863D01*
X544095Y400696D01*
X544456Y400529D01*
X544789Y400307D01*
X545123Y400057D01*
X545456Y399780D01*
X545761Y399446D01*
X545789Y399419D01*
X545817Y399363D01*
X545900Y399252D01*
X546011Y399113D01*
X546122Y398919D01*
X546261Y398669D01*
X546400Y398391D01*
X546567Y398058D01*
X546705Y397697D01*
X546844Y397280D01*
X546983Y396836D01*
X547094Y396336D01*
X547205Y395809D01*
X547289Y395225D01*
X547316Y394587D01*
X547344Y393920D01*
Y383395D01*
X544123D01*
Y393948D01*
Y393976D01*
Y394059D01*
Y394198D01*
Y394365D01*
X544095Y394587D01*
X544067Y394837D01*
X544012Y395392D01*
X543901Y396003D01*
X543762Y396586D01*
X543540Y397142D01*
X543401Y397392D01*
X543234Y397614D01*
X543207Y397669D01*
X543068Y397780D01*
X542873Y397947D01*
X542568Y398169D01*
X542207Y398363D01*
X541735Y398530D01*
X541207Y398641D01*
X540568Y398697D01*
X540402D01*
X540291Y398669D01*
X539985Y398641D01*
X539624Y398558D01*
X539208Y398419D01*
X538763Y398225D01*
X538319Y397947D01*
X537902Y397558D01*
X537847Y397502D01*
X537736Y397364D01*
X537569Y397114D01*
X537375Y396780D01*
X537153Y396364D01*
X536958Y395864D01*
X536819Y395309D01*
X536708Y394698D01*
Y394559D01*
Y383395D01*
X533487D01*
Y393948D01*
Y393976D01*
Y394059D01*
Y394198D01*
Y394365D01*
X533459Y394559D01*
X533431Y394781D01*
X533376Y395337D01*
X533265Y395920D01*
X533098Y396503D01*
X532876Y397086D01*
X532737Y397336D01*
X532571Y397558D01*
X532515Y397614D01*
X532404Y397725D01*
X532182Y397919D01*
X531904Y398141D01*
X531515Y398336D01*
X531071Y398530D01*
X530543Y398641D01*
X529932Y398697D01*
X529682D01*
X529405Y398669D01*
X529072Y398613D01*
X528711Y398558D01*
X528294Y398447D01*
X527905Y398280D01*
X527516Y398086D01*
X527489Y398058D01*
X527350Y397975D01*
X527183Y397836D01*
X526989Y397669D01*
X526739Y397419D01*
X526517Y397142D01*
X526267Y396808D01*
X526072Y396420D01*
Y383395D01*
X522851D01*
Y400974D01*
X525711D01*
X525961Y398669D01*
Y398697D01*
X525989Y398724D01*
X526128Y398863D01*
X526295Y399113D01*
X526545Y399391D01*
X526878Y399696D01*
X527239Y400030D01*
X527655Y400335D01*
X528127Y400613D01*
X528155D01*
X528183Y400640D01*
X528266Y400668D01*
X528377Y400724D01*
X528655Y400835D01*
X529016Y400974D01*
X529460Y401085D01*
X529988Y401196D01*
X530571Y401279D01*
X531210Y401307D01*
X531515D01*
X531654Y401279D01*
X531849D01*
X532265Y401196D01*
X532737Y401113D01*
X533237Y400974D01*
X533737Y400779D01*
X534237Y400502D01*
X534265D01*
X534292Y400474D01*
X534459Y400363D01*
X534681Y400169D01*
X534959Y399891D01*
X535264Y399557D01*
X535570Y399141D01*
X535875Y398641D01*
X536125Y398058D01*
Y398086D01*
X536153Y398113D01*
X536208Y398197D01*
X536292Y398308D01*
X536458Y398586D01*
X536736Y398919D01*
X537042Y399308D01*
X537430Y399724D01*
X537875Y400085D01*
X538347Y400446D01*
X538375D01*
X538402Y400474D01*
X538486Y400529D01*
X538597Y400585D01*
X538874Y400724D01*
X539263Y400890D01*
X539708Y401029D01*
X540263Y401168D01*
X540846Y401279D01*
X541512Y401307D01*
X541762D01*
X541957Y401279D01*
D02*
G37*
G36*
X512826D02*
X513048Y401252D01*
X513326Y401196D01*
X513604Y401140D01*
X513937Y401085D01*
X514603Y400863D01*
X514964Y400696D01*
X515325Y400529D01*
X515659Y400307D01*
X515992Y400057D01*
X516325Y399780D01*
X516631Y399446D01*
X516658Y399419D01*
X516686Y399363D01*
X516769Y399252D01*
X516881Y399113D01*
X516992Y398919D01*
X517131Y398669D01*
X517269Y398391D01*
X517436Y398058D01*
X517575Y397697D01*
X517714Y397280D01*
X517852Y396836D01*
X517964Y396336D01*
X518075Y395809D01*
X518158Y395225D01*
X518186Y394587D01*
X518214Y393920D01*
Y383395D01*
X514992D01*
Y393948D01*
Y393976D01*
Y394059D01*
Y394198D01*
Y394365D01*
X514964Y394587D01*
X514937Y394837D01*
X514881Y395392D01*
X514770Y396003D01*
X514631Y396586D01*
X514409Y397142D01*
X514270Y397392D01*
X514104Y397614D01*
X514076Y397669D01*
X513937Y397780D01*
X513742Y397947D01*
X513437Y398169D01*
X513076Y398363D01*
X512604Y398530D01*
X512076Y398641D01*
X511438Y398697D01*
X511271D01*
X511160Y398669D01*
X510854Y398641D01*
X510493Y398558D01*
X510077Y398419D01*
X509633Y398225D01*
X509188Y397947D01*
X508772Y397558D01*
X508716Y397502D01*
X508605Y397364D01*
X508438Y397114D01*
X508244Y396780D01*
X508022Y396364D01*
X507828Y395864D01*
X507689Y395309D01*
X507578Y394698D01*
Y394559D01*
Y383395D01*
X504356D01*
Y393948D01*
Y393976D01*
Y394059D01*
Y394198D01*
Y394365D01*
X504328Y394559D01*
X504301Y394781D01*
X504245Y395337D01*
X504134Y395920D01*
X503968Y396503D01*
X503745Y397086D01*
X503607Y397336D01*
X503440Y397558D01*
X503384Y397614D01*
X503273Y397725D01*
X503051Y397919D01*
X502773Y398141D01*
X502385Y398336D01*
X501940Y398530D01*
X501413Y398641D01*
X500802Y398697D01*
X500552D01*
X500274Y398669D01*
X499941Y398613D01*
X499580Y398558D01*
X499163Y398447D01*
X498774Y398280D01*
X498386Y398086D01*
X498358Y398058D01*
X498219Y397975D01*
X498053Y397836D01*
X497858Y397669D01*
X497608Y397419D01*
X497386Y397142D01*
X497136Y396808D01*
X496942Y396420D01*
Y383395D01*
X493720D01*
Y400974D01*
X496581D01*
X496831Y398669D01*
Y398697D01*
X496858Y398724D01*
X496997Y398863D01*
X497164Y399113D01*
X497414Y399391D01*
X497747Y399696D01*
X498108Y400030D01*
X498525Y400335D01*
X498997Y400613D01*
X499024D01*
X499052Y400640D01*
X499135Y400668D01*
X499247Y400724D01*
X499524Y400835D01*
X499885Y400974D01*
X500330Y401085D01*
X500857Y401196D01*
X501440Y401279D01*
X502079Y401307D01*
X502385D01*
X502523Y401279D01*
X502718D01*
X503134Y401196D01*
X503607Y401113D01*
X504106Y400974D01*
X504606Y400779D01*
X505106Y400502D01*
X505134D01*
X505162Y400474D01*
X505328Y400363D01*
X505550Y400169D01*
X505828Y399891D01*
X506134Y399557D01*
X506439Y399141D01*
X506744Y398641D01*
X506994Y398058D01*
Y398086D01*
X507022Y398113D01*
X507078Y398197D01*
X507161Y398308D01*
X507328Y398586D01*
X507605Y398919D01*
X507911Y399308D01*
X508300Y399724D01*
X508744Y400085D01*
X509216Y400446D01*
X509244D01*
X509272Y400474D01*
X509355Y400529D01*
X509466Y400585D01*
X509744Y400724D01*
X510132Y400890D01*
X510577Y401029D01*
X511132Y401168D01*
X511715Y401279D01*
X512382Y401307D01*
X512632D01*
X512826Y401279D01*
D02*
G37*
G36*
X324351D02*
X324601Y401252D01*
X324879Y401224D01*
X325212Y401168D01*
X325573Y401085D01*
X326323Y400863D01*
X326739Y400724D01*
X327128Y400529D01*
X327545Y400335D01*
X327933Y400085D01*
X328322Y399808D01*
X328683Y399474D01*
X328711Y399446D01*
X328767Y399391D01*
X328850Y399280D01*
X328989Y399141D01*
X329128Y398974D01*
X329266Y398752D01*
X329433Y398530D01*
X329627Y398252D01*
X329794Y397919D01*
X329961Y397586D01*
X330100Y397225D01*
X330238Y396836D01*
X330349Y396420D01*
X330433Y395975D01*
X330488Y395503D01*
Y395003D01*
X330461Y394920D01*
X327545D01*
Y394948D01*
Y395003D01*
Y395087D01*
X327517Y395198D01*
X327489Y395475D01*
X327406Y395864D01*
X327295Y396281D01*
X327100Y396753D01*
X326850Y397197D01*
X326489Y397641D01*
X326434Y397697D01*
X326295Y397808D01*
X326073Y398002D01*
X325767Y398225D01*
X325406Y398419D01*
X324934Y398613D01*
X324434Y398724D01*
X323851Y398780D01*
X323629D01*
X323463Y398752D01*
X323268Y398724D01*
X323046Y398697D01*
X322546Y398558D01*
X321963Y398336D01*
X321685Y398197D01*
X321408Y398002D01*
X321130Y397808D01*
X320880Y397558D01*
X320630Y397280D01*
X320408Y396947D01*
Y396919D01*
X320352Y396864D01*
X320297Y396753D01*
X320241Y396614D01*
X320158Y396447D01*
X320075Y396253D01*
X319964Y396003D01*
X319880Y395725D01*
X319769Y395420D01*
X319658Y395087D01*
X319491Y394337D01*
X319380Y393476D01*
X319325Y392532D01*
Y391838D01*
Y391810D01*
Y391726D01*
Y391587D01*
X319353Y391393D01*
Y391171D01*
X319380Y390893D01*
X319408Y390616D01*
X319464Y390282D01*
X319575Y389588D01*
X319769Y388838D01*
X320019Y388088D01*
X320380Y387367D01*
Y387339D01*
X320436Y387283D01*
X320491Y387200D01*
X320574Y387089D01*
X320852Y386783D01*
X321019Y386617D01*
X321213Y386450D01*
X321435Y386283D01*
X321713Y386117D01*
X321991Y385950D01*
X322296Y385811D01*
X322657Y385700D01*
X323018Y385617D01*
X323407Y385561D01*
X323851Y385534D01*
X323990D01*
X324101Y385561D01*
X324379Y385589D01*
X324740Y385645D01*
X325129Y385784D01*
X325573Y385950D01*
X326017Y386172D01*
X326434Y386506D01*
X326489Y386561D01*
X326601Y386672D01*
X326795Y386894D01*
X326989Y387200D01*
X327184Y387533D01*
X327378Y387950D01*
X327489Y388422D01*
X327545Y388949D01*
X330461D01*
X330488Y388838D01*
Y388810D01*
Y388727D01*
Y388616D01*
X330461Y388450D01*
X330433Y388255D01*
X330405Y388033D01*
X330349Y387755D01*
X330266Y387478D01*
X330183Y387172D01*
X330044Y386867D01*
X329905Y386533D01*
X329711Y386172D01*
X329489Y385839D01*
X329211Y385478D01*
X328905Y385145D01*
X328544Y384812D01*
X328517Y384784D01*
X328461Y384728D01*
X328350Y384645D01*
X328183Y384534D01*
X327989Y384395D01*
X327767Y384256D01*
X327489Y384090D01*
X327211Y383951D01*
X326878Y383784D01*
X326517Y383617D01*
X325712Y383340D01*
X325268Y383229D01*
X324823Y383145D01*
X324351Y383090D01*
X323851Y383062D01*
X323685D01*
X323490Y383090D01*
X323240D01*
X322935Y383145D01*
X322574Y383201D01*
X322185Y383284D01*
X321741Y383368D01*
X321296Y383506D01*
X320824Y383673D01*
X320352Y383868D01*
X319880Y384117D01*
X319408Y384395D01*
X318964Y384728D01*
X318519Y385117D01*
X318131Y385561D01*
X318103Y385589D01*
X318047Y385672D01*
X317936Y385811D01*
X317825Y386006D01*
X317659Y386256D01*
X317492Y386561D01*
X317298Y386894D01*
X317131Y387283D01*
X316936Y387727D01*
X316742Y388200D01*
X316576Y388727D01*
X316409Y389283D01*
X316298Y389866D01*
X316187Y390505D01*
X316131Y391143D01*
X316103Y391838D01*
Y392532D01*
Y392587D01*
Y392698D01*
X316131Y392893D01*
Y393143D01*
X316159Y393476D01*
X316214Y393837D01*
X316270Y394253D01*
X316353Y394698D01*
X316464Y395198D01*
X316603Y395697D01*
X316770Y396225D01*
X316964Y396725D01*
X317186Y397253D01*
X317464Y397780D01*
X317770Y398308D01*
X318131Y398780D01*
X318158Y398808D01*
X318214Y398891D01*
X318353Y399002D01*
X318519Y399169D01*
X318714Y399363D01*
X318964Y399585D01*
X319269Y399808D01*
X319602Y400057D01*
X319991Y400280D01*
X320408Y400502D01*
X320880Y400724D01*
X321408Y400918D01*
X321963Y401085D01*
X322546Y401196D01*
X323185Y401279D01*
X323851Y401307D01*
X324129D01*
X324351Y401279D01*
D02*
G37*
G36*
X471199Y404556D02*
Y404528D01*
X471143Y404501D01*
X471088Y404417D01*
X471004Y404306D01*
X470782Y404029D01*
X470477Y403667D01*
X470116Y403195D01*
X469699Y402640D01*
X469255Y402057D01*
X468755Y401390D01*
X468255Y400668D01*
X467755Y399919D01*
X467255Y399113D01*
X466756Y398336D01*
X466284Y397502D01*
X465867Y396697D01*
X465478Y395892D01*
X465145Y395114D01*
X465117Y395059D01*
X465090Y394920D01*
X465006Y394698D01*
X464895Y394392D01*
X464784Y394004D01*
X464645Y393559D01*
X464506Y393032D01*
X464367Y392448D01*
X464201Y391782D01*
X464062Y391088D01*
X463923Y390338D01*
X463812Y389532D01*
X463701Y388699D01*
X463618Y387811D01*
X463590Y386922D01*
X463562Y385978D01*
Y383395D01*
X460369D01*
Y385978D01*
Y386006D01*
Y386034D01*
Y386117D01*
Y386228D01*
Y386506D01*
X460396Y386894D01*
X460424Y387367D01*
X460480Y387894D01*
X460535Y388533D01*
X460618Y389199D01*
X460730Y389921D01*
X460841Y390699D01*
X461007Y391504D01*
X461202Y392309D01*
X461424Y393143D01*
X461701Y394004D01*
X462007Y394837D01*
X462340Y395642D01*
X462368Y395697D01*
X462424Y395836D01*
X462535Y396059D01*
X462701Y396392D01*
X462923Y396780D01*
X463173Y397253D01*
X463451Y397780D01*
X463784Y398363D01*
X464173Y399030D01*
X464617Y399724D01*
X465062Y400446D01*
X465589Y401224D01*
X466145Y402029D01*
X466728Y402862D01*
X467367Y403695D01*
X468061Y404556D01*
X455481D01*
Y407083D01*
X471199D01*
Y404556D01*
D02*
G37*
G36*
X412882Y383395D02*
X409688D01*
Y400974D01*
X412882D01*
Y383395D01*
D02*
G37*
G36*
X379419Y407055D02*
X379725Y407028D01*
X380085Y406972D01*
X380502Y406917D01*
X380946Y406833D01*
X381418Y406722D01*
X381891Y406611D01*
X382390Y406445D01*
X382890Y406250D01*
X383362Y406028D01*
X383835Y405750D01*
X384279Y405473D01*
X384695Y405112D01*
X384723Y405084D01*
X384779Y405028D01*
X384890Y404917D01*
X385029Y404750D01*
X385195Y404556D01*
X385362Y404334D01*
X385556Y404056D01*
X385751Y403751D01*
X385945Y403390D01*
X386139Y403001D01*
X386306Y402585D01*
X386473Y402112D01*
X386612Y401640D01*
X386722Y401113D01*
X386778Y400557D01*
X386806Y399974D01*
Y399946D01*
Y399835D01*
Y399669D01*
X386778Y399446D01*
X386750Y399169D01*
X386695Y398863D01*
X386639Y398502D01*
X386556Y398113D01*
X386445Y397725D01*
X386278Y397308D01*
X386112Y396864D01*
X385917Y396447D01*
X385667Y396003D01*
X385390Y395586D01*
X385056Y395198D01*
X384695Y394809D01*
X384668Y394781D01*
X384584Y394725D01*
X384473Y394642D01*
X384307Y394503D01*
X384084Y394365D01*
X383835Y394198D01*
X383529Y394031D01*
X383168Y393865D01*
X382779Y393670D01*
X382335Y393504D01*
X381835Y393337D01*
X381307Y393198D01*
X380752Y393059D01*
X380141Y392976D01*
X379475Y392920D01*
X378780Y392893D01*
X372949D01*
Y383395D01*
X369727D01*
Y407083D01*
X379141D01*
X379419Y407055D01*
D02*
G37*
G36*
X356092Y383395D02*
X352899D01*
Y408777D01*
X356092D01*
Y383395D01*
D02*
G37*
G36*
X341818Y401279D02*
X342068Y401252D01*
X342374Y401224D01*
X342679Y401168D01*
X343040Y401113D01*
X343818Y400946D01*
X344623Y400668D01*
X345012Y400502D01*
X345401Y400280D01*
X345762Y400057D01*
X346123Y399780D01*
X346151Y399752D01*
X346206Y399724D01*
X346289Y399613D01*
X346400Y399502D01*
X346539Y399335D01*
X346706Y399169D01*
X346873Y398919D01*
X347039Y398669D01*
X347206Y398391D01*
X347372Y398058D01*
X347539Y397697D01*
X347678Y397308D01*
X347789Y396892D01*
X347872Y396420D01*
X347928Y395947D01*
X347956Y395420D01*
Y386922D01*
Y386894D01*
Y386755D01*
Y386589D01*
X347983Y386339D01*
Y386061D01*
X348011Y385756D01*
X348067Y385089D01*
Y385062D01*
X348095Y384950D01*
X348122Y384784D01*
X348150Y384562D01*
X348205Y384312D01*
X348261Y384006D01*
X348428Y383395D01*
X345123D01*
Y383423D01*
X345095Y383534D01*
X345068Y383673D01*
X345040Y383868D01*
X344984Y384090D01*
X344956Y384312D01*
X344873Y384784D01*
Y384812D01*
Y384895D01*
X344845Y385006D01*
X344818Y385173D01*
Y385339D01*
X344790Y385561D01*
X344762Y386006D01*
X344734Y385950D01*
X344595Y385811D01*
X344401Y385561D01*
X344151Y385284D01*
X343790Y384950D01*
X343401Y384590D01*
X342957Y384228D01*
X342429Y383895D01*
X342402D01*
X342374Y383868D01*
X342290Y383812D01*
X342179Y383756D01*
X341874Y383645D01*
X341513Y383479D01*
X341041Y383340D01*
X340513Y383201D01*
X339930Y383090D01*
X339319Y383062D01*
X339069D01*
X338875Y383090D01*
X338625Y383118D01*
X338375Y383145D01*
X338070Y383173D01*
X337764Y383229D01*
X337098Y383395D01*
X336403Y383645D01*
X336042Y383812D01*
X335709Y384006D01*
X335404Y384201D01*
X335126Y384451D01*
X335098Y384478D01*
X335070Y384506D01*
X334987Y384590D01*
X334904Y384701D01*
X334793Y384867D01*
X334682Y385034D01*
X334543Y385228D01*
X334432Y385478D01*
X334293Y385728D01*
X334154Y386034D01*
X334043Y386339D01*
X333932Y386700D01*
X333765Y387450D01*
X333737Y387894D01*
X333710Y388338D01*
Y388366D01*
Y388450D01*
X333737Y388588D01*
Y388755D01*
X333765Y388949D01*
X333821Y389199D01*
X333960Y389755D01*
X334071Y390088D01*
X334209Y390393D01*
X334376Y390727D01*
X334571Y391032D01*
X334793Y391365D01*
X335070Y391671D01*
X335376Y391976D01*
X335737Y392254D01*
X335765Y392282D01*
X335820Y392309D01*
X335959Y392393D01*
X336126Y392476D01*
X336320Y392587D01*
X336570Y392698D01*
X336875Y392837D01*
X337209Y392976D01*
X337570Y393115D01*
X337986Y393254D01*
X338458Y393365D01*
X338958Y393476D01*
X339486Y393559D01*
X340041Y393642D01*
X340652Y393670D01*
X341291Y393698D01*
X344762D01*
Y395448D01*
Y395475D01*
Y395503D01*
Y395586D01*
Y395697D01*
X344707Y395975D01*
X344651Y396336D01*
X344540Y396697D01*
X344373Y397114D01*
X344123Y397502D01*
X343818Y397864D01*
X343762Y397891D01*
X343651Y398002D01*
X343429Y398141D01*
X343124Y398336D01*
X342763Y398502D01*
X342290Y398641D01*
X341763Y398752D01*
X341152Y398780D01*
X340902D01*
X340597Y398752D01*
X340263Y398697D01*
X339847Y398586D01*
X339430Y398447D01*
X339014Y398252D01*
X338625Y398002D01*
X338597Y397975D01*
X338486Y397864D01*
X338319Y397697D01*
X338153Y397475D01*
X337986Y397197D01*
X337820Y396892D01*
X337708Y396531D01*
X337681Y396142D01*
X334626Y396114D01*
X334598Y396197D01*
Y396225D01*
Y396281D01*
Y396392D01*
Y396531D01*
X334626Y396697D01*
X334654Y396892D01*
X334793Y397364D01*
X334876Y397614D01*
X334987Y397891D01*
X335126Y398197D01*
X335293Y398475D01*
X335515Y398780D01*
X335765Y399085D01*
X336042Y399391D01*
X336375Y399696D01*
X336403Y399724D01*
X336459Y399780D01*
X336570Y399835D01*
X336736Y399946D01*
X336903Y400057D01*
X337153Y400196D01*
X337403Y400363D01*
X337708Y400502D01*
X338042Y400640D01*
X338431Y400807D01*
X338819Y400946D01*
X339264Y401057D01*
X339736Y401168D01*
X340236Y401252D01*
X340763Y401279D01*
X341319Y401307D01*
X341596D01*
X341818Y401279D01*
D02*
G37*
G36*
X294832Y404556D02*
X283196D01*
Y396392D01*
X293165D01*
Y393865D01*
X283196D01*
Y383395D01*
X279975D01*
Y407083D01*
X294832D01*
Y404556D01*
D02*
G37*
G36*
X482335Y407389D02*
X482585D01*
X482862Y407333D01*
X483195Y407305D01*
X483584Y407222D01*
X484001Y407111D01*
X484417Y407000D01*
X484890Y406833D01*
X485334Y406639D01*
X485806Y406417D01*
X486250Y406139D01*
X486694Y405833D01*
X487139Y405473D01*
X487528Y405056D01*
X487555Y405028D01*
X487611Y404945D01*
X487722Y404806D01*
X487861Y404639D01*
X488000Y404389D01*
X488166Y404112D01*
X488361Y403751D01*
X488555Y403390D01*
X488750Y402946D01*
X488944Y402473D01*
X489111Y401946D01*
X489249Y401390D01*
X489388Y400779D01*
X489499Y400113D01*
X489555Y399419D01*
X489583Y398697D01*
Y391754D01*
Y391699D01*
Y391587D01*
Y391365D01*
X489555Y391088D01*
X489527Y390754D01*
X489471Y390366D01*
X489416Y389921D01*
X489333Y389449D01*
X489222Y388949D01*
X489083Y388422D01*
X488916Y387894D01*
X488722Y387367D01*
X488472Y386839D01*
X488194Y386339D01*
X487889Y385839D01*
X487528Y385395D01*
X487500Y385367D01*
X487444Y385284D01*
X487305Y385173D01*
X487167Y385034D01*
X486944Y384867D01*
X486694Y384645D01*
X486417Y384451D01*
X486084Y384228D01*
X485723Y384006D01*
X485306Y383812D01*
X484862Y383617D01*
X484362Y383423D01*
X483834Y383284D01*
X483279Y383173D01*
X482696Y383090D01*
X482057Y383062D01*
X481918D01*
X481724Y383090D01*
X481502D01*
X481196Y383145D01*
X480863Y383173D01*
X480474Y383257D01*
X480085Y383368D01*
X479641Y383479D01*
X479197Y383645D01*
X478752Y383812D01*
X478280Y384034D01*
X477836Y384312D01*
X477392Y384617D01*
X476947Y384978D01*
X476558Y385395D01*
X476531Y385423D01*
X476475Y385506D01*
X476364Y385645D01*
X476225Y385811D01*
X476086Y386061D01*
X475920Y386339D01*
X475725Y386672D01*
X475531Y387061D01*
X475337Y387505D01*
X475142Y387977D01*
X474976Y388505D01*
X474837Y389060D01*
X474698Y389671D01*
X474587Y390338D01*
X474531Y391032D01*
X474504Y391754D01*
Y398697D01*
Y398752D01*
Y398863D01*
X474531Y399085D01*
Y399363D01*
X474559Y399696D01*
X474615Y400085D01*
X474670Y400529D01*
X474753Y401002D01*
X474864Y401501D01*
X475003Y402001D01*
X475170Y402529D01*
X475364Y403056D01*
X475587Y403584D01*
X475864Y404112D01*
X476170Y404584D01*
X476531Y405056D01*
X476558Y405084D01*
X476614Y405167D01*
X476753Y405278D01*
X476920Y405417D01*
X477114Y405611D01*
X477364Y405806D01*
X477641Y406028D01*
X477975Y406250D01*
X478364Y406445D01*
X478780Y406667D01*
X479224Y406861D01*
X479697Y407055D01*
X480224Y407194D01*
X480780Y407305D01*
X481390Y407389D01*
X482001Y407416D01*
X482168D01*
X482335Y407389D01*
D02*
G37*
G36*
X441207Y400974D02*
X444540D01*
Y398613D01*
X441207D01*
Y387922D01*
Y387866D01*
Y387727D01*
X441235Y387505D01*
X441263Y387228D01*
X441318Y386950D01*
X441429Y386645D01*
X441540Y386395D01*
X441707Y386172D01*
X441735Y386145D01*
X441790Y386089D01*
X441929Y386006D01*
X442068Y385922D01*
X442263Y385839D01*
X442513Y385756D01*
X442762Y385700D01*
X443068Y385672D01*
X443262D01*
X443457Y385700D01*
X443679Y385728D01*
X443707D01*
X443734Y385756D01*
X443901Y385784D01*
X444068Y385839D01*
X444262Y385895D01*
X444706Y383701D01*
X444678D01*
X444651Y383645D01*
X444567Y383617D01*
X444429Y383534D01*
X444290Y383479D01*
X444123Y383395D01*
X443901Y383312D01*
X443651Y383257D01*
X443623D01*
X443540Y383229D01*
X443401Y383201D01*
X443207Y383173D01*
X443012Y383118D01*
X442762Y383090D01*
X442263Y383062D01*
X442068D01*
X441929Y383090D01*
X441790D01*
X441596Y383118D01*
X441152Y383201D01*
X440652Y383340D01*
X440124Y383562D01*
X439624Y383840D01*
X439152Y384228D01*
Y384256D01*
X439097Y384284D01*
X439041Y384367D01*
X438958Y384451D01*
X438875Y384590D01*
X438791Y384728D01*
X438680Y384923D01*
X438569Y385117D01*
X438458Y385367D01*
X438347Y385645D01*
X438264Y385950D01*
X438180Y386283D01*
X438097Y386645D01*
X438041Y387033D01*
X438014Y387478D01*
X437986Y387922D01*
Y398613D01*
X435209D01*
Y400974D01*
X437986D01*
Y405223D01*
X441207D01*
Y400974D01*
D02*
G37*
G36*
X397942Y401279D02*
X398192D01*
X398497Y401224D01*
X398858Y401168D01*
X399247Y401085D01*
X399691Y401002D01*
X400135Y400863D01*
X400607Y400696D01*
X401080Y400474D01*
X401552Y400252D01*
X402052Y399946D01*
X402496Y399613D01*
X402940Y399224D01*
X403357Y398780D01*
X403384Y398752D01*
X403440Y398669D01*
X403551Y398530D01*
X403690Y398336D01*
X403857Y398086D01*
X404023Y397780D01*
X404218Y397447D01*
X404440Y397030D01*
X404634Y396586D01*
X404829Y396114D01*
X404995Y395586D01*
X405162Y395003D01*
X405301Y394392D01*
X405412Y393754D01*
X405467Y393059D01*
X405495Y392337D01*
Y391976D01*
Y391921D01*
Y391810D01*
Y391587D01*
X405467Y391338D01*
X405440Y391004D01*
X405384Y390616D01*
X405328Y390171D01*
X405245Y389699D01*
X405134Y389199D01*
X404967Y388699D01*
X404801Y388144D01*
X404606Y387616D01*
X404356Y387089D01*
X404079Y386561D01*
X403746Y386034D01*
X403384Y385561D01*
X403357Y385534D01*
X403301Y385450D01*
X403162Y385339D01*
X402996Y385173D01*
X402774Y384978D01*
X402524Y384784D01*
X402218Y384534D01*
X401885Y384312D01*
X401496Y384090D01*
X401052Y383868D01*
X400580Y383645D01*
X400080Y383451D01*
X399524Y383284D01*
X398941Y383173D01*
X398303Y383090D01*
X397636Y383062D01*
X397469D01*
X397275Y383090D01*
X397025D01*
X396720Y383145D01*
X396359Y383201D01*
X395970Y383284D01*
X395526Y383368D01*
X395081Y383506D01*
X394609Y383673D01*
X394137Y383868D01*
X393637Y384117D01*
X393165Y384395D01*
X392693Y384728D01*
X392249Y385117D01*
X391832Y385561D01*
X391804Y385589D01*
X391749Y385672D01*
X391638Y385811D01*
X391499Y386006D01*
X391332Y386256D01*
X391166Y386561D01*
X390971Y386894D01*
X390777Y387311D01*
X390583Y387755D01*
X390388Y388227D01*
X390222Y388755D01*
X390055Y389310D01*
X389916Y389921D01*
X389805Y390588D01*
X389750Y391254D01*
X389722Y391976D01*
Y392337D01*
Y392393D01*
Y392504D01*
X389750Y392726D01*
Y392976D01*
X389777Y393337D01*
X389833Y393698D01*
X389888Y394142D01*
X389999Y394615D01*
X390110Y395114D01*
X390249Y395642D01*
X390416Y396170D01*
X390610Y396697D01*
X390860Y397253D01*
X391138Y397780D01*
X391471Y398280D01*
X391832Y398780D01*
X391860Y398808D01*
X391943Y398891D01*
X392054Y399002D01*
X392221Y399169D01*
X392443Y399363D01*
X392693Y399585D01*
X392999Y399808D01*
X393360Y400057D01*
X393748Y400280D01*
X394165Y400502D01*
X394637Y400724D01*
X395165Y400918D01*
X395720Y401085D01*
X396303Y401196D01*
X396914Y401279D01*
X397581Y401307D01*
X397747D01*
X397942Y401279D01*
D02*
G37*
G36*
X305384D02*
X305634D01*
X305940Y401224D01*
X306301Y401168D01*
X306689Y401085D01*
X307134Y401002D01*
X307578Y400863D01*
X308050Y400696D01*
X308522Y400474D01*
X308994Y400252D01*
X309494Y399946D01*
X309939Y399613D01*
X310383Y399224D01*
X310799Y398780D01*
X310827Y398752D01*
X310883Y398669D01*
X310994Y398530D01*
X311133Y398336D01*
X311299Y398086D01*
X311466Y397780D01*
X311660Y397447D01*
X311882Y397030D01*
X312077Y396586D01*
X312271Y396114D01*
X312438Y395586D01*
X312604Y395003D01*
X312743Y394392D01*
X312854Y393754D01*
X312910Y393059D01*
X312938Y392337D01*
Y391976D01*
Y391921D01*
Y391810D01*
Y391587D01*
X312910Y391338D01*
X312882Y391004D01*
X312827Y390616D01*
X312771Y390171D01*
X312688Y389699D01*
X312577Y389199D01*
X312410Y388699D01*
X312243Y388144D01*
X312049Y387616D01*
X311799Y387089D01*
X311521Y386561D01*
X311188Y386034D01*
X310827Y385561D01*
X310799Y385534D01*
X310744Y385450D01*
X310605Y385339D01*
X310438Y385173D01*
X310216Y384978D01*
X309966Y384784D01*
X309661Y384534D01*
X309328Y384312D01*
X308939Y384090D01*
X308494Y383868D01*
X308022Y383645D01*
X307523Y383451D01*
X306967Y383284D01*
X306384Y383173D01*
X305745Y383090D01*
X305079Y383062D01*
X304912D01*
X304718Y383090D01*
X304468D01*
X304162Y383145D01*
X303801Y383201D01*
X303413Y383284D01*
X302968Y383368D01*
X302524Y383506D01*
X302052Y383673D01*
X301580Y383868D01*
X301080Y384117D01*
X300608Y384395D01*
X300136Y384728D01*
X299691Y385117D01*
X299275Y385561D01*
X299247Y385589D01*
X299191Y385672D01*
X299080Y385811D01*
X298942Y386006D01*
X298775Y386256D01*
X298608Y386561D01*
X298414Y386894D01*
X298219Y387311D01*
X298025Y387755D01*
X297831Y388227D01*
X297664Y388755D01*
X297498Y389310D01*
X297359Y389921D01*
X297248Y390588D01*
X297192Y391254D01*
X297164Y391976D01*
Y392337D01*
Y392393D01*
Y392504D01*
X297192Y392726D01*
Y392976D01*
X297220Y393337D01*
X297275Y393698D01*
X297331Y394142D01*
X297442Y394615D01*
X297553Y395114D01*
X297692Y395642D01*
X297859Y396170D01*
X298053Y396697D01*
X298303Y397253D01*
X298581Y397780D01*
X298914Y398280D01*
X299275Y398780D01*
X299303Y398808D01*
X299386Y398891D01*
X299497Y399002D01*
X299664Y399169D01*
X299886Y399363D01*
X300136Y399585D01*
X300441Y399808D01*
X300802Y400057D01*
X301191Y400280D01*
X301607Y400502D01*
X302080Y400724D01*
X302607Y400918D01*
X303163Y401085D01*
X303746Y401196D01*
X304357Y401279D01*
X305023Y401307D01*
X305190D01*
X305384Y401279D01*
D02*
G37*
G36*
X512229Y378297D02*
X512535Y378269D01*
X512923Y378214D01*
X513368Y378158D01*
X513812Y378075D01*
X514312Y377964D01*
X514812Y377797D01*
X515339Y377630D01*
X515839Y377436D01*
X516367Y377186D01*
X516867Y376908D01*
X517339Y376575D01*
X517783Y376214D01*
X517811Y376186D01*
X517894Y376131D01*
X518005Y375992D01*
X518144Y375825D01*
X518311Y375631D01*
X518505Y375381D01*
X518727Y375076D01*
X518922Y374742D01*
X519144Y374381D01*
X519338Y373992D01*
X519533Y373548D01*
X519699Y373076D01*
X519838Y372548D01*
X519949Y372021D01*
X520005Y371438D01*
X520032Y370854D01*
X520005Y370743D01*
X516922D01*
Y370771D01*
Y370827D01*
Y370966D01*
X516894Y371104D01*
X516867Y371299D01*
X516839Y371493D01*
X516756Y372021D01*
X516589Y372576D01*
X516339Y373187D01*
X516172Y373493D01*
X515978Y373798D01*
X515756Y374076D01*
X515506Y374354D01*
X515478Y374381D01*
X515450Y374409D01*
X515367Y374492D01*
X515256Y374576D01*
X515117Y374687D01*
X514923Y374798D01*
X514728Y374937D01*
X514506Y375076D01*
X514228Y375214D01*
X513923Y375353D01*
X513618Y375464D01*
X513257Y375575D01*
X512868Y375659D01*
X512479Y375742D01*
X512035Y375770D01*
X511563Y375798D01*
X511313D01*
X511118Y375770D01*
X510868Y375742D01*
X510618Y375686D01*
X510313Y375631D01*
X510007Y375548D01*
X509647Y375436D01*
X509285Y375298D01*
X508924Y375131D01*
X508563Y374937D01*
X508202Y374714D01*
X507841Y374437D01*
X507508Y374131D01*
X507175Y373770D01*
X507147Y373743D01*
X507092Y373687D01*
X507008Y373576D01*
X506925Y373409D01*
X506786Y373215D01*
X506647Y372965D01*
X506508Y372687D01*
X506342Y372354D01*
X506175Y372021D01*
X506036Y371632D01*
X505898Y371188D01*
X505759Y370743D01*
X505675Y370244D01*
X505592Y369716D01*
X505537Y369188D01*
X505509Y368605D01*
Y363690D01*
Y363662D01*
Y363551D01*
Y363384D01*
X505537Y363162D01*
X505564Y362912D01*
X505592Y362579D01*
X505648Y362246D01*
X505731Y361857D01*
X505925Y361052D01*
X506092Y360607D01*
X506258Y360163D01*
X506453Y359747D01*
X506675Y359302D01*
X506953Y358886D01*
X507258Y358497D01*
X507286Y358469D01*
X507341Y358414D01*
X507453Y358302D01*
X507591Y358164D01*
X507758Y358025D01*
X507952Y357858D01*
X508202Y357664D01*
X508480Y357469D01*
X508786Y357275D01*
X509147Y357081D01*
X509508Y356914D01*
X509896Y356775D01*
X510341Y356636D01*
X510785Y356525D01*
X511257Y356470D01*
X511757Y356442D01*
X512118D01*
X512285Y356470D01*
X512479D01*
X512979Y356525D01*
X513507Y356581D01*
X514062Y356664D01*
X514590Y356803D01*
X515089Y356997D01*
X515117D01*
X515145Y357025D01*
X515284Y357108D01*
X515506Y357219D01*
X515784Y357358D01*
X516061Y357553D01*
X516367Y357775D01*
X516672Y358025D01*
X516922Y358302D01*
Y363634D01*
X511563D01*
Y366134D01*
X520144D01*
Y357469D01*
Y357441D01*
X520116Y357414D01*
X519977Y357247D01*
X519755Y356997D01*
X519449Y356692D01*
X519061Y356303D01*
X518533Y355914D01*
X517922Y355470D01*
X517589Y355276D01*
X517200Y355053D01*
X517172D01*
X517117Y354998D01*
X516978Y354942D01*
X516811Y354887D01*
X516617Y354803D01*
X516367Y354720D01*
X516061Y354609D01*
X515728Y354526D01*
X515367Y354415D01*
X514951Y354304D01*
X514506Y354220D01*
X514034Y354137D01*
X513507Y354081D01*
X512951Y354026D01*
X512368Y353970D01*
X511590D01*
X511368Y353998D01*
X511091Y354026D01*
X510730Y354054D01*
X510313Y354109D01*
X509869Y354192D01*
X509369Y354304D01*
X508869Y354442D01*
X508314Y354637D01*
X507758Y354859D01*
X507175Y355109D01*
X506620Y355414D01*
X506036Y355775D01*
X505509Y356192D01*
X504981Y356664D01*
X504953Y356692D01*
X504870Y356803D01*
X504731Y356942D01*
X504565Y357164D01*
X504370Y357414D01*
X504120Y357747D01*
X503898Y358136D01*
X503648Y358552D01*
X503370Y359052D01*
X503148Y359580D01*
X502926Y360163D01*
X502704Y360774D01*
X502537Y361440D01*
X502398Y362162D01*
X502315Y362912D01*
X502287Y363690D01*
Y368577D01*
Y368633D01*
Y368772D01*
X502315Y368994D01*
Y369299D01*
X502371Y369660D01*
X502426Y370077D01*
X502510Y370549D01*
X502621Y371077D01*
X502760Y371604D01*
X502926Y372187D01*
X503121Y372771D01*
X503370Y373354D01*
X503676Y373937D01*
X504009Y374520D01*
X504426Y375076D01*
X504870Y375603D01*
X504898Y375631D01*
X504981Y375714D01*
X505148Y375853D01*
X505342Y376020D01*
X505592Y376242D01*
X505925Y376464D01*
X506286Y376714D01*
X506675Y376964D01*
X507147Y377214D01*
X507647Y377464D01*
X508202Y377686D01*
X508786Y377908D01*
X509424Y378075D01*
X510091Y378214D01*
X510813Y378297D01*
X511563Y378325D01*
X511951D01*
X512229Y378297D01*
D02*
G37*
G36*
X291402Y372187D02*
X291652Y372160D01*
X291707D01*
X291846Y372132D01*
X292013Y372104D01*
X292180Y372049D01*
X291735Y369077D01*
X290097Y369161D01*
X289875D01*
X289652Y369133D01*
X289347Y369077D01*
X289014Y369022D01*
X288653Y368911D01*
X288292Y368744D01*
X287959Y368549D01*
X287931Y368522D01*
X287820Y368439D01*
X287653Y368300D01*
X287459Y368133D01*
X287264Y367883D01*
X287042Y367578D01*
X286820Y367244D01*
X286626Y366856D01*
Y354304D01*
X283404D01*
Y371882D01*
X286265D01*
X286598Y369327D01*
Y369355D01*
X286626Y369383D01*
X286737Y369549D01*
X286903Y369799D01*
X287098Y370105D01*
X287375Y370438D01*
X287681Y370799D01*
X288042Y371132D01*
X288431Y371438D01*
X288486Y371465D01*
X288625Y371549D01*
X288847Y371688D01*
X289153Y371826D01*
X289541Y371965D01*
X289958Y372104D01*
X290430Y372187D01*
X290958Y372215D01*
X291180D01*
X291402Y372187D01*
D02*
G37*
G36*
X376628D02*
X376850Y372160D01*
X377128Y372132D01*
X377433Y372076D01*
X377767Y372021D01*
X378461Y371799D01*
X378850Y371688D01*
X379211Y371521D01*
X379572Y371326D01*
X379905Y371104D01*
X380238Y370854D01*
X380544Y370549D01*
X380572Y370521D01*
X380599Y370466D01*
X380683Y370382D01*
X380794Y370244D01*
X380905Y370049D01*
X381044Y369827D01*
X381182Y369577D01*
X381349Y369272D01*
X381488Y368938D01*
X381627Y368549D01*
X381766Y368133D01*
X381877Y367689D01*
X381988Y367189D01*
X382071Y366633D01*
X382099Y366050D01*
X382127Y365411D01*
Y354304D01*
X378905D01*
Y365328D01*
Y365356D01*
Y365439D01*
Y365550D01*
Y365717D01*
X378877Y365911D01*
X378850Y366106D01*
X378794Y366606D01*
X378683Y367161D01*
X378517Y367716D01*
X378294Y368216D01*
X378155Y368439D01*
X377989Y368633D01*
X377933Y368688D01*
X377822Y368799D01*
X377600Y368938D01*
X377295Y369133D01*
X376906Y369299D01*
X376434Y369466D01*
X375851Y369577D01*
X375184Y369605D01*
X374934D01*
X374657Y369577D01*
X374323Y369521D01*
X373935Y369466D01*
X373490Y369355D01*
X373074Y369216D01*
X372657Y369022D01*
X372602Y368994D01*
X372490Y368911D01*
X372296Y368772D01*
X372074Y368605D01*
X371824Y368355D01*
X371546Y368077D01*
X371296Y367744D01*
X371046Y367355D01*
Y354304D01*
X367825D01*
Y371882D01*
X370685D01*
X370935Y369272D01*
Y369299D01*
X370963Y369327D01*
X371102Y369494D01*
X371269Y369771D01*
X371546Y370077D01*
X371852Y370410D01*
X372213Y370771D01*
X372657Y371132D01*
X373129Y371438D01*
X373157D01*
X373185Y371465D01*
X373268Y371521D01*
X373351Y371549D01*
X373629Y371688D01*
X374018Y371826D01*
X374462Y371965D01*
X374962Y372104D01*
X375545Y372187D01*
X376156Y372215D01*
X376434D01*
X376628Y372187D01*
D02*
G37*
G36*
X543581Y354304D02*
X540388D01*
Y364745D01*
X528891D01*
Y354304D01*
X525670D01*
Y377991D01*
X528891D01*
Y367272D01*
X540388D01*
Y377991D01*
X543581D01*
Y354304D01*
D02*
G37*
G36*
X394262Y372187D02*
X394512Y372160D01*
X394790Y372132D01*
X395123Y372076D01*
X395484Y371993D01*
X396234Y371771D01*
X396650Y371632D01*
X397039Y371438D01*
X397456Y371243D01*
X397844Y370993D01*
X398233Y370716D01*
X398594Y370382D01*
X398622Y370355D01*
X398677Y370299D01*
X398761Y370188D01*
X398900Y370049D01*
X399039Y369882D01*
X399177Y369660D01*
X399344Y369438D01*
X399538Y369161D01*
X399705Y368827D01*
X399872Y368494D01*
X400010Y368133D01*
X400149Y367744D01*
X400260Y367328D01*
X400344Y366883D01*
X400399Y366411D01*
Y365911D01*
X400372Y365828D01*
X397456D01*
Y365856D01*
Y365911D01*
Y365995D01*
X397428Y366106D01*
X397400Y366384D01*
X397317Y366772D01*
X397206Y367189D01*
X397011Y367661D01*
X396761Y368105D01*
X396400Y368549D01*
X396345Y368605D01*
X396206Y368716D01*
X395984Y368911D01*
X395678Y369133D01*
X395317Y369327D01*
X394845Y369521D01*
X394345Y369633D01*
X393762Y369688D01*
X393540D01*
X393373Y369660D01*
X393179Y369633D01*
X392957Y369605D01*
X392457Y369466D01*
X391874Y369244D01*
X391596Y369105D01*
X391318Y368911D01*
X391041Y368716D01*
X390791Y368466D01*
X390541Y368189D01*
X390319Y367855D01*
Y367828D01*
X390263Y367772D01*
X390208Y367661D01*
X390152Y367522D01*
X390069Y367355D01*
X389985Y367161D01*
X389874Y366911D01*
X389791Y366633D01*
X389680Y366328D01*
X389569Y365995D01*
X389402Y365245D01*
X389291Y364384D01*
X389236Y363440D01*
Y362746D01*
Y362718D01*
Y362634D01*
Y362496D01*
X389264Y362301D01*
Y362079D01*
X389291Y361801D01*
X389319Y361524D01*
X389375Y361191D01*
X389486Y360496D01*
X389680Y359747D01*
X389930Y358997D01*
X390291Y358275D01*
Y358247D01*
X390347Y358191D01*
X390402Y358108D01*
X390485Y357997D01*
X390763Y357692D01*
X390930Y357525D01*
X391124Y357358D01*
X391346Y357192D01*
X391624Y357025D01*
X391902Y356858D01*
X392207Y356719D01*
X392568Y356608D01*
X392929Y356525D01*
X393318Y356470D01*
X393762Y356442D01*
X393901D01*
X394012Y356470D01*
X394290Y356497D01*
X394651Y356553D01*
X395040Y356692D01*
X395484Y356858D01*
X395928Y357081D01*
X396345Y357414D01*
X396400Y357469D01*
X396512Y357580D01*
X396706Y357803D01*
X396900Y358108D01*
X397095Y358441D01*
X397289Y358858D01*
X397400Y359330D01*
X397456Y359858D01*
X400372D01*
X400399Y359747D01*
Y359719D01*
Y359635D01*
Y359524D01*
X400372Y359358D01*
X400344Y359163D01*
X400316Y358941D01*
X400260Y358663D01*
X400177Y358386D01*
X400094Y358080D01*
X399955Y357775D01*
X399816Y357441D01*
X399622Y357081D01*
X399399Y356747D01*
X399122Y356386D01*
X398816Y356053D01*
X398455Y355720D01*
X398428Y355692D01*
X398372Y355637D01*
X398261Y355553D01*
X398094Y355442D01*
X397900Y355303D01*
X397678Y355164D01*
X397400Y354998D01*
X397122Y354859D01*
X396789Y354692D01*
X396428Y354526D01*
X395623Y354248D01*
X395179Y354137D01*
X394734Y354054D01*
X394262Y353998D01*
X393762Y353970D01*
X393596D01*
X393401Y353998D01*
X393151D01*
X392846Y354054D01*
X392485Y354109D01*
X392096Y354192D01*
X391652Y354276D01*
X391207Y354415D01*
X390735Y354581D01*
X390263Y354776D01*
X389791Y355026D01*
X389319Y355303D01*
X388875Y355637D01*
X388430Y356025D01*
X388042Y356470D01*
X388014Y356497D01*
X387958Y356581D01*
X387847Y356719D01*
X387736Y356914D01*
X387569Y357164D01*
X387403Y357469D01*
X387209Y357803D01*
X387042Y358191D01*
X386847Y358636D01*
X386653Y359108D01*
X386487Y359635D01*
X386320Y360191D01*
X386209Y360774D01*
X386098Y361413D01*
X386042Y362051D01*
X386014Y362746D01*
Y363440D01*
Y363495D01*
Y363607D01*
X386042Y363801D01*
Y364051D01*
X386070Y364384D01*
X386125Y364745D01*
X386181Y365162D01*
X386264Y365606D01*
X386375Y366106D01*
X386514Y366606D01*
X386681Y367133D01*
X386875Y367633D01*
X387097Y368161D01*
X387375Y368688D01*
X387681Y369216D01*
X388042Y369688D01*
X388069Y369716D01*
X388125Y369799D01*
X388264Y369910D01*
X388430Y370077D01*
X388625Y370271D01*
X388875Y370493D01*
X389180Y370716D01*
X389513Y370966D01*
X389902Y371188D01*
X390319Y371410D01*
X390791Y371632D01*
X391318Y371826D01*
X391874Y371993D01*
X392457Y372104D01*
X393096Y372187D01*
X393762Y372215D01*
X394040D01*
X394262Y372187D01*
D02*
G37*
G36*
X410757Y351610D02*
Y351582D01*
X410730Y351526D01*
X410702Y351443D01*
X410646Y351304D01*
X410563Y351166D01*
X410480Y350971D01*
X410258Y350555D01*
X410008Y350082D01*
X409674Y349555D01*
X409286Y349027D01*
X408841Y348527D01*
Y348500D01*
X408786Y348472D01*
X408703Y348416D01*
X408619Y348333D01*
X408342Y348111D01*
X407953Y347861D01*
X407481Y347611D01*
X406897Y347417D01*
X406231Y347250D01*
X405870Y347222D01*
X405481Y347194D01*
X405315D01*
X405203Y347222D01*
X405065D01*
X404898Y347250D01*
X404482Y347305D01*
X404454D01*
X404398Y347333D01*
X404287D01*
X404148Y347361D01*
X403843Y347417D01*
X403565Y347472D01*
X403898Y349999D01*
X404093D01*
X404232Y349971D01*
X404565D01*
X404676Y349944D01*
X404815D01*
X405120Y349916D01*
X405370D01*
X405481Y349944D01*
X405676Y349971D01*
X405898Y350027D01*
X406175Y350138D01*
X406453Y350305D01*
X406731Y350527D01*
X406981Y350832D01*
X407009Y350860D01*
X407092Y350999D01*
X407203Y351166D01*
X407370Y351415D01*
X407536Y351721D01*
X407730Y352054D01*
X407925Y352415D01*
X408092Y352832D01*
X408841Y354637D01*
X402315Y371882D01*
X405898D01*
X409591Y360802D01*
X410174Y358608D01*
X410258D01*
X414590Y371882D01*
X418144D01*
X410757Y351610D01*
D02*
G37*
G36*
X345720Y354304D02*
X342832D01*
X342638Y356886D01*
Y356858D01*
X342610Y356831D01*
X342499Y356664D01*
X342304Y356386D01*
X342055Y356081D01*
X341749Y355748D01*
X341388Y355387D01*
X340971Y355026D01*
X340499Y354720D01*
X340472D01*
X340444Y354692D01*
X340360Y354664D01*
X340277Y354609D01*
X340000Y354470D01*
X339638Y354359D01*
X339194Y354220D01*
X338694Y354081D01*
X338111Y353998D01*
X337500Y353970D01*
X337223D01*
X337028Y353998D01*
X336778Y354026D01*
X336501Y354081D01*
X336195Y354137D01*
X335862Y354192D01*
X335140Y354415D01*
X334751Y354554D01*
X334390Y354748D01*
X334029Y354942D01*
X333668Y355192D01*
X333307Y355470D01*
X333001Y355803D01*
X332974Y355831D01*
X332946Y355886D01*
X332863Y355997D01*
X332751Y356164D01*
X332641Y356359D01*
X332502Y356581D01*
X332335Y356886D01*
X332196Y357219D01*
X332057Y357580D01*
X331891Y357997D01*
X331752Y358469D01*
X331641Y358997D01*
X331530Y359552D01*
X331474Y360163D01*
X331419Y360829D01*
X331391Y361524D01*
Y371882D01*
X334584D01*
Y361468D01*
Y361440D01*
Y361357D01*
Y361191D01*
X334612Y361024D01*
Y360774D01*
X334640Y360524D01*
X334695Y359941D01*
X334779Y359302D01*
X334945Y358663D01*
X335140Y358080D01*
X335279Y357830D01*
X335418Y357608D01*
X335445Y357553D01*
X335584Y357441D01*
X335778Y357275D01*
X336056Y357081D01*
X336417Y356886D01*
X336861Y356719D01*
X337389Y356608D01*
X338000Y356553D01*
X338278D01*
X338611Y356581D01*
X339000Y356636D01*
X339444Y356719D01*
X339916Y356858D01*
X340388Y357025D01*
X340833Y357247D01*
X340888Y357275D01*
X341027Y357386D01*
X341221Y357525D01*
X341471Y357747D01*
X341749Y358025D01*
X342027Y358358D01*
X342277Y358747D01*
X342527Y359191D01*
Y371882D01*
X345720D01*
Y354304D01*
D02*
G37*
G36*
X489374Y375131D02*
X480238D01*
X479460Y368327D01*
X479488Y368355D01*
X479599Y368411D01*
X479766Y368522D01*
X479960Y368661D01*
X480210Y368799D01*
X480516Y368938D01*
X480821Y369105D01*
X481154Y369244D01*
X481210Y369272D01*
X481321Y369299D01*
X481515Y369355D01*
X481765Y369438D01*
X482071Y369494D01*
X482432Y369549D01*
X482821Y369605D01*
X483265Y369633D01*
X483570D01*
X483820Y369605D01*
X484070Y369577D01*
X484404Y369521D01*
X484764Y369466D01*
X485125Y369383D01*
X485542Y369272D01*
X485959Y369133D01*
X486375Y368966D01*
X486820Y368772D01*
X487236Y368549D01*
X487653Y368272D01*
X488041Y367939D01*
X488402Y367578D01*
X488430Y367550D01*
X488486Y367494D01*
X488569Y367355D01*
X488708Y367189D01*
X488847Y366994D01*
X489013Y366717D01*
X489180Y366411D01*
X489347Y366078D01*
X489513Y365689D01*
X489708Y365273D01*
X489846Y364801D01*
X489985Y364273D01*
X490124Y363718D01*
X490207Y363134D01*
X490263Y362496D01*
X490291Y361829D01*
Y361801D01*
Y361663D01*
Y361496D01*
X490263Y361246D01*
X490235Y360941D01*
X490180Y360580D01*
X490124Y360191D01*
X490041Y359774D01*
X489958Y359330D01*
X489819Y358858D01*
X489680Y358386D01*
X489485Y357914D01*
X489263Y357441D01*
X489013Y356969D01*
X488708Y356525D01*
X488375Y356109D01*
X488347Y356081D01*
X488291Y356025D01*
X488180Y355914D01*
X488014Y355775D01*
X487819Y355609D01*
X487569Y355442D01*
X487292Y355248D01*
X486958Y355053D01*
X486597Y354831D01*
X486181Y354637D01*
X485709Y354470D01*
X485209Y354304D01*
X484681Y354165D01*
X484098Y354054D01*
X483459Y353998D01*
X482793Y353970D01*
X482515D01*
X482293Y353998D01*
X482043Y354026D01*
X481738Y354054D01*
X481404Y354109D01*
X481043Y354165D01*
X480266Y354359D01*
X479849Y354498D01*
X479433Y354664D01*
X478988Y354859D01*
X478572Y355081D01*
X478183Y355331D01*
X477794Y355609D01*
X477767Y355637D01*
X477711Y355692D01*
X477600Y355775D01*
X477489Y355914D01*
X477322Y356081D01*
X477156Y356303D01*
X476989Y356553D01*
X476794Y356831D01*
X476628Y357136D01*
X476461Y357497D01*
X476295Y357886D01*
X476156Y358330D01*
X476017Y358802D01*
X475934Y359302D01*
X475878Y359830D01*
Y360413D01*
X475906Y360524D01*
X478794D01*
Y360496D01*
Y360441D01*
Y360330D01*
X478822Y360191D01*
Y360052D01*
X478850Y359858D01*
X478933Y359413D01*
X479072Y358941D01*
X479266Y358441D01*
X479544Y357941D01*
X479905Y357497D01*
X479960Y357441D01*
X480099Y357330D01*
X480349Y357164D01*
X480682Y356969D01*
X481099Y356775D01*
X481599Y356608D01*
X482154Y356497D01*
X482793Y356442D01*
X482987D01*
X483126Y356470D01*
X483293Y356497D01*
X483487Y356525D01*
X483959Y356636D01*
X484459Y356803D01*
X484987Y357053D01*
X485237Y357219D01*
X485487Y357414D01*
X485709Y357636D01*
X485931Y357886D01*
Y357914D01*
X485986Y357941D01*
X486042Y358025D01*
X486097Y358164D01*
X486209Y358302D01*
X486292Y358469D01*
X486403Y358691D01*
X486514Y358913D01*
X486597Y359191D01*
X486708Y359469D01*
X486903Y360135D01*
X487014Y360913D01*
X487069Y361801D01*
Y361829D01*
Y361912D01*
Y362024D01*
X487042Y362190D01*
Y362385D01*
X487014Y362607D01*
X486931Y363107D01*
X486792Y363690D01*
X486597Y364301D01*
X486320Y364912D01*
X485931Y365467D01*
Y365495D01*
X485875Y365523D01*
X485737Y365689D01*
X485487Y365911D01*
X485125Y366161D01*
X484681Y366411D01*
X484126Y366633D01*
X483515Y366800D01*
X483154Y366828D01*
X482793Y366856D01*
X482487D01*
X482154Y366828D01*
X481738Y366772D01*
X481293Y366717D01*
X480849Y366606D01*
X480405Y366467D01*
X480044Y366272D01*
X480016Y366245D01*
X479905Y366161D01*
X479766Y366022D01*
X479571Y365856D01*
X479377Y365606D01*
X479183Y365300D01*
X478988Y364967D01*
X478822Y364551D01*
X476156Y364828D01*
X477517Y377991D01*
X489374D01*
Y375131D01*
D02*
G37*
G36*
X561326Y369716D02*
X551690Y356803D01*
X561854D01*
Y354304D01*
X547886D01*
Y356525D01*
X557383Y369355D01*
X547997D01*
Y371882D01*
X561326D01*
Y369716D01*
D02*
G37*
G36*
X470213Y354304D02*
X467020D01*
Y357580D01*
X470213D01*
Y354304D01*
D02*
G37*
G36*
X438472D02*
X435251D01*
Y375020D01*
X430085Y374964D01*
Y377436D01*
X438472Y378325D01*
Y354304D01*
D02*
G37*
G36*
X280322Y375464D02*
X268686D01*
Y367300D01*
X278656D01*
Y364773D01*
X268686D01*
Y354304D01*
X265465D01*
Y377991D01*
X280322D01*
Y375464D01*
D02*
G37*
G36*
X455328Y378297D02*
X455578D01*
X455856Y378241D01*
X456189Y378214D01*
X456578Y378130D01*
X456994Y378019D01*
X457411Y377908D01*
X457883Y377741D01*
X458327Y377547D01*
X458800Y377325D01*
X459244Y377047D01*
X459688Y376742D01*
X460133Y376381D01*
X460521Y375964D01*
X460549Y375936D01*
X460605Y375853D01*
X460716Y375714D01*
X460855Y375548D01*
X460993Y375298D01*
X461160Y375020D01*
X461354Y374659D01*
X461549Y374298D01*
X461743Y373854D01*
X461938Y373381D01*
X462104Y372854D01*
X462243Y372299D01*
X462382Y371688D01*
X462493Y371021D01*
X462548Y370327D01*
X462576Y369605D01*
Y362662D01*
Y362607D01*
Y362496D01*
Y362274D01*
X462548Y361996D01*
X462521Y361663D01*
X462465Y361274D01*
X462410Y360829D01*
X462326Y360357D01*
X462215Y359858D01*
X462076Y359330D01*
X461910Y358802D01*
X461715Y358275D01*
X461466Y357747D01*
X461188Y357247D01*
X460882Y356747D01*
X460521Y356303D01*
X460494Y356275D01*
X460438Y356192D01*
X460299Y356081D01*
X460160Y355942D01*
X459938Y355775D01*
X459688Y355553D01*
X459410Y355359D01*
X459077Y355137D01*
X458716Y354914D01*
X458300Y354720D01*
X457855Y354526D01*
X457355Y354331D01*
X456828Y354192D01*
X456273Y354081D01*
X455689Y353998D01*
X455051Y353970D01*
X454912D01*
X454717Y353998D01*
X454495D01*
X454190Y354054D01*
X453857Y354081D01*
X453468Y354165D01*
X453079Y354276D01*
X452635Y354387D01*
X452190Y354554D01*
X451746Y354720D01*
X451274Y354942D01*
X450830Y355220D01*
X450385Y355525D01*
X449941Y355886D01*
X449552Y356303D01*
X449524Y356331D01*
X449469Y356414D01*
X449358Y356553D01*
X449219Y356719D01*
X449080Y356969D01*
X448913Y357247D01*
X448719Y357580D01*
X448525Y357969D01*
X448330Y358414D01*
X448136Y358886D01*
X447969Y359413D01*
X447830Y359969D01*
X447692Y360580D01*
X447580Y361246D01*
X447525Y361940D01*
X447497Y362662D01*
Y369605D01*
Y369660D01*
Y369771D01*
X447525Y369994D01*
Y370271D01*
X447553Y370604D01*
X447608Y370993D01*
X447664Y371438D01*
X447747Y371910D01*
X447858Y372410D01*
X447997Y372909D01*
X448164Y373437D01*
X448358Y373965D01*
X448580Y374492D01*
X448858Y375020D01*
X449163Y375492D01*
X449524Y375964D01*
X449552Y375992D01*
X449608Y376075D01*
X449747Y376186D01*
X449913Y376325D01*
X450108Y376519D01*
X450357Y376714D01*
X450635Y376936D01*
X450968Y377158D01*
X451357Y377353D01*
X451774Y377575D01*
X452218Y377769D01*
X452690Y377964D01*
X453218Y378102D01*
X453773Y378214D01*
X454384Y378297D01*
X454995Y378325D01*
X455162D01*
X455328Y378297D01*
D02*
G37*
G36*
X357772Y372187D02*
X358050Y372160D01*
X358411Y372104D01*
X358772Y372021D01*
X359161Y371937D01*
X359605Y371826D01*
X360022Y371688D01*
X360466Y371493D01*
X360910Y371299D01*
X361327Y371049D01*
X361743Y370743D01*
X362132Y370410D01*
X362466Y370021D01*
X362493Y369994D01*
X362549Y369910D01*
X362632Y369799D01*
X362743Y369633D01*
X362882Y369410D01*
X363021Y369133D01*
X363188Y368827D01*
X363354Y368466D01*
X363521Y368077D01*
X363687Y367633D01*
X363826Y367161D01*
X363965Y366633D01*
X364076Y366078D01*
X364159Y365495D01*
X364215Y364856D01*
X364243Y364190D01*
Y362496D01*
X352968D01*
X352940Y362412D01*
Y362385D01*
Y362301D01*
Y362162D01*
X352968Y361968D01*
Y361746D01*
X352996Y361468D01*
X353051Y361191D01*
X353079Y360885D01*
X353218Y360191D01*
X353440Y359469D01*
X353718Y358747D01*
X354107Y358080D01*
X354134Y358052D01*
X354162Y357997D01*
X354218Y357941D01*
X354329Y357830D01*
X354440Y357692D01*
X354607Y357553D01*
X354773Y357414D01*
X354995Y357275D01*
X355218Y357108D01*
X355495Y356969D01*
X355801Y356831D01*
X356106Y356692D01*
X356467Y356581D01*
X356856Y356525D01*
X357245Y356470D01*
X357689Y356442D01*
X357967D01*
X358272Y356470D01*
X358661Y356497D01*
X359078Y356553D01*
X359577Y356636D01*
X360050Y356747D01*
X360522Y356914D01*
X360549D01*
X360577Y356942D01*
X360744Y356997D01*
X360966Y357108D01*
X361271Y357247D01*
X361605Y357441D01*
X361966Y357664D01*
X362327Y357914D01*
X362660Y358191D01*
X363910Y356109D01*
X363854Y356081D01*
X363743Y355970D01*
X363521Y355775D01*
X363243Y355581D01*
X362882Y355331D01*
X362466Y355081D01*
X361966Y354831D01*
X361410Y354581D01*
X361382D01*
X361327Y354554D01*
X361244Y354526D01*
X361133Y354498D01*
X360994Y354442D01*
X360799Y354387D01*
X360605Y354331D01*
X360355Y354276D01*
X359827Y354165D01*
X359189Y354054D01*
X358467Y353998D01*
X357689Y353970D01*
X357522D01*
X357328Y353998D01*
X357050D01*
X356745Y354054D01*
X356384Y354109D01*
X355967Y354165D01*
X355523Y354276D01*
X355051Y354415D01*
X354579Y354554D01*
X354079Y354748D01*
X353579Y354998D01*
X353079Y355276D01*
X352607Y355581D01*
X352163Y355970D01*
X351746Y356386D01*
X351718Y356414D01*
X351663Y356497D01*
X351552Y356636D01*
X351413Y356831D01*
X351246Y357081D01*
X351080Y357358D01*
X350885Y357692D01*
X350691Y358080D01*
X350497Y358525D01*
X350302Y358997D01*
X350136Y359524D01*
X349969Y360080D01*
X349830Y360691D01*
X349719Y361329D01*
X349663Y362024D01*
X349636Y362746D01*
Y363468D01*
Y363523D01*
Y363634D01*
X349663Y363829D01*
Y364106D01*
X349691Y364440D01*
X349747Y364801D01*
X349830Y365217D01*
X349913Y365689D01*
X350025Y366161D01*
X350163Y366661D01*
X350358Y367189D01*
X350552Y367716D01*
X350802Y368244D01*
X351108Y368772D01*
X351441Y369272D01*
X351830Y369744D01*
X351857Y369771D01*
X351941Y369855D01*
X352052Y369966D01*
X352218Y370132D01*
X352441Y370327D01*
X352690Y370521D01*
X352996Y370743D01*
X353329Y370993D01*
X353690Y371216D01*
X354107Y371438D01*
X354551Y371632D01*
X355023Y371826D01*
X355523Y371993D01*
X356051Y372104D01*
X356606Y372187D01*
X357189Y372215D01*
X357522D01*
X357772Y372187D01*
D02*
G37*
G36*
X302454D02*
X302732Y372160D01*
X303093Y372104D01*
X303454Y372021D01*
X303843Y371937D01*
X304287Y371826D01*
X304704Y371688D01*
X305148Y371493D01*
X305592Y371299D01*
X306009Y371049D01*
X306426Y370743D01*
X306814Y370410D01*
X307148Y370021D01*
X307175Y369994D01*
X307231Y369910D01*
X307314Y369799D01*
X307425Y369633D01*
X307564Y369410D01*
X307703Y369133D01*
X307870Y368827D01*
X308036Y368466D01*
X308203Y368077D01*
X308369Y367633D01*
X308508Y367161D01*
X308647Y366633D01*
X308758Y366078D01*
X308842Y365495D01*
X308897Y364856D01*
X308925Y364190D01*
Y362496D01*
X297650D01*
X297622Y362412D01*
Y362385D01*
Y362301D01*
Y362162D01*
X297650Y361968D01*
Y361746D01*
X297678Y361468D01*
X297734Y361191D01*
X297761Y360885D01*
X297900Y360191D01*
X298122Y359469D01*
X298400Y358747D01*
X298789Y358080D01*
X298817Y358052D01*
X298844Y357997D01*
X298900Y357941D01*
X299011Y357830D01*
X299122Y357692D01*
X299289Y357553D01*
X299455Y357414D01*
X299677Y357275D01*
X299900Y357108D01*
X300177Y356969D01*
X300483Y356831D01*
X300788Y356692D01*
X301149Y356581D01*
X301538Y356525D01*
X301927Y356470D01*
X302371Y356442D01*
X302649D01*
X302954Y356470D01*
X303343Y356497D01*
X303760Y356553D01*
X304259Y356636D01*
X304732Y356747D01*
X305204Y356914D01*
X305231D01*
X305259Y356942D01*
X305426Y356997D01*
X305648Y357108D01*
X305954Y357247D01*
X306287Y357441D01*
X306648Y357664D01*
X307009Y357914D01*
X307342Y358191D01*
X308592Y356109D01*
X308536Y356081D01*
X308425Y355970D01*
X308203Y355775D01*
X307925Y355581D01*
X307564Y355331D01*
X307148Y355081D01*
X306648Y354831D01*
X306092Y354581D01*
X306065D01*
X306009Y354554D01*
X305926Y354526D01*
X305815Y354498D01*
X305676Y354442D01*
X305481Y354387D01*
X305287Y354331D01*
X305037Y354276D01*
X304509Y354165D01*
X303871Y354054D01*
X303149Y353998D01*
X302371Y353970D01*
X302205D01*
X302010Y353998D01*
X301732D01*
X301427Y354054D01*
X301066Y354109D01*
X300649Y354165D01*
X300205Y354276D01*
X299733Y354415D01*
X299261Y354554D01*
X298761Y354748D01*
X298261Y354998D01*
X297761Y355276D01*
X297289Y355581D01*
X296845Y355970D01*
X296428Y356386D01*
X296401Y356414D01*
X296345Y356497D01*
X296234Y356636D01*
X296095Y356831D01*
X295929Y357081D01*
X295762Y357358D01*
X295567Y357692D01*
X295373Y358080D01*
X295179Y358525D01*
X294984Y358997D01*
X294818Y359524D01*
X294651Y360080D01*
X294512Y360691D01*
X294401Y361329D01*
X294346Y362024D01*
X294318Y362746D01*
Y363468D01*
Y363523D01*
Y363634D01*
X294346Y363829D01*
Y364106D01*
X294373Y364440D01*
X294429Y364801D01*
X294512Y365217D01*
X294596Y365689D01*
X294707Y366161D01*
X294846Y366661D01*
X295040Y367189D01*
X295234Y367716D01*
X295484Y368244D01*
X295790Y368772D01*
X296123Y369272D01*
X296512Y369744D01*
X296539Y369771D01*
X296623Y369855D01*
X296734Y369966D01*
X296901Y370132D01*
X297123Y370327D01*
X297373Y370521D01*
X297678Y370743D01*
X298011Y370993D01*
X298372Y371216D01*
X298789Y371438D01*
X299233Y371632D01*
X299705Y371826D01*
X300205Y371993D01*
X300733Y372104D01*
X301288Y372187D01*
X301871Y372215D01*
X302205D01*
X302454Y372187D01*
D02*
G37*
G36*
X319255D02*
X319644Y372132D01*
X320061Y372076D01*
X320561Y371965D01*
X321033Y371799D01*
X321505Y371604D01*
X321533D01*
X321560Y371576D01*
X321699Y371493D01*
X321949Y371354D01*
X322227Y371160D01*
X322560Y370910D01*
X322893Y370604D01*
X323254Y370271D01*
X323587Y369855D01*
X324032Y371882D01*
X326503D01*
Y347555D01*
X323282D01*
Y355942D01*
X323254Y355886D01*
X323143Y355775D01*
X322949Y355609D01*
X322727Y355387D01*
X322421Y355164D01*
X322088Y354914D01*
X321699Y354664D01*
X321283Y354470D01*
X321227Y354442D01*
X321088Y354387D01*
X320838Y354304D01*
X320533Y354220D01*
X320144Y354137D01*
X319700Y354054D01*
X319200Y353998D01*
X318644Y353970D01*
X318506D01*
X318339Y353998D01*
X318117D01*
X317839Y354054D01*
X317534Y354081D01*
X317173Y354165D01*
X316812Y354248D01*
X316395Y354387D01*
X316006Y354526D01*
X315562Y354720D01*
X315145Y354942D01*
X314729Y355220D01*
X314340Y355525D01*
X313951Y355859D01*
X313590Y356275D01*
X313562Y356303D01*
X313507Y356386D01*
X313424Y356525D01*
X313313Y356692D01*
X313174Y356942D01*
X313007Y357219D01*
X312868Y357553D01*
X312702Y357914D01*
X312507Y358330D01*
X312368Y358802D01*
X312202Y359302D01*
X312063Y359858D01*
X311952Y360441D01*
X311869Y361052D01*
X311813Y361718D01*
X311785Y362412D01*
Y362773D01*
Y362829D01*
Y362968D01*
Y363190D01*
X311813Y363468D01*
X311841Y363829D01*
X311869Y364245D01*
X311924Y364717D01*
X312007Y365217D01*
X312118Y365745D01*
X312229Y366300D01*
X312368Y366883D01*
X312535Y367439D01*
X312757Y368022D01*
X313007Y368577D01*
X313285Y369105D01*
X313590Y369605D01*
X313618Y369633D01*
X313674Y369716D01*
X313785Y369855D01*
X313924Y370021D01*
X314118Y370216D01*
X314340Y370438D01*
X314618Y370660D01*
X314923Y370910D01*
X315256Y371160D01*
X315645Y371382D01*
X316062Y371604D01*
X316506Y371799D01*
X317006Y371965D01*
X317534Y372104D01*
X318089Y372187D01*
X318672Y372215D01*
X318950D01*
X319255Y372187D01*
D02*
G37*
%LPC*%
G36*
X460480Y461212D02*
X460369D01*
X456842Y451049D01*
X463923D01*
X460480Y461212D01*
D02*
G37*
G36*
X422129Y463434D02*
X416298D01*
Y454270D01*
X422352D01*
X422518Y454298D01*
X422740D01*
X422962Y454325D01*
X423490Y454437D01*
X424073Y454575D01*
X424684Y454798D01*
X425240Y455131D01*
X425490Y455325D01*
X425739Y455547D01*
X425767Y455575D01*
X425795Y455603D01*
X425850Y455686D01*
X425934Y455769D01*
X426128Y456075D01*
X426350Y456436D01*
X426545Y456908D01*
X426739Y457491D01*
X426878Y458130D01*
X426933Y458463D01*
Y458824D01*
Y458852D01*
Y458908D01*
Y459019D01*
X426906Y459158D01*
Y459324D01*
X426878Y459518D01*
X426795Y459963D01*
X426656Y460490D01*
X426434Y461046D01*
X426128Y461574D01*
X425961Y461851D01*
X425739Y462101D01*
Y462129D01*
X425684Y462157D01*
X425600Y462212D01*
X425517Y462323D01*
X425378Y462407D01*
X425240Y462518D01*
X425045Y462656D01*
X424851Y462768D01*
X424601Y462906D01*
X424323Y463018D01*
X424045Y463129D01*
X423712Y463240D01*
X423351Y463323D01*
X422990Y463378D01*
X422574Y463406D01*
X422129Y463434D01*
D02*
G37*
G36*
X348650Y463656D02*
X348372D01*
X348178Y463628D01*
X347956Y463601D01*
X347678Y463545D01*
X347372Y463490D01*
X347039Y463406D01*
X346678Y463295D01*
X346317Y463156D01*
X345956Y462990D01*
X345595Y462768D01*
X345206Y462545D01*
X344845Y462268D01*
X344512Y461935D01*
X344179Y461574D01*
X344151Y461546D01*
X344096Y461490D01*
X344012Y461351D01*
X343929Y461185D01*
X343790Y460990D01*
X343651Y460740D01*
X343512Y460463D01*
X343346Y460129D01*
X343179Y459768D01*
X343040Y459352D01*
X342901Y458908D01*
X342763Y458435D01*
X342679Y457936D01*
X342596Y457408D01*
X342541Y456825D01*
X342513Y456242D01*
Y451993D01*
Y451965D01*
Y451854D01*
Y451687D01*
X342541Y451437D01*
X342568Y451160D01*
X342596Y450854D01*
X342652Y450493D01*
X342735Y450105D01*
X342929Y449244D01*
X343068Y448799D01*
X343207Y448355D01*
X343401Y447911D01*
X343623Y447466D01*
X343873Y447050D01*
X344179Y446633D01*
X344207Y446605D01*
X344262Y446550D01*
X344345Y446439D01*
X344484Y446300D01*
X344651Y446161D01*
X344845Y445967D01*
X345095Y445800D01*
X345373Y445606D01*
X345678Y445411D01*
X346012Y445217D01*
X346373Y445023D01*
X346761Y444884D01*
X347206Y444745D01*
X347650Y444634D01*
X348150Y444578D01*
X348650Y444551D01*
X348789D01*
X348928Y444578D01*
X349150D01*
X349400Y444606D01*
X349677Y444662D01*
X350011Y444717D01*
X350344Y444800D01*
X350733Y444911D01*
X351121Y445050D01*
X351510Y445217D01*
X351899Y445411D01*
X352288Y445661D01*
X352677Y445939D01*
X353038Y446244D01*
X353371Y446605D01*
X353398Y446633D01*
X353454Y446689D01*
X353537Y446828D01*
X353648Y446994D01*
X353787Y447189D01*
X353926Y447439D01*
X354093Y447744D01*
X354259Y448049D01*
X354398Y448438D01*
X354565Y448827D01*
X354704Y449271D01*
X354843Y449771D01*
X354954Y450271D01*
X355037Y450827D01*
X355093Y451382D01*
X355120Y451993D01*
Y456242D01*
Y456269D01*
Y456381D01*
Y456547D01*
X355093Y456769D01*
X355065Y457047D01*
X355037Y457380D01*
X354981Y457741D01*
X354898Y458130D01*
X354704Y458963D01*
X354565Y459407D01*
X354370Y459852D01*
X354176Y460296D01*
X353954Y460740D01*
X353676Y461185D01*
X353371Y461574D01*
X353343Y461601D01*
X353288Y461657D01*
X353204Y461768D01*
X353065Y461907D01*
X352871Y462046D01*
X352649Y462240D01*
X352399Y462434D01*
X352121Y462629D01*
X351816Y462823D01*
X351455Y462990D01*
X351066Y463184D01*
X350649Y463323D01*
X350177Y463462D01*
X349705Y463573D01*
X349205Y463628D01*
X348650Y463656D01*
D02*
G37*
G36*
X378780Y404556D02*
X372949D01*
Y395392D01*
X379002D01*
X379169Y395420D01*
X379391D01*
X379613Y395448D01*
X380141Y395559D01*
X380724Y395697D01*
X381335Y395920D01*
X381891Y396253D01*
X382140Y396447D01*
X382390Y396669D01*
X382418Y396697D01*
X382446Y396725D01*
X382502Y396808D01*
X382585Y396892D01*
X382779Y397197D01*
X383001Y397558D01*
X383196Y398030D01*
X383390Y398613D01*
X383529Y399252D01*
X383584Y399585D01*
Y399946D01*
Y399974D01*
Y400030D01*
Y400141D01*
X383557Y400280D01*
Y400446D01*
X383529Y400640D01*
X383446Y401085D01*
X383307Y401613D01*
X383085Y402168D01*
X382779Y402696D01*
X382613Y402973D01*
X382390Y403223D01*
Y403251D01*
X382335Y403279D01*
X382252Y403334D01*
X382168Y403445D01*
X382029Y403529D01*
X381891Y403640D01*
X381696Y403779D01*
X381502Y403890D01*
X381252Y404029D01*
X380974Y404140D01*
X380697Y404251D01*
X380363Y404362D01*
X380002Y404445D01*
X379641Y404501D01*
X379225Y404528D01*
X378780Y404556D01*
D02*
G37*
G36*
X344762Y391532D02*
X340985D01*
X340846Y391504D01*
X340708D01*
X340513Y391476D01*
X340069Y391421D01*
X339569Y391282D01*
X339041Y391115D01*
X338542Y390893D01*
X338070Y390560D01*
X338014Y390505D01*
X337875Y390393D01*
X337708Y390171D01*
X337486Y389921D01*
X337264Y389560D01*
X337098Y389172D01*
X336959Y388727D01*
X336903Y388255D01*
Y388200D01*
Y388061D01*
X336931Y387839D01*
X336986Y387589D01*
X337070Y387283D01*
X337209Y386978D01*
X337375Y386672D01*
X337625Y386395D01*
X337653Y386367D01*
X337764Y386283D01*
X337931Y386172D01*
X338181Y386061D01*
X338486Y385950D01*
X338847Y385839D01*
X339291Y385756D01*
X339791Y385728D01*
X339958D01*
X340097Y385756D01*
X340236D01*
X340430Y385784D01*
X340846Y385839D01*
X341319Y385950D01*
X341846Y386117D01*
X342402Y386311D01*
X342929Y386617D01*
X342957D01*
X342985Y386645D01*
X343151Y386783D01*
X343401Y386950D01*
X343679Y387200D01*
X344012Y387505D01*
X344290Y387866D01*
X344568Y388255D01*
X344762Y388672D01*
Y391532D01*
D02*
G37*
G36*
X482001Y404889D02*
X481807D01*
X481668Y404862D01*
X481502Y404834D01*
X481279Y404806D01*
X480835Y404695D01*
X480307Y404528D01*
X479780Y404251D01*
X479530Y404084D01*
X479280Y403890D01*
X479030Y403667D01*
X478808Y403390D01*
Y403362D01*
X478752Y403334D01*
X478697Y403251D01*
X478641Y403112D01*
X478558Y402973D01*
X478447Y402779D01*
X478364Y402585D01*
X478253Y402334D01*
X478141Y402057D01*
X478058Y401751D01*
X477947Y401418D01*
X477864Y401085D01*
X477753Y400280D01*
X477697Y399363D01*
Y391088D01*
Y391060D01*
Y390977D01*
Y390838D01*
X477725Y390671D01*
Y390449D01*
X477753Y390199D01*
X477780Y389921D01*
X477836Y389616D01*
X477975Y388977D01*
X478169Y388311D01*
X478447Y387644D01*
X478836Y387033D01*
X478863Y387005D01*
X478891Y386978D01*
X479058Y386811D01*
X479308Y386561D01*
X479669Y386283D01*
X480141Y386006D01*
X480696Y385756D01*
X481335Y385589D01*
X481696Y385561D01*
X482057Y385534D01*
X482251D01*
X482390Y385561D01*
X482585Y385589D01*
X482779Y385617D01*
X483251Y385728D01*
X483751Y385895D01*
X484278Y386172D01*
X484556Y386339D01*
X484806Y386533D01*
X485028Y386783D01*
X485251Y387033D01*
Y387061D01*
X485306Y387117D01*
X485362Y387200D01*
X485417Y387311D01*
X485500Y387450D01*
X485611Y387644D01*
X485695Y387866D01*
X485806Y388116D01*
X485917Y388366D01*
X486000Y388672D01*
X486111Y389005D01*
X486195Y389366D01*
X486306Y390171D01*
X486361Y391088D01*
Y399363D01*
Y399391D01*
Y399474D01*
Y399613D01*
X486334Y399780D01*
Y400002D01*
X486306Y400252D01*
X486278Y400529D01*
X486223Y400835D01*
X486084Y401474D01*
X485889Y402140D01*
X485611Y402807D01*
X485223Y403390D01*
Y403417D01*
X485167Y403445D01*
X485001Y403612D01*
X484751Y403862D01*
X484390Y404140D01*
X483945Y404417D01*
X483390Y404667D01*
X482751Y404834D01*
X482390Y404862D01*
X482001Y404889D01*
D02*
G37*
G36*
X397581Y398780D02*
X397358D01*
X397220Y398752D01*
X397025Y398724D01*
X396803Y398697D01*
X396303Y398558D01*
X395720Y398336D01*
X395442Y398197D01*
X395165Y398002D01*
X394887Y397808D01*
X394609Y397558D01*
X394359Y397280D01*
X394109Y396947D01*
Y396919D01*
X394054Y396864D01*
X393998Y396753D01*
X393915Y396614D01*
X393832Y396447D01*
X393748Y396225D01*
X393637Y395975D01*
X393526Y395697D01*
X393415Y395364D01*
X393304Y395031D01*
X393221Y394642D01*
X393137Y394226D01*
X392999Y393337D01*
X392943Y392337D01*
Y391976D01*
Y391949D01*
Y391865D01*
Y391699D01*
X392971Y391504D01*
Y391282D01*
X392999Y391004D01*
X393054Y390699D01*
X393082Y390366D01*
X393221Y389644D01*
X393443Y388866D01*
X393721Y388088D01*
X394109Y387367D01*
X394137Y387339D01*
X394165Y387283D01*
X394248Y387200D01*
X394332Y387089D01*
X394609Y386783D01*
X394998Y386450D01*
X395498Y386117D01*
X396109Y385811D01*
X396442Y385700D01*
X396803Y385617D01*
X397220Y385561D01*
X397636Y385534D01*
X397858D01*
X398025Y385561D01*
X398192Y385589D01*
X398414Y385645D01*
X398914Y385756D01*
X399497Y385978D01*
X399774Y386117D01*
X400052Y386311D01*
X400358Y386506D01*
X400607Y386755D01*
X400885Y387033D01*
X401107Y387367D01*
X401135Y387394D01*
X401163Y387450D01*
X401219Y387561D01*
X401302Y387700D01*
X401385Y387866D01*
X401496Y388088D01*
X401607Y388338D01*
X401718Y388644D01*
X401829Y388949D01*
X401913Y389310D01*
X402024Y389671D01*
X402107Y390088D01*
X402246Y390977D01*
X402302Y391476D01*
Y391976D01*
Y392337D01*
Y392365D01*
Y392448D01*
Y392615D01*
X402274Y392809D01*
Y393032D01*
X402246Y393309D01*
X402190Y393615D01*
X402163Y393948D01*
X402024Y394698D01*
X401802Y395448D01*
X401496Y396225D01*
X401330Y396586D01*
X401107Y396947D01*
Y396975D01*
X401052Y397030D01*
X400996Y397114D01*
X400885Y397225D01*
X400607Y397530D01*
X400219Y397864D01*
X399719Y398197D01*
X399108Y398502D01*
X398775Y398613D01*
X398414Y398697D01*
X397997Y398752D01*
X397581Y398780D01*
D02*
G37*
G36*
X305023D02*
X304801D01*
X304662Y398752D01*
X304468Y398724D01*
X304246Y398697D01*
X303746Y398558D01*
X303163Y398336D01*
X302885Y398197D01*
X302607Y398002D01*
X302329Y397808D01*
X302052Y397558D01*
X301802Y397280D01*
X301552Y396947D01*
Y396919D01*
X301496Y396864D01*
X301441Y396753D01*
X301358Y396614D01*
X301274Y396447D01*
X301191Y396225D01*
X301080Y395975D01*
X300969Y395697D01*
X300858Y395364D01*
X300747Y395031D01*
X300663Y394642D01*
X300580Y394226D01*
X300441Y393337D01*
X300386Y392337D01*
Y391976D01*
Y391949D01*
Y391865D01*
Y391699D01*
X300413Y391504D01*
Y391282D01*
X300441Y391004D01*
X300497Y390699D01*
X300524Y390366D01*
X300663Y389644D01*
X300886Y388866D01*
X301163Y388088D01*
X301552Y387367D01*
X301580Y387339D01*
X301607Y387283D01*
X301691Y387200D01*
X301774Y387089D01*
X302052Y386783D01*
X302441Y386450D01*
X302941Y386117D01*
X303551Y385811D01*
X303885Y385700D01*
X304246Y385617D01*
X304662Y385561D01*
X305079Y385534D01*
X305301D01*
X305468Y385561D01*
X305634Y385589D01*
X305856Y385645D01*
X306356Y385756D01*
X306939Y385978D01*
X307217Y386117D01*
X307495Y386311D01*
X307800Y386506D01*
X308050Y386755D01*
X308328Y387033D01*
X308550Y387367D01*
X308578Y387394D01*
X308606Y387450D01*
X308661Y387561D01*
X308744Y387700D01*
X308828Y387866D01*
X308939Y388088D01*
X309050Y388338D01*
X309161Y388644D01*
X309272Y388949D01*
X309355Y389310D01*
X309466Y389671D01*
X309550Y390088D01*
X309689Y390977D01*
X309744Y391476D01*
Y391976D01*
Y392337D01*
Y392365D01*
Y392448D01*
Y392615D01*
X309716Y392809D01*
Y393032D01*
X309689Y393309D01*
X309633Y393615D01*
X309605Y393948D01*
X309466Y394698D01*
X309244Y395448D01*
X308939Y396225D01*
X308772Y396586D01*
X308550Y396947D01*
Y396975D01*
X308494Y397030D01*
X308439Y397114D01*
X308328Y397225D01*
X308050Y397530D01*
X307661Y397864D01*
X307161Y398197D01*
X306551Y398502D01*
X306217Y398613D01*
X305856Y398697D01*
X305440Y398752D01*
X305023Y398780D01*
D02*
G37*
G36*
X454995Y375798D02*
X454801D01*
X454662Y375770D01*
X454495Y375742D01*
X454273Y375714D01*
X453829Y375603D01*
X453301Y375436D01*
X452774Y375159D01*
X452524Y374992D01*
X452274Y374798D01*
X452024Y374576D01*
X451801Y374298D01*
Y374270D01*
X451746Y374242D01*
X451690Y374159D01*
X451635Y374020D01*
X451552Y373881D01*
X451440Y373687D01*
X451357Y373493D01*
X451246Y373243D01*
X451135Y372965D01*
X451052Y372659D01*
X450941Y372326D01*
X450857Y371993D01*
X450746Y371188D01*
X450691Y370271D01*
Y361996D01*
Y361968D01*
Y361885D01*
Y361746D01*
X450718Y361579D01*
Y361357D01*
X450746Y361107D01*
X450774Y360829D01*
X450830Y360524D01*
X450968Y359885D01*
X451163Y359219D01*
X451440Y358552D01*
X451829Y357941D01*
X451857Y357914D01*
X451885Y357886D01*
X452051Y357719D01*
X452301Y357469D01*
X452662Y357192D01*
X453134Y356914D01*
X453690Y356664D01*
X454329Y356497D01*
X454690Y356470D01*
X455051Y356442D01*
X455245D01*
X455384Y356470D01*
X455578Y356497D01*
X455773Y356525D01*
X456245Y356636D01*
X456745Y356803D01*
X457272Y357081D01*
X457550Y357247D01*
X457800Y357441D01*
X458022Y357692D01*
X458244Y357941D01*
Y357969D01*
X458300Y358025D01*
X458355Y358108D01*
X458411Y358219D01*
X458494Y358358D01*
X458605Y358552D01*
X458688Y358774D01*
X458800Y359024D01*
X458911Y359274D01*
X458994Y359580D01*
X459105Y359913D01*
X459188Y360274D01*
X459299Y361079D01*
X459355Y361996D01*
Y370271D01*
Y370299D01*
Y370382D01*
Y370521D01*
X459327Y370688D01*
Y370910D01*
X459299Y371160D01*
X459272Y371438D01*
X459216Y371743D01*
X459077Y372382D01*
X458883Y373048D01*
X458605Y373715D01*
X458216Y374298D01*
Y374326D01*
X458161Y374354D01*
X457994Y374520D01*
X457744Y374770D01*
X457383Y375048D01*
X456939Y375325D01*
X456384Y375575D01*
X455745Y375742D01*
X455384Y375770D01*
X454995Y375798D01*
D02*
G37*
G36*
X357550Y369688D02*
X357023D01*
X356911Y369660D01*
X356606Y369633D01*
X356217Y369521D01*
X355773Y369383D01*
X355301Y369133D01*
X354829Y368827D01*
X354607Y368605D01*
X354384Y368383D01*
Y368355D01*
X354329Y368327D01*
X354273Y368244D01*
X354218Y368161D01*
X354023Y367883D01*
X353801Y367494D01*
X353579Y367022D01*
X353357Y366467D01*
X353190Y365828D01*
X353051Y365106D01*
X353107Y365023D01*
X361049D01*
Y365273D01*
Y365300D01*
Y365356D01*
Y365467D01*
Y365606D01*
X361021Y365745D01*
X360994Y365939D01*
X360938Y366384D01*
X360827Y366883D01*
X360660Y367411D01*
X360410Y367939D01*
X360105Y368439D01*
Y368466D01*
X360050Y368494D01*
X359938Y368633D01*
X359716Y368827D01*
X359383Y369077D01*
X358966Y369299D01*
X358467Y369494D01*
X357883Y369633D01*
X357550Y369688D01*
D02*
G37*
G36*
X302232D02*
X301705D01*
X301594Y369660D01*
X301288Y369633D01*
X300899Y369521D01*
X300455Y369383D01*
X299983Y369133D01*
X299511Y368827D01*
X299289Y368605D01*
X299066Y368383D01*
Y368355D01*
X299011Y368327D01*
X298955Y368244D01*
X298900Y368161D01*
X298706Y367883D01*
X298483Y367494D01*
X298261Y367022D01*
X298039Y366467D01*
X297872Y365828D01*
X297734Y365106D01*
X297789Y365023D01*
X305731D01*
Y365273D01*
Y365300D01*
Y365356D01*
Y365467D01*
Y365606D01*
X305704Y365745D01*
X305676Y365939D01*
X305620Y366384D01*
X305509Y366883D01*
X305343Y367411D01*
X305093Y367939D01*
X304787Y368439D01*
Y368466D01*
X304732Y368494D01*
X304621Y368633D01*
X304398Y368827D01*
X304065Y369077D01*
X303649Y369299D01*
X303149Y369494D01*
X302566Y369633D01*
X302232Y369688D01*
D02*
G37*
G36*
X319505D02*
X319283D01*
X319116Y369660D01*
X318950Y369633D01*
X318728Y369577D01*
X318228Y369438D01*
X317950Y369355D01*
X317672Y369216D01*
X317367Y369049D01*
X317089Y368883D01*
X316812Y368633D01*
X316562Y368383D01*
X316312Y368077D01*
X316090Y367744D01*
Y367716D01*
X316034Y367661D01*
X315979Y367550D01*
X315923Y367383D01*
X315840Y367189D01*
X315728Y366967D01*
X315645Y366689D01*
X315534Y366384D01*
X315423Y366050D01*
X315340Y365689D01*
X315229Y365273D01*
X315145Y364828D01*
X315090Y364356D01*
X315034Y363856D01*
X314979Y363329D01*
Y362773D01*
Y362412D01*
Y362385D01*
Y362301D01*
Y362162D01*
X315006Y361968D01*
Y361746D01*
X315034Y361468D01*
X315062Y361191D01*
X315118Y360885D01*
X315256Y360191D01*
X315423Y359469D01*
X315701Y358747D01*
X316062Y358080D01*
X316090Y358052D01*
X316117Y357997D01*
X316173Y357941D01*
X316284Y357830D01*
X316534Y357553D01*
X316895Y357275D01*
X317367Y356969D01*
X317950Y356692D01*
X318283Y356581D01*
X318644Y356525D01*
X319033Y356470D01*
X319450Y356442D01*
X319672D01*
X319922Y356470D01*
X320227Y356525D01*
X320588Y356581D01*
X320949Y356692D01*
X321338Y356831D01*
X321699Y357025D01*
X321755Y357053D01*
X321866Y357136D01*
X322032Y357275D01*
X322254Y357469D01*
X322504Y357692D01*
X322754Y357997D01*
X323032Y358330D01*
X323282Y358691D01*
Y367578D01*
X323254Y367633D01*
X323171Y367744D01*
X323032Y367911D01*
X322838Y368133D01*
X322616Y368383D01*
X322338Y368633D01*
X322032Y368883D01*
X321699Y369105D01*
X321671Y369133D01*
X321533Y369188D01*
X321338Y369299D01*
X321088Y369410D01*
X320755Y369494D01*
X320394Y369605D01*
X319977Y369660D01*
X319505Y369688D01*
D02*
G37*
%LPD*%
M02*
