G04*
G04 #@! TF.GenerationSoftware,Altium Limited,Altium Designer,19.1.5 (86)*
G04*
G04 Layer_Color=65535*
%FSLAX25Y25*%
%MOIN*%
G70*
G01*
G75*
G36*
X375476Y444287D02*
X371977D01*
X358536Y464392D01*
Y444287D01*
X355287D01*
Y469918D01*
X358758D01*
X372227Y449785D01*
Y469918D01*
X375476D01*
Y444287D01*
D02*
G37*
G36*
X523156Y466891D02*
X507994D01*
Y459060D01*
X522185D01*
Y456033D01*
X507994D01*
Y447314D01*
X523740D01*
Y444287D01*
X504606D01*
Y469918D01*
X523156D01*
Y466891D01*
D02*
G37*
G36*
X501024D02*
X492582D01*
Y444287D01*
X489194D01*
Y466891D01*
X480752D01*
Y469918D01*
X501024D01*
Y466891D01*
D02*
G37*
G36*
X479974Y444287D02*
X476114D01*
X473143Y452035D01*
X462368D01*
X459591Y444287D01*
X456009D01*
X465811Y469918D01*
X469477D01*
X479974Y444287D01*
D02*
G37*
G36*
X442124Y447314D02*
X454759D01*
Y444287D01*
X438736D01*
Y469918D01*
X442124D01*
Y447314D01*
D02*
G37*
G36*
X426100Y469891D02*
X426739Y469863D01*
X427378Y469807D01*
X427989Y469752D01*
X428294Y469724D01*
X428544Y469668D01*
X428572D01*
X428627Y469641D01*
X428739D01*
X428850Y469613D01*
X429016Y469557D01*
X429211Y469530D01*
X429655Y469391D01*
X430155Y469224D01*
X430682Y469002D01*
X431210Y468752D01*
X431710Y468447D01*
X431738D01*
X431766Y468419D01*
X431932Y468280D01*
X432154Y468085D01*
X432460Y467808D01*
X432765Y467475D01*
X433126Y467030D01*
X433460Y466558D01*
X433765Y465975D01*
Y465947D01*
X433793Y465892D01*
X433848Y465808D01*
X433904Y465697D01*
X433959Y465558D01*
X434015Y465364D01*
X434181Y464948D01*
X434320Y464420D01*
X434459Y463837D01*
X434543Y463170D01*
X434570Y462476D01*
Y462448D01*
Y462337D01*
Y462171D01*
X434543Y461921D01*
X434515Y461643D01*
X434459Y461337D01*
X434404Y460976D01*
X434320Y460560D01*
X434209Y460143D01*
X434070Y459699D01*
X433904Y459255D01*
X433682Y458783D01*
X433460Y458311D01*
X433182Y457838D01*
X432849Y457394D01*
X432487Y456950D01*
X432460Y456922D01*
X432376Y456867D01*
X432265Y456755D01*
X432071Y456589D01*
X431849Y456422D01*
X431543Y456228D01*
X431182Y456033D01*
X430766Y455839D01*
X430266Y455617D01*
X429738Y455422D01*
X429100Y455228D01*
X428433Y455061D01*
X427656Y454923D01*
X426822Y454811D01*
X425934Y454728D01*
X424934Y454700D01*
X418380D01*
Y444287D01*
X414992D01*
Y469918D01*
X425545D01*
X426100Y469891D01*
D02*
G37*
G36*
X399802Y466891D02*
X384640D01*
Y459060D01*
X398830D01*
Y456033D01*
X384640D01*
Y447314D01*
X400385D01*
Y444287D01*
X381252D01*
Y469918D01*
X399802D01*
Y466891D01*
D02*
G37*
G36*
X323407D02*
X308994Y449119D01*
X307467Y447314D01*
X323823D01*
Y444287D01*
X303579D01*
Y447425D01*
X316687Y463809D01*
X316714Y463837D01*
X316742Y463892D01*
X316826Y463976D01*
X316936Y464114D01*
X317048Y464253D01*
X317186Y464448D01*
X317547Y464864D01*
X317936Y465336D01*
X318408Y465864D01*
X318880Y466392D01*
X319353Y466891D01*
X305051D01*
Y469918D01*
X323407D01*
Y466891D01*
D02*
G37*
G36*
X339291Y470335D02*
X339625Y470307D01*
X339986Y470279D01*
X340374Y470224D01*
X340819Y470141D01*
X341319Y470057D01*
X341818Y469946D01*
X342346Y469807D01*
X342901Y469641D01*
X343457Y469446D01*
X344012Y469224D01*
X344540Y468974D01*
X345095Y468669D01*
X345123Y468641D01*
X345234Y468585D01*
X345373Y468502D01*
X345567Y468363D01*
X345817Y468197D01*
X346067Y467975D01*
X346373Y467725D01*
X346706Y467447D01*
X347067Y467114D01*
X347428Y466753D01*
X347789Y466364D01*
X348150Y465947D01*
X348483Y465503D01*
X348844Y465003D01*
X349150Y464475D01*
X349455Y463920D01*
X349483Y463892D01*
X349511Y463781D01*
X349594Y463615D01*
X349677Y463392D01*
X349816Y463115D01*
X349927Y462754D01*
X350066Y462365D01*
X350205Y461921D01*
X350344Y461448D01*
X350483Y460921D01*
X350622Y460338D01*
X350733Y459755D01*
X350816Y459116D01*
X350899Y458449D01*
X350927Y457783D01*
X350955Y457061D01*
Y457005D01*
Y456894D01*
Y456672D01*
X350927Y456394D01*
X350899Y456061D01*
X350871Y455672D01*
X350816Y455228D01*
X350760Y454728D01*
X350677Y454201D01*
X350566Y453645D01*
X350455Y453062D01*
X350288Y452479D01*
X350094Y451868D01*
X349900Y451285D01*
X349650Y450674D01*
X349372Y450091D01*
X349344Y450063D01*
X349289Y449952D01*
X349205Y449785D01*
X349094Y449591D01*
X348928Y449341D01*
X348733Y449035D01*
X348483Y448702D01*
X348233Y448341D01*
X347928Y447980D01*
X347595Y447591D01*
X347206Y447202D01*
X346817Y446814D01*
X346400Y446453D01*
X345928Y446092D01*
X345428Y445731D01*
X344901Y445425D01*
X344873Y445398D01*
X344762Y445370D01*
X344623Y445286D01*
X344401Y445175D01*
X344123Y445064D01*
X343818Y444925D01*
X343457Y444787D01*
X343040Y444648D01*
X342596Y444509D01*
X342124Y444370D01*
X341596Y444231D01*
X341069Y444120D01*
X339902Y443926D01*
X339291Y443898D01*
X338680Y443870D01*
X338319D01*
X338070Y443898D01*
X337764Y443926D01*
X337375Y443953D01*
X336986Y444009D01*
X336514Y444092D01*
X336042Y444176D01*
X335515Y444287D01*
X334987Y444425D01*
X334432Y444592D01*
X333876Y444787D01*
X333321Y445036D01*
X332765Y445286D01*
X332210Y445592D01*
X332182Y445620D01*
X332099Y445675D01*
X331932Y445786D01*
X331738Y445925D01*
X331516Y446092D01*
X331238Y446314D01*
X330933Y446564D01*
X330599Y446841D01*
X330238Y447175D01*
X329905Y447536D01*
X329544Y447925D01*
X329183Y448341D01*
X328822Y448813D01*
X328489Y449285D01*
X328183Y449813D01*
X327878Y450368D01*
X327850Y450396D01*
X327822Y450507D01*
X327739Y450674D01*
X327656Y450896D01*
X327545Y451174D01*
X327434Y451507D01*
X327295Y451868D01*
X327156Y452312D01*
X327017Y452757D01*
X326878Y453256D01*
X326767Y453784D01*
X326656Y454339D01*
X326489Y455506D01*
X326462Y456144D01*
X326434Y456755D01*
Y456783D01*
Y456839D01*
Y456922D01*
Y457033D01*
X326462Y457200D01*
Y457366D01*
X326489Y457811D01*
X326545Y458338D01*
X326628Y458977D01*
X326712Y459644D01*
X326850Y460393D01*
X327045Y461199D01*
X327267Y462004D01*
X327545Y462837D01*
X327878Y463670D01*
X328267Y464503D01*
X328711Y465281D01*
X329239Y466058D01*
X329850Y466753D01*
X329877Y466780D01*
X330016Y466919D01*
X330211Y467086D01*
X330461Y467308D01*
X330821Y467586D01*
X331210Y467891D01*
X331682Y468224D01*
X332238Y468558D01*
X332849Y468891D01*
X333515Y469224D01*
X334237Y469530D01*
X335043Y469807D01*
X335876Y470029D01*
X336764Y470196D01*
X337708Y470335D01*
X338708Y470363D01*
X339041D01*
X339291Y470335D01*
D02*
G37*
G36*
X415895Y404320D02*
X412757D01*
Y407902D01*
X415895D01*
Y404320D01*
D02*
G37*
G36*
X429836Y401238D02*
X430002D01*
X430419Y401182D01*
X430891Y401126D01*
X431418Y401015D01*
X431946Y400849D01*
X432474Y400654D01*
X432501D01*
X432529Y400627D01*
X432696Y400543D01*
X432946Y400405D01*
X433279Y400238D01*
X433612Y399988D01*
X433973Y399738D01*
X434306Y399432D01*
X434584Y399072D01*
X434612Y399016D01*
X434695Y398905D01*
X434806Y398683D01*
X434973Y398405D01*
X435140Y398072D01*
X435278Y397683D01*
X435445Y397239D01*
X435556Y396739D01*
Y396711D01*
X435584Y396572D01*
X435612Y396350D01*
X435667Y396045D01*
X435695Y395628D01*
Y395378D01*
X435723Y395100D01*
Y394795D01*
X435750Y394434D01*
Y394073D01*
Y393684D01*
Y382271D01*
X432613D01*
Y393573D01*
Y393601D01*
Y393656D01*
Y393767D01*
Y393879D01*
Y394045D01*
X432585Y394240D01*
X432557Y394656D01*
X432529Y395128D01*
X432446Y395600D01*
X432363Y396045D01*
X432224Y396433D01*
X432196Y396489D01*
X432140Y396600D01*
X432057Y396767D01*
X431918Y396989D01*
X431752Y397239D01*
X431529Y397489D01*
X431252Y397739D01*
X430919Y397961D01*
X430891Y397989D01*
X430752Y398044D01*
X430557Y398155D01*
X430308Y398266D01*
X429974Y398349D01*
X429613Y398461D01*
X429197Y398516D01*
X428725Y398544D01*
X428530D01*
X428391Y398516D01*
X428225D01*
X428003Y398488D01*
X427531Y398377D01*
X427003Y398238D01*
X426420Y398016D01*
X425837Y397683D01*
X425531Y397489D01*
X425253Y397267D01*
X425226Y397239D01*
X425198Y397211D01*
X425115Y397128D01*
X425031Y397017D01*
X424920Y396850D01*
X424809Y396683D01*
X424670Y396461D01*
X424531Y396183D01*
X424393Y395878D01*
X424254Y395517D01*
X424143Y395128D01*
X424031Y394684D01*
X423948Y394184D01*
X423865Y393656D01*
X423837Y393045D01*
X423809Y392407D01*
Y382271D01*
X420671D01*
Y400849D01*
X423504D01*
Y398183D01*
X423532Y398211D01*
X423587Y398322D01*
X423726Y398461D01*
X423893Y398655D01*
X424087Y398905D01*
X424337Y399155D01*
X424643Y399432D01*
X425003Y399738D01*
X425392Y400016D01*
X425837Y400293D01*
X426309Y400543D01*
X426836Y400793D01*
X427420Y400988D01*
X428030Y401126D01*
X428697Y401238D01*
X429391Y401265D01*
X429669D01*
X429836Y401238D01*
D02*
G37*
G36*
X549968D02*
X550218Y401210D01*
X550468Y401182D01*
X550774Y401126D01*
X551107Y401071D01*
X551774Y400877D01*
X552496Y400599D01*
X552829Y400432D01*
X553162Y400238D01*
X553495Y399988D01*
X553773Y399710D01*
X553801Y399682D01*
X553828Y399627D01*
X553912Y399544D01*
X553995Y399432D01*
X554134Y399266D01*
X554245Y399072D01*
X554384Y398822D01*
X554523Y398544D01*
X554662Y398238D01*
X554801Y397905D01*
X554939Y397516D01*
X555050Y397100D01*
X555134Y396628D01*
X555217Y396128D01*
X555245Y395600D01*
X555273Y395017D01*
Y382271D01*
X552135D01*
Y393962D01*
Y393990D01*
Y394045D01*
Y394156D01*
Y394267D01*
X552107Y394601D01*
Y395017D01*
X552051Y395461D01*
X551996Y395906D01*
X551940Y396322D01*
X551829Y396683D01*
Y396711D01*
X551774Y396822D01*
X551690Y396961D01*
X551579Y397155D01*
X551412Y397378D01*
X551246Y397600D01*
X550996Y397822D01*
X550718Y398016D01*
X550691Y398044D01*
X550579Y398100D01*
X550413Y398183D01*
X550191Y398294D01*
X549913Y398377D01*
X549580Y398461D01*
X549219Y398516D01*
X548830Y398544D01*
X548635D01*
X548497Y398516D01*
X548330D01*
X548136Y398488D01*
X547691Y398377D01*
X547164Y398238D01*
X546608Y397989D01*
X546081Y397683D01*
X545803Y397461D01*
X545553Y397239D01*
Y397211D01*
X545498Y397183D01*
X545442Y397100D01*
X545359Y396989D01*
X545248Y396850D01*
X545136Y396683D01*
X545025Y396461D01*
X544914Y396239D01*
X544775Y395961D01*
X544664Y395656D01*
X544553Y395295D01*
X544442Y394934D01*
X544359Y394517D01*
X544303Y394045D01*
X544276Y393573D01*
X544248Y393045D01*
Y382271D01*
X541110D01*
Y394323D01*
Y394351D01*
Y394406D01*
Y394517D01*
Y394684D01*
X541082Y394850D01*
Y395045D01*
X541027Y395517D01*
X540915Y396017D01*
X540777Y396545D01*
X540582Y397044D01*
X540332Y397489D01*
X540305Y397544D01*
X540194Y397655D01*
X539999Y397822D01*
X539749Y398016D01*
X539388Y398211D01*
X538972Y398377D01*
X538444Y398488D01*
X537833Y398544D01*
X537611D01*
X537361Y398516D01*
X537028Y398461D01*
X536639Y398377D01*
X536222Y398238D01*
X535806Y398072D01*
X535361Y397822D01*
X535306Y397794D01*
X535167Y397683D01*
X534973Y397544D01*
X534751Y397294D01*
X534473Y397017D01*
X534195Y396656D01*
X533945Y396239D01*
X533723Y395767D01*
Y395739D01*
X533695Y395711D01*
X533668Y395628D01*
X533640Y395517D01*
X533612Y395378D01*
X533556Y395212D01*
X533529Y395017D01*
X533473Y394795D01*
X533418Y394517D01*
X533390Y394240D01*
X533334Y393934D01*
X533307Y393573D01*
X533279Y393212D01*
X533251Y392795D01*
X533223Y392379D01*
Y391907D01*
Y382271D01*
X530085D01*
Y400849D01*
X532890D01*
Y398266D01*
X532945Y398294D01*
X533057Y398461D01*
X533251Y398710D01*
X533529Y399016D01*
X533862Y399377D01*
X534251Y399738D01*
X534695Y400099D01*
X535223Y400432D01*
X535250D01*
X535278Y400460D01*
X535361Y400516D01*
X535472Y400571D01*
X535611Y400627D01*
X535778Y400710D01*
X536167Y400849D01*
X536667Y401015D01*
X537222Y401126D01*
X537861Y401238D01*
X538527Y401265D01*
X538861D01*
X539055Y401238D01*
X539249Y401210D01*
X539721Y401154D01*
X540249Y401043D01*
X540804Y400904D01*
X541360Y400682D01*
X541887Y400405D01*
X541915D01*
X541943Y400377D01*
X542110Y400238D01*
X542332Y400043D01*
X542637Y399794D01*
X542943Y399432D01*
X543248Y399044D01*
X543526Y398572D01*
X543776Y398016D01*
X543804Y398044D01*
X543887Y398155D01*
X543998Y398322D01*
X544192Y398516D01*
X544387Y398766D01*
X544664Y399044D01*
X544970Y399349D01*
X545331Y399655D01*
X545720Y399932D01*
X546164Y400238D01*
X546636Y400516D01*
X547136Y400766D01*
X547691Y400960D01*
X548275Y401126D01*
X548885Y401238D01*
X549524Y401265D01*
X549802D01*
X549968Y401238D01*
D02*
G37*
G36*
X520144D02*
X520393Y401210D01*
X520643Y401182D01*
X520949Y401126D01*
X521282Y401071D01*
X521949Y400877D01*
X522671Y400599D01*
X523004Y400432D01*
X523337Y400238D01*
X523670Y399988D01*
X523948Y399710D01*
X523976Y399682D01*
X524004Y399627D01*
X524087Y399544D01*
X524170Y399432D01*
X524309Y399266D01*
X524420Y399072D01*
X524559Y398822D01*
X524698Y398544D01*
X524837Y398238D01*
X524975Y397905D01*
X525114Y397516D01*
X525225Y397100D01*
X525309Y396628D01*
X525392Y396128D01*
X525420Y395600D01*
X525448Y395017D01*
Y382271D01*
X522310D01*
Y393962D01*
Y393990D01*
Y394045D01*
Y394156D01*
Y394267D01*
X522282Y394601D01*
Y395017D01*
X522226Y395461D01*
X522171Y395906D01*
X522115Y396322D01*
X522004Y396683D01*
Y396711D01*
X521949Y396822D01*
X521865Y396961D01*
X521754Y397155D01*
X521588Y397378D01*
X521421Y397600D01*
X521171Y397822D01*
X520893Y398016D01*
X520865Y398044D01*
X520754Y398100D01*
X520588Y398183D01*
X520366Y398294D01*
X520088Y398377D01*
X519755Y398461D01*
X519394Y398516D01*
X519005Y398544D01*
X518811D01*
X518672Y398516D01*
X518505D01*
X518311Y398488D01*
X517866Y398377D01*
X517339Y398238D01*
X516783Y397989D01*
X516256Y397683D01*
X515978Y397461D01*
X515728Y397239D01*
Y397211D01*
X515672Y397183D01*
X515617Y397100D01*
X515534Y396989D01*
X515423Y396850D01*
X515311Y396683D01*
X515201Y396461D01*
X515089Y396239D01*
X514951Y395961D01*
X514839Y395656D01*
X514728Y395295D01*
X514617Y394934D01*
X514534Y394517D01*
X514478Y394045D01*
X514451Y393573D01*
X514423Y393045D01*
Y382271D01*
X511285D01*
Y394323D01*
Y394351D01*
Y394406D01*
Y394517D01*
Y394684D01*
X511257Y394850D01*
Y395045D01*
X511202Y395517D01*
X511091Y396017D01*
X510952Y396545D01*
X510757Y397044D01*
X510507Y397489D01*
X510480Y397544D01*
X510368Y397655D01*
X510174Y397822D01*
X509924Y398016D01*
X509563Y398211D01*
X509147Y398377D01*
X508619Y398488D01*
X508008Y398544D01*
X507786D01*
X507536Y398516D01*
X507203Y398461D01*
X506814Y398377D01*
X506397Y398238D01*
X505981Y398072D01*
X505537Y397822D01*
X505481Y397794D01*
X505342Y397683D01*
X505148Y397544D01*
X504926Y397294D01*
X504648Y397017D01*
X504370Y396656D01*
X504120Y396239D01*
X503898Y395767D01*
Y395739D01*
X503870Y395711D01*
X503842Y395628D01*
X503815Y395517D01*
X503787Y395378D01*
X503731Y395212D01*
X503704Y395017D01*
X503648Y394795D01*
X503593Y394517D01*
X503565Y394240D01*
X503509Y393934D01*
X503481Y393573D01*
X503454Y393212D01*
X503426Y392795D01*
X503398Y392379D01*
Y391907D01*
Y382271D01*
X500260D01*
Y400849D01*
X503065D01*
Y398266D01*
X503121Y398294D01*
X503232Y398461D01*
X503426Y398710D01*
X503704Y399016D01*
X504037Y399377D01*
X504426Y399738D01*
X504870Y400099D01*
X505398Y400432D01*
X505425D01*
X505453Y400460D01*
X505537Y400516D01*
X505648Y400571D01*
X505786Y400627D01*
X505953Y400710D01*
X506342Y400849D01*
X506842Y401015D01*
X507397Y401126D01*
X508036Y401238D01*
X508702Y401265D01*
X509035D01*
X509230Y401238D01*
X509424Y401210D01*
X509896Y401154D01*
X510424Y401043D01*
X510979Y400904D01*
X511535Y400682D01*
X512062Y400405D01*
X512090D01*
X512118Y400377D01*
X512285Y400238D01*
X512507Y400043D01*
X512812Y399794D01*
X513118Y399432D01*
X513423Y399044D01*
X513701Y398572D01*
X513951Y398016D01*
X513979Y398044D01*
X514062Y398155D01*
X514173Y398322D01*
X514367Y398516D01*
X514562Y398766D01*
X514839Y399044D01*
X515145Y399349D01*
X515506Y399655D01*
X515895Y399932D01*
X516339Y400238D01*
X516811Y400516D01*
X517311Y400766D01*
X517866Y400960D01*
X518449Y401126D01*
X519061Y401238D01*
X519699Y401265D01*
X519977D01*
X520144Y401238D01*
D02*
G37*
G36*
X321227D02*
X321477Y401210D01*
X321782Y401182D01*
X322116Y401126D01*
X322477Y401071D01*
X323254Y400877D01*
X324087Y400599D01*
X324504Y400432D01*
X324920Y400238D01*
X325309Y399988D01*
X325670Y399710D01*
X325698Y399682D01*
X325753Y399627D01*
X325865Y399544D01*
X325976Y399432D01*
X326142Y399266D01*
X326309Y399072D01*
X326503Y398849D01*
X326698Y398599D01*
X326920Y398294D01*
X327114Y397989D01*
X327336Y397627D01*
X327531Y397239D01*
X327697Y396822D01*
X327864Y396378D01*
X328031Y395878D01*
X328142Y395378D01*
X325087Y394906D01*
Y394934D01*
X325059Y394989D01*
X325031Y395073D01*
X325004Y395212D01*
X324893Y395545D01*
X324726Y395961D01*
X324504Y396406D01*
X324254Y396878D01*
X323921Y397322D01*
X323532Y397711D01*
X323476Y397766D01*
X323338Y397877D01*
X323088Y398016D01*
X322782Y398211D01*
X322393Y398377D01*
X321949Y398544D01*
X321421Y398655D01*
X320866Y398683D01*
X320644D01*
X320477Y398655D01*
X320255Y398627D01*
X320033Y398599D01*
X319478Y398461D01*
X318867Y398266D01*
X318561Y398127D01*
X318228Y397961D01*
X317922Y397766D01*
X317589Y397516D01*
X317284Y397267D01*
X317006Y396961D01*
X316978Y396933D01*
X316950Y396878D01*
X316867Y396794D01*
X316784Y396628D01*
X316673Y396461D01*
X316534Y396239D01*
X316395Y395961D01*
X316284Y395656D01*
X316145Y395295D01*
X316006Y394906D01*
X315867Y394462D01*
X315756Y393962D01*
X315673Y393434D01*
X315590Y392879D01*
X315562Y392240D01*
X315534Y391574D01*
Y391546D01*
Y391407D01*
Y391213D01*
X315562Y390963D01*
X315590Y390657D01*
X315617Y390296D01*
X315645Y389907D01*
X315701Y389491D01*
X315867Y388602D01*
X316145Y387686D01*
X316284Y387269D01*
X316478Y386853D01*
X316701Y386464D01*
X316950Y386131D01*
X316978Y386103D01*
X317006Y386047D01*
X317089Y385964D01*
X317200Y385881D01*
X317367Y385742D01*
X317534Y385603D01*
X317728Y385437D01*
X317950Y385298D01*
X318506Y384964D01*
X319144Y384714D01*
X319505Y384603D01*
X319866Y384520D01*
X320283Y384465D01*
X320699Y384437D01*
X320866D01*
X321005Y384465D01*
X321171D01*
X321338Y384492D01*
X321782Y384576D01*
X322254Y384714D01*
X322782Y384909D01*
X323282Y385187D01*
X323782Y385548D01*
X323810Y385575D01*
X323837Y385603D01*
X323976Y385770D01*
X324198Y386047D01*
X324309Y386214D01*
X324448Y386408D01*
X324587Y386658D01*
X324726Y386908D01*
X324837Y387186D01*
X324976Y387519D01*
X325087Y387853D01*
X325198Y388241D01*
X325281Y388630D01*
X325365Y389074D01*
X328447Y388658D01*
Y388630D01*
X328419Y388519D01*
X328392Y388352D01*
X328336Y388130D01*
X328253Y387853D01*
X328169Y387547D01*
X328058Y387214D01*
X327920Y386825D01*
X327586Y386047D01*
X327364Y385631D01*
X327114Y385214D01*
X326864Y384798D01*
X326559Y384381D01*
X326198Y384020D01*
X325837Y383659D01*
X325809Y383631D01*
X325753Y383576D01*
X325615Y383493D01*
X325476Y383382D01*
X325254Y383243D01*
X325031Y383076D01*
X324726Y382937D01*
X324421Y382771D01*
X324060Y382576D01*
X323671Y382437D01*
X323254Y382271D01*
X322810Y382132D01*
X322310Y382021D01*
X321810Y381937D01*
X321283Y381882D01*
X320727Y381854D01*
X320561D01*
X320366Y381882D01*
X320088D01*
X319783Y381937D01*
X319394Y381993D01*
X318978Y382049D01*
X318533Y382160D01*
X318061Y382298D01*
X317561Y382465D01*
X317061Y382660D01*
X316534Y382909D01*
X316034Y383187D01*
X315534Y383520D01*
X315062Y383881D01*
X314618Y384326D01*
X314590Y384353D01*
X314507Y384437D01*
X314396Y384576D01*
X314257Y384798D01*
X314090Y385048D01*
X313896Y385353D01*
X313674Y385742D01*
X313479Y386158D01*
X313257Y386631D01*
X313035Y387158D01*
X312841Y387741D01*
X312674Y388380D01*
X312535Y389074D01*
X312424Y389824D01*
X312341Y390630D01*
X312313Y391463D01*
Y391490D01*
Y391601D01*
Y391768D01*
X312341Y391962D01*
Y392240D01*
X312368Y392546D01*
X312396Y392879D01*
X312424Y393268D01*
X312563Y394073D01*
X312729Y394962D01*
X312951Y395878D01*
X313285Y396739D01*
Y396767D01*
X313340Y396850D01*
X313396Y396961D01*
X313479Y397100D01*
X313590Y397294D01*
X313701Y397516D01*
X314035Y398016D01*
X314451Y398544D01*
X314979Y399127D01*
X315590Y399655D01*
X316312Y400127D01*
X316339D01*
X316395Y400182D01*
X316506Y400238D01*
X316673Y400293D01*
X316867Y400405D01*
X317089Y400488D01*
X317339Y400599D01*
X317617Y400710D01*
X317950Y400793D01*
X318283Y400904D01*
X319033Y401099D01*
X319866Y401210D01*
X320727Y401265D01*
X321033D01*
X321227Y401238D01*
D02*
G37*
G36*
X476378Y405098D02*
X476350Y405070D01*
X476267Y404986D01*
X476128Y404820D01*
X475961Y404626D01*
X475739Y404348D01*
X475462Y404042D01*
X475184Y403681D01*
X474851Y403265D01*
X474490Y402793D01*
X474101Y402265D01*
X473684Y401682D01*
X473268Y401071D01*
X472851Y400432D01*
X472407Y399710D01*
X471935Y398960D01*
X471490Y398183D01*
X471463Y398127D01*
X471379Y397989D01*
X471268Y397766D01*
X471102Y397433D01*
X470907Y397044D01*
X470657Y396572D01*
X470407Y396045D01*
X470130Y395461D01*
X469852Y394823D01*
X469547Y394128D01*
X469241Y393379D01*
X468936Y392629D01*
X468630Y391824D01*
X468325Y390990D01*
X467797Y389297D01*
Y389269D01*
X467769Y389158D01*
X467714Y388963D01*
X467658Y388741D01*
X467575Y388436D01*
X467492Y388075D01*
X467381Y387658D01*
X467297Y387214D01*
X467186Y386714D01*
X467103Y386158D01*
X466992Y385575D01*
X466908Y384964D01*
X466797Y384326D01*
X466714Y383659D01*
X466603Y382271D01*
X463382D01*
Y382298D01*
Y382410D01*
Y382576D01*
X463409Y382798D01*
X463437Y383104D01*
X463465Y383437D01*
X463493Y383854D01*
X463548Y384298D01*
X463604Y384825D01*
X463687Y385353D01*
X463770Y385964D01*
X463881Y386603D01*
X464020Y387297D01*
X464159Y388019D01*
X464354Y388769D01*
X464548Y389546D01*
X464576Y389602D01*
X464604Y389741D01*
X464659Y389963D01*
X464770Y390268D01*
X464881Y390657D01*
X465020Y391129D01*
X465187Y391629D01*
X465381Y392185D01*
X465603Y392795D01*
X465853Y393462D01*
X466103Y394156D01*
X466409Y394850D01*
X467047Y396322D01*
X467797Y397822D01*
X467825Y397877D01*
X467908Y397989D01*
X468019Y398211D01*
X468158Y398488D01*
X468380Y398822D01*
X468602Y399210D01*
X468880Y399655D01*
X469158Y400155D01*
X469491Y400654D01*
X469852Y401210D01*
X470630Y402321D01*
X471463Y403459D01*
X471907Y404015D01*
X472351Y404542D01*
X459799D01*
Y407569D01*
X476378D01*
Y405098D01*
D02*
G37*
G36*
X415895Y382271D02*
X412757D01*
Y400849D01*
X415895D01*
Y382271D01*
D02*
G37*
G36*
X380433Y407875D02*
X381071Y407847D01*
X381710Y407791D01*
X382321Y407736D01*
X382627Y407708D01*
X382876Y407653D01*
X382904D01*
X382960Y407625D01*
X383071D01*
X383182Y407597D01*
X383348Y407541D01*
X383543Y407514D01*
X383987Y407375D01*
X384487Y407208D01*
X385015Y406986D01*
X385542Y406736D01*
X386042Y406431D01*
X386070D01*
X386098Y406403D01*
X386264Y406264D01*
X386487Y406070D01*
X386792Y405792D01*
X387097Y405459D01*
X387458Y405014D01*
X387792Y404542D01*
X388097Y403959D01*
Y403931D01*
X388125Y403876D01*
X388180Y403792D01*
X388236Y403681D01*
X388292Y403543D01*
X388347Y403348D01*
X388514Y402932D01*
X388653Y402404D01*
X388791Y401821D01*
X388875Y401154D01*
X388902Y400460D01*
Y400432D01*
Y400321D01*
Y400155D01*
X388875Y399905D01*
X388847Y399627D01*
X388791Y399322D01*
X388736Y398960D01*
X388653Y398544D01*
X388542Y398127D01*
X388403Y397683D01*
X388236Y397239D01*
X388014Y396767D01*
X387792Y396294D01*
X387514Y395822D01*
X387181Y395378D01*
X386820Y394934D01*
X386792Y394906D01*
X386709Y394850D01*
X386598Y394739D01*
X386403Y394573D01*
X386181Y394406D01*
X385876Y394212D01*
X385515Y394017D01*
X385098Y393823D01*
X384598Y393601D01*
X384070Y393407D01*
X383432Y393212D01*
X382765Y393045D01*
X381988Y392907D01*
X381155Y392795D01*
X380266Y392712D01*
X379266Y392684D01*
X372713D01*
Y382271D01*
X369325D01*
Y407902D01*
X379877D01*
X380433Y407875D01*
D02*
G37*
G36*
X354107Y382271D02*
X350969D01*
Y407902D01*
X354107D01*
Y382271D01*
D02*
G37*
G36*
X339583Y401238D02*
X339833D01*
X340360Y401182D01*
X340971Y401126D01*
X341610Y401015D01*
X342249Y400877D01*
X342832Y400682D01*
X342860D01*
X342888Y400654D01*
X342971Y400627D01*
X343082Y400571D01*
X343332Y400460D01*
X343665Y400293D01*
X344026Y400099D01*
X344387Y399849D01*
X344720Y399571D01*
X345026Y399266D01*
X345054Y399238D01*
X345137Y399127D01*
X345276Y398933D01*
X345415Y398683D01*
X345581Y398377D01*
X345748Y398016D01*
X345915Y397600D01*
X346026Y397128D01*
Y397100D01*
X346053Y396961D01*
X346081Y396767D01*
X346109Y396461D01*
X346137Y396072D01*
X346164Y395572D01*
Y395267D01*
X346192Y394962D01*
Y394628D01*
Y394240D01*
Y390046D01*
Y389991D01*
Y389852D01*
Y389630D01*
Y389352D01*
Y388991D01*
Y388602D01*
X346220Y388158D01*
Y387714D01*
X346248Y386769D01*
Y386297D01*
X346275Y385853D01*
X346303Y385437D01*
X346331Y385075D01*
X346359Y384742D01*
X346387Y384492D01*
Y384437D01*
X346414Y384298D01*
X346470Y384076D01*
X346553Y383770D01*
X346664Y383437D01*
X346803Y383076D01*
X346970Y382660D01*
X347164Y382271D01*
X343887D01*
X343860Y382326D01*
X343804Y382437D01*
X343721Y382660D01*
X343637Y382937D01*
X343526Y383270D01*
X343415Y383659D01*
X343332Y384103D01*
X343276Y384603D01*
X343249Y384576D01*
X343193Y384548D01*
X343110Y384465D01*
X342971Y384353D01*
X342804Y384242D01*
X342638Y384076D01*
X342193Y383770D01*
X341666Y383409D01*
X341110Y383048D01*
X340499Y382743D01*
X339888Y382465D01*
X339861D01*
X339805Y382437D01*
X339722Y382410D01*
X339611Y382382D01*
X339472Y382326D01*
X339278Y382271D01*
X338861Y382160D01*
X338333Y382049D01*
X337750Y381937D01*
X337111Y381882D01*
X336417Y381854D01*
X336112D01*
X335917Y381882D01*
X335667Y381910D01*
X335362Y381937D01*
X335029Y381965D01*
X334695Y382049D01*
X333918Y382215D01*
X333140Y382465D01*
X332779Y382632D01*
X332390Y382854D01*
X332057Y383076D01*
X331724Y383326D01*
X331696Y383354D01*
X331641Y383409D01*
X331585Y383493D01*
X331474Y383604D01*
X331335Y383742D01*
X331196Y383937D01*
X331058Y384131D01*
X330919Y384381D01*
X330613Y384909D01*
X330336Y385575D01*
X330224Y385936D01*
X330169Y386325D01*
X330113Y386742D01*
X330086Y387158D01*
Y387186D01*
Y387214D01*
Y387380D01*
X330113Y387658D01*
X330169Y387991D01*
X330224Y388380D01*
X330336Y388797D01*
X330502Y389213D01*
X330697Y389657D01*
X330724Y389713D01*
X330808Y389852D01*
X330946Y390046D01*
X331141Y390324D01*
X331363Y390602D01*
X331641Y390907D01*
X331946Y391185D01*
X332307Y391463D01*
X332363Y391490D01*
X332502Y391574D01*
X332696Y391712D01*
X332974Y391851D01*
X333307Y392018D01*
X333696Y392185D01*
X334140Y392351D01*
X334584Y392490D01*
X334640D01*
X334751Y392546D01*
X334973Y392573D01*
X335279Y392657D01*
X335667Y392712D01*
X336167Y392795D01*
X336723Y392879D01*
X337389Y392962D01*
X337445D01*
X337556Y392990D01*
X337750Y393018D01*
X338000Y393045D01*
X338333Y393101D01*
X338694Y393157D01*
X339083Y393212D01*
X339527Y393268D01*
X340444Y393434D01*
X341360Y393629D01*
X341805Y393740D01*
X342249Y393851D01*
X342638Y393962D01*
X342999Y394073D01*
Y394101D01*
Y394184D01*
Y394295D01*
X343026Y394406D01*
Y394684D01*
Y394795D01*
Y394878D01*
Y394906D01*
Y394962D01*
Y395073D01*
Y395184D01*
X342971Y395517D01*
X342915Y395934D01*
X342804Y396378D01*
X342638Y396822D01*
X342415Y397239D01*
X342110Y397572D01*
X342055Y397627D01*
X341999Y397683D01*
X341888Y397739D01*
X341749Y397822D01*
X341610Y397905D01*
X341221Y398127D01*
X340722Y398322D01*
X340111Y398488D01*
X339389Y398599D01*
X338556Y398655D01*
X338194D01*
X338000Y398627D01*
X337806D01*
X337306Y398572D01*
X336778Y398461D01*
X336251Y398322D01*
X335723Y398127D01*
X335279Y397877D01*
X335223Y397850D01*
X335112Y397739D01*
X334918Y397516D01*
X334695Y397239D01*
X334446Y396878D01*
X334168Y396378D01*
X333946Y395822D01*
X333835Y395489D01*
X333723Y395128D01*
X330641Y395545D01*
Y395572D01*
X330669Y395628D01*
X330697Y395739D01*
X330724Y395878D01*
X330780Y396045D01*
X330835Y396239D01*
X330974Y396683D01*
X331169Y397183D01*
X331391Y397711D01*
X331668Y398238D01*
X332002Y398710D01*
Y398738D01*
X332057Y398766D01*
X332196Y398905D01*
X332418Y399127D01*
X332724Y399405D01*
X333113Y399710D01*
X333585Y400016D01*
X334140Y400321D01*
X334779Y400599D01*
X334806D01*
X334862Y400627D01*
X334973Y400654D01*
X335112Y400710D01*
X335279Y400766D01*
X335473Y400821D01*
X335723Y400877D01*
X336001Y400932D01*
X336278Y400988D01*
X336612Y401043D01*
X337334Y401154D01*
X338139Y401238D01*
X339000Y401265D01*
X339389D01*
X339583Y401238D01*
D02*
G37*
G36*
X289319Y404876D02*
X275434D01*
Y396933D01*
X287459D01*
Y393906D01*
X275434D01*
Y382271D01*
X272046D01*
Y407902D01*
X289319D01*
Y404876D01*
D02*
G37*
G36*
X444248Y400849D02*
X447442D01*
Y398405D01*
X444248D01*
Y387519D01*
Y387491D01*
Y387464D01*
Y387297D01*
Y387075D01*
X444276Y386797D01*
Y386520D01*
X444331Y386242D01*
X444359Y385992D01*
X444415Y385798D01*
Y385770D01*
X444443Y385742D01*
X444554Y385575D01*
X444720Y385381D01*
X444942Y385187D01*
X444970D01*
X445026Y385159D01*
X445109Y385131D01*
X445220Y385075D01*
X445387Y385048D01*
X445553Y384992D01*
X445776Y384964D01*
X446247D01*
X446414Y384992D01*
X446609D01*
X446859Y385020D01*
X447136Y385048D01*
X447442Y385075D01*
X447858Y382298D01*
X447803D01*
X447636Y382243D01*
X447386Y382215D01*
X447053Y382160D01*
X446692Y382104D01*
X446303Y382076D01*
X445470Y382021D01*
X445192D01*
X444887Y382049D01*
X444498Y382076D01*
X444054Y382160D01*
X443609Y382243D01*
X443193Y382382D01*
X442804Y382548D01*
X442776Y382576D01*
X442665Y382660D01*
X442499Y382771D01*
X442276Y382937D01*
X442054Y383132D01*
X441832Y383382D01*
X441638Y383659D01*
X441471Y383965D01*
X441443Y384020D01*
X441416Y384159D01*
X441388Y384270D01*
X441360Y384409D01*
X441332Y384576D01*
X441304Y384770D01*
X441249Y384992D01*
X441221Y385270D01*
X441193Y385575D01*
X441166Y385909D01*
X441138Y386297D01*
Y386714D01*
X441110Y387186D01*
Y387686D01*
Y398405D01*
X438777D01*
Y400849D01*
X441110D01*
Y405431D01*
X444248Y407319D01*
Y400849D01*
D02*
G37*
G36*
X488375Y407958D02*
X488569Y407930D01*
X489069Y407875D01*
X489624Y407791D01*
X490235Y407625D01*
X490846Y407430D01*
X491457Y407153D01*
X491485D01*
X491540Y407125D01*
X491624Y407069D01*
X491735Y406986D01*
X492013Y406819D01*
X492374Y406542D01*
X492790Y406208D01*
X493207Y405792D01*
X493651Y405292D01*
X494040Y404737D01*
Y404709D01*
X494095Y404653D01*
X494123Y404570D01*
X494206Y404459D01*
X494290Y404320D01*
X494401Y404126D01*
X494484Y403903D01*
X494623Y403681D01*
X494873Y403126D01*
X495123Y402487D01*
X495400Y401737D01*
X495623Y400932D01*
Y400904D01*
X495650Y400821D01*
X495678Y400710D01*
X495706Y400516D01*
X495761Y400293D01*
X495817Y400016D01*
X495872Y399710D01*
X495928Y399349D01*
X495956Y398933D01*
X496011Y398488D01*
X496067Y397989D01*
X496123Y397461D01*
X496150Y396878D01*
X496178Y396267D01*
X496206Y395600D01*
Y394906D01*
Y394850D01*
Y394712D01*
Y394462D01*
Y394156D01*
X496178Y393767D01*
X496150Y393351D01*
X496123Y392851D01*
X496095Y392323D01*
X496039Y391740D01*
X495984Y391157D01*
X495817Y389935D01*
X495567Y388741D01*
X495428Y388158D01*
X495262Y387630D01*
Y387602D01*
X495206Y387519D01*
X495178Y387353D01*
X495095Y387186D01*
X494984Y386936D01*
X494873Y386686D01*
X494734Y386381D01*
X494567Y386047D01*
X494179Y385353D01*
X493707Y384659D01*
X493151Y383965D01*
X492818Y383659D01*
X492485Y383354D01*
X492457Y383326D01*
X492401Y383298D01*
X492290Y383215D01*
X492151Y383132D01*
X491985Y383020D01*
X491763Y382882D01*
X491513Y382743D01*
X491207Y382604D01*
X490902Y382465D01*
X490541Y382326D01*
X490180Y382215D01*
X489763Y382076D01*
X489319Y381993D01*
X488847Y381910D01*
X488375Y381882D01*
X487847Y381854D01*
X487680D01*
X487486Y381882D01*
X487236Y381910D01*
X486931Y381937D01*
X486570Y381993D01*
X486181Y382076D01*
X485737Y382187D01*
X485292Y382326D01*
X484820Y382493D01*
X484320Y382715D01*
X483848Y382965D01*
X483376Y383270D01*
X482904Y383631D01*
X482460Y384020D01*
X482043Y384492D01*
X482015Y384520D01*
X481932Y384631D01*
X481821Y384825D01*
X481654Y385103D01*
X481460Y385464D01*
X481238Y385881D01*
X481016Y386408D01*
X480793Y386992D01*
X480544Y387686D01*
X480321Y388436D01*
X480099Y389297D01*
X479905Y390241D01*
X479738Y391268D01*
X479627Y392379D01*
X479544Y393601D01*
X479516Y394906D01*
Y394962D01*
Y395100D01*
Y395350D01*
X479544Y395656D01*
Y396045D01*
X479571Y396489D01*
X479599Y396989D01*
X479627Y397516D01*
X479683Y398100D01*
X479738Y398683D01*
X479905Y399905D01*
X480127Y401099D01*
X480266Y401682D01*
X480432Y402210D01*
Y402237D01*
X480488Y402321D01*
X480544Y402487D01*
X480599Y402682D01*
X480710Y402904D01*
X480821Y403182D01*
X480960Y403459D01*
X481127Y403792D01*
X481515Y404487D01*
X482015Y405181D01*
X482571Y405875D01*
X482876Y406181D01*
X483209Y406486D01*
X483237Y406514D01*
X483293Y406542D01*
X483404Y406625D01*
X483543Y406708D01*
X483709Y406847D01*
X483931Y406958D01*
X484181Y407097D01*
X484487Y407236D01*
X484792Y407375D01*
X485153Y407514D01*
X485542Y407653D01*
X485931Y407763D01*
X486375Y407847D01*
X486847Y407930D01*
X487347Y407958D01*
X487847Y407986D01*
X488180D01*
X488375Y407958D01*
D02*
G37*
G36*
X400705Y401238D02*
X400982D01*
X401316Y401182D01*
X401677Y401126D01*
X402093Y401043D01*
X402565Y400960D01*
X403037Y400821D01*
X403565Y400654D01*
X404065Y400432D01*
X404593Y400210D01*
X405120Y399905D01*
X405620Y399571D01*
X406120Y399183D01*
X406592Y398738D01*
X406620Y398710D01*
X406703Y398627D01*
X406814Y398488D01*
X406981Y398266D01*
X407147Y398016D01*
X407370Y397711D01*
X407592Y397350D01*
X407814Y396933D01*
X408036Y396461D01*
X408258Y395934D01*
X408480Y395378D01*
X408647Y394767D01*
X408814Y394101D01*
X408925Y393379D01*
X409008Y392601D01*
X409036Y391796D01*
Y391768D01*
Y391629D01*
Y391463D01*
X409008Y391213D01*
Y390907D01*
X408980Y390546D01*
X408952Y390157D01*
X408897Y389741D01*
X408786Y388852D01*
X408591Y387908D01*
X408314Y386992D01*
X408147Y386575D01*
X407953Y386158D01*
Y386131D01*
X407897Y386075D01*
X407842Y385964D01*
X407758Y385825D01*
X407647Y385659D01*
X407508Y385437D01*
X407147Y384992D01*
X406703Y384465D01*
X406175Y383937D01*
X405537Y383437D01*
X404815Y382965D01*
X404787D01*
X404731Y382909D01*
X404620Y382854D01*
X404454Y382798D01*
X404259Y382715D01*
X404037Y382604D01*
X403787Y382521D01*
X403482Y382410D01*
X403176Y382298D01*
X402815Y382215D01*
X402066Y382021D01*
X401232Y381910D01*
X400344Y381854D01*
X400177D01*
X399983Y381882D01*
X399705D01*
X399372Y381937D01*
X398983Y381993D01*
X398566Y382076D01*
X398094Y382160D01*
X397594Y382298D01*
X397095Y382465D01*
X396567Y382660D01*
X396039Y382909D01*
X395512Y383187D01*
X395012Y383520D01*
X394512Y383909D01*
X394040Y384353D01*
X394012Y384381D01*
X393929Y384465D01*
X393818Y384603D01*
X393679Y384825D01*
X393484Y385075D01*
X393290Y385381D01*
X393068Y385770D01*
X392846Y386186D01*
X392624Y386686D01*
X392402Y387214D01*
X392207Y387797D01*
X392013Y388436D01*
X391874Y389130D01*
X391763Y389880D01*
X391680Y390685D01*
X391652Y391546D01*
Y391574D01*
Y391601D01*
Y391768D01*
X391680Y392046D01*
X391707Y392379D01*
X391735Y392823D01*
X391791Y393323D01*
X391902Y393851D01*
X392013Y394434D01*
X392152Y395045D01*
X392346Y395684D01*
X392596Y396322D01*
X392846Y396961D01*
X393179Y397572D01*
X393568Y398155D01*
X394012Y398683D01*
X394512Y399183D01*
X394540Y399210D01*
X394623Y399266D01*
X394762Y399377D01*
X394929Y399516D01*
X395179Y399655D01*
X395456Y399849D01*
X395762Y400043D01*
X396150Y400238D01*
X396539Y400432D01*
X396984Y400599D01*
X397456Y400793D01*
X397983Y400932D01*
X398539Y401071D01*
X399094Y401182D01*
X399705Y401238D01*
X400344Y401265D01*
X400510D01*
X400705Y401238D01*
D02*
G37*
G36*
X301205D02*
X301483D01*
X301816Y401182D01*
X302177Y401126D01*
X302593Y401043D01*
X303065Y400960D01*
X303538Y400821D01*
X304065Y400654D01*
X304565Y400432D01*
X305093Y400210D01*
X305620Y399905D01*
X306120Y399571D01*
X306620Y399183D01*
X307092Y398738D01*
X307120Y398710D01*
X307203Y398627D01*
X307314Y398488D01*
X307481Y398266D01*
X307647Y398016D01*
X307870Y397711D01*
X308092Y397350D01*
X308314Y396933D01*
X308536Y396461D01*
X308758Y395934D01*
X308980Y395378D01*
X309147Y394767D01*
X309314Y394101D01*
X309425Y393379D01*
X309508Y392601D01*
X309536Y391796D01*
Y391768D01*
Y391629D01*
Y391463D01*
X309508Y391213D01*
Y390907D01*
X309480Y390546D01*
X309453Y390157D01*
X309397Y389741D01*
X309286Y388852D01*
X309091Y387908D01*
X308814Y386992D01*
X308647Y386575D01*
X308453Y386158D01*
Y386131D01*
X308397Y386075D01*
X308342Y385964D01*
X308258Y385825D01*
X308147Y385659D01*
X308009Y385437D01*
X307647Y384992D01*
X307203Y384465D01*
X306676Y383937D01*
X306037Y383437D01*
X305315Y382965D01*
X305287D01*
X305231Y382909D01*
X305120Y382854D01*
X304954Y382798D01*
X304759Y382715D01*
X304537Y382604D01*
X304287Y382521D01*
X303982Y382410D01*
X303676Y382298D01*
X303315Y382215D01*
X302566Y382021D01*
X301732Y381910D01*
X300844Y381854D01*
X300677D01*
X300483Y381882D01*
X300205D01*
X299872Y381937D01*
X299483Y381993D01*
X299066Y382076D01*
X298594Y382160D01*
X298095Y382298D01*
X297595Y382465D01*
X297067Y382660D01*
X296539Y382909D01*
X296012Y383187D01*
X295512Y383520D01*
X295012Y383909D01*
X294540Y384353D01*
X294512Y384381D01*
X294429Y384465D01*
X294318Y384603D01*
X294179Y384825D01*
X293985Y385075D01*
X293790Y385381D01*
X293568Y385770D01*
X293346Y386186D01*
X293124Y386686D01*
X292902Y387214D01*
X292707Y387797D01*
X292513Y388436D01*
X292374Y389130D01*
X292263Y389880D01*
X292180Y390685D01*
X292152Y391546D01*
Y391574D01*
Y391601D01*
Y391768D01*
X292180Y392046D01*
X292207Y392379D01*
X292235Y392823D01*
X292291Y393323D01*
X292402Y393851D01*
X292513Y394434D01*
X292652Y395045D01*
X292846Y395684D01*
X293096Y396322D01*
X293346Y396961D01*
X293679Y397572D01*
X294068Y398155D01*
X294512Y398683D01*
X295012Y399183D01*
X295040Y399210D01*
X295123Y399266D01*
X295262Y399377D01*
X295429Y399516D01*
X295679Y399655D01*
X295956Y399849D01*
X296262Y400043D01*
X296651Y400238D01*
X297039Y400432D01*
X297484Y400599D01*
X297956Y400793D01*
X298483Y400932D01*
X299039Y401071D01*
X299594Y401182D01*
X300205Y401238D01*
X300844Y401265D01*
X301010D01*
X301205Y401238D01*
D02*
G37*
G36*
X521560Y376700D02*
X521838Y376672D01*
X522143Y376644D01*
X522504Y376617D01*
X523281Y376506D01*
X524142Y376339D01*
X525003Y376117D01*
X525864Y375811D01*
X525892D01*
X525975Y375784D01*
X526086Y375728D01*
X526225Y375645D01*
X526419Y375561D01*
X526642Y375450D01*
X527142Y375173D01*
X527725Y374812D01*
X528308Y374395D01*
X528863Y373895D01*
X529391Y373312D01*
X529419Y373284D01*
X529447Y373229D01*
X529502Y373146D01*
X529613Y373034D01*
X529696Y372868D01*
X529835Y372673D01*
X529974Y372451D01*
X530113Y372174D01*
X530280Y371896D01*
X530418Y371590D01*
X530585Y371229D01*
X530752Y370868D01*
X531057Y370035D01*
X531335Y369119D01*
X528252Y368286D01*
Y368314D01*
X528225Y368369D01*
X528197Y368480D01*
X528141Y368619D01*
X528086Y368758D01*
X528030Y368952D01*
X527864Y369396D01*
X527641Y369896D01*
X527391Y370396D01*
X527114Y370896D01*
X526808Y371340D01*
X526781Y371396D01*
X526642Y371535D01*
X526447Y371729D01*
X526197Y372007D01*
X525836Y372285D01*
X525420Y372590D01*
X524920Y372868D01*
X524365Y373146D01*
X524337D01*
X524281Y373173D01*
X524198Y373201D01*
X524087Y373257D01*
X523948Y373312D01*
X523754Y373368D01*
X523337Y373506D01*
X522809Y373618D01*
X522226Y373729D01*
X521560Y373812D01*
X520865Y373840D01*
X520477D01*
X520282Y373812D01*
X520032D01*
X519782Y373784D01*
X519477Y373756D01*
X518866Y373673D01*
X518172Y373534D01*
X517505Y373368D01*
X516839Y373118D01*
X516811D01*
X516756Y373090D01*
X516672Y373034D01*
X516561Y372979D01*
X516256Y372840D01*
X515867Y372618D01*
X515423Y372340D01*
X514978Y372007D01*
X514506Y371646D01*
X514090Y371229D01*
X514034Y371174D01*
X513923Y371035D01*
X513729Y370785D01*
X513507Y370480D01*
X513257Y370118D01*
X512979Y369674D01*
X512729Y369202D01*
X512507Y368702D01*
Y368674D01*
X512479Y368591D01*
X512423Y368480D01*
X512368Y368286D01*
X512285Y368064D01*
X512201Y367814D01*
X512118Y367508D01*
X512035Y367175D01*
X511924Y366814D01*
X511840Y366397D01*
X511701Y365536D01*
X511590Y364564D01*
X511535Y363537D01*
Y363509D01*
Y363398D01*
Y363204D01*
X511563Y362982D01*
Y362676D01*
X511590Y362343D01*
X511646Y361954D01*
X511674Y361538D01*
X511812Y360621D01*
X512035Y359677D01*
X512312Y358705D01*
X512701Y357789D01*
X512729Y357761D01*
X512757Y357678D01*
X512812Y357566D01*
X512923Y357400D01*
X513034Y357233D01*
X513201Y357011D01*
X513562Y356511D01*
X514062Y355956D01*
X514645Y355373D01*
X515311Y354845D01*
X515700Y354595D01*
X516117Y354373D01*
X516145D01*
X516228Y354317D01*
X516339Y354262D01*
X516506Y354206D01*
X516728Y354123D01*
X516978Y354012D01*
X517255Y353929D01*
X517561Y353818D01*
X517894Y353707D01*
X518283Y353623D01*
X519088Y353429D01*
X519977Y353318D01*
X520921Y353262D01*
X521143D01*
X521310Y353290D01*
X521504D01*
X521726Y353318D01*
X521976Y353345D01*
X522282Y353373D01*
X522921Y353456D01*
X523642Y353623D01*
X524420Y353818D01*
X525198Y354095D01*
X525225D01*
X525281Y354123D01*
X525392Y354179D01*
X525559Y354234D01*
X525725Y354317D01*
X525920Y354429D01*
X526392Y354651D01*
X526919Y354928D01*
X527447Y355234D01*
X527947Y355539D01*
X528391Y355900D01*
Y360704D01*
X520865D01*
Y363731D01*
X531724D01*
Y354206D01*
X531696Y354179D01*
X531612Y354123D01*
X531474Y354012D01*
X531279Y353873D01*
X531057Y353707D01*
X530779Y353540D01*
X530474Y353318D01*
X530141Y353096D01*
X529780Y352873D01*
X529363Y352623D01*
X528502Y352124D01*
X527558Y351652D01*
X526558Y351235D01*
X526531D01*
X526447Y351179D01*
X526308Y351152D01*
X526086Y351068D01*
X525864Y351013D01*
X525559Y350929D01*
X525253Y350818D01*
X524892Y350735D01*
X524476Y350652D01*
X524059Y350541D01*
X523143Y350402D01*
X522143Y350291D01*
X521115Y350235D01*
X520754D01*
X520477Y350263D01*
X520144Y350291D01*
X519755Y350319D01*
X519310Y350374D01*
X518838Y350430D01*
X518338Y350513D01*
X517783Y350624D01*
X517228Y350763D01*
X516617Y350929D01*
X516034Y351096D01*
X515450Y351318D01*
X514839Y351568D01*
X514256Y351846D01*
X514228Y351874D01*
X514117Y351929D01*
X513951Y352012D01*
X513756Y352151D01*
X513507Y352318D01*
X513201Y352512D01*
X512868Y352762D01*
X512507Y353040D01*
X512146Y353345D01*
X511757Y353707D01*
X511368Y354067D01*
X510979Y354484D01*
X510618Y354956D01*
X510257Y355428D01*
X509896Y355956D01*
X509591Y356511D01*
X509563Y356539D01*
X509535Y356650D01*
X509452Y356817D01*
X509341Y357039D01*
X509230Y357344D01*
X509091Y357678D01*
X508952Y358066D01*
X508813Y358511D01*
X508674Y358983D01*
X508536Y359510D01*
X508397Y360094D01*
X508286Y360677D01*
X508175Y361315D01*
X508091Y361954D01*
X508064Y362648D01*
X508036Y363343D01*
Y363398D01*
Y363509D01*
Y363704D01*
X508064Y363981D01*
X508091Y364315D01*
X508119Y364703D01*
X508175Y365148D01*
X508230Y365620D01*
X508314Y366147D01*
X508425Y366703D01*
X508702Y367869D01*
X508869Y368480D01*
X509091Y369091D01*
X509313Y369702D01*
X509591Y370313D01*
X509619Y370341D01*
X509674Y370452D01*
X509758Y370618D01*
X509869Y370841D01*
X510035Y371118D01*
X510230Y371424D01*
X510480Y371757D01*
X510730Y372146D01*
X511035Y372534D01*
X511368Y372923D01*
X511729Y373312D01*
X512146Y373729D01*
X512562Y374117D01*
X513034Y374478D01*
X513534Y374839D01*
X514062Y375145D01*
X514090Y375173D01*
X514201Y375201D01*
X514367Y375284D01*
X514590Y375395D01*
X514867Y375506D01*
X515201Y375645D01*
X515589Y375784D01*
X516006Y375950D01*
X516478Y376089D01*
X517005Y376228D01*
X517561Y376367D01*
X518172Y376478D01*
X518783Y376589D01*
X519449Y376672D01*
X520144Y376700D01*
X520838Y376728D01*
X521310D01*
X521560Y376700D01*
D02*
G37*
G36*
X372352Y369619D02*
X372518D01*
X372935Y369563D01*
X373407Y369508D01*
X373935Y369396D01*
X374462Y369230D01*
X374990Y369036D01*
X375017D01*
X375045Y369008D01*
X375212Y368924D01*
X375462Y368786D01*
X375795Y368619D01*
X376128Y368369D01*
X376489Y368119D01*
X376822Y367814D01*
X377100Y367453D01*
X377128Y367397D01*
X377211Y367286D01*
X377322Y367064D01*
X377489Y366786D01*
X377656Y366453D01*
X377795Y366064D01*
X377961Y365620D01*
X378072Y365120D01*
Y365092D01*
X378100Y364953D01*
X378128Y364731D01*
X378183Y364426D01*
X378211Y364009D01*
Y363759D01*
X378239Y363481D01*
Y363176D01*
X378267Y362815D01*
Y362454D01*
Y362065D01*
Y350652D01*
X375129D01*
Y361954D01*
Y361982D01*
Y362037D01*
Y362148D01*
Y362260D01*
Y362426D01*
X375101Y362621D01*
X375073Y363037D01*
X375045Y363509D01*
X374962Y363981D01*
X374879Y364426D01*
X374740Y364814D01*
X374712Y364870D01*
X374657Y364981D01*
X374573Y365148D01*
X374434Y365370D01*
X374268Y365620D01*
X374045Y365870D01*
X373768Y366120D01*
X373435Y366342D01*
X373407Y366370D01*
X373268Y366425D01*
X373074Y366536D01*
X372824Y366647D01*
X372490Y366731D01*
X372129Y366842D01*
X371713Y366897D01*
X371241Y366925D01*
X371046D01*
X370907Y366897D01*
X370741D01*
X370519Y366869D01*
X370047Y366758D01*
X369519Y366619D01*
X368936Y366397D01*
X368353Y366064D01*
X368047Y365870D01*
X367770Y365648D01*
X367742Y365620D01*
X367714Y365592D01*
X367631Y365509D01*
X367547Y365398D01*
X367436Y365231D01*
X367325Y365064D01*
X367186Y364842D01*
X367048Y364564D01*
X366909Y364259D01*
X366770Y363898D01*
X366659Y363509D01*
X366548Y363065D01*
X366464Y362565D01*
X366381Y362037D01*
X366353Y361426D01*
X366325Y360788D01*
Y350652D01*
X363188D01*
Y369230D01*
X366020D01*
Y366564D01*
X366048Y366592D01*
X366103Y366703D01*
X366242Y366842D01*
X366409Y367036D01*
X366603Y367286D01*
X366853Y367536D01*
X367159Y367814D01*
X367520Y368119D01*
X367908Y368397D01*
X368353Y368674D01*
X368825Y368924D01*
X369352Y369174D01*
X369936Y369369D01*
X370547Y369508D01*
X371213Y369619D01*
X371907Y369647D01*
X372185D01*
X372352Y369619D01*
D02*
G37*
G36*
X278711D02*
X278850D01*
X279017Y369591D01*
X279433Y369508D01*
X279933Y369396D01*
X280461Y369202D01*
X281072Y368952D01*
X281682Y368619D01*
X280572Y365703D01*
X280516Y365731D01*
X280377Y365814D01*
X280155Y365925D01*
X279850Y366064D01*
X279517Y366175D01*
X279128Y366286D01*
X278711Y366370D01*
X278267Y366397D01*
X278100D01*
X277906Y366370D01*
X277656Y366314D01*
X277350Y366231D01*
X277045Y366120D01*
X276740Y365981D01*
X276406Y365759D01*
X276378Y365731D01*
X276267Y365648D01*
X276129Y365509D01*
X275962Y365314D01*
X275767Y365064D01*
X275573Y364787D01*
X275407Y364426D01*
X275240Y364037D01*
Y364009D01*
X275212Y363954D01*
X275184Y363870D01*
X275157Y363759D01*
X275129Y363593D01*
X275073Y363398D01*
X274990Y362954D01*
X274907Y362399D01*
X274823Y361788D01*
X274768Y361093D01*
X274740Y360371D01*
Y350652D01*
X271602D01*
Y369230D01*
X274434D01*
Y366425D01*
X274490Y366481D01*
X274546Y366592D01*
X274629Y366703D01*
X274823Y367064D01*
X275101Y367453D01*
X275407Y367897D01*
X275740Y368341D01*
X276073Y368702D01*
X276267Y368869D01*
X276434Y369008D01*
X276489Y369036D01*
X276601Y369119D01*
X276795Y369202D01*
X277017Y369341D01*
X277323Y369452D01*
X277656Y369535D01*
X278045Y369619D01*
X278433Y369647D01*
X278600D01*
X278711Y369619D01*
D02*
G37*
G36*
X556939Y350652D02*
X553551D01*
Y362732D01*
X540249D01*
Y350652D01*
X536861D01*
Y376284D01*
X540249D01*
Y365759D01*
X553551D01*
Y376284D01*
X556939D01*
Y350652D01*
D02*
G37*
G36*
X391096Y369619D02*
X391346Y369591D01*
X391652Y369563D01*
X391985Y369508D01*
X392346Y369452D01*
X393124Y369258D01*
X393957Y368980D01*
X394373Y368813D01*
X394790Y368619D01*
X395179Y368369D01*
X395539Y368091D01*
X395567Y368064D01*
X395623Y368008D01*
X395734Y367925D01*
X395845Y367814D01*
X396012Y367647D01*
X396178Y367453D01*
X396373Y367231D01*
X396567Y366981D01*
X396789Y366675D01*
X396984Y366370D01*
X397206Y366009D01*
X397400Y365620D01*
X397567Y365203D01*
X397733Y364759D01*
X397900Y364259D01*
X398011Y363759D01*
X394956Y363287D01*
Y363315D01*
X394929Y363370D01*
X394901Y363454D01*
X394873Y363593D01*
X394762Y363926D01*
X394595Y364342D01*
X394373Y364787D01*
X394123Y365259D01*
X393790Y365703D01*
X393401Y366092D01*
X393346Y366147D01*
X393207Y366259D01*
X392957Y366397D01*
X392651Y366592D01*
X392263Y366758D01*
X391818Y366925D01*
X391291Y367036D01*
X390735Y367064D01*
X390513D01*
X390347Y367036D01*
X390124Y367008D01*
X389902Y366981D01*
X389347Y366842D01*
X388736Y366647D01*
X388430Y366508D01*
X388097Y366342D01*
X387792Y366147D01*
X387458Y365897D01*
X387153Y365648D01*
X386875Y365342D01*
X386847Y365314D01*
X386820Y365259D01*
X386736Y365176D01*
X386653Y365009D01*
X386542Y364842D01*
X386403Y364620D01*
X386264Y364342D01*
X386153Y364037D01*
X386014Y363676D01*
X385876Y363287D01*
X385737Y362843D01*
X385626Y362343D01*
X385542Y361815D01*
X385459Y361260D01*
X385431Y360621D01*
X385403Y359955D01*
Y359927D01*
Y359788D01*
Y359594D01*
X385431Y359344D01*
X385459Y359038D01*
X385487Y358677D01*
X385515Y358289D01*
X385570Y357872D01*
X385737Y356983D01*
X386014Y356067D01*
X386153Y355650D01*
X386348Y355234D01*
X386570Y354845D01*
X386820Y354512D01*
X386847Y354484D01*
X386875Y354429D01*
X386959Y354345D01*
X387070Y354262D01*
X387236Y354123D01*
X387403Y353984D01*
X387597Y353818D01*
X387820Y353679D01*
X388375Y353345D01*
X389014Y353096D01*
X389375Y352984D01*
X389736Y352901D01*
X390152Y352846D01*
X390569Y352818D01*
X390735D01*
X390874Y352846D01*
X391041D01*
X391207Y352873D01*
X391652Y352957D01*
X392124Y353096D01*
X392651Y353290D01*
X393151Y353568D01*
X393651Y353929D01*
X393679Y353956D01*
X393707Y353984D01*
X393846Y354151D01*
X394068Y354429D01*
X394179Y354595D01*
X394318Y354789D01*
X394457Y355039D01*
X394595Y355289D01*
X394706Y355567D01*
X394845Y355900D01*
X394956Y356234D01*
X395067Y356622D01*
X395151Y357011D01*
X395234Y357455D01*
X398317Y357039D01*
Y357011D01*
X398289Y356900D01*
X398261Y356733D01*
X398205Y356511D01*
X398122Y356234D01*
X398039Y355928D01*
X397928Y355595D01*
X397789Y355206D01*
X397456Y354429D01*
X397234Y354012D01*
X396984Y353595D01*
X396734Y353179D01*
X396428Y352762D01*
X396067Y352401D01*
X395706Y352040D01*
X395678Y352012D01*
X395623Y351957D01*
X395484Y351874D01*
X395345Y351763D01*
X395123Y351624D01*
X394901Y351457D01*
X394595Y351318D01*
X394290Y351152D01*
X393929Y350957D01*
X393540Y350818D01*
X393124Y350652D01*
X392679Y350513D01*
X392179Y350402D01*
X391680Y350319D01*
X391152Y350263D01*
X390597Y350235D01*
X390430D01*
X390235Y350263D01*
X389958D01*
X389652Y350319D01*
X389264Y350374D01*
X388847Y350430D01*
X388403Y350541D01*
X387930Y350679D01*
X387431Y350846D01*
X386931Y351041D01*
X386403Y351290D01*
X385903Y351568D01*
X385403Y351901D01*
X384931Y352262D01*
X384487Y352707D01*
X384459Y352734D01*
X384376Y352818D01*
X384265Y352957D01*
X384126Y353179D01*
X383959Y353429D01*
X383765Y353734D01*
X383543Y354123D01*
X383348Y354540D01*
X383126Y355012D01*
X382904Y355539D01*
X382710Y356122D01*
X382543Y356761D01*
X382404Y357455D01*
X382293Y358205D01*
X382210Y359011D01*
X382182Y359844D01*
Y359871D01*
Y359982D01*
Y360149D01*
X382210Y360344D01*
Y360621D01*
X382238Y360927D01*
X382265Y361260D01*
X382293Y361649D01*
X382432Y362454D01*
X382599Y363343D01*
X382821Y364259D01*
X383154Y365120D01*
Y365148D01*
X383210Y365231D01*
X383265Y365342D01*
X383348Y365481D01*
X383460Y365675D01*
X383571Y365897D01*
X383904Y366397D01*
X384320Y366925D01*
X384848Y367508D01*
X385459Y368036D01*
X386181Y368508D01*
X386209D01*
X386264Y368563D01*
X386375Y368619D01*
X386542Y368674D01*
X386736Y368786D01*
X386959Y368869D01*
X387209Y368980D01*
X387486Y369091D01*
X387820Y369174D01*
X388153Y369285D01*
X388902Y369480D01*
X389736Y369591D01*
X390597Y369647D01*
X390902D01*
X391096Y369619D01*
D02*
G37*
G36*
X409175Y350346D02*
Y350319D01*
X409119Y350207D01*
X409063Y350069D01*
X408980Y349846D01*
X408897Y349597D01*
X408786Y349319D01*
X408647Y349013D01*
X408536Y348680D01*
X408230Y347986D01*
X407953Y347292D01*
X407786Y346958D01*
X407647Y346653D01*
X407536Y346375D01*
X407397Y346153D01*
Y346125D01*
X407370Y346097D01*
X407314Y346014D01*
X407259Y345903D01*
X407064Y345625D01*
X406842Y345292D01*
X406564Y344903D01*
X406231Y344542D01*
X405870Y344181D01*
X405481Y343876D01*
X405426Y343848D01*
X405287Y343765D01*
X405065Y343626D01*
X404759Y343515D01*
X404370Y343376D01*
X403926Y343237D01*
X403454Y343154D01*
X402899Y343126D01*
X402732D01*
X402538Y343154D01*
X402315Y343182D01*
X402010Y343209D01*
X401649Y343293D01*
X401288Y343376D01*
X400871Y343515D01*
X400510Y346459D01*
X400566D01*
X400677Y346403D01*
X400871Y346375D01*
X401121Y346320D01*
X401399Y346264D01*
X401705Y346209D01*
X402010Y346181D01*
X402288Y346153D01*
X402454D01*
X402649Y346181D01*
X402899Y346209D01*
X403149Y346236D01*
X403426Y346320D01*
X403704Y346403D01*
X403954Y346514D01*
X403982Y346542D01*
X404065Y346570D01*
X404176Y346653D01*
X404315Y346764D01*
X404482Y346903D01*
X404676Y347069D01*
X405009Y347486D01*
X405037Y347514D01*
X405065Y347597D01*
X405148Y347736D01*
X405231Y347958D01*
X405370Y348264D01*
X405537Y348680D01*
X405620Y348930D01*
X405731Y349208D01*
X405842Y349513D01*
X405953Y349846D01*
X405981Y349902D01*
X406037Y350041D01*
X406120Y350291D01*
X406259Y350624D01*
X399233Y369230D01*
X402565D01*
X406425Y358455D01*
Y358427D01*
X406453Y358372D01*
X406509Y358261D01*
X406564Y358094D01*
X406620Y357900D01*
X406703Y357678D01*
X406786Y357428D01*
X406897Y357150D01*
X407092Y356511D01*
X407342Y355762D01*
X407564Y354984D01*
X407786Y354151D01*
Y354179D01*
X407814Y354262D01*
X407842Y354373D01*
X407897Y354512D01*
X407925Y354706D01*
X408008Y354956D01*
X408064Y355206D01*
X408147Y355484D01*
X408342Y356122D01*
X408564Y356844D01*
X408814Y357594D01*
X409091Y358372D01*
X413090Y369230D01*
X416228D01*
X409175Y350346D01*
D02*
G37*
G36*
X338333Y350652D02*
X335528D01*
Y353373D01*
X335501Y353345D01*
X335418Y353234D01*
X335306Y353096D01*
X335140Y352873D01*
X334918Y352651D01*
X334640Y352374D01*
X334334Y352096D01*
X333973Y351818D01*
X333557Y351513D01*
X333113Y351235D01*
X332641Y350957D01*
X332113Y350735D01*
X331530Y350513D01*
X330946Y350374D01*
X330308Y350263D01*
X329613Y350235D01*
X329336D01*
X329030Y350263D01*
X328614Y350319D01*
X328142Y350374D01*
X327614Y350485D01*
X327086Y350652D01*
X326531Y350846D01*
X326503D01*
X326476Y350874D01*
X326309Y350957D01*
X326059Y351096D01*
X325726Y351290D01*
X325393Y351513D01*
X325031Y351790D01*
X324698Y352096D01*
X324421Y352429D01*
X324393Y352485D01*
X324309Y352596D01*
X324198Y352818D01*
X324060Y353096D01*
X323893Y353429D01*
X323726Y353818D01*
X323587Y354262D01*
X323449Y354762D01*
Y354817D01*
X323421Y354928D01*
X323393Y355178D01*
X323365Y355484D01*
X323338Y355900D01*
X323310Y356400D01*
X323282Y357011D01*
Y357705D01*
Y369230D01*
X326420D01*
Y358927D01*
Y358899D01*
Y358816D01*
Y358705D01*
Y358539D01*
Y358316D01*
Y358094D01*
X326448Y357594D01*
Y357039D01*
X326503Y356484D01*
X326531Y355984D01*
X326559Y355762D01*
X326587Y355595D01*
X326614Y355539D01*
X326642Y355400D01*
X326726Y355151D01*
X326864Y354873D01*
X327031Y354567D01*
X327253Y354262D01*
X327531Y353929D01*
X327864Y353651D01*
X327920Y353623D01*
X328031Y353540D01*
X328253Y353429D01*
X328531Y353318D01*
X328864Y353179D01*
X329280Y353068D01*
X329752Y352984D01*
X330252Y352957D01*
X330502D01*
X330752Y352984D01*
X331113Y353040D01*
X331530Y353123D01*
X331974Y353262D01*
X332418Y353429D01*
X332890Y353679D01*
X332918D01*
X332946Y353707D01*
X333085Y353818D01*
X333307Y353984D01*
X333585Y354206D01*
X333862Y354484D01*
X334168Y354817D01*
X334446Y355206D01*
X334668Y355650D01*
Y355678D01*
X334695Y355706D01*
X334723Y355789D01*
X334751Y355873D01*
X334779Y356011D01*
X334834Y356178D01*
X334890Y356345D01*
X334945Y356567D01*
X335029Y357094D01*
X335112Y357705D01*
X335168Y358427D01*
X335195Y359261D01*
Y369230D01*
X338333D01*
Y350652D01*
D02*
G37*
G36*
X493540Y372951D02*
X483293D01*
X481932Y366064D01*
X481960Y366092D01*
X482043Y366147D01*
X482154Y366203D01*
X482321Y366314D01*
X482543Y366425D01*
X482793Y366564D01*
X483071Y366731D01*
X483404Y366869D01*
X483737Y367008D01*
X484126Y367175D01*
X484931Y367425D01*
X485375Y367536D01*
X485820Y367619D01*
X486292Y367647D01*
X486764Y367675D01*
X486903D01*
X487097Y367647D01*
X487319D01*
X487597Y367592D01*
X487930Y367564D01*
X488319Y367480D01*
X488708Y367397D01*
X489152Y367258D01*
X489597Y367119D01*
X490069Y366925D01*
X490541Y366703D01*
X491013Y366425D01*
X491485Y366120D01*
X491957Y365759D01*
X492401Y365342D01*
X492429Y365314D01*
X492512Y365231D01*
X492623Y365092D01*
X492762Y364926D01*
X492957Y364703D01*
X493151Y364398D01*
X493345Y364092D01*
X493568Y363731D01*
X493790Y363315D01*
X493984Y362843D01*
X494206Y362371D01*
X494373Y361815D01*
X494512Y361260D01*
X494623Y360649D01*
X494706Y360010D01*
X494734Y359344D01*
Y359316D01*
Y359177D01*
Y359011D01*
X494706Y358761D01*
X494678Y358455D01*
X494623Y358122D01*
X494567Y357733D01*
X494484Y357289D01*
X494373Y356844D01*
X494234Y356345D01*
X494067Y355845D01*
X493873Y355345D01*
X493651Y354845D01*
X493373Y354317D01*
X493068Y353818D01*
X492707Y353345D01*
X492679Y353318D01*
X492596Y353207D01*
X492457Y353068D01*
X492262Y352873D01*
X492013Y352623D01*
X491707Y352374D01*
X491346Y352068D01*
X490930Y351790D01*
X490485Y351513D01*
X489985Y351207D01*
X489430Y350957D01*
X488819Y350735D01*
X488180Y350513D01*
X487486Y350374D01*
X486764Y350263D01*
X485986Y350235D01*
X485653D01*
X485403Y350263D01*
X485098Y350291D01*
X484764Y350346D01*
X484376Y350402D01*
X483959Y350485D01*
X483515Y350569D01*
X483043Y350707D01*
X482571Y350874D01*
X482099Y351068D01*
X481627Y351290D01*
X481154Y351540D01*
X480710Y351846D01*
X480266Y352179D01*
X480238Y352207D01*
X480183Y352262D01*
X480071Y352374D01*
X479932Y352540D01*
X479738Y352734D01*
X479544Y352957D01*
X479349Y353234D01*
X479127Y353568D01*
X478905Y353901D01*
X478683Y354290D01*
X478488Y354734D01*
X478294Y355178D01*
X478100Y355678D01*
X477961Y356206D01*
X477850Y356789D01*
X477767Y357372D01*
X481071Y357622D01*
Y357594D01*
X481099Y357511D01*
X481127Y357400D01*
X481154Y357233D01*
X481182Y357039D01*
X481265Y356789D01*
X481404Y356261D01*
X481627Y355678D01*
X481932Y355067D01*
X482293Y354512D01*
X482515Y354262D01*
X482737Y354012D01*
X482765D01*
X482793Y353956D01*
X482876Y353901D01*
X482987Y353818D01*
X483265Y353623D01*
X483654Y353429D01*
X484126Y353207D01*
X484681Y353012D01*
X485292Y352873D01*
X485625Y352846D01*
X485986Y352818D01*
X486209D01*
X486375Y352846D01*
X486570Y352873D01*
X486792Y352901D01*
X487319Y353040D01*
X487930Y353234D01*
X488236Y353373D01*
X488569Y353540D01*
X488902Y353734D01*
X489208Y353956D01*
X489513Y354206D01*
X489819Y354512D01*
X489846Y354540D01*
X489874Y354595D01*
X489958Y354678D01*
X490069Y354817D01*
X490180Y355012D01*
X490318Y355206D01*
X490457Y355456D01*
X490624Y355734D01*
X490763Y356039D01*
X490902Y356372D01*
X491041Y356761D01*
X491152Y357150D01*
X491263Y357594D01*
X491346Y358066D01*
X491374Y358539D01*
X491402Y359066D01*
Y359094D01*
Y359177D01*
Y359316D01*
X491374Y359510D01*
X491346Y359733D01*
X491318Y360010D01*
X491263Y360288D01*
X491207Y360621D01*
X491041Y361288D01*
X490763Y362010D01*
X490596Y362343D01*
X490374Y362676D01*
X490152Y363009D01*
X489874Y363315D01*
X489846Y363343D01*
X489819Y363370D01*
X489708Y363454D01*
X489597Y363565D01*
X489458Y363676D01*
X489263Y363815D01*
X489069Y363954D01*
X488819Y364120D01*
X488541Y364259D01*
X488264Y364398D01*
X487569Y364648D01*
X487208Y364759D01*
X486792Y364842D01*
X486375Y364870D01*
X485931Y364898D01*
X485681D01*
X485375Y364870D01*
X485014Y364814D01*
X484570Y364731D01*
X484098Y364592D01*
X483626Y364426D01*
X483154Y364176D01*
X483098Y364148D01*
X482960Y364065D01*
X482737Y363898D01*
X482460Y363704D01*
X482182Y363426D01*
X481849Y363121D01*
X481543Y362759D01*
X481265Y362371D01*
X478322Y362787D01*
X480793Y375950D01*
X493540D01*
Y372951D01*
D02*
G37*
G36*
X576405Y367119D02*
X566325Y355345D01*
X564353Y353179D01*
X564437D01*
X564575Y353207D01*
X564714D01*
X564909Y353234D01*
X565131D01*
X565381Y353262D01*
X565659Y353290D01*
X566269Y353318D01*
X566936Y353345D01*
X567658Y353373D01*
X576961D01*
Y350652D01*
X560521D01*
Y353207D01*
X572296Y366758D01*
X572101D01*
X571962Y366731D01*
X571573D01*
X571102Y366703D01*
X570546Y366675D01*
X569963D01*
X569352Y366647D01*
X561215D01*
Y369230D01*
X576405D01*
Y367119D01*
D02*
G37*
G36*
X473157Y350652D02*
X469574D01*
Y354234D01*
X473157D01*
Y350652D01*
D02*
G37*
G36*
X439833D02*
X436695D01*
Y370674D01*
X436639Y370618D01*
X436500Y370480D01*
X436250Y370285D01*
X435889Y370007D01*
X435473Y369674D01*
X434945Y369313D01*
X434362Y368924D01*
X433696Y368508D01*
X433668D01*
X433612Y368452D01*
X433529Y368397D01*
X433390Y368341D01*
X433223Y368230D01*
X433029Y368147D01*
X432585Y367897D01*
X432085Y367647D01*
X431529Y367369D01*
X430946Y367119D01*
X430391Y366897D01*
Y369924D01*
X430419Y369952D01*
X430502Y369980D01*
X430641Y370063D01*
X430835Y370146D01*
X431057Y370257D01*
X431335Y370424D01*
X431640Y370591D01*
X431946Y370757D01*
X432668Y371202D01*
X433446Y371729D01*
X434251Y372285D01*
X435001Y372923D01*
X435029Y372951D01*
X435084Y373007D01*
X435195Y373090D01*
X435334Y373229D01*
X435473Y373395D01*
X435667Y373562D01*
X436084Y374034D01*
X436556Y374534D01*
X437028Y375117D01*
X437444Y375728D01*
X437806Y376367D01*
X439833D01*
Y350652D01*
D02*
G37*
G36*
X267631Y373257D02*
X253746D01*
Y365314D01*
X265770D01*
Y362287D01*
X253746D01*
Y350652D01*
X250358D01*
Y376284D01*
X267631D01*
Y373257D01*
D02*
G37*
G36*
X456772Y376339D02*
X456967Y376311D01*
X457467Y376256D01*
X458022Y376172D01*
X458633Y376006D01*
X459244Y375811D01*
X459855Y375534D01*
X459883D01*
X459938Y375506D01*
X460021Y375450D01*
X460133Y375367D01*
X460410Y375201D01*
X460771Y374923D01*
X461188Y374589D01*
X461604Y374173D01*
X462049Y373673D01*
X462437Y373118D01*
Y373090D01*
X462493Y373034D01*
X462521Y372951D01*
X462604Y372840D01*
X462687Y372701D01*
X462799Y372507D01*
X462882Y372285D01*
X463021Y372062D01*
X463271Y371507D01*
X463520Y370868D01*
X463798Y370118D01*
X464020Y369313D01*
Y369285D01*
X464048Y369202D01*
X464076Y369091D01*
X464104Y368897D01*
X464159Y368674D01*
X464215Y368397D01*
X464270Y368091D01*
X464326Y367730D01*
X464354Y367314D01*
X464409Y366869D01*
X464465Y366370D01*
X464520Y365842D01*
X464548Y365259D01*
X464576Y364648D01*
X464604Y363981D01*
Y363287D01*
Y363232D01*
Y363093D01*
Y362843D01*
Y362537D01*
X464576Y362148D01*
X464548Y361732D01*
X464520Y361232D01*
X464492Y360704D01*
X464437Y360121D01*
X464381Y359538D01*
X464215Y358316D01*
X463965Y357122D01*
X463826Y356539D01*
X463659Y356011D01*
Y355984D01*
X463604Y355900D01*
X463576Y355734D01*
X463493Y355567D01*
X463382Y355317D01*
X463271Y355067D01*
X463132Y354762D01*
X462965Y354429D01*
X462576Y353734D01*
X462104Y353040D01*
X461549Y352346D01*
X461216Y352040D01*
X460882Y351735D01*
X460855Y351707D01*
X460799Y351679D01*
X460688Y351596D01*
X460549Y351513D01*
X460383Y351402D01*
X460160Y351263D01*
X459910Y351124D01*
X459605Y350985D01*
X459299Y350846D01*
X458938Y350707D01*
X458577Y350596D01*
X458161Y350457D01*
X457717Y350374D01*
X457244Y350291D01*
X456772Y350263D01*
X456245Y350235D01*
X456078D01*
X455884Y350263D01*
X455634Y350291D01*
X455328Y350319D01*
X454967Y350374D01*
X454578Y350457D01*
X454134Y350569D01*
X453690Y350707D01*
X453218Y350874D01*
X452718Y351096D01*
X452246Y351346D01*
X451774Y351652D01*
X451302Y352012D01*
X450857Y352401D01*
X450441Y352873D01*
X450413Y352901D01*
X450330Y353012D01*
X450219Y353207D01*
X450052Y353484D01*
X449858Y353845D01*
X449636Y354262D01*
X449413Y354789D01*
X449191Y355373D01*
X448941Y356067D01*
X448719Y356817D01*
X448497Y357678D01*
X448303Y358622D01*
X448136Y359649D01*
X448025Y360760D01*
X447941Y361982D01*
X447914Y363287D01*
Y363343D01*
Y363481D01*
Y363731D01*
X447941Y364037D01*
Y364426D01*
X447969Y364870D01*
X447997Y365370D01*
X448025Y365897D01*
X448080Y366481D01*
X448136Y367064D01*
X448303Y368286D01*
X448525Y369480D01*
X448664Y370063D01*
X448830Y370591D01*
Y370618D01*
X448886Y370702D01*
X448941Y370868D01*
X448997Y371063D01*
X449108Y371285D01*
X449219Y371563D01*
X449358Y371840D01*
X449524Y372174D01*
X449913Y372868D01*
X450413Y373562D01*
X450968Y374256D01*
X451274Y374562D01*
X451607Y374867D01*
X451635Y374895D01*
X451690Y374923D01*
X451801Y375006D01*
X451940Y375089D01*
X452107Y375228D01*
X452329Y375339D01*
X452579Y375478D01*
X452885Y375617D01*
X453190Y375756D01*
X453551Y375895D01*
X453940Y376034D01*
X454329Y376145D01*
X454773Y376228D01*
X455245Y376311D01*
X455745Y376339D01*
X456245Y376367D01*
X456578D01*
X456772Y376339D01*
D02*
G37*
G36*
X351246Y369619D02*
X351496D01*
X351830Y369563D01*
X352190Y369508D01*
X352607Y369424D01*
X353051Y369341D01*
X353523Y369202D01*
X353996Y369036D01*
X354523Y368813D01*
X355023Y368563D01*
X355523Y368286D01*
X356023Y367925D01*
X356523Y367536D01*
X356967Y367092D01*
X356995Y367064D01*
X357078Y366981D01*
X357189Y366842D01*
X357328Y366619D01*
X357522Y366370D01*
X357717Y366064D01*
X357939Y365675D01*
X358161Y365259D01*
X358355Y364787D01*
X358578Y364259D01*
X358772Y363676D01*
X358966Y363037D01*
X359105Y362343D01*
X359216Y361593D01*
X359300Y360816D01*
X359327Y359982D01*
Y359927D01*
Y359788D01*
Y359510D01*
X359300Y359149D01*
X345442D01*
Y359122D01*
Y359011D01*
X345470Y358844D01*
X345498Y358649D01*
X345526Y358372D01*
X345581Y358094D01*
X345637Y357761D01*
X345720Y357400D01*
X345942Y356650D01*
X346248Y355845D01*
X346442Y355484D01*
X346637Y355095D01*
X346886Y354762D01*
X347164Y354429D01*
X347192Y354401D01*
X347248Y354373D01*
X347331Y354290D01*
X347442Y354179D01*
X347608Y354067D01*
X347775Y353929D01*
X347997Y353762D01*
X348247Y353623D01*
X348803Y353318D01*
X349469Y353068D01*
X349830Y352957D01*
X350219Y352901D01*
X350635Y352846D01*
X351052Y352818D01*
X351219D01*
X351330Y352846D01*
X351663Y352873D01*
X352080Y352929D01*
X352524Y353040D01*
X353024Y353207D01*
X353523Y353401D01*
X353996Y353707D01*
X354023D01*
X354051Y353762D01*
X354190Y353873D01*
X354412Y354095D01*
X354690Y354429D01*
X354995Y354817D01*
X355329Y355345D01*
X355662Y355956D01*
X355940Y356650D01*
X359216Y356234D01*
Y356206D01*
X359189Y356095D01*
X359133Y355956D01*
X359050Y355762D01*
X358966Y355511D01*
X358855Y355234D01*
X358717Y354928D01*
X358578Y354595D01*
X358189Y353901D01*
X357689Y353151D01*
X357383Y352790D01*
X357078Y352429D01*
X356745Y352096D01*
X356356Y351790D01*
X356328Y351763D01*
X356273Y351735D01*
X356134Y351652D01*
X355995Y351540D01*
X355773Y351429D01*
X355523Y351290D01*
X355245Y351152D01*
X354912Y351013D01*
X354551Y350874D01*
X354134Y350735D01*
X353718Y350596D01*
X353246Y350485D01*
X352746Y350374D01*
X352218Y350291D01*
X351635Y350263D01*
X351052Y350235D01*
X350885D01*
X350663Y350263D01*
X350385D01*
X350025Y350319D01*
X349636Y350374D01*
X349191Y350457D01*
X348719Y350541D01*
X348219Y350679D01*
X347692Y350846D01*
X347136Y351041D01*
X346609Y351290D01*
X346053Y351568D01*
X345553Y351901D01*
X345054Y352290D01*
X344582Y352734D01*
X344554Y352762D01*
X344471Y352846D01*
X344359Y352984D01*
X344221Y353207D01*
X344026Y353456D01*
X343832Y353762D01*
X343610Y354123D01*
X343415Y354540D01*
X343193Y355012D01*
X342971Y355539D01*
X342776Y356122D01*
X342582Y356761D01*
X342443Y357428D01*
X342332Y358150D01*
X342249Y358927D01*
X342221Y359760D01*
Y359816D01*
Y359955D01*
X342249Y360205D01*
Y360538D01*
X342304Y360927D01*
X342360Y361371D01*
X342415Y361899D01*
X342527Y362426D01*
X342638Y363009D01*
X342804Y363593D01*
X342999Y364204D01*
X343221Y364814D01*
X343498Y365398D01*
X343832Y365981D01*
X344193Y366536D01*
X344609Y367036D01*
X344637Y367064D01*
X344720Y367147D01*
X344859Y367286D01*
X345054Y367453D01*
X345276Y367647D01*
X345581Y367869D01*
X345915Y368091D01*
X346303Y368341D01*
X346720Y368591D01*
X347192Y368813D01*
X347720Y369036D01*
X348275Y369230D01*
X348886Y369396D01*
X349497Y369535D01*
X350191Y369619D01*
X350885Y369647D01*
X351052D01*
X351246Y369619D01*
D02*
G37*
G36*
X291513D02*
X291763D01*
X292096Y369563D01*
X292457Y369508D01*
X292874Y369424D01*
X293318Y369341D01*
X293790Y369202D01*
X294262Y369036D01*
X294790Y368813D01*
X295290Y368563D01*
X295790Y368286D01*
X296289Y367925D01*
X296789Y367536D01*
X297234Y367092D01*
X297262Y367064D01*
X297345Y366981D01*
X297456Y366842D01*
X297595Y366619D01*
X297789Y366370D01*
X297984Y366064D01*
X298206Y365675D01*
X298428Y365259D01*
X298622Y364787D01*
X298844Y364259D01*
X299039Y363676D01*
X299233Y363037D01*
X299372Y362343D01*
X299483Y361593D01*
X299566Y360816D01*
X299594Y359982D01*
Y359927D01*
Y359788D01*
Y359510D01*
X299566Y359149D01*
X285709D01*
Y359122D01*
Y359011D01*
X285737Y358844D01*
X285765Y358649D01*
X285792Y358372D01*
X285848Y358094D01*
X285904Y357761D01*
X285987Y357400D01*
X286209Y356650D01*
X286514Y355845D01*
X286709Y355484D01*
X286903Y355095D01*
X287153Y354762D01*
X287431Y354429D01*
X287459Y354401D01*
X287514Y354373D01*
X287597Y354290D01*
X287709Y354179D01*
X287875Y354067D01*
X288042Y353929D01*
X288264Y353762D01*
X288514Y353623D01*
X289069Y353318D01*
X289736Y353068D01*
X290097Y352957D01*
X290486Y352901D01*
X290902Y352846D01*
X291319Y352818D01*
X291485D01*
X291596Y352846D01*
X291930Y352873D01*
X292346Y352929D01*
X292791Y353040D01*
X293290Y353207D01*
X293790Y353401D01*
X294262Y353707D01*
X294290D01*
X294318Y353762D01*
X294457Y353873D01*
X294679Y354095D01*
X294957Y354429D01*
X295262Y354817D01*
X295595Y355345D01*
X295929Y355956D01*
X296206Y356650D01*
X299483Y356234D01*
Y356206D01*
X299455Y356095D01*
X299400Y355956D01*
X299317Y355762D01*
X299233Y355511D01*
X299122Y355234D01*
X298983Y354928D01*
X298844Y354595D01*
X298456Y353901D01*
X297956Y353151D01*
X297650Y352790D01*
X297345Y352429D01*
X297012Y352096D01*
X296623Y351790D01*
X296595Y351763D01*
X296539Y351735D01*
X296401Y351652D01*
X296262Y351540D01*
X296040Y351429D01*
X295790Y351290D01*
X295512Y351152D01*
X295179Y351013D01*
X294818Y350874D01*
X294401Y350735D01*
X293985Y350596D01*
X293513Y350485D01*
X293013Y350374D01*
X292485Y350291D01*
X291902Y350263D01*
X291319Y350235D01*
X291152D01*
X290930Y350263D01*
X290652D01*
X290291Y350319D01*
X289902Y350374D01*
X289458Y350457D01*
X288986Y350541D01*
X288486Y350679D01*
X287959Y350846D01*
X287403Y351041D01*
X286876Y351290D01*
X286320Y351568D01*
X285820Y351901D01*
X285320Y352290D01*
X284848Y352734D01*
X284821Y352762D01*
X284737Y352846D01*
X284626Y352984D01*
X284487Y353207D01*
X284293Y353456D01*
X284099Y353762D01*
X283876Y354123D01*
X283682Y354540D01*
X283460Y355012D01*
X283238Y355539D01*
X283043Y356122D01*
X282849Y356761D01*
X282710Y357428D01*
X282599Y358150D01*
X282516Y358927D01*
X282488Y359760D01*
Y359816D01*
Y359955D01*
X282516Y360205D01*
Y360538D01*
X282571Y360927D01*
X282627Y361371D01*
X282682Y361899D01*
X282793Y362426D01*
X282904Y363009D01*
X283071Y363593D01*
X283265Y364204D01*
X283488Y364814D01*
X283765Y365398D01*
X284099Y365981D01*
X284459Y366536D01*
X284876Y367036D01*
X284904Y367064D01*
X284987Y367147D01*
X285126Y367286D01*
X285320Y367453D01*
X285542Y367647D01*
X285848Y367869D01*
X286181Y368091D01*
X286570Y368341D01*
X286987Y368591D01*
X287459Y368813D01*
X287986Y369036D01*
X288542Y369230D01*
X289153Y369396D01*
X289764Y369535D01*
X290458Y369619D01*
X291152Y369647D01*
X291319D01*
X291513Y369619D01*
D02*
G37*
G36*
X310480D02*
X310730Y369591D01*
X311008Y369563D01*
X311341Y369480D01*
X311702Y369396D01*
X312118Y369285D01*
X312535Y369119D01*
X312979Y368924D01*
X313451Y368702D01*
X313896Y368425D01*
X314340Y368091D01*
X314784Y367703D01*
X315201Y367258D01*
X315590Y366731D01*
Y369230D01*
X318422D01*
Y343543D01*
X315284D01*
Y352623D01*
X315256Y352568D01*
X315145Y352457D01*
X314979Y352262D01*
X314757Y352012D01*
X314451Y351763D01*
X314090Y351457D01*
X313674Y351179D01*
X313201Y350902D01*
X313174D01*
X313146Y350874D01*
X312979Y350791D01*
X312702Y350679D01*
X312368Y350569D01*
X311952Y350457D01*
X311480Y350346D01*
X310980Y350263D01*
X310424Y350235D01*
X310286D01*
X310091Y350263D01*
X309869Y350291D01*
X309591Y350319D01*
X309258Y350374D01*
X308869Y350457D01*
X308453Y350569D01*
X308036Y350707D01*
X307564Y350874D01*
X307092Y351096D01*
X306620Y351346D01*
X306120Y351652D01*
X305648Y352012D01*
X305176Y352401D01*
X304704Y352873D01*
X304676Y352901D01*
X304593Y352984D01*
X304482Y353151D01*
X304343Y353345D01*
X304149Y353623D01*
X303954Y353956D01*
X303732Y354317D01*
X303538Y354762D01*
X303315Y355262D01*
X303093Y355789D01*
X302899Y356400D01*
X302704Y357039D01*
X302566Y357733D01*
X302454Y358455D01*
X302371Y359261D01*
X302343Y360094D01*
Y360121D01*
Y360232D01*
Y360371D01*
X302371Y360566D01*
Y360816D01*
X302399Y361093D01*
X302427Y361426D01*
X302454Y361788D01*
X302566Y362565D01*
X302732Y363398D01*
X302982Y364259D01*
X303288Y365120D01*
Y365148D01*
X303343Y365231D01*
X303399Y365342D01*
X303482Y365481D01*
X303565Y365675D01*
X303704Y365897D01*
X304010Y366370D01*
X304398Y366925D01*
X304871Y367480D01*
X305454Y368008D01*
X306092Y368480D01*
X306120Y368508D01*
X306176Y368536D01*
X306287Y368591D01*
X306426Y368674D01*
X306592Y368758D01*
X306787Y368841D01*
X307036Y368952D01*
X307287Y369063D01*
X307897Y369285D01*
X308592Y369452D01*
X309341Y369591D01*
X310147Y369647D01*
X310313D01*
X310480Y369619D01*
D02*
G37*
%LPC*%
G36*
X467561Y467252D02*
Y467225D01*
X467533Y467141D01*
X467506Y467002D01*
X467478Y466836D01*
X467422Y466586D01*
X467367Y466336D01*
X467283Y466031D01*
X467200Y465697D01*
X467117Y465336D01*
X467006Y464948D01*
X466756Y464114D01*
X466478Y463226D01*
X466173Y462309D01*
X463340Y454784D01*
X472087D01*
X469394Y461893D01*
Y461921D01*
X469338Y462032D01*
X469283Y462198D01*
X469199Y462448D01*
X469088Y462698D01*
X468977Y463031D01*
X468838Y463392D01*
X468700Y463781D01*
X468422Y464642D01*
X468116Y465531D01*
X467811Y466419D01*
X467561Y467252D01*
D02*
G37*
G36*
X425739Y466891D02*
X418380D01*
Y457727D01*
X425295D01*
X425517Y457755D01*
X425795D01*
X426100Y457783D01*
X426461Y457838D01*
X426822Y457894D01*
X427600Y458033D01*
X428377Y458255D01*
X428739Y458394D01*
X429072Y458560D01*
X429405Y458727D01*
X429683Y458949D01*
X429710Y458977D01*
X429738Y459005D01*
X429822Y459088D01*
X429905Y459171D01*
X430127Y459449D01*
X430377Y459838D01*
X430627Y460338D01*
X430849Y460921D01*
X431016Y461615D01*
X431043Y461976D01*
X431071Y462393D01*
Y462421D01*
Y462476D01*
Y462559D01*
Y462670D01*
X431016Y462976D01*
X430960Y463337D01*
X430877Y463781D01*
X430710Y464225D01*
X430516Y464698D01*
X430238Y465142D01*
X430210Y465198D01*
X430099Y465336D01*
X429905Y465531D01*
X429683Y465753D01*
X429350Y466003D01*
X428989Y466253D01*
X428572Y466475D01*
X428100Y466642D01*
X428072D01*
X427933Y466669D01*
X427711Y466725D01*
X427378Y466780D01*
X427183D01*
X426961Y466808D01*
X426684Y466836D01*
X426406Y466864D01*
X426073D01*
X425739Y466891D01*
D02*
G37*
G36*
X339180Y467447D02*
X338542D01*
X338375Y467419D01*
X338097D01*
X337792Y467364D01*
X337431Y467308D01*
X337042Y467225D01*
X336598Y467141D01*
X336126Y467002D01*
X335626Y466836D01*
X335098Y466642D01*
X334598Y466392D01*
X334071Y466114D01*
X333543Y465781D01*
X333015Y465392D01*
X332516Y464948D01*
X332488Y464920D01*
X332404Y464836D01*
X332266Y464670D01*
X332127Y464475D01*
X331905Y464198D01*
X331710Y463865D01*
X331460Y463448D01*
X331238Y463004D01*
X330988Y462448D01*
X330738Y461837D01*
X330544Y461171D01*
X330349Y460421D01*
X330183Y459616D01*
X330044Y458727D01*
X329961Y457755D01*
X329933Y456700D01*
Y456644D01*
Y456505D01*
X329961Y456255D01*
Y455922D01*
X330016Y455534D01*
X330072Y455089D01*
X330127Y454589D01*
X330238Y454062D01*
X330377Y453478D01*
X330544Y452868D01*
X330738Y452284D01*
X330988Y451674D01*
X331266Y451062D01*
X331599Y450479D01*
X331960Y449924D01*
X332404Y449396D01*
X332432Y449369D01*
X332516Y449285D01*
X332654Y449146D01*
X332849Y448980D01*
X333099Y448785D01*
X333404Y448563D01*
X333737Y448313D01*
X334126Y448091D01*
X334543Y447841D01*
X335043Y447591D01*
X335542Y447369D01*
X336098Y447175D01*
X336681Y447008D01*
X337320Y446869D01*
X337958Y446786D01*
X338653Y446758D01*
X338819D01*
X339014Y446786D01*
X339291Y446814D01*
X339625Y446841D01*
X339986Y446897D01*
X340430Y446980D01*
X340874Y447091D01*
X341374Y447230D01*
X341874Y447397D01*
X342402Y447619D01*
X342929Y447897D01*
X343457Y448202D01*
X343985Y448535D01*
X344484Y448952D01*
X344956Y449424D01*
X344984Y449452D01*
X345068Y449563D01*
X345179Y449702D01*
X345345Y449924D01*
X345540Y450202D01*
X345762Y450535D01*
X345984Y450924D01*
X346206Y451396D01*
X346428Y451896D01*
X346678Y452479D01*
X346873Y453090D01*
X347067Y453784D01*
X347234Y454534D01*
X347345Y455311D01*
X347428Y456172D01*
X347456Y457061D01*
Y457089D01*
Y457200D01*
Y457366D01*
X347428Y457588D01*
Y457866D01*
X347400Y458172D01*
X347372Y458533D01*
X347317Y458921D01*
X347206Y459782D01*
X347011Y460699D01*
X346734Y461615D01*
X346373Y462532D01*
Y462559D01*
X346317Y462643D01*
X346262Y462754D01*
X346178Y462920D01*
X346067Y463115D01*
X345928Y463337D01*
X345595Y463865D01*
X345151Y464448D01*
X344623Y465031D01*
X344012Y465614D01*
X343290Y466142D01*
X343263Y466169D01*
X343207Y466197D01*
X343096Y466253D01*
X342929Y466336D01*
X342735Y466447D01*
X342513Y466558D01*
X342263Y466669D01*
X341957Y466808D01*
X341624Y466919D01*
X341291Y467030D01*
X340513Y467252D01*
X339652Y467391D01*
X339180Y467447D01*
D02*
G37*
G36*
X380072Y404876D02*
X372713D01*
Y395711D01*
X379627D01*
X379850Y395739D01*
X380127D01*
X380433Y395767D01*
X380794Y395822D01*
X381155Y395878D01*
X381932Y396017D01*
X382710Y396239D01*
X383071Y396378D01*
X383404Y396545D01*
X383737Y396711D01*
X384015Y396933D01*
X384043Y396961D01*
X384070Y396989D01*
X384154Y397072D01*
X384237Y397155D01*
X384459Y397433D01*
X384709Y397822D01*
X384959Y398322D01*
X385181Y398905D01*
X385348Y399599D01*
X385376Y399960D01*
X385403Y400377D01*
Y400405D01*
Y400460D01*
Y400543D01*
Y400654D01*
X385348Y400960D01*
X385292Y401321D01*
X385209Y401765D01*
X385043Y402210D01*
X384848Y402682D01*
X384570Y403126D01*
X384543Y403182D01*
X384432Y403320D01*
X384237Y403515D01*
X384015Y403737D01*
X383682Y403987D01*
X383321Y404237D01*
X382904Y404459D01*
X382432Y404626D01*
X382404D01*
X382265Y404653D01*
X382043Y404709D01*
X381710Y404764D01*
X381516D01*
X381294Y404792D01*
X381016Y404820D01*
X380738Y404848D01*
X380405D01*
X380072Y404876D01*
D02*
G37*
G36*
X343026Y391601D02*
X342999D01*
X342943Y391574D01*
X342832Y391546D01*
X342693Y391490D01*
X342527Y391407D01*
X342304Y391352D01*
X342027Y391268D01*
X341749Y391185D01*
X341388Y391102D01*
X340999Y390990D01*
X340583Y390907D01*
X340111Y390796D01*
X339611Y390685D01*
X339083Y390602D01*
X338500Y390491D01*
X337861Y390407D01*
X337778D01*
X337667Y390380D01*
X337556Y390352D01*
X337195Y390296D01*
X336778Y390213D01*
X336334Y390130D01*
X335890Y390019D01*
X335473Y389907D01*
X335112Y389769D01*
X335084Y389741D01*
X334973Y389713D01*
X334834Y389630D01*
X334668Y389519D01*
X334446Y389352D01*
X334251Y389185D01*
X334057Y388991D01*
X333862Y388741D01*
X333835Y388713D01*
X333807Y388630D01*
X333723Y388491D01*
X333668Y388297D01*
X333585Y388075D01*
X333501Y387825D01*
X333474Y387547D01*
X333446Y387242D01*
Y387186D01*
X333474Y387047D01*
X333501Y386797D01*
X333557Y386520D01*
X333668Y386186D01*
X333835Y385825D01*
X334085Y385492D01*
X334390Y385159D01*
X334446Y385131D01*
X334557Y385020D01*
X334779Y384909D01*
X335084Y384742D01*
X335473Y384603D01*
X335973Y384465D01*
X336528Y384353D01*
X337167Y384326D01*
X337472D01*
X337639Y384353D01*
X337833Y384381D01*
X338250Y384437D01*
X338778Y384520D01*
X339305Y384659D01*
X339861Y384853D01*
X340416Y385103D01*
X340444D01*
X340472Y385131D01*
X340638Y385242D01*
X340888Y385437D01*
X341221Y385686D01*
X341555Y385992D01*
X341888Y386381D01*
X342221Y386797D01*
X342499Y387297D01*
X342527Y387353D01*
X342582Y387491D01*
X342665Y387741D01*
X342749Y388075D01*
X342832Y388519D01*
X342915Y389074D01*
X342971Y389713D01*
X342999Y390435D01*
X343026Y391601D01*
D02*
G37*
G36*
X487819Y405375D02*
X487625D01*
X487458Y405348D01*
X487292Y405320D01*
X487069Y405292D01*
X486570Y405153D01*
X486014Y404931D01*
X485737Y404792D01*
X485431Y404598D01*
X485153Y404403D01*
X484876Y404153D01*
X484598Y403876D01*
X484348Y403543D01*
X484320Y403515D01*
X484292Y403431D01*
X484209Y403293D01*
X484098Y403070D01*
X483987Y402793D01*
X483848Y402459D01*
X483681Y402071D01*
X483543Y401571D01*
X483404Y401015D01*
X483237Y400405D01*
X483098Y399682D01*
X482987Y398905D01*
X482876Y398044D01*
X482821Y397072D01*
X482765Y396045D01*
X482737Y394906D01*
Y394878D01*
Y394823D01*
Y394739D01*
Y394628D01*
Y394490D01*
Y394295D01*
X482765Y393879D01*
X482793Y393379D01*
X482821Y392795D01*
X482848Y392157D01*
X482932Y391490D01*
X483098Y390074D01*
X483209Y389380D01*
X483348Y388686D01*
X483515Y388047D01*
X483737Y387464D01*
X483959Y386936D01*
X484209Y386492D01*
X484237Y386464D01*
X484265Y386408D01*
X484348Y386297D01*
X484487Y386158D01*
X484626Y386020D01*
X484792Y385853D01*
X485209Y385464D01*
X485737Y385075D01*
X486375Y384770D01*
X486708Y384631D01*
X487069Y384520D01*
X487458Y384465D01*
X487847Y384437D01*
X487930D01*
X488069Y384465D01*
X488208D01*
X488402Y384492D01*
X488625Y384548D01*
X489124Y384687D01*
X489402Y384798D01*
X489680Y384937D01*
X489985Y385103D01*
X490291Y385325D01*
X490596Y385548D01*
X490902Y385825D01*
X491207Y386158D01*
X491485Y386520D01*
X491513Y386547D01*
X491540Y386631D01*
X491624Y386742D01*
X491707Y386936D01*
X491846Y387186D01*
X491957Y387519D01*
X492096Y387908D01*
X492235Y388352D01*
X492374Y388880D01*
X492512Y389491D01*
X492651Y390157D01*
X492762Y390935D01*
X492846Y391796D01*
X492929Y392740D01*
X492957Y393767D01*
X492984Y394906D01*
Y394934D01*
Y394989D01*
Y395073D01*
Y395184D01*
Y395323D01*
Y395489D01*
X492957Y395934D01*
X492929Y396433D01*
X492901Y397017D01*
X492873Y397655D01*
X492790Y398322D01*
X492623Y399738D01*
X492485Y400432D01*
X492346Y401099D01*
X492179Y401737D01*
X491985Y402348D01*
X491763Y402848D01*
X491485Y403293D01*
X491457Y403320D01*
X491429Y403376D01*
X491346Y403487D01*
X491235Y403626D01*
X491068Y403765D01*
X490902Y403959D01*
X490707Y404153D01*
X490485Y404348D01*
X489958Y404709D01*
X489319Y405042D01*
X488986Y405181D01*
X488597Y405292D01*
X488236Y405348D01*
X487819Y405375D01*
D02*
G37*
G36*
X400344Y398655D02*
X400122D01*
X399955Y398627D01*
X399761Y398599D01*
X399511Y398572D01*
X398983Y398433D01*
X398344Y398211D01*
X398039Y398072D01*
X397706Y397905D01*
X397372Y397711D01*
X397039Y397461D01*
X396734Y397183D01*
X396428Y396878D01*
X396400Y396850D01*
X396373Y396794D01*
X396289Y396683D01*
X396178Y396545D01*
X396067Y396350D01*
X395928Y396128D01*
X395789Y395850D01*
X395651Y395545D01*
X395512Y395184D01*
X395373Y394795D01*
X395234Y394351D01*
X395123Y393879D01*
X395012Y393351D01*
X394929Y392795D01*
X394901Y392185D01*
X394873Y391546D01*
Y391518D01*
Y391379D01*
Y391213D01*
X394901Y390963D01*
X394929Y390657D01*
X394956Y390324D01*
X395012Y389935D01*
X395067Y389546D01*
X395262Y388658D01*
X395539Y387769D01*
X395706Y387353D01*
X395928Y386936D01*
X396150Y386547D01*
X396428Y386186D01*
X396456Y386158D01*
X396512Y386103D01*
X396595Y386020D01*
X396706Y385909D01*
X396872Y385770D01*
X397039Y385631D01*
X397261Y385464D01*
X397511Y385325D01*
X398067Y384992D01*
X398733Y384714D01*
X399094Y384603D01*
X399511Y384520D01*
X399899Y384465D01*
X400344Y384437D01*
X400566D01*
X400733Y384465D01*
X400927Y384492D01*
X401177Y384520D01*
X401705Y384659D01*
X402315Y384881D01*
X402649Y385020D01*
X402982Y385187D01*
X403287Y385381D01*
X403621Y385631D01*
X403926Y385909D01*
X404232Y386214D01*
X404259Y386242D01*
X404287Y386297D01*
X404370Y386408D01*
X404482Y386547D01*
X404593Y386742D01*
X404731Y386964D01*
X404870Y387242D01*
X405037Y387575D01*
X405176Y387908D01*
X405315Y388324D01*
X405453Y388769D01*
X405564Y389269D01*
X405676Y389796D01*
X405759Y390380D01*
X405787Y390990D01*
X405814Y391657D01*
Y391685D01*
Y391796D01*
Y391990D01*
X405787Y392212D01*
X405759Y392518D01*
X405731Y392851D01*
X405676Y393212D01*
X405620Y393601D01*
X405426Y394434D01*
X405315Y394878D01*
X405148Y395323D01*
X404953Y395739D01*
X404759Y396156D01*
X404509Y396517D01*
X404232Y396878D01*
X404204Y396905D01*
X404148Y396961D01*
X404065Y397044D01*
X403954Y397155D01*
X403787Y397294D01*
X403621Y397433D01*
X403398Y397600D01*
X403176Y397766D01*
X402593Y398100D01*
X401927Y398377D01*
X401566Y398488D01*
X401177Y398572D01*
X400760Y398627D01*
X400344Y398655D01*
D02*
G37*
G36*
X300844D02*
X300622D01*
X300455Y398627D01*
X300261Y398599D01*
X300011Y398572D01*
X299483Y398433D01*
X298844Y398211D01*
X298539Y398072D01*
X298206Y397905D01*
X297872Y397711D01*
X297539Y397461D01*
X297234Y397183D01*
X296928Y396878D01*
X296901Y396850D01*
X296873Y396794D01*
X296789Y396683D01*
X296678Y396545D01*
X296567Y396350D01*
X296428Y396128D01*
X296289Y395850D01*
X296151Y395545D01*
X296012Y395184D01*
X295873Y394795D01*
X295734Y394351D01*
X295623Y393879D01*
X295512Y393351D01*
X295429Y392795D01*
X295401Y392185D01*
X295373Y391546D01*
Y391518D01*
Y391379D01*
Y391213D01*
X295401Y390963D01*
X295429Y390657D01*
X295456Y390324D01*
X295512Y389935D01*
X295567Y389546D01*
X295762Y388658D01*
X296040Y387769D01*
X296206Y387353D01*
X296428Y386936D01*
X296651Y386547D01*
X296928Y386186D01*
X296956Y386158D01*
X297012Y386103D01*
X297095Y386020D01*
X297206Y385909D01*
X297373Y385770D01*
X297539Y385631D01*
X297761Y385464D01*
X298011Y385325D01*
X298567Y384992D01*
X299233Y384714D01*
X299594Y384603D01*
X300011Y384520D01*
X300399Y384465D01*
X300844Y384437D01*
X301066D01*
X301233Y384465D01*
X301427Y384492D01*
X301677Y384520D01*
X302205Y384659D01*
X302816Y384881D01*
X303149Y385020D01*
X303482Y385187D01*
X303787Y385381D01*
X304121Y385631D01*
X304426Y385909D01*
X304732Y386214D01*
X304759Y386242D01*
X304787Y386297D01*
X304871Y386408D01*
X304982Y386547D01*
X305093Y386742D01*
X305231Y386964D01*
X305370Y387242D01*
X305537Y387575D01*
X305676Y387908D01*
X305815Y388324D01*
X305954Y388769D01*
X306065Y389269D01*
X306176Y389796D01*
X306259Y390380D01*
X306287Y390990D01*
X306314Y391657D01*
Y391685D01*
Y391796D01*
Y391990D01*
X306287Y392212D01*
X306259Y392518D01*
X306231Y392851D01*
X306176Y393212D01*
X306120Y393601D01*
X305926Y394434D01*
X305815Y394878D01*
X305648Y395323D01*
X305454Y395739D01*
X305259Y396156D01*
X305009Y396517D01*
X304732Y396878D01*
X304704Y396905D01*
X304648Y396961D01*
X304565Y397044D01*
X304454Y397155D01*
X304287Y397294D01*
X304121Y397433D01*
X303899Y397600D01*
X303676Y397766D01*
X303093Y398100D01*
X302427Y398377D01*
X302066Y398488D01*
X301677Y398572D01*
X301260Y398627D01*
X300844Y398655D01*
D02*
G37*
G36*
X456217Y373756D02*
X456023D01*
X455856Y373729D01*
X455689Y373701D01*
X455467Y373673D01*
X454967Y373534D01*
X454412Y373312D01*
X454134Y373173D01*
X453829Y372979D01*
X453551Y372784D01*
X453273Y372534D01*
X452996Y372257D01*
X452746Y371924D01*
X452718Y371896D01*
X452690Y371813D01*
X452607Y371674D01*
X452496Y371451D01*
X452385Y371174D01*
X452246Y370841D01*
X452079Y370452D01*
X451940Y369952D01*
X451801Y369396D01*
X451635Y368786D01*
X451496Y368064D01*
X451385Y367286D01*
X451274Y366425D01*
X451218Y365453D01*
X451163Y364426D01*
X451135Y363287D01*
Y363259D01*
Y363204D01*
Y363121D01*
Y363009D01*
Y362871D01*
Y362676D01*
X451163Y362260D01*
X451191Y361760D01*
X451218Y361177D01*
X451246Y360538D01*
X451329Y359871D01*
X451496Y358455D01*
X451607Y357761D01*
X451746Y357067D01*
X451913Y356428D01*
X452135Y355845D01*
X452357Y355317D01*
X452607Y354873D01*
X452635Y354845D01*
X452662Y354789D01*
X452746Y354678D01*
X452885Y354540D01*
X453023Y354401D01*
X453190Y354234D01*
X453607Y353845D01*
X454134Y353456D01*
X454773Y353151D01*
X455106Y353012D01*
X455467Y352901D01*
X455856Y352846D01*
X456245Y352818D01*
X456328D01*
X456467Y352846D01*
X456606D01*
X456800Y352873D01*
X457022Y352929D01*
X457522Y353068D01*
X457800Y353179D01*
X458078Y353318D01*
X458383Y353484D01*
X458688Y353707D01*
X458994Y353929D01*
X459299Y354206D01*
X459605Y354540D01*
X459883Y354901D01*
X459910Y354928D01*
X459938Y355012D01*
X460021Y355123D01*
X460105Y355317D01*
X460244Y355567D01*
X460355Y355900D01*
X460494Y356289D01*
X460632Y356733D01*
X460771Y357261D01*
X460910Y357872D01*
X461049Y358539D01*
X461160Y359316D01*
X461243Y360177D01*
X461327Y361121D01*
X461354Y362148D01*
X461382Y363287D01*
Y363315D01*
Y363370D01*
Y363454D01*
Y363565D01*
Y363704D01*
Y363870D01*
X461354Y364315D01*
X461327Y364814D01*
X461299Y365398D01*
X461271Y366036D01*
X461188Y366703D01*
X461021Y368119D01*
X460882Y368813D01*
X460744Y369480D01*
X460577Y370118D01*
X460383Y370729D01*
X460160Y371229D01*
X459883Y371674D01*
X459855Y371701D01*
X459827Y371757D01*
X459744Y371868D01*
X459633Y372007D01*
X459466Y372146D01*
X459299Y372340D01*
X459105Y372534D01*
X458883Y372729D01*
X458355Y373090D01*
X457717Y373423D01*
X457383Y373562D01*
X456994Y373673D01*
X456634Y373729D01*
X456217Y373756D01*
D02*
G37*
G36*
X350885Y367064D02*
X350663D01*
X350524Y367036D01*
X350330Y367008D01*
X350136Y366981D01*
X349608Y366869D01*
X349053Y366703D01*
X348414Y366453D01*
X348108Y366286D01*
X347803Y366092D01*
X347497Y365842D01*
X347220Y365592D01*
X347192Y365564D01*
X347164Y365536D01*
X347081Y365453D01*
X346998Y365342D01*
X346886Y365176D01*
X346748Y365009D01*
X346609Y364814D01*
X346470Y364564D01*
X346331Y364315D01*
X346192Y364009D01*
X345915Y363343D01*
X345720Y362593D01*
X345665Y362176D01*
X345609Y361732D01*
X355995D01*
Y361760D01*
Y361843D01*
X355967Y361954D01*
X355940Y362121D01*
X355912Y362315D01*
X355884Y362537D01*
X355773Y363037D01*
X355606Y363620D01*
X355412Y364204D01*
X355134Y364759D01*
X354801Y365231D01*
X354773Y365259D01*
X354745Y365314D01*
X354634Y365398D01*
X354523Y365509D01*
X354384Y365648D01*
X354190Y365814D01*
X353968Y365981D01*
X353746Y366147D01*
X353468Y366314D01*
X353163Y366481D01*
X352496Y366786D01*
X352135Y366897D01*
X351746Y366981D01*
X351330Y367036D01*
X350885Y367064D01*
D02*
G37*
G36*
X291152D02*
X290930D01*
X290791Y367036D01*
X290597Y367008D01*
X290402Y366981D01*
X289875Y366869D01*
X289319Y366703D01*
X288681Y366453D01*
X288375Y366286D01*
X288070Y366092D01*
X287764Y365842D01*
X287487Y365592D01*
X287459Y365564D01*
X287431Y365536D01*
X287348Y365453D01*
X287264Y365342D01*
X287153Y365176D01*
X287014Y365009D01*
X286876Y364814D01*
X286737Y364564D01*
X286598Y364315D01*
X286459Y364009D01*
X286181Y363343D01*
X285987Y362593D01*
X285931Y362176D01*
X285876Y361732D01*
X296262D01*
Y361760D01*
Y361843D01*
X296234Y361954D01*
X296206Y362121D01*
X296179Y362315D01*
X296151Y362537D01*
X296040Y363037D01*
X295873Y363620D01*
X295679Y364204D01*
X295401Y364759D01*
X295068Y365231D01*
X295040Y365259D01*
X295012Y365314D01*
X294901Y365398D01*
X294790Y365509D01*
X294651Y365648D01*
X294457Y365814D01*
X294235Y365981D01*
X294012Y366147D01*
X293735Y366314D01*
X293429Y366481D01*
X292763Y366786D01*
X292402Y366897D01*
X292013Y366981D01*
X291596Y367036D01*
X291152Y367064D01*
D02*
G37*
G36*
X310452Y367175D02*
X310258D01*
X310119Y367147D01*
X309925Y367119D01*
X309730Y367092D01*
X309258Y366953D01*
X308703Y366758D01*
X308425Y366619D01*
X308120Y366425D01*
X307842Y366231D01*
X307536Y366009D01*
X307259Y365731D01*
X306981Y365425D01*
X306953Y365398D01*
X306926Y365342D01*
X306842Y365231D01*
X306759Y365092D01*
X306648Y364898D01*
X306537Y364676D01*
X306398Y364398D01*
X306287Y364092D01*
X306148Y363731D01*
X306009Y363315D01*
X305898Y362871D01*
X305787Y362399D01*
X305704Y361871D01*
X305620Y361288D01*
X305592Y360649D01*
X305565Y359982D01*
Y359955D01*
Y359816D01*
Y359649D01*
X305592Y359399D01*
X305620Y359094D01*
X305648Y358761D01*
X305704Y358372D01*
X305759Y357955D01*
X305926Y357094D01*
X306203Y356206D01*
X306370Y355762D01*
X306564Y355345D01*
X306814Y354956D01*
X307064Y354595D01*
X307092Y354567D01*
X307148Y354512D01*
X307231Y354429D01*
X307342Y354317D01*
X307481Y354179D01*
X307647Y354040D01*
X308092Y353707D01*
X308619Y353373D01*
X309230Y353096D01*
X309564Y352984D01*
X309925Y352901D01*
X310286Y352846D01*
X310674Y352818D01*
X310869D01*
X311008Y352846D01*
X311174Y352873D01*
X311396Y352901D01*
X311869Y353040D01*
X312396Y353234D01*
X312674Y353373D01*
X312979Y353540D01*
X313257Y353734D01*
X313562Y353956D01*
X313840Y354206D01*
X314118Y354512D01*
X314146Y354540D01*
X314173Y354595D01*
X314257Y354678D01*
X314340Y354845D01*
X314451Y355012D01*
X314590Y355234D01*
X314729Y355484D01*
X314868Y355789D01*
X314979Y356150D01*
X315118Y356511D01*
X315256Y356956D01*
X315368Y357428D01*
X315451Y357927D01*
X315534Y358483D01*
X315562Y359066D01*
X315590Y359705D01*
Y359760D01*
Y359871D01*
Y360066D01*
X315562Y360316D01*
X315534Y360621D01*
X315506Y360982D01*
X315451Y361371D01*
X315395Y361788D01*
X315201Y362704D01*
X314923Y363620D01*
X314757Y364092D01*
X314562Y364509D01*
X314312Y364926D01*
X314035Y365287D01*
X314007Y365314D01*
X313979Y365370D01*
X313868Y365453D01*
X313757Y365592D01*
X313618Y365731D01*
X313451Y365897D01*
X313007Y366231D01*
X312479Y366592D01*
X311869Y366869D01*
X311535Y367008D01*
X311202Y367092D01*
X310841Y367147D01*
X310452Y367175D01*
D02*
G37*
%LPD*%
M02*
