G04*
G04 #@! TF.GenerationSoftware,Altium Limited,Altium Designer,19.1.6 (110)*
G04*
G04 Layer_Physical_Order=2*
G04 Layer_Color=16711680*
%FSLAX25Y25*%
%MOIN*%
G70*
G01*
G75*
G36*
X73938Y15445D02*
X75928Y14912D01*
X77831Y14124D01*
X79615Y13094D01*
X81249Y11840D01*
X82706Y10383D01*
X83960Y8749D01*
X84990Y6965D01*
X85778Y5062D01*
X86311Y3072D01*
X86580Y1030D01*
Y0D01*
Y-63628D01*
X85506Y-64163D01*
X84591Y-63474D01*
X84504Y-63425D01*
X84429Y-63358D01*
X78603Y-59414D01*
X78513Y-59369D01*
X78435Y-59306D01*
X72418Y-55660D01*
X72326Y-55620D01*
X72244Y-55561D01*
X66051Y-52222D01*
X65957Y-52186D01*
X65873Y-52132D01*
X59520Y-49109D01*
X59425Y-49078D01*
X59338Y-49027D01*
X52841Y-46328D01*
X52744Y-46302D01*
X52654Y-46256D01*
X46029Y-43887D01*
X45931Y-43865D01*
X45840Y-43824D01*
X39104Y-41791D01*
X39005Y-41775D01*
X38912Y-41738D01*
X32083Y-40047D01*
X31983Y-40036D01*
X31887Y-40004D01*
X24982Y-38658D01*
X24881Y-38652D01*
X24785Y-38625D01*
X17820Y-37628D01*
X17720Y-37627D01*
X17622Y-37605D01*
X10616Y-36960D01*
X10515Y-36964D01*
X10416Y-36947D01*
X3387Y-36655D01*
X3287Y-36664D01*
X3187Y-36652D01*
X-3848Y-36715D01*
X-3948Y-36729D01*
X-4048Y-36721D01*
X-11071Y-37138D01*
X-11170Y-37157D01*
X-11270Y-37154D01*
X-18263Y-37924D01*
X-18361Y-37948D01*
X-18462Y-37951D01*
X-25407Y-39071D01*
X-25504Y-39099D01*
X-25604Y-39107D01*
X-32484Y-40576D01*
X-32579Y-40609D01*
X-32679Y-40622D01*
X-39477Y-42434D01*
X-39570Y-42473D01*
X-39669Y-42491D01*
X-46367Y-44643D01*
X-46457Y-44686D01*
X-46555Y-44709D01*
X-53137Y-47195D01*
X-53225Y-47243D01*
X-53322Y-47271D01*
X-59770Y-50085D01*
X-59856Y-50137D01*
X-59951Y-50170D01*
X-66249Y-53305D01*
X-66333Y-53361D01*
X-66426Y-53398D01*
X-72558Y-56847D01*
X-72639Y-56907D01*
X-72730Y-56949D01*
X-78681Y-60701D01*
X-78759Y-60765D01*
X-78848Y-60812D01*
X-84603Y-64859D01*
X-84677Y-64927D01*
X-84763Y-64978D01*
X-85502Y-65555D01*
X-86580Y-65029D01*
Y0D01*
Y1030D01*
X-86311Y3072D01*
X-85778Y5062D01*
X-84990Y6965D01*
X-83960Y8749D01*
X-82706Y10383D01*
X-81249Y11840D01*
X-79615Y13094D01*
X-77831Y14124D01*
X-75928Y14912D01*
X-73938Y15445D01*
X-71896Y15714D01*
X71896D01*
X73938Y15445D01*
D02*
G37*
%LPC*%
G36*
X70866Y7338D02*
X69435Y7197D01*
X68058Y6779D01*
X66790Y6101D01*
X65678Y5189D01*
X64765Y4077D01*
X64087Y2808D01*
X63669Y1431D01*
X63528Y0D01*
X63669Y-1431D01*
X64087Y-2808D01*
X64765Y-4077D01*
X65678Y-5189D01*
X66790Y-6101D01*
X68058Y-6779D01*
X69435Y-7197D01*
X70866Y-7338D01*
X72298Y-7197D01*
X73674Y-6779D01*
X74943Y-6101D01*
X76055Y-5189D01*
X76967Y-4077D01*
X77645Y-2808D01*
X78063Y-1431D01*
X78204Y0D01*
X78063Y1431D01*
X77645Y2808D01*
X76967Y4077D01*
X76055Y5189D01*
X74943Y6101D01*
X73674Y6779D01*
X72298Y7197D01*
X70866Y7338D01*
D02*
G37*
G36*
X-70866D02*
X-72298Y7197D01*
X-73674Y6779D01*
X-74943Y6101D01*
X-76055Y5189D01*
X-76967Y4077D01*
X-77645Y2808D01*
X-78063Y1431D01*
X-78204Y0D01*
X-78063Y-1431D01*
X-77645Y-2808D01*
X-76967Y-4077D01*
X-76055Y-5189D01*
X-74943Y-6101D01*
X-73674Y-6779D01*
X-72298Y-7197D01*
X-70866Y-7338D01*
X-69435Y-7197D01*
X-68058Y-6779D01*
X-66790Y-6101D01*
X-65678Y-5189D01*
X-64765Y-4077D01*
X-64087Y-2808D01*
X-63669Y-1431D01*
X-63528Y0D01*
X-63669Y1431D01*
X-64087Y2808D01*
X-64765Y4077D01*
X-65678Y5189D01*
X-66790Y6101D01*
X-68058Y6779D01*
X-69435Y7197D01*
X-70866Y7338D01*
D02*
G37*
%LPD*%
M02*
