G04*
G04 #@! TF.GenerationSoftware,Altium Limited,Altium Designer,19.1.5 (86)*
G04*
G04 Layer_Color=65535*
%FSLAX25Y25*%
%MOIN*%
G70*
G01*
G75*
%ADD10C,0.01000*%
%ADD11C,0.00787*%
D10*
X0Y-40354D02*
Y-28937D01*
Y-40354D02*
Y-28937D01*
D11*
X-31139Y-7642D02*
X-29828D01*
X-30484D01*
Y-11578D01*
X-31139D01*
X-29828D01*
X-25236Y-7642D02*
X-27860D01*
Y-9610D01*
X-26548D01*
X-27860D01*
Y-11578D01*
X-19988Y-7642D02*
Y-8298D01*
X-18676Y-9610D01*
X-17365Y-8298D01*
Y-7642D01*
X-18676Y-9610D02*
Y-11578D01*
X-14085Y-7642D02*
X-15397D01*
X-16052Y-8298D01*
Y-10922D01*
X-15397Y-11578D01*
X-14085D01*
X-13429Y-10922D01*
Y-8298D01*
X-14085Y-7642D01*
X-12117D02*
Y-10922D01*
X-11461Y-11578D01*
X-10149D01*
X-9493Y-10922D01*
Y-7642D01*
X-4245Y-11578D02*
Y-7642D01*
X-2277D01*
X-1622Y-8298D01*
Y-9610D01*
X-2277Y-10266D01*
X-4245D01*
X-2933D02*
X-1622Y-11578D01*
X2314Y-7642D02*
X-310D01*
Y-11578D01*
X2314D01*
X-310Y-9610D02*
X1002D01*
X3626Y-11578D02*
Y-8954D01*
X4938Y-7642D01*
X6250Y-8954D01*
Y-11578D01*
Y-9610D01*
X3626D01*
X7562Y-7642D02*
Y-11578D01*
X9530D01*
X10186Y-10922D01*
Y-8298D01*
X9530Y-7642D01*
X7562D01*
X15433D02*
X18057D01*
X16745D01*
Y-11578D01*
X19369Y-7642D02*
Y-11578D01*
Y-9610D01*
X21993D01*
Y-7642D01*
Y-11578D01*
X23305Y-7642D02*
X24617D01*
X23961D01*
Y-11578D01*
X23305D01*
X24617D01*
X29208Y-8298D02*
X28552Y-7642D01*
X27241D01*
X26585Y-8298D01*
Y-8954D01*
X27241Y-9610D01*
X28552D01*
X29208Y-10266D01*
Y-10922D01*
X28552Y-11578D01*
X27241D01*
X26585Y-10922D01*
X-33435Y-14255D02*
Y-14911D01*
X-32124Y-16223D01*
X-30812Y-14911D01*
Y-14255D01*
X-32124Y-16223D02*
Y-18191D01*
X-27532Y-14255D02*
X-28844D01*
X-29500Y-14911D01*
Y-17535D01*
X-28844Y-18191D01*
X-27532D01*
X-26876Y-17535D01*
Y-14911D01*
X-27532Y-14255D01*
X-25564D02*
Y-17535D01*
X-24908Y-18191D01*
X-23596D01*
X-22940Y-17535D01*
Y-14255D01*
X-17692Y-18191D02*
Y-14255D01*
X-16380Y-15567D01*
X-15069Y-14255D01*
Y-18191D01*
X-11789Y-14255D02*
X-13101D01*
X-13757Y-14911D01*
Y-17535D01*
X-13101Y-18191D01*
X-11789D01*
X-11133Y-17535D01*
Y-14911D01*
X-11789Y-14255D01*
X-9821D02*
Y-17535D01*
X-9165Y-18191D01*
X-7853D01*
X-7197Y-17535D01*
Y-14255D01*
X-5885Y-18191D02*
Y-14255D01*
X-3261Y-18191D01*
Y-14255D01*
X-1949D02*
X674D01*
X-638D01*
Y-18191D01*
X4610Y-14255D02*
X1986D01*
Y-18191D01*
X4610D01*
X1986Y-16223D02*
X3298D01*
X5922Y-14255D02*
Y-18191D01*
X7890D01*
X8546Y-17535D01*
Y-14911D01*
X7890Y-14255D01*
X5922D01*
X13793D02*
X15105D01*
X14449D01*
Y-18191D01*
X13793D01*
X15105D01*
X17073Y-14255D02*
X19697D01*
X18385D01*
Y-18191D01*
X26913Y-14255D02*
X25601D01*
X24945Y-14911D01*
Y-17535D01*
X25601Y-18191D01*
X26913D01*
X27569Y-17535D01*
Y-14911D01*
X26913Y-14255D01*
X28881Y-18191D02*
Y-14255D01*
X31504Y-18191D01*
Y-14255D01*
X-27532Y-20867D02*
X-24908D01*
X-26220D01*
Y-24803D01*
X-23596Y-20867D02*
Y-24803D01*
Y-22835D01*
X-20972D01*
Y-20867D01*
Y-24803D01*
X-17037Y-20867D02*
X-19660D01*
Y-24803D01*
X-17037D01*
X-19660Y-22835D02*
X-18348D01*
X-11789Y-20867D02*
Y-24803D01*
X-10477Y-23491D01*
X-9165Y-24803D01*
Y-20867D01*
X-7853Y-24803D02*
Y-20867D01*
X-5885D01*
X-5229Y-21523D01*
Y-22835D01*
X-5885Y-23491D01*
X-7853D01*
X-6541D02*
X-5229Y-24803D01*
X-1949Y-20867D02*
X-3261D01*
X-3917Y-21523D01*
Y-24147D01*
X-3261Y-24803D01*
X-1949D01*
X-1293Y-24147D01*
Y-21523D01*
X-1949Y-20867D01*
X18Y-24803D02*
Y-20867D01*
X2642Y-24803D01*
Y-20867D01*
X6578Y-21523D02*
X5922Y-20867D01*
X4610D01*
X3954Y-21523D01*
Y-24147D01*
X4610Y-24803D01*
X5922D01*
X6578Y-24147D01*
Y-22835D01*
X5266D01*
X14449Y-21523D02*
X13793Y-20867D01*
X12482D01*
X11826Y-21523D01*
Y-22179D01*
X12482Y-22835D01*
X13793D01*
X14449Y-23491D01*
Y-24147D01*
X13793Y-24803D01*
X12482D01*
X11826Y-24147D01*
X15761Y-20867D02*
X17073D01*
X16417D01*
Y-24803D01*
X15761D01*
X17073D01*
X19041Y-20867D02*
Y-24803D01*
X21009D01*
X21665Y-24147D01*
Y-21523D01*
X21009Y-20867D01*
X19041D01*
X25601D02*
X22977D01*
Y-24803D01*
X25601D01*
X22977Y-22835D02*
X24289D01*
X-20998Y11810D02*
X-22310D01*
X-21654D01*
Y8530D01*
X-22310Y7874D01*
X-22966D01*
X-23622Y8530D01*
X-19686Y11810D02*
Y7874D01*
X-17063D01*
X-13127Y11154D02*
X-13783Y11810D01*
X-15095D01*
X-15751Y11154D01*
Y8530D01*
X-15095Y7874D01*
X-13783D01*
X-13127Y8530D01*
X-9191Y11810D02*
X-10503D01*
X-9847D01*
Y8530D01*
X-10503Y7874D01*
X-11159D01*
X-11815Y8530D01*
X-7879Y11810D02*
Y7874D01*
X-5255D01*
X-1319Y11154D02*
X-1976Y11810D01*
X-3287D01*
X-3943Y11154D01*
Y8530D01*
X-3287Y7874D01*
X-1976D01*
X-1319Y8530D01*
X2616Y11810D02*
X1304D01*
X1960D01*
Y8530D01*
X1304Y7874D01*
X648D01*
X-8Y8530D01*
X3928Y11810D02*
Y7874D01*
X6552D01*
X10488Y11154D02*
X9832Y11810D01*
X8520D01*
X7864Y11154D01*
Y8530D01*
X8520Y7874D01*
X9832D01*
X10488Y8530D01*
X14423Y11810D02*
X13112D01*
X13768D01*
Y8530D01*
X13112Y7874D01*
X12456D01*
X11800Y8530D01*
X15735Y11810D02*
Y7874D01*
X18359D01*
X22295Y11154D02*
X21639Y11810D01*
X20327D01*
X19671Y11154D01*
Y8530D01*
X20327Y7874D01*
X21639D01*
X22295Y8530D01*
M02*
