G04*
G04 #@! TF.GenerationSoftware,Altium Limited,Altium Designer,19.1.6 (110)*
G04*
G04 Layer_Physical_Order=1*
G04 Layer_Color=255*
%FSLAX25Y25*%
%MOIN*%
G70*
G01*
G75*
G36*
X9845Y133567D02*
X16385Y132923D01*
X22885Y131959D01*
X29331Y130677D01*
X35706Y129080D01*
X41995Y127172D01*
X48182Y124958D01*
X54254Y122443D01*
X60194Y119634D01*
X65990Y116536D01*
X71627Y113157D01*
X77091Y109506D01*
X82369Y105591D01*
X87449Y101422D01*
X92319Y97009D01*
X96965Y92362D01*
X101379Y87493D01*
X105548Y82413D01*
X109463Y77135D01*
X113114Y71670D01*
X116492Y66033D01*
X119590Y60238D01*
X122400Y54297D01*
X124915Y48226D01*
X127129Y42038D01*
X129036Y35749D01*
X130633Y29375D01*
X131915Y22929D01*
X132879Y16429D01*
X133524Y9888D01*
X133846Y3325D01*
Y39D01*
Y-3247D01*
X133524Y-9811D01*
X132879Y-16351D01*
X131915Y-22851D01*
X130633Y-29297D01*
X129036Y-35672D01*
X127129Y-41960D01*
X124915Y-48148D01*
X122400Y-54220D01*
X119590Y-60160D01*
X116492Y-65956D01*
X113114Y-71593D01*
X109463Y-77057D01*
X105548Y-82335D01*
X101379Y-87415D01*
X96966Y-92285D01*
X92319Y-96931D01*
X87449Y-101345D01*
X82369Y-105514D01*
X77091Y-109429D01*
X71627Y-113080D01*
X65990Y-116458D01*
X60194Y-119556D01*
X54254Y-122366D01*
X48182Y-124881D01*
X41995Y-127095D01*
X35706Y-129002D01*
X29331Y-130599D01*
X22885Y-131881D01*
X16385Y-132845D01*
X9845Y-133490D01*
X3281Y-133812D01*
X-3291D01*
X-9854Y-133490D01*
X-16395Y-132845D01*
X-22895Y-131881D01*
X-29340Y-130599D01*
X-35715Y-129002D01*
X-42004Y-127095D01*
X-48191Y-124881D01*
X-54263Y-122366D01*
X-60204Y-119556D01*
X-66000Y-116458D01*
X-71636Y-113080D01*
X-77100Y-109429D01*
X-82379Y-105514D01*
X-87459Y-101345D01*
X-92328Y-96932D01*
X-96975Y-92285D01*
X-101388Y-87415D01*
X-105557Y-82335D01*
X-109472Y-77057D01*
X-113123Y-71593D01*
X-116502Y-65956D01*
X-119600Y-60160D01*
X-122409Y-54220D01*
X-124924Y-48148D01*
X-127138Y-41960D01*
X-129046Y-35672D01*
X-130643Y-29297D01*
X-131925Y-22851D01*
X-132889Y-16351D01*
X-133533Y-9811D01*
X-133856Y-3247D01*
Y39D01*
Y3325D01*
X-133533Y9888D01*
X-132889Y16429D01*
X-131925Y22929D01*
X-130643Y29374D01*
X-129046Y35749D01*
X-127138Y42038D01*
X-124924Y48225D01*
X-122409Y54297D01*
X-119600Y60238D01*
X-116502Y66034D01*
X-113123Y71670D01*
X-109472Y77135D01*
X-105557Y82413D01*
X-101388Y87493D01*
X-96975Y92362D01*
X-92328Y97009D01*
X-87459Y101422D01*
X-82379Y105591D01*
X-77100Y109506D01*
X-71636Y113157D01*
X-65999Y116536D01*
X-60204Y119634D01*
X-54263Y122443D01*
X-48191Y124958D01*
X-42004Y127172D01*
X-35715Y129080D01*
X-29341Y130677D01*
X-22895Y131959D01*
X-16395Y132923D01*
X-9854Y133567D01*
X-3291Y133890D01*
X3281D01*
X9845Y133567D01*
D02*
G37*
%LPC*%
G36*
X0Y70823D02*
X-1841Y70678D01*
X-3636Y70247D01*
X-5342Y69540D01*
X-6917Y68576D01*
X-8321Y67376D01*
X-9520Y65972D01*
X-10485Y64398D01*
X-11192Y62692D01*
X-11623Y60896D01*
X-11768Y59055D01*
X-11623Y57214D01*
X-11192Y55419D01*
X-10485Y53713D01*
X-9520Y52138D01*
X-8321Y50734D01*
X-6917Y49535D01*
X-5342Y48570D01*
X-3636Y47863D01*
X-1841Y47432D01*
X0Y47287D01*
X1841Y47432D01*
X3636Y47863D01*
X5342Y48570D01*
X6917Y49535D01*
X8321Y50734D01*
X9520Y52138D01*
X10485Y53713D01*
X11192Y55419D01*
X11623Y57214D01*
X11768Y59055D01*
X11623Y60896D01*
X11192Y62692D01*
X10485Y64398D01*
X9520Y65972D01*
X8321Y67376D01*
X6917Y68576D01*
X5342Y69540D01*
X3636Y70247D01*
X1841Y70678D01*
X0Y70823D01*
D02*
G37*
G36*
X59055Y11768D02*
X57214Y11623D01*
X55419Y11192D01*
X53713Y10485D01*
X52138Y9520D01*
X50734Y8321D01*
X49535Y6917D01*
X48570Y5342D01*
X47863Y3636D01*
X47432Y1841D01*
X47287Y0D01*
X47432Y-1841D01*
X47863Y-3636D01*
X48570Y-5342D01*
X49535Y-6917D01*
X50734Y-8321D01*
X52138Y-9520D01*
X53713Y-10485D01*
X55419Y-11192D01*
X57214Y-11623D01*
X59055Y-11768D01*
X60896Y-11623D01*
X62692Y-11192D01*
X64398Y-10485D01*
X65972Y-9520D01*
X67376Y-8321D01*
X68576Y-6917D01*
X69540Y-5342D01*
X70247Y-3636D01*
X70678Y-1841D01*
X70823Y0D01*
X70678Y1841D01*
X70247Y3636D01*
X69540Y5342D01*
X68576Y6917D01*
X67376Y8321D01*
X65972Y9520D01*
X64398Y10485D01*
X62692Y11192D01*
X60896Y11623D01*
X59055Y11768D01*
D02*
G37*
G36*
X-59055D02*
X-60896Y11623D01*
X-62692Y11192D01*
X-64398Y10485D01*
X-65972Y9520D01*
X-67376Y8321D01*
X-68576Y6917D01*
X-69540Y5342D01*
X-70247Y3636D01*
X-70678Y1841D01*
X-70823Y0D01*
X-70678Y-1841D01*
X-70247Y-3636D01*
X-69540Y-5342D01*
X-68576Y-6917D01*
X-67376Y-8321D01*
X-65972Y-9520D01*
X-64398Y-10485D01*
X-62692Y-11192D01*
X-60896Y-11623D01*
X-59055Y-11768D01*
X-57214Y-11623D01*
X-55419Y-11192D01*
X-53713Y-10485D01*
X-52138Y-9520D01*
X-50734Y-8321D01*
X-49535Y-6917D01*
X-48570Y-5342D01*
X-47863Y-3636D01*
X-47432Y-1841D01*
X-47287Y0D01*
X-47432Y1841D01*
X-47863Y3636D01*
X-48570Y5342D01*
X-49535Y6917D01*
X-50734Y8321D01*
X-52138Y9520D01*
X-53713Y10485D01*
X-55419Y11192D01*
X-57214Y11623D01*
X-59055Y11768D01*
D02*
G37*
G36*
X-5Y40658D02*
X-3986Y40462D01*
X-7929Y39877D01*
X-11796Y38909D01*
X-15549Y37566D01*
X-19152Y35862D01*
X-22571Y33812D01*
X-25773Y31438D01*
X-28727Y28761D01*
X-31404Y25807D01*
X-33778Y22605D01*
X-35827Y19186D01*
X-37532Y15583D01*
X-38875Y11830D01*
X-39843Y7963D01*
X-40428Y4020D01*
X-40624Y39D01*
X-40428Y-3943D01*
X-39843Y-7886D01*
X-38875Y-11752D01*
X-37532Y-15505D01*
X-35827Y-19109D01*
X-33778Y-22528D01*
X-31404Y-25730D01*
X-28727Y-28683D01*
X-25773Y-31360D01*
X-22571Y-33735D01*
X-19152Y-35784D01*
X-15549Y-37488D01*
X-11796Y-38831D01*
X-7929Y-39800D01*
X-3986Y-40385D01*
X-5Y-40580D01*
X3977Y-40385D01*
X7920Y-39800D01*
X11786Y-38831D01*
X15540Y-37488D01*
X19143Y-35784D01*
X22562Y-33735D01*
X25764Y-31360D01*
X28717Y-28683D01*
X31394Y-25730D01*
X33769Y-22528D01*
X35818Y-19109D01*
X37522Y-15505D01*
X38865Y-11752D01*
X39834Y-7886D01*
X40419Y-3943D01*
X40614Y39D01*
X40419Y4020D01*
X39834Y7963D01*
X38865Y11830D01*
X37522Y15583D01*
X35818Y19186D01*
X33769Y22605D01*
X31394Y25807D01*
X28717Y28761D01*
X25764Y31438D01*
X22562Y33812D01*
X19143Y35862D01*
X15540Y37566D01*
X11786Y38909D01*
X7920Y39877D01*
X3977Y40462D01*
X-5Y40658D01*
D02*
G37*
%LPD*%
M02*
