G04*
G04 #@! TF.GenerationSoftware,Altium Limited,Altium Designer,19.1.5 (86)*
G04*
G04 Layer_Color=65535*
%FSLAX25Y25*%
%MOIN*%
G70*
G01*
G75*
%ADD10C,0.01000*%
%ADD11C,0.00787*%
G36*
X131938Y-5744D02*
X135421D01*
Y-7215D01*
X131938D01*
Y-10727D01*
X130452D01*
Y-7215D01*
X126969D01*
Y-5744D01*
X130452D01*
Y-2260D01*
X131938D01*
Y-5744D01*
D02*
G37*
G36*
X-129014Y-7966D02*
X-133858D01*
Y-6384D01*
X-129014D01*
Y-7966D01*
D02*
G37*
G36*
X-71561Y92876D02*
X-71395Y92855D01*
X-71230Y92813D01*
X-71226Y92808D01*
X-71206Y92807D01*
X-71187Y92796D01*
X-71153Y92788D01*
X-71115Y92776D01*
X-71062Y92757D01*
X-71010Y92729D01*
X-70948Y92710D01*
X-70810Y92646D01*
X-70658Y92566D01*
X-70483Y92470D01*
X-70309Y92354D01*
X-70304Y92349D01*
X-70285Y92337D01*
X-70262Y92321D01*
X-70225Y92289D01*
X-70178Y92256D01*
X-70122Y92212D01*
X-70062Y92164D01*
X-69992Y92105D01*
X-69919Y92031D01*
X-69836Y91956D01*
X-69743Y91870D01*
X-69647Y91780D01*
X-69546Y91674D01*
X-69441Y91563D01*
X-69326Y91442D01*
X-69213Y91311D01*
X-69204Y91300D01*
X-69181Y91274D01*
X-69140Y91227D01*
X-69090Y91169D01*
X-69032Y91091D01*
X-68969Y91008D01*
X-68892Y90909D01*
X-68811Y90805D01*
X-68726Y90686D01*
X-68641Y90566D01*
X-68473Y90308D01*
X-68325Y90042D01*
X-68255Y89909D01*
X-68201Y89782D01*
X-68196Y89777D01*
X-68193Y89752D01*
X-68171Y89716D01*
X-68159Y89671D01*
X-68139Y89605D01*
X-68120Y89540D01*
X-68096Y89460D01*
X-68073Y89369D01*
X-68033Y89175D01*
X-68008Y88966D01*
X-68000Y88744D01*
X-68012Y88632D01*
X-68025Y88520D01*
X-68026Y88510D01*
X-68032Y88496D01*
X-68039Y88462D01*
X-68052Y88423D01*
X-68065Y88375D01*
X-68085Y88313D01*
X-68109Y88245D01*
X-68144Y88169D01*
X-68179Y88093D01*
X-68225Y88008D01*
X-68274Y87928D01*
X-68330Y87833D01*
X-68401Y87745D01*
X-68476Y87652D01*
X-68561Y87569D01*
X-68656Y87478D01*
X-68687Y87450D01*
X-68729Y87424D01*
X-68780Y87388D01*
X-68843Y87344D01*
X-68920Y87295D01*
X-69007Y87247D01*
X-69109Y87195D01*
X-69216Y87149D01*
X-69332Y87103D01*
X-69463Y87063D01*
X-69593Y87033D01*
X-69732Y87014D01*
X-69881Y87005D01*
X-70028Y87005D01*
X-70184Y87026D01*
X-70194Y87027D01*
X-70228Y87034D01*
X-70280Y87053D01*
X-70357Y87078D01*
X-70453Y87115D01*
X-70563Y87157D01*
X-70692Y87220D01*
X-70829Y87294D01*
X-70990Y87384D01*
X-71154Y87490D01*
X-71337Y87616D01*
X-71529Y87762D01*
X-71728Y87929D01*
X-71931Y88121D01*
X-72147Y88338D01*
X-72365Y88580D01*
X-72374Y88591D01*
X-72397Y88617D01*
X-72438Y88664D01*
X-72483Y88726D01*
X-72546Y88800D01*
X-72614Y88888D01*
X-72690Y88987D01*
X-72772Y89091D01*
X-72856Y89211D01*
X-72941Y89330D01*
X-73110Y89588D01*
X-73263Y89850D01*
X-73332Y89983D01*
X-73387Y90110D01*
X-73392Y90115D01*
X-73395Y90140D01*
X-73412Y90180D01*
X-73433Y90226D01*
X-73448Y90286D01*
X-73473Y90357D01*
X-73492Y90432D01*
X-73515Y90522D01*
X-73555Y90717D01*
X-73575Y90930D01*
X-73583Y91152D01*
X-73576Y91260D01*
X-73563Y91372D01*
X-73562Y91382D01*
X-73556Y91396D01*
X-73549Y91430D01*
X-73536Y91468D01*
X-73527Y91522D01*
X-73503Y91579D01*
X-73479Y91646D01*
X-73444Y91723D01*
X-73409Y91799D01*
X-73363Y91884D01*
X-73313Y91974D01*
X-73257Y92058D01*
X-73187Y92147D01*
X-73112Y92240D01*
X-73022Y92327D01*
X-72932Y92414D01*
X-72869Y92468D01*
X-72828Y92495D01*
X-72786Y92522D01*
X-72683Y92593D01*
X-72564Y92668D01*
X-72422Y92737D01*
X-72275Y92800D01*
X-72114Y92847D01*
X-72108Y92852D01*
X-72093Y92856D01*
X-72069Y92859D01*
X-72034Y92861D01*
X-71954Y92875D01*
X-71841Y92882D01*
X-71707Y92887D01*
X-71561Y92876D01*
D02*
G37*
G36*
X-73039Y86803D02*
X-72383Y87371D01*
X-71911Y86826D01*
X-72566Y86257D01*
X-71562Y85098D01*
X-72155Y84585D01*
X-73159Y85744D01*
X-75268Y83917D01*
X-75740Y84463D01*
X-76244Y89517D01*
X-75756Y89940D01*
X-73039Y86803D01*
D02*
G37*
G36*
X-86436Y78824D02*
X-86431Y78820D01*
X-86411Y78822D01*
X-86390Y78814D01*
X-86356Y78813D01*
X-86316Y78807D01*
X-86260Y78798D01*
X-86204Y78779D01*
X-86139Y78771D01*
X-85992Y78732D01*
X-85829Y78680D01*
X-85640Y78615D01*
X-85449Y78532D01*
X-85443Y78527D01*
X-85423Y78520D01*
X-85397Y78508D01*
X-85355Y78482D01*
X-85303Y78458D01*
X-85240Y78425D01*
X-85172Y78388D01*
X-85093Y78342D01*
X-85008Y78281D01*
X-84913Y78222D01*
X-84808Y78154D01*
X-84697Y78082D01*
X-84579Y77995D01*
X-84456Y77904D01*
X-84323Y77804D01*
X-84188Y77695D01*
X-84177Y77686D01*
X-84150Y77664D01*
X-84102Y77625D01*
X-84043Y77577D01*
X-83972Y77510D01*
X-83895Y77439D01*
X-83802Y77355D01*
X-83705Y77266D01*
X-83600Y77164D01*
X-83496Y77061D01*
X-83285Y76836D01*
X-83093Y76600D01*
X-83002Y76481D01*
X-82926Y76365D01*
X-82920Y76361D01*
X-82913Y76337D01*
X-82885Y76305D01*
X-82866Y76263D01*
X-82835Y76202D01*
X-82804Y76141D01*
X-82766Y76066D01*
X-82728Y75981D01*
X-82655Y75796D01*
X-82595Y75595D01*
X-82547Y75378D01*
X-82541Y75265D01*
X-82534Y75152D01*
X-82533Y75143D01*
X-82536Y75128D01*
X-82538Y75093D01*
X-82543Y75053D01*
X-82548Y75003D01*
X-82556Y74938D01*
X-82569Y74868D01*
X-82590Y74787D01*
X-82611Y74705D01*
X-82641Y74614D01*
X-82676Y74526D01*
X-82715Y74423D01*
X-82769Y74324D01*
X-82827Y74219D01*
X-82896Y74124D01*
X-82974Y74017D01*
X-83000Y73984D01*
X-83036Y73951D01*
X-83081Y73907D01*
X-83135Y73852D01*
X-83202Y73791D01*
X-83280Y73729D01*
X-83371Y73660D01*
X-83468Y73596D01*
X-83575Y73530D01*
X-83697Y73469D01*
X-83820Y73416D01*
X-83953Y73373D01*
X-84098Y73338D01*
X-84243Y73313D01*
X-84400Y73307D01*
X-84410Y73306D01*
X-84445Y73307D01*
X-84500Y73316D01*
X-84580Y73328D01*
X-84681Y73347D01*
X-84797Y73370D01*
X-84934Y73410D01*
X-85082Y73458D01*
X-85256Y73519D01*
X-85437Y73595D01*
X-85639Y73687D01*
X-85852Y73798D01*
X-86078Y73928D01*
X-86311Y74081D01*
X-86561Y74258D01*
X-86818Y74458D01*
X-86829Y74467D01*
X-86856Y74489D01*
X-86905Y74528D01*
X-86959Y74582D01*
X-87035Y74643D01*
X-87117Y74718D01*
X-87209Y74803D01*
X-87307Y74891D01*
X-87411Y74994D01*
X-87516Y75096D01*
X-87727Y75321D01*
X-87923Y75553D01*
X-88014Y75672D01*
X-88090Y75787D01*
X-88096Y75791D01*
X-88103Y75815D01*
X-88127Y75852D01*
X-88156Y75894D01*
X-88181Y75950D01*
X-88218Y76016D01*
X-88250Y76086D01*
X-88288Y76171D01*
X-88361Y76356D01*
X-88417Y76562D01*
X-88464Y76780D01*
X-88476Y76887D01*
X-88482Y77000D01*
X-88483Y77009D01*
X-88480Y77025D01*
X-88478Y77059D01*
X-88473Y77099D01*
X-88473Y77153D01*
X-88460Y77214D01*
X-88447Y77284D01*
X-88426Y77366D01*
X-88405Y77447D01*
X-88375Y77539D01*
X-88341Y77636D01*
X-88301Y77729D01*
X-88247Y77828D01*
X-88189Y77933D01*
X-88116Y78034D01*
X-88042Y78135D01*
X-87989Y78200D01*
X-87954Y78233D01*
X-87918Y78267D01*
X-87828Y78355D01*
X-87724Y78449D01*
X-87596Y78542D01*
X-87462Y78629D01*
X-87312Y78704D01*
X-87307Y78710D01*
X-87293Y78716D01*
X-87269Y78724D01*
X-87235Y78732D01*
X-87159Y78759D01*
X-87049Y78786D01*
X-86918Y78814D01*
X-86772Y78829D01*
X-86605Y78837D01*
X-86436Y78824D01*
D02*
G37*
G36*
X-89345Y75179D02*
X-90960Y73191D01*
X-89839Y71842D01*
X-89840Y71852D01*
X-89837Y71877D01*
X-89831Y71907D01*
X-89826Y71957D01*
X-89812Y72018D01*
X-89800Y72088D01*
X-89789Y72168D01*
X-89763Y72255D01*
X-89737Y72341D01*
X-89708Y72443D01*
X-89630Y72638D01*
X-89581Y72742D01*
X-89527Y72841D01*
X-89459Y72937D01*
X-89389Y73033D01*
X-89368Y73060D01*
X-89332Y73093D01*
X-89297Y73137D01*
X-89242Y73182D01*
X-89184Y73242D01*
X-89107Y73304D01*
X-89029Y73366D01*
X-88932Y73431D01*
X-88835Y73495D01*
X-88723Y73556D01*
X-88606Y73612D01*
X-88477Y73660D01*
X-88344Y73704D01*
X-88199Y73738D01*
X-88049Y73759D01*
X-88039Y73760D01*
X-88010Y73763D01*
X-87965Y73763D01*
X-87911Y73763D01*
X-87837Y73766D01*
X-87747Y73755D01*
X-87657Y73745D01*
X-87552Y73731D01*
X-87437Y73709D01*
X-87314Y73672D01*
X-87188Y73641D01*
X-87054Y73585D01*
X-86924Y73525D01*
X-86788Y73450D01*
X-86651Y73365D01*
X-86518Y73266D01*
X-86512Y73261D01*
X-86485Y73239D01*
X-86453Y73213D01*
X-86409Y73168D01*
X-86354Y73115D01*
X-86298Y73052D01*
X-86231Y72980D01*
X-86159Y72893D01*
X-86090Y72802D01*
X-86015Y72696D01*
X-85944Y72585D01*
X-85878Y72469D01*
X-85816Y72347D01*
X-85757Y72210D01*
X-85708Y72072D01*
X-85674Y71927D01*
X-85673Y71917D01*
X-85664Y71884D01*
X-85659Y71835D01*
X-85652Y71767D01*
X-85643Y71679D01*
X-85643Y71580D01*
X-85641Y71462D01*
X-85652Y71337D01*
X-85668Y71207D01*
X-85688Y71062D01*
X-85727Y70915D01*
X-85780Y70762D01*
X-85838Y70603D01*
X-85920Y70446D01*
X-86013Y70289D01*
X-86130Y70134D01*
X-86182Y70069D01*
X-86227Y70025D01*
X-86281Y69970D01*
X-86344Y69914D01*
X-86416Y69848D01*
X-86498Y69780D01*
X-86584Y69707D01*
X-86685Y69637D01*
X-86792Y69572D01*
X-86904Y69511D01*
X-87022Y69454D01*
X-87145Y69402D01*
X-87274Y69364D01*
X-87408Y69331D01*
X-87418Y69330D01*
X-87438Y69327D01*
X-87477Y69323D01*
X-87531Y69323D01*
X-87599Y69316D01*
X-87673Y69313D01*
X-87757Y69319D01*
X-87857Y69329D01*
X-87957Y69338D01*
X-88067Y69356D01*
X-88184Y69389D01*
X-88301Y69421D01*
X-88428Y69462D01*
X-88553Y69518D01*
X-88683Y69589D01*
X-88810Y69664D01*
X-88337Y70345D01*
X-88332Y70340D01*
X-88311Y70332D01*
X-88285Y70320D01*
X-88249Y70300D01*
X-88206Y70274D01*
X-88145Y70251D01*
X-88021Y70195D01*
X-87873Y70146D01*
X-87706Y70109D01*
X-87541Y70091D01*
X-87458Y70095D01*
X-87374Y70099D01*
X-87370Y70104D01*
X-87355Y70101D01*
X-87331Y70108D01*
X-87297Y70117D01*
X-87216Y70140D01*
X-87117Y70185D01*
X-86999Y70241D01*
X-86874Y70318D01*
X-86751Y70415D01*
X-86693Y70475D01*
X-86631Y70541D01*
X-86596Y70584D01*
X-86575Y70621D01*
X-86550Y70662D01*
X-86520Y70710D01*
X-86464Y70834D01*
X-86405Y70983D01*
X-86384Y71065D01*
X-86364Y71155D01*
X-86349Y71251D01*
X-86344Y71345D01*
X-86344Y71443D01*
X-86355Y71551D01*
X-86356Y71561D01*
X-86363Y71575D01*
X-86366Y71604D01*
X-86375Y71648D01*
X-86395Y71700D01*
X-86411Y71757D01*
X-86438Y71824D01*
X-86465Y71900D01*
X-86503Y71975D01*
X-86545Y72054D01*
X-86599Y72142D01*
X-86657Y72225D01*
X-86725Y72317D01*
X-86804Y72407D01*
X-86891Y72487D01*
X-86989Y72576D01*
X-86994Y72580D01*
X-87011Y72593D01*
X-87037Y72615D01*
X-87080Y72640D01*
X-87127Y72670D01*
X-87185Y72708D01*
X-87248Y72741D01*
X-87321Y72783D01*
X-87477Y72856D01*
X-87660Y72916D01*
X-87751Y72936D01*
X-87851Y72945D01*
X-87951Y72955D01*
X-88054Y72949D01*
X-88064Y72948D01*
X-88073Y72947D01*
X-88107Y72939D01*
X-88146Y72935D01*
X-88189Y72925D01*
X-88247Y72909D01*
X-88305Y72894D01*
X-88376Y72871D01*
X-88447Y72839D01*
X-88518Y72808D01*
X-88675Y72712D01*
X-88754Y72660D01*
X-88836Y72592D01*
X-88907Y72516D01*
X-88982Y72434D01*
X-89022Y72385D01*
X-89064Y72322D01*
X-89110Y72243D01*
X-89164Y72144D01*
X-89212Y72030D01*
X-89254Y71912D01*
X-89280Y71781D01*
X-89283Y71766D01*
X-89289Y71726D01*
X-89292Y71657D01*
X-89298Y71572D01*
X-89288Y71475D01*
X-89281Y71362D01*
X-89259Y71246D01*
X-89227Y71131D01*
X-89772Y70626D01*
X-91935Y73180D01*
X-89926Y75652D01*
X-89345Y75179D01*
D02*
G37*
G36*
X-107171Y44525D02*
X-107164Y44522D01*
X-107142Y44522D01*
X-107114Y44520D01*
X-107065Y44510D01*
X-107009Y44505D01*
X-106938Y44496D01*
X-106862Y44484D01*
X-106772Y44467D01*
X-106671Y44440D01*
X-106562Y44417D01*
X-106439Y44389D01*
X-106310Y44359D01*
X-106170Y44318D01*
X-106024Y44274D01*
X-105864Y44226D01*
X-105700Y44170D01*
X-105687Y44165D01*
X-105654Y44154D01*
X-105595Y44133D01*
X-105523Y44108D01*
X-105433Y44070D01*
X-105337Y44029D01*
X-105221Y43982D01*
X-105099Y43932D01*
X-104966Y43871D01*
X-104833Y43810D01*
X-104558Y43671D01*
X-104296Y43515D01*
X-104170Y43434D01*
X-104059Y43352D01*
X-104052Y43349D01*
X-104037Y43329D01*
X-104000Y43309D01*
X-103968Y43276D01*
X-103918Y43229D01*
X-103868Y43183D01*
X-103807Y43125D01*
X-103742Y43058D01*
X-103610Y42910D01*
X-103484Y42741D01*
X-103366Y42553D01*
X-103321Y42450D01*
X-103276Y42346D01*
X-103272Y42337D01*
X-103270Y42322D01*
X-103259Y42289D01*
X-103251Y42249D01*
X-103238Y42201D01*
X-103224Y42137D01*
X-103211Y42067D01*
X-103203Y41983D01*
X-103196Y41900D01*
X-103192Y41803D01*
X-103196Y41709D01*
X-103197Y41599D01*
X-103214Y41487D01*
X-103233Y41369D01*
X-103265Y41255D01*
X-103301Y41128D01*
X-103315Y41089D01*
X-103337Y41045D01*
X-103364Y40989D01*
X-103396Y40919D01*
X-103438Y40838D01*
X-103490Y40753D01*
X-103552Y40657D01*
X-103622Y40564D01*
X-103700Y40466D01*
X-103793Y40366D01*
X-103891Y40275D01*
X-104001Y40188D01*
X-104125Y40106D01*
X-104253Y40033D01*
X-104399Y39973D01*
X-104408Y39969D01*
X-104441Y39959D01*
X-104496Y39948D01*
X-104575Y39932D01*
X-104676Y39915D01*
X-104793Y39897D01*
X-104935Y39887D01*
X-105091Y39883D01*
X-105276Y39880D01*
X-105471Y39889D01*
X-105692Y39907D01*
X-105931Y39939D01*
X-106187Y39983D01*
X-106459Y40048D01*
X-106754Y40128D01*
X-107065Y40228D01*
X-107078Y40233D01*
X-107111Y40244D01*
X-107170Y40265D01*
X-107239Y40296D01*
X-107331Y40328D01*
X-107434Y40371D01*
X-107550Y40418D01*
X-107672Y40468D01*
X-107805Y40529D01*
X-107938Y40589D01*
X-108213Y40729D01*
X-108477Y40879D01*
X-108604Y40959D01*
X-108714Y41042D01*
X-108721Y41044D01*
X-108736Y41064D01*
X-108771Y41091D01*
X-108812Y41120D01*
X-108856Y41164D01*
X-108912Y41213D01*
X-108967Y41269D01*
X-109031Y41335D01*
X-109164Y41484D01*
X-109287Y41659D01*
X-109405Y41847D01*
X-109452Y41944D01*
X-109497Y42047D01*
X-109502Y42056D01*
X-109504Y42072D01*
X-109514Y42105D01*
X-109523Y42144D01*
X-109542Y42195D01*
X-109550Y42257D01*
X-109562Y42327D01*
X-109570Y42410D01*
X-109578Y42494D01*
X-109581Y42590D01*
X-109582Y42694D01*
X-109576Y42794D01*
X-109560Y42906D01*
X-109541Y43025D01*
X-109507Y43145D01*
X-109472Y43265D01*
X-109445Y43344D01*
X-109423Y43387D01*
X-109400Y43431D01*
X-109346Y43545D01*
X-109281Y43669D01*
X-109192Y43800D01*
X-109096Y43928D01*
X-108980Y44050D01*
X-108978Y44056D01*
X-108967Y44067D01*
X-108947Y44082D01*
X-108918Y44102D01*
X-108856Y44153D01*
X-108761Y44216D01*
X-108648Y44287D01*
X-108516Y44352D01*
X-108361Y44416D01*
X-108199Y44462D01*
X-108192Y44460D01*
X-108174Y44468D01*
X-108152Y44468D01*
X-108119Y44479D01*
X-108080Y44487D01*
X-108025Y44497D01*
X-107966Y44499D01*
X-107902Y44513D01*
X-107750Y44527D01*
X-107579Y44534D01*
X-107379Y44538D01*
X-107171Y44525D01*
D02*
G37*
G36*
X-109728Y40321D02*
X-109724Y40312D01*
X-109711Y40285D01*
X-109683Y40239D01*
X-109651Y40184D01*
X-109603Y40108D01*
X-109554Y40018D01*
X-109491Y39923D01*
X-109420Y39810D01*
X-109338Y39686D01*
X-109245Y39551D01*
X-109142Y39405D01*
X-109031Y39257D01*
X-108915Y39106D01*
X-108781Y38942D01*
X-108642Y38770D01*
X-108495Y38601D01*
X-108484Y38590D01*
X-108458Y38559D01*
X-108415Y38514D01*
X-108350Y38448D01*
X-108274Y38370D01*
X-108183Y38273D01*
X-108078Y38170D01*
X-107963Y38057D01*
X-107835Y37939D01*
X-107696Y37810D01*
X-107544Y37677D01*
X-107392Y37543D01*
X-107227Y37405D01*
X-107055Y37265D01*
X-106698Y37002D01*
X-106692Y37000D01*
X-106668Y36984D01*
X-106626Y36955D01*
X-106579Y36924D01*
X-106513Y36879D01*
X-106435Y36830D01*
X-106345Y36770D01*
X-106247Y36714D01*
X-106138Y36647D01*
X-106014Y36582D01*
X-105885Y36508D01*
X-105748Y36438D01*
X-105606Y36360D01*
X-105456Y36285D01*
X-105137Y36145D01*
X-105400Y35385D01*
X-105407Y35387D01*
X-105433Y35396D01*
X-105472Y35410D01*
X-105523Y35434D01*
X-105592Y35466D01*
X-105669Y35500D01*
X-105765Y35541D01*
X-105865Y35590D01*
X-105985Y35646D01*
X-106103Y35709D01*
X-106241Y35779D01*
X-106382Y35857D01*
X-106535Y35947D01*
X-106694Y36039D01*
X-106855Y36146D01*
X-107023Y36255D01*
X-107034Y36266D01*
X-107064Y36284D01*
X-107112Y36316D01*
X-107175Y36367D01*
X-107258Y36425D01*
X-107358Y36496D01*
X-107463Y36576D01*
X-107578Y36668D01*
X-107704Y36770D01*
X-107841Y36884D01*
X-107984Y36999D01*
X-108124Y37128D01*
X-108419Y37400D01*
X-108712Y37699D01*
X-108722Y37710D01*
X-108742Y37739D01*
X-108785Y37784D01*
X-108839Y37839D01*
X-108900Y37919D01*
X-108974Y38003D01*
X-109056Y38105D01*
X-109151Y38211D01*
X-109242Y38331D01*
X-109344Y38462D01*
X-109542Y38736D01*
X-109743Y39026D01*
X-109838Y39176D01*
X-109926Y39324D01*
X-110953Y36360D01*
X-111668Y36608D01*
X-110312Y40523D01*
X-109728Y40321D01*
D02*
G37*
G36*
X-98554Y62650D02*
X-98489Y62653D01*
X-98337Y62640D01*
X-98167Y62617D01*
X-97970Y62586D01*
X-97767Y62537D01*
X-97761Y62534D01*
X-97739Y62530D01*
X-97712Y62522D01*
X-97666Y62505D01*
X-97611Y62490D01*
X-97543Y62468D01*
X-97470Y62443D01*
X-97384Y62411D01*
X-97290Y62367D01*
X-97186Y62325D01*
X-97070Y62276D01*
X-96948Y62224D01*
X-96818Y62160D01*
X-96681Y62091D01*
X-96532Y62016D01*
X-96380Y61932D01*
X-96368Y61925D01*
X-96338Y61908D01*
X-96283Y61878D01*
X-96216Y61841D01*
X-96135Y61787D01*
X-96047Y61731D01*
X-95942Y61664D01*
X-95830Y61594D01*
X-95709Y61511D01*
X-95589Y61428D01*
X-95342Y61243D01*
X-95112Y61043D01*
X-95001Y60942D01*
X-94906Y60842D01*
X-94900Y60838D01*
X-94889Y60816D01*
X-94856Y60790D01*
X-94829Y60751D01*
X-94788Y60697D01*
X-94747Y60642D01*
X-94697Y60574D01*
X-94645Y60497D01*
X-94541Y60328D01*
X-94446Y60141D01*
X-94362Y59935D01*
X-94336Y59825D01*
X-94310Y59715D01*
X-94307Y59706D01*
X-94308Y59690D01*
X-94303Y59656D01*
X-94302Y59615D01*
X-94298Y59566D01*
X-94295Y59500D01*
X-94295Y59429D01*
X-94301Y59345D01*
X-94308Y59262D01*
X-94322Y59166D01*
X-94341Y59074D01*
X-94362Y58966D01*
X-94398Y58859D01*
X-94437Y58745D01*
X-94488Y58639D01*
X-94546Y58520D01*
X-94566Y58484D01*
X-94596Y58445D01*
X-94633Y58394D01*
X-94676Y58330D01*
X-94732Y58258D01*
X-94797Y58183D01*
X-94875Y58100D01*
X-94960Y58020D01*
X-95053Y57937D01*
X-95163Y57855D01*
X-95275Y57782D01*
X-95399Y57716D01*
X-95535Y57657D01*
X-95674Y57607D01*
X-95828Y57574D01*
X-95837Y57571D01*
X-95871Y57566D01*
X-95927Y57566D01*
X-96008Y57563D01*
X-96111Y57564D01*
X-96229Y57566D01*
X-96371Y57582D01*
X-96525Y57604D01*
X-96707Y57634D01*
X-96898Y57677D01*
X-97113Y57733D01*
X-97343Y57805D01*
X-97587Y57894D01*
X-97843Y58005D01*
X-98120Y58135D01*
X-98409Y58288D01*
X-98421Y58294D01*
X-98451Y58311D01*
X-98506Y58341D01*
X-98569Y58385D01*
X-98654Y58432D01*
X-98748Y58492D01*
X-98853Y58559D01*
X-98965Y58629D01*
X-99086Y58712D01*
X-99206Y58795D01*
X-99453Y58980D01*
X-99687Y59174D01*
X-99797Y59275D01*
X-99892Y59375D01*
X-99898Y59379D01*
X-99910Y59401D01*
X-99939Y59433D01*
X-99975Y59469D01*
X-100010Y59520D01*
X-100057Y59578D01*
X-100101Y59642D01*
X-100153Y59719D01*
X-100258Y59888D01*
X-100349Y60082D01*
X-100433Y60288D01*
X-100462Y60392D01*
X-100488Y60501D01*
X-100491Y60511D01*
X-100490Y60526D01*
X-100495Y60561D01*
X-100496Y60601D01*
X-100507Y60654D01*
X-100504Y60716D01*
X-100504Y60788D01*
X-100497Y60871D01*
X-100490Y60955D01*
X-100477Y61051D01*
X-100460Y61153D01*
X-100437Y61251D01*
X-100401Y61358D01*
X-100362Y61471D01*
X-100307Y61584D01*
X-100252Y61696D01*
X-100212Y61769D01*
X-100182Y61808D01*
X-100152Y61847D01*
X-100080Y61950D01*
X-99994Y62061D01*
X-99883Y62174D01*
X-99766Y62284D01*
X-99632Y62384D01*
X-99628Y62389D01*
X-99615Y62398D01*
X-99593Y62410D01*
X-99562Y62424D01*
X-99491Y62464D01*
X-99387Y62509D01*
X-99263Y62560D01*
X-99122Y62600D01*
X-98959Y62636D01*
X-98790Y62654D01*
X-98784Y62650D01*
X-98765Y62656D01*
X-98744Y62652D01*
X-98709Y62656D01*
X-98669Y62658D01*
X-98613Y62658D01*
X-98554Y62650D01*
D02*
G37*
G36*
X-101020Y58462D02*
X-100911Y58457D01*
X-100797Y58449D01*
X-100680Y58432D01*
X-100560Y58404D01*
X-100434Y58374D01*
X-100302Y58325D01*
X-100629Y57609D01*
X-100635Y57613D01*
X-100651Y57613D01*
X-100672Y57617D01*
X-100706Y57628D01*
X-100789Y57650D01*
X-100891Y57667D01*
X-101008Y57685D01*
X-101132Y57690D01*
X-101250Y57692D01*
X-101362Y57676D01*
X-101372Y57673D01*
X-101381Y57670D01*
X-101409Y57662D01*
X-101438Y57654D01*
X-101520Y57621D01*
X-101622Y57566D01*
X-101731Y57499D01*
X-101840Y57402D01*
X-101951Y57289D01*
X-101998Y57219D01*
X-102044Y57150D01*
X-102075Y57095D01*
X-102100Y57022D01*
X-102131Y56936D01*
X-102158Y56832D01*
X-102181Y56718D01*
X-102187Y56594D01*
X-102180Y56463D01*
X-102184Y56457D01*
X-102175Y56444D01*
X-102173Y56419D01*
X-102168Y56385D01*
X-102144Y56300D01*
X-102106Y56183D01*
X-102056Y56044D01*
X-101982Y55892D01*
X-101886Y55735D01*
X-101772Y55569D01*
X-101766Y55566D01*
X-101758Y55553D01*
X-101734Y55524D01*
X-101705Y55491D01*
X-101669Y55456D01*
X-101618Y55404D01*
X-101562Y55348D01*
X-101499Y55290D01*
X-101424Y55224D01*
X-101334Y55158D01*
X-101235Y55079D01*
X-101130Y54997D01*
X-101015Y54917D01*
X-100885Y54837D01*
X-100743Y54750D01*
X-100601Y54663D01*
X-100601Y54663D01*
X-100595Y54659D01*
X-100601Y54663D01*
X-100606Y54682D01*
X-100618Y54704D01*
X-100632Y54736D01*
X-100668Y54827D01*
X-100716Y54941D01*
X-100756Y55083D01*
X-100790Y55237D01*
X-100811Y55399D01*
X-100819Y55570D01*
X-100815Y55576D01*
X-100815Y55592D01*
X-100817Y55617D01*
X-100815Y55648D01*
X-100807Y55691D01*
X-100805Y55737D01*
X-100787Y55855D01*
X-100754Y55987D01*
X-100713Y56131D01*
X-100660Y56284D01*
X-100585Y56433D01*
X-100568Y56463D01*
X-100542Y56496D01*
X-100515Y56545D01*
X-100469Y56599D01*
X-100426Y56662D01*
X-100363Y56731D01*
X-100298Y56805D01*
X-100220Y56873D01*
X-100136Y56954D01*
X-100040Y57027D01*
X-99937Y57097D01*
X-99819Y57166D01*
X-99698Y57226D01*
X-99566Y57279D01*
X-99424Y57320D01*
X-99414Y57322D01*
X-99390Y57324D01*
X-99352Y57335D01*
X-99289Y57348D01*
X-99220Y57357D01*
X-99139Y57360D01*
X-99040Y57368D01*
X-98937Y57367D01*
X-98823Y57358D01*
X-98699Y57353D01*
X-98569Y57328D01*
X-98430Y57307D01*
X-98292Y57270D01*
X-98145Y57220D01*
X-97999Y57154D01*
X-97850Y57079D01*
X-97844Y57076D01*
X-97826Y57066D01*
X-97802Y57052D01*
X-97763Y57022D01*
X-97720Y56999D01*
X-97669Y56962D01*
X-97606Y56919D01*
X-97546Y56870D01*
X-97408Y56761D01*
X-97268Y56628D01*
X-97128Y56479D01*
X-96996Y56302D01*
X-96990Y56299D01*
X-96985Y56280D01*
X-96967Y56254D01*
X-96947Y56219D01*
X-96924Y56174D01*
X-96895Y56127D01*
X-96833Y55996D01*
X-96771Y55851D01*
X-96716Y55677D01*
X-96672Y55486D01*
X-96652Y55293D01*
X-96656Y55287D01*
X-96650Y55268D01*
X-96652Y55237D01*
X-96657Y55199D01*
X-96659Y55153D01*
X-96664Y55101D01*
X-96670Y55032D01*
X-96682Y54968D01*
X-96708Y54807D01*
X-96759Y54629D01*
X-96830Y54446D01*
X-96919Y54257D01*
X-96939Y54221D01*
X-96972Y54176D01*
X-97012Y54119D01*
X-97059Y54049D01*
X-97124Y53974D01*
X-97193Y53894D01*
X-97275Y53804D01*
X-97372Y53715D01*
X-97472Y53620D01*
X-97591Y53535D01*
X-97716Y53454D01*
X-97856Y53373D01*
X-98001Y53311D01*
X-98163Y53250D01*
X-98329Y53208D01*
X-98339Y53205D01*
X-98373Y53200D01*
X-98423Y53196D01*
X-98498Y53190D01*
X-98588Y53185D01*
X-98697Y53190D01*
X-98827Y53199D01*
X-98975Y53218D01*
X-99139Y53237D01*
X-99317Y53273D01*
X-99511Y53325D01*
X-99722Y53387D01*
X-99949Y53466D01*
X-100187Y53566D01*
X-100439Y53683D01*
X-100703Y53822D01*
X-100709Y53826D01*
X-100722Y53832D01*
X-100746Y53846D01*
X-100776Y53863D01*
X-100813Y53883D01*
X-100858Y53916D01*
X-100906Y53943D01*
X-100963Y53983D01*
X-101093Y54063D01*
X-101238Y54160D01*
X-101398Y54272D01*
X-101567Y54398D01*
X-101740Y54542D01*
X-101914Y54687D01*
X-102081Y54843D01*
X-102241Y55012D01*
X-102392Y55183D01*
X-102530Y55363D01*
X-102640Y55551D01*
X-102728Y55735D01*
X-102731Y55745D01*
X-102745Y55777D01*
X-102758Y55824D01*
X-102777Y55890D01*
X-102799Y55965D01*
X-102816Y56063D01*
X-102830Y56166D01*
X-102844Y56284D01*
X-102850Y56415D01*
X-102844Y56555D01*
X-102835Y56700D01*
X-102812Y56854D01*
X-102780Y57012D01*
X-102730Y57174D01*
X-102670Y57339D01*
X-102585Y57506D01*
X-102547Y57573D01*
X-102518Y57612D01*
X-102481Y57663D01*
X-102438Y57727D01*
X-102385Y57793D01*
X-102323Y57861D01*
X-102183Y58013D01*
X-102105Y58082D01*
X-102015Y58158D01*
X-101922Y58226D01*
X-101820Y58280D01*
X-101718Y58335D01*
X-101604Y58382D01*
X-101595Y58385D01*
X-101576Y58390D01*
X-101544Y58405D01*
X-101501Y58412D01*
X-101444Y58428D01*
X-101375Y58438D01*
X-101297Y58450D01*
X-101213Y58458D01*
X-101122Y58464D01*
X-101020Y58462D01*
D02*
G37*
G36*
X-55081Y103824D02*
X-55047Y103820D01*
X-54966Y103820D01*
X-54853Y103807D01*
X-54720Y103789D01*
X-54578Y103753D01*
X-54418Y103703D01*
X-54264Y103633D01*
X-54260Y103628D01*
X-54241Y103623D01*
X-54224Y103608D01*
X-54192Y103595D01*
X-54157Y103576D01*
X-54108Y103549D01*
X-54061Y103512D01*
X-54003Y103482D01*
X-53878Y103395D01*
X-53743Y103290D01*
X-53587Y103165D01*
X-53436Y103021D01*
X-53432Y103015D01*
X-53416Y103000D01*
X-53395Y102980D01*
X-53365Y102942D01*
X-53324Y102902D01*
X-53277Y102849D01*
X-53225Y102791D01*
X-53167Y102721D01*
X-53108Y102635D01*
X-53039Y102547D01*
X-52963Y102447D01*
X-52883Y102341D01*
X-52802Y102219D01*
X-52718Y102092D01*
X-52627Y101952D01*
X-52538Y101803D01*
X-52530Y101792D01*
X-52513Y101762D01*
X-52481Y101708D01*
X-52441Y101643D01*
X-52397Y101556D01*
X-52350Y101463D01*
X-52292Y101352D01*
X-52230Y101235D01*
X-52167Y101103D01*
X-52104Y100971D01*
X-51983Y100688D01*
X-51883Y100399D01*
X-51838Y100257D01*
X-51806Y100122D01*
X-51803Y100116D01*
X-51804Y100091D01*
X-51788Y100052D01*
X-51785Y100005D01*
X-51777Y99937D01*
X-51768Y99870D01*
X-51759Y99786D01*
X-51752Y99694D01*
X-51746Y99495D01*
X-51758Y99285D01*
X-51788Y99065D01*
X-51821Y98957D01*
X-51853Y98849D01*
X-51855Y98839D01*
X-51864Y98826D01*
X-51877Y98794D01*
X-51896Y98758D01*
X-51917Y98713D01*
X-51947Y98655D01*
X-51983Y98593D01*
X-52031Y98524D01*
X-52078Y98455D01*
X-52138Y98379D01*
X-52201Y98309D01*
X-52272Y98225D01*
X-52357Y98150D01*
X-52448Y98072D01*
X-52545Y98005D01*
X-52655Y97932D01*
X-52691Y97910D01*
X-52736Y97891D01*
X-52793Y97865D01*
X-52862Y97832D01*
X-52947Y97798D01*
X-53041Y97766D01*
X-53150Y97732D01*
X-53263Y97705D01*
X-53386Y97680D01*
X-53522Y97664D01*
X-53655Y97657D01*
X-53795Y97662D01*
X-53943Y97679D01*
X-54088Y97705D01*
X-54238Y97753D01*
X-54248Y97755D01*
X-54280Y97768D01*
X-54329Y97796D01*
X-54400Y97834D01*
X-54488Y97886D01*
X-54589Y97947D01*
X-54704Y98032D01*
X-54827Y98128D01*
X-54970Y98245D01*
X-55113Y98377D01*
X-55272Y98533D01*
X-55434Y98711D01*
X-55602Y98910D01*
X-55768Y99134D01*
X-55943Y99385D01*
X-56116Y99661D01*
X-56124Y99673D01*
X-56141Y99703D01*
X-56173Y99757D01*
X-56207Y99826D01*
X-56257Y99909D01*
X-56308Y100008D01*
X-56366Y100119D01*
X-56428Y100235D01*
X-56491Y100368D01*
X-56554Y100500D01*
X-56675Y100783D01*
X-56780Y101068D01*
X-56825Y101211D01*
X-56857Y101345D01*
X-56861Y101351D01*
X-56860Y101376D01*
X-56869Y101419D01*
X-56882Y101468D01*
X-56887Y101530D01*
X-56899Y101603D01*
X-56905Y101681D01*
X-56911Y101774D01*
X-56917Y101972D01*
X-56899Y102186D01*
X-56869Y102406D01*
X-56843Y102510D01*
X-56811Y102619D01*
X-56808Y102628D01*
X-56800Y102641D01*
X-56787Y102673D01*
X-56768Y102709D01*
X-56750Y102760D01*
X-56716Y102813D01*
X-56681Y102874D01*
X-56633Y102943D01*
X-56585Y103012D01*
X-56526Y103088D01*
X-56460Y103168D01*
X-56391Y103242D01*
X-56306Y103317D01*
X-56216Y103395D01*
X-56112Y103465D01*
X-56009Y103535D01*
X-55937Y103578D01*
X-55892Y103597D01*
X-55847Y103616D01*
X-55732Y103668D01*
X-55603Y103722D01*
X-55450Y103764D01*
X-55294Y103801D01*
X-55128Y103820D01*
X-55122Y103824D01*
X-55106Y103825D01*
X-55081Y103824D01*
D02*
G37*
G36*
X-59358Y101240D02*
X-59317Y101240D01*
X-59227Y101237D01*
X-59108Y101227D01*
X-58966Y101207D01*
X-58818Y101175D01*
X-58662Y101131D01*
X-58507Y101061D01*
X-58504Y101055D01*
X-58494Y101053D01*
X-58468Y101036D01*
X-58442Y101020D01*
X-58406Y101001D01*
X-58367Y100976D01*
X-58278Y100908D01*
X-58178Y100822D01*
X-58071Y100724D01*
X-57968Y100607D01*
X-57881Y100474D01*
X-57877Y100468D01*
X-57870Y100456D01*
X-57859Y100438D01*
X-57845Y100414D01*
X-57814Y100336D01*
X-57776Y100245D01*
X-57739Y100130D01*
X-57711Y100001D01*
X-57691Y99860D01*
X-57689Y99707D01*
X-57685Y99701D01*
X-57687Y99692D01*
X-57696Y99638D01*
X-57705Y99560D01*
X-57732Y99455D01*
X-57763Y99331D01*
X-57818Y99193D01*
X-57888Y99054D01*
X-57976Y98904D01*
X-57970Y98908D01*
X-57949Y98913D01*
X-57922Y98921D01*
X-57879Y98930D01*
X-57836Y98940D01*
X-57778Y98950D01*
X-57636Y98971D01*
X-57478Y98976D01*
X-57306Y98974D01*
X-57121Y98947D01*
X-56938Y98886D01*
X-56929Y98884D01*
X-56916Y98876D01*
X-56893Y98865D01*
X-56858Y98846D01*
X-56816Y98830D01*
X-56767Y98803D01*
X-56715Y98769D01*
X-56656Y98724D01*
X-56596Y98679D01*
X-56533Y98628D01*
X-56396Y98507D01*
X-56263Y98352D01*
X-56194Y98264D01*
X-56137Y98169D01*
X-56134Y98163D01*
X-56119Y98139D01*
X-56100Y98094D01*
X-56072Y98046D01*
X-56045Y97974D01*
X-56014Y97895D01*
X-55979Y97811D01*
X-55950Y97707D01*
X-55922Y97594D01*
X-55901Y97477D01*
X-55882Y97351D01*
X-55875Y97218D01*
X-55871Y97075D01*
X-55881Y96931D01*
X-55898Y96783D01*
X-55936Y96631D01*
X-55939Y96622D01*
X-55946Y96593D01*
X-55962Y96551D01*
X-55985Y96497D01*
X-56012Y96432D01*
X-56052Y96351D01*
X-56095Y96261D01*
X-56154Y96169D01*
X-56214Y96068D01*
X-56287Y95960D01*
X-56369Y95854D01*
X-56467Y95747D01*
X-56574Y95643D01*
X-56691Y95540D01*
X-56817Y95441D01*
X-56963Y95345D01*
X-56993Y95328D01*
X-57038Y95309D01*
X-57085Y95280D01*
X-57154Y95247D01*
X-57233Y95216D01*
X-57318Y95182D01*
X-57418Y95146D01*
X-57527Y95113D01*
X-57640Y95086D01*
X-57759Y95055D01*
X-57885Y95036D01*
X-58019Y95029D01*
X-58146Y95025D01*
X-58287Y95030D01*
X-58422Y95054D01*
X-58432Y95057D01*
X-58451Y95061D01*
X-58489Y95071D01*
X-58546Y95086D01*
X-58607Y95106D01*
X-58680Y95134D01*
X-58758Y95169D01*
X-58848Y95212D01*
X-58938Y95255D01*
X-59040Y95316D01*
X-59141Y95376D01*
X-59243Y95453D01*
X-59343Y95539D01*
X-59446Y95630D01*
X-59541Y95735D01*
X-59634Y95850D01*
X-59015Y96342D01*
X-59011Y96336D01*
X-58995Y96321D01*
X-58971Y96295D01*
X-58934Y96261D01*
X-58893Y96220D01*
X-58850Y96174D01*
X-58733Y96074D01*
X-58597Y95969D01*
X-58450Y95871D01*
X-58292Y95796D01*
X-58212Y95771D01*
X-58132Y95746D01*
X-58126Y95749D01*
X-58113Y95741D01*
X-58088Y95740D01*
X-58060Y95732D01*
X-57979Y95732D01*
X-57867Y95735D01*
X-57737Y95748D01*
X-57603Y95780D01*
X-57448Y95832D01*
X-57298Y95905D01*
X-57250Y95934D01*
X-57218Y95961D01*
X-57186Y95989D01*
X-57136Y96026D01*
X-57043Y96114D01*
X-56933Y96229D01*
X-56832Y96370D01*
X-56791Y96451D01*
X-56751Y96532D01*
X-56714Y96619D01*
X-56684Y96718D01*
X-56682Y96727D01*
X-56683Y96742D01*
X-56675Y96771D01*
X-56666Y96809D01*
X-56660Y96853D01*
X-56661Y96909D01*
X-56656Y96969D01*
X-56653Y97044D01*
X-56664Y97198D01*
X-56699Y97364D01*
X-56753Y97549D01*
X-56797Y97636D01*
X-56845Y97729D01*
X-56848Y97735D01*
X-56855Y97747D01*
X-56873Y97777D01*
X-56897Y97803D01*
X-56928Y97841D01*
X-56959Y97879D01*
X-57041Y97976D01*
X-57157Y98076D01*
X-57286Y98169D01*
X-57361Y98213D01*
X-57438Y98248D01*
X-57521Y98279D01*
X-57610Y98306D01*
X-57620Y98309D01*
X-57630Y98311D01*
X-57658Y98318D01*
X-57693Y98322D01*
X-57737Y98328D01*
X-57787Y98330D01*
X-57911Y98336D01*
X-58057Y98322D01*
X-58216Y98291D01*
X-58386Y98238D01*
X-58473Y98194D01*
X-58560Y98150D01*
X-58596Y98129D01*
X-58634Y98098D01*
X-58688Y98066D01*
X-58752Y98011D01*
X-58823Y97953D01*
X-58907Y97878D01*
X-58994Y97794D01*
X-59275Y98426D01*
X-59263Y98433D01*
X-59230Y98445D01*
X-59191Y98460D01*
X-59114Y98507D01*
X-59087Y98531D01*
X-59046Y98555D01*
X-59007Y98586D01*
X-58917Y98665D01*
X-58812Y98760D01*
X-58706Y98880D01*
X-58601Y99016D01*
X-58516Y99171D01*
X-58511Y99175D01*
X-58506Y99194D01*
X-58501Y99213D01*
X-58488Y99245D01*
X-58460Y99334D01*
X-58441Y99451D01*
X-58439Y99582D01*
X-58450Y99737D01*
X-58466Y99816D01*
X-58500Y99901D01*
X-58535Y99985D01*
X-58578Y100072D01*
X-58582Y100078D01*
X-58589Y100090D01*
X-58600Y100108D01*
X-58624Y100134D01*
X-58669Y100196D01*
X-58740Y100275D01*
X-58827Y100352D01*
X-58935Y100425D01*
X-59065Y100493D01*
X-59129Y100519D01*
X-59205Y100539D01*
X-59224Y100543D01*
X-59274Y100546D01*
X-59353Y100555D01*
X-59453Y100560D01*
X-59573Y100545D01*
X-59711Y100519D01*
X-59850Y100468D01*
X-60000Y100394D01*
X-60036Y100373D01*
X-60062Y100349D01*
X-60098Y100328D01*
X-60130Y100300D01*
X-60215Y100225D01*
X-60298Y100135D01*
X-60383Y100020D01*
X-60454Y99896D01*
X-60512Y99748D01*
X-60517Y99729D01*
X-60525Y99676D01*
X-60540Y99594D01*
X-60538Y99482D01*
X-60537Y99345D01*
X-60512Y99182D01*
X-60471Y99005D01*
X-60403Y98810D01*
X-61147Y98527D01*
X-61151Y98533D01*
X-61159Y98560D01*
X-61175Y98599D01*
X-61191Y98654D01*
X-61206Y98719D01*
X-61227Y98795D01*
X-61246Y98880D01*
X-61263Y98976D01*
X-61288Y99195D01*
X-61297Y99303D01*
X-61296Y99424D01*
X-61287Y99543D01*
X-61271Y99666D01*
X-61250Y99792D01*
X-61215Y99910D01*
X-61213Y99919D01*
X-61208Y99938D01*
X-61189Y99974D01*
X-61173Y100016D01*
X-61143Y100074D01*
X-61114Y100132D01*
X-61075Y100204D01*
X-61025Y100282D01*
X-60972Y100355D01*
X-60910Y100440D01*
X-60838Y100524D01*
X-60761Y100610D01*
X-60668Y100698D01*
X-60571Y100780D01*
X-60465Y100860D01*
X-60350Y100937D01*
X-60272Y100984D01*
X-60227Y101003D01*
X-60182Y101022D01*
X-60062Y101077D01*
X-59922Y101128D01*
X-59758Y101178D01*
X-59587Y101216D01*
X-59404Y101236D01*
X-59399Y101240D01*
X-59383Y101241D01*
X-59358Y101240D01*
D02*
G37*
G36*
X-112862Y25313D02*
X-112758Y25303D01*
X-112646Y25299D01*
X-112520Y25293D01*
X-112388Y25286D01*
X-112243Y25270D01*
X-112091Y25253D01*
X-111925Y25233D01*
X-111754Y25206D01*
X-111741Y25203D01*
X-111706Y25198D01*
X-111644Y25188D01*
X-111569Y25176D01*
X-111474Y25154D01*
X-111373Y25130D01*
X-111250Y25104D01*
X-111121Y25076D01*
X-110980Y25039D01*
X-110838Y25003D01*
X-110543Y24913D01*
X-110258Y24804D01*
X-110120Y24747D01*
X-109996Y24685D01*
X-109989Y24684D01*
X-109971Y24667D01*
X-109931Y24654D01*
X-109893Y24626D01*
X-109836Y24589D01*
X-109778Y24552D01*
X-109709Y24505D01*
X-109633Y24451D01*
X-109477Y24328D01*
X-109324Y24184D01*
X-109175Y24019D01*
X-109113Y23925D01*
X-109051Y23831D01*
X-109045Y23823D01*
X-109040Y23808D01*
X-109024Y23777D01*
X-109009Y23740D01*
X-108988Y23694D01*
X-108963Y23634D01*
X-108938Y23567D01*
X-108916Y23486D01*
X-108894Y23405D01*
X-108874Y23310D01*
X-108861Y23217D01*
X-108843Y23109D01*
X-108840Y22996D01*
X-108838Y22876D01*
X-108850Y22758D01*
X-108864Y22627D01*
X-108870Y22586D01*
X-108885Y22539D01*
X-108902Y22479D01*
X-108921Y22404D01*
X-108949Y22317D01*
X-108984Y22225D01*
X-109029Y22119D01*
X-109081Y22015D01*
X-109141Y21905D01*
X-109216Y21791D01*
X-109296Y21684D01*
X-109390Y21580D01*
X-109498Y21477D01*
X-109611Y21383D01*
X-109744Y21299D01*
X-109752Y21293D01*
X-109783Y21277D01*
X-109835Y21258D01*
X-109910Y21227D01*
X-110007Y21194D01*
X-110119Y21155D01*
X-110258Y21121D01*
X-110410Y21090D01*
X-110592Y21055D01*
X-110785Y21030D01*
X-111007Y21009D01*
X-111247Y20999D01*
X-111507Y20998D01*
X-111786Y21015D01*
X-112091Y21042D01*
X-112414Y21087D01*
X-112428Y21089D01*
X-112462Y21095D01*
X-112523Y21105D01*
X-112598Y21124D01*
X-112694Y21139D01*
X-112802Y21163D01*
X-112925Y21190D01*
X-113054Y21218D01*
X-113195Y21254D01*
X-113337Y21291D01*
X-113632Y21381D01*
X-113918Y21483D01*
X-114056Y21540D01*
X-114180Y21602D01*
X-114187Y21603D01*
X-114205Y21620D01*
X-114244Y21640D01*
X-114290Y21662D01*
X-114340Y21698D01*
X-114404Y21736D01*
X-114467Y21782D01*
X-114543Y21836D01*
X-114699Y21959D01*
X-114850Y22110D01*
X-115000Y22275D01*
X-115063Y22362D01*
X-115125Y22456D01*
X-115131Y22464D01*
X-115136Y22479D01*
X-115152Y22510D01*
X-115167Y22547D01*
X-115195Y22594D01*
X-115213Y22653D01*
X-115238Y22720D01*
X-115260Y22801D01*
X-115282Y22882D01*
X-115302Y22977D01*
X-115321Y23078D01*
X-115333Y23178D01*
X-115336Y23291D01*
X-115338Y23411D01*
X-115325Y23536D01*
X-115312Y23660D01*
X-115299Y23742D01*
X-115285Y23789D01*
X-115270Y23836D01*
X-115236Y23957D01*
X-115194Y24091D01*
X-115129Y24235D01*
X-115057Y24378D01*
X-114964Y24518D01*
X-114963Y24525D01*
X-114954Y24537D01*
X-114937Y24556D01*
X-114912Y24580D01*
X-114860Y24642D01*
X-114777Y24720D01*
X-114678Y24810D01*
X-114559Y24896D01*
X-114418Y24986D01*
X-114266Y25060D01*
X-114259Y25059D01*
X-114243Y25070D01*
X-114221Y25074D01*
X-114190Y25090D01*
X-114153Y25105D01*
X-114101Y25125D01*
X-114042Y25136D01*
X-113982Y25162D01*
X-113835Y25202D01*
X-113668Y25238D01*
X-113472Y25277D01*
X-113264Y25300D01*
X-113257Y25299D01*
X-113236Y25302D01*
X-113207Y25305D01*
X-113158Y25304D01*
X-113101Y25309D01*
X-113030Y25312D01*
X-112953Y25313D01*
X-112862Y25313D01*
D02*
G37*
G36*
X-114278Y20332D02*
X-114154Y20319D01*
X-114147Y20317D01*
X-114133Y20315D01*
X-114112Y20312D01*
X-114078Y20306D01*
X-114045Y20294D01*
X-113998Y20280D01*
X-113898Y20249D01*
X-113785Y20203D01*
X-113662Y20141D01*
X-113541Y20059D01*
X-113423Y19963D01*
X-113417Y19962D01*
X-113412Y19947D01*
X-113375Y19913D01*
X-113329Y19849D01*
X-113266Y19762D01*
X-113207Y19647D01*
X-113136Y19516D01*
X-113084Y19360D01*
X-113035Y19184D01*
X-113034Y19190D01*
X-113024Y19210D01*
X-113006Y19235D01*
X-112985Y19274D01*
X-112957Y19319D01*
X-112921Y19369D01*
X-112832Y19488D01*
X-112726Y19619D01*
X-112594Y19745D01*
X-112447Y19870D01*
X-112277Y19969D01*
X-112269Y19974D01*
X-112254Y19979D01*
X-112231Y19990D01*
X-112194Y20005D01*
X-112149Y20019D01*
X-112097Y20038D01*
X-112038Y20057D01*
X-111970Y20081D01*
X-111818Y20113D01*
X-111639Y20134D01*
X-111442Y20137D01*
X-111337Y20134D01*
X-111227Y20117D01*
X-111220Y20116D01*
X-111193Y20111D01*
X-111153Y20098D01*
X-111091Y20088D01*
X-111024Y20063D01*
X-110943Y20043D01*
X-110858Y20008D01*
X-110765Y19973D01*
X-110661Y19921D01*
X-110557Y19869D01*
X-110455Y19803D01*
X-110347Y19730D01*
X-110241Y19643D01*
X-110144Y19550D01*
X-110042Y19442D01*
X-109955Y19323D01*
X-109950Y19315D01*
X-109939Y19292D01*
X-109917Y19253D01*
X-109890Y19207D01*
X-109852Y19138D01*
X-109821Y19062D01*
X-109780Y18971D01*
X-109746Y18875D01*
X-109714Y18764D01*
X-109678Y18639D01*
X-109657Y18509D01*
X-109637Y18372D01*
X-109619Y18222D01*
X-109615Y18067D01*
X-109628Y17900D01*
X-109649Y17727D01*
X-109655Y17686D01*
X-109670Y17639D01*
X-109681Y17571D01*
X-109700Y17497D01*
X-109729Y17403D01*
X-109766Y17303D01*
X-109804Y17197D01*
X-109850Y17085D01*
X-109911Y16968D01*
X-109972Y16851D01*
X-110047Y16730D01*
X-110129Y16616D01*
X-110224Y16505D01*
X-110326Y16395D01*
X-110439Y16301D01*
X-110447Y16295D01*
X-110471Y16278D01*
X-110503Y16255D01*
X-110556Y16228D01*
X-110618Y16196D01*
X-110687Y16158D01*
X-110771Y16115D01*
X-110868Y16081D01*
X-110973Y16042D01*
X-111084Y16003D01*
X-111209Y15974D01*
X-111332Y15952D01*
X-111467Y15938D01*
X-111616Y15934D01*
X-111763Y15936D01*
X-111915Y15954D01*
X-111922Y15955D01*
X-111942Y15958D01*
X-111976Y15964D01*
X-112016Y15977D01*
X-112071Y15986D01*
X-112132Y16003D01*
X-112198Y16027D01*
X-112271Y16053D01*
X-112424Y16113D01*
X-112586Y16195D01*
X-112745Y16298D01*
X-112820Y16359D01*
X-112893Y16427D01*
X-112899Y16435D01*
X-112912Y16444D01*
X-112929Y16468D01*
X-112952Y16499D01*
X-112982Y16532D01*
X-113009Y16579D01*
X-113050Y16635D01*
X-113082Y16696D01*
X-113158Y16835D01*
X-113230Y17001D01*
X-113284Y17192D01*
X-113319Y17409D01*
X-113320Y17402D01*
X-113330Y17389D01*
X-113348Y17364D01*
X-113366Y17339D01*
X-113386Y17300D01*
X-113421Y17256D01*
X-113492Y17162D01*
X-113579Y17057D01*
X-113687Y16955D01*
X-113802Y16853D01*
X-113934Y16776D01*
X-113941Y16777D01*
X-113949Y16771D01*
X-113971Y16761D01*
X-114001Y16752D01*
X-114076Y16722D01*
X-114172Y16695D01*
X-114295Y16672D01*
X-114438Y16653D01*
X-114594Y16650D01*
X-114759Y16669D01*
X-114766Y16670D01*
X-114787Y16674D01*
X-114827Y16687D01*
X-114874Y16695D01*
X-114928Y16711D01*
X-114995Y16735D01*
X-115068Y16761D01*
X-115154Y16796D01*
X-115238Y16838D01*
X-115322Y16886D01*
X-115412Y16936D01*
X-115507Y17000D01*
X-115593Y17077D01*
X-115680Y17154D01*
X-115763Y17245D01*
X-115838Y17348D01*
X-115844Y17356D01*
X-115855Y17372D01*
X-115872Y17403D01*
X-115899Y17449D01*
X-115926Y17503D01*
X-115957Y17571D01*
X-115987Y17646D01*
X-116022Y17736D01*
X-116049Y17832D01*
X-116074Y17941D01*
X-116098Y18051D01*
X-116114Y18173D01*
X-116127Y18308D01*
X-116127Y18442D01*
X-116118Y18588D01*
X-116100Y18740D01*
X-116087Y18822D01*
X-116071Y18876D01*
X-116054Y18943D01*
X-116027Y19023D01*
X-115999Y19110D01*
X-115962Y19209D01*
X-115918Y19308D01*
X-115873Y19413D01*
X-115814Y19516D01*
X-115749Y19618D01*
X-115675Y19726D01*
X-115590Y19818D01*
X-115504Y19916D01*
X-115400Y19998D01*
X-115392Y20004D01*
X-115376Y20015D01*
X-115344Y20038D01*
X-115304Y20067D01*
X-115251Y20094D01*
X-115189Y20126D01*
X-115113Y20163D01*
X-115037Y20200D01*
X-114947Y20235D01*
X-114850Y20268D01*
X-114748Y20294D01*
X-114639Y20312D01*
X-114524Y20329D01*
X-114403Y20337D01*
X-114278Y20332D01*
D02*
G37*
G36*
X-36152Y111858D02*
X-36145Y111860D01*
X-36130Y111859D01*
X-36105Y111853D01*
X-36072Y111844D01*
X-35992Y111829D01*
X-35883Y111797D01*
X-35756Y111756D01*
X-35622Y111696D01*
X-35474Y111619D01*
X-35333Y111524D01*
X-35331Y111517D01*
X-35313Y111509D01*
X-35299Y111492D01*
X-35270Y111474D01*
X-35238Y111449D01*
X-35195Y111414D01*
X-35155Y111369D01*
X-35103Y111329D01*
X-34995Y111222D01*
X-34880Y111095D01*
X-34748Y110945D01*
X-34624Y110777D01*
X-34622Y110770D01*
X-34608Y110753D01*
X-34592Y110730D01*
X-34568Y110687D01*
X-34535Y110640D01*
X-34497Y110580D01*
X-34457Y110514D01*
X-34412Y110434D01*
X-34369Y110340D01*
X-34316Y110241D01*
X-34258Y110129D01*
X-34198Y110011D01*
X-34140Y109877D01*
X-34079Y109737D01*
X-34013Y109584D01*
X-33951Y109422D01*
X-33946Y109409D01*
X-33934Y109377D01*
X-33911Y109318D01*
X-33884Y109247D01*
X-33856Y109154D01*
X-33825Y109054D01*
X-33787Y108935D01*
X-33747Y108809D01*
X-33708Y108668D01*
X-33669Y108527D01*
X-33599Y108227D01*
X-33551Y107926D01*
X-33531Y107777D01*
X-33523Y107639D01*
X-33520Y107633D01*
X-33526Y107608D01*
X-33518Y107567D01*
X-33522Y107520D01*
X-33526Y107452D01*
X-33529Y107384D01*
X-33535Y107300D01*
X-33544Y107208D01*
X-33573Y107011D01*
X-33621Y106807D01*
X-33689Y106595D01*
X-33739Y106494D01*
X-33790Y106393D01*
X-33794Y106384D01*
X-33805Y106373D01*
X-33823Y106343D01*
X-33848Y106312D01*
X-33877Y106271D01*
X-33917Y106219D01*
X-33963Y106164D01*
X-34021Y106104D01*
X-34080Y106044D01*
X-34152Y105980D01*
X-34227Y105922D01*
X-34312Y105852D01*
X-34408Y105793D01*
X-34511Y105732D01*
X-34618Y105683D01*
X-34739Y105630D01*
X-34778Y105615D01*
X-34826Y105604D01*
X-34887Y105588D01*
X-34960Y105567D01*
X-35050Y105548D01*
X-35148Y105533D01*
X-35261Y105519D01*
X-35378Y105512D01*
X-35503Y105509D01*
X-35639Y105516D01*
X-35772Y105532D01*
X-35909Y105562D01*
X-36051Y105604D01*
X-36190Y105655D01*
X-36329Y105728D01*
X-36338Y105732D01*
X-36368Y105751D01*
X-36411Y105786D01*
X-36474Y105836D01*
X-36552Y105903D01*
X-36641Y105980D01*
X-36740Y106084D01*
X-36844Y106200D01*
X-36964Y106340D01*
X-37083Y106495D01*
X-37211Y106676D01*
X-37341Y106879D01*
X-37472Y107105D01*
X-37596Y107354D01*
X-37725Y107632D01*
X-37848Y107934D01*
X-37853Y107947D01*
X-37865Y107979D01*
X-37887Y108038D01*
X-37908Y108112D01*
X-37943Y108202D01*
X-37976Y108308D01*
X-38014Y108428D01*
X-38054Y108553D01*
X-38094Y108694D01*
X-38133Y108835D01*
X-38203Y109136D01*
X-38257Y109434D01*
X-38277Y109583D01*
X-38285Y109721D01*
X-38287Y109727D01*
X-38282Y109752D01*
X-38284Y109795D01*
X-38288Y109846D01*
X-38282Y109908D01*
X-38281Y109982D01*
X-38273Y110060D01*
X-38264Y110152D01*
X-38235Y110349D01*
X-38180Y110556D01*
X-38112Y110767D01*
X-38068Y110866D01*
X-38018Y110967D01*
X-38014Y110976D01*
X-38003Y110987D01*
X-37985Y111017D01*
X-37960Y111048D01*
X-37933Y111096D01*
X-37891Y111141D01*
X-37845Y111196D01*
X-37786Y111256D01*
X-37727Y111315D01*
X-37655Y111380D01*
X-37577Y111447D01*
X-37496Y111508D01*
X-37400Y111567D01*
X-37297Y111628D01*
X-37183Y111679D01*
X-37069Y111730D01*
X-36991Y111760D01*
X-36943Y111771D01*
X-36895Y111782D01*
X-36774Y111813D01*
X-36636Y111843D01*
X-36479Y111859D01*
X-36319Y111868D01*
X-36152Y111858D01*
D02*
G37*
G36*
X-40668Y110126D02*
X-40529Y110112D01*
X-40394Y110089D01*
X-40263Y110057D01*
X-40134Y110010D01*
X-40125Y110006D01*
X-40107Y109998D01*
X-40069Y109976D01*
X-40024Y109956D01*
X-39968Y109925D01*
X-39900Y109884D01*
X-39830Y109837D01*
X-39755Y109776D01*
X-39680Y109716D01*
X-39599Y109642D01*
X-39517Y109562D01*
X-39438Y109474D01*
X-39361Y109369D01*
X-39291Y109262D01*
X-39231Y109144D01*
X-39175Y109017D01*
X-39172Y109010D01*
X-39170Y109004D01*
X-39162Y108984D01*
X-39153Y108958D01*
X-39132Y108885D01*
X-39110Y108789D01*
X-39088Y108671D01*
X-39069Y108545D01*
X-39052Y108403D01*
X-39054Y108253D01*
X-39052Y108247D01*
X-39056Y108238D01*
X-39055Y108216D01*
X-39058Y108185D01*
X-39070Y108099D01*
X-39087Y107988D01*
X-39116Y107851D01*
X-39153Y107695D01*
X-39201Y107529D01*
X-39270Y107339D01*
X-39274Y107330D01*
X-39275Y107315D01*
X-39294Y107285D01*
X-39307Y107243D01*
X-39331Y107189D01*
X-39359Y107126D01*
X-39389Y107048D01*
X-39432Y106965D01*
X-39482Y106864D01*
X-39537Y106754D01*
X-39593Y106629D01*
X-39662Y106498D01*
X-39732Y106352D01*
X-39816Y106202D01*
X-39908Y106033D01*
X-40003Y105855D01*
X-40007Y105847D01*
X-40019Y105820D01*
X-40048Y105779D01*
X-40072Y105725D01*
X-40113Y105657D01*
X-40152Y105583D01*
X-40243Y105414D01*
X-40339Y105237D01*
X-40426Y105055D01*
X-40468Y104972D01*
X-40507Y104898D01*
X-40539Y104826D01*
X-40563Y104772D01*
X-40567Y104764D01*
X-40583Y104728D01*
X-40600Y104676D01*
X-40626Y104607D01*
X-40656Y104529D01*
X-40683Y104445D01*
X-40732Y104262D01*
X-37782Y105389D01*
X-37512Y104682D01*
X-41473Y103169D01*
X-41478Y103182D01*
X-41491Y103215D01*
X-41511Y103267D01*
X-41529Y103334D01*
X-41552Y103414D01*
X-41565Y103506D01*
X-41580Y103604D01*
X-41582Y103707D01*
X-41585Y103714D01*
X-41583Y103729D01*
X-41584Y103751D01*
X-41584Y103788D01*
X-41576Y103828D01*
X-41574Y103881D01*
X-41562Y104005D01*
X-41544Y104153D01*
X-41512Y104321D01*
X-41469Y104501D01*
X-41407Y104688D01*
X-41403Y104697D01*
X-41401Y104712D01*
X-41390Y104739D01*
X-41370Y104784D01*
X-41349Y104829D01*
X-41321Y104891D01*
X-41296Y104961D01*
X-41260Y105041D01*
X-41220Y105131D01*
X-41173Y105223D01*
X-41125Y105330D01*
X-41064Y105443D01*
X-41005Y105562D01*
X-40934Y105686D01*
X-40865Y105816D01*
X-40785Y105958D01*
X-40775Y105969D01*
X-40755Y106014D01*
X-40724Y106070D01*
X-40682Y106154D01*
X-40628Y106248D01*
X-40567Y106360D01*
X-40496Y106484D01*
X-40429Y106621D01*
X-40286Y106906D01*
X-40153Y107202D01*
X-40089Y107345D01*
X-40032Y107486D01*
X-39985Y107616D01*
X-39948Y107734D01*
X-39944Y107743D01*
X-39942Y107758D01*
X-39933Y107791D01*
X-39926Y107831D01*
X-39911Y107889D01*
X-39902Y107944D01*
X-39882Y108086D01*
X-39869Y108247D01*
X-39867Y108418D01*
X-39888Y108589D01*
X-39911Y108669D01*
X-39934Y108749D01*
X-39937Y108756D01*
X-39942Y108769D01*
X-39952Y108795D01*
X-39968Y108818D01*
X-39983Y108857D01*
X-40013Y108897D01*
X-40070Y108987D01*
X-40153Y109089D01*
X-40259Y109190D01*
X-40316Y109242D01*
X-40384Y109283D01*
X-40451Y109324D01*
X-40532Y109361D01*
X-40541Y109364D01*
X-40550Y109369D01*
X-40574Y109374D01*
X-40608Y109384D01*
X-40650Y109397D01*
X-40699Y109408D01*
X-40812Y109432D01*
X-40955Y109437D01*
X-41111Y109437D01*
X-41285Y109407D01*
X-41381Y109385D01*
X-41524Y109331D01*
X-41560Y109310D01*
X-41605Y109292D01*
X-41652Y109259D01*
X-41761Y109195D01*
X-41883Y109105D01*
X-42003Y108992D01*
X-42060Y108926D01*
X-42116Y108860D01*
X-42161Y108783D01*
X-42204Y108700D01*
X-42208Y108691D01*
X-42212Y108682D01*
X-42217Y108658D01*
X-42233Y108622D01*
X-42240Y108582D01*
X-42251Y108533D01*
X-42266Y108475D01*
X-42273Y108414D01*
X-42283Y108343D01*
X-42284Y108268D01*
X-42276Y108093D01*
X-42251Y107909D01*
X-42220Y107809D01*
X-42187Y107703D01*
X-42969Y107494D01*
X-42974Y107507D01*
X-42977Y107535D01*
X-42986Y107577D01*
X-43001Y107637D01*
X-43016Y107714D01*
X-43028Y107805D01*
X-43044Y107904D01*
X-43048Y108013D01*
X-43053Y108123D01*
X-43056Y108248D01*
X-43044Y108371D01*
X-43032Y108495D01*
X-43009Y108630D01*
X-42975Y108755D01*
X-42934Y108881D01*
X-42876Y109000D01*
X-42872Y109009D01*
X-42857Y109030D01*
X-42839Y109059D01*
X-42812Y109106D01*
X-42773Y109159D01*
X-42723Y109222D01*
X-42666Y109288D01*
X-42599Y109366D01*
X-42523Y109440D01*
X-42434Y109518D01*
X-42339Y109599D01*
X-42228Y109678D01*
X-42111Y109760D01*
X-41982Y109832D01*
X-41838Y109902D01*
X-41685Y109968D01*
X-41601Y110000D01*
X-41540Y110016D01*
X-41466Y110036D01*
X-41377Y110056D01*
X-41274Y110080D01*
X-41170Y110097D01*
X-41050Y110114D01*
X-40927Y110123D01*
X-40796Y110129D01*
X-40668Y110126D01*
D02*
G37*
G36*
X-17203Y116359D02*
X-17043Y116340D01*
X-16880Y116301D01*
X-16874Y116302D01*
X-16859Y116298D01*
X-16836Y116288D01*
X-16804Y116273D01*
X-16728Y116245D01*
X-16627Y116194D01*
X-16509Y116132D01*
X-16387Y116050D01*
X-16254Y115948D01*
X-16132Y115830D01*
X-16131Y115823D01*
X-16115Y115812D01*
X-16104Y115793D01*
X-16079Y115770D01*
X-16051Y115740D01*
X-16015Y115697D01*
X-15984Y115647D01*
X-15939Y115599D01*
X-15852Y115474D01*
X-15760Y115329D01*
X-15657Y115158D01*
X-15564Y114971D01*
X-15563Y114964D01*
X-15552Y114945D01*
X-15540Y114919D01*
X-15524Y114873D01*
X-15500Y114821D01*
X-15473Y114755D01*
X-15445Y114683D01*
X-15415Y114597D01*
X-15388Y114496D01*
X-15353Y114390D01*
X-15316Y114270D01*
X-15278Y114143D01*
X-15243Y114001D01*
X-15207Y113853D01*
X-15169Y113690D01*
X-15136Y113520D01*
X-15134Y113506D01*
X-15127Y113472D01*
X-15115Y113411D01*
X-15101Y113336D01*
X-15089Y113239D01*
X-15077Y113136D01*
X-15060Y113012D01*
X-15042Y112881D01*
X-15028Y112735D01*
X-15014Y112589D01*
X-14997Y112282D01*
X-15002Y111977D01*
X-15008Y111827D01*
X-15024Y111690D01*
X-15023Y111683D01*
X-15033Y111660D01*
X-15032Y111618D01*
X-15044Y111573D01*
X-15060Y111506D01*
X-15075Y111440D01*
X-15095Y111358D01*
X-15120Y111269D01*
X-15182Y111080D01*
X-15266Y110887D01*
X-15369Y110690D01*
X-15436Y110600D01*
X-15504Y110509D01*
X-15509Y110501D01*
X-15521Y110492D01*
X-15545Y110466D01*
X-15575Y110439D01*
X-15610Y110404D01*
X-15658Y110359D01*
X-15713Y110313D01*
X-15782Y110265D01*
X-15850Y110216D01*
X-15932Y110165D01*
X-16015Y110121D01*
X-16111Y110067D01*
X-16216Y110026D01*
X-16328Y109983D01*
X-16443Y109954D01*
X-16571Y109922D01*
X-16612Y109914D01*
X-16661Y109912D01*
X-16723Y109907D01*
X-16800Y109899D01*
X-16891Y109896D01*
X-16990Y109898D01*
X-17105Y109904D01*
X-17220Y109917D01*
X-17344Y109936D01*
X-17477Y109967D01*
X-17605Y110006D01*
X-17735Y110058D01*
X-17868Y110125D01*
X-17995Y110199D01*
X-18120Y110295D01*
X-18128Y110301D01*
X-18154Y110324D01*
X-18190Y110366D01*
X-18244Y110427D01*
X-18309Y110506D01*
X-18383Y110598D01*
X-18462Y110717D01*
X-18545Y110849D01*
X-18639Y111008D01*
X-18729Y111181D01*
X-18824Y111382D01*
X-18916Y111605D01*
X-19006Y111849D01*
X-19085Y112116D01*
X-19164Y112412D01*
X-19232Y112731D01*
X-19235Y112745D01*
X-19241Y112779D01*
X-19253Y112840D01*
X-19261Y112917D01*
X-19279Y113012D01*
X-19293Y113122D01*
X-19310Y113246D01*
X-19328Y113377D01*
X-19342Y113523D01*
X-19356Y113669D01*
X-19373Y113976D01*
X-19375Y114280D01*
X-19368Y114429D01*
X-19352Y114567D01*
X-19354Y114574D01*
X-19344Y114597D01*
X-19338Y114640D01*
X-19334Y114690D01*
X-19317Y114750D01*
X-19303Y114824D01*
X-19282Y114898D01*
X-19257Y114988D01*
X-19194Y115177D01*
X-19104Y115371D01*
X-19001Y115567D01*
X-18940Y115657D01*
X-18873Y115747D01*
X-18867Y115756D01*
X-18855Y115765D01*
X-18832Y115791D01*
X-18802Y115818D01*
X-18767Y115860D01*
X-18718Y115898D01*
X-18663Y115943D01*
X-18595Y115992D01*
X-18527Y116040D01*
X-18444Y116092D01*
X-18356Y116144D01*
X-18265Y116190D01*
X-18160Y116231D01*
X-18048Y116274D01*
X-17927Y116304D01*
X-17806Y116335D01*
X-17724Y116350D01*
X-17675Y116353D01*
X-17626Y116355D01*
X-17501Y116365D01*
X-17360Y116371D01*
X-17203Y116359D01*
D02*
G37*
G36*
X-20618Y109249D02*
X-21388Y109100D01*
X-22334Y114014D01*
X-22345Y113997D01*
X-22373Y113957D01*
X-22425Y113897D01*
X-22500Y113812D01*
X-22587Y113711D01*
X-22699Y113597D01*
X-22824Y113474D01*
X-22968Y113340D01*
X-22975Y113339D01*
X-22986Y113323D01*
X-23004Y113305D01*
X-23035Y113285D01*
X-23071Y113250D01*
X-23114Y113220D01*
X-23212Y113138D01*
X-23323Y113053D01*
X-23446Y112959D01*
X-23577Y112870D01*
X-23703Y112789D01*
X-23846Y113532D01*
X-23840Y113540D01*
X-23821Y113551D01*
X-23791Y113578D01*
X-23747Y113607D01*
X-23698Y113645D01*
X-23638Y113699D01*
X-23571Y113754D01*
X-23504Y113810D01*
X-23347Y113953D01*
X-23181Y114119D01*
X-23010Y114294D01*
X-22856Y114486D01*
X-22851Y114494D01*
X-22840Y114510D01*
X-22817Y114536D01*
X-22789Y114576D01*
X-22763Y114624D01*
X-22723Y114674D01*
X-22643Y114810D01*
X-22551Y114954D01*
X-22463Y115120D01*
X-22389Y115289D01*
X-22331Y115463D01*
X-21833Y115559D01*
X-20618Y109249D01*
D02*
G37*
G36*
X267Y117596D02*
X315Y117589D01*
X440Y117575D01*
X579Y117554D01*
X732Y117513D01*
X884Y117464D01*
X1037Y117395D01*
X1044D01*
X1058Y117388D01*
X1079Y117374D01*
X1106Y117353D01*
X1176Y117311D01*
X1266Y117242D01*
X1370Y117159D01*
X1474Y117055D01*
X1585Y116930D01*
X1682Y116791D01*
Y116784D01*
X1696Y116770D01*
X1703Y116749D01*
X1724Y116721D01*
X1745Y116687D01*
X1773Y116638D01*
X1793Y116583D01*
X1828Y116527D01*
X1891Y116388D01*
X1953Y116229D01*
X2022Y116041D01*
X2078Y115840D01*
Y115833D01*
X2085Y115812D01*
X2092Y115785D01*
X2099Y115736D01*
X2113Y115681D01*
X2127Y115611D01*
X2140Y115535D01*
X2154Y115445D01*
X2161Y115340D01*
X2175Y115229D01*
X2189Y115104D01*
X2203Y114973D01*
X2210Y114827D01*
X2217Y114674D01*
X2224Y114508D01*
Y114334D01*
Y114320D01*
Y114286D01*
Y114223D01*
Y114147D01*
Y114147D01*
D01*
X2217Y114049D01*
X2210Y113945D01*
X2203Y113821D01*
X2196Y113689D01*
X2182Y113543D01*
X2168Y113397D01*
X2127Y113092D01*
X2064Y112793D01*
X2029Y112648D01*
X1988Y112516D01*
Y112509D01*
D01*
Y112509D01*
X1974Y112488D01*
X1967Y112446D01*
X1946Y112405D01*
X1918Y112342D01*
X1891Y112280D01*
X1856Y112204D01*
X1814Y112120D01*
X1717Y111947D01*
X1599Y111773D01*
X1460Y111600D01*
X1377Y111523D01*
X1294Y111447D01*
X1287Y111440D01*
X1273Y111433D01*
X1245Y111412D01*
X1210Y111391D01*
X1169Y111364D01*
X1113Y111329D01*
X1051Y111294D01*
X974Y111260D01*
X898Y111225D01*
X808Y111190D01*
X718Y111162D01*
X614Y111128D01*
X503Y111107D01*
X385Y111086D01*
X267Y111079D01*
X135Y111072D01*
X93D01*
X45Y111079D01*
X-18Y111086D01*
X-94Y111093D01*
X-184Y111107D01*
X-282Y111128D01*
X-393Y111156D01*
X-504Y111190D01*
X-622Y111232D01*
X-747Y111287D01*
X-865Y111350D01*
X-983Y111426D01*
X-1101Y111516D01*
X-1212Y111614D01*
X-1316Y111732D01*
X-1323Y111739D01*
X-1343Y111766D01*
X-1371Y111815D01*
X-1413Y111884D01*
X-1462Y111975D01*
X-1517Y112079D01*
X-1572Y112210D01*
X-1628Y112356D01*
X-1691Y112530D01*
X-1746Y112717D01*
X-1801Y112932D01*
X-1850Y113168D01*
X-1892Y113425D01*
X-1919Y113702D01*
X-1940Y114008D01*
X-1947Y114334D01*
Y114348D01*
Y114383D01*
Y114445D01*
Y114445D01*
D01*
X-1940Y114522D01*
Y114619D01*
Y114619D01*
D01*
X-1937Y114674D01*
X-1933Y114730D01*
X-1926Y114855D01*
X-1919Y114986D01*
D01*
Y114987D01*
X-1906Y115132D01*
X-1892Y115278D01*
X-1850Y115583D01*
X-1795Y115882D01*
X-1760Y116027D01*
X-1718Y116159D01*
Y116166D01*
D01*
Y116166D01*
X-1704Y116187D01*
X-1691Y116229D01*
X-1677Y116277D01*
X-1649Y116333D01*
X-1621Y116402D01*
X-1586Y116472D01*
X-1545Y116555D01*
X-1448Y116728D01*
X-1323Y116902D01*
X-1184Y117075D01*
X-1108Y117152D01*
X-1024Y117228D01*
X-1017Y117235D01*
X-1003Y117242D01*
X-976Y117263D01*
X-941Y117284D01*
X-899Y117318D01*
X-844Y117346D01*
X-781Y117381D01*
X-705Y117415D01*
X-629Y117450D01*
X-538Y117485D01*
X-441Y117520D01*
X-344Y117547D01*
X-233Y117568D01*
X-115Y117589D01*
X10Y117596D01*
X135Y117603D01*
X218D01*
X267Y117596D01*
D02*
G37*
G36*
X12228Y116878D02*
X12162Y116131D01*
X9611Y116354D01*
X9122Y114669D01*
X9130Y114676D01*
X9152Y114688D01*
X9181Y114699D01*
X9225Y114723D01*
X9283Y114746D01*
X9348Y114775D01*
X9420Y114811D01*
X9506Y114838D01*
X9593Y114865D01*
X9693Y114898D01*
X9899Y114943D01*
X10012Y114961D01*
X10124Y114972D01*
X10243Y114969D01*
X10361Y114965D01*
X10395Y114962D01*
X10443Y114951D01*
X10498Y114946D01*
X10566Y114926D01*
X10649Y114912D01*
X10744Y114883D01*
X10838Y114854D01*
X10946Y114809D01*
X11054Y114765D01*
X11167Y114707D01*
X11280Y114641D01*
X11391Y114561D01*
X11502Y114475D01*
X11612Y114375D01*
X11713Y114262D01*
X11720Y114254D01*
X11738Y114232D01*
X11763Y114195D01*
X11794Y114150D01*
X11838Y114091D01*
X11879Y114010D01*
X11921Y113930D01*
X11969Y113835D01*
X12015Y113727D01*
X12053Y113605D01*
X12098Y113482D01*
X12127Y113341D01*
X12150Y113199D01*
X12164Y113045D01*
X12171Y112884D01*
X12163Y112717D01*
X12163Y112710D01*
X12160Y112676D01*
X12156Y112635D01*
X12144Y112573D01*
X12130Y112497D01*
X12109Y112416D01*
X12087Y112320D01*
X12056Y112211D01*
X12019Y112103D01*
X11974Y111982D01*
X11921Y111861D01*
X11862Y111741D01*
X11796Y111621D01*
X11715Y111496D01*
X11628Y111378D01*
X11528Y111268D01*
X11520Y111262D01*
X11497Y111236D01*
X11460Y111205D01*
X11407Y111160D01*
X11339Y111104D01*
X11258Y111048D01*
X11161Y110980D01*
X11052Y110920D01*
X10935Y110860D01*
X10804Y110795D01*
X10660Y110745D01*
X10503Y110703D01*
X10339Y110662D01*
X10164Y110642D01*
X9981Y110630D01*
X9787Y110640D01*
X9704Y110648D01*
X9643Y110660D01*
X9567Y110673D01*
X9485Y110695D01*
X9390Y110717D01*
X9288Y110747D01*
X9179Y110777D01*
X9065Y110822D01*
X8951Y110874D01*
X8837Y110932D01*
X8725Y110998D01*
X8613Y111071D01*
X8509Y111156D01*
X8405Y111249D01*
X8399Y111256D01*
X8386Y111271D01*
X8361Y111302D01*
X8330Y111346D01*
X8286Y111399D01*
X8242Y111458D01*
X8200Y111531D01*
X8152Y111619D01*
X8104Y111707D01*
X8057Y111809D01*
X8019Y111924D01*
X7980Y112039D01*
X7942Y112167D01*
X7919Y112302D01*
X7904Y112449D01*
X7896Y112596D01*
X8724Y112586D01*
X8724Y112580D01*
X8729Y112558D01*
X8733Y112530D01*
X8737Y112488D01*
X8739Y112439D01*
X8755Y112375D01*
X8778Y112240D01*
X8820Y112090D01*
X8883Y111932D01*
X8961Y111785D01*
X9011Y111718D01*
X9060Y111651D01*
X9067Y111651D01*
X9073Y111636D01*
X9093Y111621D01*
X9119Y111598D01*
X9183Y111543D01*
X9276Y111486D01*
X9389Y111421D01*
X9523Y111360D01*
X9672Y111312D01*
X9754Y111298D01*
X9843Y111283D01*
X9899Y111278D01*
X9941Y111282D01*
X9990Y111284D01*
X10046Y111286D01*
X10180Y111310D01*
X10336Y111345D01*
X10415Y111373D01*
X10502Y111407D01*
X10589Y111448D01*
X10670Y111497D01*
X10752Y111552D01*
X10834Y111621D01*
X10842Y111628D01*
X10850Y111641D01*
X10873Y111660D01*
X10903Y111692D01*
X10935Y111738D01*
X10974Y111784D01*
X11014Y111843D01*
X11062Y111908D01*
X11103Y111981D01*
X11145Y112061D01*
X11188Y112155D01*
X11224Y112249D01*
X11261Y112357D01*
X11292Y112473D01*
X11309Y112590D01*
X11328Y112721D01*
X11328Y112728D01*
X11330Y112749D01*
X11333Y112783D01*
X11330Y112832D01*
X11328Y112888D01*
X11327Y112958D01*
X11320Y113028D01*
X11313Y113112D01*
X11286Y113282D01*
X11233Y113468D01*
X11198Y113554D01*
X11151Y113642D01*
X11102Y113730D01*
X11040Y113812D01*
X11034Y113820D01*
X11027Y113827D01*
X11001Y113850D01*
X10976Y113880D01*
X10944Y113911D01*
X10899Y113950D01*
X10853Y113988D01*
X10795Y114035D01*
X10729Y114076D01*
X10663Y114117D01*
X10495Y114194D01*
X10408Y114230D01*
X10306Y114259D01*
X10203Y114275D01*
X10093Y114292D01*
X10030Y114297D01*
X9954Y114297D01*
X9863Y114291D01*
X9750Y114280D01*
X9630Y114256D01*
X9509Y114225D01*
X9386Y114173D01*
X9371Y114167D01*
X9335Y114149D01*
X9276Y114113D01*
X9202Y114070D01*
X9127Y114007D01*
X9038Y113938D01*
X8954Y113855D01*
X8876Y113764D01*
X8152Y113932D01*
X9054Y117155D01*
X12228Y116878D01*
D02*
G37*
G36*
X19007Y116057D02*
X17991Y109712D01*
X17216Y109836D01*
X18008Y114777D01*
X17992Y114765D01*
X17952Y114736D01*
X17883Y114698D01*
X17783Y114644D01*
X17667Y114578D01*
X17522Y114510D01*
X17363Y114437D01*
X17182Y114361D01*
X17175Y114362D01*
X17159Y114350D01*
X17136Y114340D01*
X17100Y114332D01*
X17054Y114311D01*
X17003Y114298D01*
X16884Y114254D01*
X16750Y114212D01*
X16602Y114165D01*
X16449Y114127D01*
X16303Y114094D01*
X16422Y114841D01*
X16430Y114847D01*
X16452Y114850D01*
X16490Y114865D01*
X16541Y114878D01*
X16600Y114897D01*
X16675Y114927D01*
X16757Y114956D01*
X16839Y114985D01*
X17035Y115066D01*
X17248Y115165D01*
X17468Y115271D01*
X17679Y115399D01*
X17686Y115404D01*
X17702Y115416D01*
X17733Y115432D01*
X17773Y115461D01*
X17814Y115497D01*
X17868Y115530D01*
X17990Y115630D01*
X18126Y115735D01*
X18266Y115860D01*
X18392Y115994D01*
X18507Y116138D01*
X19007Y116057D01*
D02*
G37*
G36*
X22932Y115422D02*
X23057Y115409D01*
X23139Y115396D01*
X23186Y115381D01*
X23233Y115366D01*
X23354Y115333D01*
X23488Y115290D01*
X23632Y115225D01*
X23775Y115153D01*
X23915Y115060D01*
X23922Y115059D01*
X23934Y115050D01*
X23953Y115033D01*
X23977Y115008D01*
X24039Y114956D01*
X24117Y114874D01*
X24206Y114775D01*
X24293Y114656D01*
X24383Y114515D01*
X24457Y114362D01*
X24455Y114355D01*
X24467Y114339D01*
X24471Y114318D01*
X24487Y114287D01*
X24502Y114250D01*
X24522Y114197D01*
X24533Y114139D01*
X24559Y114079D01*
X24599Y113932D01*
X24635Y113764D01*
X24674Y113568D01*
X24697Y113361D01*
X24696Y113354D01*
X24699Y113332D01*
X24702Y113304D01*
X24701Y113255D01*
X24706Y113198D01*
X24709Y113127D01*
X24710Y113049D01*
X24710Y112958D01*
X24700Y112854D01*
X24696Y112742D01*
X24690Y112617D01*
X24683Y112485D01*
X24667Y112339D01*
X24649Y112188D01*
X24630Y112022D01*
X24603Y111851D01*
X24600Y111837D01*
X24595Y111803D01*
X24585Y111741D01*
X24573Y111666D01*
X24551Y111571D01*
X24527Y111469D01*
X24501Y111347D01*
X24473Y111218D01*
X24436Y111076D01*
X24400Y110934D01*
X24310Y110640D01*
X24201Y110355D01*
X24144Y110216D01*
X24082Y110093D01*
X24081Y110086D01*
X24064Y110067D01*
X24050Y110028D01*
X24023Y109990D01*
X23986Y109932D01*
X23949Y109875D01*
X23902Y109805D01*
X23848Y109730D01*
X23725Y109574D01*
X23581Y109421D01*
X23416Y109272D01*
X23322Y109209D01*
X23228Y109147D01*
X23220Y109141D01*
X23205Y109137D01*
X23174Y109121D01*
X23137Y109106D01*
X23091Y109085D01*
X23031Y109059D01*
X22964Y109035D01*
X22883Y109013D01*
X22802Y108990D01*
X22707Y108970D01*
X22614Y108957D01*
X22506Y108940D01*
X22393Y108937D01*
X22273Y108935D01*
X22155Y108946D01*
X22024Y108960D01*
X21983Y108967D01*
X21936Y108982D01*
X21876Y108998D01*
X21801Y109017D01*
X21714Y109045D01*
X21622Y109081D01*
X21516Y109126D01*
X21412Y109178D01*
X21302Y109238D01*
X21188Y109312D01*
X21081Y109393D01*
X20977Y109487D01*
X20875Y109594D01*
X20780Y109708D01*
X20696Y109841D01*
X20690Y109849D01*
X20674Y109880D01*
X20654Y109932D01*
X20624Y110007D01*
X20591Y110104D01*
X20552Y110215D01*
X20518Y110354D01*
X20486Y110507D01*
X20452Y110688D01*
X20427Y110882D01*
X20406Y111103D01*
X20396Y111344D01*
X20395Y111604D01*
X20412Y111882D01*
X20439Y112187D01*
X20484Y112510D01*
X20486Y112524D01*
X20492Y112558D01*
X20502Y112620D01*
X20521Y112694D01*
X20536Y112790D01*
X20560Y112899D01*
X20587Y113021D01*
X20615Y113150D01*
X20651Y113292D01*
X20688Y113434D01*
X20778Y113728D01*
X20880Y114014D01*
X20937Y114153D01*
X20999Y114277D01*
X21000Y114283D01*
X21017Y114302D01*
X21037Y114341D01*
X21059Y114386D01*
X21095Y114437D01*
X21133Y114501D01*
X21179Y114564D01*
X21233Y114640D01*
X21356Y114796D01*
X21507Y114947D01*
X21671Y115096D01*
X21759Y115160D01*
X21853Y115222D01*
X21861Y115228D01*
X21876Y115232D01*
X21907Y115249D01*
X21944Y115264D01*
X21991Y115291D01*
X22050Y115310D01*
X22117Y115334D01*
X22198Y115357D01*
X22279Y115379D01*
X22374Y115399D01*
X22475Y115418D01*
X22575Y115430D01*
X22688Y115433D01*
X22808Y115435D01*
X22932Y115422D01*
D02*
G37*
G36*
X38151Y111162D02*
X38294Y111150D01*
X38438Y111122D01*
X38594Y111083D01*
X38753Y111035D01*
X38839Y111005D01*
X38895Y110978D01*
X38965Y110947D01*
X39046Y110904D01*
X39140Y110857D01*
X39231Y110803D01*
X39334Y110738D01*
X39434Y110667D01*
X39538Y110587D01*
X39634Y110502D01*
X39731Y110402D01*
X39820Y110298D01*
X39900Y110189D01*
X39969Y110070D01*
X39973Y110061D01*
X39982Y110044D01*
X39997Y110002D01*
X40018Y109958D01*
X40042Y109898D01*
X40067Y109823D01*
X40090Y109742D01*
X40109Y109647D01*
X40128Y109553D01*
X40142Y109445D01*
X40154Y109331D01*
X40157Y109212D01*
X40148Y109083D01*
X40134Y108956D01*
X40104Y108826D01*
X40065Y108693D01*
X40063Y108686D01*
X40060Y108680D01*
X40054Y108660D01*
X40045Y108634D01*
X40013Y108564D01*
X39968Y108477D01*
X39910Y108372D01*
X39843Y108263D01*
X39764Y108143D01*
X39667Y108030D01*
X39664Y108024D01*
X39656Y108019D01*
X39642Y108002D01*
X39620Y107980D01*
X39556Y107922D01*
X39471Y107848D01*
X39361Y107762D01*
X39232Y107667D01*
X39088Y107570D01*
X38914Y107468D01*
X38905Y107464D01*
X38894Y107453D01*
X38861Y107443D01*
X38823Y107419D01*
X38770Y107393D01*
X38708Y107363D01*
X38636Y107322D01*
X38550Y107286D01*
X38446Y107241D01*
X38333Y107192D01*
X38210Y107132D01*
X38073Y107077D01*
X37925Y107010D01*
X37764Y106948D01*
X37586Y106878D01*
X37398Y106804D01*
X37389Y106799D01*
X37363Y106786D01*
X37315Y106774D01*
X37262Y106748D01*
X37187Y106722D01*
X37110Y106691D01*
X36931Y106620D01*
X36744Y106545D01*
X36560Y106462D01*
X36474Y106426D01*
X36397Y106394D01*
X36327Y106359D01*
X36274Y106334D01*
X36265Y106329D01*
X36229Y106312D01*
X36183Y106284D01*
X36119Y106248D01*
X36046Y106207D01*
X35971Y106159D01*
X35816Y106052D01*
X38800Y105018D01*
X38552Y104303D01*
X34545Y105691D01*
X34550Y105704D01*
X34561Y105737D01*
X34580Y105789D01*
X34609Y105853D01*
X34642Y105929D01*
X34692Y106008D01*
X34743Y106093D01*
X34808Y106173D01*
X34810Y106179D01*
X34821Y106190D01*
X34835Y106208D01*
X34859Y106236D01*
X34890Y106262D01*
X34926Y106301D01*
X35014Y106388D01*
X35123Y106490D01*
X35256Y106598D01*
X35404Y106708D01*
X35572Y106811D01*
X35581Y106816D01*
X35592Y106827D01*
X35619Y106840D01*
X35663Y106861D01*
X35707Y106882D01*
X35769Y106912D01*
X35833Y106949D01*
X35912Y106988D01*
X36001Y107030D01*
X36096Y107071D01*
X36202Y107122D01*
X36321Y107169D01*
X36442Y107223D01*
X36576Y107272D01*
X36713Y107327D01*
X36865Y107385D01*
X36881Y107387D01*
X36925Y107408D01*
X36984Y107432D01*
X37070Y107468D01*
X37172Y107506D01*
X37291Y107553D01*
X37425Y107602D01*
X37564Y107664D01*
X37857Y107790D01*
X38149Y107932D01*
X38290Y108000D01*
X38425Y108071D01*
X38544Y108140D01*
X38648Y108207D01*
X38657Y108211D01*
X38668Y108222D01*
X38697Y108241D01*
X38728Y108267D01*
X38776Y108302D01*
X38819Y108339D01*
X38925Y108434D01*
X39038Y108549D01*
X39150Y108679D01*
X39244Y108823D01*
X39277Y108900D01*
X39311Y108976D01*
X39313Y108983D01*
X39318Y108996D01*
X39327Y109022D01*
X39329Y109050D01*
X39343Y109090D01*
X39346Y109140D01*
X39360Y109245D01*
X39362Y109377D01*
X39346Y109522D01*
X39336Y109599D01*
X39310Y109674D01*
X39285Y109749D01*
X39246Y109828D01*
X39242Y109837D01*
X39238Y109846D01*
X39223Y109866D01*
X39203Y109895D01*
X39180Y109932D01*
X39149Y109972D01*
X39078Y110063D01*
X38971Y110159D01*
X38852Y110259D01*
X38699Y110348D01*
X38612Y110393D01*
X38468Y110443D01*
X38426Y110450D01*
X38380Y110466D01*
X38323Y110471D01*
X38198Y110492D01*
X38047Y110501D01*
X37882Y110492D01*
X37797Y110477D01*
X37711Y110463D01*
X37627Y110433D01*
X37541Y110397D01*
X37532Y110393D01*
X37523Y110388D01*
X37503Y110373D01*
X37468Y110356D01*
X37437Y110330D01*
X37397Y110300D01*
X37348Y110265D01*
X37304Y110222D01*
X37251Y110174D01*
X37202Y110118D01*
X37095Y109978D01*
X36997Y109822D01*
X36956Y109725D01*
X36913Y109623D01*
X36180Y109965D01*
X36184Y109978D01*
X36200Y110002D01*
X36220Y110039D01*
X36247Y110096D01*
X36285Y110163D01*
X36334Y110242D01*
X36386Y110327D01*
X36453Y110414D01*
X36520Y110501D01*
X36597Y110599D01*
X36686Y110686D01*
X36775Y110772D01*
X36879Y110861D01*
X36985Y110934D01*
X37098Y111005D01*
X37220Y111059D01*
X37228Y111063D01*
X37253Y111070D01*
X37286Y111080D01*
X37336Y111099D01*
X37400Y111114D01*
X37479Y111131D01*
X37565Y111145D01*
X37666Y111161D01*
X37772Y111169D01*
X37890Y111172D01*
X38015Y111173D01*
X38151Y111162D01*
D02*
G37*
G36*
X42952Y109522D02*
X43064Y109505D01*
X43182Y109486D01*
X43302Y109452D01*
X43423Y109418D01*
X43501Y109390D01*
X43545Y109368D01*
X43589Y109346D01*
X43702Y109292D01*
X43826Y109227D01*
X43957Y109137D01*
X44085Y109041D01*
X44207Y108926D01*
X44214Y108923D01*
X44224Y108912D01*
X44240Y108893D01*
X44259Y108864D01*
X44311Y108802D01*
X44374Y108707D01*
X44445Y108594D01*
X44509Y108461D01*
X44573Y108307D01*
X44619Y108144D01*
X44617Y108138D01*
X44626Y108120D01*
X44625Y108098D01*
X44636Y108065D01*
X44644Y108025D01*
X44655Y107970D01*
X44656Y107911D01*
X44671Y107847D01*
X44684Y107696D01*
X44691Y107524D01*
X44695Y107325D01*
X44682Y107116D01*
X44680Y107110D01*
X44679Y107088D01*
X44677Y107059D01*
X44668Y107011D01*
X44663Y106954D01*
X44653Y106884D01*
X44641Y106807D01*
X44625Y106717D01*
X44597Y106617D01*
X44574Y106507D01*
X44546Y106385D01*
X44516Y106256D01*
X44475Y106116D01*
X44432Y105969D01*
X44384Y105809D01*
X44327Y105645D01*
X44322Y105632D01*
X44311Y105599D01*
X44291Y105541D01*
X44266Y105468D01*
X44227Y105379D01*
X44187Y105283D01*
X44139Y105167D01*
X44089Y105045D01*
X44029Y104911D01*
X43968Y104778D01*
X43829Y104503D01*
X43672Y104242D01*
X43591Y104115D01*
X43509Y104004D01*
X43507Y103998D01*
X43487Y103983D01*
X43467Y103946D01*
X43433Y103913D01*
X43387Y103863D01*
X43340Y103813D01*
X43282Y103753D01*
X43216Y103687D01*
X43067Y103555D01*
X42899Y103430D01*
X42711Y103311D01*
X42607Y103267D01*
X42503Y103222D01*
X42495Y103217D01*
X42479Y103215D01*
X42446Y103205D01*
X42407Y103196D01*
X42358Y103184D01*
X42294Y103169D01*
X42224Y103157D01*
X42140Y103149D01*
X42057Y103141D01*
X41960Y103138D01*
X41866Y103141D01*
X41756Y103142D01*
X41645Y103159D01*
X41526Y103178D01*
X41413Y103210D01*
X41286Y103247D01*
X41246Y103260D01*
X41203Y103283D01*
X41146Y103310D01*
X41076Y103341D01*
X40995Y103384D01*
X40910Y103435D01*
X40815Y103498D01*
X40721Y103567D01*
X40623Y103645D01*
X40523Y103738D01*
X40432Y103836D01*
X40346Y103947D01*
X40264Y104071D01*
X40191Y104199D01*
X40131Y104344D01*
X40126Y104353D01*
X40116Y104386D01*
X40106Y104441D01*
X40089Y104520D01*
X40073Y104622D01*
X40054Y104738D01*
X40045Y104881D01*
X40040Y105037D01*
X40038Y105221D01*
X40047Y105416D01*
X40065Y105638D01*
X40096Y105877D01*
X40141Y106133D01*
X40205Y106404D01*
X40285Y106700D01*
X40386Y107010D01*
X40390Y107023D01*
X40402Y107056D01*
X40422Y107115D01*
X40453Y107185D01*
X40485Y107277D01*
X40528Y107379D01*
X40576Y107495D01*
X40625Y107618D01*
X40686Y107751D01*
X40747Y107884D01*
X40886Y108159D01*
X41036Y108423D01*
X41117Y108549D01*
X41199Y108660D01*
X41202Y108667D01*
X41221Y108682D01*
X41248Y108716D01*
X41277Y108758D01*
X41322Y108801D01*
X41371Y108858D01*
X41426Y108912D01*
X41493Y108977D01*
X41641Y109109D01*
X41816Y109232D01*
X42004Y109351D01*
X42101Y109398D01*
X42205Y109443D01*
X42214Y109447D01*
X42229Y109449D01*
X42262Y109460D01*
X42302Y109468D01*
X42352Y109487D01*
X42414Y109495D01*
X42484Y109508D01*
X42568Y109516D01*
X42651Y109523D01*
X42748Y109527D01*
X42851Y109528D01*
X42952Y109522D01*
D02*
G37*
G36*
X60680Y100524D02*
X60752Y100524D01*
X60835Y100517D01*
X60919Y100510D01*
X61014Y100497D01*
X61116Y100480D01*
X61215Y100457D01*
X61322Y100421D01*
X61435Y100382D01*
X61547Y100327D01*
X61660Y100273D01*
X61733Y100232D01*
X61772Y100202D01*
X61811Y100173D01*
X61913Y100100D01*
X62024Y100014D01*
X62138Y99904D01*
X62247Y99787D01*
X62347Y99652D01*
X62353Y99648D01*
X62362Y99636D01*
X62373Y99613D01*
X62388Y99582D01*
X62428Y99512D01*
X62473Y99407D01*
X62523Y99284D01*
X62564Y99142D01*
X62600Y98979D01*
X62617Y98810D01*
X62614Y98804D01*
X62619Y98786D01*
X62615Y98764D01*
X62620Y98729D01*
X62621Y98689D01*
X62622Y98633D01*
X62613Y98575D01*
X62616Y98509D01*
X62603Y98357D01*
X62581Y98188D01*
X62550Y97990D01*
X62501Y97787D01*
X62497Y97781D01*
X62493Y97760D01*
X62486Y97732D01*
X62468Y97686D01*
X62453Y97631D01*
X62432Y97563D01*
X62407Y97490D01*
X62375Y97404D01*
X62330Y97310D01*
X62288Y97206D01*
X62240Y97091D01*
X62188Y96969D01*
X62123Y96838D01*
X62055Y96701D01*
X61980Y96552D01*
X61896Y96400D01*
X61889Y96388D01*
X61872Y96358D01*
X61842Y96303D01*
X61804Y96237D01*
X61751Y96155D01*
X61694Y96068D01*
X61628Y95962D01*
X61557Y95850D01*
X61474Y95730D01*
X61391Y95609D01*
X61207Y95362D01*
X61007Y95132D01*
X60906Y95021D01*
X60805Y94927D01*
X60802Y94920D01*
X60780Y94909D01*
X60753Y94876D01*
X60715Y94850D01*
X60660Y94809D01*
X60605Y94768D01*
X60538Y94718D01*
X60461Y94665D01*
X60292Y94561D01*
X60104Y94467D01*
X59899Y94383D01*
X59789Y94356D01*
X59679Y94330D01*
X59670Y94327D01*
X59654Y94328D01*
X59620Y94323D01*
X59579Y94322D01*
X59529Y94318D01*
X59464Y94315D01*
X59392Y94315D01*
X59309Y94322D01*
X59225Y94328D01*
X59130Y94342D01*
X59037Y94362D01*
X58929Y94382D01*
X58822Y94418D01*
X58709Y94457D01*
X58603Y94508D01*
X58484Y94566D01*
X58448Y94587D01*
X58408Y94616D01*
X58357Y94653D01*
X58294Y94696D01*
X58222Y94752D01*
X58147Y94817D01*
X58064Y94896D01*
X57983Y94980D01*
X57901Y95074D01*
X57819Y95183D01*
X57746Y95295D01*
X57680Y95419D01*
X57621Y95555D01*
X57571Y95694D01*
X57537Y95848D01*
X57535Y95857D01*
X57530Y95892D01*
X57529Y95948D01*
X57527Y96029D01*
X57528Y96131D01*
X57530Y96249D01*
X57546Y96391D01*
X57568Y96545D01*
X57598Y96728D01*
X57641Y96918D01*
X57697Y97133D01*
X57769Y97363D01*
X57858Y97608D01*
X57968Y97864D01*
X58099Y98141D01*
X58251Y98429D01*
X58258Y98441D01*
X58275Y98471D01*
X58305Y98526D01*
X58348Y98589D01*
X58396Y98674D01*
X58456Y98768D01*
X58522Y98874D01*
X58593Y98985D01*
X58676Y99106D01*
X58759Y99227D01*
X58944Y99473D01*
X59137Y99707D01*
X59238Y99818D01*
X59339Y99912D01*
X59342Y99919D01*
X59364Y99930D01*
X59397Y99960D01*
X59433Y99995D01*
X59484Y100030D01*
X59542Y100077D01*
X59606Y100121D01*
X59683Y100174D01*
X59852Y100278D01*
X60046Y100369D01*
X60251Y100453D01*
X60355Y100483D01*
X60465Y100509D01*
X60474Y100511D01*
X60490Y100511D01*
X60524Y100515D01*
X60565Y100517D01*
X60618Y100527D01*
X60680Y100524D01*
D02*
G37*
G36*
X56334Y102991D02*
X56424Y102980D01*
X56529Y102970D01*
X56637Y102949D01*
X56751Y102926D01*
X56874Y102889D01*
X56993Y102847D01*
X57115Y102795D01*
X57239Y102733D01*
X57318Y102689D01*
X57357Y102659D01*
X57396Y102630D01*
X57505Y102553D01*
X57619Y102458D01*
X57744Y102341D01*
X57863Y102211D01*
X57971Y102064D01*
X57977Y102060D01*
X57986Y102048D01*
X57997Y102025D01*
X58017Y101990D01*
X58060Y101911D01*
X58112Y101803D01*
X58165Y101670D01*
X58211Y101525D01*
X58251Y101368D01*
X58268Y101199D01*
X58265Y101193D01*
X58267Y101184D01*
X58266Y101153D01*
X58265Y101122D01*
X58266Y101081D01*
X58264Y101035D01*
X58250Y100924D01*
X58225Y100794D01*
X58194Y100653D01*
X58144Y100506D01*
X58073Y100363D01*
X58069Y100357D01*
X58062Y100345D01*
X58052Y100327D01*
X58039Y100302D01*
X57986Y100236D01*
X57927Y100158D01*
X57845Y100069D01*
X57748Y99980D01*
X57635Y99892D01*
X57505Y99813D01*
X57501Y99807D01*
X57492Y99805D01*
X57441Y99785D01*
X57368Y99754D01*
X57265Y99725D01*
X57142Y99690D01*
X56995Y99668D01*
X56839Y99660D01*
X56665Y99661D01*
X56671Y99658D01*
X56686Y99642D01*
X56707Y99622D01*
X56737Y99590D01*
X56766Y99557D01*
X56805Y99512D01*
X56893Y99399D01*
X56977Y99265D01*
X57061Y99115D01*
X57131Y98941D01*
X57169Y98753D01*
X57171Y98744D01*
X57171Y98728D01*
X57173Y98703D01*
X57174Y98663D01*
X57182Y98619D01*
X57182Y98563D01*
X57179Y98501D01*
X57170Y98427D01*
X57160Y98353D01*
X57148Y98273D01*
X57112Y98094D01*
X57044Y97901D01*
X57002Y97798D01*
X56948Y97701D01*
X56945Y97695D01*
X56931Y97670D01*
X56902Y97631D01*
X56875Y97583D01*
X56825Y97523D01*
X56773Y97457D01*
X56717Y97385D01*
X56642Y97307D01*
X56558Y97227D01*
X56467Y97150D01*
X56367Y97071D01*
X56255Y96998D01*
X56134Y96923D01*
X56004Y96860D01*
X55868Y96801D01*
X55717Y96758D01*
X55707Y96755D01*
X55679Y96747D01*
X55635Y96740D01*
X55576Y96733D01*
X55507Y96724D01*
X55417Y96718D01*
X55317Y96710D01*
X55208Y96715D01*
X55090Y96717D01*
X54960Y96726D01*
X54827Y96745D01*
X54686Y96776D01*
X54542Y96816D01*
X54395Y96866D01*
X54245Y96926D01*
X54090Y97004D01*
X54060Y97021D01*
X54021Y97050D01*
X53972Y97078D01*
X53909Y97121D01*
X53843Y97173D01*
X53771Y97229D01*
X53690Y97298D01*
X53607Y97376D01*
X53527Y97461D01*
X53440Y97548D01*
X53361Y97648D01*
X53288Y97760D01*
X53221Y97869D01*
X53155Y97993D01*
X53108Y98122D01*
X53106Y98132D01*
X53100Y98151D01*
X53090Y98188D01*
X53073Y98245D01*
X53061Y98308D01*
X53049Y98386D01*
X53040Y98470D01*
X53032Y98570D01*
X53024Y98670D01*
X53026Y98788D01*
X53028Y98906D01*
X53043Y99032D01*
X53067Y99162D01*
X53095Y99297D01*
X53138Y99432D01*
X53191Y99569D01*
X53927Y99279D01*
X53924Y99273D01*
X53920Y99251D01*
X53909Y99218D01*
X53897Y99168D01*
X53882Y99113D01*
X53864Y99052D01*
X53836Y98901D01*
X53813Y98731D01*
X53802Y98554D01*
X53816Y98380D01*
X53834Y98298D01*
X53852Y98217D01*
X53858Y98213D01*
X53857Y98198D01*
X53869Y98176D01*
X53877Y98147D01*
X53917Y98077D01*
X53975Y97981D01*
X54051Y97875D01*
X54146Y97775D01*
X54269Y97667D01*
X54408Y97574D01*
X54456Y97547D01*
X54496Y97533D01*
X54536Y97519D01*
X54593Y97494D01*
X54716Y97458D01*
X54870Y97420D01*
X55043Y97403D01*
X55133Y97408D01*
X55224Y97413D01*
X55317Y97425D01*
X55418Y97448D01*
X55427Y97451D01*
X55440Y97460D01*
X55468Y97468D01*
X55506Y97479D01*
X55547Y97496D01*
X55595Y97524D01*
X55649Y97550D01*
X55716Y97584D01*
X55844Y97672D01*
X55970Y97784D01*
X56104Y97925D01*
X56157Y98006D01*
X56214Y98094D01*
X56217Y98100D01*
X56224Y98112D01*
X56241Y98142D01*
X56252Y98176D01*
X56269Y98222D01*
X56287Y98267D01*
X56329Y98387D01*
X56358Y98538D01*
X56374Y98695D01*
X56375Y98782D01*
X56366Y98867D01*
X56351Y98954D01*
X56331Y99045D01*
X56328Y99055D01*
X56325Y99064D01*
X56317Y99092D01*
X56303Y99124D01*
X56286Y99165D01*
X56263Y99210D01*
X56206Y99321D01*
X56121Y99440D01*
X56015Y99563D01*
X55883Y99683D01*
X55802Y99737D01*
X55720Y99790D01*
X55684Y99810D01*
X55638Y99828D01*
X55584Y99858D01*
X55504Y99887D01*
X55418Y99918D01*
X55311Y99954D01*
X55195Y99987D01*
X55602Y100547D01*
X55614Y100540D01*
X55641Y100517D01*
X55674Y100491D01*
X55753Y100447D01*
X55786Y100436D01*
X55829Y100413D01*
X55875Y100395D01*
X55988Y100356D01*
X56123Y100313D01*
X56280Y100281D01*
X56449Y100258D01*
X56627Y100262D01*
X56633Y100259D01*
X56652Y100264D01*
X56670Y100270D01*
X56705Y100275D01*
X56796Y100295D01*
X56906Y100337D01*
X57021Y100400D01*
X57149Y100488D01*
X57211Y100541D01*
X57267Y100613D01*
X57323Y100685D01*
X57376Y100767D01*
X57379Y100773D01*
X57386Y100785D01*
X57396Y100803D01*
X57407Y100837D01*
X57438Y100907D01*
X57471Y101008D01*
X57494Y101122D01*
X57503Y101252D01*
X57497Y101398D01*
X57488Y101467D01*
X57466Y101542D01*
X57461Y101561D01*
X57438Y101606D01*
X57407Y101679D01*
X57361Y101768D01*
X57288Y101864D01*
X57196Y101971D01*
X57082Y102066D01*
X56944Y102159D01*
X56907Y102179D01*
X56874Y102190D01*
X56837Y102210D01*
X56797Y102225D01*
X56690Y102260D01*
X56570Y102287D01*
X56428Y102303D01*
X56285Y102303D01*
X56129Y102279D01*
X56110Y102274D01*
X56059Y102254D01*
X55980Y102226D01*
X55885Y102169D01*
X55767Y102099D01*
X55638Y101996D01*
X55505Y101872D01*
X55371Y101716D01*
X54753Y102219D01*
X54756Y102225D01*
X54776Y102246D01*
X54802Y102279D01*
X54841Y102320D01*
X54890Y102365D01*
X54945Y102421D01*
X55010Y102481D01*
X55084Y102543D01*
X55261Y102675D01*
X55351Y102736D01*
X55456Y102796D01*
X55564Y102848D01*
X55678Y102895D01*
X55798Y102940D01*
X55917Y102969D01*
X55927Y102971D01*
X55945Y102977D01*
X55986Y102978D01*
X56030Y102985D01*
X56095Y102989D01*
X56160Y102992D01*
X56241Y102995D01*
X56334Y102991D01*
D02*
G37*
G36*
X75419Y90223D02*
X72801Y87002D01*
X73475Y86455D01*
X73019Y85895D01*
X72346Y86442D01*
X71379Y85252D01*
X70770Y85747D01*
X71737Y86937D01*
X69572Y88696D01*
X70028Y89257D01*
X74918Y90630D01*
X75419Y90223D01*
D02*
G37*
G36*
X77235Y88309D02*
X77269Y88308D01*
X77309Y88302D01*
X77364Y88303D01*
X77424Y88289D01*
X77495Y88277D01*
X77576Y88256D01*
X77657Y88234D01*
X77749Y88204D01*
X77846Y88170D01*
X77939Y88130D01*
X78038Y88076D01*
X78143Y88018D01*
X78244Y87945D01*
X78346Y87871D01*
X78410Y87819D01*
X78443Y87783D01*
X78477Y87747D01*
X78565Y87657D01*
X78659Y87554D01*
X78752Y87425D01*
X78840Y87291D01*
X78914Y87141D01*
X78920Y87136D01*
X78926Y87122D01*
X78934Y87098D01*
X78942Y87065D01*
X78970Y86989D01*
X78996Y86878D01*
X79024Y86748D01*
X79039Y86601D01*
X79046Y86434D01*
X79034Y86265D01*
X79030Y86260D01*
X79032Y86240D01*
X79024Y86220D01*
X79023Y86185D01*
X79017Y86145D01*
X79008Y86090D01*
X78989Y86034D01*
X78981Y85969D01*
X78942Y85821D01*
X78890Y85658D01*
X78826Y85469D01*
X78742Y85278D01*
X78737Y85273D01*
X78730Y85252D01*
X78717Y85226D01*
X78692Y85184D01*
X78668Y85132D01*
X78635Y85070D01*
X78598Y85001D01*
X78552Y84923D01*
X78491Y84838D01*
X78432Y84743D01*
X78364Y84637D01*
X78292Y84526D01*
X78205Y84408D01*
X78114Y84285D01*
X78014Y84152D01*
X77905Y84017D01*
X77896Y84006D01*
X77874Y83979D01*
X77835Y83931D01*
X77787Y83872D01*
X77720Y83801D01*
X77649Y83724D01*
X77565Y83632D01*
X77477Y83534D01*
X77374Y83429D01*
X77271Y83325D01*
X77046Y83114D01*
X76810Y82922D01*
X76691Y82831D01*
X76575Y82755D01*
X76571Y82750D01*
X76547Y82742D01*
X76515Y82714D01*
X76473Y82695D01*
X76412Y82664D01*
X76351Y82633D01*
X76276Y82596D01*
X76191Y82557D01*
X76006Y82484D01*
X75805Y82424D01*
X75588Y82377D01*
X75475Y82370D01*
X75363Y82363D01*
X75353Y82362D01*
X75338Y82366D01*
X75303Y82367D01*
X75263Y82373D01*
X75213Y82377D01*
X75148Y82385D01*
X75078Y82398D01*
X74997Y82419D01*
X74915Y82440D01*
X74824Y82470D01*
X74736Y82506D01*
X74633Y82544D01*
X74534Y82598D01*
X74429Y82657D01*
X74334Y82726D01*
X74227Y82803D01*
X74195Y82830D01*
X74161Y82866D01*
X74117Y82910D01*
X74062Y82964D01*
X74001Y83032D01*
X73939Y83109D01*
X73870Y83201D01*
X73806Y83298D01*
X73740Y83404D01*
X73678Y83526D01*
X73626Y83649D01*
X73583Y83783D01*
X73548Y83927D01*
X73523Y84073D01*
X73517Y84230D01*
X73516Y84240D01*
X73517Y84274D01*
X73526Y84329D01*
X73538Y84409D01*
X73557Y84510D01*
X73580Y84626D01*
X73620Y84763D01*
X73669Y84911D01*
X73729Y85085D01*
X73805Y85266D01*
X73897Y85468D01*
X74008Y85682D01*
X74138Y85907D01*
X74291Y86140D01*
X74468Y86390D01*
X74668Y86648D01*
X74677Y86659D01*
X74699Y86685D01*
X74738Y86734D01*
X74792Y86789D01*
X74853Y86864D01*
X74928Y86946D01*
X75013Y87038D01*
X75101Y87137D01*
X75204Y87241D01*
X75307Y87345D01*
X75532Y87556D01*
X75763Y87752D01*
X75882Y87844D01*
X75997Y87920D01*
X76001Y87925D01*
X76025Y87932D01*
X76062Y87956D01*
X76104Y87985D01*
X76160Y88011D01*
X76226Y88047D01*
X76296Y88079D01*
X76381Y88117D01*
X76566Y88191D01*
X76772Y88247D01*
X76990Y88294D01*
X77097Y88305D01*
X77210Y88311D01*
X77219Y88313D01*
X77235Y88309D01*
D02*
G37*
G36*
X90118Y75424D02*
X89551Y74933D01*
X87875Y76868D01*
X86351Y75999D01*
X86361Y75998D01*
X86385Y75991D01*
X86414Y75979D01*
X86462Y75966D01*
X86519Y75942D01*
X86586Y75918D01*
X86663Y75893D01*
X86744Y75852D01*
X86825Y75812D01*
X86920Y75766D01*
X87099Y75655D01*
X87192Y75589D01*
X87281Y75519D01*
X87363Y75434D01*
X87446Y75349D01*
X87469Y75323D01*
X87495Y75282D01*
X87532Y75240D01*
X87567Y75178D01*
X87616Y75111D01*
X87664Y75024D01*
X87712Y74937D01*
X87758Y74830D01*
X87805Y74724D01*
X87845Y74603D01*
X87880Y74477D01*
X87905Y74342D01*
X87925Y74203D01*
X87934Y74055D01*
X87928Y73903D01*
X87927Y73893D01*
X87925Y73864D01*
X87917Y73820D01*
X87908Y73766D01*
X87898Y73693D01*
X87872Y73607D01*
X87846Y73520D01*
X87814Y73419D01*
X87772Y73309D01*
X87715Y73195D01*
X87662Y73076D01*
X87584Y72953D01*
X87502Y72836D01*
X87405Y72715D01*
X87298Y72595D01*
X87176Y72481D01*
X87171Y72476D01*
X87145Y72453D01*
X87113Y72426D01*
X87062Y72391D01*
X86999Y72346D01*
X86927Y72302D01*
X86845Y72249D01*
X86747Y72192D01*
X86645Y72140D01*
X86528Y72084D01*
X86406Y72034D01*
X86280Y71989D01*
X86149Y71949D01*
X86004Y71915D01*
X85860Y71891D01*
X85711Y71882D01*
X85702Y71883D01*
X85667Y71880D01*
X85618Y71884D01*
X85550Y71889D01*
X85462Y71895D01*
X85364Y71912D01*
X85248Y71930D01*
X85127Y71963D01*
X85002Y72002D01*
X84862Y72046D01*
X84724Y72110D01*
X84582Y72189D01*
X84436Y72274D01*
X84296Y72382D01*
X84157Y72500D01*
X84024Y72643D01*
X83970Y72706D01*
X83934Y72757D01*
X83890Y72820D01*
X83846Y72892D01*
X83792Y72974D01*
X83740Y73067D01*
X83683Y73164D01*
X83632Y73276D01*
X83586Y73392D01*
X83546Y73513D01*
X83510Y73639D01*
X83480Y73769D01*
X83465Y73903D01*
X83456Y74041D01*
X83456Y74051D01*
X83458Y74071D01*
X83460Y74110D01*
X83469Y74163D01*
X83474Y74232D01*
X83484Y74305D01*
X83505Y74387D01*
X83532Y74484D01*
X83558Y74580D01*
X83595Y74686D01*
X83647Y74795D01*
X83700Y74905D01*
X83762Y75023D01*
X83839Y75136D01*
X83931Y75252D01*
X84027Y75363D01*
X84615Y74780D01*
X84610Y74775D01*
X84599Y74756D01*
X84583Y74733D01*
X84556Y74700D01*
X84523Y74664D01*
X84490Y74607D01*
X84413Y74494D01*
X84339Y74357D01*
X84274Y74199D01*
X84228Y74040D01*
X84217Y73957D01*
X84206Y73874D01*
X84211Y73869D01*
X84205Y73855D01*
X84208Y73830D01*
X84210Y73795D01*
X84219Y73711D01*
X84246Y73606D01*
X84281Y73480D01*
X84335Y73344D01*
X84409Y73206D01*
X84458Y73138D01*
X84512Y73065D01*
X84549Y73023D01*
X84581Y72996D01*
X84618Y72964D01*
X84660Y72927D01*
X84772Y72850D01*
X84909Y72766D01*
X84985Y72731D01*
X85071Y72696D01*
X85163Y72664D01*
X85254Y72643D01*
X85352Y72626D01*
X85459Y72619D01*
X85469Y72618D01*
X85484Y72622D01*
X85514Y72620D01*
X85558Y72621D01*
X85613Y72632D01*
X85672Y72638D01*
X85742Y72652D01*
X85822Y72666D01*
X85902Y72690D01*
X85988Y72718D01*
X86084Y72756D01*
X86176Y72798D01*
X86278Y72850D01*
X86381Y72912D01*
X86474Y72984D01*
X86579Y73065D01*
X86584Y73069D01*
X86600Y73083D01*
X86626Y73106D01*
X86658Y73143D01*
X86695Y73184D01*
X86743Y73235D01*
X86787Y73291D01*
X86840Y73356D01*
X86939Y73497D01*
X87030Y73667D01*
X87066Y73753D01*
X87092Y73850D01*
X87119Y73946D01*
X87131Y74049D01*
X87132Y74058D01*
X87133Y74068D01*
X87130Y74103D01*
X87133Y74142D01*
X87131Y74186D01*
X87126Y74246D01*
X87120Y74305D01*
X87111Y74380D01*
X87091Y74455D01*
X87072Y74530D01*
X87006Y74702D01*
X86968Y74788D01*
X86915Y74881D01*
X86853Y74964D01*
X86785Y75052D01*
X86744Y75100D01*
X86689Y75153D01*
X86619Y75212D01*
X86531Y75282D01*
X86427Y75349D01*
X86319Y75410D01*
X86194Y75459D01*
X86180Y75465D01*
X86142Y75477D01*
X86074Y75492D01*
X85992Y75513D01*
X85894Y75520D01*
X85781Y75533D01*
X85663Y75531D01*
X85544Y75520D01*
X85141Y76144D01*
X88032Y77831D01*
X90118Y75424D01*
D02*
G37*
G36*
X91082Y73780D02*
X91195Y73767D01*
X91204Y73766D01*
X91219Y73760D01*
X91253Y73753D01*
X91291Y73741D01*
X91345Y73732D01*
X91402Y73708D01*
X91469Y73683D01*
X91545Y73649D01*
X91622Y73614D01*
X91707Y73568D01*
X91797Y73517D01*
X91881Y73462D01*
X91970Y73392D01*
X92063Y73316D01*
X92150Y73226D01*
X92237Y73136D01*
X92291Y73074D01*
X92318Y73032D01*
X92344Y72991D01*
X92416Y72887D01*
X92491Y72769D01*
X92559Y72626D01*
X92623Y72479D01*
X92670Y72318D01*
X92675Y72313D01*
X92678Y72298D01*
X92682Y72273D01*
X92684Y72238D01*
X92698Y72159D01*
X92705Y72045D01*
X92710Y71912D01*
X92699Y71765D01*
X92677Y71599D01*
X92636Y71435D01*
X92631Y71430D01*
X92630Y71411D01*
X92618Y71392D01*
X92611Y71358D01*
X92598Y71320D01*
X92580Y71267D01*
X92552Y71215D01*
X92532Y71152D01*
X92468Y71014D01*
X92389Y70862D01*
X92292Y70687D01*
X92177Y70513D01*
X92171Y70509D01*
X92160Y70490D01*
X92144Y70467D01*
X92112Y70430D01*
X92079Y70383D01*
X92035Y70327D01*
X91987Y70266D01*
X91928Y70197D01*
X91853Y70123D01*
X91779Y70040D01*
X91693Y69948D01*
X91603Y69851D01*
X91497Y69750D01*
X91386Y69645D01*
X91265Y69531D01*
X91134Y69417D01*
X91123Y69408D01*
X91097Y69385D01*
X91050Y69345D01*
X90992Y69295D01*
X90914Y69236D01*
X90831Y69173D01*
X90732Y69097D01*
X90628Y69016D01*
X90509Y68931D01*
X90389Y68846D01*
X90131Y68677D01*
X89865Y68529D01*
X89732Y68460D01*
X89605Y68405D01*
X89600Y68401D01*
X89575Y68397D01*
X89539Y68375D01*
X89494Y68364D01*
X89428Y68344D01*
X89363Y68324D01*
X89283Y68300D01*
X89192Y68277D01*
X88998Y68237D01*
X88789Y68213D01*
X88567Y68204D01*
X88455Y68217D01*
X88343Y68230D01*
X88333Y68231D01*
X88319Y68237D01*
X88285Y68244D01*
X88246Y68257D01*
X88198Y68270D01*
X88135Y68289D01*
X88068Y68314D01*
X87992Y68349D01*
X87916Y68384D01*
X87831Y68429D01*
X87751Y68479D01*
X87656Y68535D01*
X87568Y68605D01*
X87475Y68681D01*
X87392Y68765D01*
X87301Y68861D01*
X87273Y68892D01*
X87247Y68933D01*
X87211Y68985D01*
X87166Y69047D01*
X87118Y69125D01*
X87070Y69212D01*
X87018Y69314D01*
X86972Y69420D01*
X86926Y69537D01*
X86886Y69668D01*
X86856Y69798D01*
X86836Y69937D01*
X86827Y70085D01*
X86828Y70233D01*
X86849Y70389D01*
X86850Y70398D01*
X86857Y70432D01*
X86876Y70485D01*
X86901Y70562D01*
X86937Y70658D01*
X86980Y70768D01*
X87043Y70896D01*
X87117Y71034D01*
X87207Y71194D01*
X87312Y71359D01*
X87439Y71542D01*
X87585Y71733D01*
X87752Y71933D01*
X87944Y72136D01*
X88161Y72351D01*
X88403Y72570D01*
X88413Y72579D01*
X88440Y72602D01*
X88487Y72643D01*
X88549Y72687D01*
X88622Y72751D01*
X88711Y72818D01*
X88810Y72895D01*
X88914Y72976D01*
X89033Y73061D01*
X89153Y73146D01*
X89411Y73314D01*
X89673Y73468D01*
X89806Y73537D01*
X89932Y73592D01*
X89938Y73596D01*
X89963Y73599D01*
X90003Y73616D01*
X90049Y73638D01*
X90109Y73653D01*
X90180Y73677D01*
X90255Y73697D01*
X90345Y73720D01*
X90540Y73760D01*
X90753Y73779D01*
X90975Y73788D01*
X91082Y73780D01*
D02*
G37*
G36*
X110551Y39865D02*
X109974Y39645D01*
X109965Y39649D01*
X109938Y39661D01*
X109887Y39678D01*
X109827Y39700D01*
X109742Y39727D01*
X109646Y39764D01*
X109537Y39797D01*
X109410Y39838D01*
X109268Y39880D01*
X109110Y39924D01*
X108937Y39969D01*
X108757Y40012D01*
X108571Y40052D01*
X108362Y40091D01*
X108145Y40135D01*
X107924Y40169D01*
X107909Y40171D01*
X107869Y40178D01*
X107807Y40184D01*
X107714Y40193D01*
X107606Y40204D01*
X107474Y40220D01*
X107328Y40231D01*
X107167Y40244D01*
X106993Y40252D01*
X106804Y40262D01*
X106602Y40266D01*
X106400Y40270D01*
X106184Y40270D01*
X105963Y40267D01*
X105520Y40239D01*
X105514Y40237D01*
X105485Y40233D01*
X105435Y40229D01*
X105378Y40222D01*
X105299Y40214D01*
X105208Y40202D01*
X105101Y40190D01*
X104989Y40170D01*
X104863Y40152D01*
X104726Y40121D01*
X104580Y40095D01*
X104429Y40060D01*
X104271Y40029D01*
X104107Y39989D01*
X103773Y39892D01*
X103486Y40644D01*
X103493Y40646D01*
X103519Y40656D01*
X103558Y40671D01*
X103612Y40684D01*
X103686Y40705D01*
X103766Y40728D01*
X103866Y40759D01*
X103974Y40785D01*
X104103Y40819D01*
X104233Y40847D01*
X104383Y40882D01*
X104542Y40913D01*
X104717Y40943D01*
X104898Y40975D01*
X105090Y40996D01*
X105289Y41020D01*
X105304Y41018D01*
X105339Y41024D01*
X105396Y41031D01*
X105477Y41032D01*
X105578Y41041D01*
X105701Y41051D01*
X105832Y41056D01*
X105979Y41061D01*
X106141Y41063D01*
X106319Y41064D01*
X106504Y41068D01*
X106693Y41058D01*
X107094Y41041D01*
X107510Y40999D01*
X107526Y40998D01*
X107559Y40988D01*
X107621Y40982D01*
X107698Y40974D01*
X107796Y40952D01*
X107906Y40935D01*
X108035Y40910D01*
X108176Y40889D01*
X108323Y40856D01*
X108485Y40821D01*
X108813Y40739D01*
X109153Y40646D01*
X109323Y40592D01*
X109485Y40535D01*
X108367Y43466D01*
X109073Y43735D01*
X110551Y39865D01*
D02*
G37*
G36*
X109848Y38438D02*
X109923Y38436D01*
X110000Y38429D01*
X110093Y38419D01*
X110290Y38391D01*
X110496Y38336D01*
X110708Y38268D01*
X110806Y38224D01*
X110907Y38173D01*
X110916Y38169D01*
X110928Y38159D01*
X110957Y38140D01*
X110989Y38115D01*
X111036Y38089D01*
X111082Y38047D01*
X111137Y38001D01*
X111196Y37942D01*
X111256Y37883D01*
X111321Y37811D01*
X111388Y37733D01*
X111448Y37652D01*
X111507Y37556D01*
X111569Y37453D01*
X111620Y37339D01*
X111671Y37224D01*
X111701Y37146D01*
X111712Y37099D01*
X111722Y37051D01*
X111754Y36929D01*
X111784Y36792D01*
X111800Y36635D01*
X111809Y36475D01*
X111798Y36307D01*
X111801Y36301D01*
X111799Y36285D01*
X111794Y36261D01*
X111784Y36228D01*
X111770Y36148D01*
X111737Y36039D01*
X111697Y35912D01*
X111637Y35777D01*
X111559Y35629D01*
X111465Y35489D01*
X111458Y35486D01*
X111450Y35469D01*
X111433Y35455D01*
X111415Y35425D01*
X111390Y35393D01*
X111354Y35350D01*
X111310Y35311D01*
X111270Y35259D01*
X111163Y35151D01*
X111036Y35035D01*
X110886Y34904D01*
X110717Y34780D01*
X110711Y34778D01*
X110694Y34764D01*
X110670Y34747D01*
X110628Y34724D01*
X110581Y34691D01*
X110521Y34653D01*
X110454Y34613D01*
X110375Y34568D01*
X110280Y34524D01*
X110181Y34471D01*
X110070Y34414D01*
X109951Y34354D01*
X109818Y34295D01*
X109678Y34234D01*
X109525Y34169D01*
X109362Y34107D01*
X109350Y34102D01*
X109317Y34089D01*
X109259Y34067D01*
X109187Y34040D01*
X109094Y34012D01*
X108994Y33981D01*
X108875Y33943D01*
X108750Y33902D01*
X108608Y33863D01*
X108467Y33824D01*
X108167Y33754D01*
X107866Y33706D01*
X107718Y33687D01*
X107580Y33678D01*
X107573Y33676D01*
X107549Y33682D01*
X107507Y33673D01*
X107461Y33678D01*
X107393Y33681D01*
X107325Y33685D01*
X107241Y33690D01*
X107148Y33700D01*
X106951Y33728D01*
X106747Y33777D01*
X106536Y33845D01*
X106435Y33895D01*
X106334Y33946D01*
X106325Y33950D01*
X106313Y33960D01*
X106284Y33979D01*
X106252Y34004D01*
X106211Y34033D01*
X106159Y34072D01*
X106104Y34118D01*
X106045Y34177D01*
X105985Y34236D01*
X105921Y34308D01*
X105862Y34382D01*
X105793Y34467D01*
X105734Y34563D01*
X105672Y34666D01*
X105624Y34774D01*
X105570Y34895D01*
X105555Y34934D01*
X105544Y34981D01*
X105529Y35042D01*
X105508Y35116D01*
X105489Y35205D01*
X105473Y35303D01*
X105460Y35417D01*
X105453Y35533D01*
X105449Y35658D01*
X105457Y35795D01*
X105473Y35927D01*
X105502Y36065D01*
X105544Y36207D01*
X105596Y36345D01*
X105669Y36485D01*
X105673Y36494D01*
X105691Y36523D01*
X105727Y36566D01*
X105777Y36630D01*
X105843Y36708D01*
X105921Y36797D01*
X106024Y36896D01*
X106141Y36999D01*
X106281Y37120D01*
X106436Y37238D01*
X106617Y37367D01*
X106820Y37497D01*
X107045Y37627D01*
X107294Y37752D01*
X107572Y37880D01*
X107875Y38003D01*
X107887Y38008D01*
X107920Y38021D01*
X107978Y38043D01*
X108052Y38064D01*
X108143Y38098D01*
X108249Y38131D01*
X108368Y38170D01*
X108494Y38210D01*
X108635Y38249D01*
X108776Y38288D01*
X109076Y38358D01*
X109375Y38413D01*
X109523Y38432D01*
X109661Y38440D01*
X109668Y38443D01*
X109692Y38437D01*
X109736Y38439D01*
X109786Y38444D01*
X109848Y38438D01*
D02*
G37*
G36*
X99633Y61098D02*
X99642Y61095D01*
X99677Y61092D01*
X99724Y61080D01*
X99791Y61063D01*
X99867Y61044D01*
X99960Y61010D01*
X100056Y60971D01*
X100165Y60923D01*
X100282Y60864D01*
X100400Y60788D01*
X100521Y60707D01*
X100644Y60611D01*
X100764Y60505D01*
X100879Y60380D01*
X100992Y60245D01*
X101094Y60088D01*
X101133Y60022D01*
X101152Y59977D01*
X101178Y59920D01*
X101212Y59851D01*
X101242Y59772D01*
X101271Y59684D01*
X101333Y59486D01*
X101353Y59385D01*
X101374Y59269D01*
X101386Y59154D01*
X101382Y59039D01*
X101379Y58923D01*
X101363Y58801D01*
X101360Y58791D01*
X101356Y58772D01*
X101352Y58738D01*
X101337Y58696D01*
X101322Y58639D01*
X101296Y58575D01*
X101267Y58501D01*
X101233Y58424D01*
X101192Y58343D01*
X101140Y58255D01*
X101081Y58163D01*
X101017Y58068D01*
X100943Y57975D01*
X100860Y57885D01*
X100770Y57791D01*
X100662Y57702D01*
X100206Y58343D01*
X100211Y58346D01*
X100220Y58359D01*
X100234Y58376D01*
X100260Y58400D01*
X100321Y58460D01*
X100387Y58540D01*
X100461Y58633D01*
X100527Y58737D01*
X100588Y58839D01*
X100630Y58944D01*
X100632Y58954D01*
X100635Y58964D01*
X100642Y58992D01*
X100649Y59021D01*
X100661Y59109D01*
X100665Y59224D01*
X100661Y59351D01*
X100632Y59496D01*
X100589Y59648D01*
X100552Y59723D01*
X100515Y59798D01*
X100483Y59852D01*
X100432Y59910D01*
X100374Y59980D01*
X100297Y60055D01*
X100210Y60133D01*
X100105Y60199D01*
X99989Y60259D01*
X99985Y60265D01*
X99970Y60264D01*
X99947Y60275D01*
X99915Y60288D01*
X99829Y60309D01*
X99709Y60334D01*
X99564Y60361D01*
X99395Y60373D01*
X99212Y60368D01*
X99010Y60353D01*
X99004Y60350D01*
X98989Y60348D01*
X98952Y60342D01*
X98909Y60333D01*
X98860Y60320D01*
X98790Y60302D01*
X98714Y60281D01*
X98632Y60256D01*
X98538Y60224D01*
X98435Y60179D01*
X98317Y60132D01*
X98194Y60083D01*
X98067Y60023D01*
X97933Y59951D01*
X97786Y59871D01*
X97640Y59791D01*
X97659Y59787D01*
X97684Y59786D01*
X97718Y59782D01*
X97816Y59768D01*
X97939Y59752D01*
X98081Y59716D01*
X98231Y59668D01*
X98382Y59605D01*
X98535Y59526D01*
X98538Y59521D01*
X98551Y59512D01*
X98574Y59501D01*
X98600Y59485D01*
X98633Y59456D01*
X98672Y59431D01*
X98765Y59357D01*
X98863Y59262D01*
X98967Y59155D01*
X99073Y59032D01*
X99165Y58893D01*
X99182Y58863D01*
X99198Y58824D01*
X99226Y58776D01*
X99250Y58709D01*
X99283Y58640D01*
X99312Y58552D01*
X99344Y58458D01*
X99364Y58357D01*
X99391Y58244D01*
X99407Y58123D01*
X99416Y58000D01*
X99417Y57863D01*
X99409Y57728D01*
X99388Y57587D01*
X99352Y57444D01*
X99350Y57434D01*
X99339Y57412D01*
X99330Y57374D01*
X99309Y57313D01*
X99283Y57249D01*
X99245Y57177D01*
X99202Y57087D01*
X99150Y56999D01*
X99085Y56904D01*
X99018Y56799D01*
X98932Y56699D01*
X98844Y56590D01*
X98743Y56489D01*
X98626Y56387D01*
X98496Y56293D01*
X98357Y56201D01*
X98351Y56198D01*
X98333Y56187D01*
X98309Y56173D01*
X98264Y56154D01*
X98223Y56129D01*
X98165Y56103D01*
X98096Y56069D01*
X98024Y56042D01*
X97860Y55977D01*
X97675Y55922D01*
X97476Y55876D01*
X97257Y55850D01*
X97251Y55847D01*
X97232Y55851D01*
X97201Y55849D01*
X97161Y55849D01*
X97111Y55852D01*
X97055Y55850D01*
X96911Y55861D01*
X96754Y55880D01*
X96576Y55920D01*
X96388Y55977D01*
X96211Y56057D01*
X96207Y56063D01*
X96188Y56068D01*
X96162Y56085D01*
X96132Y56107D01*
X96093Y56132D01*
X96050Y56163D01*
X95995Y56203D01*
X95945Y56245D01*
X95819Y56348D01*
X95690Y56481D01*
X95566Y56634D01*
X95448Y56805D01*
X95426Y56841D01*
X95404Y56892D01*
X95374Y56955D01*
X95337Y57031D01*
X95305Y57125D01*
X95270Y57225D01*
X95233Y57340D01*
X95204Y57469D01*
X95173Y57603D01*
X95158Y57749D01*
X95150Y57897D01*
X95150Y58059D01*
X95170Y58216D01*
X95197Y58386D01*
X95244Y58552D01*
X95246Y58561D01*
X95259Y58593D01*
X95281Y58639D01*
X95313Y58706D01*
X95354Y58787D01*
X95412Y58879D01*
X95485Y58987D01*
X95575Y59106D01*
X95674Y59238D01*
X95794Y59375D01*
X95936Y59516D01*
X96096Y59668D01*
X96277Y59825D01*
X96483Y59981D01*
X96711Y60141D01*
X96963Y60301D01*
X96969Y60304D01*
X96981Y60311D01*
X97005Y60326D01*
X97035Y60343D01*
X97070Y60365D01*
X97122Y60387D01*
X97169Y60416D01*
X97232Y60445D01*
X97367Y60518D01*
X97523Y60595D01*
X97700Y60677D01*
X97893Y60760D01*
X98105Y60839D01*
X98317Y60917D01*
X98536Y60983D01*
X98762Y61038D01*
X98986Y61083D01*
X99211Y61112D01*
X99429Y61113D01*
X99633Y61098D01*
D02*
G37*
G36*
X102207Y56863D02*
X102427Y56833D01*
X102532Y56807D01*
X102640Y56775D01*
X102650Y56773D01*
X102663Y56764D01*
X102695Y56751D01*
X102731Y56732D01*
X102782Y56714D01*
X102834Y56681D01*
X102896Y56645D01*
X102965Y56597D01*
X103034Y56550D01*
X103110Y56490D01*
X103190Y56424D01*
X103263Y56355D01*
X103338Y56271D01*
X103417Y56180D01*
X103487Y56077D01*
X103557Y55973D01*
X103600Y55901D01*
X103619Y55856D01*
X103638Y55811D01*
X103690Y55697D01*
X103743Y55567D01*
X103786Y55414D01*
X103823Y55258D01*
X103841Y55092D01*
X103845Y55086D01*
X103846Y55070D01*
X103845Y55045D01*
X103841Y55011D01*
X103841Y54930D01*
X103828Y54817D01*
X103810Y54685D01*
X103774Y54542D01*
X103724Y54383D01*
X103655Y54228D01*
X103649Y54224D01*
X103644Y54205D01*
X103630Y54189D01*
X103617Y54157D01*
X103598Y54121D01*
X103570Y54072D01*
X103533Y54026D01*
X103503Y53967D01*
X103416Y53843D01*
X103312Y53707D01*
X103186Y53551D01*
X103042Y53400D01*
X103036Y53397D01*
X103022Y53380D01*
X103002Y53360D01*
X102963Y53329D01*
X102923Y53289D01*
X102871Y53241D01*
X102812Y53190D01*
X102742Y53132D01*
X102656Y53072D01*
X102568Y53003D01*
X102468Y52927D01*
X102362Y52847D01*
X102240Y52767D01*
X102113Y52682D01*
X101974Y52591D01*
X101825Y52502D01*
X101813Y52495D01*
X101783Y52477D01*
X101730Y52445D01*
X101664Y52406D01*
X101577Y52362D01*
X101484Y52314D01*
X101373Y52256D01*
X101257Y52194D01*
X101125Y52131D01*
X100992Y52068D01*
X100709Y51947D01*
X100421Y51847D01*
X100278Y51802D01*
X100143Y51771D01*
X100137Y51767D01*
X100112Y51768D01*
X100073Y51753D01*
X100027Y51749D01*
X99959Y51741D01*
X99891Y51733D01*
X99808Y51723D01*
X99715Y51716D01*
X99516Y51710D01*
X99307Y51723D01*
X99086Y51753D01*
X98978Y51785D01*
X98870Y51817D01*
X98860Y51819D01*
X98847Y51828D01*
X98815Y51841D01*
X98779Y51860D01*
X98734Y51881D01*
X98676Y51911D01*
X98614Y51947D01*
X98545Y51995D01*
X98476Y52043D01*
X98400Y52102D01*
X98330Y52165D01*
X98247Y52237D01*
X98172Y52321D01*
X98093Y52412D01*
X98027Y52510D01*
X97953Y52619D01*
X97932Y52655D01*
X97913Y52700D01*
X97887Y52757D01*
X97853Y52826D01*
X97819Y52911D01*
X97787Y53005D01*
X97754Y53114D01*
X97727Y53228D01*
X97702Y53350D01*
X97685Y53486D01*
X97678Y53619D01*
X97683Y53760D01*
X97700Y53907D01*
X97726Y54052D01*
X97774Y54202D01*
X97776Y54212D01*
X97790Y54244D01*
X97817Y54293D01*
X97855Y54364D01*
X97908Y54452D01*
X97968Y54553D01*
X98053Y54669D01*
X98150Y54791D01*
X98266Y54934D01*
X98399Y55078D01*
X98555Y55236D01*
X98732Y55399D01*
X98931Y55566D01*
X99155Y55733D01*
X99406Y55907D01*
X99683Y56081D01*
X99695Y56088D01*
X99725Y56106D01*
X99778Y56138D01*
X99847Y56171D01*
X99931Y56221D01*
X100029Y56272D01*
X100140Y56330D01*
X100257Y56392D01*
X100389Y56455D01*
X100521Y56518D01*
X100805Y56639D01*
X101089Y56744D01*
X101232Y56789D01*
X101367Y56822D01*
X101373Y56825D01*
X101398Y56824D01*
X101440Y56833D01*
X101489Y56846D01*
X101551Y56851D01*
X101625Y56863D01*
X101702Y56869D01*
X101795Y56876D01*
X101994Y56881D01*
X102207Y56863D01*
D02*
G37*
G36*
X-8188Y116479D02*
X-10739Y116256D01*
X-10928Y114511D01*
X-10922Y114519D01*
X-10902Y114535D01*
X-10876Y114551D01*
X-10837Y114582D01*
X-10784Y114615D01*
X-10725Y114655D01*
X-10659Y114702D01*
X-10579Y114744D01*
X-10499Y114786D01*
X-10406Y114836D01*
X-10211Y114916D01*
X-10103Y114953D01*
X-9994Y114983D01*
X-9877Y115000D01*
X-9760Y115018D01*
X-9726Y115021D01*
X-9677Y115018D01*
X-9621Y115023D01*
X-9551Y115015D01*
X-9467Y115015D01*
X-9369Y115003D01*
X-9270Y114991D01*
X-9157Y114966D01*
X-9043Y114941D01*
X-8921Y114903D01*
X-8799Y114858D01*
X-8675Y114799D01*
X-8551Y114733D01*
X-8426Y114654D01*
X-8306Y114560D01*
X-8298Y114553D01*
X-8276Y114534D01*
X-8245Y114502D01*
X-8207Y114464D01*
X-8154Y114413D01*
X-8099Y114341D01*
X-8044Y114269D01*
X-7981Y114184D01*
X-7916Y114085D01*
X-7858Y113972D01*
X-7792Y113859D01*
X-7738Y113725D01*
X-7692Y113589D01*
X-7651Y113440D01*
X-7616Y113283D01*
X-7595Y113117D01*
X-7594Y113110D01*
X-7591Y113076D01*
X-7587Y113034D01*
X-7589Y112971D01*
X-7589Y112895D01*
X-7596Y112811D01*
X-7601Y112713D01*
X-7612Y112600D01*
X-7630Y112487D01*
X-7654Y112360D01*
X-7684Y112232D01*
X-7722Y112103D01*
X-7766Y111974D01*
X-7824Y111836D01*
X-7889Y111705D01*
X-7969Y111580D01*
X-7975Y111572D01*
X-7993Y111543D01*
X-8025Y111505D01*
X-8069Y111452D01*
X-8126Y111385D01*
X-8196Y111316D01*
X-8280Y111232D01*
X-8377Y111154D01*
X-8482Y111075D01*
X-8600Y110988D01*
X-8732Y110914D01*
X-8880Y110845D01*
X-9034Y110776D01*
X-9204Y110726D01*
X-9381Y110683D01*
X-9574Y110659D01*
X-9657Y110652D01*
X-9720Y110653D01*
X-9797Y110653D01*
X-9881Y110660D01*
X-9979Y110665D01*
X-10084Y110677D01*
X-10197Y110688D01*
X-10317Y110712D01*
X-10438Y110744D01*
X-10560Y110782D01*
X-10682Y110827D01*
X-10805Y110879D01*
X-10923Y110945D01*
X-11041Y111018D01*
X-11048Y111025D01*
X-11063Y111037D01*
X-11093Y111063D01*
X-11131Y111101D01*
X-11184Y111145D01*
X-11237Y111196D01*
X-11292Y111261D01*
X-11354Y111339D01*
X-11417Y111417D01*
X-11481Y111509D01*
X-11539Y111616D01*
X-11597Y111722D01*
X-11656Y111842D01*
X-11702Y111971D01*
X-11742Y112113D01*
X-11776Y112257D01*
X-10959Y112391D01*
X-10958Y112384D01*
X-10949Y112364D01*
X-10940Y112337D01*
X-10929Y112296D01*
X-10918Y112248D01*
X-10892Y112188D01*
X-10846Y112059D01*
X-10778Y111919D01*
X-10689Y111774D01*
X-10587Y111643D01*
X-10526Y111586D01*
X-10465Y111528D01*
X-10458Y111529D01*
X-10450Y111516D01*
X-10428Y111504D01*
X-10399Y111486D01*
X-10325Y111443D01*
X-10224Y111403D01*
X-10102Y111358D01*
X-9959Y111322D01*
X-9804Y111301D01*
X-9721Y111301D01*
X-9630Y111302D01*
X-9575Y111307D01*
X-9534Y111317D01*
X-9486Y111328D01*
X-9432Y111340D01*
X-9303Y111386D01*
X-9155Y111448D01*
X-9082Y111489D01*
X-9003Y111538D01*
X-8924Y111594D01*
X-8853Y111655D01*
X-8783Y111724D01*
X-8713Y111807D01*
X-8707Y111815D01*
X-8701Y111829D01*
X-8682Y111852D01*
X-8658Y111889D01*
X-8634Y111939D01*
X-8604Y111991D01*
X-8575Y112056D01*
X-8539Y112129D01*
X-8511Y112208D01*
X-8484Y112294D01*
X-8458Y112394D01*
X-8439Y112493D01*
X-8421Y112606D01*
X-8410Y112725D01*
X-8414Y112844D01*
X-8418Y112975D01*
X-8419Y112982D01*
X-8421Y113003D01*
X-8424Y113038D01*
X-8435Y113085D01*
X-8447Y113140D01*
X-8460Y113209D01*
X-8479Y113277D01*
X-8501Y113358D01*
X-8557Y113521D01*
X-8641Y113694D01*
X-8690Y113774D01*
X-8753Y113852D01*
X-8815Y113930D01*
X-8891Y114000D01*
X-8899Y114006D01*
X-8906Y114013D01*
X-8935Y114031D01*
X-8966Y114056D01*
X-9003Y114081D01*
X-9054Y114111D01*
X-9105Y114141D01*
X-9171Y114178D01*
X-9243Y114206D01*
X-9316Y114234D01*
X-9494Y114282D01*
X-9586Y114301D01*
X-9692Y114313D01*
X-9796Y114311D01*
X-9907Y114308D01*
X-9969Y114303D01*
X-10045Y114289D01*
X-10133Y114267D01*
X-10242Y114237D01*
X-10357Y114192D01*
X-10471Y114140D01*
X-10583Y114068D01*
X-10596Y114060D01*
X-10629Y114036D01*
X-10680Y113990D01*
X-10745Y113935D01*
X-10808Y113860D01*
X-10885Y113777D01*
X-10953Y113680D01*
X-11014Y113577D01*
X-11756Y113617D01*
X-11427Y116948D01*
X-8254Y117226D01*
X-8188Y116479D01*
D02*
G37*
G36*
X113953Y23602D02*
X114047Y23592D01*
X114142Y23575D01*
X114244Y23559D01*
X114356Y23531D01*
X114463Y23488D01*
X114570Y23445D01*
X114680Y23389D01*
X114786Y23317D01*
X114794Y23311D01*
X114810Y23300D01*
X114836Y23277D01*
X114878Y23243D01*
X114921Y23202D01*
X114974Y23148D01*
X115028Y23088D01*
X115091Y23015D01*
X115149Y22935D01*
X115210Y22840D01*
X115270Y22746D01*
X115327Y22637D01*
X115386Y22514D01*
X115431Y22388D01*
X115472Y22248D01*
X115508Y22099D01*
X115524Y22017D01*
X115527Y21961D01*
X115534Y21892D01*
X115536Y21808D01*
X115539Y21716D01*
X115538Y21610D01*
X115531Y21503D01*
X115525Y21388D01*
X115505Y21271D01*
X115478Y21153D01*
X115446Y21027D01*
X115397Y20912D01*
X115350Y20789D01*
X115280Y20677D01*
X115275Y20669D01*
X115263Y20653D01*
X115241Y20620D01*
X115214Y20579D01*
X115173Y20536D01*
X115126Y20485D01*
X115067Y20424D01*
X115008Y20363D01*
X114936Y20300D01*
X114856Y20235D01*
X114769Y20176D01*
X114673Y20122D01*
X114571Y20067D01*
X114460Y20017D01*
X114340Y19980D01*
X114219Y19950D01*
X114212Y19948D01*
X114198Y19946D01*
X114178Y19942D01*
X114144Y19935D01*
X114108Y19935D01*
X114059Y19933D01*
X113954Y19927D01*
X113833Y19932D01*
X113696Y19948D01*
X113555Y19984D01*
X113411Y20034D01*
X113404Y20033D01*
X113394Y20045D01*
X113348Y20065D01*
X113283Y20109D01*
X113194Y20169D01*
X113099Y20257D01*
X112988Y20356D01*
X112886Y20484D01*
X112779Y20634D01*
X112781Y20627D01*
X112778Y20605D01*
X112769Y20575D01*
X112764Y20532D01*
X112752Y20480D01*
X112736Y20420D01*
X112692Y20278D01*
X112638Y20119D01*
X112557Y19955D01*
X112462Y19788D01*
X112335Y19636D01*
X112330Y19628D01*
X112318Y19619D01*
X112300Y19601D01*
X112269Y19574D01*
X112233Y19546D01*
X112190Y19510D01*
X112141Y19472D01*
X112086Y19426D01*
X111953Y19344D01*
X111792Y19263D01*
X111608Y19192D01*
X111508Y19159D01*
X111399Y19138D01*
X111393Y19137D01*
X111365Y19132D01*
X111323Y19130D01*
X111262Y19119D01*
X111191Y19119D01*
X111108Y19110D01*
X111015Y19114D01*
X110916Y19116D01*
X110801Y19129D01*
X110685Y19142D01*
X110567Y19169D01*
X110440Y19201D01*
X110311Y19247D01*
X110188Y19301D01*
X110055Y19367D01*
X109933Y19449D01*
X109925Y19455D01*
X109907Y19473D01*
X109873Y19502D01*
X109832Y19536D01*
X109772Y19588D01*
X109718Y19648D01*
X109648Y19720D01*
X109583Y19799D01*
X109516Y19892D01*
X109439Y19997D01*
X109374Y20112D01*
X109308Y20234D01*
X109240Y20369D01*
X109184Y20514D01*
X109139Y20675D01*
X109099Y20844D01*
X109091Y20885D01*
X109089Y20934D01*
X109076Y21002D01*
X109068Y21078D01*
X109063Y21176D01*
X109064Y21282D01*
X109064Y21395D01*
X109069Y21516D01*
X109086Y21647D01*
X109103Y21777D01*
X109133Y21917D01*
X109170Y22052D01*
X109222Y22189D01*
X109280Y22327D01*
X109354Y22455D01*
X109360Y22463D01*
X109376Y22487D01*
X109398Y22520D01*
X109440Y22563D01*
X109486Y22614D01*
X109538Y22674D01*
X109603Y22743D01*
X109682Y22808D01*
X109767Y22881D01*
X109859Y22955D01*
X109965Y23025D01*
X110073Y23088D01*
X110196Y23147D01*
X110334Y23202D01*
X110473Y23250D01*
X110622Y23286D01*
X110629Y23287D01*
X110649Y23291D01*
X110683Y23297D01*
X110725Y23298D01*
X110780Y23309D01*
X110843Y23314D01*
X110913Y23313D01*
X110991Y23314D01*
X111154Y23310D01*
X111335Y23289D01*
X111520Y23246D01*
X111611Y23214D01*
X111703Y23176D01*
X111711Y23170D01*
X111726Y23166D01*
X111751Y23149D01*
X111783Y23127D01*
X111822Y23107D01*
X111864Y23072D01*
X111921Y23034D01*
X111973Y22987D01*
X112092Y22883D01*
X112216Y22751D01*
X112332Y22590D01*
X112440Y22399D01*
X112438Y22406D01*
X112442Y22420D01*
X112451Y22450D01*
X112459Y22480D01*
X112465Y22524D01*
X112483Y22577D01*
X112518Y22689D01*
X112564Y22818D01*
X112630Y22951D01*
X112703Y23086D01*
X112801Y23203D01*
X112807Y23204D01*
X112813Y23213D01*
X112831Y23230D01*
X112855Y23249D01*
X112916Y23303D01*
X112996Y23361D01*
X113104Y23424D01*
X113233Y23491D01*
X113377Y23548D01*
X113540Y23586D01*
X113546Y23587D01*
X113567Y23591D01*
X113609Y23592D01*
X113657Y23601D01*
X113713Y23605D01*
X113783Y23605D01*
X113861Y23605D01*
X113953Y23602D01*
D02*
G37*
G36*
X114545Y18768D02*
X114682Y18753D01*
X114689Y18754D01*
X114712Y18744D01*
X114756Y18738D01*
X114806Y18734D01*
X114866Y18717D01*
X114939Y18703D01*
X115014Y18682D01*
X115103Y18657D01*
X115292Y18594D01*
X115486Y18505D01*
X115683Y18401D01*
X115772Y18340D01*
X115863Y18273D01*
X115871Y18268D01*
X115881Y18255D01*
X115906Y18232D01*
X115933Y18202D01*
X115975Y18168D01*
X116013Y18118D01*
X116059Y18064D01*
X116107Y17995D01*
X116156Y17927D01*
X116207Y17845D01*
X116259Y17756D01*
X116305Y17666D01*
X116347Y17561D01*
X116389Y17449D01*
X116420Y17327D01*
X116450Y17206D01*
X116466Y17124D01*
X116468Y17075D01*
X116471Y17026D01*
X116481Y16901D01*
X116486Y16761D01*
X116474Y16603D01*
X116456Y16444D01*
X116416Y16281D01*
X116418Y16274D01*
X116413Y16259D01*
X116404Y16236D01*
X116389Y16205D01*
X116361Y16129D01*
X116310Y16027D01*
X116248Y15909D01*
X116165Y15787D01*
X116063Y15654D01*
X115945Y15533D01*
X115939Y15531D01*
X115928Y15515D01*
X115909Y15504D01*
X115885Y15479D01*
X115855Y15452D01*
X115813Y15415D01*
X115762Y15384D01*
X115714Y15340D01*
X115590Y15252D01*
X115445Y15161D01*
X115274Y15057D01*
X115087Y14965D01*
X115080Y14963D01*
X115061Y14953D01*
X115035Y14940D01*
X114988Y14924D01*
X114936Y14900D01*
X114871Y14874D01*
X114799Y14845D01*
X114713Y14815D01*
X114612Y14788D01*
X114505Y14754D01*
X114385Y14716D01*
X114258Y14678D01*
X114117Y14643D01*
X113968Y14608D01*
X113806Y14570D01*
X113635Y14537D01*
X113622Y14534D01*
X113588Y14527D01*
X113526Y14516D01*
X113451Y14501D01*
X113355Y14490D01*
X113251Y14477D01*
X113127Y14460D01*
X112996Y14442D01*
X112851Y14428D01*
X112705Y14414D01*
X112397Y14397D01*
X112092Y14402D01*
X111943Y14409D01*
X111805Y14424D01*
X111799Y14423D01*
X111775Y14433D01*
X111733Y14432D01*
X111688Y14444D01*
X111622Y14460D01*
X111555Y14475D01*
X111474Y14495D01*
X111384Y14520D01*
X111195Y14583D01*
X111003Y14666D01*
X110806Y14769D01*
X110715Y14837D01*
X110625Y14904D01*
X110617Y14909D01*
X110607Y14922D01*
X110581Y14945D01*
X110554Y14975D01*
X110519Y15011D01*
X110475Y15059D01*
X110429Y15114D01*
X110380Y15182D01*
X110332Y15250D01*
X110281Y15332D01*
X110236Y15416D01*
X110182Y15511D01*
X110141Y15617D01*
X110098Y15728D01*
X110069Y15843D01*
X110037Y15971D01*
X110030Y16012D01*
X110027Y16061D01*
X110022Y16124D01*
X110015Y16200D01*
X110011Y16291D01*
X110013Y16390D01*
X110020Y16505D01*
X110032Y16620D01*
X110051Y16744D01*
X110082Y16877D01*
X110121Y17005D01*
X110174Y17135D01*
X110240Y17268D01*
X110314Y17395D01*
X110411Y17520D01*
X110416Y17528D01*
X110439Y17554D01*
X110482Y17590D01*
X110542Y17644D01*
X110622Y17709D01*
X110713Y17783D01*
X110832Y17863D01*
X110965Y17945D01*
X111123Y18039D01*
X111297Y18129D01*
X111498Y18224D01*
X111720Y18316D01*
X111964Y18406D01*
X112232Y18486D01*
X112528Y18564D01*
X112847Y18632D01*
X112860Y18635D01*
X112894Y18642D01*
X112956Y18653D01*
X113032Y18661D01*
X113127Y18679D01*
X113238Y18693D01*
X113362Y18710D01*
X113493Y18728D01*
X113638Y18742D01*
X113784Y18756D01*
X114092Y18773D01*
X114395Y18775D01*
X114545Y18768D01*
D02*
G37*
%LPC*%
G36*
X-71838Y92158D02*
X-71997Y92140D01*
X-72172Y92099D01*
X-72258Y92070D01*
X-72350Y92028D01*
X-72427Y91979D01*
X-72510Y91916D01*
X-72547Y91884D01*
X-72574Y91852D01*
X-72601Y91820D01*
X-72638Y91778D01*
X-72710Y91670D01*
X-72778Y91537D01*
X-72808Y91465D01*
X-72834Y91379D01*
X-72855Y91296D01*
X-72866Y91204D01*
X-72873Y91106D01*
X-72866Y91002D01*
X-72866Y90992D01*
X-72858Y90972D01*
X-72851Y90932D01*
X-72836Y90872D01*
X-72811Y90801D01*
X-72783Y90716D01*
X-72751Y90615D01*
X-72695Y90498D01*
X-72631Y90370D01*
X-72562Y90228D01*
X-72470Y90069D01*
X-72364Y89903D01*
X-72244Y89723D01*
X-72096Y89530D01*
X-71938Y89327D01*
X-71757Y89107D01*
X-71752Y89102D01*
X-71743Y89091D01*
X-71730Y89076D01*
X-71711Y89055D01*
X-71689Y89029D01*
X-71657Y88992D01*
X-71583Y88918D01*
X-71496Y88828D01*
X-71396Y88722D01*
X-71286Y88606D01*
X-71161Y88494D01*
X-70898Y88253D01*
X-70763Y88140D01*
X-70624Y88032D01*
X-70488Y87939D01*
X-70350Y87865D01*
X-70222Y87802D01*
X-70102Y87759D01*
X-70092Y87758D01*
X-70078Y87752D01*
X-70044Y87745D01*
X-69995Y87741D01*
X-69946Y87738D01*
X-69887Y87733D01*
X-69745Y87728D01*
X-69582Y87741D01*
X-69411Y87788D01*
X-69326Y87816D01*
X-69239Y87854D01*
X-69157Y87907D01*
X-69079Y87966D01*
X-69063Y87979D01*
X-69041Y88007D01*
X-69015Y88030D01*
X-68983Y88067D01*
X-68950Y88114D01*
X-68878Y88222D01*
X-68844Y88288D01*
X-68814Y88360D01*
X-68784Y88441D01*
X-68762Y88533D01*
X-68741Y88625D01*
X-68729Y88728D01*
X-68726Y88841D01*
X-68732Y88954D01*
X-68731Y88964D01*
X-68740Y88984D01*
X-68742Y89019D01*
X-68758Y89069D01*
X-68773Y89139D01*
X-68807Y89220D01*
X-68844Y89316D01*
X-68891Y89423D01*
X-68951Y89546D01*
X-69024Y89684D01*
X-69107Y89832D01*
X-69213Y89997D01*
X-69339Y90174D01*
X-69477Y90366D01*
X-69640Y90564D01*
X-69821Y90784D01*
X-69826Y90789D01*
X-69835Y90800D01*
X-69849Y90815D01*
X-69867Y90836D01*
X-69889Y90863D01*
X-69917Y90894D01*
X-69995Y90973D01*
X-70082Y91063D01*
X-70182Y91169D01*
X-70292Y91285D01*
X-70417Y91397D01*
X-70680Y91637D01*
X-70820Y91746D01*
X-70955Y91849D01*
X-71091Y91943D01*
X-71228Y92026D01*
X-71352Y92084D01*
X-71477Y92123D01*
X-71487Y92123D01*
X-71501Y92129D01*
X-71535Y92137D01*
X-71579Y92145D01*
X-71633Y92144D01*
X-71696Y92153D01*
X-71764Y92158D01*
X-71838Y92158D01*
D02*
G37*
G36*
X-75522Y88472D02*
X-75158Y84967D01*
X-73632Y86290D01*
X-75522Y88472D01*
D02*
G37*
G36*
X-86663Y78105D02*
X-86716Y78095D01*
X-86780Y78093D01*
X-86848Y78086D01*
X-86921Y78074D01*
X-87074Y78028D01*
X-87239Y77957D01*
X-87319Y77914D01*
X-87401Y77856D01*
X-87469Y77795D01*
X-87540Y77719D01*
X-87571Y77681D01*
X-87592Y77644D01*
X-87613Y77608D01*
X-87642Y77560D01*
X-87694Y77441D01*
X-87739Y77298D01*
X-87755Y77223D01*
X-87766Y77133D01*
X-87772Y77048D01*
X-87767Y76955D01*
X-87757Y76858D01*
X-87732Y76757D01*
X-87731Y76747D01*
X-87719Y76728D01*
X-87705Y76690D01*
X-87680Y76634D01*
X-87643Y76568D01*
X-87601Y76489D01*
X-87551Y76395D01*
X-87476Y76290D01*
X-87391Y76175D01*
X-87298Y76047D01*
X-87180Y75906D01*
X-87047Y75762D01*
X-86897Y75604D01*
X-86718Y75441D01*
X-86527Y75268D01*
X-86311Y75083D01*
X-86305Y75078D01*
X-86295Y75070D01*
X-86278Y75057D01*
X-86257Y75039D01*
X-86230Y75017D01*
X-86192Y74987D01*
X-86107Y74926D01*
X-86006Y74853D01*
X-85888Y74766D01*
X-85760Y74671D01*
X-85618Y74582D01*
X-85317Y74391D01*
X-85164Y74304D01*
X-85008Y74221D01*
X-84858Y74153D01*
X-84710Y74104D01*
X-84572Y74064D01*
X-84447Y74042D01*
X-84437Y74043D01*
X-84422Y74040D01*
X-84387Y74038D01*
X-84338Y74044D01*
X-84290Y74049D01*
X-84231Y74055D01*
X-84090Y74074D01*
X-83931Y74115D01*
X-83772Y74191D01*
X-83692Y74234D01*
X-83614Y74286D01*
X-83542Y74353D01*
X-83475Y74424D01*
X-83462Y74440D01*
X-83445Y74471D01*
X-83423Y74498D01*
X-83398Y74540D01*
X-83374Y74592D01*
X-83322Y74711D01*
X-83300Y74782D01*
X-83283Y74858D01*
X-83267Y74944D01*
X-83262Y75038D01*
X-83257Y75132D01*
X-83263Y75235D01*
X-83279Y75347D01*
X-83306Y75458D01*
X-83306Y75467D01*
X-83318Y75486D01*
X-83327Y75520D01*
X-83351Y75566D01*
X-83378Y75633D01*
X-83425Y75707D01*
X-83478Y75795D01*
X-83543Y75892D01*
X-83623Y76002D01*
X-83720Y76125D01*
X-83827Y76257D01*
X-83960Y76401D01*
X-84114Y76553D01*
X-84284Y76718D01*
X-84479Y76885D01*
X-84696Y77070D01*
X-84701Y77075D01*
X-84712Y77083D01*
X-84728Y77096D01*
X-84750Y77114D01*
X-84776Y77136D01*
X-84809Y77162D01*
X-84899Y77227D01*
X-85001Y77300D01*
X-85118Y77387D01*
X-85246Y77482D01*
X-85389Y77571D01*
X-85690Y77762D01*
X-85846Y77844D01*
X-85997Y77922D01*
X-86147Y77991D01*
X-86297Y78049D01*
X-86428Y78085D01*
X-86559Y78101D01*
X-86568Y78100D01*
X-86583Y78104D01*
X-86618Y78105D01*
X-86663Y78105D01*
D02*
G37*
G36*
X-107803Y43781D02*
X-107939Y43770D01*
X-108066Y43740D01*
X-108075Y43736D01*
X-108091Y43734D01*
X-108124Y43724D01*
X-108166Y43709D01*
X-108212Y43681D01*
X-108272Y43657D01*
X-108333Y43627D01*
X-108397Y43591D01*
X-108526Y43496D01*
X-108657Y43372D01*
X-108717Y43305D01*
X-108775Y43222D01*
X-108818Y43141D01*
X-108858Y43045D01*
X-108874Y42999D01*
X-108881Y42958D01*
X-108888Y42916D01*
X-108900Y42861D01*
X-108908Y42732D01*
X-108901Y42583D01*
X-108891Y42506D01*
X-108870Y42418D01*
X-108847Y42336D01*
X-108810Y42250D01*
X-108767Y42162D01*
X-108709Y42076D01*
X-108705Y42067D01*
X-108687Y42053D01*
X-108661Y42022D01*
X-108618Y41978D01*
X-108562Y41929D01*
X-108494Y41869D01*
X-108416Y41798D01*
X-108309Y41724D01*
X-108189Y41646D01*
X-108059Y41557D01*
X-107900Y41465D01*
X-107725Y41375D01*
X-107531Y41278D01*
X-107306Y41186D01*
X-107068Y41089D01*
X-106801Y40989D01*
X-106795Y40987D01*
X-106782Y40982D01*
X-106762Y40975D01*
X-106736Y40966D01*
X-106703Y40955D01*
X-106657Y40939D01*
X-106556Y40911D01*
X-106436Y40877D01*
X-106296Y40836D01*
X-106143Y40790D01*
X-105979Y40756D01*
X-105631Y40679D01*
X-105458Y40648D01*
X-105282Y40624D01*
X-105118Y40612D01*
X-104962Y40616D01*
X-104819Y40626D01*
X-104694Y40648D01*
X-104685Y40653D01*
X-104670Y40655D01*
X-104637Y40665D01*
X-104593Y40687D01*
X-104548Y40708D01*
X-104495Y40734D01*
X-104369Y40800D01*
X-104235Y40893D01*
X-104110Y41019D01*
X-104050Y41087D01*
X-103994Y41163D01*
X-103949Y41250D01*
X-103911Y41339D01*
X-103904Y41359D01*
X-103900Y41394D01*
X-103888Y41427D01*
X-103879Y41475D01*
X-103874Y41532D01*
X-103866Y41662D01*
X-103869Y41736D01*
X-103879Y41813D01*
X-103894Y41899D01*
X-103921Y41989D01*
X-103949Y42080D01*
X-103989Y42174D01*
X-104043Y42274D01*
X-104105Y42369D01*
X-104110Y42378D01*
X-104127Y42391D01*
X-104147Y42420D01*
X-104186Y42455D01*
X-104233Y42509D01*
X-104303Y42562D01*
X-104383Y42627D01*
X-104477Y42696D01*
X-104590Y42772D01*
X-104723Y42854D01*
X-104869Y42942D01*
X-105044Y43032D01*
X-105240Y43122D01*
X-105456Y43219D01*
X-105697Y43309D01*
X-105963Y43409D01*
X-105970Y43411D01*
X-105983Y43416D01*
X-106003Y43422D01*
X-106029Y43431D01*
X-106062Y43443D01*
X-106101Y43457D01*
X-106208Y43486D01*
X-106329Y43521D01*
X-106469Y43562D01*
X-106622Y43607D01*
X-106786Y43642D01*
X-107134Y43719D01*
X-107309Y43743D01*
X-107478Y43764D01*
X-107642Y43777D01*
X-107803Y43781D01*
D02*
G37*
G36*
X-98655Y61927D02*
X-98785Y61920D01*
X-98795Y61918D01*
X-98810Y61918D01*
X-98845Y61914D01*
X-98888Y61906D01*
X-98939Y61887D01*
X-99002Y61874D01*
X-99068Y61855D01*
X-99137Y61830D01*
X-99280Y61759D01*
X-99431Y61660D01*
X-99502Y61604D01*
X-99573Y61533D01*
X-99629Y61461D01*
X-99686Y61373D01*
X-99709Y61331D01*
X-99724Y61291D01*
X-99738Y61251D01*
X-99759Y61199D01*
X-99789Y61073D01*
X-99808Y60925D01*
X-99812Y60847D01*
X-99806Y60757D01*
X-99797Y60673D01*
X-99777Y60582D01*
X-99750Y60487D01*
X-99707Y60392D01*
X-99705Y60383D01*
X-99690Y60367D01*
X-99670Y60332D01*
X-99635Y60280D01*
X-99588Y60222D01*
X-99532Y60151D01*
X-99467Y60068D01*
X-99375Y59977D01*
X-99270Y59879D01*
X-99157Y59768D01*
X-99016Y59650D01*
X-98860Y59531D01*
X-98686Y59403D01*
X-98480Y59272D01*
X-98263Y59135D01*
X-98017Y58991D01*
X-98011Y58987D01*
X-97999Y58981D01*
X-97981Y58971D01*
X-97957Y58957D01*
X-97926Y58940D01*
X-97884Y58917D01*
X-97790Y58872D01*
X-97677Y58817D01*
X-97546Y58753D01*
X-97403Y58681D01*
X-97248Y58618D01*
X-96918Y58482D01*
X-96753Y58422D01*
X-96585Y58368D01*
X-96425Y58327D01*
X-96271Y58305D01*
X-96128Y58289D01*
X-96001Y58290D01*
X-95991Y58292D01*
X-95976Y58292D01*
X-95942Y58296D01*
X-95894Y58310D01*
X-95847Y58323D01*
X-95791Y58339D01*
X-95655Y58383D01*
X-95506Y58451D01*
X-95362Y58553D01*
X-95291Y58609D01*
X-95223Y58675D01*
X-95163Y58753D01*
X-95110Y58834D01*
X-95100Y58852D01*
X-95089Y58886D01*
X-95072Y58916D01*
X-95055Y58962D01*
X-95040Y59018D01*
X-95009Y59144D01*
X-95000Y59218D01*
X-94997Y59295D01*
X-94996Y59382D01*
X-95007Y59476D01*
X-95019Y59570D01*
X-95042Y59670D01*
X-95078Y59777D01*
X-95123Y59882D01*
X-95125Y59891D01*
X-95140Y59907D01*
X-95154Y59939D01*
X-95187Y59981D01*
X-95224Y60042D01*
X-95284Y60106D01*
X-95352Y60184D01*
X-95432Y60268D01*
X-95530Y60363D01*
X-95647Y60467D01*
X-95775Y60579D01*
X-95932Y60697D01*
X-96109Y60820D01*
X-96306Y60953D01*
X-96526Y61084D01*
X-96772Y61229D01*
X-96778Y61232D01*
X-96790Y61239D01*
X-96808Y61249D01*
X-96832Y61262D01*
X-96863Y61279D01*
X-96899Y61299D01*
X-97000Y61347D01*
X-97112Y61402D01*
X-97243Y61467D01*
X-97386Y61538D01*
X-97541Y61601D01*
X-97871Y61737D01*
X-98039Y61791D01*
X-98202Y61842D01*
X-98361Y61883D01*
X-98518Y61915D01*
X-98655Y61927D01*
D02*
G37*
G36*
X-98994Y56580D02*
X-99090Y56578D01*
X-99184Y56567D01*
X-99281Y56549D01*
X-99290Y56546D01*
X-99300Y56544D01*
X-99328Y56536D01*
X-99366Y56525D01*
X-99407Y56508D01*
X-99458Y56489D01*
X-99569Y56431D01*
X-99694Y56350D01*
X-99822Y56247D01*
X-99949Y56119D01*
X-100003Y56037D01*
X-100056Y55956D01*
X-100080Y55913D01*
X-100094Y55874D01*
X-100108Y55834D01*
X-100129Y55782D01*
X-100165Y55659D01*
X-100194Y55508D01*
X-100207Y55341D01*
X-100208Y55254D01*
X-100203Y55164D01*
X-100186Y55067D01*
X-100159Y54972D01*
X-100156Y54963D01*
X-100147Y54950D01*
X-100139Y54922D01*
X-100125Y54890D01*
X-100108Y54849D01*
X-100083Y54795D01*
X-100051Y54738D01*
X-100010Y54683D01*
X-99972Y54623D01*
X-99922Y54555D01*
X-99801Y54416D01*
X-99651Y54285D01*
X-99558Y54225D01*
X-99464Y54165D01*
X-99458Y54162D01*
X-99446Y54155D01*
X-99428Y54145D01*
X-99404Y54131D01*
X-99370Y54120D01*
X-99334Y54100D01*
X-99236Y54062D01*
X-99123Y54023D01*
X-98994Y53983D01*
X-98852Y53952D01*
X-98704Y53933D01*
X-98698Y53929D01*
X-98689Y53932D01*
X-98664Y53934D01*
X-98633Y53932D01*
X-98561Y53932D01*
X-98461Y53940D01*
X-98349Y53957D01*
X-98229Y53986D01*
X-98107Y54021D01*
X-97980Y54078D01*
X-97977Y54084D01*
X-97967Y54086D01*
X-97929Y54113D01*
X-97868Y54150D01*
X-97797Y54206D01*
X-97720Y54274D01*
X-97635Y54354D01*
X-97556Y54453D01*
X-97490Y54559D01*
X-97466Y54602D01*
X-97455Y54635D01*
X-97438Y54681D01*
X-97420Y54727D01*
X-97387Y54843D01*
X-97365Y54982D01*
X-97358Y55066D01*
X-97355Y55143D01*
X-97360Y55234D01*
X-97369Y55318D01*
X-97390Y55409D01*
X-97417Y55503D01*
X-97419Y55513D01*
X-97428Y55526D01*
X-97436Y55554D01*
X-97456Y55589D01*
X-97479Y55634D01*
X-97508Y55682D01*
X-97540Y55739D01*
X-97584Y55803D01*
X-97627Y55867D01*
X-97683Y55938D01*
X-97749Y56006D01*
X-97820Y56077D01*
X-97901Y56146D01*
X-97994Y56222D01*
X-98093Y56285D01*
X-98199Y56352D01*
X-98205Y56356D01*
X-98224Y56366D01*
X-98254Y56383D01*
X-98300Y56400D01*
X-98352Y56421D01*
X-98409Y56445D01*
X-98474Y56473D01*
X-98547Y56498D01*
X-98713Y56543D01*
X-98895Y56572D01*
X-98994Y56580D01*
D02*
G37*
G36*
X-55136Y103104D02*
X-55315Y103093D01*
X-55405Y103080D01*
X-55502Y103054D01*
X-55587Y103020D01*
X-55680Y102972D01*
X-55721Y102947D01*
X-55753Y102920D01*
X-55786Y102892D01*
X-55830Y102858D01*
X-55919Y102764D01*
X-56010Y102645D01*
X-56051Y102580D01*
X-56092Y102499D01*
X-56126Y102421D01*
X-56154Y102332D01*
X-56178Y102237D01*
X-56189Y102134D01*
X-56191Y102124D01*
X-56186Y102103D01*
X-56186Y102062D01*
X-56182Y102000D01*
X-56170Y101927D01*
X-56157Y101837D01*
X-56143Y101732D01*
X-56108Y101607D01*
X-56067Y101470D01*
X-56024Y101318D01*
X-55961Y101146D01*
X-55885Y100964D01*
X-55799Y100766D01*
X-55686Y100550D01*
X-55566Y100323D01*
X-55426Y100075D01*
X-55422Y100069D01*
X-55415Y100057D01*
X-55404Y100039D01*
X-55390Y100015D01*
X-55372Y99986D01*
X-55347Y99944D01*
X-55288Y99858D01*
X-55218Y99755D01*
X-55137Y99633D01*
X-55049Y99500D01*
X-54946Y99367D01*
X-54728Y99085D01*
X-54615Y98950D01*
X-54496Y98819D01*
X-54379Y98704D01*
X-54256Y98607D01*
X-54141Y98523D01*
X-54030Y98459D01*
X-54021Y98457D01*
X-54008Y98449D01*
X-53975Y98435D01*
X-53928Y98424D01*
X-53880Y98412D01*
X-53823Y98397D01*
X-53684Y98367D01*
X-53521Y98352D01*
X-53345Y98368D01*
X-53255Y98381D01*
X-53164Y98404D01*
X-53073Y98442D01*
X-52986Y98486D01*
X-52969Y98496D01*
X-52942Y98520D01*
X-52912Y98538D01*
X-52874Y98569D01*
X-52834Y98609D01*
X-52745Y98703D01*
X-52699Y98763D01*
X-52658Y98828D01*
X-52613Y98903D01*
X-52576Y98990D01*
X-52539Y99077D01*
X-52509Y99175D01*
X-52487Y99286D01*
X-52473Y99399D01*
X-52471Y99409D01*
X-52476Y99430D01*
X-52472Y99465D01*
X-52479Y99517D01*
X-52482Y99588D01*
X-52501Y99674D01*
X-52521Y99775D01*
X-52548Y99888D01*
X-52586Y100019D01*
X-52635Y100168D01*
X-52690Y100329D01*
X-52766Y100510D01*
X-52859Y100705D01*
X-52962Y100918D01*
X-53088Y101142D01*
X-53228Y101390D01*
X-53232Y101396D01*
X-53239Y101408D01*
X-53250Y101426D01*
X-53264Y101450D01*
X-53282Y101479D01*
X-53303Y101515D01*
X-53366Y101607D01*
X-53436Y101710D01*
X-53517Y101832D01*
X-53605Y101965D01*
X-53708Y102097D01*
X-53926Y102380D01*
X-54045Y102511D01*
X-54160Y102636D01*
X-54278Y102752D01*
X-54398Y102858D01*
X-54510Y102936D01*
X-54626Y102996D01*
X-54636Y102998D01*
X-54649Y103007D01*
X-54681Y103020D01*
X-54722Y103035D01*
X-54776Y103044D01*
X-54837Y103064D01*
X-54903Y103081D01*
X-54976Y103094D01*
X-55136Y103104D01*
D02*
G37*
G36*
X-113088Y24513D02*
X-113265Y24506D01*
X-113435Y24498D01*
X-113599Y24482D01*
X-113758Y24458D01*
X-113890Y24423D01*
X-114010Y24372D01*
X-114018Y24366D01*
X-114033Y24362D01*
X-114064Y24346D01*
X-114102Y24324D01*
X-114143Y24288D01*
X-114198Y24255D01*
X-114253Y24214D01*
X-114310Y24167D01*
X-114420Y24051D01*
X-114528Y23907D01*
X-114575Y23830D01*
X-114618Y23739D01*
X-114646Y23652D01*
X-114669Y23550D01*
X-114677Y23502D01*
X-114676Y23460D01*
X-114676Y23417D01*
X-114678Y23362D01*
X-114664Y23233D01*
X-114631Y23087D01*
X-114608Y23013D01*
X-114572Y22930D01*
X-114535Y22854D01*
X-114484Y22775D01*
X-114426Y22696D01*
X-114354Y22621D01*
X-114348Y22613D01*
X-114329Y22603D01*
X-114298Y22577D01*
X-114247Y22540D01*
X-114183Y22502D01*
X-114107Y22455D01*
X-114017Y22398D01*
X-113899Y22344D01*
X-113768Y22288D01*
X-113624Y22223D01*
X-113451Y22160D01*
X-113263Y22102D01*
X-113055Y22040D01*
X-112818Y21988D01*
X-112566Y21934D01*
X-112286Y21882D01*
X-112280Y21881D01*
X-112266Y21879D01*
X-112245Y21876D01*
X-112218Y21871D01*
X-112184Y21866D01*
X-112136Y21858D01*
X-112032Y21848D01*
X-111907Y21835D01*
X-111762Y21819D01*
X-111604Y21801D01*
X-111436Y21795D01*
X-111080Y21780D01*
X-110904Y21780D01*
X-110727Y21787D01*
X-110563Y21803D01*
X-110410Y21835D01*
X-110272Y21869D01*
X-110152Y21913D01*
X-110144Y21918D01*
X-110129Y21923D01*
X-110099Y21939D01*
X-110059Y21968D01*
X-110019Y21997D01*
X-109971Y22031D01*
X-109859Y22119D01*
X-109742Y22234D01*
X-109642Y22379D01*
X-109594Y22456D01*
X-109552Y22541D01*
X-109523Y22634D01*
X-109501Y22729D01*
X-109498Y22750D01*
X-109499Y22785D01*
X-109494Y22819D01*
X-109493Y22868D01*
X-109498Y22925D01*
X-109512Y23054D01*
X-109529Y23127D01*
X-109552Y23201D01*
X-109581Y23283D01*
X-109624Y23367D01*
X-109667Y23451D01*
X-109723Y23538D01*
X-109793Y23626D01*
X-109871Y23709D01*
X-109877Y23717D01*
X-109897Y23727D01*
X-109921Y23752D01*
X-109965Y23780D01*
X-110021Y23825D01*
X-110099Y23865D01*
X-110190Y23915D01*
X-110294Y23967D01*
X-110419Y24022D01*
X-110564Y24080D01*
X-110723Y24141D01*
X-110910Y24199D01*
X-111119Y24253D01*
X-111349Y24311D01*
X-111602Y24359D01*
X-111881Y24411D01*
X-111888Y24412D01*
X-111902Y24414D01*
X-111923Y24417D01*
X-111950Y24422D01*
X-111984Y24427D01*
X-112025Y24434D01*
X-112136Y24444D01*
X-112261Y24457D01*
X-112406Y24474D01*
X-112564Y24492D01*
X-112732Y24498D01*
X-113088Y24513D01*
D02*
G37*
G36*
X-114434Y19534D02*
X-114540Y19530D01*
X-114655Y19513D01*
X-114787Y19478D01*
X-114916Y19421D01*
X-114984Y19390D01*
X-115048Y19344D01*
X-115054Y19345D01*
X-115063Y19333D01*
X-115104Y19297D01*
X-115162Y19243D01*
X-115231Y19163D01*
X-115296Y19068D01*
X-115365Y18945D01*
X-115422Y18807D01*
X-115448Y18734D01*
X-115467Y18610D01*
X-115466Y18575D01*
X-115471Y18541D01*
X-115472Y18492D01*
X-115468Y18385D01*
X-115453Y18263D01*
X-115418Y18131D01*
X-115369Y17997D01*
X-115292Y17865D01*
X-115280Y17849D01*
X-115251Y17809D01*
X-115196Y17759D01*
X-115123Y17691D01*
X-115035Y17620D01*
X-114926Y17561D01*
X-114801Y17505D01*
X-114659Y17469D01*
X-114652Y17468D01*
X-114639Y17465D01*
X-114618Y17462D01*
X-114583Y17463D01*
X-114542Y17457D01*
X-114499Y17457D01*
X-114393Y17461D01*
X-114271Y17477D01*
X-114140Y17505D01*
X-114006Y17554D01*
X-113881Y17632D01*
X-113865Y17644D01*
X-113831Y17680D01*
X-113773Y17734D01*
X-113711Y17816D01*
X-113640Y17910D01*
X-113571Y18032D01*
X-113519Y18179D01*
X-113479Y18341D01*
X-113473Y18382D01*
X-113474Y18417D01*
X-113467Y18459D01*
X-113468Y18501D01*
X-113472Y18607D01*
X-113487Y18729D01*
X-113516Y18860D01*
X-113564Y18994D01*
X-113642Y19126D01*
X-113653Y19142D01*
X-113682Y19182D01*
X-113737Y19233D01*
X-113811Y19301D01*
X-113898Y19371D01*
X-114014Y19432D01*
X-114139Y19487D01*
X-114281Y19524D01*
X-114288Y19525D01*
X-114301Y19527D01*
X-114322Y19530D01*
X-114357Y19529D01*
X-114434Y19534D01*
D02*
G37*
G36*
X-111542Y19331D02*
X-111677Y19324D01*
X-111828Y19306D01*
X-111996Y19263D01*
X-112078Y19234D01*
X-112162Y19191D01*
X-112246Y19149D01*
X-112326Y19091D01*
X-112334Y19085D01*
X-112342Y19080D01*
X-112366Y19062D01*
X-112392Y19031D01*
X-112432Y19003D01*
X-112466Y18966D01*
X-112508Y18916D01*
X-112552Y18867D01*
X-112642Y18741D01*
X-112729Y18593D01*
X-112800Y18415D01*
X-112822Y18320D01*
X-112845Y18218D01*
X-112854Y18164D01*
X-112853Y18128D01*
X-112854Y18079D01*
X-112855Y18023D01*
X-112849Y17889D01*
X-112831Y17738D01*
X-112793Y17578D01*
X-112764Y17495D01*
X-112728Y17413D01*
X-112679Y17327D01*
X-112628Y17249D01*
X-112622Y17241D01*
X-112617Y17233D01*
X-112599Y17209D01*
X-112575Y17184D01*
X-112538Y17150D01*
X-112502Y17116D01*
X-112459Y17074D01*
X-112410Y17031D01*
X-112291Y16942D01*
X-112142Y16862D01*
X-111970Y16792D01*
X-111882Y16771D01*
X-111781Y16748D01*
X-111774Y16747D01*
X-111767Y16745D01*
X-111726Y16739D01*
X-111656Y16735D01*
X-111572Y16735D01*
X-111474Y16734D01*
X-111360Y16743D01*
X-111236Y16766D01*
X-111112Y16795D01*
X-111098Y16800D01*
X-111060Y16815D01*
X-110992Y16846D01*
X-110915Y16883D01*
X-110829Y16940D01*
X-110742Y17003D01*
X-110644Y17086D01*
X-110558Y17184D01*
X-110557Y17191D01*
X-110549Y17197D01*
X-110522Y17235D01*
X-110485Y17292D01*
X-110443Y17377D01*
X-110400Y17468D01*
X-110354Y17580D01*
X-110314Y17700D01*
X-110286Y17830D01*
X-110277Y17884D01*
X-110277Y17927D01*
X-110277Y17976D01*
X-110275Y18032D01*
X-110281Y18166D01*
X-110299Y18317D01*
X-110336Y18484D01*
X-110365Y18566D01*
X-110401Y18649D01*
X-110443Y18733D01*
X-110494Y18812D01*
X-110500Y18820D01*
X-110506Y18828D01*
X-110523Y18851D01*
X-110547Y18876D01*
X-110584Y18910D01*
X-110619Y18951D01*
X-110662Y18993D01*
X-110711Y19036D01*
X-110831Y19119D01*
X-110979Y19206D01*
X-111144Y19274D01*
X-111239Y19296D01*
X-111340Y19320D01*
X-111347Y19321D01*
X-111368Y19324D01*
X-111395Y19329D01*
X-111437Y19328D01*
X-111487Y19329D01*
X-111542Y19331D01*
D02*
G37*
G36*
X-36553Y111177D02*
X-36654Y111168D01*
X-36743Y111149D01*
X-36843Y111118D01*
X-36888Y111101D01*
X-36924Y111080D01*
X-36961Y111058D01*
X-37010Y111032D01*
X-37114Y110955D01*
X-37224Y110854D01*
X-37277Y110797D01*
X-37331Y110724D01*
X-37378Y110654D01*
X-37421Y110571D01*
X-37461Y110481D01*
X-37490Y110381D01*
X-37494Y110372D01*
X-37493Y110350D01*
X-37500Y110310D01*
X-37506Y110249D01*
X-37507Y110174D01*
X-37510Y110084D01*
X-37514Y109978D01*
X-37502Y109849D01*
X-37485Y109707D01*
X-37469Y109549D01*
X-37437Y109369D01*
X-37394Y109177D01*
X-37343Y108966D01*
X-37269Y108734D01*
X-37191Y108490D01*
X-37096Y108221D01*
X-37093Y108215D01*
X-37088Y108202D01*
X-37081Y108182D01*
X-37071Y108156D01*
X-37058Y108124D01*
X-37041Y108079D01*
X-36998Y107984D01*
X-36946Y107870D01*
X-36888Y107736D01*
X-36825Y107589D01*
X-36746Y107441D01*
X-36581Y107125D01*
X-36493Y106973D01*
X-36398Y106823D01*
X-36303Y106689D01*
X-36199Y106573D01*
X-36100Y106469D01*
X-36002Y106388D01*
X-35993Y106384D01*
X-35981Y106373D01*
X-35952Y106355D01*
X-35907Y106335D01*
X-35862Y106315D01*
X-35809Y106291D01*
X-35677Y106237D01*
X-35519Y106193D01*
X-35343Y106179D01*
X-35252Y106176D01*
X-35158Y106183D01*
X-35063Y106204D01*
X-34969Y106233D01*
X-34950Y106240D01*
X-34920Y106259D01*
X-34887Y106271D01*
X-34845Y106295D01*
X-34798Y106328D01*
X-34693Y106405D01*
X-34638Y106455D01*
X-34586Y106513D01*
X-34530Y106579D01*
X-34478Y106658D01*
X-34426Y106737D01*
X-34380Y106829D01*
X-34338Y106934D01*
X-34306Y107043D01*
X-34302Y107052D01*
X-34303Y107074D01*
X-34293Y107107D01*
X-34291Y107160D01*
X-34281Y107231D01*
X-34285Y107318D01*
X-34287Y107422D01*
X-34294Y107538D01*
X-34309Y107673D01*
X-34331Y107828D01*
X-34358Y107996D01*
X-34401Y108188D01*
X-34458Y108396D01*
X-34523Y108624D01*
X-34608Y108866D01*
X-34703Y109135D01*
X-34706Y109141D01*
X-34711Y109154D01*
X-34718Y109174D01*
X-34728Y109200D01*
X-34740Y109232D01*
X-34755Y109271D01*
X-34801Y109372D01*
X-34852Y109486D01*
X-34911Y109620D01*
X-34974Y109767D01*
X-35053Y109915D01*
X-35218Y110231D01*
X-35313Y110380D01*
X-35404Y110524D01*
X-35500Y110658D01*
X-35600Y110783D01*
X-35697Y110880D01*
X-35801Y110959D01*
X-35810Y110963D01*
X-35821Y110974D01*
X-35851Y110992D01*
X-35889Y111014D01*
X-35940Y111032D01*
X-35997Y111063D01*
X-36059Y111091D01*
X-36129Y111116D01*
X-36284Y111153D01*
X-36463Y111174D01*
X-36553Y111177D01*
D02*
G37*
G36*
X-17494Y115709D02*
X-17586Y115706D01*
X-17689Y115693D01*
X-17737Y115684D01*
X-17776Y115669D01*
X-17816Y115654D01*
X-17869Y115637D01*
X-17985Y115579D01*
X-18111Y115498D01*
X-18173Y115451D01*
X-18238Y115389D01*
X-18297Y115328D01*
X-18354Y115254D01*
X-18409Y115173D01*
X-18454Y115079D01*
X-18460Y115071D01*
X-18463Y115049D01*
X-18477Y115011D01*
X-18493Y114951D01*
X-18508Y114878D01*
X-18526Y114790D01*
X-18548Y114686D01*
X-18559Y114557D01*
X-18567Y114414D01*
X-18579Y114256D01*
X-18579Y114073D01*
X-18569Y113877D01*
X-18556Y113660D01*
X-18523Y113419D01*
X-18488Y113164D01*
X-18441Y112883D01*
X-18440Y112877D01*
X-18438Y112863D01*
X-18434Y112843D01*
X-18428Y112815D01*
X-18422Y112781D01*
X-18413Y112733D01*
X-18386Y112633D01*
X-18356Y112511D01*
X-18321Y112370D01*
X-18284Y112214D01*
X-18232Y112054D01*
X-18125Y111715D01*
X-18065Y111550D01*
X-17998Y111386D01*
X-17927Y111237D01*
X-17844Y111104D01*
X-17765Y110985D01*
X-17683Y110888D01*
X-17675Y110883D01*
X-17665Y110870D01*
X-17639Y110847D01*
X-17599Y110819D01*
X-17558Y110792D01*
X-17509Y110759D01*
X-17389Y110683D01*
X-17241Y110613D01*
X-17070Y110568D01*
X-16982Y110550D01*
X-16888Y110539D01*
X-16790Y110544D01*
X-16693Y110556D01*
X-16672Y110560D01*
X-16640Y110573D01*
X-16606Y110580D01*
X-16559Y110596D01*
X-16507Y110620D01*
X-16391Y110677D01*
X-16328Y110718D01*
X-16267Y110765D01*
X-16200Y110820D01*
X-16135Y110889D01*
X-16071Y110958D01*
X-16009Y111041D01*
X-15950Y111137D01*
X-15899Y111239D01*
X-15893Y111247D01*
X-15890Y111269D01*
X-15875Y111300D01*
X-15864Y111352D01*
X-15842Y111419D01*
X-15830Y111506D01*
X-15814Y111608D01*
X-15801Y111724D01*
X-15792Y111860D01*
X-15787Y112016D01*
X-15784Y112187D01*
X-15794Y112383D01*
X-15814Y112598D01*
X-15838Y112833D01*
X-15880Y113087D01*
X-15927Y113368D01*
X-15928Y113374D01*
X-15931Y113388D01*
X-15935Y113409D01*
X-15940Y113436D01*
X-15947Y113470D01*
X-15954Y113511D01*
X-15982Y113619D01*
X-16013Y113740D01*
X-16047Y113882D01*
X-16084Y114037D01*
X-16136Y114197D01*
X-16244Y114536D01*
X-16311Y114700D01*
X-16376Y114857D01*
X-16447Y115006D01*
X-16524Y115147D01*
X-16602Y115259D01*
X-16691Y115355D01*
X-16699Y115360D01*
X-16709Y115373D01*
X-16735Y115396D01*
X-16768Y115425D01*
X-16816Y115451D01*
X-16866Y115491D01*
X-16923Y115529D01*
X-16986Y115567D01*
X-17133Y115630D01*
X-17305Y115682D01*
X-17394Y115700D01*
X-17494Y115709D01*
D02*
G37*
G36*
X128Y116951D02*
X79D01*
X38Y116944D01*
X-4Y116937D01*
X-60Y116930D01*
X-184Y116895D01*
X-323Y116839D01*
X-393Y116805D01*
X-469Y116756D01*
X-538Y116708D01*
X-608Y116645D01*
X-677Y116576D01*
X-740Y116492D01*
X-747Y116486D01*
X-754Y116465D01*
X-774Y116430D01*
X-802Y116375D01*
X-830Y116305D01*
X-865Y116222D01*
X-906Y116125D01*
X-941Y116000D01*
X-976Y115861D01*
X-1017Y115708D01*
X-1052Y115528D01*
X-1080Y115333D01*
X-1108Y115118D01*
X-1113Y115021D01*
X-1121Y114875D01*
X-1135Y114619D01*
X-1142Y114334D01*
Y114327D01*
Y114313D01*
Y114293D01*
Y114265D01*
Y114230D01*
Y114181D01*
X-1135Y114077D01*
X-1128Y113952D01*
X-1121Y113807D01*
X-1115Y113647D01*
X-1094Y113480D01*
X-1052Y113127D01*
X-1024Y112953D01*
X-989Y112779D01*
X-948Y112620D01*
X-892Y112474D01*
X-837Y112342D01*
X-774Y112231D01*
X-768Y112224D01*
X-760Y112211D01*
X-740Y112183D01*
X-705Y112148D01*
X-670Y112113D01*
X-629Y112072D01*
X-525Y111975D01*
X-393Y111877D01*
X-233Y111801D01*
X-150Y111766D01*
X-60Y111739D01*
X38Y111725D01*
X135Y111718D01*
X156D01*
X190Y111725D01*
X225D01*
X274Y111732D01*
X329Y111746D01*
X454Y111780D01*
X523Y111808D01*
X593Y111843D01*
X669Y111884D01*
X746Y111940D01*
X822Y111995D01*
X898Y112065D01*
X974Y112148D01*
X1044Y112238D01*
X1051Y112245D01*
X1058Y112266D01*
X1079Y112294D01*
X1099Y112342D01*
X1134Y112405D01*
X1162Y112488D01*
X1197Y112585D01*
X1231Y112696D01*
X1266Y112828D01*
X1301Y112981D01*
X1335Y113147D01*
X1363Y113342D01*
X1384Y113557D01*
D01*
X1405Y113793D01*
X1412Y114049D01*
X1419Y114334D01*
Y114341D01*
Y114355D01*
Y114376D01*
Y114403D01*
Y114438D01*
Y114480D01*
X1412Y114591D01*
X1405Y114716D01*
X1398Y114862D01*
X1391Y115021D01*
X1370Y115188D01*
X1328Y115542D01*
X1294Y115715D01*
X1259Y115882D01*
X1217Y116041D01*
X1169Y116194D01*
X1113Y116319D01*
X1044Y116430D01*
X1037Y116437D01*
X1030Y116451D01*
X1009Y116479D01*
X981Y116513D01*
X940Y116548D01*
X898Y116596D01*
X850Y116645D01*
X794Y116694D01*
X662Y116784D01*
X503Y116867D01*
X419Y116902D01*
X322Y116930D01*
X232Y116944D01*
X128Y116951D01*
D02*
G37*
G36*
X22759Y114775D02*
X22630Y114760D01*
X22484Y114727D01*
X22410Y114704D01*
X22327Y114668D01*
X22251Y114631D01*
X22172Y114581D01*
X22093Y114523D01*
X22018Y114451D01*
X22010Y114445D01*
X22000Y114425D01*
X21974Y114394D01*
X21937Y114344D01*
X21899Y114280D01*
X21852Y114203D01*
X21795Y114114D01*
X21741Y113996D01*
X21685Y113864D01*
X21620Y113720D01*
X21557Y113548D01*
X21499Y113360D01*
X21437Y113152D01*
X21385Y112914D01*
X21331Y112663D01*
X21279Y112383D01*
X21278Y112376D01*
X21276Y112363D01*
X21272Y112342D01*
X21268Y112315D01*
X21263Y112280D01*
X21255Y112232D01*
X21245Y112128D01*
X21232Y112004D01*
X21216Y111859D01*
X21198Y111700D01*
X21192Y111533D01*
X21177Y111177D01*
X21177Y111001D01*
X21184Y110824D01*
X21200Y110660D01*
X21232Y110507D01*
X21265Y110368D01*
X21310Y110249D01*
X21315Y110241D01*
X21320Y110226D01*
X21336Y110195D01*
X21365Y110155D01*
X21394Y110116D01*
X21428Y110068D01*
X21516Y109956D01*
X21631Y109839D01*
X21776Y109738D01*
X21853Y109691D01*
X21937Y109649D01*
X22031Y109620D01*
X22126Y109598D01*
X22147Y109594D01*
X22182Y109596D01*
X22216Y109590D01*
X22265Y109590D01*
X22322Y109594D01*
X22451Y109609D01*
X22524Y109625D01*
X22598Y109649D01*
X22680Y109678D01*
X22764Y109720D01*
X22848Y109763D01*
X22935Y109820D01*
X23023Y109890D01*
X23106Y109968D01*
X23114Y109974D01*
X23124Y109993D01*
X23149Y110017D01*
X23177Y110062D01*
X23222Y110118D01*
X23262Y110196D01*
X23312Y110286D01*
X23364Y110390D01*
X23419Y110515D01*
X23477Y110661D01*
X23538Y110819D01*
X23596Y111007D01*
X23651Y111216D01*
X23708Y111446D01*
X23756Y111698D01*
X23808Y111978D01*
X23809Y111985D01*
X23811Y111999D01*
X23814Y112019D01*
X23819Y112047D01*
X23824Y112081D01*
X23831Y112122D01*
X23841Y112233D01*
X23854Y112357D01*
X23870Y112502D01*
X23889Y112661D01*
X23895Y112829D01*
X23910Y113185D01*
X23903Y113362D01*
X23895Y113531D01*
X23879Y113696D01*
X23855Y113854D01*
X23820Y113986D01*
X23769Y114107D01*
X23763Y114115D01*
X23759Y114130D01*
X23742Y114160D01*
X23721Y114199D01*
X23685Y114240D01*
X23652Y114294D01*
X23611Y114350D01*
X23564Y114407D01*
X23448Y114517D01*
X23304Y114624D01*
X23227Y114672D01*
X23135Y114714D01*
X23049Y114742D01*
X22947Y114766D01*
X22899Y114773D01*
X22857Y114773D01*
X22815Y114773D01*
X22759Y114775D01*
D02*
G37*
G36*
X42889Y108853D02*
X42740Y108846D01*
X42663Y108836D01*
X42575Y108815D01*
X42494Y108792D01*
X42408Y108756D01*
X42319Y108713D01*
X42233Y108655D01*
X42224Y108650D01*
X42211Y108633D01*
X42180Y108607D01*
X42135Y108564D01*
X42086Y108507D01*
X42026Y108440D01*
X41955Y108361D01*
X41881Y108255D01*
X41803Y108135D01*
X41714Y108004D01*
X41622Y107845D01*
X41532Y107671D01*
X41436Y107476D01*
X41343Y107252D01*
X41246Y107013D01*
X41146Y106747D01*
X41144Y106740D01*
X41140Y106727D01*
X41133Y106707D01*
X41124Y106681D01*
X41112Y106648D01*
X41096Y106603D01*
X41069Y106502D01*
X41035Y106382D01*
X40993Y106242D01*
X40948Y106088D01*
X40913Y105924D01*
X40837Y105576D01*
X40806Y105403D01*
X40782Y105228D01*
X40769Y105063D01*
X40774Y104908D01*
X40783Y104765D01*
X40806Y104639D01*
X40810Y104630D01*
X40812Y104615D01*
X40823Y104582D01*
X40844Y104538D01*
X40866Y104494D01*
X40891Y104441D01*
X40958Y104315D01*
X41051Y104180D01*
X41177Y104056D01*
X41244Y103996D01*
X41320Y103940D01*
X41407Y103895D01*
X41497Y103857D01*
X41517Y103850D01*
X41552Y103845D01*
X41584Y103834D01*
X41633Y103824D01*
X41690Y103819D01*
X41819Y103811D01*
X41894Y103815D01*
X41971Y103825D01*
X42056Y103839D01*
X42147Y103867D01*
X42237Y103894D01*
X42332Y103935D01*
X42431Y103988D01*
X42526Y104051D01*
X42535Y104055D01*
X42548Y104073D01*
X42577Y104092D01*
X42613Y104131D01*
X42666Y104179D01*
X42720Y104248D01*
X42784Y104329D01*
X42853Y104422D01*
X42929Y104536D01*
X43012Y104669D01*
X43099Y104815D01*
X43189Y104989D01*
X43279Y105186D01*
X43376Y105402D01*
X43467Y105642D01*
X43566Y105909D01*
X43569Y105915D01*
X43573Y105929D01*
X43580Y105948D01*
X43589Y105974D01*
X43600Y106007D01*
X43614Y106047D01*
X43644Y106154D01*
X43678Y106274D01*
X43719Y106414D01*
X43765Y106567D01*
X43800Y106731D01*
X43876Y107079D01*
X43900Y107255D01*
X43922Y107423D01*
X43935Y107588D01*
X43939Y107748D01*
X43927Y107884D01*
X43898Y108012D01*
X43894Y108021D01*
X43892Y108036D01*
X43881Y108069D01*
X43866Y108111D01*
X43838Y108158D01*
X43815Y108217D01*
X43785Y108279D01*
X43748Y108343D01*
X43653Y108471D01*
X43529Y108602D01*
X43462Y108662D01*
X43379Y108720D01*
X43299Y108763D01*
X43203Y108804D01*
X43157Y108819D01*
X43115Y108826D01*
X43073Y108834D01*
X43019Y108845D01*
X42889Y108853D01*
D02*
G37*
G36*
X60811Y99832D02*
X60721Y99826D01*
X60636Y99818D01*
X60545Y99797D01*
X60451Y99770D01*
X60356Y99728D01*
X60347Y99725D01*
X60330Y99710D01*
X60295Y99690D01*
X60244Y99655D01*
X60186Y99608D01*
X60115Y99552D01*
X60031Y99487D01*
X59940Y99395D01*
X59843Y99291D01*
X59732Y99177D01*
X59614Y99037D01*
X59495Y98880D01*
X59366Y98706D01*
X59236Y98500D01*
X59099Y98283D01*
X58955Y98037D01*
X58951Y98031D01*
X58944Y98019D01*
X58934Y98001D01*
X58921Y97977D01*
X58904Y97947D01*
X58880Y97904D01*
X58836Y97810D01*
X58781Y97697D01*
X58716Y97566D01*
X58645Y97424D01*
X58582Y97268D01*
X58446Y96939D01*
X58386Y96773D01*
X58332Y96605D01*
X58291Y96445D01*
X58268Y96291D01*
X58253Y96149D01*
X58253Y96021D01*
X58256Y96012D01*
X58255Y95996D01*
X58260Y95962D01*
X58273Y95915D01*
X58287Y95868D01*
X58303Y95811D01*
X58347Y95675D01*
X58415Y95526D01*
X58517Y95382D01*
X58573Y95311D01*
X58638Y95243D01*
X58716Y95184D01*
X58798Y95130D01*
X58816Y95120D01*
X58850Y95109D01*
X58880Y95092D01*
X58926Y95075D01*
X58981Y95060D01*
X59107Y95030D01*
X59181Y95020D01*
X59259Y95017D01*
X59346Y95016D01*
X59439Y95027D01*
X59533Y95039D01*
X59634Y95062D01*
X59741Y95098D01*
X59845Y95143D01*
X59855Y95146D01*
X59871Y95161D01*
X59903Y95175D01*
X59944Y95207D01*
X60005Y95245D01*
X60070Y95304D01*
X60148Y95372D01*
X60232Y95452D01*
X60326Y95550D01*
X60431Y95667D01*
X60542Y95796D01*
X60661Y95952D01*
X60784Y96130D01*
X60917Y96326D01*
X61048Y96547D01*
X61192Y96792D01*
X61195Y96798D01*
X61202Y96810D01*
X61212Y96828D01*
X61226Y96853D01*
X61243Y96883D01*
X61263Y96919D01*
X61311Y97020D01*
X61366Y97132D01*
X61431Y97263D01*
X61502Y97406D01*
X61565Y97562D01*
X61701Y97891D01*
X61755Y98059D01*
X61805Y98222D01*
X61847Y98382D01*
X61878Y98539D01*
X61891Y98675D01*
X61884Y98806D01*
X61881Y98815D01*
X61882Y98830D01*
X61877Y98865D01*
X61870Y98909D01*
X61850Y98959D01*
X61838Y99022D01*
X61819Y99088D01*
X61794Y99158D01*
X61723Y99300D01*
X61624Y99451D01*
X61568Y99522D01*
X61496Y99593D01*
X61424Y99649D01*
X61337Y99706D01*
X61294Y99730D01*
X61255Y99744D01*
X61215Y99758D01*
X61163Y99779D01*
X61037Y99809D01*
X60888Y99828D01*
X60811Y99832D01*
D02*
G37*
G36*
X74014Y89737D02*
X70625Y88771D01*
X72193Y87497D01*
X74014Y89737D01*
D02*
G37*
G36*
X77258Y87601D02*
X77165Y87596D01*
X77068Y87586D01*
X76967Y87561D01*
X76957Y87560D01*
X76938Y87548D01*
X76900Y87534D01*
X76844Y87509D01*
X76778Y87473D01*
X76699Y87430D01*
X76605Y87381D01*
X76500Y87306D01*
X76385Y87220D01*
X76257Y87128D01*
X76116Y87010D01*
X75972Y86876D01*
X75814Y86727D01*
X75651Y86547D01*
X75478Y86356D01*
X75293Y86140D01*
X75289Y86135D01*
X75280Y86124D01*
X75267Y86108D01*
X75249Y86086D01*
X75227Y86059D01*
X75197Y86022D01*
X75136Y85936D01*
X75063Y85835D01*
X74976Y85718D01*
X74881Y85589D01*
X74792Y85447D01*
X74601Y85146D01*
X74514Y84994D01*
X74431Y84837D01*
X74363Y84687D01*
X74314Y84539D01*
X74274Y84402D01*
X74252Y84276D01*
X74253Y84266D01*
X74250Y84251D01*
X74248Y84217D01*
X74253Y84168D01*
X74259Y84119D01*
X74265Y84060D01*
X74284Y83919D01*
X74325Y83761D01*
X74401Y83601D01*
X74444Y83521D01*
X74496Y83443D01*
X74563Y83371D01*
X74634Y83304D01*
X74650Y83291D01*
X74681Y83275D01*
X74708Y83253D01*
X74750Y83227D01*
X74802Y83203D01*
X74921Y83151D01*
X74992Y83129D01*
X75068Y83112D01*
X75154Y83096D01*
X75248Y83091D01*
X75342Y83086D01*
X75445Y83092D01*
X75557Y83109D01*
X75668Y83135D01*
X75677Y83136D01*
X75696Y83148D01*
X75730Y83156D01*
X75776Y83181D01*
X75843Y83207D01*
X75917Y83254D01*
X76005Y83308D01*
X76102Y83372D01*
X76212Y83452D01*
X76335Y83549D01*
X76467Y83657D01*
X76611Y83790D01*
X76763Y83944D01*
X76928Y84114D01*
X77096Y84308D01*
X77280Y84525D01*
X77285Y84530D01*
X77293Y84541D01*
X77307Y84557D01*
X77324Y84579D01*
X77346Y84606D01*
X77372Y84638D01*
X77437Y84729D01*
X77510Y84830D01*
X77597Y84947D01*
X77692Y85076D01*
X77781Y85218D01*
X77972Y85519D01*
X78054Y85676D01*
X78132Y85827D01*
X78201Y85977D01*
X78259Y86126D01*
X78295Y86258D01*
X78311Y86388D01*
X78310Y86397D01*
X78314Y86413D01*
X78315Y86447D01*
X78315Y86492D01*
X78305Y86545D01*
X78303Y86609D01*
X78296Y86677D01*
X78284Y86750D01*
X78238Y86903D01*
X78167Y87068D01*
X78124Y87148D01*
X78066Y87231D01*
X78005Y87298D01*
X77929Y87370D01*
X77891Y87400D01*
X77854Y87421D01*
X77818Y87442D01*
X77770Y87471D01*
X77651Y87523D01*
X77509Y87568D01*
X77433Y87585D01*
X77343Y87595D01*
X77258Y87601D01*
D02*
G37*
G36*
X90929Y73078D02*
X90825Y73070D01*
X90815Y73071D01*
X90795Y73063D01*
X90755Y73056D01*
X90695Y73040D01*
X90624Y73016D01*
X90539Y72988D01*
X90438Y72955D01*
X90321Y72900D01*
X90193Y72835D01*
X90050Y72767D01*
X89891Y72675D01*
X89726Y72569D01*
X89545Y72449D01*
X89353Y72300D01*
X89149Y72142D01*
X88930Y71961D01*
X88925Y71957D01*
X88914Y71948D01*
X88898Y71934D01*
X88877Y71916D01*
X88851Y71893D01*
X88815Y71861D01*
X88740Y71788D01*
X88651Y71701D01*
X88545Y71600D01*
X88429Y71491D01*
X88317Y71366D01*
X88076Y71103D01*
X87963Y70968D01*
X87855Y70828D01*
X87761Y70692D01*
X87688Y70555D01*
X87624Y70426D01*
X87581Y70307D01*
X87581Y70297D01*
X87575Y70283D01*
X87567Y70249D01*
X87564Y70200D01*
X87560Y70151D01*
X87556Y70092D01*
X87551Y69950D01*
X87564Y69786D01*
X87611Y69616D01*
X87639Y69530D01*
X87677Y69444D01*
X87730Y69361D01*
X87788Y69283D01*
X87802Y69267D01*
X87830Y69246D01*
X87853Y69219D01*
X87890Y69187D01*
X87937Y69155D01*
X88045Y69083D01*
X88111Y69049D01*
X88183Y69019D01*
X88264Y68988D01*
X88356Y68967D01*
X88448Y68946D01*
X88551Y68933D01*
X88664Y68930D01*
X88777Y68937D01*
X88787Y68936D01*
X88807Y68945D01*
X88842Y68947D01*
X88892Y68963D01*
X88962Y68978D01*
X89043Y69011D01*
X89139Y69049D01*
X89246Y69095D01*
X89368Y69155D01*
X89507Y69229D01*
X89655Y69312D01*
X89820Y69418D01*
X89996Y69543D01*
X90188Y69682D01*
X90387Y69845D01*
X90607Y70026D01*
X90612Y70030D01*
X90622Y70039D01*
X90638Y70053D01*
X90659Y70071D01*
X90685Y70094D01*
X90717Y70121D01*
X90796Y70199D01*
X90886Y70286D01*
X90992Y70387D01*
X91108Y70497D01*
X91220Y70621D01*
X91460Y70885D01*
X91569Y71025D01*
X91672Y71160D01*
X91765Y71296D01*
X91849Y71432D01*
X91907Y71556D01*
X91945Y71681D01*
X91946Y71691D01*
X91952Y71705D01*
X91959Y71739D01*
X91967Y71783D01*
X91966Y71837D01*
X91976Y71900D01*
X91981Y71969D01*
X91981Y72043D01*
X91963Y72202D01*
X91922Y72377D01*
X91893Y72462D01*
X91851Y72554D01*
X91802Y72631D01*
X91739Y72715D01*
X91707Y72751D01*
X91675Y72778D01*
X91642Y72805D01*
X91601Y72843D01*
X91493Y72914D01*
X91360Y72983D01*
X91288Y73013D01*
X91201Y73038D01*
X91119Y73059D01*
X91027Y73071D01*
X90929Y73078D01*
D02*
G37*
G36*
X109919Y37670D02*
X109790Y37657D01*
X109648Y37640D01*
X109490Y37625D01*
X109309Y37593D01*
X109118Y37549D01*
X108907Y37499D01*
X108675Y37425D01*
X108430Y37346D01*
X108162Y37251D01*
X108155Y37249D01*
X108142Y37244D01*
X108123Y37236D01*
X108097Y37226D01*
X108064Y37214D01*
X108019Y37197D01*
X107924Y37153D01*
X107810Y37102D01*
X107676Y37044D01*
X107530Y36980D01*
X107382Y36901D01*
X107066Y36736D01*
X106914Y36648D01*
X106764Y36554D01*
X106630Y36458D01*
X106513Y36354D01*
X106410Y36255D01*
X106328Y36157D01*
X106325Y36149D01*
X106314Y36137D01*
X106296Y36108D01*
X106275Y36063D01*
X106255Y36018D01*
X106231Y35964D01*
X106178Y35832D01*
X106134Y35675D01*
X106120Y35498D01*
X106117Y35408D01*
X106123Y35314D01*
X106145Y35218D01*
X106173Y35125D01*
X106181Y35105D01*
X106199Y35076D01*
X106212Y35043D01*
X106236Y35000D01*
X106268Y34953D01*
X106345Y34849D01*
X106396Y34794D01*
X106453Y34742D01*
X106519Y34685D01*
X106598Y34634D01*
X106677Y34582D01*
X106770Y34536D01*
X106875Y34494D01*
X106984Y34461D01*
X106993Y34457D01*
X107015Y34458D01*
X107048Y34449D01*
X107101Y34446D01*
X107171Y34436D01*
X107259Y34440D01*
X107362Y34442D01*
X107478Y34450D01*
X107614Y34464D01*
X107769Y34486D01*
X107937Y34513D01*
X108128Y34557D01*
X108337Y34614D01*
X108565Y34679D01*
X108807Y34764D01*
X109075Y34859D01*
X109082Y34861D01*
X109095Y34866D01*
X109114Y34874D01*
X109140Y34884D01*
X109172Y34896D01*
X109211Y34911D01*
X109313Y34957D01*
X109427Y35008D01*
X109561Y35066D01*
X109707Y35130D01*
X109855Y35209D01*
X110171Y35374D01*
X110321Y35468D01*
X110464Y35560D01*
X110598Y35656D01*
X110724Y35756D01*
X110821Y35852D01*
X110900Y35957D01*
X110904Y35966D01*
X110914Y35977D01*
X110933Y36006D01*
X110955Y36045D01*
X110973Y36096D01*
X111003Y36152D01*
X111031Y36215D01*
X111057Y36284D01*
X111094Y36439D01*
X111115Y36618D01*
X111118Y36708D01*
X111109Y36809D01*
X111090Y36898D01*
X111059Y36998D01*
X111042Y37043D01*
X111020Y37080D01*
X110999Y37116D01*
X110973Y37166D01*
X110896Y37270D01*
X110794Y37380D01*
X110737Y37432D01*
X110665Y37486D01*
X110594Y37534D01*
X110511Y37576D01*
X110422Y37617D01*
X110322Y37645D01*
X110313Y37649D01*
X110291Y37648D01*
X110251Y37655D01*
X110189Y37661D01*
X110114Y37663D01*
X110024Y37665D01*
X109919Y37670D01*
D02*
G37*
G36*
X97640Y59792D02*
X97634Y59788D01*
X97640Y59791D01*
X97640Y59792D01*
D02*
G37*
G36*
X97430Y59278D02*
X97362Y59269D01*
X97290Y59267D01*
X97207Y59258D01*
X97026Y59222D01*
X96838Y59158D01*
X96739Y59107D01*
X96640Y59056D01*
X96635Y59052D01*
X96623Y59045D01*
X96605Y59035D01*
X96581Y59020D01*
X96555Y58997D01*
X96519Y58975D01*
X96437Y58910D01*
X96346Y58831D01*
X96247Y58740D01*
X96150Y58633D01*
X96059Y58514D01*
X96053Y58510D01*
X96051Y58501D01*
X96040Y58478D01*
X96023Y58452D01*
X95987Y58390D01*
X95944Y58300D01*
X95903Y58194D01*
X95868Y58076D01*
X95837Y57952D01*
X95823Y57814D01*
X95826Y57808D01*
X95824Y57799D01*
X95827Y57753D01*
X95829Y57681D01*
X95842Y57592D01*
X95863Y57491D01*
X95890Y57377D01*
X95936Y57260D01*
X95994Y57149D01*
X96019Y57107D01*
X96043Y57081D01*
X96074Y57043D01*
X96105Y57005D01*
X96189Y56918D01*
X96299Y56830D01*
X96368Y56782D01*
X96433Y56740D01*
X96514Y56700D01*
X96591Y56665D01*
X96681Y56638D01*
X96776Y56614D01*
X96785Y56611D01*
X96801Y56612D01*
X96829Y56605D01*
X96870Y56605D01*
X96920Y56603D01*
X96976Y56604D01*
X97041Y56603D01*
X97119Y56608D01*
X97196Y56614D01*
X97285Y56627D01*
X97377Y56650D01*
X97474Y56676D01*
X97575Y56712D01*
X97686Y56754D01*
X97791Y56809D01*
X97902Y56867D01*
X97908Y56871D01*
X97926Y56881D01*
X97956Y56899D01*
X97994Y56930D01*
X98038Y56964D01*
X98088Y57003D01*
X98144Y57044D01*
X98202Y57095D01*
X98324Y57217D01*
X98440Y57359D01*
X98497Y57441D01*
X98543Y57526D01*
X98580Y57613D01*
X98614Y57705D01*
X98616Y57715D01*
X98618Y57724D01*
X98625Y57753D01*
X98635Y57791D01*
X98641Y57835D01*
X98649Y57889D01*
X98655Y58013D01*
X98647Y58162D01*
X98623Y58325D01*
X98575Y58499D01*
X98531Y58586D01*
X98487Y58673D01*
X98462Y58715D01*
X98435Y58747D01*
X98408Y58779D01*
X98373Y58823D01*
X98285Y58916D01*
X98169Y59016D01*
X98031Y59112D01*
X97956Y59156D01*
X97875Y59196D01*
X97782Y59230D01*
X97687Y59254D01*
X97677Y59256D01*
X97662Y59255D01*
X97633Y59262D01*
X97599Y59266D01*
X97555Y59272D01*
X97495Y59276D01*
X97430Y59278D01*
D02*
G37*
G36*
X102145Y56155D02*
X102124Y56151D01*
X102084Y56151D01*
X102022Y56146D01*
X101948Y56134D01*
X101859Y56121D01*
X101754Y56107D01*
X101629Y56073D01*
X101492Y56031D01*
X101339Y55988D01*
X101167Y55926D01*
X100986Y55849D01*
X100787Y55763D01*
X100571Y55650D01*
X100344Y55530D01*
X100096Y55390D01*
X100090Y55386D01*
X100078Y55379D01*
X100060Y55369D01*
X100037Y55354D01*
X100007Y55336D01*
X99965Y55312D01*
X99879Y55252D01*
X99776Y55182D01*
X99654Y55101D01*
X99521Y55013D01*
X99389Y54910D01*
X99106Y54692D01*
X98972Y54580D01*
X98841Y54461D01*
X98725Y54343D01*
X98629Y54220D01*
X98544Y54105D01*
X98481Y53994D01*
X98478Y53985D01*
X98470Y53972D01*
X98457Y53940D01*
X98445Y53892D01*
X98433Y53844D01*
X98419Y53787D01*
X98389Y53648D01*
X98373Y53485D01*
X98390Y53309D01*
X98403Y53220D01*
X98425Y53128D01*
X98463Y53038D01*
X98507Y52951D01*
X98518Y52933D01*
X98541Y52907D01*
X98559Y52877D01*
X98590Y52839D01*
X98631Y52798D01*
X98725Y52709D01*
X98784Y52663D01*
X98849Y52622D01*
X98924Y52578D01*
X99011Y52541D01*
X99098Y52504D01*
X99197Y52474D01*
X99307Y52451D01*
X99420Y52438D01*
X99430Y52435D01*
X99451Y52440D01*
X99486Y52437D01*
X99538Y52444D01*
X99610Y52446D01*
X99695Y52465D01*
X99797Y52485D01*
X99910Y52512D01*
X100041Y52550D01*
X100189Y52599D01*
X100350Y52655D01*
X100531Y52731D01*
X100727Y52823D01*
X100940Y52926D01*
X101164Y53052D01*
X101411Y53193D01*
X101417Y53196D01*
X101429Y53203D01*
X101447Y53214D01*
X101471Y53228D01*
X101501Y53246D01*
X101536Y53267D01*
X101628Y53330D01*
X101732Y53400D01*
X101853Y53481D01*
X101987Y53569D01*
X102119Y53673D01*
X102401Y53890D01*
X102532Y54009D01*
X102657Y54124D01*
X102773Y54242D01*
X102879Y54362D01*
X102958Y54474D01*
X103017Y54590D01*
X103020Y54600D01*
X103028Y54613D01*
X103041Y54645D01*
X103057Y54687D01*
X103065Y54740D01*
X103085Y54801D01*
X103102Y54868D01*
X103115Y54940D01*
X103125Y55100D01*
X103114Y55279D01*
X103102Y55369D01*
X103075Y55466D01*
X103041Y55551D01*
X102994Y55644D01*
X102969Y55686D01*
X102941Y55718D01*
X102914Y55750D01*
X102879Y55794D01*
X102786Y55883D01*
X102666Y55974D01*
X102601Y56016D01*
X102520Y56056D01*
X102443Y56091D01*
X102354Y56118D01*
X102259Y56142D01*
X102155Y56153D01*
X102145Y56155D01*
D02*
G37*
G36*
X113865Y22815D02*
X113719Y22801D01*
X113712Y22799D01*
X113699Y22797D01*
X113678Y22793D01*
X113645Y22779D01*
X113604Y22771D01*
X113565Y22757D01*
X113467Y22717D01*
X113357Y22660D01*
X113244Y22589D01*
X113134Y22497D01*
X113044Y22381D01*
X113033Y22364D01*
X113013Y22318D01*
X112977Y22248D01*
X112947Y22150D01*
X112912Y22037D01*
X112889Y21899D01*
X112891Y21744D01*
X112909Y21577D01*
X112917Y21536D01*
X112930Y21504D01*
X112938Y21463D01*
X112952Y21423D01*
X112993Y21325D01*
X113049Y21216D01*
X113120Y21102D01*
X113212Y20993D01*
X113330Y20895D01*
X113346Y20884D01*
X113387Y20857D01*
X113456Y20828D01*
X113548Y20789D01*
X113654Y20753D01*
X113785Y20735D01*
X113921Y20726D01*
X114066Y20740D01*
X114073Y20741D01*
X114087Y20744D01*
X114107Y20748D01*
X114140Y20761D01*
X114214Y20783D01*
X114312Y20823D01*
X114414Y20878D01*
X114527Y20956D01*
X114628Y21053D01*
X114681Y21106D01*
X114725Y21171D01*
X114732Y21172D01*
X114736Y21187D01*
X114763Y21235D01*
X114799Y21305D01*
X114836Y21404D01*
X114864Y21516D01*
X114887Y21654D01*
X114893Y21804D01*
X114892Y21882D01*
X114869Y22004D01*
X114856Y22037D01*
X114849Y22071D01*
X114833Y22118D01*
X114793Y22216D01*
X114736Y22325D01*
X114658Y22437D01*
X114567Y22547D01*
X114449Y22644D01*
X114433Y22655D01*
X114392Y22683D01*
X114323Y22712D01*
X114230Y22751D01*
X114125Y22787D01*
X114001Y22805D01*
X113865Y22815D01*
D02*
G37*
G36*
X110961Y22517D02*
X110871Y22506D01*
X110767Y22494D01*
X110760Y22492D01*
X110754Y22491D01*
X110713Y22483D01*
X110646Y22463D01*
X110567Y22434D01*
X110474Y22402D01*
X110370Y22354D01*
X110262Y22290D01*
X110156Y22220D01*
X110143Y22211D01*
X110113Y22184D01*
X110060Y22131D01*
X110001Y22070D01*
X109939Y21988D01*
X109878Y21898D01*
X109815Y21787D01*
X109768Y21665D01*
X109769Y21658D01*
X109764Y21650D01*
X109751Y21605D01*
X109736Y21539D01*
X109725Y21445D01*
X109717Y21344D01*
X109712Y21223D01*
X109715Y21096D01*
X109733Y20966D01*
X109743Y20911D01*
X109758Y20872D01*
X109774Y20825D01*
X109791Y20772D01*
X109844Y20648D01*
X109912Y20513D01*
X110004Y20368D01*
X110059Y20301D01*
X110121Y20235D01*
X110190Y20170D01*
X110264Y20114D01*
X110273Y20109D01*
X110281Y20103D01*
X110305Y20087D01*
X110336Y20071D01*
X110382Y20052D01*
X110430Y20026D01*
X110484Y20001D01*
X110545Y19977D01*
X110687Y19941D01*
X110855Y19910D01*
X111033Y19902D01*
X111130Y19913D01*
X111233Y19926D01*
X111240Y19927D01*
X111261Y19931D01*
X111288Y19937D01*
X111328Y19951D01*
X111374Y19967D01*
X111427Y19985D01*
X111551Y20037D01*
X111687Y20105D01*
X111830Y20203D01*
X111897Y20259D01*
X111962Y20328D01*
X112026Y20397D01*
X112081Y20478D01*
X112087Y20486D01*
X112092Y20494D01*
X112109Y20519D01*
X112123Y20557D01*
X112150Y20597D01*
X112170Y20643D01*
X112193Y20705D01*
X112217Y20766D01*
X112259Y20915D01*
X112290Y21083D01*
X112295Y21275D01*
X112284Y21372D01*
X112271Y21476D01*
X112260Y21530D01*
X112247Y21563D01*
X112231Y21609D01*
X112214Y21663D01*
X112162Y21787D01*
X112093Y21922D01*
X112003Y22060D01*
X111948Y22127D01*
X111885Y22193D01*
X111810Y22256D01*
X111735Y22312D01*
X111727Y22318D01*
X111719Y22323D01*
X111695Y22340D01*
X111663Y22355D01*
X111617Y22375D01*
X111571Y22394D01*
X111517Y22419D01*
X111456Y22442D01*
X111313Y22486D01*
X111146Y22510D01*
X110961Y22517D01*
D02*
G37*
G36*
X114372Y17979D02*
X114188Y17979D01*
X113992Y17969D01*
X113776Y17956D01*
X113534Y17924D01*
X113280Y17889D01*
X112999Y17842D01*
X112992Y17841D01*
X112978Y17838D01*
X112958Y17834D01*
X112931Y17829D01*
X112897Y17822D01*
X112849Y17813D01*
X112748Y17786D01*
X112627Y17756D01*
X112485Y17722D01*
X112329Y17685D01*
X112170Y17633D01*
X111830Y17525D01*
X111665Y17465D01*
X111501Y17398D01*
X111352Y17327D01*
X111220Y17245D01*
X111101Y17165D01*
X111004Y17083D01*
X110998Y17075D01*
X110986Y17065D01*
X110962Y17040D01*
X110935Y16999D01*
X110907Y16959D01*
X110874Y16910D01*
X110799Y16789D01*
X110728Y16641D01*
X110683Y16470D01*
X110665Y16382D01*
X110655Y16288D01*
X110660Y16190D01*
X110671Y16093D01*
X110675Y16073D01*
X110688Y16040D01*
X110695Y16006D01*
X110711Y15959D01*
X110735Y15908D01*
X110793Y15791D01*
X110833Y15729D01*
X110880Y15667D01*
X110936Y15600D01*
X111005Y15536D01*
X111074Y15471D01*
X111156Y15409D01*
X111252Y15350D01*
X111354Y15299D01*
X111362Y15293D01*
X111384Y15291D01*
X111415Y15275D01*
X111467Y15264D01*
X111535Y15242D01*
X111622Y15230D01*
X111724Y15214D01*
X111839Y15202D01*
X111976Y15192D01*
X112132Y15187D01*
X112302Y15184D01*
X112498Y15194D01*
X112713Y15214D01*
X112949Y15238D01*
X113202Y15280D01*
X113483Y15327D01*
X113490Y15328D01*
X113504Y15331D01*
X113524Y15335D01*
X113551Y15340D01*
X113585Y15347D01*
X113626Y15355D01*
X113734Y15382D01*
X113855Y15413D01*
X113997Y15447D01*
X114153Y15484D01*
X114312Y15536D01*
X114652Y15644D01*
X114816Y15711D01*
X114973Y15777D01*
X115122Y15848D01*
X115262Y15924D01*
X115375Y16002D01*
X115470Y16092D01*
X115476Y16100D01*
X115488Y16109D01*
X115512Y16135D01*
X115540Y16169D01*
X115567Y16216D01*
X115606Y16266D01*
X115645Y16323D01*
X115682Y16387D01*
X115746Y16533D01*
X115797Y16706D01*
X115816Y16794D01*
X115824Y16895D01*
X115821Y16986D01*
X115808Y17089D01*
X115799Y17137D01*
X115784Y17177D01*
X115770Y17216D01*
X115752Y17269D01*
X115695Y17386D01*
X115614Y17511D01*
X115567Y17573D01*
X115505Y17639D01*
X115444Y17698D01*
X115369Y17754D01*
X115288Y17809D01*
X115194Y17855D01*
X115186Y17860D01*
X115165Y17863D01*
X115127Y17877D01*
X115067Y17894D01*
X114993Y17908D01*
X114905Y17926D01*
X114802Y17949D01*
X114673Y17959D01*
X114530Y17967D01*
X114372Y17979D01*
D02*
G37*
%LPD*%
D10*
X-97441Y97475D02*
X-86305Y86339D01*
X-88578Y105596D02*
X-78455Y93532D01*
X-79041Y112914D02*
X-70008Y100014D01*
X-68902Y119373D02*
X-61028Y105735D01*
X-58240Y124924D02*
X-51584Y110651D01*
X-47133Y129524D02*
X-41747Y114726D01*
X-35669Y133139D02*
X-31593Y117927D01*
X-23933Y135741D02*
X-21198Y120232D01*
X-12014Y137310D02*
X-10642Y121622D01*
X-5Y122086D02*
Y137834D01*
X122043Y39D02*
X137791D01*
X121578Y10676D02*
X137266Y12048D01*
X120188Y21232D02*
X135697Y23967D01*
X117884Y31627D02*
X133095Y35703D01*
X114682Y41781D02*
X129481Y47168D01*
X110608Y51618D02*
X124880Y58274D01*
X105691Y61062D02*
X119330Y68936D01*
X99971Y70042D02*
X112871Y79075D01*
X116806Y47233D02*
X127757Y51658D01*
X-124890Y58274D02*
X-110617Y51618D01*
X-105562Y88612D02*
X-93498Y78489D01*
X-137800Y39D02*
X-122052D01*
X-119339Y68936D02*
X-105701Y61062D01*
X-129490Y47168D02*
X-114692Y41781D01*
X-137276Y12048D02*
X-121588Y10676D01*
X117612Y45188D02*
X128638Y49420D01*
X-133105Y35703D02*
X-117893Y31627D01*
X-112880Y79075D02*
X-99980Y70042D01*
X-135707Y23967D02*
X-120198Y21232D01*
X93489Y78489D02*
X105553Y88612D01*
X123226Y26232D02*
X134779Y28688D01*
X123665Y24078D02*
X135259Y26331D01*
X86296Y86339D02*
X97431Y97475D01*
X78446Y93532D02*
X88568Y105596D01*
X69999Y100014D02*
X79031Y112914D01*
X61019Y105735D02*
X68893Y119373D01*
X51575Y110651D02*
X58230Y124924D01*
X41738Y114726D02*
X47124Y129524D01*
X31583Y117927D02*
X35659Y133139D01*
X21189Y120232D02*
X23923Y135741D01*
X10632Y121622D02*
X12005Y137310D01*
X-5Y122086D02*
Y137834D01*
X125979Y39D02*
X137791D01*
X125960Y2238D02*
X137770Y2444D01*
X125903Y4436D02*
X137707Y4848D01*
X125807Y6632D02*
X137602Y7250D01*
X125673Y8827D02*
X137455Y9651D01*
X125500Y11019D02*
X137266Y12048D01*
X125289Y13208D02*
X137036Y14442D01*
X125040Y15392D02*
X136763Y16832D01*
X124753Y17572D02*
X136450Y19216D01*
X124428Y19747D02*
X136094Y21595D01*
X124065Y21916D02*
X135697Y23967D01*
X-137779Y2444D02*
X-125970Y2238D01*
X-137716Y4848D02*
X-125912Y4436D01*
X-137611Y7250D02*
X-125816Y6632D01*
X-137464Y9651D02*
X-125682Y8827D01*
X-137276Y12048D02*
X-125510Y11019D01*
X-137045Y14442D02*
X-125299Y13208D01*
X-136773Y16832D02*
X-125050Y15392D01*
X-136459Y19216D02*
X-124763Y17572D01*
X-136103Y21595D02*
X-124438Y19747D01*
X-135707Y23967D02*
X-124075Y21916D01*
X-135268Y26331D02*
X-123674Y24078D01*
X-134789Y28688D02*
X-123236Y26232D01*
X-134268Y31036D02*
X-122760Y28379D01*
X-133707Y33375D02*
X-122247Y30517D01*
X-133105Y35703D02*
X-121696Y32646D01*
X-132462Y38020D02*
X-121109Y34765D01*
X-131779Y40326D02*
X-120484Y36873D01*
X-131056Y42620D02*
X-119823Y38970D01*
X-130293Y44901D02*
X-119125Y41055D01*
X-129490Y47168D02*
X-118391Y43128D01*
X-128648Y49420D02*
X-117621Y45188D01*
X-127766Y51658D02*
X-116815Y47233D01*
X-126846Y53880D02*
X-115974Y49265D01*
X-125887Y56085D02*
X-115097Y51281D01*
X-124890Y58274D02*
X-114185Y53282D01*
X-123854Y60444D02*
X-113239Y55267D01*
X-122781Y62596D02*
X-112258Y57235D01*
X-121671Y64730D02*
X-111242Y59185D01*
X-120523Y66843D02*
X-110193Y61117D01*
X-119339Y68936D02*
X-109110Y63031D01*
X-118118Y71009D02*
X-107994Y64925D01*
X-116862Y73059D02*
X-106845Y66800D01*
X-115570Y75087D02*
X-105664Y68655D01*
X-114242Y77093D02*
X-104450Y70488D01*
X-112880Y79075D02*
X-103205Y72300D01*
X-111483Y81033D02*
X-101928Y74090D01*
X-110053Y82966D02*
X-100620Y75858D01*
X-108589Y84874D02*
X-99282Y77602D01*
X-107092Y86756D02*
X-97913Y79323D01*
X-105562Y88612D02*
X-96514Y81020D01*
X-104000Y90441D02*
X-95086Y82692D01*
X-102407Y92242D02*
X-93629Y84339D01*
X-100782Y94015D02*
X-92144Y85960D01*
X-99126Y95759D02*
X-90630Y87555D01*
X-97441Y97475D02*
X-89089Y89123D01*
X-95725Y99160D02*
X-87521Y90664D01*
X-93981Y100816D02*
X-85926Y92178D01*
X-92208Y102441D02*
X-84305Y93663D01*
X-90407Y104034D02*
X-82658Y95120D01*
X-88578Y105596D02*
X-80986Y96548D01*
X-86722Y107126D02*
X-79289Y97947D01*
X-84840Y108623D02*
X-77568Y99316D01*
X-82932Y110087D02*
X-75824Y100654D01*
X-80999Y111518D02*
X-74056Y101962D01*
X-79041Y112914D02*
X-72266Y103239D01*
X-77059Y114276D02*
X-70454Y104484D01*
X-75053Y115604D02*
X-68621Y105698D01*
X-73025Y116896D02*
X-66766Y106879D01*
X-70974Y118152D02*
X-64891Y108028D01*
X-68902Y119373D02*
X-62997Y109144D01*
X-66809Y120557D02*
X-61083Y110227D01*
X-64696Y121705D02*
X-59151Y111276D01*
X-62563Y122815D02*
X-57200Y112292D01*
X-60410Y123888D02*
X-55233Y113273D01*
X-58240Y124924D02*
X-53248Y114219D01*
X-56051Y125921D02*
X-51247Y115131D01*
X-53846Y126880D02*
X-49231Y116008D01*
X-51624Y127800D02*
X-47199Y116849D01*
X-49386Y128682D02*
X-45153Y117655D01*
X-47133Y129524D02*
X-43094Y118425D01*
X-44866Y130327D02*
X-41021Y119159D01*
X-42586Y131090D02*
X-38936Y119857D01*
X-40292Y131813D02*
X-36839Y120518D01*
X-37986Y132496D02*
X-34731Y121143D01*
X-35669Y133139D02*
X-32612Y121730D01*
X-33340Y133741D02*
X-30483Y122281D01*
X-31002Y134302D02*
X-28345Y122794D01*
X-28654Y134823D02*
X-26198Y123270D01*
X-26297Y135302D02*
X-24044Y123708D01*
X-23933Y135741D02*
X-21882Y124109D01*
X-21561Y136138D02*
X-19713Y124472D01*
X-19182Y136493D02*
X-17538Y124797D01*
X-16798Y136807D02*
X-15358Y125084D01*
X-14408Y137079D02*
X-13174Y125333D01*
X-12014Y137310D02*
X-10985Y125544D01*
X-9617Y137498D02*
X-8793Y125716D01*
X-7216Y137645D02*
X-6598Y125850D01*
X-4814Y137750D02*
X-4402Y125946D01*
X-2410Y137813D02*
X-2204Y126004D01*
X-5Y126023D02*
Y137834D01*
X2194Y126004D02*
X2400Y137813D01*
X4392Y125946D02*
X4804Y137750D01*
X6589Y125850D02*
X7207Y137645D01*
X8783Y125716D02*
X9607Y137498D01*
X10976Y125544D02*
X12005Y137310D01*
X13164Y125333D02*
X14399Y137079D01*
X15349Y125084D02*
X16788Y136807D01*
X17529Y124797D02*
X19173Y136493D01*
X19704Y124472D02*
X21551Y136138D01*
X21872Y124109D02*
X23923Y135741D01*
X24034Y123708D02*
X26288Y135302D01*
X26189Y123270D02*
X28644Y134823D01*
X28336Y122794D02*
X30992Y134302D01*
X30474Y122281D02*
X33331Y133741D01*
X32602Y121730D02*
X35659Y133139D01*
X34721Y121143D02*
X37977Y132496D01*
X36830Y120518D02*
X40283Y131813D01*
X38927Y119857D02*
X42576Y131090D01*
X41012Y119159D02*
X44857Y130327D01*
X43084Y118425D02*
X47124Y129524D01*
X45144Y117655D02*
X49377Y128682D01*
X47190Y116849D02*
X51614Y127800D01*
X49221Y116008D02*
X53836Y126880D01*
X119813Y38970D02*
X131046Y42620D01*
X120475Y36873D02*
X131770Y40326D01*
X121099Y34765D02*
X132453Y38020D01*
X121687Y32646D02*
X133095Y35703D01*
X122237Y30517D02*
X133697Y33375D01*
X122750Y28379D02*
X134259Y31036D01*
X59141Y111276D02*
X64686Y121705D01*
X61074Y110227D02*
X66800Y120557D01*
X75814Y100654D02*
X82923Y110087D01*
X70445Y104484D02*
X77049Y114276D01*
X72257Y103239D02*
X79031Y112914D01*
X113229Y55267D02*
X123845Y60444D01*
X114176Y53282D02*
X124880Y58274D01*
X115088Y51281D02*
X125877Y56085D01*
X115964Y49265D02*
X126837Y53880D01*
X111233Y59185D02*
X121661Y64730D01*
X112248Y57235D02*
X122772Y62596D01*
X82648Y95120D02*
X90397Y104034D01*
X84295Y93663D02*
X92198Y102441D01*
X85916Y92178D02*
X93971Y100816D01*
X87511Y90664D02*
X95716Y99160D01*
X57191Y112292D02*
X62553Y122815D01*
X89080Y89123D02*
X97431Y97475D01*
X90621Y87555D02*
X99117Y95759D01*
X92134Y85960D02*
X100772Y94015D01*
X80976Y96548D02*
X88568Y105596D01*
X93620Y84339D02*
X102397Y92242D01*
X95077Y82692D02*
X103991Y90441D01*
X96505Y81020D02*
X105553Y88612D01*
X97903Y79323D02*
X107082Y86756D01*
X99272Y77602D02*
X108579Y84874D01*
X100611Y75858D02*
X110044Y82966D01*
X103196Y72300D02*
X112871Y79075D01*
X55223Y113273D02*
X60401Y123888D01*
X104441Y70488D02*
X114233Y77093D01*
X53238Y114219D02*
X58230Y124924D01*
X105655Y68655D02*
X115560Y75087D01*
X106836Y66800D02*
X116852Y73059D01*
X107985Y64925D02*
X118109Y71009D01*
X101919Y74090D02*
X111474Y81033D01*
X51238Y115131D02*
X56042Y125921D01*
X110184Y61117D02*
X120514Y66843D01*
X109101Y63031D02*
X119330Y68936D01*
X77559Y99316D02*
X84830Y108623D01*
X79280Y97947D02*
X86713Y107126D01*
X68611Y105698D02*
X75044Y115604D01*
X64882Y108028D02*
X70965Y118152D01*
X74047Y101962D02*
X80989Y111518D01*
X66757Y106879D02*
X73016Y116896D01*
X118382Y43128D02*
X129481Y47168D01*
X119116Y41055D02*
X130283Y44901D01*
X62987Y109144D02*
X68893Y119373D01*
D11*
X-21036Y46045D02*
X-22348D01*
X-21692D01*
Y42765D01*
X-22348Y42109D01*
X-23004D01*
X-23660Y42765D01*
X-19724Y46045D02*
Y42109D01*
X-17100D01*
X-13164Y45389D02*
X-13820Y46045D01*
X-15132D01*
X-15788Y45389D01*
Y42765D01*
X-15132Y42109D01*
X-13820D01*
X-13164Y42765D01*
X-9228Y46045D02*
X-10540D01*
X-9884D01*
Y42765D01*
X-10540Y42109D01*
X-11196D01*
X-11852Y42765D01*
X-7916Y46045D02*
Y42109D01*
X-5293D01*
X-1357Y45389D02*
X-2013Y46045D01*
X-3325D01*
X-3981Y45389D01*
Y42765D01*
X-3325Y42109D01*
X-2013D01*
X-1357Y42765D01*
X2579Y46045D02*
X1267D01*
X1923D01*
Y42765D01*
X1267Y42109D01*
X611D01*
X-45Y42765D01*
X3891Y46045D02*
Y42109D01*
X6515D01*
X10450Y45389D02*
X9794Y46045D01*
X8482D01*
X7826Y45389D01*
Y42765D01*
X8482Y42109D01*
X9794D01*
X10450Y42765D01*
X14386Y46045D02*
X13074D01*
X13730D01*
Y42765D01*
X13074Y42109D01*
X12418D01*
X11762Y42765D01*
X15698Y46045D02*
Y42109D01*
X18322D01*
X22257Y45389D02*
X21601Y46045D01*
X20290D01*
X19634Y45389D01*
Y42765D01*
X20290Y42109D01*
X21601D01*
X22257Y42765D01*
M02*
