G04*
G04 #@! TF.GenerationSoftware,Altium Limited,Altium Designer,18.0.9 (584)*
G04*
G04 Layer_Color=65535*
%FSLAX25Y25*%
%MOIN*%
G70*
G01*
G75*
%ADD10C,0.02000*%
D10*
X344402Y462959D02*
X331281Y443278D01*
Y462959D02*
X344402D01*
X331281Y443278D02*
X344402D01*
X354430Y462959D02*
X352555Y462022D01*
X350681Y460147D01*
X349744Y458273D01*
X348807Y455462D01*
Y450776D01*
X349744Y447964D01*
X350681Y446090D01*
X352555Y444215D01*
X354430Y443278D01*
X358178D01*
X360053Y444215D01*
X361927Y446090D01*
X362864Y447964D01*
X363802Y450776D01*
Y455462D01*
X362864Y458273D01*
X361927Y460147D01*
X360053Y462022D01*
X358178Y462959D01*
X354430D01*
X368394D02*
Y443278D01*
Y462959D02*
X381514Y443278D01*
Y462959D02*
Y443278D01*
X399133Y462959D02*
X386950D01*
Y443278D01*
X399133D01*
X386950Y453587D02*
X394447D01*
X417877Y452650D02*
X426311D01*
X429123Y453587D01*
X430060Y454524D01*
X430997Y456399D01*
Y459210D01*
X430060Y461085D01*
X429123Y462022D01*
X426311Y462959D01*
X417877D01*
Y443278D01*
X435402Y462959D02*
Y443278D01*
X446648D01*
X463799D02*
X456301Y462959D01*
X448804Y443278D01*
X451615Y449838D02*
X460987D01*
X474951Y462959D02*
Y443278D01*
X468391Y462959D02*
X481511D01*
X496038D02*
X483854D01*
Y443278D01*
X496038D01*
X483854Y453587D02*
X491352D01*
X289952Y405188D02*
Y385507D01*
Y405188D02*
X302135D01*
X289952Y395816D02*
X297449D01*
X309070Y398628D02*
X307196Y397690D01*
X305321Y395816D01*
X304384Y393004D01*
Y391130D01*
X305321Y388319D01*
X307196Y386444D01*
X309070Y385507D01*
X311882D01*
X313756Y386444D01*
X315630Y388319D01*
X316568Y391130D01*
Y393004D01*
X315630Y395816D01*
X313756Y397690D01*
X311882Y398628D01*
X309070D01*
X332125Y395816D02*
X330250Y397690D01*
X328376Y398628D01*
X325565D01*
X323690Y397690D01*
X321816Y395816D01*
X320879Y393004D01*
Y391130D01*
X321816Y388319D01*
X323690Y386444D01*
X325565Y385507D01*
X328376D01*
X330250Y386444D01*
X332125Y388319D01*
X347588Y398628D02*
Y385507D01*
Y395816D02*
X345714Y397690D01*
X343840Y398628D01*
X341028D01*
X339154Y397690D01*
X337279Y395816D01*
X336342Y393004D01*
Y391130D01*
X337279Y388319D01*
X339154Y386444D01*
X341028Y385507D01*
X343840D01*
X345714Y386444D01*
X347588Y388319D01*
X352836Y405188D02*
Y385507D01*
X372424Y394879D02*
X380858D01*
X383670Y395816D01*
X384607Y396753D01*
X385544Y398628D01*
Y401439D01*
X384607Y403313D01*
X383670Y404251D01*
X380858Y405188D01*
X372424D01*
Y385507D01*
X394635Y398628D02*
X392760Y397690D01*
X390886Y395816D01*
X389949Y393004D01*
Y391130D01*
X390886Y388319D01*
X392760Y386444D01*
X394635Y385507D01*
X397446D01*
X399321Y386444D01*
X401195Y388319D01*
X402132Y391130D01*
Y393004D01*
X401195Y395816D01*
X399321Y397690D01*
X397446Y398628D01*
X394635D01*
X408318Y405188D02*
X409255Y404251D01*
X410192Y405188D01*
X409255Y406125D01*
X408318Y405188D01*
X409255Y398628D02*
Y385507D01*
X413659Y398628D02*
Y385507D01*
Y394879D02*
X416471Y397690D01*
X418345Y398628D01*
X421157D01*
X423031Y397690D01*
X423968Y394879D01*
Y385507D01*
X431934Y405188D02*
Y389256D01*
X432872Y386444D01*
X434746Y385507D01*
X436620D01*
X429123Y398628D02*
X435683D01*
X468016Y405188D02*
X458644Y385507D01*
X454895Y405188D02*
X468016D01*
X478044D02*
X475232Y404251D01*
X473358Y401439D01*
X472421Y396753D01*
Y393942D01*
X473358Y389256D01*
X475232Y386444D01*
X478044Y385507D01*
X479918D01*
X482730Y386444D01*
X484604Y389256D01*
X485541Y393942D01*
Y396753D01*
X484604Y401439D01*
X482730Y404251D01*
X479918Y405188D01*
X478044D01*
X489946Y398628D02*
Y385507D01*
Y394879D02*
X492757Y397690D01*
X494632Y398628D01*
X497443D01*
X499318Y397690D01*
X500255Y394879D01*
Y385507D01*
Y394879D02*
X503066Y397690D01*
X504941Y398628D01*
X507752D01*
X509627Y397690D01*
X510564Y394879D01*
Y385507D01*
X516749Y398628D02*
Y385507D01*
Y394879D02*
X519561Y397690D01*
X521435Y398628D01*
X524247D01*
X526121Y397690D01*
X527058Y394879D01*
Y385507D01*
Y394879D02*
X529870Y397690D01*
X531744Y398628D01*
X534556D01*
X536430Y397690D01*
X537367Y394879D01*
Y385507D01*
X280158Y376771D02*
Y357090D01*
Y376771D02*
X292341D01*
X280158Y367399D02*
X287656D01*
X294591Y370211D02*
Y357090D01*
Y364588D02*
X295528Y367399D01*
X297402Y369273D01*
X299277Y370211D01*
X302088D01*
X303869Y364588D02*
X315115D01*
Y366462D01*
X314178Y368336D01*
X313241Y369273D01*
X311366Y370211D01*
X308555D01*
X306680Y369273D01*
X304806Y367399D01*
X303869Y364588D01*
Y362713D01*
X304806Y359902D01*
X306680Y358027D01*
X308555Y357090D01*
X311366D01*
X313241Y358027D01*
X315115Y359902D01*
X330578Y370211D02*
Y350530D01*
Y367399D02*
X328704Y369273D01*
X326830Y370211D01*
X324018D01*
X322144Y369273D01*
X320269Y367399D01*
X319332Y364588D01*
Y362713D01*
X320269Y359902D01*
X322144Y358027D01*
X324018Y357090D01*
X326830D01*
X328704Y358027D01*
X330578Y359902D01*
X335827Y370211D02*
Y360839D01*
X336764Y358027D01*
X338638Y357090D01*
X341450D01*
X343324Y358027D01*
X346136Y360839D01*
Y370211D02*
Y357090D01*
X351290Y364588D02*
X362536D01*
Y366462D01*
X361599Y368336D01*
X360662Y369273D01*
X358787Y370211D01*
X355976D01*
X354102Y369273D01*
X352227Y367399D01*
X351290Y364588D01*
Y362713D01*
X352227Y359902D01*
X354102Y358027D01*
X355976Y357090D01*
X358787D01*
X360662Y358027D01*
X362536Y359902D01*
X366754Y370211D02*
Y357090D01*
Y366462D02*
X369565Y369273D01*
X371440Y370211D01*
X374251D01*
X376125Y369273D01*
X377063Y366462D01*
Y357090D01*
X393463Y367399D02*
X391589Y369273D01*
X389715Y370211D01*
X386903D01*
X385029Y369273D01*
X383154Y367399D01*
X382217Y364588D01*
Y362713D01*
X383154Y359902D01*
X385029Y358027D01*
X386903Y357090D01*
X389715D01*
X391589Y358027D01*
X393463Y359902D01*
X398618Y370211D02*
X404241Y357090D01*
X409864Y370211D02*
X404241Y357090D01*
X402366Y353341D01*
X400492Y351467D01*
X398618Y350530D01*
X397680D01*
X428607Y373022D02*
X430482Y373959D01*
X433293Y376771D01*
Y357090D01*
X448663Y376771D02*
X445852Y375834D01*
X443977Y373022D01*
X443040Y368336D01*
Y365525D01*
X443977Y360839D01*
X445852Y358027D01*
X448663Y357090D01*
X450537D01*
X453349Y358027D01*
X455223Y360839D01*
X456160Y365525D01*
Y368336D01*
X455223Y373022D01*
X453349Y375834D01*
X450537Y376771D01*
X448663D01*
X461503Y358964D02*
X460565Y358027D01*
X461503Y357090D01*
X462440Y358027D01*
X461503Y358964D01*
X477997Y376771D02*
X468625D01*
X467688Y368336D01*
X468625Y369273D01*
X471437Y370211D01*
X474248D01*
X477060Y369273D01*
X478934Y367399D01*
X479871Y364588D01*
Y362713D01*
X478934Y359902D01*
X477060Y358027D01*
X474248Y357090D01*
X471437D01*
X468625Y358027D01*
X467688Y358964D01*
X466751Y360839D01*
X513797Y372085D02*
X512860Y373959D01*
X510986Y375834D01*
X509111Y376771D01*
X505363D01*
X503488Y375834D01*
X501614Y373959D01*
X500677Y372085D01*
X499739Y369273D01*
Y364588D01*
X500677Y361776D01*
X501614Y359902D01*
X503488Y358027D01*
X505363Y357090D01*
X509111D01*
X510986Y358027D01*
X512860Y359902D01*
X513797Y361776D01*
Y364588D01*
X509111D02*
X513797D01*
X518296Y376771D02*
Y357090D01*
X531416Y376771D02*
Y357090D01*
X518296Y367399D02*
X531416D01*
X547161Y370211D02*
X536852Y357090D01*
Y370211D02*
X547161D01*
X536852Y357090D02*
X547161D01*
M02*
