G04*
G04 #@! TF.GenerationSoftware,Altium Limited,Altium Designer,18.0.9 (584)*
G04*
G04 Layer_Color=65535*
%FSLAX25Y25*%
%MOIN*%
G70*
G01*
G75*
G36*
X380682Y442067D02*
X377560D01*
X365621Y460308D01*
Y442067D01*
X362480D01*
Y465753D01*
X365621D01*
X377579Y447418D01*
Y465753D01*
X380682D01*
Y442067D01*
D02*
G37*
G36*
X508897Y463202D02*
X497131D01*
Y455567D01*
X507393D01*
Y453015D01*
X497131D01*
Y444619D01*
X509050D01*
Y442067D01*
X494008D01*
Y465753D01*
X508897D01*
Y463202D01*
D02*
G37*
G36*
X490505D02*
X482889D01*
Y442067D01*
X479766D01*
Y463202D01*
X472169D01*
Y465753D01*
X490505D01*
Y463202D01*
D02*
G37*
G36*
X470932Y442067D02*
X467733D01*
X465467Y448274D01*
X455547D01*
X453320Y442067D01*
X450102D01*
X459146Y465753D01*
X461869D01*
X470932Y442067D01*
D02*
G37*
G36*
X437593Y444619D02*
X448807D01*
Y442067D01*
X434451D01*
Y465753D01*
X437593D01*
Y444619D01*
D02*
G37*
G36*
X422551Y465734D02*
X422818Y465715D01*
X423141Y465696D01*
X423522Y465639D01*
X423941Y465582D01*
X424398Y465506D01*
X424874Y465391D01*
X425369Y465258D01*
X425864Y465106D01*
X426378Y464915D01*
X426873Y464687D01*
X427368Y464420D01*
X427825Y464116D01*
X428263Y463754D01*
X428282Y463735D01*
X428358Y463659D01*
X428473Y463545D01*
X428606Y463392D01*
X428777Y463202D01*
X428968Y462954D01*
X429158Y462669D01*
X429367Y462364D01*
X429577Y462002D01*
X429767Y461602D01*
X429958Y461165D01*
X430129Y460708D01*
X430262Y460193D01*
X430377Y459660D01*
X430453Y459089D01*
X430472Y458499D01*
Y458461D01*
Y458347D01*
X430453Y458175D01*
X430434Y457928D01*
X430415Y457642D01*
X430358Y457318D01*
X430281Y456938D01*
X430205Y456538D01*
X430091Y456119D01*
X429939Y455681D01*
X429767Y455243D01*
X429558Y454805D01*
X429310Y454367D01*
X429025Y453948D01*
X428682Y453548D01*
X428301Y453187D01*
X428282Y453168D01*
X428206Y453111D01*
X428073Y453015D01*
X427901Y452901D01*
X427673Y452768D01*
X427406Y452597D01*
X427083Y452444D01*
X426721Y452273D01*
X426302Y452082D01*
X425845Y451930D01*
X425350Y451778D01*
X424798Y451625D01*
X424189Y451511D01*
X423560Y451416D01*
X422856Y451359D01*
X422132Y451340D01*
X416553D01*
Y442067D01*
X413431D01*
Y465753D01*
X422342D01*
X422551Y465734D01*
D02*
G37*
G36*
X401131Y463202D02*
X389364D01*
Y455567D01*
X399627D01*
Y453015D01*
X389364D01*
Y444619D01*
X401283D01*
Y442067D01*
X386242D01*
Y465753D01*
X401131D01*
Y463202D01*
D02*
G37*
G36*
X334986Y463468D02*
X321963Y444619D01*
X335519D01*
Y442067D01*
X318269D01*
Y444390D01*
X331254Y463202D01*
X318478D01*
Y465753D01*
X334986D01*
Y463468D01*
D02*
G37*
G36*
X348733Y466058D02*
X348981Y466039D01*
X349285Y466001D01*
X349609Y465963D01*
X349952Y465906D01*
X350332Y465829D01*
X350732Y465734D01*
X351151Y465620D01*
X351589Y465487D01*
X352008Y465334D01*
X352446Y465144D01*
X352865Y464934D01*
X353284Y464687D01*
X353303Y464668D01*
X353379Y464630D01*
X353493Y464535D01*
X353645Y464439D01*
X353817Y464287D01*
X354026Y464116D01*
X354274Y463906D01*
X354521Y463678D01*
X354788Y463411D01*
X355054Y463107D01*
X355321Y462783D01*
X355607Y462421D01*
X355873Y462040D01*
X356140Y461622D01*
X356387Y461184D01*
X356616Y460708D01*
X356635Y460670D01*
X356673Y460593D01*
X356730Y460441D01*
X356806Y460251D01*
X356882Y460003D01*
X356996Y459698D01*
X357092Y459356D01*
X357206Y458975D01*
X357320Y458537D01*
X357415Y458080D01*
X357529Y457585D01*
X357606Y457052D01*
X357682Y456481D01*
X357739Y455890D01*
X357777Y455281D01*
X357796Y454634D01*
Y453130D01*
Y453092D01*
Y452977D01*
Y452787D01*
X357777Y452539D01*
X357758Y452254D01*
X357739Y451892D01*
X357701Y451511D01*
X357644Y451073D01*
X357587Y450616D01*
X357510Y450121D01*
X357415Y449626D01*
X357301Y449112D01*
X357168Y448579D01*
X356996Y448065D01*
X356825Y447551D01*
X356616Y447056D01*
X356597Y447018D01*
X356558Y446942D01*
X356501Y446808D01*
X356406Y446637D01*
X356273Y446409D01*
X356140Y446161D01*
X355968Y445894D01*
X355759Y445590D01*
X355549Y445285D01*
X355302Y444942D01*
X355016Y444619D01*
X354731Y444295D01*
X354407Y443971D01*
X354064Y443667D01*
X353702Y443362D01*
X353303Y443096D01*
X353284Y443077D01*
X353207Y443038D01*
X353093Y442962D01*
X352922Y442886D01*
X352712Y442791D01*
X352465Y442677D01*
X352198Y442543D01*
X351875Y442429D01*
X351513Y442296D01*
X351132Y442163D01*
X350713Y442048D01*
X350275Y441953D01*
X349818Y441877D01*
X349323Y441801D01*
X348828Y441763D01*
X348295Y441744D01*
X348162D01*
X348029Y441763D01*
X347819D01*
X347572Y441782D01*
X347305Y441820D01*
X346981Y441858D01*
X346620Y441915D01*
X346258Y441991D01*
X345858Y442086D01*
X345439Y442182D01*
X345020Y442315D01*
X344582Y442486D01*
X344163Y442658D01*
X343745Y442867D01*
X343326Y443115D01*
X343307Y443134D01*
X343231Y443172D01*
X343116Y443267D01*
X342964Y443362D01*
X342793Y443514D01*
X342583Y443686D01*
X342355Y443876D01*
X342107Y444124D01*
X341841Y444371D01*
X341555Y444676D01*
X341288Y445000D01*
X341003Y445342D01*
X340736Y445723D01*
X340470Y446123D01*
X340203Y446561D01*
X339975Y447018D01*
X339956Y447056D01*
X339917Y447132D01*
X339860Y447284D01*
X339784Y447475D01*
X339689Y447703D01*
X339594Y448008D01*
X339480Y448332D01*
X339365Y448712D01*
X339251Y449131D01*
X339137Y449588D01*
X339042Y450064D01*
X338947Y450578D01*
X338870Y451130D01*
X338794Y451702D01*
X338756Y452311D01*
X338737Y452920D01*
Y454634D01*
Y454653D01*
Y454672D01*
Y454786D01*
Y454957D01*
X338756Y455205D01*
X338775Y455510D01*
X338794Y455852D01*
X338832Y456233D01*
X338889Y456671D01*
X338947Y457128D01*
X339023Y457604D01*
X339118Y458099D01*
X339232Y458613D01*
X339365Y459127D01*
X339537Y459641D01*
X339708Y460155D01*
X339917Y460650D01*
X339937Y460688D01*
X339975Y460765D01*
X340051Y460898D01*
X340146Y461088D01*
X340260Y461298D01*
X340413Y461564D01*
X340584Y461831D01*
X340793Y462136D01*
X341022Y462459D01*
X341269Y462783D01*
X341536Y463126D01*
X341841Y463449D01*
X342164Y463773D01*
X342526Y464097D01*
X342888Y464401D01*
X343288Y464668D01*
X343307Y464687D01*
X343383Y464725D01*
X343516Y464801D01*
X343668Y464896D01*
X343878Y464992D01*
X344125Y465106D01*
X344411Y465239D01*
X344716Y465372D01*
X345077Y465506D01*
X345458Y465639D01*
X345858Y465753D01*
X346296Y465848D01*
X346753Y465944D01*
X347248Y466020D01*
X347743Y466058D01*
X348257Y466077D01*
X348543D01*
X348733Y466058D01*
D02*
G37*
G36*
X411717Y407594D02*
X411908Y407555D01*
X412117Y407479D01*
X412346Y407403D01*
X412555Y407270D01*
X412746Y407098D01*
X412765Y407080D01*
X412822Y407003D01*
X412898Y406908D01*
X412974Y406756D01*
X413050Y406585D01*
X413126Y406375D01*
X413183Y406128D01*
X413202Y405861D01*
Y405823D01*
Y405747D01*
X413183Y405613D01*
X413145Y405442D01*
X413088Y405252D01*
X413012Y405042D01*
X412898Y404833D01*
X412746Y404642D01*
X412726Y404623D01*
X412669Y404566D01*
X412555Y404490D01*
X412403Y404414D01*
X412212Y404319D01*
X411984Y404243D01*
X411717Y404185D01*
X411413Y404166D01*
X411260D01*
X411108Y404185D01*
X410918Y404223D01*
X410708Y404281D01*
X410480Y404376D01*
X410270Y404490D01*
X410080Y404642D01*
X410061Y404661D01*
X410004Y404738D01*
X409947Y404833D01*
X409870Y404985D01*
X409775Y405157D01*
X409718Y405366D01*
X409661Y405594D01*
X409642Y405861D01*
Y405899D01*
Y405994D01*
X409661Y406128D01*
X409699Y406299D01*
X409756Y406489D01*
X409832Y406699D01*
X409928Y406908D01*
X410080Y407098D01*
X410099Y407118D01*
X410175Y407175D01*
X410270Y407270D01*
X410423Y407365D01*
X410613Y407441D01*
X410842Y407537D01*
X411108Y407594D01*
X411413Y407613D01*
X411565D01*
X411717Y407594D01*
D02*
G37*
G36*
X426188Y401501D02*
X426302D01*
X426454Y401482D01*
X426626Y401463D01*
X426816Y401425D01*
X427235Y401329D01*
X427711Y401196D01*
X428206Y400987D01*
X428739Y400739D01*
X429006Y400568D01*
X429253Y400396D01*
X429520Y400206D01*
X429767Y399978D01*
X430015Y399730D01*
X430243Y399464D01*
X430472Y399178D01*
X430681Y398854D01*
X430872Y398512D01*
X431043Y398131D01*
X431195Y397731D01*
X431310Y397293D01*
X431424Y396836D01*
X431500Y396322D01*
X431557Y395789D01*
X431576Y395218D01*
Y383584D01*
X428549D01*
Y395237D01*
Y395256D01*
Y395313D01*
Y395427D01*
X428530Y395541D01*
Y395713D01*
X428511Y395884D01*
X428473Y396093D01*
X428435Y396303D01*
X428339Y396760D01*
X428187Y397236D01*
X427978Y397674D01*
X427844Y397864D01*
X427692Y398055D01*
Y398074D01*
X427654Y398093D01*
X427597Y398131D01*
X427540Y398207D01*
X427444Y398264D01*
X427330Y398340D01*
X427197Y398435D01*
X427045Y398512D01*
X426854Y398607D01*
X426664Y398683D01*
X426454Y398759D01*
X426207Y398835D01*
X425940Y398892D01*
X425655Y398930D01*
X425350Y398949D01*
X425026Y398969D01*
X424893D01*
X424779Y398949D01*
X424646D01*
X424512Y398930D01*
X424151Y398873D01*
X423751Y398778D01*
X423332Y398626D01*
X422875Y398435D01*
X422456Y398169D01*
X422437D01*
X422399Y398131D01*
X422342Y398093D01*
X422265Y398036D01*
X422075Y397864D01*
X421828Y397617D01*
X421542Y397331D01*
X421256Y396988D01*
X420971Y396588D01*
X420723Y396131D01*
Y383584D01*
X417715D01*
Y401196D01*
X420571D01*
X420666Y398969D01*
X420685Y399007D01*
X420761Y399083D01*
X420876Y399197D01*
X421028Y399368D01*
X421237Y399559D01*
X421485Y399768D01*
X421751Y400016D01*
X422075Y400244D01*
X422437Y400492D01*
X422837Y400720D01*
X423275Y400930D01*
X423751Y401120D01*
X424246Y401291D01*
X424779Y401406D01*
X425350Y401501D01*
X425940Y401520D01*
X426074D01*
X426188Y401501D01*
D02*
G37*
G36*
X540904D02*
X541037D01*
X541189Y401482D01*
X541361Y401463D01*
X541570Y401425D01*
X542008Y401329D01*
X542503Y401196D01*
X543036Y401006D01*
X543569Y400758D01*
X543855Y400606D01*
X544122Y400434D01*
X544388Y400225D01*
X544655Y400016D01*
X544902Y399787D01*
X545150Y399521D01*
X545378Y399235D01*
X545588Y398930D01*
X545797Y398588D01*
X545987Y398226D01*
X546140Y397826D01*
X546273Y397407D01*
X546387Y396950D01*
X546483Y396455D01*
X546540Y395922D01*
X546559Y395370D01*
Y383584D01*
X543550D01*
Y395198D01*
Y395218D01*
Y395275D01*
Y395370D01*
X543531Y395503D01*
Y395655D01*
X543512Y395846D01*
X543474Y396036D01*
X543436Y396265D01*
X543341Y396722D01*
X543189Y397179D01*
X542960Y397636D01*
X542827Y397826D01*
X542674Y398017D01*
X542655Y398036D01*
X542636Y398055D01*
X542579Y398112D01*
X542503Y398169D01*
X542408Y398245D01*
X542294Y398321D01*
X542160Y398397D01*
X541989Y398493D01*
X541799Y398588D01*
X541589Y398664D01*
X541361Y398740D01*
X541094Y398816D01*
X540809Y398873D01*
X540485Y398930D01*
X540142Y398949D01*
X539780Y398969D01*
X539628D01*
X539495Y398949D01*
X539361Y398930D01*
X539190Y398911D01*
X539000Y398892D01*
X538809Y398835D01*
X538371Y398721D01*
X537895Y398550D01*
X537667Y398435D01*
X537438Y398302D01*
X537210Y398131D01*
X537001Y397959D01*
X536981Y397940D01*
X536963Y397921D01*
X536905Y397864D01*
X536829Y397769D01*
X536734Y397674D01*
X536639Y397559D01*
X536544Y397407D01*
X536429Y397236D01*
X536315Y397064D01*
X536201Y396855D01*
X535991Y396398D01*
X535820Y395865D01*
X535763Y395560D01*
X535725Y395256D01*
Y383584D01*
X532697D01*
Y395122D01*
Y395141D01*
Y395161D01*
Y395218D01*
Y395294D01*
X532679Y395484D01*
X532640Y395732D01*
X532583Y396017D01*
X532507Y396341D01*
X532374Y396684D01*
X532222Y397045D01*
X532031Y397407D01*
X531784Y397750D01*
X531479Y398074D01*
X531117Y398359D01*
X530679Y398607D01*
X530432Y398721D01*
X530165Y398797D01*
X529899Y398873D01*
X529594Y398930D01*
X529270Y398949D01*
X528928Y398969D01*
X528794D01*
X528642Y398949D01*
X528452Y398930D01*
X528204Y398892D01*
X527938Y398835D01*
X527633Y398759D01*
X527309Y398645D01*
X526986Y398512D01*
X526643Y398359D01*
X526300Y398150D01*
X525976Y397902D01*
X525653Y397617D01*
X525367Y397274D01*
X525101Y396874D01*
X524872Y396436D01*
Y383584D01*
X521864D01*
Y401196D01*
X524720D01*
X524796Y399235D01*
X524815Y399254D01*
X524891Y399330D01*
X525005Y399445D01*
X525158Y399597D01*
X525348Y399768D01*
X525577Y399958D01*
X525862Y400168D01*
X526186Y400377D01*
X526529Y400587D01*
X526928Y400796D01*
X527347Y400987D01*
X527823Y401158D01*
X528318Y401310D01*
X528851Y401425D01*
X529423Y401501D01*
X530013Y401520D01*
X530184D01*
X530356Y401501D01*
X530603Y401482D01*
X530908Y401425D01*
X531250Y401368D01*
X531631Y401291D01*
X532031Y401158D01*
X532450Y401025D01*
X532869Y400834D01*
X533288Y400606D01*
X533707Y400320D01*
X534087Y399997D01*
X534449Y399616D01*
X534773Y399178D01*
X535058Y398683D01*
X535077Y398702D01*
X535097Y398740D01*
X535154Y398797D01*
X535211Y398892D01*
X535306Y399007D01*
X535401Y399121D01*
X535668Y399406D01*
X535991Y399730D01*
X536391Y400073D01*
X536829Y400416D01*
X537324Y400720D01*
X537343Y400739D01*
X537381Y400758D01*
X537477Y400796D01*
X537572Y400853D01*
X537705Y400911D01*
X537876Y400968D01*
X538067Y401044D01*
X538276Y401120D01*
X538505Y401196D01*
X538752Y401272D01*
X539038Y401329D01*
X539323Y401386D01*
X539971Y401482D01*
X540656Y401520D01*
X540809D01*
X540904Y401501D01*
D02*
G37*
G36*
X511696D02*
X511830D01*
X511982Y401482D01*
X512153Y401463D01*
X512363Y401425D01*
X512801Y401329D01*
X513296Y401196D01*
X513829Y401006D01*
X514362Y400758D01*
X514648Y400606D01*
X514914Y400434D01*
X515181Y400225D01*
X515447Y400016D01*
X515695Y399787D01*
X515942Y399521D01*
X516171Y399235D01*
X516380Y398930D01*
X516590Y398588D01*
X516780Y398226D01*
X516932Y397826D01*
X517066Y397407D01*
X517180Y396950D01*
X517275Y396455D01*
X517332Y395922D01*
X517351Y395370D01*
Y383584D01*
X514343D01*
Y395198D01*
Y395218D01*
Y395275D01*
Y395370D01*
X514324Y395503D01*
Y395655D01*
X514305Y395846D01*
X514267Y396036D01*
X514229Y396265D01*
X514134Y396722D01*
X513981Y397179D01*
X513753Y397636D01*
X513619Y397826D01*
X513467Y398017D01*
X513448Y398036D01*
X513429Y398055D01*
X513372Y398112D01*
X513296Y398169D01*
X513201Y398245D01*
X513086Y398321D01*
X512953Y398397D01*
X512782Y398493D01*
X512591Y398588D01*
X512382Y398664D01*
X512153Y398740D01*
X511887Y398816D01*
X511601Y398873D01*
X511277Y398930D01*
X510935Y398949D01*
X510573Y398969D01*
X510421D01*
X510287Y398949D01*
X510154Y398930D01*
X509983Y398911D01*
X509792Y398892D01*
X509602Y398835D01*
X509164Y398721D01*
X508688Y398550D01*
X508460Y398435D01*
X508231Y398302D01*
X508003Y398131D01*
X507793Y397959D01*
X507774Y397940D01*
X507755Y397921D01*
X507698Y397864D01*
X507622Y397769D01*
X507527Y397674D01*
X507431Y397559D01*
X507336Y397407D01*
X507222Y397236D01*
X507108Y397064D01*
X506993Y396855D01*
X506784Y396398D01*
X506613Y395865D01*
X506556Y395560D01*
X506518Y395256D01*
Y383584D01*
X503490D01*
Y395122D01*
Y395141D01*
Y395161D01*
Y395218D01*
Y395294D01*
X503471Y395484D01*
X503433Y395732D01*
X503376Y396017D01*
X503300Y396341D01*
X503166Y396684D01*
X503014Y397045D01*
X502824Y397407D01*
X502576Y397750D01*
X502272Y398074D01*
X501910Y398359D01*
X501472Y398607D01*
X501224Y398721D01*
X500958Y398797D01*
X500691Y398873D01*
X500387Y398930D01*
X500063Y398949D01*
X499720Y398969D01*
X499587D01*
X499435Y398949D01*
X499244Y398930D01*
X498997Y398892D01*
X498730Y398835D01*
X498425Y398759D01*
X498102Y398645D01*
X497778Y398512D01*
X497435Y398359D01*
X497093Y398150D01*
X496769Y397902D01*
X496445Y397617D01*
X496160Y397274D01*
X495893Y396874D01*
X495665Y396436D01*
Y383584D01*
X492656D01*
Y401196D01*
X495512D01*
X495589Y399235D01*
X495608Y399254D01*
X495684Y399330D01*
X495798Y399445D01*
X495950Y399597D01*
X496141Y399768D01*
X496369Y399958D01*
X496655Y400168D01*
X496979Y400377D01*
X497321Y400587D01*
X497721Y400796D01*
X498140Y400987D01*
X498616Y401158D01*
X499111Y401310D01*
X499644Y401425D01*
X500215Y401501D01*
X500806Y401520D01*
X500977D01*
X501148Y401501D01*
X501396Y401482D01*
X501700Y401425D01*
X502043Y401368D01*
X502424Y401291D01*
X502824Y401158D01*
X503243Y401025D01*
X503661Y400834D01*
X504080Y400606D01*
X504499Y400320D01*
X504880Y399997D01*
X505242Y399616D01*
X505566Y399178D01*
X505851Y398683D01*
X505870Y398702D01*
X505889Y398740D01*
X505946Y398797D01*
X506003Y398892D01*
X506099Y399007D01*
X506194Y399121D01*
X506460Y399406D01*
X506784Y399730D01*
X507184Y400073D01*
X507622Y400416D01*
X508117Y400720D01*
X508136Y400739D01*
X508174Y400758D01*
X508269Y400796D01*
X508364Y400853D01*
X508498Y400911D01*
X508669Y400968D01*
X508859Y401044D01*
X509069Y401120D01*
X509297Y401196D01*
X509545Y401272D01*
X509831Y401329D01*
X510116Y401386D01*
X510763Y401482D01*
X511449Y401520D01*
X511601D01*
X511696Y401501D01*
D02*
G37*
G36*
X325028D02*
X325238D01*
X325485Y401463D01*
X325790Y401425D01*
X326114Y401368D01*
X326475Y401291D01*
X326856Y401196D01*
X327256Y401082D01*
X327656Y400930D01*
X328075Y400758D01*
X328493Y400568D01*
X328893Y400320D01*
X329293Y400054D01*
X329674Y399730D01*
X329693Y399711D01*
X329750Y399654D01*
X329864Y399540D01*
X329979Y399406D01*
X330131Y399235D01*
X330302Y399026D01*
X330474Y398778D01*
X330664Y398493D01*
X330855Y398188D01*
X331045Y397826D01*
X331216Y397464D01*
X331369Y397045D01*
X331521Y396607D01*
X331635Y396150D01*
X331711Y395655D01*
X331749Y395141D01*
X328912D01*
Y395161D01*
Y395218D01*
X328893Y395313D01*
X328874Y395427D01*
X328855Y395560D01*
X328817Y395732D01*
X328760Y395922D01*
X328703Y396131D01*
X328532Y396569D01*
X328303Y397045D01*
X328170Y397274D01*
X327998Y397502D01*
X327827Y397731D01*
X327618Y397940D01*
X327599Y397959D01*
X327561Y397997D01*
X327503Y398036D01*
X327408Y398112D01*
X327294Y398188D01*
X327161Y398283D01*
X327008Y398397D01*
X326818Y398493D01*
X326628Y398588D01*
X326399Y398702D01*
X325923Y398873D01*
X325638Y398949D01*
X325352Y399007D01*
X325066Y399026D01*
X324743Y399045D01*
X324647D01*
X324533Y399026D01*
X324362D01*
X324171Y398988D01*
X323962Y398949D01*
X323714Y398911D01*
X323448Y398835D01*
X323162Y398759D01*
X322877Y398645D01*
X322572Y398512D01*
X322287Y398340D01*
X321982Y398150D01*
X321696Y397940D01*
X321430Y397674D01*
X321182Y397388D01*
X321163Y397369D01*
X321125Y397312D01*
X321068Y397217D01*
X320992Y397083D01*
X320897Y396912D01*
X320782Y396703D01*
X320668Y396455D01*
X320554Y396170D01*
X320440Y395846D01*
X320325Y395503D01*
X320211Y395103D01*
X320116Y394665D01*
X320040Y394209D01*
X319983Y393713D01*
X319945Y393180D01*
X319925Y392609D01*
Y392038D01*
Y392000D01*
Y391905D01*
Y391752D01*
X319945Y391543D01*
X319964Y391276D01*
X320002Y390991D01*
X320040Y390667D01*
X320078Y390305D01*
X320154Y389944D01*
X320230Y389563D01*
X320325Y389163D01*
X320459Y388782D01*
X320592Y388401D01*
X320763Y388020D01*
X320954Y387678D01*
X321182Y387354D01*
X321201Y387335D01*
X321239Y387278D01*
X321315Y387202D01*
X321411Y387106D01*
X321544Y386973D01*
X321696Y386840D01*
X321887Y386688D01*
X322096Y386535D01*
X322344Y386383D01*
X322610Y386231D01*
X322896Y386097D01*
X323219Y385964D01*
X323562Y385869D01*
X323943Y385793D01*
X324343Y385736D01*
X324762Y385717D01*
X324914D01*
X325028Y385736D01*
X325181Y385755D01*
X325333Y385774D01*
X325523Y385793D01*
X325714Y385831D01*
X326171Y385945D01*
X326628Y386136D01*
X326875Y386231D01*
X327123Y386364D01*
X327351Y386516D01*
X327580Y386688D01*
X327599Y386707D01*
X327637Y386726D01*
X327694Y386783D01*
X327770Y386859D01*
X327865Y386954D01*
X327960Y387069D01*
X328189Y387354D01*
X328436Y387716D01*
X328646Y388135D01*
X328817Y388592D01*
X328874Y388858D01*
X328912Y389125D01*
X331749D01*
Y389106D01*
Y389049D01*
X331730Y388972D01*
Y388877D01*
X331711Y388744D01*
X331673Y388573D01*
X331635Y388401D01*
X331597Y388211D01*
X331464Y387754D01*
X331273Y387278D01*
X331026Y386764D01*
X330873Y386516D01*
X330702Y386250D01*
X330683Y386231D01*
X330664Y386193D01*
X330607Y386117D01*
X330531Y386021D01*
X330436Y385907D01*
X330321Y385774D01*
X330188Y385621D01*
X330036Y385469D01*
X329655Y385107D01*
X329217Y384746D01*
X328722Y384384D01*
X328151Y384060D01*
X328132D01*
X328075Y384022D01*
X327998Y383984D01*
X327865Y383927D01*
X327732Y383870D01*
X327541Y383813D01*
X327351Y383736D01*
X327123Y383660D01*
X326875Y383584D01*
X326628Y383508D01*
X326056Y383394D01*
X325428Y383298D01*
X324762Y383260D01*
X324609D01*
X324419Y383279D01*
X324171Y383298D01*
X323867Y383337D01*
X323505Y383394D01*
X323124Y383470D01*
X322705Y383565D01*
X322248Y383679D01*
X321772Y383851D01*
X321296Y384041D01*
X320820Y384270D01*
X320344Y384555D01*
X319887Y384860D01*
X319449Y385241D01*
X319031Y385660D01*
X319012Y385679D01*
X318935Y385774D01*
X318840Y385907D01*
X318707Y386097D01*
X318536Y386345D01*
X318364Y386631D01*
X318174Y386992D01*
X317983Y387373D01*
X317774Y387830D01*
X317584Y388306D01*
X317412Y388858D01*
X317241Y389429D01*
X317108Y390058D01*
X317012Y390743D01*
X316936Y391448D01*
X316917Y392209D01*
Y392723D01*
Y392761D01*
Y392838D01*
Y392971D01*
X316936Y393161D01*
X316955Y393390D01*
X316974Y393637D01*
X316993Y393942D01*
X317031Y394266D01*
X317089Y394608D01*
X317146Y394970D01*
X317317Y395732D01*
X317412Y396131D01*
X317546Y396531D01*
X317679Y396912D01*
X317850Y397293D01*
X317869Y397312D01*
X317888Y397388D01*
X317945Y397483D01*
X318021Y397617D01*
X318117Y397788D01*
X318250Y397978D01*
X318383Y398207D01*
X318555Y398435D01*
X318726Y398683D01*
X318935Y398930D01*
X319164Y399197D01*
X319392Y399445D01*
X319659Y399692D01*
X319945Y399939D01*
X320249Y400187D01*
X320573Y400396D01*
X320592Y400416D01*
X320649Y400454D01*
X320744Y400492D01*
X320897Y400568D01*
X321049Y400663D01*
X321258Y400758D01*
X321487Y400853D01*
X321753Y400968D01*
X322058Y401063D01*
X322363Y401158D01*
X322705Y401253D01*
X323086Y401348D01*
X323467Y401425D01*
X323867Y401463D01*
X324305Y401501D01*
X324743Y401520D01*
X324876D01*
X325028Y401501D01*
D02*
G37*
G36*
X470227Y405575D02*
X460422Y383584D01*
X457261D01*
X467048Y404795D01*
X454215D01*
Y407270D01*
X470227D01*
Y405575D01*
D02*
G37*
G36*
X412898Y383584D02*
X409890D01*
Y401196D01*
X412898D01*
Y383584D01*
D02*
G37*
G36*
X379197Y407251D02*
X379464Y407232D01*
X379787Y407213D01*
X380168Y407156D01*
X380587Y407098D01*
X381044Y407022D01*
X381520Y406908D01*
X382015Y406775D01*
X382510Y406623D01*
X383024Y406432D01*
X383519Y406204D01*
X384014Y405937D01*
X384471Y405632D01*
X384909Y405271D01*
X384928Y405252D01*
X385004Y405175D01*
X385119Y405061D01*
X385252Y404909D01*
X385423Y404718D01*
X385613Y404471D01*
X385804Y404185D01*
X386013Y403881D01*
X386223Y403519D01*
X386413Y403119D01*
X386604Y402681D01*
X386775Y402224D01*
X386908Y401710D01*
X387022Y401177D01*
X387099Y400606D01*
X387118Y400016D01*
Y399978D01*
Y399863D01*
X387099Y399692D01*
X387080Y399445D01*
X387061Y399159D01*
X387003Y398835D01*
X386927Y398454D01*
X386851Y398055D01*
X386737Y397636D01*
X386585Y397198D01*
X386413Y396760D01*
X386204Y396322D01*
X385956Y395884D01*
X385671Y395465D01*
X385328Y395065D01*
X384947Y394704D01*
X384928Y394685D01*
X384852Y394627D01*
X384719Y394532D01*
X384547Y394418D01*
X384319Y394285D01*
X384052Y394113D01*
X383729Y393961D01*
X383367Y393790D01*
X382948Y393599D01*
X382491Y393447D01*
X381996Y393295D01*
X381444Y393142D01*
X380835Y393028D01*
X380206Y392933D01*
X379502Y392876D01*
X378778Y392857D01*
X373199D01*
Y383584D01*
X370077D01*
Y407270D01*
X378988D01*
X379197Y407251D01*
D02*
G37*
G36*
X356539Y383584D02*
X353531D01*
Y408584D01*
X356539D01*
Y383584D01*
D02*
G37*
G36*
X342488Y401501D02*
X342755Y401482D01*
X343040Y401444D01*
X343383Y401386D01*
X343725Y401329D01*
X344106Y401253D01*
X344487Y401158D01*
X344887Y401025D01*
X345287Y400873D01*
X345687Y400701D01*
X346048Y400492D01*
X346410Y400263D01*
X346753Y399997D01*
X346772Y399978D01*
X346829Y399921D01*
X346905Y399844D01*
X347019Y399711D01*
X347153Y399559D01*
X347305Y399368D01*
X347457Y399159D01*
X347629Y398892D01*
X347800Y398607D01*
X347952Y398302D01*
X348105Y397959D01*
X348238Y397579D01*
X348352Y397179D01*
X348447Y396741D01*
X348505Y396284D01*
X348543Y395789D01*
Y387697D01*
Y387678D01*
Y387582D01*
Y387468D01*
X348562Y387297D01*
Y387087D01*
X348581Y386859D01*
X348600Y386593D01*
X348619Y386307D01*
X348695Y385679D01*
X348809Y385031D01*
X348961Y384403D01*
X349057Y384117D01*
X349171Y383832D01*
Y383584D01*
X346010D01*
X345991Y383603D01*
X345972Y383679D01*
X345915Y383813D01*
X345858Y384003D01*
X345801Y384270D01*
X345725Y384574D01*
X345649Y384974D01*
X345630Y385184D01*
X345591Y385431D01*
X345572Y385412D01*
X345496Y385336D01*
X345382Y385241D01*
X345211Y385088D01*
X345020Y384936D01*
X344773Y384746D01*
X344487Y384555D01*
X344182Y384346D01*
X343840Y384136D01*
X343440Y383946D01*
X343040Y383755D01*
X342602Y383603D01*
X342126Y383470D01*
X341631Y383356D01*
X341117Y383279D01*
X340584Y383260D01*
X340470D01*
X340336Y383279D01*
X340146D01*
X339937Y383298D01*
X339670Y383337D01*
X339384Y383375D01*
X339080Y383451D01*
X338737Y383527D01*
X338394Y383622D01*
X338033Y383736D01*
X337671Y383889D01*
X337309Y384041D01*
X336966Y384250D01*
X336624Y384460D01*
X336300Y384727D01*
X336281Y384746D01*
X336224Y384803D01*
X336148Y384879D01*
X336033Y384993D01*
X335919Y385145D01*
X335786Y385317D01*
X335633Y385507D01*
X335481Y385736D01*
X335310Y386002D01*
X335177Y386288D01*
X335024Y386593D01*
X334910Y386916D01*
X334796Y387278D01*
X334720Y387640D01*
X334663Y388039D01*
X334643Y388458D01*
Y388496D01*
Y388573D01*
X334663Y388725D01*
X334682Y388915D01*
X334701Y389144D01*
X334758Y389410D01*
X334815Y389715D01*
X334910Y390039D01*
X335005Y390362D01*
X335157Y390724D01*
X335310Y391067D01*
X335519Y391429D01*
X335748Y391790D01*
X336033Y392114D01*
X336357Y392438D01*
X336719Y392742D01*
X336738Y392761D01*
X336814Y392799D01*
X336928Y392876D01*
X337100Y392990D01*
X337328Y393104D01*
X337576Y393218D01*
X337880Y393371D01*
X338242Y393504D01*
X338642Y393637D01*
X339080Y393790D01*
X339556Y393904D01*
X340089Y394037D01*
X340660Y394132D01*
X341269Y394209D01*
X341917Y394247D01*
X342602Y394266D01*
X345534D01*
Y395637D01*
Y395655D01*
Y395713D01*
Y395789D01*
X345515Y395903D01*
Y396036D01*
X345477Y396189D01*
X345420Y396550D01*
X345306Y396950D01*
X345134Y397369D01*
X345020Y397579D01*
X344906Y397769D01*
X344754Y397959D01*
X344582Y398150D01*
X344563Y398169D01*
X344544Y398188D01*
X344487Y398245D01*
X344411Y398302D01*
X344316Y398378D01*
X344182Y398454D01*
X344049Y398531D01*
X343897Y398626D01*
X343706Y398721D01*
X343497Y398797D01*
X343269Y398873D01*
X343021Y398949D01*
X342755Y399007D01*
X342469Y399064D01*
X342145Y399083D01*
X341822Y399102D01*
X341669D01*
X341555Y399083D01*
X341422D01*
X341250Y399064D01*
X341079Y399026D01*
X340869Y399007D01*
X340451Y398911D01*
X339994Y398759D01*
X339537Y398550D01*
X339308Y398435D01*
X339099Y398283D01*
X339080D01*
X339061Y398245D01*
X339004Y398207D01*
X338927Y398131D01*
X338756Y397959D01*
X338566Y397731D01*
X338356Y397445D01*
X338185Y397102D01*
X338109Y396912D01*
X338052Y396722D01*
X338033Y396512D01*
X338014Y396303D01*
X334986D01*
Y396322D01*
Y396360D01*
Y396436D01*
X335005Y396531D01*
X335024Y396646D01*
X335043Y396779D01*
X335100Y397122D01*
X335215Y397502D01*
X335386Y397921D01*
X335481Y398150D01*
X335614Y398378D01*
X335748Y398607D01*
X335919Y398835D01*
X335938Y398854D01*
X335957Y398892D01*
X336014Y398949D01*
X336090Y399045D01*
X336186Y399140D01*
X336300Y399273D01*
X336433Y399406D01*
X336605Y399540D01*
X336966Y399863D01*
X337404Y400187D01*
X337899Y400511D01*
X338471Y400796D01*
X338490D01*
X338547Y400834D01*
X338623Y400873D01*
X338756Y400911D01*
X338908Y400968D01*
X339080Y401025D01*
X339289Y401082D01*
X339518Y401158D01*
X339765Y401234D01*
X340032Y401291D01*
X340641Y401406D01*
X341288Y401482D01*
X341993Y401520D01*
X342279D01*
X342488Y401501D01*
D02*
G37*
G36*
X295440Y404718D02*
X283883D01*
Y396607D01*
X293822D01*
Y394056D01*
X283883D01*
Y383584D01*
X280760D01*
Y407270D01*
X295440D01*
Y404718D01*
D02*
G37*
G36*
X481385Y407575D02*
X481651Y407555D01*
X481975Y407517D01*
X482337Y407460D01*
X482737Y407384D01*
X483155Y407289D01*
X483612Y407156D01*
X484069Y407003D01*
X484545Y406794D01*
X485002Y406565D01*
X485459Y406280D01*
X485878Y405956D01*
X486278Y405575D01*
X486640Y405137D01*
X486659Y405118D01*
X486716Y405023D01*
X486811Y404871D01*
X486925Y404680D01*
X487059Y404414D01*
X487211Y404090D01*
X487382Y403709D01*
X487554Y403271D01*
X487725Y402776D01*
X487896Y402205D01*
X488049Y401596D01*
X488182Y400911D01*
X488315Y400168D01*
X488411Y399368D01*
X488468Y398512D01*
X488506Y397579D01*
Y393675D01*
Y393656D01*
Y393618D01*
Y393542D01*
Y393447D01*
Y393314D01*
X488487Y393161D01*
Y393009D01*
Y392799D01*
X488468Y392590D01*
X488449Y392362D01*
X488411Y391866D01*
X488353Y391314D01*
X488277Y390705D01*
X488182Y390077D01*
X488068Y389429D01*
X487915Y388782D01*
X487744Y388135D01*
X487535Y387487D01*
X487287Y386897D01*
X487021Y386326D01*
X486697Y385812D01*
X486678Y385793D01*
X486621Y385698D01*
X486507Y385583D01*
X486354Y385412D01*
X486164Y385222D01*
X485916Y385012D01*
X485650Y384784D01*
X485307Y384536D01*
X484945Y384308D01*
X484526Y384060D01*
X484069Y383851D01*
X483555Y383660D01*
X483003Y383489D01*
X482394Y383375D01*
X481746Y383298D01*
X481061Y383260D01*
X480890D01*
X480699Y383279D01*
X480433Y383298D01*
X480128Y383337D01*
X479766Y383394D01*
X479366Y383470D01*
X478948Y383565D01*
X478491Y383698D01*
X478034Y383870D01*
X477558Y384079D01*
X477101Y384308D01*
X476644Y384593D01*
X476206Y384936D01*
X475806Y385317D01*
X475444Y385755D01*
X475425Y385793D01*
X475368Y385869D01*
X475273Y386021D01*
X475159Y386231D01*
X475025Y386497D01*
X474854Y386821D01*
X474702Y387202D01*
X474530Y387640D01*
X474359Y388135D01*
X474188Y388687D01*
X474016Y389315D01*
X473883Y389982D01*
X473750Y390724D01*
X473655Y391524D01*
X473597Y392362D01*
X473559Y393275D01*
Y397293D01*
Y397312D01*
Y397350D01*
Y397426D01*
Y397521D01*
Y397655D01*
X473578Y397788D01*
Y397959D01*
X473597Y398150D01*
X473616Y398588D01*
X473655Y399083D01*
X473712Y399635D01*
X473788Y400225D01*
X473883Y400834D01*
X473997Y401482D01*
X474150Y402129D01*
X474321Y402757D01*
X474511Y403386D01*
X474759Y403976D01*
X475025Y404547D01*
X475349Y405042D01*
X475368Y405080D01*
X475444Y405157D01*
X475539Y405271D01*
X475692Y405442D01*
X475882Y405632D01*
X476130Y405842D01*
X476415Y406089D01*
X476739Y406318D01*
X477120Y406565D01*
X477539Y406794D01*
X477996Y407003D01*
X478510Y407194D01*
X479062Y407365D01*
X479671Y407479D01*
X480318Y407575D01*
X481023Y407594D01*
X481194D01*
X481385Y407575D01*
D02*
G37*
G36*
X440201Y401196D02*
X443476D01*
Y398873D01*
X440201D01*
Y387925D01*
Y387906D01*
Y387887D01*
Y387830D01*
Y387754D01*
X440220Y387563D01*
X440258Y387335D01*
X440315Y387069D01*
X440392Y386802D01*
X440487Y386554D01*
X440639Y386326D01*
X440658Y386307D01*
X440715Y386250D01*
X440830Y386155D01*
X440982Y386078D01*
X441191Y385983D01*
X441458Y385888D01*
X441762Y385831D01*
X442124Y385812D01*
X442219D01*
X442334Y385831D01*
X442505D01*
X442715Y385850D01*
X442962Y385888D01*
X443248Y385945D01*
X443571Y386002D01*
Y383584D01*
X443552D01*
X443514Y383565D01*
X443457Y383546D01*
X443362Y383527D01*
X443267Y383508D01*
X443133Y383489D01*
X442829Y383432D01*
X442486Y383356D01*
X442086Y383318D01*
X441667Y383279D01*
X441248Y383260D01*
X441058D01*
X440925Y383279D01*
X440753Y383298D01*
X440563Y383318D01*
X440335Y383356D01*
X440106Y383413D01*
X439611Y383565D01*
X439363Y383660D01*
X439116Y383774D01*
X438868Y383908D01*
X438621Y384079D01*
X438411Y384270D01*
X438202Y384479D01*
X438183Y384498D01*
X438164Y384536D01*
X438107Y384612D01*
X438050Y384707D01*
X437973Y384822D01*
X437878Y384993D01*
X437783Y385164D01*
X437707Y385374D01*
X437612Y385602D01*
X437517Y385869D01*
X437421Y386155D01*
X437345Y386459D01*
X437288Y386783D01*
X437231Y387145D01*
X437212Y387544D01*
X437193Y387944D01*
Y398873D01*
X433975D01*
Y401196D01*
X437193D01*
Y405461D01*
X440201D01*
Y401196D01*
D02*
G37*
G36*
X398161Y401501D02*
X398408Y401482D01*
X398713Y401444D01*
X399075Y401386D01*
X399475Y401310D01*
X399893Y401215D01*
X400351Y401082D01*
X400827Y400911D01*
X401302Y400701D01*
X401779Y400473D01*
X402274Y400187D01*
X402749Y399844D01*
X403187Y399464D01*
X403625Y399026D01*
X403644Y399007D01*
X403721Y398911D01*
X403835Y398778D01*
X403968Y398569D01*
X404139Y398321D01*
X404330Y398017D01*
X404539Y397674D01*
X404749Y397255D01*
X404939Y396817D01*
X405149Y396322D01*
X405339Y395770D01*
X405510Y395180D01*
X405644Y394551D01*
X405758Y393866D01*
X405834Y393161D01*
X405853Y392400D01*
Y392190D01*
Y392152D01*
Y392076D01*
Y391943D01*
X405834Y391752D01*
X405815Y391524D01*
X405796Y391276D01*
X405777Y390972D01*
X405739Y390648D01*
X405682Y390305D01*
X405606Y389925D01*
X405434Y389163D01*
X405320Y388763D01*
X405187Y388344D01*
X405034Y387963D01*
X404863Y387563D01*
X404844Y387544D01*
X404825Y387468D01*
X404768Y387373D01*
X404692Y387221D01*
X404577Y387049D01*
X404463Y386859D01*
X404311Y386631D01*
X404139Y386402D01*
X403968Y386155D01*
X403740Y385888D01*
X403511Y385621D01*
X403264Y385355D01*
X402997Y385107D01*
X402692Y384841D01*
X402388Y384612D01*
X402045Y384384D01*
X402026Y384365D01*
X401969Y384327D01*
X401855Y384289D01*
X401721Y384212D01*
X401550Y384117D01*
X401341Y384022D01*
X401112Y383927D01*
X400845Y383832D01*
X400541Y383717D01*
X400217Y383622D01*
X399874Y383527D01*
X399513Y383432D01*
X399113Y383356D01*
X398713Y383318D01*
X398294Y383279D01*
X397856Y383260D01*
X397704D01*
X397514Y383279D01*
X397266Y383298D01*
X396961Y383337D01*
X396600Y383394D01*
X396219Y383470D01*
X395781Y383565D01*
X395343Y383698D01*
X394867Y383870D01*
X394391Y384060D01*
X393896Y384308D01*
X393420Y384593D01*
X392944Y384917D01*
X392487Y385298D01*
X392049Y385736D01*
X392030Y385774D01*
X391954Y385850D01*
X391840Y386002D01*
X391706Y386193D01*
X391535Y386440D01*
X391345Y386745D01*
X391135Y387087D01*
X390945Y387487D01*
X390735Y387944D01*
X390526Y388439D01*
X390335Y388991D01*
X390164Y389563D01*
X390031Y390191D01*
X389917Y390857D01*
X389840Y391581D01*
X389821Y392323D01*
Y392552D01*
Y392590D01*
Y392666D01*
Y392799D01*
X389840Y392990D01*
X389859Y393218D01*
X389879Y393466D01*
X389897Y393771D01*
X389955Y394094D01*
X389993Y394456D01*
X390069Y394818D01*
X390240Y395598D01*
X390354Y395998D01*
X390507Y396398D01*
X390659Y396798D01*
X390830Y397198D01*
X390849Y397217D01*
X390888Y397293D01*
X390945Y397388D01*
X391021Y397540D01*
X391116Y397712D01*
X391249Y397921D01*
X391402Y398131D01*
X391573Y398378D01*
X391763Y398626D01*
X391973Y398892D01*
X392201Y399159D01*
X392468Y399425D01*
X392735Y399692D01*
X393020Y399939D01*
X393344Y400168D01*
X393667Y400396D01*
X393687Y400416D01*
X393744Y400454D01*
X393858Y400492D01*
X393991Y400568D01*
X394163Y400663D01*
X394372Y400758D01*
X394600Y400853D01*
X394867Y400968D01*
X395172Y401063D01*
X395476Y401158D01*
X395819Y401253D01*
X396200Y401348D01*
X396581Y401425D01*
X396980Y401463D01*
X397380Y401501D01*
X397818Y401520D01*
X397971D01*
X398161Y401501D01*
D02*
G37*
G36*
X306236D02*
X306483Y401482D01*
X306788Y401444D01*
X307150Y401386D01*
X307550Y401310D01*
X307968Y401215D01*
X308425Y401082D01*
X308901Y400911D01*
X309377Y400701D01*
X309853Y400473D01*
X310348Y400187D01*
X310824Y399844D01*
X311262Y399464D01*
X311700Y399026D01*
X311719Y399007D01*
X311795Y398911D01*
X311910Y398778D01*
X312043Y398569D01*
X312214Y398321D01*
X312405Y398017D01*
X312614Y397674D01*
X312824Y397255D01*
X313014Y396817D01*
X313223Y396322D01*
X313414Y395770D01*
X313585Y395180D01*
X313719Y394551D01*
X313833Y393866D01*
X313909Y393161D01*
X313928Y392400D01*
Y392190D01*
Y392152D01*
Y392076D01*
Y391943D01*
X313909Y391752D01*
X313890Y391524D01*
X313871Y391276D01*
X313852Y390972D01*
X313814Y390648D01*
X313757Y390305D01*
X313680Y389925D01*
X313509Y389163D01*
X313395Y388763D01*
X313262Y388344D01*
X313109Y387963D01*
X312938Y387563D01*
X312919Y387544D01*
X312900Y387468D01*
X312843Y387373D01*
X312767Y387221D01*
X312652Y387049D01*
X312538Y386859D01*
X312386Y386631D01*
X312214Y386402D01*
X312043Y386155D01*
X311814Y385888D01*
X311586Y385621D01*
X311338Y385355D01*
X311072Y385107D01*
X310767Y384841D01*
X310463Y384612D01*
X310120Y384384D01*
X310101Y384365D01*
X310044Y384327D01*
X309929Y384289D01*
X309796Y384212D01*
X309625Y384117D01*
X309415Y384022D01*
X309187Y383927D01*
X308920Y383832D01*
X308616Y383717D01*
X308292Y383622D01*
X307949Y383527D01*
X307588Y383432D01*
X307188Y383356D01*
X306788Y383318D01*
X306369Y383279D01*
X305931Y383260D01*
X305779D01*
X305588Y383279D01*
X305341Y383298D01*
X305036Y383337D01*
X304675Y383394D01*
X304294Y383470D01*
X303856Y383565D01*
X303418Y383698D01*
X302942Y383870D01*
X302466Y384060D01*
X301971Y384308D01*
X301495Y384593D01*
X301019Y384917D01*
X300562Y385298D01*
X300124Y385736D01*
X300105Y385774D01*
X300029Y385850D01*
X299915Y386002D01*
X299781Y386193D01*
X299610Y386440D01*
X299419Y386745D01*
X299210Y387087D01*
X299020Y387487D01*
X298810Y387944D01*
X298601Y388439D01*
X298410Y388991D01*
X298239Y389563D01*
X298106Y390191D01*
X297991Y390857D01*
X297915Y391581D01*
X297896Y392323D01*
Y392552D01*
Y392590D01*
Y392666D01*
Y392799D01*
X297915Y392990D01*
X297934Y393218D01*
X297953Y393466D01*
X297972Y393771D01*
X298029Y394094D01*
X298068Y394456D01*
X298144Y394818D01*
X298315Y395598D01*
X298429Y395998D01*
X298582Y396398D01*
X298734Y396798D01*
X298905Y397198D01*
X298924Y397217D01*
X298962Y397293D01*
X299020Y397388D01*
X299096Y397540D01*
X299191Y397712D01*
X299324Y397921D01*
X299477Y398131D01*
X299648Y398378D01*
X299838Y398626D01*
X300048Y398892D01*
X300276Y399159D01*
X300543Y399425D01*
X300809Y399692D01*
X301095Y399939D01*
X301419Y400168D01*
X301742Y400396D01*
X301761Y400416D01*
X301818Y400454D01*
X301933Y400492D01*
X302066Y400568D01*
X302237Y400663D01*
X302447Y400758D01*
X302675Y400853D01*
X302942Y400968D01*
X303246Y401063D01*
X303551Y401158D01*
X303894Y401253D01*
X304275Y401348D01*
X304655Y401425D01*
X305055Y401463D01*
X305455Y401501D01*
X305893Y401520D01*
X306045D01*
X306236Y401501D01*
D02*
G37*
G36*
X510878Y378504D02*
X511125Y378485D01*
X511449Y378466D01*
X511811Y378428D01*
X512211Y378371D01*
X512648Y378295D01*
X513105Y378181D01*
X513600Y378066D01*
X514095Y377914D01*
X514591Y377724D01*
X515086Y377495D01*
X515561Y377248D01*
X516038Y376962D01*
X516475Y376619D01*
X516495Y376600D01*
X516571Y376524D01*
X516685Y376429D01*
X516837Y376277D01*
X517009Y376067D01*
X517218Y375839D01*
X517447Y375553D01*
X517675Y375229D01*
X517903Y374868D01*
X518151Y374468D01*
X518379Y374030D01*
X518589Y373554D01*
X518798Y373040D01*
X518970Y372469D01*
X519122Y371878D01*
X519236Y371250D01*
X516114D01*
Y371269D01*
X516095Y371307D01*
Y371364D01*
X516076Y371460D01*
X516038Y371555D01*
X515999Y371688D01*
X515904Y371993D01*
X515771Y372354D01*
X515581Y372754D01*
X515371Y373173D01*
X515086Y373611D01*
X514762Y374049D01*
X514362Y374487D01*
X513905Y374887D01*
X513391Y375229D01*
X513086Y375401D01*
X512782Y375534D01*
X512458Y375667D01*
X512115Y375763D01*
X511754Y375858D01*
X511354Y375915D01*
X510954Y375953D01*
X510516Y375972D01*
X510383D01*
X510211Y375953D01*
X510002Y375934D01*
X509735Y375896D01*
X509450Y375858D01*
X509107Y375782D01*
X508745Y375705D01*
X508383Y375572D01*
X507984Y375439D01*
X507584Y375248D01*
X507203Y375039D01*
X506822Y374792D01*
X506441Y374487D01*
X506099Y374144D01*
X505775Y373763D01*
X505756Y373744D01*
X505699Y373668D01*
X505623Y373535D01*
X505527Y373344D01*
X505394Y373116D01*
X505261Y372849D01*
X505109Y372507D01*
X504956Y372145D01*
X504804Y371707D01*
X504671Y371231D01*
X504518Y370698D01*
X504404Y370127D01*
X504290Y369517D01*
X504214Y368851D01*
X504157Y368127D01*
X504138Y367366D01*
Y365424D01*
Y365405D01*
Y365386D01*
Y365329D01*
Y365252D01*
Y365157D01*
X504157Y365043D01*
X504176Y364757D01*
X504195Y364434D01*
X504233Y364034D01*
X504290Y363615D01*
X504366Y363139D01*
X504461Y362644D01*
X504575Y362130D01*
X504728Y361597D01*
X504899Y361064D01*
X505109Y360549D01*
X505356Y360035D01*
X505623Y359540D01*
X505946Y359084D01*
X505965Y359064D01*
X506023Y358988D01*
X506137Y358874D01*
X506289Y358722D01*
X506460Y358550D01*
X506689Y358341D01*
X506955Y358132D01*
X507241Y357922D01*
X507584Y357694D01*
X507945Y357484D01*
X508364Y357294D01*
X508802Y357103D01*
X509278Y356951D01*
X509773Y356837D01*
X510307Y356761D01*
X510878Y356742D01*
X511182D01*
X511335Y356761D01*
X511506D01*
X511715Y356780D01*
X511925Y356799D01*
X512401Y356837D01*
X512934Y356894D01*
X513448Y356989D01*
X513962Y357122D01*
X513981D01*
X514019Y357141D01*
X514095Y357160D01*
X514191Y357199D01*
X514286Y357237D01*
X514419Y357294D01*
X514724Y357427D01*
X515066Y357617D01*
X515428Y357846D01*
X515790Y358112D01*
X516133Y358436D01*
Y363748D01*
X510649D01*
Y366300D01*
X519236D01*
Y357617D01*
X519217Y357598D01*
X519179Y357541D01*
X519103Y357446D01*
X519008Y357332D01*
X518893Y357199D01*
X518741Y357027D01*
X518570Y356837D01*
X518360Y356646D01*
X518151Y356437D01*
X517884Y356227D01*
X517618Y356018D01*
X517313Y355790D01*
X516990Y355580D01*
X516647Y355390D01*
X516285Y355199D01*
X515885Y355028D01*
X515866D01*
X515790Y354990D01*
X515676Y354952D01*
X515504Y354895D01*
X515295Y354838D01*
X515047Y354761D01*
X514762Y354685D01*
X514457Y354609D01*
X514095Y354533D01*
X513715Y354457D01*
X513296Y354381D01*
X512858Y354324D01*
X512382Y354266D01*
X511906Y354228D01*
X511392Y354209D01*
X510859Y354190D01*
X510573D01*
X510364Y354209D01*
X510116Y354228D01*
X509831Y354266D01*
X509488Y354304D01*
X509126Y354362D01*
X508745Y354438D01*
X508326Y354514D01*
X507907Y354628D01*
X507470Y354761D01*
X507032Y354914D01*
X506594Y355104D01*
X506156Y355313D01*
X505718Y355542D01*
X505699Y355561D01*
X505623Y355599D01*
X505508Y355675D01*
X505356Y355790D01*
X505166Y355923D01*
X504937Y356094D01*
X504709Y356304D01*
X504442Y356532D01*
X504157Y356780D01*
X503871Y357084D01*
X503585Y357389D01*
X503300Y357732D01*
X503014Y358112D01*
X502748Y358512D01*
X502481Y358931D01*
X502234Y359388D01*
X502214Y359426D01*
X502176Y359502D01*
X502119Y359636D01*
X502043Y359826D01*
X501948Y360073D01*
X501853Y360359D01*
X501739Y360683D01*
X501624Y361064D01*
X501510Y361463D01*
X501396Y361920D01*
X501301Y362396D01*
X501205Y362911D01*
X501110Y363444D01*
X501053Y364015D01*
X501015Y364605D01*
X500996Y365214D01*
Y367271D01*
Y367290D01*
Y367328D01*
Y367404D01*
Y367499D01*
X501015Y367632D01*
Y367785D01*
Y367956D01*
X501034Y368146D01*
X501053Y368375D01*
X501072Y368603D01*
X501129Y369117D01*
X501205Y369689D01*
X501301Y370317D01*
X501434Y370964D01*
X501605Y371650D01*
X501815Y372335D01*
X502043Y373040D01*
X502329Y373706D01*
X502671Y374373D01*
X503052Y375001D01*
X503490Y375572D01*
X503528Y375610D01*
X503604Y375705D01*
X503757Y375839D01*
X503947Y376029D01*
X504214Y376257D01*
X504518Y376505D01*
X504880Y376772D01*
X505299Y377057D01*
X505775Y377324D01*
X506308Y377590D01*
X506879Y377838D01*
X507508Y378066D01*
X508193Y378257D01*
X508917Y378390D01*
X509697Y378485D01*
X510516Y378523D01*
X510687D01*
X510878Y378504D01*
D02*
G37*
G36*
X291861Y372430D02*
X292051D01*
X292260Y372392D01*
X292489Y372354D01*
X292698Y372297D01*
X292889Y372221D01*
Y369422D01*
X292851D01*
X292775Y369441D01*
X292622Y369460D01*
X292451Y369479D01*
X292222Y369498D01*
X291975Y369517D01*
X291689Y369536D01*
X291270D01*
X291118Y369517D01*
X290928Y369498D01*
X290680Y369460D01*
X290413Y369403D01*
X290109Y369327D01*
X289804Y369213D01*
X289461Y369079D01*
X289119Y368927D01*
X288795Y368718D01*
X288471Y368470D01*
X288148Y368185D01*
X287862Y367842D01*
X287615Y367442D01*
X287386Y367004D01*
Y354514D01*
X284378D01*
Y372126D01*
X287310D01*
X287348Y370089D01*
X287367Y370108D01*
X287424Y370184D01*
X287500Y370298D01*
X287615Y370450D01*
X287767Y370641D01*
X287957Y370831D01*
X288186Y371041D01*
X288433Y371269D01*
X288719Y371498D01*
X289024Y371707D01*
X289366Y371897D01*
X289747Y372088D01*
X290166Y372240D01*
X290585Y372354D01*
X291061Y372430D01*
X291556Y372449D01*
X291708D01*
X291861Y372430D01*
D02*
G37*
G36*
X376741D02*
X376855D01*
X377007Y372411D01*
X377179Y372392D01*
X377369Y372354D01*
X377788Y372259D01*
X378264Y372126D01*
X378759Y371916D01*
X379292Y371669D01*
X379559Y371498D01*
X379806Y371326D01*
X380073Y371136D01*
X380320Y370907D01*
X380568Y370660D01*
X380796Y370393D01*
X381025Y370108D01*
X381234Y369784D01*
X381425Y369441D01*
X381596Y369060D01*
X381748Y368661D01*
X381863Y368223D01*
X381977Y367766D01*
X382053Y367252D01*
X382110Y366719D01*
X382129Y366147D01*
Y354514D01*
X379102D01*
Y366166D01*
Y366185D01*
Y366243D01*
Y366357D01*
X379083Y366471D01*
Y366642D01*
X379064Y366814D01*
X379026Y367023D01*
X378988Y367233D01*
X378892Y367690D01*
X378740Y368165D01*
X378531Y368603D01*
X378397Y368794D01*
X378245Y368984D01*
Y369003D01*
X378207Y369022D01*
X378150Y369060D01*
X378093Y369137D01*
X377997Y369194D01*
X377883Y369270D01*
X377750Y369365D01*
X377598Y369441D01*
X377407Y369536D01*
X377217Y369613D01*
X377007Y369689D01*
X376760Y369765D01*
X376493Y369822D01*
X376208Y369860D01*
X375903Y369879D01*
X375579Y369898D01*
X375446D01*
X375332Y369879D01*
X375199D01*
X375065Y369860D01*
X374704Y369803D01*
X374304Y369708D01*
X373885Y369555D01*
X373428Y369365D01*
X373009Y369098D01*
X372990D01*
X372952Y369060D01*
X372895Y369022D01*
X372819Y368965D01*
X372628Y368794D01*
X372381Y368546D01*
X372095Y368261D01*
X371810Y367918D01*
X371524Y367518D01*
X371276Y367061D01*
Y354514D01*
X368268D01*
Y372126D01*
X371124D01*
X371219Y369898D01*
X371238Y369936D01*
X371315Y370012D01*
X371429Y370127D01*
X371581Y370298D01*
X371791Y370488D01*
X372038Y370698D01*
X372305Y370945D01*
X372628Y371174D01*
X372990Y371421D01*
X373390Y371650D01*
X373828Y371859D01*
X374304Y372050D01*
X374799Y372221D01*
X375332Y372335D01*
X375903Y372430D01*
X376493Y372449D01*
X376627D01*
X376741Y372430D01*
D02*
G37*
G36*
X542655Y354514D02*
X539514D01*
Y365462D01*
X527576D01*
Y354514D01*
X524453D01*
Y378200D01*
X527576D01*
Y368013D01*
X539514D01*
Y378200D01*
X542655D01*
Y354514D01*
D02*
G37*
G36*
X393991Y372430D02*
X394201D01*
X394448Y372392D01*
X394753Y372354D01*
X395076Y372297D01*
X395438Y372221D01*
X395819Y372126D01*
X396219Y372012D01*
X396619Y371859D01*
X397038Y371688D01*
X397456Y371498D01*
X397856Y371250D01*
X398256Y370984D01*
X398637Y370660D01*
X398656Y370641D01*
X398713Y370584D01*
X398827Y370469D01*
X398941Y370336D01*
X399094Y370165D01*
X399265Y369955D01*
X399437Y369708D01*
X399627Y369422D01*
X399817Y369117D01*
X400008Y368756D01*
X400179Y368394D01*
X400331Y367975D01*
X400484Y367537D01*
X400598Y367080D01*
X400674Y366585D01*
X400712Y366071D01*
X397875D01*
Y366090D01*
Y366147D01*
X397856Y366243D01*
X397837Y366357D01*
X397818Y366490D01*
X397780Y366661D01*
X397723Y366852D01*
X397666Y367061D01*
X397495Y367499D01*
X397266Y367975D01*
X397133Y368204D01*
X396961Y368432D01*
X396790Y368661D01*
X396581Y368870D01*
X396562Y368889D01*
X396523Y368927D01*
X396466Y368965D01*
X396371Y369041D01*
X396257Y369117D01*
X396124Y369213D01*
X395971Y369327D01*
X395781Y369422D01*
X395590Y369517D01*
X395362Y369632D01*
X394886Y369803D01*
X394600Y369879D01*
X394315Y369936D01*
X394029Y369955D01*
X393706Y369974D01*
X393610D01*
X393496Y369955D01*
X393325D01*
X393134Y369917D01*
X392925Y369879D01*
X392677Y369841D01*
X392411Y369765D01*
X392125Y369689D01*
X391840Y369574D01*
X391535Y369441D01*
X391249Y369270D01*
X390945Y369079D01*
X390659Y368870D01*
X390393Y368603D01*
X390145Y368318D01*
X390126Y368299D01*
X390088Y368242D01*
X390031Y368146D01*
X389955Y368013D01*
X389859Y367842D01*
X389745Y367632D01*
X389631Y367385D01*
X389517Y367099D01*
X389403Y366776D01*
X389288Y366433D01*
X389174Y366033D01*
X389079Y365595D01*
X389003Y365138D01*
X388946Y364643D01*
X388907Y364110D01*
X388888Y363539D01*
Y362968D01*
Y362930D01*
Y362834D01*
Y362682D01*
X388907Y362473D01*
X388927Y362206D01*
X388965Y361920D01*
X389003Y361597D01*
X389041Y361235D01*
X389117Y360873D01*
X389193Y360492D01*
X389288Y360093D01*
X389422Y359712D01*
X389555Y359331D01*
X389726Y358950D01*
X389917Y358608D01*
X390145Y358284D01*
X390164Y358265D01*
X390202Y358208D01*
X390278Y358132D01*
X390373Y358036D01*
X390507Y357903D01*
X390659Y357770D01*
X390849Y357617D01*
X391059Y357465D01*
X391306Y357313D01*
X391573Y357160D01*
X391859Y357027D01*
X392182Y356894D01*
X392525Y356799D01*
X392906Y356722D01*
X393306Y356665D01*
X393725Y356646D01*
X393877D01*
X393991Y356665D01*
X394143Y356684D01*
X394296Y356703D01*
X394486Y356722D01*
X394677Y356761D01*
X395133Y356875D01*
X395590Y357065D01*
X395838Y357160D01*
X396086Y357294D01*
X396314Y357446D01*
X396543Y357617D01*
X396562Y357636D01*
X396600Y357656D01*
X396657Y357713D01*
X396733Y357789D01*
X396828Y357884D01*
X396923Y357998D01*
X397152Y358284D01*
X397399Y358646D01*
X397609Y359064D01*
X397780Y359521D01*
X397837Y359788D01*
X397875Y360054D01*
X400712D01*
Y360035D01*
Y359978D01*
X400693Y359902D01*
Y359807D01*
X400674Y359674D01*
X400636Y359502D01*
X400598Y359331D01*
X400560Y359141D01*
X400427Y358684D01*
X400236Y358208D01*
X399989Y357694D01*
X399836Y357446D01*
X399665Y357179D01*
X399646Y357160D01*
X399627Y357122D01*
X399570Y357046D01*
X399494Y356951D01*
X399398Y356837D01*
X399284Y356703D01*
X399151Y356551D01*
X398999Y356399D01*
X398618Y356037D01*
X398180Y355675D01*
X397685Y355313D01*
X397114Y354990D01*
X397095D01*
X397038Y354952D01*
X396961Y354914D01*
X396828Y354857D01*
X396695Y354800D01*
X396504Y354742D01*
X396314Y354666D01*
X396086Y354590D01*
X395838Y354514D01*
X395590Y354438D01*
X395019Y354324D01*
X394391Y354228D01*
X393725Y354190D01*
X393572D01*
X393382Y354209D01*
X393134Y354228D01*
X392830Y354266D01*
X392468Y354324D01*
X392087Y354400D01*
X391668Y354495D01*
X391211Y354609D01*
X390735Y354780D01*
X390259Y354971D01*
X389783Y355199D01*
X389307Y355485D01*
X388850Y355790D01*
X388412Y356170D01*
X387994Y356589D01*
X387975Y356608D01*
X387898Y356703D01*
X387803Y356837D01*
X387670Y357027D01*
X387498Y357275D01*
X387327Y357560D01*
X387137Y357922D01*
X386946Y358303D01*
X386737Y358760D01*
X386546Y359236D01*
X386375Y359788D01*
X386204Y360359D01*
X386070Y360987D01*
X385975Y361673D01*
X385899Y362377D01*
X385880Y363139D01*
Y363653D01*
Y363691D01*
Y363767D01*
Y363901D01*
X385899Y364091D01*
X385918Y364319D01*
X385937Y364567D01*
X385956Y364872D01*
X385994Y365195D01*
X386051Y365538D01*
X386109Y365900D01*
X386280Y366661D01*
X386375Y367061D01*
X386508Y367461D01*
X386642Y367842D01*
X386813Y368223D01*
X386832Y368242D01*
X386851Y368318D01*
X386908Y368413D01*
X386984Y368546D01*
X387080Y368718D01*
X387213Y368908D01*
X387346Y369137D01*
X387517Y369365D01*
X387689Y369613D01*
X387898Y369860D01*
X388127Y370127D01*
X388355Y370374D01*
X388622Y370622D01*
X388907Y370869D01*
X389212Y371117D01*
X389536Y371326D01*
X389555Y371345D01*
X389612Y371383D01*
X389707Y371421D01*
X389859Y371498D01*
X390012Y371593D01*
X390221Y371688D01*
X390450Y371783D01*
X390716Y371897D01*
X391021Y371993D01*
X391325Y372088D01*
X391668Y372183D01*
X392049Y372278D01*
X392430Y372354D01*
X392830Y372392D01*
X393268Y372430D01*
X393706Y372449D01*
X393839D01*
X393991Y372430D01*
D02*
G37*
G36*
X410099Y351810D02*
Y351791D01*
X410080Y351753D01*
X410061Y351696D01*
X410023Y351620D01*
X409985Y351525D01*
X409928Y351410D01*
X409794Y351125D01*
X409604Y350782D01*
X409395Y350420D01*
X409128Y350020D01*
X408842Y349621D01*
X408500Y349202D01*
X408100Y348802D01*
X407681Y348440D01*
X407205Y348097D01*
X406691Y347812D01*
X406424Y347698D01*
X406139Y347602D01*
X405834Y347526D01*
X405529Y347469D01*
X405206Y347431D01*
X404882Y347412D01*
X404311Y347469D01*
X403187Y347678D01*
Y350116D01*
X404006Y350040D01*
X404158D01*
X404254Y350059D01*
X404387D01*
X404539Y350078D01*
X404882Y350116D01*
X405263Y350192D01*
X405663Y350306D01*
X406043Y350458D01*
X406386Y350668D01*
X406405D01*
X406424Y350706D01*
X406538Y350801D01*
X406691Y350953D01*
X406786Y351068D01*
X406881Y351182D01*
X406995Y351334D01*
X407110Y351505D01*
X407224Y351677D01*
X407338Y351886D01*
X407452Y352115D01*
X407586Y352362D01*
X407681Y352648D01*
X407795Y352934D01*
X408462Y354704D01*
X402178Y372126D01*
X405472D01*
X409870Y358931D01*
X413964Y372126D01*
X417182D01*
X410099Y351810D01*
D02*
G37*
G36*
X346048Y354514D02*
X343173D01*
X343116Y356246D01*
X343097Y356227D01*
X343040Y356151D01*
X342926Y356056D01*
X342793Y355923D01*
X342602Y355770D01*
X342374Y355599D01*
X342126Y355409D01*
X341822Y355218D01*
X341479Y355028D01*
X341079Y354838D01*
X340660Y354666D01*
X340203Y354514D01*
X339708Y354381D01*
X339156Y354285D01*
X338585Y354209D01*
X337956Y354190D01*
X337842D01*
X337690Y354209D01*
X337499D01*
X337252Y354247D01*
X336985Y354285D01*
X336681Y354324D01*
X336357Y354400D01*
X336033Y354476D01*
X335672Y354590D01*
X335310Y354723D01*
X334967Y354876D01*
X334605Y355066D01*
X334282Y355276D01*
X333958Y355523D01*
X333672Y355809D01*
X333653Y355828D01*
X333615Y355885D01*
X333539Y355980D01*
X333444Y356113D01*
X333330Y356285D01*
X333215Y356494D01*
X333082Y356742D01*
X332930Y357027D01*
X332797Y357351D01*
X332663Y357713D01*
X332549Y358112D01*
X332435Y358550D01*
X332340Y359026D01*
X332263Y359540D01*
X332206Y360073D01*
X332187Y360664D01*
Y372126D01*
X335196D01*
Y360740D01*
Y360721D01*
Y360702D01*
Y360645D01*
Y360569D01*
X335215Y360378D01*
X335253Y360112D01*
X335291Y359807D01*
X335367Y359483D01*
X335462Y359121D01*
X335595Y358741D01*
X335767Y358360D01*
X335995Y357998D01*
X336262Y357675D01*
X336566Y357370D01*
X336947Y357103D01*
X337385Y356913D01*
X337614Y356837D01*
X337880Y356780D01*
X338147Y356761D01*
X338451Y356742D01*
X338604D01*
X338775Y356761D01*
X339004Y356780D01*
X339289Y356818D01*
X339594Y356875D01*
X339956Y356951D01*
X340317Y357065D01*
X340698Y357199D01*
X341079Y357370D01*
X341479Y357579D01*
X341841Y357827D01*
X342202Y358112D01*
X342507Y358455D01*
X342793Y358855D01*
X343040Y359312D01*
Y372126D01*
X346048D01*
Y354514D01*
D02*
G37*
G36*
X488734Y375420D02*
X479157D01*
X478434Y368965D01*
X478453Y368984D01*
X478510Y369003D01*
X478605Y369060D01*
X478738Y369117D01*
X478909Y369213D01*
X479100Y369289D01*
X479328Y369384D01*
X479595Y369479D01*
X479861Y369574D01*
X480166Y369670D01*
X480490Y369765D01*
X480852Y369841D01*
X481594Y369955D01*
X481994Y369974D01*
X482394Y369993D01*
X482546D01*
X482698Y369974D01*
X482927Y369955D01*
X483213Y369936D01*
X483517Y369879D01*
X483879Y369822D01*
X484260Y369727D01*
X484660Y369613D01*
X485078Y369460D01*
X485497Y369289D01*
X485935Y369079D01*
X486354Y368832D01*
X486773Y368546D01*
X487173Y368223D01*
X487535Y367842D01*
X487554Y367823D01*
X487611Y367747D01*
X487706Y367613D01*
X487839Y367461D01*
X487973Y367233D01*
X488144Y366966D01*
X488315Y366661D01*
X488487Y366319D01*
X488658Y365919D01*
X488829Y365500D01*
X489001Y365024D01*
X489134Y364510D01*
X489267Y363939D01*
X489362Y363348D01*
X489420Y362720D01*
X489439Y362054D01*
Y362035D01*
Y362016D01*
Y361959D01*
Y361901D01*
X489420Y361711D01*
X489401Y361444D01*
X489382Y361140D01*
X489343Y360778D01*
X489267Y360397D01*
X489191Y359959D01*
X489096Y359502D01*
X488963Y359045D01*
X488791Y358550D01*
X488601Y358074D01*
X488372Y357598D01*
X488106Y357141D01*
X487801Y356703D01*
X487459Y356285D01*
X487439Y356265D01*
X487363Y356189D01*
X487249Y356094D01*
X487097Y355961D01*
X486887Y355809D01*
X486640Y355618D01*
X486354Y355428D01*
X486030Y355237D01*
X485650Y355047D01*
X485250Y354857D01*
X484793Y354685D01*
X484298Y354514D01*
X483765Y354381D01*
X483193Y354285D01*
X482584Y354209D01*
X481937Y354190D01*
X481804D01*
X481632Y354209D01*
X481423D01*
X481156Y354247D01*
X480833Y354285D01*
X480490Y354343D01*
X480128Y354400D01*
X479728Y354495D01*
X479309Y354609D01*
X478891Y354761D01*
X478453Y354914D01*
X478015Y355123D01*
X477596Y355352D01*
X477196Y355618D01*
X476815Y355923D01*
X476796Y355942D01*
X476739Y355999D01*
X476625Y356094D01*
X476510Y356246D01*
X476339Y356418D01*
X476168Y356627D01*
X475977Y356894D01*
X475787Y357179D01*
X475597Y357503D01*
X475387Y357865D01*
X475197Y358265D01*
X475025Y358684D01*
X474873Y359160D01*
X474721Y359655D01*
X474625Y360169D01*
X474549Y360740D01*
X477405D01*
Y360721D01*
X477424Y360645D01*
X477443Y360549D01*
X477462Y360397D01*
X477501Y360245D01*
X477558Y360035D01*
X477615Y359826D01*
X477691Y359598D01*
X477862Y359103D01*
X478129Y358588D01*
X478262Y358341D01*
X478434Y358093D01*
X478624Y357884D01*
X478833Y357675D01*
X478852Y357656D01*
X478891Y357636D01*
X478948Y357579D01*
X479043Y357522D01*
X479157Y357446D01*
X479309Y357351D01*
X479481Y357256D01*
X479671Y357160D01*
X479881Y357065D01*
X480109Y356970D01*
X480357Y356894D01*
X480642Y356799D01*
X480928Y356742D01*
X481251Y356684D01*
X481594Y356665D01*
X481937Y356646D01*
X482032D01*
X482146Y356665D01*
X482280D01*
X482451Y356684D01*
X482660Y356722D01*
X482889Y356761D01*
X483136Y356818D01*
X483403Y356894D01*
X483670Y356989D01*
X483936Y357103D01*
X484203Y357256D01*
X484488Y357408D01*
X484755Y357598D01*
X485002Y357827D01*
X485231Y358074D01*
X485250Y358093D01*
X485288Y358151D01*
X485345Y358227D01*
X485421Y358341D01*
X485516Y358474D01*
X485612Y358665D01*
X485726Y358874D01*
X485840Y359103D01*
X485935Y359369D01*
X486050Y359674D01*
X486145Y359997D01*
X486240Y360340D01*
X486316Y360721D01*
X486373Y361121D01*
X486411Y361559D01*
X486430Y362016D01*
Y362035D01*
Y362130D01*
Y362244D01*
X486411Y362416D01*
X486392Y362606D01*
X486354Y362853D01*
X486316Y363101D01*
X486278Y363387D01*
X486107Y363996D01*
X486011Y364319D01*
X485878Y364643D01*
X485745Y364948D01*
X485555Y365271D01*
X485364Y365557D01*
X485136Y365843D01*
X485117Y365862D01*
X485078Y365900D01*
X485002Y365976D01*
X484907Y366071D01*
X484774Y366185D01*
X484621Y366300D01*
X484431Y366433D01*
X484222Y366566D01*
X483993Y366700D01*
X483727Y366833D01*
X483441Y366947D01*
X483136Y367061D01*
X482813Y367156D01*
X482451Y367233D01*
X482089Y367271D01*
X481689Y367290D01*
X481499D01*
X481366Y367271D01*
X481194D01*
X481004Y367252D01*
X480794Y367214D01*
X480566Y367176D01*
X480071Y367080D01*
X479557Y366928D01*
X479062Y366700D01*
X478833Y366566D01*
X478605Y366414D01*
X477805Y365767D01*
X475406Y366395D01*
X476606Y378200D01*
X488734D01*
Y375420D01*
D02*
G37*
G36*
X560382Y369974D02*
X550576Y356970D01*
X560877D01*
Y354514D01*
X546901D01*
Y356722D01*
X556612Y369632D01*
X547035D01*
Y372126D01*
X560382D01*
Y369974D01*
D02*
G37*
G36*
X437688Y354514D02*
X434661D01*
Y374563D01*
X428606Y372335D01*
Y375077D01*
X437231Y378314D01*
X437688D01*
Y354514D01*
D02*
G37*
G36*
X281122Y375648D02*
X269565D01*
Y367537D01*
X279504D01*
Y364986D01*
X269565D01*
Y354514D01*
X266442D01*
Y378200D01*
X281122D01*
Y375648D01*
D02*
G37*
G36*
X467790Y357903D02*
X468000Y357865D01*
X468228Y357789D01*
X468457Y357694D01*
X468685Y357560D01*
X468875Y357389D01*
X468894Y357370D01*
X468952Y357294D01*
X469028Y357179D01*
X469123Y357027D01*
X469199Y356856D01*
X469275Y356627D01*
X469332Y356380D01*
X469351Y356094D01*
Y356056D01*
Y355961D01*
X469332Y355828D01*
X469294Y355656D01*
X469237Y355447D01*
X469142Y355237D01*
X469028Y355028D01*
X468875Y354838D01*
X468856Y354819D01*
X468780Y354761D01*
X468685Y354685D01*
X468514Y354590D01*
X468323Y354495D01*
X468076Y354419D01*
X467790Y354362D01*
X467466Y354343D01*
X467314D01*
X467143Y354362D01*
X466952Y354400D01*
X466724Y354457D01*
X466495Y354552D01*
X466267Y354666D01*
X466077Y354838D01*
X466057Y354857D01*
X466000Y354933D01*
X465924Y355028D01*
X465848Y355180D01*
X465772Y355371D01*
X465696Y355580D01*
X465639Y355828D01*
X465620Y356094D01*
Y356132D01*
Y356227D01*
X465639Y356361D01*
X465677Y356551D01*
X465734Y356761D01*
X465810Y356970D01*
X465924Y357179D01*
X466077Y357389D01*
X466096Y357408D01*
X466172Y357465D01*
X466267Y357560D01*
X466419Y357656D01*
X466610Y357751D01*
X466857Y357846D01*
X467143Y357903D01*
X467466Y357922D01*
X467619D01*
X467790Y357903D01*
D02*
G37*
G36*
X454253Y378504D02*
X454519Y378485D01*
X454843Y378447D01*
X455205Y378390D01*
X455605Y378314D01*
X456023Y378219D01*
X456480Y378085D01*
X456937Y377933D01*
X457413Y377724D01*
X457870Y377495D01*
X458327Y377209D01*
X458746Y376886D01*
X459146Y376505D01*
X459508Y376067D01*
X459527Y376048D01*
X459584Y375953D01*
X459679Y375801D01*
X459793Y375610D01*
X459927Y375344D01*
X460079Y375020D01*
X460250Y374639D01*
X460422Y374201D01*
X460593Y373706D01*
X460764Y373135D01*
X460917Y372526D01*
X461050Y371840D01*
X461183Y371098D01*
X461278Y370298D01*
X461336Y369441D01*
X461374Y368508D01*
Y364605D01*
Y364586D01*
Y364548D01*
Y364472D01*
Y364377D01*
Y364243D01*
X461355Y364091D01*
Y363939D01*
Y363729D01*
X461336Y363520D01*
X461317Y363291D01*
X461278Y362796D01*
X461221Y362244D01*
X461145Y361635D01*
X461050Y361006D01*
X460936Y360359D01*
X460783Y359712D01*
X460612Y359064D01*
X460403Y358417D01*
X460155Y357827D01*
X459889Y357256D01*
X459565Y356742D01*
X459546Y356722D01*
X459489Y356627D01*
X459375Y356513D01*
X459222Y356342D01*
X459032Y356151D01*
X458784Y355942D01*
X458518Y355713D01*
X458175Y355466D01*
X457813Y355237D01*
X457394Y354990D01*
X456937Y354780D01*
X456423Y354590D01*
X455871Y354419D01*
X455262Y354304D01*
X454614Y354228D01*
X453929Y354190D01*
X453758D01*
X453567Y354209D01*
X453301Y354228D01*
X452996Y354266D01*
X452634Y354324D01*
X452235Y354400D01*
X451816Y354495D01*
X451359Y354628D01*
X450902Y354800D01*
X450426Y355009D01*
X449969Y355237D01*
X449512Y355523D01*
X449074Y355866D01*
X448674Y356246D01*
X448312Y356684D01*
X448293Y356722D01*
X448236Y356799D01*
X448141Y356951D01*
X448027Y357160D01*
X447893Y357427D01*
X447722Y357751D01*
X447570Y358132D01*
X447398Y358569D01*
X447227Y359064D01*
X447056Y359617D01*
X446884Y360245D01*
X446751Y360911D01*
X446618Y361654D01*
X446523Y362454D01*
X446465Y363291D01*
X446427Y364205D01*
Y368223D01*
Y368242D01*
Y368280D01*
Y368356D01*
Y368451D01*
Y368584D01*
X446446Y368718D01*
Y368889D01*
X446465Y369079D01*
X446484Y369517D01*
X446523Y370012D01*
X446580Y370565D01*
X446656Y371155D01*
X446751Y371764D01*
X446865Y372411D01*
X447017Y373059D01*
X447189Y373687D01*
X447379Y374316D01*
X447627Y374906D01*
X447893Y375477D01*
X448217Y375972D01*
X448236Y376010D01*
X448312Y376086D01*
X448407Y376200D01*
X448560Y376372D01*
X448750Y376562D01*
X448998Y376772D01*
X449283Y377019D01*
X449607Y377248D01*
X449988Y377495D01*
X450407Y377724D01*
X450864Y377933D01*
X451378Y378123D01*
X451930Y378295D01*
X452539Y378409D01*
X453187Y378504D01*
X453891Y378523D01*
X454062D01*
X454253Y378504D01*
D02*
G37*
G36*
X357872Y372430D02*
X358120Y372411D01*
X358405Y372373D01*
X358729Y372335D01*
X359110Y372259D01*
X359510Y372164D01*
X359929Y372050D01*
X360347Y371897D01*
X360804Y371707D01*
X361242Y371498D01*
X361680Y371231D01*
X362099Y370926D01*
X362499Y370584D01*
X362880Y370184D01*
X362899Y370165D01*
X362956Y370070D01*
X363051Y369955D01*
X363184Y369765D01*
X363318Y369536D01*
X363489Y369251D01*
X363660Y368908D01*
X363832Y368527D01*
X364003Y368089D01*
X364175Y367594D01*
X364346Y367061D01*
X364479Y366490D01*
X364612Y365862D01*
X364708Y365176D01*
X364765Y364453D01*
X364784Y363691D01*
Y362454D01*
X352865D01*
Y362416D01*
Y362339D01*
X352884Y362206D01*
X352903Y362016D01*
X352922Y361806D01*
X352960Y361540D01*
X353017Y361254D01*
X353074Y360949D01*
X353150Y360626D01*
X353265Y360283D01*
X353379Y359940D01*
X353531Y359578D01*
X353702Y359236D01*
X353893Y358893D01*
X354121Y358550D01*
X354369Y358246D01*
X354388Y358227D01*
X354445Y358170D01*
X354521Y358093D01*
X354635Y357998D01*
X354769Y357884D01*
X354959Y357732D01*
X355150Y357598D01*
X355378Y357446D01*
X355645Y357294D01*
X355911Y357160D01*
X356235Y357027D01*
X356558Y356894D01*
X356901Y356799D01*
X357282Y356722D01*
X357663Y356665D01*
X358082Y356646D01*
X358234D01*
X358348Y356665D01*
X358482D01*
X358653Y356684D01*
X358824Y356703D01*
X359015Y356722D01*
X359453Y356799D01*
X359891Y356913D01*
X360347Y357084D01*
X360785Y357294D01*
X360804D01*
X360842Y357332D01*
X360900Y357370D01*
X360976Y357408D01*
X361185Y357560D01*
X361452Y357751D01*
X361737Y357998D01*
X362080Y358284D01*
X362404Y358627D01*
X362727Y359007D01*
X364555Y357579D01*
X364536Y357541D01*
X364460Y357427D01*
X364327Y357275D01*
X364136Y357046D01*
X363908Y356799D01*
X363622Y356513D01*
X363280Y356208D01*
X362899Y355885D01*
X362461Y355561D01*
X361966Y355256D01*
X361433Y354971D01*
X360823Y354723D01*
X360176Y354495D01*
X359491Y354343D01*
X358729Y354228D01*
X358329Y354209D01*
X357929Y354190D01*
X357777D01*
X357587Y354209D01*
X357339Y354228D01*
X357034Y354266D01*
X356673Y354324D01*
X356292Y354381D01*
X355854Y354476D01*
X355397Y354609D01*
X354940Y354761D01*
X354445Y354952D01*
X353969Y355180D01*
X353474Y355447D01*
X352998Y355751D01*
X352541Y356113D01*
X352103Y356532D01*
X352084Y356551D01*
X352008Y356646D01*
X351894Y356780D01*
X351760Y356970D01*
X351589Y357199D01*
X351399Y357484D01*
X351189Y357827D01*
X350980Y358208D01*
X350770Y358627D01*
X350561Y359103D01*
X350371Y359617D01*
X350199Y360188D01*
X350066Y360778D01*
X349952Y361425D01*
X349875Y362092D01*
X349856Y362815D01*
Y363368D01*
Y363405D01*
Y363482D01*
Y363615D01*
X349875Y363805D01*
X349894Y364034D01*
X349914Y364300D01*
X349933Y364605D01*
X349990Y364948D01*
X350028Y365290D01*
X350104Y365671D01*
X350275Y366452D01*
X350390Y366852D01*
X350523Y367252D01*
X350675Y367652D01*
X350847Y368051D01*
X350866Y368070D01*
X350885Y368146D01*
X350961Y368242D01*
X351037Y368394D01*
X351132Y368565D01*
X351265Y368756D01*
X351399Y368984D01*
X351570Y369232D01*
X351760Y369479D01*
X351970Y369746D01*
X352198Y370012D01*
X352446Y370279D01*
X352731Y370546D01*
X353017Y370793D01*
X353322Y371041D01*
X353645Y371269D01*
X353664Y371288D01*
X353721Y371326D01*
X353836Y371383D01*
X353969Y371460D01*
X354121Y371536D01*
X354331Y371650D01*
X354559Y371745D01*
X354807Y371859D01*
X355092Y371973D01*
X355397Y372069D01*
X355721Y372183D01*
X356063Y372259D01*
X356406Y372335D01*
X356787Y372392D01*
X357168Y372430D01*
X357549Y372449D01*
X357701D01*
X357872Y372430D01*
D02*
G37*
G36*
X302904D02*
X303151Y372411D01*
X303437Y372373D01*
X303761Y372335D01*
X304141Y372259D01*
X304541Y372164D01*
X304960Y372050D01*
X305379Y371897D01*
X305836Y371707D01*
X306274Y371498D01*
X306712Y371231D01*
X307131Y370926D01*
X307530Y370584D01*
X307911Y370184D01*
X307930Y370165D01*
X307987Y370070D01*
X308083Y369955D01*
X308216Y369765D01*
X308349Y369536D01*
X308521Y369251D01*
X308692Y368908D01*
X308863Y368527D01*
X309035Y368089D01*
X309206Y367594D01*
X309377Y367061D01*
X309511Y366490D01*
X309644Y365862D01*
X309739Y365176D01*
X309796Y364453D01*
X309815Y363691D01*
Y362454D01*
X297896D01*
Y362416D01*
Y362339D01*
X297915Y362206D01*
X297934Y362016D01*
X297953Y361806D01*
X297991Y361540D01*
X298049Y361254D01*
X298106Y360949D01*
X298182Y360626D01*
X298296Y360283D01*
X298410Y359940D01*
X298563Y359578D01*
X298734Y359236D01*
X298924Y358893D01*
X299153Y358550D01*
X299400Y358246D01*
X299419Y358227D01*
X299477Y358170D01*
X299553Y358093D01*
X299667Y357998D01*
X299800Y357884D01*
X299991Y357732D01*
X300181Y357598D01*
X300410Y357446D01*
X300676Y357294D01*
X300943Y357160D01*
X301266Y357027D01*
X301590Y356894D01*
X301933Y356799D01*
X302313Y356722D01*
X302694Y356665D01*
X303113Y356646D01*
X303266D01*
X303380Y356665D01*
X303513D01*
X303684Y356684D01*
X303856Y356703D01*
X304046Y356722D01*
X304484Y356799D01*
X304922Y356913D01*
X305379Y357084D01*
X305817Y357294D01*
X305836D01*
X305874Y357332D01*
X305931Y357370D01*
X306007Y357408D01*
X306217Y357560D01*
X306483Y357751D01*
X306769Y357998D01*
X307112Y358284D01*
X307435Y358627D01*
X307759Y359007D01*
X309587Y357579D01*
X309568Y357541D01*
X309492Y357427D01*
X309358Y357275D01*
X309168Y357046D01*
X308939Y356799D01*
X308654Y356513D01*
X308311Y356208D01*
X307930Y355885D01*
X307492Y355561D01*
X306997Y355256D01*
X306464Y354971D01*
X305855Y354723D01*
X305208Y354495D01*
X304522Y354343D01*
X303761Y354228D01*
X303361Y354209D01*
X302961Y354190D01*
X302809D01*
X302618Y354209D01*
X302371Y354228D01*
X302066Y354266D01*
X301704Y354324D01*
X301323Y354381D01*
X300886Y354476D01*
X300429Y354609D01*
X299972Y354761D01*
X299477Y354952D01*
X299001Y355180D01*
X298505Y355447D01*
X298029Y355751D01*
X297573Y356113D01*
X297135Y356532D01*
X297116Y356551D01*
X297039Y356646D01*
X296925Y356780D01*
X296792Y356970D01*
X296621Y357199D01*
X296430Y357484D01*
X296221Y357827D01*
X296011Y358208D01*
X295802Y358627D01*
X295592Y359103D01*
X295402Y359617D01*
X295231Y360188D01*
X295097Y360778D01*
X294983Y361425D01*
X294907Y362092D01*
X294888Y362815D01*
Y363368D01*
Y363405D01*
Y363482D01*
Y363615D01*
X294907Y363805D01*
X294926Y364034D01*
X294945Y364300D01*
X294964Y364605D01*
X295021Y364948D01*
X295059Y365290D01*
X295135Y365671D01*
X295307Y366452D01*
X295421Y366852D01*
X295554Y367252D01*
X295707Y367652D01*
X295878Y368051D01*
X295897Y368070D01*
X295916Y368146D01*
X295992Y368242D01*
X296068Y368394D01*
X296164Y368565D01*
X296297Y368756D01*
X296430Y368984D01*
X296602Y369232D01*
X296792Y369479D01*
X297001Y369746D01*
X297230Y370012D01*
X297477Y370279D01*
X297763Y370546D01*
X298049Y370793D01*
X298353Y371041D01*
X298677Y371269D01*
X298696Y371288D01*
X298753Y371326D01*
X298867Y371383D01*
X299001Y371460D01*
X299153Y371536D01*
X299362Y371650D01*
X299591Y371745D01*
X299838Y371859D01*
X300124Y371973D01*
X300429Y372069D01*
X300752Y372183D01*
X301095Y372259D01*
X301438Y372335D01*
X301818Y372392D01*
X302199Y372430D01*
X302580Y372449D01*
X302732D01*
X302904Y372430D01*
D02*
G37*
G36*
X319887D02*
X320097Y372411D01*
X320363Y372392D01*
X320668Y372335D01*
X321011Y372278D01*
X321373Y372183D01*
X321753Y372069D01*
X322153Y371936D01*
X322572Y371764D01*
X322972Y371555D01*
X323391Y371307D01*
X323791Y371041D01*
X324152Y370717D01*
X324514Y370336D01*
X324647Y372126D01*
X327408D01*
Y347755D01*
X324400D01*
Y356132D01*
X324381Y356113D01*
X324324Y356056D01*
X324209Y355961D01*
X324076Y355828D01*
X323886Y355675D01*
X323657Y355523D01*
X323410Y355352D01*
X323105Y355161D01*
X322781Y354990D01*
X322420Y354800D01*
X322020Y354647D01*
X321582Y354495D01*
X321125Y354362D01*
X320630Y354266D01*
X320097Y354209D01*
X319545Y354190D01*
X319411D01*
X319240Y354209D01*
X319012Y354228D01*
X318745Y354266D01*
X318440Y354324D01*
X318098Y354400D01*
X317717Y354495D01*
X317317Y354628D01*
X316898Y354800D01*
X316479Y354990D01*
X316060Y355237D01*
X315641Y355523D01*
X315223Y355847D01*
X314842Y356227D01*
X314461Y356665D01*
X314442Y356703D01*
X314385Y356780D01*
X314290Y356913D01*
X314175Y357122D01*
X314023Y357370D01*
X313871Y357675D01*
X313699Y358017D01*
X313528Y358417D01*
X313338Y358874D01*
X313166Y359369D01*
X313014Y359902D01*
X312881Y360492D01*
X312747Y361121D01*
X312652Y361787D01*
X312595Y362511D01*
X312576Y363253D01*
Y363463D01*
Y363482D01*
Y363520D01*
Y363577D01*
Y363653D01*
Y363748D01*
X312595Y363862D01*
X312614Y364148D01*
X312633Y364491D01*
X312671Y364910D01*
X312728Y365348D01*
X312824Y365843D01*
X312919Y366357D01*
X313033Y366890D01*
X313204Y367442D01*
X313376Y367994D01*
X313604Y368527D01*
X313852Y369060D01*
X314137Y369555D01*
X314480Y370031D01*
X314499Y370051D01*
X314575Y370127D01*
X314670Y370260D01*
X314823Y370412D01*
X315013Y370584D01*
X315261Y370793D01*
X315527Y371022D01*
X315832Y371250D01*
X316175Y371460D01*
X316555Y371688D01*
X316974Y371897D01*
X317431Y372069D01*
X317926Y372221D01*
X318440Y372354D01*
X318993Y372430D01*
X319583Y372449D01*
X319716D01*
X319887Y372430D01*
D02*
G37*
%LPC*%
G36*
X460517Y461888D02*
X456480Y450826D01*
X464534D01*
X460517Y461888D01*
D02*
G37*
G36*
X422342Y463202D02*
X416553D01*
Y453891D01*
X422418D01*
X422589Y453910D01*
X422799Y453929D01*
X423027Y453948D01*
X423294Y453986D01*
X423579Y454044D01*
X424208Y454177D01*
X424512Y454272D01*
X424836Y454386D01*
X425141Y454520D01*
X425445Y454691D01*
X425731Y454862D01*
X425997Y455072D01*
X426016Y455091D01*
X426054Y455129D01*
X426131Y455205D01*
X426207Y455300D01*
X426302Y455414D01*
X426416Y455567D01*
X426549Y455738D01*
X426683Y455948D01*
X426797Y456176D01*
X426930Y456424D01*
X427045Y456709D01*
X427140Y457014D01*
X427216Y457338D01*
X427292Y457699D01*
X427330Y458080D01*
X427349Y458480D01*
Y458499D01*
Y458575D01*
Y458689D01*
X427330Y458823D01*
X427311Y459013D01*
X427273Y459222D01*
X427235Y459451D01*
X427178Y459698D01*
X427102Y459965D01*
X427026Y460232D01*
X426911Y460517D01*
X426778Y460803D01*
X426626Y461088D01*
X426435Y461355D01*
X426245Y461622D01*
X425997Y461869D01*
X425978Y461888D01*
X425940Y461926D01*
X425864Y461983D01*
X425750Y462078D01*
X425617Y462174D01*
X425445Y462269D01*
X425255Y462402D01*
X425045Y462516D01*
X424798Y462631D01*
X424512Y462764D01*
X424227Y462859D01*
X423903Y462973D01*
X423541Y463050D01*
X423160Y463126D01*
X422761Y463183D01*
X422342Y463202D01*
D02*
G37*
G36*
X348257Y463392D02*
X348124D01*
X347971Y463373D01*
X347762Y463354D01*
X347515Y463316D01*
X347229Y463278D01*
X346905Y463202D01*
X346563Y463107D01*
X346201Y462992D01*
X345820Y462840D01*
X345439Y462650D01*
X345039Y462440D01*
X344658Y462174D01*
X344278Y461869D01*
X343935Y461526D01*
X343592Y461126D01*
X343573Y461107D01*
X343516Y461031D01*
X343440Y460898D01*
X343326Y460708D01*
X343192Y460479D01*
X343059Y460213D01*
X342907Y459870D01*
X342735Y459508D01*
X342583Y459089D01*
X342431Y458613D01*
X342279Y458099D01*
X342145Y457547D01*
X342031Y456938D01*
X341955Y456290D01*
X341879Y455605D01*
X341860Y454881D01*
Y453130D01*
Y453111D01*
Y453092D01*
Y453034D01*
Y452958D01*
Y452863D01*
X341879Y452730D01*
Y452463D01*
X341917Y452120D01*
X341955Y451721D01*
X342012Y451283D01*
X342069Y450807D01*
X342164Y450293D01*
X342279Y449779D01*
X342412Y449246D01*
X342583Y448712D01*
X342774Y448179D01*
X343002Y447665D01*
X343269Y447170D01*
X343573Y446713D01*
X343592Y446694D01*
X343649Y446618D01*
X343745Y446504D01*
X343897Y446351D01*
X344068Y446180D01*
X344278Y445971D01*
X344525Y445761D01*
X344811Y445552D01*
X345134Y445342D01*
X345477Y445133D01*
X345858Y444923D01*
X346296Y444752D01*
X346734Y444600D01*
X347229Y444486D01*
X347743Y444409D01*
X348295Y444390D01*
X348428D01*
X348581Y444409D01*
X348790Y444428D01*
X349057Y444466D01*
X349342Y444504D01*
X349666Y444581D01*
X350009Y444657D01*
X350390Y444771D01*
X350770Y444923D01*
X351151Y445095D01*
X351551Y445323D01*
X351932Y445571D01*
X352293Y445856D01*
X352655Y446199D01*
X352979Y446580D01*
X352998Y446599D01*
X353055Y446675D01*
X353131Y446808D01*
X353245Y446999D01*
X353360Y447227D01*
X353512Y447494D01*
X353664Y447818D01*
X353817Y448198D01*
X353969Y448617D01*
X354121Y449093D01*
X354274Y449607D01*
X354407Y450178D01*
X354521Y450788D01*
X354597Y451454D01*
X354674Y452159D01*
X354693Y452901D01*
Y454672D01*
Y454691D01*
Y454729D01*
Y454786D01*
Y454862D01*
Y454957D01*
X354674Y455072D01*
Y455357D01*
X354635Y455719D01*
X354597Y456119D01*
X354559Y456576D01*
X354483Y457052D01*
X354388Y457566D01*
X354274Y458099D01*
X354140Y458632D01*
X353969Y459165D01*
X353779Y459698D01*
X353550Y460213D01*
X353303Y460688D01*
X352998Y461126D01*
X352979Y461145D01*
X352922Y461222D01*
X352827Y461336D01*
X352693Y461488D01*
X352522Y461660D01*
X352293Y461850D01*
X352046Y462040D01*
X351779Y462269D01*
X351456Y462478D01*
X351094Y462669D01*
X350713Y462859D01*
X350275Y463030D01*
X349818Y463183D01*
X349342Y463297D01*
X348809Y463373D01*
X348257Y463392D01*
D02*
G37*
G36*
X378988Y404718D02*
X373199D01*
Y395408D01*
X379064D01*
X379235Y395427D01*
X379445Y395446D01*
X379673Y395465D01*
X379940Y395503D01*
X380225Y395560D01*
X380854Y395694D01*
X381158Y395789D01*
X381482Y395903D01*
X381786Y396036D01*
X382091Y396208D01*
X382377Y396379D01*
X382643Y396588D01*
X382662Y396607D01*
X382700Y396646D01*
X382777Y396722D01*
X382853Y396817D01*
X382948Y396931D01*
X383062Y397083D01*
X383195Y397255D01*
X383329Y397464D01*
X383443Y397693D01*
X383576Y397940D01*
X383691Y398226D01*
X383786Y398531D01*
X383862Y398854D01*
X383938Y399216D01*
X383976Y399597D01*
X383995Y399997D01*
Y400016D01*
Y400092D01*
Y400206D01*
X383976Y400339D01*
X383957Y400530D01*
X383919Y400739D01*
X383881Y400968D01*
X383824Y401215D01*
X383748Y401482D01*
X383671Y401748D01*
X383557Y402034D01*
X383424Y402319D01*
X383272Y402605D01*
X383081Y402872D01*
X382891Y403138D01*
X382643Y403386D01*
X382624Y403405D01*
X382586Y403443D01*
X382510Y403500D01*
X382396Y403595D01*
X382262Y403690D01*
X382091Y403786D01*
X381901Y403919D01*
X381691Y404033D01*
X381444Y404147D01*
X381158Y404281D01*
X380873Y404376D01*
X380549Y404490D01*
X380187Y404566D01*
X379806Y404642D01*
X379406Y404700D01*
X378988Y404718D01*
D02*
G37*
G36*
X345534Y392133D02*
X342945D01*
X342812Y392114D01*
X342659D01*
X342488Y392095D01*
X342317Y392076D01*
X341898Y392038D01*
X341422Y391962D01*
X340927Y391866D01*
X340413Y391733D01*
X339898Y391562D01*
X339403Y391353D01*
X338927Y391086D01*
X338509Y390762D01*
X338337Y390591D01*
X338166Y390401D01*
X338014Y390191D01*
X337880Y389963D01*
X337785Y389734D01*
X337709Y389468D01*
X337671Y389182D01*
X337652Y388896D01*
Y388877D01*
Y388839D01*
Y388763D01*
X337671Y388668D01*
X337690Y388534D01*
X337709Y388401D01*
X337766Y388078D01*
X337880Y387735D01*
X338052Y387354D01*
X338147Y387164D01*
X338280Y386992D01*
X338413Y386821D01*
X338585Y386669D01*
X338604D01*
X338623Y386631D01*
X338680Y386593D01*
X338756Y386554D01*
X338851Y386497D01*
X338966Y386421D01*
X339251Y386288D01*
X339594Y386136D01*
X340013Y386002D01*
X340489Y385926D01*
X341022Y385888D01*
X341155D01*
X341269Y385907D01*
X341384D01*
X341536Y385926D01*
X341707Y385945D01*
X341879Y385983D01*
X342298Y386059D01*
X342735Y386193D01*
X343211Y386364D01*
X343687Y386612D01*
X343706D01*
X343745Y386650D01*
X343802Y386688D01*
X343897Y386745D01*
X344125Y386897D01*
X344392Y387126D01*
X344697Y387392D01*
X345001Y387716D01*
X345287Y388097D01*
X345534Y388515D01*
Y392133D01*
D02*
G37*
G36*
X481023Y405118D02*
X480928D01*
X480794Y405099D01*
X480642D01*
X480452Y405061D01*
X480242Y405023D01*
X479995Y404966D01*
X479747Y404909D01*
X479462Y404814D01*
X479195Y404700D01*
X478909Y404547D01*
X478624Y404376D01*
X478357Y404185D01*
X478110Y403938D01*
X477862Y403671D01*
X477653Y403367D01*
X477634Y403348D01*
X477615Y403291D01*
X477558Y403176D01*
X477482Y403043D01*
X477405Y402853D01*
X477329Y402624D01*
X477215Y402358D01*
X477120Y402053D01*
X477025Y401691D01*
X476929Y401291D01*
X476834Y400853D01*
X476758Y400377D01*
X476682Y399863D01*
X476625Y399292D01*
X476587Y398664D01*
X476568Y398017D01*
Y393199D01*
Y393180D01*
Y393161D01*
Y393104D01*
Y393028D01*
Y392838D01*
X476587Y392571D01*
X476606Y392247D01*
X476625Y391886D01*
X476663Y391486D01*
X476701Y391067D01*
X476758Y390610D01*
X476834Y390134D01*
X476929Y389658D01*
X477044Y389201D01*
X477158Y388744D01*
X477310Y388306D01*
X477482Y387906D01*
X477672Y387544D01*
X477691Y387525D01*
X477729Y387468D01*
X477786Y387373D01*
X477881Y387259D01*
X477996Y387126D01*
X478148Y386973D01*
X478319Y386802D01*
X478510Y386631D01*
X478738Y386459D01*
X478986Y386288D01*
X479271Y386136D01*
X479576Y386002D01*
X479900Y385888D01*
X480261Y385793D01*
X480642Y385736D01*
X481061Y385717D01*
X481156D01*
X481271Y385736D01*
X481423D01*
X481613Y385774D01*
X481823Y385812D01*
X482051Y385869D01*
X482318Y385926D01*
X482565Y386021D01*
X482851Y386136D01*
X483117Y386269D01*
X483384Y386440D01*
X483650Y386631D01*
X483917Y386859D01*
X484145Y387126D01*
X484355Y387430D01*
X484374Y387449D01*
X484393Y387506D01*
X484450Y387621D01*
X484526Y387754D01*
X484602Y387944D01*
X484698Y388173D01*
X484793Y388439D01*
X484907Y388763D01*
X485002Y389125D01*
X485117Y389525D01*
X485212Y389963D01*
X485288Y390458D01*
X485364Y390991D01*
X485440Y391562D01*
X485478Y392190D01*
X485497Y392857D01*
Y397788D01*
Y397807D01*
Y397826D01*
Y397883D01*
Y397959D01*
Y398150D01*
X485478Y398416D01*
X485459Y398721D01*
X485440Y399083D01*
X485402Y399482D01*
X485364Y399921D01*
X485307Y400377D01*
X485231Y400834D01*
X485155Y401291D01*
X485040Y401748D01*
X484907Y402205D01*
X484774Y402624D01*
X484602Y403024D01*
X484412Y403367D01*
X484393Y403386D01*
X484355Y403443D01*
X484298Y403538D01*
X484203Y403633D01*
X484088Y403766D01*
X483955Y403919D01*
X483784Y404071D01*
X483593Y404243D01*
X483365Y404414D01*
X483117Y404566D01*
X482832Y404718D01*
X482527Y404852D01*
X482203Y404966D01*
X481842Y405042D01*
X481442Y405099D01*
X481023Y405118D01*
D02*
G37*
G36*
X397818Y399045D02*
X397723D01*
X397609Y399026D01*
X397456D01*
X397266Y398988D01*
X397038Y398949D01*
X396790Y398892D01*
X396543Y398816D01*
X396257Y398721D01*
X395952Y398607D01*
X395667Y398454D01*
X395362Y398283D01*
X395057Y398093D01*
X394772Y397845D01*
X394486Y397579D01*
X394220Y397255D01*
X394201Y397236D01*
X394163Y397179D01*
X394086Y397064D01*
X394010Y396931D01*
X393896Y396741D01*
X393782Y396512D01*
X393667Y396265D01*
X393534Y395960D01*
X393401Y395617D01*
X393287Y395237D01*
X393172Y394818D01*
X393058Y394380D01*
X392982Y393885D01*
X392906Y393352D01*
X392868Y392799D01*
X392849Y392190D01*
Y392152D01*
Y392057D01*
Y391905D01*
X392868Y391714D01*
X392887Y391448D01*
X392925Y391162D01*
X392963Y390857D01*
X393020Y390496D01*
X393096Y390134D01*
X393172Y389753D01*
X393287Y389372D01*
X393420Y388972D01*
X393572Y388573D01*
X393763Y388192D01*
X393972Y387830D01*
X394201Y387487D01*
X394220Y387468D01*
X394258Y387411D01*
X394334Y387316D01*
X394448Y387221D01*
X394581Y387069D01*
X394753Y386935D01*
X394943Y386764D01*
X395172Y386612D01*
X395419Y386440D01*
X395705Y386269D01*
X395990Y386136D01*
X396314Y386002D01*
X396676Y385888D01*
X397038Y385793D01*
X397437Y385736D01*
X397856Y385717D01*
X397951D01*
X398085Y385736D01*
X398237Y385755D01*
X398427Y385774D01*
X398656Y385812D01*
X398903Y385869D01*
X399170Y385945D01*
X399456Y386040D01*
X399741Y386155D01*
X400046Y386307D01*
X400351Y386478D01*
X400655Y386669D01*
X400941Y386916D01*
X401226Y387183D01*
X401493Y387506D01*
X401512Y387525D01*
X401550Y387582D01*
X401626Y387697D01*
X401702Y387830D01*
X401797Y388020D01*
X401912Y388249D01*
X402045Y388515D01*
X402178Y388801D01*
X402293Y389144D01*
X402426Y389525D01*
X402540Y389925D01*
X402635Y390381D01*
X402711Y390877D01*
X402788Y391390D01*
X402826Y391943D01*
X402845Y392533D01*
Y392571D01*
Y392666D01*
Y392818D01*
X402826Y393009D01*
X402807Y393256D01*
X402769Y393542D01*
X402731Y393866D01*
X402673Y394209D01*
X402597Y394589D01*
X402502Y394970D01*
X402388Y395351D01*
X402254Y395751D01*
X402102Y396131D01*
X401912Y396512D01*
X401702Y396893D01*
X401455Y397236D01*
X401436Y397255D01*
X401398Y397312D01*
X401322Y397407D01*
X401207Y397521D01*
X401074Y397655D01*
X400903Y397807D01*
X400712Y397978D01*
X400484Y398150D01*
X400236Y398302D01*
X399970Y398473D01*
X399665Y398626D01*
X399341Y398759D01*
X398999Y398873D01*
X398618Y398969D01*
X398237Y399026D01*
X397818Y399045D01*
D02*
G37*
G36*
X305893D02*
X305798D01*
X305684Y399026D01*
X305531D01*
X305341Y398988D01*
X305112Y398949D01*
X304865Y398892D01*
X304617Y398816D01*
X304332Y398721D01*
X304027Y398607D01*
X303742Y398454D01*
X303437Y398283D01*
X303132Y398093D01*
X302847Y397845D01*
X302561Y397579D01*
X302294Y397255D01*
X302275Y397236D01*
X302237Y397179D01*
X302161Y397064D01*
X302085Y396931D01*
X301971Y396741D01*
X301857Y396512D01*
X301742Y396265D01*
X301609Y395960D01*
X301476Y395617D01*
X301361Y395237D01*
X301247Y394818D01*
X301133Y394380D01*
X301057Y393885D01*
X300981Y393352D01*
X300943Y392799D01*
X300924Y392190D01*
Y392152D01*
Y392057D01*
Y391905D01*
X300943Y391714D01*
X300962Y391448D01*
X301000Y391162D01*
X301038Y390857D01*
X301095Y390496D01*
X301171Y390134D01*
X301247Y389753D01*
X301361Y389372D01*
X301495Y388972D01*
X301647Y388573D01*
X301837Y388192D01*
X302047Y387830D01*
X302275Y387487D01*
X302294Y387468D01*
X302333Y387411D01*
X302409Y387316D01*
X302523Y387221D01*
X302656Y387069D01*
X302828Y386935D01*
X303018Y386764D01*
X303246Y386612D01*
X303494Y386440D01*
X303780Y386269D01*
X304065Y386136D01*
X304389Y386002D01*
X304751Y385888D01*
X305112Y385793D01*
X305512Y385736D01*
X305931Y385717D01*
X306026D01*
X306160Y385736D01*
X306312Y385755D01*
X306502Y385774D01*
X306731Y385812D01*
X306978Y385869D01*
X307245Y385945D01*
X307530Y386040D01*
X307816Y386155D01*
X308121Y386307D01*
X308425Y386478D01*
X308730Y386669D01*
X309016Y386916D01*
X309301Y387183D01*
X309568Y387506D01*
X309587Y387525D01*
X309625Y387582D01*
X309701Y387697D01*
X309777Y387830D01*
X309872Y388020D01*
X309987Y388249D01*
X310120Y388515D01*
X310253Y388801D01*
X310367Y389144D01*
X310501Y389525D01*
X310615Y389925D01*
X310710Y390381D01*
X310786Y390877D01*
X310862Y391390D01*
X310901Y391943D01*
X310920Y392533D01*
Y392571D01*
Y392666D01*
Y392818D01*
X310901Y393009D01*
X310881Y393256D01*
X310843Y393542D01*
X310805Y393866D01*
X310748Y394209D01*
X310672Y394589D01*
X310577Y394970D01*
X310463Y395351D01*
X310329Y395751D01*
X310177Y396131D01*
X309987Y396512D01*
X309777Y396893D01*
X309530Y397236D01*
X309511Y397255D01*
X309473Y397312D01*
X309396Y397407D01*
X309282Y397521D01*
X309149Y397655D01*
X308978Y397807D01*
X308787Y397978D01*
X308559Y398150D01*
X308311Y398302D01*
X308045Y398473D01*
X307740Y398626D01*
X307416Y398759D01*
X307073Y398873D01*
X306693Y398969D01*
X306312Y399026D01*
X305893Y399045D01*
D02*
G37*
G36*
X453891Y376048D02*
X453796D01*
X453662Y376029D01*
X453510D01*
X453320Y375991D01*
X453110Y375953D01*
X452863Y375896D01*
X452615Y375839D01*
X452330Y375744D01*
X452063Y375629D01*
X451778Y375477D01*
X451492Y375306D01*
X451225Y375115D01*
X450978Y374868D01*
X450730Y374601D01*
X450521Y374296D01*
X450502Y374277D01*
X450483Y374220D01*
X450426Y374106D01*
X450350Y373973D01*
X450273Y373782D01*
X450197Y373554D01*
X450083Y373287D01*
X449988Y372983D01*
X449893Y372621D01*
X449797Y372221D01*
X449702Y371783D01*
X449626Y371307D01*
X449550Y370793D01*
X449493Y370222D01*
X449455Y369594D01*
X449436Y368946D01*
Y364129D01*
Y364110D01*
Y364091D01*
Y364034D01*
Y363958D01*
Y363767D01*
X449455Y363501D01*
X449474Y363177D01*
X449493Y362815D01*
X449531Y362416D01*
X449569Y361997D01*
X449626Y361540D01*
X449702Y361064D01*
X449797Y360588D01*
X449912Y360131D01*
X450026Y359674D01*
X450178Y359236D01*
X450350Y358836D01*
X450540Y358474D01*
X450559Y358455D01*
X450597Y358398D01*
X450654Y358303D01*
X450749Y358189D01*
X450864Y358055D01*
X451016Y357903D01*
X451187Y357732D01*
X451378Y357560D01*
X451606Y357389D01*
X451854Y357218D01*
X452139Y357065D01*
X452444Y356932D01*
X452768Y356818D01*
X453129Y356722D01*
X453510Y356665D01*
X453929Y356646D01*
X454024D01*
X454139Y356665D01*
X454291D01*
X454481Y356703D01*
X454691Y356742D01*
X454919Y356799D01*
X455186Y356856D01*
X455433Y356951D01*
X455719Y357065D01*
X455985Y357199D01*
X456252Y357370D01*
X456519Y357560D01*
X456785Y357789D01*
X457014Y358055D01*
X457223Y358360D01*
X457242Y358379D01*
X457261Y358436D01*
X457318Y358550D01*
X457394Y358684D01*
X457471Y358874D01*
X457566Y359103D01*
X457661Y359369D01*
X457775Y359693D01*
X457870Y360054D01*
X457985Y360454D01*
X458080Y360892D01*
X458156Y361387D01*
X458232Y361920D01*
X458308Y362492D01*
X458346Y363120D01*
X458365Y363786D01*
Y368718D01*
Y368737D01*
Y368756D01*
Y368813D01*
Y368889D01*
Y369079D01*
X458346Y369346D01*
X458327Y369651D01*
X458308Y370012D01*
X458270Y370412D01*
X458232Y370850D01*
X458175Y371307D01*
X458099Y371764D01*
X458023Y372221D01*
X457908Y372678D01*
X457775Y373135D01*
X457642Y373554D01*
X457471Y373954D01*
X457280Y374296D01*
X457261Y374316D01*
X457223Y374373D01*
X457166Y374468D01*
X457071Y374563D01*
X456956Y374696D01*
X456823Y374849D01*
X456652Y375001D01*
X456461Y375172D01*
X456233Y375344D01*
X455985Y375496D01*
X455700Y375648D01*
X455395Y375782D01*
X455071Y375896D01*
X454710Y375972D01*
X454310Y376029D01*
X453891Y376048D01*
D02*
G37*
G36*
X357549Y369974D02*
X357377D01*
X357244Y369955D01*
X357092Y369936D01*
X356901Y369898D01*
X356711Y369860D01*
X356482Y369803D01*
X356254Y369746D01*
X356006Y369651D01*
X355740Y369536D01*
X355492Y369422D01*
X355226Y369251D01*
X354978Y369079D01*
X354731Y368870D01*
X354483Y368642D01*
X354464Y368622D01*
X354426Y368584D01*
X354369Y368508D01*
X354293Y368394D01*
X354198Y368261D01*
X354083Y368089D01*
X353969Y367899D01*
X353836Y367670D01*
X353702Y367423D01*
X353569Y367156D01*
X353455Y366852D01*
X353322Y366509D01*
X353207Y366147D01*
X353112Y365767D01*
X353036Y365367D01*
X352960Y364929D01*
X361775D01*
Y365138D01*
Y365157D01*
Y365233D01*
X361756Y365367D01*
X361737Y365519D01*
X361718Y365709D01*
X361680Y365938D01*
X361623Y366185D01*
X361566Y366452D01*
X361414Y367023D01*
X361204Y367613D01*
X361071Y367899D01*
X360900Y368185D01*
X360728Y368451D01*
X360538Y368699D01*
X360519Y368718D01*
X360481Y368756D01*
X360424Y368813D01*
X360328Y368908D01*
X360233Y369003D01*
X360081Y369098D01*
X359929Y369213D01*
X359757Y369346D01*
X359548Y369460D01*
X359319Y369574D01*
X359072Y369670D01*
X358805Y369784D01*
X358520Y369860D01*
X358215Y369917D01*
X357891Y369955D01*
X357549Y369974D01*
D02*
G37*
G36*
X302580D02*
X302409D01*
X302275Y369955D01*
X302123Y369936D01*
X301933Y369898D01*
X301742Y369860D01*
X301514Y369803D01*
X301285Y369746D01*
X301038Y369651D01*
X300771Y369536D01*
X300524Y369422D01*
X300257Y369251D01*
X300010Y369079D01*
X299762Y368870D01*
X299515Y368642D01*
X299496Y368622D01*
X299458Y368584D01*
X299400Y368508D01*
X299324Y368394D01*
X299229Y368261D01*
X299115Y368089D01*
X299001Y367899D01*
X298867Y367670D01*
X298734Y367423D01*
X298601Y367156D01*
X298486Y366852D01*
X298353Y366509D01*
X298239Y366147D01*
X298144Y365767D01*
X298068Y365367D01*
X297991Y364929D01*
X306807D01*
Y365138D01*
Y365157D01*
Y365233D01*
X306788Y365367D01*
X306769Y365519D01*
X306750Y365709D01*
X306712Y365938D01*
X306655Y366185D01*
X306597Y366452D01*
X306445Y367023D01*
X306236Y367613D01*
X306102Y367899D01*
X305931Y368185D01*
X305760Y368451D01*
X305569Y368699D01*
X305550Y368718D01*
X305512Y368756D01*
X305455Y368813D01*
X305360Y368908D01*
X305265Y369003D01*
X305112Y369098D01*
X304960Y369213D01*
X304789Y369346D01*
X304579Y369460D01*
X304351Y369574D01*
X304103Y369670D01*
X303837Y369784D01*
X303551Y369860D01*
X303246Y369917D01*
X302923Y369955D01*
X302580Y369974D01*
D02*
G37*
G36*
X320325D02*
X320230D01*
X320116Y369955D01*
X319964D01*
X319792Y369917D01*
X319564Y369879D01*
X319335Y369822D01*
X319088Y369765D01*
X318802Y369670D01*
X318536Y369555D01*
X318231Y369403D01*
X317945Y369232D01*
X317660Y369041D01*
X317374Y368794D01*
X317108Y368527D01*
X316860Y368223D01*
X316841Y368204D01*
X316803Y368146D01*
X316746Y368032D01*
X316670Y367899D01*
X316555Y367728D01*
X316460Y367499D01*
X316346Y367233D01*
X316232Y366928D01*
X316098Y366604D01*
X315984Y366224D01*
X315889Y365805D01*
X315794Y365348D01*
X315699Y364834D01*
X315641Y364300D01*
X315603Y363729D01*
X315584Y363120D01*
Y363082D01*
Y362987D01*
Y362834D01*
X315603Y362625D01*
X315622Y362358D01*
X315661Y362073D01*
X315699Y361749D01*
X315737Y361387D01*
X315813Y361026D01*
X315889Y360626D01*
X316003Y360226D01*
X316118Y359826D01*
X316270Y359445D01*
X316441Y359064D01*
X316632Y358703D01*
X316860Y358360D01*
X316879Y358341D01*
X316917Y358284D01*
X316993Y358208D01*
X317089Y358093D01*
X317222Y357960D01*
X317374Y357827D01*
X317565Y357656D01*
X317774Y357503D01*
X318003Y357351D01*
X318269Y357199D01*
X318555Y357046D01*
X318859Y356913D01*
X319183Y356799D01*
X319545Y356722D01*
X319906Y356665D01*
X320306Y356646D01*
X320421D01*
X320573Y356665D01*
X320744Y356684D01*
X320973Y356722D01*
X321239Y356780D01*
X321525Y356837D01*
X321830Y356951D01*
X322153Y357065D01*
X322477Y357218D01*
X322820Y357408D01*
X323162Y357636D01*
X323505Y357922D01*
X323829Y358227D01*
X324114Y358588D01*
X324400Y359007D01*
Y367632D01*
X324381Y367652D01*
X324343Y367728D01*
X324248Y367842D01*
X324133Y367994D01*
X323981Y368185D01*
X323810Y368375D01*
X323600Y368584D01*
X323353Y368813D01*
X323086Y369022D01*
X322781Y369232D01*
X322439Y369441D01*
X322077Y369613D01*
X321677Y369765D01*
X321258Y369879D01*
X320801Y369955D01*
X320325Y369974D01*
D02*
G37*
%LPD*%
M02*
