G04*
G04 #@! TF.GenerationSoftware,Altium Limited,Altium Designer,19.1.6 (110)*
G04*
G04 Layer_Color=65535*
%FSLAX25Y25*%
%MOIN*%
G70*
G01*
G75*
%ADD10C,0.00787*%
D10*
X5280Y-26415D02*
Y-25103D01*
Y-25759D01*
X9216D01*
Y-26415D01*
Y-25103D01*
X5280Y-20512D02*
Y-23135D01*
X7248D01*
Y-21823D01*
Y-23135D01*
X9216D01*
X5280Y-15264D02*
X5936D01*
X7248Y-13952D01*
X5936Y-12640D01*
X5280D01*
X7248Y-13952D02*
X9216D01*
X5280Y-9360D02*
Y-10672D01*
X5936Y-11328D01*
X8560D01*
X9216Y-10672D01*
Y-9360D01*
X8560Y-8704D01*
X5936D01*
X5280Y-9360D01*
Y-7392D02*
X8560D01*
X9216Y-6736D01*
Y-5424D01*
X8560Y-4769D01*
X5280D01*
X9216Y479D02*
X5280D01*
Y2447D01*
X5936Y3103D01*
X7248D01*
X7904Y2447D01*
Y479D01*
Y1791D02*
X9216Y3103D01*
X5280Y7039D02*
Y4415D01*
X9216D01*
Y7039D01*
X7248Y4415D02*
Y5727D01*
X9216Y8351D02*
X6592D01*
X5280Y9663D01*
X6592Y10974D01*
X9216D01*
X7248D01*
Y8351D01*
X5280Y12286D02*
X9216D01*
Y14254D01*
X8560Y14910D01*
X5936D01*
X5280Y14254D01*
Y12286D01*
Y20158D02*
Y22782D01*
Y21470D01*
X9216D01*
X5280Y24093D02*
X9216D01*
X7248D01*
Y26717D01*
X5280D01*
X9216D01*
X5280Y28029D02*
Y29341D01*
Y28685D01*
X9216D01*
Y28029D01*
Y29341D01*
X5936Y33933D02*
X5280Y33277D01*
Y31965D01*
X5936Y31309D01*
X6592D01*
X7248Y31965D01*
Y33277D01*
X7904Y33933D01*
X8560D01*
X9216Y33277D01*
Y31965D01*
X8560Y31309D01*
X11893Y-28711D02*
X12549D01*
X13860Y-27399D01*
X12549Y-26087D01*
X11893D01*
X13860Y-27399D02*
X15828D01*
X11893Y-22807D02*
Y-24119D01*
X12549Y-24775D01*
X15172D01*
X15828Y-24119D01*
Y-22807D01*
X15172Y-22151D01*
X12549D01*
X11893Y-22807D01*
Y-20840D02*
X15172D01*
X15828Y-20184D01*
Y-18872D01*
X15172Y-18216D01*
X11893D01*
X15828Y-12968D02*
X11893D01*
X13205Y-11656D01*
X11893Y-10344D01*
X15828D01*
X11893Y-7064D02*
Y-8376D01*
X12549Y-9032D01*
X15172D01*
X15828Y-8376D01*
Y-7064D01*
X15172Y-6408D01*
X12549D01*
X11893Y-7064D01*
Y-5096D02*
X15172D01*
X15828Y-4441D01*
Y-3129D01*
X15172Y-2473D01*
X11893D01*
X15828Y-1161D02*
X11893D01*
X15828Y1463D01*
X11893D01*
Y2775D02*
Y5399D01*
Y4087D01*
X15828D01*
X11893Y9335D02*
Y6711D01*
X15828D01*
Y9335D01*
X13860Y6711D02*
Y8023D01*
X11893Y10646D02*
X15828D01*
Y12614D01*
X15172Y13270D01*
X12549D01*
X11893Y12614D01*
Y10646D01*
Y18518D02*
Y19830D01*
Y19174D01*
X15828D01*
Y18518D01*
Y19830D01*
X11893Y21798D02*
Y24421D01*
Y23110D01*
X15828D01*
X11893Y31637D02*
Y30325D01*
X12549Y29669D01*
X15172D01*
X15828Y30325D01*
Y31637D01*
X15172Y32293D01*
X12549D01*
X11893Y31637D01*
X15828Y33605D02*
X11893D01*
X15828Y36229D01*
X11893D01*
X18505Y-22807D02*
Y-20184D01*
Y-21496D01*
X22441D01*
X18505Y-18872D02*
X22441D01*
X20473D01*
Y-16248D01*
X18505D01*
X22441D01*
X18505Y-12312D02*
Y-14936D01*
X22441D01*
Y-12312D01*
X20473Y-14936D02*
Y-13624D01*
X18505Y-7064D02*
X22441D01*
X21129Y-5753D01*
X22441Y-4441D01*
X18505D01*
X22441Y-3129D02*
X18505D01*
Y-1161D01*
X19161Y-505D01*
X20473D01*
X21129Y-1161D01*
Y-3129D01*
Y-1817D02*
X22441Y-505D01*
X18505Y2775D02*
Y1463D01*
X19161Y807D01*
X21785D01*
X22441Y1463D01*
Y2775D01*
X21785Y3431D01*
X19161D01*
X18505Y2775D01*
X22441Y4743D02*
X18505D01*
X22441Y7367D01*
X18505D01*
X19161Y11302D02*
X18505Y10646D01*
Y9335D01*
X19161Y8679D01*
X21785D01*
X22441Y9335D01*
Y10646D01*
X21785Y11302D01*
X20473D01*
Y9990D01*
X19161Y19174D02*
X18505Y18518D01*
Y17206D01*
X19161Y16550D01*
X19817D01*
X20473Y17206D01*
Y18518D01*
X21129Y19174D01*
X21785D01*
X22441Y18518D01*
Y17206D01*
X21785Y16550D01*
X18505Y20486D02*
Y21798D01*
Y21142D01*
X22441D01*
Y20486D01*
Y21798D01*
X18505Y23765D02*
X22441D01*
Y25733D01*
X21785Y26389D01*
X19161D01*
X18505Y25733D01*
Y23765D01*
Y30325D02*
Y27701D01*
X22441D01*
Y30325D01*
X20473Y27701D02*
Y29013D01*
X-10383Y-17849D02*
Y-19161D01*
Y-18505D01*
X-7103D01*
X-6447Y-19161D01*
Y-19816D01*
X-7103Y-20472D01*
X-10383Y-16537D02*
X-6447D01*
Y-13913D01*
X-9727Y-9977D02*
X-10383Y-10633D01*
Y-11945D01*
X-9727Y-12601D01*
X-7103D01*
X-6447Y-11945D01*
Y-10633D01*
X-7103Y-9977D01*
X-10383Y-6041D02*
Y-7353D01*
Y-6697D01*
X-7103D01*
X-6447Y-7353D01*
Y-8009D01*
X-7103Y-8665D01*
X-10383Y-4730D02*
X-6447D01*
Y-2106D01*
X-9727Y1830D02*
X-10383Y1174D01*
Y-138D01*
X-9727Y-794D01*
X-7103D01*
X-6447Y-138D01*
Y1174D01*
X-7103Y1830D01*
X-10383Y5766D02*
Y4454D01*
Y5110D01*
X-7103D01*
X-6447Y4454D01*
Y3798D01*
X-7103Y3142D01*
X-10383Y7078D02*
X-6447D01*
Y9702D01*
X-9727Y13637D02*
X-10383Y12981D01*
Y11669D01*
X-9727Y11013D01*
X-7103D01*
X-6447Y11669D01*
Y12981D01*
X-7103Y13637D01*
X-10383Y17573D02*
Y16261D01*
Y16917D01*
X-7103D01*
X-6447Y16261D01*
Y15605D01*
X-7103Y14949D01*
X-10383Y18885D02*
X-6447D01*
Y21509D01*
X-9727Y25444D02*
X-10383Y24789D01*
Y23477D01*
X-9727Y22821D01*
X-7103D01*
X-6447Y23477D01*
Y24789D01*
X-7103Y25444D01*
M02*
