G04*
G04 #@! TF.GenerationSoftware,Altium Limited,Altium Designer,19.1.5 (86)*
G04*
G04 Layer_Physical_Order=1*
G04 Layer_Color=255*
%FSLAX25Y25*%
%MOIN*%
G70*
G01*
G75*
G36*
X232577Y354281D02*
X230607Y349593D01*
X230584Y349508D01*
X230543Y349430D01*
X227726Y341798D01*
X227706Y341712D01*
X227669Y341632D01*
X225192Y333882D01*
X225176Y333795D01*
X225142Y333714D01*
X223009Y325863D01*
X222998Y325775D01*
X222967Y325693D01*
X221184Y317755D01*
X221176Y317667D01*
X221149Y317583D01*
X219718Y309574D01*
X219714Y309486D01*
X219691Y309400D01*
X218616Y301336D01*
X218616Y301248D01*
X218596Y301162D01*
X217878Y293058D01*
X217882Y292970D01*
X217866Y292883D01*
X217507Y284755D01*
X217515Y284667D01*
X217503Y284579D01*
Y276444D01*
X217515Y276356D01*
X217507Y276268D01*
X217866Y268141D01*
X217882Y268054D01*
X217878Y267966D01*
X218596Y259862D01*
X218616Y259775D01*
X218616Y259687D01*
X219691Y251623D01*
X219714Y251538D01*
X219718Y251450D01*
X221149Y243441D01*
X221176Y243357D01*
X221184Y243269D01*
X222967Y235331D01*
X222998Y235248D01*
X223009Y235160D01*
X225142Y227309D01*
X225176Y227228D01*
X225192Y227141D01*
X227669Y219392D01*
X227706Y219312D01*
X227726Y219226D01*
X230543Y211593D01*
X230584Y211515D01*
X230607Y211430D01*
X232577Y206742D01*
X231913Y205743D01*
X168261D01*
X166219Y206012D01*
X164229Y206545D01*
X162326Y207333D01*
X160542Y208363D01*
X158908Y209617D01*
X157451Y211073D01*
X156198Y212708D01*
X155167Y214492D01*
X154379Y216395D01*
X153846Y218385D01*
X153577Y220427D01*
Y221457D01*
Y339566D01*
Y340597D01*
X153846Y342639D01*
X154379Y344629D01*
X155167Y346532D01*
X156198Y348316D01*
X157451Y349950D01*
X158908Y351406D01*
X160542Y352660D01*
X162326Y353690D01*
X164229Y354479D01*
X166219Y355012D01*
X168261Y355281D01*
X231913D01*
X232577Y354281D01*
D02*
G37*
%LPC*%
G36*
X179134Y341795D02*
X177355Y341620D01*
X175645Y341101D01*
X174068Y340258D01*
X172687Y339124D01*
X171553Y337742D01*
X170710Y336166D01*
X170191Y334456D01*
X170016Y332677D01*
X170191Y330898D01*
X170710Y329188D01*
X171553Y327611D01*
X172687Y326230D01*
X174068Y325096D01*
X175645Y324253D01*
X177355Y323734D01*
X179134Y323559D01*
X180913Y323734D01*
X182623Y324253D01*
X184200Y325096D01*
X185581Y326230D01*
X186715Y327611D01*
X187558Y329188D01*
X188077Y330898D01*
X188252Y332677D01*
X188077Y334456D01*
X187558Y336166D01*
X186715Y337742D01*
X185581Y339124D01*
X184200Y340258D01*
X182623Y341101D01*
X180913Y341620D01*
X179134Y341795D01*
D02*
G37*
G36*
X179134Y237464D02*
X177355Y237289D01*
X175645Y236770D01*
X174068Y235928D01*
X172687Y234794D01*
X171553Y233412D01*
X170710Y231836D01*
X170191Y230125D01*
X170016Y228346D01*
X170191Y226568D01*
X170710Y224857D01*
X171553Y223281D01*
X172687Y221899D01*
X174068Y220765D01*
X175645Y219923D01*
X177355Y219404D01*
X179134Y219229D01*
X180913Y219404D01*
X182623Y219923D01*
X184200Y220765D01*
X185581Y221899D01*
X186715Y223281D01*
X187558Y224857D01*
X188077Y226568D01*
X188252Y228346D01*
X188077Y230125D01*
X187558Y231836D01*
X186715Y233412D01*
X185581Y234794D01*
X184200Y235928D01*
X182623Y236770D01*
X180913Y237289D01*
X179134Y237464D01*
D02*
G37*
%LPD*%
M02*
