G04*
G04 #@! TF.GenerationSoftware,Altium Limited,Altium Designer,19.1.5 (86)*
G04*
G04 Layer_Color=65535*
%FSLAX25Y25*%
%MOIN*%
G70*
G01*
G75*
G36*
X85995Y44122D02*
X86301D01*
X86662Y44095D01*
X87078Y44067D01*
X87912Y43984D01*
X88772Y43845D01*
X89605Y43678D01*
X89966Y43567D01*
X90328Y43456D01*
X90355D01*
X90411Y43428D01*
X90494Y43373D01*
X90633Y43317D01*
X90966Y43150D01*
X91355Y42901D01*
X91827Y42567D01*
X92299Y42123D01*
X92771Y41623D01*
X93188Y41012D01*
Y40984D01*
X93243Y40929D01*
X93299Y40846D01*
X93354Y40707D01*
X93438Y40540D01*
X93521Y40346D01*
X93632Y40124D01*
X93743Y39874D01*
X93938Y39290D01*
X94104Y38652D01*
X94215Y37930D01*
X94271Y37152D01*
Y37124D01*
Y37041D01*
Y36874D01*
X94243Y36708D01*
X94215Y36458D01*
X94188Y36180D01*
X94132Y35875D01*
X94049Y35541D01*
X93827Y34819D01*
X93688Y34431D01*
X93521Y34042D01*
X93327Y33653D01*
X93077Y33264D01*
X92799Y32903D01*
X92494Y32542D01*
X92466Y32515D01*
X92410Y32459D01*
X92299Y32376D01*
X92160Y32237D01*
X91966Y32098D01*
X91744Y31931D01*
X91466Y31737D01*
X91133Y31543D01*
X90772Y31348D01*
X90383Y31154D01*
X89939Y30959D01*
X89439Y30765D01*
X88911Y30599D01*
X88328Y30432D01*
X87689Y30293D01*
X87023Y30182D01*
X87051D01*
X87078Y30154D01*
X87245Y30071D01*
X87495Y29932D01*
X87801Y29765D01*
X88134Y29571D01*
X88467Y29377D01*
X88800Y29127D01*
X89078Y28905D01*
X89106Y28877D01*
X89134Y28849D01*
X89217Y28766D01*
X89328Y28655D01*
X89467Y28516D01*
X89633Y28349D01*
X89994Y27960D01*
X90411Y27460D01*
X90883Y26877D01*
X91383Y26211D01*
X91883Y25489D01*
X96326Y18519D01*
X92077D01*
X88689Y23850D01*
X88661Y23878D01*
X88634Y23961D01*
X88550Y24072D01*
X88439Y24239D01*
X88328Y24433D01*
X88161Y24656D01*
X87828Y25155D01*
X87440Y25739D01*
X87051Y26322D01*
X86634Y26877D01*
X86245Y27377D01*
Y27405D01*
X86190Y27433D01*
X86079Y27571D01*
X85912Y27794D01*
X85662Y28044D01*
X85412Y28321D01*
X85107Y28599D01*
X84801Y28877D01*
X84524Y29071D01*
X84496Y29099D01*
X84385Y29154D01*
X84246Y29238D01*
X84052Y29349D01*
X83802Y29460D01*
X83552Y29571D01*
X83274Y29682D01*
X82968Y29765D01*
X82941D01*
X82857Y29793D01*
X82719Y29821D01*
X82524Y29849D01*
X82247D01*
X81913Y29876D01*
X81524Y29904D01*
X77165D01*
Y18519D01*
X73777D01*
Y44150D01*
X85690D01*
X85995Y44122D01*
D02*
G37*
G36*
X68473Y41123D02*
X53310D01*
Y33292D01*
X67501D01*
Y30265D01*
X53310D01*
Y21545D01*
X69056D01*
Y18519D01*
X49922D01*
Y44150D01*
X68473D01*
Y41123D01*
D02*
G37*
G36*
X45785D02*
X31372Y23350D01*
X29844Y21545D01*
X46201D01*
Y18519D01*
X25957D01*
Y21656D01*
X39064Y38041D01*
X39092Y38069D01*
X39120Y38124D01*
X39203Y38207D01*
X39314Y38346D01*
X39425Y38485D01*
X39564Y38680D01*
X39925Y39096D01*
X40314Y39568D01*
X40786Y40096D01*
X41258Y40623D01*
X41730Y41123D01*
X27428D01*
Y44150D01*
X45785D01*
Y41123D01*
D02*
G37*
G36*
X22013Y18519D02*
X18625D01*
Y44150D01*
X22013D01*
Y18519D01*
D02*
G37*
G36*
X4463Y44122D02*
X4768D01*
X5129Y44095D01*
X5546Y44067D01*
X6379Y43984D01*
X7240Y43845D01*
X8073Y43678D01*
X8434Y43567D01*
X8795Y43456D01*
X8823D01*
X8878Y43428D01*
X8962Y43373D01*
X9100Y43317D01*
X9433Y43150D01*
X9822Y42901D01*
X10294Y42567D01*
X10767Y42123D01*
X11239Y41623D01*
X11655Y41012D01*
Y40984D01*
X11711Y40929D01*
X11766Y40846D01*
X11822Y40707D01*
X11905Y40540D01*
X11988Y40346D01*
X12100Y40124D01*
X12211Y39874D01*
X12405Y39290D01*
X12572Y38652D01*
X12683Y37930D01*
X12738Y37152D01*
Y37124D01*
Y37041D01*
Y36874D01*
X12710Y36708D01*
X12683Y36458D01*
X12655Y36180D01*
X12599Y35875D01*
X12516Y35541D01*
X12294Y34819D01*
X12155Y34431D01*
X11988Y34042D01*
X11794Y33653D01*
X11544Y33264D01*
X11266Y32903D01*
X10961Y32542D01*
X10933Y32515D01*
X10878Y32459D01*
X10767Y32376D01*
X10628Y32237D01*
X10433Y32098D01*
X10211Y31931D01*
X9933Y31737D01*
X9600Y31543D01*
X9239Y31348D01*
X8850Y31154D01*
X8406Y30959D01*
X7906Y30765D01*
X7379Y30599D01*
X6795Y30432D01*
X6157Y30293D01*
X5490Y30182D01*
X5518D01*
X5546Y30154D01*
X5712Y30071D01*
X5962Y29932D01*
X6268Y29765D01*
X6601Y29571D01*
X6934Y29377D01*
X7267Y29127D01*
X7545Y28905D01*
X7573Y28877D01*
X7601Y28849D01*
X7684Y28766D01*
X7795Y28655D01*
X7934Y28516D01*
X8101Y28349D01*
X8462Y27960D01*
X8878Y27460D01*
X9350Y26877D01*
X9850Y26211D01*
X10350Y25489D01*
X14793Y18519D01*
X10544D01*
X7156Y23850D01*
X7129Y23878D01*
X7101Y23961D01*
X7018Y24072D01*
X6906Y24239D01*
X6795Y24433D01*
X6629Y24656D01*
X6295Y25155D01*
X5907Y25739D01*
X5518Y26322D01*
X5101Y26877D01*
X4713Y27377D01*
Y27405D01*
X4657Y27433D01*
X4546Y27571D01*
X4379Y27794D01*
X4129Y28044D01*
X3880Y28321D01*
X3574Y28599D01*
X3269Y28877D01*
X2991Y29071D01*
X2963Y29099D01*
X2852Y29154D01*
X2713Y29238D01*
X2519Y29349D01*
X2269Y29460D01*
X2019Y29571D01*
X1741Y29682D01*
X1436Y29765D01*
X1408D01*
X1325Y29793D01*
X1186Y29821D01*
X991Y29849D01*
X714D01*
X381Y29876D01*
X-8Y29904D01*
X-4368D01*
Y18519D01*
X-7756D01*
Y44150D01*
X4157D01*
X4463Y44122D01*
D02*
G37*
G36*
X-10505Y18519D02*
X-14365D01*
X-17337Y26266D01*
X-28111D01*
X-30889Y18519D01*
X-34471D01*
X-24668Y44150D01*
X-21002D01*
X-10505Y18519D01*
D02*
G37*
G36*
X-48356Y21545D02*
X-35721D01*
Y18519D01*
X-51744D01*
Y44150D01*
X-48356D01*
Y21545D01*
D02*
G37*
G36*
X-92232Y44122D02*
X-91594Y44095D01*
X-90955Y44039D01*
X-90344Y43984D01*
X-90039Y43956D01*
X-89789Y43900D01*
X-89761D01*
X-89705Y43872D01*
X-89594D01*
X-89483Y43845D01*
X-89317Y43789D01*
X-89122Y43761D01*
X-88678Y43623D01*
X-88178Y43456D01*
X-87650Y43234D01*
X-87123Y42984D01*
X-86623Y42678D01*
X-86595D01*
X-86567Y42651D01*
X-86401Y42512D01*
X-86179Y42317D01*
X-85873Y42040D01*
X-85568Y41706D01*
X-85207Y41262D01*
X-84873Y40790D01*
X-84568Y40207D01*
Y40179D01*
X-84540Y40124D01*
X-84485Y40040D01*
X-84429Y39929D01*
X-84373Y39790D01*
X-84318Y39596D01*
X-84151Y39179D01*
X-84013Y38652D01*
X-83874Y38069D01*
X-83790Y37402D01*
X-83763Y36708D01*
Y36680D01*
Y36569D01*
Y36402D01*
X-83790Y36152D01*
X-83818Y35875D01*
X-83874Y35569D01*
X-83929Y35208D01*
X-84013Y34792D01*
X-84124Y34375D01*
X-84262Y33931D01*
X-84429Y33487D01*
X-84651Y33014D01*
X-84873Y32542D01*
X-85151Y32070D01*
X-85484Y31626D01*
X-85845Y31182D01*
X-85873Y31154D01*
X-85956Y31098D01*
X-86067Y30987D01*
X-86262Y30821D01*
X-86484Y30654D01*
X-86790Y30460D01*
X-87151Y30265D01*
X-87567Y30071D01*
X-88067Y29849D01*
X-88595Y29654D01*
X-89233Y29460D01*
X-89900Y29293D01*
X-90677Y29154D01*
X-91510Y29043D01*
X-92399Y28960D01*
X-93399Y28932D01*
X-99953D01*
Y18519D01*
X-103340D01*
Y44150D01*
X-92788D01*
X-92232Y44122D01*
D02*
G37*
G36*
X-67628Y44567D02*
X-67295Y44539D01*
X-66934Y44511D01*
X-66545Y44456D01*
X-66101Y44372D01*
X-65601Y44289D01*
X-65101Y44178D01*
X-64574Y44039D01*
X-64018Y43872D01*
X-63463Y43678D01*
X-62907Y43456D01*
X-62380Y43206D01*
X-61824Y42901D01*
X-61796Y42873D01*
X-61685Y42817D01*
X-61547Y42734D01*
X-61352Y42595D01*
X-61102Y42428D01*
X-60852Y42206D01*
X-60547Y41956D01*
X-60214Y41679D01*
X-59853Y41345D01*
X-59492Y40984D01*
X-59131Y40596D01*
X-58770Y40179D01*
X-58436Y39735D01*
X-58075Y39235D01*
X-57770Y38707D01*
X-57464Y38152D01*
X-57437Y38124D01*
X-57409Y38013D01*
X-57326Y37846D01*
X-57242Y37624D01*
X-57103Y37347D01*
X-56992Y36986D01*
X-56853Y36597D01*
X-56715Y36152D01*
X-56576Y35680D01*
X-56437Y35153D01*
X-56298Y34570D01*
X-56187Y33986D01*
X-56104Y33348D01*
X-56020Y32681D01*
X-55993Y32015D01*
X-55965Y31293D01*
Y31237D01*
Y31126D01*
Y30904D01*
X-55993Y30626D01*
X-56020Y30293D01*
X-56048Y29904D01*
X-56104Y29460D01*
X-56159Y28960D01*
X-56243Y28432D01*
X-56354Y27877D01*
X-56465Y27294D01*
X-56631Y26711D01*
X-56826Y26100D01*
X-57020Y25517D01*
X-57270Y24906D01*
X-57548Y24322D01*
X-57576Y24295D01*
X-57631Y24184D01*
X-57714Y24017D01*
X-57825Y23823D01*
X-57992Y23573D01*
X-58186Y23267D01*
X-58436Y22934D01*
X-58686Y22573D01*
X-58992Y22212D01*
X-59325Y21823D01*
X-59714Y21434D01*
X-60102Y21046D01*
X-60519Y20685D01*
X-60991Y20324D01*
X-61491Y19963D01*
X-62019Y19657D01*
X-62046Y19629D01*
X-62157Y19602D01*
X-62296Y19518D01*
X-62519Y19407D01*
X-62796Y19296D01*
X-63102Y19157D01*
X-63463Y19018D01*
X-63879Y18880D01*
X-64324Y18741D01*
X-64796Y18602D01*
X-65323Y18463D01*
X-65851Y18352D01*
X-67017Y18158D01*
X-67628Y18130D01*
X-68239Y18102D01*
X-68600D01*
X-68850Y18130D01*
X-69156Y18158D01*
X-69544Y18185D01*
X-69933Y18241D01*
X-70405Y18324D01*
X-70877Y18407D01*
X-71405Y18519D01*
X-71933Y18657D01*
X-72488Y18824D01*
X-73043Y19018D01*
X-73599Y19268D01*
X-74154Y19518D01*
X-74710Y19824D01*
X-74737Y19851D01*
X-74821Y19907D01*
X-74987Y20018D01*
X-75182Y20157D01*
X-75404Y20324D01*
X-75682Y20546D01*
X-75987Y20796D01*
X-76320Y21073D01*
X-76681Y21407D01*
X-77014Y21768D01*
X-77376Y22156D01*
X-77737Y22573D01*
X-78097Y23045D01*
X-78431Y23517D01*
X-78736Y24045D01*
X-79042Y24600D01*
X-79069Y24628D01*
X-79097Y24739D01*
X-79181Y24906D01*
X-79264Y25128D01*
X-79375Y25405D01*
X-79486Y25739D01*
X-79625Y26100D01*
X-79764Y26544D01*
X-79902Y26988D01*
X-80041Y27488D01*
X-80152Y28016D01*
X-80264Y28571D01*
X-80430Y29738D01*
X-80458Y30376D01*
X-80486Y30987D01*
Y31015D01*
Y31071D01*
Y31154D01*
Y31265D01*
X-80458Y31431D01*
Y31598D01*
X-80430Y32043D01*
X-80375Y32570D01*
X-80291Y33209D01*
X-80208Y33875D01*
X-80069Y34625D01*
X-79875Y35430D01*
X-79653Y36236D01*
X-79375Y37069D01*
X-79042Y37902D01*
X-78653Y38735D01*
X-78209Y39513D01*
X-77681Y40290D01*
X-77070Y40984D01*
X-77042Y41012D01*
X-76903Y41151D01*
X-76709Y41318D01*
X-76459Y41540D01*
X-76098Y41818D01*
X-75709Y42123D01*
X-75237Y42456D01*
X-74682Y42790D01*
X-74071Y43123D01*
X-73404Y43456D01*
X-72682Y43761D01*
X-71877Y44039D01*
X-71044Y44261D01*
X-70155Y44428D01*
X-69211Y44567D01*
X-68211Y44594D01*
X-67878D01*
X-67628Y44567D01*
D02*
G37*
G36*
X-72418Y-17810D02*
X-72113Y-17838D01*
X-71808Y-17866D01*
X-71447Y-17894D01*
X-70669Y-18005D01*
X-69808Y-18171D01*
X-68947Y-18421D01*
X-68114Y-18727D01*
X-68086D01*
X-68031Y-18782D01*
X-67892Y-18810D01*
X-67753Y-18893D01*
X-67586Y-19004D01*
X-67364Y-19115D01*
X-66892Y-19393D01*
X-66337Y-19782D01*
X-65781Y-20254D01*
X-65254Y-20782D01*
X-64782Y-21420D01*
X-64754Y-21448D01*
X-64726Y-21504D01*
X-64671Y-21587D01*
X-64587Y-21726D01*
X-64504Y-21892D01*
X-64393Y-22087D01*
X-64310Y-22337D01*
X-64171Y-22587D01*
X-63949Y-23170D01*
X-63754Y-23864D01*
X-63588Y-24614D01*
X-63504Y-25447D01*
X-66753Y-25697D01*
Y-25669D01*
X-66781Y-25586D01*
Y-25475D01*
X-66809Y-25308D01*
X-66865Y-25086D01*
X-66920Y-24864D01*
X-67087Y-24336D01*
X-67309Y-23753D01*
X-67642Y-23142D01*
X-68031Y-22559D01*
X-68281Y-22309D01*
X-68559Y-22059D01*
X-68586Y-22031D01*
X-68614Y-22004D01*
X-68725Y-21948D01*
X-68836Y-21865D01*
X-69003Y-21781D01*
X-69197Y-21670D01*
X-69419Y-21559D01*
X-69669Y-21420D01*
X-69975Y-21309D01*
X-70308Y-21198D01*
X-70669Y-21087D01*
X-71058Y-21004D01*
X-71502Y-20920D01*
X-71974Y-20865D01*
X-72474Y-20809D01*
X-73279D01*
X-73501Y-20837D01*
X-73751D01*
X-74029Y-20865D01*
X-74362Y-20893D01*
X-74696Y-20948D01*
X-75445Y-21087D01*
X-76168Y-21282D01*
X-76862Y-21559D01*
X-77195Y-21754D01*
X-77473Y-21948D01*
X-77500D01*
X-77528Y-22004D01*
X-77695Y-22142D01*
X-77917Y-22392D01*
X-78167Y-22726D01*
X-78417Y-23114D01*
X-78639Y-23586D01*
X-78806Y-24086D01*
X-78833Y-24364D01*
X-78861Y-24669D01*
Y-24697D01*
Y-24725D01*
X-78833Y-24892D01*
X-78806Y-25142D01*
X-78750Y-25447D01*
X-78611Y-25808D01*
X-78445Y-26197D01*
X-78223Y-26558D01*
X-77889Y-26919D01*
X-77834Y-26946D01*
X-77778Y-27002D01*
X-77667Y-27085D01*
X-77528Y-27169D01*
X-77362Y-27252D01*
X-77139Y-27363D01*
X-76889Y-27502D01*
X-76584Y-27641D01*
X-76223Y-27780D01*
X-75806Y-27918D01*
X-75334Y-28085D01*
X-74779Y-28252D01*
X-74196Y-28418D01*
X-73529Y-28613D01*
X-72780Y-28779D01*
X-72724D01*
X-72585Y-28807D01*
X-72391Y-28863D01*
X-72113Y-28946D01*
X-71780Y-29002D01*
X-71391Y-29113D01*
X-70974Y-29196D01*
X-70530Y-29335D01*
X-69586Y-29585D01*
X-68642Y-29835D01*
X-68198Y-29974D01*
X-67809Y-30112D01*
X-67420Y-30251D01*
X-67114Y-30390D01*
X-67087D01*
X-67003Y-30446D01*
X-66892Y-30501D01*
X-66753Y-30584D01*
X-66559Y-30668D01*
X-66337Y-30807D01*
X-65865Y-31112D01*
X-65309Y-31473D01*
X-64782Y-31917D01*
X-64254Y-32445D01*
X-64032Y-32723D01*
X-63810Y-33000D01*
Y-33028D01*
X-63754Y-33084D01*
X-63699Y-33167D01*
X-63643Y-33278D01*
X-63560Y-33417D01*
X-63477Y-33611D01*
X-63254Y-34056D01*
X-63060Y-34583D01*
X-62893Y-35194D01*
X-62782Y-35888D01*
X-62727Y-36638D01*
Y-36666D01*
Y-36722D01*
Y-36833D01*
X-62755Y-36972D01*
Y-37166D01*
X-62782Y-37360D01*
X-62866Y-37888D01*
X-63004Y-38471D01*
X-63227Y-39110D01*
X-63532Y-39776D01*
X-63699Y-40137D01*
X-63921Y-40470D01*
Y-40498D01*
X-63976Y-40554D01*
X-64032Y-40637D01*
X-64143Y-40776D01*
X-64393Y-41082D01*
X-64782Y-41498D01*
X-65254Y-41942D01*
X-65837Y-42414D01*
X-66504Y-42859D01*
X-67281Y-43275D01*
X-67309D01*
X-67392Y-43331D01*
X-67503Y-43359D01*
X-67670Y-43442D01*
X-67864Y-43497D01*
X-68114Y-43581D01*
X-68392Y-43692D01*
X-68725Y-43775D01*
X-69058Y-43859D01*
X-69447Y-43970D01*
X-70280Y-44108D01*
X-71197Y-44219D01*
X-72196Y-44275D01*
X-72530D01*
X-72780Y-44247D01*
X-73085D01*
X-73418Y-44219D01*
X-73807Y-44192D01*
X-74251Y-44136D01*
X-75168Y-44025D01*
X-76140Y-43859D01*
X-77112Y-43608D01*
X-78056Y-43275D01*
X-78084D01*
X-78167Y-43220D01*
X-78278Y-43164D01*
X-78445Y-43081D01*
X-78639Y-42970D01*
X-78861Y-42859D01*
X-79389Y-42526D01*
X-79972Y-42109D01*
X-80583Y-41581D01*
X-81194Y-40970D01*
X-81722Y-40248D01*
X-81749Y-40221D01*
X-81777Y-40165D01*
X-81833Y-40054D01*
X-81916Y-39887D01*
X-82027Y-39693D01*
X-82138Y-39471D01*
X-82277Y-39193D01*
X-82388Y-38888D01*
X-82527Y-38582D01*
X-82638Y-38221D01*
X-82860Y-37416D01*
X-83027Y-36555D01*
X-83082Y-36083D01*
X-83110Y-35611D01*
X-79916Y-35333D01*
Y-35361D01*
Y-35416D01*
X-79889Y-35528D01*
X-79861Y-35666D01*
X-79833Y-35833D01*
X-79805Y-36000D01*
X-79694Y-36472D01*
X-79555Y-36972D01*
X-79389Y-37499D01*
X-79167Y-38027D01*
X-78889Y-38527D01*
X-78861Y-38582D01*
X-78722Y-38721D01*
X-78528Y-38943D01*
X-78250Y-39221D01*
X-77889Y-39554D01*
X-77445Y-39860D01*
X-76917Y-40193D01*
X-76306Y-40498D01*
X-76279D01*
X-76223Y-40526D01*
X-76140Y-40554D01*
X-76001Y-40609D01*
X-75834Y-40665D01*
X-75640Y-40748D01*
X-75418Y-40804D01*
X-75168Y-40859D01*
X-74585Y-40998D01*
X-73890Y-41137D01*
X-73168Y-41220D01*
X-72363Y-41248D01*
X-72030D01*
X-71863Y-41220D01*
X-71669D01*
X-71224Y-41165D01*
X-70697Y-41109D01*
X-70114Y-41026D01*
X-69530Y-40887D01*
X-68975Y-40693D01*
X-68947D01*
X-68919Y-40665D01*
X-68836Y-40637D01*
X-68725Y-40582D01*
X-68475Y-40443D01*
X-68142Y-40276D01*
X-67781Y-40054D01*
X-67392Y-39776D01*
X-67059Y-39471D01*
X-66753Y-39110D01*
X-66726Y-39054D01*
X-66642Y-38943D01*
X-66504Y-38721D01*
X-66365Y-38443D01*
X-66254Y-38110D01*
X-66115Y-37749D01*
X-66031Y-37332D01*
X-66004Y-36916D01*
Y-36888D01*
Y-36860D01*
Y-36722D01*
X-66031Y-36472D01*
X-66087Y-36194D01*
X-66170Y-35861D01*
X-66309Y-35500D01*
X-66476Y-35139D01*
X-66726Y-34806D01*
X-66753Y-34778D01*
X-66865Y-34667D01*
X-67031Y-34500D01*
X-67281Y-34278D01*
X-67586Y-34056D01*
X-68003Y-33806D01*
X-68475Y-33556D01*
X-69031Y-33306D01*
X-69086Y-33278D01*
X-69142Y-33250D01*
X-69253Y-33223D01*
X-69364Y-33195D01*
X-69530Y-33139D01*
X-69753Y-33056D01*
X-69975Y-33000D01*
X-70280Y-32917D01*
X-70586Y-32806D01*
X-70974Y-32723D01*
X-71391Y-32612D01*
X-71863Y-32473D01*
X-72363Y-32362D01*
X-72946Y-32195D01*
X-73585Y-32056D01*
X-73613D01*
X-73724Y-32028D01*
X-73918Y-31973D01*
X-74140Y-31917D01*
X-74446Y-31834D01*
X-74779Y-31751D01*
X-75112Y-31640D01*
X-75501Y-31529D01*
X-76334Y-31279D01*
X-77139Y-31001D01*
X-77528Y-30862D01*
X-77889Y-30723D01*
X-78223Y-30584D01*
X-78500Y-30446D01*
X-78528D01*
X-78584Y-30390D01*
X-78667Y-30334D01*
X-78806Y-30279D01*
X-79139Y-30085D01*
X-79528Y-29807D01*
X-80000Y-29446D01*
X-80444Y-29057D01*
X-80888Y-28585D01*
X-81249Y-28085D01*
Y-28057D01*
X-81277Y-28030D01*
X-81333Y-27946D01*
X-81388Y-27835D01*
X-81527Y-27530D01*
X-81694Y-27141D01*
X-81860Y-26669D01*
X-81999Y-26113D01*
X-82110Y-25502D01*
X-82138Y-24864D01*
Y-24836D01*
Y-24780D01*
Y-24669D01*
X-82110Y-24531D01*
Y-24364D01*
X-82082Y-24170D01*
X-81999Y-23670D01*
X-81860Y-23114D01*
X-81694Y-22531D01*
X-81416Y-21892D01*
X-81055Y-21254D01*
Y-21226D01*
X-80999Y-21170D01*
X-80944Y-21087D01*
X-80861Y-20976D01*
X-80583Y-20671D01*
X-80222Y-20282D01*
X-79778Y-19865D01*
X-79222Y-19449D01*
X-78584Y-19032D01*
X-77834Y-18671D01*
X-77806D01*
X-77750Y-18643D01*
X-77612Y-18588D01*
X-77473Y-18532D01*
X-77278Y-18477D01*
X-77028Y-18393D01*
X-76751Y-18310D01*
X-76445Y-18227D01*
X-76112Y-18144D01*
X-75751Y-18060D01*
X-74973Y-17921D01*
X-74085Y-17810D01*
X-73141Y-17782D01*
X-72668D01*
X-72418Y-17810D01*
D02*
G37*
G36*
X-20044Y-24892D02*
X-19822D01*
X-19572Y-24919D01*
X-19322Y-24975D01*
X-19017Y-25030D01*
X-18350Y-25169D01*
X-17656Y-25391D01*
X-16934Y-25697D01*
X-16573Y-25891D01*
X-16240Y-26113D01*
X-16212D01*
X-16157Y-26169D01*
X-16073Y-26252D01*
X-15934Y-26336D01*
X-15601Y-26613D01*
X-15212Y-27002D01*
X-14768Y-27502D01*
X-14296Y-28085D01*
X-13879Y-28779D01*
X-13491Y-29557D01*
Y-29585D01*
X-13463Y-29668D01*
X-13407Y-29779D01*
X-13352Y-29946D01*
X-13268Y-30140D01*
X-13185Y-30390D01*
X-13102Y-30696D01*
X-13018Y-31001D01*
X-12935Y-31362D01*
X-12852Y-31723D01*
X-12685Y-32556D01*
X-12574Y-33472D01*
X-12546Y-34444D01*
Y-34472D01*
Y-34583D01*
Y-34722D01*
X-12574Y-34916D01*
Y-35166D01*
X-12602Y-35472D01*
X-12630Y-35805D01*
X-12685Y-36166D01*
X-12796Y-36944D01*
X-12991Y-37805D01*
X-13241Y-38693D01*
X-13574Y-39582D01*
Y-39610D01*
X-13629Y-39693D01*
X-13685Y-39804D01*
X-13768Y-39943D01*
X-13879Y-40137D01*
X-13990Y-40359D01*
X-14324Y-40859D01*
X-14740Y-41442D01*
X-15268Y-42026D01*
X-15851Y-42581D01*
X-16545Y-43081D01*
X-16573D01*
X-16629Y-43137D01*
X-16740Y-43192D01*
X-16879Y-43275D01*
X-17073Y-43359D01*
X-17267Y-43470D01*
X-17517Y-43553D01*
X-17795Y-43664D01*
X-18406Y-43886D01*
X-19100Y-44081D01*
X-19850Y-44219D01*
X-20239Y-44247D01*
X-20655Y-44275D01*
X-20933D01*
X-21211Y-44247D01*
X-21599Y-44192D01*
X-22044Y-44108D01*
X-22516Y-43997D01*
X-23016Y-43859D01*
X-23488Y-43636D01*
X-23543Y-43608D01*
X-23682Y-43525D01*
X-23932Y-43359D01*
X-24210Y-43164D01*
X-24543Y-42942D01*
X-24876Y-42637D01*
X-25210Y-42303D01*
X-25515Y-41942D01*
Y-50968D01*
X-28653D01*
Y-25280D01*
X-25793D01*
Y-27696D01*
X-25737Y-27669D01*
X-25626Y-27502D01*
X-25404Y-27224D01*
X-25126Y-26919D01*
X-24793Y-26586D01*
X-24404Y-26224D01*
X-23988Y-25891D01*
X-23516Y-25586D01*
X-23488D01*
X-23460Y-25558D01*
X-23293Y-25475D01*
X-23016Y-25364D01*
X-22655Y-25225D01*
X-22210Y-25086D01*
X-21683Y-24975D01*
X-21072Y-24892D01*
X-20433Y-24864D01*
X-20211D01*
X-20044Y-24892D01*
D02*
G37*
G36*
X70791D02*
X71041Y-24919D01*
X71291Y-24947D01*
X71597Y-25003D01*
X71930Y-25058D01*
X72596Y-25253D01*
X73318Y-25530D01*
X73652Y-25697D01*
X73985Y-25891D01*
X74318Y-26141D01*
X74596Y-26419D01*
X74624Y-26447D01*
X74651Y-26502D01*
X74735Y-26586D01*
X74818Y-26697D01*
X74957Y-26863D01*
X75068Y-27058D01*
X75207Y-27308D01*
X75346Y-27585D01*
X75485Y-27891D01*
X75623Y-28224D01*
X75762Y-28613D01*
X75873Y-29029D01*
X75957Y-29501D01*
X76040Y-30001D01*
X76068Y-30529D01*
X76095Y-31112D01*
Y-43859D01*
X72957D01*
Y-32167D01*
Y-32140D01*
Y-32084D01*
Y-31973D01*
Y-31862D01*
X72930Y-31529D01*
Y-31112D01*
X72874Y-30668D01*
X72819Y-30223D01*
X72763Y-29807D01*
X72652Y-29446D01*
Y-29418D01*
X72596Y-29307D01*
X72513Y-29168D01*
X72402Y-28974D01*
X72235Y-28752D01*
X72069Y-28529D01*
X71819Y-28307D01*
X71541Y-28113D01*
X71513Y-28085D01*
X71402Y-28030D01*
X71236Y-27946D01*
X71013Y-27835D01*
X70736Y-27752D01*
X70403Y-27669D01*
X70042Y-27613D01*
X69653Y-27585D01*
X69458D01*
X69320Y-27613D01*
X69153D01*
X68959Y-27641D01*
X68514Y-27752D01*
X67987Y-27891D01*
X67431Y-28141D01*
X66904Y-28446D01*
X66626Y-28668D01*
X66376Y-28890D01*
Y-28918D01*
X66320Y-28946D01*
X66265Y-29029D01*
X66182Y-29140D01*
X66070Y-29279D01*
X65959Y-29446D01*
X65848Y-29668D01*
X65737Y-29890D01*
X65598Y-30168D01*
X65487Y-30473D01*
X65376Y-30834D01*
X65265Y-31195D01*
X65182Y-31612D01*
X65126Y-32084D01*
X65099Y-32556D01*
X65071Y-33084D01*
Y-43859D01*
X61933D01*
Y-31806D01*
Y-31778D01*
Y-31723D01*
Y-31612D01*
Y-31445D01*
X61905Y-31279D01*
Y-31084D01*
X61849Y-30612D01*
X61738Y-30112D01*
X61599Y-29585D01*
X61405Y-29085D01*
X61155Y-28640D01*
X61127Y-28585D01*
X61016Y-28474D01*
X60822Y-28307D01*
X60572Y-28113D01*
X60211Y-27918D01*
X59794Y-27752D01*
X59267Y-27641D01*
X58656Y-27585D01*
X58434D01*
X58184Y-27613D01*
X57850Y-27669D01*
X57462Y-27752D01*
X57045Y-27891D01*
X56629Y-28057D01*
X56184Y-28307D01*
X56129Y-28335D01*
X55990Y-28446D01*
X55796Y-28585D01*
X55573Y-28835D01*
X55296Y-29113D01*
X55018Y-29474D01*
X54768Y-29890D01*
X54546Y-30362D01*
Y-30390D01*
X54518Y-30418D01*
X54490Y-30501D01*
X54463Y-30612D01*
X54435Y-30751D01*
X54379Y-30918D01*
X54352Y-31112D01*
X54296Y-31334D01*
X54240Y-31612D01*
X54213Y-31890D01*
X54157Y-32195D01*
X54129Y-32556D01*
X54102Y-32917D01*
X54074Y-33334D01*
X54046Y-33750D01*
Y-34222D01*
Y-43859D01*
X50908D01*
Y-25280D01*
X53713D01*
Y-27863D01*
X53768Y-27835D01*
X53879Y-27669D01*
X54074Y-27419D01*
X54352Y-27113D01*
X54685Y-26752D01*
X55074Y-26391D01*
X55518Y-26030D01*
X56046Y-25697D01*
X56073D01*
X56101Y-25669D01*
X56184Y-25614D01*
X56295Y-25558D01*
X56434Y-25502D01*
X56601Y-25419D01*
X56990Y-25280D01*
X57490Y-25114D01*
X58045Y-25003D01*
X58684Y-24892D01*
X59350Y-24864D01*
X59683D01*
X59878Y-24892D01*
X60072Y-24919D01*
X60544Y-24975D01*
X61072Y-25086D01*
X61627Y-25225D01*
X62183Y-25447D01*
X62710Y-25725D01*
X62738D01*
X62766Y-25752D01*
X62932Y-25891D01*
X63155Y-26086D01*
X63460Y-26336D01*
X63766Y-26697D01*
X64071Y-27085D01*
X64349Y-27558D01*
X64599Y-28113D01*
X64626Y-28085D01*
X64710Y-27974D01*
X64821Y-27807D01*
X65015Y-27613D01*
X65210Y-27363D01*
X65487Y-27085D01*
X65793Y-26780D01*
X66154Y-26474D01*
X66543Y-26197D01*
X66987Y-25891D01*
X67459Y-25614D01*
X67959Y-25364D01*
X68514Y-25169D01*
X69097Y-25003D01*
X69708Y-24892D01*
X70347Y-24864D01*
X70625D01*
X70791Y-24892D01*
D02*
G37*
G36*
X40966D02*
X41216Y-24919D01*
X41466Y-24947D01*
X41772Y-25003D01*
X42105Y-25058D01*
X42771Y-25253D01*
X43494Y-25530D01*
X43827Y-25697D01*
X44160Y-25891D01*
X44493Y-26141D01*
X44771Y-26419D01*
X44799Y-26447D01*
X44826Y-26502D01*
X44910Y-26586D01*
X44993Y-26697D01*
X45132Y-26863D01*
X45243Y-27058D01*
X45382Y-27308D01*
X45521Y-27585D01*
X45660Y-27891D01*
X45798Y-28224D01*
X45937Y-28613D01*
X46048Y-29029D01*
X46132Y-29501D01*
X46215Y-30001D01*
X46243Y-30529D01*
X46270Y-31112D01*
Y-43859D01*
X43132D01*
Y-32167D01*
Y-32140D01*
Y-32084D01*
Y-31973D01*
Y-31862D01*
X43105Y-31529D01*
Y-31112D01*
X43049Y-30668D01*
X42994Y-30223D01*
X42938Y-29807D01*
X42827Y-29446D01*
Y-29418D01*
X42771Y-29307D01*
X42688Y-29168D01*
X42577Y-28974D01*
X42410Y-28752D01*
X42244Y-28529D01*
X41994Y-28307D01*
X41716Y-28113D01*
X41688Y-28085D01*
X41577Y-28030D01*
X41411Y-27946D01*
X41188Y-27835D01*
X40911Y-27752D01*
X40578Y-27669D01*
X40217Y-27613D01*
X39828Y-27585D01*
X39633D01*
X39495Y-27613D01*
X39328D01*
X39134Y-27641D01*
X38689Y-27752D01*
X38162Y-27891D01*
X37606Y-28141D01*
X37079Y-28446D01*
X36801Y-28668D01*
X36551Y-28890D01*
Y-28918D01*
X36495Y-28946D01*
X36440Y-29029D01*
X36357Y-29140D01*
X36246Y-29279D01*
X36134Y-29446D01*
X36023Y-29668D01*
X35912Y-29890D01*
X35773Y-30168D01*
X35662Y-30473D01*
X35551Y-30834D01*
X35440Y-31195D01*
X35357Y-31612D01*
X35301Y-32084D01*
X35274Y-32556D01*
X35246Y-33084D01*
Y-43859D01*
X32108D01*
Y-31806D01*
Y-31778D01*
Y-31723D01*
Y-31612D01*
Y-31445D01*
X32080Y-31279D01*
Y-31084D01*
X32024Y-30612D01*
X31913Y-30112D01*
X31775Y-29585D01*
X31580Y-29085D01*
X31330Y-28640D01*
X31302Y-28585D01*
X31191Y-28474D01*
X30997Y-28307D01*
X30747Y-28113D01*
X30386Y-27918D01*
X29969Y-27752D01*
X29442Y-27641D01*
X28831Y-27585D01*
X28609D01*
X28359Y-27613D01*
X28026Y-27669D01*
X27637Y-27752D01*
X27220Y-27891D01*
X26804Y-28057D01*
X26359Y-28307D01*
X26304Y-28335D01*
X26165Y-28446D01*
X25971Y-28585D01*
X25748Y-28835D01*
X25471Y-29113D01*
X25193Y-29474D01*
X24943Y-29890D01*
X24721Y-30362D01*
Y-30390D01*
X24693Y-30418D01*
X24665Y-30501D01*
X24638Y-30612D01*
X24610Y-30751D01*
X24554Y-30918D01*
X24527Y-31112D01*
X24471Y-31334D01*
X24416Y-31612D01*
X24388Y-31890D01*
X24332Y-32195D01*
X24304Y-32556D01*
X24277Y-32917D01*
X24249Y-33334D01*
X24221Y-33750D01*
Y-34222D01*
Y-43859D01*
X21083D01*
Y-25280D01*
X23888D01*
Y-27863D01*
X23943Y-27835D01*
X24055Y-27669D01*
X24249Y-27419D01*
X24527Y-27113D01*
X24860Y-26752D01*
X25249Y-26391D01*
X25693Y-26030D01*
X26221Y-25697D01*
X26248D01*
X26276Y-25669D01*
X26359Y-25614D01*
X26470Y-25558D01*
X26609Y-25502D01*
X26776Y-25419D01*
X27165Y-25280D01*
X27665Y-25114D01*
X28220Y-25003D01*
X28859Y-24892D01*
X29525Y-24864D01*
X29858D01*
X30053Y-24892D01*
X30247Y-24919D01*
X30719Y-24975D01*
X31247Y-25086D01*
X31802Y-25225D01*
X32358Y-25447D01*
X32885Y-25725D01*
X32913D01*
X32941Y-25752D01*
X33108Y-25891D01*
X33330Y-26086D01*
X33635Y-26336D01*
X33941Y-26697D01*
X34246Y-27085D01*
X34524Y-27558D01*
X34774Y-28113D01*
X34801Y-28085D01*
X34885Y-27974D01*
X34996Y-27807D01*
X35190Y-27613D01*
X35385Y-27363D01*
X35662Y-27085D01*
X35968Y-26780D01*
X36329Y-26474D01*
X36718Y-26197D01*
X37162Y-25891D01*
X37634Y-25614D01*
X38134Y-25364D01*
X38689Y-25169D01*
X39272Y-25003D01*
X39883Y-24892D01*
X40522Y-24864D01*
X40800D01*
X40966Y-24892D01*
D02*
G37*
G36*
X16112Y-21559D02*
X5865D01*
X4504Y-28446D01*
X4532Y-28418D01*
X4615Y-28363D01*
X4727Y-28307D01*
X4893Y-28196D01*
X5115Y-28085D01*
X5365Y-27946D01*
X5643Y-27780D01*
X5976Y-27641D01*
X6309Y-27502D01*
X6698Y-27335D01*
X7503Y-27085D01*
X7948Y-26974D01*
X8392Y-26891D01*
X8864Y-26863D01*
X9336Y-26836D01*
X9475D01*
X9670Y-26863D01*
X9892D01*
X10170Y-26919D01*
X10503Y-26946D01*
X10892Y-27030D01*
X11280Y-27113D01*
X11725Y-27252D01*
X12169Y-27391D01*
X12641Y-27585D01*
X13113Y-27807D01*
X13585Y-28085D01*
X14057Y-28391D01*
X14529Y-28752D01*
X14974Y-29168D01*
X15001Y-29196D01*
X15085Y-29279D01*
X15196Y-29418D01*
X15335Y-29585D01*
X15529Y-29807D01*
X15723Y-30112D01*
X15918Y-30418D01*
X16140Y-30779D01*
X16362Y-31195D01*
X16557Y-31667D01*
X16779Y-32140D01*
X16945Y-32695D01*
X17084Y-33250D01*
X17195Y-33861D01*
X17279Y-34500D01*
X17306Y-35166D01*
Y-35194D01*
Y-35333D01*
Y-35500D01*
X17279Y-35750D01*
X17251Y-36055D01*
X17195Y-36388D01*
X17140Y-36777D01*
X17056Y-37221D01*
X16945Y-37666D01*
X16806Y-38166D01*
X16640Y-38666D01*
X16445Y-39165D01*
X16223Y-39665D01*
X15946Y-40193D01*
X15640Y-40693D01*
X15279Y-41165D01*
X15251Y-41192D01*
X15168Y-41304D01*
X15029Y-41442D01*
X14835Y-41637D01*
X14585Y-41887D01*
X14279Y-42137D01*
X13918Y-42442D01*
X13502Y-42720D01*
X13058Y-42998D01*
X12558Y-43303D01*
X12002Y-43553D01*
X11391Y-43775D01*
X10753Y-43997D01*
X10058Y-44136D01*
X9336Y-44247D01*
X8559Y-44275D01*
X8226D01*
X7976Y-44247D01*
X7670Y-44219D01*
X7337Y-44164D01*
X6948Y-44108D01*
X6532Y-44025D01*
X6087Y-43942D01*
X5615Y-43803D01*
X5143Y-43636D01*
X4671Y-43442D01*
X4199Y-43220D01*
X3727Y-42970D01*
X3283Y-42664D01*
X2838Y-42331D01*
X2810Y-42303D01*
X2755Y-42248D01*
X2644Y-42137D01*
X2505Y-41970D01*
X2310Y-41776D01*
X2116Y-41554D01*
X1922Y-41276D01*
X1700Y-40943D01*
X1477Y-40609D01*
X1255Y-40221D01*
X1061Y-39776D01*
X867Y-39332D01*
X672Y-38832D01*
X533Y-38304D01*
X422Y-37721D01*
X339Y-37138D01*
X3644Y-36888D01*
Y-36916D01*
X3671Y-36999D01*
X3699Y-37110D01*
X3727Y-37277D01*
X3755Y-37471D01*
X3838Y-37721D01*
X3977Y-38249D01*
X4199Y-38832D01*
X4504Y-39443D01*
X4865Y-39998D01*
X5088Y-40248D01*
X5310Y-40498D01*
X5337D01*
X5365Y-40554D01*
X5449Y-40609D01*
X5560Y-40693D01*
X5837Y-40887D01*
X6226Y-41082D01*
X6698Y-41304D01*
X7254Y-41498D01*
X7864Y-41637D01*
X8198Y-41665D01*
X8559Y-41692D01*
X8781D01*
X8948Y-41665D01*
X9142Y-41637D01*
X9364Y-41609D01*
X9892Y-41470D01*
X10503Y-41276D01*
X10808Y-41137D01*
X11141Y-40970D01*
X11475Y-40776D01*
X11780Y-40554D01*
X12086Y-40304D01*
X12391Y-39998D01*
X12419Y-39971D01*
X12447Y-39915D01*
X12530Y-39832D01*
X12641Y-39693D01*
X12752Y-39499D01*
X12891Y-39304D01*
X13030Y-39054D01*
X13196Y-38777D01*
X13335Y-38471D01*
X13474Y-38138D01*
X13613Y-37749D01*
X13724Y-37360D01*
X13835Y-36916D01*
X13918Y-36444D01*
X13946Y-35972D01*
X13974Y-35444D01*
Y-35416D01*
Y-35333D01*
Y-35194D01*
X13946Y-35000D01*
X13918Y-34778D01*
X13891Y-34500D01*
X13835Y-34222D01*
X13780Y-33889D01*
X13613Y-33223D01*
X13335Y-32500D01*
X13169Y-32167D01*
X12946Y-31834D01*
X12724Y-31501D01*
X12447Y-31195D01*
X12419Y-31168D01*
X12391Y-31140D01*
X12280Y-31056D01*
X12169Y-30945D01*
X12030Y-30834D01*
X11836Y-30696D01*
X11641Y-30557D01*
X11391Y-30390D01*
X11114Y-30251D01*
X10836Y-30112D01*
X10142Y-29862D01*
X9781Y-29751D01*
X9364Y-29668D01*
X8948Y-29640D01*
X8503Y-29612D01*
X8253D01*
X7948Y-29640D01*
X7587Y-29696D01*
X7142Y-29779D01*
X6670Y-29918D01*
X6198Y-30085D01*
X5726Y-30334D01*
X5671Y-30362D01*
X5532Y-30446D01*
X5310Y-30612D01*
X5032Y-30807D01*
X4754Y-31084D01*
X4421Y-31390D01*
X4116Y-31751D01*
X3838Y-32140D01*
X894Y-31723D01*
X3366Y-18560D01*
X16112D01*
Y-21559D01*
D02*
G37*
G36*
X-54840Y-25280D02*
X-51647D01*
Y-27724D01*
X-54840D01*
Y-38610D01*
Y-38638D01*
Y-38666D01*
Y-38832D01*
Y-39054D01*
X-54812Y-39332D01*
Y-39610D01*
X-54757Y-39887D01*
X-54729Y-40137D01*
X-54673Y-40332D01*
Y-40359D01*
X-54646Y-40387D01*
X-54535Y-40554D01*
X-54368Y-40748D01*
X-54146Y-40943D01*
X-54118D01*
X-54062Y-40970D01*
X-53979Y-40998D01*
X-53868Y-41054D01*
X-53702Y-41082D01*
X-53535Y-41137D01*
X-53313Y-41165D01*
X-52841D01*
X-52674Y-41137D01*
X-52480D01*
X-52230Y-41109D01*
X-51952Y-41082D01*
X-51647Y-41054D01*
X-51230Y-43831D01*
X-51286D01*
X-51452Y-43886D01*
X-51702Y-43914D01*
X-52035Y-43970D01*
X-52396Y-44025D01*
X-52785Y-44053D01*
X-53618Y-44108D01*
X-53896D01*
X-54201Y-44081D01*
X-54590Y-44053D01*
X-55035Y-43970D01*
X-55479Y-43886D01*
X-55895Y-43747D01*
X-56284Y-43581D01*
X-56312Y-43553D01*
X-56423Y-43470D01*
X-56590Y-43359D01*
X-56812Y-43192D01*
X-57034Y-42998D01*
X-57256Y-42748D01*
X-57450Y-42470D01*
X-57617Y-42164D01*
X-57645Y-42109D01*
X-57673Y-41970D01*
X-57700Y-41859D01*
X-57728Y-41720D01*
X-57756Y-41554D01*
X-57784Y-41359D01*
X-57839Y-41137D01*
X-57867Y-40859D01*
X-57895Y-40554D01*
X-57923Y-40221D01*
X-57950Y-39832D01*
Y-39415D01*
X-57978Y-38943D01*
Y-38443D01*
Y-27724D01*
X-60311D01*
Y-25280D01*
X-57978D01*
Y-20698D01*
X-54840Y-18810D01*
Y-25280D01*
D02*
G37*
G36*
X-40594Y-24892D02*
X-40344D01*
X-40011Y-24947D01*
X-39650Y-25003D01*
X-39233Y-25086D01*
X-38789Y-25169D01*
X-38317Y-25308D01*
X-37845Y-25475D01*
X-37317Y-25697D01*
X-36817Y-25947D01*
X-36318Y-26224D01*
X-35818Y-26586D01*
X-35318Y-26974D01*
X-34874Y-27419D01*
X-34846Y-27446D01*
X-34762Y-27530D01*
X-34651Y-27669D01*
X-34512Y-27891D01*
X-34318Y-28141D01*
X-34124Y-28446D01*
X-33902Y-28835D01*
X-33679Y-29251D01*
X-33485Y-29724D01*
X-33263Y-30251D01*
X-33068Y-30834D01*
X-32874Y-31473D01*
X-32735Y-32167D01*
X-32624Y-32917D01*
X-32541Y-33695D01*
X-32513Y-34528D01*
Y-34583D01*
Y-34722D01*
Y-35000D01*
X-32541Y-35361D01*
X-46398D01*
Y-35389D01*
Y-35500D01*
X-46370Y-35666D01*
X-46343Y-35861D01*
X-46315Y-36138D01*
X-46259Y-36416D01*
X-46204Y-36749D01*
X-46120Y-37110D01*
X-45898Y-37860D01*
X-45593Y-38666D01*
X-45398Y-39026D01*
X-45204Y-39415D01*
X-44954Y-39748D01*
X-44676Y-40082D01*
X-44649Y-40110D01*
X-44593Y-40137D01*
X-44510Y-40221D01*
X-44399Y-40332D01*
X-44232Y-40443D01*
X-44065Y-40582D01*
X-43843Y-40748D01*
X-43593Y-40887D01*
X-43038Y-41192D01*
X-42371Y-41442D01*
X-42010Y-41554D01*
X-41622Y-41609D01*
X-41205Y-41665D01*
X-40788Y-41692D01*
X-40622D01*
X-40511Y-41665D01*
X-40178Y-41637D01*
X-39761Y-41581D01*
X-39317Y-41470D01*
X-38817Y-41304D01*
X-38317Y-41109D01*
X-37845Y-40804D01*
X-37817D01*
X-37789Y-40748D01*
X-37650Y-40637D01*
X-37428Y-40415D01*
X-37151Y-40082D01*
X-36845Y-39693D01*
X-36512Y-39165D01*
X-36179Y-38554D01*
X-35901Y-37860D01*
X-32624Y-38277D01*
Y-38304D01*
X-32652Y-38416D01*
X-32707Y-38554D01*
X-32791Y-38749D01*
X-32874Y-38999D01*
X-32985Y-39276D01*
X-33124Y-39582D01*
X-33263Y-39915D01*
X-33652Y-40609D01*
X-34152Y-41359D01*
X-34457Y-41720D01*
X-34762Y-42081D01*
X-35096Y-42414D01*
X-35484Y-42720D01*
X-35512Y-42748D01*
X-35568Y-42775D01*
X-35707Y-42859D01*
X-35845Y-42970D01*
X-36068Y-43081D01*
X-36318Y-43220D01*
X-36595Y-43359D01*
X-36928Y-43497D01*
X-37290Y-43636D01*
X-37706Y-43775D01*
X-38123Y-43914D01*
X-38595Y-44025D01*
X-39094Y-44136D01*
X-39622Y-44219D01*
X-40205Y-44247D01*
X-40788Y-44275D01*
X-40955D01*
X-41177Y-44247D01*
X-41455D01*
X-41816Y-44192D01*
X-42205Y-44136D01*
X-42649Y-44053D01*
X-43121Y-43970D01*
X-43621Y-43831D01*
X-44149Y-43664D01*
X-44704Y-43470D01*
X-45232Y-43220D01*
X-45787Y-42942D01*
X-46287Y-42609D01*
X-46787Y-42220D01*
X-47259Y-41776D01*
X-47287Y-41748D01*
X-47370Y-41665D01*
X-47481Y-41526D01*
X-47620Y-41304D01*
X-47814Y-41054D01*
X-48009Y-40748D01*
X-48231Y-40387D01*
X-48425Y-39971D01*
X-48647Y-39499D01*
X-48870Y-38971D01*
X-49064Y-38388D01*
X-49258Y-37749D01*
X-49397Y-37083D01*
X-49508Y-36361D01*
X-49592Y-35583D01*
X-49619Y-34750D01*
Y-34694D01*
Y-34556D01*
X-49592Y-34306D01*
Y-33972D01*
X-49536Y-33584D01*
X-49481Y-33139D01*
X-49425Y-32612D01*
X-49314Y-32084D01*
X-49203Y-31501D01*
X-49036Y-30918D01*
X-48842Y-30307D01*
X-48620Y-29696D01*
X-48342Y-29113D01*
X-48009Y-28529D01*
X-47648Y-27974D01*
X-47231Y-27474D01*
X-47203Y-27446D01*
X-47120Y-27363D01*
X-46981Y-27224D01*
X-46787Y-27058D01*
X-46565Y-26863D01*
X-46259Y-26641D01*
X-45926Y-26419D01*
X-45537Y-26169D01*
X-45121Y-25919D01*
X-44649Y-25697D01*
X-44121Y-25475D01*
X-43565Y-25280D01*
X-42955Y-25114D01*
X-42344Y-24975D01*
X-41649Y-24892D01*
X-40955Y-24864D01*
X-40788D01*
X-40594Y-24892D01*
D02*
G37*
%LPC*%
G36*
X85801Y41318D02*
X77165D01*
Y32848D01*
X84829D01*
X85023Y32876D01*
X85246D01*
X85773Y32903D01*
X86356Y32959D01*
X86967Y33042D01*
X87551Y33153D01*
X88078Y33320D01*
X88106D01*
X88134Y33348D01*
X88300Y33403D01*
X88522Y33514D01*
X88828Y33681D01*
X89134Y33903D01*
X89467Y34153D01*
X89800Y34486D01*
X90078Y34847D01*
X90105Y34903D01*
X90189Y35042D01*
X90300Y35236D01*
X90439Y35541D01*
X90550Y35875D01*
X90661Y36263D01*
X90744Y36708D01*
X90772Y37152D01*
Y37180D01*
Y37236D01*
Y37319D01*
X90744Y37458D01*
Y37596D01*
X90716Y37791D01*
X90605Y38207D01*
X90439Y38680D01*
X90216Y39179D01*
X89883Y39652D01*
X89661Y39901D01*
X89439Y40124D01*
X89411Y40151D01*
X89383Y40179D01*
X89300Y40235D01*
X89189Y40318D01*
X89050Y40401D01*
X88856Y40512D01*
X88661Y40623D01*
X88411Y40734D01*
X88134Y40846D01*
X87828Y40929D01*
X87495Y41040D01*
X87134Y41123D01*
X86717Y41207D01*
X86273Y41262D01*
X85801Y41318D01*
D02*
G37*
G36*
X4268D02*
X-4368D01*
Y32848D01*
X3296D01*
X3491Y32876D01*
X3713D01*
X4241Y32903D01*
X4824Y32959D01*
X5435Y33042D01*
X6018Y33153D01*
X6545Y33320D01*
X6573D01*
X6601Y33348D01*
X6768Y33403D01*
X6990Y33514D01*
X7295Y33681D01*
X7601Y33903D01*
X7934Y34153D01*
X8267Y34486D01*
X8545Y34847D01*
X8573Y34903D01*
X8656Y35042D01*
X8767Y35236D01*
X8906Y35541D01*
X9017Y35875D01*
X9128Y36263D01*
X9211Y36708D01*
X9239Y37152D01*
Y37180D01*
Y37236D01*
Y37319D01*
X9211Y37458D01*
Y37596D01*
X9184Y37791D01*
X9072Y38207D01*
X8906Y38680D01*
X8684Y39179D01*
X8350Y39652D01*
X8128Y39901D01*
X7906Y40124D01*
X7878Y40151D01*
X7851Y40179D01*
X7767Y40235D01*
X7656Y40318D01*
X7517Y40401D01*
X7323Y40512D01*
X7129Y40623D01*
X6879Y40734D01*
X6601Y40846D01*
X6295Y40929D01*
X5962Y41040D01*
X5601Y41123D01*
X5185Y41207D01*
X4740Y41262D01*
X4268Y41318D01*
D02*
G37*
G36*
X-22919Y41484D02*
Y41456D01*
X-22946Y41373D01*
X-22974Y41234D01*
X-23002Y41068D01*
X-23057Y40818D01*
X-23113Y40568D01*
X-23196Y40262D01*
X-23280Y39929D01*
X-23363Y39568D01*
X-23474Y39179D01*
X-23724Y38346D01*
X-24002Y37458D01*
X-24307Y36541D01*
X-27139Y29016D01*
X-18392D01*
X-21086Y36125D01*
Y36152D01*
X-21141Y36263D01*
X-21197Y36430D01*
X-21280Y36680D01*
X-21391Y36930D01*
X-21502Y37263D01*
X-21641Y37624D01*
X-21780Y38013D01*
X-22058Y38874D01*
X-22363Y39762D01*
X-22669Y40651D01*
X-22919Y41484D01*
D02*
G37*
G36*
X-92593Y41123D02*
X-99953D01*
Y31959D01*
X-93038D01*
X-92816Y31987D01*
X-92538D01*
X-92232Y32015D01*
X-91871Y32070D01*
X-91510Y32126D01*
X-90733Y32265D01*
X-89955Y32487D01*
X-89594Y32626D01*
X-89261Y32792D01*
X-88928Y32959D01*
X-88650Y33181D01*
X-88622Y33209D01*
X-88595Y33237D01*
X-88511Y33320D01*
X-88428Y33403D01*
X-88206Y33681D01*
X-87956Y34070D01*
X-87706Y34570D01*
X-87484Y35153D01*
X-87317Y35847D01*
X-87289Y36208D01*
X-87262Y36625D01*
Y36652D01*
Y36708D01*
Y36791D01*
Y36902D01*
X-87317Y37208D01*
X-87373Y37569D01*
X-87456Y38013D01*
X-87623Y38457D01*
X-87817Y38930D01*
X-88095Y39374D01*
X-88122Y39429D01*
X-88234Y39568D01*
X-88428Y39762D01*
X-88650Y39985D01*
X-88983Y40235D01*
X-89344Y40485D01*
X-89761Y40707D01*
X-90233Y40873D01*
X-90261D01*
X-90400Y40901D01*
X-90622Y40957D01*
X-90955Y41012D01*
X-91149D01*
X-91372Y41040D01*
X-91649Y41068D01*
X-91927Y41096D01*
X-92260D01*
X-92593Y41123D01*
D02*
G37*
G36*
X-67739Y41679D02*
X-68378D01*
X-68545Y41651D01*
X-68822D01*
X-69128Y41595D01*
X-69489Y41540D01*
X-69878Y41456D01*
X-70322Y41373D01*
X-70794Y41234D01*
X-71294Y41068D01*
X-71821Y40873D01*
X-72321Y40623D01*
X-72849Y40346D01*
X-73377Y40012D01*
X-73904Y39624D01*
X-74404Y39179D01*
X-74432Y39152D01*
X-74515Y39068D01*
X-74654Y38902D01*
X-74793Y38707D01*
X-75015Y38430D01*
X-75209Y38096D01*
X-75459Y37680D01*
X-75682Y37236D01*
X-75931Y36680D01*
X-76181Y36069D01*
X-76376Y35403D01*
X-76570Y34653D01*
X-76737Y33847D01*
X-76876Y32959D01*
X-76959Y31987D01*
X-76987Y30932D01*
Y30876D01*
Y30737D01*
X-76959Y30487D01*
Y30154D01*
X-76903Y29765D01*
X-76848Y29321D01*
X-76792Y28821D01*
X-76681Y28293D01*
X-76542Y27710D01*
X-76376Y27099D01*
X-76181Y26516D01*
X-75931Y25905D01*
X-75654Y25294D01*
X-75321Y24711D01*
X-74959Y24156D01*
X-74515Y23628D01*
X-74487Y23600D01*
X-74404Y23517D01*
X-74265Y23378D01*
X-74071Y23212D01*
X-73821Y23017D01*
X-73515Y22795D01*
X-73182Y22545D01*
X-72793Y22323D01*
X-72377Y22073D01*
X-71877Y21823D01*
X-71377Y21601D01*
X-70822Y21407D01*
X-70239Y21240D01*
X-69600Y21101D01*
X-68961Y21018D01*
X-68267Y20990D01*
X-68100D01*
X-67906Y21018D01*
X-67628Y21046D01*
X-67295Y21073D01*
X-66934Y21129D01*
X-66490Y21212D01*
X-66045Y21323D01*
X-65545Y21462D01*
X-65046Y21629D01*
X-64518Y21851D01*
X-63990Y22129D01*
X-63463Y22434D01*
X-62935Y22767D01*
X-62435Y23184D01*
X-61963Y23656D01*
X-61935Y23684D01*
X-61852Y23795D01*
X-61741Y23934D01*
X-61574Y24156D01*
X-61380Y24433D01*
X-61158Y24767D01*
X-60936Y25155D01*
X-60713Y25628D01*
X-60491Y26127D01*
X-60241Y26711D01*
X-60047Y27322D01*
X-59853Y28016D01*
X-59686Y28766D01*
X-59575Y29543D01*
X-59492Y30404D01*
X-59464Y31293D01*
Y31321D01*
Y31431D01*
Y31598D01*
X-59492Y31820D01*
Y32098D01*
X-59519Y32403D01*
X-59547Y32765D01*
X-59603Y33153D01*
X-59714Y34014D01*
X-59908Y34931D01*
X-60186Y35847D01*
X-60547Y36763D01*
Y36791D01*
X-60602Y36874D01*
X-60658Y36986D01*
X-60741Y37152D01*
X-60852Y37347D01*
X-60991Y37569D01*
X-61324Y38096D01*
X-61769Y38680D01*
X-62296Y39263D01*
X-62907Y39846D01*
X-63629Y40374D01*
X-63657Y40401D01*
X-63713Y40429D01*
X-63824Y40485D01*
X-63990Y40568D01*
X-64185Y40679D01*
X-64407Y40790D01*
X-64657Y40901D01*
X-64962Y41040D01*
X-65295Y41151D01*
X-65629Y41262D01*
X-66406Y41484D01*
X-67267Y41623D01*
X-67739Y41679D01*
D02*
G37*
G36*
X-20739Y-27335D02*
X-20933D01*
X-21072Y-27363D01*
X-21238Y-27391D01*
X-21461Y-27446D01*
X-21933Y-27558D01*
X-22488Y-27807D01*
X-22766Y-27946D01*
X-23071Y-28141D01*
X-23377Y-28335D01*
X-23682Y-28613D01*
X-23988Y-28890D01*
X-24293Y-29224D01*
X-24321Y-29251D01*
X-24349Y-29307D01*
X-24432Y-29418D01*
X-24543Y-29585D01*
X-24654Y-29779D01*
X-24765Y-30001D01*
X-24904Y-30279D01*
X-25043Y-30612D01*
X-25210Y-30973D01*
X-25348Y-31390D01*
X-25460Y-31834D01*
X-25570Y-32334D01*
X-25682Y-32862D01*
X-25765Y-33417D01*
X-25793Y-34028D01*
X-25820Y-34694D01*
Y-34722D01*
Y-34861D01*
Y-35028D01*
X-25793Y-35278D01*
X-25765Y-35583D01*
X-25737Y-35916D01*
X-25709Y-36305D01*
X-25626Y-36694D01*
X-25460Y-37555D01*
X-25210Y-38443D01*
X-25043Y-38860D01*
X-24848Y-39276D01*
X-24626Y-39665D01*
X-24376Y-39998D01*
X-24349Y-40026D01*
X-24321Y-40082D01*
X-24238Y-40165D01*
X-24126Y-40248D01*
X-23988Y-40387D01*
X-23821Y-40526D01*
X-23404Y-40832D01*
X-22877Y-41165D01*
X-22294Y-41415D01*
X-21960Y-41526D01*
X-21627Y-41609D01*
X-21266Y-41665D01*
X-20877Y-41692D01*
X-20683D01*
X-20516Y-41665D01*
X-20350Y-41637D01*
X-20128Y-41609D01*
X-19628Y-41470D01*
X-19072Y-41276D01*
X-18767Y-41109D01*
X-18461Y-40943D01*
X-18156Y-40748D01*
X-17851Y-40526D01*
X-17545Y-40248D01*
X-17267Y-39943D01*
X-17240Y-39915D01*
X-17212Y-39860D01*
X-17129Y-39748D01*
X-17045Y-39610D01*
X-16906Y-39415D01*
X-16795Y-39193D01*
X-16656Y-38915D01*
X-16518Y-38582D01*
X-16379Y-38221D01*
X-16240Y-37832D01*
X-16101Y-37360D01*
X-15990Y-36860D01*
X-15907Y-36333D01*
X-15823Y-35750D01*
X-15796Y-35111D01*
X-15768Y-34444D01*
Y-34417D01*
Y-34278D01*
Y-34111D01*
X-15796Y-33861D01*
X-15823Y-33556D01*
X-15851Y-33223D01*
X-15879Y-32862D01*
X-15962Y-32445D01*
X-16129Y-31584D01*
X-16379Y-30696D01*
X-16545Y-30251D01*
X-16740Y-29862D01*
X-16990Y-29474D01*
X-17240Y-29113D01*
X-17267Y-29085D01*
X-17295Y-29029D01*
X-17378Y-28946D01*
X-17490Y-28835D01*
X-17628Y-28696D01*
X-17823Y-28557D01*
X-18239Y-28224D01*
X-18739Y-27891D01*
X-19322Y-27613D01*
X-19656Y-27502D01*
X-20017Y-27419D01*
X-20378Y-27363D01*
X-20739Y-27335D01*
D02*
G37*
G36*
X-40955Y-27446D02*
X-41177D01*
X-41316Y-27474D01*
X-41510Y-27502D01*
X-41705Y-27530D01*
X-42232Y-27641D01*
X-42788Y-27807D01*
X-43427Y-28057D01*
X-43732Y-28224D01*
X-44038Y-28418D01*
X-44343Y-28668D01*
X-44621Y-28918D01*
X-44649Y-28946D01*
X-44676Y-28974D01*
X-44760Y-29057D01*
X-44843Y-29168D01*
X-44954Y-29335D01*
X-45093Y-29501D01*
X-45232Y-29696D01*
X-45371Y-29946D01*
X-45509Y-30196D01*
X-45648Y-30501D01*
X-45926Y-31168D01*
X-46120Y-31917D01*
X-46176Y-32334D01*
X-46231Y-32778D01*
X-35845D01*
Y-32750D01*
Y-32667D01*
X-35873Y-32556D01*
X-35901Y-32390D01*
X-35929Y-32195D01*
X-35956Y-31973D01*
X-36068Y-31473D01*
X-36234Y-30890D01*
X-36429Y-30307D01*
X-36706Y-29751D01*
X-37040Y-29279D01*
X-37067Y-29251D01*
X-37095Y-29196D01*
X-37206Y-29113D01*
X-37317Y-29002D01*
X-37456Y-28863D01*
X-37650Y-28696D01*
X-37873Y-28529D01*
X-38095Y-28363D01*
X-38372Y-28196D01*
X-38678Y-28030D01*
X-39344Y-27724D01*
X-39706Y-27613D01*
X-40094Y-27530D01*
X-40511Y-27474D01*
X-40955Y-27446D01*
D02*
G37*
%LPD*%
M02*
