G04*
G04 #@! TF.GenerationSoftware,Altium Limited,Altium Designer,19.1.5 (86)*
G04*
G04 Layer_Physical_Order=1*
G04 Layer_Color=255*
%FSLAX25Y25*%
%MOIN*%
G70*
G01*
G75*
%ADD10C,0.19685*%
D10*
X83512Y-384741D02*
G03*
X393701Y0I-83512J384741D01*
G01*
X78740Y-380894D02*
G03*
X83512Y-384741I3937J0D01*
G01*
X-83513Y-384741D02*
G03*
X-78740Y-380894I835J3847D01*
G01*
X393701Y0D02*
G03*
X-384741Y83513I-393701J0D01*
G01*
X-384741Y-83512D02*
G03*
X-331105Y-213001I384741J83512D01*
G01*
X-384741Y83513D02*
G03*
X-380894Y78740I3847J-835D01*
G01*
X-380894Y-78740D02*
G03*
X-384741Y-83512I0J-3937D01*
G01*
X-213001Y-331105D02*
G03*
X-83513Y-384741I213001J331105D01*
G01*
X-213655Y-325010D02*
G03*
X-213001Y-331105I2784J-2784D01*
G01*
X-331105Y-213001D02*
G03*
X-325011Y-213655I3311J2130D01*
G01*
X314936Y-236254D02*
Y236254D01*
X275566Y-281183D02*
Y281183D01*
X236195Y-314979D02*
Y314979D01*
X393676Y-4431D02*
Y4431D01*
X354306Y-171662D02*
Y171662D01*
X157455Y-360844D02*
Y360844D01*
X78715Y-364174D02*
Y385752D01*
X-39395Y-364174D02*
Y391725D01*
X196825Y-340969D02*
Y340969D01*
X-78740Y-364174D02*
X78740D01*
X118085Y-375574D02*
Y375574D01*
X39345Y-364174D02*
Y391730D01*
X78740Y-380894D02*
Y-364174D01*
X-25D02*
Y393701D01*
X-78765Y-381334D02*
Y385741D01*
X-118135Y-375559D02*
Y375559D01*
X-78740Y-380894D02*
Y-364174D01*
X-354356Y-171559D02*
Y171559D01*
X-314986Y-203630D02*
Y236187D01*
X-325011Y-213655D02*
X-313188Y-201832D01*
X-380894Y78740D02*
X-364174D01*
Y-78740D02*
Y78740D01*
X-380894Y-78740D02*
X-364174Y-78740D01*
X-196875Y-340940D02*
Y340940D01*
X-157505Y-360822D02*
Y360822D01*
X-313188Y-201832D02*
X-201832Y-313187D01*
X-213655Y-325010D02*
X-201832Y-313187D01*
X-236245Y-278774D02*
Y314942D01*
X-275616Y-239404D02*
Y281134D01*
M02*
