G04*
G04 #@! TF.GenerationSoftware,Altium Limited,Altium Designer,19.1.5 (86)*
G04*
G04 Layer_Color=65535*
%FSLAX25Y25*%
%MOIN*%
G70*
G01*
G75*
G36*
X522475Y541260D02*
X522780Y541232D01*
X523086Y541205D01*
X523447Y541177D01*
X524224Y541066D01*
X525085Y540899D01*
X525946Y540649D01*
X526779Y540344D01*
X526807D01*
X526862Y540288D01*
X527001Y540260D01*
X527140Y540177D01*
X527307Y540066D01*
X527529Y539955D01*
X528001Y539677D01*
X528556Y539288D01*
X529112Y538816D01*
X529639Y538289D01*
X530112Y537650D01*
X530139Y537622D01*
X530167Y537567D01*
X530223Y537483D01*
X530306Y537345D01*
X530389Y537178D01*
X530500Y536983D01*
X530584Y536734D01*
X530722Y536484D01*
X530945Y535900D01*
X531139Y535206D01*
X531306Y534456D01*
X531389Y533623D01*
X528140Y533373D01*
Y533401D01*
X528112Y533485D01*
Y533596D01*
X528084Y533762D01*
X528029Y533984D01*
X527973Y534206D01*
X527807Y534734D01*
X527584Y535317D01*
X527251Y535928D01*
X526862Y536511D01*
X526612Y536761D01*
X526335Y537011D01*
X526307Y537039D01*
X526279Y537067D01*
X526168Y537122D01*
X526057Y537206D01*
X525890Y537289D01*
X525696Y537400D01*
X525474Y537511D01*
X525224Y537650D01*
X524919Y537761D01*
X524585Y537872D01*
X524224Y537983D01*
X523835Y538067D01*
X523391Y538150D01*
X522919Y538205D01*
X522419Y538261D01*
X521614D01*
X521392Y538233D01*
X521142D01*
X520864Y538205D01*
X520531Y538178D01*
X520198Y538122D01*
X519448Y537983D01*
X518726Y537789D01*
X518032Y537511D01*
X517698Y537317D01*
X517421Y537122D01*
X517393D01*
X517365Y537067D01*
X517198Y536928D01*
X516976Y536678D01*
X516726Y536345D01*
X516476Y535956D01*
X516254Y535484D01*
X516088Y534984D01*
X516060Y534706D01*
X516032Y534401D01*
Y534373D01*
Y534345D01*
X516060Y534179D01*
X516088Y533929D01*
X516143Y533623D01*
X516282Y533262D01*
X516449Y532874D01*
X516671Y532513D01*
X517004Y532152D01*
X517060Y532124D01*
X517115Y532068D01*
X517226Y531985D01*
X517365Y531902D01*
X517532Y531818D01*
X517754Y531707D01*
X518004Y531568D01*
X518309Y531429D01*
X518670Y531291D01*
X519087Y531152D01*
X519559Y530985D01*
X520114Y530819D01*
X520697Y530652D01*
X521364Y530458D01*
X522114Y530291D01*
X522169D01*
X522308Y530263D01*
X522503Y530208D01*
X522780Y530124D01*
X523113Y530069D01*
X523502Y529958D01*
X523919Y529874D01*
X524363Y529736D01*
X525307Y529486D01*
X526251Y529236D01*
X526696Y529097D01*
X527084Y528958D01*
X527473Y528819D01*
X527779Y528680D01*
X527807D01*
X527890Y528625D01*
X528001Y528569D01*
X528140Y528486D01*
X528334Y528403D01*
X528556Y528264D01*
X529028Y527958D01*
X529584Y527597D01*
X530112Y527153D01*
X530639Y526625D01*
X530861Y526348D01*
X531083Y526070D01*
Y526042D01*
X531139Y525987D01*
X531194Y525903D01*
X531250Y525792D01*
X531333Y525653D01*
X531417Y525459D01*
X531639Y525015D01*
X531833Y524487D01*
X532000Y523876D01*
X532111Y523182D01*
X532166Y522432D01*
Y522404D01*
Y522349D01*
Y522238D01*
X532139Y522099D01*
Y521904D01*
X532111Y521710D01*
X532028Y521182D01*
X531889Y520599D01*
X531667Y519960D01*
X531361Y519294D01*
X531194Y518933D01*
X530972Y518600D01*
Y518572D01*
X530917Y518516D01*
X530861Y518433D01*
X530750Y518294D01*
X530500Y517989D01*
X530112Y517572D01*
X529639Y517128D01*
X529056Y516656D01*
X528390Y516212D01*
X527612Y515795D01*
X527584D01*
X527501Y515739D01*
X527390Y515712D01*
X527223Y515628D01*
X527029Y515573D01*
X526779Y515489D01*
X526501Y515379D01*
X526168Y515295D01*
X525835Y515212D01*
X525446Y515101D01*
X524613Y514962D01*
X523697Y514851D01*
X522697Y514795D01*
X522364D01*
X522114Y514823D01*
X521808D01*
X521475Y514851D01*
X521086Y514879D01*
X520642Y514934D01*
X519726Y515045D01*
X518753Y515212D01*
X517782Y515462D01*
X516837Y515795D01*
X516810D01*
X516726Y515851D01*
X516615Y515906D01*
X516449Y515989D01*
X516254Y516101D01*
X516032Y516212D01*
X515504Y516545D01*
X514921Y516961D01*
X514310Y517489D01*
X513699Y518100D01*
X513172Y518822D01*
X513144Y518850D01*
X513116Y518905D01*
X513061Y519016D01*
X512977Y519183D01*
X512866Y519377D01*
X512755Y519599D01*
X512616Y519877D01*
X512505Y520183D01*
X512366Y520488D01*
X512255Y520849D01*
X512033Y521655D01*
X511867Y522515D01*
X511811Y522987D01*
X511783Y523459D01*
X514977Y523737D01*
Y523709D01*
Y523654D01*
X515005Y523543D01*
X515032Y523404D01*
X515060Y523237D01*
X515088Y523071D01*
X515199Y522599D01*
X515338Y522099D01*
X515504Y521571D01*
X515727Y521043D01*
X516004Y520544D01*
X516032Y520488D01*
X516171Y520349D01*
X516365Y520127D01*
X516643Y519849D01*
X517004Y519516D01*
X517448Y519211D01*
X517976Y518878D01*
X518587Y518572D01*
X518615D01*
X518670Y518544D01*
X518753Y518516D01*
X518892Y518461D01*
X519059Y518405D01*
X519253Y518322D01*
X519476Y518267D01*
X519726Y518211D01*
X520309Y518072D01*
X521003Y517933D01*
X521725Y517850D01*
X522530Y517822D01*
X522863D01*
X523030Y517850D01*
X523224D01*
X523669Y517906D01*
X524196Y517961D01*
X524780Y518044D01*
X525363Y518183D01*
X525918Y518378D01*
X525946D01*
X525974Y518405D01*
X526057Y518433D01*
X526168Y518489D01*
X526418Y518628D01*
X526751Y518794D01*
X527112Y519016D01*
X527501Y519294D01*
X527834Y519599D01*
X528140Y519960D01*
X528168Y520016D01*
X528251Y520127D01*
X528390Y520349D01*
X528529Y520627D01*
X528640Y520960D01*
X528779Y521321D01*
X528862Y521738D01*
X528890Y522154D01*
Y522182D01*
Y522210D01*
Y522349D01*
X528862Y522599D01*
X528806Y522876D01*
X528723Y523210D01*
X528584Y523571D01*
X528417Y523932D01*
X528168Y524265D01*
X528140Y524293D01*
X528029Y524404D01*
X527862Y524570D01*
X527612Y524792D01*
X527307Y525015D01*
X526890Y525265D01*
X526418Y525515D01*
X525863Y525765D01*
X525807Y525792D01*
X525752Y525820D01*
X525640Y525848D01*
X525529Y525876D01*
X525363Y525931D01*
X525141Y526014D01*
X524919Y526070D01*
X524613Y526153D01*
X524307Y526264D01*
X523919Y526348D01*
X523502Y526459D01*
X523030Y526597D01*
X522530Y526709D01*
X521947Y526875D01*
X521308Y527014D01*
X521281D01*
X521170Y527042D01*
X520975Y527097D01*
X520753Y527153D01*
X520447Y527236D01*
X520114Y527320D01*
X519781Y527431D01*
X519392Y527542D01*
X518559Y527792D01*
X517754Y528069D01*
X517365Y528208D01*
X517004Y528347D01*
X516671Y528486D01*
X516393Y528625D01*
X516365D01*
X516310Y528680D01*
X516226Y528736D01*
X516088Y528791D01*
X515754Y528986D01*
X515366Y529263D01*
X514893Y529625D01*
X514449Y530013D01*
X514005Y530485D01*
X513644Y530985D01*
Y531013D01*
X513616Y531041D01*
X513560Y531124D01*
X513505Y531235D01*
X513366Y531541D01*
X513200Y531929D01*
X513033Y532402D01*
X512894Y532957D01*
X512783Y533568D01*
X512755Y534206D01*
Y534234D01*
Y534290D01*
Y534401D01*
X512783Y534540D01*
Y534706D01*
X512811Y534901D01*
X512894Y535401D01*
X513033Y535956D01*
X513200Y536539D01*
X513477Y537178D01*
X513838Y537817D01*
Y537844D01*
X513894Y537900D01*
X513949Y537983D01*
X514033Y538094D01*
X514310Y538400D01*
X514671Y538789D01*
X515116Y539205D01*
X515671Y539622D01*
X516310Y540038D01*
X517060Y540399D01*
X517087D01*
X517143Y540427D01*
X517282Y540483D01*
X517421Y540538D01*
X517615Y540594D01*
X517865Y540677D01*
X518143Y540760D01*
X518448Y540844D01*
X518781Y540927D01*
X519142Y541010D01*
X519920Y541149D01*
X520809Y541260D01*
X521753Y541288D01*
X522225D01*
X522475Y541260D01*
D02*
G37*
G36*
X393900Y515212D02*
X390512D01*
Y527292D01*
X377210D01*
Y515212D01*
X373822D01*
Y540844D01*
X377210D01*
Y530319D01*
X390512D01*
Y540844D01*
X393900D01*
Y515212D01*
D02*
G37*
G36*
X497260D02*
X493760D01*
X480320Y535317D01*
Y515212D01*
X477071D01*
Y540844D01*
X480542D01*
X494010Y520710D01*
Y540844D01*
X497260D01*
Y515212D01*
D02*
G37*
G36*
X581430D02*
X577931D01*
X567990Y540844D01*
X571683D01*
X578348Y522210D01*
Y522182D01*
X578376Y522099D01*
X578431Y521988D01*
X578487Y521821D01*
X578542Y521627D01*
X578626Y521405D01*
X578709Y521155D01*
X578820Y520849D01*
X579014Y520211D01*
X579237Y519516D01*
X579459Y518766D01*
X579681Y518017D01*
Y518044D01*
X579709Y518100D01*
X579736Y518239D01*
X579792Y518378D01*
X579847Y518572D01*
X579903Y518794D01*
X579986Y519044D01*
X580070Y519322D01*
X580264Y519960D01*
X580514Y520682D01*
X580792Y521432D01*
X581069Y522210D01*
X587984Y540844D01*
X591428D01*
X581430Y515212D01*
D02*
G37*
G36*
X613116Y537817D02*
X597954D01*
Y529986D01*
X612144D01*
Y526959D01*
X597954D01*
Y518239D01*
X613699D01*
Y515212D01*
X594566D01*
Y540844D01*
X613116D01*
Y537817D01*
D02*
G37*
G36*
X565352D02*
X550189D01*
Y529986D01*
X564380D01*
Y526959D01*
X550189D01*
Y518239D01*
X565935D01*
Y515212D01*
X546801D01*
Y540844D01*
X565352D01*
Y537817D01*
D02*
G37*
G36*
X540747Y515212D02*
X537359D01*
Y540844D01*
X540747D01*
Y515212D01*
D02*
G37*
G36*
X445746Y537817D02*
X437304D01*
Y515212D01*
X433916D01*
Y537817D01*
X425474D01*
Y540844D01*
X445746D01*
Y537817D01*
D02*
G37*
G36*
X360909Y540816D02*
X361548Y540788D01*
X362186Y540732D01*
X362797Y540677D01*
X363103Y540649D01*
X363353Y540594D01*
X363380D01*
X363436Y540566D01*
X363547D01*
X363658Y540538D01*
X363825Y540483D01*
X364019Y540455D01*
X364463Y540316D01*
X364963Y540149D01*
X365491Y539927D01*
X366019Y539677D01*
X366518Y539372D01*
X366546D01*
X366574Y539344D01*
X366740Y539205D01*
X366963Y539011D01*
X367268Y538733D01*
X367574Y538400D01*
X367935Y537956D01*
X368268Y537483D01*
X368573Y536900D01*
Y536872D01*
X368601Y536817D01*
X368657Y536734D01*
X368712Y536622D01*
X368768Y536484D01*
X368823Y536289D01*
X368990Y535873D01*
X369129Y535345D01*
X369268Y534762D01*
X369351Y534095D01*
X369379Y533401D01*
Y533373D01*
Y533262D01*
Y533096D01*
X369351Y532846D01*
X369323Y532568D01*
X369268Y532263D01*
X369212Y531902D01*
X369129Y531485D01*
X369018Y531069D01*
X368879Y530624D01*
X368712Y530180D01*
X368490Y529708D01*
X368268Y529236D01*
X367990Y528764D01*
X367657Y528319D01*
X367296Y527875D01*
X367268Y527847D01*
X367185Y527792D01*
X367074Y527681D01*
X366879Y527514D01*
X366657Y527347D01*
X366352Y527153D01*
X365991Y526959D01*
X365574Y526764D01*
X365074Y526542D01*
X364547Y526348D01*
X363908Y526153D01*
X363242Y525987D01*
X362464Y525848D01*
X361631Y525737D01*
X360742Y525653D01*
X359742Y525626D01*
X353189D01*
Y515212D01*
X349801D01*
Y540844D01*
X360353D01*
X360909Y540816D01*
D02*
G37*
G36*
X461075Y541260D02*
X461409Y541232D01*
X461769Y541205D01*
X462158Y541149D01*
X462603Y541066D01*
X463102Y540982D01*
X463602Y540871D01*
X464130Y540732D01*
X464685Y540566D01*
X465241Y540372D01*
X465796Y540149D01*
X466324Y539899D01*
X466879Y539594D01*
X466907Y539566D01*
X467018Y539511D01*
X467157Y539427D01*
X467351Y539288D01*
X467601Y539122D01*
X467851Y538900D01*
X468157Y538650D01*
X468490Y538372D01*
X468851Y538039D01*
X469212Y537678D01*
X469573Y537289D01*
X469934Y536872D01*
X470267Y536428D01*
X470628Y535928D01*
X470934Y535401D01*
X471239Y534845D01*
X471267Y534818D01*
X471295Y534706D01*
X471378Y534540D01*
X471461Y534318D01*
X471600Y534040D01*
X471711Y533679D01*
X471850Y533290D01*
X471989Y532846D01*
X472128Y532374D01*
X472267Y531846D01*
X472405Y531263D01*
X472516Y530680D01*
X472600Y530041D01*
X472683Y529375D01*
X472711Y528708D01*
X472739Y527986D01*
Y527930D01*
Y527819D01*
Y527597D01*
X472711Y527320D01*
X472683Y526986D01*
X472655Y526597D01*
X472600Y526153D01*
X472544Y525653D01*
X472461Y525126D01*
X472350Y524570D01*
X472239Y523987D01*
X472072Y523404D01*
X471878Y522793D01*
X471683Y522210D01*
X471433Y521599D01*
X471156Y521016D01*
X471128Y520988D01*
X471072Y520877D01*
X470989Y520710D01*
X470878Y520516D01*
X470711Y520266D01*
X470517Y519960D01*
X470267Y519627D01*
X470017Y519266D01*
X469712Y518905D01*
X469379Y518516D01*
X468990Y518128D01*
X468601Y517739D01*
X468184Y517378D01*
X467712Y517017D01*
X467212Y516656D01*
X466685Y516350D01*
X466657Y516323D01*
X466546Y516295D01*
X466407Y516212D01*
X466185Y516101D01*
X465907Y515989D01*
X465602Y515851D01*
X465241Y515712D01*
X464824Y515573D01*
X464380Y515434D01*
X463908Y515295D01*
X463380Y515156D01*
X462852Y515045D01*
X461686Y514851D01*
X461075Y514823D01*
X460464Y514795D01*
X460103D01*
X459853Y514823D01*
X459548Y514851D01*
X459159Y514879D01*
X458770Y514934D01*
X458298Y515018D01*
X457826Y515101D01*
X457299Y515212D01*
X456771Y515351D01*
X456215Y515517D01*
X455660Y515712D01*
X455105Y515962D01*
X454549Y516212D01*
X453994Y516517D01*
X453966Y516545D01*
X453883Y516600D01*
X453716Y516711D01*
X453522Y516850D01*
X453300Y517017D01*
X453022Y517239D01*
X452716Y517489D01*
X452383Y517767D01*
X452022Y518100D01*
X451689Y518461D01*
X451328Y518850D01*
X450967Y519266D01*
X450606Y519738D01*
X450273Y520211D01*
X449967Y520738D01*
X449662Y521293D01*
X449634Y521321D01*
X449606Y521432D01*
X449523Y521599D01*
X449440Y521821D01*
X449329Y522099D01*
X449218Y522432D01*
X449079Y522793D01*
X448940Y523237D01*
X448801Y523682D01*
X448662Y524182D01*
X448551Y524709D01*
X448440Y525265D01*
X448273Y526431D01*
X448245Y527070D01*
X448218Y527681D01*
Y527708D01*
Y527764D01*
Y527847D01*
Y527958D01*
X448245Y528125D01*
Y528292D01*
X448273Y528736D01*
X448329Y529263D01*
X448412Y529902D01*
X448495Y530569D01*
X448634Y531319D01*
X448829Y532124D01*
X449051Y532929D01*
X449329Y533762D01*
X449662Y534595D01*
X450051Y535428D01*
X450495Y536206D01*
X451022Y536983D01*
X451633Y537678D01*
X451661Y537706D01*
X451800Y537844D01*
X451994Y538011D01*
X452244Y538233D01*
X452605Y538511D01*
X452994Y538816D01*
X453466Y539150D01*
X454022Y539483D01*
X454633Y539816D01*
X455299Y540149D01*
X456021Y540455D01*
X456826Y540732D01*
X457659Y540955D01*
X458548Y541121D01*
X459492Y541260D01*
X460492Y541288D01*
X460825D01*
X461075Y541260D01*
D02*
G37*
G36*
X411367D02*
X411700Y541232D01*
X412061Y541205D01*
X412450Y541149D01*
X412894Y541066D01*
X413394Y540982D01*
X413894Y540871D01*
X414422Y540732D01*
X414977Y540566D01*
X415532Y540372D01*
X416088Y540149D01*
X416615Y539899D01*
X417171Y539594D01*
X417199Y539566D01*
X417310Y539511D01*
X417449Y539427D01*
X417643Y539288D01*
X417893Y539122D01*
X418143Y538900D01*
X418448Y538650D01*
X418782Y538372D01*
X419142Y538039D01*
X419503Y537678D01*
X419865Y537289D01*
X420226Y536872D01*
X420559Y536428D01*
X420920Y535928D01*
X421225Y535401D01*
X421531Y534845D01*
X421559Y534818D01*
X421586Y534706D01*
X421670Y534540D01*
X421753Y534318D01*
X421892Y534040D01*
X422003Y533679D01*
X422142Y533290D01*
X422281Y532846D01*
X422419Y532374D01*
X422558Y531846D01*
X422697Y531263D01*
X422808Y530680D01*
X422892Y530041D01*
X422975Y529375D01*
X423003Y528708D01*
X423030Y527986D01*
Y527930D01*
Y527819D01*
Y527597D01*
X423003Y527320D01*
X422975Y526986D01*
X422947Y526597D01*
X422892Y526153D01*
X422836Y525653D01*
X422753Y525126D01*
X422642Y524570D01*
X422531Y523987D01*
X422364Y523404D01*
X422169Y522793D01*
X421975Y522210D01*
X421725Y521599D01*
X421448Y521016D01*
X421420Y520988D01*
X421364Y520877D01*
X421281Y520710D01*
X421170Y520516D01*
X421003Y520266D01*
X420809Y519960D01*
X420559Y519627D01*
X420309Y519266D01*
X420003Y518905D01*
X419670Y518516D01*
X419281Y518128D01*
X418893Y517739D01*
X418476Y517378D01*
X418004Y517017D01*
X417504Y516656D01*
X416976Y516350D01*
X416949Y516323D01*
X416838Y516295D01*
X416699Y516212D01*
X416477Y516101D01*
X416199Y515989D01*
X415894Y515851D01*
X415532Y515712D01*
X415116Y515573D01*
X414672Y515434D01*
X414199Y515295D01*
X413672Y515156D01*
X413144Y515045D01*
X411978Y514851D01*
X411367Y514823D01*
X410756Y514795D01*
X410395D01*
X410145Y514823D01*
X409840Y514851D01*
X409451Y514879D01*
X409062Y514934D01*
X408590Y515018D01*
X408118Y515101D01*
X407590Y515212D01*
X407063Y515351D01*
X406507Y515517D01*
X405952Y515712D01*
X405396Y515962D01*
X404841Y516212D01*
X404286Y516517D01*
X404258Y516545D01*
X404175Y516600D01*
X404008Y516711D01*
X403814Y516850D01*
X403591Y517017D01*
X403314Y517239D01*
X403008Y517489D01*
X402675Y517767D01*
X402314Y518100D01*
X401981Y518461D01*
X401620Y518850D01*
X401259Y519266D01*
X400898Y519738D01*
X400564Y520211D01*
X400259Y520738D01*
X399954Y521293D01*
X399926Y521321D01*
X399898Y521432D01*
X399815Y521599D01*
X399731Y521821D01*
X399620Y522099D01*
X399509Y522432D01*
X399370Y522793D01*
X399231Y523237D01*
X399093Y523682D01*
X398954Y524182D01*
X398843Y524709D01*
X398732Y525265D01*
X398565Y526431D01*
X398537Y527070D01*
X398509Y527681D01*
Y527708D01*
Y527764D01*
Y527847D01*
Y527958D01*
X398537Y528125D01*
Y528292D01*
X398565Y528736D01*
X398621Y529263D01*
X398704Y529902D01*
X398787Y530569D01*
X398926Y531319D01*
X399120Y532124D01*
X399342Y532929D01*
X399620Y533762D01*
X399954Y534595D01*
X400342Y535428D01*
X400787Y536206D01*
X401314Y536983D01*
X401925Y537678D01*
X401953Y537706D01*
X402092Y537844D01*
X402286Y538011D01*
X402536Y538233D01*
X402897Y538511D01*
X403286Y538816D01*
X403758Y539150D01*
X404313Y539483D01*
X404924Y539816D01*
X405591Y540149D01*
X406313Y540455D01*
X407118Y540732D01*
X407951Y540955D01*
X408840Y541121D01*
X409784Y541260D01*
X410784Y541288D01*
X411117D01*
X411367Y541260D01*
D02*
G37*
G36*
X483986Y475245D02*
X480848D01*
Y478828D01*
X483986D01*
Y475245D01*
D02*
G37*
G36*
X497926Y472163D02*
X498093D01*
X498509Y472107D01*
X498981Y472052D01*
X499509Y471941D01*
X500036Y471774D01*
X500564Y471580D01*
X500592D01*
X500620Y471552D01*
X500786Y471468D01*
X501036Y471330D01*
X501369Y471163D01*
X501703Y470913D01*
X502064Y470663D01*
X502397Y470358D01*
X502675Y469997D01*
X502703Y469941D01*
X502786Y469830D01*
X502897Y469608D01*
X503063Y469330D01*
X503230Y468997D01*
X503369Y468608D01*
X503536Y468164D01*
X503647Y467664D01*
Y467636D01*
X503674Y467497D01*
X503702Y467275D01*
X503758Y466970D01*
X503786Y466553D01*
Y466303D01*
X503813Y466026D01*
Y465720D01*
X503841Y465359D01*
Y464998D01*
Y464609D01*
Y453196D01*
X500703D01*
Y464498D01*
Y464526D01*
Y464582D01*
Y464693D01*
Y464804D01*
Y464970D01*
X500675Y465165D01*
X500647Y465581D01*
X500620Y466053D01*
X500536Y466526D01*
X500453Y466970D01*
X500314Y467359D01*
X500286Y467414D01*
X500231Y467525D01*
X500148Y467692D01*
X500009Y467914D01*
X499842Y468164D01*
X499620Y468414D01*
X499342Y468664D01*
X499009Y468886D01*
X498981Y468914D01*
X498842Y468969D01*
X498648Y469080D01*
X498398Y469191D01*
X498065Y469275D01*
X497704Y469386D01*
X497287Y469441D01*
X496815Y469469D01*
X496621D01*
X496482Y469441D01*
X496315D01*
X496093Y469414D01*
X495621Y469303D01*
X495093Y469164D01*
X494510Y468941D01*
X493927Y468608D01*
X493622Y468414D01*
X493344Y468192D01*
X493316Y468164D01*
X493288Y468136D01*
X493205Y468053D01*
X493122Y467942D01*
X493011Y467775D01*
X492900Y467608D01*
X492761Y467386D01*
X492622Y467109D01*
X492483Y466803D01*
X492344Y466442D01*
X492233Y466053D01*
X492122Y465609D01*
X492039Y465109D01*
X491956Y464582D01*
X491928Y463971D01*
X491900Y463332D01*
Y453196D01*
X488762D01*
Y471774D01*
X491595D01*
Y469108D01*
X491622Y469136D01*
X491678Y469247D01*
X491817Y469386D01*
X491983Y469580D01*
X492178Y469830D01*
X492428Y470080D01*
X492733Y470358D01*
X493094Y470663D01*
X493483Y470941D01*
X493927Y471219D01*
X494399Y471468D01*
X494927Y471719D01*
X495510Y471913D01*
X496121Y472052D01*
X496788Y472163D01*
X497482Y472191D01*
X497759D01*
X497926Y472163D01*
D02*
G37*
G36*
X618059D02*
X618309Y472135D01*
X618559Y472107D01*
X618864Y472052D01*
X619198Y471996D01*
X619864Y471802D01*
X620586Y471524D01*
X620919Y471357D01*
X621253Y471163D01*
X621586Y470913D01*
X621864Y470636D01*
X621891Y470608D01*
X621919Y470552D01*
X622002Y470469D01*
X622086Y470358D01*
X622225Y470191D01*
X622336Y469997D01*
X622474Y469747D01*
X622613Y469469D01*
X622752Y469164D01*
X622891Y468830D01*
X623030Y468442D01*
X623141Y468025D01*
X623224Y467553D01*
X623308Y467053D01*
X623335Y466526D01*
X623363Y465942D01*
Y453196D01*
X620225D01*
Y464887D01*
Y464915D01*
Y464970D01*
Y465082D01*
Y465193D01*
X620197Y465526D01*
Y465942D01*
X620142Y466387D01*
X620086Y466831D01*
X620031Y467247D01*
X619920Y467608D01*
Y467636D01*
X619864Y467747D01*
X619781Y467886D01*
X619670Y468081D01*
X619503Y468303D01*
X619337Y468525D01*
X619087Y468747D01*
X618809Y468941D01*
X618781Y468969D01*
X618670Y469025D01*
X618503Y469108D01*
X618281Y469219D01*
X618004Y469303D01*
X617670Y469386D01*
X617309Y469441D01*
X616921Y469469D01*
X616726D01*
X616587Y469441D01*
X616421D01*
X616226Y469414D01*
X615782Y469303D01*
X615254Y469164D01*
X614699Y468914D01*
X614171Y468608D01*
X613894Y468386D01*
X613644Y468164D01*
Y468136D01*
X613588Y468108D01*
X613532Y468025D01*
X613449Y467914D01*
X613338Y467775D01*
X613227Y467608D01*
X613116Y467386D01*
X613005Y467164D01*
X612866Y466887D01*
X612755Y466581D01*
X612644Y466220D01*
X612533Y465859D01*
X612450Y465443D01*
X612394Y464970D01*
X612366Y464498D01*
X612338Y463971D01*
Y453196D01*
X609200D01*
Y465248D01*
Y465276D01*
Y465331D01*
Y465443D01*
Y465609D01*
X609173Y465776D01*
Y465970D01*
X609117Y466442D01*
X609006Y466942D01*
X608867Y467470D01*
X608673Y467970D01*
X608423Y468414D01*
X608395Y468469D01*
X608284Y468580D01*
X608090Y468747D01*
X607840Y468941D01*
X607479Y469136D01*
X607062Y469303D01*
X606534Y469414D01*
X605924Y469469D01*
X605701D01*
X605451Y469441D01*
X605118Y469386D01*
X604729Y469303D01*
X604313Y469164D01*
X603896Y468997D01*
X603452Y468747D01*
X603397Y468719D01*
X603258Y468608D01*
X603063Y468469D01*
X602841Y468220D01*
X602563Y467942D01*
X602286Y467581D01*
X602036Y467164D01*
X601814Y466692D01*
Y466664D01*
X601786Y466637D01*
X601758Y466553D01*
X601730Y466442D01*
X601702Y466303D01*
X601647Y466137D01*
X601619Y465942D01*
X601564Y465720D01*
X601508Y465443D01*
X601480Y465165D01*
X601425Y464859D01*
X601397Y464498D01*
X601369Y464137D01*
X601341Y463721D01*
X601314Y463304D01*
Y462832D01*
Y453196D01*
X598176D01*
Y471774D01*
X600981D01*
Y469191D01*
X601036Y469219D01*
X601147Y469386D01*
X601341Y469636D01*
X601619Y469941D01*
X601953Y470302D01*
X602341Y470663D01*
X602785Y471024D01*
X603313Y471357D01*
X603341D01*
X603369Y471385D01*
X603452Y471441D01*
X603563Y471496D01*
X603702Y471552D01*
X603869Y471635D01*
X604257Y471774D01*
X604757Y471941D01*
X605313Y472052D01*
X605951Y472163D01*
X606618Y472191D01*
X606951D01*
X607145Y472163D01*
X607340Y472135D01*
X607812Y472080D01*
X608340Y471968D01*
X608895Y471830D01*
X609450Y471607D01*
X609978Y471330D01*
X610006D01*
X610034Y471302D01*
X610200Y471163D01*
X610422Y470969D01*
X610728Y470719D01*
X611033Y470358D01*
X611339Y469969D01*
X611616Y469497D01*
X611866Y468941D01*
X611894Y468969D01*
X611977Y469080D01*
X612088Y469247D01*
X612283Y469441D01*
X612477Y469691D01*
X612755Y469969D01*
X613061Y470274D01*
X613421Y470580D01*
X613810Y470858D01*
X614255Y471163D01*
X614727Y471441D01*
X615227Y471691D01*
X615782Y471885D01*
X616365Y472052D01*
X616976Y472163D01*
X617615Y472191D01*
X617892D01*
X618059Y472163D01*
D02*
G37*
G36*
X588234D02*
X588484Y472135D01*
X588734Y472107D01*
X589039Y472052D01*
X589373Y471996D01*
X590039Y471802D01*
X590761Y471524D01*
X591094Y471357D01*
X591428Y471163D01*
X591761Y470913D01*
X592039Y470636D01*
X592066Y470608D01*
X592094Y470552D01*
X592177Y470469D01*
X592261Y470358D01*
X592400Y470191D01*
X592511Y469997D01*
X592650Y469747D01*
X592788Y469469D01*
X592927Y469164D01*
X593066Y468830D01*
X593205Y468442D01*
X593316Y468025D01*
X593399Y467553D01*
X593483Y467053D01*
X593510Y466526D01*
X593538Y465942D01*
Y453196D01*
X590400D01*
Y464887D01*
Y464915D01*
Y464970D01*
Y465082D01*
Y465193D01*
X590372Y465526D01*
Y465942D01*
X590317Y466387D01*
X590261Y466831D01*
X590206Y467247D01*
X590095Y467608D01*
Y467636D01*
X590039Y467747D01*
X589956Y467886D01*
X589845Y468081D01*
X589678Y468303D01*
X589511Y468525D01*
X589262Y468747D01*
X588984Y468941D01*
X588956Y468969D01*
X588845Y469025D01*
X588678Y469108D01*
X588456Y469219D01*
X588178Y469303D01*
X587845Y469386D01*
X587484Y469441D01*
X587095Y469469D01*
X586901D01*
X586762Y469441D01*
X586596D01*
X586401Y469414D01*
X585957Y469303D01*
X585429Y469164D01*
X584874Y468914D01*
X584346Y468608D01*
X584069Y468386D01*
X583819Y468164D01*
Y468136D01*
X583763Y468108D01*
X583708Y468025D01*
X583624Y467914D01*
X583513Y467775D01*
X583402Y467608D01*
X583291Y467386D01*
X583180Y467164D01*
X583041Y466887D01*
X582930Y466581D01*
X582819Y466220D01*
X582708Y465859D01*
X582624Y465443D01*
X582569Y464970D01*
X582541Y464498D01*
X582514Y463971D01*
Y453196D01*
X579375D01*
Y465248D01*
Y465276D01*
Y465331D01*
Y465443D01*
Y465609D01*
X579348Y465776D01*
Y465970D01*
X579292Y466442D01*
X579181Y466942D01*
X579042Y467470D01*
X578848Y467970D01*
X578598Y468414D01*
X578570Y468469D01*
X578459Y468580D01*
X578265Y468747D01*
X578015Y468941D01*
X577654Y469136D01*
X577237Y469303D01*
X576710Y469414D01*
X576099Y469469D01*
X575876D01*
X575627Y469441D01*
X575293Y469386D01*
X574904Y469303D01*
X574488Y469164D01*
X574071Y468997D01*
X573627Y468747D01*
X573571Y468719D01*
X573433Y468608D01*
X573238Y468469D01*
X573016Y468220D01*
X572738Y467942D01*
X572461Y467581D01*
X572211Y467164D01*
X571989Y466692D01*
Y466664D01*
X571961Y466637D01*
X571933Y466553D01*
X571905Y466442D01*
X571877Y466303D01*
X571822Y466137D01*
X571794Y465942D01*
X571739Y465720D01*
X571683Y465443D01*
X571655Y465165D01*
X571600Y464859D01*
X571572Y464498D01*
X571544Y464137D01*
X571517Y463721D01*
X571489Y463304D01*
Y462832D01*
Y453196D01*
X568351D01*
Y471774D01*
X571156D01*
Y469191D01*
X571211Y469219D01*
X571322Y469386D01*
X571517Y469636D01*
X571794Y469941D01*
X572127Y470302D01*
X572516Y470663D01*
X572961Y471024D01*
X573488Y471357D01*
X573516D01*
X573544Y471385D01*
X573627Y471441D01*
X573738Y471496D01*
X573877Y471552D01*
X574044Y471635D01*
X574432Y471774D01*
X574932Y471941D01*
X575488Y472052D01*
X576126Y472163D01*
X576793Y472191D01*
X577126D01*
X577320Y472163D01*
X577515Y472135D01*
X577987Y472080D01*
X578515Y471968D01*
X579070Y471830D01*
X579625Y471607D01*
X580153Y471330D01*
X580181D01*
X580208Y471302D01*
X580375Y471163D01*
X580597Y470969D01*
X580903Y470719D01*
X581208Y470358D01*
X581514Y469969D01*
X581791Y469497D01*
X582041Y468941D01*
X582069Y468969D01*
X582152Y469080D01*
X582264Y469247D01*
X582458Y469441D01*
X582652Y469691D01*
X582930Y469969D01*
X583236Y470274D01*
X583597Y470580D01*
X583985Y470858D01*
X584430Y471163D01*
X584902Y471441D01*
X585401Y471691D01*
X585957Y471885D01*
X586540Y472052D01*
X587151Y472163D01*
X587790Y472191D01*
X588067D01*
X588234Y472163D01*
D02*
G37*
G36*
X389318D02*
X389567Y472135D01*
X389873Y472107D01*
X390206Y472052D01*
X390567Y471996D01*
X391345Y471802D01*
X392178Y471524D01*
X392594Y471357D01*
X393011Y471163D01*
X393400Y470913D01*
X393761Y470636D01*
X393789Y470608D01*
X393844Y470552D01*
X393955Y470469D01*
X394066Y470358D01*
X394233Y470191D01*
X394399Y469997D01*
X394594Y469775D01*
X394788Y469525D01*
X395010Y469219D01*
X395205Y468914D01*
X395427Y468553D01*
X395621Y468164D01*
X395788Y467747D01*
X395955Y467303D01*
X396121Y466803D01*
X396232Y466303D01*
X393178Y465831D01*
Y465859D01*
X393150Y465914D01*
X393122Y465998D01*
X393094Y466137D01*
X392983Y466470D01*
X392817Y466887D01*
X392594Y467331D01*
X392344Y467803D01*
X392011Y468247D01*
X391622Y468636D01*
X391567Y468692D01*
X391428Y468803D01*
X391178Y468941D01*
X390873Y469136D01*
X390484Y469303D01*
X390040Y469469D01*
X389512Y469580D01*
X388957Y469608D01*
X388734D01*
X388568Y469580D01*
X388346Y469552D01*
X388123Y469525D01*
X387568Y469386D01*
X386957Y469191D01*
X386652Y469053D01*
X386318Y468886D01*
X386013Y468692D01*
X385680Y468442D01*
X385374Y468192D01*
X385097Y467886D01*
X385069Y467858D01*
X385041Y467803D01*
X384958Y467720D01*
X384874Y467553D01*
X384763Y467386D01*
X384624Y467164D01*
X384486Y466887D01*
X384374Y466581D01*
X384236Y466220D01*
X384097Y465831D01*
X383958Y465387D01*
X383847Y464887D01*
X383764Y464359D01*
X383680Y463804D01*
X383652Y463165D01*
X383625Y462499D01*
Y462471D01*
Y462332D01*
Y462138D01*
X383652Y461888D01*
X383680Y461582D01*
X383708Y461221D01*
X383736Y460833D01*
X383791Y460416D01*
X383958Y459527D01*
X384236Y458611D01*
X384374Y458194D01*
X384569Y457778D01*
X384791Y457389D01*
X385041Y457056D01*
X385069Y457028D01*
X385097Y456973D01*
X385180Y456889D01*
X385291Y456806D01*
X385457Y456667D01*
X385624Y456528D01*
X385819Y456362D01*
X386041Y456223D01*
X386596Y455890D01*
X387235Y455640D01*
X387596Y455529D01*
X387957Y455445D01*
X388373Y455390D01*
X388790Y455362D01*
X388957D01*
X389095Y455390D01*
X389262D01*
X389429Y455417D01*
X389873Y455501D01*
X390345Y455640D01*
X390873Y455834D01*
X391372Y456112D01*
X391872Y456473D01*
X391900Y456500D01*
X391928Y456528D01*
X392067Y456695D01*
X392289Y456973D01*
X392400Y457139D01*
X392539Y457334D01*
X392678Y457584D01*
X392817Y457833D01*
X392928Y458111D01*
X393067Y458444D01*
X393178Y458778D01*
X393289Y459166D01*
X393372Y459555D01*
X393455Y460000D01*
X396538Y459583D01*
Y459555D01*
X396510Y459444D01*
X396482Y459277D01*
X396427Y459055D01*
X396343Y458778D01*
X396260Y458472D01*
X396149Y458139D01*
X396010Y457750D01*
X395677Y456973D01*
X395455Y456556D01*
X395205Y456140D01*
X394955Y455723D01*
X394649Y455306D01*
X394288Y454945D01*
X393927Y454584D01*
X393900Y454557D01*
X393844Y454501D01*
X393705Y454418D01*
X393566Y454307D01*
X393344Y454168D01*
X393122Y454001D01*
X392817Y453862D01*
X392511Y453696D01*
X392150Y453501D01*
X391761Y453363D01*
X391345Y453196D01*
X390900Y453057D01*
X390401Y452946D01*
X389901Y452863D01*
X389373Y452807D01*
X388818Y452779D01*
X388651D01*
X388457Y452807D01*
X388179D01*
X387874Y452863D01*
X387485Y452918D01*
X387068Y452974D01*
X386624Y453085D01*
X386152Y453224D01*
X385652Y453390D01*
X385152Y453585D01*
X384624Y453835D01*
X384125Y454112D01*
X383625Y454446D01*
X383153Y454807D01*
X382708Y455251D01*
X382681Y455279D01*
X382597Y455362D01*
X382486Y455501D01*
X382347Y455723D01*
X382181Y455973D01*
X381986Y456278D01*
X381764Y456667D01*
X381570Y457084D01*
X381348Y457556D01*
X381125Y458083D01*
X380931Y458667D01*
X380764Y459305D01*
X380626Y460000D01*
X380515Y460749D01*
X380431Y461555D01*
X380403Y462388D01*
Y462416D01*
Y462527D01*
Y462693D01*
X380431Y462888D01*
Y463165D01*
X380459Y463471D01*
X380487Y463804D01*
X380515Y464193D01*
X380653Y464998D01*
X380820Y465887D01*
X381042Y466803D01*
X381375Y467664D01*
Y467692D01*
X381431Y467775D01*
X381486Y467886D01*
X381570Y468025D01*
X381681Y468220D01*
X381792Y468442D01*
X382125Y468941D01*
X382542Y469469D01*
X383069Y470052D01*
X383680Y470580D01*
X384402Y471052D01*
X384430D01*
X384486Y471107D01*
X384597Y471163D01*
X384763Y471219D01*
X384958Y471330D01*
X385180Y471413D01*
X385430Y471524D01*
X385707Y471635D01*
X386041Y471719D01*
X386374Y471830D01*
X387124Y472024D01*
X387957Y472135D01*
X388818Y472191D01*
X389123D01*
X389318Y472163D01*
D02*
G37*
G36*
X544468Y476023D02*
X544441Y475995D01*
X544357Y475912D01*
X544219Y475745D01*
X544052Y475551D01*
X543830Y475273D01*
X543552Y474968D01*
X543274Y474607D01*
X542941Y474190D01*
X542580Y473718D01*
X542191Y473190D01*
X541775Y472607D01*
X541358Y471996D01*
X540942Y471357D01*
X540497Y470636D01*
X540025Y469886D01*
X539581Y469108D01*
X539553Y469053D01*
X539470Y468914D01*
X539359Y468692D01*
X539192Y468358D01*
X538998Y467970D01*
X538748Y467497D01*
X538498Y466970D01*
X538220Y466387D01*
X537943Y465748D01*
X537637Y465054D01*
X537332Y464304D01*
X537026Y463554D01*
X536721Y462749D01*
X536415Y461916D01*
X535888Y460222D01*
Y460194D01*
X535860Y460083D01*
X535804Y459889D01*
X535749Y459666D01*
X535666Y459361D01*
X535582Y459000D01*
X535471Y458583D01*
X535388Y458139D01*
X535277Y457639D01*
X535193Y457084D01*
X535082Y456500D01*
X534999Y455890D01*
X534888Y455251D01*
X534805Y454584D01*
X534693Y453196D01*
X531472D01*
Y453224D01*
Y453335D01*
Y453501D01*
X531500Y453723D01*
X531528Y454029D01*
X531556Y454362D01*
X531583Y454779D01*
X531639Y455223D01*
X531694Y455751D01*
X531778Y456278D01*
X531861Y456889D01*
X531972Y457528D01*
X532111Y458222D01*
X532250Y458944D01*
X532444Y459694D01*
X532639Y460472D01*
X532666Y460527D01*
X532694Y460666D01*
X532750Y460888D01*
X532861Y461194D01*
X532972Y461582D01*
X533111Y462054D01*
X533277Y462554D01*
X533472Y463110D01*
X533694Y463721D01*
X533944Y464387D01*
X534194Y465082D01*
X534499Y465776D01*
X535138Y467247D01*
X535888Y468747D01*
X535915Y468803D01*
X535999Y468914D01*
X536110Y469136D01*
X536249Y469414D01*
X536471Y469747D01*
X536693Y470136D01*
X536971Y470580D01*
X537248Y471080D01*
X537582Y471580D01*
X537943Y472135D01*
X538720Y473246D01*
X539553Y474384D01*
X539998Y474940D01*
X540442Y475467D01*
X527890D01*
Y478494D01*
X544468D01*
Y476023D01*
D02*
G37*
G36*
X483986Y453196D02*
X480848D01*
Y471774D01*
X483986D01*
Y453196D01*
D02*
G37*
G36*
X448523Y478800D02*
X449162Y478772D01*
X449801Y478717D01*
X450412Y478661D01*
X450717Y478633D01*
X450967Y478578D01*
X450995D01*
X451050Y478550D01*
X451161D01*
X451272Y478522D01*
X451439Y478467D01*
X451633Y478439D01*
X452078Y478300D01*
X452578Y478133D01*
X453105Y477911D01*
X453633Y477661D01*
X454133Y477356D01*
X454160D01*
X454188Y477328D01*
X454355Y477189D01*
X454577Y476995D01*
X454882Y476717D01*
X455188Y476384D01*
X455549Y475940D01*
X455882Y475467D01*
X456188Y474884D01*
Y474857D01*
X456215Y474801D01*
X456271Y474718D01*
X456327Y474607D01*
X456382Y474468D01*
X456438Y474273D01*
X456604Y473857D01*
X456743Y473329D01*
X456882Y472746D01*
X456965Y472080D01*
X456993Y471385D01*
Y471357D01*
Y471246D01*
Y471080D01*
X456965Y470830D01*
X456938Y470552D01*
X456882Y470247D01*
X456826Y469886D01*
X456743Y469469D01*
X456632Y469053D01*
X456493Y468608D01*
X456327Y468164D01*
X456104Y467692D01*
X455882Y467220D01*
X455605Y466748D01*
X455271Y466303D01*
X454910Y465859D01*
X454882Y465831D01*
X454799Y465776D01*
X454688Y465665D01*
X454494Y465498D01*
X454272Y465331D01*
X453966Y465137D01*
X453605Y464943D01*
X453189Y464748D01*
X452689Y464526D01*
X452161Y464332D01*
X451522Y464137D01*
X450856Y463971D01*
X450078Y463832D01*
X449245Y463721D01*
X448357Y463637D01*
X447357Y463610D01*
X440803D01*
Y453196D01*
X437415D01*
Y478828D01*
X447968D01*
X448523Y478800D01*
D02*
G37*
G36*
X422197Y453196D02*
X419059D01*
Y478828D01*
X422197D01*
Y453196D01*
D02*
G37*
G36*
X407674Y472163D02*
X407924D01*
X408451Y472107D01*
X409062Y472052D01*
X409701Y471941D01*
X410339Y471802D01*
X410923Y471607D01*
X410950D01*
X410978Y471580D01*
X411061Y471552D01*
X411172Y471496D01*
X411422Y471385D01*
X411756Y471219D01*
X412117Y471024D01*
X412478Y470774D01*
X412811Y470497D01*
X413116Y470191D01*
X413144Y470163D01*
X413228Y470052D01*
X413366Y469858D01*
X413505Y469608D01*
X413672Y469303D01*
X413838Y468941D01*
X414005Y468525D01*
X414116Y468053D01*
Y468025D01*
X414144Y467886D01*
X414172Y467692D01*
X414199Y467386D01*
X414227Y466998D01*
X414255Y466498D01*
Y466192D01*
X414283Y465887D01*
Y465554D01*
Y465165D01*
Y460971D01*
Y460916D01*
Y460777D01*
Y460555D01*
Y460277D01*
Y459916D01*
Y459527D01*
X414311Y459083D01*
Y458639D01*
X414338Y457695D01*
Y457223D01*
X414366Y456778D01*
X414394Y456362D01*
X414422Y456001D01*
X414449Y455667D01*
X414477Y455417D01*
Y455362D01*
X414505Y455223D01*
X414561Y455001D01*
X414644Y454696D01*
X414755Y454362D01*
X414894Y454001D01*
X415060Y453585D01*
X415255Y453196D01*
X411978D01*
X411950Y453251D01*
X411895Y453363D01*
X411811Y453585D01*
X411728Y453862D01*
X411617Y454196D01*
X411506Y454584D01*
X411422Y455029D01*
X411367Y455529D01*
X411339Y455501D01*
X411284Y455473D01*
X411200Y455390D01*
X411061Y455279D01*
X410895Y455168D01*
X410728Y455001D01*
X410284Y454696D01*
X409756Y454334D01*
X409201Y453973D01*
X408590Y453668D01*
X407979Y453390D01*
X407951D01*
X407896Y453363D01*
X407812Y453335D01*
X407701Y453307D01*
X407562Y453251D01*
X407368Y453196D01*
X406952Y453085D01*
X406424Y452974D01*
X405841Y452863D01*
X405202Y452807D01*
X404508Y452779D01*
X404202D01*
X404008Y452807D01*
X403758Y452835D01*
X403452Y452863D01*
X403119Y452890D01*
X402786Y452974D01*
X402008Y453140D01*
X401231Y453390D01*
X400870Y453557D01*
X400481Y453779D01*
X400148Y454001D01*
X399815Y454251D01*
X399787Y454279D01*
X399731Y454334D01*
X399676Y454418D01*
X399565Y454529D01*
X399426Y454668D01*
X399287Y454862D01*
X399148Y455056D01*
X399009Y455306D01*
X398704Y455834D01*
X398426Y456500D01*
X398315Y456861D01*
X398259Y457250D01*
X398204Y457667D01*
X398176Y458083D01*
Y458111D01*
Y458139D01*
Y458306D01*
X398204Y458583D01*
X398259Y458917D01*
X398315Y459305D01*
X398426Y459722D01*
X398593Y460138D01*
X398787Y460583D01*
X398815Y460638D01*
X398898Y460777D01*
X399037Y460971D01*
X399231Y461249D01*
X399454Y461527D01*
X399731Y461832D01*
X400037Y462110D01*
X400398Y462388D01*
X400453Y462416D01*
X400592Y462499D01*
X400787Y462638D01*
X401064Y462777D01*
X401398Y462943D01*
X401786Y463110D01*
X402231Y463276D01*
X402675Y463415D01*
X402731D01*
X402842Y463471D01*
X403064Y463499D01*
X403369Y463582D01*
X403758Y463637D01*
X404258Y463721D01*
X404813Y463804D01*
X405480Y463887D01*
X405535D01*
X405646Y463915D01*
X405841Y463943D01*
X406091Y463971D01*
X406424Y464026D01*
X406785Y464082D01*
X407174Y464137D01*
X407618Y464193D01*
X408534Y464359D01*
X409451Y464554D01*
X409895Y464665D01*
X410339Y464776D01*
X410728Y464887D01*
X411089Y464998D01*
Y465026D01*
Y465109D01*
Y465220D01*
X411117Y465331D01*
Y465609D01*
Y465720D01*
Y465803D01*
Y465831D01*
Y465887D01*
Y465998D01*
Y466109D01*
X411061Y466442D01*
X411006Y466859D01*
X410895Y467303D01*
X410728Y467747D01*
X410506Y468164D01*
X410201Y468497D01*
X410145Y468553D01*
X410089Y468608D01*
X409978Y468664D01*
X409840Y468747D01*
X409701Y468830D01*
X409312Y469053D01*
X408812Y469247D01*
X408201Y469414D01*
X407479Y469525D01*
X406646Y469580D01*
X406285D01*
X406091Y469552D01*
X405896D01*
X405396Y469497D01*
X404869Y469386D01*
X404341Y469247D01*
X403814Y469053D01*
X403369Y468803D01*
X403314Y468775D01*
X403203Y468664D01*
X403008Y468442D01*
X402786Y468164D01*
X402536Y467803D01*
X402258Y467303D01*
X402036Y466748D01*
X401925Y466414D01*
X401814Y466053D01*
X398732Y466470D01*
Y466498D01*
X398759Y466553D01*
X398787Y466664D01*
X398815Y466803D01*
X398870Y466970D01*
X398926Y467164D01*
X399065Y467608D01*
X399259Y468108D01*
X399481Y468636D01*
X399759Y469164D01*
X400092Y469636D01*
Y469663D01*
X400148Y469691D01*
X400287Y469830D01*
X400509Y470052D01*
X400814Y470330D01*
X401203Y470636D01*
X401675Y470941D01*
X402231Y471246D01*
X402869Y471524D01*
X402897D01*
X402953Y471552D01*
X403064Y471580D01*
X403203Y471635D01*
X403369Y471691D01*
X403564Y471746D01*
X403814Y471802D01*
X404091Y471857D01*
X404369Y471913D01*
X404702Y471968D01*
X405424Y472080D01*
X406229Y472163D01*
X407090Y472191D01*
X407479D01*
X407674Y472163D01*
D02*
G37*
G36*
X357410Y475801D02*
X343525D01*
Y467858D01*
X355549D01*
Y464831D01*
X343525D01*
Y453196D01*
X340137D01*
Y478828D01*
X357410D01*
Y475801D01*
D02*
G37*
G36*
X512339Y471774D02*
X515532D01*
Y469330D01*
X512339D01*
Y458444D01*
Y458417D01*
Y458389D01*
Y458222D01*
Y458000D01*
X512366Y457722D01*
Y457445D01*
X512422Y457167D01*
X512450Y456917D01*
X512505Y456723D01*
Y456695D01*
X512533Y456667D01*
X512644Y456500D01*
X512811Y456306D01*
X513033Y456112D01*
X513061D01*
X513116Y456084D01*
X513200Y456056D01*
X513311Y456001D01*
X513477Y455973D01*
X513644Y455917D01*
X513866Y455890D01*
X514338D01*
X514505Y455917D01*
X514699D01*
X514949Y455945D01*
X515227Y455973D01*
X515532Y456001D01*
X515949Y453224D01*
X515893D01*
X515727Y453168D01*
X515477Y453140D01*
X515143Y453085D01*
X514782Y453029D01*
X514394Y453001D01*
X513560Y452946D01*
X513283D01*
X512977Y452974D01*
X512589Y453001D01*
X512144Y453085D01*
X511700Y453168D01*
X511283Y453307D01*
X510895Y453474D01*
X510867Y453501D01*
X510756Y453585D01*
X510589Y453696D01*
X510367Y453862D01*
X510145Y454057D01*
X509923Y454307D01*
X509728Y454584D01*
X509562Y454890D01*
X509534Y454945D01*
X509506Y455084D01*
X509478Y455195D01*
X509451Y455334D01*
X509423Y455501D01*
X509395Y455695D01*
X509340Y455917D01*
X509312Y456195D01*
X509284Y456500D01*
X509256Y456834D01*
X509228Y457223D01*
Y457639D01*
X509201Y458111D01*
Y458611D01*
Y469330D01*
X506868D01*
Y471774D01*
X509201D01*
Y476356D01*
X512339Y478244D01*
Y471774D01*
D02*
G37*
G36*
X556465Y478883D02*
X556660Y478855D01*
X557159Y478800D01*
X557715Y478717D01*
X558326Y478550D01*
X558937Y478356D01*
X559548Y478078D01*
X559575D01*
X559631Y478050D01*
X559714Y477994D01*
X559825Y477911D01*
X560103Y477745D01*
X560464Y477467D01*
X560881Y477134D01*
X561297Y476717D01*
X561741Y476217D01*
X562130Y475662D01*
Y475634D01*
X562186Y475578D01*
X562214Y475495D01*
X562297Y475384D01*
X562380Y475245D01*
X562491Y475051D01*
X562575Y474829D01*
X562713Y474607D01*
X562963Y474051D01*
X563213Y473412D01*
X563491Y472663D01*
X563713Y471857D01*
Y471830D01*
X563741Y471746D01*
X563769Y471635D01*
X563797Y471441D01*
X563852Y471219D01*
X563907Y470941D01*
X563963Y470636D01*
X564019Y470274D01*
X564046Y469858D01*
X564102Y469414D01*
X564157Y468914D01*
X564213Y468386D01*
X564241Y467803D01*
X564269Y467192D01*
X564296Y466526D01*
Y465831D01*
Y465776D01*
Y465637D01*
Y465387D01*
Y465082D01*
X564269Y464693D01*
X564241Y464276D01*
X564213Y463776D01*
X564185Y463249D01*
X564130Y462666D01*
X564074Y462082D01*
X563907Y460860D01*
X563658Y459666D01*
X563519Y459083D01*
X563352Y458556D01*
Y458528D01*
X563297Y458444D01*
X563269Y458278D01*
X563186Y458111D01*
X563074Y457861D01*
X562963Y457611D01*
X562824Y457306D01*
X562658Y456973D01*
X562269Y456278D01*
X561797Y455584D01*
X561242Y454890D01*
X560908Y454584D01*
X560575Y454279D01*
X560547Y454251D01*
X560492Y454223D01*
X560381Y454140D01*
X560242Y454057D01*
X560075Y453946D01*
X559853Y453807D01*
X559603Y453668D01*
X559298Y453529D01*
X558992Y453390D01*
X558631Y453251D01*
X558270Y453140D01*
X557854Y453001D01*
X557409Y452918D01*
X556937Y452835D01*
X556465Y452807D01*
X555938Y452779D01*
X555771D01*
X555577Y452807D01*
X555327Y452835D01*
X555021Y452863D01*
X554660Y452918D01*
X554271Y453001D01*
X553827Y453113D01*
X553383Y453251D01*
X552911Y453418D01*
X552411Y453640D01*
X551939Y453890D01*
X551467Y454196D01*
X550994Y454557D01*
X550550Y454945D01*
X550134Y455417D01*
X550106Y455445D01*
X550023Y455556D01*
X549911Y455751D01*
X549745Y456028D01*
X549550Y456389D01*
X549328Y456806D01*
X549106Y457334D01*
X548884Y457917D01*
X548634Y458611D01*
X548412Y459361D01*
X548190Y460222D01*
X547995Y461166D01*
X547829Y462193D01*
X547718Y463304D01*
X547634Y464526D01*
X547607Y465831D01*
Y465887D01*
Y466026D01*
Y466276D01*
X547634Y466581D01*
Y466970D01*
X547662Y467414D01*
X547690Y467914D01*
X547718Y468442D01*
X547773Y469025D01*
X547829Y469608D01*
X547995Y470830D01*
X548217Y472024D01*
X548356Y472607D01*
X548523Y473135D01*
Y473163D01*
X548579Y473246D01*
X548634Y473412D01*
X548690Y473607D01*
X548801Y473829D01*
X548912Y474107D01*
X549051Y474384D01*
X549217Y474718D01*
X549606Y475412D01*
X550106Y476106D01*
X550661Y476800D01*
X550967Y477106D01*
X551300Y477411D01*
X551328Y477439D01*
X551383Y477467D01*
X551494Y477550D01*
X551633Y477633D01*
X551800Y477772D01*
X552022Y477883D01*
X552272Y478022D01*
X552577Y478161D01*
X552883Y478300D01*
X553244Y478439D01*
X553633Y478578D01*
X554021Y478689D01*
X554466Y478772D01*
X554938Y478855D01*
X555438Y478883D01*
X555938Y478911D01*
X556271D01*
X556465Y478883D01*
D02*
G37*
G36*
X468795Y472163D02*
X469073D01*
X469406Y472107D01*
X469767Y472052D01*
X470184Y471968D01*
X470656Y471885D01*
X471128Y471746D01*
X471656Y471580D01*
X472156Y471357D01*
X472683Y471135D01*
X473211Y470830D01*
X473711Y470497D01*
X474211Y470108D01*
X474683Y469663D01*
X474710Y469636D01*
X474794Y469552D01*
X474905Y469414D01*
X475071Y469191D01*
X475238Y468941D01*
X475460Y468636D01*
X475682Y468275D01*
X475904Y467858D01*
X476127Y467386D01*
X476349Y466859D01*
X476571Y466303D01*
X476737Y465692D01*
X476904Y465026D01*
X477015Y464304D01*
X477099Y463526D01*
X477126Y462721D01*
Y462693D01*
Y462554D01*
Y462388D01*
X477099Y462138D01*
Y461832D01*
X477071Y461471D01*
X477043Y461083D01*
X476987Y460666D01*
X476876Y459777D01*
X476682Y458833D01*
X476404Y457917D01*
X476238Y457500D01*
X476043Y457084D01*
Y457056D01*
X475988Y457000D01*
X475932Y456889D01*
X475849Y456750D01*
X475738Y456584D01*
X475599Y456362D01*
X475238Y455917D01*
X474794Y455390D01*
X474266Y454862D01*
X473627Y454362D01*
X472905Y453890D01*
X472878D01*
X472822Y453835D01*
X472711Y453779D01*
X472544Y453723D01*
X472350Y453640D01*
X472128Y453529D01*
X471878Y453446D01*
X471572Y453335D01*
X471267Y453224D01*
X470906Y453140D01*
X470156Y452946D01*
X469323Y452835D01*
X468434Y452779D01*
X468268D01*
X468073Y452807D01*
X467796D01*
X467462Y452863D01*
X467074Y452918D01*
X466657Y453001D01*
X466185Y453085D01*
X465685Y453224D01*
X465185Y453390D01*
X464658Y453585D01*
X464130Y453835D01*
X463602Y454112D01*
X463102Y454446D01*
X462603Y454834D01*
X462130Y455279D01*
X462103Y455306D01*
X462019Y455390D01*
X461908Y455529D01*
X461769Y455751D01*
X461575Y456001D01*
X461381Y456306D01*
X461159Y456695D01*
X460936Y457112D01*
X460714Y457611D01*
X460492Y458139D01*
X460298Y458722D01*
X460103Y459361D01*
X459964Y460055D01*
X459853Y460805D01*
X459770Y461610D01*
X459742Y462471D01*
Y462499D01*
Y462527D01*
Y462693D01*
X459770Y462971D01*
X459798Y463304D01*
X459826Y463749D01*
X459881Y464248D01*
X459992Y464776D01*
X460103Y465359D01*
X460242Y465970D01*
X460436Y466609D01*
X460686Y467247D01*
X460936Y467886D01*
X461270Y468497D01*
X461658Y469080D01*
X462103Y469608D01*
X462603Y470108D01*
X462630Y470136D01*
X462714Y470191D01*
X462852Y470302D01*
X463019Y470441D01*
X463269Y470580D01*
X463547Y470774D01*
X463852Y470969D01*
X464241Y471163D01*
X464630Y471357D01*
X465074Y471524D01*
X465546Y471719D01*
X466074Y471857D01*
X466629Y471996D01*
X467185Y472107D01*
X467796Y472163D01*
X468434Y472191D01*
X468601D01*
X468795Y472163D01*
D02*
G37*
G36*
X369295D02*
X369573D01*
X369906Y472107D01*
X370267Y472052D01*
X370684Y471968D01*
X371156Y471885D01*
X371628Y471746D01*
X372156Y471580D01*
X372656Y471357D01*
X373183Y471135D01*
X373711Y470830D01*
X374211Y470497D01*
X374710Y470108D01*
X375183Y469663D01*
X375210Y469636D01*
X375294Y469552D01*
X375405Y469414D01*
X375571Y469191D01*
X375738Y468941D01*
X375960Y468636D01*
X376182Y468275D01*
X376405Y467858D01*
X376627Y467386D01*
X376849Y466859D01*
X377071Y466303D01*
X377238Y465692D01*
X377404Y465026D01*
X377515Y464304D01*
X377599Y463526D01*
X377626Y462721D01*
Y462693D01*
Y462554D01*
Y462388D01*
X377599Y462138D01*
Y461832D01*
X377571Y461471D01*
X377543Y461083D01*
X377487Y460666D01*
X377377Y459777D01*
X377182Y458833D01*
X376904Y457917D01*
X376738Y457500D01*
X376543Y457084D01*
Y457056D01*
X376488Y457000D01*
X376432Y456889D01*
X376349Y456750D01*
X376238Y456584D01*
X376099Y456362D01*
X375738Y455917D01*
X375294Y455390D01*
X374766Y454862D01*
X374127Y454362D01*
X373405Y453890D01*
X373378D01*
X373322Y453835D01*
X373211Y453779D01*
X373044Y453723D01*
X372850Y453640D01*
X372628Y453529D01*
X372378Y453446D01*
X372072Y453335D01*
X371767Y453224D01*
X371406Y453140D01*
X370656Y452946D01*
X369823Y452835D01*
X368934Y452779D01*
X368768D01*
X368573Y452807D01*
X368296D01*
X367962Y452863D01*
X367574Y452918D01*
X367157Y453001D01*
X366685Y453085D01*
X366185Y453224D01*
X365685Y453390D01*
X365158Y453585D01*
X364630Y453835D01*
X364102Y454112D01*
X363602Y454446D01*
X363103Y454834D01*
X362631Y455279D01*
X362603Y455306D01*
X362520Y455390D01*
X362408Y455529D01*
X362270Y455751D01*
X362075Y456001D01*
X361881Y456306D01*
X361659Y456695D01*
X361437Y457112D01*
X361214Y457611D01*
X360992Y458139D01*
X360798Y458722D01*
X360603Y459361D01*
X360465Y460055D01*
X360353Y460805D01*
X360270Y461610D01*
X360242Y462471D01*
Y462499D01*
Y462527D01*
Y462693D01*
X360270Y462971D01*
X360298Y463304D01*
X360326Y463749D01*
X360381Y464248D01*
X360492Y464776D01*
X360603Y465359D01*
X360742Y465970D01*
X360937Y466609D01*
X361187Y467247D01*
X361437Y467886D01*
X361770Y468497D01*
X362158Y469080D01*
X362603Y469608D01*
X363103Y470108D01*
X363130Y470136D01*
X363214Y470191D01*
X363353Y470302D01*
X363519Y470441D01*
X363769Y470580D01*
X364047Y470774D01*
X364352Y470969D01*
X364741Y471163D01*
X365130Y471357D01*
X365574Y471524D01*
X366046Y471719D01*
X366574Y471857D01*
X367129Y471996D01*
X367685Y472107D01*
X368296Y472163D01*
X368934Y472191D01*
X369101D01*
X369295Y472163D01*
D02*
G37*
G36*
X589650Y447625D02*
X589928Y447598D01*
X590234Y447570D01*
X590594Y447542D01*
X591372Y447431D01*
X592233Y447264D01*
X593094Y447042D01*
X593955Y446737D01*
X593983D01*
X594066Y446709D01*
X594177Y446653D01*
X594316Y446570D01*
X594510Y446487D01*
X594732Y446376D01*
X595232Y446098D01*
X595815Y445737D01*
X596398Y445320D01*
X596954Y444820D01*
X597481Y444237D01*
X597509Y444209D01*
X597537Y444154D01*
X597593Y444071D01*
X597704Y443960D01*
X597787Y443793D01*
X597926Y443599D01*
X598065Y443376D01*
X598204Y443099D01*
X598370Y442821D01*
X598509Y442516D01*
X598676Y442155D01*
X598842Y441793D01*
X599148Y440960D01*
X599425Y440044D01*
X596343Y439211D01*
Y439239D01*
X596315Y439294D01*
X596287Y439405D01*
X596232Y439544D01*
X596176Y439683D01*
X596121Y439877D01*
X595954Y440322D01*
X595732Y440822D01*
X595482Y441321D01*
X595204Y441821D01*
X594899Y442266D01*
X594871Y442321D01*
X594732Y442460D01*
X594538Y442654D01*
X594288Y442932D01*
X593927Y443210D01*
X593510Y443515D01*
X593011Y443793D01*
X592455Y444071D01*
X592427D01*
X592372Y444098D01*
X592288Y444126D01*
X592177Y444182D01*
X592039Y444237D01*
X591844Y444293D01*
X591428Y444432D01*
X590900Y444543D01*
X590317Y444654D01*
X589650Y444737D01*
X588956Y444765D01*
X588567D01*
X588373Y444737D01*
X588123D01*
X587873Y444709D01*
X587568Y444682D01*
X586957Y444598D01*
X586262Y444459D01*
X585596Y444293D01*
X584929Y444043D01*
X584902D01*
X584846Y444015D01*
X584763Y443960D01*
X584652Y443904D01*
X584346Y443765D01*
X583957Y443543D01*
X583513Y443265D01*
X583069Y442932D01*
X582597Y442571D01*
X582180Y442155D01*
X582125Y442099D01*
X582014Y441960D01*
X581819Y441710D01*
X581597Y441405D01*
X581347Y441044D01*
X581069Y440599D01*
X580820Y440127D01*
X580597Y439628D01*
Y439600D01*
X580570Y439516D01*
X580514Y439405D01*
X580458Y439211D01*
X580375Y438989D01*
X580292Y438739D01*
X580208Y438433D01*
X580125Y438100D01*
X580014Y437739D01*
X579931Y437323D01*
X579792Y436462D01*
X579681Y435490D01*
X579625Y434462D01*
Y434435D01*
Y434323D01*
Y434129D01*
X579653Y433907D01*
Y433601D01*
X579681Y433268D01*
X579736Y432879D01*
X579764Y432463D01*
X579903Y431546D01*
X580125Y430602D01*
X580403Y429630D01*
X580792Y428714D01*
X580820Y428686D01*
X580847Y428603D01*
X580903Y428492D01*
X581014Y428325D01*
X581125Y428159D01*
X581292Y427936D01*
X581653Y427436D01*
X582152Y426881D01*
X582736Y426298D01*
X583402Y425770D01*
X583791Y425520D01*
X584207Y425298D01*
X584235D01*
X584318Y425243D01*
X584430Y425187D01*
X584596Y425132D01*
X584818Y425048D01*
X585068Y424937D01*
X585346Y424854D01*
X585651Y424743D01*
X585985Y424632D01*
X586374Y424548D01*
X587179Y424354D01*
X588067Y424243D01*
X589012Y424187D01*
X589234D01*
X589400Y424215D01*
X589595D01*
X589817Y424243D01*
X590067Y424271D01*
X590372Y424298D01*
X591011Y424382D01*
X591733Y424548D01*
X592511Y424743D01*
X593288Y425020D01*
X593316D01*
X593371Y425048D01*
X593483Y425104D01*
X593649Y425159D01*
X593816Y425243D01*
X594010Y425354D01*
X594482Y425576D01*
X595010Y425853D01*
X595538Y426159D01*
X596037Y426465D01*
X596482Y426826D01*
Y431630D01*
X588956D01*
Y434657D01*
X599814D01*
Y425132D01*
X599786Y425104D01*
X599703Y425048D01*
X599564Y424937D01*
X599370Y424798D01*
X599148Y424632D01*
X598870Y424465D01*
X598564Y424243D01*
X598231Y424021D01*
X597870Y423799D01*
X597454Y423549D01*
X596593Y423049D01*
X595649Y422577D01*
X594649Y422160D01*
X594621D01*
X594538Y422105D01*
X594399Y422077D01*
X594177Y421993D01*
X593955Y421938D01*
X593649Y421855D01*
X593344Y421744D01*
X592983Y421660D01*
X592566Y421577D01*
X592150Y421466D01*
X591233Y421327D01*
X590234Y421216D01*
X589206Y421160D01*
X588845D01*
X588567Y421188D01*
X588234Y421216D01*
X587845Y421244D01*
X587401Y421299D01*
X586929Y421355D01*
X586429Y421438D01*
X585874Y421549D01*
X585318Y421688D01*
X584707Y421855D01*
X584124Y422021D01*
X583541Y422243D01*
X582930Y422493D01*
X582347Y422771D01*
X582319Y422799D01*
X582208Y422854D01*
X582041Y422938D01*
X581847Y423077D01*
X581597Y423243D01*
X581292Y423438D01*
X580958Y423688D01*
X580597Y423965D01*
X580236Y424271D01*
X579847Y424632D01*
X579459Y424993D01*
X579070Y425409D01*
X578709Y425881D01*
X578348Y426353D01*
X577987Y426881D01*
X577681Y427436D01*
X577654Y427464D01*
X577626Y427575D01*
X577543Y427742D01*
X577431Y427964D01*
X577320Y428269D01*
X577182Y428603D01*
X577043Y428992D01*
X576904Y429436D01*
X576765Y429908D01*
X576626Y430436D01*
X576487Y431019D01*
X576376Y431602D01*
X576265Y432241D01*
X576182Y432879D01*
X576154Y433574D01*
X576126Y434268D01*
Y434323D01*
Y434435D01*
Y434629D01*
X576154Y434907D01*
X576182Y435240D01*
X576210Y435629D01*
X576265Y436073D01*
X576321Y436545D01*
X576404Y437073D01*
X576515Y437628D01*
X576793Y438794D01*
X576960Y439405D01*
X577182Y440016D01*
X577404Y440627D01*
X577681Y441238D01*
X577709Y441266D01*
X577765Y441377D01*
X577848Y441544D01*
X577959Y441766D01*
X578126Y442043D01*
X578320Y442349D01*
X578570Y442682D01*
X578820Y443071D01*
X579125Y443460D01*
X579459Y443849D01*
X579820Y444237D01*
X580236Y444654D01*
X580653Y445043D01*
X581125Y445404D01*
X581625Y445765D01*
X582152Y446070D01*
X582180Y446098D01*
X582291Y446126D01*
X582458Y446209D01*
X582680Y446320D01*
X582958Y446431D01*
X583291Y446570D01*
X583680Y446709D01*
X584096Y446875D01*
X584568Y447014D01*
X585096Y447153D01*
X585651Y447292D01*
X586262Y447403D01*
X586873Y447514D01*
X587540Y447598D01*
X588234Y447625D01*
X588928Y447653D01*
X589400D01*
X589650Y447625D01*
D02*
G37*
G36*
X440442Y440544D02*
X440609D01*
X441025Y440488D01*
X441497Y440433D01*
X442025Y440322D01*
X442553Y440155D01*
X443080Y439961D01*
X443108D01*
X443136Y439933D01*
X443302Y439850D01*
X443552Y439711D01*
X443886Y439544D01*
X444219Y439294D01*
X444580Y439044D01*
X444913Y438739D01*
X445191Y438378D01*
X445219Y438322D01*
X445302Y438211D01*
X445413Y437989D01*
X445580Y437711D01*
X445746Y437378D01*
X445885Y436989D01*
X446052Y436545D01*
X446163Y436045D01*
Y436017D01*
X446191Y435879D01*
X446218Y435656D01*
X446274Y435351D01*
X446302Y434934D01*
Y434684D01*
X446329Y434407D01*
Y434101D01*
X446357Y433740D01*
Y433379D01*
Y432990D01*
Y421577D01*
X443219D01*
Y432879D01*
Y432907D01*
Y432963D01*
Y433074D01*
Y433185D01*
Y433352D01*
X443191Y433546D01*
X443164Y433962D01*
X443136Y434435D01*
X443052Y434907D01*
X442969Y435351D01*
X442830Y435740D01*
X442803Y435795D01*
X442747Y435906D01*
X442664Y436073D01*
X442525Y436295D01*
X442358Y436545D01*
X442136Y436795D01*
X441858Y437045D01*
X441525Y437267D01*
X441497Y437295D01*
X441359Y437350D01*
X441164Y437461D01*
X440914Y437572D01*
X440581Y437656D01*
X440220Y437767D01*
X439803Y437822D01*
X439331Y437850D01*
X439137D01*
X438998Y437822D01*
X438832D01*
X438609Y437795D01*
X438137Y437684D01*
X437610Y437545D01*
X437026Y437323D01*
X436443Y436989D01*
X436138Y436795D01*
X435860Y436573D01*
X435832Y436545D01*
X435805Y436517D01*
X435721Y436434D01*
X435638Y436323D01*
X435527Y436156D01*
X435416Y435990D01*
X435277Y435767D01*
X435138Y435490D01*
X434999Y435184D01*
X434860Y434823D01*
X434749Y434435D01*
X434638Y433990D01*
X434555Y433490D01*
X434472Y432963D01*
X434444Y432352D01*
X434416Y431713D01*
Y421577D01*
X431278D01*
Y440155D01*
X434111D01*
Y437489D01*
X434138Y437517D01*
X434194Y437628D01*
X434333Y437767D01*
X434499Y437961D01*
X434694Y438211D01*
X434944Y438461D01*
X435249Y438739D01*
X435610Y439044D01*
X435999Y439322D01*
X436443Y439600D01*
X436915Y439850D01*
X437443Y440100D01*
X438026Y440294D01*
X438637Y440433D01*
X439304Y440544D01*
X439998Y440572D01*
X440275D01*
X440442Y440544D01*
D02*
G37*
G36*
X346802D02*
X346940D01*
X347107Y440516D01*
X347524Y440433D01*
X348024Y440322D01*
X348551Y440127D01*
X349162Y439877D01*
X349773Y439544D01*
X348662Y436628D01*
X348607Y436656D01*
X348468Y436739D01*
X348246Y436851D01*
X347940Y436989D01*
X347607Y437100D01*
X347218Y437212D01*
X346802Y437295D01*
X346357Y437323D01*
X346191D01*
X345996Y437295D01*
X345746Y437239D01*
X345441Y437156D01*
X345135Y437045D01*
X344830Y436906D01*
X344497Y436684D01*
X344469Y436656D01*
X344358Y436573D01*
X344219Y436434D01*
X344053Y436239D01*
X343858Y435990D01*
X343664Y435712D01*
X343497Y435351D01*
X343330Y434962D01*
Y434934D01*
X343303Y434879D01*
X343275Y434796D01*
X343247Y434684D01*
X343219Y434518D01*
X343164Y434323D01*
X343080Y433879D01*
X342997Y433324D01*
X342914Y432713D01*
X342858Y432019D01*
X342831Y431296D01*
Y421577D01*
X339693D01*
Y440155D01*
X342525D01*
Y437350D01*
X342581Y437406D01*
X342636Y437517D01*
X342720Y437628D01*
X342914Y437989D01*
X343192Y438378D01*
X343497Y438822D01*
X343830Y439266D01*
X344163Y439628D01*
X344358Y439794D01*
X344525Y439933D01*
X344580Y439961D01*
X344691Y440044D01*
X344886Y440127D01*
X345108Y440266D01*
X345413Y440377D01*
X345746Y440461D01*
X346135Y440544D01*
X346524Y440572D01*
X346691D01*
X346802Y440544D01*
D02*
G37*
G36*
X625029Y421577D02*
X621641D01*
Y433657D01*
X608340D01*
Y421577D01*
X604952D01*
Y447209D01*
X608340D01*
Y436684D01*
X621641D01*
Y447209D01*
X625029D01*
Y421577D01*
D02*
G37*
G36*
X459187Y440544D02*
X459437Y440516D01*
X459742Y440488D01*
X460076Y440433D01*
X460436Y440377D01*
X461214Y440183D01*
X462047Y439905D01*
X462464Y439739D01*
X462880Y439544D01*
X463269Y439294D01*
X463630Y439016D01*
X463658Y438989D01*
X463713Y438933D01*
X463825Y438850D01*
X463936Y438739D01*
X464102Y438572D01*
X464269Y438378D01*
X464463Y438156D01*
X464658Y437906D01*
X464880Y437600D01*
X465074Y437295D01*
X465296Y436934D01*
X465491Y436545D01*
X465657Y436128D01*
X465824Y435684D01*
X465990Y435184D01*
X466102Y434684D01*
X463047Y434212D01*
Y434240D01*
X463019Y434296D01*
X462991Y434379D01*
X462964Y434518D01*
X462852Y434851D01*
X462686Y435268D01*
X462464Y435712D01*
X462214Y436184D01*
X461881Y436628D01*
X461492Y437017D01*
X461436Y437073D01*
X461297Y437184D01*
X461048Y437323D01*
X460742Y437517D01*
X460353Y437684D01*
X459909Y437850D01*
X459381Y437961D01*
X458826Y437989D01*
X458604D01*
X458437Y437961D01*
X458215Y437933D01*
X457993Y437906D01*
X457437Y437767D01*
X456826Y437572D01*
X456521Y437434D01*
X456188Y437267D01*
X455882Y437073D01*
X455549Y436823D01*
X455243Y436573D01*
X454966Y436267D01*
X454938Y436239D01*
X454910Y436184D01*
X454827Y436101D01*
X454744Y435934D01*
X454633Y435767D01*
X454494Y435545D01*
X454355Y435268D01*
X454244Y434962D01*
X454105Y434601D01*
X453966Y434212D01*
X453827Y433768D01*
X453716Y433268D01*
X453633Y432740D01*
X453550Y432185D01*
X453522Y431546D01*
X453494Y430880D01*
Y430852D01*
Y430713D01*
Y430519D01*
X453522Y430269D01*
X453550Y429963D01*
X453577Y429602D01*
X453605Y429214D01*
X453661Y428797D01*
X453827Y427909D01*
X454105Y426992D01*
X454244Y426576D01*
X454438Y426159D01*
X454660Y425770D01*
X454910Y425437D01*
X454938Y425409D01*
X454966Y425354D01*
X455049Y425270D01*
X455160Y425187D01*
X455327Y425048D01*
X455493Y424909D01*
X455688Y424743D01*
X455910Y424604D01*
X456465Y424271D01*
X457104Y424021D01*
X457465Y423910D01*
X457826Y423826D01*
X458243Y423771D01*
X458659Y423743D01*
X458826D01*
X458965Y423771D01*
X459131D01*
X459298Y423799D01*
X459742Y423882D01*
X460214Y424021D01*
X460742Y424215D01*
X461242Y424493D01*
X461742Y424854D01*
X461769Y424882D01*
X461797Y424909D01*
X461936Y425076D01*
X462158Y425354D01*
X462269Y425520D01*
X462408Y425715D01*
X462547Y425965D01*
X462686Y426215D01*
X462797Y426492D01*
X462936Y426826D01*
X463047Y427159D01*
X463158Y427548D01*
X463241Y427936D01*
X463325Y428381D01*
X466407Y427964D01*
Y427936D01*
X466379Y427825D01*
X466352Y427659D01*
X466296Y427436D01*
X466213Y427159D01*
X466129Y426853D01*
X466018Y426520D01*
X465879Y426131D01*
X465546Y425354D01*
X465324Y424937D01*
X465074Y424521D01*
X464824Y424104D01*
X464519Y423688D01*
X464158Y423326D01*
X463797Y422965D01*
X463769Y422938D01*
X463713Y422882D01*
X463575Y422799D01*
X463436Y422688D01*
X463213Y422549D01*
X462991Y422382D01*
X462686Y422243D01*
X462380Y422077D01*
X462019Y421882D01*
X461631Y421744D01*
X461214Y421577D01*
X460770Y421438D01*
X460270Y421327D01*
X459770Y421244D01*
X459242Y421188D01*
X458687Y421160D01*
X458520D01*
X458326Y421188D01*
X458048D01*
X457743Y421244D01*
X457354Y421299D01*
X456938Y421355D01*
X456493Y421466D01*
X456021Y421605D01*
X455521Y421771D01*
X455021Y421966D01*
X454494Y422216D01*
X453994Y422493D01*
X453494Y422827D01*
X453022Y423188D01*
X452578Y423632D01*
X452550Y423660D01*
X452466Y423743D01*
X452355Y423882D01*
X452217Y424104D01*
X452050Y424354D01*
X451856Y424659D01*
X451633Y425048D01*
X451439Y425465D01*
X451217Y425937D01*
X450995Y426465D01*
X450800Y427048D01*
X450634Y427686D01*
X450495Y428381D01*
X450384Y429130D01*
X450301Y429936D01*
X450273Y430769D01*
Y430797D01*
Y430908D01*
Y431074D01*
X450301Y431269D01*
Y431546D01*
X450328Y431852D01*
X450356Y432185D01*
X450384Y432574D01*
X450523Y433379D01*
X450689Y434268D01*
X450911Y435184D01*
X451245Y436045D01*
Y436073D01*
X451300Y436156D01*
X451356Y436267D01*
X451439Y436406D01*
X451550Y436600D01*
X451661Y436823D01*
X451994Y437323D01*
X452411Y437850D01*
X452939Y438433D01*
X453550Y438961D01*
X454272Y439433D01*
X454299D01*
X454355Y439489D01*
X454466Y439544D01*
X454633Y439600D01*
X454827Y439711D01*
X455049Y439794D01*
X455299Y439905D01*
X455577Y440016D01*
X455910Y440100D01*
X456243Y440211D01*
X456993Y440405D01*
X457826Y440516D01*
X458687Y440572D01*
X458992D01*
X459187Y440544D01*
D02*
G37*
G36*
X477265Y421272D02*
Y421244D01*
X477210Y421133D01*
X477154Y420994D01*
X477071Y420772D01*
X476987Y420522D01*
X476876Y420244D01*
X476737Y419939D01*
X476626Y419605D01*
X476321Y418911D01*
X476043Y418217D01*
X475877Y417884D01*
X475738Y417578D01*
X475627Y417300D01*
X475488Y417078D01*
Y417051D01*
X475460Y417023D01*
X475405Y416939D01*
X475349Y416828D01*
X475155Y416551D01*
X474932Y416217D01*
X474655Y415829D01*
X474322Y415468D01*
X473960Y415107D01*
X473572Y414801D01*
X473516Y414773D01*
X473377Y414690D01*
X473155Y414551D01*
X472850Y414440D01*
X472461Y414301D01*
X472017Y414162D01*
X471545Y414079D01*
X470989Y414051D01*
X470822D01*
X470628Y414079D01*
X470406Y414107D01*
X470100Y414135D01*
X469739Y414218D01*
X469379Y414301D01*
X468962Y414440D01*
X468601Y417384D01*
X468656D01*
X468767Y417328D01*
X468962Y417300D01*
X469212Y417245D01*
X469489Y417189D01*
X469795Y417134D01*
X470100Y417106D01*
X470378Y417078D01*
X470545D01*
X470739Y417106D01*
X470989Y417134D01*
X471239Y417162D01*
X471517Y417245D01*
X471795Y417328D01*
X472044Y417439D01*
X472072Y417467D01*
X472156Y417495D01*
X472267Y417578D01*
X472405Y417689D01*
X472572Y417828D01*
X472766Y417995D01*
X473100Y418411D01*
X473127Y418439D01*
X473155Y418522D01*
X473239Y418661D01*
X473322Y418883D01*
X473461Y419189D01*
X473627Y419605D01*
X473711Y419855D01*
X473822Y420133D01*
X473933Y420438D01*
X474044Y420772D01*
X474072Y420827D01*
X474127Y420966D01*
X474211Y421216D01*
X474349Y421549D01*
X467323Y440155D01*
X470656D01*
X474516Y429380D01*
Y429353D01*
X474544Y429297D01*
X474599Y429186D01*
X474655Y429019D01*
X474710Y428825D01*
X474794Y428603D01*
X474877Y428353D01*
X474988Y428075D01*
X475182Y427436D01*
X475432Y426687D01*
X475655Y425909D01*
X475877Y425076D01*
Y425104D01*
X475904Y425187D01*
X475932Y425298D01*
X475988Y425437D01*
X476016Y425631D01*
X476099Y425881D01*
X476154Y426131D01*
X476238Y426409D01*
X476432Y427048D01*
X476654Y427770D01*
X476904Y428519D01*
X477182Y429297D01*
X481181Y440155D01*
X484319D01*
X477265Y421272D01*
D02*
G37*
G36*
X406424Y421577D02*
X403619D01*
Y424298D01*
X403591Y424271D01*
X403508Y424160D01*
X403397Y424021D01*
X403230Y423799D01*
X403008Y423576D01*
X402731Y423299D01*
X402425Y423021D01*
X402064Y422743D01*
X401647Y422438D01*
X401203Y422160D01*
X400731Y421882D01*
X400203Y421660D01*
X399620Y421438D01*
X399037Y421299D01*
X398398Y421188D01*
X397704Y421160D01*
X397426D01*
X397121Y421188D01*
X396704Y421244D01*
X396232Y421299D01*
X395705Y421410D01*
X395177Y421577D01*
X394622Y421771D01*
X394594D01*
X394566Y421799D01*
X394399Y421882D01*
X394149Y422021D01*
X393816Y422216D01*
X393483Y422438D01*
X393122Y422716D01*
X392789Y423021D01*
X392511Y423354D01*
X392483Y423410D01*
X392400Y423521D01*
X392289Y423743D01*
X392150Y424021D01*
X391984Y424354D01*
X391817Y424743D01*
X391678Y425187D01*
X391539Y425687D01*
Y425742D01*
X391511Y425853D01*
X391484Y426103D01*
X391456Y426409D01*
X391428Y426826D01*
X391400Y427325D01*
X391372Y427936D01*
Y428631D01*
Y440155D01*
X394511D01*
Y429852D01*
Y429825D01*
Y429741D01*
Y429630D01*
Y429464D01*
Y429242D01*
Y429019D01*
X394538Y428519D01*
Y427964D01*
X394594Y427409D01*
X394622Y426909D01*
X394649Y426687D01*
X394677Y426520D01*
X394705Y426465D01*
X394733Y426326D01*
X394816Y426076D01*
X394955Y425798D01*
X395122Y425492D01*
X395344Y425187D01*
X395621Y424854D01*
X395955Y424576D01*
X396010Y424548D01*
X396121Y424465D01*
X396343Y424354D01*
X396621Y424243D01*
X396954Y424104D01*
X397371Y423993D01*
X397843Y423910D01*
X398343Y423882D01*
X398593D01*
X398843Y423910D01*
X399204Y423965D01*
X399620Y424049D01*
X400065Y424187D01*
X400509Y424354D01*
X400981Y424604D01*
X401009D01*
X401037Y424632D01*
X401175Y424743D01*
X401398Y424909D01*
X401675Y425132D01*
X401953Y425409D01*
X402258Y425742D01*
X402536Y426131D01*
X402758Y426576D01*
Y426603D01*
X402786Y426631D01*
X402814Y426714D01*
X402842Y426798D01*
X402869Y426937D01*
X402925Y427103D01*
X402980Y427270D01*
X403036Y427492D01*
X403119Y428020D01*
X403203Y428631D01*
X403258Y429353D01*
X403286Y430186D01*
Y440155D01*
X406424D01*
Y421577D01*
D02*
G37*
G36*
X561630Y443876D02*
X551383D01*
X550023Y436989D01*
X550050Y437017D01*
X550134Y437073D01*
X550245Y437128D01*
X550411Y437239D01*
X550633Y437350D01*
X550883Y437489D01*
X551161Y437656D01*
X551494Y437795D01*
X551828Y437933D01*
X552216Y438100D01*
X553022Y438350D01*
X553466Y438461D01*
X553910Y438544D01*
X554382Y438572D01*
X554854Y438600D01*
X554993D01*
X555188Y438572D01*
X555410D01*
X555688Y438517D01*
X556021Y438489D01*
X556410Y438406D01*
X556798Y438322D01*
X557243Y438183D01*
X557687Y438045D01*
X558159Y437850D01*
X558631Y437628D01*
X559103Y437350D01*
X559575Y437045D01*
X560047Y436684D01*
X560492Y436267D01*
X560520Y436239D01*
X560603Y436156D01*
X560714Y436017D01*
X560853Y435851D01*
X561047Y435629D01*
X561242Y435323D01*
X561436Y435018D01*
X561658Y434657D01*
X561880Y434240D01*
X562075Y433768D01*
X562297Y433296D01*
X562464Y432740D01*
X562602Y432185D01*
X562713Y431574D01*
X562797Y430935D01*
X562824Y430269D01*
Y430241D01*
Y430102D01*
Y429936D01*
X562797Y429686D01*
X562769Y429380D01*
X562713Y429047D01*
X562658Y428658D01*
X562575Y428214D01*
X562464Y427770D01*
X562325Y427270D01*
X562158Y426770D01*
X561964Y426270D01*
X561741Y425770D01*
X561464Y425243D01*
X561158Y424743D01*
X560797Y424271D01*
X560770Y424243D01*
X560686Y424132D01*
X560547Y423993D01*
X560353Y423799D01*
X560103Y423549D01*
X559798Y423299D01*
X559437Y422993D01*
X559020Y422716D01*
X558576Y422438D01*
X558076Y422132D01*
X557520Y421882D01*
X556910Y421660D01*
X556271Y421438D01*
X555577Y421299D01*
X554854Y421188D01*
X554077Y421160D01*
X553744D01*
X553494Y421188D01*
X553188Y421216D01*
X552855Y421272D01*
X552466Y421327D01*
X552050Y421410D01*
X551605Y421494D01*
X551133Y421632D01*
X550661Y421799D01*
X550189Y421993D01*
X549717Y422216D01*
X549245Y422466D01*
X548801Y422771D01*
X548356Y423104D01*
X548329Y423132D01*
X548273Y423188D01*
X548162Y423299D01*
X548023Y423465D01*
X547829Y423660D01*
X547634Y423882D01*
X547440Y424160D01*
X547218Y424493D01*
X546996Y424826D01*
X546773Y425215D01*
X546579Y425659D01*
X546385Y426103D01*
X546190Y426603D01*
X546051Y427131D01*
X545940Y427714D01*
X545857Y428297D01*
X549162Y428547D01*
Y428519D01*
X549190Y428436D01*
X549217Y428325D01*
X549245Y428159D01*
X549273Y427964D01*
X549356Y427714D01*
X549495Y427186D01*
X549717Y426603D01*
X550023Y425992D01*
X550384Y425437D01*
X550606Y425187D01*
X550828Y424937D01*
X550856D01*
X550883Y424882D01*
X550967Y424826D01*
X551078Y424743D01*
X551356Y424548D01*
X551744Y424354D01*
X552216Y424132D01*
X552772Y423937D01*
X553383Y423799D01*
X553716Y423771D01*
X554077Y423743D01*
X554299D01*
X554466Y423771D01*
X554660Y423799D01*
X554882Y423826D01*
X555410Y423965D01*
X556021Y424160D01*
X556326Y424298D01*
X556660Y424465D01*
X556993Y424659D01*
X557298Y424882D01*
X557604Y425132D01*
X557909Y425437D01*
X557937Y425465D01*
X557965Y425520D01*
X558048Y425604D01*
X558159Y425742D01*
X558270Y425937D01*
X558409Y426131D01*
X558548Y426381D01*
X558715Y426659D01*
X558853Y426964D01*
X558992Y427298D01*
X559131Y427686D01*
X559242Y428075D01*
X559353Y428519D01*
X559437Y428992D01*
X559464Y429464D01*
X559492Y429991D01*
Y430019D01*
Y430102D01*
Y430241D01*
X559464Y430436D01*
X559437Y430658D01*
X559409Y430935D01*
X559353Y431213D01*
X559298Y431546D01*
X559131Y432213D01*
X558853Y432935D01*
X558687Y433268D01*
X558465Y433601D01*
X558243Y433935D01*
X557965Y434240D01*
X557937Y434268D01*
X557909Y434296D01*
X557798Y434379D01*
X557687Y434490D01*
X557548Y434601D01*
X557354Y434740D01*
X557159Y434879D01*
X556910Y435045D01*
X556632Y435184D01*
X556354Y435323D01*
X555660Y435573D01*
X555299Y435684D01*
X554882Y435767D01*
X554466Y435795D01*
X554021Y435823D01*
X553771D01*
X553466Y435795D01*
X553105Y435740D01*
X552661Y435656D01*
X552189Y435518D01*
X551717Y435351D01*
X551244Y435101D01*
X551189Y435073D01*
X551050Y434990D01*
X550828Y434823D01*
X550550Y434629D01*
X550273Y434351D01*
X549939Y434046D01*
X549634Y433685D01*
X549356Y433296D01*
X546412Y433712D01*
X548884Y446875D01*
X561630D01*
Y443876D01*
D02*
G37*
G36*
X644496Y438045D02*
X634416Y426270D01*
X632444Y424104D01*
X632527D01*
X632666Y424132D01*
X632805D01*
X632999Y424160D01*
X633221D01*
X633471Y424187D01*
X633749Y424215D01*
X634360Y424243D01*
X635027Y424271D01*
X635748Y424298D01*
X645051D01*
Y421577D01*
X628612D01*
Y424132D01*
X640386Y437684D01*
X640192D01*
X640053Y437656D01*
X639664D01*
X639192Y437628D01*
X638637Y437600D01*
X638053D01*
X637442Y437572D01*
X629306D01*
Y440155D01*
X644496D01*
Y438045D01*
D02*
G37*
G36*
X541247Y421577D02*
X537665D01*
Y425159D01*
X541247D01*
Y421577D01*
D02*
G37*
G36*
X507923D02*
X504785D01*
Y441599D01*
X504730Y441544D01*
X504591Y441405D01*
X504341Y441210D01*
X503980Y440933D01*
X503563Y440599D01*
X503036Y440238D01*
X502453Y439850D01*
X501786Y439433D01*
X501758D01*
X501703Y439377D01*
X501619Y439322D01*
X501481Y439266D01*
X501314Y439155D01*
X501120Y439072D01*
X500675Y438822D01*
X500175Y438572D01*
X499620Y438295D01*
X499037Y438045D01*
X498481Y437822D01*
Y440849D01*
X498509Y440877D01*
X498593Y440905D01*
X498731Y440988D01*
X498926Y441072D01*
X499148Y441183D01*
X499426Y441349D01*
X499731Y441516D01*
X500036Y441682D01*
X500759Y442127D01*
X501536Y442654D01*
X502342Y443210D01*
X503091Y443849D01*
X503119Y443876D01*
X503175Y443932D01*
X503286Y444015D01*
X503425Y444154D01*
X503563Y444321D01*
X503758Y444487D01*
X504174Y444959D01*
X504646Y445459D01*
X505119Y446042D01*
X505535Y446653D01*
X505896Y447292D01*
X507923D01*
Y421577D01*
D02*
G37*
G36*
X335721Y444182D02*
X321836D01*
Y436239D01*
X333861D01*
Y433213D01*
X321836D01*
Y421577D01*
X318448D01*
Y447209D01*
X335721D01*
Y444182D01*
D02*
G37*
G36*
X524863Y447264D02*
X525057Y447236D01*
X525557Y447181D01*
X526113Y447098D01*
X526723Y446931D01*
X527334Y446737D01*
X527945Y446459D01*
X527973D01*
X528029Y446431D01*
X528112Y446376D01*
X528223Y446292D01*
X528501Y446126D01*
X528862Y445848D01*
X529278Y445515D01*
X529695Y445098D01*
X530139Y444598D01*
X530528Y444043D01*
Y444015D01*
X530584Y443960D01*
X530611Y443876D01*
X530695Y443765D01*
X530778Y443626D01*
X530889Y443432D01*
X530972Y443210D01*
X531111Y442988D01*
X531361Y442432D01*
X531611Y441793D01*
X531889Y441044D01*
X532111Y440238D01*
Y440211D01*
X532139Y440127D01*
X532166Y440016D01*
X532194Y439822D01*
X532250Y439600D01*
X532305Y439322D01*
X532361Y439016D01*
X532416Y438656D01*
X532444Y438239D01*
X532500Y437795D01*
X532555Y437295D01*
X532611Y436767D01*
X532639Y436184D01*
X532666Y435573D01*
X532694Y434907D01*
Y434212D01*
Y434157D01*
Y434018D01*
Y433768D01*
Y433462D01*
X532666Y433074D01*
X532639Y432657D01*
X532611Y432157D01*
X532583Y431630D01*
X532527Y431046D01*
X532472Y430463D01*
X532305Y429242D01*
X532055Y428047D01*
X531917Y427464D01*
X531750Y426937D01*
Y426909D01*
X531694Y426826D01*
X531667Y426659D01*
X531583Y426492D01*
X531472Y426242D01*
X531361Y425992D01*
X531222Y425687D01*
X531056Y425354D01*
X530667Y424659D01*
X530195Y423965D01*
X529639Y423271D01*
X529306Y422965D01*
X528973Y422660D01*
X528945Y422632D01*
X528890Y422605D01*
X528779Y422521D01*
X528640Y422438D01*
X528473Y422327D01*
X528251Y422188D01*
X528001Y422049D01*
X527696Y421910D01*
X527390Y421771D01*
X527029Y421632D01*
X526668Y421521D01*
X526251Y421383D01*
X525807Y421299D01*
X525335Y421216D01*
X524863Y421188D01*
X524335Y421160D01*
X524169D01*
X523974Y421188D01*
X523724Y421216D01*
X523419Y421244D01*
X523058Y421299D01*
X522669Y421383D01*
X522225Y421494D01*
X521780Y421632D01*
X521308Y421799D01*
X520809Y422021D01*
X520336Y422271D01*
X519864Y422577D01*
X519392Y422938D01*
X518948Y423326D01*
X518531Y423799D01*
X518504Y423826D01*
X518420Y423937D01*
X518309Y424132D01*
X518143Y424409D01*
X517948Y424770D01*
X517726Y425187D01*
X517504Y425715D01*
X517282Y426298D01*
X517032Y426992D01*
X516810Y427742D01*
X516587Y428603D01*
X516393Y429547D01*
X516226Y430574D01*
X516115Y431685D01*
X516032Y432907D01*
X516004Y434212D01*
Y434268D01*
Y434407D01*
Y434657D01*
X516032Y434962D01*
Y435351D01*
X516060Y435795D01*
X516088Y436295D01*
X516115Y436823D01*
X516171Y437406D01*
X516226Y437989D01*
X516393Y439211D01*
X516615Y440405D01*
X516754Y440988D01*
X516921Y441516D01*
Y441544D01*
X516976Y441627D01*
X517032Y441793D01*
X517087Y441988D01*
X517198Y442210D01*
X517310Y442488D01*
X517448Y442766D01*
X517615Y443099D01*
X518004Y443793D01*
X518504Y444487D01*
X519059Y445182D01*
X519365Y445487D01*
X519698Y445792D01*
X519726Y445820D01*
X519781Y445848D01*
X519892Y445931D01*
X520031Y446015D01*
X520198Y446153D01*
X520420Y446265D01*
X520670Y446403D01*
X520975Y446542D01*
X521281Y446681D01*
X521642Y446820D01*
X522030Y446959D01*
X522419Y447070D01*
X522863Y447153D01*
X523336Y447236D01*
X523835Y447264D01*
X524335Y447292D01*
X524669D01*
X524863Y447264D01*
D02*
G37*
G36*
X419337Y440544D02*
X419587D01*
X419920Y440488D01*
X420281Y440433D01*
X420698Y440349D01*
X421142Y440266D01*
X421614Y440127D01*
X422086Y439961D01*
X422614Y439739D01*
X423114Y439489D01*
X423614Y439211D01*
X424113Y438850D01*
X424613Y438461D01*
X425058Y438017D01*
X425085Y437989D01*
X425169Y437906D01*
X425280Y437767D01*
X425419Y437545D01*
X425613Y437295D01*
X425807Y436989D01*
X426029Y436600D01*
X426252Y436184D01*
X426446Y435712D01*
X426668Y435184D01*
X426863Y434601D01*
X427057Y433962D01*
X427196Y433268D01*
X427307Y432518D01*
X427390Y431741D01*
X427418Y430908D01*
Y430852D01*
Y430713D01*
Y430436D01*
X427390Y430075D01*
X413533D01*
Y430047D01*
Y429936D01*
X413561Y429769D01*
X413588Y429575D01*
X413616Y429297D01*
X413672Y429019D01*
X413727Y428686D01*
X413811Y428325D01*
X414033Y427575D01*
X414338Y426770D01*
X414533Y426409D01*
X414727Y426020D01*
X414977Y425687D01*
X415255Y425354D01*
X415282Y425326D01*
X415338Y425298D01*
X415421Y425215D01*
X415532Y425104D01*
X415699Y424993D01*
X415866Y424854D01*
X416088Y424687D01*
X416338Y424548D01*
X416893Y424243D01*
X417560Y423993D01*
X417921Y423882D01*
X418309Y423826D01*
X418726Y423771D01*
X419142Y423743D01*
X419309D01*
X419420Y423771D01*
X419754Y423799D01*
X420170Y423854D01*
X420614Y423965D01*
X421114Y424132D01*
X421614Y424326D01*
X422086Y424632D01*
X422114D01*
X422142Y424687D01*
X422281Y424798D01*
X422503Y425020D01*
X422780Y425354D01*
X423086Y425742D01*
X423419Y426270D01*
X423752Y426881D01*
X424030Y427575D01*
X427307Y427159D01*
Y427131D01*
X427279Y427020D01*
X427224Y426881D01*
X427140Y426687D01*
X427057Y426437D01*
X426946Y426159D01*
X426807Y425853D01*
X426668Y425520D01*
X426279Y424826D01*
X425780Y424076D01*
X425474Y423715D01*
X425169Y423354D01*
X424835Y423021D01*
X424447Y422716D01*
X424419Y422688D01*
X424363Y422660D01*
X424224Y422577D01*
X424086Y422466D01*
X423863Y422355D01*
X423614Y422216D01*
X423336Y422077D01*
X423003Y421938D01*
X422642Y421799D01*
X422225Y421660D01*
X421808Y421521D01*
X421336Y421410D01*
X420836Y421299D01*
X420309Y421216D01*
X419726Y421188D01*
X419142Y421160D01*
X418976D01*
X418754Y421188D01*
X418476D01*
X418115Y421244D01*
X417726Y421299D01*
X417282Y421383D01*
X416810Y421466D01*
X416310Y421605D01*
X415782Y421771D01*
X415227Y421966D01*
X414699Y422216D01*
X414144Y422493D01*
X413644Y422827D01*
X413144Y423215D01*
X412672Y423660D01*
X412644Y423688D01*
X412561Y423771D01*
X412450Y423910D01*
X412311Y424132D01*
X412117Y424382D01*
X411922Y424687D01*
X411700Y425048D01*
X411506Y425465D01*
X411284Y425937D01*
X411061Y426465D01*
X410867Y427048D01*
X410673Y427686D01*
X410534Y428353D01*
X410423Y429075D01*
X410339Y429852D01*
X410312Y430686D01*
Y430741D01*
Y430880D01*
X410339Y431130D01*
Y431463D01*
X410395Y431852D01*
X410451Y432296D01*
X410506Y432824D01*
X410617Y433352D01*
X410728Y433935D01*
X410895Y434518D01*
X411089Y435129D01*
X411311Y435740D01*
X411589Y436323D01*
X411922Y436906D01*
X412283Y437461D01*
X412700Y437961D01*
X412728Y437989D01*
X412811Y438072D01*
X412950Y438211D01*
X413144Y438378D01*
X413366Y438572D01*
X413672Y438794D01*
X414005Y439016D01*
X414394Y439266D01*
X414810Y439516D01*
X415282Y439739D01*
X415810Y439961D01*
X416365Y440155D01*
X416976Y440322D01*
X417587Y440461D01*
X418282Y440544D01*
X418976Y440572D01*
X419142D01*
X419337Y440544D01*
D02*
G37*
G36*
X359604D02*
X359854D01*
X360187Y440488D01*
X360548Y440433D01*
X360964Y440349D01*
X361409Y440266D01*
X361881Y440127D01*
X362353Y439961D01*
X362880Y439739D01*
X363380Y439489D01*
X363880Y439211D01*
X364380Y438850D01*
X364880Y438461D01*
X365324Y438017D01*
X365352Y437989D01*
X365435Y437906D01*
X365546Y437767D01*
X365685Y437545D01*
X365880Y437295D01*
X366074Y436989D01*
X366296Y436600D01*
X366518Y436184D01*
X366713Y435712D01*
X366935Y435184D01*
X367129Y434601D01*
X367324Y433962D01*
X367463Y433268D01*
X367574Y432518D01*
X367657Y431741D01*
X367685Y430908D01*
Y430852D01*
Y430713D01*
Y430436D01*
X367657Y430075D01*
X353800D01*
Y430047D01*
Y429936D01*
X353828Y429769D01*
X353855Y429575D01*
X353883Y429297D01*
X353939Y429019D01*
X353994Y428686D01*
X354077Y428325D01*
X354300Y427575D01*
X354605Y426770D01*
X354799Y426409D01*
X354994Y426020D01*
X355244Y425687D01*
X355521Y425354D01*
X355549Y425326D01*
X355605Y425298D01*
X355688Y425215D01*
X355799Y425104D01*
X355966Y424993D01*
X356132Y424854D01*
X356355Y424687D01*
X356605Y424548D01*
X357160Y424243D01*
X357826Y423993D01*
X358187Y423882D01*
X358576Y423826D01*
X358993Y423771D01*
X359409Y423743D01*
X359576D01*
X359687Y423771D01*
X360020Y423799D01*
X360437Y423854D01*
X360881Y423965D01*
X361381Y424132D01*
X361881Y424326D01*
X362353Y424632D01*
X362381D01*
X362408Y424687D01*
X362547Y424798D01*
X362769Y425020D01*
X363047Y425354D01*
X363353Y425742D01*
X363686Y426270D01*
X364019Y426881D01*
X364297Y427575D01*
X367574Y427159D01*
Y427131D01*
X367546Y427020D01*
X367490Y426881D01*
X367407Y426687D01*
X367324Y426437D01*
X367213Y426159D01*
X367074Y425853D01*
X366935Y425520D01*
X366546Y424826D01*
X366046Y424076D01*
X365741Y423715D01*
X365435Y423354D01*
X365102Y423021D01*
X364713Y422716D01*
X364686Y422688D01*
X364630Y422660D01*
X364491Y422577D01*
X364352Y422466D01*
X364130Y422355D01*
X363880Y422216D01*
X363602Y422077D01*
X363269Y421938D01*
X362908Y421799D01*
X362492Y421660D01*
X362075Y421521D01*
X361603Y421410D01*
X361103Y421299D01*
X360576Y421216D01*
X359992Y421188D01*
X359409Y421160D01*
X359243D01*
X359020Y421188D01*
X358743D01*
X358382Y421244D01*
X357993Y421299D01*
X357549Y421383D01*
X357077Y421466D01*
X356577Y421605D01*
X356049Y421771D01*
X355494Y421966D01*
X354966Y422216D01*
X354411Y422493D01*
X353911Y422827D01*
X353411Y423215D01*
X352939Y423660D01*
X352911Y423688D01*
X352828Y423771D01*
X352717Y423910D01*
X352578Y424132D01*
X352383Y424382D01*
X352189Y424687D01*
X351967Y425048D01*
X351772Y425465D01*
X351550Y425937D01*
X351328Y426465D01*
X351134Y427048D01*
X350939Y427686D01*
X350801Y428353D01*
X350690Y429075D01*
X350606Y429852D01*
X350578Y430686D01*
Y430741D01*
Y430880D01*
X350606Y431130D01*
Y431463D01*
X350662Y431852D01*
X350717Y432296D01*
X350773Y432824D01*
X350884Y433352D01*
X350995Y433935D01*
X351162Y434518D01*
X351356Y435129D01*
X351578Y435740D01*
X351856Y436323D01*
X352189Y436906D01*
X352550Y437461D01*
X352967Y437961D01*
X352994Y437989D01*
X353078Y438072D01*
X353217Y438211D01*
X353411Y438378D01*
X353633Y438572D01*
X353939Y438794D01*
X354272Y439016D01*
X354661Y439266D01*
X355077Y439516D01*
X355549Y439739D01*
X356077Y439961D01*
X356632Y440155D01*
X357243Y440322D01*
X357854Y440461D01*
X358548Y440544D01*
X359243Y440572D01*
X359409D01*
X359604Y440544D01*
D02*
G37*
G36*
X378571D02*
X378820Y440516D01*
X379098Y440488D01*
X379431Y440405D01*
X379792Y440322D01*
X380209Y440211D01*
X380626Y440044D01*
X381070Y439850D01*
X381542Y439628D01*
X381986Y439350D01*
X382431Y439016D01*
X382875Y438628D01*
X383292Y438183D01*
X383680Y437656D01*
Y440155D01*
X386513D01*
Y414468D01*
X383375D01*
Y423549D01*
X383347Y423493D01*
X383236Y423382D01*
X383069Y423188D01*
X382847Y422938D01*
X382542Y422688D01*
X382181Y422382D01*
X381764Y422105D01*
X381292Y421827D01*
X381264D01*
X381237Y421799D01*
X381070Y421716D01*
X380792Y421605D01*
X380459Y421494D01*
X380042Y421383D01*
X379570Y421272D01*
X379070Y421188D01*
X378515Y421160D01*
X378376D01*
X378182Y421188D01*
X377960Y421216D01*
X377682Y421244D01*
X377349Y421299D01*
X376960Y421383D01*
X376543Y421494D01*
X376127Y421632D01*
X375655Y421799D01*
X375183Y422021D01*
X374710Y422271D01*
X374211Y422577D01*
X373739Y422938D01*
X373267Y423326D01*
X372794Y423799D01*
X372767Y423826D01*
X372683Y423910D01*
X372572Y424076D01*
X372433Y424271D01*
X372239Y424548D01*
X372045Y424882D01*
X371823Y425243D01*
X371628Y425687D01*
X371406Y426187D01*
X371184Y426714D01*
X370989Y427325D01*
X370795Y427964D01*
X370656Y428658D01*
X370545Y429380D01*
X370462Y430186D01*
X370434Y431019D01*
Y431046D01*
Y431158D01*
Y431296D01*
X370462Y431491D01*
Y431741D01*
X370490Y432019D01*
X370517Y432352D01*
X370545Y432713D01*
X370656Y433490D01*
X370823Y434323D01*
X371073Y435184D01*
X371378Y436045D01*
Y436073D01*
X371434Y436156D01*
X371489Y436267D01*
X371572Y436406D01*
X371656Y436600D01*
X371795Y436823D01*
X372100Y437295D01*
X372489Y437850D01*
X372961Y438406D01*
X373544Y438933D01*
X374183Y439405D01*
X374211Y439433D01*
X374266Y439461D01*
X374377Y439516D01*
X374516Y439600D01*
X374683Y439683D01*
X374877Y439766D01*
X375127Y439877D01*
X375377Y439989D01*
X375988Y440211D01*
X376682Y440377D01*
X377432Y440516D01*
X378237Y440572D01*
X378404D01*
X378571Y440544D01*
D02*
G37*
%LPC*%
G36*
X360548Y537817D02*
X353189D01*
Y528652D01*
X360104D01*
X360326Y528680D01*
X360603D01*
X360909Y528708D01*
X361270Y528764D01*
X361631Y528819D01*
X362408Y528958D01*
X363186Y529180D01*
X363547Y529319D01*
X363880Y529486D01*
X364213Y529652D01*
X364491Y529874D01*
X364519Y529902D01*
X364547Y529930D01*
X364630Y530013D01*
X364713Y530097D01*
X364935Y530374D01*
X365185Y530763D01*
X365435Y531263D01*
X365657Y531846D01*
X365824Y532540D01*
X365852Y532901D01*
X365880Y533318D01*
Y533346D01*
Y533401D01*
Y533485D01*
Y533596D01*
X365824Y533901D01*
X365769Y534262D01*
X365685Y534706D01*
X365519Y535151D01*
X365324Y535623D01*
X365047Y536067D01*
X365019Y536123D01*
X364908Y536262D01*
X364713Y536456D01*
X364491Y536678D01*
X364158Y536928D01*
X363797Y537178D01*
X363380Y537400D01*
X362908Y537567D01*
X362880D01*
X362742Y537595D01*
X362520Y537650D01*
X362186Y537706D01*
X361992D01*
X361770Y537733D01*
X361492Y537761D01*
X361214Y537789D01*
X360881D01*
X360548Y537817D01*
D02*
G37*
G36*
X460964Y538372D02*
X460325D01*
X460159Y538344D01*
X459881D01*
X459576Y538289D01*
X459215Y538233D01*
X458826Y538150D01*
X458382Y538067D01*
X457909Y537928D01*
X457410Y537761D01*
X456882Y537567D01*
X456382Y537317D01*
X455855Y537039D01*
X455327Y536706D01*
X454799Y536317D01*
X454299Y535873D01*
X454272Y535845D01*
X454188Y535762D01*
X454049Y535595D01*
X453911Y535401D01*
X453688Y535123D01*
X453494Y534790D01*
X453244Y534373D01*
X453022Y533929D01*
X452772Y533373D01*
X452522Y532762D01*
X452328Y532096D01*
X452133Y531346D01*
X451967Y530541D01*
X451828Y529652D01*
X451745Y528680D01*
X451717Y527625D01*
Y527569D01*
Y527431D01*
X451745Y527181D01*
Y526848D01*
X451800Y526459D01*
X451856Y526014D01*
X451911Y525515D01*
X452022Y524987D01*
X452161Y524404D01*
X452328Y523793D01*
X452522Y523210D01*
X452772Y522599D01*
X453050Y521988D01*
X453383Y521405D01*
X453744Y520849D01*
X454188Y520322D01*
X454216Y520294D01*
X454299Y520211D01*
X454438Y520072D01*
X454633Y519905D01*
X454882Y519711D01*
X455188Y519488D01*
X455521Y519239D01*
X455910Y519016D01*
X456327Y518766D01*
X456826Y518516D01*
X457326Y518294D01*
X457882Y518100D01*
X458465Y517933D01*
X459104Y517795D01*
X459742Y517711D01*
X460436Y517683D01*
X460603D01*
X460798Y517711D01*
X461075Y517739D01*
X461409Y517767D01*
X461769Y517822D01*
X462214Y517906D01*
X462658Y518017D01*
X463158Y518155D01*
X463658Y518322D01*
X464185Y518544D01*
X464713Y518822D01*
X465241Y519127D01*
X465768Y519461D01*
X466268Y519877D01*
X466740Y520349D01*
X466768Y520377D01*
X466851Y520488D01*
X466962Y520627D01*
X467129Y520849D01*
X467323Y521127D01*
X467546Y521460D01*
X467768Y521849D01*
X467990Y522321D01*
X468212Y522821D01*
X468462Y523404D01*
X468656Y524015D01*
X468851Y524709D01*
X469018Y525459D01*
X469129Y526236D01*
X469212Y527097D01*
X469240Y527986D01*
Y528014D01*
Y528125D01*
Y528292D01*
X469212Y528514D01*
Y528791D01*
X469184Y529097D01*
X469156Y529458D01*
X469101Y529847D01*
X468990Y530708D01*
X468795Y531624D01*
X468518Y532540D01*
X468157Y533457D01*
Y533485D01*
X468101Y533568D01*
X468046Y533679D01*
X467962Y533846D01*
X467851Y534040D01*
X467712Y534262D01*
X467379Y534790D01*
X466935Y535373D01*
X466407Y535956D01*
X465796Y536539D01*
X465074Y537067D01*
X465046Y537095D01*
X464991Y537122D01*
X464880Y537178D01*
X464713Y537261D01*
X464519Y537372D01*
X464297Y537483D01*
X464047Y537595D01*
X463741Y537733D01*
X463408Y537844D01*
X463075Y537956D01*
X462297Y538178D01*
X461436Y538316D01*
X460964Y538372D01*
D02*
G37*
G36*
X411256D02*
X410617D01*
X410451Y538344D01*
X410173D01*
X409867Y538289D01*
X409506Y538233D01*
X409118Y538150D01*
X408673Y538067D01*
X408201Y537928D01*
X407701Y537761D01*
X407174Y537567D01*
X406674Y537317D01*
X406146Y537039D01*
X405619Y536706D01*
X405091Y536317D01*
X404591Y535873D01*
X404563Y535845D01*
X404480Y535762D01*
X404341Y535595D01*
X404202Y535401D01*
X403980Y535123D01*
X403786Y534790D01*
X403536Y534373D01*
X403314Y533929D01*
X403064Y533373D01*
X402814Y532762D01*
X402619Y532096D01*
X402425Y531346D01*
X402258Y530541D01*
X402119Y529652D01*
X402036Y528680D01*
X402008Y527625D01*
Y527569D01*
Y527431D01*
X402036Y527181D01*
Y526848D01*
X402092Y526459D01*
X402147Y526014D01*
X402203Y525515D01*
X402314Y524987D01*
X402453Y524404D01*
X402619Y523793D01*
X402814Y523210D01*
X403064Y522599D01*
X403341Y521988D01*
X403675Y521405D01*
X404036Y520849D01*
X404480Y520322D01*
X404508Y520294D01*
X404591Y520211D01*
X404730Y520072D01*
X404924Y519905D01*
X405174Y519711D01*
X405480Y519488D01*
X405813Y519239D01*
X406202Y519016D01*
X406618Y518766D01*
X407118Y518516D01*
X407618Y518294D01*
X408173Y518100D01*
X408757Y517933D01*
X409395Y517795D01*
X410034Y517711D01*
X410728Y517683D01*
X410895D01*
X411089Y517711D01*
X411367Y517739D01*
X411700Y517767D01*
X412061Y517822D01*
X412505Y517906D01*
X412950Y518017D01*
X413450Y518155D01*
X413949Y518322D01*
X414477Y518544D01*
X415005Y518822D01*
X415532Y519127D01*
X416060Y519461D01*
X416560Y519877D01*
X417032Y520349D01*
X417060Y520377D01*
X417143Y520488D01*
X417254Y520627D01*
X417421Y520849D01*
X417615Y521127D01*
X417837Y521460D01*
X418059Y521849D01*
X418282Y522321D01*
X418504Y522821D01*
X418754Y523404D01*
X418948Y524015D01*
X419142Y524709D01*
X419309Y525459D01*
X419420Y526236D01*
X419503Y527097D01*
X419531Y527986D01*
Y528014D01*
Y528125D01*
Y528292D01*
X419503Y528514D01*
Y528791D01*
X419476Y529097D01*
X419448Y529458D01*
X419392Y529847D01*
X419281Y530708D01*
X419087Y531624D01*
X418809Y532540D01*
X418448Y533457D01*
Y533485D01*
X418393Y533568D01*
X418337Y533679D01*
X418254Y533846D01*
X418143Y534040D01*
X418004Y534262D01*
X417671Y534790D01*
X417226Y535373D01*
X416699Y535956D01*
X416088Y536539D01*
X415366Y537067D01*
X415338Y537095D01*
X415282Y537122D01*
X415171Y537178D01*
X415005Y537261D01*
X414810Y537372D01*
X414588Y537483D01*
X414338Y537595D01*
X414033Y537733D01*
X413700Y537844D01*
X413366Y537956D01*
X412589Y538178D01*
X411728Y538316D01*
X411256Y538372D01*
D02*
G37*
G36*
X448162Y475801D02*
X440803D01*
Y466637D01*
X447718D01*
X447940Y466664D01*
X448218D01*
X448523Y466692D01*
X448884Y466748D01*
X449245Y466803D01*
X450023Y466942D01*
X450800Y467164D01*
X451161Y467303D01*
X451495Y467470D01*
X451828Y467636D01*
X452106Y467858D01*
X452133Y467886D01*
X452161Y467914D01*
X452244Y467997D01*
X452328Y468081D01*
X452550Y468358D01*
X452800Y468747D01*
X453050Y469247D01*
X453272Y469830D01*
X453439Y470524D01*
X453466Y470885D01*
X453494Y471302D01*
Y471330D01*
Y471385D01*
Y471468D01*
Y471580D01*
X453439Y471885D01*
X453383Y472246D01*
X453300Y472690D01*
X453133Y473135D01*
X452939Y473607D01*
X452661Y474051D01*
X452633Y474107D01*
X452522Y474246D01*
X452328Y474440D01*
X452106Y474662D01*
X451772Y474912D01*
X451411Y475162D01*
X450995Y475384D01*
X450523Y475551D01*
X450495D01*
X450356Y475578D01*
X450134Y475634D01*
X449801Y475690D01*
X449606D01*
X449384Y475717D01*
X449106Y475745D01*
X448829Y475773D01*
X448495D01*
X448162Y475801D01*
D02*
G37*
G36*
X411117Y462527D02*
X411089D01*
X411034Y462499D01*
X410923Y462471D01*
X410784Y462416D01*
X410617Y462332D01*
X410395Y462277D01*
X410117Y462193D01*
X409840Y462110D01*
X409479Y462027D01*
X409090Y461916D01*
X408673Y461832D01*
X408201Y461721D01*
X407701Y461610D01*
X407174Y461527D01*
X406591Y461416D01*
X405952Y461333D01*
X405868D01*
X405757Y461305D01*
X405646Y461277D01*
X405285Y461221D01*
X404869Y461138D01*
X404424Y461055D01*
X403980Y460944D01*
X403564Y460833D01*
X403203Y460694D01*
X403175Y460666D01*
X403064Y460638D01*
X402925Y460555D01*
X402758Y460444D01*
X402536Y460277D01*
X402342Y460111D01*
X402147Y459916D01*
X401953Y459666D01*
X401925Y459639D01*
X401897Y459555D01*
X401814Y459416D01*
X401758Y459222D01*
X401675Y459000D01*
X401592Y458750D01*
X401564Y458472D01*
X401536Y458167D01*
Y458111D01*
X401564Y457972D01*
X401592Y457722D01*
X401647Y457445D01*
X401758Y457112D01*
X401925Y456750D01*
X402175Y456417D01*
X402481Y456084D01*
X402536Y456056D01*
X402647Y455945D01*
X402869Y455834D01*
X403175Y455667D01*
X403564Y455529D01*
X404063Y455390D01*
X404619Y455279D01*
X405258Y455251D01*
X405563D01*
X405730Y455279D01*
X405924Y455306D01*
X406341Y455362D01*
X406868Y455445D01*
X407396Y455584D01*
X407951Y455779D01*
X408507Y456028D01*
X408534D01*
X408562Y456056D01*
X408729Y456167D01*
X408979Y456362D01*
X409312Y456612D01*
X409645Y456917D01*
X409978Y457306D01*
X410312Y457722D01*
X410589Y458222D01*
X410617Y458278D01*
X410673Y458417D01*
X410756Y458667D01*
X410839Y459000D01*
X410923Y459444D01*
X411006Y460000D01*
X411061Y460638D01*
X411089Y461360D01*
X411117Y462527D01*
D02*
G37*
G36*
X555910Y476300D02*
X555715D01*
X555549Y476273D01*
X555382Y476245D01*
X555160Y476217D01*
X554660Y476078D01*
X554105Y475856D01*
X553827Y475717D01*
X553522Y475523D01*
X553244Y475329D01*
X552966Y475079D01*
X552689Y474801D01*
X552438Y474468D01*
X552411Y474440D01*
X552383Y474357D01*
X552300Y474218D01*
X552189Y473996D01*
X552077Y473718D01*
X551939Y473385D01*
X551772Y472996D01*
X551633Y472496D01*
X551494Y471941D01*
X551328Y471330D01*
X551189Y470608D01*
X551078Y469830D01*
X550967Y468969D01*
X550911Y467997D01*
X550856Y466970D01*
X550828Y465831D01*
Y465803D01*
Y465748D01*
Y465665D01*
Y465554D01*
Y465415D01*
Y465220D01*
X550856Y464804D01*
X550883Y464304D01*
X550911Y463721D01*
X550939Y463082D01*
X551022Y462416D01*
X551189Y460999D01*
X551300Y460305D01*
X551439Y459611D01*
X551605Y458972D01*
X551828Y458389D01*
X552050Y457861D01*
X552300Y457417D01*
X552327Y457389D01*
X552355Y457334D01*
X552438Y457223D01*
X552577Y457084D01*
X552716Y456945D01*
X552883Y456778D01*
X553299Y456389D01*
X553827Y456001D01*
X554466Y455695D01*
X554799Y455556D01*
X555160Y455445D01*
X555549Y455390D01*
X555938Y455362D01*
X556021D01*
X556160Y455390D01*
X556299D01*
X556493Y455417D01*
X556715Y455473D01*
X557215Y455612D01*
X557493Y455723D01*
X557770Y455862D01*
X558076Y456028D01*
X558381Y456251D01*
X558687Y456473D01*
X558992Y456750D01*
X559298Y457084D01*
X559575Y457445D01*
X559603Y457473D01*
X559631Y457556D01*
X559714Y457667D01*
X559798Y457861D01*
X559936Y458111D01*
X560047Y458444D01*
X560186Y458833D01*
X560325Y459277D01*
X560464Y459805D01*
X560603Y460416D01*
X560742Y461083D01*
X560853Y461860D01*
X560936Y462721D01*
X561020Y463665D01*
X561047Y464693D01*
X561075Y465831D01*
Y465859D01*
Y465914D01*
Y465998D01*
Y466109D01*
Y466248D01*
Y466414D01*
X561047Y466859D01*
X561020Y467359D01*
X560992Y467942D01*
X560964Y468580D01*
X560881Y469247D01*
X560714Y470663D01*
X560575Y471357D01*
X560436Y472024D01*
X560270Y472663D01*
X560075Y473274D01*
X559853Y473773D01*
X559575Y474218D01*
X559548Y474246D01*
X559520Y474301D01*
X559437Y474412D01*
X559326Y474551D01*
X559159Y474690D01*
X558992Y474884D01*
X558798Y475079D01*
X558576Y475273D01*
X558048Y475634D01*
X557409Y475967D01*
X557076Y476106D01*
X556687Y476217D01*
X556326Y476273D01*
X555910Y476300D01*
D02*
G37*
G36*
X468434Y469580D02*
X468212D01*
X468046Y469552D01*
X467851Y469525D01*
X467601Y469497D01*
X467074Y469358D01*
X466435Y469136D01*
X466129Y468997D01*
X465796Y468830D01*
X465463Y468636D01*
X465130Y468386D01*
X464824Y468108D01*
X464519Y467803D01*
X464491Y467775D01*
X464463Y467720D01*
X464380Y467608D01*
X464269Y467470D01*
X464158Y467275D01*
X464019Y467053D01*
X463880Y466775D01*
X463741Y466470D01*
X463602Y466109D01*
X463463Y465720D01*
X463325Y465276D01*
X463213Y464804D01*
X463102Y464276D01*
X463019Y463721D01*
X462991Y463110D01*
X462964Y462471D01*
Y462443D01*
Y462304D01*
Y462138D01*
X462991Y461888D01*
X463019Y461582D01*
X463047Y461249D01*
X463102Y460860D01*
X463158Y460472D01*
X463352Y459583D01*
X463630Y458694D01*
X463797Y458278D01*
X464019Y457861D01*
X464241Y457473D01*
X464519Y457112D01*
X464546Y457084D01*
X464602Y457028D01*
X464685Y456945D01*
X464796Y456834D01*
X464963Y456695D01*
X465130Y456556D01*
X465352Y456389D01*
X465602Y456251D01*
X466157Y455917D01*
X466824Y455640D01*
X467185Y455529D01*
X467601Y455445D01*
X467990Y455390D01*
X468434Y455362D01*
X468656D01*
X468823Y455390D01*
X469018Y455417D01*
X469267Y455445D01*
X469795Y455584D01*
X470406Y455806D01*
X470739Y455945D01*
X471072Y456112D01*
X471378Y456306D01*
X471711Y456556D01*
X472017Y456834D01*
X472322Y457139D01*
X472350Y457167D01*
X472378Y457223D01*
X472461Y457334D01*
X472572Y457473D01*
X472683Y457667D01*
X472822Y457889D01*
X472961Y458167D01*
X473127Y458500D01*
X473266Y458833D01*
X473405Y459250D01*
X473544Y459694D01*
X473655Y460194D01*
X473766Y460722D01*
X473849Y461305D01*
X473877Y461916D01*
X473905Y462582D01*
Y462610D01*
Y462721D01*
Y462915D01*
X473877Y463138D01*
X473849Y463443D01*
X473822Y463776D01*
X473766Y464137D01*
X473711Y464526D01*
X473516Y465359D01*
X473405Y465803D01*
X473239Y466248D01*
X473044Y466664D01*
X472850Y467081D01*
X472600Y467442D01*
X472322Y467803D01*
X472294Y467831D01*
X472239Y467886D01*
X472156Y467970D01*
X472044Y468081D01*
X471878Y468220D01*
X471711Y468358D01*
X471489Y468525D01*
X471267Y468692D01*
X470684Y469025D01*
X470017Y469303D01*
X469656Y469414D01*
X469267Y469497D01*
X468851Y469552D01*
X468434Y469580D01*
D02*
G37*
G36*
X368934D02*
X368712D01*
X368546Y469552D01*
X368351Y469525D01*
X368101Y469497D01*
X367574Y469358D01*
X366935Y469136D01*
X366630Y468997D01*
X366296Y468830D01*
X365963Y468636D01*
X365630Y468386D01*
X365324Y468108D01*
X365019Y467803D01*
X364991Y467775D01*
X364963Y467720D01*
X364880Y467608D01*
X364769Y467470D01*
X364658Y467275D01*
X364519Y467053D01*
X364380Y466775D01*
X364241Y466470D01*
X364102Y466109D01*
X363964Y465720D01*
X363825Y465276D01*
X363714Y464804D01*
X363602Y464276D01*
X363519Y463721D01*
X363492Y463110D01*
X363464Y462471D01*
Y462443D01*
Y462304D01*
Y462138D01*
X363492Y461888D01*
X363519Y461582D01*
X363547Y461249D01*
X363602Y460860D01*
X363658Y460472D01*
X363853Y459583D01*
X364130Y458694D01*
X364297Y458278D01*
X364519Y457861D01*
X364741Y457473D01*
X365019Y457112D01*
X365047Y457084D01*
X365102Y457028D01*
X365185Y456945D01*
X365297Y456834D01*
X365463Y456695D01*
X365630Y456556D01*
X365852Y456389D01*
X366102Y456251D01*
X366657Y455917D01*
X367324Y455640D01*
X367685Y455529D01*
X368101Y455445D01*
X368490Y455390D01*
X368934Y455362D01*
X369157D01*
X369323Y455390D01*
X369517Y455417D01*
X369767Y455445D01*
X370295Y455584D01*
X370906Y455806D01*
X371239Y455945D01*
X371572Y456112D01*
X371878Y456306D01*
X372211Y456556D01*
X372517Y456834D01*
X372822Y457139D01*
X372850Y457167D01*
X372878Y457223D01*
X372961Y457334D01*
X373072Y457473D01*
X373183Y457667D01*
X373322Y457889D01*
X373461Y458167D01*
X373627Y458500D01*
X373766Y458833D01*
X373905Y459250D01*
X374044Y459694D01*
X374155Y460194D01*
X374266Y460722D01*
X374349Y461305D01*
X374377Y461916D01*
X374405Y462582D01*
Y462610D01*
Y462721D01*
Y462915D01*
X374377Y463138D01*
X374349Y463443D01*
X374322Y463776D01*
X374266Y464137D01*
X374211Y464526D01*
X374016Y465359D01*
X373905Y465803D01*
X373739Y466248D01*
X373544Y466664D01*
X373350Y467081D01*
X373100Y467442D01*
X372822Y467803D01*
X372794Y467831D01*
X372739Y467886D01*
X372656Y467970D01*
X372545Y468081D01*
X372378Y468220D01*
X372211Y468358D01*
X371989Y468525D01*
X371767Y468692D01*
X371184Y469025D01*
X370517Y469303D01*
X370156Y469414D01*
X369767Y469497D01*
X369351Y469552D01*
X368934Y469580D01*
D02*
G37*
G36*
X524307Y444682D02*
X524113D01*
X523947Y444654D01*
X523780Y444626D01*
X523558Y444598D01*
X523058Y444459D01*
X522503Y444237D01*
X522225Y444098D01*
X521919Y443904D01*
X521642Y443710D01*
X521364Y443460D01*
X521086Y443182D01*
X520836Y442849D01*
X520809Y442821D01*
X520781Y442738D01*
X520697Y442599D01*
X520586Y442377D01*
X520475Y442099D01*
X520336Y441766D01*
X520170Y441377D01*
X520031Y440877D01*
X519892Y440322D01*
X519726Y439711D01*
X519587Y438989D01*
X519476Y438211D01*
X519365Y437350D01*
X519309Y436378D01*
X519253Y435351D01*
X519226Y434212D01*
Y434185D01*
Y434129D01*
Y434046D01*
Y433935D01*
Y433796D01*
Y433601D01*
X519253Y433185D01*
X519281Y432685D01*
X519309Y432102D01*
X519337Y431463D01*
X519420Y430797D01*
X519587Y429380D01*
X519698Y428686D01*
X519837Y427992D01*
X520003Y427353D01*
X520225Y426770D01*
X520447Y426242D01*
X520697Y425798D01*
X520725Y425770D01*
X520753Y425715D01*
X520836Y425604D01*
X520975Y425465D01*
X521114Y425326D01*
X521281Y425159D01*
X521697Y424770D01*
X522225Y424382D01*
X522863Y424076D01*
X523197Y423937D01*
X523558Y423826D01*
X523947Y423771D01*
X524335Y423743D01*
X524419D01*
X524557Y423771D01*
X524696D01*
X524891Y423799D01*
X525113Y423854D01*
X525613Y423993D01*
X525890Y424104D01*
X526168Y424243D01*
X526474Y424409D01*
X526779Y424632D01*
X527084Y424854D01*
X527390Y425132D01*
X527696Y425465D01*
X527973Y425826D01*
X528001Y425853D01*
X528029Y425937D01*
X528112Y426048D01*
X528195Y426242D01*
X528334Y426492D01*
X528445Y426826D01*
X528584Y427214D01*
X528723Y427659D01*
X528862Y428186D01*
X529001Y428797D01*
X529140Y429464D01*
X529251Y430241D01*
X529334Y431102D01*
X529417Y432046D01*
X529445Y433074D01*
X529473Y434212D01*
Y434240D01*
Y434296D01*
Y434379D01*
Y434490D01*
Y434629D01*
Y434796D01*
X529445Y435240D01*
X529417Y435740D01*
X529389Y436323D01*
X529362Y436962D01*
X529278Y437628D01*
X529112Y439044D01*
X528973Y439739D01*
X528834Y440405D01*
X528667Y441044D01*
X528473Y441655D01*
X528251Y442155D01*
X527973Y442599D01*
X527945Y442627D01*
X527918Y442682D01*
X527834Y442793D01*
X527723Y442932D01*
X527557Y443071D01*
X527390Y443265D01*
X527196Y443460D01*
X526973Y443654D01*
X526446Y444015D01*
X525807Y444348D01*
X525474Y444487D01*
X525085Y444598D01*
X524724Y444654D01*
X524307Y444682D01*
D02*
G37*
G36*
X418976Y437989D02*
X418754D01*
X418615Y437961D01*
X418421Y437933D01*
X418226Y437906D01*
X417698Y437795D01*
X417143Y437628D01*
X416504Y437378D01*
X416199Y437212D01*
X415894Y437017D01*
X415588Y436767D01*
X415310Y436517D01*
X415282Y436489D01*
X415255Y436462D01*
X415171Y436378D01*
X415088Y436267D01*
X414977Y436101D01*
X414838Y435934D01*
X414699Y435740D01*
X414561Y435490D01*
X414422Y435240D01*
X414283Y434934D01*
X414005Y434268D01*
X413811Y433518D01*
X413755Y433102D01*
X413700Y432657D01*
X424086D01*
Y432685D01*
Y432768D01*
X424058Y432879D01*
X424030Y433046D01*
X424002Y433240D01*
X423975Y433462D01*
X423863Y433962D01*
X423697Y434546D01*
X423502Y435129D01*
X423225Y435684D01*
X422892Y436156D01*
X422864Y436184D01*
X422836Y436239D01*
X422725Y436323D01*
X422614Y436434D01*
X422475Y436573D01*
X422281Y436739D01*
X422058Y436906D01*
X421836Y437073D01*
X421559Y437239D01*
X421253Y437406D01*
X420587Y437711D01*
X420226Y437822D01*
X419837Y437906D01*
X419420Y437961D01*
X418976Y437989D01*
D02*
G37*
G36*
X359243D02*
X359020D01*
X358882Y437961D01*
X358687Y437933D01*
X358493Y437906D01*
X357965Y437795D01*
X357410Y437628D01*
X356771Y437378D01*
X356466Y437212D01*
X356160Y437017D01*
X355855Y436767D01*
X355577Y436517D01*
X355549Y436489D01*
X355521Y436462D01*
X355438Y436378D01*
X355355Y436267D01*
X355244Y436101D01*
X355105Y435934D01*
X354966Y435740D01*
X354827Y435490D01*
X354688Y435240D01*
X354550Y434934D01*
X354272Y434268D01*
X354077Y433518D01*
X354022Y433102D01*
X353966Y432657D01*
X364352D01*
Y432685D01*
Y432768D01*
X364325Y432879D01*
X364297Y433046D01*
X364269Y433240D01*
X364241Y433462D01*
X364130Y433962D01*
X363964Y434546D01*
X363769Y435129D01*
X363492Y435684D01*
X363158Y436156D01*
X363130Y436184D01*
X363103Y436239D01*
X362992Y436323D01*
X362880Y436434D01*
X362742Y436573D01*
X362547Y436739D01*
X362325Y436906D01*
X362103Y437073D01*
X361825Y437239D01*
X361520Y437406D01*
X360853Y437711D01*
X360492Y437822D01*
X360104Y437906D01*
X359687Y437961D01*
X359243Y437989D01*
D02*
G37*
G36*
X378543Y438100D02*
X378348D01*
X378210Y438072D01*
X378015Y438045D01*
X377821Y438017D01*
X377349Y437878D01*
X376793Y437684D01*
X376516Y437545D01*
X376210Y437350D01*
X375932Y437156D01*
X375627Y436934D01*
X375349Y436656D01*
X375072Y436351D01*
X375044Y436323D01*
X375016Y436267D01*
X374933Y436156D01*
X374849Y436017D01*
X374738Y435823D01*
X374627Y435601D01*
X374488Y435323D01*
X374377Y435018D01*
X374238Y434657D01*
X374100Y434240D01*
X373989Y433796D01*
X373877Y433324D01*
X373794Y432796D01*
X373711Y432213D01*
X373683Y431574D01*
X373655Y430908D01*
Y430880D01*
Y430741D01*
Y430574D01*
X373683Y430325D01*
X373711Y430019D01*
X373739Y429686D01*
X373794Y429297D01*
X373850Y428881D01*
X374016Y428020D01*
X374294Y427131D01*
X374461Y426687D01*
X374655Y426270D01*
X374905Y425881D01*
X375155Y425520D01*
X375183Y425492D01*
X375238Y425437D01*
X375322Y425354D01*
X375433Y425243D01*
X375571Y425104D01*
X375738Y424965D01*
X376182Y424632D01*
X376710Y424298D01*
X377321Y424021D01*
X377654Y423910D01*
X378015Y423826D01*
X378376Y423771D01*
X378765Y423743D01*
X378959D01*
X379098Y423771D01*
X379265Y423799D01*
X379487Y423826D01*
X379959Y423965D01*
X380487Y424160D01*
X380764Y424298D01*
X381070Y424465D01*
X381348Y424659D01*
X381653Y424882D01*
X381931Y425132D01*
X382208Y425437D01*
X382236Y425465D01*
X382264Y425520D01*
X382347Y425604D01*
X382431Y425770D01*
X382542Y425937D01*
X382681Y426159D01*
X382819Y426409D01*
X382958Y426714D01*
X383069Y427075D01*
X383208Y427436D01*
X383347Y427881D01*
X383458Y428353D01*
X383541Y428853D01*
X383625Y429408D01*
X383652Y429991D01*
X383680Y430630D01*
Y430686D01*
Y430797D01*
Y430991D01*
X383652Y431241D01*
X383625Y431546D01*
X383597Y431907D01*
X383541Y432296D01*
X383486Y432713D01*
X383292Y433629D01*
X383014Y434546D01*
X382847Y435018D01*
X382653Y435434D01*
X382403Y435851D01*
X382125Y436212D01*
X382097Y436239D01*
X382070Y436295D01*
X381959Y436378D01*
X381847Y436517D01*
X381709Y436656D01*
X381542Y436823D01*
X381098Y437156D01*
X380570Y437517D01*
X379959Y437795D01*
X379626Y437933D01*
X379293Y438017D01*
X378932Y438072D01*
X378543Y438100D01*
D02*
G37*
%LPD*%
M02*
