G04*
G04 #@! TF.GenerationSoftware,Altium Limited,Altium Designer,19.1.5 (86)*
G04*
G04 Layer_Color=65535*
%FSLAX25Y25*%
%MOIN*%
G70*
G01*
G75*
%ADD10C,0.00787*%
G36*
X39622Y65598D02*
X39927Y65570D01*
X40233Y65542D01*
X40594Y65515D01*
X41371Y65404D01*
X42232Y65237D01*
X43093Y64987D01*
X43926Y64682D01*
X43954D01*
X44009Y64626D01*
X44148Y64598D01*
X44287Y64515D01*
X44454Y64404D01*
X44676Y64293D01*
X45148Y64015D01*
X45703Y63626D01*
X46259Y63154D01*
X46786Y62627D01*
X47258Y61988D01*
X47286Y61960D01*
X47314Y61905D01*
X47370Y61821D01*
X47453Y61682D01*
X47536Y61516D01*
X47647Y61321D01*
X47731Y61071D01*
X47869Y60821D01*
X48092Y60238D01*
X48286Y59544D01*
X48453Y58794D01*
X48536Y57961D01*
X45287Y57711D01*
Y57739D01*
X45259Y57822D01*
Y57933D01*
X45231Y58100D01*
X45176Y58322D01*
X45120Y58544D01*
X44954Y59072D01*
X44731Y59655D01*
X44398Y60266D01*
X44009Y60849D01*
X43760Y61099D01*
X43482Y61349D01*
X43454Y61377D01*
X43426Y61405D01*
X43315Y61460D01*
X43204Y61544D01*
X43038Y61627D01*
X42843Y61738D01*
X42621Y61849D01*
X42371Y61988D01*
X42066Y62099D01*
X41732Y62210D01*
X41371Y62321D01*
X40982Y62404D01*
X40538Y62488D01*
X40066Y62543D01*
X39566Y62599D01*
X38761D01*
X38539Y62571D01*
X38289D01*
X38011Y62543D01*
X37678Y62515D01*
X37345Y62460D01*
X36595Y62321D01*
X35873Y62127D01*
X35179Y61849D01*
X34845Y61655D01*
X34568Y61460D01*
X34540D01*
X34512Y61405D01*
X34345Y61266D01*
X34123Y61016D01*
X33873Y60683D01*
X33623Y60294D01*
X33401Y59822D01*
X33235Y59322D01*
X33207Y59044D01*
X33179Y58739D01*
Y58711D01*
Y58683D01*
X33207Y58517D01*
X33235Y58267D01*
X33290Y57961D01*
X33429Y57600D01*
X33596Y57211D01*
X33818Y56850D01*
X34151Y56489D01*
X34207Y56462D01*
X34262Y56406D01*
X34373Y56323D01*
X34512Y56239D01*
X34679Y56156D01*
X34901Y56045D01*
X35151Y55906D01*
X35456Y55767D01*
X35817Y55629D01*
X36234Y55490D01*
X36706Y55323D01*
X37261Y55156D01*
X37844Y54990D01*
X38511Y54795D01*
X39261Y54629D01*
X39316D01*
X39455Y54601D01*
X39650Y54545D01*
X39927Y54462D01*
X40260Y54407D01*
X40649Y54296D01*
X41066Y54212D01*
X41510Y54073D01*
X42454Y53824D01*
X43398Y53574D01*
X43843Y53435D01*
X44232Y53296D01*
X44620Y53157D01*
X44926Y53018D01*
X44954D01*
X45037Y52963D01*
X45148Y52907D01*
X45287Y52824D01*
X45481Y52740D01*
X45703Y52602D01*
X46176Y52296D01*
X46731Y51935D01*
X47258Y51491D01*
X47786Y50963D01*
X48008Y50686D01*
X48230Y50408D01*
Y50380D01*
X48286Y50324D01*
X48342Y50241D01*
X48397Y50130D01*
X48480Y49991D01*
X48564Y49797D01*
X48786Y49352D01*
X48980Y48825D01*
X49147Y48214D01*
X49258Y47520D01*
X49314Y46770D01*
Y46742D01*
Y46687D01*
Y46575D01*
X49286Y46437D01*
Y46242D01*
X49258Y46048D01*
X49175Y45520D01*
X49036Y44937D01*
X48814Y44298D01*
X48508Y43632D01*
X48342Y43271D01*
X48119Y42938D01*
Y42910D01*
X48064Y42854D01*
X48008Y42771D01*
X47897Y42632D01*
X47647Y42327D01*
X47258Y41910D01*
X46786Y41466D01*
X46203Y40994D01*
X45537Y40549D01*
X44759Y40133D01*
X44731D01*
X44648Y40077D01*
X44537Y40049D01*
X44370Y39966D01*
X44176Y39911D01*
X43926Y39827D01*
X43648Y39716D01*
X43315Y39633D01*
X42982Y39550D01*
X42593Y39439D01*
X41760Y39300D01*
X40844Y39189D01*
X39844Y39133D01*
X39511D01*
X39261Y39161D01*
X38955D01*
X38622Y39189D01*
X38233Y39216D01*
X37789Y39272D01*
X36873Y39383D01*
X35901Y39550D01*
X34929Y39800D01*
X33984Y40133D01*
X33957D01*
X33873Y40188D01*
X33762Y40244D01*
X33596Y40327D01*
X33401Y40438D01*
X33179Y40549D01*
X32651Y40883D01*
X32068Y41299D01*
X31457Y41827D01*
X30846Y42438D01*
X30319Y43160D01*
X30291Y43188D01*
X30263Y43243D01*
X30208Y43354D01*
X30124Y43521D01*
X30013Y43715D01*
X29902Y43937D01*
X29763Y44215D01*
X29652Y44521D01*
X29513Y44826D01*
X29402Y45187D01*
X29180Y45992D01*
X29014Y46853D01*
X28958Y47325D01*
X28930Y47797D01*
X32124Y48075D01*
Y48047D01*
Y47992D01*
X32152Y47881D01*
X32179Y47742D01*
X32207Y47575D01*
X32235Y47409D01*
X32346Y46937D01*
X32485Y46437D01*
X32651Y45909D01*
X32874Y45381D01*
X33151Y44881D01*
X33179Y44826D01*
X33318Y44687D01*
X33512Y44465D01*
X33790Y44187D01*
X34151Y43854D01*
X34595Y43549D01*
X35123Y43215D01*
X35734Y42910D01*
X35762D01*
X35817Y42882D01*
X35901Y42854D01*
X36039Y42799D01*
X36206Y42743D01*
X36400Y42660D01*
X36623Y42604D01*
X36873Y42549D01*
X37456Y42410D01*
X38150Y42271D01*
X38872Y42188D01*
X39677Y42160D01*
X40010D01*
X40177Y42188D01*
X40372D01*
X40816Y42243D01*
X41344Y42299D01*
X41927Y42382D01*
X42510Y42521D01*
X43065Y42715D01*
X43093D01*
X43121Y42743D01*
X43204Y42771D01*
X43315Y42827D01*
X43565Y42965D01*
X43898Y43132D01*
X44259Y43354D01*
X44648Y43632D01*
X44981Y43937D01*
X45287Y44298D01*
X45315Y44354D01*
X45398Y44465D01*
X45537Y44687D01*
X45676Y44965D01*
X45787Y45298D01*
X45926Y45659D01*
X46009Y46076D01*
X46037Y46492D01*
Y46520D01*
Y46548D01*
Y46687D01*
X46009Y46937D01*
X45953Y47214D01*
X45870Y47547D01*
X45731Y47908D01*
X45564Y48270D01*
X45315Y48603D01*
X45287Y48630D01*
X45176Y48742D01*
X45009Y48908D01*
X44759Y49130D01*
X44454Y49352D01*
X44037Y49602D01*
X43565Y49852D01*
X43010Y50102D01*
X42954Y50130D01*
X42899Y50158D01*
X42788Y50186D01*
X42676Y50213D01*
X42510Y50269D01*
X42288Y50352D01*
X42066Y50408D01*
X41760Y50491D01*
X41455Y50602D01*
X41066Y50686D01*
X40649Y50797D01*
X40177Y50935D01*
X39677Y51047D01*
X39094Y51213D01*
X38455Y51352D01*
X38428D01*
X38317Y51380D01*
X38122Y51435D01*
X37900Y51491D01*
X37595Y51574D01*
X37261Y51657D01*
X36928Y51768D01*
X36539Y51880D01*
X35706Y52130D01*
X34901Y52407D01*
X34512Y52546D01*
X34151Y52685D01*
X33818Y52824D01*
X33540Y52963D01*
X33512D01*
X33457Y53018D01*
X33373Y53074D01*
X33235Y53129D01*
X32901Y53324D01*
X32513Y53601D01*
X32041Y53962D01*
X31596Y54351D01*
X31152Y54823D01*
X30791Y55323D01*
Y55351D01*
X30763Y55379D01*
X30708Y55462D01*
X30652Y55573D01*
X30513Y55878D01*
X30347Y56267D01*
X30180Y56739D01*
X30041Y57295D01*
X29930Y57906D01*
X29902Y58544D01*
Y58572D01*
Y58628D01*
Y58739D01*
X29930Y58878D01*
Y59044D01*
X29958Y59239D01*
X30041Y59738D01*
X30180Y60294D01*
X30347Y60877D01*
X30624Y61516D01*
X30985Y62155D01*
Y62182D01*
X31041Y62238D01*
X31096Y62321D01*
X31180Y62432D01*
X31457Y62738D01*
X31818Y63126D01*
X32263Y63543D01*
X32818Y63959D01*
X33457Y64376D01*
X34207Y64737D01*
X34234D01*
X34290Y64765D01*
X34429Y64820D01*
X34568Y64876D01*
X34762Y64931D01*
X35012Y65015D01*
X35290Y65098D01*
X35595Y65181D01*
X35928Y65265D01*
X36289Y65348D01*
X37067Y65487D01*
X37955Y65598D01*
X38900Y65626D01*
X39372D01*
X39622Y65598D01*
D02*
G37*
G36*
X-88953Y39550D02*
X-92341D01*
Y51630D01*
X-105643D01*
Y39550D01*
X-109031D01*
Y65181D01*
X-105643D01*
Y54657D01*
X-92341D01*
Y65181D01*
X-88953D01*
Y39550D01*
D02*
G37*
G36*
X14407D02*
X10908D01*
X-2533Y59655D01*
Y39550D01*
X-5782D01*
Y65181D01*
X-2311D01*
X11157Y45048D01*
Y65181D01*
X14407D01*
Y39550D01*
D02*
G37*
G36*
X98577D02*
X95078D01*
X85137Y65181D01*
X88830D01*
X95495Y46548D01*
Y46520D01*
X95523Y46437D01*
X95578Y46326D01*
X95634Y46159D01*
X95689Y45965D01*
X95773Y45742D01*
X95856Y45493D01*
X95967Y45187D01*
X96162Y44548D01*
X96384Y43854D01*
X96606Y43104D01*
X96828Y42355D01*
Y42382D01*
X96856Y42438D01*
X96883Y42577D01*
X96939Y42715D01*
X96995Y42910D01*
X97050Y43132D01*
X97133Y43382D01*
X97217Y43660D01*
X97411Y44298D01*
X97661Y45020D01*
X97939Y45770D01*
X98216Y46548D01*
X105131Y65181D01*
X108575D01*
X98577Y39550D01*
D02*
G37*
G36*
X130263Y62155D02*
X115101D01*
Y54323D01*
X129291D01*
Y51296D01*
X115101D01*
Y42577D01*
X130846D01*
Y39550D01*
X111713D01*
Y65181D01*
X130263D01*
Y62155D01*
D02*
G37*
G36*
X82499D02*
X67336D01*
Y54323D01*
X81527D01*
Y51296D01*
X67336D01*
Y42577D01*
X83082D01*
Y39550D01*
X63948D01*
Y65181D01*
X82499D01*
Y62155D01*
D02*
G37*
G36*
X57894Y39550D02*
X54506D01*
Y65181D01*
X57894D01*
Y39550D01*
D02*
G37*
G36*
X-37107Y62155D02*
X-45549D01*
Y39550D01*
X-48937D01*
Y62155D01*
X-57379D01*
Y65181D01*
X-37107D01*
Y62155D01*
D02*
G37*
G36*
X-121944Y65154D02*
X-121305Y65126D01*
X-120667Y65070D01*
X-120056Y65015D01*
X-119750Y64987D01*
X-119500Y64931D01*
X-119473D01*
X-119417Y64904D01*
X-119306D01*
X-119195Y64876D01*
X-119028Y64820D01*
X-118834Y64793D01*
X-118390Y64654D01*
X-117890Y64487D01*
X-117362Y64265D01*
X-116834Y64015D01*
X-116335Y63710D01*
X-116307D01*
X-116279Y63682D01*
X-116112Y63543D01*
X-115890Y63349D01*
X-115585Y63071D01*
X-115279Y62738D01*
X-114918Y62293D01*
X-114585Y61821D01*
X-114280Y61238D01*
Y61210D01*
X-114252Y61155D01*
X-114196Y61071D01*
X-114141Y60960D01*
X-114085Y60821D01*
X-114030Y60627D01*
X-113863Y60211D01*
X-113724Y59683D01*
X-113585Y59100D01*
X-113502Y58433D01*
X-113474Y57739D01*
Y57711D01*
Y57600D01*
Y57434D01*
X-113502Y57184D01*
X-113530Y56906D01*
X-113585Y56600D01*
X-113641Y56239D01*
X-113724Y55823D01*
X-113835Y55406D01*
X-113974Y54962D01*
X-114141Y54518D01*
X-114363Y54046D01*
X-114585Y53574D01*
X-114863Y53101D01*
X-115196Y52657D01*
X-115557Y52213D01*
X-115585Y52185D01*
X-115668Y52130D01*
X-115779Y52018D01*
X-115974Y51852D01*
X-116196Y51685D01*
X-116501Y51491D01*
X-116862Y51296D01*
X-117279Y51102D01*
X-117779Y50880D01*
X-118306Y50686D01*
X-118945Y50491D01*
X-119611Y50324D01*
X-120389Y50186D01*
X-121222Y50074D01*
X-122111Y49991D01*
X-123110Y49963D01*
X-129664D01*
Y39550D01*
X-133052D01*
Y65181D01*
X-122500D01*
X-121944Y65154D01*
D02*
G37*
G36*
X-21778Y65598D02*
X-21444Y65570D01*
X-21083Y65542D01*
X-20695Y65487D01*
X-20250Y65404D01*
X-19750Y65320D01*
X-19251Y65209D01*
X-18723Y65070D01*
X-18168Y64904D01*
X-17612Y64709D01*
X-17057Y64487D01*
X-16529Y64237D01*
X-15974Y63932D01*
X-15946Y63904D01*
X-15835Y63848D01*
X-15696Y63765D01*
X-15502Y63626D01*
X-15252Y63460D01*
X-15002Y63238D01*
X-14696Y62988D01*
X-14363Y62710D01*
X-14002Y62377D01*
X-13641Y62016D01*
X-13280Y61627D01*
X-12919Y61210D01*
X-12586Y60766D01*
X-12225Y60266D01*
X-11919Y59738D01*
X-11614Y59183D01*
X-11586Y59155D01*
X-11558Y59044D01*
X-11475Y58878D01*
X-11392Y58655D01*
X-11253Y58378D01*
X-11142Y58017D01*
X-11003Y57628D01*
X-10864Y57184D01*
X-10725Y56712D01*
X-10586Y56184D01*
X-10448Y55601D01*
X-10336Y55018D01*
X-10253Y54379D01*
X-10170Y53712D01*
X-10142Y53046D01*
X-10114Y52324D01*
Y52268D01*
Y52157D01*
Y51935D01*
X-10142Y51657D01*
X-10170Y51324D01*
X-10198Y50935D01*
X-10253Y50491D01*
X-10309Y49991D01*
X-10392Y49464D01*
X-10503Y48908D01*
X-10614Y48325D01*
X-10781Y47742D01*
X-10975Y47131D01*
X-11170Y46548D01*
X-11419Y45937D01*
X-11697Y45354D01*
X-11725Y45326D01*
X-11780Y45215D01*
X-11864Y45048D01*
X-11975Y44854D01*
X-12141Y44604D01*
X-12336Y44298D01*
X-12586Y43965D01*
X-12836Y43604D01*
X-13141Y43243D01*
X-13475Y42854D01*
X-13863Y42465D01*
X-14252Y42077D01*
X-14669Y41716D01*
X-15141Y41355D01*
X-15641Y40994D01*
X-16168Y40688D01*
X-16196Y40661D01*
X-16307Y40633D01*
X-16446Y40549D01*
X-16668Y40438D01*
X-16946Y40327D01*
X-17251Y40188D01*
X-17612Y40049D01*
X-18029Y39911D01*
X-18473Y39772D01*
X-18945Y39633D01*
X-19473Y39494D01*
X-20000Y39383D01*
X-21167Y39189D01*
X-21778Y39161D01*
X-22389Y39133D01*
X-22750D01*
X-23000Y39161D01*
X-23305Y39189D01*
X-23694Y39216D01*
X-24083Y39272D01*
X-24555Y39355D01*
X-25027Y39439D01*
X-25554Y39550D01*
X-26082Y39689D01*
X-26638Y39855D01*
X-27193Y40049D01*
X-27748Y40299D01*
X-28304Y40549D01*
X-28859Y40855D01*
X-28887Y40883D01*
X-28970Y40938D01*
X-29137Y41049D01*
X-29331Y41188D01*
X-29553Y41355D01*
X-29831Y41577D01*
X-30136Y41827D01*
X-30470Y42105D01*
X-30831Y42438D01*
X-31164Y42799D01*
X-31525Y43188D01*
X-31886Y43604D01*
X-32247Y44076D01*
X-32580Y44548D01*
X-32886Y45076D01*
X-33191Y45631D01*
X-33219Y45659D01*
X-33247Y45770D01*
X-33330Y45937D01*
X-33413Y46159D01*
X-33524Y46437D01*
X-33636Y46770D01*
X-33774Y47131D01*
X-33913Y47575D01*
X-34052Y48019D01*
X-34191Y48519D01*
X-34302Y49047D01*
X-34413Y49602D01*
X-34580Y50769D01*
X-34607Y51407D01*
X-34635Y52018D01*
Y52046D01*
Y52102D01*
Y52185D01*
Y52296D01*
X-34607Y52463D01*
Y52629D01*
X-34580Y53074D01*
X-34524Y53601D01*
X-34441Y54240D01*
X-34358Y54906D01*
X-34219Y55656D01*
X-34024Y56462D01*
X-33802Y57267D01*
X-33524Y58100D01*
X-33191Y58933D01*
X-32802Y59766D01*
X-32358Y60544D01*
X-31830Y61321D01*
X-31220Y62016D01*
X-31192Y62043D01*
X-31053Y62182D01*
X-30858Y62349D01*
X-30609Y62571D01*
X-30248Y62849D01*
X-29859Y63154D01*
X-29387Y63487D01*
X-28831Y63821D01*
X-28220Y64154D01*
X-27554Y64487D01*
X-26832Y64793D01*
X-26026Y65070D01*
X-25193Y65293D01*
X-24305Y65459D01*
X-23361Y65598D01*
X-22361Y65626D01*
X-22028D01*
X-21778Y65598D01*
D02*
G37*
G36*
X-71486D02*
X-71153Y65570D01*
X-70792Y65542D01*
X-70403Y65487D01*
X-69959Y65404D01*
X-69459Y65320D01*
X-68959Y65209D01*
X-68431Y65070D01*
X-67876Y64904D01*
X-67321Y64709D01*
X-66765Y64487D01*
X-66237Y64237D01*
X-65682Y63932D01*
X-65654Y63904D01*
X-65543Y63848D01*
X-65404Y63765D01*
X-65210Y63626D01*
X-64960Y63460D01*
X-64710Y63238D01*
X-64405Y62988D01*
X-64071Y62710D01*
X-63710Y62377D01*
X-63349Y62016D01*
X-62988Y61627D01*
X-62627Y61210D01*
X-62294Y60766D01*
X-61933Y60266D01*
X-61628Y59738D01*
X-61322Y59183D01*
X-61294Y59155D01*
X-61267Y59044D01*
X-61183Y58878D01*
X-61100Y58655D01*
X-60961Y58378D01*
X-60850Y58017D01*
X-60711Y57628D01*
X-60572Y57184D01*
X-60434Y56712D01*
X-60295Y56184D01*
X-60156Y55601D01*
X-60045Y55018D01*
X-59961Y54379D01*
X-59878Y53712D01*
X-59850Y53046D01*
X-59823Y52324D01*
Y52268D01*
Y52157D01*
Y51935D01*
X-59850Y51657D01*
X-59878Y51324D01*
X-59906Y50935D01*
X-59961Y50491D01*
X-60017Y49991D01*
X-60100Y49464D01*
X-60211Y48908D01*
X-60322Y48325D01*
X-60489Y47742D01*
X-60684Y47131D01*
X-60878Y46548D01*
X-61128Y45937D01*
X-61405Y45354D01*
X-61433Y45326D01*
X-61489Y45215D01*
X-61572Y45048D01*
X-61683Y44854D01*
X-61850Y44604D01*
X-62044Y44298D01*
X-62294Y43965D01*
X-62544Y43604D01*
X-62849Y43243D01*
X-63183Y42854D01*
X-63572Y42465D01*
X-63960Y42077D01*
X-64377Y41716D01*
X-64849Y41355D01*
X-65349Y40994D01*
X-65877Y40688D01*
X-65904Y40661D01*
X-66015Y40633D01*
X-66154Y40549D01*
X-66376Y40438D01*
X-66654Y40327D01*
X-66960Y40188D01*
X-67321Y40049D01*
X-67737Y39911D01*
X-68181Y39772D01*
X-68654Y39633D01*
X-69181Y39494D01*
X-69709Y39383D01*
X-70875Y39189D01*
X-71486Y39161D01*
X-72097Y39133D01*
X-72458D01*
X-72708Y39161D01*
X-73013Y39189D01*
X-73402Y39216D01*
X-73791Y39272D01*
X-74263Y39355D01*
X-74735Y39439D01*
X-75263Y39550D01*
X-75790Y39689D01*
X-76346Y39855D01*
X-76901Y40049D01*
X-77457Y40299D01*
X-78012Y40549D01*
X-78567Y40855D01*
X-78595Y40883D01*
X-78678Y40938D01*
X-78845Y41049D01*
X-79040Y41188D01*
X-79262Y41355D01*
X-79539Y41577D01*
X-79845Y41827D01*
X-80178Y42105D01*
X-80539Y42438D01*
X-80872Y42799D01*
X-81233Y43188D01*
X-81594Y43604D01*
X-81955Y44076D01*
X-82288Y44548D01*
X-82594Y45076D01*
X-82899Y45631D01*
X-82927Y45659D01*
X-82955Y45770D01*
X-83038Y45937D01*
X-83122Y46159D01*
X-83233Y46437D01*
X-83344Y46770D01*
X-83483Y47131D01*
X-83622Y47575D01*
X-83760Y48019D01*
X-83899Y48519D01*
X-84010Y49047D01*
X-84121Y49602D01*
X-84288Y50769D01*
X-84316Y51407D01*
X-84343Y52018D01*
Y52046D01*
Y52102D01*
Y52185D01*
Y52296D01*
X-84316Y52463D01*
Y52629D01*
X-84288Y53074D01*
X-84232Y53601D01*
X-84149Y54240D01*
X-84066Y54906D01*
X-83927Y55656D01*
X-83733Y56462D01*
X-83510Y57267D01*
X-83233Y58100D01*
X-82899Y58933D01*
X-82511Y59766D01*
X-82066Y60544D01*
X-81539Y61321D01*
X-80928Y62016D01*
X-80900Y62043D01*
X-80761Y62182D01*
X-80567Y62349D01*
X-80317Y62571D01*
X-79956Y62849D01*
X-79567Y63154D01*
X-79095Y63487D01*
X-78540Y63821D01*
X-77929Y64154D01*
X-77262Y64487D01*
X-76540Y64793D01*
X-75735Y65070D01*
X-74902Y65293D01*
X-74013Y65459D01*
X-73069Y65598D01*
X-72069Y65626D01*
X-71736D01*
X-71486Y65598D01*
D02*
G37*
G36*
X1132Y-417D02*
X-2005D01*
Y3165D01*
X1132D01*
Y-417D01*
D02*
G37*
G36*
X15073Y-3499D02*
X15240D01*
X15656Y-3555D01*
X16128Y-3610D01*
X16656Y-3721D01*
X17184Y-3888D01*
X17711Y-4082D01*
X17739D01*
X17767Y-4110D01*
X17933Y-4194D01*
X18183Y-4332D01*
X18517Y-4499D01*
X18850Y-4749D01*
X19211Y-4999D01*
X19544Y-5304D01*
X19822Y-5665D01*
X19850Y-5721D01*
X19933Y-5832D01*
X20044Y-6054D01*
X20211Y-6332D01*
X20377Y-6665D01*
X20516Y-7054D01*
X20683Y-7498D01*
X20794Y-7998D01*
Y-8026D01*
X20821Y-8165D01*
X20849Y-8387D01*
X20905Y-8692D01*
X20933Y-9109D01*
Y-9359D01*
X20960Y-9636D01*
Y-9942D01*
X20988Y-10303D01*
Y-10664D01*
Y-11053D01*
Y-22466D01*
X17850D01*
Y-11164D01*
Y-11136D01*
Y-11081D01*
Y-10970D01*
Y-10858D01*
Y-10692D01*
X17822Y-10497D01*
X17795Y-10081D01*
X17767Y-9609D01*
X17683Y-9137D01*
X17600Y-8692D01*
X17461Y-8304D01*
X17434Y-8248D01*
X17378Y-8137D01*
X17295Y-7970D01*
X17156Y-7748D01*
X16989Y-7498D01*
X16767Y-7248D01*
X16489Y-6998D01*
X16156Y-6776D01*
X16128Y-6748D01*
X15990Y-6693D01*
X15795Y-6582D01*
X15545Y-6471D01*
X15212Y-6387D01*
X14851Y-6276D01*
X14434Y-6221D01*
X13962Y-6193D01*
X13768D01*
X13629Y-6221D01*
X13462D01*
X13240Y-6249D01*
X12768Y-6360D01*
X12241Y-6498D01*
X11657Y-6721D01*
X11074Y-7054D01*
X10769Y-7248D01*
X10491Y-7470D01*
X10463Y-7498D01*
X10435Y-7526D01*
X10352Y-7609D01*
X10269Y-7720D01*
X10158Y-7887D01*
X10047Y-8054D01*
X9908Y-8276D01*
X9769Y-8553D01*
X9630Y-8859D01*
X9491Y-9220D01*
X9380Y-9609D01*
X9269Y-10053D01*
X9186Y-10553D01*
X9103Y-11081D01*
X9075Y-11692D01*
X9047Y-12330D01*
Y-22466D01*
X5909D01*
Y-3888D01*
X8742D01*
Y-6554D01*
X8769Y-6526D01*
X8825Y-6415D01*
X8964Y-6276D01*
X9130Y-6082D01*
X9325Y-5832D01*
X9575Y-5582D01*
X9880Y-5304D01*
X10241Y-4999D01*
X10630Y-4721D01*
X11074Y-4443D01*
X11546Y-4194D01*
X12074Y-3944D01*
X12657Y-3749D01*
X13268Y-3610D01*
X13935Y-3499D01*
X14629Y-3472D01*
X14907D01*
X15073Y-3499D01*
D02*
G37*
G36*
X135206D02*
X135456Y-3527D01*
X135706Y-3555D01*
X136011Y-3610D01*
X136345Y-3666D01*
X137011Y-3860D01*
X137733Y-4138D01*
X138066Y-4305D01*
X138400Y-4499D01*
X138733Y-4749D01*
X139011Y-5027D01*
X139038Y-5054D01*
X139066Y-5110D01*
X139149Y-5193D01*
X139233Y-5304D01*
X139372Y-5471D01*
X139483Y-5665D01*
X139621Y-5915D01*
X139760Y-6193D01*
X139899Y-6498D01*
X140038Y-6832D01*
X140177Y-7220D01*
X140288Y-7637D01*
X140371Y-8109D01*
X140455Y-8609D01*
X140482Y-9137D01*
X140510Y-9720D01*
Y-22466D01*
X137372D01*
Y-10775D01*
Y-10747D01*
Y-10692D01*
Y-10581D01*
Y-10470D01*
X137344Y-10136D01*
Y-9720D01*
X137289Y-9275D01*
X137233Y-8831D01*
X137178Y-8415D01*
X137067Y-8054D01*
Y-8026D01*
X137011Y-7915D01*
X136928Y-7776D01*
X136817Y-7582D01*
X136650Y-7359D01*
X136484Y-7137D01*
X136234Y-6915D01*
X135956Y-6721D01*
X135928Y-6693D01*
X135817Y-6637D01*
X135650Y-6554D01*
X135428Y-6443D01*
X135151Y-6360D01*
X134817Y-6276D01*
X134456Y-6221D01*
X134067Y-6193D01*
X133873D01*
X133734Y-6221D01*
X133568D01*
X133373Y-6249D01*
X132929Y-6360D01*
X132401Y-6498D01*
X131846Y-6748D01*
X131318Y-7054D01*
X131041Y-7276D01*
X130791Y-7498D01*
Y-7526D01*
X130735Y-7554D01*
X130680Y-7637D01*
X130596Y-7748D01*
X130485Y-7887D01*
X130374Y-8054D01*
X130263Y-8276D01*
X130152Y-8498D01*
X130013Y-8776D01*
X129902Y-9081D01*
X129791Y-9442D01*
X129680Y-9803D01*
X129597Y-10220D01*
X129541Y-10692D01*
X129513Y-11164D01*
X129485Y-11692D01*
Y-22466D01*
X126347D01*
Y-10414D01*
Y-10386D01*
Y-10331D01*
Y-10220D01*
Y-10053D01*
X126320Y-9887D01*
Y-9692D01*
X126264Y-9220D01*
X126153Y-8720D01*
X126014Y-8192D01*
X125820Y-7693D01*
X125570Y-7248D01*
X125542Y-7193D01*
X125431Y-7082D01*
X125237Y-6915D01*
X124987Y-6721D01*
X124626Y-6526D01*
X124209Y-6360D01*
X123681Y-6249D01*
X123071Y-6193D01*
X122848D01*
X122599Y-6221D01*
X122265Y-6276D01*
X121877Y-6360D01*
X121460Y-6498D01*
X121043Y-6665D01*
X120599Y-6915D01*
X120544Y-6943D01*
X120405Y-7054D01*
X120210Y-7193D01*
X119988Y-7443D01*
X119710Y-7720D01*
X119433Y-8081D01*
X119183Y-8498D01*
X118961Y-8970D01*
Y-8998D01*
X118933Y-9026D01*
X118905Y-9109D01*
X118877Y-9220D01*
X118850Y-9359D01*
X118794Y-9525D01*
X118766Y-9720D01*
X118711Y-9942D01*
X118655Y-10220D01*
X118627Y-10497D01*
X118572Y-10803D01*
X118544Y-11164D01*
X118516Y-11525D01*
X118489Y-11941D01*
X118461Y-12358D01*
Y-12830D01*
Y-22466D01*
X115323D01*
Y-3888D01*
X118128D01*
Y-6471D01*
X118183Y-6443D01*
X118294Y-6276D01*
X118489Y-6026D01*
X118766Y-5721D01*
X119099Y-5360D01*
X119488Y-4999D01*
X119933Y-4638D01*
X120460Y-4305D01*
X120488D01*
X120516Y-4277D01*
X120599Y-4221D01*
X120710Y-4166D01*
X120849Y-4110D01*
X121016Y-4027D01*
X121404Y-3888D01*
X121904Y-3721D01*
X122460Y-3610D01*
X123098Y-3499D01*
X123765Y-3472D01*
X124098D01*
X124293Y-3499D01*
X124487Y-3527D01*
X124959Y-3583D01*
X125487Y-3694D01*
X126042Y-3833D01*
X126597Y-4055D01*
X127125Y-4332D01*
X127153D01*
X127181Y-4360D01*
X127347Y-4499D01*
X127569Y-4693D01*
X127875Y-4943D01*
X128180Y-5304D01*
X128486Y-5693D01*
X128763Y-6165D01*
X129013Y-6721D01*
X129041Y-6693D01*
X129124Y-6582D01*
X129235Y-6415D01*
X129430Y-6221D01*
X129624Y-5971D01*
X129902Y-5693D01*
X130208Y-5388D01*
X130569Y-5082D01*
X130957Y-4804D01*
X131402Y-4499D01*
X131874Y-4221D01*
X132374Y-3971D01*
X132929Y-3777D01*
X133512Y-3610D01*
X134123Y-3499D01*
X134762Y-3472D01*
X135039D01*
X135206Y-3499D01*
D02*
G37*
G36*
X105381D02*
X105631Y-3527D01*
X105881Y-3555D01*
X106186Y-3610D01*
X106520Y-3666D01*
X107186Y-3860D01*
X107908Y-4138D01*
X108241Y-4305D01*
X108575Y-4499D01*
X108908Y-4749D01*
X109186Y-5027D01*
X109213Y-5054D01*
X109241Y-5110D01*
X109325Y-5193D01*
X109408Y-5304D01*
X109547Y-5471D01*
X109658Y-5665D01*
X109797Y-5915D01*
X109935Y-6193D01*
X110074Y-6498D01*
X110213Y-6832D01*
X110352Y-7220D01*
X110463Y-7637D01*
X110546Y-8109D01*
X110630Y-8609D01*
X110657Y-9137D01*
X110685Y-9720D01*
Y-22466D01*
X107547D01*
Y-10775D01*
Y-10747D01*
Y-10692D01*
Y-10581D01*
Y-10470D01*
X107519Y-10136D01*
Y-9720D01*
X107464Y-9275D01*
X107408Y-8831D01*
X107353Y-8415D01*
X107242Y-8054D01*
Y-8026D01*
X107186Y-7915D01*
X107103Y-7776D01*
X106992Y-7582D01*
X106825Y-7359D01*
X106658Y-7137D01*
X106409Y-6915D01*
X106131Y-6721D01*
X106103Y-6693D01*
X105992Y-6637D01*
X105825Y-6554D01*
X105603Y-6443D01*
X105326Y-6360D01*
X104992Y-6276D01*
X104631Y-6221D01*
X104243Y-6193D01*
X104048D01*
X103909Y-6221D01*
X103743D01*
X103548Y-6249D01*
X103104Y-6360D01*
X102576Y-6498D01*
X102021Y-6748D01*
X101493Y-7054D01*
X101216Y-7276D01*
X100966Y-7498D01*
Y-7526D01*
X100910Y-7554D01*
X100855Y-7637D01*
X100771Y-7748D01*
X100660Y-7887D01*
X100549Y-8054D01*
X100438Y-8276D01*
X100327Y-8498D01*
X100188Y-8776D01*
X100077Y-9081D01*
X99966Y-9442D01*
X99855Y-9803D01*
X99772Y-10220D01*
X99716Y-10692D01*
X99688Y-11164D01*
X99660Y-11692D01*
Y-22466D01*
X96522D01*
Y-10414D01*
Y-10386D01*
Y-10331D01*
Y-10220D01*
Y-10053D01*
X96495Y-9887D01*
Y-9692D01*
X96439Y-9220D01*
X96328Y-8720D01*
X96189Y-8192D01*
X95995Y-7693D01*
X95745Y-7248D01*
X95717Y-7193D01*
X95606Y-7082D01*
X95412Y-6915D01*
X95162Y-6721D01*
X94801Y-6526D01*
X94384Y-6360D01*
X93857Y-6249D01*
X93246Y-6193D01*
X93024D01*
X92773Y-6221D01*
X92440Y-6276D01*
X92052Y-6360D01*
X91635Y-6498D01*
X91218Y-6665D01*
X90774Y-6915D01*
X90719Y-6943D01*
X90580Y-7054D01*
X90385Y-7193D01*
X90163Y-7443D01*
X89885Y-7720D01*
X89608Y-8081D01*
X89358Y-8498D01*
X89136Y-8970D01*
Y-8998D01*
X89108Y-9026D01*
X89080Y-9109D01*
X89052Y-9220D01*
X89025Y-9359D01*
X88969Y-9525D01*
X88941Y-9720D01*
X88886Y-9942D01*
X88830Y-10220D01*
X88802Y-10497D01*
X88747Y-10803D01*
X88719Y-11164D01*
X88691Y-11525D01*
X88664Y-11941D01*
X88636Y-12358D01*
Y-12830D01*
Y-22466D01*
X85498D01*
Y-3888D01*
X88303D01*
Y-6471D01*
X88358Y-6443D01*
X88469Y-6276D01*
X88664Y-6026D01*
X88941Y-5721D01*
X89275Y-5360D01*
X89663Y-4999D01*
X90108Y-4638D01*
X90635Y-4305D01*
X90663D01*
X90691Y-4277D01*
X90774Y-4221D01*
X90885Y-4166D01*
X91024Y-4110D01*
X91191Y-4027D01*
X91579Y-3888D01*
X92079Y-3721D01*
X92635Y-3610D01*
X93273Y-3499D01*
X93940Y-3472D01*
X94273D01*
X94468Y-3499D01*
X94662Y-3527D01*
X95134Y-3583D01*
X95662Y-3694D01*
X96217Y-3833D01*
X96772Y-4055D01*
X97300Y-4332D01*
X97328D01*
X97356Y-4360D01*
X97522Y-4499D01*
X97744Y-4693D01*
X98050Y-4943D01*
X98355Y-5304D01*
X98661Y-5693D01*
X98939Y-6165D01*
X99188Y-6721D01*
X99216Y-6693D01*
X99300Y-6582D01*
X99411Y-6415D01*
X99605Y-6221D01*
X99799Y-5971D01*
X100077Y-5693D01*
X100382Y-5388D01*
X100743Y-5082D01*
X101132Y-4804D01*
X101577Y-4499D01*
X102049Y-4221D01*
X102549Y-3971D01*
X103104Y-3777D01*
X103687Y-3610D01*
X104298Y-3499D01*
X104937Y-3472D01*
X105215D01*
X105381Y-3499D01*
D02*
G37*
G36*
X-93535D02*
X-93286Y-3527D01*
X-92980Y-3555D01*
X-92647Y-3610D01*
X-92286Y-3666D01*
X-91508Y-3860D01*
X-90675Y-4138D01*
X-90259Y-4305D01*
X-89842Y-4499D01*
X-89453Y-4749D01*
X-89092Y-5027D01*
X-89064Y-5054D01*
X-89009Y-5110D01*
X-88898Y-5193D01*
X-88787Y-5304D01*
X-88620Y-5471D01*
X-88454Y-5665D01*
X-88259Y-5888D01*
X-88065Y-6137D01*
X-87843Y-6443D01*
X-87648Y-6748D01*
X-87426Y-7109D01*
X-87232Y-7498D01*
X-87065Y-7915D01*
X-86898Y-8359D01*
X-86732Y-8859D01*
X-86621Y-9359D01*
X-89675Y-9831D01*
Y-9803D01*
X-89703Y-9748D01*
X-89731Y-9664D01*
X-89759Y-9525D01*
X-89870Y-9192D01*
X-90036Y-8776D01*
X-90259Y-8331D01*
X-90509Y-7859D01*
X-90842Y-7415D01*
X-91230Y-7026D01*
X-91286Y-6971D01*
X-91425Y-6859D01*
X-91675Y-6721D01*
X-91980Y-6526D01*
X-92369Y-6360D01*
X-92813Y-6193D01*
X-93341Y-6082D01*
X-93896Y-6054D01*
X-94119D01*
X-94285Y-6082D01*
X-94507Y-6110D01*
X-94730Y-6137D01*
X-95285Y-6276D01*
X-95896Y-6471D01*
X-96201Y-6610D01*
X-96535Y-6776D01*
X-96840Y-6971D01*
X-97173Y-7220D01*
X-97479Y-7470D01*
X-97756Y-7776D01*
X-97784Y-7804D01*
X-97812Y-7859D01*
X-97895Y-7943D01*
X-97979Y-8109D01*
X-98090Y-8276D01*
X-98229Y-8498D01*
X-98367Y-8776D01*
X-98479Y-9081D01*
X-98617Y-9442D01*
X-98756Y-9831D01*
X-98895Y-10275D01*
X-99006Y-10775D01*
X-99089Y-11303D01*
X-99173Y-11858D01*
X-99200Y-12497D01*
X-99228Y-13163D01*
Y-13191D01*
Y-13330D01*
Y-13524D01*
X-99200Y-13774D01*
X-99173Y-14080D01*
X-99145Y-14441D01*
X-99117Y-14830D01*
X-99062Y-15246D01*
X-98895Y-16135D01*
X-98617Y-17051D01*
X-98479Y-17468D01*
X-98284Y-17884D01*
X-98062Y-18273D01*
X-97812Y-18606D01*
X-97784Y-18634D01*
X-97756Y-18689D01*
X-97673Y-18773D01*
X-97562Y-18856D01*
X-97395Y-18995D01*
X-97229Y-19134D01*
X-97034Y-19300D01*
X-96812Y-19439D01*
X-96257Y-19773D01*
X-95618Y-20022D01*
X-95257Y-20134D01*
X-94896Y-20217D01*
X-94480Y-20272D01*
X-94063Y-20300D01*
X-93896D01*
X-93758Y-20272D01*
X-93591D01*
X-93424Y-20245D01*
X-92980Y-20161D01*
X-92508Y-20022D01*
X-91980Y-19828D01*
X-91480Y-19550D01*
X-90981Y-19189D01*
X-90953Y-19162D01*
X-90925Y-19134D01*
X-90786Y-18967D01*
X-90564Y-18689D01*
X-90453Y-18523D01*
X-90314Y-18328D01*
X-90175Y-18079D01*
X-90036Y-17829D01*
X-89925Y-17551D01*
X-89786Y-17218D01*
X-89675Y-16884D01*
X-89564Y-16496D01*
X-89481Y-16107D01*
X-89398Y-15663D01*
X-86315Y-16079D01*
Y-16107D01*
X-86343Y-16218D01*
X-86371Y-16385D01*
X-86426Y-16607D01*
X-86510Y-16884D01*
X-86593Y-17190D01*
X-86704Y-17523D01*
X-86843Y-17912D01*
X-87176Y-18689D01*
X-87398Y-19106D01*
X-87648Y-19523D01*
X-87898Y-19939D01*
X-88204Y-20356D01*
X-88565Y-20717D01*
X-88926Y-21078D01*
X-88953Y-21105D01*
X-89009Y-21161D01*
X-89148Y-21244D01*
X-89287Y-21355D01*
X-89509Y-21494D01*
X-89731Y-21661D01*
X-90036Y-21800D01*
X-90342Y-21966D01*
X-90703Y-22161D01*
X-91092Y-22300D01*
X-91508Y-22466D01*
X-91953Y-22605D01*
X-92452Y-22716D01*
X-92952Y-22799D01*
X-93480Y-22855D01*
X-94035Y-22883D01*
X-94202D01*
X-94396Y-22855D01*
X-94674D01*
X-94979Y-22799D01*
X-95368Y-22744D01*
X-95785Y-22688D01*
X-96229Y-22577D01*
X-96701Y-22438D01*
X-97201Y-22272D01*
X-97701Y-22077D01*
X-98229Y-21828D01*
X-98728Y-21550D01*
X-99228Y-21217D01*
X-99700Y-20856D01*
X-100145Y-20411D01*
X-100172Y-20383D01*
X-100256Y-20300D01*
X-100367Y-20161D01*
X-100506Y-19939D01*
X-100672Y-19689D01*
X-100867Y-19384D01*
X-101089Y-18995D01*
X-101283Y-18578D01*
X-101505Y-18106D01*
X-101727Y-17579D01*
X-101922Y-16996D01*
X-102089Y-16357D01*
X-102227Y-15663D01*
X-102339Y-14913D01*
X-102422Y-14108D01*
X-102450Y-13274D01*
Y-13247D01*
Y-13136D01*
Y-12969D01*
X-102422Y-12775D01*
Y-12497D01*
X-102394Y-12191D01*
X-102366Y-11858D01*
X-102339Y-11469D01*
X-102200Y-10664D01*
X-102033Y-9775D01*
X-101811Y-8859D01*
X-101478Y-7998D01*
Y-7970D01*
X-101422Y-7887D01*
X-101366Y-7776D01*
X-101283Y-7637D01*
X-101172Y-7443D01*
X-101061Y-7220D01*
X-100728Y-6721D01*
X-100311Y-6193D01*
X-99784Y-5610D01*
X-99173Y-5082D01*
X-98451Y-4610D01*
X-98423D01*
X-98367Y-4555D01*
X-98256Y-4499D01*
X-98090Y-4443D01*
X-97895Y-4332D01*
X-97673Y-4249D01*
X-97423Y-4138D01*
X-97145Y-4027D01*
X-96812Y-3944D01*
X-96479Y-3833D01*
X-95729Y-3638D01*
X-94896Y-3527D01*
X-94035Y-3472D01*
X-93730D01*
X-93535Y-3499D01*
D02*
G37*
G36*
X61616Y361D02*
X61588Y333D01*
X61505Y250D01*
X61366Y83D01*
X61199Y-111D01*
X60977Y-389D01*
X60699Y-695D01*
X60422Y-1056D01*
X60088Y-1472D01*
X59727Y-1944D01*
X59338Y-2472D01*
X58922Y-3055D01*
X58505Y-3666D01*
X58089Y-4305D01*
X57644Y-5027D01*
X57172Y-5776D01*
X56728Y-6554D01*
X56700Y-6610D01*
X56617Y-6748D01*
X56506Y-6971D01*
X56339Y-7304D01*
X56145Y-7693D01*
X55895Y-8165D01*
X55645Y-8692D01*
X55367Y-9275D01*
X55090Y-9914D01*
X54784Y-10609D01*
X54479Y-11358D01*
X54173Y-12108D01*
X53868Y-12913D01*
X53562Y-13747D01*
X53035Y-15440D01*
Y-15468D01*
X53007Y-15579D01*
X52951Y-15774D01*
X52896Y-15996D01*
X52812Y-16301D01*
X52729Y-16662D01*
X52618Y-17079D01*
X52535Y-17523D01*
X52424Y-18023D01*
X52340Y-18578D01*
X52229Y-19162D01*
X52146Y-19773D01*
X52035Y-20411D01*
X51952Y-21078D01*
X51841Y-22466D01*
X48619D01*
Y-22438D01*
Y-22327D01*
Y-22161D01*
X48647Y-21939D01*
X48675Y-21633D01*
X48702Y-21300D01*
X48730Y-20883D01*
X48786Y-20439D01*
X48841Y-19911D01*
X48925Y-19384D01*
X49008Y-18773D01*
X49119Y-18134D01*
X49258Y-17440D01*
X49397Y-16718D01*
X49591Y-15968D01*
X49786Y-15191D01*
X49813Y-15135D01*
X49841Y-14996D01*
X49897Y-14774D01*
X50008Y-14469D01*
X50119Y-14080D01*
X50258Y-13608D01*
X50424Y-13108D01*
X50619Y-12552D01*
X50841Y-11941D01*
X51091Y-11275D01*
X51341Y-10581D01*
X51646Y-9887D01*
X52285Y-8415D01*
X53035Y-6915D01*
X53062Y-6859D01*
X53146Y-6748D01*
X53257Y-6526D01*
X53396Y-6249D01*
X53618Y-5915D01*
X53840Y-5527D01*
X54118Y-5082D01*
X54395Y-4582D01*
X54729Y-4082D01*
X55090Y-3527D01*
X55867Y-2416D01*
X56700Y-1278D01*
X57145Y-722D01*
X57589Y-195D01*
X45037D01*
Y2832D01*
X61616D01*
Y361D01*
D02*
G37*
G36*
X1132Y-22466D02*
X-2005D01*
Y-3888D01*
X1132D01*
Y-22466D01*
D02*
G37*
G36*
X-34330Y3138D02*
X-33691Y3110D01*
X-33052Y3054D01*
X-32441Y2999D01*
X-32136Y2971D01*
X-31886Y2915D01*
X-31858D01*
X-31803Y2888D01*
X-31692D01*
X-31580Y2860D01*
X-31414Y2804D01*
X-31220Y2777D01*
X-30775Y2638D01*
X-30275Y2471D01*
X-29748Y2249D01*
X-29220Y1999D01*
X-28720Y1694D01*
X-28692D01*
X-28665Y1666D01*
X-28498Y1527D01*
X-28276Y1333D01*
X-27970Y1055D01*
X-27665Y722D01*
X-27304Y277D01*
X-26971Y-195D01*
X-26665Y-778D01*
Y-806D01*
X-26638Y-861D01*
X-26582Y-945D01*
X-26526Y-1056D01*
X-26471Y-1194D01*
X-26415Y-1389D01*
X-26249Y-1805D01*
X-26110Y-2333D01*
X-25971Y-2916D01*
X-25888Y-3583D01*
X-25860Y-4277D01*
Y-4305D01*
Y-4416D01*
Y-4582D01*
X-25888Y-4832D01*
X-25915Y-5110D01*
X-25971Y-5415D01*
X-26026Y-5776D01*
X-26110Y-6193D01*
X-26221Y-6610D01*
X-26360Y-7054D01*
X-26526Y-7498D01*
X-26749Y-7970D01*
X-26971Y-8442D01*
X-27248Y-8914D01*
X-27582Y-9359D01*
X-27943Y-9803D01*
X-27970Y-9831D01*
X-28054Y-9887D01*
X-28165Y-9997D01*
X-28359Y-10164D01*
X-28581Y-10331D01*
X-28887Y-10525D01*
X-29248Y-10720D01*
X-29664Y-10914D01*
X-30164Y-11136D01*
X-30692Y-11331D01*
X-31331Y-11525D01*
X-31997Y-11692D01*
X-32775Y-11830D01*
X-33608Y-11941D01*
X-34496Y-12025D01*
X-35496Y-12053D01*
X-42050D01*
Y-22466D01*
X-45438D01*
Y3165D01*
X-34885D01*
X-34330Y3138D01*
D02*
G37*
G36*
X-60656Y-22466D02*
X-63794D01*
Y3165D01*
X-60656D01*
Y-22466D01*
D02*
G37*
G36*
X-75179Y-3499D02*
X-74929D01*
X-74402Y-3555D01*
X-73791Y-3610D01*
X-73152Y-3721D01*
X-72514Y-3860D01*
X-71930Y-4055D01*
X-71903D01*
X-71875Y-4082D01*
X-71791Y-4110D01*
X-71680Y-4166D01*
X-71430Y-4277D01*
X-71097Y-4443D01*
X-70736Y-4638D01*
X-70375Y-4888D01*
X-70042Y-5166D01*
X-69736Y-5471D01*
X-69709Y-5499D01*
X-69625Y-5610D01*
X-69487Y-5804D01*
X-69348Y-6054D01*
X-69181Y-6360D01*
X-69015Y-6721D01*
X-68848Y-7137D01*
X-68737Y-7609D01*
Y-7637D01*
X-68709Y-7776D01*
X-68681Y-7970D01*
X-68654Y-8276D01*
X-68626Y-8665D01*
X-68598Y-9164D01*
Y-9470D01*
X-68570Y-9775D01*
Y-10109D01*
Y-10497D01*
Y-14691D01*
Y-14746D01*
Y-14885D01*
Y-15107D01*
Y-15385D01*
Y-15746D01*
Y-16135D01*
X-68542Y-16579D01*
Y-17023D01*
X-68515Y-17967D01*
Y-18440D01*
X-68487Y-18884D01*
X-68459Y-19300D01*
X-68431Y-19661D01*
X-68404Y-19995D01*
X-68376Y-20245D01*
Y-20300D01*
X-68348Y-20439D01*
X-68292Y-20661D01*
X-68209Y-20967D01*
X-68098Y-21300D01*
X-67959Y-21661D01*
X-67793Y-22077D01*
X-67598Y-22466D01*
X-70875D01*
X-70903Y-22411D01*
X-70958Y-22300D01*
X-71042Y-22077D01*
X-71125Y-21800D01*
X-71236Y-21467D01*
X-71347Y-21078D01*
X-71430Y-20633D01*
X-71486Y-20134D01*
X-71514Y-20161D01*
X-71569Y-20189D01*
X-71653Y-20272D01*
X-71791Y-20383D01*
X-71958Y-20495D01*
X-72125Y-20661D01*
X-72569Y-20967D01*
X-73097Y-21328D01*
X-73652Y-21689D01*
X-74263Y-21994D01*
X-74874Y-22272D01*
X-74902D01*
X-74957Y-22300D01*
X-75041Y-22327D01*
X-75152Y-22355D01*
X-75291Y-22411D01*
X-75485Y-22466D01*
X-75901Y-22577D01*
X-76429Y-22688D01*
X-77012Y-22799D01*
X-77651Y-22855D01*
X-78345Y-22883D01*
X-78651D01*
X-78845Y-22855D01*
X-79095Y-22827D01*
X-79400Y-22799D01*
X-79734Y-22772D01*
X-80067Y-22688D01*
X-80844Y-22522D01*
X-81622Y-22272D01*
X-81983Y-22105D01*
X-82372Y-21883D01*
X-82705Y-21661D01*
X-83038Y-21411D01*
X-83066Y-21383D01*
X-83122Y-21328D01*
X-83177Y-21244D01*
X-83288Y-21133D01*
X-83427Y-20994D01*
X-83566Y-20800D01*
X-83705Y-20606D01*
X-83844Y-20356D01*
X-84149Y-19828D01*
X-84427Y-19162D01*
X-84538Y-18801D01*
X-84593Y-18412D01*
X-84649Y-17995D01*
X-84677Y-17579D01*
Y-17551D01*
Y-17523D01*
Y-17357D01*
X-84649Y-17079D01*
X-84593Y-16746D01*
X-84538Y-16357D01*
X-84427Y-15940D01*
X-84260Y-15524D01*
X-84066Y-15079D01*
X-84038Y-15024D01*
X-83955Y-14885D01*
X-83816Y-14691D01*
X-83622Y-14413D01*
X-83399Y-14135D01*
X-83122Y-13830D01*
X-82816Y-13552D01*
X-82455Y-13274D01*
X-82400Y-13247D01*
X-82261Y-13163D01*
X-82066Y-13025D01*
X-81789Y-12886D01*
X-81455Y-12719D01*
X-81067Y-12552D01*
X-80622Y-12386D01*
X-80178Y-12247D01*
X-80123D01*
X-80011Y-12191D01*
X-79789Y-12164D01*
X-79484Y-12080D01*
X-79095Y-12025D01*
X-78595Y-11941D01*
X-78040Y-11858D01*
X-77373Y-11775D01*
X-77318D01*
X-77207Y-11747D01*
X-77012Y-11719D01*
X-76762Y-11692D01*
X-76429Y-11636D01*
X-76068Y-11580D01*
X-75679Y-11525D01*
X-75235Y-11469D01*
X-74319Y-11303D01*
X-73402Y-11108D01*
X-72958Y-10997D01*
X-72514Y-10886D01*
X-72125Y-10775D01*
X-71764Y-10664D01*
Y-10636D01*
Y-10553D01*
Y-10442D01*
X-71736Y-10331D01*
Y-10053D01*
Y-9942D01*
Y-9859D01*
Y-9831D01*
Y-9775D01*
Y-9664D01*
Y-9553D01*
X-71791Y-9220D01*
X-71847Y-8803D01*
X-71958Y-8359D01*
X-72125Y-7915D01*
X-72347Y-7498D01*
X-72652Y-7165D01*
X-72708Y-7109D01*
X-72763Y-7054D01*
X-72874Y-6998D01*
X-73013Y-6915D01*
X-73152Y-6832D01*
X-73541Y-6610D01*
X-74041Y-6415D01*
X-74652Y-6249D01*
X-75374Y-6137D01*
X-76207Y-6082D01*
X-76568D01*
X-76762Y-6110D01*
X-76957D01*
X-77457Y-6165D01*
X-77984Y-6276D01*
X-78512Y-6415D01*
X-79040Y-6610D01*
X-79484Y-6859D01*
X-79539Y-6887D01*
X-79650Y-6998D01*
X-79845Y-7220D01*
X-80067Y-7498D01*
X-80317Y-7859D01*
X-80595Y-8359D01*
X-80817Y-8914D01*
X-80928Y-9248D01*
X-81039Y-9609D01*
X-84121Y-9192D01*
Y-9164D01*
X-84094Y-9109D01*
X-84066Y-8998D01*
X-84038Y-8859D01*
X-83982Y-8692D01*
X-83927Y-8498D01*
X-83788Y-8054D01*
X-83594Y-7554D01*
X-83372Y-7026D01*
X-83094Y-6498D01*
X-82761Y-6026D01*
Y-5999D01*
X-82705Y-5971D01*
X-82566Y-5832D01*
X-82344Y-5610D01*
X-82039Y-5332D01*
X-81650Y-5027D01*
X-81178Y-4721D01*
X-80622Y-4416D01*
X-79984Y-4138D01*
X-79956D01*
X-79900Y-4110D01*
X-79789Y-4082D01*
X-79650Y-4027D01*
X-79484Y-3971D01*
X-79289Y-3916D01*
X-79040Y-3860D01*
X-78762Y-3805D01*
X-78484Y-3749D01*
X-78151Y-3694D01*
X-77429Y-3583D01*
X-76623Y-3499D01*
X-75763Y-3472D01*
X-75374D01*
X-75179Y-3499D01*
D02*
G37*
G36*
X-125443Y138D02*
X-139328D01*
Y-7804D01*
X-127304D01*
Y-10831D01*
X-139328D01*
Y-22466D01*
X-142716D01*
Y3165D01*
X-125443D01*
Y138D01*
D02*
G37*
G36*
X29486Y-3888D02*
X32679D01*
Y-6332D01*
X29486D01*
Y-17218D01*
Y-17245D01*
Y-17273D01*
Y-17440D01*
Y-17662D01*
X29513Y-17940D01*
Y-18217D01*
X29569Y-18495D01*
X29597Y-18745D01*
X29652Y-18939D01*
Y-18967D01*
X29680Y-18995D01*
X29791Y-19162D01*
X29958Y-19356D01*
X30180Y-19550D01*
X30208D01*
X30263Y-19578D01*
X30347Y-19606D01*
X30458Y-19661D01*
X30624Y-19689D01*
X30791Y-19745D01*
X31013Y-19773D01*
X31485D01*
X31652Y-19745D01*
X31846D01*
X32096Y-19717D01*
X32374Y-19689D01*
X32679Y-19661D01*
X33096Y-22438D01*
X33040D01*
X32874Y-22494D01*
X32624Y-22522D01*
X32291Y-22577D01*
X31929Y-22633D01*
X31541Y-22661D01*
X30708Y-22716D01*
X30430D01*
X30124Y-22688D01*
X29736Y-22661D01*
X29291Y-22577D01*
X28847Y-22494D01*
X28430Y-22355D01*
X28042Y-22189D01*
X28014Y-22161D01*
X27903Y-22077D01*
X27736Y-21966D01*
X27514Y-21800D01*
X27292Y-21605D01*
X27070Y-21355D01*
X26875Y-21078D01*
X26709Y-20772D01*
X26681Y-20717D01*
X26653Y-20578D01*
X26625Y-20467D01*
X26598Y-20328D01*
X26570Y-20161D01*
X26542Y-19967D01*
X26487Y-19745D01*
X26459Y-19467D01*
X26431Y-19162D01*
X26403Y-18828D01*
X26375Y-18440D01*
Y-18023D01*
X26348Y-17551D01*
Y-17051D01*
Y-6332D01*
X24015D01*
Y-3888D01*
X26348D01*
Y694D01*
X29486Y2582D01*
Y-3888D01*
D02*
G37*
G36*
X73612Y3221D02*
X73807Y3193D01*
X74306Y3138D01*
X74862Y3054D01*
X75473Y2888D01*
X76084Y2693D01*
X76695Y2416D01*
X76723D01*
X76778Y2388D01*
X76861Y2332D01*
X76972Y2249D01*
X77250Y2082D01*
X77611Y1805D01*
X78028Y1472D01*
X78444Y1055D01*
X78888Y555D01*
X79277Y-0D01*
Y-28D01*
X79333Y-84D01*
X79361Y-167D01*
X79444Y-278D01*
X79527Y-417D01*
X79638Y-611D01*
X79722Y-833D01*
X79861Y-1056D01*
X80110Y-1611D01*
X80360Y-2250D01*
X80638Y-2999D01*
X80860Y-3805D01*
Y-3833D01*
X80888Y-3916D01*
X80916Y-4027D01*
X80944Y-4221D01*
X80999Y-4443D01*
X81055Y-4721D01*
X81110Y-5027D01*
X81166Y-5388D01*
X81193Y-5804D01*
X81249Y-6249D01*
X81305Y-6748D01*
X81360Y-7276D01*
X81388Y-7859D01*
X81416Y-8470D01*
X81443Y-9137D01*
Y-9831D01*
Y-9887D01*
Y-10025D01*
Y-10275D01*
Y-10581D01*
X81416Y-10970D01*
X81388Y-11386D01*
X81360Y-11886D01*
X81332Y-12414D01*
X81277Y-12997D01*
X81221Y-13580D01*
X81055Y-14802D01*
X80805Y-15996D01*
X80666Y-16579D01*
X80499Y-17107D01*
Y-17134D01*
X80444Y-17218D01*
X80416Y-17384D01*
X80333Y-17551D01*
X80221Y-17801D01*
X80110Y-18051D01*
X79972Y-18356D01*
X79805Y-18689D01*
X79416Y-19384D01*
X78944Y-20078D01*
X78389Y-20772D01*
X78055Y-21078D01*
X77722Y-21383D01*
X77694Y-21411D01*
X77639Y-21439D01*
X77528Y-21522D01*
X77389Y-21605D01*
X77222Y-21716D01*
X77000Y-21855D01*
X76750Y-21994D01*
X76445Y-22133D01*
X76139Y-22272D01*
X75778Y-22411D01*
X75417Y-22522D01*
X75001Y-22661D01*
X74556Y-22744D01*
X74084Y-22827D01*
X73612Y-22855D01*
X73085Y-22883D01*
X72918D01*
X72724Y-22855D01*
X72474Y-22827D01*
X72168Y-22799D01*
X71807Y-22744D01*
X71418Y-22661D01*
X70974Y-22550D01*
X70530Y-22411D01*
X70058Y-22244D01*
X69558Y-22022D01*
X69086Y-21772D01*
X68614Y-21467D01*
X68142Y-21105D01*
X67697Y-20717D01*
X67281Y-20245D01*
X67253Y-20217D01*
X67170Y-20106D01*
X67058Y-19911D01*
X66892Y-19634D01*
X66698Y-19273D01*
X66475Y-18856D01*
X66253Y-18328D01*
X66031Y-17745D01*
X65781Y-17051D01*
X65559Y-16301D01*
X65337Y-15440D01*
X65142Y-14496D01*
X64976Y-13469D01*
X64865Y-12358D01*
X64781Y-11136D01*
X64754Y-9831D01*
Y-9775D01*
Y-9636D01*
Y-9387D01*
X64781Y-9081D01*
Y-8692D01*
X64809Y-8248D01*
X64837Y-7748D01*
X64865Y-7220D01*
X64920Y-6637D01*
X64976Y-6054D01*
X65142Y-4832D01*
X65364Y-3638D01*
X65503Y-3055D01*
X65670Y-2527D01*
Y-2500D01*
X65725Y-2416D01*
X65781Y-2250D01*
X65837Y-2055D01*
X65948Y-1833D01*
X66059Y-1555D01*
X66198Y-1278D01*
X66364Y-945D01*
X66753Y-250D01*
X67253Y444D01*
X67808Y1138D01*
X68114Y1444D01*
X68447Y1749D01*
X68475Y1777D01*
X68530Y1805D01*
X68641Y1888D01*
X68780Y1971D01*
X68947Y2110D01*
X69169Y2221D01*
X69419Y2360D01*
X69724Y2499D01*
X70030Y2638D01*
X70391Y2777D01*
X70780Y2915D01*
X71169Y3027D01*
X71613Y3110D01*
X72085Y3193D01*
X72585Y3221D01*
X73085Y3249D01*
X73418D01*
X73612Y3221D01*
D02*
G37*
G36*
X-14058Y-3499D02*
X-13780D01*
X-13447Y-3555D01*
X-13086Y-3610D01*
X-12669Y-3694D01*
X-12197Y-3777D01*
X-11725Y-3916D01*
X-11197Y-4082D01*
X-10697Y-4305D01*
X-10170Y-4527D01*
X-9642Y-4832D01*
X-9142Y-5166D01*
X-8642Y-5554D01*
X-8170Y-5999D01*
X-8143Y-6026D01*
X-8059Y-6110D01*
X-7948Y-6249D01*
X-7782Y-6471D01*
X-7615Y-6721D01*
X-7393Y-7026D01*
X-7171Y-7387D01*
X-6949Y-7804D01*
X-6726Y-8276D01*
X-6504Y-8803D01*
X-6282Y-9359D01*
X-6115Y-9970D01*
X-5949Y-10636D01*
X-5838Y-11358D01*
X-5754Y-12136D01*
X-5727Y-12941D01*
Y-12969D01*
Y-13108D01*
Y-13274D01*
X-5754Y-13524D01*
Y-13830D01*
X-5782Y-14191D01*
X-5810Y-14580D01*
X-5866Y-14996D01*
X-5977Y-15885D01*
X-6171Y-16829D01*
X-6449Y-17745D01*
X-6615Y-18162D01*
X-6810Y-18578D01*
Y-18606D01*
X-6865Y-18662D01*
X-6921Y-18773D01*
X-7004Y-18912D01*
X-7115Y-19078D01*
X-7254Y-19300D01*
X-7615Y-19745D01*
X-8059Y-20272D01*
X-8587Y-20800D01*
X-9226Y-21300D01*
X-9948Y-21772D01*
X-9975D01*
X-10031Y-21828D01*
X-10142Y-21883D01*
X-10309Y-21939D01*
X-10503Y-22022D01*
X-10725Y-22133D01*
X-10975Y-22216D01*
X-11281Y-22327D01*
X-11586Y-22438D01*
X-11947Y-22522D01*
X-12697Y-22716D01*
X-13530Y-22827D01*
X-14419Y-22883D01*
X-14585D01*
X-14780Y-22855D01*
X-15057D01*
X-15391Y-22799D01*
X-15779Y-22744D01*
X-16196Y-22661D01*
X-16668Y-22577D01*
X-17168Y-22438D01*
X-17668Y-22272D01*
X-18195Y-22077D01*
X-18723Y-21828D01*
X-19251Y-21550D01*
X-19750Y-21217D01*
X-20250Y-20828D01*
X-20722Y-20383D01*
X-20750Y-20356D01*
X-20833Y-20272D01*
X-20945Y-20134D01*
X-21083Y-19911D01*
X-21278Y-19661D01*
X-21472Y-19356D01*
X-21694Y-18967D01*
X-21917Y-18551D01*
X-22139Y-18051D01*
X-22361Y-17523D01*
X-22555Y-16940D01*
X-22750Y-16301D01*
X-22888Y-15607D01*
X-23000Y-14857D01*
X-23083Y-14052D01*
X-23111Y-13191D01*
Y-13163D01*
Y-13136D01*
Y-12969D01*
X-23083Y-12691D01*
X-23055Y-12358D01*
X-23027Y-11914D01*
X-22972Y-11414D01*
X-22861Y-10886D01*
X-22750Y-10303D01*
X-22611Y-9692D01*
X-22416Y-9053D01*
X-22166Y-8415D01*
X-21917Y-7776D01*
X-21583Y-7165D01*
X-21195Y-6582D01*
X-20750Y-6054D01*
X-20250Y-5554D01*
X-20223Y-5527D01*
X-20139Y-5471D01*
X-20000Y-5360D01*
X-19834Y-5221D01*
X-19584Y-5082D01*
X-19306Y-4888D01*
X-19001Y-4693D01*
X-18612Y-4499D01*
X-18223Y-4305D01*
X-17779Y-4138D01*
X-17307Y-3944D01*
X-16779Y-3805D01*
X-16224Y-3666D01*
X-15668Y-3555D01*
X-15057Y-3499D01*
X-14419Y-3472D01*
X-14252D01*
X-14058Y-3499D01*
D02*
G37*
G36*
X-113558D02*
X-113280D01*
X-112947Y-3555D01*
X-112586Y-3610D01*
X-112169Y-3694D01*
X-111697Y-3777D01*
X-111225Y-3916D01*
X-110697Y-4082D01*
X-110197Y-4305D01*
X-109670Y-4527D01*
X-109142Y-4832D01*
X-108642Y-5166D01*
X-108142Y-5554D01*
X-107670Y-5999D01*
X-107643Y-6026D01*
X-107559Y-6110D01*
X-107448Y-6249D01*
X-107281Y-6471D01*
X-107115Y-6721D01*
X-106893Y-7026D01*
X-106671Y-7387D01*
X-106448Y-7804D01*
X-106226Y-8276D01*
X-106004Y-8803D01*
X-105782Y-9359D01*
X-105615Y-9970D01*
X-105449Y-10636D01*
X-105338Y-11358D01*
X-105254Y-12136D01*
X-105227Y-12941D01*
Y-12969D01*
Y-13108D01*
Y-13274D01*
X-105254Y-13524D01*
Y-13830D01*
X-105282Y-14191D01*
X-105310Y-14580D01*
X-105365Y-14996D01*
X-105476Y-15885D01*
X-105671Y-16829D01*
X-105949Y-17745D01*
X-106115Y-18162D01*
X-106310Y-18578D01*
Y-18606D01*
X-106365Y-18662D01*
X-106421Y-18773D01*
X-106504Y-18912D01*
X-106615Y-19078D01*
X-106754Y-19300D01*
X-107115Y-19745D01*
X-107559Y-20272D01*
X-108087Y-20800D01*
X-108726Y-21300D01*
X-109448Y-21772D01*
X-109475D01*
X-109531Y-21828D01*
X-109642Y-21883D01*
X-109809Y-21939D01*
X-110003Y-22022D01*
X-110225Y-22133D01*
X-110475Y-22216D01*
X-110781Y-22327D01*
X-111086Y-22438D01*
X-111447Y-22522D01*
X-112197Y-22716D01*
X-113030Y-22827D01*
X-113919Y-22883D01*
X-114085D01*
X-114280Y-22855D01*
X-114557D01*
X-114891Y-22799D01*
X-115279Y-22744D01*
X-115696Y-22661D01*
X-116168Y-22577D01*
X-116668Y-22438D01*
X-117168Y-22272D01*
X-117695Y-22077D01*
X-118223Y-21828D01*
X-118751Y-21550D01*
X-119250Y-21217D01*
X-119750Y-20828D01*
X-120222Y-20383D01*
X-120250Y-20356D01*
X-120333Y-20272D01*
X-120445Y-20134D01*
X-120583Y-19911D01*
X-120778Y-19661D01*
X-120972Y-19356D01*
X-121194Y-18967D01*
X-121416Y-18551D01*
X-121639Y-18051D01*
X-121861Y-17523D01*
X-122055Y-16940D01*
X-122250Y-16301D01*
X-122388Y-15607D01*
X-122500Y-14857D01*
X-122583Y-14052D01*
X-122611Y-13191D01*
Y-13163D01*
Y-13136D01*
Y-12969D01*
X-122583Y-12691D01*
X-122555Y-12358D01*
X-122527Y-11914D01*
X-122472Y-11414D01*
X-122361Y-10886D01*
X-122250Y-10303D01*
X-122111Y-9692D01*
X-121916Y-9053D01*
X-121666Y-8415D01*
X-121416Y-7776D01*
X-121083Y-7165D01*
X-120694Y-6582D01*
X-120250Y-6054D01*
X-119750Y-5554D01*
X-119722Y-5527D01*
X-119639Y-5471D01*
X-119500Y-5360D01*
X-119334Y-5221D01*
X-119084Y-5082D01*
X-118806Y-4888D01*
X-118501Y-4693D01*
X-118112Y-4499D01*
X-117723Y-4305D01*
X-117279Y-4138D01*
X-116807Y-3944D01*
X-116279Y-3805D01*
X-115724Y-3666D01*
X-115168Y-3555D01*
X-114557Y-3499D01*
X-113919Y-3472D01*
X-113752D01*
X-113558Y-3499D01*
D02*
G37*
G36*
X106797Y-28037D02*
X107075Y-28065D01*
X107380Y-28093D01*
X107742Y-28120D01*
X108519Y-28231D01*
X109380Y-28398D01*
X110241Y-28620D01*
X111102Y-28926D01*
X111129D01*
X111213Y-28953D01*
X111324Y-29009D01*
X111463Y-29092D01*
X111657Y-29175D01*
X111879Y-29287D01*
X112379Y-29564D01*
X112962Y-29925D01*
X113546Y-30342D01*
X114101Y-30842D01*
X114629Y-31425D01*
X114656Y-31453D01*
X114684Y-31508D01*
X114740Y-31591D01*
X114851Y-31703D01*
X114934Y-31869D01*
X115073Y-32064D01*
X115212Y-32286D01*
X115350Y-32563D01*
X115517Y-32841D01*
X115656Y-33147D01*
X115823Y-33508D01*
X115989Y-33869D01*
X116295Y-34702D01*
X116572Y-35618D01*
X113490Y-36451D01*
Y-36424D01*
X113462Y-36368D01*
X113434Y-36257D01*
X113379Y-36118D01*
X113323Y-35979D01*
X113268Y-35785D01*
X113101Y-35340D01*
X112879Y-34841D01*
X112629Y-34341D01*
X112351Y-33841D01*
X112046Y-33397D01*
X112018Y-33341D01*
X111879Y-33202D01*
X111685Y-33008D01*
X111435Y-32730D01*
X111074Y-32452D01*
X110657Y-32147D01*
X110158Y-31869D01*
X109602Y-31591D01*
X109574D01*
X109519Y-31564D01*
X109435Y-31536D01*
X109325Y-31480D01*
X109186Y-31425D01*
X108991Y-31369D01*
X108575Y-31231D01*
X108047Y-31119D01*
X107464Y-31008D01*
X106797Y-30925D01*
X106103Y-30897D01*
X105714D01*
X105520Y-30925D01*
X105270D01*
X105020Y-30953D01*
X104715Y-30981D01*
X104104Y-31064D01*
X103409Y-31203D01*
X102743Y-31369D01*
X102076Y-31619D01*
X102049D01*
X101993Y-31647D01*
X101910Y-31703D01*
X101799Y-31758D01*
X101493Y-31897D01*
X101104Y-32119D01*
X100660Y-32397D01*
X100216Y-32730D01*
X99744Y-33091D01*
X99327Y-33508D01*
X99272Y-33563D01*
X99161Y-33702D01*
X98966Y-33952D01*
X98744Y-34257D01*
X98494Y-34618D01*
X98216Y-35063D01*
X97966Y-35535D01*
X97744Y-36035D01*
Y-36062D01*
X97717Y-36146D01*
X97661Y-36257D01*
X97606Y-36451D01*
X97522Y-36673D01*
X97439Y-36923D01*
X97356Y-37229D01*
X97272Y-37562D01*
X97161Y-37923D01*
X97078Y-38340D01*
X96939Y-39200D01*
X96828Y-40172D01*
X96772Y-41200D01*
Y-41228D01*
Y-41339D01*
Y-41533D01*
X96800Y-41755D01*
Y-42061D01*
X96828Y-42394D01*
X96883Y-42783D01*
X96911Y-43199D01*
X97050Y-44116D01*
X97272Y-45060D01*
X97550Y-46032D01*
X97939Y-46948D01*
X97966Y-46976D01*
X97994Y-47059D01*
X98050Y-47170D01*
X98161Y-47337D01*
X98272Y-47504D01*
X98439Y-47726D01*
X98800Y-48226D01*
X99300Y-48781D01*
X99883Y-49364D01*
X100549Y-49892D01*
X100938Y-50142D01*
X101355Y-50364D01*
X101382D01*
X101465Y-50419D01*
X101577Y-50475D01*
X101743Y-50531D01*
X101965Y-50614D01*
X102215Y-50725D01*
X102493Y-50808D01*
X102798Y-50919D01*
X103132Y-51030D01*
X103521Y-51114D01*
X104326Y-51308D01*
X105215Y-51419D01*
X106159Y-51475D01*
X106381D01*
X106547Y-51447D01*
X106742D01*
X106964Y-51419D01*
X107214Y-51392D01*
X107519Y-51364D01*
X108158Y-51280D01*
X108880Y-51114D01*
X109658Y-50919D01*
X110435Y-50642D01*
X110463D01*
X110519Y-50614D01*
X110630Y-50558D01*
X110796Y-50503D01*
X110963Y-50419D01*
X111157Y-50309D01*
X111629Y-50086D01*
X112157Y-49809D01*
X112685Y-49503D01*
X113184Y-49198D01*
X113629Y-48837D01*
Y-44032D01*
X106103D01*
Y-41006D01*
X116961D01*
Y-50531D01*
X116933Y-50558D01*
X116850Y-50614D01*
X116711Y-50725D01*
X116517Y-50864D01*
X116295Y-51030D01*
X116017Y-51197D01*
X115712Y-51419D01*
X115378Y-51641D01*
X115017Y-51864D01*
X114601Y-52113D01*
X113740Y-52613D01*
X112796Y-53086D01*
X111796Y-53502D01*
X111768D01*
X111685Y-53558D01*
X111546Y-53585D01*
X111324Y-53669D01*
X111102Y-53724D01*
X110796Y-53807D01*
X110491Y-53919D01*
X110130Y-54002D01*
X109713Y-54085D01*
X109297Y-54196D01*
X108380Y-54335D01*
X107380Y-54446D01*
X106353Y-54502D01*
X105992D01*
X105714Y-54474D01*
X105381Y-54446D01*
X104992Y-54418D01*
X104548Y-54363D01*
X104076Y-54307D01*
X103576Y-54224D01*
X103021Y-54113D01*
X102465Y-53974D01*
X101854Y-53807D01*
X101271Y-53641D01*
X100688Y-53419D01*
X100077Y-53169D01*
X99494Y-52891D01*
X99466Y-52863D01*
X99355Y-52808D01*
X99188Y-52724D01*
X98994Y-52586D01*
X98744Y-52419D01*
X98439Y-52225D01*
X98105Y-51975D01*
X97744Y-51697D01*
X97383Y-51392D01*
X96995Y-51030D01*
X96606Y-50669D01*
X96217Y-50253D01*
X95856Y-49781D01*
X95495Y-49309D01*
X95134Y-48781D01*
X94828Y-48226D01*
X94801Y-48198D01*
X94773Y-48087D01*
X94690Y-47920D01*
X94579Y-47698D01*
X94468Y-47393D01*
X94329Y-47059D01*
X94190Y-46671D01*
X94051Y-46226D01*
X93912Y-45754D01*
X93773Y-45227D01*
X93634Y-44643D01*
X93523Y-44060D01*
X93412Y-43422D01*
X93329Y-42783D01*
X93301Y-42088D01*
X93273Y-41394D01*
Y-41339D01*
Y-41228D01*
Y-41033D01*
X93301Y-40756D01*
X93329Y-40422D01*
X93357Y-40034D01*
X93412Y-39589D01*
X93468Y-39117D01*
X93551Y-38590D01*
X93662Y-38034D01*
X93940Y-36868D01*
X94107Y-36257D01*
X94329Y-35646D01*
X94551Y-35035D01*
X94828Y-34424D01*
X94856Y-34396D01*
X94912Y-34285D01*
X94995Y-34119D01*
X95106Y-33896D01*
X95273Y-33619D01*
X95467Y-33313D01*
X95717Y-32980D01*
X95967Y-32591D01*
X96273Y-32202D01*
X96606Y-31814D01*
X96967Y-31425D01*
X97383Y-31008D01*
X97800Y-30619D01*
X98272Y-30259D01*
X98772Y-29897D01*
X99300Y-29592D01*
X99327Y-29564D01*
X99438Y-29537D01*
X99605Y-29453D01*
X99827Y-29342D01*
X100105Y-29231D01*
X100438Y-29092D01*
X100827Y-28953D01*
X101243Y-28787D01*
X101716Y-28648D01*
X102243Y-28509D01*
X102798Y-28370D01*
X103409Y-28259D01*
X104020Y-28148D01*
X104687Y-28065D01*
X105381Y-28037D01*
X106075Y-28009D01*
X106547D01*
X106797Y-28037D01*
D02*
G37*
G36*
X-42411Y-35118D02*
X-42244D01*
X-41828Y-35174D01*
X-41356Y-35229D01*
X-40828Y-35340D01*
X-40300Y-35507D01*
X-39773Y-35701D01*
X-39745D01*
X-39717Y-35729D01*
X-39551Y-35813D01*
X-39301Y-35951D01*
X-38967Y-36118D01*
X-38634Y-36368D01*
X-38273Y-36618D01*
X-37940Y-36923D01*
X-37662Y-37284D01*
X-37634Y-37340D01*
X-37551Y-37451D01*
X-37440Y-37673D01*
X-37273Y-37951D01*
X-37107Y-38284D01*
X-36968Y-38673D01*
X-36801Y-39117D01*
X-36690Y-39617D01*
Y-39645D01*
X-36662Y-39784D01*
X-36635Y-40006D01*
X-36579Y-40311D01*
X-36551Y-40728D01*
Y-40978D01*
X-36524Y-41256D01*
Y-41561D01*
X-36496Y-41922D01*
Y-42283D01*
Y-42672D01*
Y-54085D01*
X-39634D01*
Y-42783D01*
Y-42755D01*
Y-42700D01*
Y-42588D01*
Y-42477D01*
Y-42311D01*
X-39662Y-42116D01*
X-39689Y-41700D01*
X-39717Y-41228D01*
X-39801Y-40756D01*
X-39884Y-40311D01*
X-40023Y-39922D01*
X-40050Y-39867D01*
X-40106Y-39756D01*
X-40189Y-39589D01*
X-40328Y-39367D01*
X-40495Y-39117D01*
X-40717Y-38867D01*
X-40995Y-38617D01*
X-41328Y-38395D01*
X-41356Y-38367D01*
X-41494Y-38312D01*
X-41689Y-38201D01*
X-41939Y-38090D01*
X-42272Y-38006D01*
X-42633Y-37895D01*
X-43049Y-37840D01*
X-43522Y-37812D01*
X-43716D01*
X-43855Y-37840D01*
X-44021D01*
X-44244Y-37868D01*
X-44716Y-37979D01*
X-45243Y-38117D01*
X-45827Y-38340D01*
X-46410Y-38673D01*
X-46715Y-38867D01*
X-46993Y-39089D01*
X-47021Y-39117D01*
X-47048Y-39145D01*
X-47132Y-39228D01*
X-47215Y-39339D01*
X-47326Y-39506D01*
X-47437Y-39673D01*
X-47576Y-39895D01*
X-47715Y-40172D01*
X-47854Y-40478D01*
X-47993Y-40839D01*
X-48104Y-41228D01*
X-48215Y-41672D01*
X-48298Y-42172D01*
X-48381Y-42700D01*
X-48409Y-43310D01*
X-48437Y-43949D01*
Y-54085D01*
X-51575D01*
Y-35507D01*
X-48742D01*
Y-38173D01*
X-48715Y-38145D01*
X-48659Y-38034D01*
X-48520Y-37895D01*
X-48354Y-37701D01*
X-48159Y-37451D01*
X-47909Y-37201D01*
X-47604Y-36923D01*
X-47243Y-36618D01*
X-46854Y-36340D01*
X-46410Y-36062D01*
X-45938Y-35813D01*
X-45410Y-35563D01*
X-44827Y-35368D01*
X-44216Y-35229D01*
X-43549Y-35118D01*
X-42855Y-35091D01*
X-42577D01*
X-42411Y-35118D01*
D02*
G37*
G36*
X-136051D02*
X-135912D01*
X-135746Y-35146D01*
X-135329Y-35229D01*
X-134829Y-35340D01*
X-134302Y-35535D01*
X-133691Y-35785D01*
X-133080Y-36118D01*
X-134191Y-39034D01*
X-134246Y-39006D01*
X-134385Y-38923D01*
X-134607Y-38812D01*
X-134913Y-38673D01*
X-135246Y-38562D01*
X-135635Y-38451D01*
X-136051Y-38367D01*
X-136496Y-38340D01*
X-136662D01*
X-136857Y-38367D01*
X-137107Y-38423D01*
X-137412Y-38506D01*
X-137717Y-38617D01*
X-138023Y-38756D01*
X-138356Y-38978D01*
X-138384Y-39006D01*
X-138495Y-39089D01*
X-138634Y-39228D01*
X-138801Y-39423D01*
X-138995Y-39673D01*
X-139189Y-39950D01*
X-139356Y-40311D01*
X-139523Y-40700D01*
Y-40728D01*
X-139550Y-40783D01*
X-139578Y-40867D01*
X-139606Y-40978D01*
X-139634Y-41144D01*
X-139689Y-41339D01*
X-139772Y-41783D01*
X-139856Y-42338D01*
X-139939Y-42949D01*
X-139995Y-43644D01*
X-140022Y-44366D01*
Y-54085D01*
X-143160D01*
Y-35507D01*
X-140328D01*
Y-38312D01*
X-140272Y-38256D01*
X-140217Y-38145D01*
X-140134Y-38034D01*
X-139939Y-37673D01*
X-139661Y-37284D01*
X-139356Y-36840D01*
X-139023Y-36396D01*
X-138689Y-36035D01*
X-138495Y-35868D01*
X-138328Y-35729D01*
X-138273Y-35701D01*
X-138162Y-35618D01*
X-137967Y-35535D01*
X-137745Y-35396D01*
X-137440Y-35285D01*
X-137107Y-35202D01*
X-136718Y-35118D01*
X-136329Y-35091D01*
X-136162D01*
X-136051Y-35118D01*
D02*
G37*
G36*
X142176Y-54085D02*
X138788D01*
Y-42005D01*
X125487D01*
Y-54085D01*
X122099D01*
Y-28453D01*
X125487D01*
Y-38978D01*
X138788D01*
Y-28453D01*
X142176D01*
Y-54085D01*
D02*
G37*
G36*
X-23666Y-35118D02*
X-23416Y-35146D01*
X-23111Y-35174D01*
X-22777Y-35229D01*
X-22416Y-35285D01*
X-21639Y-35479D01*
X-20806Y-35757D01*
X-20389Y-35924D01*
X-19973Y-36118D01*
X-19584Y-36368D01*
X-19223Y-36646D01*
X-19195Y-36673D01*
X-19140Y-36729D01*
X-19028Y-36812D01*
X-18917Y-36923D01*
X-18751Y-37090D01*
X-18584Y-37284D01*
X-18390Y-37506D01*
X-18195Y-37756D01*
X-17973Y-38062D01*
X-17779Y-38367D01*
X-17557Y-38728D01*
X-17362Y-39117D01*
X-17196Y-39534D01*
X-17029Y-39978D01*
X-16862Y-40478D01*
X-16751Y-40978D01*
X-19806Y-41450D01*
Y-41422D01*
X-19834Y-41366D01*
X-19862Y-41283D01*
X-19889Y-41144D01*
X-20000Y-40811D01*
X-20167Y-40395D01*
X-20389Y-39950D01*
X-20639Y-39478D01*
X-20972Y-39034D01*
X-21361Y-38645D01*
X-21417Y-38590D01*
X-21556Y-38478D01*
X-21805Y-38340D01*
X-22111Y-38145D01*
X-22500Y-37979D01*
X-22944Y-37812D01*
X-23472Y-37701D01*
X-24027Y-37673D01*
X-24249D01*
X-24416Y-37701D01*
X-24638Y-37729D01*
X-24860Y-37756D01*
X-25416Y-37895D01*
X-26026Y-38090D01*
X-26332Y-38228D01*
X-26665Y-38395D01*
X-26971Y-38590D01*
X-27304Y-38840D01*
X-27609Y-39089D01*
X-27887Y-39395D01*
X-27915Y-39423D01*
X-27943Y-39478D01*
X-28026Y-39562D01*
X-28109Y-39728D01*
X-28220Y-39895D01*
X-28359Y-40117D01*
X-28498Y-40395D01*
X-28609Y-40700D01*
X-28748Y-41061D01*
X-28887Y-41450D01*
X-29026Y-41894D01*
X-29137Y-42394D01*
X-29220Y-42922D01*
X-29303Y-43477D01*
X-29331Y-44116D01*
X-29359Y-44782D01*
Y-44810D01*
Y-44949D01*
Y-45143D01*
X-29331Y-45393D01*
X-29303Y-45699D01*
X-29276Y-46060D01*
X-29248Y-46448D01*
X-29192Y-46865D01*
X-29026Y-47754D01*
X-28748Y-48670D01*
X-28609Y-49087D01*
X-28415Y-49503D01*
X-28193Y-49892D01*
X-27943Y-50225D01*
X-27915Y-50253D01*
X-27887Y-50309D01*
X-27804Y-50392D01*
X-27693Y-50475D01*
X-27526Y-50614D01*
X-27360Y-50753D01*
X-27165Y-50919D01*
X-26943Y-51058D01*
X-26388Y-51392D01*
X-25749Y-51641D01*
X-25388Y-51753D01*
X-25027Y-51836D01*
X-24610Y-51891D01*
X-24194Y-51919D01*
X-24027D01*
X-23888Y-51891D01*
X-23722D01*
X-23555Y-51864D01*
X-23111Y-51780D01*
X-22639Y-51641D01*
X-22111Y-51447D01*
X-21611Y-51169D01*
X-21111Y-50808D01*
X-21083Y-50781D01*
X-21056Y-50753D01*
X-20917Y-50586D01*
X-20695Y-50309D01*
X-20584Y-50142D01*
X-20445Y-49948D01*
X-20306Y-49698D01*
X-20167Y-49448D01*
X-20056Y-49170D01*
X-19917Y-48837D01*
X-19806Y-48503D01*
X-19695Y-48115D01*
X-19612Y-47726D01*
X-19528Y-47282D01*
X-16446Y-47698D01*
Y-47726D01*
X-16474Y-47837D01*
X-16501Y-48004D01*
X-16557Y-48226D01*
X-16640Y-48503D01*
X-16724Y-48809D01*
X-16835Y-49142D01*
X-16973Y-49531D01*
X-17307Y-50309D01*
X-17529Y-50725D01*
X-17779Y-51142D01*
X-18029Y-51558D01*
X-18334Y-51975D01*
X-18695Y-52336D01*
X-19056Y-52697D01*
X-19084Y-52724D01*
X-19140Y-52780D01*
X-19278Y-52863D01*
X-19417Y-52974D01*
X-19639Y-53113D01*
X-19862Y-53280D01*
X-20167Y-53419D01*
X-20472Y-53585D01*
X-20833Y-53780D01*
X-21222Y-53919D01*
X-21639Y-54085D01*
X-22083Y-54224D01*
X-22583Y-54335D01*
X-23083Y-54418D01*
X-23610Y-54474D01*
X-24166Y-54502D01*
X-24333D01*
X-24527Y-54474D01*
X-24805D01*
X-25110Y-54418D01*
X-25499Y-54363D01*
X-25915Y-54307D01*
X-26360Y-54196D01*
X-26832Y-54057D01*
X-27332Y-53891D01*
X-27832Y-53696D01*
X-28359Y-53447D01*
X-28859Y-53169D01*
X-29359Y-52836D01*
X-29831Y-52474D01*
X-30275Y-52030D01*
X-30303Y-52002D01*
X-30386Y-51919D01*
X-30498Y-51780D01*
X-30636Y-51558D01*
X-30803Y-51308D01*
X-30997Y-51003D01*
X-31220Y-50614D01*
X-31414Y-50197D01*
X-31636Y-49725D01*
X-31858Y-49198D01*
X-32053Y-48614D01*
X-32219Y-47976D01*
X-32358Y-47282D01*
X-32469Y-46532D01*
X-32552Y-45726D01*
X-32580Y-44893D01*
Y-44866D01*
Y-44754D01*
Y-44588D01*
X-32552Y-44394D01*
Y-44116D01*
X-32525Y-43810D01*
X-32497Y-43477D01*
X-32469Y-43088D01*
X-32330Y-42283D01*
X-32164Y-41394D01*
X-31942Y-40478D01*
X-31608Y-39617D01*
Y-39589D01*
X-31553Y-39506D01*
X-31497Y-39395D01*
X-31414Y-39256D01*
X-31303Y-39062D01*
X-31192Y-38840D01*
X-30858Y-38340D01*
X-30442Y-37812D01*
X-29914Y-37229D01*
X-29303Y-36701D01*
X-28581Y-36229D01*
X-28554D01*
X-28498Y-36173D01*
X-28387Y-36118D01*
X-28220Y-36062D01*
X-28026Y-35951D01*
X-27804Y-35868D01*
X-27554Y-35757D01*
X-27276Y-35646D01*
X-26943Y-35563D01*
X-26610Y-35451D01*
X-25860Y-35257D01*
X-25027Y-35146D01*
X-24166Y-35091D01*
X-23860D01*
X-23666Y-35118D01*
D02*
G37*
G36*
X-5588Y-54391D02*
Y-54418D01*
X-5643Y-54530D01*
X-5699Y-54668D01*
X-5782Y-54891D01*
X-5866Y-55140D01*
X-5977Y-55418D01*
X-6115Y-55724D01*
X-6227Y-56057D01*
X-6532Y-56751D01*
X-6810Y-57445D01*
X-6976Y-57779D01*
X-7115Y-58084D01*
X-7226Y-58362D01*
X-7365Y-58584D01*
Y-58612D01*
X-7393Y-58640D01*
X-7448Y-58723D01*
X-7504Y-58834D01*
X-7698Y-59112D01*
X-7920Y-59445D01*
X-8198Y-59834D01*
X-8531Y-60195D01*
X-8892Y-60556D01*
X-9281Y-60861D01*
X-9337Y-60889D01*
X-9476Y-60972D01*
X-9698Y-61111D01*
X-10003Y-61222D01*
X-10392Y-61361D01*
X-10836Y-61500D01*
X-11308Y-61583D01*
X-11864Y-61611D01*
X-12031D01*
X-12225Y-61583D01*
X-12447Y-61555D01*
X-12753Y-61528D01*
X-13114Y-61444D01*
X-13475Y-61361D01*
X-13891Y-61222D01*
X-14252Y-58279D01*
X-14197D01*
X-14085Y-58334D01*
X-13891Y-58362D01*
X-13641Y-58417D01*
X-13363Y-58473D01*
X-13058Y-58528D01*
X-12753Y-58556D01*
X-12475Y-58584D01*
X-12308D01*
X-12114Y-58556D01*
X-11864Y-58528D01*
X-11614Y-58501D01*
X-11336Y-58417D01*
X-11058Y-58334D01*
X-10809Y-58223D01*
X-10781Y-58195D01*
X-10697Y-58167D01*
X-10586Y-58084D01*
X-10448Y-57973D01*
X-10281Y-57834D01*
X-10086Y-57667D01*
X-9753Y-57251D01*
X-9725Y-57223D01*
X-9698Y-57140D01*
X-9614Y-57001D01*
X-9531Y-56779D01*
X-9392Y-56473D01*
X-9226Y-56057D01*
X-9142Y-55807D01*
X-9031Y-55529D01*
X-8920Y-55224D01*
X-8809Y-54891D01*
X-8781Y-54835D01*
X-8726Y-54696D01*
X-8642Y-54446D01*
X-8504Y-54113D01*
X-15529Y-35507D01*
X-12197D01*
X-8337Y-46282D01*
Y-46310D01*
X-8309Y-46365D01*
X-8254Y-46476D01*
X-8198Y-46643D01*
X-8143Y-46837D01*
X-8059Y-47059D01*
X-7976Y-47309D01*
X-7865Y-47587D01*
X-7671Y-48226D01*
X-7421Y-48976D01*
X-7198Y-49753D01*
X-6976Y-50586D01*
Y-50558D01*
X-6949Y-50475D01*
X-6921Y-50364D01*
X-6865Y-50225D01*
X-6837Y-50031D01*
X-6754Y-49781D01*
X-6699Y-49531D01*
X-6615Y-49253D01*
X-6421Y-48614D01*
X-6199Y-47892D01*
X-5949Y-47143D01*
X-5671Y-46365D01*
X-1672Y-35507D01*
X1466D01*
X-5588Y-54391D01*
D02*
G37*
G36*
X-76429Y-54085D02*
X-79234D01*
Y-51364D01*
X-79262Y-51392D01*
X-79345Y-51503D01*
X-79456Y-51641D01*
X-79623Y-51864D01*
X-79845Y-52086D01*
X-80123Y-52364D01*
X-80428Y-52641D01*
X-80789Y-52919D01*
X-81205Y-53224D01*
X-81650Y-53502D01*
X-82122Y-53780D01*
X-82650Y-54002D01*
X-83233Y-54224D01*
X-83816Y-54363D01*
X-84455Y-54474D01*
X-85149Y-54502D01*
X-85427D01*
X-85732Y-54474D01*
X-86149Y-54418D01*
X-86621Y-54363D01*
X-87148Y-54252D01*
X-87676Y-54085D01*
X-88231Y-53891D01*
X-88259D01*
X-88287Y-53863D01*
X-88454Y-53780D01*
X-88703Y-53641D01*
X-89037Y-53447D01*
X-89370Y-53224D01*
X-89731Y-52947D01*
X-90064Y-52641D01*
X-90342Y-52308D01*
X-90370Y-52252D01*
X-90453Y-52141D01*
X-90564Y-51919D01*
X-90703Y-51641D01*
X-90869Y-51308D01*
X-91036Y-50919D01*
X-91175Y-50475D01*
X-91314Y-49975D01*
Y-49920D01*
X-91342Y-49809D01*
X-91369Y-49559D01*
X-91397Y-49253D01*
X-91425Y-48837D01*
X-91453Y-48337D01*
X-91480Y-47726D01*
Y-47032D01*
Y-35507D01*
X-88342D01*
Y-45810D01*
Y-45838D01*
Y-45921D01*
Y-46032D01*
Y-46198D01*
Y-46421D01*
Y-46643D01*
X-88315Y-47143D01*
Y-47698D01*
X-88259Y-48254D01*
X-88231Y-48753D01*
X-88204Y-48976D01*
X-88176Y-49142D01*
X-88148Y-49198D01*
X-88120Y-49336D01*
X-88037Y-49586D01*
X-87898Y-49864D01*
X-87731Y-50170D01*
X-87509Y-50475D01*
X-87232Y-50808D01*
X-86898Y-51086D01*
X-86843Y-51114D01*
X-86732Y-51197D01*
X-86510Y-51308D01*
X-86232Y-51419D01*
X-85899Y-51558D01*
X-85482Y-51669D01*
X-85010Y-51753D01*
X-84510Y-51780D01*
X-84260D01*
X-84010Y-51753D01*
X-83649Y-51697D01*
X-83233Y-51614D01*
X-82788Y-51475D01*
X-82344Y-51308D01*
X-81872Y-51058D01*
X-81844D01*
X-81817Y-51030D01*
X-81678Y-50919D01*
X-81455Y-50753D01*
X-81178Y-50531D01*
X-80900Y-50253D01*
X-80595Y-49920D01*
X-80317Y-49531D01*
X-80095Y-49087D01*
Y-49059D01*
X-80067Y-49031D01*
X-80039Y-48948D01*
X-80011Y-48864D01*
X-79984Y-48726D01*
X-79928Y-48559D01*
X-79873Y-48392D01*
X-79817Y-48170D01*
X-79734Y-47642D01*
X-79650Y-47032D01*
X-79595Y-46310D01*
X-79567Y-45476D01*
Y-35507D01*
X-76429D01*
Y-54085D01*
D02*
G37*
G36*
X78777Y-31786D02*
X68530D01*
X67170Y-38673D01*
X67197Y-38645D01*
X67281Y-38590D01*
X67392Y-38534D01*
X67558Y-38423D01*
X67781Y-38312D01*
X68031Y-38173D01*
X68308Y-38006D01*
X68641Y-37868D01*
X68975Y-37729D01*
X69363Y-37562D01*
X70169Y-37312D01*
X70613Y-37201D01*
X71057Y-37118D01*
X71530Y-37090D01*
X72002Y-37062D01*
X72140D01*
X72335Y-37090D01*
X72557D01*
X72835Y-37146D01*
X73168Y-37173D01*
X73557Y-37257D01*
X73945Y-37340D01*
X74390Y-37479D01*
X74834Y-37618D01*
X75306Y-37812D01*
X75778Y-38034D01*
X76250Y-38312D01*
X76723Y-38617D01*
X77195Y-38978D01*
X77639Y-39395D01*
X77667Y-39423D01*
X77750Y-39506D01*
X77861Y-39645D01*
X78000Y-39811D01*
X78194Y-40034D01*
X78389Y-40339D01*
X78583Y-40644D01*
X78805Y-41006D01*
X79027Y-41422D01*
X79222Y-41894D01*
X79444Y-42366D01*
X79611Y-42922D01*
X79749Y-43477D01*
X79861Y-44088D01*
X79944Y-44727D01*
X79972Y-45393D01*
Y-45421D01*
Y-45560D01*
Y-45726D01*
X79944Y-45976D01*
X79916Y-46282D01*
X79861Y-46615D01*
X79805Y-47004D01*
X79722Y-47448D01*
X79611Y-47892D01*
X79472Y-48392D01*
X79305Y-48892D01*
X79111Y-49392D01*
X78888Y-49892D01*
X78611Y-50419D01*
X78305Y-50919D01*
X77944Y-51392D01*
X77917Y-51419D01*
X77833Y-51530D01*
X77694Y-51669D01*
X77500Y-51864D01*
X77250Y-52113D01*
X76945Y-52364D01*
X76584Y-52669D01*
X76167Y-52947D01*
X75723Y-53224D01*
X75223Y-53530D01*
X74668Y-53780D01*
X74057Y-54002D01*
X73418Y-54224D01*
X72724Y-54363D01*
X72002Y-54474D01*
X71224Y-54502D01*
X70891D01*
X70641Y-54474D01*
X70335Y-54446D01*
X70002Y-54391D01*
X69613Y-54335D01*
X69197Y-54252D01*
X68752Y-54168D01*
X68280Y-54030D01*
X67808Y-53863D01*
X67336Y-53669D01*
X66864Y-53447D01*
X66392Y-53197D01*
X65948Y-52891D01*
X65503Y-52558D01*
X65476Y-52530D01*
X65420Y-52474D01*
X65309Y-52364D01*
X65170Y-52197D01*
X64976Y-52002D01*
X64781Y-51780D01*
X64587Y-51503D01*
X64365Y-51169D01*
X64143Y-50836D01*
X63920Y-50447D01*
X63726Y-50003D01*
X63532Y-49559D01*
X63337Y-49059D01*
X63199Y-48531D01*
X63087Y-47948D01*
X63004Y-47365D01*
X66309Y-47115D01*
Y-47143D01*
X66337Y-47226D01*
X66364Y-47337D01*
X66392Y-47504D01*
X66420Y-47698D01*
X66503Y-47948D01*
X66642Y-48476D01*
X66864Y-49059D01*
X67170Y-49670D01*
X67531Y-50225D01*
X67753Y-50475D01*
X67975Y-50725D01*
X68003D01*
X68031Y-50781D01*
X68114Y-50836D01*
X68225Y-50919D01*
X68502Y-51114D01*
X68891Y-51308D01*
X69363Y-51530D01*
X69919Y-51725D01*
X70530Y-51864D01*
X70863Y-51891D01*
X71224Y-51919D01*
X71446D01*
X71613Y-51891D01*
X71807Y-51864D01*
X72029Y-51836D01*
X72557Y-51697D01*
X73168Y-51503D01*
X73473Y-51364D01*
X73807Y-51197D01*
X74140Y-51003D01*
X74445Y-50781D01*
X74751Y-50531D01*
X75056Y-50225D01*
X75084Y-50197D01*
X75112Y-50142D01*
X75195Y-50059D01*
X75306Y-49920D01*
X75417Y-49725D01*
X75556Y-49531D01*
X75695Y-49281D01*
X75862Y-49003D01*
X76000Y-48698D01*
X76139Y-48365D01*
X76278Y-47976D01*
X76389Y-47587D01*
X76500Y-47143D01*
X76584Y-46671D01*
X76611Y-46198D01*
X76639Y-45671D01*
Y-45643D01*
Y-45560D01*
Y-45421D01*
X76611Y-45227D01*
X76584Y-45004D01*
X76556Y-44727D01*
X76500Y-44449D01*
X76445Y-44116D01*
X76278Y-43449D01*
X76000Y-42727D01*
X75834Y-42394D01*
X75612Y-42061D01*
X75389Y-41728D01*
X75112Y-41422D01*
X75084Y-41394D01*
X75056Y-41366D01*
X74945Y-41283D01*
X74834Y-41172D01*
X74695Y-41061D01*
X74501Y-40922D01*
X74306Y-40783D01*
X74057Y-40617D01*
X73779Y-40478D01*
X73501Y-40339D01*
X72807Y-40089D01*
X72446Y-39978D01*
X72029Y-39895D01*
X71613Y-39867D01*
X71169Y-39839D01*
X70919D01*
X70613Y-39867D01*
X70252Y-39922D01*
X69808Y-40006D01*
X69336Y-40145D01*
X68864Y-40311D01*
X68392Y-40561D01*
X68336Y-40589D01*
X68197Y-40672D01*
X67975Y-40839D01*
X67697Y-41033D01*
X67419Y-41311D01*
X67086Y-41616D01*
X66781Y-41978D01*
X66503Y-42366D01*
X63560Y-41950D01*
X66031Y-28787D01*
X78777D01*
Y-31786D01*
D02*
G37*
G36*
X161643Y-37618D02*
X151563Y-49392D01*
X149591Y-51558D01*
X149674D01*
X149813Y-51530D01*
X149952D01*
X150146Y-51503D01*
X150368D01*
X150618Y-51475D01*
X150896Y-51447D01*
X151507Y-51419D01*
X152174Y-51392D01*
X152896Y-51364D01*
X162198D01*
Y-54085D01*
X145759D01*
Y-51530D01*
X157533Y-37979D01*
X157339D01*
X157200Y-38006D01*
X156811D01*
X156339Y-38034D01*
X155784Y-38062D01*
X155201D01*
X154590Y-38090D01*
X146453D01*
Y-35507D01*
X161643D01*
Y-37618D01*
D02*
G37*
G36*
X58394Y-54085D02*
X54812D01*
Y-50503D01*
X58394D01*
Y-54085D01*
D02*
G37*
G36*
X25070D02*
X21932D01*
Y-34063D01*
X21877Y-34119D01*
X21738Y-34257D01*
X21488Y-34452D01*
X21127Y-34729D01*
X20710Y-35063D01*
X20183Y-35424D01*
X19600Y-35813D01*
X18933Y-36229D01*
X18905D01*
X18850Y-36285D01*
X18767Y-36340D01*
X18628Y-36396D01*
X18461Y-36507D01*
X18267Y-36590D01*
X17822Y-36840D01*
X17322Y-37090D01*
X16767Y-37368D01*
X16184Y-37618D01*
X15629Y-37840D01*
Y-34813D01*
X15656Y-34785D01*
X15740Y-34757D01*
X15878Y-34674D01*
X16073Y-34591D01*
X16295Y-34480D01*
X16573Y-34313D01*
X16878Y-34146D01*
X17184Y-33980D01*
X17906Y-33535D01*
X18683Y-33008D01*
X19489Y-32452D01*
X20238Y-31814D01*
X20266Y-31786D01*
X20322Y-31730D01*
X20433Y-31647D01*
X20572Y-31508D01*
X20710Y-31342D01*
X20905Y-31175D01*
X21321Y-30703D01*
X21793Y-30203D01*
X22265Y-29620D01*
X22682Y-29009D01*
X23043Y-28370D01*
X25070D01*
Y-54085D01*
D02*
G37*
G36*
X-147132Y-31480D02*
X-161016D01*
Y-39423D01*
X-148992D01*
Y-42450D01*
X-161016D01*
Y-54085D01*
X-164404D01*
Y-28453D01*
X-147132D01*
Y-31480D01*
D02*
G37*
G36*
X42010Y-28398D02*
X42204Y-28426D01*
X42704Y-28481D01*
X43260Y-28565D01*
X43871Y-28731D01*
X44482Y-28926D01*
X45092Y-29203D01*
X45120D01*
X45176Y-29231D01*
X45259Y-29287D01*
X45370Y-29370D01*
X45648Y-29537D01*
X46009Y-29814D01*
X46425Y-30147D01*
X46842Y-30564D01*
X47286Y-31064D01*
X47675Y-31619D01*
Y-31647D01*
X47731Y-31703D01*
X47758Y-31786D01*
X47842Y-31897D01*
X47925Y-32036D01*
X48036Y-32230D01*
X48119Y-32452D01*
X48258Y-32675D01*
X48508Y-33230D01*
X48758Y-33869D01*
X49036Y-34618D01*
X49258Y-35424D01*
Y-35451D01*
X49286Y-35535D01*
X49314Y-35646D01*
X49341Y-35840D01*
X49397Y-36062D01*
X49452Y-36340D01*
X49508Y-36646D01*
X49563Y-37007D01*
X49591Y-37423D01*
X49647Y-37868D01*
X49702Y-38367D01*
X49758Y-38895D01*
X49786Y-39478D01*
X49813Y-40089D01*
X49841Y-40756D01*
Y-41450D01*
Y-41505D01*
Y-41644D01*
Y-41894D01*
Y-42200D01*
X49813Y-42588D01*
X49786Y-43005D01*
X49758Y-43505D01*
X49730Y-44032D01*
X49674Y-44616D01*
X49619Y-45199D01*
X49452Y-46421D01*
X49202Y-47615D01*
X49064Y-48198D01*
X48897Y-48726D01*
Y-48753D01*
X48841Y-48837D01*
X48814Y-49003D01*
X48730Y-49170D01*
X48619Y-49420D01*
X48508Y-49670D01*
X48369Y-49975D01*
X48203Y-50309D01*
X47814Y-51003D01*
X47342Y-51697D01*
X46786Y-52391D01*
X46453Y-52697D01*
X46120Y-53002D01*
X46092Y-53030D01*
X46037Y-53058D01*
X45926Y-53141D01*
X45787Y-53224D01*
X45620Y-53335D01*
X45398Y-53474D01*
X45148Y-53613D01*
X44842Y-53752D01*
X44537Y-53891D01*
X44176Y-54030D01*
X43815Y-54141D01*
X43398Y-54280D01*
X42954Y-54363D01*
X42482Y-54446D01*
X42010Y-54474D01*
X41482Y-54502D01*
X41316D01*
X41121Y-54474D01*
X40871Y-54446D01*
X40566Y-54418D01*
X40205Y-54363D01*
X39816Y-54280D01*
X39372Y-54168D01*
X38928Y-54030D01*
X38455Y-53863D01*
X37955Y-53641D01*
X37484Y-53391D01*
X37011Y-53086D01*
X36539Y-52724D01*
X36095Y-52336D01*
X35678Y-51864D01*
X35651Y-51836D01*
X35567Y-51725D01*
X35456Y-51530D01*
X35290Y-51253D01*
X35095Y-50892D01*
X34873Y-50475D01*
X34651Y-49948D01*
X34429Y-49364D01*
X34179Y-48670D01*
X33957Y-47920D01*
X33735Y-47059D01*
X33540Y-46115D01*
X33373Y-45088D01*
X33262Y-43977D01*
X33179Y-42755D01*
X33151Y-41450D01*
Y-41394D01*
Y-41256D01*
Y-41006D01*
X33179Y-40700D01*
Y-40311D01*
X33207Y-39867D01*
X33235Y-39367D01*
X33262Y-38840D01*
X33318Y-38256D01*
X33373Y-37673D01*
X33540Y-36451D01*
X33762Y-35257D01*
X33901Y-34674D01*
X34068Y-34146D01*
Y-34119D01*
X34123Y-34035D01*
X34179Y-33869D01*
X34234Y-33674D01*
X34345Y-33452D01*
X34457Y-33174D01*
X34595Y-32897D01*
X34762Y-32563D01*
X35151Y-31869D01*
X35651Y-31175D01*
X36206Y-30481D01*
X36511Y-30175D01*
X36845Y-29870D01*
X36873Y-29842D01*
X36928Y-29814D01*
X37039Y-29731D01*
X37178Y-29648D01*
X37345Y-29509D01*
X37567Y-29398D01*
X37817Y-29259D01*
X38122Y-29120D01*
X38428Y-28981D01*
X38789Y-28842D01*
X39177Y-28703D01*
X39566Y-28592D01*
X40010Y-28509D01*
X40483Y-28426D01*
X40982Y-28398D01*
X41482Y-28370D01*
X41816D01*
X42010Y-28398D01*
D02*
G37*
G36*
X-63516Y-35118D02*
X-63266D01*
X-62933Y-35174D01*
X-62572Y-35229D01*
X-62155Y-35313D01*
X-61711Y-35396D01*
X-61239Y-35535D01*
X-60767Y-35701D01*
X-60239Y-35924D01*
X-59739Y-36173D01*
X-59239Y-36451D01*
X-58740Y-36812D01*
X-58240Y-37201D01*
X-57795Y-37645D01*
X-57768Y-37673D01*
X-57684Y-37756D01*
X-57573Y-37895D01*
X-57434Y-38117D01*
X-57240Y-38367D01*
X-57046Y-38673D01*
X-56823Y-39062D01*
X-56601Y-39478D01*
X-56407Y-39950D01*
X-56185Y-40478D01*
X-55990Y-41061D01*
X-55796Y-41700D01*
X-55657Y-42394D01*
X-55546Y-43144D01*
X-55463Y-43921D01*
X-55435Y-44754D01*
Y-44810D01*
Y-44949D01*
Y-45227D01*
X-55463Y-45588D01*
X-69320D01*
Y-45615D01*
Y-45726D01*
X-69292Y-45893D01*
X-69264Y-46087D01*
X-69237Y-46365D01*
X-69181Y-46643D01*
X-69126Y-46976D01*
X-69042Y-47337D01*
X-68820Y-48087D01*
X-68515Y-48892D01*
X-68320Y-49253D01*
X-68126Y-49642D01*
X-67876Y-49975D01*
X-67598Y-50309D01*
X-67571Y-50336D01*
X-67515Y-50364D01*
X-67432Y-50447D01*
X-67321Y-50558D01*
X-67154Y-50669D01*
X-66987Y-50808D01*
X-66765Y-50975D01*
X-66515Y-51114D01*
X-65960Y-51419D01*
X-65293Y-51669D01*
X-64932Y-51780D01*
X-64543Y-51836D01*
X-64127Y-51891D01*
X-63710Y-51919D01*
X-63544D01*
X-63433Y-51891D01*
X-63099Y-51864D01*
X-62683Y-51808D01*
X-62239Y-51697D01*
X-61739Y-51530D01*
X-61239Y-51336D01*
X-60767Y-51030D01*
X-60739D01*
X-60711Y-50975D01*
X-60572Y-50864D01*
X-60350Y-50642D01*
X-60073Y-50309D01*
X-59767Y-49920D01*
X-59434Y-49392D01*
X-59101Y-48781D01*
X-58823Y-48087D01*
X-55546Y-48503D01*
Y-48531D01*
X-55574Y-48642D01*
X-55629Y-48781D01*
X-55713Y-48976D01*
X-55796Y-49225D01*
X-55907Y-49503D01*
X-56046Y-49809D01*
X-56185Y-50142D01*
X-56573Y-50836D01*
X-57073Y-51586D01*
X-57379Y-51947D01*
X-57684Y-52308D01*
X-58018Y-52641D01*
X-58406Y-52947D01*
X-58434Y-52974D01*
X-58490Y-53002D01*
X-58628Y-53086D01*
X-58767Y-53197D01*
X-58990Y-53308D01*
X-59239Y-53447D01*
X-59517Y-53585D01*
X-59850Y-53724D01*
X-60211Y-53863D01*
X-60628Y-54002D01*
X-61045Y-54141D01*
X-61517Y-54252D01*
X-62016Y-54363D01*
X-62544Y-54446D01*
X-63127Y-54474D01*
X-63710Y-54502D01*
X-63877D01*
X-64099Y-54474D01*
X-64377D01*
X-64738Y-54418D01*
X-65127Y-54363D01*
X-65571Y-54280D01*
X-66043Y-54196D01*
X-66543Y-54057D01*
X-67071Y-53891D01*
X-67626Y-53696D01*
X-68154Y-53447D01*
X-68709Y-53169D01*
X-69209Y-52836D01*
X-69709Y-52447D01*
X-70181Y-52002D01*
X-70209Y-51975D01*
X-70292Y-51891D01*
X-70403Y-51753D01*
X-70542Y-51530D01*
X-70736Y-51280D01*
X-70931Y-50975D01*
X-71153Y-50614D01*
X-71347Y-50197D01*
X-71569Y-49725D01*
X-71791Y-49198D01*
X-71986Y-48614D01*
X-72180Y-47976D01*
X-72319Y-47309D01*
X-72430Y-46587D01*
X-72514Y-45810D01*
X-72541Y-44977D01*
Y-44921D01*
Y-44782D01*
X-72514Y-44532D01*
Y-44199D01*
X-72458Y-43810D01*
X-72402Y-43366D01*
X-72347Y-42838D01*
X-72236Y-42311D01*
X-72125Y-41728D01*
X-71958Y-41144D01*
X-71764Y-40533D01*
X-71542Y-39922D01*
X-71264Y-39339D01*
X-70931Y-38756D01*
X-70570Y-38201D01*
X-70153Y-37701D01*
X-70125Y-37673D01*
X-70042Y-37590D01*
X-69903Y-37451D01*
X-69709Y-37284D01*
X-69487Y-37090D01*
X-69181Y-36868D01*
X-68848Y-36646D01*
X-68459Y-36396D01*
X-68042Y-36146D01*
X-67571Y-35924D01*
X-67043Y-35701D01*
X-66487Y-35507D01*
X-65877Y-35340D01*
X-65266Y-35202D01*
X-64571Y-35118D01*
X-63877Y-35091D01*
X-63710D01*
X-63516Y-35118D01*
D02*
G37*
G36*
X-123249D02*
X-122999D01*
X-122666Y-35174D01*
X-122305Y-35229D01*
X-121889Y-35313D01*
X-121444Y-35396D01*
X-120972Y-35535D01*
X-120500Y-35701D01*
X-119972Y-35924D01*
X-119473Y-36173D01*
X-118973Y-36451D01*
X-118473Y-36812D01*
X-117973Y-37201D01*
X-117529Y-37645D01*
X-117501Y-37673D01*
X-117418Y-37756D01*
X-117306Y-37895D01*
X-117168Y-38117D01*
X-116973Y-38367D01*
X-116779Y-38673D01*
X-116557Y-39062D01*
X-116335Y-39478D01*
X-116140Y-39950D01*
X-115918Y-40478D01*
X-115724Y-41061D01*
X-115529Y-41700D01*
X-115390Y-42394D01*
X-115279Y-43144D01*
X-115196Y-43921D01*
X-115168Y-44754D01*
Y-44810D01*
Y-44949D01*
Y-45227D01*
X-115196Y-45588D01*
X-129053D01*
Y-45615D01*
Y-45726D01*
X-129025Y-45893D01*
X-128998Y-46087D01*
X-128970Y-46365D01*
X-128914Y-46643D01*
X-128859Y-46976D01*
X-128776Y-47337D01*
X-128553Y-48087D01*
X-128248Y-48892D01*
X-128053Y-49253D01*
X-127859Y-49642D01*
X-127609Y-49975D01*
X-127331Y-50309D01*
X-127304Y-50336D01*
X-127248Y-50364D01*
X-127165Y-50447D01*
X-127054Y-50558D01*
X-126887Y-50669D01*
X-126721Y-50808D01*
X-126498Y-50975D01*
X-126249Y-51114D01*
X-125693Y-51419D01*
X-125027Y-51669D01*
X-124666Y-51780D01*
X-124277Y-51836D01*
X-123860Y-51891D01*
X-123444Y-51919D01*
X-123277D01*
X-123166Y-51891D01*
X-122833Y-51864D01*
X-122416Y-51808D01*
X-121972Y-51697D01*
X-121472Y-51530D01*
X-120972Y-51336D01*
X-120500Y-51030D01*
X-120472D01*
X-120445Y-50975D01*
X-120306Y-50864D01*
X-120083Y-50642D01*
X-119806Y-50309D01*
X-119500Y-49920D01*
X-119167Y-49392D01*
X-118834Y-48781D01*
X-118556Y-48087D01*
X-115279Y-48503D01*
Y-48531D01*
X-115307Y-48642D01*
X-115363Y-48781D01*
X-115446Y-48976D01*
X-115529Y-49225D01*
X-115640Y-49503D01*
X-115779Y-49809D01*
X-115918Y-50142D01*
X-116307Y-50836D01*
X-116807Y-51586D01*
X-117112Y-51947D01*
X-117418Y-52308D01*
X-117751Y-52641D01*
X-118140Y-52947D01*
X-118167Y-52974D01*
X-118223Y-53002D01*
X-118362Y-53086D01*
X-118501Y-53197D01*
X-118723Y-53308D01*
X-118973Y-53447D01*
X-119250Y-53585D01*
X-119584Y-53724D01*
X-119945Y-53863D01*
X-120361Y-54002D01*
X-120778Y-54141D01*
X-121250Y-54252D01*
X-121750Y-54363D01*
X-122277Y-54446D01*
X-122861Y-54474D01*
X-123444Y-54502D01*
X-123610D01*
X-123832Y-54474D01*
X-124110D01*
X-124471Y-54418D01*
X-124860Y-54363D01*
X-125304Y-54280D01*
X-125776Y-54196D01*
X-126276Y-54057D01*
X-126804Y-53891D01*
X-127359Y-53696D01*
X-127887Y-53447D01*
X-128442Y-53169D01*
X-128942Y-52836D01*
X-129442Y-52447D01*
X-129914Y-52002D01*
X-129942Y-51975D01*
X-130025Y-51891D01*
X-130136Y-51753D01*
X-130275Y-51530D01*
X-130470Y-51280D01*
X-130664Y-50975D01*
X-130886Y-50614D01*
X-131080Y-50197D01*
X-131303Y-49725D01*
X-131525Y-49198D01*
X-131719Y-48614D01*
X-131913Y-47976D01*
X-132052Y-47309D01*
X-132164Y-46587D01*
X-132247Y-45810D01*
X-132274Y-44977D01*
Y-44921D01*
Y-44782D01*
X-132247Y-44532D01*
Y-44199D01*
X-132191Y-43810D01*
X-132136Y-43366D01*
X-132080Y-42838D01*
X-131969Y-42311D01*
X-131858Y-41728D01*
X-131691Y-41144D01*
X-131497Y-40533D01*
X-131275Y-39922D01*
X-130997Y-39339D01*
X-130664Y-38756D01*
X-130303Y-38201D01*
X-129886Y-37701D01*
X-129859Y-37673D01*
X-129775Y-37590D01*
X-129636Y-37451D01*
X-129442Y-37284D01*
X-129220Y-37090D01*
X-128914Y-36868D01*
X-128581Y-36646D01*
X-128192Y-36396D01*
X-127776Y-36146D01*
X-127304Y-35924D01*
X-126776Y-35701D01*
X-126221Y-35507D01*
X-125610Y-35340D01*
X-124999Y-35202D01*
X-124305Y-35118D01*
X-123610Y-35091D01*
X-123444D01*
X-123249Y-35118D01*
D02*
G37*
G36*
X-104282D02*
X-104033Y-35146D01*
X-103755Y-35174D01*
X-103421Y-35257D01*
X-103060Y-35340D01*
X-102644Y-35451D01*
X-102227Y-35618D01*
X-101783Y-35813D01*
X-101311Y-36035D01*
X-100867Y-36312D01*
X-100422Y-36646D01*
X-99978Y-37034D01*
X-99562Y-37479D01*
X-99173Y-38006D01*
Y-35507D01*
X-96340D01*
Y-61194D01*
X-99478D01*
Y-52113D01*
X-99506Y-52169D01*
X-99617Y-52280D01*
X-99784Y-52474D01*
X-100006Y-52724D01*
X-100311Y-52974D01*
X-100672Y-53280D01*
X-101089Y-53558D01*
X-101561Y-53835D01*
X-101589D01*
X-101617Y-53863D01*
X-101783Y-53946D01*
X-102061Y-54057D01*
X-102394Y-54168D01*
X-102811Y-54280D01*
X-103283Y-54391D01*
X-103782Y-54474D01*
X-104338Y-54502D01*
X-104477D01*
X-104671Y-54474D01*
X-104893Y-54446D01*
X-105171Y-54418D01*
X-105504Y-54363D01*
X-105893Y-54280D01*
X-106310Y-54168D01*
X-106726Y-54030D01*
X-107198Y-53863D01*
X-107670Y-53641D01*
X-108142Y-53391D01*
X-108642Y-53086D01*
X-109114Y-52724D01*
X-109587Y-52336D01*
X-110058Y-51864D01*
X-110086Y-51836D01*
X-110170Y-51753D01*
X-110281Y-51586D01*
X-110420Y-51392D01*
X-110614Y-51114D01*
X-110808Y-50781D01*
X-111030Y-50419D01*
X-111225Y-49975D01*
X-111447Y-49475D01*
X-111669Y-48948D01*
X-111864Y-48337D01*
X-112058Y-47698D01*
X-112197Y-47004D01*
X-112308Y-46282D01*
X-112391Y-45476D01*
X-112419Y-44643D01*
Y-44616D01*
Y-44504D01*
Y-44366D01*
X-112391Y-44171D01*
Y-43921D01*
X-112364Y-43644D01*
X-112336Y-43310D01*
X-112308Y-42949D01*
X-112197Y-42172D01*
X-112030Y-41339D01*
X-111780Y-40478D01*
X-111475Y-39617D01*
Y-39589D01*
X-111419Y-39506D01*
X-111364Y-39395D01*
X-111280Y-39256D01*
X-111197Y-39062D01*
X-111058Y-38840D01*
X-110753Y-38367D01*
X-110364Y-37812D01*
X-109892Y-37257D01*
X-109309Y-36729D01*
X-108670Y-36257D01*
X-108642Y-36229D01*
X-108587Y-36201D01*
X-108476Y-36146D01*
X-108337Y-36062D01*
X-108170Y-35979D01*
X-107976Y-35896D01*
X-107726Y-35785D01*
X-107476Y-35674D01*
X-106865Y-35451D01*
X-106171Y-35285D01*
X-105421Y-35146D01*
X-104616Y-35091D01*
X-104449D01*
X-104282Y-35118D01*
D02*
G37*
%LPC*%
G36*
X-122305Y62155D02*
X-129664D01*
Y52990D01*
X-122749D01*
X-122527Y53018D01*
X-122250D01*
X-121944Y53046D01*
X-121583Y53101D01*
X-121222Y53157D01*
X-120445Y53296D01*
X-119667Y53518D01*
X-119306Y53657D01*
X-118973Y53824D01*
X-118640Y53990D01*
X-118362Y54212D01*
X-118334Y54240D01*
X-118306Y54268D01*
X-118223Y54351D01*
X-118140Y54434D01*
X-117918Y54712D01*
X-117667Y55101D01*
X-117418Y55601D01*
X-117195Y56184D01*
X-117029Y56878D01*
X-117001Y57239D01*
X-116973Y57656D01*
Y57683D01*
Y57739D01*
Y57822D01*
Y57933D01*
X-117029Y58239D01*
X-117084Y58600D01*
X-117168Y59044D01*
X-117334Y59488D01*
X-117529Y59961D01*
X-117806Y60405D01*
X-117834Y60461D01*
X-117945Y60599D01*
X-118140Y60794D01*
X-118362Y61016D01*
X-118695Y61266D01*
X-119056Y61516D01*
X-119473Y61738D01*
X-119945Y61905D01*
X-119972D01*
X-120111Y61932D01*
X-120333Y61988D01*
X-120667Y62043D01*
X-120861D01*
X-121083Y62071D01*
X-121361Y62099D01*
X-121639Y62127D01*
X-121972D01*
X-122305Y62155D01*
D02*
G37*
G36*
X-21889Y62710D02*
X-22527D01*
X-22694Y62682D01*
X-22972D01*
X-23277Y62627D01*
X-23638Y62571D01*
X-24027Y62488D01*
X-24471Y62404D01*
X-24943Y62265D01*
X-25443Y62099D01*
X-25971Y61905D01*
X-26471Y61655D01*
X-26998Y61377D01*
X-27526Y61044D01*
X-28054Y60655D01*
X-28554Y60211D01*
X-28581Y60183D01*
X-28665Y60100D01*
X-28804Y59933D01*
X-28942Y59738D01*
X-29164Y59461D01*
X-29359Y59127D01*
X-29609Y58711D01*
X-29831Y58267D01*
X-30081Y57711D01*
X-30331Y57100D01*
X-30525Y56434D01*
X-30720Y55684D01*
X-30886Y54879D01*
X-31025Y53990D01*
X-31108Y53018D01*
X-31136Y51963D01*
Y51907D01*
Y51768D01*
X-31108Y51519D01*
Y51185D01*
X-31053Y50797D01*
X-30997Y50352D01*
X-30942Y49852D01*
X-30831Y49325D01*
X-30692Y48742D01*
X-30525Y48131D01*
X-30331Y47547D01*
X-30081Y46937D01*
X-29803Y46326D01*
X-29470Y45742D01*
X-29109Y45187D01*
X-28665Y44659D01*
X-28637Y44632D01*
X-28554Y44548D01*
X-28415Y44409D01*
X-28220Y44243D01*
X-27970Y44048D01*
X-27665Y43826D01*
X-27332Y43576D01*
X-26943Y43354D01*
X-26526Y43104D01*
X-26026Y42854D01*
X-25527Y42632D01*
X-24971Y42438D01*
X-24388Y42271D01*
X-23749Y42132D01*
X-23111Y42049D01*
X-22416Y42021D01*
X-22250D01*
X-22055Y42049D01*
X-21778Y42077D01*
X-21444Y42105D01*
X-21083Y42160D01*
X-20639Y42243D01*
X-20195Y42355D01*
X-19695Y42493D01*
X-19195Y42660D01*
X-18667Y42882D01*
X-18140Y43160D01*
X-17612Y43465D01*
X-17085Y43799D01*
X-16585Y44215D01*
X-16113Y44687D01*
X-16085Y44715D01*
X-16002Y44826D01*
X-15890Y44965D01*
X-15724Y45187D01*
X-15529Y45465D01*
X-15307Y45798D01*
X-15085Y46187D01*
X-14863Y46659D01*
X-14641Y47159D01*
X-14391Y47742D01*
X-14197Y48353D01*
X-14002Y49047D01*
X-13836Y49797D01*
X-13724Y50574D01*
X-13641Y51435D01*
X-13613Y52324D01*
Y52352D01*
Y52463D01*
Y52629D01*
X-13641Y52851D01*
Y53129D01*
X-13669Y53435D01*
X-13697Y53796D01*
X-13752Y54185D01*
X-13863Y55045D01*
X-14058Y55962D01*
X-14335Y56878D01*
X-14696Y57795D01*
Y57822D01*
X-14752Y57906D01*
X-14807Y58017D01*
X-14891Y58183D01*
X-15002Y58378D01*
X-15141Y58600D01*
X-15474Y59127D01*
X-15918Y59711D01*
X-16446Y60294D01*
X-17057Y60877D01*
X-17779Y61405D01*
X-17807Y61432D01*
X-17862Y61460D01*
X-17973Y61516D01*
X-18140Y61599D01*
X-18334Y61710D01*
X-18556Y61821D01*
X-18806Y61932D01*
X-19112Y62071D01*
X-19445Y62182D01*
X-19778Y62293D01*
X-20556Y62515D01*
X-21417Y62654D01*
X-21889Y62710D01*
D02*
G37*
G36*
X-71597D02*
X-72236D01*
X-72402Y62682D01*
X-72680D01*
X-72986Y62627D01*
X-73347Y62571D01*
X-73735Y62488D01*
X-74180Y62404D01*
X-74652Y62265D01*
X-75152Y62099D01*
X-75679Y61905D01*
X-76179Y61655D01*
X-76707Y61377D01*
X-77234Y61044D01*
X-77762Y60655D01*
X-78262Y60211D01*
X-78290Y60183D01*
X-78373Y60100D01*
X-78512Y59933D01*
X-78651Y59738D01*
X-78873Y59461D01*
X-79067Y59127D01*
X-79317Y58711D01*
X-79539Y58267D01*
X-79789Y57711D01*
X-80039Y57100D01*
X-80234Y56434D01*
X-80428Y55684D01*
X-80595Y54879D01*
X-80733Y53990D01*
X-80817Y53018D01*
X-80844Y51963D01*
Y51907D01*
Y51768D01*
X-80817Y51519D01*
Y51185D01*
X-80761Y50797D01*
X-80706Y50352D01*
X-80650Y49852D01*
X-80539Y49325D01*
X-80400Y48742D01*
X-80234Y48131D01*
X-80039Y47547D01*
X-79789Y46937D01*
X-79511Y46326D01*
X-79178Y45742D01*
X-78817Y45187D01*
X-78373Y44659D01*
X-78345Y44632D01*
X-78262Y44548D01*
X-78123Y44409D01*
X-77929Y44243D01*
X-77679Y44048D01*
X-77373Y43826D01*
X-77040Y43576D01*
X-76651Y43354D01*
X-76235Y43104D01*
X-75735Y42854D01*
X-75235Y42632D01*
X-74680Y42438D01*
X-74096Y42271D01*
X-73458Y42132D01*
X-72819Y42049D01*
X-72125Y42021D01*
X-71958D01*
X-71764Y42049D01*
X-71486Y42077D01*
X-71153Y42105D01*
X-70792Y42160D01*
X-70347Y42243D01*
X-69903Y42355D01*
X-69403Y42493D01*
X-68903Y42660D01*
X-68376Y42882D01*
X-67848Y43160D01*
X-67321Y43465D01*
X-66793Y43799D01*
X-66293Y44215D01*
X-65821Y44687D01*
X-65793Y44715D01*
X-65710Y44826D01*
X-65599Y44965D01*
X-65432Y45187D01*
X-65238Y45465D01*
X-65016Y45798D01*
X-64793Y46187D01*
X-64571Y46659D01*
X-64349Y47159D01*
X-64099Y47742D01*
X-63905Y48353D01*
X-63710Y49047D01*
X-63544Y49797D01*
X-63433Y50574D01*
X-63349Y51435D01*
X-63322Y52324D01*
Y52352D01*
Y52463D01*
Y52629D01*
X-63349Y52851D01*
Y53129D01*
X-63377Y53435D01*
X-63405Y53796D01*
X-63460Y54185D01*
X-63572Y55045D01*
X-63766Y55962D01*
X-64044Y56878D01*
X-64405Y57795D01*
Y57822D01*
X-64460Y57906D01*
X-64516Y58017D01*
X-64599Y58183D01*
X-64710Y58378D01*
X-64849Y58600D01*
X-65182Y59127D01*
X-65627Y59711D01*
X-66154Y60294D01*
X-66765Y60877D01*
X-67487Y61405D01*
X-67515Y61432D01*
X-67571Y61460D01*
X-67681Y61516D01*
X-67848Y61599D01*
X-68042Y61710D01*
X-68265Y61821D01*
X-68515Y61932D01*
X-68820Y62071D01*
X-69153Y62182D01*
X-69487Y62293D01*
X-70264Y62515D01*
X-71125Y62654D01*
X-71597Y62710D01*
D02*
G37*
G36*
X-34691Y138D02*
X-42050D01*
Y-9026D01*
X-35135D01*
X-34913Y-8998D01*
X-34635D01*
X-34330Y-8970D01*
X-33969Y-8914D01*
X-33608Y-8859D01*
X-32830Y-8720D01*
X-32053Y-8498D01*
X-31692Y-8359D01*
X-31358Y-8192D01*
X-31025Y-8026D01*
X-30747Y-7804D01*
X-30720Y-7776D01*
X-30692Y-7748D01*
X-30609Y-7665D01*
X-30525Y-7582D01*
X-30303Y-7304D01*
X-30053Y-6915D01*
X-29803Y-6415D01*
X-29581Y-5832D01*
X-29414Y-5138D01*
X-29387Y-4777D01*
X-29359Y-4360D01*
Y-4332D01*
Y-4277D01*
Y-4194D01*
Y-4082D01*
X-29414Y-3777D01*
X-29470Y-3416D01*
X-29553Y-2972D01*
X-29720Y-2527D01*
X-29914Y-2055D01*
X-30192Y-1611D01*
X-30220Y-1555D01*
X-30331Y-1417D01*
X-30525Y-1222D01*
X-30747Y-1000D01*
X-31081Y-750D01*
X-31442Y-500D01*
X-31858Y-278D01*
X-32330Y-111D01*
X-32358D01*
X-32497Y-84D01*
X-32719Y-28D01*
X-33052Y27D01*
X-33247D01*
X-33469Y55D01*
X-33747Y83D01*
X-34024Y111D01*
X-34358D01*
X-34691Y138D01*
D02*
G37*
G36*
X-71736Y-13136D02*
X-71764D01*
X-71819Y-13163D01*
X-71930Y-13191D01*
X-72069Y-13247D01*
X-72236Y-13330D01*
X-72458Y-13386D01*
X-72736Y-13469D01*
X-73013Y-13552D01*
X-73374Y-13635D01*
X-73763Y-13747D01*
X-74180Y-13830D01*
X-74652Y-13941D01*
X-75152Y-14052D01*
X-75679Y-14135D01*
X-76262Y-14246D01*
X-76901Y-14330D01*
X-76985D01*
X-77096Y-14357D01*
X-77207Y-14385D01*
X-77568Y-14441D01*
X-77984Y-14524D01*
X-78429Y-14607D01*
X-78873Y-14718D01*
X-79289Y-14830D01*
X-79650Y-14968D01*
X-79678Y-14996D01*
X-79789Y-15024D01*
X-79928Y-15107D01*
X-80095Y-15218D01*
X-80317Y-15385D01*
X-80511Y-15552D01*
X-80706Y-15746D01*
X-80900Y-15996D01*
X-80928Y-16024D01*
X-80956Y-16107D01*
X-81039Y-16246D01*
X-81094Y-16440D01*
X-81178Y-16662D01*
X-81261Y-16912D01*
X-81289Y-17190D01*
X-81317Y-17495D01*
Y-17551D01*
X-81289Y-17690D01*
X-81261Y-17940D01*
X-81205Y-18217D01*
X-81094Y-18551D01*
X-80928Y-18912D01*
X-80678Y-19245D01*
X-80372Y-19578D01*
X-80317Y-19606D01*
X-80206Y-19717D01*
X-79984Y-19828D01*
X-79678Y-19995D01*
X-79289Y-20134D01*
X-78790Y-20272D01*
X-78234Y-20383D01*
X-77595Y-20411D01*
X-77290D01*
X-77123Y-20383D01*
X-76929Y-20356D01*
X-76512Y-20300D01*
X-75985Y-20217D01*
X-75457Y-20078D01*
X-74902Y-19884D01*
X-74346Y-19634D01*
X-74319D01*
X-74291Y-19606D01*
X-74124Y-19495D01*
X-73874Y-19300D01*
X-73541Y-19051D01*
X-73208Y-18745D01*
X-72874Y-18356D01*
X-72541Y-17940D01*
X-72264Y-17440D01*
X-72236Y-17384D01*
X-72180Y-17245D01*
X-72097Y-16996D01*
X-72014Y-16662D01*
X-71930Y-16218D01*
X-71847Y-15663D01*
X-71791Y-15024D01*
X-71764Y-14302D01*
X-71736Y-13136D01*
D02*
G37*
G36*
X73057Y638D02*
X72862D01*
X72696Y611D01*
X72529Y583D01*
X72307Y555D01*
X71807Y416D01*
X71252Y194D01*
X70974Y55D01*
X70669Y-139D01*
X70391Y-334D01*
X70113Y-583D01*
X69836Y-861D01*
X69586Y-1194D01*
X69558Y-1222D01*
X69530Y-1306D01*
X69447Y-1444D01*
X69336Y-1667D01*
X69225Y-1944D01*
X69086Y-2277D01*
X68919Y-2666D01*
X68780Y-3166D01*
X68641Y-3721D01*
X68475Y-4332D01*
X68336Y-5054D01*
X68225Y-5832D01*
X68114Y-6693D01*
X68058Y-7665D01*
X68003Y-8692D01*
X67975Y-9831D01*
Y-9859D01*
Y-9914D01*
Y-9997D01*
Y-10109D01*
Y-10248D01*
Y-10442D01*
X68003Y-10858D01*
X68031Y-11358D01*
X68058Y-11941D01*
X68086Y-12580D01*
X68169Y-13247D01*
X68336Y-14663D01*
X68447Y-15357D01*
X68586Y-16051D01*
X68752Y-16690D01*
X68975Y-17273D01*
X69197Y-17801D01*
X69447Y-18245D01*
X69475Y-18273D01*
X69502Y-18328D01*
X69586Y-18440D01*
X69724Y-18578D01*
X69863Y-18717D01*
X70030Y-18884D01*
X70446Y-19273D01*
X70974Y-19661D01*
X71613Y-19967D01*
X71946Y-20106D01*
X72307Y-20217D01*
X72696Y-20272D01*
X73085Y-20300D01*
X73168D01*
X73307Y-20272D01*
X73446D01*
X73640Y-20245D01*
X73862Y-20189D01*
X74362Y-20050D01*
X74640Y-19939D01*
X74917Y-19800D01*
X75223Y-19634D01*
X75528Y-19412D01*
X75834Y-19189D01*
X76139Y-18912D01*
X76445Y-18578D01*
X76723Y-18217D01*
X76750Y-18190D01*
X76778Y-18106D01*
X76861Y-17995D01*
X76945Y-17801D01*
X77083Y-17551D01*
X77195Y-17218D01*
X77333Y-16829D01*
X77472Y-16385D01*
X77611Y-15857D01*
X77750Y-15246D01*
X77889Y-14580D01*
X78000Y-13802D01*
X78083Y-12941D01*
X78167Y-11997D01*
X78194Y-10970D01*
X78222Y-9831D01*
Y-9803D01*
Y-9748D01*
Y-9664D01*
Y-9553D01*
Y-9414D01*
Y-9248D01*
X78194Y-8803D01*
X78167Y-8304D01*
X78139Y-7720D01*
X78111Y-7082D01*
X78028Y-6415D01*
X77861Y-4999D01*
X77722Y-4305D01*
X77583Y-3638D01*
X77417Y-2999D01*
X77222Y-2389D01*
X77000Y-1889D01*
X76723Y-1444D01*
X76695Y-1417D01*
X76667Y-1361D01*
X76584Y-1250D01*
X76473Y-1111D01*
X76306Y-972D01*
X76139Y-778D01*
X75945Y-583D01*
X75723Y-389D01*
X75195Y-28D01*
X74556Y305D01*
X74223Y444D01*
X73834Y555D01*
X73473Y611D01*
X73057Y638D01*
D02*
G37*
G36*
X-14419Y-6082D02*
X-14641D01*
X-14807Y-6110D01*
X-15002Y-6137D01*
X-15252Y-6165D01*
X-15779Y-6304D01*
X-16418Y-6526D01*
X-16724Y-6665D01*
X-17057Y-6832D01*
X-17390Y-7026D01*
X-17723Y-7276D01*
X-18029Y-7554D01*
X-18334Y-7859D01*
X-18362Y-7887D01*
X-18390Y-7943D01*
X-18473Y-8054D01*
X-18584Y-8192D01*
X-18695Y-8387D01*
X-18834Y-8609D01*
X-18973Y-8887D01*
X-19112Y-9192D01*
X-19251Y-9553D01*
X-19389Y-9942D01*
X-19528Y-10386D01*
X-19639Y-10858D01*
X-19750Y-11386D01*
X-19834Y-11941D01*
X-19862Y-12552D01*
X-19889Y-13191D01*
Y-13219D01*
Y-13358D01*
Y-13524D01*
X-19862Y-13774D01*
X-19834Y-14080D01*
X-19806Y-14413D01*
X-19750Y-14802D01*
X-19695Y-15191D01*
X-19501Y-16079D01*
X-19223Y-16968D01*
X-19056Y-17384D01*
X-18834Y-17801D01*
X-18612Y-18190D01*
X-18334Y-18551D01*
X-18306Y-18578D01*
X-18251Y-18634D01*
X-18168Y-18717D01*
X-18056Y-18828D01*
X-17890Y-18967D01*
X-17723Y-19106D01*
X-17501Y-19273D01*
X-17251Y-19412D01*
X-16696Y-19745D01*
X-16029Y-20022D01*
X-15668Y-20134D01*
X-15252Y-20217D01*
X-14863Y-20272D01*
X-14419Y-20300D01*
X-14197D01*
X-14030Y-20272D01*
X-13836Y-20245D01*
X-13586Y-20217D01*
X-13058Y-20078D01*
X-12447Y-19856D01*
X-12114Y-19717D01*
X-11780Y-19550D01*
X-11475Y-19356D01*
X-11142Y-19106D01*
X-10836Y-18828D01*
X-10531Y-18523D01*
X-10503Y-18495D01*
X-10475Y-18440D01*
X-10392Y-18328D01*
X-10281Y-18190D01*
X-10170Y-17995D01*
X-10031Y-17773D01*
X-9892Y-17495D01*
X-9725Y-17162D01*
X-9587Y-16829D01*
X-9448Y-16412D01*
X-9309Y-15968D01*
X-9198Y-15468D01*
X-9087Y-14941D01*
X-9003Y-14357D01*
X-8976Y-13747D01*
X-8948Y-13080D01*
Y-13052D01*
Y-12941D01*
Y-12747D01*
X-8976Y-12525D01*
X-9003Y-12219D01*
X-9031Y-11886D01*
X-9087Y-11525D01*
X-9142Y-11136D01*
X-9337Y-10303D01*
X-9448Y-9859D01*
X-9614Y-9414D01*
X-9809Y-8998D01*
X-10003Y-8581D01*
X-10253Y-8220D01*
X-10531Y-7859D01*
X-10559Y-7831D01*
X-10614Y-7776D01*
X-10697Y-7693D01*
X-10809Y-7582D01*
X-10975Y-7443D01*
X-11142Y-7304D01*
X-11364Y-7137D01*
X-11586Y-6971D01*
X-12169Y-6637D01*
X-12836Y-6360D01*
X-13197Y-6249D01*
X-13586Y-6165D01*
X-14002Y-6110D01*
X-14419Y-6082D01*
D02*
G37*
G36*
X-113919D02*
X-114141D01*
X-114307Y-6110D01*
X-114502Y-6137D01*
X-114752Y-6165D01*
X-115279Y-6304D01*
X-115918Y-6526D01*
X-116224Y-6665D01*
X-116557Y-6832D01*
X-116890Y-7026D01*
X-117223Y-7276D01*
X-117529Y-7554D01*
X-117834Y-7859D01*
X-117862Y-7887D01*
X-117890Y-7943D01*
X-117973Y-8054D01*
X-118084Y-8192D01*
X-118195Y-8387D01*
X-118334Y-8609D01*
X-118473Y-8887D01*
X-118612Y-9192D01*
X-118751Y-9553D01*
X-118889Y-9942D01*
X-119028Y-10386D01*
X-119139Y-10858D01*
X-119250Y-11386D01*
X-119334Y-11941D01*
X-119361Y-12552D01*
X-119389Y-13191D01*
Y-13219D01*
Y-13358D01*
Y-13524D01*
X-119361Y-13774D01*
X-119334Y-14080D01*
X-119306Y-14413D01*
X-119250Y-14802D01*
X-119195Y-15191D01*
X-119000Y-16079D01*
X-118723Y-16968D01*
X-118556Y-17384D01*
X-118334Y-17801D01*
X-118112Y-18190D01*
X-117834Y-18551D01*
X-117806Y-18578D01*
X-117751Y-18634D01*
X-117667Y-18717D01*
X-117556Y-18828D01*
X-117390Y-18967D01*
X-117223Y-19106D01*
X-117001Y-19273D01*
X-116751Y-19412D01*
X-116196Y-19745D01*
X-115529Y-20022D01*
X-115168Y-20134D01*
X-114752Y-20217D01*
X-114363Y-20272D01*
X-113919Y-20300D01*
X-113696D01*
X-113530Y-20272D01*
X-113335Y-20245D01*
X-113085Y-20217D01*
X-112558Y-20078D01*
X-111947Y-19856D01*
X-111614Y-19717D01*
X-111280Y-19550D01*
X-110975Y-19356D01*
X-110642Y-19106D01*
X-110336Y-18828D01*
X-110031Y-18523D01*
X-110003Y-18495D01*
X-109975Y-18440D01*
X-109892Y-18328D01*
X-109781Y-18190D01*
X-109670Y-17995D01*
X-109531Y-17773D01*
X-109392Y-17495D01*
X-109225Y-17162D01*
X-109087Y-16829D01*
X-108948Y-16412D01*
X-108809Y-15968D01*
X-108698Y-15468D01*
X-108587Y-14941D01*
X-108503Y-14357D01*
X-108476Y-13747D01*
X-108448Y-13080D01*
Y-13052D01*
Y-12941D01*
Y-12747D01*
X-108476Y-12525D01*
X-108503Y-12219D01*
X-108531Y-11886D01*
X-108587Y-11525D01*
X-108642Y-11136D01*
X-108837Y-10303D01*
X-108948Y-9859D01*
X-109114Y-9414D01*
X-109309Y-8998D01*
X-109503Y-8581D01*
X-109753Y-8220D01*
X-110031Y-7859D01*
X-110058Y-7831D01*
X-110114Y-7776D01*
X-110197Y-7693D01*
X-110309Y-7582D01*
X-110475Y-7443D01*
X-110642Y-7304D01*
X-110864Y-7137D01*
X-111086Y-6971D01*
X-111669Y-6637D01*
X-112336Y-6360D01*
X-112697Y-6249D01*
X-113085Y-6165D01*
X-113502Y-6110D01*
X-113919Y-6082D01*
D02*
G37*
G36*
X41455Y-30981D02*
X41260D01*
X41094Y-31008D01*
X40927Y-31036D01*
X40705Y-31064D01*
X40205Y-31203D01*
X39650Y-31425D01*
X39372Y-31564D01*
X39066Y-31758D01*
X38789Y-31953D01*
X38511Y-32202D01*
X38233Y-32480D01*
X37983Y-32813D01*
X37955Y-32841D01*
X37928Y-32925D01*
X37844Y-33063D01*
X37733Y-33285D01*
X37622Y-33563D01*
X37484Y-33896D01*
X37317Y-34285D01*
X37178Y-34785D01*
X37039Y-35340D01*
X36873Y-35951D01*
X36734Y-36673D01*
X36623Y-37451D01*
X36511Y-38312D01*
X36456Y-39284D01*
X36400Y-40311D01*
X36373Y-41450D01*
Y-41478D01*
Y-41533D01*
Y-41616D01*
Y-41728D01*
Y-41866D01*
Y-42061D01*
X36400Y-42477D01*
X36428Y-42977D01*
X36456Y-43560D01*
X36484Y-44199D01*
X36567Y-44866D01*
X36734Y-46282D01*
X36845Y-46976D01*
X36984Y-47670D01*
X37150Y-48309D01*
X37372Y-48892D01*
X37595Y-49420D01*
X37844Y-49864D01*
X37872Y-49892D01*
X37900Y-49948D01*
X37983Y-50059D01*
X38122Y-50197D01*
X38261Y-50336D01*
X38428Y-50503D01*
X38844Y-50892D01*
X39372Y-51280D01*
X40010Y-51586D01*
X40344Y-51725D01*
X40705Y-51836D01*
X41094Y-51891D01*
X41482Y-51919D01*
X41566D01*
X41704Y-51891D01*
X41843D01*
X42038Y-51864D01*
X42260Y-51808D01*
X42760Y-51669D01*
X43038Y-51558D01*
X43315Y-51419D01*
X43621Y-51253D01*
X43926Y-51030D01*
X44232Y-50808D01*
X44537Y-50531D01*
X44842Y-50197D01*
X45120Y-49836D01*
X45148Y-49809D01*
X45176Y-49725D01*
X45259Y-49614D01*
X45342Y-49420D01*
X45481Y-49170D01*
X45592Y-48837D01*
X45731Y-48448D01*
X45870Y-48004D01*
X46009Y-47476D01*
X46148Y-46865D01*
X46286Y-46198D01*
X46398Y-45421D01*
X46481Y-44560D01*
X46564Y-43616D01*
X46592Y-42588D01*
X46620Y-41450D01*
Y-41422D01*
Y-41366D01*
Y-41283D01*
Y-41172D01*
Y-41033D01*
Y-40867D01*
X46592Y-40422D01*
X46564Y-39922D01*
X46536Y-39339D01*
X46509Y-38701D01*
X46425Y-38034D01*
X46259Y-36618D01*
X46120Y-35924D01*
X45981Y-35257D01*
X45814Y-34618D01*
X45620Y-34007D01*
X45398Y-33508D01*
X45120Y-33063D01*
X45092Y-33035D01*
X45065Y-32980D01*
X44981Y-32869D01*
X44870Y-32730D01*
X44704Y-32591D01*
X44537Y-32397D01*
X44343Y-32202D01*
X44120Y-32008D01*
X43593Y-31647D01*
X42954Y-31314D01*
X42621Y-31175D01*
X42232Y-31064D01*
X41871Y-31008D01*
X41455Y-30981D01*
D02*
G37*
G36*
X-63877Y-37673D02*
X-64099D01*
X-64238Y-37701D01*
X-64432Y-37729D01*
X-64627Y-37756D01*
X-65154Y-37868D01*
X-65710Y-38034D01*
X-66349Y-38284D01*
X-66654Y-38451D01*
X-66960Y-38645D01*
X-67265Y-38895D01*
X-67543Y-39145D01*
X-67571Y-39173D01*
X-67598Y-39200D01*
X-67681Y-39284D01*
X-67765Y-39395D01*
X-67876Y-39562D01*
X-68015Y-39728D01*
X-68154Y-39922D01*
X-68292Y-40172D01*
X-68431Y-40422D01*
X-68570Y-40728D01*
X-68848Y-41394D01*
X-69042Y-42144D01*
X-69098Y-42561D01*
X-69153Y-43005D01*
X-58767D01*
Y-42977D01*
Y-42894D01*
X-58795Y-42783D01*
X-58823Y-42616D01*
X-58851Y-42422D01*
X-58878Y-42200D01*
X-58990Y-41700D01*
X-59156Y-41117D01*
X-59351Y-40533D01*
X-59628Y-39978D01*
X-59961Y-39506D01*
X-59989Y-39478D01*
X-60017Y-39423D01*
X-60128Y-39339D01*
X-60239Y-39228D01*
X-60378Y-39089D01*
X-60572Y-38923D01*
X-60795Y-38756D01*
X-61017Y-38590D01*
X-61294Y-38423D01*
X-61600Y-38256D01*
X-62266Y-37951D01*
X-62627Y-37840D01*
X-63016Y-37756D01*
X-63433Y-37701D01*
X-63877Y-37673D01*
D02*
G37*
G36*
X-123610D02*
X-123832D01*
X-123971Y-37701D01*
X-124166Y-37729D01*
X-124360Y-37756D01*
X-124888Y-37868D01*
X-125443Y-38034D01*
X-126082Y-38284D01*
X-126387Y-38451D01*
X-126693Y-38645D01*
X-126998Y-38895D01*
X-127276Y-39145D01*
X-127304Y-39173D01*
X-127331Y-39200D01*
X-127415Y-39284D01*
X-127498Y-39395D01*
X-127609Y-39562D01*
X-127748Y-39728D01*
X-127887Y-39922D01*
X-128026Y-40172D01*
X-128165Y-40422D01*
X-128303Y-40728D01*
X-128581Y-41394D01*
X-128776Y-42144D01*
X-128831Y-42561D01*
X-128887Y-43005D01*
X-118501D01*
Y-42977D01*
Y-42894D01*
X-118528Y-42783D01*
X-118556Y-42616D01*
X-118584Y-42422D01*
X-118612Y-42200D01*
X-118723Y-41700D01*
X-118889Y-41117D01*
X-119084Y-40533D01*
X-119361Y-39978D01*
X-119695Y-39506D01*
X-119722Y-39478D01*
X-119750Y-39423D01*
X-119861Y-39339D01*
X-119972Y-39228D01*
X-120111Y-39089D01*
X-120306Y-38923D01*
X-120528Y-38756D01*
X-120750Y-38590D01*
X-121028Y-38423D01*
X-121333Y-38256D01*
X-122000Y-37951D01*
X-122361Y-37840D01*
X-122749Y-37756D01*
X-123166Y-37701D01*
X-123610Y-37673D01*
D02*
G37*
G36*
X-104310Y-37562D02*
X-104505D01*
X-104643Y-37590D01*
X-104838Y-37618D01*
X-105032Y-37645D01*
X-105504Y-37784D01*
X-106060Y-37979D01*
X-106337Y-38117D01*
X-106643Y-38312D01*
X-106921Y-38506D01*
X-107226Y-38728D01*
X-107504Y-39006D01*
X-107781Y-39312D01*
X-107809Y-39339D01*
X-107837Y-39395D01*
X-107920Y-39506D01*
X-108004Y-39645D01*
X-108115Y-39839D01*
X-108226Y-40061D01*
X-108365Y-40339D01*
X-108476Y-40644D01*
X-108615Y-41006D01*
X-108753Y-41422D01*
X-108864Y-41866D01*
X-108976Y-42338D01*
X-109059Y-42866D01*
X-109142Y-43449D01*
X-109170Y-44088D01*
X-109198Y-44754D01*
Y-44782D01*
Y-44921D01*
Y-45088D01*
X-109170Y-45338D01*
X-109142Y-45643D01*
X-109114Y-45976D01*
X-109059Y-46365D01*
X-109003Y-46782D01*
X-108837Y-47642D01*
X-108559Y-48531D01*
X-108392Y-48976D01*
X-108198Y-49392D01*
X-107948Y-49781D01*
X-107698Y-50142D01*
X-107670Y-50170D01*
X-107615Y-50225D01*
X-107531Y-50309D01*
X-107420Y-50419D01*
X-107281Y-50558D01*
X-107115Y-50697D01*
X-106671Y-51030D01*
X-106143Y-51364D01*
X-105532Y-51641D01*
X-105199Y-51753D01*
X-104838Y-51836D01*
X-104477Y-51891D01*
X-104088Y-51919D01*
X-103894D01*
X-103755Y-51891D01*
X-103588Y-51864D01*
X-103366Y-51836D01*
X-102894Y-51697D01*
X-102366Y-51503D01*
X-102089Y-51364D01*
X-101783Y-51197D01*
X-101505Y-51003D01*
X-101200Y-50781D01*
X-100922Y-50531D01*
X-100645Y-50225D01*
X-100617Y-50197D01*
X-100589Y-50142D01*
X-100506Y-50059D01*
X-100422Y-49892D01*
X-100311Y-49725D01*
X-100172Y-49503D01*
X-100034Y-49253D01*
X-99895Y-48948D01*
X-99784Y-48587D01*
X-99645Y-48226D01*
X-99506Y-47781D01*
X-99395Y-47309D01*
X-99312Y-46809D01*
X-99228Y-46254D01*
X-99200Y-45671D01*
X-99173Y-45032D01*
Y-44977D01*
Y-44866D01*
Y-44671D01*
X-99200Y-44421D01*
X-99228Y-44116D01*
X-99256Y-43755D01*
X-99312Y-43366D01*
X-99367Y-42949D01*
X-99562Y-42033D01*
X-99839Y-41117D01*
X-100006Y-40644D01*
X-100200Y-40228D01*
X-100450Y-39811D01*
X-100728Y-39450D01*
X-100756Y-39423D01*
X-100783Y-39367D01*
X-100894Y-39284D01*
X-101005Y-39145D01*
X-101144Y-39006D01*
X-101311Y-38840D01*
X-101755Y-38506D01*
X-102283Y-38145D01*
X-102894Y-37868D01*
X-103227Y-37729D01*
X-103560Y-37645D01*
X-103921Y-37590D01*
X-104310Y-37562D01*
D02*
G37*
%LPD*%
D10*
X-20944Y-449935D02*
X-22256D01*
X-21600D01*
Y-453215D01*
X-22256Y-453871D01*
X-22912D01*
X-23568Y-453215D01*
X-19633Y-449935D02*
Y-453871D01*
X-17009D01*
X-13073Y-450592D02*
X-13729Y-449935D01*
X-15041D01*
X-15697Y-450592D01*
Y-453215D01*
X-15041Y-453871D01*
X-13729D01*
X-13073Y-453215D01*
X-9137Y-449935D02*
X-10449D01*
X-9793D01*
Y-453215D01*
X-10449Y-453871D01*
X-11105D01*
X-11761Y-453215D01*
X-7825Y-449935D02*
Y-453871D01*
X-5202D01*
X-1266Y-450592D02*
X-1922Y-449935D01*
X-3234D01*
X-3890Y-450592D01*
Y-453215D01*
X-3234Y-453871D01*
X-1922D01*
X-1266Y-453215D01*
X2670Y-449935D02*
X1358D01*
X2014D01*
Y-453215D01*
X1358Y-453871D01*
X702D01*
X46Y-453215D01*
X3982Y-449935D02*
Y-453871D01*
X6606D01*
X10541Y-450592D02*
X9886Y-449935D01*
X8574D01*
X7918Y-450592D01*
Y-453215D01*
X8574Y-453871D01*
X9886D01*
X10541Y-453215D01*
X14477Y-449935D02*
X13165D01*
X13821D01*
Y-453215D01*
X13165Y-453871D01*
X12509D01*
X11853Y-453215D01*
X15789Y-449935D02*
Y-453871D01*
X18413D01*
X22349Y-450592D02*
X21693Y-449935D01*
X20381D01*
X19725Y-450592D01*
Y-453215D01*
X20381Y-453871D01*
X21693D01*
X22349Y-453215D01*
M02*
