G04*
G04 #@! TF.GenerationSoftware,Altium Limited,Altium Designer,19.0.15 (446)*
G04*
G04 Layer_Color=65535*
%FSLAX25Y25*%
%MOIN*%
G70*
G01*
G75*
G36*
X523392Y538692D02*
X523726Y538664D01*
X524087Y538609D01*
X524503Y538553D01*
X524948Y538442D01*
X525392Y538331D01*
X525892Y538192D01*
X526392Y538025D01*
X526891Y537831D01*
X527363Y537581D01*
X527863Y537276D01*
X528308Y536970D01*
X528752Y536581D01*
X528780Y536553D01*
X528835Y536498D01*
X528946Y536359D01*
X529113Y536220D01*
X529280Y535998D01*
X529446Y535776D01*
X529641Y535498D01*
X529863Y535165D01*
X530057Y534832D01*
X530252Y534443D01*
X530446Y534054D01*
X530613Y533610D01*
X530751Y533138D01*
X530835Y532666D01*
X530890Y532166D01*
X530918Y531638D01*
X530863Y531555D01*
X527808D01*
Y531583D01*
Y531638D01*
Y531749D01*
X527780Y531888D01*
X527752Y532055D01*
X527725Y532249D01*
X527641Y532721D01*
X527475Y533249D01*
X527225Y533804D01*
X527058Y534082D01*
X526864Y534332D01*
X526642Y534610D01*
X526392Y534860D01*
X526364Y534887D01*
X526336Y534915D01*
X526253Y534971D01*
X526142Y535082D01*
X526003Y535165D01*
X525836Y535276D01*
X525420Y535526D01*
X524892Y535776D01*
X524281Y535998D01*
X523559Y536137D01*
X523198Y536165D01*
X522781Y536193D01*
X522559D01*
X522420Y536165D01*
X522226D01*
X522004Y536137D01*
X521504Y536054D01*
X520949Y535943D01*
X520393Y535748D01*
X519838Y535470D01*
X519338Y535110D01*
X519282Y535054D01*
X519144Y534915D01*
X518949Y534665D01*
X518755Y534360D01*
X518533Y533943D01*
X518338Y533471D01*
X518199Y532916D01*
X518172Y532610D01*
X518144Y532277D01*
Y532249D01*
Y532221D01*
Y532138D01*
X518172Y532027D01*
X518227Y531721D01*
X518310Y531360D01*
X518477Y530972D01*
X518699Y530527D01*
X519032Y530111D01*
X519227Y529889D01*
X519449Y529694D01*
X519477D01*
X519505Y529639D01*
X519588Y529583D01*
X519699Y529528D01*
X519838Y529444D01*
X520032Y529333D01*
X520227Y529222D01*
X520476Y529083D01*
X520754Y528944D01*
X521088Y528806D01*
X521421Y528667D01*
X521809Y528500D01*
X522226Y528334D01*
X522698Y528195D01*
X523198Y528028D01*
X523726Y527889D01*
X523753D01*
X523892Y527834D01*
X524059Y527778D01*
X524309Y527723D01*
X524614Y527612D01*
X524948Y527500D01*
X525336Y527362D01*
X525725Y527195D01*
X526614Y526806D01*
X527502Y526334D01*
X528363Y525779D01*
X528780Y525473D01*
X529141Y525140D01*
X529169Y525112D01*
X529224Y525057D01*
X529307Y524946D01*
X529446Y524807D01*
X529585Y524640D01*
X529752Y524418D01*
X529918Y524196D01*
X530085Y523918D01*
X530252Y523613D01*
X530446Y523252D01*
X530585Y522891D01*
X530724Y522502D01*
X530863Y522085D01*
X530946Y521641D01*
X531001Y521169D01*
X531029Y520697D01*
Y520669D01*
Y520558D01*
X531001Y520419D01*
Y520225D01*
X530974Y519975D01*
X530918Y519697D01*
X530835Y519392D01*
X530751Y519058D01*
X530640Y518697D01*
X530474Y518309D01*
X530307Y517920D01*
X530085Y517559D01*
X529835Y517170D01*
X529530Y516781D01*
X529169Y516420D01*
X528780Y516087D01*
X528752Y516059D01*
X528669Y516004D01*
X528558Y515920D01*
X528363Y515809D01*
X528141Y515698D01*
X527863Y515532D01*
X527558Y515393D01*
X527197Y515226D01*
X526808Y515060D01*
X526364Y514921D01*
X525864Y514754D01*
X525336Y514643D01*
X524781Y514532D01*
X524198Y514449D01*
X523559Y514393D01*
X522893Y514365D01*
X522559D01*
X522309Y514393D01*
X522032Y514421D01*
X521671Y514476D01*
X521282Y514532D01*
X520865Y514615D01*
X520393Y514699D01*
X519921Y514837D01*
X519421Y514976D01*
X518894Y515171D01*
X518366Y515393D01*
X517866Y515643D01*
X517339Y515920D01*
X516839Y516254D01*
X516811Y516281D01*
X516728Y516337D01*
X516589Y516448D01*
X516422Y516615D01*
X516228Y516809D01*
X516006Y517031D01*
X515783Y517309D01*
X515533Y517614D01*
X515283Y517975D01*
X515061Y518364D01*
X514839Y518781D01*
X514645Y519253D01*
X514478Y519725D01*
X514367Y520253D01*
X514312Y520836D01*
X514284Y521419D01*
X514312Y521502D01*
X517394D01*
Y521474D01*
Y521419D01*
Y521280D01*
X517422Y521141D01*
X517450Y520947D01*
X517477Y520725D01*
X517616Y520253D01*
X517811Y519697D01*
X517949Y519392D01*
X518116Y519114D01*
X518310Y518836D01*
X518533Y518559D01*
X518783Y518309D01*
X519088Y518059D01*
X519116D01*
X519171Y518003D01*
X519255Y517948D01*
X519393Y517864D01*
X519532Y517781D01*
X519727Y517670D01*
X519949Y517559D01*
X520199Y517448D01*
X520754Y517226D01*
X521421Y517031D01*
X522115Y516892D01*
X522504Y516865D01*
X522893Y516837D01*
X523115D01*
X523281Y516865D01*
X523476D01*
X523698Y516892D01*
X524198Y516976D01*
X524781Y517087D01*
X525364Y517281D01*
X525975Y517531D01*
X526503Y517864D01*
X526530D01*
X526558Y517920D01*
X526725Y518059D01*
X526919Y518281D01*
X527169Y518614D01*
X527419Y519003D01*
X527641Y519475D01*
X527780Y520030D01*
X527808Y520336D01*
X527836Y520669D01*
Y520697D01*
Y520752D01*
Y520836D01*
X527808Y520947D01*
X527780Y521224D01*
X527697Y521613D01*
X527558Y522030D01*
X527336Y522474D01*
X527058Y522946D01*
X526669Y523363D01*
X526614Y523418D01*
X526558Y523474D01*
X526447Y523557D01*
X526308Y523640D01*
X526169Y523752D01*
X525975Y523863D01*
X525725Y524002D01*
X525475Y524140D01*
X525170Y524307D01*
X524836Y524446D01*
X524475Y524612D01*
X524059Y524751D01*
X523615Y524918D01*
X523142Y525084D01*
X522615Y525223D01*
X522587D01*
X522448Y525279D01*
X522282Y525307D01*
X522032Y525390D01*
X521726Y525473D01*
X521365Y525584D01*
X520976Y525723D01*
X520560Y525890D01*
X519643Y526251D01*
X518727Y526695D01*
X517811Y527223D01*
X517366Y527528D01*
X516978Y527834D01*
X516950Y527861D01*
X516894Y527917D01*
X516783Y528000D01*
X516672Y528139D01*
X516505Y528334D01*
X516339Y528528D01*
X516144Y528778D01*
X515978Y529028D01*
X515783Y529333D01*
X515589Y529667D01*
X515422Y530028D01*
X515256Y530416D01*
X515145Y530833D01*
X515034Y531277D01*
X514978Y531749D01*
X514950Y532221D01*
Y532249D01*
Y532333D01*
X514978Y532499D01*
Y532693D01*
X515006Y532916D01*
X515061Y533193D01*
X515145Y533499D01*
X515228Y533832D01*
X515339Y534193D01*
X515478Y534582D01*
X515645Y534971D01*
X515867Y535359D01*
X516117Y535748D01*
X516394Y536137D01*
X516728Y536498D01*
X517116Y536859D01*
X517144Y536887D01*
X517227Y536942D01*
X517339Y537026D01*
X517505Y537164D01*
X517727Y537303D01*
X518005Y537442D01*
X518310Y537609D01*
X518644Y537803D01*
X519032Y537970D01*
X519477Y538136D01*
X519921Y538275D01*
X520421Y538442D01*
X520976Y538553D01*
X521532Y538636D01*
X522143Y538692D01*
X522781Y538720D01*
X523142D01*
X523392Y538692D01*
D02*
G37*
G36*
X412562Y514699D02*
X409369D01*
Y525140D01*
X397872D01*
Y514699D01*
X394651D01*
Y538386D01*
X397872D01*
Y527667D01*
X409369D01*
Y538386D01*
X412562D01*
Y514699D01*
D02*
G37*
G36*
X501371D02*
X498177D01*
X486764Y532777D01*
X486680Y532749D01*
Y514699D01*
X483459D01*
Y538386D01*
X486680D01*
X498066Y520308D01*
X498177Y520336D01*
Y538386D01*
X501371D01*
Y514699D01*
D02*
G37*
G36*
X572490D02*
X569740D01*
X560937Y538386D01*
X564436D01*
X570546Y520891D01*
X571073Y518920D01*
X571185D01*
X571712Y520891D01*
X577849Y538386D01*
X581293D01*
X572490Y514699D01*
D02*
G37*
G36*
X598843Y535859D02*
X587652D01*
Y528195D01*
X597372D01*
Y525668D01*
X587652D01*
Y517198D01*
X599038D01*
Y514699D01*
X584431D01*
Y538386D01*
X598843D01*
Y535859D01*
D02*
G37*
G36*
X559382D02*
X548191D01*
Y528195D01*
X557910D01*
Y525668D01*
X548191D01*
Y517198D01*
X559577D01*
Y514699D01*
X544970D01*
Y538386D01*
X559382D01*
Y535859D01*
D02*
G37*
G36*
X539110Y514699D02*
X535889D01*
Y538386D01*
X539110D01*
Y514699D01*
D02*
G37*
G36*
X457383Y535859D02*
X449552D01*
Y514699D01*
X446358D01*
Y535859D01*
X438638D01*
Y538386D01*
X457383D01*
Y535859D01*
D02*
G37*
G36*
X383154Y538359D02*
X383459Y538331D01*
X383820Y538275D01*
X384237Y538220D01*
X384681Y538136D01*
X385153Y538025D01*
X385625Y537914D01*
X386125Y537748D01*
X386625Y537553D01*
X387097Y537331D01*
X387569Y537053D01*
X388014Y536776D01*
X388430Y536415D01*
X388458Y536387D01*
X388513Y536331D01*
X388625Y536220D01*
X388763Y536054D01*
X388930Y535859D01*
X389097Y535637D01*
X389291Y535359D01*
X389485Y535054D01*
X389680Y534693D01*
X389874Y534304D01*
X390041Y533888D01*
X390208Y533416D01*
X390346Y532943D01*
X390457Y532416D01*
X390513Y531860D01*
X390541Y531277D01*
Y531249D01*
Y531138D01*
Y530972D01*
X390513Y530750D01*
X390485Y530472D01*
X390430Y530166D01*
X390374Y529805D01*
X390291Y529417D01*
X390180Y529028D01*
X390013Y528611D01*
X389846Y528167D01*
X389652Y527750D01*
X389402Y527306D01*
X389124Y526890D01*
X388791Y526501D01*
X388430Y526112D01*
X388402Y526084D01*
X388319Y526029D01*
X388208Y525945D01*
X388041Y525807D01*
X387819Y525668D01*
X387569Y525501D01*
X387264Y525334D01*
X386903Y525168D01*
X386514Y524973D01*
X386070Y524807D01*
X385570Y524640D01*
X385042Y524501D01*
X384487Y524363D01*
X383876Y524279D01*
X383209Y524224D01*
X382515Y524196D01*
X376683D01*
Y514699D01*
X373462D01*
Y538386D01*
X382876D01*
X383154Y538359D01*
D02*
G37*
G36*
X469574Y538692D02*
X469880Y538664D01*
X470241Y538636D01*
X470657Y538581D01*
X471129Y538470D01*
X471657Y538359D01*
X472185Y538220D01*
X472768Y538025D01*
X473351Y537775D01*
X473934Y537498D01*
X474517Y537164D01*
X475073Y536776D01*
X475628Y536331D01*
X476156Y535831D01*
X476183Y535804D01*
X476267Y535693D01*
X476405Y535526D01*
X476572Y535332D01*
X476794Y535026D01*
X477016Y534693D01*
X477239Y534304D01*
X477516Y533860D01*
X477766Y533360D01*
X477988Y532832D01*
X478238Y532221D01*
X478433Y531583D01*
X478599Y530916D01*
X478738Y530194D01*
X478822Y529444D01*
X478849Y528639D01*
Y524418D01*
Y524363D01*
Y524224D01*
X478822Y524002D01*
Y523696D01*
X478766Y523307D01*
X478711Y522891D01*
X478627Y522419D01*
X478516Y521891D01*
X478377Y521336D01*
X478183Y520752D01*
X477988Y520141D01*
X477711Y519530D01*
X477405Y518920D01*
X477044Y518336D01*
X476628Y517753D01*
X476156Y517198D01*
X476128Y517170D01*
X476045Y517087D01*
X475878Y516948D01*
X475656Y516753D01*
X475406Y516531D01*
X475073Y516309D01*
X474712Y516059D01*
X474267Y515782D01*
X473795Y515532D01*
X473268Y515254D01*
X472684Y515032D01*
X472073Y514810D01*
X471407Y514615D01*
X470685Y514476D01*
X469935Y514393D01*
X469158Y514365D01*
X468963D01*
X468769Y514393D01*
X468463Y514421D01*
X468130Y514449D01*
X467713Y514504D01*
X467269Y514615D01*
X466769Y514726D01*
X466242Y514865D01*
X465686Y515060D01*
X465131Y515282D01*
X464575Y515559D01*
X463992Y515893D01*
X463437Y516254D01*
X462909Y516698D01*
X462409Y517198D01*
X462382Y517226D01*
X462298Y517337D01*
X462159Y517503D01*
X462021Y517726D01*
X461798Y518003D01*
X461604Y518336D01*
X461354Y518725D01*
X461132Y519170D01*
X460882Y519669D01*
X460632Y520225D01*
X460438Y520808D01*
X460243Y521447D01*
X460077Y522141D01*
X459938Y522863D01*
X459855Y523613D01*
X459827Y524418D01*
Y528639D01*
Y528695D01*
Y528833D01*
X459855Y529056D01*
Y529361D01*
X459910Y529722D01*
X459966Y530166D01*
X460049Y530639D01*
X460160Y531166D01*
X460299Y531721D01*
X460466Y532305D01*
X460660Y532888D01*
X460910Y533499D01*
X461215Y534110D01*
X461549Y534693D01*
X461965Y535276D01*
X462409Y535831D01*
X462437Y535859D01*
X462521Y535970D01*
X462687Y536109D01*
X462882Y536276D01*
X463132Y536498D01*
X463465Y536748D01*
X463826Y536998D01*
X464242Y537276D01*
X464687Y537553D01*
X465214Y537803D01*
X465770Y538053D01*
X466353Y538275D01*
X466992Y538442D01*
X467686Y538609D01*
X468408Y538692D01*
X469158Y538720D01*
X469352D01*
X469574Y538692D01*
D02*
G37*
G36*
X426919D02*
X427225Y538664D01*
X427586Y538636D01*
X428002Y538581D01*
X428475Y538470D01*
X429002Y538359D01*
X429530Y538220D01*
X430113Y538025D01*
X430696Y537775D01*
X431279Y537498D01*
X431862Y537164D01*
X432418Y536776D01*
X432973Y536331D01*
X433501Y535831D01*
X433529Y535804D01*
X433612Y535693D01*
X433751Y535526D01*
X433917Y535332D01*
X434140Y535026D01*
X434362Y534693D01*
X434584Y534304D01*
X434862Y533860D01*
X435112Y533360D01*
X435334Y532832D01*
X435584Y532221D01*
X435778Y531583D01*
X435945Y530916D01*
X436084Y530194D01*
X436167Y529444D01*
X436195Y528639D01*
Y524418D01*
Y524363D01*
Y524224D01*
X436167Y524002D01*
Y523696D01*
X436111Y523307D01*
X436056Y522891D01*
X435972Y522419D01*
X435861Y521891D01*
X435722Y521336D01*
X435528Y520752D01*
X435334Y520141D01*
X435056Y519530D01*
X434751Y518920D01*
X434389Y518336D01*
X433973Y517753D01*
X433501Y517198D01*
X433473Y517170D01*
X433390Y517087D01*
X433223Y516948D01*
X433001Y516753D01*
X432751Y516531D01*
X432418Y516309D01*
X432057Y516059D01*
X431612Y515782D01*
X431140Y515532D01*
X430613Y515254D01*
X430030Y515032D01*
X429419Y514810D01*
X428752Y514615D01*
X428030Y514476D01*
X427280Y514393D01*
X426503Y514365D01*
X426308D01*
X426114Y514393D01*
X425809Y514421D01*
X425475Y514449D01*
X425059Y514504D01*
X424614Y514615D01*
X424115Y514726D01*
X423587Y514865D01*
X423032Y515060D01*
X422476Y515282D01*
X421921Y515559D01*
X421338Y515893D01*
X420782Y516254D01*
X420255Y516698D01*
X419755Y517198D01*
X419727Y517226D01*
X419644Y517337D01*
X419505Y517503D01*
X419366Y517726D01*
X419144Y518003D01*
X418949Y518336D01*
X418700Y518725D01*
X418477Y519170D01*
X418227Y519669D01*
X417978Y520225D01*
X417783Y520808D01*
X417589Y521447D01*
X417422Y522141D01*
X417283Y522863D01*
X417200Y523613D01*
X417172Y524418D01*
Y528639D01*
Y528695D01*
Y528833D01*
X417200Y529056D01*
Y529361D01*
X417255Y529722D01*
X417311Y530166D01*
X417394Y530639D01*
X417505Y531166D01*
X417644Y531721D01*
X417811Y532305D01*
X418005Y532888D01*
X418255Y533499D01*
X418561Y534110D01*
X418894Y534693D01*
X419310Y535276D01*
X419755Y535831D01*
X419782Y535859D01*
X419866Y535970D01*
X420032Y536109D01*
X420227Y536276D01*
X420477Y536498D01*
X420810Y536748D01*
X421171Y536998D01*
X421588Y537276D01*
X422032Y537553D01*
X422559Y537803D01*
X423115Y538053D01*
X423698Y538275D01*
X424337Y538442D01*
X425031Y538609D01*
X425753Y538692D01*
X426503Y538720D01*
X426697D01*
X426919Y538692D01*
D02*
G37*
G36*
X485472Y477925D02*
X482279D01*
Y481202D01*
X485472D01*
Y477925D01*
D02*
G37*
G36*
X499191Y473704D02*
X499413Y473677D01*
X499691Y473649D01*
X499996Y473593D01*
X500329Y473538D01*
X501024Y473316D01*
X501412Y473205D01*
X501773Y473038D01*
X502134Y472844D01*
X502468Y472621D01*
X502801Y472371D01*
X503106Y472066D01*
X503134Y472038D01*
X503162Y471983D01*
X503245Y471899D01*
X503356Y471761D01*
X503467Y471566D01*
X503606Y471344D01*
X503745Y471094D01*
X503912Y470789D01*
X504051Y470455D01*
X504189Y470067D01*
X504328Y469650D01*
X504439Y469206D01*
X504550Y468706D01*
X504634Y468151D01*
X504662Y467567D01*
X504689Y466929D01*
Y455821D01*
X501468D01*
Y466845D01*
Y466873D01*
Y466956D01*
Y467067D01*
Y467234D01*
X501440Y467428D01*
X501412Y467623D01*
X501357Y468123D01*
X501246Y468678D01*
X501079Y469234D01*
X500857Y469733D01*
X500718Y469955D01*
X500552Y470150D01*
X500496Y470205D01*
X500385Y470317D01*
X500163Y470455D01*
X499857Y470650D01*
X499469Y470816D01*
X498996Y470983D01*
X498413Y471094D01*
X497747Y471122D01*
X497497D01*
X497219Y471094D01*
X496886Y471038D01*
X496497Y470983D01*
X496053Y470872D01*
X495636Y470733D01*
X495220Y470539D01*
X495164Y470511D01*
X495053Y470428D01*
X494859Y470289D01*
X494636Y470122D01*
X494387Y469872D01*
X494109Y469594D01*
X493859Y469261D01*
X493609Y468872D01*
Y455821D01*
X490388D01*
Y473399D01*
X493248D01*
X493498Y470789D01*
Y470816D01*
X493526Y470844D01*
X493665Y471011D01*
X493831Y471288D01*
X494109Y471594D01*
X494414Y471927D01*
X494775Y472288D01*
X495220Y472649D01*
X495692Y472955D01*
X495720D01*
X495747Y472982D01*
X495831Y473038D01*
X495914Y473066D01*
X496192Y473205D01*
X496580Y473344D01*
X497025Y473482D01*
X497525Y473621D01*
X498108Y473704D01*
X498719Y473732D01*
X498996D01*
X499191Y473704D01*
D02*
G37*
G36*
X614547D02*
X614770Y473677D01*
X615047Y473621D01*
X615325Y473566D01*
X615658Y473510D01*
X616325Y473288D01*
X616686Y473121D01*
X617047Y472955D01*
X617380Y472732D01*
X617713Y472483D01*
X618046Y472205D01*
X618352Y471872D01*
X618380Y471844D01*
X618407Y471788D01*
X618491Y471677D01*
X618602Y471538D01*
X618713Y471344D01*
X618852Y471094D01*
X618991Y470816D01*
X619157Y470483D01*
X619296Y470122D01*
X619435Y469706D01*
X619574Y469261D01*
X619685Y468761D01*
X619796Y468234D01*
X619879Y467651D01*
X619907Y467012D01*
X619935Y466345D01*
Y455821D01*
X616713D01*
Y466373D01*
Y466401D01*
Y466484D01*
Y466623D01*
Y466790D01*
X616686Y467012D01*
X616658Y467262D01*
X616602Y467817D01*
X616491Y468428D01*
X616353Y469011D01*
X616130Y469567D01*
X615991Y469817D01*
X615825Y470039D01*
X615797Y470094D01*
X615658Y470205D01*
X615464Y470372D01*
X615158Y470594D01*
X614797Y470789D01*
X614325Y470955D01*
X613798Y471066D01*
X613159Y471122D01*
X612992D01*
X612881Y471094D01*
X612576Y471066D01*
X612215Y470983D01*
X611798Y470844D01*
X611354Y470650D01*
X610910Y470372D01*
X610493Y469983D01*
X610437Y469928D01*
X610326Y469789D01*
X610160Y469539D01*
X609965Y469206D01*
X609743Y468789D01*
X609549Y468289D01*
X609410Y467734D01*
X609299Y467123D01*
Y466984D01*
Y455821D01*
X606077D01*
Y466373D01*
Y466401D01*
Y466484D01*
Y466623D01*
Y466790D01*
X606050Y466984D01*
X606022Y467206D01*
X605967Y467762D01*
X605855Y468345D01*
X605689Y468928D01*
X605467Y469511D01*
X605328Y469761D01*
X605161Y469983D01*
X605106Y470039D01*
X604994Y470150D01*
X604772Y470344D01*
X604495Y470566D01*
X604106Y470761D01*
X603662Y470955D01*
X603134Y471066D01*
X602523Y471122D01*
X602273D01*
X601995Y471094D01*
X601662Y471038D01*
X601301Y470983D01*
X600885Y470872D01*
X600496Y470705D01*
X600107Y470511D01*
X600079Y470483D01*
X599940Y470400D01*
X599774Y470261D01*
X599579Y470094D01*
X599329Y469844D01*
X599107Y469567D01*
X598857Y469234D01*
X598663Y468845D01*
Y455821D01*
X595442D01*
Y473399D01*
X598302D01*
X598552Y471094D01*
Y471122D01*
X598580Y471150D01*
X598719Y471288D01*
X598885Y471538D01*
X599135Y471816D01*
X599468Y472122D01*
X599829Y472455D01*
X600246Y472760D01*
X600718Y473038D01*
X600746D01*
X600773Y473066D01*
X600857Y473094D01*
X600968Y473149D01*
X601246Y473260D01*
X601607Y473399D01*
X602051Y473510D01*
X602578Y473621D01*
X603162Y473704D01*
X603800Y473732D01*
X604106D01*
X604245Y473704D01*
X604439D01*
X604856Y473621D01*
X605328Y473538D01*
X605828Y473399D01*
X606327Y473205D01*
X606827Y472927D01*
X606855D01*
X606883Y472899D01*
X607050Y472788D01*
X607272Y472594D01*
X607549Y472316D01*
X607855Y471983D01*
X608160Y471566D01*
X608466Y471066D01*
X608716Y470483D01*
Y470511D01*
X608743Y470539D01*
X608799Y470622D01*
X608882Y470733D01*
X609049Y471011D01*
X609327Y471344D01*
X609632Y471733D01*
X610021Y472149D01*
X610465Y472510D01*
X610937Y472871D01*
X610965D01*
X610993Y472899D01*
X611076Y472955D01*
X611187Y473010D01*
X611465Y473149D01*
X611854Y473316D01*
X612298Y473455D01*
X612853Y473593D01*
X613437Y473704D01*
X614103Y473732D01*
X614353D01*
X614547Y473704D01*
D02*
G37*
G36*
X585417D02*
X585639Y473677D01*
X585917Y473621D01*
X586194Y473566D01*
X586527Y473510D01*
X587194Y473288D01*
X587555Y473121D01*
X587916Y472955D01*
X588249Y472732D01*
X588582Y472483D01*
X588916Y472205D01*
X589221Y471872D01*
X589249Y471844D01*
X589277Y471788D01*
X589360Y471677D01*
X589471Y471538D01*
X589582Y471344D01*
X589721Y471094D01*
X589860Y470816D01*
X590027Y470483D01*
X590165Y470122D01*
X590304Y469706D01*
X590443Y469261D01*
X590554Y468761D01*
X590665Y468234D01*
X590749Y467651D01*
X590776Y467012D01*
X590804Y466345D01*
Y455821D01*
X587583D01*
Y466373D01*
Y466401D01*
Y466484D01*
Y466623D01*
Y466790D01*
X587555Y467012D01*
X587527Y467262D01*
X587472Y467817D01*
X587361Y468428D01*
X587222Y469011D01*
X587000Y469567D01*
X586861Y469817D01*
X586694Y470039D01*
X586666Y470094D01*
X586527Y470205D01*
X586333Y470372D01*
X586028Y470594D01*
X585667Y470789D01*
X585194Y470955D01*
X584667Y471066D01*
X584028Y471122D01*
X583861D01*
X583750Y471094D01*
X583445Y471066D01*
X583084Y470983D01*
X582667Y470844D01*
X582223Y470650D01*
X581779Y470372D01*
X581362Y469983D01*
X581307Y469928D01*
X581196Y469789D01*
X581029Y469539D01*
X580835Y469206D01*
X580613Y468789D01*
X580418Y468289D01*
X580279Y467734D01*
X580168Y467123D01*
Y466984D01*
Y455821D01*
X576947D01*
Y466373D01*
Y466401D01*
Y466484D01*
Y466623D01*
Y466790D01*
X576919Y466984D01*
X576891Y467206D01*
X576836Y467762D01*
X576725Y468345D01*
X576558Y468928D01*
X576336Y469511D01*
X576197Y469761D01*
X576030Y469983D01*
X575975Y470039D01*
X575864Y470150D01*
X575642Y470344D01*
X575364Y470566D01*
X574975Y470761D01*
X574531Y470955D01*
X574003Y471066D01*
X573392Y471122D01*
X573142D01*
X572865Y471094D01*
X572531Y471038D01*
X572170Y470983D01*
X571754Y470872D01*
X571365Y470705D01*
X570976Y470511D01*
X570949Y470483D01*
X570810Y470400D01*
X570643Y470261D01*
X570449Y470094D01*
X570199Y469844D01*
X569977Y469567D01*
X569727Y469234D01*
X569532Y468845D01*
Y455821D01*
X566311D01*
Y473399D01*
X569171D01*
X569421Y471094D01*
Y471122D01*
X569449Y471150D01*
X569588Y471288D01*
X569754Y471538D01*
X570004Y471816D01*
X570338Y472122D01*
X570699Y472455D01*
X571115Y472760D01*
X571587Y473038D01*
X571615D01*
X571643Y473066D01*
X571726Y473094D01*
X571837Y473149D01*
X572115Y473260D01*
X572476Y473399D01*
X572920Y473510D01*
X573448Y473621D01*
X574031Y473704D01*
X574670Y473732D01*
X574975D01*
X575114Y473704D01*
X575308D01*
X575725Y473621D01*
X576197Y473538D01*
X576697Y473399D01*
X577197Y473205D01*
X577697Y472927D01*
X577724D01*
X577752Y472899D01*
X577919Y472788D01*
X578141Y472594D01*
X578419Y472316D01*
X578724Y471983D01*
X579030Y471566D01*
X579335Y471066D01*
X579585Y470483D01*
Y470511D01*
X579613Y470539D01*
X579668Y470622D01*
X579752Y470733D01*
X579918Y471011D01*
X580196Y471344D01*
X580501Y471733D01*
X580890Y472149D01*
X581334Y472510D01*
X581807Y472871D01*
X581834D01*
X581862Y472899D01*
X581945Y472955D01*
X582057Y473010D01*
X582334Y473149D01*
X582723Y473316D01*
X583167Y473455D01*
X583723Y473593D01*
X584306Y473704D01*
X584972Y473732D01*
X585222D01*
X585417Y473704D01*
D02*
G37*
G36*
X396942D02*
X397192Y473677D01*
X397469Y473649D01*
X397803Y473593D01*
X398164Y473510D01*
X398913Y473288D01*
X399330Y473149D01*
X399719Y472955D01*
X400135Y472760D01*
X400524Y472510D01*
X400913Y472233D01*
X401274Y471899D01*
X401302Y471872D01*
X401357Y471816D01*
X401440Y471705D01*
X401579Y471566D01*
X401718Y471399D01*
X401857Y471177D01*
X402024Y470955D01*
X402218Y470678D01*
X402385Y470344D01*
X402551Y470011D01*
X402690Y469650D01*
X402829Y469261D01*
X402940Y468845D01*
X403023Y468400D01*
X403079Y467928D01*
Y467428D01*
X403051Y467345D01*
X400135D01*
Y467373D01*
Y467428D01*
Y467512D01*
X400107Y467623D01*
X400080Y467901D01*
X399996Y468289D01*
X399885Y468706D01*
X399691Y469178D01*
X399441Y469622D01*
X399080Y470067D01*
X399024Y470122D01*
X398886Y470233D01*
X398663Y470428D01*
X398358Y470650D01*
X397997Y470844D01*
X397525Y471038D01*
X397025Y471150D01*
X396442Y471205D01*
X396220D01*
X396053Y471177D01*
X395859Y471150D01*
X395637Y471122D01*
X395137Y470983D01*
X394553Y470761D01*
X394276Y470622D01*
X393998Y470428D01*
X393720Y470233D01*
X393470Y469983D01*
X393220Y469706D01*
X392998Y469372D01*
Y469345D01*
X392943Y469289D01*
X392887Y469178D01*
X392832Y469039D01*
X392748Y468872D01*
X392665Y468678D01*
X392554Y468428D01*
X392471Y468151D01*
X392360Y467845D01*
X392249Y467512D01*
X392082Y466762D01*
X391971Y465901D01*
X391915Y464957D01*
Y464263D01*
Y464235D01*
Y464152D01*
Y464013D01*
X391943Y463818D01*
Y463596D01*
X391971Y463318D01*
X391999Y463041D01*
X392054Y462708D01*
X392165Y462013D01*
X392360Y461264D01*
X392610Y460514D01*
X392971Y459792D01*
Y459764D01*
X393026Y459708D01*
X393082Y459625D01*
X393165Y459514D01*
X393443Y459208D01*
X393609Y459042D01*
X393804Y458875D01*
X394026Y458709D01*
X394303Y458542D01*
X394581Y458375D01*
X394887Y458237D01*
X395248Y458125D01*
X395609Y458042D01*
X395998Y457987D01*
X396442Y457959D01*
X396581D01*
X396692Y457987D01*
X396970Y458014D01*
X397330Y458070D01*
X397719Y458209D01*
X398164Y458375D01*
X398608Y458598D01*
X399024Y458931D01*
X399080Y458986D01*
X399191Y459097D01*
X399385Y459320D01*
X399580Y459625D01*
X399774Y459958D01*
X399969Y460375D01*
X400080Y460847D01*
X400135Y461375D01*
X403051D01*
X403079Y461264D01*
Y461236D01*
Y461152D01*
Y461041D01*
X403051Y460875D01*
X403023Y460680D01*
X402995Y460458D01*
X402940Y460181D01*
X402857Y459903D01*
X402773Y459597D01*
X402634Y459292D01*
X402496Y458959D01*
X402301Y458598D01*
X402079Y458264D01*
X401801Y457903D01*
X401496Y457570D01*
X401135Y457237D01*
X401107Y457209D01*
X401052Y457154D01*
X400941Y457070D01*
X400774Y456959D01*
X400580Y456820D01*
X400357Y456681D01*
X400080Y456515D01*
X399802Y456376D01*
X399469Y456209D01*
X399108Y456043D01*
X398302Y455765D01*
X397858Y455654D01*
X397414Y455571D01*
X396942Y455515D01*
X396442Y455487D01*
X396275D01*
X396081Y455515D01*
X395831D01*
X395525Y455571D01*
X395164Y455626D01*
X394776Y455710D01*
X394331Y455793D01*
X393887Y455932D01*
X393415Y456098D01*
X392943Y456293D01*
X392471Y456543D01*
X391999Y456820D01*
X391554Y457154D01*
X391110Y457542D01*
X390721Y457987D01*
X390693Y458014D01*
X390638Y458098D01*
X390527Y458237D01*
X390416Y458431D01*
X390249Y458681D01*
X390083Y458986D01*
X389888Y459320D01*
X389721Y459708D01*
X389527Y460153D01*
X389333Y460625D01*
X389166Y461152D01*
X389000Y461708D01*
X388888Y462291D01*
X388777Y462930D01*
X388722Y463568D01*
X388694Y464263D01*
Y464957D01*
Y465012D01*
Y465124D01*
X388722Y465318D01*
Y465568D01*
X388750Y465901D01*
X388805Y466262D01*
X388861Y466679D01*
X388944Y467123D01*
X389055Y467623D01*
X389194Y468123D01*
X389360Y468650D01*
X389555Y469150D01*
X389777Y469678D01*
X390055Y470205D01*
X390360Y470733D01*
X390721Y471205D01*
X390749Y471233D01*
X390805Y471316D01*
X390943Y471427D01*
X391110Y471594D01*
X391304Y471788D01*
X391554Y472011D01*
X391860Y472233D01*
X392193Y472483D01*
X392582Y472705D01*
X392998Y472927D01*
X393470Y473149D01*
X393998Y473344D01*
X394553Y473510D01*
X395137Y473621D01*
X395775Y473704D01*
X396442Y473732D01*
X396720D01*
X396942Y473704D01*
D02*
G37*
G36*
X543789Y476981D02*
Y476954D01*
X543734Y476926D01*
X543678Y476842D01*
X543595Y476731D01*
X543373Y476454D01*
X543067Y476093D01*
X542706Y475621D01*
X542290Y475065D01*
X541846Y474482D01*
X541346Y473815D01*
X540846Y473094D01*
X540346Y472344D01*
X539846Y471538D01*
X539346Y470761D01*
X538874Y469928D01*
X538458Y469122D01*
X538069Y468317D01*
X537736Y467540D01*
X537708Y467484D01*
X537680Y467345D01*
X537597Y467123D01*
X537486Y466818D01*
X537375Y466429D01*
X537236Y465984D01*
X537097Y465457D01*
X536958Y464874D01*
X536791Y464207D01*
X536653Y463513D01*
X536514Y462763D01*
X536403Y461958D01*
X536292Y461125D01*
X536208Y460236D01*
X536180Y459347D01*
X536153Y458403D01*
Y455821D01*
X532959D01*
Y458403D01*
Y458431D01*
Y458459D01*
Y458542D01*
Y458653D01*
Y458931D01*
X532987Y459320D01*
X533015Y459792D01*
X533070Y460319D01*
X533126Y460958D01*
X533209Y461624D01*
X533320Y462347D01*
X533431Y463124D01*
X533598Y463929D01*
X533792Y464735D01*
X534014Y465568D01*
X534292Y466429D01*
X534598Y467262D01*
X534931Y468067D01*
X534959Y468123D01*
X535014Y468261D01*
X535125Y468484D01*
X535292Y468817D01*
X535514Y469206D01*
X535764Y469678D01*
X536042Y470205D01*
X536375Y470789D01*
X536764Y471455D01*
X537208Y472149D01*
X537652Y472871D01*
X538180Y473649D01*
X538735Y474454D01*
X539319Y475287D01*
X539957Y476120D01*
X540651Y476981D01*
X528072D01*
Y479508D01*
X543789D01*
Y476981D01*
D02*
G37*
G36*
X485472Y455821D02*
X482279D01*
Y473399D01*
X485472D01*
Y455821D01*
D02*
G37*
G36*
X452010Y479481D02*
X452315Y479453D01*
X452676Y479397D01*
X453093Y479342D01*
X453537Y479258D01*
X454009Y479147D01*
X454481Y479036D01*
X454981Y478870D01*
X455481Y478675D01*
X455953Y478453D01*
X456425Y478175D01*
X456869Y477898D01*
X457286Y477537D01*
X457314Y477509D01*
X457369Y477453D01*
X457480Y477342D01*
X457619Y477176D01*
X457786Y476981D01*
X457952Y476759D01*
X458147Y476481D01*
X458341Y476176D01*
X458535Y475815D01*
X458730Y475426D01*
X458897Y475010D01*
X459063Y474538D01*
X459202Y474065D01*
X459313Y473538D01*
X459369Y472982D01*
X459396Y472399D01*
Y472371D01*
Y472260D01*
Y472094D01*
X459369Y471872D01*
X459341Y471594D01*
X459285Y471288D01*
X459230Y470927D01*
X459146Y470539D01*
X459035Y470150D01*
X458869Y469733D01*
X458702Y469289D01*
X458508Y468872D01*
X458258Y468428D01*
X457980Y468012D01*
X457647Y467623D01*
X457286Y467234D01*
X457258Y467206D01*
X457175Y467151D01*
X457064Y467067D01*
X456897Y466929D01*
X456675Y466790D01*
X456425Y466623D01*
X456119Y466457D01*
X455758Y466290D01*
X455370Y466095D01*
X454925Y465929D01*
X454426Y465762D01*
X453898Y465623D01*
X453343Y465485D01*
X452732Y465401D01*
X452065Y465346D01*
X451371Y465318D01*
X445539D01*
Y455821D01*
X442318D01*
Y479508D01*
X451732D01*
X452010Y479481D01*
D02*
G37*
G36*
X428683Y455821D02*
X425489D01*
Y481202D01*
X428683D01*
Y455821D01*
D02*
G37*
G36*
X414409Y473704D02*
X414659Y473677D01*
X414964Y473649D01*
X415270Y473593D01*
X415631Y473538D01*
X416408Y473371D01*
X417214Y473094D01*
X417603Y472927D01*
X417991Y472705D01*
X418352Y472483D01*
X418713Y472205D01*
X418741Y472177D01*
X418797Y472149D01*
X418880Y472038D01*
X418991Y471927D01*
X419130Y471761D01*
X419297Y471594D01*
X419463Y471344D01*
X419630Y471094D01*
X419796Y470816D01*
X419963Y470483D01*
X420130Y470122D01*
X420268Y469733D01*
X420380Y469317D01*
X420463Y468845D01*
X420518Y468373D01*
X420546Y467845D01*
Y459347D01*
Y459320D01*
Y459181D01*
Y459014D01*
X420574Y458764D01*
Y458487D01*
X420602Y458181D01*
X420657Y457514D01*
Y457487D01*
X420685Y457376D01*
X420713Y457209D01*
X420741Y456987D01*
X420796Y456737D01*
X420852Y456431D01*
X421018Y455821D01*
X417714D01*
Y455848D01*
X417686Y455959D01*
X417658Y456098D01*
X417630Y456293D01*
X417575Y456515D01*
X417547Y456737D01*
X417464Y457209D01*
Y457237D01*
Y457320D01*
X417436Y457431D01*
X417408Y457598D01*
Y457764D01*
X417380Y457987D01*
X417353Y458431D01*
X417325Y458375D01*
X417186Y458237D01*
X416992Y457987D01*
X416742Y457709D01*
X416381Y457376D01*
X415992Y457015D01*
X415548Y456654D01*
X415020Y456320D01*
X414992D01*
X414964Y456293D01*
X414881Y456237D01*
X414770Y456182D01*
X414465Y456071D01*
X414104Y455904D01*
X413631Y455765D01*
X413104Y455626D01*
X412521Y455515D01*
X411910Y455487D01*
X411660D01*
X411465Y455515D01*
X411215Y455543D01*
X410965Y455571D01*
X410660Y455598D01*
X410355Y455654D01*
X409688Y455821D01*
X408994Y456071D01*
X408633Y456237D01*
X408300Y456431D01*
X407994Y456626D01*
X407716Y456876D01*
X407689Y456904D01*
X407661Y456931D01*
X407578Y457015D01*
X407494Y457126D01*
X407383Y457292D01*
X407272Y457459D01*
X407133Y457653D01*
X407022Y457903D01*
X406883Y458153D01*
X406744Y458459D01*
X406633Y458764D01*
X406522Y459125D01*
X406356Y459875D01*
X406328Y460319D01*
X406300Y460764D01*
Y460791D01*
Y460875D01*
X406328Y461014D01*
Y461180D01*
X406356Y461375D01*
X406411Y461624D01*
X406550Y462180D01*
X406661Y462513D01*
X406800Y462819D01*
X406967Y463152D01*
X407161Y463457D01*
X407383Y463791D01*
X407661Y464096D01*
X407966Y464401D01*
X408327Y464679D01*
X408355Y464707D01*
X408411Y464735D01*
X408549Y464818D01*
X408716Y464901D01*
X408911Y465012D01*
X409161Y465124D01*
X409466Y465262D01*
X409799Y465401D01*
X410160Y465540D01*
X410577Y465679D01*
X411049Y465790D01*
X411549Y465901D01*
X412076Y465984D01*
X412632Y466068D01*
X413243Y466095D01*
X413881Y466123D01*
X417353D01*
Y467873D01*
Y467901D01*
Y467928D01*
Y468012D01*
Y468123D01*
X417297Y468400D01*
X417242Y468761D01*
X417131Y469122D01*
X416964Y469539D01*
X416714Y469928D01*
X416408Y470289D01*
X416353Y470317D01*
X416242Y470428D01*
X416020Y470566D01*
X415714Y470761D01*
X415353Y470927D01*
X414881Y471066D01*
X414354Y471177D01*
X413742Y471205D01*
X413493D01*
X413187Y471177D01*
X412854Y471122D01*
X412437Y471011D01*
X412021Y470872D01*
X411604Y470678D01*
X411215Y470428D01*
X411188Y470400D01*
X411077Y470289D01*
X410910Y470122D01*
X410743Y469900D01*
X410577Y469622D01*
X410410Y469317D01*
X410299Y468956D01*
X410271Y468567D01*
X407217Y468539D01*
X407189Y468622D01*
Y468650D01*
Y468706D01*
Y468817D01*
Y468956D01*
X407217Y469122D01*
X407244Y469317D01*
X407383Y469789D01*
X407467Y470039D01*
X407578Y470317D01*
X407716Y470622D01*
X407883Y470900D01*
X408105Y471205D01*
X408355Y471511D01*
X408633Y471816D01*
X408966Y472122D01*
X408994Y472149D01*
X409049Y472205D01*
X409161Y472260D01*
X409327Y472371D01*
X409494Y472483D01*
X409744Y472621D01*
X409994Y472788D01*
X410299Y472927D01*
X410632Y473066D01*
X411021Y473232D01*
X411410Y473371D01*
X411854Y473482D01*
X412326Y473593D01*
X412826Y473677D01*
X413354Y473704D01*
X413909Y473732D01*
X414187D01*
X414409Y473704D01*
D02*
G37*
G36*
X367422Y476981D02*
X355786D01*
Y468817D01*
X365756D01*
Y466290D01*
X355786D01*
Y455821D01*
X352565D01*
Y479508D01*
X367422D01*
Y476981D01*
D02*
G37*
G36*
X554925Y479814D02*
X555175D01*
X555453Y479758D01*
X555786Y479731D01*
X556175Y479647D01*
X556591Y479536D01*
X557008Y479425D01*
X557480Y479258D01*
X557924Y479064D01*
X558396Y478842D01*
X558841Y478564D01*
X559285Y478259D01*
X559729Y477898D01*
X560118Y477481D01*
X560146Y477453D01*
X560202Y477370D01*
X560313Y477231D01*
X560451Y477065D01*
X560590Y476815D01*
X560757Y476537D01*
X560951Y476176D01*
X561146Y475815D01*
X561340Y475371D01*
X561535Y474899D01*
X561701Y474371D01*
X561840Y473815D01*
X561979Y473205D01*
X562090Y472538D01*
X562145Y471844D01*
X562173Y471122D01*
Y464179D01*
Y464124D01*
Y464013D01*
Y463791D01*
X562145Y463513D01*
X562118Y463180D01*
X562062Y462791D01*
X562007Y462347D01*
X561923Y461874D01*
X561812Y461375D01*
X561673Y460847D01*
X561507Y460319D01*
X561312Y459792D01*
X561062Y459264D01*
X560785Y458764D01*
X560479Y458264D01*
X560118Y457820D01*
X560090Y457792D01*
X560035Y457709D01*
X559896Y457598D01*
X559757Y457459D01*
X559535Y457292D01*
X559285Y457070D01*
X559007Y456876D01*
X558674Y456654D01*
X558313Y456431D01*
X557897Y456237D01*
X557452Y456043D01*
X556952Y455848D01*
X556425Y455710D01*
X555869Y455598D01*
X555286Y455515D01*
X554647Y455487D01*
X554509D01*
X554314Y455515D01*
X554092D01*
X553787Y455571D01*
X553453Y455598D01*
X553065Y455682D01*
X552676Y455793D01*
X552232Y455904D01*
X551787Y456071D01*
X551343Y456237D01*
X550871Y456459D01*
X550426Y456737D01*
X549982Y457043D01*
X549538Y457404D01*
X549149Y457820D01*
X549121Y457848D01*
X549066Y457931D01*
X548955Y458070D01*
X548816Y458237D01*
X548677Y458487D01*
X548510Y458764D01*
X548316Y459097D01*
X548122Y459486D01*
X547927Y459931D01*
X547733Y460403D01*
X547566Y460930D01*
X547427Y461486D01*
X547289Y462097D01*
X547177Y462763D01*
X547122Y463457D01*
X547094Y464179D01*
Y471122D01*
Y471177D01*
Y471288D01*
X547122Y471511D01*
Y471788D01*
X547150Y472122D01*
X547205Y472510D01*
X547261Y472955D01*
X547344Y473427D01*
X547455Y473927D01*
X547594Y474427D01*
X547760Y474954D01*
X547955Y475482D01*
X548177Y476009D01*
X548455Y476537D01*
X548760Y477009D01*
X549121Y477481D01*
X549149Y477509D01*
X549205Y477592D01*
X549343Y477703D01*
X549510Y477842D01*
X549704Y478037D01*
X549954Y478231D01*
X550232Y478453D01*
X550565Y478675D01*
X550954Y478870D01*
X551371Y479092D01*
X551815Y479286D01*
X552287Y479481D01*
X552815Y479620D01*
X553370Y479731D01*
X553981Y479814D01*
X554592Y479842D01*
X554759D01*
X554925Y479814D01*
D02*
G37*
G36*
X513798Y473399D02*
X517130D01*
Y471038D01*
X513798D01*
Y460347D01*
Y460292D01*
Y460153D01*
X513826Y459931D01*
X513853Y459653D01*
X513909Y459375D01*
X514020Y459070D01*
X514131Y458820D01*
X514298Y458598D01*
X514326Y458570D01*
X514381Y458514D01*
X514520Y458431D01*
X514659Y458348D01*
X514853Y458264D01*
X515103Y458181D01*
X515353Y458125D01*
X515658Y458098D01*
X515853D01*
X516047Y458125D01*
X516269Y458153D01*
X516297D01*
X516325Y458181D01*
X516492Y458209D01*
X516658Y458264D01*
X516853Y458320D01*
X517297Y456126D01*
X517269D01*
X517241Y456071D01*
X517158Y456043D01*
X517019Y455959D01*
X516880Y455904D01*
X516714Y455821D01*
X516492Y455737D01*
X516242Y455682D01*
X516214D01*
X516130Y455654D01*
X515992Y455626D01*
X515797Y455598D01*
X515603Y455543D01*
X515353Y455515D01*
X514853Y455487D01*
X514659D01*
X514520Y455515D01*
X514381D01*
X514187Y455543D01*
X513742Y455626D01*
X513242Y455765D01*
X512715Y455987D01*
X512215Y456265D01*
X511743Y456654D01*
Y456681D01*
X511687Y456709D01*
X511632Y456792D01*
X511549Y456876D01*
X511465Y457015D01*
X511382Y457154D01*
X511271Y457348D01*
X511160Y457542D01*
X511049Y457792D01*
X510938Y458070D01*
X510854Y458375D01*
X510771Y458709D01*
X510688Y459070D01*
X510632Y459458D01*
X510604Y459903D01*
X510576Y460347D01*
Y471038D01*
X507799D01*
Y473399D01*
X510576D01*
Y477648D01*
X513798D01*
Y473399D01*
D02*
G37*
G36*
X470532Y473704D02*
X470782D01*
X471088Y473649D01*
X471449Y473593D01*
X471837Y473510D01*
X472282Y473427D01*
X472726Y473288D01*
X473198Y473121D01*
X473670Y472899D01*
X474142Y472677D01*
X474642Y472371D01*
X475086Y472038D01*
X475531Y471650D01*
X475947Y471205D01*
X475975Y471177D01*
X476031Y471094D01*
X476142Y470955D01*
X476281Y470761D01*
X476447Y470511D01*
X476614Y470205D01*
X476808Y469872D01*
X477030Y469456D01*
X477225Y469011D01*
X477419Y468539D01*
X477586Y468012D01*
X477752Y467428D01*
X477891Y466818D01*
X478002Y466179D01*
X478058Y465485D01*
X478086Y464762D01*
Y464401D01*
Y464346D01*
Y464235D01*
Y464013D01*
X478058Y463763D01*
X478030Y463430D01*
X477975Y463041D01*
X477919Y462597D01*
X477836Y462124D01*
X477725Y461624D01*
X477558Y461125D01*
X477391Y460569D01*
X477197Y460042D01*
X476947Y459514D01*
X476669Y458986D01*
X476336Y458459D01*
X475975Y457987D01*
X475947Y457959D01*
X475892Y457876D01*
X475753Y457764D01*
X475586Y457598D01*
X475364Y457404D01*
X475114Y457209D01*
X474809Y456959D01*
X474475Y456737D01*
X474087Y456515D01*
X473642Y456293D01*
X473170Y456071D01*
X472671Y455876D01*
X472115Y455710D01*
X471532Y455598D01*
X470893Y455515D01*
X470227Y455487D01*
X470060D01*
X469866Y455515D01*
X469616D01*
X469310Y455571D01*
X468949Y455626D01*
X468561Y455710D01*
X468116Y455793D01*
X467672Y455932D01*
X467200Y456098D01*
X466728Y456293D01*
X466228Y456543D01*
X465756Y456820D01*
X465284Y457154D01*
X464839Y457542D01*
X464423Y457987D01*
X464395Y458014D01*
X464339Y458098D01*
X464228Y458237D01*
X464089Y458431D01*
X463923Y458681D01*
X463756Y458986D01*
X463562Y459320D01*
X463368Y459736D01*
X463173Y460181D01*
X462979Y460653D01*
X462812Y461180D01*
X462645Y461736D01*
X462507Y462347D01*
X462396Y463013D01*
X462340Y463680D01*
X462312Y464401D01*
Y464762D01*
Y464818D01*
Y464929D01*
X462340Y465151D01*
Y465401D01*
X462368Y465762D01*
X462423Y466123D01*
X462479Y466568D01*
X462590Y467040D01*
X462701Y467540D01*
X462840Y468067D01*
X463006Y468595D01*
X463201Y469122D01*
X463451Y469678D01*
X463729Y470205D01*
X464062Y470705D01*
X464423Y471205D01*
X464451Y471233D01*
X464534Y471316D01*
X464645Y471427D01*
X464812Y471594D01*
X465034Y471788D01*
X465284Y472011D01*
X465589Y472233D01*
X465950Y472483D01*
X466339Y472705D01*
X466755Y472927D01*
X467228Y473149D01*
X467755Y473344D01*
X468311Y473510D01*
X468894Y473621D01*
X469505Y473704D01*
X470171Y473732D01*
X470338D01*
X470532Y473704D01*
D02*
G37*
G36*
X377975D02*
X378225D01*
X378530Y473649D01*
X378891Y473593D01*
X379280Y473510D01*
X379724Y473427D01*
X380169Y473288D01*
X380641Y473121D01*
X381113Y472899D01*
X381585Y472677D01*
X382085Y472371D01*
X382529Y472038D01*
X382973Y471650D01*
X383390Y471205D01*
X383418Y471177D01*
X383473Y471094D01*
X383584Y470955D01*
X383723Y470761D01*
X383890Y470511D01*
X384056Y470205D01*
X384251Y469872D01*
X384473Y469456D01*
X384667Y469011D01*
X384862Y468539D01*
X385028Y468012D01*
X385195Y467428D01*
X385334Y466818D01*
X385445Y466179D01*
X385500Y465485D01*
X385528Y464762D01*
Y464401D01*
Y464346D01*
Y464235D01*
Y464013D01*
X385500Y463763D01*
X385473Y463430D01*
X385417Y463041D01*
X385362Y462597D01*
X385278Y462124D01*
X385167Y461624D01*
X385001Y461125D01*
X384834Y460569D01*
X384640Y460042D01*
X384390Y459514D01*
X384112Y458986D01*
X383779Y458459D01*
X383418Y457987D01*
X383390Y457959D01*
X383334Y457876D01*
X383195Y457764D01*
X383029Y457598D01*
X382807Y457404D01*
X382557Y457209D01*
X382251Y456959D01*
X381918Y456737D01*
X381529Y456515D01*
X381085Y456293D01*
X380613Y456071D01*
X380113Y455876D01*
X379558Y455710D01*
X378975Y455598D01*
X378336Y455515D01*
X377669Y455487D01*
X377503D01*
X377308Y455515D01*
X377058D01*
X376753Y455571D01*
X376392Y455626D01*
X376003Y455710D01*
X375559Y455793D01*
X375114Y455932D01*
X374642Y456098D01*
X374170Y456293D01*
X373670Y456543D01*
X373198Y456820D01*
X372726Y457154D01*
X372282Y457542D01*
X371865Y457987D01*
X371838Y458014D01*
X371782Y458098D01*
X371671Y458237D01*
X371532Y458431D01*
X371365Y458681D01*
X371199Y458986D01*
X371005Y459320D01*
X370810Y459736D01*
X370616Y460181D01*
X370421Y460653D01*
X370255Y461180D01*
X370088Y461736D01*
X369949Y462347D01*
X369838Y463013D01*
X369783Y463680D01*
X369755Y464401D01*
Y464762D01*
Y464818D01*
Y464929D01*
X369783Y465151D01*
Y465401D01*
X369810Y465762D01*
X369866Y466123D01*
X369921Y466568D01*
X370033Y467040D01*
X370144Y467540D01*
X370283Y468067D01*
X370449Y468595D01*
X370643Y469122D01*
X370893Y469678D01*
X371171Y470205D01*
X371504Y470705D01*
X371865Y471205D01*
X371893Y471233D01*
X371976Y471316D01*
X372088Y471427D01*
X372254Y471594D01*
X372476Y471788D01*
X372726Y472011D01*
X373032Y472233D01*
X373393Y472483D01*
X373781Y472705D01*
X374198Y472927D01*
X374670Y473149D01*
X375198Y473344D01*
X375753Y473510D01*
X376336Y473621D01*
X376947Y473704D01*
X377614Y473732D01*
X377780D01*
X377975Y473704D01*
D02*
G37*
G36*
X584820Y450722D02*
X585125Y450694D01*
X585514Y450639D01*
X585958Y450583D01*
X586403Y450500D01*
X586902Y450389D01*
X587402Y450222D01*
X587930Y450056D01*
X588430Y449861D01*
X588957Y449611D01*
X589457Y449333D01*
X589929Y449000D01*
X590374Y448639D01*
X590401Y448611D01*
X590485Y448556D01*
X590596Y448417D01*
X590735Y448250D01*
X590901Y448056D01*
X591096Y447806D01*
X591318Y447501D01*
X591512Y447167D01*
X591734Y446806D01*
X591929Y446418D01*
X592123Y445973D01*
X592290Y445501D01*
X592429Y444974D01*
X592540Y444446D01*
X592595Y443863D01*
X592623Y443280D01*
X592595Y443169D01*
X589513D01*
Y443196D01*
Y443252D01*
Y443391D01*
X589485Y443530D01*
X589457Y443724D01*
X589429Y443918D01*
X589346Y444446D01*
X589180Y445001D01*
X588930Y445612D01*
X588763Y445918D01*
X588569Y446223D01*
X588346Y446501D01*
X588097Y446779D01*
X588069Y446806D01*
X588041Y446834D01*
X587958Y446917D01*
X587847Y447001D01*
X587708Y447112D01*
X587513Y447223D01*
X587319Y447362D01*
X587097Y447501D01*
X586819Y447640D01*
X586514Y447778D01*
X586208Y447890D01*
X585847Y448001D01*
X585458Y448084D01*
X585070Y448167D01*
X584625Y448195D01*
X584153Y448223D01*
X583903D01*
X583709Y448195D01*
X583459Y448167D01*
X583209Y448112D01*
X582903Y448056D01*
X582598Y447973D01*
X582237Y447862D01*
X581876Y447723D01*
X581515Y447556D01*
X581154Y447362D01*
X580793Y447140D01*
X580432Y446862D01*
X580099Y446557D01*
X579766Y446196D01*
X579738Y446168D01*
X579682Y446112D01*
X579599Y446001D01*
X579516Y445834D01*
X579377Y445640D01*
X579238Y445390D01*
X579099Y445113D01*
X578932Y444779D01*
X578766Y444446D01*
X578627Y444057D01*
X578488Y443613D01*
X578349Y443169D01*
X578266Y442669D01*
X578183Y442141D01*
X578127Y441613D01*
X578099Y441030D01*
Y436115D01*
Y436087D01*
Y435976D01*
Y435810D01*
X578127Y435587D01*
X578155Y435337D01*
X578183Y435004D01*
X578238Y434671D01*
X578321Y434282D01*
X578516Y433477D01*
X578682Y433033D01*
X578849Y432588D01*
X579043Y432172D01*
X579266Y431727D01*
X579543Y431311D01*
X579849Y430922D01*
X579877Y430894D01*
X579932Y430839D01*
X580043Y430728D01*
X580182Y430589D01*
X580349Y430450D01*
X580543Y430283D01*
X580793Y430089D01*
X581071Y429894D01*
X581376Y429700D01*
X581737Y429506D01*
X582098Y429339D01*
X582487Y429200D01*
X582931Y429061D01*
X583376Y428950D01*
X583848Y428895D01*
X584347Y428867D01*
X584708D01*
X584875Y428895D01*
X585070D01*
X585569Y428950D01*
X586097Y429006D01*
X586652Y429089D01*
X587180Y429228D01*
X587680Y429422D01*
X587708D01*
X587736Y429450D01*
X587874Y429533D01*
X588097Y429645D01*
X588374Y429783D01*
X588652Y429978D01*
X588957Y430200D01*
X589263Y430450D01*
X589513Y430728D01*
Y436060D01*
X584153D01*
Y438559D01*
X592734D01*
Y429894D01*
Y429867D01*
X592706Y429839D01*
X592567Y429672D01*
X592345Y429422D01*
X592040Y429117D01*
X591651Y428728D01*
X591123Y428339D01*
X590513Y427895D01*
X590179Y427701D01*
X589790Y427479D01*
X589763D01*
X589707Y427423D01*
X589568Y427367D01*
X589402Y427312D01*
X589207Y427229D01*
X588957Y427145D01*
X588652Y427034D01*
X588319Y426951D01*
X587958Y426840D01*
X587541Y426729D01*
X587097Y426645D01*
X586625Y426562D01*
X586097Y426507D01*
X585542Y426451D01*
X584959Y426396D01*
X584181D01*
X583959Y426423D01*
X583681Y426451D01*
X583320Y426479D01*
X582903Y426534D01*
X582459Y426618D01*
X581959Y426729D01*
X581460Y426868D01*
X580904Y427062D01*
X580349Y427284D01*
X579766Y427534D01*
X579210Y427840D01*
X578627Y428200D01*
X578099Y428617D01*
X577572Y429089D01*
X577544Y429117D01*
X577461Y429228D01*
X577322Y429367D01*
X577155Y429589D01*
X576961Y429839D01*
X576711Y430172D01*
X576489Y430561D01*
X576239Y430977D01*
X575961Y431477D01*
X575739Y432005D01*
X575517Y432588D01*
X575294Y433199D01*
X575128Y433866D01*
X574989Y434588D01*
X574906Y435337D01*
X574878Y436115D01*
Y441003D01*
Y441058D01*
Y441197D01*
X574906Y441419D01*
Y441724D01*
X574961Y442086D01*
X575017Y442502D01*
X575100Y442974D01*
X575211Y443502D01*
X575350Y444029D01*
X575517Y444613D01*
X575711Y445196D01*
X575961Y445779D01*
X576266Y446362D01*
X576600Y446945D01*
X577016Y447501D01*
X577461Y448028D01*
X577488Y448056D01*
X577572Y448139D01*
X577738Y448278D01*
X577933Y448445D01*
X578183Y448667D01*
X578516Y448889D01*
X578877Y449139D01*
X579266Y449389D01*
X579738Y449639D01*
X580238Y449889D01*
X580793Y450111D01*
X581376Y450333D01*
X582015Y450500D01*
X582681Y450639D01*
X583403Y450722D01*
X584153Y450750D01*
X584542D01*
X584820Y450722D01*
D02*
G37*
G36*
X363993Y444613D02*
X364243Y444585D01*
X364298D01*
X364437Y444557D01*
X364603Y444529D01*
X364770Y444474D01*
X364326Y441502D01*
X362687Y441586D01*
X362465D01*
X362243Y441558D01*
X361938Y441502D01*
X361604Y441447D01*
X361243Y441336D01*
X360882Y441169D01*
X360549Y440975D01*
X360521Y440947D01*
X360410Y440864D01*
X360244Y440725D01*
X360049Y440558D01*
X359855Y440308D01*
X359633Y440003D01*
X359411Y439670D01*
X359216Y439281D01*
Y426729D01*
X355995D01*
Y444307D01*
X358855D01*
X359188Y441752D01*
Y441780D01*
X359216Y441808D01*
X359327Y441974D01*
X359494Y442224D01*
X359688Y442530D01*
X359966Y442863D01*
X360271Y443224D01*
X360632Y443557D01*
X361021Y443863D01*
X361077Y443891D01*
X361216Y443974D01*
X361438Y444113D01*
X361743Y444252D01*
X362132Y444390D01*
X362548Y444529D01*
X363021Y444613D01*
X363548Y444640D01*
X363770D01*
X363993Y444613D01*
D02*
G37*
G36*
X449219D02*
X449441Y444585D01*
X449719Y444557D01*
X450024Y444501D01*
X450357Y444446D01*
X451052Y444224D01*
X451440Y444113D01*
X451801Y443946D01*
X452162Y443752D01*
X452496Y443530D01*
X452829Y443280D01*
X453134Y442974D01*
X453162Y442946D01*
X453190Y442891D01*
X453273Y442808D01*
X453384Y442669D01*
X453495Y442474D01*
X453634Y442252D01*
X453773Y442002D01*
X453940Y441697D01*
X454078Y441363D01*
X454217Y440975D01*
X454356Y440558D01*
X454467Y440114D01*
X454578Y439614D01*
X454662Y439059D01*
X454689Y438475D01*
X454717Y437837D01*
Y426729D01*
X451496D01*
Y437753D01*
Y437781D01*
Y437864D01*
Y437976D01*
Y438142D01*
X451468Y438337D01*
X451440Y438531D01*
X451385Y439031D01*
X451274Y439586D01*
X451107Y440142D01*
X450885Y440641D01*
X450746Y440864D01*
X450579Y441058D01*
X450524Y441114D01*
X450413Y441225D01*
X450191Y441363D01*
X449885Y441558D01*
X449496Y441724D01*
X449024Y441891D01*
X448441Y442002D01*
X447775Y442030D01*
X447525D01*
X447247Y442002D01*
X446914Y441947D01*
X446525Y441891D01*
X446081Y441780D01*
X445664Y441641D01*
X445248Y441447D01*
X445192Y441419D01*
X445081Y441336D01*
X444887Y441197D01*
X444664Y441030D01*
X444415Y440780D01*
X444137Y440503D01*
X443887Y440169D01*
X443637Y439781D01*
Y426729D01*
X440416D01*
Y444307D01*
X443276D01*
X443526Y441697D01*
Y441724D01*
X443554Y441752D01*
X443692Y441919D01*
X443859Y442197D01*
X444137Y442502D01*
X444442Y442835D01*
X444803Y443196D01*
X445248Y443557D01*
X445720Y443863D01*
X445748D01*
X445775Y443891D01*
X445858Y443946D01*
X445942Y443974D01*
X446219Y444113D01*
X446608Y444252D01*
X447053Y444390D01*
X447552Y444529D01*
X448136Y444613D01*
X448747Y444640D01*
X449024D01*
X449219Y444613D01*
D02*
G37*
G36*
X616172Y426729D02*
X612978D01*
Y437170D01*
X601482D01*
Y426729D01*
X598260D01*
Y450417D01*
X601482D01*
Y439697D01*
X612978D01*
Y450417D01*
X616172D01*
Y426729D01*
D02*
G37*
G36*
X466853Y444613D02*
X467103Y444585D01*
X467380Y444557D01*
X467713Y444501D01*
X468075Y444418D01*
X468824Y444196D01*
X469241Y444057D01*
X469630Y443863D01*
X470046Y443668D01*
X470435Y443419D01*
X470824Y443141D01*
X471185Y442808D01*
X471213Y442780D01*
X471268Y442724D01*
X471351Y442613D01*
X471490Y442474D01*
X471629Y442308D01*
X471768Y442086D01*
X471935Y441863D01*
X472129Y441586D01*
X472296Y441252D01*
X472462Y440919D01*
X472601Y440558D01*
X472740Y440169D01*
X472851Y439753D01*
X472934Y439309D01*
X472990Y438836D01*
Y438337D01*
X472962Y438253D01*
X470046D01*
Y438281D01*
Y438337D01*
Y438420D01*
X470018Y438531D01*
X469991Y438809D01*
X469907Y439197D01*
X469796Y439614D01*
X469602Y440086D01*
X469352Y440530D01*
X468991Y440975D01*
X468935Y441030D01*
X468797Y441141D01*
X468574Y441336D01*
X468269Y441558D01*
X467908Y441752D01*
X467436Y441947D01*
X466936Y442058D01*
X466353Y442113D01*
X466131D01*
X465964Y442086D01*
X465770Y442058D01*
X465548Y442030D01*
X465048Y441891D01*
X464464Y441669D01*
X464187Y441530D01*
X463909Y441336D01*
X463631Y441141D01*
X463381Y440891D01*
X463132Y440614D01*
X462909Y440280D01*
Y440253D01*
X462854Y440197D01*
X462798Y440086D01*
X462743Y439947D01*
X462659Y439781D01*
X462576Y439586D01*
X462465Y439336D01*
X462382Y439059D01*
X462271Y438753D01*
X462159Y438420D01*
X461993Y437670D01*
X461882Y436809D01*
X461826Y435865D01*
Y435171D01*
Y435143D01*
Y435060D01*
Y434921D01*
X461854Y434726D01*
Y434504D01*
X461882Y434227D01*
X461910Y433949D01*
X461965Y433616D01*
X462076Y432921D01*
X462271Y432172D01*
X462521Y431422D01*
X462882Y430700D01*
Y430672D01*
X462937Y430617D01*
X462993Y430533D01*
X463076Y430422D01*
X463354Y430117D01*
X463520Y429950D01*
X463715Y429783D01*
X463937Y429617D01*
X464215Y429450D01*
X464492Y429284D01*
X464798Y429145D01*
X465159Y429034D01*
X465520Y428950D01*
X465908Y428895D01*
X466353Y428867D01*
X466492D01*
X466603Y428895D01*
X466880Y428923D01*
X467241Y428978D01*
X467630Y429117D01*
X468075Y429284D01*
X468519Y429506D01*
X468935Y429839D01*
X468991Y429894D01*
X469102Y430006D01*
X469296Y430228D01*
X469491Y430533D01*
X469685Y430866D01*
X469880Y431283D01*
X469991Y431755D01*
X470046Y432283D01*
X472962D01*
X472990Y432172D01*
Y432144D01*
Y432061D01*
Y431950D01*
X472962Y431783D01*
X472934Y431589D01*
X472906Y431366D01*
X472851Y431089D01*
X472768Y430811D01*
X472684Y430506D01*
X472545Y430200D01*
X472407Y429867D01*
X472212Y429506D01*
X471990Y429173D01*
X471712Y428812D01*
X471407Y428478D01*
X471046Y428145D01*
X471018Y428117D01*
X470963Y428062D01*
X470852Y427978D01*
X470685Y427867D01*
X470491Y427728D01*
X470268Y427590D01*
X469991Y427423D01*
X469713Y427284D01*
X469380Y427117D01*
X469019Y426951D01*
X468213Y426673D01*
X467769Y426562D01*
X467325Y426479D01*
X466853Y426423D01*
X466353Y426396D01*
X466186D01*
X465992Y426423D01*
X465742D01*
X465436Y426479D01*
X465075Y426534D01*
X464687Y426618D01*
X464242Y426701D01*
X463798Y426840D01*
X463326Y427006D01*
X462854Y427201D01*
X462382Y427451D01*
X461910Y427728D01*
X461465Y428062D01*
X461021Y428450D01*
X460632Y428895D01*
X460604Y428923D01*
X460549Y429006D01*
X460438Y429145D01*
X460327Y429339D01*
X460160Y429589D01*
X459994Y429894D01*
X459799Y430228D01*
X459632Y430617D01*
X459438Y431061D01*
X459244Y431533D01*
X459077Y432061D01*
X458910Y432616D01*
X458799Y433199D01*
X458688Y433838D01*
X458633Y434477D01*
X458605Y435171D01*
Y435865D01*
Y435921D01*
Y436032D01*
X458633Y436226D01*
Y436476D01*
X458661Y436809D01*
X458716Y437170D01*
X458772Y437587D01*
X458855Y438031D01*
X458966Y438531D01*
X459105Y439031D01*
X459271Y439559D01*
X459466Y440058D01*
X459688Y440586D01*
X459966Y441114D01*
X460271Y441641D01*
X460632Y442113D01*
X460660Y442141D01*
X460715Y442224D01*
X460854Y442336D01*
X461021Y442502D01*
X461215Y442697D01*
X461465Y442919D01*
X461771Y443141D01*
X462104Y443391D01*
X462493Y443613D01*
X462909Y443835D01*
X463381Y444057D01*
X463909Y444252D01*
X464464Y444418D01*
X465048Y444529D01*
X465686Y444613D01*
X466353Y444640D01*
X466631D01*
X466853Y444613D01*
D02*
G37*
G36*
X483348Y424035D02*
Y424007D01*
X483320Y423952D01*
X483292Y423868D01*
X483237Y423730D01*
X483154Y423591D01*
X483070Y423396D01*
X482848Y422980D01*
X482598Y422508D01*
X482265Y421980D01*
X481876Y421452D01*
X481432Y420953D01*
Y420925D01*
X481376Y420897D01*
X481293Y420842D01*
X481210Y420758D01*
X480932Y420536D01*
X480543Y420286D01*
X480071Y420036D01*
X479488Y419842D01*
X478822Y419675D01*
X478461Y419647D01*
X478072Y419620D01*
X477905D01*
X477794Y419647D01*
X477655D01*
X477489Y419675D01*
X477072Y419731D01*
X477044D01*
X476989Y419759D01*
X476878D01*
X476739Y419786D01*
X476433Y419842D01*
X476156Y419897D01*
X476489Y422424D01*
X476683D01*
X476822Y422397D01*
X477155D01*
X477266Y422369D01*
X477405D01*
X477711Y422341D01*
X477961D01*
X478072Y422369D01*
X478266Y422397D01*
X478488Y422452D01*
X478766Y422563D01*
X479044Y422730D01*
X479321Y422952D01*
X479571Y423257D01*
X479599Y423285D01*
X479682Y423424D01*
X479794Y423591D01*
X479960Y423841D01*
X480127Y424146D01*
X480321Y424479D01*
X480515Y424840D01*
X480682Y425257D01*
X481432Y427062D01*
X474906Y444307D01*
X478488D01*
X482182Y433227D01*
X482765Y431033D01*
X482848D01*
X487180Y444307D01*
X490735D01*
X483348Y424035D01*
D02*
G37*
G36*
X418311Y426729D02*
X415423D01*
X415228Y429311D01*
Y429284D01*
X415201Y429256D01*
X415089Y429089D01*
X414895Y428812D01*
X414645Y428506D01*
X414340Y428173D01*
X413979Y427812D01*
X413562Y427451D01*
X413090Y427145D01*
X413062D01*
X413034Y427117D01*
X412951Y427090D01*
X412868Y427034D01*
X412590Y426895D01*
X412229Y426784D01*
X411785Y426645D01*
X411285Y426507D01*
X410702Y426423D01*
X410091Y426396D01*
X409813D01*
X409619Y426423D01*
X409369Y426451D01*
X409091Y426507D01*
X408786Y426562D01*
X408452Y426618D01*
X407730Y426840D01*
X407342Y426979D01*
X406981Y427173D01*
X406620Y427367D01*
X406258Y427617D01*
X405898Y427895D01*
X405592Y428228D01*
X405564Y428256D01*
X405537Y428312D01*
X405453Y428423D01*
X405342Y428589D01*
X405231Y428784D01*
X405092Y429006D01*
X404926Y429311D01*
X404787Y429645D01*
X404648Y430006D01*
X404481Y430422D01*
X404342Y430894D01*
X404231Y431422D01*
X404120Y431977D01*
X404065Y432588D01*
X404009Y433255D01*
X403981Y433949D01*
Y444307D01*
X407175D01*
Y433893D01*
Y433866D01*
Y433782D01*
Y433616D01*
X407203Y433449D01*
Y433199D01*
X407231Y432949D01*
X407286Y432366D01*
X407369Y431727D01*
X407536Y431089D01*
X407730Y430506D01*
X407869Y430256D01*
X408008Y430033D01*
X408036Y429978D01*
X408175Y429867D01*
X408369Y429700D01*
X408647Y429506D01*
X409008Y429311D01*
X409452Y429145D01*
X409980Y429034D01*
X410591Y428978D01*
X410868D01*
X411202Y429006D01*
X411590Y429061D01*
X412035Y429145D01*
X412507Y429284D01*
X412979Y429450D01*
X413423Y429672D01*
X413479Y429700D01*
X413618Y429811D01*
X413812Y429950D01*
X414062Y430172D01*
X414340Y430450D01*
X414617Y430783D01*
X414867Y431172D01*
X415117Y431616D01*
Y444307D01*
X418311D01*
Y426729D01*
D02*
G37*
G36*
X561965Y447556D02*
X552829D01*
X552051Y440753D01*
X552079Y440780D01*
X552190Y440836D01*
X552356Y440947D01*
X552551Y441086D01*
X552801Y441225D01*
X553106Y441363D01*
X553412Y441530D01*
X553745Y441669D01*
X553800Y441697D01*
X553912Y441724D01*
X554106Y441780D01*
X554356Y441863D01*
X554661Y441919D01*
X555022Y441974D01*
X555411Y442030D01*
X555856Y442058D01*
X556161D01*
X556411Y442030D01*
X556661Y442002D01*
X556994Y441947D01*
X557355Y441891D01*
X557716Y441808D01*
X558133Y441697D01*
X558549Y441558D01*
X558966Y441391D01*
X559410Y441197D01*
X559827Y440975D01*
X560243Y440697D01*
X560632Y440364D01*
X560993Y440003D01*
X561021Y439975D01*
X561076Y439920D01*
X561160Y439781D01*
X561298Y439614D01*
X561437Y439420D01*
X561604Y439142D01*
X561770Y438836D01*
X561937Y438503D01*
X562104Y438114D01*
X562298Y437698D01*
X562437Y437226D01*
X562576Y436698D01*
X562715Y436143D01*
X562798Y435560D01*
X562853Y434921D01*
X562881Y434254D01*
Y434227D01*
Y434088D01*
Y433921D01*
X562853Y433671D01*
X562826Y433366D01*
X562770Y433005D01*
X562715Y432616D01*
X562631Y432199D01*
X562548Y431755D01*
X562409Y431283D01*
X562270Y430811D01*
X562076Y430339D01*
X561854Y429867D01*
X561604Y429395D01*
X561298Y428950D01*
X560965Y428534D01*
X560937Y428506D01*
X560882Y428450D01*
X560771Y428339D01*
X560604Y428200D01*
X560410Y428034D01*
X560160Y427867D01*
X559882Y427673D01*
X559549Y427479D01*
X559188Y427256D01*
X558771Y427062D01*
X558299Y426895D01*
X557799Y426729D01*
X557272Y426590D01*
X556689Y426479D01*
X556050Y426423D01*
X555383Y426396D01*
X555106D01*
X554884Y426423D01*
X554634Y426451D01*
X554328Y426479D01*
X553995Y426534D01*
X553634Y426590D01*
X552856Y426784D01*
X552440Y426923D01*
X552023Y427090D01*
X551579Y427284D01*
X551162Y427506D01*
X550774Y427756D01*
X550385Y428034D01*
X550357Y428062D01*
X550302Y428117D01*
X550190Y428200D01*
X550079Y428339D01*
X549913Y428506D01*
X549746Y428728D01*
X549579Y428978D01*
X549385Y429256D01*
X549219Y429561D01*
X549052Y429922D01*
X548885Y430311D01*
X548746Y430755D01*
X548607Y431227D01*
X548524Y431727D01*
X548469Y432255D01*
Y432838D01*
X548496Y432949D01*
X551384D01*
Y432921D01*
Y432866D01*
Y432755D01*
X551412Y432616D01*
Y432477D01*
X551440Y432283D01*
X551523Y431838D01*
X551662Y431366D01*
X551857Y430866D01*
X552134Y430367D01*
X552495Y429922D01*
X552551Y429867D01*
X552690Y429756D01*
X552940Y429589D01*
X553273Y429395D01*
X553689Y429200D01*
X554189Y429034D01*
X554745Y428923D01*
X555383Y428867D01*
X555578D01*
X555717Y428895D01*
X555883Y428923D01*
X556078Y428950D01*
X556550Y429061D01*
X557050Y429228D01*
X557577Y429478D01*
X557827Y429645D01*
X558077Y429839D01*
X558299Y430061D01*
X558521Y430311D01*
Y430339D01*
X558577Y430367D01*
X558633Y430450D01*
X558688Y430589D01*
X558799Y430728D01*
X558882Y430894D01*
X558993Y431116D01*
X559105Y431339D01*
X559188Y431616D01*
X559299Y431894D01*
X559493Y432560D01*
X559605Y433338D01*
X559660Y434227D01*
Y434254D01*
Y434338D01*
Y434449D01*
X559632Y434615D01*
Y434810D01*
X559605Y435032D01*
X559521Y435532D01*
X559382Y436115D01*
X559188Y436726D01*
X558910Y437337D01*
X558521Y437892D01*
Y437920D01*
X558466Y437948D01*
X558327Y438114D01*
X558077Y438337D01*
X557716Y438587D01*
X557272Y438836D01*
X556716Y439059D01*
X556105Y439225D01*
X555744Y439253D01*
X555383Y439281D01*
X555078D01*
X554745Y439253D01*
X554328Y439197D01*
X553884Y439142D01*
X553440Y439031D01*
X552995Y438892D01*
X552634Y438698D01*
X552606Y438670D01*
X552495Y438587D01*
X552356Y438448D01*
X552162Y438281D01*
X551968Y438031D01*
X551773Y437726D01*
X551579Y437392D01*
X551412Y436976D01*
X548746Y437254D01*
X550107Y450417D01*
X561965D01*
Y447556D01*
D02*
G37*
G36*
X633917Y442141D02*
X624281Y429228D01*
X634445D01*
Y426729D01*
X620476D01*
Y428950D01*
X629974Y441780D01*
X620587D01*
Y444307D01*
X633917D01*
Y442141D01*
D02*
G37*
G36*
X542804Y426729D02*
X539610D01*
Y430006D01*
X542804D01*
Y426729D01*
D02*
G37*
G36*
X511062D02*
X507841D01*
Y447445D01*
X502676Y447390D01*
Y449861D01*
X511062Y450750D01*
Y426729D01*
D02*
G37*
G36*
X352912Y447890D02*
X341277D01*
Y439725D01*
X351246D01*
Y437198D01*
X341277D01*
Y426729D01*
X338055D01*
Y450417D01*
X352912D01*
Y447890D01*
D02*
G37*
G36*
X527919Y450722D02*
X528169D01*
X528446Y450667D01*
X528780Y450639D01*
X529169Y450555D01*
X529585Y450444D01*
X530002Y450333D01*
X530474Y450167D01*
X530918Y449972D01*
X531390Y449750D01*
X531835Y449472D01*
X532279Y449167D01*
X532723Y448806D01*
X533112Y448389D01*
X533140Y448362D01*
X533195Y448278D01*
X533306Y448139D01*
X533445Y447973D01*
X533584Y447723D01*
X533751Y447445D01*
X533945Y447084D01*
X534139Y446723D01*
X534334Y446279D01*
X534528Y445807D01*
X534695Y445279D01*
X534834Y444724D01*
X534972Y444113D01*
X535084Y443446D01*
X535139Y442752D01*
X535167Y442030D01*
Y435087D01*
Y435032D01*
Y434921D01*
Y434699D01*
X535139Y434421D01*
X535111Y434088D01*
X535056Y433699D01*
X535000Y433255D01*
X534917Y432783D01*
X534806Y432283D01*
X534667Y431755D01*
X534500Y431227D01*
X534306Y430700D01*
X534056Y430172D01*
X533778Y429672D01*
X533473Y429173D01*
X533112Y428728D01*
X533084Y428700D01*
X533029Y428617D01*
X532890Y428506D01*
X532751Y428367D01*
X532529Y428200D01*
X532279Y427978D01*
X532001Y427784D01*
X531668Y427562D01*
X531307Y427340D01*
X530890Y427145D01*
X530446Y426951D01*
X529946Y426756D01*
X529419Y426618D01*
X528863Y426507D01*
X528280Y426423D01*
X527641Y426396D01*
X527502D01*
X527308Y426423D01*
X527086D01*
X526780Y426479D01*
X526447Y426507D01*
X526058Y426590D01*
X525669Y426701D01*
X525225Y426812D01*
X524781Y426979D01*
X524337Y427145D01*
X523865Y427367D01*
X523420Y427645D01*
X522976Y427951D01*
X522532Y428312D01*
X522143Y428728D01*
X522115Y428756D01*
X522059Y428839D01*
X521948Y428978D01*
X521809Y429145D01*
X521671Y429395D01*
X521504Y429672D01*
X521310Y430006D01*
X521115Y430394D01*
X520921Y430839D01*
X520726Y431311D01*
X520560Y431838D01*
X520421Y432394D01*
X520282Y433005D01*
X520171Y433671D01*
X520116Y434366D01*
X520088Y435087D01*
Y442030D01*
Y442086D01*
Y442197D01*
X520116Y442419D01*
Y442697D01*
X520143Y443030D01*
X520199Y443419D01*
X520254Y443863D01*
X520338Y444335D01*
X520449Y444835D01*
X520588Y445335D01*
X520754Y445862D01*
X520949Y446390D01*
X521171Y446917D01*
X521449Y447445D01*
X521754Y447917D01*
X522115Y448389D01*
X522143Y448417D01*
X522198Y448500D01*
X522337Y448611D01*
X522504Y448750D01*
X522698Y448945D01*
X522948Y449139D01*
X523226Y449361D01*
X523559Y449583D01*
X523948Y449778D01*
X524364Y450000D01*
X524809Y450194D01*
X525281Y450389D01*
X525808Y450528D01*
X526364Y450639D01*
X526975Y450722D01*
X527586Y450750D01*
X527752D01*
X527919Y450722D01*
D02*
G37*
G36*
X430363Y444613D02*
X430641Y444585D01*
X431002Y444529D01*
X431363Y444446D01*
X431751Y444363D01*
X432196Y444252D01*
X432612Y444113D01*
X433057Y443918D01*
X433501Y443724D01*
X433917Y443474D01*
X434334Y443169D01*
X434723Y442835D01*
X435056Y442447D01*
X435084Y442419D01*
X435139Y442336D01*
X435223Y442224D01*
X435334Y442058D01*
X435473Y441836D01*
X435611Y441558D01*
X435778Y441252D01*
X435945Y440891D01*
X436111Y440503D01*
X436278Y440058D01*
X436417Y439586D01*
X436556Y439059D01*
X436667Y438503D01*
X436750Y437920D01*
X436805Y437281D01*
X436833Y436615D01*
Y434921D01*
X425559D01*
X425531Y434838D01*
Y434810D01*
Y434726D01*
Y434588D01*
X425559Y434393D01*
Y434171D01*
X425586Y433893D01*
X425642Y433616D01*
X425670Y433310D01*
X425809Y432616D01*
X426031Y431894D01*
X426308Y431172D01*
X426697Y430506D01*
X426725Y430478D01*
X426753Y430422D01*
X426808Y430367D01*
X426919Y430256D01*
X427031Y430117D01*
X427197Y429978D01*
X427364Y429839D01*
X427586Y429700D01*
X427808Y429533D01*
X428086Y429395D01*
X428391Y429256D01*
X428697Y429117D01*
X429058Y429006D01*
X429447Y428950D01*
X429835Y428895D01*
X430280Y428867D01*
X430557D01*
X430863Y428895D01*
X431251Y428923D01*
X431668Y428978D01*
X432168Y429061D01*
X432640Y429173D01*
X433112Y429339D01*
X433140D01*
X433168Y429367D01*
X433334Y429422D01*
X433556Y429533D01*
X433862Y429672D01*
X434195Y429867D01*
X434556Y430089D01*
X434917Y430339D01*
X435250Y430617D01*
X436500Y428534D01*
X436445Y428506D01*
X436333Y428395D01*
X436111Y428200D01*
X435834Y428006D01*
X435473Y427756D01*
X435056Y427506D01*
X434556Y427256D01*
X434001Y427006D01*
X433973D01*
X433917Y426979D01*
X433834Y426951D01*
X433723Y426923D01*
X433584Y426868D01*
X433390Y426812D01*
X433195Y426756D01*
X432945Y426701D01*
X432418Y426590D01*
X431779Y426479D01*
X431057Y426423D01*
X430280Y426396D01*
X430113D01*
X429919Y426423D01*
X429641D01*
X429335Y426479D01*
X428974Y426534D01*
X428558Y426590D01*
X428114Y426701D01*
X427641Y426840D01*
X427169Y426979D01*
X426670Y427173D01*
X426170Y427423D01*
X425670Y427701D01*
X425198Y428006D01*
X424753Y428395D01*
X424337Y428812D01*
X424309Y428839D01*
X424254Y428923D01*
X424142Y429061D01*
X424004Y429256D01*
X423837Y429506D01*
X423670Y429783D01*
X423476Y430117D01*
X423281Y430506D01*
X423087Y430950D01*
X422893Y431422D01*
X422726Y431950D01*
X422559Y432505D01*
X422421Y433116D01*
X422310Y433754D01*
X422254Y434449D01*
X422226Y435171D01*
Y435893D01*
Y435948D01*
Y436060D01*
X422254Y436254D01*
Y436531D01*
X422282Y436865D01*
X422337Y437226D01*
X422421Y437642D01*
X422504Y438114D01*
X422615Y438587D01*
X422754Y439086D01*
X422948Y439614D01*
X423143Y440142D01*
X423393Y440669D01*
X423698Y441197D01*
X424031Y441697D01*
X424420Y442169D01*
X424448Y442197D01*
X424531Y442280D01*
X424642Y442391D01*
X424809Y442558D01*
X425031Y442752D01*
X425281Y442946D01*
X425586Y443169D01*
X425920Y443419D01*
X426281Y443641D01*
X426697Y443863D01*
X427142Y444057D01*
X427614Y444252D01*
X428114Y444418D01*
X428641Y444529D01*
X429197Y444613D01*
X429780Y444640D01*
X430113D01*
X430363Y444613D01*
D02*
G37*
G36*
X375045D02*
X375323Y444585D01*
X375684Y444529D01*
X376045Y444446D01*
X376433Y444363D01*
X376878Y444252D01*
X377294Y444113D01*
X377739Y443918D01*
X378183Y443724D01*
X378600Y443474D01*
X379016Y443169D01*
X379405Y442835D01*
X379738Y442447D01*
X379766Y442419D01*
X379821Y442336D01*
X379905Y442224D01*
X380016Y442058D01*
X380155Y441836D01*
X380294Y441558D01*
X380460Y441252D01*
X380627Y440891D01*
X380793Y440503D01*
X380960Y440058D01*
X381099Y439586D01*
X381238Y439059D01*
X381349Y438503D01*
X381432Y437920D01*
X381488Y437281D01*
X381516Y436615D01*
Y434921D01*
X370241D01*
X370213Y434838D01*
Y434810D01*
Y434726D01*
Y434588D01*
X370241Y434393D01*
Y434171D01*
X370269Y433893D01*
X370324Y433616D01*
X370352Y433310D01*
X370491Y432616D01*
X370713Y431894D01*
X370991Y431172D01*
X371379Y430506D01*
X371407Y430478D01*
X371435Y430422D01*
X371491Y430367D01*
X371602Y430256D01*
X371713Y430117D01*
X371879Y429978D01*
X372046Y429839D01*
X372268Y429700D01*
X372490Y429533D01*
X372768Y429395D01*
X373073Y429256D01*
X373379Y429117D01*
X373740Y429006D01*
X374129Y428950D01*
X374517Y428895D01*
X374962Y428867D01*
X375239D01*
X375545Y428895D01*
X375934Y428923D01*
X376350Y428978D01*
X376850Y429061D01*
X377322Y429173D01*
X377794Y429339D01*
X377822D01*
X377850Y429367D01*
X378016Y429422D01*
X378239Y429533D01*
X378544Y429672D01*
X378877Y429867D01*
X379238Y430089D01*
X379599Y430339D01*
X379933Y430617D01*
X381182Y428534D01*
X381127Y428506D01*
X381016Y428395D01*
X380793Y428200D01*
X380516Y428006D01*
X380155Y427756D01*
X379738Y427506D01*
X379238Y427256D01*
X378683Y427006D01*
X378655D01*
X378600Y426979D01*
X378516Y426951D01*
X378405Y426923D01*
X378266Y426868D01*
X378072Y426812D01*
X377878Y426756D01*
X377628Y426701D01*
X377100Y426590D01*
X376461Y426479D01*
X375739Y426423D01*
X374962Y426396D01*
X374795D01*
X374601Y426423D01*
X374323D01*
X374018Y426479D01*
X373657Y426534D01*
X373240Y426590D01*
X372796Y426701D01*
X372324Y426840D01*
X371851Y426979D01*
X371352Y427173D01*
X370852Y427423D01*
X370352Y427701D01*
X369880Y428006D01*
X369436Y428395D01*
X369019Y428812D01*
X368991Y428839D01*
X368936Y428923D01*
X368825Y429061D01*
X368686Y429256D01*
X368519Y429506D01*
X368353Y429783D01*
X368158Y430117D01*
X367964Y430506D01*
X367769Y430950D01*
X367575Y431422D01*
X367408Y431950D01*
X367242Y432505D01*
X367103Y433116D01*
X366992Y433754D01*
X366936Y434449D01*
X366908Y435171D01*
Y435893D01*
Y435948D01*
Y436060D01*
X366936Y436254D01*
Y436531D01*
X366964Y436865D01*
X367020Y437226D01*
X367103Y437642D01*
X367186Y438114D01*
X367297Y438587D01*
X367436Y439086D01*
X367631Y439614D01*
X367825Y440142D01*
X368075Y440669D01*
X368380Y441197D01*
X368713Y441697D01*
X369102Y442169D01*
X369130Y442197D01*
X369213Y442280D01*
X369324Y442391D01*
X369491Y442558D01*
X369713Y442752D01*
X369963Y442946D01*
X370269Y443169D01*
X370602Y443419D01*
X370963Y443641D01*
X371379Y443863D01*
X371824Y444057D01*
X372296Y444252D01*
X372796Y444418D01*
X373323Y444529D01*
X373879Y444613D01*
X374462Y444640D01*
X374795D01*
X375045Y444613D01*
D02*
G37*
G36*
X391846D02*
X392235Y444557D01*
X392651Y444501D01*
X393151Y444390D01*
X393623Y444224D01*
X394095Y444029D01*
X394123D01*
X394151Y444002D01*
X394290Y443918D01*
X394540Y443780D01*
X394817Y443585D01*
X395150Y443335D01*
X395484Y443030D01*
X395845Y442697D01*
X396178Y442280D01*
X396622Y444307D01*
X399094D01*
Y419981D01*
X395872D01*
Y428367D01*
X395845Y428312D01*
X395734Y428200D01*
X395539Y428034D01*
X395317Y427812D01*
X395012Y427590D01*
X394678Y427340D01*
X394290Y427090D01*
X393873Y426895D01*
X393818Y426868D01*
X393679Y426812D01*
X393429Y426729D01*
X393123Y426645D01*
X392735Y426562D01*
X392290Y426479D01*
X391790Y426423D01*
X391235Y426396D01*
X391096D01*
X390930Y426423D01*
X390707D01*
X390430Y426479D01*
X390124Y426507D01*
X389763Y426590D01*
X389402Y426673D01*
X388986Y426812D01*
X388597Y426951D01*
X388153Y427145D01*
X387736Y427367D01*
X387319Y427645D01*
X386931Y427951D01*
X386542Y428284D01*
X386181Y428700D01*
X386153Y428728D01*
X386098Y428812D01*
X386014Y428950D01*
X385903Y429117D01*
X385764Y429367D01*
X385598Y429645D01*
X385459Y429978D01*
X385292Y430339D01*
X385098Y430755D01*
X384959Y431227D01*
X384792Y431727D01*
X384653Y432283D01*
X384542Y432866D01*
X384459Y433477D01*
X384403Y434143D01*
X384376Y434838D01*
Y435199D01*
Y435254D01*
Y435393D01*
Y435615D01*
X384403Y435893D01*
X384431Y436254D01*
X384459Y436670D01*
X384515Y437143D01*
X384598Y437642D01*
X384709Y438170D01*
X384820Y438725D01*
X384959Y439309D01*
X385126Y439864D01*
X385348Y440447D01*
X385598Y441003D01*
X385875Y441530D01*
X386181Y442030D01*
X386209Y442058D01*
X386264Y442141D01*
X386375Y442280D01*
X386514Y442447D01*
X386708Y442641D01*
X386931Y442863D01*
X387208Y443085D01*
X387514Y443335D01*
X387847Y443585D01*
X388236Y443807D01*
X388652Y444029D01*
X389097Y444224D01*
X389597Y444390D01*
X390124Y444529D01*
X390680Y444613D01*
X391263Y444640D01*
X391540D01*
X391846Y444613D01*
D02*
G37*
%LPC*%
G36*
X382515Y535859D02*
X376683D01*
Y526695D01*
X382737D01*
X382904Y526723D01*
X383126D01*
X383348Y526751D01*
X383876Y526862D01*
X384459Y527001D01*
X385070Y527223D01*
X385625Y527556D01*
X385875Y527750D01*
X386125Y527973D01*
X386153Y528000D01*
X386181Y528028D01*
X386236Y528111D01*
X386320Y528195D01*
X386514Y528500D01*
X386736Y528861D01*
X386931Y529333D01*
X387125Y529916D01*
X387264Y530555D01*
X387319Y530888D01*
Y531249D01*
Y531277D01*
Y531333D01*
Y531444D01*
X387292Y531583D01*
Y531749D01*
X387264Y531944D01*
X387180Y532388D01*
X387042Y532916D01*
X386820Y533471D01*
X386514Y533999D01*
X386347Y534276D01*
X386125Y534526D01*
Y534554D01*
X386070Y534582D01*
X385986Y534637D01*
X385903Y534749D01*
X385764Y534832D01*
X385625Y534943D01*
X385431Y535082D01*
X385237Y535193D01*
X384987Y535332D01*
X384709Y535443D01*
X384431Y535554D01*
X384098Y535665D01*
X383737Y535748D01*
X383376Y535804D01*
X382960Y535831D01*
X382515Y535859D01*
D02*
G37*
G36*
X469158Y536081D02*
X468880D01*
X468685Y536054D01*
X468463Y536026D01*
X468186Y535970D01*
X467880Y535915D01*
X467547Y535831D01*
X467186Y535720D01*
X466825Y535582D01*
X466464Y535415D01*
X466103Y535193D01*
X465714Y534971D01*
X465353Y534693D01*
X465020Y534360D01*
X464687Y533999D01*
X464659Y533971D01*
X464603Y533915D01*
X464520Y533777D01*
X464437Y533610D01*
X464298Y533416D01*
X464159Y533166D01*
X464020Y532888D01*
X463854Y532555D01*
X463687Y532194D01*
X463548Y531777D01*
X463409Y531333D01*
X463270Y530861D01*
X463187Y530361D01*
X463104Y529833D01*
X463048Y529250D01*
X463020Y528667D01*
Y524418D01*
Y524390D01*
Y524279D01*
Y524113D01*
X463048Y523863D01*
X463076Y523585D01*
X463104Y523279D01*
X463159Y522919D01*
X463243Y522530D01*
X463437Y521669D01*
X463576Y521224D01*
X463715Y520780D01*
X463909Y520336D01*
X464131Y519892D01*
X464381Y519475D01*
X464687Y519058D01*
X464714Y519031D01*
X464770Y518975D01*
X464853Y518864D01*
X464992Y518725D01*
X465159Y518586D01*
X465353Y518392D01*
X465603Y518225D01*
X465881Y518031D01*
X466186Y517837D01*
X466519Y517642D01*
X466880Y517448D01*
X467269Y517309D01*
X467713Y517170D01*
X468158Y517059D01*
X468658Y517003D01*
X469158Y516976D01*
X469296D01*
X469435Y517003D01*
X469657D01*
X469907Y517031D01*
X470185Y517087D01*
X470518Y517142D01*
X470852Y517226D01*
X471240Y517337D01*
X471629Y517476D01*
X472018Y517642D01*
X472407Y517837D01*
X472795Y518086D01*
X473184Y518364D01*
X473545Y518670D01*
X473878Y519031D01*
X473906Y519058D01*
X473962Y519114D01*
X474045Y519253D01*
X474156Y519419D01*
X474295Y519614D01*
X474434Y519864D01*
X474601Y520169D01*
X474767Y520475D01*
X474906Y520863D01*
X475073Y521252D01*
X475211Y521697D01*
X475350Y522196D01*
X475461Y522696D01*
X475545Y523252D01*
X475600Y523807D01*
X475628Y524418D01*
Y528667D01*
Y528695D01*
Y528806D01*
Y528972D01*
X475600Y529194D01*
X475572Y529472D01*
X475545Y529805D01*
X475489Y530166D01*
X475406Y530555D01*
X475211Y531388D01*
X475073Y531833D01*
X474878Y532277D01*
X474684Y532721D01*
X474462Y533166D01*
X474184Y533610D01*
X473878Y533999D01*
X473851Y534026D01*
X473795Y534082D01*
X473712Y534193D01*
X473573Y534332D01*
X473379Y534471D01*
X473156Y534665D01*
X472906Y534860D01*
X472629Y535054D01*
X472323Y535248D01*
X471962Y535415D01*
X471574Y535609D01*
X471157Y535748D01*
X470685Y535887D01*
X470213Y535998D01*
X469713Y536054D01*
X469158Y536081D01*
D02*
G37*
G36*
X426503D02*
X426225D01*
X426031Y536054D01*
X425809Y536026D01*
X425531Y535970D01*
X425225Y535915D01*
X424892Y535831D01*
X424531Y535720D01*
X424170Y535582D01*
X423809Y535415D01*
X423448Y535193D01*
X423059Y534971D01*
X422698Y534693D01*
X422365Y534360D01*
X422032Y533999D01*
X422004Y533971D01*
X421949Y533915D01*
X421865Y533777D01*
X421782Y533610D01*
X421643Y533416D01*
X421504Y533166D01*
X421365Y532888D01*
X421199Y532555D01*
X421032Y532194D01*
X420893Y531777D01*
X420754Y531333D01*
X420616Y530861D01*
X420532Y530361D01*
X420449Y529833D01*
X420394Y529250D01*
X420366Y528667D01*
Y524418D01*
Y524390D01*
Y524279D01*
Y524113D01*
X420394Y523863D01*
X420421Y523585D01*
X420449Y523279D01*
X420505Y522919D01*
X420588Y522530D01*
X420782Y521669D01*
X420921Y521224D01*
X421060Y520780D01*
X421254Y520336D01*
X421477Y519892D01*
X421726Y519475D01*
X422032Y519058D01*
X422060Y519031D01*
X422115Y518975D01*
X422198Y518864D01*
X422337Y518725D01*
X422504Y518586D01*
X422698Y518392D01*
X422948Y518225D01*
X423226Y518031D01*
X423531Y517837D01*
X423865Y517642D01*
X424226Y517448D01*
X424614Y517309D01*
X425059Y517170D01*
X425503Y517059D01*
X426003Y517003D01*
X426503Y516976D01*
X426642D01*
X426781Y517003D01*
X427003D01*
X427253Y517031D01*
X427530Y517087D01*
X427864Y517142D01*
X428197Y517226D01*
X428586Y517337D01*
X428974Y517476D01*
X429363Y517642D01*
X429752Y517837D01*
X430141Y518086D01*
X430529Y518364D01*
X430891Y518670D01*
X431224Y519031D01*
X431251Y519058D01*
X431307Y519114D01*
X431390Y519253D01*
X431501Y519419D01*
X431640Y519614D01*
X431779Y519864D01*
X431946Y520169D01*
X432112Y520475D01*
X432251Y520863D01*
X432418Y521252D01*
X432557Y521697D01*
X432696Y522196D01*
X432807Y522696D01*
X432890Y523252D01*
X432945Y523807D01*
X432973Y524418D01*
Y528667D01*
Y528695D01*
Y528806D01*
Y528972D01*
X432945Y529194D01*
X432918Y529472D01*
X432890Y529805D01*
X432834Y530166D01*
X432751Y530555D01*
X432557Y531388D01*
X432418Y531833D01*
X432224Y532277D01*
X432029Y532721D01*
X431807Y533166D01*
X431529Y533610D01*
X431224Y533999D01*
X431196Y534026D01*
X431140Y534082D01*
X431057Y534193D01*
X430918Y534332D01*
X430724Y534471D01*
X430502Y534665D01*
X430252Y534860D01*
X429974Y535054D01*
X429669Y535248D01*
X429308Y535415D01*
X428919Y535609D01*
X428502Y535748D01*
X428030Y535887D01*
X427558Y535998D01*
X427058Y536054D01*
X426503Y536081D01*
D02*
G37*
G36*
X451371Y476981D02*
X445539D01*
Y467817D01*
X451593D01*
X451760Y467845D01*
X451982D01*
X452204Y467873D01*
X452732Y467984D01*
X453315Y468123D01*
X453926Y468345D01*
X454481Y468678D01*
X454731Y468872D01*
X454981Y469095D01*
X455009Y469122D01*
X455036Y469150D01*
X455092Y469234D01*
X455175Y469317D01*
X455370Y469622D01*
X455592Y469983D01*
X455786Y470455D01*
X455981Y471038D01*
X456119Y471677D01*
X456175Y472011D01*
Y472371D01*
Y472399D01*
Y472455D01*
Y472566D01*
X456147Y472705D01*
Y472871D01*
X456119Y473066D01*
X456036Y473510D01*
X455897Y474038D01*
X455675Y474593D01*
X455370Y475121D01*
X455203Y475398D01*
X454981Y475648D01*
Y475676D01*
X454925Y475704D01*
X454842Y475759D01*
X454759Y475871D01*
X454620Y475954D01*
X454481Y476065D01*
X454287Y476204D01*
X454092Y476315D01*
X453842Y476454D01*
X453565Y476565D01*
X453287Y476676D01*
X452954Y476787D01*
X452593Y476870D01*
X452232Y476926D01*
X451815Y476954D01*
X451371Y476981D01*
D02*
G37*
G36*
X417353Y463957D02*
X413576D01*
X413437Y463929D01*
X413298D01*
X413104Y463902D01*
X412660Y463846D01*
X412160Y463707D01*
X411632Y463541D01*
X411132Y463318D01*
X410660Y462985D01*
X410604Y462930D01*
X410466Y462819D01*
X410299Y462597D01*
X410077Y462347D01*
X409855Y461985D01*
X409688Y461597D01*
X409549Y461152D01*
X409494Y460680D01*
Y460625D01*
Y460486D01*
X409521Y460264D01*
X409577Y460014D01*
X409660Y459708D01*
X409799Y459403D01*
X409966Y459097D01*
X410216Y458820D01*
X410244Y458792D01*
X410355Y458709D01*
X410521Y458598D01*
X410771Y458487D01*
X411077Y458375D01*
X411438Y458264D01*
X411882Y458181D01*
X412382Y458153D01*
X412548D01*
X412687Y458181D01*
X412826D01*
X413021Y458209D01*
X413437Y458264D01*
X413909Y458375D01*
X414437Y458542D01*
X414992Y458736D01*
X415520Y459042D01*
X415548D01*
X415575Y459070D01*
X415742Y459208D01*
X415992Y459375D01*
X416270Y459625D01*
X416603Y459931D01*
X416881Y460292D01*
X417158Y460680D01*
X417353Y461097D01*
Y463957D01*
D02*
G37*
G36*
X554592Y477315D02*
X554398D01*
X554259Y477287D01*
X554092Y477259D01*
X553870Y477231D01*
X553426Y477120D01*
X552898Y476954D01*
X552370Y476676D01*
X552120Y476509D01*
X551870Y476315D01*
X551621Y476093D01*
X551398Y475815D01*
Y475787D01*
X551343Y475759D01*
X551287Y475676D01*
X551232Y475537D01*
X551149Y475398D01*
X551037Y475204D01*
X550954Y475010D01*
X550843Y474760D01*
X550732Y474482D01*
X550649Y474177D01*
X550538Y473843D01*
X550454Y473510D01*
X550343Y472705D01*
X550288Y471788D01*
Y463513D01*
Y463485D01*
Y463402D01*
Y463263D01*
X550315Y463096D01*
Y462874D01*
X550343Y462624D01*
X550371Y462347D01*
X550426Y462041D01*
X550565Y461402D01*
X550760Y460736D01*
X551037Y460069D01*
X551426Y459458D01*
X551454Y459431D01*
X551482Y459403D01*
X551648Y459236D01*
X551898Y458986D01*
X552259Y458709D01*
X552731Y458431D01*
X553287Y458181D01*
X553926Y458014D01*
X554286Y457987D01*
X554647Y457959D01*
X554842D01*
X554981Y457987D01*
X555175Y458014D01*
X555370Y458042D01*
X555842Y458153D01*
X556342Y458320D01*
X556869Y458598D01*
X557147Y458764D01*
X557397Y458959D01*
X557619Y459208D01*
X557841Y459458D01*
Y459486D01*
X557897Y459542D01*
X557952Y459625D01*
X558008Y459736D01*
X558091Y459875D01*
X558202Y460069D01*
X558285Y460292D01*
X558396Y460541D01*
X558507Y460791D01*
X558591Y461097D01*
X558702Y461430D01*
X558785Y461791D01*
X558896Y462597D01*
X558952Y463513D01*
Y471788D01*
Y471816D01*
Y471899D01*
Y472038D01*
X558924Y472205D01*
Y472427D01*
X558896Y472677D01*
X558869Y472955D01*
X558813Y473260D01*
X558674Y473899D01*
X558480Y474565D01*
X558202Y475232D01*
X557813Y475815D01*
Y475843D01*
X557758Y475871D01*
X557591Y476037D01*
X557341Y476287D01*
X556980Y476565D01*
X556536Y476842D01*
X555980Y477092D01*
X555342Y477259D01*
X554981Y477287D01*
X554592Y477315D01*
D02*
G37*
G36*
X470171Y471205D02*
X469949D01*
X469810Y471177D01*
X469616Y471150D01*
X469394Y471122D01*
X468894Y470983D01*
X468311Y470761D01*
X468033Y470622D01*
X467755Y470428D01*
X467478Y470233D01*
X467200Y469983D01*
X466950Y469706D01*
X466700Y469372D01*
Y469345D01*
X466644Y469289D01*
X466589Y469178D01*
X466505Y469039D01*
X466422Y468872D01*
X466339Y468650D01*
X466228Y468400D01*
X466117Y468123D01*
X466006Y467790D01*
X465895Y467456D01*
X465811Y467067D01*
X465728Y466651D01*
X465589Y465762D01*
X465534Y464762D01*
Y464401D01*
Y464374D01*
Y464290D01*
Y464124D01*
X465561Y463929D01*
Y463707D01*
X465589Y463430D01*
X465645Y463124D01*
X465672Y462791D01*
X465811Y462069D01*
X466033Y461291D01*
X466311Y460514D01*
X466700Y459792D01*
X466728Y459764D01*
X466755Y459708D01*
X466839Y459625D01*
X466922Y459514D01*
X467200Y459208D01*
X467589Y458875D01*
X468088Y458542D01*
X468699Y458237D01*
X469033Y458125D01*
X469394Y458042D01*
X469810Y457987D01*
X470227Y457959D01*
X470449D01*
X470615Y457987D01*
X470782Y458014D01*
X471004Y458070D01*
X471504Y458181D01*
X472087Y458403D01*
X472365Y458542D01*
X472643Y458736D01*
X472948Y458931D01*
X473198Y459181D01*
X473476Y459458D01*
X473698Y459792D01*
X473726Y459820D01*
X473753Y459875D01*
X473809Y459986D01*
X473892Y460125D01*
X473976Y460292D01*
X474087Y460514D01*
X474198Y460764D01*
X474309Y461069D01*
X474420Y461375D01*
X474503Y461736D01*
X474614Y462097D01*
X474698Y462513D01*
X474836Y463402D01*
X474892Y463902D01*
Y464401D01*
Y464762D01*
Y464790D01*
Y464874D01*
Y465040D01*
X474864Y465235D01*
Y465457D01*
X474836Y465734D01*
X474781Y466040D01*
X474753Y466373D01*
X474614Y467123D01*
X474392Y467873D01*
X474087Y468650D01*
X473920Y469011D01*
X473698Y469372D01*
Y469400D01*
X473642Y469456D01*
X473587Y469539D01*
X473476Y469650D01*
X473198Y469955D01*
X472809Y470289D01*
X472309Y470622D01*
X471699Y470927D01*
X471365Y471038D01*
X471004Y471122D01*
X470588Y471177D01*
X470171Y471205D01*
D02*
G37*
G36*
X377614D02*
X377392D01*
X377253Y471177D01*
X377058Y471150D01*
X376836Y471122D01*
X376336Y470983D01*
X375753Y470761D01*
X375476Y470622D01*
X375198Y470428D01*
X374920Y470233D01*
X374642Y469983D01*
X374392Y469706D01*
X374143Y469372D01*
Y469345D01*
X374087Y469289D01*
X374031Y469178D01*
X373948Y469039D01*
X373865Y468872D01*
X373781Y468650D01*
X373670Y468400D01*
X373559Y468123D01*
X373448Y467790D01*
X373337Y467456D01*
X373254Y467067D01*
X373171Y466651D01*
X373032Y465762D01*
X372976Y464762D01*
Y464401D01*
Y464374D01*
Y464290D01*
Y464124D01*
X373004Y463929D01*
Y463707D01*
X373032Y463430D01*
X373087Y463124D01*
X373115Y462791D01*
X373254Y462069D01*
X373476Y461291D01*
X373754Y460514D01*
X374143Y459792D01*
X374170Y459764D01*
X374198Y459708D01*
X374281Y459625D01*
X374365Y459514D01*
X374642Y459208D01*
X375031Y458875D01*
X375531Y458542D01*
X376142Y458237D01*
X376475Y458125D01*
X376836Y458042D01*
X377253Y457987D01*
X377669Y457959D01*
X377891D01*
X378058Y457987D01*
X378225Y458014D01*
X378447Y458070D01*
X378947Y458181D01*
X379530Y458403D01*
X379808Y458542D01*
X380085Y458736D01*
X380391Y458931D01*
X380641Y459181D01*
X380918Y459458D01*
X381140Y459792D01*
X381168Y459820D01*
X381196Y459875D01*
X381252Y459986D01*
X381335Y460125D01*
X381418Y460292D01*
X381529Y460514D01*
X381640Y460764D01*
X381751Y461069D01*
X381863Y461375D01*
X381946Y461736D01*
X382057Y462097D01*
X382140Y462513D01*
X382279Y463402D01*
X382335Y463902D01*
Y464401D01*
Y464762D01*
Y464790D01*
Y464874D01*
Y465040D01*
X382307Y465235D01*
Y465457D01*
X382279Y465734D01*
X382224Y466040D01*
X382196Y466373D01*
X382057Y467123D01*
X381835Y467873D01*
X381529Y468650D01*
X381363Y469011D01*
X381140Y469372D01*
Y469400D01*
X381085Y469456D01*
X381030Y469539D01*
X380918Y469650D01*
X380641Y469955D01*
X380252Y470289D01*
X379752Y470622D01*
X379141Y470927D01*
X378808Y471038D01*
X378447Y471122D01*
X378030Y471177D01*
X377614Y471205D01*
D02*
G37*
G36*
X527586Y448223D02*
X527391D01*
X527252Y448195D01*
X527086Y448167D01*
X526864Y448139D01*
X526419Y448028D01*
X525892Y447862D01*
X525364Y447584D01*
X525114Y447417D01*
X524864Y447223D01*
X524614Y447001D01*
X524392Y446723D01*
Y446695D01*
X524337Y446668D01*
X524281Y446584D01*
X524226Y446445D01*
X524142Y446307D01*
X524031Y446112D01*
X523948Y445918D01*
X523837Y445668D01*
X523726Y445390D01*
X523642Y445085D01*
X523531Y444752D01*
X523448Y444418D01*
X523337Y443613D01*
X523281Y442697D01*
Y434421D01*
Y434393D01*
Y434310D01*
Y434171D01*
X523309Y434004D01*
Y433782D01*
X523337Y433532D01*
X523365Y433255D01*
X523420Y432949D01*
X523559Y432310D01*
X523753Y431644D01*
X524031Y430977D01*
X524420Y430367D01*
X524448Y430339D01*
X524475Y430311D01*
X524642Y430144D01*
X524892Y429894D01*
X525253Y429617D01*
X525725Y429339D01*
X526280Y429089D01*
X526919Y428923D01*
X527280Y428895D01*
X527641Y428867D01*
X527836D01*
X527974Y428895D01*
X528169Y428923D01*
X528363Y428950D01*
X528835Y429061D01*
X529335Y429228D01*
X529863Y429506D01*
X530140Y429672D01*
X530390Y429867D01*
X530613Y430117D01*
X530835Y430367D01*
Y430394D01*
X530890Y430450D01*
X530946Y430533D01*
X531001Y430644D01*
X531085Y430783D01*
X531196Y430977D01*
X531279Y431200D01*
X531390Y431450D01*
X531501Y431700D01*
X531585Y432005D01*
X531696Y432338D01*
X531779Y432699D01*
X531890Y433505D01*
X531946Y434421D01*
Y442697D01*
Y442724D01*
Y442808D01*
Y442946D01*
X531918Y443113D01*
Y443335D01*
X531890Y443585D01*
X531862Y443863D01*
X531807Y444168D01*
X531668Y444807D01*
X531473Y445473D01*
X531196Y446140D01*
X530807Y446723D01*
Y446751D01*
X530751Y446779D01*
X530585Y446945D01*
X530335Y447195D01*
X529974Y447473D01*
X529530Y447751D01*
X528974Y448001D01*
X528335Y448167D01*
X527974Y448195D01*
X527586Y448223D01*
D02*
G37*
G36*
X430141Y442113D02*
X429613D01*
X429502Y442086D01*
X429197Y442058D01*
X428808Y441947D01*
X428363Y441808D01*
X427891Y441558D01*
X427419Y441252D01*
X427197Y441030D01*
X426975Y440808D01*
Y440780D01*
X426919Y440753D01*
X426864Y440669D01*
X426808Y440586D01*
X426614Y440308D01*
X426392Y439920D01*
X426170Y439447D01*
X425948Y438892D01*
X425781Y438253D01*
X425642Y437531D01*
X425698Y437448D01*
X433640D01*
Y437698D01*
Y437726D01*
Y437781D01*
Y437892D01*
Y438031D01*
X433612Y438170D01*
X433584Y438364D01*
X433529Y438809D01*
X433418Y439309D01*
X433251Y439836D01*
X433001Y440364D01*
X432696Y440864D01*
Y440891D01*
X432640Y440919D01*
X432529Y441058D01*
X432307Y441252D01*
X431974Y441502D01*
X431557Y441724D01*
X431057Y441919D01*
X430474Y442058D01*
X430141Y442113D01*
D02*
G37*
G36*
X374823D02*
X374295D01*
X374184Y442086D01*
X373879Y442058D01*
X373490Y441947D01*
X373046Y441808D01*
X372573Y441558D01*
X372101Y441252D01*
X371879Y441030D01*
X371657Y440808D01*
Y440780D01*
X371602Y440753D01*
X371546Y440669D01*
X371491Y440586D01*
X371296Y440308D01*
X371074Y439920D01*
X370852Y439447D01*
X370630Y438892D01*
X370463Y438253D01*
X370324Y437531D01*
X370380Y437448D01*
X378322D01*
Y437698D01*
Y437726D01*
Y437781D01*
Y437892D01*
Y438031D01*
X378294Y438170D01*
X378266Y438364D01*
X378211Y438809D01*
X378100Y439309D01*
X377933Y439836D01*
X377683Y440364D01*
X377378Y440864D01*
Y440891D01*
X377322Y440919D01*
X377211Y441058D01*
X376989Y441252D01*
X376656Y441502D01*
X376239Y441724D01*
X375739Y441919D01*
X375156Y442058D01*
X374823Y442113D01*
D02*
G37*
G36*
X392096D02*
X391874D01*
X391707Y442086D01*
X391540Y442058D01*
X391318Y442002D01*
X390818Y441863D01*
X390541Y441780D01*
X390263Y441641D01*
X389957Y441475D01*
X389680Y441308D01*
X389402Y441058D01*
X389152Y440808D01*
X388902Y440503D01*
X388680Y440169D01*
Y440142D01*
X388625Y440086D01*
X388569Y439975D01*
X388513Y439808D01*
X388430Y439614D01*
X388319Y439392D01*
X388236Y439114D01*
X388125Y438809D01*
X388014Y438475D01*
X387930Y438114D01*
X387819Y437698D01*
X387736Y437254D01*
X387680Y436782D01*
X387625Y436282D01*
X387569Y435754D01*
Y435199D01*
Y434838D01*
Y434810D01*
Y434726D01*
Y434588D01*
X387597Y434393D01*
Y434171D01*
X387625Y433893D01*
X387653Y433616D01*
X387708Y433310D01*
X387847Y432616D01*
X388014Y431894D01*
X388291Y431172D01*
X388652Y430506D01*
X388680Y430478D01*
X388708Y430422D01*
X388763Y430367D01*
X388875Y430256D01*
X389124Y429978D01*
X389485Y429700D01*
X389957Y429395D01*
X390541Y429117D01*
X390874Y429006D01*
X391235Y428950D01*
X391624Y428895D01*
X392040Y428867D01*
X392262D01*
X392512Y428895D01*
X392818Y428950D01*
X393179Y429006D01*
X393540Y429117D01*
X393929Y429256D01*
X394290Y429450D01*
X394345Y429478D01*
X394456Y429561D01*
X394623Y429700D01*
X394845Y429894D01*
X395095Y430117D01*
X395345Y430422D01*
X395623Y430755D01*
X395872Y431116D01*
Y440003D01*
X395845Y440058D01*
X395761Y440169D01*
X395623Y440336D01*
X395428Y440558D01*
X395206Y440808D01*
X394928Y441058D01*
X394623Y441308D01*
X394290Y441530D01*
X394262Y441558D01*
X394123Y441613D01*
X393929Y441724D01*
X393679Y441836D01*
X393345Y441919D01*
X392985Y442030D01*
X392568Y442086D01*
X392096Y442113D01*
D02*
G37*
%LPD*%
M02*
